<svg xmlns="http://www.w3.org/2000/svg" width="17.78" height="17.78" viewBox="0 0 17.78 17.78"><defs><style>.cls-1{fill:#b06402;}.cls-2{fill:#fff;}</style></defs><g id="Layer_2" data-name="Layer 2"><g id="Layer_1-2" data-name="Layer 1"><path class="cls-1" d="M8.89,17.78a8.89,8.89,0,1,1,8.89-8.89,8.9,8.9,0,0,1-8.89,8.89"/><path class="cls-2" d="M6.83,11.87V7h0L5.2,11.87H4.06L2.45,7v4.92H1.29v-6H3.21l1.41,4.52h0L6.06,5.91H8v6Z"/><path class="cls-2" d="M10.52,11.87V7.27l-1,.82-.6-.78,1.75-1.4h1.06v6Z"/><path class="cls-2" d="M15.27,11.87V10.63H12.7v-1l2.23-3.76h1.49V9.74h.76v.89h-.76v1.24Zm0-4.71h0L13.78,9.74h1.49Z"/></g></g></svg>