<svg width="943" height="200" viewBox="0 0 943 200" fill="none" xmlns="http://www.w3.org/2000/svg">
<path d="M100 100H837" stroke="#7A7157" stroke-width="20"/>
<circle cx="100" cy="100" r="24" fill="black"/>
<ellipse cx="100.001" cy="99.9939" rx="19.2" ry="19.2" fill="white"/>
<circle cx="843" cy="100" r="24" fill="#7A7157"/>
<path d="M32.7538 20.264C33.7138 20.568 34.4658 21.08 35.0098 21.8C35.5538 22.504 35.8258 23.376 35.8258 24.416C35.8258 25.888 35.2498 27.024 34.0978 27.824C32.9618 28.608 31.2978 29 29.1058 29H20.4178V12.2H28.6258C30.6738 12.2 32.2418 12.592 33.3298 13.376C34.4338 14.16 34.9858 15.224 34.9858 16.568C34.9858 17.384 34.7858 18.112 34.3858 18.752C34.0018 19.392 33.4578 19.896 32.7538 20.264ZM24.2818 15.128V19.088H28.1458C29.1058 19.088 29.8338 18.92 30.3298 18.584C30.8258 18.248 31.0738 17.752 31.0738 17.096C31.0738 16.44 30.8258 15.952 30.3298 15.632C29.8338 15.296 29.1058 15.128 28.1458 15.128H24.2818ZM28.8178 26.072C29.8418 26.072 30.6098 25.904 31.1218 25.568C31.6498 25.232 31.9138 24.712 31.9138 24.008C31.9138 22.616 30.8818 21.92 28.8178 21.92H24.2818V26.072H28.8178ZM44.6493 29.192C43.2893 29.192 42.0653 28.912 40.9773 28.352C39.9053 27.776 39.0653 26.984 38.4573 25.976C37.8493 24.968 37.5453 23.824 37.5453 22.544C37.5453 21.264 37.8493 20.12 38.4573 19.112C39.0653 18.104 39.9053 17.32 40.9773 16.76C42.0653 16.184 43.2893 15.896 44.6493 15.896C46.0093 15.896 47.2253 16.184 48.2973 16.76C49.3693 17.32 50.2093 18.104 50.8173 19.112C51.4253 20.12 51.7293 21.264 51.7293 22.544C51.7293 23.824 51.4253 24.968 50.8173 25.976C50.2093 26.984 49.3693 27.776 48.2973 28.352C47.2253 28.912 46.0093 29.192 44.6493 29.192ZM44.6493 26.12C45.6093 26.12 46.3933 25.8 47.0013 25.16C47.6253 24.504 47.9373 23.632 47.9373 22.544C47.9373 21.456 47.6253 20.592 47.0013 19.952C46.3933 19.296 45.6093 18.968 44.6493 18.968C43.6893 18.968 42.8973 19.296 42.2733 19.952C41.6493 20.592 41.3373 21.456 41.3373 22.544C41.3373 23.632 41.6493 24.504 42.2733 25.16C42.8973 25.8 43.6893 26.12 44.6493 26.12ZM67.5519 16.088V26.84C67.5519 29.208 66.9359 30.968 65.7039 32.12C64.4719 33.272 62.6719 33.848 60.3039 33.848C59.0559 33.848 57.8719 33.696 56.7519 33.392C55.6319 33.088 54.7039 32.648 53.9679 32.072L55.4559 29.384C55.9999 29.832 56.6879 30.184 57.5199 30.44C58.3519 30.712 59.1839 30.848 60.0159 30.848C61.3119 30.848 62.2639 30.552 62.8719 29.96C63.4959 29.384 63.8079 28.504 63.8079 27.32V26.768C62.8319 27.84 61.4719 28.376 59.7279 28.376C58.5439 28.376 57.4559 28.12 56.4639 27.608C55.4879 27.08 54.7119 26.344 54.1359 25.4C53.5599 24.456 53.2719 23.368 53.2719 22.136C53.2719 20.904 53.5599 19.816 54.1359 18.872C54.7119 17.928 55.4879 17.2 56.4639 16.688C57.4559 16.16 58.5439 15.896 59.7279 15.896C61.5999 15.896 63.0239 16.512 63.9999 17.744V16.088H67.5519ZM60.4719 25.304C61.4639 25.304 62.2719 25.016 62.8959 24.44C63.5359 23.848 63.8559 23.08 63.8559 22.136C63.8559 21.192 63.5359 20.432 62.8959 19.856C62.2719 19.264 61.4639 18.968 60.4719 18.968C59.4799 18.968 58.6639 19.264 58.0239 19.856C57.3839 20.432 57.0639 21.192 57.0639 22.136C57.0639 23.08 57.3839 23.848 58.0239 24.44C58.6639 25.016 59.4799 25.304 60.4719 25.304ZM60.6879 14.624C59.4239 14.624 58.3839 14.296 57.5679 13.64C56.7519 12.984 56.3199 12.096 56.2719 10.976H58.6239C58.6399 11.488 58.8399 11.904 59.2239 12.224C59.6239 12.528 60.1119 12.68 60.6879 12.68C61.2639 12.68 61.7439 12.528 62.1279 12.224C62.5279 11.904 62.7359 11.488 62.7519 10.976H65.1039C65.0559 12.096 64.6239 12.984 63.8079 13.64C62.9919 14.296 61.9519 14.624 60.6879 14.624ZM76.2446 15.896C78.2446 15.896 79.7806 16.376 80.8526 17.336C81.9246 18.28 82.4606 19.712 82.4606 21.632V29H78.9566V27.392C78.2526 28.592 76.9406 29.192 75.0206 29.192C74.0286 29.192 73.1646 29.024 72.4286 28.688C71.7086 28.352 71.1566 27.888 70.7726 27.296C70.3886 26.704 70.1966 26.032 70.1966 25.28C70.1966 24.08 70.6446 23.136 71.5406 22.448C72.4526 21.76 73.8526 21.416 75.7406 21.416H78.7166C78.7166 20.6 78.4686 19.976 77.9726 19.544C77.4766 19.096 76.7326 18.872 75.7406 18.872C75.0526 18.872 74.3726 18.984 73.7006 19.208C73.0446 19.416 72.4846 19.704 72.0206 20.072L70.6766 17.456C71.3806 16.96 72.2206 16.576 73.1966 16.304C74.1886 16.032 75.2046 15.896 76.2446 15.896ZM75.9566 26.672C76.5966 26.672 77.1646 26.528 77.6606 26.24C78.1566 25.936 78.5086 25.496 78.7166 24.92V23.6H76.1486C74.6126 23.6 73.8446 24.104 73.8446 25.112C73.8446 25.592 74.0286 25.976 74.3966 26.264C74.7806 26.536 75.3006 26.672 75.9566 26.672ZM96.4811 26.12V29H84.9611V26.744L91.5371 18.968H85.1291V16.088H96.2651V18.344L89.6891 26.12H96.4811ZM98.8803 16.088H102.624V29H98.8803V16.088ZM100.752 14.288C100.064 14.288 99.5043 14.088 99.0723 13.688C98.6403 13.288 98.4243 12.792 98.4243 12.2C98.4243 11.608 98.6403 11.112 99.0723 10.712C99.5043 10.312 100.064 10.112 100.752 10.112C101.44 10.112 102 10.304 102.432 10.688C102.864 11.072 103.08 11.552 103.08 12.128C103.08 12.752 102.864 13.272 102.432 13.688C102 14.088 101.44 14.288 100.752 14.288ZM112.339 29.192C110.963 29.192 109.723 28.912 108.619 28.352C107.531 27.776 106.675 26.984 106.051 25.976C105.443 24.968 105.139 23.824 105.139 22.544C105.139 21.264 105.443 20.12 106.051 19.112C106.675 18.104 107.531 17.32 108.619 16.76C109.723 16.184 110.963 15.896 112.339 15.896C113.699 15.896 114.883 16.184 115.891 16.76C116.915 17.32 117.659 18.128 118.123 19.184L115.219 20.744C114.547 19.56 113.579 18.968 112.315 18.968C111.339 18.968 110.531 19.288 109.891 19.928C109.251 20.568 108.931 21.44 108.931 22.544C108.931 23.648 109.251 24.52 109.891 25.16C110.531 25.8 111.339 26.12 112.315 26.12C113.595 26.12 114.563 25.528 115.219 24.344L118.123 25.928C117.659 26.952 116.915 27.752 115.891 28.328C114.883 28.904 113.699 29.192 112.339 29.192ZM110.971 34.568C110.555 34.568 110.147 34.52 109.747 34.424C109.347 34.344 109.011 34.224 108.739 34.064L109.315 32.456C109.827 32.696 110.347 32.816 110.875 32.816C111.707 32.816 112.123 32.56 112.123 32.048C112.123 31.584 111.731 31.352 110.947 31.352H110.131L110.755 28.808H112.747L112.411 30.2C113.115 30.28 113.635 30.496 113.971 30.848C114.323 31.216 114.499 31.664 114.499 32.192C114.499 32.928 114.179 33.504 113.539 33.92C112.899 34.352 112.043 34.568 110.971 34.568ZM120.279 16.088H124.023V29H120.279V16.088ZM122.151 14.288C121.463 14.288 120.903 14.088 120.471 13.688C120.039 13.288 119.823 12.792 119.823 12.2C119.823 11.608 120.039 11.112 120.471 10.712C120.903 10.312 121.463 10.112 122.151 10.112C122.839 10.112 123.399 10.304 123.831 10.688C124.263 11.072 124.479 11.552 124.479 12.128C124.479 12.752 124.263 13.272 123.831 13.688C123.399 14.088 122.839 14.288 122.151 14.288ZM142.022 29.288C139.622 29.288 137.75 28.624 136.406 27.296C135.078 25.968 134.414 24.072 134.414 21.608V12.2H138.302V21.464C138.302 24.472 139.55 25.976 142.046 25.976C143.262 25.976 144.19 25.616 144.83 24.896C145.47 24.16 145.79 23.016 145.79 21.464V12.2H149.63V21.608C149.63 24.072 148.958 25.968 147.614 27.296C146.286 28.624 144.422 29.288 142.022 29.288ZM139.622 10.712C139.142 10.712 138.742 10.56 138.422 10.256C138.102 9.936 137.942 9.536 137.942 9.056C137.942 8.576 138.102 8.184 138.422 7.88C138.742 7.56 139.142 7.4 139.622 7.4C140.102 7.4 140.494 7.56 140.798 7.88C141.118 8.184 141.278 8.576 141.278 9.056C141.278 9.536 141.118 9.936 140.798 10.256C140.494 10.56 140.102 10.712 139.622 10.712ZM144.47 10.712C143.99 10.712 143.59 10.56 143.27 10.256C142.966 9.936 142.814 9.536 142.814 9.056C142.814 8.576 142.966 8.184 143.27 7.88C143.59 7.56 143.99 7.4 144.47 7.4C144.95 7.4 145.35 7.56 145.67 7.88C145.99 8.184 146.15 8.576 146.15 9.056C146.15 9.536 145.99 9.936 145.67 10.256C145.35 10.56 144.95 10.712 144.47 10.712ZM161.056 15.896C162.656 15.896 163.944 16.376 164.92 17.336C165.912 18.296 166.408 19.72 166.408 21.608V29H162.664V22.184C162.664 21.16 162.44 20.4 161.992 19.904C161.544 19.392 160.896 19.136 160.048 19.136C159.104 19.136 158.352 19.432 157.792 20.024C157.232 20.6 156.952 21.464 156.952 22.616V29H153.208V16.088H156.784V17.6C157.28 17.056 157.896 16.64 158.632 16.352C159.368 16.048 160.176 15.896 161.056 15.896ZM169.802 16.088H173.546V29H169.802V16.088ZM171.674 14.288C170.986 14.288 170.426 14.088 169.994 13.688C169.562 13.288 169.346 12.792 169.346 12.2C169.346 11.608 169.562 11.112 169.994 10.712C170.426 10.312 170.986 10.112 171.674 10.112C172.362 10.112 172.922 10.304 173.354 10.688C173.786 11.072 174.002 11.552 174.002 12.128C174.002 12.752 173.786 13.272 173.354 13.688C172.922 14.088 172.362 14.288 171.674 14.288ZM178.437 29.192C177.781 29.192 177.229 28.968 176.781 28.52C176.333 28.072 176.109 27.512 176.109 26.84C176.109 26.152 176.333 25.6 176.781 25.184C177.229 24.752 177.781 24.536 178.437 24.536C179.093 24.536 179.645 24.752 180.093 25.184C180.541 25.6 180.765 26.152 180.765 26.84C180.765 27.512 180.541 28.072 180.093 28.52C179.645 28.968 179.093 29.192 178.437 29.192ZM23.9733 58L20.7333 53.32H20.5413H17.1573V58H13.2693V41.2H20.5413C22.0293 41.2 23.3173 41.448 24.4053 41.944C25.5093 42.44 26.3573 43.144 26.9493 44.056C27.5413 44.968 27.8373 46.048 27.8373 47.296C27.8373 48.544 27.5333 49.624 26.9253 50.536C26.3333 51.432 25.4853 52.12 24.3813 52.6L28.1493 58H23.9733ZM23.9013 47.296C23.9013 46.352 23.5973 45.632 22.9893 45.136C22.3813 44.624 21.4933 44.368 20.3253 44.368H17.1573V50.224H20.3253C21.4933 50.224 22.3813 49.968 22.9893 49.456C23.5973 48.944 23.9013 48.224 23.9013 47.296ZM43.6618 45.088V58H40.1098V56.464C39.6138 57.024 39.0218 57.456 38.3338 57.76C37.6458 58.048 36.9018 58.192 36.1018 58.192C34.4058 58.192 33.0618 57.704 32.0698 56.728C31.0778 55.752 30.5818 54.304 30.5818 52.384V45.088H34.3258V51.832C34.3258 53.912 35.1978 54.952 36.9418 54.952C37.8378 54.952 38.5578 54.664 39.1018 54.088C39.6458 53.496 39.9178 52.624 39.9178 51.472V45.088H43.6618ZM63.6663 44.896C65.2823 44.896 66.5623 45.376 67.5063 46.336C68.4663 47.28 68.9463 48.704 68.9463 50.608V58H65.2023V51.184C65.2023 50.16 64.9863 49.4 64.5543 48.904C64.1383 48.392 63.5383 48.136 62.7543 48.136C61.8743 48.136 61.1783 48.424 60.6663 49C60.1543 49.56 59.8983 50.4 59.8983 51.52V58H56.1543V51.184C56.1543 49.152 55.3383 48.136 53.7063 48.136C52.8423 48.136 52.1543 48.424 51.6423 49C51.1303 49.56 50.8743 50.4 50.8743 51.52V58H47.1303V45.088H50.7063V46.576C51.1863 46.032 51.7703 45.616 52.4583 45.328C53.1623 45.04 53.9303 44.896 54.7623 44.896C55.6743 44.896 56.4983 45.08 57.2343 45.448C57.9703 45.8 58.5623 46.32 59.0103 47.008C59.5383 46.336 60.2023 45.816 61.0023 45.448C61.8183 45.08 62.7063 44.896 63.6663 44.896ZM85.0908 51.592C85.0908 51.64 85.0668 51.976 85.0188 52.6H75.2508C75.4268 53.4 75.8428 54.032 76.4988 54.496C77.1548 54.96 77.9708 55.192 78.9468 55.192C79.6188 55.192 80.2108 55.096 80.7228 54.904C81.2508 54.696 81.7388 54.376 82.1868 53.944L84.1788 56.104C82.9628 57.496 81.1868 58.192 78.8508 58.192C77.3948 58.192 76.1068 57.912 74.9868 57.352C73.8668 56.776 73.0028 55.984 72.3948 54.976C71.7868 53.968 71.4828 52.824 71.4828 51.544C71.4828 50.28 71.7788 49.144 72.3708 48.136C72.9788 47.112 73.8028 46.32 74.8428 45.76C75.8988 45.184 77.0748 44.896 78.3708 44.896C79.6348 44.896 80.7788 45.168 81.8028 45.712C82.8268 46.256 83.6268 47.04 84.2028 48.064C84.7948 49.072 85.0908 50.248 85.0908 51.592ZM78.3948 47.728C77.5468 47.728 76.8348 47.968 76.2588 48.448C75.6828 48.928 75.3308 49.584 75.2028 50.416H81.5628C81.4348 49.6 81.0828 48.952 80.5068 48.472C79.9308 47.976 79.2268 47.728 78.3948 47.728ZM87.5835 40.192H91.3275V58H87.5835V40.192ZM94.8022 45.088H98.5462V58H94.8022V45.088ZM96.6742 43.288C95.9862 43.288 95.4262 43.088 94.9942 42.688C94.5622 42.288 94.3462 41.792 94.3462 41.2C94.3462 40.608 94.5622 40.112 94.9942 39.712C95.4262 39.312 95.9862 39.112 96.6742 39.112C97.3622 39.112 97.9222 39.304 98.3542 39.688C98.7862 40.072 99.0022 40.552 99.0022 41.128C99.0022 41.752 98.7862 42.272 98.3542 42.688C97.9222 43.088 97.3622 43.288 96.6742 43.288ZM124.49 41.2V58H120.602V51.112H112.97V58H109.082V41.2H112.97V47.824H120.602V41.2H124.49ZM129.617 58.192C128.961 58.192 128.409 57.968 127.961 57.52C127.513 57.072 127.289 56.512 127.289 55.84C127.289 55.152 127.513 54.6 127.961 54.184C128.409 53.752 128.961 53.536 129.617 53.536C130.273 53.536 130.825 53.752 131.273 54.184C131.721 54.6 131.945 55.152 131.945 55.84C131.945 56.512 131.721 57.072 131.273 57.52C130.825 57.968 130.273 58.192 129.617 58.192ZM147.326 45.088V58H143.774V56.464C143.278 57.024 142.686 57.456 141.998 57.76C141.31 58.048 140.566 58.192 139.766 58.192C138.07 58.192 136.726 57.704 135.734 56.728C134.742 55.752 134.246 54.304 134.246 52.384V45.088H137.99V51.832C137.99 53.912 138.862 54.952 140.606 54.952C141.502 54.952 142.222 54.664 142.766 54.088C143.31 53.496 143.582 52.624 143.582 51.472V45.088H147.326ZM138.35 43.312C137.87 43.312 137.47 43.16 137.15 42.856C136.83 42.536 136.67 42.136 136.67 41.656C136.67 41.176 136.83 40.784 137.15 40.48C137.47 40.16 137.87 40 138.35 40C138.83 40 139.222 40.16 139.526 40.48C139.846 40.784 140.006 41.176 140.006 41.656C140.006 42.136 139.846 42.536 139.526 42.856C139.222 43.16 138.83 43.312 138.35 43.312ZM143.198 43.312C142.718 43.312 142.318 43.16 141.998 42.856C141.694 42.536 141.542 42.136 141.542 41.656C141.542 41.176 141.694 40.784 141.998 40.48C142.318 40.16 142.718 40 143.198 40C143.678 40 144.078 40.16 144.398 40.48C144.718 40.784 144.878 41.176 144.878 41.656C144.878 42.136 144.718 42.536 144.398 42.856C144.078 43.16 143.678 43.312 143.198 43.312ZM155.138 58.192C154.066 58.192 153.018 58.064 151.994 57.808C150.97 57.536 150.154 57.2 149.546 56.8L150.794 54.112C151.37 54.48 152.066 54.784 152.882 55.024C153.698 55.248 154.498 55.36 155.282 55.36C156.866 55.36 157.658 54.968 157.658 54.184C157.658 53.816 157.442 53.552 157.01 53.392C156.578 53.232 155.914 53.096 155.018 52.984C153.962 52.824 153.09 52.64 152.402 52.432C151.714 52.224 151.114 51.856 150.602 51.328C150.106 50.8 149.858 50.048 149.858 49.072C149.858 48.256 150.09 47.536 150.554 46.912C151.034 46.272 151.722 45.776 152.618 45.424C153.53 45.072 154.602 44.896 155.834 44.896C156.746 44.896 157.65 45 158.546 45.208C159.458 45.4 160.21 45.672 160.802 46.024L159.554 48.688C158.418 48.048 157.178 47.728 155.834 47.728C155.034 47.728 154.434 47.84 154.034 48.064C153.634 48.288 153.434 48.576 153.434 48.928C153.434 49.328 153.65 49.608 154.082 49.768C154.514 49.928 155.202 50.08 156.146 50.224C157.202 50.4 158.066 50.592 158.738 50.8C159.41 50.992 159.994 51.352 160.49 51.88C160.986 52.408 161.234 53.144 161.234 54.088C161.234 54.888 160.994 55.6 160.514 56.224C160.034 56.848 159.33 57.336 158.402 57.688C157.49 58.024 156.402 58.192 155.138 58.192ZM171.872 57.376C171.504 57.648 171.048 57.856 170.504 58C169.976 58.128 169.416 58.192 168.824 58.192C167.288 58.192 166.096 57.8 165.248 57.016C164.416 56.232 164 55.08 164 53.56V48.256H162.008V45.376H164V42.232H167.744V45.376H170.96V48.256H167.744V53.512C167.744 54.056 167.88 54.48 168.152 54.784C168.44 55.072 168.84 55.216 169.352 55.216C169.944 55.216 170.448 55.056 170.864 54.736L171.872 57.376ZM186.982 45.088V58H183.43V56.464C182.934 57.024 182.342 57.456 181.654 57.76C180.966 58.048 180.222 58.192 179.422 58.192C177.726 58.192 176.382 57.704 175.39 56.728C174.398 55.752 173.902 54.304 173.902 52.384V45.088H177.646V51.832C177.646 53.912 178.518 54.952 180.262 54.952C181.158 54.952 181.878 54.664 182.422 54.088C182.966 53.496 183.238 52.624 183.238 51.472V45.088H186.982ZM178.006 43.312C177.526 43.312 177.126 43.16 176.806 42.856C176.486 42.536 176.326 42.136 176.326 41.656C176.326 41.176 176.486 40.784 176.806 40.48C177.126 40.16 177.526 40 178.006 40C178.486 40 178.878 40.16 179.182 40.48C179.502 40.784 179.662 41.176 179.662 41.656C179.662 42.136 179.502 42.536 179.182 42.856C178.878 43.16 178.486 43.312 178.006 43.312ZM182.854 43.312C182.374 43.312 181.974 43.16 181.654 42.856C181.35 42.536 181.198 42.136 181.198 41.656C181.198 41.176 181.35 40.784 181.654 40.48C181.974 40.16 182.374 40 182.854 40C183.334 40 183.734 40.16 184.054 40.48C184.374 40.784 184.534 41.176 184.534 41.656C184.534 42.136 184.374 42.536 184.054 42.856C183.734 43.16 183.334 43.312 182.854 43.312Z" fill="black"/>
<path d="M814.279 54.4H806.479L804.991 58H801.007L808.495 41.2H812.335L819.847 58H815.767L814.279 54.4ZM813.055 51.448L810.391 45.016L807.727 51.448H813.055ZM825.552 58.192C824.48 58.192 823.432 58.064 822.408 57.808C821.384 57.536 820.568 57.2 819.96 56.8L821.208 54.112C821.784 54.48 822.48 54.784 823.296 55.024C824.112 55.248 824.912 55.36 825.696 55.36C827.28 55.36 828.072 54.968 828.072 54.184C828.072 53.816 827.856 53.552 827.424 53.392C826.992 53.232 826.328 53.096 825.432 52.984C824.376 52.824 823.504 52.64 822.816 52.432C822.128 52.224 821.528 51.856 821.016 51.328C820.52 50.8 820.272 50.048 820.272 49.072C820.272 48.256 820.504 47.536 820.968 46.912C821.448 46.272 822.136 45.776 823.032 45.424C823.944 45.072 825.016 44.896 826.248 44.896C827.16 44.896 828.064 45 828.96 45.208C829.872 45.4 830.624 45.672 831.216 46.024L829.968 48.688C828.832 48.048 827.592 47.728 826.248 47.728C825.448 47.728 824.848 47.84 824.448 48.064C824.048 48.288 823.848 48.576 823.848 48.928C823.848 49.328 824.064 49.608 824.496 49.768C824.928 49.928 825.616 50.08 826.56 50.224C827.616 50.4 828.48 50.592 829.152 50.8C829.824 50.992 830.408 51.352 830.904 51.88C831.4 52.408 831.648 53.144 831.648 54.088C831.648 54.888 831.408 55.6 830.928 56.224C830.448 56.848 829.744 57.336 828.816 57.688C827.904 58.024 826.816 58.192 825.552 58.192ZM824.952 63.568C824.536 63.568 824.128 63.52 823.728 63.424C823.328 63.344 822.992 63.224 822.72 63.064L823.296 61.456C823.808 61.696 824.328 61.816 824.856 61.816C825.688 61.816 826.104 61.56 826.104 61.048C826.104 60.584 825.712 60.352 824.928 60.352H824.112L824.736 57.808H826.728L826.392 59.2C827.096 59.28 827.616 59.496 827.952 59.848C828.304 60.216 828.48 60.664 828.48 61.192C828.48 61.928 828.16 62.504 827.52 62.92C826.88 63.352 826.024 63.568 824.952 63.568ZM833.958 45.088H837.702V58H833.958V45.088ZM835.83 43.288C835.142 43.288 834.582 43.088 834.15 42.688C833.718 42.288 833.502 41.792 833.502 41.2C833.502 40.608 833.718 40.112 834.15 39.712C834.582 39.312 835.142 39.112 835.83 39.112C836.518 39.112 837.078 39.304 837.51 39.688C837.942 40.072 838.158 40.552 838.158 41.128C838.158 41.752 837.942 42.272 837.51 42.688C837.078 43.088 836.518 43.288 835.83 43.288ZM853.993 45.088L848.161 58.792C847.569 60.28 846.833 61.328 845.953 61.936C845.089 62.544 844.041 62.848 842.809 62.848C842.137 62.848 841.473 62.744 840.817 62.536C840.161 62.328 839.625 62.04 839.209 61.672L840.577 59.008C840.865 59.264 841.193 59.464 841.561 59.608C841.945 59.752 842.321 59.824 842.689 59.824C843.201 59.824 843.617 59.696 843.937 59.44C844.257 59.2 844.545 58.792 844.801 58.216L844.849 58.096L839.257 45.088H843.121L846.745 53.848L850.393 45.088H853.993ZM860.307 44.896C862.307 44.896 863.843 45.376 864.915 46.336C865.987 47.28 866.523 48.712 866.523 50.632V58H863.019V56.392C862.315 57.592 861.003 58.192 859.083 58.192C858.091 58.192 857.227 58.024 856.491 57.688C855.771 57.352 855.219 56.888 854.835 56.296C854.451 55.704 854.259 55.032 854.259 54.28C854.259 53.08 854.707 52.136 855.603 51.448C856.515 50.76 857.915 50.416 859.803 50.416H862.779C862.779 49.6 862.531 48.976 862.035 48.544C861.539 48.096 860.795 47.872 859.803 47.872C859.115 47.872 858.435 47.984 857.763 48.208C857.107 48.416 856.547 48.704 856.083 49.072L854.739 46.456C855.443 45.96 856.283 45.576 857.259 45.304C858.251 45.032 859.267 44.896 860.307 44.896ZM860.019 55.672C860.659 55.672 861.227 55.528 861.723 55.24C862.219 54.936 862.571 54.496 862.779 53.92V52.6H860.211C858.675 52.6 857.907 53.104 857.907 54.112C857.907 54.592 858.091 54.976 858.459 55.264C858.843 55.536 859.363 55.672 860.019 55.672ZM877.76 44.896C879.36 44.896 880.648 45.376 881.624 46.336C882.616 47.296 883.112 48.72 883.112 50.608V58H879.368V51.184C879.368 50.16 879.144 49.4 878.696 48.904C878.248 48.392 877.6 48.136 876.752 48.136C875.808 48.136 875.056 48.432 874.496 49.024C873.936 49.6 873.656 50.464 873.656 51.616V58H869.912V45.088H873.488V46.6C873.984 46.056 874.6 45.64 875.336 45.352C876.072 45.048 876.88 44.896 877.76 44.896Z" fill="black"/>
<rect x="97" y="123" width="6" height="21" fill="black"/>
<g clip-path="url(#clip0_494_3893)">
<path d="M100 179C96.4289 179.008 92.9357 177.957 89.963 175.98C86.9903 174.004 84.6718 171.191 83.3013 167.897C81.9308 164.603 81.5699 160.978 82.2642 157.479C82.9586 153.98 84.6771 150.766 87.202 148.244C89.7268 145.721 92.9445 144.004 96.4473 143.31C99.9502 142.615 103.581 142.975 106.879 144.343C110.177 145.71 112.994 148.025 114.974 150.994C116.954 153.962 118.007 157.451 118 161.017C118 165.789 116.105 170.366 112.73 173.744C109.356 177.121 104.778 179.024 100 179.035" fill="#C8A977"/>
<path d="M88.5195 155.197H92.2628L95.039 164.041H95.0691L97.8453 155.197H101.589V166.869H99.3486V157.239H99.3135L96.1765 166.869H93.9366L90.7946 157.239L90.7595 157.274V166.869H88.5195V155.197Z" fill="white"/>
<path d="M110.638 157.304C110.001 157.007 109.307 156.848 108.603 156.839C106.599 156.839 105.892 158.711 105.827 160.447L105.862 160.482C106.101 160.106 106.436 159.799 106.832 159.594C107.228 159.388 107.671 159.291 108.117 159.311C110.322 159.311 111.525 160.713 111.525 162.87C111.525 165.372 110.287 167.064 107.651 167.064C104.404 167.064 103.688 164.376 103.688 161.634C103.688 158.475 104.69 155.002 108.483 155.002C109.321 154.997 110.154 155.137 110.944 155.418L110.638 157.304ZM106.053 163.255C106.053 164.361 106.524 165.327 107.676 165.327C108.829 165.327 109.215 164.276 109.215 163.24C109.215 162.104 108.744 161.048 107.626 161.048C106.509 161.048 106.053 162.084 106.053 163.255Z" fill="white"/>
</g>
<defs>
<clipPath id="clip0_494_3893">
<rect width="36" height="36" fill="white" transform="translate(82 143)"/>
</clipPath>
</defs>
</svg>
