<svg width="943" height="200" viewBox="0 0 943 200" fill="none" xmlns="http://www.w3.org/2000/svg">
<path d="M100 100H837" stroke="#7A7157" stroke-width="20"/>
<circle cx="100" cy="100" r="24" fill="black"/>
<ellipse cx="100.001" cy="99.9939" rx="19.2" ry="19.2" fill="white"/>
<circle cx="843" cy="100" r="24" fill="#7A7157"/>
<path d="M36.0042 58.288C34.6762 58.288 33.3882 58.112 32.1402 57.76C30.9082 57.392 29.9162 56.92 29.1642 56.344L30.4842 53.416C31.2042 53.944 32.0602 54.368 33.0522 54.688C34.0442 55.008 35.0362 55.168 36.0282 55.168C37.1322 55.168 37.9482 55.008 38.4762 54.688C39.0042 54.352 39.2682 53.912 39.2682 53.368C39.2682 52.968 39.1082 52.64 38.7882 52.384C38.4842 52.112 38.0842 51.896 37.5882 51.736C37.1082 51.576 36.4522 51.4 35.6202 51.208C34.3402 50.904 33.2922 50.6 32.4762 50.296C31.6602 49.992 30.9562 49.504 30.3642 48.832C29.7882 48.16 29.5002 47.264 29.5002 46.144C29.5002 45.168 29.7642 44.288 30.2922 43.504C30.8202 42.704 31.6122 42.072 32.6682 41.608C33.7402 41.144 35.0442 40.912 36.5802 40.912C37.6522 40.912 38.7002 41.04 39.7242 41.296C40.7482 41.552 41.6442 41.92 42.4122 42.4L41.2122 45.352C39.6602 44.472 38.1082 44.032 36.5562 44.032C35.4682 44.032 34.6602 44.208 34.1322 44.56C33.6202 44.912 33.3642 45.376 33.3642 45.952C33.3642 46.528 33.6602 46.96 34.2522 47.248C34.8602 47.52 35.7802 47.792 37.0122 48.064C38.2922 48.368 39.3402 48.672 40.1562 48.976C40.9722 49.28 41.6682 49.76 42.2442 50.416C42.8362 51.072 43.1322 51.96 43.1322 53.08C43.1322 54.04 42.8602 54.92 42.3162 55.72C41.7882 56.504 40.9882 57.128 39.9162 57.592C38.8442 58.056 37.5402 58.288 36.0042 58.288ZM58.1729 51.592C58.1729 51.64 58.1489 51.976 58.1009 52.6H48.3329C48.5089 53.4 48.9249 54.032 49.5809 54.496C50.2369 54.96 51.0529 55.192 52.0289 55.192C52.7009 55.192 53.2929 55.096 53.8049 54.904C54.3329 54.696 54.8209 54.376 55.2689 53.944L57.2609 56.104C56.0449 57.496 54.2689 58.192 51.9329 58.192C50.4769 58.192 49.1889 57.912 48.0689 57.352C46.9489 56.776 46.0849 55.984 45.4769 54.976C44.8689 53.968 44.5649 52.824 44.5649 51.544C44.5649 50.28 44.8609 49.144 45.4529 48.136C46.0609 47.112 46.8849 46.32 47.9249 45.76C48.9809 45.184 50.1569 44.896 51.4529 44.896C52.7169 44.896 53.8609 45.168 54.8849 45.712C55.9089 46.256 56.7089 47.04 57.2849 48.064C57.8769 49.072 58.1729 50.248 58.1729 51.592ZM51.4769 47.728C50.6289 47.728 49.9169 47.968 49.3409 48.448C48.7649 48.928 48.4129 49.584 48.2849 50.416H54.6449C54.5169 49.6 54.1649 48.952 53.5889 48.472C53.0129 47.976 52.3089 47.728 51.4769 47.728ZM73.2471 45.088L67.4151 58.792C66.8231 60.28 66.0871 61.328 65.2071 61.936C64.3431 62.544 63.2951 62.848 62.0631 62.848C61.3911 62.848 60.7271 62.744 60.0711 62.536C59.4151 62.328 58.8791 62.04 58.4631 61.672L59.8311 59.008C60.1191 59.264 60.4471 59.464 60.8151 59.608C61.1991 59.752 61.5751 59.824 61.9431 59.824C62.4551 59.824 62.8711 59.696 63.1911 59.44C63.5111 59.2 63.7991 58.792 64.0551 58.216L64.1031 58.096L58.5111 45.088H62.3751L65.9991 53.848L69.6471 45.088H73.2471ZM78.3509 46.792C78.7989 46.168 79.3989 45.696 80.1509 45.376C80.9189 45.056 81.7989 44.896 82.7909 44.896V48.352C82.3749 48.32 82.0949 48.304 81.9509 48.304C80.8789 48.304 80.0389 48.608 79.4309 49.216C78.8229 49.808 78.5189 50.704 78.5189 51.904V58H74.7749V45.088H78.3509V46.792ZM90.1548 44.896C92.1548 44.896 93.6908 45.376 94.7628 46.336C95.8348 47.28 96.3708 48.712 96.3708 50.632V58H92.8668V56.392C92.1628 57.592 90.8508 58.192 88.9308 58.192C87.9388 58.192 87.0748 58.024 86.3388 57.688C85.6188 57.352 85.0668 56.888 84.6828 56.296C84.2988 55.704 84.1068 55.032 84.1068 54.28C84.1068 53.08 84.5548 52.136 85.4508 51.448C86.3628 50.76 87.7628 50.416 89.6508 50.416H92.6268C92.6268 49.6 92.3788 48.976 91.8828 48.544C91.3868 48.096 90.6428 47.872 89.6508 47.872C88.9628 47.872 88.2828 47.984 87.6108 48.208C86.9548 48.416 86.3948 48.704 85.9308 49.072L84.5868 46.456C85.2908 45.96 86.1308 45.576 87.1068 45.304C88.0988 45.032 89.1148 44.896 90.1548 44.896ZM89.8668 55.672C90.5068 55.672 91.0748 55.528 91.5708 55.24C92.0668 54.936 92.4188 54.496 92.6268 53.92V52.6H90.0588C88.5228 52.6 87.7548 53.104 87.7548 54.112C87.7548 54.592 87.9388 54.976 88.3068 55.264C88.6908 55.536 89.2108 55.672 89.8668 55.672ZM107.607 44.896C109.207 44.896 110.495 45.376 111.471 46.336C112.463 47.296 112.959 48.72 112.959 50.608V58H109.215V51.184C109.215 50.16 108.991 49.4 108.543 48.904C108.095 48.392 107.447 48.136 106.599 48.136C105.655 48.136 104.903 48.432 104.343 49.024C103.783 49.6 103.503 50.464 103.503 51.616V58H99.7593V45.088H103.335V46.6C103.831 46.056 104.447 45.64 105.183 45.352C105.919 45.048 106.727 44.896 107.607 44.896ZM124.681 57.376C124.313 57.648 123.857 57.856 123.313 58C122.785 58.128 122.225 58.192 121.633 58.192C120.097 58.192 118.905 57.8 118.057 57.016C117.225 56.232 116.809 55.08 116.809 53.56V48.256H114.817V45.376H116.809V42.232H120.553V45.376H123.769V48.256H120.553V53.512C120.553 54.056 120.689 54.48 120.961 54.784C121.249 55.072 121.649 55.216 122.161 55.216C122.753 55.216 123.257 55.056 123.673 54.736L124.681 57.376ZM139.032 51.592C139.032 51.64 139.008 51.976 138.96 52.6H129.192C129.368 53.4 129.784 54.032 130.44 54.496C131.096 54.96 131.912 55.192 132.888 55.192C133.56 55.192 134.152 55.096 134.664 54.904C135.192 54.696 135.68 54.376 136.128 53.944L138.12 56.104C136.904 57.496 135.128 58.192 132.792 58.192C131.336 58.192 130.048 57.912 128.928 57.352C127.808 56.776 126.944 55.984 126.336 54.976C125.728 53.968 125.424 52.824 125.424 51.544C125.424 50.28 125.72 49.144 126.312 48.136C126.92 47.112 127.744 46.32 128.784 45.76C129.84 45.184 131.016 44.896 132.312 44.896C133.576 44.896 134.72 45.168 135.744 45.712C136.768 46.256 137.568 47.04 138.144 48.064C138.736 49.072 139.032 50.248 139.032 51.592ZM132.336 47.728C131.488 47.728 130.776 47.968 130.2 48.448C129.624 48.928 129.272 49.584 129.144 50.416H135.504C135.376 49.6 135.024 48.952 134.448 48.472C133.872 47.976 133.168 47.728 132.336 47.728ZM149.157 44.896C150.357 44.896 151.445 45.176 152.421 45.736C153.413 46.28 154.189 47.056 154.749 48.064C155.309 49.056 155.589 50.216 155.589 51.544C155.589 52.872 155.309 54.04 154.749 55.048C154.189 56.04 153.413 56.816 152.421 57.376C151.445 57.92 150.357 58.192 149.157 58.192C147.509 58.192 146.213 57.672 145.269 56.632V62.656H141.525V45.088H145.101V46.576C146.029 45.456 147.381 44.896 149.157 44.896ZM148.509 55.12C149.469 55.12 150.253 54.8 150.861 54.16C151.485 53.504 151.797 52.632 151.797 51.544C151.797 50.456 151.485 49.592 150.861 48.952C150.253 48.296 149.469 47.968 148.509 47.968C147.549 47.968 146.757 48.296 146.133 48.952C145.525 49.592 145.221 50.456 145.221 51.544C145.221 52.632 145.525 53.504 146.133 54.16C146.757 54.8 147.549 55.12 148.509 55.12ZM170.743 51.592C170.743 51.64 170.719 51.976 170.671 52.6H160.903C161.079 53.4 161.495 54.032 162.151 54.496C162.807 54.96 163.623 55.192 164.599 55.192C165.271 55.192 165.863 55.096 166.375 54.904C166.903 54.696 167.391 54.376 167.839 53.944L169.831 56.104C168.615 57.496 166.839 58.192 164.503 58.192C163.047 58.192 161.759 57.912 160.639 57.352C159.519 56.776 158.655 55.984 158.047 54.976C157.439 53.968 157.135 52.824 157.135 51.544C157.135 50.28 157.431 49.144 158.023 48.136C158.631 47.112 159.455 46.32 160.495 45.76C161.551 45.184 162.727 44.896 164.023 44.896C165.287 44.896 166.431 45.168 167.455 45.712C168.479 46.256 169.279 47.04 169.855 48.064C170.447 49.072 170.743 50.248 170.743 51.592ZM164.047 47.728C163.199 47.728 162.487 47.968 161.911 48.448C161.335 48.928 160.983 49.584 160.855 50.416H167.215C167.087 49.6 166.735 48.952 166.159 48.472C165.583 47.976 164.879 47.728 164.047 47.728Z" fill="black"/>
<path d="M786.527 41.2L779.255 58H775.415L768.167 41.2H772.367L777.479 53.2L782.663 41.2H786.527ZM791.913 44.896C793.913 44.896 795.449 45.376 796.521 46.336C797.593 47.28 798.129 48.712 798.129 50.632V58H794.625V56.392C793.921 57.592 792.609 58.192 790.689 58.192C789.697 58.192 788.833 58.024 788.097 57.688C787.377 57.352 786.825 56.888 786.441 56.296C786.057 55.704 785.865 55.032 785.865 54.28C785.865 53.08 786.313 52.136 787.209 51.448C788.121 50.76 789.521 50.416 791.409 50.416H794.385C794.385 49.6 794.137 48.976 793.641 48.544C793.145 48.096 792.401 47.872 791.409 47.872C790.721 47.872 790.041 47.984 789.369 48.208C788.713 48.416 788.153 48.704 787.689 49.072L786.345 46.456C787.049 45.96 787.889 45.576 788.865 45.304C789.857 45.032 790.873 44.896 791.913 44.896ZM791.625 55.672C792.265 55.672 792.833 55.528 793.329 55.24C793.825 54.936 794.177 54.496 794.385 53.92V52.6H791.817C790.281 52.6 789.513 53.104 789.513 54.112C789.513 54.592 789.697 54.976 790.065 55.264C790.449 55.536 790.969 55.672 791.625 55.672ZM814.81 40.192V58H811.234V56.512C810.306 57.632 808.962 58.192 807.202 58.192C805.986 58.192 804.882 57.92 803.89 57.376C802.914 56.832 802.146 56.056 801.586 55.048C801.026 54.04 800.746 52.872 800.746 51.544C800.746 50.216 801.026 49.048 801.586 48.04C802.146 47.032 802.914 46.256 803.89 45.712C804.882 45.168 805.986 44.896 807.202 44.896C808.85 44.896 810.138 45.416 811.066 46.456V40.192H814.81ZM807.85 55.12C808.794 55.12 809.578 54.8 810.202 54.16C810.826 53.504 811.138 52.632 811.138 51.544C811.138 50.456 810.826 49.592 810.202 48.952C809.578 48.296 808.794 47.968 807.85 47.968C806.89 47.968 806.098 48.296 805.474 48.952C804.85 49.592 804.538 50.456 804.538 51.544C804.538 52.632 804.85 53.504 805.474 54.16C806.098 54.8 806.89 55.12 807.85 55.12ZM818.275 45.088H822.019V58H818.275V45.088ZM820.147 43.288C819.459 43.288 818.899 43.088 818.467 42.688C818.035 42.288 817.819 41.792 817.819 41.2C817.819 40.608 818.035 40.112 818.467 39.712C818.899 39.312 819.459 39.112 820.147 39.112C820.835 39.112 821.395 39.304 821.827 39.688C822.259 40.072 822.475 40.552 822.475 41.128C822.475 41.752 822.259 42.272 821.827 42.688C821.395 43.088 820.835 43.288 820.147 43.288ZM829.838 58.192C828.766 58.192 827.718 58.064 826.694 57.808C825.67 57.536 824.854 57.2 824.246 56.8L825.494 54.112C826.07 54.48 826.766 54.784 827.582 55.024C828.398 55.248 829.198 55.36 829.982 55.36C831.566 55.36 832.358 54.968 832.358 54.184C832.358 53.816 832.142 53.552 831.71 53.392C831.278 53.232 830.614 53.096 829.718 52.984C828.662 52.824 827.79 52.64 827.102 52.432C826.414 52.224 825.814 51.856 825.302 51.328C824.806 50.8 824.558 50.048 824.558 49.072C824.558 48.256 824.79 47.536 825.254 46.912C825.734 46.272 826.422 45.776 827.318 45.424C828.23 45.072 829.302 44.896 830.534 44.896C831.446 44.896 832.35 45 833.246 45.208C834.158 45.4 834.91 45.672 835.502 46.024L834.254 48.688C833.118 48.048 831.878 47.728 830.534 47.728C829.734 47.728 829.134 47.84 828.734 48.064C828.334 48.288 828.134 48.576 828.134 48.928C828.134 49.328 828.35 49.608 828.782 49.768C829.214 49.928 829.902 50.08 830.846 50.224C831.902 50.4 832.766 50.592 833.438 50.8C834.11 50.992 834.694 51.352 835.19 51.88C835.686 52.408 835.934 53.144 835.934 54.088C835.934 54.888 835.694 55.6 835.214 56.224C834.734 56.848 834.03 57.336 833.102 57.688C832.19 58.024 831.102 58.192 829.838 58.192ZM846.572 57.376C846.204 57.648 845.748 57.856 845.204 58C844.676 58.128 844.116 58.192 843.524 58.192C841.988 58.192 840.796 57.8 839.948 57.016C839.116 56.232 838.7 55.08 838.7 53.56V48.256H836.708V45.376H838.7V42.232H842.444V45.376H845.66V48.256H842.444V53.512C842.444 54.056 842.58 54.48 842.852 54.784C843.14 55.072 843.54 55.216 844.052 55.216C844.644 55.216 845.148 55.056 845.564 54.736L846.572 57.376ZM853.881 44.896C855.881 44.896 857.417 45.376 858.489 46.336C859.561 47.28 860.097 48.712 860.097 50.632V58H856.593V56.392C855.889 57.592 854.577 58.192 852.657 58.192C851.665 58.192 850.801 58.024 850.065 57.688C849.345 57.352 848.793 56.888 848.409 56.296C848.025 55.704 847.833 55.032 847.833 54.28C847.833 53.08 848.281 52.136 849.177 51.448C850.089 50.76 851.489 50.416 853.377 50.416H856.353C856.353 49.6 856.105 48.976 855.609 48.544C855.113 48.096 854.369 47.872 853.377 47.872C852.689 47.872 852.009 47.984 851.337 48.208C850.681 48.416 850.121 48.704 849.657 49.072L848.313 46.456C849.017 45.96 849.857 45.576 850.833 45.304C851.825 45.032 852.841 44.896 853.881 44.896ZM853.593 55.672C854.233 55.672 854.801 55.528 855.297 55.24C855.793 54.936 856.145 54.496 856.353 53.92V52.6H853.785C852.249 52.6 851.481 53.104 851.481 54.112C851.481 54.592 851.665 54.976 852.033 55.264C852.417 55.536 852.937 55.672 853.593 55.672ZM871.334 44.896C872.934 44.896 874.222 45.376 875.198 46.336C876.19 47.296 876.686 48.72 876.686 50.608V58H872.942V51.184C872.942 50.16 872.718 49.4 872.27 48.904C871.822 48.392 871.174 48.136 870.326 48.136C869.382 48.136 868.63 48.432 868.07 49.024C867.51 49.6 867.23 50.464 867.23 51.616V58H863.486V45.088H867.062V46.6C867.558 46.056 868.174 45.64 868.91 45.352C869.646 45.048 870.454 44.896 871.334 44.896ZM887.712 44.896C888.912 44.896 890 45.176 890.976 45.736C891.968 46.28 892.744 47.056 893.304 48.064C893.864 49.056 894.144 50.216 894.144 51.544C894.144 52.872 893.864 54.04 893.304 55.048C892.744 56.04 891.968 56.816 890.976 57.376C890 57.92 888.912 58.192 887.712 58.192C885.936 58.192 884.584 57.632 883.656 56.512V58H880.08V40.192H883.824V46.456C884.768 45.416 886.064 44.896 887.712 44.896ZM887.064 55.12C888.024 55.12 888.808 54.8 889.416 54.16C890.04 53.504 890.352 52.632 890.352 51.544C890.352 50.456 890.04 49.592 889.416 48.952C888.808 48.296 888.024 47.968 887.064 47.968C886.104 47.968 885.312 48.296 884.688 48.952C884.08 49.592 883.776 50.456 883.776 51.544C883.776 52.632 884.08 53.504 884.688 54.16C885.312 54.8 886.104 55.12 887.064 55.12ZM909.658 45.088V58H906.106V56.464C905.61 57.024 905.018 57.456 904.33 57.76C903.642 58.048 902.898 58.192 902.098 58.192C900.402 58.192 899.058 57.704 898.066 56.728C897.074 55.752 896.578 54.304 896.578 52.384V45.088H900.322V51.832C900.322 53.912 901.194 54.952 902.938 54.952C903.834 54.952 904.554 54.664 905.098 54.088C905.642 53.496 905.914 52.624 905.914 51.472V45.088H909.658ZM913.126 40.192H916.87V58H913.126V40.192Z" fill="black"/>
<rect x="97" y="123" width="6" height="21" fill="black"/>
<g clip-path="url(#clip0_494_3838)">
<path d="M99.9998 179.025C96.4313 179.032 92.941 177.981 89.9705 176.006C87.0001 174.031 84.683 171.221 83.3126 167.93C81.9422 164.639 81.58 161.016 82.272 157.52C82.9639 154.024 84.6788 150.811 87.1996 148.288C89.7205 145.766 92.934 144.047 96.4334 143.349C99.9328 142.651 103.561 143.005 106.858 144.368C110.156 145.73 112.975 148.039 114.958 151.002C116.941 153.965 118 157.448 118 161.012C118 165.784 116.105 170.36 112.73 173.737C109.355 177.114 104.777 179.016 99.9998 179.025Z" fill="#009845"/>
<path d="M88.207 155.269H91.9493L94.7247 164.11H94.7598L97.5352 155.269H101.277V166.932H99.0381V157.305H99.003L95.8619 166.932H93.6226L90.4815 157.305L90.4464 157.34V166.932H88.207V155.269Z" fill="white"/>
<path d="M103.326 166.932V164.975C104.413 163.925 108.371 160.612 108.371 158.471C108.371 157.4 107.419 156.9 106.467 156.9C105.499 156.948 104.566 157.273 103.777 157.835L103.592 155.899C104.664 155.358 105.847 155.074 107.048 155.068C109.273 155.068 110.711 156.184 110.711 158.476C110.711 160.977 108.206 163.224 106.312 165.095H111.076V166.932H103.326Z" fill="white"/>
</g>
<defs>
<clipPath id="clip0_494_3838">
<rect width="36" height="36" fill="white" transform="translate(82 143)"/>
</clipPath>
</defs>
</svg>
