<svg xmlns="http://www.w3.org/2000/svg" viewBox="0 0 17.8 17.81"><defs><style>.cls-1{fill:#7a7157;}.cls-2{fill:#fff;}</style></defs><g id="Layer_2" data-name="Layer 2"><g id="Layer_1-2" data-name="Layer 1"><path class="cls-1" d="M0,8.9a8.9,8.9,0,1,1,8.9,8.91A8.9,8.9,0,0,1,0,8.9Z"/><path class="cls-2" d="M4.85,5.58H8.54v1H6.18V8.27H8.43v1H6.18v2.92H4.85Z"/><path class="cls-2" d="M9.34,11a4,4,0,0,0,1.48.3c.55,0,1.39-.26,1.39-.94s-.61-1-1.46-1H10.1v-1h.61c.9,0,1.48-.3,1.48-.88s-.55-.88-1.15-.88a3.37,3.37,0,0,0-1.49.36L9.47,5.8a5.14,5.14,0,0,1,1.86-.33c.82,0,2.19.28,2.19,1.7a1.62,1.62,0,0,1-1.24,1.59v0a1.45,1.45,0,0,1,1.27,1.58c0,1.58-1.44,2-2.54,2a6.93,6.93,0,0,1-1.75-.22Z"/></g></g></svg>