<svg width="1010" height="152" viewBox="0 0 1010 152" fill="none" xmlns="http://www.w3.org/2000/svg">
<rect x="810" y="92" width="120" height="30" fill="#D9D9D9"/>
<rect x="810" y="30" width="120" height="30" fill="#D9D9D9"/>
<path d="M842.48 52H839.336L838.086 48.748H832.363L831.182 52H828.115L833.691 37.6836H836.748L842.48 52ZM837.158 46.3359L835.186 41.0234L833.252 46.3359H837.158ZM845.291 47.3418L848.104 47.0684C848.273 48.0124 848.615 48.7057 849.129 49.1484C849.65 49.5911 850.35 49.8125 851.229 49.8125C852.16 49.8125 852.859 49.6172 853.328 49.2266C853.803 48.8294 854.041 48.3672 854.041 47.8398C854.041 47.5013 853.94 47.2148 853.738 46.9805C853.543 46.7396 853.198 46.5312 852.703 46.3555C852.365 46.2383 851.593 46.0299 850.389 45.7305C848.839 45.3464 847.752 44.8743 847.127 44.3145C846.248 43.5267 845.809 42.5664 845.809 41.4336C845.809 40.7044 846.014 40.0241 846.424 39.3926C846.84 38.7546 847.436 38.2695 848.211 37.9375C848.992 37.6055 849.933 37.4395 851.033 37.4395C852.83 37.4395 854.181 37.8333 855.086 38.6211C855.997 39.4089 856.476 40.4603 856.521 41.7754L853.631 41.9023C853.507 41.1667 853.24 40.6393 852.83 40.3203C852.426 39.9948 851.818 39.832 851.004 39.832C850.164 39.832 849.507 40.0046 849.031 40.3496C848.725 40.571 848.572 40.8672 848.572 41.2383C848.572 41.5768 848.715 41.8665 849.002 42.1074C849.367 42.4134 850.252 42.7324 851.658 43.0645C853.064 43.3965 854.103 43.7415 854.773 44.0996C855.451 44.4512 855.978 44.9362 856.355 45.5547C856.74 46.1667 856.932 46.9251 856.932 47.8301C856.932 48.6504 856.704 49.4186 856.248 50.1348C855.792 50.8509 855.148 51.3848 854.314 51.7363C853.481 52.0814 852.443 52.2539 851.199 52.2539C849.389 52.2539 847.999 51.8372 847.029 51.0039C846.059 50.1641 845.48 48.9434 845.291 47.3418ZM848.582 55.9355V54.7832C849.253 54.8548 849.868 54.8906 850.428 54.8906C851.007 54.8906 851.437 54.7865 851.717 54.5781C851.932 54.4219 852.039 54.2201 852.039 53.9727C852.039 53.7513 851.938 53.5592 851.736 53.3965C851.535 53.2337 851.222 53.1523 850.799 53.1523C850.382 53.1523 849.956 53.2174 849.52 53.3477L849.773 52.3809C850.281 52.2051 850.828 52.1172 851.414 52.1172C852.228 52.1172 852.846 52.2962 853.27 52.6543C853.693 53.0124 853.904 53.4486 853.904 53.9629C853.904 54.5358 853.67 55.0013 853.201 55.3594C852.57 55.8477 851.665 56.0918 850.486 56.0918C849.646 56.0918 849.012 56.0397 848.582 55.9355ZM861.275 52V37.6836H864.166V52H861.275ZM861.383 36.8633V34.2656H864.078V36.8633H861.383ZM872.689 52V45.9746L867.445 37.6836H870.834L874.203 43.3477L877.504 37.6836H880.834L875.57 45.9941V52H872.689ZM895.344 52H892.199L890.949 48.748H885.227L884.045 52H880.979L886.555 37.6836H889.611L895.344 52ZM890.021 46.3359L888.049 41.0234L886.115 46.3359H890.021ZM898.916 52V37.6836H901.729L907.588 47.2441V37.6836H910.273V52H907.373L901.602 42.6641V52H898.916Z" fill="#949494"/>
<rect x="80" y="92" width="120" height="30" fill="#D9D9D9"/>
<rect x="80" y="30" width="120" height="30" fill="#D9D9D9"/>
<path d="M83.3223 52V37.6836H86.2129V43.3184H91.877V37.6836H94.7676V52H91.877V45.7402H86.2129V52H83.3223ZM99.6777 52V37.6836H102.568V52H99.6777ZM99.7852 36.8633V34.2656H102.48V36.8633H99.7852ZM106.6 47.3418L109.412 47.0684C109.581 48.0124 109.923 48.7057 110.438 49.1484C110.958 49.5911 111.658 49.8125 112.537 49.8125C113.468 49.8125 114.168 49.6172 114.637 49.2266C115.112 48.8294 115.35 48.3672 115.35 47.8398C115.35 47.5013 115.249 47.2148 115.047 46.9805C114.852 46.7396 114.507 46.5312 114.012 46.3555C113.673 46.2383 112.902 46.0299 111.697 45.7305C110.148 45.3464 109.061 44.8743 108.436 44.3145C107.557 43.5267 107.117 42.5664 107.117 41.4336C107.117 40.7044 107.322 40.0241 107.732 39.3926C108.149 38.7546 108.745 38.2695 109.52 37.9375C110.301 37.6055 111.242 37.4395 112.342 37.4395C114.139 37.4395 115.49 37.8333 116.395 38.6211C117.306 39.4089 117.785 40.4603 117.83 41.7754L114.939 41.9023C114.816 41.1667 114.549 40.6393 114.139 40.3203C113.735 39.9948 113.126 39.832 112.312 39.832C111.473 39.832 110.815 40.0046 110.34 40.3496C110.034 40.571 109.881 40.8672 109.881 41.2383C109.881 41.5768 110.024 41.8665 110.311 42.1074C110.675 42.4134 111.561 42.7324 112.967 43.0645C114.373 43.3965 115.411 43.7415 116.082 44.0996C116.759 44.4512 117.286 44.9362 117.664 45.5547C118.048 46.1667 118.24 46.9251 118.24 47.8301C118.24 48.6504 118.012 49.4186 117.557 50.1348C117.101 50.8509 116.456 51.3848 115.623 51.7363C114.79 52.0814 113.751 52.2539 112.508 52.2539C110.698 52.2539 109.308 51.8372 108.338 51.0039C107.368 50.1641 106.788 48.9434 106.6 47.3418ZM122.682 52V37.6836H128.766C130.296 37.6836 131.406 37.8138 132.096 38.0742C132.792 38.3281 133.349 38.7839 133.766 39.4414C134.182 40.099 134.391 40.8509 134.391 41.6973C134.391 42.7715 134.075 43.6602 133.443 44.3633C132.812 45.0599 131.868 45.4993 130.611 45.6816C131.236 46.0462 131.751 46.4466 132.154 46.8828C132.564 47.319 133.115 48.0938 133.805 49.207L135.553 52H132.096L130.006 48.8848C129.264 47.7715 128.756 47.0716 128.482 46.7852C128.209 46.4922 127.919 46.2936 127.613 46.1895C127.307 46.0788 126.822 46.0234 126.158 46.0234H125.572V52H122.682ZM125.572 43.7383H127.711C129.098 43.7383 129.964 43.6797 130.309 43.5625C130.654 43.4453 130.924 43.2435 131.119 42.957C131.314 42.6706 131.412 42.3125 131.412 41.8828C131.412 41.401 131.282 41.0137 131.021 40.7207C130.768 40.4212 130.406 40.2324 129.938 40.1543C129.703 40.1217 129 40.1055 127.828 40.1055H125.572V43.7383ZM139.105 37.6836H141.996V45.4375C141.996 46.668 142.032 47.4655 142.104 47.8301C142.227 48.416 142.52 48.888 142.982 49.2461C143.451 49.5977 144.089 49.7734 144.896 49.7734C145.717 49.7734 146.335 49.6074 146.752 49.2754C147.169 48.9368 147.419 48.5234 147.504 48.0352C147.589 47.5469 147.631 46.7363 147.631 45.6035V37.6836H150.521V45.2031C150.521 46.9219 150.443 48.1361 150.287 48.8457C150.131 49.5553 149.841 50.1543 149.418 50.6426C149.001 51.1309 148.441 51.5215 147.738 51.8145C147.035 52.1009 146.117 52.2441 144.984 52.2441C143.617 52.2441 142.579 52.0879 141.869 51.7754C141.166 51.4564 140.609 51.0462 140.199 50.5449C139.789 50.0371 139.519 49.5065 139.389 48.9531C139.2 48.1328 139.105 46.9219 139.105 45.3203V37.6836ZM141.566 36.8633V34.5098H143.92V36.8633H141.566ZM145.766 36.8633V34.5098H148.129V36.8633H145.766ZM154.846 47.3418L157.658 47.0684C157.827 48.0124 158.169 48.7057 158.684 49.1484C159.204 49.5911 159.904 49.8125 160.783 49.8125C161.714 49.8125 162.414 49.6172 162.883 49.2266C163.358 48.8294 163.596 48.3672 163.596 47.8398C163.596 47.5013 163.495 47.2148 163.293 46.9805C163.098 46.7396 162.753 46.5312 162.258 46.3555C161.919 46.2383 161.148 46.0299 159.943 45.7305C158.394 45.3464 157.307 44.8743 156.682 44.3145C155.803 43.5267 155.363 42.5664 155.363 41.4336C155.363 40.7044 155.568 40.0241 155.979 39.3926C156.395 38.7546 156.991 38.2695 157.766 37.9375C158.547 37.6055 159.488 37.4395 160.588 37.4395C162.385 37.4395 163.736 37.8333 164.641 38.6211C165.552 39.4089 166.031 40.4603 166.076 41.7754L163.186 41.9023C163.062 41.1667 162.795 40.6393 162.385 40.3203C161.981 39.9948 161.372 39.832 160.559 39.832C159.719 39.832 159.061 40.0046 158.586 40.3496C158.28 40.571 158.127 40.8672 158.127 41.2383C158.127 41.5768 158.27 41.8665 158.557 42.1074C158.921 42.4134 159.807 42.7324 161.213 43.0645C162.619 43.3965 163.658 43.7415 164.328 44.0996C165.005 44.4512 165.533 44.9362 165.91 45.5547C166.294 46.1667 166.486 46.9251 166.486 47.8301C166.486 48.6504 166.258 49.4186 165.803 50.1348C165.347 50.8509 164.702 51.3848 163.869 51.7363C163.036 52.0814 161.997 52.2539 160.754 52.2539C158.944 52.2539 157.554 51.8372 156.584 51.0039C155.614 50.1641 155.035 48.9434 154.846 47.3418ZM174.141 52V40.1055H169.893V37.6836H181.27V40.1055H177.031V52H174.141ZM185.125 37.6836H188.016V45.4375C188.016 46.668 188.051 47.4655 188.123 47.8301C188.247 48.416 188.54 48.888 189.002 49.2461C189.471 49.5977 190.109 49.7734 190.916 49.7734C191.736 49.7734 192.355 49.6074 192.771 49.2754C193.188 48.9368 193.439 48.5234 193.523 48.0352C193.608 47.5469 193.65 46.7363 193.65 45.6035V37.6836H196.541V45.2031C196.541 46.9219 196.463 48.1361 196.307 48.8457C196.15 49.5553 195.861 50.1543 195.438 50.6426C195.021 51.1309 194.461 51.5215 193.758 51.8145C193.055 52.1009 192.137 52.2441 191.004 52.2441C189.637 52.2441 188.598 52.0879 187.889 51.7754C187.186 51.4564 186.629 51.0462 186.219 50.5449C185.809 50.0371 185.538 49.5065 185.408 48.9531C185.219 48.1328 185.125 46.9219 185.125 45.3203V37.6836ZM187.586 36.8633V34.5098H189.939V36.8633H187.586ZM191.785 36.8633V34.5098H194.148V36.8633H191.785Z" fill="#949494"/>
<path d="M402.071 79.1963L395 72.1252L405.125 62.0001L412.196 69.0712L402.071 79.1963Z" fill="#949494"/>
<path d="M412.071 82.9268L405 89.9978L395.044 80.0422L402.115 72.9711L412.071 82.9268Z" fill="#949494"/>
<path d="M615.198 72.125L608.127 79.1961L598.002 69.0709L605.073 61.9999L615.198 72.125Z" fill="#949494"/>
<path d="M605.106 89.998L598.035 82.927L607.991 72.9714L615.062 80.0424L605.106 89.998Z" fill="#949494"/>
<line x1="405.071" y1="84.9932" x2="605.071" y2="84.9932" stroke="#949494" stroke-width="10"/>
<line x1="405.071" y1="66.9932" x2="605.071" y2="66.9932" stroke="#949494" stroke-width="10"/>
<line x1="80" y1="75.9922" x2="400" y2="75.9922" stroke="#949494" stroke-width="10"/>
<line x1="610" y1="75.9922" x2="930" y2="75.9922" stroke="#949494" stroke-width="10"/>
</svg>
