<svg width="1010" height="152" viewBox="0 0 1010 152" fill="none" xmlns="http://www.w3.org/2000/svg">
<rect x="810" y="92" width="120" height="30" fill="#D9D9D9"/>
<rect x="810" y="30" width="120" height="30" fill="#D9D9D9"/>
<path d="M815.992 37.6836H821.715C822.848 37.6836 823.691 37.7324 824.244 37.8301C824.804 37.9212 825.302 38.1165 825.738 38.416C826.181 38.7155 826.549 39.1159 826.842 39.6172C827.135 40.112 827.281 40.6686 827.281 41.2871C827.281 41.9577 827.099 42.5729 826.734 43.1328C826.376 43.6927 825.888 44.1126 825.27 44.3926C826.142 44.6465 826.812 45.0794 827.281 45.6914C827.75 46.3034 827.984 47.0228 827.984 47.8496C827.984 48.5007 827.831 49.1354 827.525 49.7539C827.226 50.3659 826.812 50.8574 826.285 51.2285C825.764 51.5931 825.12 51.8177 824.352 51.9023C823.87 51.9544 822.708 51.987 820.865 52H815.992V37.6836ZM818.883 40.0664V43.377H820.777C821.904 43.377 822.604 43.3607 822.877 43.3281C823.372 43.2695 823.759 43.1003 824.039 42.8203C824.326 42.5339 824.469 42.1595 824.469 41.6973C824.469 41.2546 824.345 40.8965 824.098 40.623C823.857 40.3431 823.495 40.1738 823.014 40.1152C822.727 40.0827 821.904 40.0664 820.543 40.0664H818.883ZM818.883 45.7598V49.5879H821.559C822.6 49.5879 823.261 49.5586 823.541 49.5C823.971 49.4219 824.319 49.2331 824.586 48.9336C824.859 48.6276 824.996 48.2207 824.996 47.7129C824.996 47.2832 824.892 46.9186 824.684 46.6191C824.475 46.3197 824.173 46.1016 823.775 45.9648C823.385 45.8281 822.532 45.7598 821.217 45.7598H818.883ZM832.436 52V37.6836H843.051V40.1055H835.326V43.2793H842.514V45.6914H835.326V49.5879H843.324V52H832.436ZM851.535 52V45.9746L846.291 37.6836H849.68L853.049 43.3477L856.35 37.6836H859.68L854.416 45.9941V52H851.535ZM862.529 44.9297C862.529 43.4714 862.747 42.2474 863.184 41.2578C863.509 40.5286 863.952 39.8743 864.512 39.2949C865.078 38.7155 865.697 38.2858 866.367 38.0059C867.259 37.6283 868.288 37.4395 869.453 37.4395C871.562 37.4395 873.249 38.0938 874.512 39.4023C875.781 40.7109 876.416 42.5306 876.416 44.8613C876.416 47.1725 875.788 48.9824 874.531 50.291C873.275 51.5931 871.595 52.2441 869.492 52.2441C867.363 52.2441 865.671 51.5964 864.414 50.3008C863.158 48.9987 862.529 47.2083 862.529 44.9297ZM865.508 44.832C865.508 46.4531 865.882 47.6836 866.631 48.5234C867.38 49.3568 868.33 49.7734 869.482 49.7734C870.635 49.7734 871.579 49.36 872.314 48.5332C873.057 47.6999 873.428 46.4531 873.428 44.793C873.428 43.1523 873.066 41.9284 872.344 41.1211C871.628 40.3138 870.674 39.9102 869.482 39.9102C868.291 39.9102 867.331 40.3203 866.602 41.1406C865.872 41.9544 865.508 43.1849 865.508 44.832ZM887.342 46.7363V44.3242H893.572V50.0273C892.967 50.6133 892.088 51.1309 890.936 51.5801C889.79 52.0228 888.628 52.2441 887.449 52.2441C885.952 52.2441 884.646 51.9316 883.533 51.3066C882.42 50.6751 881.583 49.7767 881.023 48.6113C880.464 47.4395 880.184 46.1667 880.184 44.793C880.184 43.3021 880.496 41.9772 881.121 40.8184C881.746 39.6595 882.661 38.7708 883.865 38.1523C884.783 37.6771 885.926 37.4395 887.293 37.4395C889.07 37.4395 890.457 37.8138 891.453 38.5625C892.456 39.3047 893.1 40.3333 893.387 41.6484L890.516 42.1855C890.314 41.4824 889.933 40.929 889.373 40.5254C888.82 40.1152 888.126 39.9102 887.293 39.9102C886.03 39.9102 885.024 40.3105 884.275 41.1113C883.533 41.9121 883.162 43.1003 883.162 44.6758C883.162 46.375 883.54 47.651 884.295 48.5039C885.05 49.3503 886.04 49.7734 887.264 49.7734C887.869 49.7734 888.475 49.6562 889.08 49.4219C889.692 49.181 890.216 48.8913 890.652 48.5527V46.7363H887.342ZM889.178 34.0703H890.516C890.438 34.9557 890.125 35.6523 889.578 36.1602C889.038 36.6615 888.335 36.9121 887.469 36.9121C886.603 36.9121 885.896 36.6615 885.35 36.1602C884.809 35.6523 884.5 34.9557 884.422 34.0703H885.76C885.805 34.5326 885.968 34.8841 886.248 35.125C886.528 35.3594 886.935 35.4766 887.469 35.4766C888.003 35.4766 888.41 35.3594 888.689 35.125C888.969 34.8841 889.132 34.5326 889.178 34.0703ZM898.326 52V37.8008H901.217V49.5879H908.404V52H898.326ZM912.455 37.6836H915.346V45.4375C915.346 46.668 915.382 47.4655 915.453 47.8301C915.577 48.416 915.87 48.888 916.332 49.2461C916.801 49.5977 917.439 49.7734 918.246 49.7734C919.066 49.7734 919.685 49.6074 920.102 49.2754C920.518 48.9368 920.769 48.5234 920.854 48.0352C920.938 47.5469 920.98 46.7363 920.98 45.6035V37.6836H923.871V45.2031C923.871 46.9219 923.793 48.1361 923.637 48.8457C923.48 49.5553 923.191 50.1543 922.768 50.6426C922.351 51.1309 921.791 51.5215 921.088 51.8145C920.385 52.1009 919.467 52.2441 918.334 52.2441C916.967 52.2441 915.928 52.0879 915.219 51.7754C914.516 51.4564 913.959 51.0462 913.549 50.5449C913.139 50.0371 912.868 49.5065 912.738 48.9531C912.549 48.1328 912.455 46.9219 912.455 45.3203V37.6836Z" fill="#949494"/>
<rect x="80" y="92" width="120" height="30" fill="#D9D9D9"/>
<rect x="80" y="30" width="120" height="30" fill="#D9D9D9"/>
<path d="M84.9082 52V37.6836H87.7988V44.041L93.6387 37.6836H97.5254L92.1348 43.2598L97.8184 52H94.0781L90.1426 45.2812L87.7988 47.6738V52H84.9082ZM114.232 52H111.088L109.838 48.748H104.115L102.934 52H99.8672L105.443 37.6836H108.5L114.232 52ZM108.91 46.3359L106.938 41.0234L105.004 46.3359H108.91ZM117.785 52V37.6836H123.869C125.399 37.6836 126.509 37.8138 127.199 38.0742C127.896 38.3281 128.452 38.7839 128.869 39.4414C129.286 40.099 129.494 40.8509 129.494 41.6973C129.494 42.7715 129.178 43.6602 128.547 44.3633C127.915 45.0599 126.971 45.4993 125.715 45.6816C126.34 46.0462 126.854 46.4466 127.258 46.8828C127.668 47.319 128.218 48.0938 128.908 49.207L130.656 52H127.199L125.109 48.8848C124.367 47.7715 123.859 47.0716 123.586 46.7852C123.312 46.4922 123.023 46.2936 122.717 46.1895C122.411 46.0788 121.926 46.0234 121.262 46.0234H120.676V52H117.785ZM120.676 43.7383H122.814C124.201 43.7383 125.067 43.6797 125.412 43.5625C125.757 43.4453 126.027 43.2435 126.223 42.957C126.418 42.6706 126.516 42.3125 126.516 41.8828C126.516 41.401 126.385 41.0137 126.125 40.7207C125.871 40.4212 125.51 40.2324 125.041 40.1543C124.807 40.1217 124.104 40.1055 122.932 40.1055H120.676V43.7383ZM147.139 52H143.994L142.744 48.748H137.021L135.84 52H132.773L138.35 37.6836H141.406L147.139 52ZM141.816 46.3359L139.844 41.0234L137.91 46.3359H141.816ZM150.721 52V37.6836H153.611V44.041L159.451 37.6836H163.338L157.947 43.2598L163.631 52H159.891L155.955 45.2812L153.611 47.6738V52H150.721ZM166.549 44.9297C166.549 43.4714 166.767 42.2474 167.203 41.2578C167.529 40.5286 167.971 39.8743 168.531 39.2949C169.098 38.7155 169.716 38.2858 170.387 38.0059C171.279 37.6283 172.307 37.4395 173.473 37.4395C175.582 37.4395 177.268 38.0938 178.531 39.4023C179.801 40.7109 180.436 42.5306 180.436 44.8613C180.436 47.1725 179.807 48.9824 178.551 50.291C177.294 51.5931 175.615 52.2441 173.512 52.2441C171.383 52.2441 169.69 51.5964 168.434 50.3008C167.177 48.9987 166.549 47.2083 166.549 44.9297ZM169.527 44.832C169.527 46.4531 169.902 47.6836 170.65 48.5234C171.399 49.3568 172.35 49.7734 173.502 49.7734C174.654 49.7734 175.598 49.36 176.334 48.5332C177.076 47.6999 177.447 46.4531 177.447 44.793C177.447 43.1523 177.086 41.9284 176.363 41.1211C175.647 40.3138 174.693 39.9102 173.502 39.9102C172.311 39.9102 171.35 40.3203 170.621 41.1406C169.892 41.9544 169.527 43.1849 169.527 44.832ZM170.045 36.8633V34.5098H172.398V36.8633H170.045ZM174.244 36.8633V34.5098H176.607V36.8633H174.244ZM188.461 52V45.9746L183.217 37.6836H186.605L189.975 43.3477L193.275 37.6836H196.605L191.342 45.9941V52H188.461Z" fill="#949494"/>
<path d="M402.071 79.1963L395 72.1252L405.125 62.0001L412.196 69.0712L402.071 79.1963Z" fill="#949494"/>
<path d="M412.071 82.9268L405 89.9978L395.044 80.0422L402.115 72.9711L412.071 82.9268Z" fill="#949494"/>
<path d="M615.198 72.125L608.127 79.1961L598.002 69.0709L605.073 61.9999L615.198 72.125Z" fill="#949494"/>
<path d="M605.106 89.998L598.035 82.927L607.991 72.9714L615.062 80.0424L605.106 89.998Z" fill="#949494"/>
<line x1="405.071" y1="84.9932" x2="605.071" y2="84.9932" stroke="#949494" stroke-width="10"/>
<line x1="405.071" y1="66.9932" x2="605.071" y2="66.9932" stroke="#949494" stroke-width="10"/>
<line x1="80" y1="75.9922" x2="400" y2="75.9922" stroke="#949494" stroke-width="10"/>
<line x1="610" y1="75.9922" x2="930" y2="75.9922" stroke="#949494" stroke-width="10"/>
</svg>
