<svg width="1010" height="152" viewBox="0 0 1010 152" fill="none" xmlns="http://www.w3.org/2000/svg">
<rect x="810" y="92" width="120" height="30" fill="#D9D9D9"/>
<rect x="810" y="30" width="120" height="30" fill="#D9D9D9"/>
<path d="M818.062 52V37.6836H820.953V44.041L826.793 37.6836H830.68L825.289 43.2598L830.973 52H827.232L823.297 45.2812L820.953 47.6738V52H818.062ZM847.387 52H844.242L842.992 48.748H837.27L836.088 52H833.021L838.598 37.6836H841.654L847.387 52ZM842.064 46.3359L840.092 41.0234L838.158 46.3359H842.064ZM850.939 37.6836H856.662C857.795 37.6836 858.638 37.7324 859.191 37.8301C859.751 37.9212 860.249 38.1165 860.686 38.416C861.128 38.7155 861.496 39.1159 861.789 39.6172C862.082 40.112 862.229 40.6686 862.229 41.2871C862.229 41.9577 862.046 42.5729 861.682 43.1328C861.324 43.6927 860.835 44.1126 860.217 44.3926C861.089 44.6465 861.76 45.0794 862.229 45.6914C862.697 46.3034 862.932 47.0228 862.932 47.8496C862.932 48.5007 862.779 49.1354 862.473 49.7539C862.173 50.3659 861.76 50.8574 861.232 51.2285C860.712 51.5931 860.067 51.8177 859.299 51.9023C858.817 51.9544 857.655 51.987 855.812 52H850.939V37.6836ZM853.83 40.0664V43.377H855.725C856.851 43.377 857.551 43.3607 857.824 43.3281C858.319 43.2695 858.706 43.1003 858.986 42.8203C859.273 42.5339 859.416 42.1595 859.416 41.6973C859.416 41.2546 859.292 40.8965 859.045 40.623C858.804 40.3431 858.443 40.1738 857.961 40.1152C857.674 40.0827 856.851 40.0664 855.49 40.0664H853.83ZM853.83 45.7598V49.5879H856.506C857.548 49.5879 858.208 49.5586 858.488 49.5C858.918 49.4219 859.266 49.2331 859.533 48.9336C859.807 48.6276 859.943 48.2207 859.943 47.7129C859.943 47.2832 859.839 46.9186 859.631 46.6191C859.423 46.3197 859.12 46.1016 858.723 45.9648C858.332 45.8281 857.479 45.7598 856.164 45.7598H853.83ZM880.293 52H877.148L875.898 48.748H870.176L868.994 52H865.928L871.504 37.6836H874.561L880.293 52ZM874.971 46.3359L872.998 41.0234L871.064 46.3359H874.971ZM885.574 52V40.1055H881.326V37.6836H892.703V40.1055H888.465V52H885.574ZM908.004 52H904.859L903.609 48.748H897.887L896.705 52H893.639L899.215 37.6836H902.271L908.004 52ZM902.682 46.3359L900.709 41.0234L898.775 46.3359H902.682ZM910.814 47.3418L913.627 47.0684C913.796 48.0124 914.138 48.7057 914.652 49.1484C915.173 49.5911 915.873 49.8125 916.752 49.8125C917.683 49.8125 918.383 49.6172 918.852 49.2266C919.327 48.8294 919.564 48.3672 919.564 47.8398C919.564 47.5013 919.464 47.2148 919.262 46.9805C919.066 46.7396 918.721 46.5312 918.227 46.3555C917.888 46.2383 917.117 46.0299 915.912 45.7305C914.363 45.3464 913.275 44.8743 912.65 44.3145C911.771 43.5267 911.332 42.5664 911.332 41.4336C911.332 40.7044 911.537 40.0241 911.947 39.3926C912.364 38.7546 912.96 38.2695 913.734 37.9375C914.516 37.6055 915.456 37.4395 916.557 37.4395C918.354 37.4395 919.704 37.8333 920.609 38.6211C921.521 39.4089 921.999 40.4603 922.045 41.7754L919.154 41.9023C919.031 41.1667 918.764 40.6393 918.354 40.3203C917.95 39.9948 917.341 39.832 916.527 39.832C915.688 39.832 915.03 40.0046 914.555 40.3496C914.249 40.571 914.096 40.8672 914.096 41.2383C914.096 41.5768 914.239 41.8665 914.525 42.1074C914.89 42.4134 915.775 42.7324 917.182 43.0645C918.588 43.3965 919.626 43.7415 920.297 44.0996C920.974 44.4512 921.501 44.9362 921.879 45.5547C922.263 46.1667 922.455 46.9251 922.455 47.8301C922.455 48.6504 922.227 49.4186 921.771 50.1348C921.316 50.8509 920.671 51.3848 919.838 51.7363C919.005 52.0814 917.966 52.2539 916.723 52.2539C914.913 52.2539 913.523 51.8372 912.553 51.0039C911.583 50.1641 911.003 48.9434 910.814 47.3418ZM914.105 55.9355V54.7832C914.776 54.8548 915.391 54.8906 915.951 54.8906C916.531 54.8906 916.96 54.7865 917.24 54.5781C917.455 54.4219 917.562 54.2201 917.562 53.9727C917.562 53.7513 917.462 53.5592 917.26 53.3965C917.058 53.2337 916.745 53.1523 916.322 53.1523C915.906 53.1523 915.479 53.2174 915.043 53.3477L915.297 52.3809C915.805 52.2051 916.352 52.1172 916.938 52.1172C917.751 52.1172 918.37 52.2962 918.793 52.6543C919.216 53.0124 919.428 53.4486 919.428 53.9629C919.428 54.5358 919.193 55.0013 918.725 55.3594C918.093 55.8477 917.188 56.0918 916.01 56.0918C915.17 56.0918 914.535 56.0397 914.105 55.9355Z" fill="#949494"/>
<rect x="80" y="92" width="120" height="30" fill="#D9D9D9"/>
<rect x="80" y="30" width="120" height="30" fill="#D9D9D9"/>
<path d="M102.07 52V40.1055H97.8223V37.6836H109.199V40.1055H104.961V52H102.07ZM124.5 52H121.355L120.105 48.748H114.383L113.201 52H110.135L115.711 37.6836H118.768L124.5 52ZM119.178 46.3359L117.205 41.0234L115.271 46.3359H119.178ZM128.082 52V37.6836H130.973V44.041L136.812 37.6836H140.699L135.309 43.2598L140.992 52H137.252L133.316 45.2812L130.973 47.6738V52H128.082ZM143.764 47.3418L146.576 47.0684C146.745 48.0124 147.087 48.7057 147.602 49.1484C148.122 49.5911 148.822 49.8125 149.701 49.8125C150.632 49.8125 151.332 49.6172 151.801 49.2266C152.276 48.8294 152.514 48.3672 152.514 47.8398C152.514 47.5013 152.413 47.2148 152.211 46.9805C152.016 46.7396 151.671 46.5312 151.176 46.3555C150.837 46.2383 150.066 46.0299 148.861 45.7305C147.312 45.3464 146.225 44.8743 145.6 44.3145C144.721 43.5267 144.281 42.5664 144.281 41.4336C144.281 40.7044 144.486 40.0241 144.896 39.3926C145.313 38.7546 145.909 38.2695 146.684 37.9375C147.465 37.6055 148.406 37.4395 149.506 37.4395C151.303 37.4395 152.654 37.8333 153.559 38.6211C154.47 39.4089 154.949 40.4603 154.994 41.7754L152.104 41.9023C151.98 41.1667 151.713 40.6393 151.303 40.3203C150.899 39.9948 150.29 39.832 149.477 39.832C148.637 39.832 147.979 40.0046 147.504 40.3496C147.198 40.571 147.045 40.8672 147.045 41.2383C147.045 41.5768 147.188 41.8665 147.475 42.1074C147.839 42.4134 148.725 42.7324 150.131 43.0645C151.537 43.3965 152.576 43.7415 153.246 44.0996C153.923 44.4512 154.451 44.9362 154.828 45.5547C155.212 46.1667 155.404 46.9251 155.404 47.8301C155.404 48.6504 155.176 49.4186 154.721 50.1348C154.265 50.8509 153.62 51.3848 152.787 51.7363C151.954 52.0814 150.915 52.2539 149.672 52.2539C147.862 52.2539 146.472 51.8372 145.502 51.0039C144.532 50.1641 143.952 48.9434 143.764 47.3418ZM159.748 52V37.6836H162.639V52H159.748ZM159.855 36.8633V34.2656H162.551V36.8633H159.855ZM167.363 52V37.6836H171.689L174.287 47.4492L176.855 37.6836H181.191V52H178.506V40.7305L175.664 52H172.881L170.049 40.7305V52H167.363Z" fill="#949494"/>
<path d="M402.071 79.1963L395 72.1252L405.125 62.0001L412.196 69.0712L402.071 79.1963Z" fill="#949494"/>
<path d="M412.071 82.9268L405 89.9978L395.044 80.0422L402.115 72.9711L412.071 82.9268Z" fill="#949494"/>
<path d="M615.198 72.125L608.127 79.1961L598.002 69.0709L605.073 61.9999L615.198 72.125Z" fill="#949494"/>
<path d="M605.106 89.998L598.035 82.927L607.991 72.9714L615.062 80.0424L605.106 89.998Z" fill="#949494"/>
<line x1="405.071" y1="84.9932" x2="605.071" y2="84.9932" stroke="#949494" stroke-width="10"/>
<line x1="405.071" y1="66.9932" x2="605.071" y2="66.9932" stroke="#949494" stroke-width="10"/>
<line x1="80" y1="75.9922" x2="400" y2="75.9922" stroke="#949494" stroke-width="10"/>
<line x1="610" y1="75.9922" x2="930" y2="75.9922" stroke="#949494" stroke-width="10"/>
</svg>
