<svg width="1010" height="152" viewBox="0 0 1010 152" fill="none" xmlns="http://www.w3.org/2000/svg">
<rect x="810" y="92" width="120" height="30" fill="#D9D9D9"/>
<rect x="810" y="30" width="120" height="30" fill="#D9D9D9"/>
<path d="M818.82 52L813.703 37.6836H816.838L820.461 48.2793L823.967 37.6836H827.033L821.906 52H818.82ZM841.934 52H838.789L837.539 48.748H831.816L830.635 52H827.568L833.145 37.6836H836.201L841.934 52ZM836.611 46.3359L834.639 41.0234L832.705 46.3359H836.611ZM845.467 37.6836H850.75C851.941 37.6836 852.85 37.7747 853.475 37.957C854.314 38.2044 855.034 38.6439 855.633 39.2754C856.232 39.9069 856.688 40.6816 857 41.5996C857.312 42.5111 857.469 43.6374 857.469 44.9785C857.469 46.1569 857.322 47.1725 857.029 48.0254C856.671 49.0671 856.16 49.9102 855.496 50.5547C854.995 51.043 854.318 51.4238 853.465 51.6973C852.827 51.8991 851.974 52 850.906 52H845.467V37.6836ZM848.357 40.1055V49.5879H850.516C851.323 49.5879 851.906 49.5423 852.264 49.4512C852.732 49.334 853.12 49.1354 853.426 48.8555C853.738 48.5755 853.992 48.1165 854.188 47.4785C854.383 46.834 854.48 45.9583 854.48 44.8516C854.48 43.7448 854.383 42.8952 854.188 42.3027C853.992 41.7103 853.719 41.248 853.367 40.916C853.016 40.584 852.57 40.3594 852.029 40.2422C851.626 40.151 850.835 40.1055 849.656 40.1055H848.357ZM861.842 52V37.6836H864.732V52H861.842ZM861.949 36.8633V34.2656H864.645V36.8633H861.949ZM868.764 47.3418L871.576 47.0684C871.745 48.0124 872.087 48.7057 872.602 49.1484C873.122 49.5911 873.822 49.8125 874.701 49.8125C875.632 49.8125 876.332 49.6172 876.801 49.2266C877.276 48.8294 877.514 48.3672 877.514 47.8398C877.514 47.5013 877.413 47.2148 877.211 46.9805C877.016 46.7396 876.671 46.5312 876.176 46.3555C875.837 46.2383 875.066 46.0299 873.861 45.7305C872.312 45.3464 871.225 44.8743 870.6 44.3145C869.721 43.5267 869.281 42.5664 869.281 41.4336C869.281 40.7044 869.486 40.0241 869.896 39.3926C870.313 38.7546 870.909 38.2695 871.684 37.9375C872.465 37.6055 873.406 37.4395 874.506 37.4395C876.303 37.4395 877.654 37.8333 878.559 38.6211C879.47 39.4089 879.949 40.4603 879.994 41.7754L877.104 41.9023C876.98 41.1667 876.713 40.6393 876.303 40.3203C875.899 39.9948 875.29 39.832 874.477 39.832C873.637 39.832 872.979 40.0046 872.504 40.3496C872.198 40.571 872.045 40.8672 872.045 41.2383C872.045 41.5768 872.188 41.8665 872.475 42.1074C872.839 42.4134 873.725 42.7324 875.131 43.0645C876.537 43.3965 877.576 43.7415 878.246 44.0996C878.923 44.4512 879.451 44.9362 879.828 45.5547C880.212 46.1667 880.404 46.9251 880.404 47.8301C880.404 48.6504 880.176 49.4186 879.721 50.1348C879.265 50.8509 878.62 51.3848 877.787 51.7363C876.954 52.0814 875.915 52.2539 874.672 52.2539C872.862 52.2539 871.472 51.8372 870.502 51.0039C869.532 50.1641 868.952 48.9434 868.764 47.3418ZM888.059 52V40.1055H883.811V37.6836H895.188V40.1055H890.949V52H888.059ZM899.072 37.6836H904.795C905.928 37.6836 906.771 37.7324 907.324 37.8301C907.884 37.9212 908.382 38.1165 908.818 38.416C909.261 38.7155 909.629 39.1159 909.922 39.6172C910.215 40.112 910.361 40.6686 910.361 41.2871C910.361 41.9577 910.179 42.5729 909.814 43.1328C909.456 43.6927 908.968 44.1126 908.35 44.3926C909.222 44.6465 909.893 45.0794 910.361 45.6914C910.83 46.3034 911.064 47.0228 911.064 47.8496C911.064 48.5007 910.911 49.1354 910.605 49.7539C910.306 50.3659 909.893 50.8574 909.365 51.2285C908.844 51.5931 908.2 51.8177 907.432 51.9023C906.95 51.9544 905.788 51.987 903.945 52H899.072V37.6836ZM901.963 40.0664V43.377H903.857C904.984 43.377 905.684 43.3607 905.957 43.3281C906.452 43.2695 906.839 43.1003 907.119 42.8203C907.406 42.5339 907.549 42.1595 907.549 41.6973C907.549 41.2546 907.425 40.8965 907.178 40.623C906.937 40.3431 906.576 40.1738 906.094 40.1152C905.807 40.0827 904.984 40.0664 903.623 40.0664H901.963ZM901.963 45.7598V49.5879H904.639C905.68 49.5879 906.341 49.5586 906.621 49.5C907.051 49.4219 907.399 49.2331 907.666 48.9336C907.939 48.6276 908.076 48.2207 908.076 47.7129C908.076 47.2832 907.972 46.9186 907.764 46.6191C907.555 46.3197 907.253 46.1016 906.855 45.9648C906.465 45.8281 905.612 45.7598 904.297 45.7598H901.963ZM915.594 52V37.8008H918.484V49.5879H925.672V52H915.594Z" fill="#949494"/>
<rect x="80" y="92" width="120" height="30" fill="#D9D9D9"/>
<rect x="80" y="30" width="120" height="30" fill="#D9D9D9"/>
<path d="M87.4766 47.3418L90.2891 47.0684C90.4583 48.0124 90.8001 48.7057 91.3145 49.1484C91.8353 49.5911 92.5352 49.8125 93.4141 49.8125C94.3451 49.8125 95.0449 49.6172 95.5137 49.2266C95.9889 48.8294 96.2266 48.3672 96.2266 47.8398C96.2266 47.5013 96.1257 47.2148 95.9238 46.9805C95.7285 46.7396 95.3835 46.5312 94.8887 46.3555C94.5501 46.2383 93.7786 46.0299 92.5742 45.7305C91.0247 45.3464 89.9375 44.8743 89.3125 44.3145C88.4336 43.5267 87.9941 42.5664 87.9941 41.4336C87.9941 40.7044 88.1992 40.0241 88.6094 39.3926C89.026 38.7546 89.6217 38.2695 90.3965 37.9375C91.1777 37.6055 92.1185 37.4395 93.2188 37.4395C95.0156 37.4395 96.3665 37.8333 97.2715 38.6211C98.1829 39.4089 98.6615 40.4603 98.707 41.7754L95.8164 41.9023C95.6927 41.1667 95.4258 40.6393 95.0156 40.3203C94.612 39.9948 94.0033 39.832 93.1895 39.832C92.3496 39.832 91.6921 40.0046 91.2168 40.3496C90.9108 40.571 90.7578 40.8672 90.7578 41.2383C90.7578 41.5768 90.901 41.8665 91.1875 42.1074C91.5521 42.4134 92.4375 42.7324 93.8438 43.0645C95.25 43.3965 96.2884 43.7415 96.959 44.0996C97.6361 44.4512 98.1634 44.9362 98.541 45.5547C98.9251 46.1667 99.1172 46.9251 99.1172 47.8301C99.1172 48.6504 98.8893 49.4186 98.4336 50.1348C97.9779 50.8509 97.3333 51.3848 96.5 51.7363C95.6667 52.0814 94.6283 52.2539 93.3848 52.2539C91.5749 52.2539 90.1849 51.8372 89.2148 51.0039C88.2448 50.1641 87.6654 48.9434 87.4766 47.3418ZM107.309 52V45.9746L102.064 37.6836H105.453L108.822 43.3477L112.123 37.6836H115.453L110.189 45.9941V52H107.309ZM118.898 52V37.6836H124.982C126.512 37.6836 127.622 37.8138 128.312 38.0742C129.009 38.3281 129.566 38.7839 129.982 39.4414C130.399 40.099 130.607 40.8509 130.607 41.6973C130.607 42.7715 130.292 43.6602 129.66 44.3633C129.029 45.0599 128.085 45.4993 126.828 45.6816C127.453 46.0462 127.967 46.4466 128.371 46.8828C128.781 47.319 129.331 48.0938 130.021 49.207L131.77 52H128.312L126.223 48.8848C125.48 47.7715 124.973 47.0716 124.699 46.7852C124.426 46.4922 124.136 46.2936 123.83 46.1895C123.524 46.0788 123.039 46.0234 122.375 46.0234H121.789V52H118.898ZM121.789 43.7383H123.928C125.314 43.7383 126.18 43.6797 126.525 43.5625C126.87 43.4453 127.141 43.2435 127.336 42.957C127.531 42.6706 127.629 42.3125 127.629 41.8828C127.629 41.401 127.499 41.0137 127.238 40.7207C126.984 40.4212 126.623 40.2324 126.154 40.1543C125.92 40.1217 125.217 40.1055 124.045 40.1055H121.789V43.7383ZM135.371 52V37.6836H138.184L144.043 47.2441V37.6836H146.729V52H143.828L138.057 42.6641V52H135.371ZM155.018 52V40.1055H150.77V37.6836H162.146V40.1055H157.908V52H155.018ZM166.021 52V37.6836H170.66C172.418 37.6836 173.564 37.7552 174.098 37.8984C174.918 38.1133 175.605 38.582 176.158 39.3047C176.712 40.0208 176.988 40.9486 176.988 42.0879C176.988 42.9668 176.829 43.7057 176.51 44.3047C176.191 44.9036 175.784 45.3757 175.289 45.7207C174.801 46.0592 174.303 46.2839 173.795 46.3945C173.105 46.5312 172.105 46.5996 170.797 46.5996H168.912V52H166.021ZM168.912 40.1055V44.168H170.494C171.633 44.168 172.395 44.0931 172.779 43.9434C173.163 43.7936 173.463 43.5592 173.678 43.2402C173.899 42.9212 174.01 42.5501 174.01 42.127C174.01 41.6061 173.857 41.1764 173.551 40.8379C173.245 40.4993 172.857 40.2878 172.389 40.2031C172.044 40.138 171.35 40.1055 170.309 40.1055H168.912ZM181.361 52V37.6836H191.977V40.1055H184.252V43.2793H191.439V45.6914H184.252V49.5879H192.25V52H181.361Z" fill="#949494"/>
<path d="M402.071 79.1963L395 72.1252L405.125 62.0001L412.196 69.0712L402.071 79.1963Z" fill="#949494"/>
<path d="M412.071 82.9268L405 89.9978L395.044 80.0422L402.115 72.9711L412.071 82.9268Z" fill="#949494"/>
<path d="M615.198 72.125L608.127 79.1961L598.002 69.0709L605.073 61.9999L615.198 72.125Z" fill="#949494"/>
<path d="M605.106 89.998L598.035 82.927L607.991 72.9714L615.062 80.0424L605.106 89.998Z" fill="#949494"/>
<line x1="405.071" y1="84.9932" x2="605.071" y2="84.9932" stroke="#949494" stroke-width="10"/>
<line x1="405.071" y1="66.9932" x2="605.071" y2="66.9932" stroke="#949494" stroke-width="10"/>
<line x1="80" y1="75.9922" x2="400" y2="75.9922" stroke="#949494" stroke-width="10"/>
<line x1="610" y1="75.9922" x2="930" y2="75.9922" stroke="#949494" stroke-width="10"/>
</svg>
