<svg width="36" height="36" viewBox="0 0 36 36" fill="none" xmlns="http://www.w3.org/2000/svg">
<g clip-path="url(#clip0_744_2)">
<path d="M0 18C0 14.4399 1.05568 10.9598 3.03355 7.99974C5.01141 5.03966 7.82263 2.73255 11.1117 1.37018C14.4008 0.00779914 18.02 -0.348661 21.5116 0.345873C25.0033 1.04041 28.2106 2.75474 30.7279 5.27209C33.2453 7.78943 34.9596 10.9967 35.6541 14.4884C36.3487 17.98 35.9922 21.5992 34.6298 24.8883C33.2675 28.1774 30.9603 30.9886 28.0003 32.9665C25.0402 34.9443 21.5601 36 18 36C13.2277 35.9947 8.65248 34.0965 5.27799 30.722C1.9035 27.3475 0.00535307 22.7723 0 18Z" fill="#376B8C"/>
<path d="M2.40723 12.6H6.1488L8.96004 21.4584H9.00049L11.751 12.5798H15.5128L15.5331 24.2899H13.2881L13.2679 14.6225H13.2477L10.1128 24.2899H7.8679L4.69262 14.6427L4.65217 14.6831L4.6724 24.3101H2.42745L2.40723 12.6Z" fill="white"/>
<path d="M16.9481 22.1056C17.7723 22.4351 18.6493 22.6133 19.5368 22.6315C20.5076 22.6315 22.0042 22.1461 22.0042 20.973C22.0042 19.8 20.9121 19.1326 19.4155 19.1326H18.202V17.2921H19.2739C20.8514 17.2921 21.8627 16.7663 21.8627 15.7551C21.8627 14.7438 20.993 14.1573 19.9211 14.1573C19.0087 14.1659 18.11 14.3802 17.2919 14.7843L17.1503 12.9034C18.1963 12.503 19.3067 12.2974 20.4267 12.2966C21.8627 12.2966 24.2896 12.8022 24.2896 15.2899C24.3192 15.9502 24.12 16.6005 23.7258 17.1311C23.3315 17.6617 22.7664 18.04 22.1256 18.2022C22.7673 18.307 23.3453 18.6512 23.7432 19.1654C24.141 19.6797 24.3291 20.3256 24.2694 20.973C24.2694 23.764 21.7413 24.4719 19.7997 24.4719C18.7624 24.4827 17.7283 24.3535 16.7256 24.0876L16.9481 22.1056Z" fill="white"/>
<path d="M24.7959 19.9416L29.1644 12.5393H32.0768V20.0629H33.5734V21.8022H32.0768V24.2696H29.8521V21.8427H24.8161L24.7959 19.9416ZM29.8521 20.0831V14.9865L26.9195 20.0831H29.8521Z" fill="white"/>
</g>
<defs>
<clipPath id="clip0_744_2">
<rect width="36" height="36" fill="white"/>
</clipPath>
</defs>
</svg>
