<svg xmlns="http://www.w3.org/2000/svg" viewBox="0 0 17.8 17.8"><defs><style>.cls-1{fill:#9d9d9c;}.cls-2{fill:#fff;}</style></defs><g id="Layer_2" data-name="Layer 2"><g id="Layer_1-2" data-name="Layer 1"><path class="cls-1" d="M0,8.9a8.9,8.9,0,1,1,8.9,8.9A8.91,8.91,0,0,1,0,8.9"/><polygon class="cls-2" points="1.19 6.23 3.04 6.23 4.43 10.61 4.45 10.61 5.81 6.22 7.67 6.22 7.68 12.01 6.57 12.01 6.56 7.23 6.55 7.23 5 12.01 3.89 12.01 2.32 7.24 2.3 7.26 2.31 12.02 1.2 12.02 1.19 6.23"/><path class="cls-2" d="M8.38,10.93a3.65,3.65,0,0,0,1.28.26c.48,0,1.22-.24,1.22-.82s-.54-.91-1.28-.91H9V8.55h.53c.78,0,1.28-.26,1.28-.76S10.38,7,9.85,7a3,3,0,0,0-1.3.31l-.07-.93a4.54,4.54,0,0,1,1.62-.3c.71,0,1.91.25,1.91,1.48A1.42,1.42,0,0,1,10.94,9V9A1.27,1.27,0,0,1,12,10.37c0,1.38-1.25,1.73-2.21,1.73a5.7,5.7,0,0,1-1.52-.19Z"/><path class="cls-2" d="M12.26,9.86,14.42,6.2h1.44V9.92h.74v.86h-.74V12H14.76v-1.2H12.27Zm2.5.07V7.41h0L13.31,9.93Z"/></g></g></svg>