<svg width="6136" height="370" viewBox="0 0 6136 370" fill="none" xmlns="http://www.w3.org/2000/svg">
<rect x="5816" y="95" width="120" height="30" fill="#D9D9D9"/>
<path d="M5853.04 112.342L5855.86 112.068C5856.02 113.012 5856.37 113.706 5856.88 114.148C5857.4 114.591 5858.1 114.812 5858.98 114.812C5859.91 114.812 5860.61 114.617 5861.08 114.227C5861.56 113.829 5861.79 113.367 5861.79 112.84C5861.79 112.501 5861.69 112.215 5861.49 111.98C5861.29 111.74 5860.95 111.531 5860.46 111.355C5860.12 111.238 5859.35 111.03 5858.14 110.73C5856.59 110.346 5855.5 109.874 5854.88 109.314C5854 108.527 5853.56 107.566 5853.56 106.434C5853.56 105.704 5853.77 105.024 5854.18 104.393C5854.59 103.755 5855.19 103.27 5855.96 102.938C5856.74 102.605 5857.68 102.439 5858.79 102.439C5860.58 102.439 5861.93 102.833 5862.84 103.621C5863.75 104.409 5864.23 105.46 5864.27 106.775L5861.38 106.902C5861.26 106.167 5860.99 105.639 5860.58 105.32C5860.18 104.995 5859.57 104.832 5858.76 104.832C5857.92 104.832 5857.26 105.005 5856.78 105.35C5856.48 105.571 5856.32 105.867 5856.32 106.238C5856.32 106.577 5856.47 106.867 5856.75 107.107C5857.12 107.413 5858 107.732 5859.41 108.064C5860.82 108.396 5861.85 108.742 5862.53 109.1C5863.2 109.451 5863.73 109.936 5864.11 110.555C5864.49 111.167 5864.68 111.925 5864.68 112.83C5864.68 113.65 5864.46 114.419 5864 115.135C5863.54 115.851 5862.9 116.385 5862.07 116.736C5861.23 117.081 5860.19 117.254 5858.95 117.254C5857.14 117.254 5855.75 116.837 5854.78 116.004C5853.81 115.164 5853.23 113.943 5853.04 112.342ZM5875.78 111.736V109.324H5882.01V115.027C5881.4 115.613 5880.52 116.131 5879.37 116.58C5878.22 117.023 5877.06 117.244 5875.88 117.244C5874.39 117.244 5873.08 116.932 5871.97 116.307C5870.85 115.675 5870.02 114.777 5869.46 113.611C5868.9 112.439 5868.62 111.167 5868.62 109.793C5868.62 108.302 5868.93 106.977 5869.55 105.818C5870.18 104.66 5871.09 103.771 5872.3 103.152C5873.22 102.677 5874.36 102.439 5875.73 102.439C5877.5 102.439 5878.89 102.814 5879.89 103.562C5880.89 104.305 5881.53 105.333 5881.82 106.648L5878.95 107.186C5878.75 106.482 5878.37 105.929 5877.81 105.525C5877.25 105.115 5876.56 104.91 5875.73 104.91C5874.46 104.91 5873.46 105.311 5872.71 106.111C5871.97 106.912 5871.6 108.1 5871.6 109.676C5871.6 111.375 5871.97 112.651 5872.73 113.504C5873.48 114.35 5874.47 114.773 5875.7 114.773C5876.3 114.773 5876.91 114.656 5877.51 114.422C5878.13 114.181 5878.65 113.891 5879.09 113.553V111.736H5875.78ZM5886.69 117V102.684H5889.58V108.318H5895.25V102.684H5898.14V117H5895.25V110.74H5889.58V117H5886.69Z" fill="#949494"/>
<rect x="5416" y="95" width="120" height="30" fill="#D9D9D9"/>
<path d="M5422.02 117V102.684H5424.91V109.041L5430.75 102.684H5434.64L5429.25 108.26L5434.93 117H5431.19L5427.26 110.281L5424.91 112.674V117H5422.02ZM5438.42 102.684H5441.31V110.438C5441.31 111.668 5441.34 112.465 5441.41 112.83C5441.54 113.416 5441.83 113.888 5442.29 114.246C5442.76 114.598 5443.4 114.773 5444.21 114.773C5445.03 114.773 5445.65 114.607 5446.06 114.275C5446.48 113.937 5446.73 113.523 5446.81 113.035C5446.9 112.547 5446.94 111.736 5446.94 110.604V102.684H5449.83V110.203C5449.83 111.922 5449.75 113.136 5449.6 113.846C5449.44 114.555 5449.15 115.154 5448.73 115.643C5448.31 116.131 5447.75 116.521 5447.05 116.814C5446.35 117.101 5445.43 117.244 5444.29 117.244C5442.93 117.244 5441.89 117.088 5441.18 116.775C5440.48 116.456 5439.92 116.046 5439.51 115.545C5439.1 115.037 5438.83 114.507 5438.7 113.953C5438.51 113.133 5438.42 111.922 5438.42 110.32V102.684ZM5454.9 117V102.684H5460.98C5462.51 102.684 5463.62 102.814 5464.31 103.074C5465.01 103.328 5465.57 103.784 5465.98 104.441C5466.4 105.099 5466.61 105.851 5466.61 106.697C5466.61 107.771 5466.29 108.66 5465.66 109.363C5465.03 110.06 5464.08 110.499 5462.83 110.682C5463.45 111.046 5463.97 111.447 5464.37 111.883C5464.78 112.319 5465.33 113.094 5466.02 114.207L5467.77 117H5464.31L5462.22 113.885C5461.48 112.771 5460.97 112.072 5460.7 111.785C5460.43 111.492 5460.14 111.294 5459.83 111.189C5459.52 111.079 5459.04 111.023 5458.38 111.023H5457.79V117H5454.9ZM5457.79 108.738H5459.93C5461.31 108.738 5462.18 108.68 5462.53 108.562C5462.87 108.445 5463.14 108.243 5463.34 107.957C5463.53 107.671 5463.63 107.312 5463.63 106.883C5463.63 106.401 5463.5 106.014 5463.24 105.721C5462.98 105.421 5462.62 105.232 5462.15 105.154C5461.92 105.122 5461.22 105.105 5460.04 105.105H5457.79V108.738ZM5474.56 117V105.105H5470.32V102.684H5481.69V105.105H5477.46V117H5474.56ZM5485.61 117V102.684H5488.5V109.041L5494.34 102.684H5498.22L5492.83 108.26L5498.52 117H5494.78L5490.84 110.281L5488.5 112.674V117H5485.61ZM5501.44 109.93C5501.44 108.471 5501.65 107.247 5502.09 106.258C5502.42 105.529 5502.86 104.874 5503.42 104.295C5503.98 103.715 5504.6 103.286 5505.27 103.006C5506.17 102.628 5507.19 102.439 5508.36 102.439C5510.47 102.439 5512.15 103.094 5513.42 104.402C5514.69 105.711 5515.32 107.531 5515.32 109.861C5515.32 112.173 5514.69 113.982 5513.44 115.291C5512.18 116.593 5510.5 117.244 5508.4 117.244C5506.27 117.244 5504.58 116.596 5503.32 115.301C5502.06 113.999 5501.44 112.208 5501.44 109.93ZM5504.41 109.832C5504.41 111.453 5504.79 112.684 5505.54 113.523C5506.29 114.357 5507.24 114.773 5508.39 114.773C5509.54 114.773 5510.49 114.36 5511.22 113.533C5511.96 112.7 5512.33 111.453 5512.33 109.793C5512.33 108.152 5511.97 106.928 5511.25 106.121C5510.53 105.314 5509.58 104.91 5508.39 104.91C5507.2 104.91 5506.24 105.32 5505.51 106.141C5504.78 106.954 5504.41 108.185 5504.41 109.832ZM5504.93 101.863V99.5098H5507.29V101.863H5504.93ZM5509.13 101.863V99.5098H5511.49V101.863H5509.13ZM5523.35 117V110.975L5518.1 102.684H5521.49L5524.86 108.348L5528.16 102.684H5531.49L5526.23 110.994V117H5523.35Z" fill="#949494"/>
<rect x="4701" y="95" width="120" height="30" fill="#D9D9D9"/>
<path d="M4707.92 112.342L4710.73 112.068C4710.9 113.012 4711.24 113.706 4711.76 114.148C4712.28 114.591 4712.98 114.812 4713.86 114.812C4714.79 114.812 4715.49 114.617 4715.96 114.227C4716.43 113.829 4716.67 113.367 4716.67 112.84C4716.67 112.501 4716.57 112.215 4716.37 111.98C4716.17 111.74 4715.83 111.531 4715.33 111.355C4714.99 111.238 4714.22 111.03 4713.02 110.73C4711.47 110.346 4710.38 109.874 4709.76 109.314C4708.88 108.527 4708.44 107.566 4708.44 106.434C4708.44 105.704 4708.64 105.024 4709.05 104.393C4709.47 103.755 4710.07 103.27 4710.84 102.938C4711.62 102.605 4712.56 102.439 4713.66 102.439C4715.46 102.439 4716.81 102.833 4717.71 103.621C4718.63 104.409 4719.1 105.46 4719.15 106.775L4716.26 106.902C4716.14 106.167 4715.87 105.639 4715.46 105.32C4715.06 104.995 4714.45 104.832 4713.63 104.832C4712.79 104.832 4712.14 105.005 4711.66 105.35C4711.35 105.571 4711.2 105.867 4711.2 106.238C4711.2 106.577 4711.34 106.867 4711.63 107.107C4712 107.413 4712.88 107.732 4714.29 108.064C4715.69 108.396 4716.73 108.742 4717.4 109.1C4718.08 109.451 4718.61 109.936 4718.98 110.555C4719.37 111.167 4719.56 111.925 4719.56 112.83C4719.56 113.65 4719.33 114.419 4718.88 115.135C4718.42 115.851 4717.78 116.385 4716.94 116.736C4716.11 117.081 4715.07 117.254 4713.83 117.254C4712.02 117.254 4710.63 116.837 4709.66 116.004C4708.69 115.164 4708.11 113.943 4707.92 112.342ZM4724.02 117V102.684H4726.83L4732.69 112.244V102.684H4735.38V117H4732.48L4726.71 107.664V117H4724.02ZM4749.61 111.736L4752.41 112.625C4751.98 114.188 4751.26 115.35 4750.26 116.111C4749.26 116.867 4748 117.244 4746.46 117.244C4744.56 117.244 4743 116.596 4741.77 115.301C4740.55 113.999 4739.94 112.221 4739.94 109.969C4739.94 107.586 4740.55 105.737 4741.78 104.422C4743.01 103.1 4744.63 102.439 4746.64 102.439C4748.39 102.439 4749.81 102.957 4750.9 103.992C4751.56 104.604 4752.04 105.483 4752.37 106.629L4749.51 107.312C4749.34 106.57 4748.98 105.984 4748.44 105.555C4747.91 105.125 4747.26 104.91 4746.49 104.91C4745.43 104.91 4744.57 105.291 4743.9 106.053C4743.24 106.814 4742.92 108.048 4742.92 109.754C4742.92 111.564 4743.24 112.853 4743.89 113.621C4744.54 114.389 4745.39 114.773 4746.43 114.773C4747.2 114.773 4747.86 114.529 4748.41 114.041C4748.97 113.553 4749.36 112.785 4749.61 111.736ZM4756.94 117V102.684H4759.83V109.041L4765.67 102.684H4769.55L4764.16 108.26L4769.85 117H4766.11L4762.17 110.281L4759.83 112.674V117H4756.94ZM4776.57 117V105.105H4772.33V102.684H4783.7V105.105H4779.46V117H4776.57ZM4787.58 117V102.684H4792.22C4793.97 102.684 4795.12 102.755 4795.65 102.898C4796.47 103.113 4797.16 103.582 4797.71 104.305C4798.27 105.021 4798.54 105.949 4798.54 107.088C4798.54 107.967 4798.39 108.706 4798.07 109.305C4797.75 109.904 4797.34 110.376 4796.85 110.721C4796.36 111.059 4795.86 111.284 4795.35 111.395C4794.66 111.531 4793.66 111.6 4792.35 111.6H4790.47V117H4787.58ZM4790.47 105.105V109.168H4792.05C4793.19 109.168 4793.95 109.093 4794.34 108.943C4794.72 108.794 4795.02 108.559 4795.23 108.24C4795.46 107.921 4795.57 107.55 4795.57 107.127C4795.57 106.606 4795.41 106.176 4795.11 105.838C4794.8 105.499 4794.41 105.288 4793.95 105.203C4793.6 105.138 4792.91 105.105 4791.87 105.105H4790.47ZM4802.92 117V102.684H4813.53V105.105H4805.81V108.279H4813V110.691H4805.81V114.588H4813.81V117H4802.92Z" fill="#949494"/>
<rect x="4301" y="95" width="120" height="30" fill="#D9D9D9"/>
<path d="M4306.95 117V102.684H4311.28L4313.88 112.449L4316.45 102.684H4320.78V117H4318.1V105.73L4315.25 117H4312.47L4309.64 105.73V117H4306.95ZM4325.65 117V102.684H4336.27V105.105H4328.54V108.279H4335.73V110.691H4328.54V114.588H4336.54V117H4325.65ZM4344.64 117L4339.53 102.684H4342.66L4346.29 113.279L4349.79 102.684H4352.86L4347.73 117H4344.64ZM4356.41 117V102.801H4359.3V114.588H4366.49V117H4356.41ZM4383.47 117H4380.32L4379.07 113.748H4373.35L4372.17 117H4369.1L4374.68 102.684H4377.74L4383.47 117ZM4378.15 111.336L4376.17 106.023L4374.24 111.336H4378.15ZM4387.04 117V102.684H4389.85L4395.71 112.244V102.684H4398.4V117H4395.5L4389.73 107.664V117H4387.04ZM4416.38 117H4413.23L4411.98 113.748H4406.26L4405.08 117H4402.01L4407.59 102.684H4410.64L4416.38 117ZM4411.05 111.336L4409.08 106.023L4407.15 111.336H4411.05Z" fill="#949494"/>
<rect x="3781" y="95" width="120" height="30" fill="#D9D9D9"/>
<path d="M3783.79 117V102.684H3793.6V105.105H3786.68V108.494H3792.65V110.916H3786.68V117H3783.79ZM3798.02 117V102.684H3800.83L3806.69 112.244V102.684H3809.38V117H3806.48L3800.71 107.664V117H3798.02ZM3813.71 112.342L3816.53 112.068C3816.69 113.012 3817.04 113.706 3817.55 114.148C3818.07 114.591 3818.77 114.812 3819.65 114.812C3820.58 114.812 3821.28 114.617 3821.75 114.227C3822.23 113.829 3822.46 113.367 3822.46 112.84C3822.46 112.501 3822.36 112.215 3822.16 111.98C3821.96 111.74 3821.62 111.531 3821.12 111.355C3820.79 111.238 3820.01 111.03 3818.81 110.73C3817.26 110.346 3816.17 109.874 3815.55 109.314C3814.67 108.527 3814.23 107.566 3814.23 106.434C3814.23 105.704 3814.44 105.024 3814.85 104.393C3815.26 103.755 3815.86 103.27 3816.63 102.938C3817.41 102.605 3818.35 102.439 3819.46 102.439C3821.25 102.439 3822.6 102.833 3823.51 103.621C3824.42 104.409 3824.9 105.46 3824.94 106.775L3822.05 106.902C3821.93 106.167 3821.66 105.639 3821.25 105.32C3820.85 104.995 3820.24 104.832 3819.43 104.832C3818.59 104.832 3817.93 105.005 3817.45 105.35C3817.15 105.571 3816.99 105.867 3816.99 106.238C3816.99 106.577 3817.14 106.867 3817.42 107.107C3817.79 107.413 3818.67 107.732 3820.08 108.064C3821.49 108.396 3822.52 108.742 3823.2 109.1C3823.87 109.451 3824.4 109.936 3824.78 110.555C3825.16 111.167 3825.35 111.925 3825.35 112.83C3825.35 113.65 3825.13 114.419 3824.67 115.135C3824.21 115.851 3823.57 116.385 3822.74 116.736C3821.9 117.081 3820.86 117.254 3819.62 117.254C3817.81 117.254 3816.42 116.837 3815.45 116.004C3814.48 115.164 3813.9 113.943 3813.71 112.342ZM3837.31 117V102.684H3841.64L3844.24 112.449L3846.8 102.684H3851.14V117H3848.46V105.73L3845.61 117H3842.83L3840 105.73V117H3837.31ZM3856.02 117V102.684H3862.11C3863.64 102.684 3864.75 102.814 3865.44 103.074C3866.13 103.328 3866.69 103.784 3867.11 104.441C3867.52 105.099 3867.73 105.851 3867.73 106.697C3867.73 107.771 3867.41 108.66 3866.78 109.363C3866.15 110.06 3865.21 110.499 3863.95 110.682C3864.58 111.046 3865.09 111.447 3865.49 111.883C3865.9 112.319 3866.45 113.094 3867.14 114.207L3868.89 117H3865.44L3863.35 113.885C3862.6 112.771 3862.1 112.072 3861.82 111.785C3861.55 111.492 3861.26 111.294 3860.95 111.189C3860.65 111.079 3860.16 111.023 3859.5 111.023H3858.91V117H3856.02ZM3858.91 108.738H3861.05C3862.44 108.738 3863.3 108.68 3863.65 108.562C3863.99 108.445 3864.26 108.243 3864.46 107.957C3864.65 107.671 3864.75 107.312 3864.75 106.883C3864.75 106.401 3864.62 106.014 3864.36 105.721C3864.11 105.421 3863.75 105.232 3863.28 105.154C3863.04 105.122 3862.34 105.105 3861.17 105.105H3858.91V108.738ZM3872.5 117V102.684H3875.39V109.041L3881.23 102.684H3885.12L3879.73 108.26L3885.41 117H3881.67L3877.74 110.281L3875.39 112.674V117H3872.5ZM3887.68 117V114.393L3895.2 105.105H3888.53V102.684H3899.01V104.93L3891.16 114.588H3899.31V117H3887.68Z" fill="#949494"/>
<rect x="3381" y="95" width="120" height="30" fill="#D9D9D9"/>
<path d="M3385.86 102.684H3388.75V110.438C3388.75 111.668 3388.79 112.465 3388.86 112.83C3388.98 113.416 3389.27 113.888 3389.74 114.246C3390.21 114.598 3390.84 114.773 3391.65 114.773C3392.47 114.773 3393.09 114.607 3393.51 114.275C3393.92 113.937 3394.17 113.523 3394.26 113.035C3394.34 112.547 3394.38 111.736 3394.38 110.604V102.684H3397.28V110.203C3397.28 111.922 3397.2 113.136 3397.04 113.846C3396.88 114.555 3396.6 115.154 3396.17 115.643C3395.76 116.131 3395.2 116.521 3394.49 116.814C3393.79 117.101 3392.87 117.244 3391.74 117.244C3390.37 117.244 3389.33 117.088 3388.62 116.775C3387.92 116.456 3387.36 116.046 3386.95 115.545C3386.54 115.037 3386.27 114.507 3386.14 113.953C3385.95 113.133 3385.86 111.922 3385.86 110.32V102.684ZM3388.32 101.863V99.5098H3390.67V101.863H3388.32ZM3392.52 101.863V99.5098H3394.88V101.863H3392.52ZM3402.29 117V102.684H3406.62L3409.22 112.449L3411.79 102.684H3416.12V117H3413.44V105.73L3410.59 117H3407.81L3404.98 105.73V117H3402.29ZM3421 117V102.684H3427.09C3428.62 102.684 3429.73 102.814 3430.42 103.074C3431.11 103.328 3431.67 103.784 3432.09 104.441C3432.5 105.099 3432.71 105.851 3432.71 106.697C3432.71 107.771 3432.4 108.66 3431.76 109.363C3431.13 110.06 3430.19 110.499 3428.93 110.682C3429.56 111.046 3430.07 111.447 3430.47 111.883C3430.88 112.319 3431.43 113.094 3432.12 114.207L3433.87 117H3430.42L3428.33 113.885C3427.58 112.771 3427.08 112.072 3426.8 111.785C3426.53 111.492 3426.24 111.294 3425.93 111.189C3425.63 111.079 3425.14 111.023 3424.48 111.023H3423.89V117H3421ZM3423.89 108.738H3426.03C3427.42 108.738 3428.28 108.68 3428.63 108.562C3428.97 108.445 3429.24 108.243 3429.44 107.957C3429.63 107.671 3429.73 107.312 3429.73 106.883C3429.73 106.401 3429.6 106.014 3429.34 105.721C3429.09 105.421 3428.73 105.232 3428.26 105.154C3428.02 105.122 3427.32 105.105 3426.15 105.105H3423.89V108.738ZM3450.36 117H3447.21L3445.96 113.748H3440.24L3439.06 117H3435.99L3441.57 102.684H3444.62L3450.36 117ZM3445.03 111.336L3443.06 106.023L3441.13 111.336H3445.03ZM3453.93 117V102.684H3456.74L3462.6 112.244V102.684H3465.29V117H3462.38L3456.61 107.664V117H3453.93ZM3474.11 117V110.975L3468.87 102.684H3472.26L3475.62 108.348L3478.93 102.684H3482.26L3476.99 110.994V117H3474.11ZM3485.69 117V102.684H3496.31V105.105H3488.58V108.279H3495.77V110.691H3488.58V114.588H3496.58V117H3485.69Z" fill="#949494"/>
<rect x="2600" y="95" width="120" height="30" fill="#D9D9D9"/>
<path d="M2613.4 117V114.119H2607.54V111.717L2613.75 102.625H2616.06V111.707H2617.84V114.119H2616.06V117H2613.4ZM2613.4 111.707V106.814L2610.11 111.707H2613.4ZM2619.74 117V114.256H2622.48V117H2619.74ZM2632.07 117V102.801H2634.96V114.588H2642.15V117H2632.07ZM2646.22 117V102.684H2656.83V105.105H2649.11V108.279H2656.3V110.691H2649.11V114.588H2657.11V117H2646.22ZM2665.21 117L2660.09 102.684H2663.23L2666.85 113.279L2670.36 102.684H2673.42L2668.3 117H2665.21ZM2676.9 117V102.684H2687.51V105.105H2679.79V108.279H2686.98V110.691H2679.79V114.588H2687.79V117H2676.9ZM2692.27 117V102.684H2695.08L2700.94 112.244V102.684H2703.62V117H2700.72L2694.95 107.664V117H2692.27ZM2711.91 117V105.105H2707.67V102.684H2719.04V105.105H2714.8V117H2711.91Z" fill="#949494"/>
<rect x="2200" y="95" width="120" height="30" fill="#D9D9D9"/>
<path d="M2202.24 117V102.684H2205.13V109.041L2210.97 102.684H2214.86L2209.46 108.26L2215.15 117H2211.41L2207.47 110.281L2205.13 112.674V117H2202.24ZM2231.56 117H2228.42L2227.17 113.748H2221.45L2220.26 117H2217.2L2222.77 102.684H2225.83L2231.56 117ZM2226.24 111.336L2224.27 106.023L2222.33 111.336H2226.24ZM2241.77 111.736V109.324H2248V115.027C2247.39 115.613 2246.51 116.131 2245.36 116.58C2244.21 117.023 2243.05 117.244 2241.87 117.244C2240.38 117.244 2239.07 116.932 2237.96 116.307C2236.84 115.675 2236.01 114.777 2235.45 113.611C2234.89 112.439 2234.61 111.167 2234.61 109.793C2234.61 108.302 2234.92 106.977 2235.54 105.818C2236.17 104.66 2237.08 103.771 2238.29 103.152C2239.21 102.677 2240.35 102.439 2241.72 102.439C2243.49 102.439 2244.88 102.814 2245.88 103.562C2246.88 104.305 2247.52 105.333 2247.81 106.648L2244.94 107.186C2244.74 106.482 2244.36 105.929 2243.8 105.525C2243.24 105.115 2242.55 104.91 2241.72 104.91C2240.45 104.91 2239.45 105.311 2238.7 106.111C2237.96 106.912 2237.59 108.1 2237.59 109.676C2237.59 111.375 2237.96 112.651 2238.72 113.504C2239.47 114.35 2240.46 114.773 2241.69 114.773C2242.29 114.773 2242.9 114.656 2243.5 114.422C2244.12 114.181 2244.64 113.891 2245.08 113.553V111.736H2241.77ZM2243.6 99.0703H2244.94C2244.86 99.9557 2244.55 100.652 2244 101.16C2243.46 101.661 2242.76 101.912 2241.89 101.912C2241.03 101.912 2240.32 101.661 2239.77 101.16C2239.23 100.652 2238.92 99.9557 2238.85 99.0703H2240.18C2240.23 99.5326 2240.39 99.8841 2240.67 100.125C2240.95 100.359 2241.36 100.477 2241.89 100.477C2242.43 100.477 2242.83 100.359 2243.11 100.125C2243.39 99.8841 2243.56 99.5326 2243.6 99.0703ZM2252.58 117V102.684H2255.47V117H2252.58ZM2263.46 117V105.105H2259.21V102.684H2270.59V105.105H2266.35V117H2263.46ZM2274.47 117V102.684H2277.37V108.318H2283.03V102.684H2285.92V117H2283.03V110.74H2277.37V117H2274.47ZM2290.95 117V102.684H2293.76L2299.62 112.244V102.684H2302.3V117H2299.4L2293.63 107.664V117H2290.95ZM2307.37 117V102.684H2317.99V105.105H2310.26V108.279H2317.45V110.691H2310.26V114.588H2318.26V117H2307.37Z" fill="#949494"/>
<rect x="1800" y="95" width="120" height="30" fill="#D9D9D9"/>
<path d="M1812.14 109.93C1812.14 108.471 1812.36 107.247 1812.79 106.258C1813.12 105.529 1813.56 104.874 1814.12 104.295C1814.69 103.715 1815.31 103.286 1815.98 103.006C1816.87 102.628 1817.9 102.439 1819.06 102.439C1821.17 102.439 1822.86 103.094 1824.12 104.402C1825.39 105.711 1826.03 107.531 1826.03 109.861C1826.03 112.173 1825.4 113.982 1824.14 115.291C1822.88 116.593 1821.2 117.244 1819.1 117.244C1816.97 117.244 1815.28 116.596 1814.02 115.301C1812.77 113.999 1812.14 112.208 1812.14 109.93ZM1815.12 109.832C1815.12 111.453 1815.49 112.684 1816.24 113.523C1816.99 114.357 1817.94 114.773 1819.09 114.773C1820.24 114.773 1821.19 114.36 1821.92 113.533C1822.67 112.7 1823.04 111.453 1823.04 109.793C1823.04 108.152 1822.68 106.928 1821.95 106.121C1821.24 105.314 1820.28 104.91 1819.09 104.91C1817.9 104.91 1816.94 105.32 1816.21 106.141C1815.48 106.954 1815.12 108.185 1815.12 109.832ZM1833.51 117V105.105H1829.27V102.684H1840.64V105.105H1836.4V117H1833.51ZM1843.56 109.93C1843.56 108.471 1843.78 107.247 1844.21 106.258C1844.54 105.529 1844.98 104.874 1845.54 104.295C1846.11 103.715 1846.73 103.286 1847.4 103.006C1848.29 102.628 1849.32 102.439 1850.48 102.439C1852.59 102.439 1854.28 103.094 1855.54 104.402C1856.81 105.711 1857.45 107.531 1857.45 109.861C1857.45 112.173 1856.82 113.982 1855.56 115.291C1854.31 116.593 1852.63 117.244 1850.52 117.244C1848.39 117.244 1846.7 116.596 1845.45 115.301C1844.19 113.999 1843.56 112.208 1843.56 109.93ZM1846.54 109.832C1846.54 111.453 1846.91 112.684 1847.66 113.523C1848.41 114.357 1849.36 114.773 1850.51 114.773C1851.67 114.773 1852.61 114.36 1853.35 113.533C1854.09 112.7 1854.46 111.453 1854.46 109.793C1854.46 108.152 1854.1 106.928 1853.38 106.121C1852.66 105.314 1851.71 104.91 1850.51 104.91C1849.32 104.91 1848.36 105.32 1847.63 106.141C1846.9 106.954 1846.54 108.185 1846.54 109.832ZM1868.37 111.736V109.324H1874.6V115.027C1874 115.613 1873.12 116.131 1871.97 116.58C1870.82 117.023 1869.66 117.244 1868.48 117.244C1866.98 117.244 1865.68 116.932 1864.56 116.307C1863.45 115.675 1862.61 114.777 1862.05 113.611C1861.49 112.439 1861.21 111.167 1861.21 109.793C1861.21 108.302 1861.53 106.977 1862.15 105.818C1862.78 104.66 1863.69 103.771 1864.9 103.152C1865.81 102.677 1866.96 102.439 1868.32 102.439C1870.1 102.439 1871.49 102.814 1872.48 103.562C1873.49 104.305 1874.13 105.333 1874.42 106.648L1871.55 107.186C1871.35 106.482 1870.96 105.929 1870.4 105.525C1869.85 105.115 1869.16 104.91 1868.32 104.91C1867.06 104.91 1866.06 105.311 1865.31 106.111C1864.56 106.912 1864.19 108.1 1864.19 109.676C1864.19 111.375 1864.57 112.651 1865.33 113.504C1866.08 114.35 1867.07 114.773 1868.29 114.773C1868.9 114.773 1869.51 114.656 1870.11 114.422C1870.72 114.181 1871.25 113.891 1871.68 113.553V111.736H1868.37ZM1892.19 117H1889.04L1887.79 113.748H1882.07L1880.89 117H1877.82L1883.4 102.684H1886.46L1892.19 117ZM1886.87 111.336L1884.89 106.023L1882.96 111.336H1886.87ZM1895.74 117V102.684H1901.83C1903.36 102.684 1904.47 102.814 1905.16 103.074C1905.85 103.328 1906.41 103.784 1906.83 104.441C1907.24 105.099 1907.45 105.851 1907.45 106.697C1907.45 107.771 1907.14 108.66 1906.5 109.363C1905.87 110.06 1904.93 110.499 1903.67 110.682C1904.3 111.046 1904.81 111.447 1905.21 111.883C1905.62 112.319 1906.18 113.094 1906.87 114.207L1908.61 117H1905.16L1903.07 113.885C1902.32 112.771 1901.82 112.072 1901.54 111.785C1901.27 111.492 1900.98 111.294 1900.67 111.189C1900.37 111.079 1899.88 111.023 1899.22 111.023H1898.63V117H1895.74ZM1898.63 108.738H1900.77C1902.16 108.738 1903.02 108.68 1903.37 108.562C1903.71 108.445 1903.98 108.243 1904.18 107.957C1904.38 107.671 1904.47 107.312 1904.47 106.883C1904.47 106.401 1904.34 106.014 1904.08 105.721C1903.83 105.421 1903.47 105.232 1903 105.154C1902.76 105.122 1902.06 105.105 1900.89 105.105H1898.63V108.738Z" fill="#949494"/>
<rect x="1400" y="95" width="120" height="30" fill="#D9D9D9"/>
<path d="M1416.02 117V102.684H1418.91V109.041L1424.75 102.684H1428.64L1423.25 108.26L1428.93 117H1425.19L1421.26 110.281L1418.91 112.674V117H1416.02ZM1432.35 117V102.684H1435.24V117H1432.35ZM1432.46 101.863V99.2656H1435.15V101.863H1432.46ZM1440.01 117V102.684H1446.1C1447.63 102.684 1448.74 102.814 1449.43 103.074C1450.12 103.328 1450.68 103.784 1451.1 104.441C1451.51 105.099 1451.72 105.851 1451.72 106.697C1451.72 107.771 1451.4 108.66 1450.77 109.363C1450.14 110.06 1449.2 110.499 1447.94 110.682C1448.57 111.046 1449.08 111.447 1449.48 111.883C1449.89 112.319 1450.44 113.094 1451.13 114.207L1452.88 117H1449.43L1447.34 113.885C1446.59 112.771 1446.09 112.072 1445.81 111.785C1445.54 111.492 1445.25 111.294 1444.94 111.189C1444.64 111.079 1444.15 111.023 1443.49 111.023H1442.9V117H1440.01ZM1442.9 108.738H1445.04C1446.43 108.738 1447.29 108.68 1447.64 108.562C1447.98 108.445 1448.25 108.243 1448.45 107.957C1448.64 107.671 1448.74 107.312 1448.74 106.883C1448.74 106.401 1448.61 106.014 1448.35 105.721C1448.1 105.421 1447.74 105.232 1447.27 105.154C1447.03 105.122 1446.33 105.105 1445.16 105.105H1442.9V108.738ZM1469.37 117H1466.22L1464.97 113.748H1459.25L1458.07 117H1455L1460.58 102.684H1463.63L1469.37 117ZM1464.04 111.336L1462.07 106.023L1460.14 111.336H1464.04ZM1471.67 117V114.393L1479.19 105.105H1472.52V102.684H1483V104.93L1475.15 114.588H1483.3V117H1471.67ZM1487.21 117V102.801H1490.1V114.588H1497.29V117H1487.21ZM1501.27 117V102.684H1504.16V117H1501.27Z" fill="#949494"/>
<rect x="1000" y="95" width="120" height="30" fill="#D9D9D9"/>
<path d="M1011.55 117V102.684H1014.44V108.318H1020.1V102.684H1022.99V117H1020.1V110.74H1014.44V117H1011.55ZM1040.9 117H1037.76L1036.51 113.748H1030.79L1029.6 117H1026.54L1032.11 102.684H1035.17L1040.9 117ZM1035.58 111.336L1033.61 106.023L1031.67 111.336H1035.58ZM1044.52 117V102.801H1047.41V114.588H1054.6V117H1044.52ZM1058.71 117V102.684H1061.6V109.041L1067.44 102.684H1071.33L1065.94 108.26L1071.62 117H1067.88L1063.95 110.281L1061.6 112.674V117H1058.71ZM1088.04 117H1084.89L1083.64 113.748H1077.92L1076.74 117H1073.67L1079.25 102.684H1082.3L1088.04 117ZM1082.71 111.336L1080.74 106.023L1078.81 111.336H1082.71ZM1091.66 117V102.801H1094.55V114.588H1101.73V117H1091.66ZM1105.72 117V102.684H1108.61V117H1105.72Z" fill="#949494"/>
<rect x="600" y="95" width="120" height="30" fill="#D9D9D9"/>
<path d="M608.248 117V102.684H611.061L616.92 112.244V102.684H619.605V117H616.705L610.934 107.664V117H608.248ZM623.432 117V114.393L630.951 105.105H624.281V102.684H634.76V104.93L626.918 114.588H635.062V117H623.432ZM638.859 117V102.684H643.186L645.783 112.449L648.352 102.684H652.688V117H650.002V105.73L647.16 117H644.377L641.545 105.73V117H638.859ZM665.135 117V102.684H668.025V108.318H673.689V102.684H676.58V117H673.689V110.74H668.025V117H665.135ZM681.617 117V102.684H684.508V109.041L690.348 102.684H694.234L688.844 108.26L694.527 117H690.787L686.852 110.281L684.508 112.674V117H681.617ZM697.992 117V102.684H702.318L704.916 112.449L707.484 102.684H711.82V117H709.135V105.73L706.293 117H703.51L700.678 105.73V117H697.992Z" fill="#949494"/>
<rect x="200" y="95" width="120" height="30" fill="#D9D9D9"/>
<path d="M204.436 102.684H210.158C211.291 102.684 212.134 102.732 212.688 102.83C213.247 102.921 213.745 103.117 214.182 103.416C214.624 103.715 214.992 104.116 215.285 104.617C215.578 105.112 215.725 105.669 215.725 106.287C215.725 106.958 215.542 107.573 215.178 108.133C214.82 108.693 214.331 109.113 213.713 109.393C214.585 109.646 215.256 110.079 215.725 110.691C216.193 111.303 216.428 112.023 216.428 112.85C216.428 113.501 216.275 114.135 215.969 114.754C215.669 115.366 215.256 115.857 214.729 116.229C214.208 116.593 213.563 116.818 212.795 116.902C212.313 116.954 211.151 116.987 209.309 117H204.436V102.684ZM207.326 105.066V108.377H209.221C210.347 108.377 211.047 108.361 211.32 108.328C211.815 108.27 212.202 108.1 212.482 107.82C212.769 107.534 212.912 107.16 212.912 106.697C212.912 106.255 212.788 105.896 212.541 105.623C212.3 105.343 211.939 105.174 211.457 105.115C211.171 105.083 210.347 105.066 208.986 105.066H207.326ZM207.326 110.76V114.588H210.002C211.044 114.588 211.704 114.559 211.984 114.5C212.414 114.422 212.762 114.233 213.029 113.934C213.303 113.628 213.439 113.221 213.439 112.713C213.439 112.283 213.335 111.919 213.127 111.619C212.919 111.32 212.616 111.102 212.219 110.965C211.828 110.828 210.975 110.76 209.66 110.76H207.326ZM220.879 117V102.684H231.494V105.105H223.77V108.279H230.957V110.691H223.77V114.588H231.768V117H220.879ZM239.979 117V110.975L234.734 102.684H238.123L241.492 108.348L244.793 102.684H248.123L242.859 110.994V117H239.979ZM251.637 117V102.801H254.527V114.588H261.715V117H251.637ZM265.697 117V102.684H268.588V117H265.697ZM265.805 101.863V99.2656H268.5V101.863H265.805ZM273.391 117V102.684H276.281V109.041L282.121 102.684H286.008L280.617 108.26L286.301 117H282.561L278.625 110.281L276.281 112.674V117H273.391ZM289.795 102.684H295.078C296.27 102.684 297.178 102.775 297.803 102.957C298.643 103.204 299.362 103.644 299.961 104.275C300.56 104.907 301.016 105.682 301.328 106.6C301.641 107.511 301.797 108.637 301.797 109.979C301.797 111.157 301.65 112.173 301.357 113.025C300.999 114.067 300.488 114.91 299.824 115.555C299.323 116.043 298.646 116.424 297.793 116.697C297.155 116.899 296.302 117 295.234 117H289.795V102.684ZM292.686 105.105V114.588H294.844C295.651 114.588 296.234 114.542 296.592 114.451C297.061 114.334 297.448 114.135 297.754 113.855C298.066 113.576 298.32 113.117 298.516 112.479C298.711 111.834 298.809 110.958 298.809 109.852C298.809 108.745 298.711 107.895 298.516 107.303C298.32 106.71 298.047 106.248 297.695 105.916C297.344 105.584 296.898 105.359 296.357 105.242C295.954 105.151 295.163 105.105 293.984 105.105H292.686ZM305.018 117V114.393L312.537 105.105H305.867V102.684H316.346V104.93L308.504 114.588H316.648V117H305.018Z" fill="#949494"/>
<path d="M5702 75.0713L5709.07 68.0002L5786.15 145.075L5779.08 152.146L5702 75.0713Z" fill="#949494"/>
<path d="M5779.07 68L5786.15 75.0711L5709.07 152.146L5702 145.075L5779.07 68Z" fill="#949494"/>
<path d="M5318.98 74.9795L5326.05 67.9084L5403.22 145.075L5396.15 152.146L5318.98 74.9795Z" fill="#949494"/>
<path d="M5212.33 67.75L5219.4 74.8211L5139.81 154.409L5132.74 147.338L5212.33 67.75Z" fill="#949494"/>
<path d="M4851 75.0713L4858.07 68.0002L4935.15 145.075L4928.07 152.146L4851 75.0713Z" fill="#949494"/>
<path d="M4928.07 68L4935.15 75.0711L4858.07 152.146L4851 145.075L4928.07 68Z" fill="#949494"/>
<path d="M4187 75.0713L4194.07 68.0002L4271.15 145.075L4264.07 152.146L4187 75.0713Z" fill="#949494"/>
<path d="M4264.07 68L4271.15 75.0711L4194.07 152.146L4187 145.075L4264.07 68Z" fill="#949494"/>
<path d="M3267 75.0713L3274.07 68.0002L3351.15 145.075L3344.07 152.146L3267 75.0713Z" fill="#949494"/>
<path d="M3344.07 68L3351.15 75.0711L3274.07 152.146L3267 145.075L3344.07 68Z" fill="#949494"/>
<path d="M2750 75.0713L2757.07 68.0002L2834.15 145.075L2827.07 152.146L2750 75.0713Z" fill="#949494"/>
<path d="M2827.07 68L2834.15 75.0711L2757.07 152.146L2750 145.075L2827.07 68Z" fill="#949494"/>
<path d="M2000 75.0713L2007.07 68.0002L2084.15 145.075L2077.07 152.146L2000 75.0713Z" fill="#949494"/>
<path d="M2077.07 68L2084.15 75.0711L2007.07 152.146L2000 145.075L2077.07 68Z" fill="#949494"/>
<path d="M1550 75.0713L1557.07 68.0002L1634.15 145.075L1627.07 152.146L1550 75.0713Z" fill="#949494"/>
<path d="M1627.07 68L1634.15 75.0711L1557.07 152.146L1550 145.075L1627.07 68Z" fill="#949494"/>
<path d="M1250 75.0713L1257.07 68.0002L1334.15 145.075L1327.07 152.146L1250 75.0713Z" fill="#949494"/>
<path d="M800 75.0713L807.071 68.0002L884.146 145.075L877.075 152.146L800 75.0713Z" fill="#949494"/>
<path d="M877.075 68L884.146 75.0711L807.071 152.146L800 145.075L877.075 68Z" fill="#949494"/>
<path d="M350 75.0713L357.071 68.0002L434.146 145.075L427.075 152.146L350 75.0713Z" fill="#949494"/>
<path d="M427.075 68L434.146 75.0711L357.071 152.146L350 145.075L427.075 68Z" fill="#949494"/>
<path d="M5257.19 30L5264.26 37.0711L5228.91 72.4264L5221.84 65.3553L5257.19 30Z" fill="#949494"/>
<rect x="5281.07" y="30" width="50" height="10" transform="rotate(45 5281.07 30)" fill="#949494"/>
<path d="M1552.31 228.005L1559.38 235.076L1530.43 264.017L1523.36 256.946L1552.31 228.005Z" fill="#949494"/>
<path d="M1572 301.071L1579.07 294L1618.07 333.001L1611 340.072L1572 301.071Z" fill="#949494"/>
<path d="M1630 209.968L1637.07 217.039L1619.1 235.013L1612.03 227.942L1630 209.968Z" fill="#949494"/>
<line x1="1538.01" y1="251.001" x2="1818.01" y2="251.001" stroke="#949494" stroke-width="10"/>
<line x1="1611" y1="335.033" x2="1889" y2="335.033" stroke="#949494" stroke-width="10"/>
<line x1="1552.3" y1="233.001" x2="1818.3" y2="233.001" stroke="#949494" stroke-width="10"/>
<line x1="1596.94" y1="317.033" x2="1888.94" y2="317.033" stroke="#949494" stroke-width="10"/>
<line x1="1630" y1="214.997" x2="1818" y2="214.997" stroke="#949494" stroke-width="10"/>
<path d="M1468.58 256.722L1475.65 263.793L1438.08 301.372L1431 294.301L1468.58 256.722Z" fill="#949494"/>
<path d="M1431 263.793L1438.08 256.722L1475.65 294.301L1468.58 301.373L1431 263.793Z" fill="#949494"/>
<line x1="1409" y1="259" x2="1530" y2="259" stroke="#949494" stroke-width="10"/>
<line x1="1409" y1="299" x2="1889" y2="299" stroke="#949494" stroke-width="10"/>
<rect x="1361.08" y="242" width="77.7513" height="10" transform="rotate(45 1361.08 242)" fill="#949494"/>
<rect x="1378.08" y="219" width="53.8266" height="10" transform="rotate(45 1378.08 219)" fill="#949494"/>
<line x1="1359" y1="249" x2="1359" y2="166" stroke="#949494" stroke-width="10"/>
<line x1="1376" y1="226" x2="1376" y2="166" stroke="#949494" stroke-width="10"/>
<path d="M1389.19 148L1396.26 155.071L1378.08 173.259L1371 166.188L1389.19 148Z" fill="#949494"/>
<rect x="1346.08" y="148" width="25.4774" height="10" transform="rotate(45 1346.08 148)" fill="#949494"/>
<line x1="4296" y1="167.997" x2="4436" y2="167.997" stroke="#949494" stroke-width="10"/>
<line x1="4021" y1="51.9971" x2="4162" y2="51.9971" stroke="#949494" stroke-width="10"/>
<path d="M4155 54.0742L4162.07 47.0032L4180.26 65.1907L4173.19 72.2617L4155 54.0742Z" fill="#949494"/>
<rect x="4285.07" y="148" width="25.4774" height="10" transform="rotate(45 4285.07 148)" fill="#949494"/>
<line x1="2600" y1="168" x2="2720" y2="168" stroke="#949494" stroke-width="10"/>
<line x1="2883" y1="185" x2="2943" y2="185" stroke="#949494" stroke-width="10"/>
<path d="M2731 148L2738.07 155.071L2720.16 172.982L2713.09 165.911L2731 148Z" fill="#949494"/>
<rect x="2855" y="148" width="49.3349" height="10" transform="rotate(45 2855 148)" fill="#949494"/>
<line x1="80" y1="150" x2="3002" y2="150" stroke="#949494" stroke-width="10"/>
<line x1="3206" y1="150" x2="6056" y2="150" stroke="#949494" stroke-width="10"/>
<line x1="80" y1="70" x2="3002" y2="70" stroke="#949494" stroke-width="10"/>
<line x1="3206" y1="70" x2="6056" y2="70" stroke="#949494" stroke-width="10"/>
<line x1="3029.07" y1="101" x2="3179.07" y2="101" stroke="#949494" stroke-width="10"/>
<line x1="3029" y1="119" x2="3179" y2="119" stroke="#949494" stroke-width="10"/>
<rect x="3172.07" y="99.0234" width="48.1095" height="10" transform="rotate(-45 3172.07 99.0234)" fill="#949494"/>
<rect x="3179.07" y="113.975" width="48.0284" height="10" transform="rotate(45 3179.07 113.975)" fill="#949494"/>
<rect x="2995" y="147.943" width="47.9966" height="10" transform="rotate(-45 2995 147.943)" fill="#949494"/>
<rect x="3002.07" y="64.9746" width="48.0284" height="10" transform="rotate(45 3002.07 64.9746)" fill="#949494"/>
</svg>
