<svg id="Layer_1" data-name="Layer 1" xmlns="http://www.w3.org/2000/svg" viewBox="0 0 71.86 71.95"><defs><style>.cls-1{fill:#e81f76;}.cls-2{fill:#fff;}</style></defs><path class="cls-1" d="M35.93,72A36,36,0,1,1,71.86,36,36,36,0,0,1,35.93,72"/><polygon class="cls-2" points="12.53 24.32 20.01 24.32 25.55 41.99 25.61 41.99 31.15 24.32 38.62 24.32 38.62 47.63 34.15 47.63 34.15 28.39 34.09 28.39 27.82 47.63 23.34 47.63 17.07 28.39 17 28.46 17 47.63 12.53 47.63 12.53 24.32"/><path class="cls-2" d="M41.88,39l8.71-14.69h5.8v15h3v3.48h-3v4.84H51.92V42.79h-10Zm10,.3V29.19h-.06L46.08,39.31Z"/></svg>