<svg width="6880" height="241" viewBox="0 0 6880 241" fill="none" xmlns="http://www.w3.org/2000/svg">
<rect x="160" y="60" width="120" height="30" fill="#D9D9D9"/>
<path d="M169.352 82V67.6836H172.242V74.041L178.082 67.6836H181.969L176.578 73.2598L182.262 82H178.521L174.586 75.2812L172.242 77.6738V82H169.352ZM198.676 82H195.531L194.281 78.748H188.559L187.377 82H184.311L189.887 67.6836H192.943L198.676 82ZM193.354 76.3359L191.381 71.0234L189.447 76.3359H193.354ZM202.209 67.6836H207.492C208.684 67.6836 209.592 67.7747 210.217 67.957C211.057 68.2044 211.776 68.6439 212.375 69.2754C212.974 69.9069 213.43 70.6816 213.742 71.5996C214.055 72.5111 214.211 73.6374 214.211 74.9785C214.211 76.1569 214.064 77.1725 213.771 78.0254C213.413 79.0671 212.902 79.9102 212.238 80.5547C211.737 81.043 211.06 81.4238 210.207 81.6973C209.569 81.8991 208.716 82 207.648 82H202.209V67.6836ZM205.1 70.1055V79.5879H207.258C208.065 79.5879 208.648 79.5423 209.006 79.4512C209.475 79.334 209.862 79.1354 210.168 78.8555C210.48 78.5755 210.734 78.1165 210.93 77.4785C211.125 76.834 211.223 75.9583 211.223 74.8516C211.223 73.7448 211.125 72.8952 210.93 72.3027C210.734 71.7103 210.461 71.248 210.109 70.916C209.758 70.584 209.312 70.3594 208.771 70.2422C208.368 70.151 207.577 70.1055 206.398 70.1055H205.1ZM218.584 82V67.6836H221.475V82H218.584ZM226.277 82V67.6836H229.168V74.041L235.008 67.6836H238.895L233.504 73.2598L239.188 82H235.447L231.512 75.2812L229.168 77.6738V82H226.277ZM242.105 74.9297C242.105 73.4714 242.324 72.2474 242.76 71.2578C243.085 70.5286 243.528 69.8743 244.088 69.2949C244.654 68.7155 245.273 68.2858 245.943 68.0059C246.835 67.6283 247.864 67.4395 249.029 67.4395C251.139 67.4395 252.825 68.0938 254.088 69.4023C255.357 70.7109 255.992 72.5306 255.992 74.8613C255.992 77.1725 255.364 78.9824 254.107 80.291C252.851 81.5931 251.171 82.2441 249.068 82.2441C246.939 82.2441 245.247 81.5964 243.99 80.3008C242.734 78.9987 242.105 77.2083 242.105 74.9297ZM245.084 74.832C245.084 76.4531 245.458 77.6836 246.207 78.5234C246.956 79.3568 247.906 79.7734 249.059 79.7734C250.211 79.7734 251.155 79.36 251.891 78.5332C252.633 77.6999 253.004 76.4531 253.004 74.793C253.004 73.1523 252.643 71.9284 251.92 71.1211C251.204 70.3138 250.25 69.9102 249.059 69.9102C247.867 69.9102 246.907 70.3203 246.178 71.1406C245.449 71.9544 245.084 73.1849 245.084 74.832ZM245.602 66.8633V64.5098H247.955V66.8633H245.602ZM249.801 66.8633V64.5098H252.164V66.8633H249.801ZM264.018 82V75.9746L258.773 67.6836H262.162L265.531 73.3477L268.832 67.6836H272.162L266.898 75.9941V82H264.018Z" fill="#949494"/>
<rect x="500" y="60" width="120" height="30" fill="#D9D9D9"/>
<path d="M529.254 82H526.109L524.859 78.748H519.137L517.955 82H514.889L520.465 67.6836H523.521L529.254 82ZM523.932 76.3359L521.959 71.0234L520.025 76.3359H523.932ZM534.721 82V75.9746L529.477 67.6836H532.865L536.234 73.3477L539.535 67.6836H542.865L537.602 75.9941V82H534.721ZM546.311 82V67.6836H552.395C553.924 67.6836 555.035 67.8138 555.725 68.0742C556.421 68.3281 556.978 68.7839 557.395 69.4414C557.811 70.099 558.02 70.8509 558.02 71.6973C558.02 72.7715 557.704 73.6602 557.072 74.3633C556.441 75.0599 555.497 75.4993 554.24 75.6816C554.865 76.0462 555.38 76.4466 555.783 76.8828C556.193 77.319 556.743 78.0938 557.434 79.207L559.182 82H555.725L553.635 78.8848C552.893 77.7715 552.385 77.0716 552.111 76.7852C551.838 76.4922 551.548 76.2936 551.242 76.1895C550.936 76.0788 550.451 76.0234 549.787 76.0234H549.201V82H546.311ZM549.201 73.7383H551.34C552.727 73.7383 553.592 73.6797 553.938 73.5625C554.283 73.4453 554.553 73.2435 554.748 72.957C554.943 72.6706 555.041 72.3125 555.041 71.8828C555.041 71.401 554.911 71.0137 554.65 70.7207C554.396 70.4212 554.035 70.2324 553.566 70.1543C553.332 70.1217 552.629 70.1055 551.457 70.1055H549.201V73.7383ZM562.666 82V67.6836H565.557V82H562.666ZM570.398 82V67.8008H573.289V79.5879H580.477V82H570.398ZM584.459 82V67.6836H587.35V82H584.459ZM592.152 82V67.6836H595.043V74.041L600.883 67.6836H604.77L599.379 73.2598L605.062 82H601.322L597.387 75.2812L595.043 77.6738V82H592.152Z" fill="#949494"/>
<rect x="800" y="60" width="120" height="30" fill="#D9D9D9"/>
<path d="M817.232 82H814.088L812.838 78.748H807.115L805.934 82H802.867L808.443 67.6836H811.5L817.232 82ZM811.91 76.3359L809.938 71.0234L808.004 76.3359H811.91ZM829.936 76.7363L832.738 77.625C832.309 79.1875 831.592 80.3496 830.59 81.1113C829.594 81.8665 828.327 82.2441 826.791 82.2441C824.89 82.2441 823.327 81.5964 822.104 80.3008C820.88 78.9987 820.268 77.2214 820.268 74.9688C820.268 72.5859 820.883 70.737 822.113 69.4219C823.344 68.1003 824.962 67.4395 826.967 67.4395C828.718 67.4395 830.141 67.957 831.234 68.9922C831.885 69.6042 832.374 70.4831 832.699 71.6289L829.838 72.3125C829.669 71.5703 829.314 70.9844 828.773 70.5547C828.24 70.125 827.589 69.9102 826.82 69.9102C825.759 69.9102 824.896 70.291 824.232 71.0527C823.575 71.8145 823.246 73.0482 823.246 74.7539C823.246 76.5638 823.572 77.8529 824.223 78.6211C824.874 79.3893 825.72 79.7734 826.762 79.7734C827.53 79.7734 828.191 79.5293 828.744 79.041C829.298 78.5527 829.695 77.7845 829.936 76.7363ZM837.238 67.6836H842.961C844.094 67.6836 844.937 67.7324 845.49 67.8301C846.05 67.9212 846.548 68.1165 846.984 68.416C847.427 68.7155 847.795 69.1159 848.088 69.6172C848.381 70.112 848.527 70.6686 848.527 71.2871C848.527 71.9577 848.345 72.5729 847.98 73.1328C847.622 73.6927 847.134 74.1126 846.516 74.3926C847.388 74.6465 848.059 75.0794 848.527 75.6914C848.996 76.3034 849.23 77.0228 849.23 77.8496C849.23 78.5007 849.077 79.1354 848.771 79.7539C848.472 80.3659 848.059 80.8574 847.531 81.2285C847.01 81.5931 846.366 81.8177 845.598 81.9023C845.116 81.9544 843.954 81.987 842.111 82H837.238V67.6836ZM840.129 70.0664V73.377H842.023C843.15 73.377 843.85 73.3607 844.123 73.3281C844.618 73.2695 845.005 73.1003 845.285 72.8203C845.572 72.5339 845.715 72.1595 845.715 71.6973C845.715 71.2546 845.591 70.8965 845.344 70.623C845.103 70.3431 844.742 70.1738 844.26 70.1152C843.973 70.0827 843.15 70.0664 841.789 70.0664H840.129ZM840.129 75.7598V79.5879H842.805C843.846 79.5879 844.507 79.5586 844.787 79.5C845.217 79.4219 845.565 79.2331 845.832 78.9336C846.105 78.6276 846.242 78.2207 846.242 77.7129C846.242 77.2832 846.138 76.9186 845.93 76.6191C845.721 76.3197 845.419 76.1016 845.021 75.9648C844.631 75.8281 843.778 75.7598 842.463 75.7598H840.129ZM866.592 82H863.447L862.197 78.748H856.475L855.293 82H852.227L857.803 67.6836H860.859L866.592 82ZM861.27 76.3359L859.297 71.0234L857.363 76.3359H861.27ZM870.125 67.6836H875.408C876.6 67.6836 877.508 67.7747 878.133 67.957C878.973 68.2044 879.692 68.6439 880.291 69.2754C880.89 69.9069 881.346 70.6816 881.658 71.5996C881.971 72.5111 882.127 73.6374 882.127 74.9785C882.127 76.1569 881.98 77.1725 881.688 78.0254C881.329 79.0671 880.818 79.9102 880.154 80.5547C879.653 81.043 878.976 81.4238 878.123 81.6973C877.485 81.8991 876.632 82 875.564 82H870.125V67.6836ZM873.016 70.1055V79.5879H875.174C875.981 79.5879 876.564 79.5423 876.922 79.4512C877.391 79.334 877.778 79.1354 878.084 78.8555C878.396 78.5755 878.65 78.1165 878.846 77.4785C879.041 76.834 879.139 75.9583 879.139 74.8516C879.139 73.7448 879.041 72.8952 878.846 72.3027C878.65 71.7103 878.377 71.248 878.025 70.916C877.674 70.584 877.228 70.3594 876.688 70.2422C876.284 70.151 875.493 70.1055 874.314 70.1055H873.016ZM886.588 82V67.6836H897.203V70.1055H889.479V73.2793H896.666V75.6914H889.479V79.5879H897.477V82H886.588ZM901.889 82V67.6836H906.215L908.812 77.4492L911.381 67.6836H915.717V82H913.031V70.7305L910.189 82H907.406L904.574 70.7305V82H901.889Z" fill="#949494"/>
<rect x="1000" y="60" width="120" height="30" fill="#D9D9D9"/>
<path d="M1014.19 67.6836H1017.08V75.4375C1017.08 76.668 1017.12 77.4655 1017.19 77.8301C1017.31 78.416 1017.6 78.888 1018.07 79.2461C1018.54 79.5977 1019.17 79.7734 1019.98 79.7734C1020.8 79.7734 1021.42 79.6074 1021.84 79.2754C1022.25 78.9368 1022.5 78.5234 1022.59 78.0352C1022.67 77.5469 1022.71 76.7363 1022.71 75.6035V67.6836H1025.61V75.2031C1025.61 76.9219 1025.53 78.1361 1025.37 78.8457C1025.21 79.5553 1024.93 80.1543 1024.5 80.6426C1024.09 81.1309 1023.53 81.5215 1022.82 81.8145C1022.12 82.1009 1021.2 82.2441 1020.07 82.2441C1018.7 82.2441 1017.66 82.0879 1016.95 81.7754C1016.25 81.4564 1015.69 81.0462 1015.28 80.5449C1014.87 80.0371 1014.6 79.5065 1014.47 78.9531C1014.28 78.1328 1014.19 76.9219 1014.19 75.3203V67.6836ZM1016.65 66.8633V64.5098H1019V66.8633H1016.65ZM1020.85 66.8633V64.5098H1023.21V66.8633H1020.85ZM1030.69 82V67.6836H1033.5L1039.36 77.2441V67.6836H1042.05V82H1039.15L1033.38 72.6641V82H1030.69ZM1060.03 82H1056.88L1055.63 78.748H1049.91L1048.73 82H1045.66L1051.24 67.6836H1054.29L1060.03 82ZM1054.7 76.3359L1052.73 71.0234L1050.8 76.3359H1054.7ZM1063.65 82V67.8008H1066.54V79.5879H1073.72V82H1063.65ZM1090.71 82H1087.56L1086.31 78.748H1080.59L1079.41 82H1076.34L1081.92 67.6836H1084.97L1090.71 82ZM1085.38 76.3359L1083.41 71.0234L1081.48 76.3359H1085.38ZM1094.28 82V67.6836H1097.09L1102.95 77.2441V67.6836H1105.63V82H1102.73L1096.96 72.6641V82H1094.28Z" fill="#949494"/>
<rect x="1400" y="60" width="120" height="30" fill="#D9D9D9"/>
<path d="M1414.31 76.7363V74.3242H1420.54V80.0273C1419.94 80.6133 1419.06 81.1309 1417.91 81.5801C1416.76 82.0228 1415.6 82.2441 1414.42 82.2441C1412.92 82.2441 1411.62 81.9316 1410.5 81.3066C1409.39 80.6751 1408.55 79.7767 1407.99 78.6113C1407.43 77.4395 1407.15 76.1667 1407.15 74.793C1407.15 73.3021 1407.47 71.9772 1408.09 70.8184C1408.72 69.6595 1409.63 68.7708 1410.84 68.1523C1411.75 67.6771 1412.9 67.4395 1414.26 67.4395C1416.04 67.4395 1417.43 67.8138 1418.42 68.5625C1419.43 69.3047 1420.07 70.3333 1420.36 71.6484L1417.49 72.1855C1417.28 71.4824 1416.9 70.929 1416.34 70.5254C1415.79 70.1152 1415.1 69.9102 1414.26 69.9102C1413 69.9102 1411.99 70.3105 1411.25 71.1113C1410.5 71.9121 1410.13 73.1003 1410.13 74.6758C1410.13 76.375 1410.51 77.651 1411.27 78.5039C1412.02 79.3503 1413.01 79.7734 1414.23 79.7734C1414.84 79.7734 1415.45 79.6562 1416.05 79.4219C1416.66 79.181 1417.19 78.8913 1417.62 78.5527V76.7363H1414.31ZM1424.63 74.9297C1424.63 73.4714 1424.85 72.2474 1425.29 71.2578C1425.61 70.5286 1426.06 69.8743 1426.62 69.2949C1427.18 68.7155 1427.8 68.2858 1428.47 68.0059C1429.36 67.6283 1430.39 67.4395 1431.56 67.4395C1433.67 67.4395 1435.35 68.0938 1436.62 69.4023C1437.88 70.7109 1438.52 72.5306 1438.52 74.8613C1438.52 77.1725 1437.89 78.9824 1436.63 80.291C1435.38 81.5931 1433.7 82.2441 1431.6 82.2441C1429.47 82.2441 1427.77 81.5964 1426.52 80.3008C1425.26 78.9987 1424.63 77.2083 1424.63 74.9297ZM1427.61 74.832C1427.61 76.4531 1427.99 77.6836 1428.73 78.5234C1429.48 79.3568 1430.43 79.7734 1431.59 79.7734C1432.74 79.7734 1433.68 79.36 1434.42 78.5332C1435.16 77.6999 1435.53 76.4531 1435.53 74.793C1435.53 73.1523 1435.17 71.9284 1434.45 71.1211C1433.73 70.3138 1432.78 69.9102 1431.59 69.9102C1430.39 69.9102 1429.43 70.3203 1428.71 71.1406C1427.98 71.9544 1427.61 73.1849 1427.61 74.832ZM1428.13 66.8633V64.5098H1430.48V66.8633H1428.13ZM1432.33 66.8633V64.5098H1434.69V66.8633H1432.33ZM1441.54 82V79.3926L1449.06 70.1055H1442.39V67.6836H1452.87V69.9297L1445.03 79.5879H1453.18V82H1441.54ZM1460.23 82V70.1055H1455.99V67.6836H1467.36V70.1055H1463.12V82H1460.23ZM1471.24 82V67.6836H1481.85V70.1055H1474.13V73.2793H1481.32V75.6914H1474.13V79.5879H1482.13V82H1471.24ZM1486.58 82V67.6836H1491.22C1492.97 67.6836 1494.12 67.7552 1494.65 67.8984C1495.47 68.1133 1496.16 68.582 1496.71 69.3047C1497.27 70.0208 1497.54 70.9486 1497.54 72.0879C1497.54 72.9668 1497.39 73.7057 1497.07 74.3047C1496.75 74.9036 1496.34 75.3757 1495.85 75.7207C1495.36 76.0592 1494.86 76.2839 1494.35 76.3945C1493.66 76.5312 1492.66 76.5996 1491.35 76.5996H1489.47V82H1486.58ZM1489.47 70.1055V74.168H1491.05C1492.19 74.168 1492.95 74.0931 1493.34 73.9434C1493.72 73.7936 1494.02 73.5592 1494.23 73.2402C1494.46 72.9212 1494.57 72.5501 1494.57 72.127C1494.57 71.6061 1494.41 71.1764 1494.11 70.8379C1493.8 70.4993 1493.41 70.2878 1492.95 70.2031C1492.6 70.138 1491.91 70.1055 1490.87 70.1055H1489.47ZM1501.92 82V67.6836H1512.53V70.1055H1504.81V73.2793H1512V75.6914H1504.81V79.5879H1512.81V82H1501.92Z" fill="#949494"/>
<rect x="1600" y="60" width="120" height="30" fill="#D9D9D9"/>
<path d="M1606.52 82V75.9746L1601.27 67.6836H1604.66L1608.03 73.3477L1611.33 67.6836H1614.66L1609.4 75.9941V82H1606.52ZM1618.1 82V67.6836H1628.71V70.1055H1620.99V73.2793H1628.17V75.6914H1620.99V79.5879H1628.98V82H1618.1ZM1633.46 82V67.6836H1636.28L1642.14 77.2441V67.6836H1644.82V82H1641.92L1636.15 72.6641V82H1633.46ZM1649.8 82V67.6836H1652.69V82H1649.8ZM1649.91 66.8633V64.2656H1652.6V66.8633H1649.91ZM1656.72 77.3418L1659.54 77.0684C1659.7 78.0124 1660.05 78.7057 1660.56 79.1484C1661.08 79.5911 1661.78 79.8125 1662.66 79.8125C1663.59 79.8125 1664.29 79.6172 1664.76 79.2266C1665.24 78.8294 1665.47 78.3672 1665.47 77.8398C1665.47 77.5013 1665.37 77.2148 1665.17 76.9805C1664.97 76.7396 1664.63 76.5312 1664.13 76.3555C1663.8 76.2383 1663.02 76.0299 1661.82 75.7305C1660.27 75.3464 1659.18 74.8743 1658.56 74.3145C1657.68 73.5267 1657.24 72.5664 1657.24 71.4336C1657.24 70.7044 1657.45 70.0241 1657.86 69.3926C1658.27 68.7546 1658.87 68.2695 1659.64 67.9375C1660.42 67.6055 1661.36 67.4395 1662.46 67.4395C1664.26 67.4395 1665.61 67.8333 1666.52 68.6211C1667.43 69.4089 1667.91 70.4603 1667.95 71.7754L1665.06 71.9023C1664.94 71.1667 1664.67 70.6393 1664.26 70.3203C1663.86 69.9948 1663.25 69.832 1662.44 69.832C1661.6 69.832 1660.94 70.0046 1660.46 70.3496C1660.16 70.571 1660 70.8672 1660 71.2383C1660 71.5768 1660.15 71.8665 1660.43 72.1074C1660.8 72.4134 1661.68 72.7324 1663.09 73.0645C1664.5 73.3965 1665.53 73.7415 1666.21 74.0996C1666.88 74.4512 1667.41 74.9362 1667.79 75.5547C1668.17 76.1667 1668.36 76.9251 1668.36 77.8301C1668.36 78.6504 1668.14 79.4186 1667.68 80.1348C1667.22 80.8509 1666.58 81.3848 1665.75 81.7363C1664.91 82.0814 1663.87 82.2539 1662.63 82.2539C1660.82 82.2539 1659.43 81.8372 1658.46 81.0039C1657.49 80.1641 1656.91 78.9434 1656.72 77.3418ZM1672.8 82V67.6836H1675.7V73.3184H1681.36V67.6836H1684.25V82H1681.36V75.7402H1675.7V82H1672.8ZM1689.26 82V67.6836H1695.34C1696.87 67.6836 1697.98 67.8138 1698.67 68.0742C1699.37 68.3281 1699.93 68.7839 1700.34 69.4414C1700.76 70.099 1700.97 70.8509 1700.97 71.6973C1700.97 72.7715 1700.65 73.6602 1700.02 74.3633C1699.39 75.0599 1698.44 75.4993 1697.19 75.6816C1697.81 76.0462 1698.33 76.4466 1698.73 76.8828C1699.14 77.319 1699.69 78.0938 1700.38 79.207L1702.13 82H1698.67L1696.58 78.8848C1695.84 77.7715 1695.33 77.0716 1695.06 76.7852C1694.79 76.4922 1694.5 76.2936 1694.19 76.1895C1693.88 76.0788 1693.4 76.0234 1692.73 76.0234H1692.15V82H1689.26ZM1692.15 73.7383H1694.29C1695.67 73.7383 1696.54 73.6797 1696.88 73.5625C1697.23 73.4453 1697.5 73.2435 1697.7 72.957C1697.89 72.6706 1697.99 72.3125 1697.99 71.8828C1697.99 71.401 1697.86 71.0137 1697.6 70.7207C1697.34 70.4212 1696.98 70.2324 1696.51 70.1543C1696.28 70.1217 1695.58 70.1055 1694.4 70.1055H1692.15V73.7383ZM1718.61 82H1715.47L1714.22 78.748H1708.49L1707.31 82H1704.25L1709.82 67.6836H1712.88L1718.61 82ZM1713.29 76.3359L1711.32 71.0234L1709.38 76.3359H1713.29Z" fill="#949494"/>
<rect x="1900" y="60" width="120" height="30" fill="#D9D9D9"/>
<path d="M1903.54 82V67.6836H1906.43V74.041L1912.27 67.6836H1916.15L1910.76 73.2598L1916.45 82H1912.71L1908.77 75.2812L1906.43 77.6738V82H1903.54ZM1919.37 74.9297C1919.37 73.4714 1919.58 72.2474 1920.02 71.2578C1920.35 70.5286 1920.79 69.8743 1921.35 69.2949C1921.91 68.7155 1922.53 68.2858 1923.2 68.0059C1924.1 67.6283 1925.12 67.4395 1926.29 67.4395C1928.4 67.4395 1930.08 68.0938 1931.35 69.4023C1932.62 70.7109 1933.25 72.5306 1933.25 74.8613C1933.25 77.1725 1932.62 78.9824 1931.37 80.291C1930.11 81.5931 1928.43 82.2441 1926.33 82.2441C1924.2 82.2441 1922.51 81.5964 1921.25 80.3008C1919.99 78.9987 1919.37 77.2083 1919.37 74.9297ZM1922.34 74.832C1922.34 76.4531 1922.72 77.6836 1923.47 78.5234C1924.22 79.3568 1925.17 79.7734 1926.32 79.7734C1927.47 79.7734 1928.41 79.36 1929.15 78.5332C1929.89 77.6999 1930.26 76.4531 1930.26 74.793C1930.26 73.1523 1929.9 71.9284 1929.18 71.1211C1928.46 70.3138 1927.51 69.9102 1926.32 69.9102C1925.13 69.9102 1924.17 70.3203 1923.44 71.1406C1922.71 71.9544 1922.34 73.1849 1922.34 74.832ZM1936.28 82V79.3926L1943.8 70.1055H1937.13V67.6836H1947.61V69.9297L1939.76 79.5879H1947.91V82H1936.28ZM1955.5 82V75.9746L1950.26 67.6836H1953.65L1957.02 73.3477L1960.32 67.6836H1963.65L1958.38 75.9941V82H1955.5ZM1970.31 82V70.1055H1966.06V67.6836H1977.44V70.1055H1973.2V82H1970.31ZM1992.74 82H1989.59L1988.34 78.748H1982.62L1981.44 82H1978.37L1983.95 67.6836H1987L1992.74 82ZM1987.41 76.3359L1985.44 71.0234L1983.51 76.3359H1987.41ZM2002.94 76.7363V74.3242H2009.17V80.0273C2008.56 80.6133 2007.69 81.1309 2006.53 81.5801C2005.39 82.0228 2004.23 82.2441 2003.05 82.2441C2001.55 82.2441 2000.24 81.9316 1999.13 81.3066C1998.02 80.6751 1997.18 79.7767 1996.62 78.6113C1996.06 77.4395 1995.78 76.1667 1995.78 74.793C1995.78 73.3021 1996.09 71.9772 1996.72 70.8184C1997.34 69.6595 1998.26 68.7708 1999.46 68.1523C2000.38 67.6771 2001.52 67.4395 2002.89 67.4395C2004.67 67.4395 2006.05 67.8138 2007.05 68.5625C2008.05 69.3047 2008.7 70.3333 2008.98 71.6484L2006.11 72.1855C2005.91 71.4824 2005.53 70.929 2004.97 70.5254C2004.42 70.1152 2003.72 69.9102 2002.89 69.9102C2001.63 69.9102 2000.62 70.3105 1999.87 71.1113C1999.13 71.9121 1998.76 73.1003 1998.76 74.6758C1998.76 76.375 1999.14 77.651 1999.89 78.5039C2000.65 79.3503 2001.64 79.7734 2002.86 79.7734C2003.47 79.7734 2004.07 79.6562 2004.68 79.4219C2005.29 79.181 2005.81 78.8913 2006.25 78.5527V76.7363H2002.94ZM2004.78 64.0703H2006.11C2006.04 64.9557 2005.72 65.6523 2005.18 66.1602C2004.64 66.6615 2003.93 66.9121 2003.07 66.9121C2002.2 66.9121 2001.49 66.6615 2000.95 66.1602C2000.41 65.6523 2000.1 64.9557 2000.02 64.0703H2001.36C2001.4 64.5326 2001.57 64.8841 2001.85 65.125C2002.13 65.3594 2002.53 65.4766 2003.07 65.4766C2003.6 65.4766 2004.01 65.3594 2004.29 65.125C2004.57 64.8841 2004.73 64.5326 2004.78 64.0703ZM2013.76 82V67.6836H2016.65V82H2013.76Z" fill="#949494"/>
<rect x="2230" y="140" width="120" height="30" fill="#D9D9D9"/>
<rect x="2230" y="60" width="120" height="30" fill="#D9D9D9"/>
<path d="M2232.95 67.6836H2238.67C2239.81 67.6836 2240.65 67.7324 2241.2 67.8301C2241.76 67.9212 2242.26 68.1165 2242.7 68.416C2243.14 68.7155 2243.51 69.1159 2243.8 69.6172C2244.09 70.112 2244.24 70.6686 2244.24 71.2871C2244.24 71.9577 2244.06 72.5729 2243.69 73.1328C2243.34 73.6927 2242.85 74.1126 2242.23 74.3926C2243.1 74.6465 2243.77 75.0794 2244.24 75.6914C2244.71 76.3034 2244.94 77.0228 2244.94 77.8496C2244.94 78.5007 2244.79 79.1354 2244.48 79.7539C2244.18 80.3659 2243.77 80.8574 2243.24 81.2285C2242.72 81.5931 2242.08 81.8177 2241.31 81.9023C2240.83 81.9544 2239.67 81.987 2237.82 82H2232.95V67.6836ZM2235.84 70.0664V73.377H2237.74C2238.86 73.377 2239.56 73.3607 2239.84 73.3281C2240.33 73.2695 2240.72 73.1003 2241 72.8203C2241.28 72.5339 2241.43 72.1595 2241.43 71.6973C2241.43 71.2546 2241.3 70.8965 2241.06 70.623C2240.82 70.3431 2240.45 70.1738 2239.97 70.1152C2239.69 70.0827 2238.86 70.0664 2237.5 70.0664H2235.84ZM2235.84 75.7598V79.5879H2238.52C2239.56 79.5879 2240.22 79.5586 2240.5 79.5C2240.93 79.4219 2241.28 79.2331 2241.54 78.9336C2241.82 78.6276 2241.96 78.2207 2241.96 77.7129C2241.96 77.2832 2241.85 76.9186 2241.64 76.6191C2241.43 76.3197 2241.13 76.1016 2240.73 75.9648C2240.34 75.8281 2239.49 75.7598 2238.18 75.7598H2235.84ZM2248.81 74.9297C2248.81 73.4714 2249.03 72.2474 2249.46 71.2578C2249.79 70.5286 2250.23 69.8743 2250.79 69.2949C2251.36 68.7155 2251.98 68.2858 2252.65 68.0059C2253.54 67.6283 2254.57 67.4395 2255.73 67.4395C2257.84 67.4395 2259.53 68.0938 2260.79 69.4023C2262.06 70.7109 2262.7 72.5306 2262.7 74.8613C2262.7 77.1725 2262.07 78.9824 2260.81 80.291C2259.55 81.5931 2257.87 82.2441 2255.77 82.2441C2253.64 82.2441 2251.95 81.5964 2250.69 80.3008C2249.44 78.9987 2248.81 77.2083 2248.81 74.9297ZM2251.79 74.832C2251.79 76.4531 2252.16 77.6836 2252.91 78.5234C2253.66 79.3568 2254.61 79.7734 2255.76 79.7734C2256.91 79.7734 2257.86 79.36 2258.59 78.5332C2259.34 77.6999 2259.71 76.4531 2259.71 74.793C2259.71 73.1523 2259.35 71.9284 2258.62 71.1211C2257.91 70.3138 2256.95 69.9102 2255.76 69.9102C2254.57 69.9102 2253.61 70.3203 2252.88 71.1406C2252.15 71.9544 2251.79 73.1849 2251.79 74.832ZM2266.23 77.3418L2269.04 77.0684C2269.21 78.0124 2269.55 78.7057 2270.07 79.1484C2270.59 79.5911 2271.29 79.8125 2272.17 79.8125C2273.1 79.8125 2273.8 79.6172 2274.27 79.2266C2274.74 78.8294 2274.98 78.3672 2274.98 77.8398C2274.98 77.5013 2274.88 77.2148 2274.68 76.9805C2274.48 76.7396 2274.14 76.5312 2273.64 76.3555C2273.3 76.2383 2272.53 76.0299 2271.33 75.7305C2269.78 75.3464 2268.69 74.8743 2268.06 74.3145C2267.19 73.5267 2266.75 72.5664 2266.75 71.4336C2266.75 70.7044 2266.95 70.0241 2267.36 69.3926C2267.78 68.7546 2268.37 68.2695 2269.15 67.9375C2269.93 67.6055 2270.87 67.4395 2271.97 67.4395C2273.77 67.4395 2275.12 67.8333 2276.02 68.6211C2276.93 69.4089 2277.41 70.4603 2277.46 71.7754L2274.57 71.9023C2274.44 71.1667 2274.18 70.6393 2273.77 70.3203C2273.36 69.9948 2272.76 69.832 2271.94 69.832C2271.1 69.832 2270.44 70.0046 2269.97 70.3496C2269.66 70.571 2269.51 70.8672 2269.51 71.2383C2269.51 71.5768 2269.65 71.8665 2269.94 72.1074C2270.3 72.4134 2271.19 72.7324 2272.6 73.0645C2274 73.3965 2275.04 73.7415 2275.71 74.0996C2276.39 74.4512 2276.92 74.9362 2277.29 75.5547C2277.68 76.1667 2277.87 76.9251 2277.87 77.8301C2277.87 78.6504 2277.64 79.4186 2277.19 80.1348C2276.73 80.8509 2276.09 81.3848 2275.25 81.7363C2274.42 82.0814 2273.38 82.2539 2272.14 82.2539C2270.33 82.2539 2268.94 81.8372 2267.97 81.0039C2267 80.1641 2266.42 78.9434 2266.23 77.3418ZM2285.52 82V70.1055H2281.28V67.6836H2292.65V70.1055H2288.41V82H2285.52ZM2307.95 82H2304.81L2303.56 78.748H2297.84L2296.65 82H2293.59L2299.16 67.6836H2302.22L2307.95 82ZM2302.63 76.3359L2300.66 71.0234L2298.72 76.3359H2302.63ZM2311.53 82V67.6836H2314.34L2320.2 77.2441V67.6836H2322.88V82H2319.98L2314.21 72.6641V82H2311.53ZM2337.11 76.7363L2339.91 77.625C2339.48 79.1875 2338.77 80.3496 2337.76 81.1113C2336.77 81.8665 2335.5 82.2441 2333.96 82.2441C2332.06 82.2441 2330.5 81.5964 2329.28 80.3008C2328.05 78.9987 2327.44 77.2214 2327.44 74.9688C2327.44 72.5859 2328.06 70.737 2329.29 69.4219C2330.52 68.1003 2332.14 67.4395 2334.14 67.4395C2335.89 67.4395 2337.31 67.957 2338.41 68.9922C2339.06 69.6042 2339.55 70.4831 2339.87 71.6289L2337.01 72.3125C2336.84 71.5703 2336.49 70.9844 2335.95 70.5547C2335.41 70.125 2334.76 69.9102 2333.99 69.9102C2332.93 69.9102 2332.07 70.291 2331.41 71.0527C2330.75 71.8145 2330.42 73.0482 2330.42 74.7539C2330.42 76.5638 2330.75 77.8529 2331.4 78.6211C2332.05 79.3893 2332.89 79.7734 2333.94 79.7734C2334.7 79.7734 2335.36 79.5293 2335.92 79.041C2336.47 78.5527 2336.87 77.7845 2337.11 76.7363ZM2344.31 82V67.6836H2347.21V82H2344.31Z" fill="#949494"/>
<rect x="2500" y="60" width="120" height="30" fill="#D9D9D9"/>
<path d="M2503.71 82V67.6836H2506.6V74.041L2512.44 67.6836H2516.33L2510.94 73.2598L2516.62 82H2512.88L2508.95 75.2812L2506.6 77.6738V82H2503.71ZM2520.11 67.6836H2523V75.4375C2523 76.668 2523.03 77.4655 2523.11 77.8301C2523.23 78.416 2523.52 78.888 2523.98 79.2461C2524.45 79.5977 2525.09 79.7734 2525.9 79.7734C2526.72 79.7734 2527.34 79.6074 2527.75 79.2754C2528.17 78.9368 2528.42 78.5234 2528.51 78.0352C2528.59 77.5469 2528.63 76.7363 2528.63 75.6035V67.6836H2531.52V75.2031C2531.52 76.9219 2531.45 78.1361 2531.29 78.8457C2531.13 79.5553 2530.84 80.1543 2530.42 80.6426C2530 81.1309 2529.44 81.5215 2528.74 81.8145C2528.04 82.1009 2527.12 82.2441 2525.99 82.2441C2524.62 82.2441 2523.58 82.0879 2522.87 81.7754C2522.17 81.4564 2521.61 81.0462 2521.2 80.5449C2520.79 80.0371 2520.52 79.5065 2520.39 78.9531C2520.2 78.1328 2520.11 76.9219 2520.11 75.3203V67.6836ZM2522.57 66.8633V64.5098H2524.92V66.8633H2522.57ZM2526.77 66.8633V64.5098H2529.13V66.8633H2526.77ZM2545.74 76.7363L2548.54 77.625C2548.11 79.1875 2547.4 80.3496 2546.39 81.1113C2545.4 81.8665 2544.13 82.2441 2542.6 82.2441C2540.69 82.2441 2539.13 81.5964 2537.91 80.3008C2536.68 78.9987 2536.07 77.2214 2536.07 74.9688C2536.07 72.5859 2536.69 70.737 2537.92 69.4219C2539.15 68.1003 2540.77 67.4395 2542.77 67.4395C2544.52 67.4395 2545.95 67.957 2547.04 68.9922C2547.69 69.6042 2548.18 70.4831 2548.5 71.6289L2545.64 72.3125C2545.47 71.5703 2545.12 70.9844 2544.58 70.5547C2544.04 70.125 2543.39 69.9102 2542.62 69.9102C2541.56 69.9102 2540.7 70.291 2540.04 71.0527C2539.38 71.8145 2539.05 73.0482 2539.05 74.7539C2539.05 76.5638 2539.38 77.8529 2540.03 78.6211C2540.68 79.3893 2541.52 79.7734 2542.57 79.7734C2543.33 79.7734 2544 79.5293 2544.55 79.041C2545.1 78.5527 2545.5 77.7845 2545.74 76.7363ZM2539.67 85.9355V84.7832C2540.34 84.8548 2540.95 84.8906 2541.51 84.8906C2542.09 84.8906 2542.52 84.7865 2542.8 84.5781C2543.02 84.4219 2543.12 84.2201 2543.12 83.9727C2543.12 83.7513 2543.02 83.5592 2542.82 83.3965C2542.62 83.2337 2542.31 83.1523 2541.88 83.1523C2541.47 83.1523 2541.04 83.2174 2540.6 83.3477L2540.86 82.3809C2541.37 82.2051 2541.91 82.1172 2542.5 82.1172C2543.31 82.1172 2543.93 82.2962 2544.35 82.6543C2544.78 83.0124 2544.99 83.4486 2544.99 83.9629C2544.99 84.5358 2544.75 85.0013 2544.29 85.3594C2543.65 85.8477 2542.75 86.0918 2541.57 86.0918C2540.73 86.0918 2540.1 86.0397 2539.67 85.9355ZM2553.07 82V67.6836H2555.96V74.041L2561.8 67.6836H2565.69L2560.3 73.2598L2565.98 82H2562.24L2558.31 75.2812L2555.96 77.6738V82H2553.07ZM2573.25 82V75.9746L2568 67.6836H2571.39L2574.76 73.3477L2578.06 67.6836H2581.39L2576.13 75.9941V82H2573.25ZM2595.9 82H2592.76L2591.51 78.748H2585.78L2584.6 82H2581.54L2587.11 67.6836H2590.17L2595.9 82ZM2590.58 76.3359L2588.61 71.0234L2586.67 76.3359H2590.58ZM2599.52 82V67.8008H2602.41V79.5879H2609.6V82H2599.52ZM2613.58 82V67.6836H2616.47V82H2613.58Z" fill="#949494"/>
<rect x="2950" y="60" width="120" height="30" fill="#D9D9D9"/>
<path d="M2958.37 82V67.6836H2962.69L2965.29 77.4492L2967.86 67.6836H2972.19V82H2969.51V70.7305L2966.67 82H2963.88L2961.05 70.7305V82H2958.37ZM2989.97 82H2986.83L2985.58 78.748H2979.86L2978.68 82H2975.61L2981.19 67.6836H2984.24L2989.97 82ZM2984.65 76.3359L2982.68 71.0234L2980.75 76.3359H2984.65ZM2993.6 82V67.8008H2996.49V79.5879H3003.67V82H2993.6ZM3009.48 82V70.1055H3005.23V67.6836H3016.61V70.1055H3012.37V82H3009.48ZM3020.49 82V67.6836H3031.1V70.1055H3023.38V73.2793H3030.56V75.6914H3023.38V79.5879H3031.38V82H3020.49ZM3035.83 82V67.6836H3040.46C3042.22 67.6836 3043.37 67.7552 3043.9 67.8984C3044.72 68.1133 3045.41 68.582 3045.96 69.3047C3046.52 70.0208 3046.79 70.9486 3046.79 72.0879C3046.79 72.9668 3046.63 73.7057 3046.31 74.3047C3046 74.9036 3045.59 75.3757 3045.09 75.7207C3044.61 76.0592 3044.11 76.2839 3043.6 76.3945C3042.91 76.5312 3041.91 76.5996 3040.6 76.5996H3038.72V82H3035.83ZM3038.72 70.1055V74.168H3040.3C3041.44 74.168 3042.2 74.0931 3042.58 73.9434C3042.97 73.7936 3043.27 73.5592 3043.48 73.2402C3043.7 72.9212 3043.81 72.5501 3043.81 72.127C3043.81 71.6061 3043.66 71.1764 3043.36 70.8379C3043.05 70.4993 3042.66 70.2878 3042.19 70.2031C3041.85 70.138 3041.15 70.1055 3040.11 70.1055H3038.72ZM3051.17 82V67.6836H3061.78V70.1055H3054.06V73.2793H3061.24V75.6914H3054.06V79.5879H3062.05V82H3051.17Z" fill="#949494"/>
<rect x="3200" y="60" width="120" height="30" fill="#D9D9D9"/>
<path d="M3203.32 82V67.6836H3206.21V73.3184H3211.88V67.6836H3214.77V82H3211.88V75.7402H3206.21V82H3203.32ZM3219.75 67.6836H3222.64V75.4375C3222.64 76.668 3222.67 77.4655 3222.74 77.8301C3222.87 78.416 3223.16 78.888 3223.62 79.2461C3224.09 79.5977 3224.73 79.7734 3225.54 79.7734C3226.36 79.7734 3226.98 79.6074 3227.39 79.2754C3227.81 78.9368 3228.06 78.5234 3228.14 78.0352C3228.23 77.5469 3228.27 76.7363 3228.27 75.6035V67.6836H3231.16V75.2031C3231.16 76.9219 3231.08 78.1361 3230.93 78.8457C3230.77 79.5553 3230.48 80.1543 3230.06 80.6426C3229.64 81.1309 3229.08 81.5215 3228.38 81.8145C3227.68 82.1009 3226.76 82.2441 3225.62 82.2441C3224.26 82.2441 3223.22 82.0879 3222.51 81.7754C3221.81 81.4564 3221.25 81.0462 3220.84 80.5449C3220.43 80.0371 3220.16 79.5065 3220.03 78.9531C3219.84 78.1328 3219.75 76.9219 3219.75 75.3203V67.6836ZM3234.98 82V79.3926L3242.5 70.1055H3235.83V67.6836H3246.31V69.9297L3238.46 79.5879H3246.61V82H3234.98ZM3250.43 67.6836H3253.32V75.4375C3253.32 76.668 3253.35 77.4655 3253.42 77.8301C3253.55 78.416 3253.84 78.888 3254.3 79.2461C3254.77 79.5977 3255.41 79.7734 3256.22 79.7734C3257.04 79.7734 3257.66 79.6074 3258.07 79.2754C3258.49 78.9368 3258.74 78.5234 3258.82 78.0352C3258.91 77.5469 3258.95 76.7363 3258.95 75.6035V67.6836H3261.84V75.2031C3261.84 76.9219 3261.76 78.1361 3261.61 78.8457C3261.45 79.5553 3261.16 80.1543 3260.74 80.6426C3260.32 81.1309 3259.76 81.5215 3259.06 81.8145C3258.36 82.1009 3257.44 82.2441 3256.3 82.2441C3254.94 82.2441 3253.9 82.0879 3253.19 81.7754C3252.49 81.4564 3251.93 81.0462 3251.52 80.5449C3251.11 80.0371 3250.84 79.5065 3250.71 78.9531C3250.52 78.1328 3250.43 76.9219 3250.43 75.3203V67.6836ZM3266.91 82V67.6836H3272.99C3274.52 67.6836 3275.63 67.8138 3276.32 68.0742C3277.02 68.3281 3277.58 68.7839 3277.99 69.4414C3278.41 70.099 3278.62 70.8509 3278.62 71.6973C3278.62 72.7715 3278.3 73.6602 3277.67 74.3633C3277.04 75.0599 3276.09 75.4993 3274.84 75.6816C3275.46 76.0462 3275.98 76.4466 3276.38 76.8828C3276.79 77.319 3277.34 78.0938 3278.03 79.207L3279.78 82H3276.32L3274.23 78.8848C3273.49 77.7715 3272.98 77.0716 3272.71 76.7852C3272.44 76.4922 3272.15 76.2936 3271.84 76.1895C3271.53 76.0788 3271.05 76.0234 3270.38 76.0234H3269.8V82H3266.91ZM3269.8 73.7383H3271.94C3273.32 73.7383 3274.19 73.6797 3274.54 73.5625C3274.88 73.4453 3275.15 73.2435 3275.35 72.957C3275.54 72.6706 3275.64 72.3125 3275.64 71.8828C3275.64 71.401 3275.51 71.0137 3275.25 70.7207C3274.99 70.4212 3274.63 70.2324 3274.16 70.1543C3273.93 70.1217 3273.23 70.1055 3272.05 70.1055H3269.8V73.7383ZM3283.35 82V67.6836H3293.97V70.1055H3286.24V73.2793H3293.43V75.6914H3286.24V79.5879H3294.24V82H3283.35ZM3302.34 82L3297.23 67.6836H3300.36L3303.98 78.2793L3307.49 67.6836H3310.56L3305.43 82H3302.34ZM3313.94 82V67.6836H3316.83V82H3313.94ZM3314.05 66.8633V64.2656H3316.75V66.8633H3314.05Z" fill="#949494"/>
<rect x="3600" y="60" width="120" height="30" fill="#D9D9D9"/>
<path d="M3613.2 76.7363V74.3242H3619.43V80.0273C3618.82 80.6133 3617.95 81.1309 3616.79 81.5801C3615.65 82.0228 3614.49 82.2441 3613.31 82.2441C3611.81 82.2441 3610.5 81.9316 3609.39 81.3066C3608.28 80.6751 3607.44 79.7767 3606.88 78.6113C3606.32 77.4395 3606.04 76.1667 3606.04 74.793C3606.04 73.3021 3606.35 71.9772 3606.98 70.8184C3607.6 69.6595 3608.52 68.7708 3609.72 68.1523C3610.64 67.6771 3611.78 67.4395 3613.15 67.4395C3614.93 67.4395 3616.31 67.8138 3617.31 68.5625C3618.31 69.3047 3618.96 70.3333 3619.24 71.6484L3616.37 72.1855C3616.17 71.4824 3615.79 70.929 3615.23 70.5254C3614.68 70.1152 3613.98 69.9102 3613.15 69.9102C3611.89 69.9102 3610.88 70.3105 3610.13 71.1113C3609.39 71.9121 3609.02 73.1003 3609.02 74.6758C3609.02 76.375 3609.4 77.651 3610.15 78.5039C3610.91 79.3503 3611.9 79.7734 3613.12 79.7734C3613.73 79.7734 3614.33 79.6562 3614.94 79.4219C3615.55 79.181 3616.07 78.8913 3616.51 78.5527V76.7363H3613.2ZM3624.09 67.6836H3626.98V75.4375C3626.98 76.668 3627.01 77.4655 3627.08 77.8301C3627.21 78.416 3627.5 78.888 3627.96 79.2461C3628.43 79.5977 3629.07 79.7734 3629.88 79.7734C3630.7 79.7734 3631.32 79.6074 3631.73 79.2754C3632.15 78.9368 3632.4 78.5234 3632.48 78.0352C3632.57 77.5469 3632.61 76.7363 3632.61 75.6035V67.6836H3635.5V75.2031C3635.5 76.9219 3635.42 78.1361 3635.27 78.8457C3635.11 79.5553 3634.82 80.1543 3634.4 80.6426C3633.98 81.1309 3633.42 81.5215 3632.72 81.8145C3632.02 82.1009 3631.1 82.2441 3629.96 82.2441C3628.6 82.2441 3627.56 82.0879 3626.85 81.7754C3626.15 81.4564 3625.59 81.0462 3625.18 80.5449C3624.77 80.0371 3624.5 79.5065 3624.37 78.9531C3624.18 78.1328 3624.09 76.9219 3624.09 75.3203V67.6836ZM3626.55 66.8633V64.5098H3628.9V66.8633H3626.55ZM3630.75 66.8633V64.5098H3633.11V66.8633H3630.75ZM3640.64 82V67.8008H3643.53V79.5879H3650.71V82H3640.64ZM3654.05 77.3418L3656.87 77.0684C3657.03 78.0124 3657.38 78.7057 3657.89 79.1484C3658.41 79.5911 3659.11 79.8125 3659.99 79.8125C3660.92 79.8125 3661.62 79.6172 3662.09 79.2266C3662.57 78.8294 3662.8 78.3672 3662.8 77.8398C3662.8 77.5013 3662.7 77.2148 3662.5 76.9805C3662.3 76.7396 3661.96 76.5312 3661.46 76.3555C3661.13 76.2383 3660.35 76.0299 3659.15 75.7305C3657.6 75.3464 3656.51 74.8743 3655.89 74.3145C3655.01 73.5267 3654.57 72.5664 3654.57 71.4336C3654.57 70.7044 3654.78 70.0241 3655.19 69.3926C3655.6 68.7546 3656.2 68.2695 3656.97 67.9375C3657.75 67.6055 3658.69 67.4395 3659.79 67.4395C3661.59 67.4395 3662.94 67.8333 3663.85 68.6211C3664.76 69.4089 3665.24 70.4603 3665.28 71.7754L3662.39 71.9023C3662.27 71.1667 3662 70.6393 3661.59 70.3203C3661.19 69.9948 3660.58 69.832 3659.77 69.832C3658.93 69.832 3658.27 70.0046 3657.79 70.3496C3657.49 70.571 3657.33 70.8672 3657.33 71.2383C3657.33 71.5768 3657.48 71.8665 3657.76 72.1074C3658.13 72.4134 3659.01 72.7324 3660.42 73.0645C3661.83 73.3965 3662.86 73.7415 3663.54 74.0996C3664.21 74.4512 3664.74 74.9362 3665.12 75.5547C3665.5 76.1667 3665.69 76.9251 3665.69 77.8301C3665.69 78.6504 3665.47 79.4186 3665.01 80.1348C3664.55 80.8509 3663.91 81.3848 3663.08 81.7363C3662.24 82.0814 3661.2 82.2539 3659.96 82.2539C3658.15 82.2539 3656.76 81.8372 3655.79 81.0039C3654.82 80.1641 3654.24 78.9434 3654.05 77.3418ZM3670.11 67.6836H3673V75.4375C3673 76.668 3673.03 77.4655 3673.1 77.8301C3673.23 78.416 3673.52 78.888 3673.98 79.2461C3674.45 79.5977 3675.09 79.7734 3675.9 79.7734C3676.72 79.7734 3677.34 79.6074 3677.75 79.2754C3678.17 78.9368 3678.42 78.5234 3678.5 78.0352C3678.59 77.5469 3678.63 76.7363 3678.63 75.6035V67.6836H3681.52V75.2031C3681.52 76.9219 3681.44 78.1361 3681.29 78.8457C3681.13 79.5553 3680.84 80.1543 3680.42 80.6426C3680 81.1309 3679.44 81.5215 3678.74 81.8145C3678.04 82.1009 3677.12 82.2441 3675.98 82.2441C3674.62 82.2441 3673.58 82.0879 3672.87 81.7754C3672.17 81.4564 3671.61 81.0462 3671.2 80.5449C3670.79 80.0371 3670.52 79.5065 3670.39 78.9531C3670.2 78.1328 3670.11 76.9219 3670.11 75.3203V67.6836ZM3690.34 82V75.9746L3685.09 67.6836H3688.48L3691.85 73.3477L3695.15 67.6836H3698.48L3693.22 75.9941V82H3690.34ZM3701.9 67.6836H3704.79V75.4375C3704.79 76.668 3704.82 77.4655 3704.9 77.8301C3705.02 78.416 3705.31 78.888 3705.78 79.2461C3706.24 79.5977 3706.88 79.7734 3707.69 79.7734C3708.51 79.7734 3709.13 79.6074 3709.54 79.2754C3709.96 78.9368 3710.21 78.5234 3710.3 78.0352C3710.38 77.5469 3710.42 76.7363 3710.42 75.6035V67.6836H3713.31V75.2031C3713.31 76.9219 3713.24 78.1361 3713.08 78.8457C3712.92 79.5553 3712.63 80.1543 3712.21 80.6426C3711.79 81.1309 3711.23 81.5215 3710.53 81.8145C3709.83 82.1009 3708.91 82.2441 3707.78 82.2441C3706.41 82.2441 3705.37 82.0879 3704.66 81.7754C3703.96 81.4564 3703.4 81.0462 3702.99 80.5449C3702.58 80.0371 3702.31 79.5065 3702.18 78.9531C3701.99 78.1328 3701.9 76.9219 3701.9 75.3203V67.6836Z" fill="#949494"/>
<rect x="3800" y="60" width="120" height="30" fill="#D9D9D9"/>
<path d="M3807.65 82V67.6836H3818.27V70.1055H3810.54V73.2793H3817.73V75.6914H3810.54V79.5879H3818.54V82H3807.65ZM3822.26 77.3418L3825.07 77.0684C3825.24 78.0124 3825.58 78.7057 3826.1 79.1484C3826.62 79.5911 3827.32 79.8125 3828.2 79.8125C3829.13 79.8125 3829.83 79.6172 3830.3 79.2266C3830.77 78.8294 3831.01 78.3672 3831.01 77.8398C3831.01 77.5013 3830.91 77.2148 3830.71 76.9805C3830.51 76.7396 3830.17 76.5312 3829.67 76.3555C3829.33 76.2383 3828.56 76.0299 3827.36 75.7305C3825.81 75.3464 3824.72 74.8743 3824.1 74.3145C3823.22 73.5267 3822.78 72.5664 3822.78 71.4336C3822.78 70.7044 3822.98 70.0241 3823.39 69.3926C3823.81 68.7546 3824.4 68.2695 3825.18 67.9375C3825.96 67.6055 3826.9 67.4395 3828 67.4395C3829.8 67.4395 3831.15 67.8333 3832.05 68.6211C3832.97 69.4089 3833.44 70.4603 3833.49 71.7754L3830.6 71.9023C3830.48 71.1667 3830.21 70.6393 3829.8 70.3203C3829.4 69.9948 3828.79 69.832 3827.97 69.832C3827.13 69.832 3826.48 70.0046 3826 70.3496C3825.69 70.571 3825.54 70.8672 3825.54 71.2383C3825.54 71.5768 3825.68 71.8665 3825.97 72.1074C3826.34 72.4134 3827.22 72.7324 3828.63 73.0645C3830.03 73.3965 3831.07 73.7415 3831.74 74.0996C3832.42 74.4512 3832.95 74.9362 3833.32 75.5547C3833.71 76.1667 3833.9 76.9251 3833.9 77.8301C3833.9 78.6504 3833.67 79.4186 3833.22 80.1348C3832.76 80.8509 3832.12 81.3848 3831.28 81.7363C3830.45 82.0814 3829.41 82.2539 3828.17 82.2539C3826.36 82.2539 3824.97 81.8372 3824 81.0039C3823.03 80.1641 3822.45 78.9434 3822.26 77.3418ZM3838.36 82V67.6836H3841.17L3847.03 77.2441V67.6836H3849.72V82H3846.82L3841.05 72.6641V82H3838.36ZM3854.82 82V67.6836H3857.71V74.041L3863.55 67.6836H3867.44L3862.05 73.2598L3867.73 82H3863.99L3860.06 75.2812L3857.71 77.6738V82H3854.82ZM3871.24 82V67.6836H3881.85V70.1055H3874.13V73.2793H3881.32V75.6914H3874.13V79.5879H3882.13V82H3871.24ZM3886.61 82V67.6836H3889.42L3895.28 77.2441V67.6836H3897.96V82H3895.06L3889.29 72.6641V82H3886.61ZM3906.25 82V70.1055H3902.01V67.6836H3913.38V70.1055H3909.14V82H3906.25Z" fill="#949494"/>
<rect x="4000" y="60" width="120" height="30" fill="#D9D9D9"/>
<path d="M4007.85 82V67.6836H4010.74V73.3184H4016.4V67.6836H4019.29V82H4016.4V75.7402H4010.74V82H4007.85ZM4037.2 82H4034.06L4032.81 78.748H4027.08L4025.9 82H4022.84L4028.41 67.6836H4031.47L4037.2 82ZM4031.88 76.3359L4029.91 71.0234L4027.97 76.3359H4031.88ZM4040.01 77.3418L4042.82 77.0684C4042.99 78.0124 4043.34 78.7057 4043.85 79.1484C4044.37 79.5911 4045.07 79.8125 4045.95 79.8125C4046.88 79.8125 4047.58 79.6172 4048.05 79.2266C4048.52 78.8294 4048.76 78.3672 4048.76 77.8398C4048.76 77.5013 4048.66 77.2148 4048.46 76.9805C4048.26 76.7396 4047.92 76.5312 4047.42 76.3555C4047.09 76.2383 4046.31 76.0299 4045.11 75.7305C4043.56 75.3464 4042.47 74.8743 4041.85 74.3145C4040.97 73.5267 4040.53 72.5664 4040.53 71.4336C4040.53 70.7044 4040.73 70.0241 4041.14 69.3926C4041.56 68.7546 4042.16 68.2695 4042.93 67.9375C4043.71 67.6055 4044.65 67.4395 4045.75 67.4395C4047.55 67.4395 4048.9 67.8333 4049.81 68.6211C4050.72 69.4089 4051.2 70.4603 4051.24 71.7754L4048.35 71.9023C4048.23 71.1667 4047.96 70.6393 4047.55 70.3203C4047.15 69.9948 4046.54 69.832 4045.72 69.832C4044.88 69.832 4044.23 70.0046 4043.75 70.3496C4043.45 70.571 4043.29 70.8672 4043.29 71.2383C4043.29 71.5768 4043.44 71.8665 4043.72 72.1074C4044.09 72.4134 4044.97 72.7324 4046.38 73.0645C4047.79 73.3965 4048.82 73.7415 4049.49 74.0996C4050.17 74.4512 4050.7 74.9362 4051.08 75.5547C4051.46 76.1667 4051.65 76.9251 4051.65 77.8301C4051.65 78.6504 4051.42 79.4186 4050.97 80.1348C4050.51 80.8509 4049.87 81.3848 4049.04 81.7363C4048.2 82.0814 4047.16 82.2539 4045.92 82.2539C4044.11 82.2539 4042.72 81.8372 4041.75 81.0039C4040.78 80.1641 4040.2 78.9434 4040.01 77.3418ZM4059.31 82V70.1055H4055.06V67.6836H4066.44V70.1055H4062.2V82H4059.31ZM4081.74 82H4078.59L4077.34 78.748H4071.62L4070.44 82H4067.37L4072.95 67.6836H4076L4081.74 82ZM4076.41 76.3359L4074.44 71.0234L4072.51 76.3359H4076.41ZM4085.31 82V67.6836H4088.12L4093.98 77.2441V67.6836H4096.67V82H4093.77L4087.99 72.6641V82H4085.31ZM4101.73 82V67.6836H4112.35V70.1055H4104.62V73.2793H4111.81V75.6914H4104.62V79.5879H4112.62V82H4101.73Z" fill="#949494"/>
<rect x="4400" y="60" width="120" height="30" fill="#D9D9D9"/>
<path d="M4400.91 77.3418L4403.72 77.0684C4403.89 78.0124 4404.23 78.7057 4404.75 79.1484C4405.27 79.5911 4405.97 79.8125 4406.85 79.8125C4407.78 79.8125 4408.48 79.6172 4408.95 79.2266C4409.42 78.8294 4409.66 78.3672 4409.66 77.8398C4409.66 77.5013 4409.56 77.2148 4409.36 76.9805C4409.16 76.7396 4408.82 76.5312 4408.32 76.3555C4407.98 76.2383 4407.21 76.0299 4406.01 75.7305C4404.46 75.3464 4403.37 74.8743 4402.75 74.3145C4401.87 73.5267 4401.43 72.5664 4401.43 71.4336C4401.43 70.7044 4401.63 70.0241 4402.04 69.3926C4402.46 68.7546 4403.06 68.2695 4403.83 67.9375C4404.61 67.6055 4405.55 67.4395 4406.65 67.4395C4408.45 67.4395 4409.8 67.8333 4410.71 68.6211C4411.62 69.4089 4412.1 70.4603 4412.14 71.7754L4409.25 71.9023C4409.13 71.1667 4408.86 70.6393 4408.45 70.3203C4408.05 69.9948 4407.44 69.832 4406.62 69.832C4405.78 69.832 4405.13 70.0046 4404.65 70.3496C4404.34 70.571 4404.19 70.8672 4404.19 71.2383C4404.19 71.5768 4404.33 71.8665 4404.62 72.1074C4404.99 72.4134 4405.87 72.7324 4407.28 73.0645C4408.68 73.3965 4409.72 73.7415 4410.39 74.0996C4411.07 74.4512 4411.6 74.9362 4411.97 75.5547C4412.36 76.1667 4412.55 76.9251 4412.55 77.8301C4412.55 78.6504 4412.32 79.4186 4411.87 80.1348C4411.41 80.8509 4410.77 81.3848 4409.93 81.7363C4409.1 82.0814 4408.06 82.2539 4406.82 82.2539C4405.01 82.2539 4403.62 81.8372 4402.65 81.0039C4401.68 80.1641 4401.1 78.9434 4400.91 77.3418ZM4416.4 74.9297C4416.4 73.4714 4416.61 72.2474 4417.05 71.2578C4417.38 70.5286 4417.82 69.8743 4418.38 69.2949C4418.95 68.7155 4419.56 68.2858 4420.23 68.0059C4421.13 67.6283 4422.15 67.4395 4423.32 67.4395C4425.43 67.4395 4427.12 68.0938 4428.38 69.4023C4429.65 70.7109 4430.28 72.5306 4430.28 74.8613C4430.28 77.1725 4429.65 78.9824 4428.4 80.291C4427.14 81.5931 4425.46 82.2441 4423.36 82.2441C4421.23 82.2441 4419.54 81.5964 4418.28 80.3008C4417.02 78.9987 4416.4 77.2083 4416.4 74.9297ZM4419.38 74.832C4419.38 76.4531 4419.75 77.6836 4420.5 78.5234C4421.25 79.3568 4422.2 79.7734 4423.35 79.7734C4424.5 79.7734 4425.45 79.36 4426.18 78.5332C4426.92 77.6999 4427.29 76.4531 4427.29 74.793C4427.29 73.1523 4426.93 71.9284 4426.21 71.1211C4425.49 70.3138 4424.54 69.9102 4423.35 69.9102C4422.16 69.9102 4421.2 70.3203 4420.47 71.1406C4419.74 71.9544 4419.38 73.1849 4419.38 74.832ZM4441.21 76.7363V74.3242H4447.44V80.0273C4446.83 80.6133 4445.96 81.1309 4444.8 81.5801C4443.66 82.0228 4442.49 82.2441 4441.32 82.2441C4439.82 82.2441 4438.51 81.9316 4437.4 81.3066C4436.29 80.6751 4435.45 79.7767 4434.89 78.6113C4434.33 77.4395 4434.05 76.1667 4434.05 74.793C4434.05 73.3021 4434.36 71.9772 4434.99 70.8184C4435.61 69.6595 4436.53 68.7708 4437.73 68.1523C4438.65 67.6771 4439.79 67.4395 4441.16 67.4395C4442.94 67.4395 4444.32 67.8138 4445.32 68.5625C4446.32 69.3047 4446.97 70.3333 4447.25 71.6484L4444.38 72.1855C4444.18 71.4824 4443.8 70.929 4443.24 70.5254C4442.69 70.1152 4441.99 69.9102 4441.16 69.9102C4439.9 69.9102 4438.89 70.3105 4438.14 71.1113C4437.4 71.9121 4437.03 73.1003 4437.03 74.6758C4437.03 76.375 4437.41 77.651 4438.16 78.5039C4438.92 79.3503 4439.91 79.7734 4441.13 79.7734C4441.74 79.7734 4442.34 79.6562 4442.95 79.4219C4443.56 79.181 4444.08 78.8913 4444.52 78.5527V76.7363H4441.21ZM4443.04 64.0703H4444.38C4444.3 64.9557 4443.99 65.6523 4443.45 66.1602C4442.9 66.6615 4442.2 66.9121 4441.34 66.9121C4440.47 66.9121 4439.76 66.6615 4439.22 66.1602C4438.68 65.6523 4438.37 64.9557 4438.29 64.0703H4439.63C4439.67 64.5326 4439.84 64.8841 4440.12 65.125C4440.4 65.3594 4440.8 65.4766 4441.34 65.4766C4441.87 65.4766 4442.28 65.3594 4442.56 65.125C4442.84 64.8841 4443 64.5326 4443.04 64.0703ZM4465.03 82H4461.88L4460.63 78.748H4454.91L4453.73 82H4450.66L4456.24 67.6836H4459.29L4465.03 82ZM4459.7 76.3359L4457.73 71.0234L4455.8 76.3359H4459.7ZM4468.6 82V67.6836H4471.41L4477.27 77.2441V67.6836H4479.96V82H4477.05L4471.28 72.6641V82H4468.6ZM4485.1 82V67.8008H4487.99V79.5879H4495.18V82H4485.1ZM4499.16 82V67.6836H4502.05V82H4499.16ZM4506.85 82V67.6836H4509.74V74.041L4515.58 67.6836H4519.47L4514.08 73.2598L4519.76 82H4516.02L4512.09 75.2812L4509.74 77.6738V82H4506.85Z" fill="#949494"/>
<rect x="4800" y="60" width="120" height="30" fill="#D9D9D9"/>
<path d="M4816.1 82V67.6836H4818.99V74.041L4824.83 67.6836H4828.72L4823.33 73.2598L4829.01 82H4825.27L4821.34 75.2812L4818.99 77.6738V82H4816.1ZM4845.43 82H4842.28L4841.03 78.748H4835.31L4834.13 82H4831.06L4836.64 67.6836H4839.7L4845.43 82ZM4840.11 76.3359L4838.13 71.0234L4836.2 76.3359H4840.11ZM4848.98 82V67.6836H4855.06C4856.59 67.6836 4857.7 67.8138 4858.39 68.0742C4859.09 68.3281 4859.65 68.7839 4860.06 69.4414C4860.48 70.099 4860.69 70.8509 4860.69 71.6973C4860.69 72.7715 4860.37 73.6602 4859.74 74.3633C4859.11 75.0599 4858.17 75.4993 4856.91 75.6816C4857.54 76.0462 4858.05 76.4466 4858.45 76.8828C4858.86 77.319 4859.41 78.0938 4860.1 79.207L4861.85 82H4858.39L4856.3 78.8848C4855.56 77.7715 4855.05 77.0716 4854.78 76.7852C4854.51 76.4922 4854.22 76.2936 4853.91 76.1895C4853.61 76.0788 4853.12 76.0234 4852.46 76.0234H4851.87V82H4848.98ZM4851.87 73.7383H4854.01C4855.4 73.7383 4856.26 73.6797 4856.61 73.5625C4856.95 73.4453 4857.22 73.2435 4857.42 72.957C4857.61 72.6706 4857.71 72.3125 4857.71 71.8828C4857.71 71.401 4857.58 71.0137 4857.32 70.7207C4857.07 70.4212 4856.71 70.2324 4856.24 70.1543C4856 70.1217 4855.3 70.1055 4854.13 70.1055H4851.87V73.7383ZM4868.65 82V70.1055H4864.4V67.6836H4875.78V70.1055H4871.54V82H4868.65ZM4891.08 82H4887.93L4886.68 78.748H4880.96L4879.78 82H4876.71L4882.29 67.6836H4885.34L4891.08 82ZM4885.75 76.3359L4883.78 71.0234L4881.85 76.3359H4885.75ZM4894.7 82V67.8008H4897.59V79.5879H4904.78V82H4894.7Z" fill="#949494"/>
<rect x="5100" y="60" width="120" height="30" fill="#D9D9D9"/>
<path d="M5114.55 82V75.9746L5109.3 67.6836H5112.69L5116.06 73.3477L5119.36 67.6836H5122.69L5117.43 75.9941V82H5114.55ZM5137.2 82H5134.06L5132.81 78.748H5127.08L5125.9 82H5122.84L5128.41 67.6836H5131.47L5137.2 82ZM5131.88 76.3359L5129.91 71.0234L5127.97 76.3359H5131.88ZM5140.78 82V67.6836H5143.67V74.041L5149.51 67.6836H5153.4L5148.01 73.2598L5153.69 82H5149.95L5146.02 75.2812L5143.67 77.6738V82H5140.78ZM5170.11 82H5166.96L5165.71 78.748H5159.99L5158.81 82H5155.74L5161.32 67.6836H5164.38L5170.11 82ZM5164.79 76.3359L5162.81 71.0234L5160.88 76.3359H5164.79ZM5182.81 76.7363L5185.61 77.625C5185.18 79.1875 5184.47 80.3496 5183.46 81.1113C5182.47 81.8665 5181.2 82.2441 5179.67 82.2441C5177.76 82.2441 5176.2 81.5964 5174.98 80.3008C5173.75 78.9987 5173.14 77.2214 5173.14 74.9688C5173.14 72.5859 5173.76 70.737 5174.99 69.4219C5176.22 68.1003 5177.84 67.4395 5179.84 67.4395C5181.59 67.4395 5183.02 67.957 5184.11 68.9922C5184.76 69.6042 5185.25 70.4831 5185.57 71.6289L5182.71 72.3125C5182.54 71.5703 5182.19 70.9844 5181.65 70.5547C5181.11 70.125 5180.46 69.9102 5179.7 69.9102C5178.63 69.9102 5177.77 70.291 5177.11 71.0527C5176.45 71.8145 5176.12 73.0482 5176.12 74.7539C5176.12 76.5638 5176.45 77.8529 5177.1 78.6211C5177.75 79.3893 5178.6 79.7734 5179.64 79.7734C5180.4 79.7734 5181.07 79.5293 5181.62 79.041C5182.17 78.5527 5182.57 77.7845 5182.81 76.7363ZM5190.02 82V67.6836H5192.91V82H5190.02ZM5197.71 82V67.6836H5200.6V74.041L5206.44 67.6836H5210.33L5204.94 73.2598L5210.62 82H5206.88L5202.94 75.2812L5200.6 77.6738V82H5197.71Z" fill="#949494"/>
<rect x="5300" y="60" width="120" height="30" fill="#D9D9D9"/>
<path d="M5318.65 82V67.6836H5323.29C5325.05 67.6836 5326.19 67.7552 5326.73 67.8984C5327.55 68.1133 5328.24 68.582 5328.79 69.3047C5329.34 70.0208 5329.62 70.9486 5329.62 72.0879C5329.62 72.9668 5329.46 73.7057 5329.14 74.3047C5328.82 74.9036 5328.41 75.3757 5327.92 75.7207C5327.43 76.0592 5326.93 76.2839 5326.43 76.3945C5325.74 76.5312 5324.74 76.5996 5323.43 76.5996H5321.54V82H5318.65ZM5321.54 70.1055V74.168H5323.12C5324.26 74.168 5325.03 74.0931 5325.41 73.9434C5325.79 73.7936 5326.09 73.5592 5326.31 73.2402C5326.53 72.9212 5326.64 72.5501 5326.64 72.127C5326.64 71.6061 5326.49 71.1764 5326.18 70.8379C5325.88 70.4993 5325.49 70.2878 5325.02 70.2031C5324.67 70.138 5323.98 70.1055 5322.94 70.1055H5321.54ZM5333.99 82V67.6836H5344.61V70.1055H5336.88V73.2793H5344.07V75.6914H5336.88V79.5879H5344.88V82H5333.99ZM5349.36 82V67.6836H5352.17L5358.03 77.2441V67.6836H5360.72V82H5357.82L5352.05 72.6641V82H5349.36ZM5365.78 67.6836H5371.06C5372.25 67.6836 5373.16 67.7747 5373.78 67.957C5374.62 68.2044 5375.34 68.6439 5375.94 69.2754C5376.54 69.9069 5377 70.6816 5377.31 71.5996C5377.62 72.5111 5377.78 73.6374 5377.78 74.9785C5377.78 76.1569 5377.63 77.1725 5377.34 78.0254C5376.98 79.0671 5376.47 79.9102 5375.8 80.5547C5375.3 81.043 5374.63 81.4238 5373.77 81.6973C5373.14 81.8991 5372.28 82 5371.21 82H5365.78V67.6836ZM5368.67 70.1055V79.5879H5370.82C5371.63 79.5879 5372.21 79.5423 5372.57 79.4512C5373.04 79.334 5373.43 79.1354 5373.73 78.8555C5374.05 78.5755 5374.3 78.1165 5374.5 77.4785C5374.69 76.834 5374.79 75.9583 5374.79 74.8516C5374.79 73.7448 5374.69 72.8952 5374.5 72.3027C5374.3 71.7103 5374.03 71.248 5373.68 70.916C5373.32 70.584 5372.88 70.3594 5372.34 70.2422C5371.93 70.151 5371.14 70.1055 5369.96 70.1055H5368.67ZM5382.15 82V67.6836H5385.04V82H5382.15ZM5382.26 66.8633V64.2656H5384.95V66.8633H5382.26ZM5389.84 82V67.6836H5392.73V74.041L5398.57 67.6836H5402.46L5397.07 73.2598L5402.75 82H5399.01L5395.08 75.2812L5392.73 77.6738V82H5389.84Z" fill="#949494"/>
<rect x="5600" y="60" width="120" height="30" fill="#D9D9D9"/>
<path d="M5605.8 82V70.1055H5601.55V67.6836H5612.93V70.1055H5608.69V82H5605.8ZM5628.23 82H5625.09L5623.84 78.748H5618.12L5616.93 82H5613.87L5619.44 67.6836H5622.5L5628.23 82ZM5622.91 76.3359L5620.94 71.0234L5619 76.3359H5622.91ZM5633.94 82L5628.83 67.6836H5631.96L5635.58 78.2793L5639.09 67.6836H5642.16L5637.03 82H5633.94ZM5644.9 77.3418L5647.71 77.0684C5647.88 78.0124 5648.22 78.7057 5648.74 79.1484C5649.26 79.5911 5649.96 79.8125 5650.84 79.8125C5651.77 79.8125 5652.47 79.6172 5652.94 79.2266C5653.41 78.8294 5653.65 78.3672 5653.65 77.8398C5653.65 77.5013 5653.55 77.2148 5653.35 76.9805C5653.15 76.7396 5652.81 76.5312 5652.31 76.3555C5651.97 76.2383 5651.2 76.0299 5650 75.7305C5648.45 75.3464 5647.36 74.8743 5646.73 74.3145C5645.86 73.5267 5645.42 72.5664 5645.42 71.4336C5645.42 70.7044 5645.62 70.0241 5646.03 69.3926C5646.45 68.7546 5647.04 68.2695 5647.82 67.9375C5648.6 67.6055 5649.54 67.4395 5650.64 67.4395C5652.44 67.4395 5653.79 67.8333 5654.69 68.6211C5655.6 69.4089 5656.08 70.4603 5656.13 71.7754L5653.24 71.9023C5653.11 71.1667 5652.85 70.6393 5652.44 70.3203C5652.03 69.9948 5651.43 69.832 5650.61 69.832C5649.77 69.832 5649.11 70.0046 5648.64 70.3496C5648.33 70.571 5648.18 70.8672 5648.18 71.2383C5648.18 71.5768 5648.32 71.8665 5648.61 72.1074C5648.97 72.4134 5649.86 72.7324 5651.27 73.0645C5652.67 73.3965 5653.71 73.7415 5654.38 74.0996C5655.06 74.4512 5655.59 74.9362 5655.96 75.5547C5656.35 76.1667 5656.54 76.9251 5656.54 77.8301C5656.54 78.6504 5656.31 79.4186 5655.86 80.1348C5655.4 80.8509 5654.76 81.3848 5653.92 81.7363C5653.09 82.0814 5652.05 82.2539 5650.81 82.2539C5649 82.2539 5647.61 81.8372 5646.64 81.0039C5645.67 80.1641 5645.09 78.9434 5644.9 77.3418ZM5648.19 85.9355V84.7832C5648.86 84.8548 5649.48 84.8906 5650.04 84.8906C5650.61 84.8906 5651.04 84.7865 5651.32 84.5781C5651.54 84.4219 5651.65 84.2201 5651.65 83.9727C5651.65 83.7513 5651.55 83.5592 5651.34 83.3965C5651.14 83.2337 5650.83 83.1523 5650.41 83.1523C5649.99 83.1523 5649.56 83.2174 5649.13 83.3477L5649.38 82.3809C5649.89 82.2051 5650.44 82.1172 5651.02 82.1172C5651.84 82.1172 5652.45 82.2962 5652.88 82.6543C5653.3 83.0124 5653.51 83.4486 5653.51 83.9629C5653.51 84.5358 5653.28 85.0013 5652.81 85.3594C5652.18 85.8477 5651.27 86.0918 5650.09 86.0918C5649.25 86.0918 5648.62 86.0397 5648.19 85.9355ZM5661 82V67.6836H5663.81L5669.67 77.2441V67.6836H5672.36V82H5669.46L5663.69 72.6641V82H5661ZM5680.65 82V70.1055H5676.4V67.6836H5687.78V70.1055H5683.54V82H5680.65ZM5691.65 82V67.6836H5696.29C5698.05 67.6836 5699.19 67.7552 5699.73 67.8984C5700.55 68.1133 5701.23 68.582 5701.79 69.3047C5702.34 70.0208 5702.62 70.9486 5702.62 72.0879C5702.62 72.9668 5702.46 73.7057 5702.14 74.3047C5701.82 74.9036 5701.41 75.3757 5700.92 75.7207C5700.43 76.0592 5699.93 76.2839 5699.42 76.3945C5698.73 76.5312 5697.73 76.5996 5696.43 76.5996H5694.54V82H5691.65ZM5694.54 70.1055V74.168H5696.12C5697.26 74.168 5698.02 74.0931 5698.41 73.9434C5698.79 73.7936 5699.09 73.5592 5699.31 73.2402C5699.53 72.9212 5699.64 72.5501 5699.64 72.127C5699.64 71.6061 5699.49 71.1764 5699.18 70.8379C5698.87 70.4993 5698.49 70.2878 5698.02 70.2031C5697.67 70.138 5696.98 70.1055 5695.94 70.1055H5694.54ZM5706.99 82V67.6836H5717.61V70.1055H5709.88V73.2793H5717.07V75.6914H5709.88V79.5879H5717.88V82H5706.99Z" fill="#949494"/>
<rect x="5800" y="60" width="120" height="30" fill="#D9D9D9"/>
<path d="M5802.79 82V67.6836H5812.6V70.1055H5805.68V73.4941H5811.65V75.916H5805.68V82H5802.79ZM5820.64 82L5815.53 67.6836H5818.66L5822.29 78.2793L5825.79 67.6836H5828.86L5823.73 82H5820.64ZM5831.09 82V79.3926L5838.61 70.1055H5831.94V67.6836H5842.42V69.9297L5834.58 79.5879H5842.72V82H5831.09ZM5863.29 76.7363L5866.09 77.625C5865.66 79.1875 5864.94 80.3496 5863.94 81.1113C5862.94 81.8665 5861.68 82.2441 5860.14 82.2441C5858.24 82.2441 5856.68 81.5964 5855.45 80.3008C5854.23 78.9987 5853.62 77.2214 5853.62 74.9688C5853.62 72.5859 5854.23 70.737 5855.46 69.4219C5856.69 68.1003 5858.31 67.4395 5860.32 67.4395C5862.07 67.4395 5863.49 67.957 5864.58 68.9922C5865.24 69.6042 5865.72 70.4831 5866.05 71.6289L5863.19 72.3125C5863.02 71.5703 5862.66 70.9844 5862.12 70.5547C5861.59 70.125 5860.94 69.9102 5860.17 69.9102C5859.11 69.9102 5858.25 70.291 5857.58 71.0527C5856.92 71.8145 5856.6 73.0482 5856.6 74.7539C5856.6 76.5638 5856.92 77.8529 5857.57 78.6211C5858.22 79.3893 5859.07 79.7734 5860.11 79.7734C5860.88 79.7734 5861.54 79.5293 5862.09 79.041C5862.65 78.5527 5863.04 77.7845 5863.29 76.7363ZM5857.21 85.9355V84.7832C5857.88 84.8548 5858.5 84.8906 5859.06 84.8906C5859.64 84.8906 5860.07 84.7865 5860.35 84.5781C5860.56 84.4219 5860.67 84.2201 5860.67 83.9727C5860.67 83.7513 5860.57 83.5592 5860.37 83.3965C5860.16 83.2337 5859.85 83.1523 5859.43 83.1523C5859.01 83.1523 5858.58 83.2174 5858.15 83.3477L5858.4 82.3809C5858.91 82.2051 5859.46 82.1172 5860.04 82.1172C5860.86 82.1172 5861.48 82.2962 5861.9 82.6543C5862.32 83.0124 5862.53 83.4486 5862.53 83.9629C5862.53 84.5358 5862.3 85.0013 5861.83 85.3594C5861.2 85.8477 5860.29 86.0918 5859.12 86.0918C5858.28 86.0918 5857.64 86.0397 5857.21 85.9355ZM5870.62 82V67.6836H5873.51V74.041L5879.35 67.6836H5883.23L5877.84 73.2598L5883.53 82H5879.79L5875.85 75.2812L5873.51 77.6738V82H5870.62ZM5886.99 82V67.6836H5891.32L5893.92 77.4492L5896.48 67.6836H5900.82V82H5898.13V70.7305L5895.29 82H5892.51L5889.68 70.7305V82H5886.99ZM5905.73 82V67.6836H5908.62V74.041L5914.46 67.6836H5918.35L5912.96 73.2598L5918.64 82H5914.9L5910.96 75.2812L5908.62 77.6738V82H5905.73Z" fill="#949494"/>
<rect x="6100" y="60" width="120" height="30" fill="#D9D9D9"/>
<path d="M6113.61 82V75.9746L6108.37 67.6836H6111.75L6115.12 73.3477L6118.42 67.6836H6121.75L6116.49 75.9941V82H6113.61ZM6136.26 82H6133.12L6131.87 78.748H6126.15L6124.96 82H6121.9L6127.47 67.6836H6130.53L6136.26 82ZM6130.94 76.3359L6128.97 71.0234L6127.04 76.3359H6130.94ZM6141.73 82V75.9746L6136.49 67.6836H6139.88L6143.24 73.3477L6146.54 67.6836H6149.88L6144.61 75.9941V82H6141.73ZM6164.38 82H6161.24L6159.99 78.748H6154.27L6153.09 82H6150.02L6155.6 67.6836H6158.65L6164.38 82ZM6159.06 76.3359L6157.09 71.0234L6155.16 76.3359H6159.06ZM6168.01 82V67.8008H6170.9V79.5879H6178.08V82H6168.01ZM6195.06 82H6191.92L6190.67 78.748H6184.95L6183.77 82H6180.7L6186.28 67.6836H6189.33L6195.06 82ZM6189.74 76.3359L6187.77 71.0234L6185.84 76.3359H6189.74ZM6198.62 82V67.6836H6204.7C6206.23 67.6836 6207.34 67.8138 6208.03 68.0742C6208.73 68.3281 6209.28 68.7839 6209.7 69.4414C6210.12 70.099 6210.33 70.8509 6210.33 71.6973C6210.33 72.7715 6210.01 73.6602 6209.38 74.3633C6208.75 75.0599 6207.8 75.4993 6206.55 75.6816C6207.17 76.0462 6207.69 76.4466 6208.09 76.8828C6208.5 77.319 6209.05 78.0938 6209.74 79.207L6211.49 82H6208.03L6205.94 78.8848C6205.2 77.7715 6204.69 77.0716 6204.42 76.7852C6204.14 76.4922 6203.85 76.2936 6203.55 76.1895C6203.24 76.0788 6202.76 76.0234 6202.09 76.0234H6201.51V82H6198.62ZM6201.51 73.7383H6203.65C6205.03 73.7383 6205.9 73.6797 6206.24 73.5625C6206.59 73.4453 6206.86 73.2435 6207.05 72.957C6207.25 72.6706 6207.35 72.3125 6207.35 71.8828C6207.35 71.401 6207.22 71.0137 6206.96 70.7207C6206.7 70.4212 6206.34 70.2324 6205.87 70.1543C6205.64 70.1217 6204.94 70.1055 6203.76 70.1055H6201.51V73.7383Z" fill="#949494"/>
<rect x="6300" y="60" width="120" height="30" fill="#D9D9D9"/>
<path d="M6306.02 82V67.6836H6308.91V74.041L6314.75 67.6836H6318.64L6313.25 73.2598L6318.93 82H6315.19L6311.26 75.2812L6308.91 77.6738V82H6306.02ZM6322.42 67.6836H6325.31V75.4375C6325.31 76.668 6325.34 77.4655 6325.41 77.8301C6325.54 78.416 6325.83 78.888 6326.29 79.2461C6326.76 79.5977 6327.4 79.7734 6328.21 79.7734C6329.03 79.7734 6329.65 79.6074 6330.06 79.2754C6330.48 78.9368 6330.73 78.5234 6330.81 78.0352C6330.9 77.5469 6330.94 76.7363 6330.94 75.6035V67.6836H6333.83V75.2031C6333.83 76.9219 6333.75 78.1361 6333.6 78.8457C6333.44 79.5553 6333.15 80.1543 6332.73 80.6426C6332.31 81.1309 6331.75 81.5215 6331.05 81.8145C6330.35 82.1009 6329.43 82.2441 6328.29 82.2441C6326.93 82.2441 6325.89 82.0879 6325.18 81.7754C6324.48 81.4564 6323.92 81.0462 6323.51 80.5449C6323.1 80.0371 6322.83 79.5065 6322.7 78.9531C6322.51 78.1328 6322.42 76.9219 6322.42 75.3203V67.6836ZM6338.9 82V67.6836H6344.98C6346.51 67.6836 6347.62 67.8138 6348.31 68.0742C6349.01 68.3281 6349.57 68.7839 6349.98 69.4414C6350.4 70.099 6350.61 70.8509 6350.61 71.6973C6350.61 72.7715 6350.29 73.6602 6349.66 74.3633C6349.03 75.0599 6348.08 75.4993 6346.83 75.6816C6347.45 76.0462 6347.97 76.4466 6348.37 76.8828C6348.78 77.319 6349.33 78.0938 6350.02 79.207L6351.77 82H6348.31L6346.22 78.8848C6345.48 77.7715 6344.97 77.0716 6344.7 76.7852C6344.43 76.4922 6344.14 76.2936 6343.83 76.1895C6343.52 76.0788 6343.04 76.0234 6342.38 76.0234H6341.79V82H6338.9ZM6341.79 73.7383H6343.93C6345.31 73.7383 6346.18 73.6797 6346.53 73.5625C6346.87 73.4453 6347.14 73.2435 6347.34 72.957C6347.53 72.6706 6347.63 72.3125 6347.63 71.8828C6347.63 71.401 6347.5 71.0137 6347.24 70.7207C6346.98 70.4212 6346.62 70.2324 6346.15 70.1543C6345.92 70.1217 6345.22 70.1055 6344.04 70.1055H6341.79V73.7383ZM6358.56 82V70.1055H6354.32V67.6836H6365.69V70.1055H6361.46V82H6358.56ZM6369.61 82V67.6836H6372.5V74.041L6378.34 67.6836H6382.22L6376.83 73.2598L6382.52 82H6378.78L6374.84 75.2812L6372.5 77.6738V82H6369.61ZM6385.44 74.9297C6385.44 73.4714 6385.65 72.2474 6386.09 71.2578C6386.42 70.5286 6386.86 69.8743 6387.42 69.2949C6387.98 68.7155 6388.6 68.2858 6389.27 68.0059C6390.17 67.6283 6391.19 67.4395 6392.36 67.4395C6394.47 67.4395 6396.15 68.0938 6397.42 69.4023C6398.69 70.7109 6399.32 72.5306 6399.32 74.8613C6399.32 77.1725 6398.69 78.9824 6397.44 80.291C6396.18 81.5931 6394.5 82.2441 6392.4 82.2441C6390.27 82.2441 6388.58 81.5964 6387.32 80.3008C6386.06 78.9987 6385.44 77.2083 6385.44 74.9297ZM6388.41 74.832C6388.41 76.4531 6388.79 77.6836 6389.54 78.5234C6390.29 79.3568 6391.24 79.7734 6392.39 79.7734C6393.54 79.7734 6394.49 79.36 6395.22 78.5332C6395.96 77.6999 6396.33 76.4531 6396.33 74.793C6396.33 73.1523 6395.97 71.9284 6395.25 71.1211C6394.53 70.3138 6393.58 69.9102 6392.39 69.9102C6391.2 69.9102 6390.24 70.3203 6389.51 71.1406C6388.78 71.9544 6388.41 73.1849 6388.41 74.832ZM6388.93 66.8633V64.5098H6391.29V66.8633H6388.93ZM6393.13 66.8633V64.5098H6395.49V66.8633H6393.13ZM6407.35 82V75.9746L6402.1 67.6836H6405.49L6408.86 73.3477L6412.16 67.6836H6415.49L6410.23 75.9941V82H6407.35Z" fill="#949494"/>
<rect x="6600" y="60" width="120" height="30" fill="#D9D9D9"/>
<path d="M6637.04 77.3418L6639.86 77.0684C6640.02 78.0124 6640.37 78.7057 6640.88 79.1484C6641.4 79.5911 6642.1 79.8125 6642.98 79.8125C6643.91 79.8125 6644.61 79.6172 6645.08 79.2266C6645.56 78.8294 6645.79 78.3672 6645.79 77.8398C6645.79 77.5013 6645.69 77.2148 6645.49 76.9805C6645.29 76.7396 6644.95 76.5312 6644.46 76.3555C6644.12 76.2383 6643.35 76.0299 6642.14 75.7305C6640.59 75.3464 6639.5 74.8743 6638.88 74.3145C6638 73.5267 6637.56 72.5664 6637.56 71.4336C6637.56 70.7044 6637.77 70.0241 6638.18 69.3926C6638.59 68.7546 6639.19 68.2695 6639.96 67.9375C6640.74 67.6055 6641.68 67.4395 6642.79 67.4395C6644.58 67.4395 6645.93 67.8333 6646.84 68.6211C6647.75 69.4089 6648.23 70.4603 6648.27 71.7754L6645.38 71.9023C6645.26 71.1667 6644.99 70.6393 6644.58 70.3203C6644.18 69.9948 6643.57 69.832 6642.76 69.832C6641.92 69.832 6641.26 70.0046 6640.78 70.3496C6640.48 70.571 6640.32 70.8672 6640.32 71.2383C6640.32 71.5768 6640.47 71.8665 6640.75 72.1074C6641.12 72.4134 6642 72.7324 6643.41 73.0645C6644.82 73.3965 6645.85 73.7415 6646.53 74.0996C6647.2 74.4512 6647.73 74.9362 6648.11 75.5547C6648.49 76.1667 6648.68 76.9251 6648.68 77.8301C6648.68 78.6504 6648.46 79.4186 6648 80.1348C6647.54 80.8509 6646.9 81.3848 6646.07 81.7363C6645.23 82.0814 6644.19 82.2539 6642.95 82.2539C6641.14 82.2539 6639.75 81.8372 6638.78 81.0039C6637.81 80.1641 6637.23 78.9434 6637.04 77.3418ZM6659.78 76.7363V74.3242H6666.01V80.0273C6665.4 80.6133 6664.52 81.1309 6663.37 81.5801C6662.22 82.0228 6661.06 82.2441 6659.88 82.2441C6658.39 82.2441 6657.08 81.9316 6655.97 81.3066C6654.85 80.6751 6654.02 79.7767 6653.46 78.6113C6652.9 77.4395 6652.62 76.1667 6652.62 74.793C6652.62 73.3021 6652.93 71.9772 6653.55 70.8184C6654.18 69.6595 6655.09 68.7708 6656.3 68.1523C6657.22 67.6771 6658.36 67.4395 6659.73 67.4395C6661.5 67.4395 6662.89 67.8138 6663.89 68.5625C6664.89 69.3047 6665.53 70.3333 6665.82 71.6484L6662.95 72.1855C6662.75 71.4824 6662.37 70.929 6661.81 70.5254C6661.25 70.1152 6660.56 69.9102 6659.73 69.9102C6658.46 69.9102 6657.46 70.3105 6656.71 71.1113C6655.97 71.9121 6655.6 73.1003 6655.6 74.6758C6655.6 76.375 6655.97 77.651 6656.73 78.5039C6657.48 79.3503 6658.47 79.7734 6659.7 79.7734C6660.3 79.7734 6660.91 79.6562 6661.51 79.4219C6662.13 79.181 6662.65 78.8913 6663.09 78.5527V76.7363H6659.78ZM6670.69 82V67.6836H6673.58V73.3184H6679.25V67.6836H6682.14V82H6679.25V75.7402H6673.58V82H6670.69Z" fill="#949494"/>
<path d="M300 40.071L307.071 33L384.146 110.075L377.075 117.146L300 40.071Z" fill="#949494"/>
<path d="M377.075 33L384.146 40.0711L307.071 117.146L300 110.075L377.075 33Z" fill="#949494"/>
<path d="M700 40.071L707.071 33L784.146 110.075L777.075 117.146L700 40.071Z" fill="#949494"/>
<path d="M777.074 33L784.145 40.0711L707.071 117.146L700 110.075L777.074 33Z" fill="#949494"/>
<path d="M1770 40.071L1777.07 33L1854.15 110.075L1847.07 117.146L1770 40.071Z" fill="#949494"/>
<path d="M1847.07 33L1854.15 40.0711L1777.07 117.146L1770 110.075L1847.07 33Z" fill="#949494"/>
<path d="M3500 40.071L3507.07 33L3584.15 110.075L3577.07 117.146L3500 40.071Z" fill="#949494"/>
<path d="M3577.07 33L3584.15 40.0711L3507.07 117.146L3500 110.075L3577.07 33Z" fill="#949494"/>
<path d="M4580 40.071L4587.07 33L4664.15 110.075L4657.07 117.146L4580 40.071Z" fill="#949494"/>
<path d="M4764 33L4771.07 40.0711L4694 117.146L4686.93 110.075L4764 33Z" fill="#949494"/>
<path d="M5000 40.071L5007.07 33L5084.15 110.075L5077.07 117.146L5000 40.071Z" fill="#949494"/>
<path d="M5077.07 33L5084.15 40.0711L5007.07 117.146L5000 110.075L5077.07 33Z" fill="#949494"/>
<path d="M5500 40.071L5507.07 33L5584.15 110.075L5577.07 117.146L5500 40.071Z" fill="#949494"/>
<path d="M5577.07 33L5584.15 40.0711L5507.07 117.146L5500 110.075L5577.07 33Z" fill="#949494"/>
<path d="M6000 40.071L6007.07 33L6084.15 110.075L6077.07 117.146L6000 40.071Z" fill="#949494"/>
<path d="M6077.07 33L6084.15 40.0711L6007.07 117.146L6000 110.075L6077.07 33Z" fill="#949494"/>
<path d="M6500 40.071L6507.07 33L6584.15 110.075L6577.07 117.146L6500 40.071Z" fill="#949494"/>
<path d="M6577.07 33L6584.15 40.0711L6507.07 117.146L6500 110.075L6577.07 33Z" fill="#949494"/>
<path d="M2448.08 33L2455.15 40.0711L2375.2 120.014L2368.13 112.943L2448.08 33Z" fill="#949494"/>
<path d="M2450.05 110.027L2457.12 117.099L2374.07 200.146L2367 193.075L2450.05 110.027Z" fill="#949494"/>
<path d="M2207.05 110.027L2214.12 117.099L2173.12 158.093L2166.05 151.022L2207.05 110.027Z" fill="#949494"/>
<path d="M2130 40.071L2137.07 33L2214.15 110.075L2207.07 117.146L2130 40.071Z" fill="#949494"/>
<path d="M2368.13 119.204L2375.2 112.133L2411.69 148.62L2404.62 155.691L2368.13 119.204Z" fill="#949494"/>
<path d="M2127 117.072L2134.07 110L2217.02 192.951L2209.95 200.022L2127 117.072Z" fill="#949494"/>
<line x1="2205" y1="115" x2="2377" y2="115" stroke="#949494" stroke-width="10"/>
<line x1="1239" y1="75" x2="1339" y2="75" stroke="#949494" stroke-width="10"/>
<rect x="1334" y="70" width="52.5" height="10" transform="rotate(-45 1334 70)" fill="#949494"/>
<rect x="1200" y="110" width="52.5" height="10" transform="rotate(-45 1200 110)" fill="#949494"/>
<rect x="1341.07" y="72.877" width="52.5" height="10" transform="rotate(45 1341.07 72.877)" fill="#949494"/>
<rect x="1207.07" y="32.877" width="52.5" height="10" transform="rotate(45 1207.07 32.877)" fill="#949494"/>
<line x1="2739" y1="75" x2="2839" y2="75" stroke="#949494" stroke-width="10"/>
<rect x="2834" y="70" width="52.5" height="10" transform="rotate(-45 2834 70)" fill="#949494"/>
<rect x="2700" y="110" width="52.5" height="10" transform="rotate(-45 2700 110)" fill="#949494"/>
<rect x="2841.07" y="72.877" width="52.5" height="10" transform="rotate(45 2841.07 72.877)" fill="#949494"/>
<rect x="2707.07" y="32.877" width="52.5" height="10" transform="rotate(45 2707.07 32.877)" fill="#949494"/>
<line x1="4209" y1="75" x2="4309" y2="75" stroke="#949494" stroke-width="10"/>
<rect x="4304" y="70" width="52.5" height="10" transform="rotate(-45 4304 70)" fill="#949494"/>
<rect x="4170" y="110" width="52.5" height="10" transform="rotate(-45 4170 110)" fill="#949494"/>
<rect x="4311.07" y="72.877" width="52.5" height="10" transform="rotate(45 4311.07 72.877)" fill="#949494"/>
<rect x="4177.07" y="32.877" width="52.5" height="10" transform="rotate(45 4177.07 32.877)" fill="#949494"/>
<line x1="2941" y1="152" x2="3444" y2="152" stroke="#949494" stroke-width="10"/>
<line x1="2741" y1="170" x2="3027" y2="170" stroke="#949494" stroke-width="10"/>
<line x1="3098" y1="170" x2="3350" y2="170" stroke="#949494" stroke-width="10"/>
<line x1="2829" y1="206" x2="2982" y2="206" stroke="#949494" stroke-width="10"/>
<line x1="3366" y1="206" x2="3516" y2="206" stroke="#949494" stroke-width="10"/>
<line x1="2829" y1="188" x2="3011" y2="188" stroke="#949494" stroke-width="10"/>
<line x1="3058" y1="188" x2="3516" y2="188" stroke="#949494" stroke-width="10"/>
<line x1="2627" y1="188" x2="2727" y2="188" stroke="#949494" stroke-width="10"/>
<rect x="2911.07" y="112.877" width="52.5" height="10" transform="rotate(45 2911.07 112.877)" fill="#949494"/>
<rect x="3087.07" y="149.877" width="25.5569" height="10" transform="rotate(45 3087.07 149.877)" fill="#949494"/>
<rect x="3355.07" y="185.877" width="25.5569" height="10" transform="rotate(45 3355.07 185.877)" fill="#949494"/>
<rect x="3437" y="150" width="52.5" height="10" transform="rotate(-45 3437 150)" fill="#949494"/>
<rect x="3325" y="185.934" width="50.993" height="10" transform="rotate(-45 3325 185.934)" fill="#949494"/>
<rect x="3004" y="185.934" width="50.993" height="10" transform="rotate(-45 3004 185.934)" fill="#949494"/>
<rect x="2975" y="203.935" width="25.5386" height="10" transform="rotate(-45 2975 203.935)" fill="#949494"/>
<rect x="2720.01" y="185.921" width="29.761" height="10" transform="rotate(-45 2720.01 185.921)" fill="#949494"/>
<line x1="2450" y1="115" x2="6800" y2="115" stroke="#949494" stroke-width="10"/>
<line x1="80" y1="115" x2="2134" y2="115" stroke="#949494" stroke-width="10"/>
<line x1="2210" y1="195" x2="2374" y2="195" stroke="#949494" stroke-width="10"/>
<line x1="80" y1="35" x2="6800" y2="35" stroke="#949494" stroke-width="10"/>
</svg>
