<svg width="1859" height="200" viewBox="0 0 1859 200" fill="none" xmlns="http://www.w3.org/2000/svg">
<path d="M100 100H1750" stroke="#E1251B" stroke-width="20"/>
<circle cx="473" cy="100" r="21" fill="#E1251B"/>
<circle cx="473" cy="100" r="13" fill="white"/>
<circle cx="288" cy="100" r="21" fill="#E1251B"/>
<circle cx="288" cy="100" r="13" fill="white"/>
<circle cx="843" cy="100" r="21" fill="#E1251B"/>
<circle cx="843" cy="100" r="13" fill="white"/>
<circle cx="1025" cy="100" r="21" fill="#E1251B"/>
<circle cx="1025" cy="100" r="13" fill="white"/>
<circle cx="1577" cy="100" r="21" fill="#E1251B"/>
<circle cx="1577" cy="100" r="13" fill="white"/>
<circle cx="1759" cy="100" r="21" fill="#E1251B"/>
<circle cx="1759" cy="100" r="13" fill="white"/>
<circle cx="1207" cy="100" r="21" fill="#E1251B"/>
<circle cx="1207" cy="100" r="13" fill="white"/>
<circle cx="1392" cy="100" r="21" fill="#E1251B"/>
<circle cx="1392" cy="100" r="13" fill="white"/>
<circle cx="658" cy="100" r="24" fill="black"/>
<ellipse cx="658.001" cy="99.9939" rx="19.2" ry="19.2" fill="white"/>
<path d="M69.5104 51.4L67.2544 53.752V58H63.3904V41.2H67.2544V49.048L74.6944 41.2H79.0144L72.0544 48.688L79.4224 58H74.8864L69.5104 51.4ZM80.6577 45.088H84.4017V58H80.6577V45.088ZM82.5297 43.288C81.8417 43.288 81.2817 43.088 80.8497 42.688C80.4177 42.288 80.2017 41.792 80.2017 41.2C80.2017 40.608 80.4177 40.112 80.8497 39.712C81.2817 39.312 81.8417 39.112 82.5297 39.112C83.2177 39.112 83.7777 39.304 84.2097 39.688C84.6417 40.072 84.8577 40.552 84.8577 41.128C84.8577 41.752 84.6417 42.272 84.2097 42.688C83.7777 43.088 83.2177 43.288 82.5297 43.288ZM91.4524 46.792C91.9004 46.168 92.5004 45.696 93.2524 45.376C94.0204 45.056 94.9004 44.896 95.8924 44.896V48.352C95.4764 48.32 95.1964 48.304 95.0524 48.304C93.9804 48.304 93.1404 48.608 92.5324 49.216C91.9244 49.808 91.6204 50.704 91.6204 51.904V58H87.8764V45.088H91.4524V46.792ZM103.256 44.896C105.256 44.896 106.792 45.376 107.864 46.336C108.936 47.28 109.472 48.712 109.472 50.632V58H105.968V56.392C105.264 57.592 103.952 58.192 102.032 58.192C101.04 58.192 100.176 58.024 99.4403 57.688C98.7203 57.352 98.1683 56.888 97.7843 56.296C97.4003 55.704 97.2083 55.032 97.2083 54.28C97.2083 53.08 97.6563 52.136 98.5523 51.448C99.4643 50.76 100.864 50.416 102.752 50.416H105.728C105.728 49.6 105.48 48.976 104.984 48.544C104.488 48.096 103.744 47.872 102.752 47.872C102.064 47.872 101.384 47.984 100.712 48.208C100.056 48.416 99.4963 48.704 99.0323 49.072L97.6883 46.456C98.3923 45.96 99.2323 45.576 100.208 45.304C101.2 45.032 102.216 44.896 103.256 44.896ZM102.968 55.672C103.608 55.672 104.176 55.528 104.672 55.24C105.168 54.936 105.52 54.496 105.728 53.92V52.6H103.16C101.624 52.6 100.856 53.104 100.856 54.112C100.856 54.592 101.04 54.976 101.408 55.264C101.792 55.536 102.312 55.672 102.968 55.672ZM123.493 55.12V58H111.973V55.744L118.549 47.968H112.141V45.088H123.277V47.344L116.701 55.12H123.493ZM125.892 40.192H129.636V58H125.892V40.192ZM133.111 45.088H136.855V58H133.111V45.088Z" fill="black"/>
<path d="M245.738 49.264C246.698 49.568 247.45 50.08 247.994 50.8C248.538 51.504 248.81 52.376 248.81 53.416C248.81 54.888 248.234 56.024 247.082 56.824C245.946 57.608 244.282 58 242.09 58H233.402V41.2H241.61C243.658 41.2 245.226 41.592 246.314 42.376C247.418 43.16 247.97 44.224 247.97 45.568C247.97 46.384 247.77 47.112 247.37 47.752C246.986 48.392 246.442 48.896 245.738 49.264ZM237.266 44.128V48.088H241.13C242.09 48.088 242.818 47.92 243.314 47.584C243.81 47.248 244.058 46.752 244.058 46.096C244.058 45.44 243.81 44.952 243.314 44.632C242.818 44.296 242.09 44.128 241.13 44.128H237.266ZM241.802 55.072C242.826 55.072 243.594 54.904 244.106 54.568C244.634 54.232 244.898 53.712 244.898 53.008C244.898 51.616 243.866 50.92 241.802 50.92H237.266V55.072H241.802ZM256.698 44.896C258.698 44.896 260.234 45.376 261.306 46.336C262.378 47.28 262.914 48.712 262.914 50.632V58H259.41V56.392C258.706 57.592 257.394 58.192 255.474 58.192C254.482 58.192 253.618 58.024 252.882 57.688C252.162 57.352 251.61 56.888 251.226 56.296C250.842 55.704 250.65 55.032 250.65 54.28C250.65 53.08 251.098 52.136 251.994 51.448C252.906 50.76 254.306 50.416 256.194 50.416H259.17C259.17 49.6 258.922 48.976 258.426 48.544C257.93 48.096 257.186 47.872 256.194 47.872C255.506 47.872 254.826 47.984 254.154 48.208C253.498 48.416 252.938 48.704 252.474 49.072L251.13 46.456C251.834 45.96 252.674 45.576 253.65 45.304C254.642 45.032 255.658 44.896 256.698 44.896ZM256.41 55.672C257.05 55.672 257.618 55.528 258.114 55.24C258.61 54.936 258.962 54.496 259.17 53.92V52.6H256.602C255.066 52.6 254.298 53.104 254.298 54.112C254.298 54.592 254.482 54.976 254.85 55.264C255.234 55.536 255.754 55.672 256.41 55.672ZM269.878 46.792C270.326 46.168 270.926 45.696 271.678 45.376C272.446 45.056 273.326 44.896 274.318 44.896V48.352C273.902 48.32 273.622 48.304 273.478 48.304C272.406 48.304 271.566 48.608 270.958 49.216C270.35 49.808 270.046 50.704 270.046 51.904V58H266.302V45.088H269.878V46.792ZM284.176 44.896C285.376 44.896 286.464 45.176 287.44 45.736C288.432 46.28 289.208 47.056 289.768 48.064C290.328 49.056 290.608 50.216 290.608 51.544C290.608 52.872 290.328 54.04 289.768 55.048C289.208 56.04 288.432 56.816 287.44 57.376C286.464 57.92 285.376 58.192 284.176 58.192C282.4 58.192 281.048 57.632 280.12 56.512V58H276.544V40.192H280.288V46.456C281.232 45.416 282.528 44.896 284.176 44.896ZM283.528 55.12C284.488 55.12 285.272 54.8 285.88 54.16C286.504 53.504 286.816 52.632 286.816 51.544C286.816 50.456 286.504 49.592 285.88 48.952C285.272 48.296 284.488 47.968 283.528 47.968C282.568 47.968 281.776 48.296 281.152 48.952C280.544 49.592 280.24 50.456 280.24 51.544C280.24 52.632 280.544 53.504 281.152 54.16C281.776 54.8 282.568 55.12 283.528 55.12ZM298.112 44.896C300.112 44.896 301.648 45.376 302.72 46.336C303.792 47.28 304.328 48.712 304.328 50.632V58H300.824V56.392C300.12 57.592 298.808 58.192 296.888 58.192C295.896 58.192 295.032 58.024 294.296 57.688C293.576 57.352 293.024 56.888 292.64 56.296C292.256 55.704 292.064 55.032 292.064 54.28C292.064 53.08 292.512 52.136 293.408 51.448C294.32 50.76 295.72 50.416 297.608 50.416H300.584C300.584 49.6 300.336 48.976 299.84 48.544C299.344 48.096 298.6 47.872 297.608 47.872C296.92 47.872 296.24 47.984 295.568 48.208C294.912 48.416 294.352 48.704 293.888 49.072L292.544 46.456C293.248 45.96 294.088 45.576 295.064 45.304C296.056 45.032 297.072 44.896 298.112 44.896ZM297.824 55.672C298.464 55.672 299.032 55.528 299.528 55.24C300.024 54.936 300.376 54.496 300.584 53.92V52.6H298.016C296.48 52.6 295.712 53.104 295.712 54.112C295.712 54.592 295.896 54.976 296.264 55.264C296.648 55.536 297.168 55.672 297.824 55.672ZM311.292 46.792C311.74 46.168 312.34 45.696 313.092 45.376C313.86 45.056 314.74 44.896 315.732 44.896V48.352C315.316 48.32 315.036 48.304 314.892 48.304C313.82 48.304 312.98 48.608 312.372 49.216C311.764 49.808 311.46 50.704 311.46 51.904V58H307.716V45.088H311.292V46.792ZM323.985 58.192C322.625 58.192 321.401 57.912 320.313 57.352C319.241 56.776 318.401 55.984 317.793 54.976C317.185 53.968 316.881 52.824 316.881 51.544C316.881 50.264 317.185 49.12 317.793 48.112C318.401 47.104 319.241 46.32 320.313 45.76C321.401 45.184 322.625 44.896 323.985 44.896C325.345 44.896 326.561 45.184 327.633 45.76C328.705 46.32 329.545 47.104 330.153 48.112C330.761 49.12 331.065 50.264 331.065 51.544C331.065 52.824 330.761 53.968 330.153 54.976C329.545 55.984 328.705 56.776 327.633 57.352C326.561 57.912 325.345 58.192 323.985 58.192ZM323.985 55.12C324.945 55.12 325.729 54.8 326.337 54.16C326.961 53.504 327.273 52.632 327.273 51.544C327.273 50.456 326.961 49.592 326.337 48.952C325.729 48.296 324.945 47.968 323.985 47.968C323.025 47.968 322.233 48.296 321.609 48.952C320.985 49.592 320.673 50.456 320.673 51.544C320.673 52.632 320.985 53.504 321.609 54.16C322.233 54.8 323.025 55.12 323.985 55.12ZM337.912 58.192C336.84 58.192 335.792 58.064 334.768 57.808C333.744 57.536 332.928 57.2 332.32 56.8L333.568 54.112C334.144 54.48 334.84 54.784 335.656 55.024C336.472 55.248 337.272 55.36 338.056 55.36C339.64 55.36 340.432 54.968 340.432 54.184C340.432 53.816 340.216 53.552 339.784 53.392C339.352 53.232 338.688 53.096 337.792 52.984C336.736 52.824 335.864 52.64 335.176 52.432C334.488 52.224 333.888 51.856 333.376 51.328C332.88 50.8 332.632 50.048 332.632 49.072C332.632 48.256 332.864 47.536 333.328 46.912C333.808 46.272 334.496 45.776 335.392 45.424C336.304 45.072 337.376 44.896 338.608 44.896C339.52 44.896 340.424 45 341.32 45.208C342.232 45.4 342.984 45.672 343.576 46.024L342.328 48.688C341.192 48.048 339.952 47.728 338.608 47.728C337.808 47.728 337.208 47.84 336.808 48.064C336.408 48.288 336.208 48.576 336.208 48.928C336.208 49.328 336.424 49.608 336.856 49.768C337.288 49.928 337.976 50.08 338.92 50.224C339.976 50.4 340.84 50.592 341.512 50.8C342.184 50.992 342.768 51.352 343.264 51.88C343.76 52.408 344.008 53.144 344.008 54.088C344.008 54.888 343.768 55.6 343.288 56.224C342.808 56.848 342.104 57.336 341.176 57.688C340.264 58.024 339.176 58.192 337.912 58.192Z" fill="black"/>
<path d="M431.393 58L431.369 47.92L426.425 56.224H424.673L419.753 48.136V58H416.105V41.2H419.321L425.609 51.64L431.801 41.2H434.993L435.041 58H431.393ZM443.971 44.896C445.971 44.896 447.507 45.376 448.579 46.336C449.651 47.28 450.187 48.712 450.187 50.632V58H446.683V56.392C445.979 57.592 444.667 58.192 442.747 58.192C441.755 58.192 440.891 58.024 440.155 57.688C439.435 57.352 438.883 56.888 438.499 56.296C438.115 55.704 437.923 55.032 437.923 54.28C437.923 53.08 438.371 52.136 439.267 51.448C440.179 50.76 441.579 50.416 443.467 50.416H446.443C446.443 49.6 446.195 48.976 445.699 48.544C445.203 48.096 444.459 47.872 443.467 47.872C442.779 47.872 442.099 47.984 441.427 48.208C440.771 48.416 440.211 48.704 439.747 49.072L438.403 46.456C439.107 45.96 439.947 45.576 440.923 45.304C441.915 45.032 442.931 44.896 443.971 44.896ZM443.683 55.672C444.323 55.672 444.891 55.528 445.387 55.24C445.883 54.936 446.235 54.496 446.443 53.92V52.6H443.875C442.339 52.6 441.571 53.104 441.571 54.112C441.571 54.592 441.755 54.976 442.123 55.264C442.507 55.536 443.027 55.672 443.683 55.672ZM453.576 40.192H457.32V58H453.576V40.192ZM466.002 44.896C468.002 44.896 469.538 45.376 470.61 46.336C471.682 47.28 472.218 48.712 472.218 50.632V58H468.714V56.392C468.01 57.592 466.698 58.192 464.778 58.192C463.786 58.192 462.922 58.024 462.186 57.688C461.466 57.352 460.914 56.888 460.53 56.296C460.146 55.704 459.954 55.032 459.954 54.28C459.954 53.08 460.402 52.136 461.298 51.448C462.21 50.76 463.61 50.416 465.498 50.416H468.474C468.474 49.6 468.226 48.976 467.73 48.544C467.234 48.096 466.49 47.872 465.498 47.872C464.81 47.872 464.13 47.984 463.458 48.208C462.802 48.416 462.242 48.704 461.778 49.072L460.434 46.456C461.138 45.96 461.978 45.576 462.954 45.304C463.946 45.032 464.962 44.896 466.002 44.896ZM465.714 55.672C466.354 55.672 466.922 55.528 467.418 55.24C467.914 54.936 468.266 54.496 468.474 53.92V52.6H465.906C464.37 52.6 463.602 53.104 463.602 54.112C463.602 54.592 463.786 54.976 464.154 55.264C464.538 55.536 465.058 55.672 465.714 55.672ZM486.239 55.12V58H474.719V55.744L481.295 47.968H474.887V45.088H486.023V47.344L479.447 55.12H486.239ZM501.794 45.088V55.84C501.794 58.208 501.178 59.968 499.946 61.12C498.714 62.272 496.914 62.848 494.546 62.848C493.298 62.848 492.114 62.696 490.994 62.392C489.874 62.088 488.946 61.648 488.21 61.072L489.698 58.384C490.242 58.832 490.93 59.184 491.762 59.44C492.594 59.712 493.426 59.848 494.258 59.848C495.554 59.848 496.506 59.552 497.114 58.96C497.738 58.384 498.05 57.504 498.05 56.32V55.768C497.074 56.84 495.714 57.376 493.97 57.376C492.786 57.376 491.698 57.12 490.706 56.608C489.73 56.08 488.954 55.344 488.378 54.4C487.802 53.456 487.514 52.368 487.514 51.136C487.514 49.904 487.802 48.816 488.378 47.872C488.954 46.928 489.73 46.2 490.706 45.688C491.698 45.16 492.786 44.896 493.97 44.896C495.842 44.896 497.266 45.512 498.242 46.744V45.088H501.794ZM494.714 54.304C495.706 54.304 496.514 54.016 497.138 53.44C497.778 52.848 498.098 52.08 498.098 51.136C498.098 50.192 497.778 49.432 497.138 48.856C496.514 48.264 495.706 47.968 494.714 47.968C493.722 47.968 492.906 48.264 492.266 48.856C491.626 49.432 491.306 50.192 491.306 51.136C491.306 52.08 491.626 52.848 492.266 53.44C492.906 54.016 493.722 54.304 494.714 54.304ZM505.279 45.088H509.023V58H505.279V45.088ZM507.151 43.288C506.463 43.288 505.903 43.088 505.471 42.688C505.039 42.288 504.823 41.792 504.823 41.2C504.823 40.608 505.039 40.112 505.471 39.712C505.903 39.312 506.463 39.112 507.151 39.112C507.839 39.112 508.399 39.304 508.831 39.688C509.263 40.072 509.479 40.552 509.479 41.128C509.479 41.752 509.263 42.272 508.831 42.688C508.399 43.088 507.839 43.288 507.151 43.288ZM516.074 46.792C516.522 46.168 517.122 45.696 517.874 45.376C518.642 45.056 519.522 44.896 520.514 44.896V48.352C520.098 48.32 519.818 48.304 519.674 48.304C518.602 48.304 517.762 48.608 517.154 49.216C516.546 49.808 516.242 50.704 516.242 51.904V58H512.498V45.088H516.074V46.792ZM531.513 57.376C531.145 57.648 530.689 57.856 530.145 58C529.617 58.128 529.057 58.192 528.465 58.192C526.929 58.192 525.737 57.8 524.889 57.016C524.057 56.232 523.641 55.08 523.641 53.56V48.256H521.649V45.376H523.641V42.232H527.385V45.376H530.601V48.256H527.385V53.512C527.385 54.056 527.521 54.48 527.793 54.784C528.081 55.072 528.481 55.216 528.993 55.216C529.585 55.216 530.089 55.056 530.505 54.736L531.513 57.376Z" fill="black"/>
<path d="M596.389 58L596.365 47.92L591.421 56.224H589.669L584.749 48.136V58H581.101V41.2H584.317L590.605 51.64L596.797 41.2H599.989L600.037 58H596.389ZM603.759 45.088H607.503V58H603.759V45.088ZM605.631 43.288C604.943 43.288 604.383 43.088 603.951 42.688C603.519 42.288 603.303 41.792 603.303 41.2C603.303 40.608 603.519 40.112 603.951 39.712C604.383 39.312 604.943 39.112 605.631 39.112C606.319 39.112 606.879 39.304 607.311 39.688C607.743 40.072 607.959 40.552 607.959 41.128C607.959 41.752 607.743 42.272 607.311 42.688C606.879 43.088 606.319 43.288 605.631 43.288ZM627.514 44.896C629.13 44.896 630.41 45.376 631.354 46.336C632.314 47.28 632.794 48.704 632.794 50.608V58H629.05V51.184C629.05 50.16 628.834 49.4 628.402 48.904C627.986 48.392 627.386 48.136 626.602 48.136C625.722 48.136 625.026 48.424 624.514 49C624.002 49.56 623.746 50.4 623.746 51.52V58H620.002V51.184C620.002 49.152 619.186 48.136 617.554 48.136C616.69 48.136 616.002 48.424 615.49 49C614.978 49.56 614.722 50.4 614.722 51.52V58H610.978V45.088H614.554V46.576C615.034 46.032 615.618 45.616 616.306 45.328C617.01 45.04 617.778 44.896 618.61 44.896C619.522 44.896 620.346 45.08 621.082 45.448C621.818 45.8 622.41 46.32 622.858 47.008C623.386 46.336 624.05 45.816 624.85 45.448C625.666 45.08 626.554 44.896 627.514 44.896ZM641.358 44.896C643.358 44.896 644.894 45.376 645.966 46.336C647.038 47.28 647.574 48.712 647.574 50.632V58H644.07V56.392C643.366 57.592 642.054 58.192 640.134 58.192C639.142 58.192 638.278 58.024 637.542 57.688C636.822 57.352 636.27 56.888 635.886 56.296C635.502 55.704 635.31 55.032 635.31 54.28C635.31 53.08 635.758 52.136 636.654 51.448C637.566 50.76 638.966 50.416 640.854 50.416H643.83C643.83 49.6 643.582 48.976 643.086 48.544C642.59 48.096 641.846 47.872 640.854 47.872C640.166 47.872 639.486 47.984 638.814 48.208C638.158 48.416 637.598 48.704 637.134 49.072L635.79 46.456C636.494 45.96 637.334 45.576 638.31 45.304C639.302 45.032 640.318 44.896 641.358 44.896ZM641.07 55.672C641.71 55.672 642.278 55.528 642.774 55.24C643.27 54.936 643.622 54.496 643.83 53.92V52.6H641.262C639.726 52.6 638.958 53.104 638.958 54.112C638.958 54.592 639.142 54.976 639.51 55.264C639.894 55.536 640.414 55.672 641.07 55.672ZM654.538 46.792C654.986 46.168 655.586 45.696 656.338 45.376C657.106 45.056 657.986 44.896 658.978 44.896V48.352C658.562 48.32 658.282 48.304 658.138 48.304C657.066 48.304 656.226 48.608 655.618 49.216C655.01 49.808 654.706 50.704 654.706 51.904V58H650.962V45.088H654.538V46.792ZM673.879 58.288C672.551 58.288 671.263 58.112 670.015 57.76C668.783 57.392 667.791 56.92 667.039 56.344L668.359 53.416C669.079 53.944 669.935 54.368 670.927 54.688C671.919 55.008 672.911 55.168 673.903 55.168C675.007 55.168 675.823 55.008 676.351 54.688C676.879 54.352 677.143 53.912 677.143 53.368C677.143 52.968 676.983 52.64 676.663 52.384C676.359 52.112 675.959 51.896 675.463 51.736C674.983 51.576 674.327 51.4 673.495 51.208C672.215 50.904 671.167 50.6 670.351 50.296C669.535 49.992 668.831 49.504 668.239 48.832C667.663 48.16 667.375 47.264 667.375 46.144C667.375 45.168 667.639 44.288 668.167 43.504C668.695 42.704 669.487 42.072 670.543 41.608C671.615 41.144 672.919 40.912 674.455 40.912C675.527 40.912 676.575 41.04 677.599 41.296C678.623 41.552 679.519 41.92 680.287 42.4L679.087 45.352C677.535 44.472 675.983 44.032 674.431 44.032C673.343 44.032 672.535 44.208 672.007 44.56C671.495 44.912 671.239 45.376 671.239 45.952C671.239 46.528 671.535 46.96 672.127 47.248C672.735 47.52 673.655 47.792 674.887 48.064C676.167 48.368 677.215 48.672 678.031 48.976C678.847 49.28 679.543 49.76 680.119 50.416C680.711 51.072 681.007 51.96 681.007 53.08C681.007 54.04 680.735 54.92 680.191 55.72C679.663 56.504 678.863 57.128 677.791 57.592C676.719 58.056 675.415 58.288 673.879 58.288ZM683.4 45.088H687.144V58H683.4V45.088ZM685.272 43.288C684.584 43.288 684.024 43.088 683.592 42.688C683.16 42.288 682.944 41.792 682.944 41.2C682.944 40.608 683.16 40.112 683.592 39.712C684.024 39.312 684.584 39.112 685.272 39.112C685.96 39.112 686.52 39.304 686.952 39.688C687.384 40.072 687.6 40.552 687.6 41.128C687.6 41.752 687.384 42.272 686.952 42.688C686.52 43.088 685.96 43.288 685.272 43.288ZM698.467 44.896C700.067 44.896 701.355 45.376 702.331 46.336C703.323 47.296 703.819 48.72 703.819 50.608V58H700.075V51.184C700.075 50.16 699.851 49.4 699.403 48.904C698.955 48.392 698.307 48.136 697.459 48.136C696.515 48.136 695.763 48.432 695.203 49.024C694.643 49.6 694.363 50.464 694.363 51.616V58H690.619V45.088H694.195V46.6C694.691 46.056 695.307 45.64 696.043 45.352C696.779 45.048 697.587 44.896 698.467 44.896ZM712.42 44.896C714.42 44.896 715.956 45.376 717.028 46.336C718.1 47.28 718.636 48.712 718.636 50.632V58H715.132V56.392C714.428 57.592 713.116 58.192 711.196 58.192C710.204 58.192 709.34 58.024 708.604 57.688C707.884 57.352 707.332 56.888 706.948 56.296C706.564 55.704 706.372 55.032 706.372 54.28C706.372 53.08 706.82 52.136 707.716 51.448C708.628 50.76 710.028 50.416 711.916 50.416H714.892C714.892 49.6 714.644 48.976 714.148 48.544C713.652 48.096 712.908 47.872 711.916 47.872C711.228 47.872 710.548 47.984 709.876 48.208C709.22 48.416 708.66 48.704 708.196 49.072L706.852 46.456C707.556 45.96 708.396 45.576 709.372 45.304C710.364 45.032 711.38 44.896 712.42 44.896ZM712.132 55.672C712.772 55.672 713.34 55.528 713.836 55.24C714.332 54.936 714.684 54.496 714.892 53.92V52.6H712.324C710.788 52.6 710.02 53.104 710.02 54.112C710.02 54.592 710.204 54.976 710.572 55.264C710.956 55.536 711.476 55.672 712.132 55.672ZM729.873 44.896C731.473 44.896 732.761 45.376 733.737 46.336C734.729 47.296 735.225 48.72 735.225 50.608V58H731.481V51.184C731.481 50.16 731.257 49.4 730.809 48.904C730.361 48.392 729.713 48.136 728.865 48.136C727.921 48.136 727.169 48.432 726.609 49.024C726.049 49.6 725.769 50.464 725.769 51.616V58H722.025V45.088H725.601V46.6C726.097 46.056 726.713 45.64 727.449 45.352C728.185 45.048 728.993 44.896 729.873 44.896Z" fill="black"/>
<path d="M817.364 44.32V48.76H825.14V51.88H817.364V58H813.476V41.2H826.172V44.32H817.364ZM833.397 44.896C835.397 44.896 836.933 45.376 838.005 46.336C839.077 47.28 839.613 48.712 839.613 50.632V58H836.109V56.392C835.405 57.592 834.093 58.192 832.173 58.192C831.181 58.192 830.317 58.024 829.581 57.688C828.861 57.352 828.309 56.888 827.925 56.296C827.541 55.704 827.349 55.032 827.349 54.28C827.349 53.08 827.797 52.136 828.693 51.448C829.605 50.76 831.005 50.416 832.893 50.416H835.869C835.869 49.6 835.621 48.976 835.125 48.544C834.629 48.096 833.885 47.872 832.893 47.872C832.205 47.872 831.525 47.984 830.853 48.208C830.197 48.416 829.637 48.704 829.173 49.072L827.829 46.456C828.533 45.96 829.373 45.576 830.349 45.304C831.341 45.032 832.357 44.896 833.397 44.896ZM833.109 55.672C833.749 55.672 834.317 55.528 834.813 55.24C835.309 54.936 835.661 54.496 835.869 53.92V52.6H833.301C831.765 52.6 830.997 53.104 830.997 54.112C830.997 54.592 831.181 54.976 831.549 55.264C831.933 55.536 832.453 55.672 833.109 55.672ZM851.329 57.376C850.961 57.648 850.505 57.856 849.961 58C849.433 58.128 848.873 58.192 848.281 58.192C846.745 58.192 845.553 57.8 844.705 57.016C843.873 56.232 843.457 55.08 843.457 53.56V48.256H841.465V45.376H843.457V42.232H847.201V45.376H850.417V48.256H847.201V53.512C847.201 54.056 847.337 54.48 847.609 54.784C847.897 55.072 848.297 55.216 848.809 55.216C849.401 55.216 849.905 55.056 850.321 54.736L851.329 57.376ZM853.431 45.088H857.175V58H853.431V45.088ZM855.303 43.288C854.615 43.288 854.055 43.088 853.623 42.688C853.191 42.288 852.975 41.792 852.975 41.2C852.975 40.608 853.191 40.112 853.623 39.712C854.055 39.312 854.615 39.112 855.303 39.112C855.991 39.112 856.551 39.304 856.983 39.688C857.415 40.072 857.631 40.552 857.631 41.128C857.631 41.752 857.415 42.272 856.983 42.688C856.551 43.088 855.991 43.288 855.303 43.288ZM868.498 44.896C870.098 44.896 871.386 45.376 872.362 46.336C873.354 47.296 873.85 48.72 873.85 50.608V58H870.106V51.184C870.106 50.16 869.882 49.4 869.434 48.904C868.986 48.392 868.338 48.136 867.49 48.136C866.546 48.136 865.794 48.432 865.234 49.024C864.674 49.6 864.394 50.464 864.394 51.616V58H860.65V40.192H864.394V46.432C864.89 45.936 865.49 45.56 866.194 45.304C866.898 45.032 867.666 44.896 868.498 44.896Z" fill="black"/>
<path d="M971.861 41.2V58H967.973V51.112H960.341V58H956.453V41.2H960.341V47.824H967.973V41.2H971.861ZM980.78 44.896C982.78 44.896 984.316 45.376 985.388 46.336C986.46 47.28 986.996 48.712 986.996 50.632V58H983.492V56.392C982.788 57.592 981.476 58.192 979.556 58.192C978.564 58.192 977.7 58.024 976.964 57.688C976.244 57.352 975.692 56.888 975.308 56.296C974.924 55.704 974.732 55.032 974.732 54.28C974.732 53.08 975.18 52.136 976.076 51.448C976.988 50.76 978.388 50.416 980.276 50.416H983.252C983.252 49.6 983.004 48.976 982.508 48.544C982.012 48.096 981.268 47.872 980.276 47.872C979.588 47.872 978.908 47.984 978.236 48.208C977.58 48.416 977.02 48.704 976.556 49.072L975.212 46.456C975.916 45.96 976.756 45.576 977.732 45.304C978.724 45.032 979.74 44.896 980.78 44.896ZM980.492 55.672C981.132 55.672 981.7 55.528 982.196 55.24C982.692 54.936 983.044 54.496 983.252 53.92V52.6H980.684C979.148 52.6 978.38 53.104 978.38 54.112C978.38 54.592 978.564 54.976 978.932 55.264C979.316 55.536 979.836 55.672 980.492 55.672ZM990.384 40.192H994.128V58H990.384V40.192ZM1003.15 52.936L1001.35 54.712V58H997.603V40.192H1001.35V50.272L1006.82 45.088H1011.28L1005.91 50.56L1011.76 58H1007.23L1003.15 52.936ZM1018.42 44.896C1020.42 44.896 1021.96 45.376 1023.03 46.336C1024.1 47.28 1024.64 48.712 1024.64 50.632V58H1021.13V56.392C1020.43 57.592 1019.12 58.192 1017.2 58.192C1016.2 58.192 1015.34 58.024 1014.6 57.688C1013.88 57.352 1013.33 56.888 1012.95 56.296C1012.56 55.704 1012.37 55.032 1012.37 54.28C1012.37 53.08 1012.82 52.136 1013.72 51.448C1014.63 50.76 1016.03 50.416 1017.92 50.416H1020.89C1020.89 49.6 1020.64 48.976 1020.15 48.544C1019.65 48.096 1018.91 47.872 1017.92 47.872C1017.23 47.872 1016.55 47.984 1015.88 48.208C1015.22 48.416 1014.66 48.704 1014.2 49.072L1012.85 46.456C1013.56 45.96 1014.4 45.576 1015.37 45.304C1016.36 45.032 1017.38 44.896 1018.42 44.896ZM1018.13 55.672C1018.77 55.672 1019.34 55.528 1019.84 55.24C1020.33 54.936 1020.68 54.496 1020.89 53.92V52.6H1018.32C1016.79 52.6 1016.02 53.104 1016.02 54.112C1016.02 54.592 1016.2 54.976 1016.57 55.264C1016.96 55.536 1017.48 55.672 1018.13 55.672ZM1028.02 40.192H1031.77V58H1028.02V40.192ZM1035.24 45.088H1038.99V58H1035.24V45.088ZM1056.99 58.288C1054.59 58.288 1052.72 57.624 1051.37 56.296C1050.04 54.968 1049.38 53.072 1049.38 50.608V41.2H1053.27V50.464C1053.27 53.472 1054.52 54.976 1057.01 54.976C1058.23 54.976 1059.16 54.616 1059.8 53.896C1060.44 53.16 1060.76 52.016 1060.76 50.464V41.2H1064.6V50.608C1064.6 53.072 1063.92 54.968 1062.58 56.296C1061.25 57.624 1059.39 58.288 1056.99 58.288ZM1054.59 39.712C1054.11 39.712 1053.71 39.56 1053.39 39.256C1053.07 38.936 1052.91 38.536 1052.91 38.056C1052.91 37.576 1053.07 37.184 1053.39 36.88C1053.71 36.56 1054.11 36.4 1054.59 36.4C1055.07 36.4 1055.46 36.56 1055.76 36.88C1056.08 37.184 1056.24 37.576 1056.24 38.056C1056.24 38.536 1056.08 38.936 1055.76 39.256C1055.46 39.56 1055.07 39.712 1054.59 39.712ZM1059.44 39.712C1058.96 39.712 1058.56 39.56 1058.24 39.256C1057.93 38.936 1057.78 38.536 1057.78 38.056C1057.78 37.576 1057.93 37.184 1058.24 36.88C1058.56 36.56 1058.96 36.4 1059.44 36.4C1059.92 36.4 1060.32 36.56 1060.64 36.88C1060.96 37.184 1061.12 37.576 1061.12 38.056C1061.12 38.536 1060.96 38.936 1060.64 39.256C1060.32 39.56 1059.92 39.712 1059.44 39.712ZM1076.02 44.896C1077.62 44.896 1078.91 45.376 1079.89 46.336C1080.88 47.296 1081.37 48.72 1081.37 50.608V58H1077.63V51.184C1077.63 50.16 1077.41 49.4 1076.96 48.904C1076.51 48.392 1075.86 48.136 1075.01 48.136C1074.07 48.136 1073.32 48.432 1072.76 49.024C1072.2 49.6 1071.92 50.464 1071.92 51.616V58H1068.17V45.088H1071.75V46.6C1072.25 46.056 1072.86 45.64 1073.6 45.352C1074.33 45.048 1075.14 44.896 1076.02 44.896ZM1084.77 45.088H1088.51V58H1084.77V45.088ZM1086.64 43.288C1085.95 43.288 1085.39 43.088 1084.96 42.688C1084.53 42.288 1084.31 41.792 1084.31 41.2C1084.31 40.608 1084.53 40.112 1084.96 39.712C1085.39 39.312 1085.95 39.112 1086.64 39.112C1087.33 39.112 1087.89 39.304 1088.32 39.688C1088.75 40.072 1088.97 40.552 1088.97 41.128C1088.97 41.752 1088.75 42.272 1088.32 42.688C1087.89 43.088 1087.33 43.288 1086.64 43.288ZM1093.4 58.192C1092.75 58.192 1092.19 57.968 1091.75 57.52C1091.3 57.072 1091.07 56.512 1091.07 55.84C1091.07 55.152 1091.3 54.6 1091.75 54.184C1092.19 53.752 1092.75 53.536 1093.4 53.536C1094.06 53.536 1094.61 53.752 1095.06 54.184C1095.51 54.6 1095.73 55.152 1095.73 55.84C1095.73 56.512 1095.51 57.072 1095.06 57.52C1094.61 57.968 1094.06 58.192 1093.4 58.192Z" fill="black"/>
<path d="M1172.01 29L1171.99 18.92L1167.04 27.224H1165.29L1160.37 19.136V29H1156.72V12.2H1159.94L1166.23 22.64L1172.42 12.2H1175.61L1175.66 29H1172.01ZM1192.03 22.592C1192.03 22.64 1192 22.976 1191.96 23.6H1182.19C1182.36 24.4 1182.78 25.032 1183.44 25.496C1184.09 25.96 1184.91 26.192 1185.88 26.192C1186.56 26.192 1187.15 26.096 1187.66 25.904C1188.19 25.696 1188.68 25.376 1189.12 24.944L1191.12 27.104C1189.9 28.496 1188.12 29.192 1185.79 29.192C1184.33 29.192 1183.04 28.912 1181.92 28.352C1180.8 27.776 1179.94 26.984 1179.33 25.976C1178.72 24.968 1178.42 23.824 1178.42 22.544C1178.42 21.28 1178.72 20.144 1179.31 19.136C1179.92 18.112 1180.74 17.32 1181.78 16.76C1182.84 16.184 1184.01 15.896 1185.31 15.896C1186.57 15.896 1187.72 16.168 1188.74 16.712C1189.76 17.256 1190.56 18.04 1191.14 19.064C1191.73 20.072 1192.03 21.248 1192.03 22.592ZM1185.33 18.728C1184.48 18.728 1183.77 18.968 1183.2 19.448C1182.62 19.928 1182.27 20.584 1182.14 21.416H1188.5C1188.37 20.6 1188.02 19.952 1187.44 19.472C1186.87 18.976 1186.16 18.728 1185.33 18.728ZM1202.37 15.896C1203.97 15.896 1205.26 16.376 1206.23 17.336C1207.22 18.296 1207.72 19.72 1207.72 21.608V29H1203.98V22.184C1203.98 21.16 1203.75 20.4 1203.3 19.904C1202.86 19.392 1202.21 19.136 1201.36 19.136C1200.42 19.136 1199.66 19.432 1199.1 20.024C1198.54 20.6 1198.26 21.464 1198.26 22.616V29H1194.52V11.192H1198.26V17.432C1198.76 16.936 1199.36 16.56 1200.06 16.304C1200.77 16.032 1201.54 15.896 1202.37 15.896ZM1227.65 15.896C1229.27 15.896 1230.55 16.376 1231.49 17.336C1232.45 18.28 1232.93 19.704 1232.93 21.608V29H1229.19V22.184C1229.19 21.16 1228.97 20.4 1228.54 19.904C1228.12 19.392 1227.52 19.136 1226.74 19.136C1225.86 19.136 1225.16 19.424 1224.65 20C1224.14 20.56 1223.88 21.4 1223.88 22.52V29H1220.14V22.184C1220.14 20.152 1219.32 19.136 1217.69 19.136C1216.83 19.136 1216.14 19.424 1215.63 20C1215.11 20.56 1214.86 21.4 1214.86 22.52V29H1211.11V16.088H1214.69V17.576C1215.17 17.032 1215.75 16.616 1216.44 16.328C1217.15 16.04 1217.91 15.896 1218.75 15.896C1219.66 15.896 1220.48 16.08 1221.22 16.448C1221.95 16.8 1222.55 17.32 1222.99 18.008C1223.52 17.336 1224.19 16.816 1224.99 16.448C1225.8 16.08 1226.69 15.896 1227.65 15.896ZM1249.08 22.592C1249.08 22.64 1249.05 22.976 1249 23.6H1239.24C1239.41 24.4 1239.83 25.032 1240.48 25.496C1241.14 25.96 1241.96 26.192 1242.93 26.192C1243.6 26.192 1244.2 26.096 1244.71 25.904C1245.24 25.696 1245.72 25.376 1246.17 24.944L1248.16 27.104C1246.95 28.496 1245.17 29.192 1242.84 29.192C1241.38 29.192 1240.09 28.912 1238.97 28.352C1237.85 27.776 1236.99 26.984 1236.38 25.976C1235.77 24.968 1235.47 23.824 1235.47 22.544C1235.47 21.28 1235.76 20.144 1236.36 19.136C1236.96 18.112 1237.79 17.32 1238.83 16.76C1239.88 16.184 1241.06 15.896 1242.36 15.896C1243.62 15.896 1244.76 16.168 1245.79 16.712C1246.81 17.256 1247.61 18.04 1248.19 19.064C1248.78 20.072 1249.08 21.248 1249.08 22.592ZM1242.38 18.728C1241.53 18.728 1240.82 18.968 1240.24 19.448C1239.67 19.928 1239.32 20.584 1239.19 21.416H1245.55C1245.42 20.6 1245.07 19.952 1244.49 19.472C1243.92 18.976 1243.21 18.728 1242.38 18.728ZM1259.9 28.376C1259.53 28.648 1259.07 28.856 1258.53 29C1258 29.128 1257.44 29.192 1256.85 29.192C1255.31 29.192 1254.12 28.8 1253.27 28.016C1252.44 27.232 1252.02 26.08 1252.02 24.56V19.256H1250.03V16.376H1252.02V13.232H1255.77V16.376H1258.98V19.256H1255.77V24.512C1255.77 25.056 1255.9 25.48 1256.18 25.784C1256.46 26.072 1256.86 26.216 1257.38 26.216C1257.97 26.216 1258.47 26.056 1258.89 25.736L1259.9 28.376ZM1157.42 54.4H1149.62L1148.13 58H1144.14L1151.63 41.2H1155.47L1162.98 58H1158.9L1157.42 54.4ZM1156.19 51.448L1153.53 45.016L1150.86 51.448H1156.19ZM1170.01 52.936L1168.21 54.712V58H1164.46V40.192H1168.21V50.272L1173.68 45.088H1178.14L1172.77 50.56L1178.62 58H1174.09L1170.01 52.936ZM1180.21 45.088H1183.96V58H1180.21V45.088ZM1182.08 43.288C1181.4 43.288 1180.84 43.088 1180.4 42.688C1179.97 42.288 1179.76 41.792 1179.76 41.2C1179.76 40.608 1179.97 40.112 1180.4 39.712C1180.84 39.312 1181.4 39.112 1182.08 39.112C1182.77 39.112 1183.33 39.304 1183.76 39.688C1184.2 40.072 1184.41 40.552 1184.41 41.128C1184.41 41.752 1184.2 42.272 1183.76 42.688C1183.33 43.088 1182.77 43.288 1182.08 43.288ZM1191.54 45.376H1194.85V48.256H1191.63V58H1187.89V48.256H1185.9V45.376H1187.89V44.8C1187.89 43.328 1188.32 42.16 1189.18 41.296C1190.06 40.432 1191.3 40 1192.88 40C1193.44 40 1193.97 40.064 1194.46 40.192C1194.98 40.304 1195.4 40.472 1195.74 40.696L1194.75 43.408C1194.32 43.104 1193.82 42.952 1193.24 42.952C1192.1 42.952 1191.54 43.576 1191.54 44.824V45.376ZM1216.78 54.88V58H1203.77V41.2H1216.47V44.32H1207.64V47.968H1215.44V50.992H1207.64V54.88H1216.78ZM1223.19 46.792C1223.63 46.168 1224.23 45.696 1224.99 45.376C1225.75 45.056 1226.63 44.896 1227.63 44.896V48.352C1227.21 48.32 1226.93 48.304 1226.79 48.304C1225.71 48.304 1224.87 48.608 1224.27 49.216C1223.66 49.808 1223.35 50.704 1223.35 51.904V58H1219.61V45.088H1223.19V46.792ZM1234.24 58.192C1233.17 58.192 1232.12 58.064 1231.1 57.808C1230.08 57.536 1229.26 57.2 1228.65 56.8L1229.9 54.112C1230.48 54.48 1231.17 54.784 1231.99 55.024C1232.8 55.248 1233.6 55.36 1234.39 55.36C1235.97 55.36 1236.76 54.968 1236.76 54.184C1236.76 53.816 1236.55 53.552 1236.12 53.392C1235.68 53.232 1235.02 53.096 1234.12 52.984C1233.07 52.824 1232.2 52.64 1231.51 52.432C1230.82 52.224 1230.22 51.856 1229.71 51.328C1229.21 50.8 1228.96 50.048 1228.96 49.072C1228.96 48.256 1229.2 47.536 1229.66 46.912C1230.14 46.272 1230.83 45.776 1231.72 45.424C1232.64 45.072 1233.71 44.896 1234.94 44.896C1235.85 44.896 1236.76 45 1237.65 45.208C1238.56 45.4 1239.32 45.672 1239.91 46.024L1238.66 48.688C1237.52 48.048 1236.28 47.728 1234.94 47.728C1234.14 47.728 1233.54 47.84 1233.14 48.064C1232.74 48.288 1232.54 48.576 1232.54 48.928C1232.54 49.328 1232.76 49.608 1233.19 49.768C1233.62 49.928 1234.31 50.08 1235.25 50.224C1236.31 50.4 1237.17 50.592 1237.84 50.8C1238.52 50.992 1239.1 51.352 1239.6 51.88C1240.09 52.408 1240.34 53.144 1240.34 54.088C1240.34 54.888 1240.1 55.6 1239.62 56.224C1239.14 56.848 1238.44 57.336 1237.51 57.688C1236.6 58.024 1235.51 58.192 1234.24 58.192ZM1248.79 58.192C1247.43 58.192 1246.21 57.912 1245.12 57.352C1244.05 56.776 1243.21 55.984 1242.6 54.976C1241.99 53.968 1241.69 52.824 1241.69 51.544C1241.69 50.264 1241.99 49.12 1242.6 48.112C1243.21 47.104 1244.05 46.32 1245.12 45.76C1246.21 45.184 1247.43 44.896 1248.79 44.896C1250.15 44.896 1251.37 45.184 1252.44 45.76C1253.51 46.32 1254.35 47.104 1254.96 48.112C1255.57 49.12 1255.87 50.264 1255.87 51.544C1255.87 52.824 1255.57 53.968 1254.96 54.976C1254.35 55.984 1253.51 56.776 1252.44 57.352C1251.37 57.912 1250.15 58.192 1248.79 58.192ZM1248.79 55.12C1249.75 55.12 1250.54 54.8 1251.15 54.16C1251.77 53.504 1252.08 52.632 1252.08 51.544C1252.08 50.456 1251.77 49.592 1251.15 48.952C1250.54 48.296 1249.75 47.968 1248.79 47.968C1247.83 47.968 1247.04 48.296 1246.42 48.952C1245.79 49.592 1245.48 50.456 1245.48 51.544C1245.48 52.632 1245.79 53.504 1246.42 54.16C1247.04 54.8 1247.83 55.12 1248.79 55.12ZM1270.84 45.088L1265.01 58.792C1264.42 60.28 1263.68 61.328 1262.8 61.936C1261.94 62.544 1260.89 62.848 1259.66 62.848C1258.98 62.848 1258.32 62.744 1257.66 62.536C1257.01 62.328 1256.47 62.04 1256.06 61.672L1257.42 59.008C1257.71 59.264 1258.04 59.464 1258.41 59.608C1258.79 59.752 1259.17 59.824 1259.54 59.824C1260.05 59.824 1260.46 59.696 1260.78 59.44C1261.1 59.2 1261.39 58.792 1261.65 58.216L1261.7 58.096L1256.1 45.088H1259.97L1263.59 53.848L1267.24 45.088H1270.84Z" fill="black"/>
<path d="M1335.41 52.048V58H1331.52V52L1325.02 41.2H1329.14L1333.63 48.664L1338.12 41.2H1341.94L1335.41 52.048ZM1354.52 51.592C1354.52 51.64 1354.49 51.976 1354.44 52.6H1344.68C1344.85 53.4 1345.27 54.032 1345.92 54.496C1346.58 54.96 1347.4 55.192 1348.37 55.192C1349.04 55.192 1349.64 55.096 1350.15 54.904C1350.68 54.696 1351.16 54.376 1351.61 53.944L1353.6 56.104C1352.39 57.496 1350.61 58.192 1348.28 58.192C1346.82 58.192 1345.53 57.912 1344.41 57.352C1343.29 56.776 1342.43 55.984 1341.82 54.976C1341.21 53.968 1340.91 52.824 1340.91 51.544C1340.91 50.28 1341.2 49.144 1341.8 48.136C1342.4 47.112 1343.23 46.32 1344.27 45.76C1345.32 45.184 1346.5 44.896 1347.8 44.896C1349.06 44.896 1350.2 45.168 1351.23 45.712C1352.25 46.256 1353.05 47.04 1353.63 48.064C1354.22 49.072 1354.52 50.248 1354.52 51.592ZM1347.82 47.728C1346.97 47.728 1346.26 47.968 1345.68 48.448C1345.11 48.928 1344.76 49.584 1344.63 50.416H1350.99C1350.86 49.6 1350.51 48.952 1349.93 48.472C1349.36 47.976 1348.65 47.728 1347.82 47.728ZM1364.86 44.896C1366.46 44.896 1367.75 45.376 1368.72 46.336C1369.71 47.296 1370.21 48.72 1370.21 50.608V58H1366.47V51.184C1366.47 50.16 1366.24 49.4 1365.79 48.904C1365.35 48.392 1364.7 48.136 1363.85 48.136C1362.91 48.136 1362.15 48.432 1361.59 49.024C1361.03 49.6 1360.75 50.464 1360.75 51.616V58H1357.01V45.088H1360.59V46.6C1361.08 46.056 1361.7 45.64 1362.43 45.352C1363.17 45.048 1363.98 44.896 1364.86 44.896ZM1373.6 45.088H1377.35V58H1373.6V45.088ZM1375.48 43.288C1374.79 43.288 1374.23 43.088 1373.8 42.688C1373.36 42.288 1373.15 41.792 1373.15 41.2C1373.15 40.608 1373.36 40.112 1373.8 39.712C1374.23 39.312 1374.79 39.112 1375.48 39.112C1376.16 39.112 1376.72 39.304 1377.16 39.688C1377.59 40.072 1377.8 40.552 1377.8 41.128C1377.8 41.752 1377.59 42.272 1377.16 42.688C1376.72 43.088 1376.16 43.288 1375.48 43.288ZM1393.97 40.192V58H1390.4V56.512C1389.47 57.632 1388.13 58.192 1386.37 58.192C1385.15 58.192 1384.05 57.92 1383.05 57.376C1382.08 56.832 1381.31 56.056 1380.75 55.048C1380.19 54.04 1379.91 52.872 1379.91 51.544C1379.91 50.216 1380.19 49.048 1380.75 48.04C1381.31 47.032 1382.08 46.256 1383.05 45.712C1384.05 45.168 1385.15 44.896 1386.37 44.896C1388.01 44.896 1389.3 45.416 1390.23 46.456V40.192H1393.97ZM1387.01 55.12C1387.96 55.12 1388.74 54.8 1389.37 54.16C1389.99 53.504 1390.3 52.632 1390.3 51.544C1390.3 50.456 1389.99 49.592 1389.37 48.952C1388.74 48.296 1387.96 47.968 1387.01 47.968C1386.05 47.968 1385.26 48.296 1384.64 48.952C1384.01 49.592 1383.7 50.456 1383.7 51.544C1383.7 52.632 1384.01 53.504 1384.64 54.16C1385.26 54.8 1386.05 55.12 1387.01 55.12ZM1403.58 58.192C1402.22 58.192 1401 57.912 1399.91 57.352C1398.84 56.776 1398 55.984 1397.39 54.976C1396.78 53.968 1396.48 52.824 1396.48 51.544C1396.48 50.264 1396.78 49.12 1397.39 48.112C1398 47.104 1398.84 46.32 1399.91 45.76C1401 45.184 1402.22 44.896 1403.58 44.896C1404.94 44.896 1406.16 45.184 1407.23 45.76C1408.3 46.32 1409.14 47.104 1409.75 48.112C1410.36 49.12 1410.66 50.264 1410.66 51.544C1410.66 52.824 1410.36 53.968 1409.75 54.976C1409.14 55.984 1408.3 56.776 1407.23 57.352C1406.16 57.912 1404.94 58.192 1403.58 58.192ZM1403.58 55.12C1404.54 55.12 1405.33 54.8 1405.93 54.16C1406.56 53.504 1406.87 52.632 1406.87 51.544C1406.87 50.456 1406.56 49.592 1405.93 48.952C1405.33 48.296 1404.54 47.968 1403.58 47.968C1402.62 47.968 1401.83 48.296 1401.21 48.952C1400.58 49.592 1400.27 50.456 1400.27 51.544C1400.27 52.632 1400.58 53.504 1401.21 54.16C1401.83 54.8 1402.62 55.12 1403.58 55.12ZM1426.49 45.088V55.84C1426.49 58.208 1425.87 59.968 1424.64 61.12C1423.41 62.272 1421.61 62.848 1419.24 62.848C1417.99 62.848 1416.81 62.696 1415.69 62.392C1414.57 62.088 1413.64 61.648 1412.9 61.072L1414.39 58.384C1414.93 58.832 1415.62 59.184 1416.45 59.44C1417.29 59.712 1418.12 59.848 1418.95 59.848C1420.25 59.848 1421.2 59.552 1421.81 58.96C1422.43 58.384 1422.74 57.504 1422.74 56.32V55.768C1421.77 56.84 1420.41 57.376 1418.66 57.376C1417.48 57.376 1416.39 57.12 1415.4 56.608C1414.42 56.08 1413.65 55.344 1413.07 54.4C1412.49 53.456 1412.21 52.368 1412.21 51.136C1412.21 49.904 1412.49 48.816 1413.07 47.872C1413.65 46.928 1414.42 46.2 1415.4 45.688C1416.39 45.16 1417.48 44.896 1418.66 44.896C1420.53 44.896 1421.96 45.512 1422.93 46.744V45.088H1426.49ZM1419.41 54.304C1420.4 54.304 1421.21 54.016 1421.83 53.44C1422.47 52.848 1422.79 52.08 1422.79 51.136C1422.79 50.192 1422.47 49.432 1421.83 48.856C1421.21 48.264 1420.4 47.968 1419.41 47.968C1418.41 47.968 1417.6 48.264 1416.96 48.856C1416.32 49.432 1416 50.192 1416 51.136C1416 52.08 1416.32 52.848 1416.96 53.44C1417.6 54.016 1418.41 54.304 1419.41 54.304ZM1419.62 43.624C1418.36 43.624 1417.32 43.296 1416.5 42.64C1415.69 41.984 1415.25 41.096 1415.21 39.976H1417.56C1417.57 40.488 1417.77 40.904 1418.16 41.224C1418.56 41.528 1419.05 41.68 1419.62 41.68C1420.2 41.68 1420.68 41.528 1421.06 41.224C1421.46 40.904 1421.67 40.488 1421.69 39.976H1424.04C1423.99 41.096 1423.56 41.984 1422.74 42.64C1421.93 43.296 1420.89 43.624 1419.62 43.624ZM1435.18 44.896C1437.18 44.896 1438.71 45.376 1439.79 46.336C1440.86 47.28 1441.39 48.712 1441.39 50.632V58H1437.89V56.392C1437.19 57.592 1435.87 58.192 1433.95 58.192C1432.96 58.192 1432.1 58.024 1431.36 57.688C1430.64 57.352 1430.09 56.888 1429.71 56.296C1429.32 55.704 1429.13 55.032 1429.13 54.28C1429.13 53.08 1429.58 52.136 1430.47 51.448C1431.39 50.76 1432.79 50.416 1434.67 50.416H1437.65C1437.65 49.6 1437.4 48.976 1436.91 48.544C1436.41 48.096 1435.67 47.872 1434.67 47.872C1433.99 47.872 1433.31 47.984 1432.63 48.208C1431.98 48.416 1431.42 48.704 1430.95 49.072L1429.61 46.456C1430.31 45.96 1431.15 45.576 1432.13 45.304C1433.12 45.032 1434.14 44.896 1435.18 44.896ZM1434.89 55.672C1435.53 55.672 1436.1 55.528 1436.59 55.24C1437.09 54.936 1437.44 54.496 1437.65 53.92V52.6H1435.08C1433.55 52.6 1432.78 53.104 1432.78 54.112C1432.78 54.592 1432.96 54.976 1433.33 55.264C1433.71 55.536 1434.23 55.672 1434.89 55.672ZM1452.63 44.896C1454.23 44.896 1455.52 45.376 1456.49 46.336C1457.49 47.296 1457.98 48.72 1457.98 50.608V58H1454.24V51.184C1454.24 50.16 1454.01 49.4 1453.57 48.904C1453.12 48.392 1452.47 48.136 1451.62 48.136C1450.68 48.136 1449.93 48.432 1449.37 49.024C1448.81 49.6 1448.53 50.464 1448.53 51.616V58H1444.78V45.088H1448.36V46.6C1448.85 46.056 1449.47 45.64 1450.21 45.352C1450.94 45.048 1451.75 44.896 1452.63 44.896Z" fill="black"/>
<path d="M1496.82 49.264C1497.78 49.568 1498.53 50.08 1499.07 50.8C1499.62 51.504 1499.89 52.376 1499.89 53.416C1499.89 54.888 1499.31 56.024 1498.16 56.824C1497.02 57.608 1495.36 58 1493.17 58H1484.48V41.2H1492.69C1494.74 41.2 1496.3 41.592 1497.39 42.376C1498.5 43.16 1499.05 44.224 1499.05 45.568C1499.05 46.384 1498.85 47.112 1498.45 47.752C1498.06 48.392 1497.52 48.896 1496.82 49.264ZM1488.34 44.128V48.088H1492.21C1493.17 48.088 1493.9 47.92 1494.39 47.584C1494.89 47.248 1495.14 46.752 1495.14 46.096C1495.14 45.44 1494.89 44.952 1494.39 44.632C1493.9 44.296 1493.17 44.128 1492.21 44.128H1488.34ZM1492.88 55.072C1493.9 55.072 1494.67 54.904 1495.18 54.568C1495.71 54.232 1495.98 53.712 1495.98 53.008C1495.98 51.616 1494.94 50.92 1492.88 50.92H1488.34V55.072H1492.88ZM1515.22 51.592C1515.22 51.64 1515.19 51.976 1515.14 52.6H1505.38C1505.55 53.4 1505.97 54.032 1506.62 54.496C1507.28 54.96 1508.1 55.192 1509.07 55.192C1509.74 55.192 1510.34 55.096 1510.85 54.904C1511.38 54.696 1511.86 54.376 1512.31 53.944L1514.3 56.104C1513.09 57.496 1511.31 58.192 1508.98 58.192C1507.52 58.192 1506.23 57.912 1505.11 57.352C1503.99 56.776 1503.13 55.984 1502.52 54.976C1501.91 53.968 1501.61 52.824 1501.61 51.544C1501.61 50.28 1501.9 49.144 1502.5 48.136C1503.1 47.112 1503.93 46.32 1504.97 45.76C1506.02 45.184 1507.2 44.896 1508.5 44.896C1509.76 44.896 1510.9 45.168 1511.93 45.712C1512.95 46.256 1513.75 47.04 1514.33 48.064C1514.92 49.072 1515.22 50.248 1515.22 51.592ZM1508.52 47.728C1507.67 47.728 1506.96 47.968 1506.38 48.448C1505.81 48.928 1505.46 49.584 1505.33 50.416H1511.69C1511.56 49.6 1511.21 48.952 1510.63 48.472C1510.06 47.976 1509.35 47.728 1508.52 47.728ZM1528.22 55.12V58H1516.7V55.744L1523.28 47.968H1516.87V45.088H1528.01V47.344L1521.43 55.12H1528.22ZM1530.62 45.088H1534.37V58H1530.62V45.088ZM1532.49 43.288C1531.81 43.288 1531.25 43.088 1530.81 42.688C1530.38 42.288 1530.17 41.792 1530.17 41.2C1530.17 40.608 1530.38 40.112 1530.81 39.712C1531.25 39.312 1531.81 39.112 1532.49 39.112C1533.18 39.112 1533.74 39.304 1534.17 39.688C1534.61 40.072 1534.82 40.552 1534.82 41.128C1534.82 41.752 1534.61 42.272 1534.17 42.688C1533.74 43.088 1533.18 43.288 1532.49 43.288ZM1541.42 46.792C1541.87 46.168 1542.47 45.696 1543.22 45.376C1543.99 45.056 1544.87 44.896 1545.86 44.896V48.352C1545.44 48.32 1545.16 48.304 1545.02 48.304C1543.95 48.304 1543.11 48.608 1542.5 49.216C1541.89 49.808 1541.59 50.704 1541.59 51.904V58H1537.84V45.088H1541.42V46.792ZM1561.29 45.088V55.84C1561.29 58.208 1560.67 59.968 1559.44 61.12C1558.21 62.272 1556.41 62.848 1554.04 62.848C1552.79 62.848 1551.61 62.696 1550.49 62.392C1549.37 62.088 1548.44 61.648 1547.7 61.072L1549.19 58.384C1549.73 58.832 1550.42 59.184 1551.25 59.44C1552.09 59.712 1552.92 59.848 1553.75 59.848C1555.05 59.848 1556 59.552 1556.61 58.96C1557.23 58.384 1557.54 57.504 1557.54 56.32V55.768C1556.57 56.84 1555.21 57.376 1553.46 57.376C1552.28 57.376 1551.19 57.12 1550.2 56.608C1549.22 56.08 1548.45 55.344 1547.87 54.4C1547.29 53.456 1547.01 52.368 1547.01 51.136C1547.01 49.904 1547.29 48.816 1547.87 47.872C1548.45 46.928 1549.22 46.2 1550.2 45.688C1551.19 45.16 1552.28 44.896 1553.46 44.896C1555.33 44.896 1556.76 45.512 1557.73 46.744V45.088H1561.29ZM1554.21 54.304C1555.2 54.304 1556.01 54.016 1556.63 53.44C1557.27 52.848 1557.59 52.08 1557.59 51.136C1557.59 50.192 1557.27 49.432 1556.63 48.856C1556.01 48.264 1555.2 47.968 1554.21 47.968C1553.21 47.968 1552.4 48.264 1551.76 48.856C1551.12 49.432 1550.8 50.192 1550.8 51.136C1550.8 52.08 1551.12 52.848 1551.76 53.44C1552.4 54.016 1553.21 54.304 1554.21 54.304ZM1569.98 44.896C1571.98 44.896 1573.51 45.376 1574.59 46.336C1575.66 47.28 1576.19 48.712 1576.19 50.632V58H1572.69V56.392C1571.99 57.592 1570.67 58.192 1568.75 58.192C1567.76 58.192 1566.9 58.024 1566.16 57.688C1565.44 57.352 1564.89 56.888 1564.51 56.296C1564.12 55.704 1563.93 55.032 1563.93 54.28C1563.93 53.08 1564.38 52.136 1565.27 51.448C1566.19 50.76 1567.59 50.416 1569.47 50.416H1572.45C1572.45 49.6 1572.2 48.976 1571.71 48.544C1571.21 48.096 1570.47 47.872 1569.47 47.872C1568.79 47.872 1568.11 47.984 1567.43 48.208C1566.78 48.416 1566.22 48.704 1565.75 49.072L1564.41 46.456C1565.11 45.96 1565.95 45.576 1566.93 45.304C1567.92 45.032 1568.94 44.896 1569.98 44.896ZM1569.69 55.672C1570.33 55.672 1570.9 55.528 1571.39 55.24C1571.89 54.936 1572.24 54.496 1572.45 53.92V52.6H1569.88C1568.35 52.6 1567.58 53.104 1567.58 54.112C1567.58 54.592 1567.76 54.976 1568.13 55.264C1568.51 55.536 1569.03 55.672 1569.69 55.672ZM1587.43 44.896C1589.03 44.896 1590.32 45.376 1591.3 46.336C1592.29 47.296 1592.78 48.72 1592.78 50.608V58H1589.04V51.184C1589.04 50.16 1588.82 49.4 1588.37 48.904C1587.92 48.392 1587.27 48.136 1586.42 48.136C1585.48 48.136 1584.73 48.432 1584.17 49.024C1583.61 49.6 1583.33 50.464 1583.33 51.616V58H1579.58V45.088H1583.16V46.6C1583.66 46.056 1584.27 45.64 1585.01 45.352C1585.74 45.048 1586.55 44.896 1587.43 44.896ZM1603.81 44.896C1605.01 44.896 1606.1 45.176 1607.07 45.736C1608.07 46.28 1608.84 47.056 1609.4 48.064C1609.96 49.056 1610.24 50.216 1610.24 51.544C1610.24 52.872 1609.96 54.04 1609.4 55.048C1608.84 56.04 1608.07 56.816 1607.07 57.376C1606.1 57.92 1605.01 58.192 1603.81 58.192C1602.03 58.192 1600.68 57.632 1599.75 56.512V58H1596.18V40.192H1599.92V46.456C1600.87 45.416 1602.16 44.896 1603.81 44.896ZM1603.16 55.12C1604.12 55.12 1604.91 54.8 1605.51 54.16C1606.14 53.504 1606.45 52.632 1606.45 51.544C1606.45 50.456 1606.14 49.592 1605.51 48.952C1604.91 48.296 1604.12 47.968 1603.16 47.968C1602.2 47.968 1601.41 48.296 1600.79 48.952C1600.18 49.592 1599.87 50.456 1599.87 51.544C1599.87 52.632 1600.18 53.504 1600.79 54.16C1601.41 54.8 1602.2 55.12 1603.16 55.12ZM1617.74 44.896C1619.74 44.896 1621.28 45.376 1622.35 46.336C1623.42 47.28 1623.96 48.712 1623.96 50.632V58H1620.46V56.392C1619.75 57.592 1618.44 58.192 1616.52 58.192C1615.53 58.192 1614.66 58.024 1613.93 57.688C1613.21 57.352 1612.66 56.888 1612.27 56.296C1611.89 55.704 1611.7 55.032 1611.7 54.28C1611.7 53.08 1612.14 52.136 1613.04 51.448C1613.95 50.76 1615.35 50.416 1617.24 50.416H1620.22C1620.22 49.6 1619.97 48.976 1619.47 48.544C1618.98 48.096 1618.23 47.872 1617.24 47.872C1616.55 47.872 1615.87 47.984 1615.2 48.208C1614.54 48.416 1613.98 48.704 1613.52 49.072L1612.18 46.456C1612.88 45.96 1613.72 45.576 1614.7 45.304C1615.69 45.032 1616.7 44.896 1617.74 44.896ZM1617.46 55.672C1618.1 55.672 1618.66 55.528 1619.16 55.24C1619.66 54.936 1620.01 54.496 1620.22 53.92V52.6H1617.65C1616.11 52.6 1615.34 53.104 1615.34 54.112C1615.34 54.592 1615.53 54.976 1615.9 55.264C1616.28 55.536 1616.8 55.672 1617.46 55.672ZM1635.2 44.896C1636.8 44.896 1638.09 45.376 1639.06 46.336C1640.05 47.296 1640.55 48.72 1640.55 50.608V58H1636.81V51.184C1636.81 50.16 1636.58 49.4 1636.13 48.904C1635.69 48.392 1635.04 48.136 1634.19 48.136C1633.25 48.136 1632.49 48.432 1631.93 49.024C1631.37 49.6 1631.09 50.464 1631.09 51.616V58H1627.35V40.192H1631.09V46.432C1631.59 45.936 1632.19 45.56 1632.89 45.304C1633.6 45.032 1634.37 44.896 1635.2 44.896ZM1650.32 58.192C1648.95 58.192 1647.71 57.912 1646.6 57.352C1645.52 56.776 1644.66 55.984 1644.04 54.976C1643.43 53.968 1643.12 52.824 1643.12 51.544C1643.12 50.264 1643.43 49.12 1644.04 48.112C1644.66 47.104 1645.52 46.32 1646.6 45.76C1647.71 45.184 1648.95 44.896 1650.32 44.896C1651.68 44.896 1652.87 45.184 1653.88 45.76C1654.9 46.32 1655.64 47.128 1656.11 48.184L1653.2 49.744C1652.53 48.56 1651.56 47.968 1650.3 47.968C1649.32 47.968 1648.52 48.288 1647.88 48.928C1647.24 49.568 1646.92 50.44 1646.92 51.544C1646.92 52.648 1647.24 53.52 1647.88 54.16C1648.52 54.8 1649.32 55.12 1650.3 55.12C1651.58 55.12 1652.55 54.528 1653.2 53.344L1656.11 54.928C1655.64 55.952 1654.9 56.752 1653.88 57.328C1652.87 57.904 1651.68 58.192 1650.32 58.192ZM1648.96 63.568C1648.54 63.568 1648.13 63.52 1647.73 63.424C1647.33 63.344 1647 63.224 1646.72 63.064L1647.3 61.456C1647.81 61.696 1648.33 61.816 1648.86 61.816C1649.69 61.816 1650.11 61.56 1650.11 61.048C1650.11 60.584 1649.72 60.352 1648.93 60.352H1648.12L1648.74 57.808H1650.73L1650.4 59.2C1651.1 59.28 1651.62 59.496 1651.96 59.848C1652.31 60.216 1652.48 60.664 1652.48 61.192C1652.48 61.928 1652.16 62.504 1651.52 62.92C1650.88 63.352 1650.03 63.568 1648.96 63.568ZM1670.75 51.592C1670.75 51.64 1670.72 51.976 1670.68 52.6H1660.91C1661.08 53.4 1661.5 54.032 1662.16 54.496C1662.81 54.96 1663.63 55.192 1664.6 55.192C1665.28 55.192 1665.87 55.096 1666.38 54.904C1666.91 54.696 1667.4 54.376 1667.84 53.944L1669.84 56.104C1668.62 57.496 1666.84 58.192 1664.51 58.192C1663.05 58.192 1661.76 57.912 1660.64 57.352C1659.52 56.776 1658.66 55.984 1658.05 54.976C1657.44 53.968 1657.14 52.824 1657.14 51.544C1657.14 50.28 1657.44 49.144 1658.03 48.136C1658.64 47.112 1659.46 46.32 1660.5 45.76C1661.56 45.184 1662.73 44.896 1664.03 44.896C1665.29 44.896 1666.44 45.168 1667.46 45.712C1668.48 46.256 1669.28 47.04 1669.86 48.064C1670.45 49.072 1670.75 50.248 1670.75 51.592ZM1664.05 47.728C1663.2 47.728 1662.49 47.968 1661.92 48.448C1661.34 48.928 1660.99 49.584 1660.86 50.416H1667.22C1667.09 49.6 1666.74 48.952 1666.16 48.472C1665.59 47.976 1664.88 47.728 1664.05 47.728Z" fill="black"/>
<path d="M1733.76 41.2V58H1729.88V51.112H1722.24V58H1718.36V41.2H1722.24V47.824H1729.88V41.2H1733.76ZM1742.68 44.896C1744.68 44.896 1746.22 45.376 1747.29 46.336C1748.36 47.28 1748.9 48.712 1748.9 50.632V58H1745.39V56.392C1744.69 57.592 1743.38 58.192 1741.46 58.192C1740.47 58.192 1739.6 58.024 1738.87 57.688C1738.15 57.352 1737.59 56.888 1737.21 56.296C1736.83 55.704 1736.63 55.032 1736.63 54.28C1736.63 53.08 1737.08 52.136 1737.98 51.448C1738.89 50.76 1740.29 50.416 1742.18 50.416H1745.15C1745.15 49.6 1744.91 48.976 1744.41 48.544C1743.91 48.096 1743.17 47.872 1742.18 47.872C1741.49 47.872 1740.81 47.984 1740.14 48.208C1739.48 48.416 1738.92 48.704 1738.46 49.072L1737.11 46.456C1737.82 45.96 1738.66 45.576 1739.63 45.304C1740.63 45.032 1741.64 44.896 1742.68 44.896ZM1742.39 55.672C1743.03 55.672 1743.6 55.528 1744.1 55.24C1744.59 54.936 1744.95 54.496 1745.15 53.92V52.6H1742.59C1741.05 52.6 1740.28 53.104 1740.28 54.112C1740.28 54.592 1740.47 54.976 1740.83 55.264C1741.22 55.536 1741.74 55.672 1742.39 55.672ZM1752.29 40.192H1756.03V58H1752.29V40.192ZM1765.05 52.936L1763.25 54.712V58H1759.51V40.192H1763.25V50.272L1768.72 45.088H1773.19L1767.81 50.56L1773.67 58H1769.13L1765.05 52.936ZM1780.32 44.896C1782.32 44.896 1783.86 45.376 1784.93 46.336C1786 47.28 1786.54 48.712 1786.54 50.632V58H1783.03V56.392C1782.33 57.592 1781.02 58.192 1779.1 58.192C1778.11 58.192 1777.24 58.024 1776.51 57.688C1775.79 57.352 1775.23 56.888 1774.85 56.296C1774.47 55.704 1774.27 55.032 1774.27 54.28C1774.27 53.08 1774.72 52.136 1775.62 51.448C1776.53 50.76 1777.93 50.416 1779.82 50.416H1782.79C1782.79 49.6 1782.55 48.976 1782.05 48.544C1781.55 48.096 1780.81 47.872 1779.82 47.872C1779.13 47.872 1778.45 47.984 1777.78 48.208C1777.12 48.416 1776.56 48.704 1776.1 49.072L1774.75 46.456C1775.46 45.96 1776.3 45.576 1777.27 45.304C1778.27 45.032 1779.28 44.896 1780.32 44.896ZM1780.03 55.672C1780.67 55.672 1781.24 55.528 1781.74 55.24C1782.23 54.936 1782.59 54.496 1782.79 53.92V52.6H1780.23C1778.69 52.6 1777.92 53.104 1777.92 54.112C1777.92 54.592 1778.11 54.976 1778.47 55.264C1778.86 55.536 1779.38 55.672 1780.03 55.672ZM1789.93 40.192H1793.67V58H1789.93V40.192ZM1797.15 45.088H1800.89V58H1797.15V45.088Z" fill="black"/>
<rect x="655" y="123" width="6" height="21" fill="black"/>
<circle cx="1759" cy="100" r="24" fill="black"/>
<ellipse cx="1759" cy="99.9939" rx="19.2" ry="19.2" fill="white"/>
<rect x="1756" y="123" width="6" height="20" fill="black"/>
<g clip-path="url(#clip0_495_4849)">
<path d="M640 160.997C640 157.438 641.056 153.958 643.034 150.999C645.011 148.039 647.823 145.732 651.112 144.37C654.401 143.008 658.02 142.651 661.512 143.346C665.003 144.04 668.211 145.754 670.728 148.271C673.245 150.788 674.96 153.995 675.654 157.486C676.349 160.977 675.992 164.596 674.63 167.884C673.267 171.173 670.96 173.984 668 175.961C665.04 177.939 661.56 178.994 658 178.994C653.226 178.994 648.648 177.098 645.272 173.723C641.896 170.348 640 165.77 640 160.997Z" fill="#FFD300"/>
<path d="M646.484 155.465H650.234L653.014 164.32H653.047L655.828 155.465H659.577V167.149H657.331V157.508H657.301L654.15 167.149H651.909L648.763 157.508L648.727 157.542V167.149H646.484V155.465Z" fill="#1D1D1B"/>
<path d="M662.55 165.04C663.19 165.34 663.886 165.499 664.593 165.508C666.618 165.508 667.304 163.633 667.362 161.894L667.329 161.858C667.093 162.239 666.758 162.549 666.361 162.756C665.963 162.962 665.517 163.058 665.07 163.032C662.854 163.032 661.652 161.626 661.652 159.466C661.652 156.938 662.893 155.266 665.529 155.266C668.775 155.266 669.498 157.96 669.498 160.704C669.498 163.869 668.476 167.349 664.693 167.349C663.854 167.353 663.021 167.212 662.231 166.931L662.55 165.04ZM667.169 159.081C667.169 157.974 666.703 157.007 665.546 157.007C664.458 157.007 664.006 158.062 664.006 159.098C664.006 160.236 664.474 161.291 665.596 161.291C666.717 161.291 667.169 160.252 667.169 159.076" fill="#1D1D1B"/>
</g>
<g clip-path="url(#clip1_495_4849)">
<path d="M1762 161C1762 157.44 1763.06 153.96 1765.03 151C1767.01 148.04 1769.82 145.733 1773.11 144.37C1776.4 143.008 1780.02 142.651 1783.51 143.346C1787 144.04 1790.21 145.755 1792.73 148.272C1795.25 150.789 1796.96 153.997 1797.65 157.488C1798.35 160.98 1797.99 164.599 1796.63 167.888C1795.27 171.177 1792.96 173.989 1790 175.966C1787.04 177.944 1783.56 179 1780 179C1777.67 179.029 1775.35 178.599 1773.18 177.732C1771.01 176.866 1769.04 175.581 1767.36 173.951C1765.69 172.321 1764.36 170.377 1763.44 168.231C1762.52 166.086 1762.03 163.78 1762 161.445V161Z" fill="#65656A"/>
<path d="M1770.37 167.674V154.305H1775.04C1777.77 154.305 1779.35 155.478 1779.35 157.723C1779.36 158.466 1779.09 159.184 1778.6 159.738C1778.1 160.292 1777.42 160.641 1776.68 160.717C1777.49 160.727 1778.26 161.051 1778.84 161.621C1779.41 162.191 1779.74 162.962 1779.76 163.771C1779.76 166.4 1777.87 167.634 1774.98 167.634L1770.37 167.674ZM1774.13 159.705C1775.89 159.705 1776.7 159.139 1776.7 158.087C1776.7 157.036 1776.16 156.409 1774.27 156.409H1773.04V159.705H1774.13ZM1774.36 165.571C1776.09 165.571 1777.09 164.964 1777.09 163.71C1777.09 162.456 1776.2 161.687 1774.42 161.687H1773.04V165.55L1774.36 165.571Z" fill="white"/>
<path d="M1785.64 167.674V157.36L1783.37 159.18L1782.04 157.42L1785.94 154.285H1788.29V167.674H1785.64Z" fill="white"/>
</g>
<g clip-path="url(#clip2_495_4849)">
<path d="M1678 161C1678 157.44 1679.06 153.96 1681.03 151C1683.01 148.04 1685.82 145.733 1689.11 144.37C1692.4 143.008 1696.02 142.651 1699.51 143.346C1703 144.04 1706.21 145.755 1708.73 148.272C1711.25 150.789 1712.96 153.997 1713.65 157.488C1714.35 160.98 1713.99 164.599 1712.63 167.888C1711.27 171.177 1708.96 173.989 1706 175.966C1703.04 177.944 1699.56 179 1696 179C1691.23 178.989 1686.66 177.089 1683.28 173.716C1679.91 170.343 1678.01 165.771 1678 161Z" fill="#AB548F"/>
<path d="M1680.43 154.933H1684.47L1687.3 164.034L1690.13 154.933H1693.98V167.067H1691.75V157.157L1688.52 167.067H1686.09L1682.85 157.157V167.067H1680.43V154.933Z" fill="white"/>
<path d="M1699.44 154.933H1701.66V167.067H1699.24V157.764L1697.21 159.382L1696 157.764L1699.44 154.933Z" fill="white"/>
<path d="M1708.13 154.933H1710.36V167.067H1707.93V157.764L1705.91 159.382L1704.7 157.764L1708.13 154.933Z" fill="white"/>
</g>
<g clip-path="url(#clip3_495_4849)">
<path d="M1804 161C1804 151.049 1812.05 143 1822 143C1831.95 143 1840 151.049 1840 161C1840 170.951 1831.95 179 1822 179C1812.19 179.121 1804.12 171.274 1804 161.445V161Z" fill="#76777A"/>
<path d="M1812.09 167.674V154.306H1816.76C1819.47 154.306 1821.07 155.479 1821.07 157.724C1821.09 159.261 1819.94 160.555 1818.4 160.717C1820.08 160.737 1821.43 162.092 1821.47 163.771C1821.47 166.4 1819.59 167.634 1816.7 167.634L1812.09 167.674ZM1815.81 159.706C1817.57 159.706 1818.38 159.139 1818.38 158.088C1818.38 157.036 1817.85 156.409 1815.99 156.409H1814.76V159.706H1815.81ZM1816.13 165.571C1817.87 165.571 1818.87 164.964 1818.87 163.71C1818.87 162.456 1817.98 161.688 1816.2 161.688H1814.76V165.551L1816.13 165.571Z" fill="white"/>
<path d="M1823.03 167.674V165.449L1824.63 163.953C1827.2 161.546 1828.82 159.443 1828.82 157.986C1828.82 156.834 1827.82 156.186 1826.63 156.186C1825.52 156.227 1824.45 156.611 1823.54 157.258L1823.33 155.135C1824.59 154.508 1825.98 154.184 1827.38 154.184C1829.4 153.942 1831.24 155.377 1831.49 157.38C1831.51 157.582 1831.53 157.784 1831.51 157.986C1831.51 159.847 1830.43 161.87 1826.45 165.571H1831.91V167.593L1823.03 167.674Z" fill="white"/>
</g>
<g clip-path="url(#clip4_495_4849)">
<path d="M1720 161C1720 157.44 1721.06 153.96 1723.03 151C1725.01 148.04 1727.82 145.733 1731.11 144.37C1734.4 143.008 1738.02 142.651 1741.51 143.346C1745 144.04 1748.21 145.755 1750.73 148.272C1753.25 150.789 1754.96 153.997 1755.65 157.488C1756.35 160.98 1755.99 164.599 1754.63 167.888C1753.27 171.177 1750.96 173.989 1748 175.966C1745.04 177.944 1741.56 179 1738 179C1733.23 178.995 1728.65 177.097 1725.28 173.722C1721.9 170.348 1720.01 165.772 1720 161Z" fill="#9D9D9C"/>
<path d="M1722.41 155.6H1726.15L1728.96 164.458H1729L1731.75 155.58H1735.51L1735.53 167.29H1733.29L1733.27 157.623H1733.25L1730.11 167.29H1727.87L1724.69 157.643L1724.65 157.683L1724.67 167.31H1722.43L1722.41 155.6Z" fill="white"/>
<path d="M1736.95 165.106C1737.77 165.435 1738.65 165.613 1739.54 165.631C1740.51 165.631 1742.01 165.146 1742.01 163.973C1742.01 162.8 1740.91 162.133 1739.42 162.133H1738.2V160.292H1739.27C1740.85 160.292 1741.86 159.766 1741.86 158.755C1741.86 157.744 1740.99 157.157 1739.92 157.157C1739.01 157.166 1738.11 157.38 1737.29 157.784L1737.15 155.903C1738.2 155.503 1739.31 155.297 1740.43 155.297C1741.86 155.297 1744.29 155.802 1744.29 158.29C1744.32 158.95 1744.12 159.601 1743.73 160.131C1743.33 160.662 1742.77 161.04 1742.13 161.202C1742.77 161.307 1743.35 161.651 1743.74 162.165C1744.14 162.68 1744.33 163.326 1744.27 163.973C1744.27 166.764 1741.74 167.472 1739.8 167.472C1738.76 167.483 1737.73 167.353 1736.73 167.088L1736.95 165.106Z" fill="white"/>
<path d="M1744.8 162.942L1749.17 155.539H1752.08V163.063H1753.57V164.802H1752.08V167.27H1749.85V164.843H1744.82L1744.8 162.942ZM1749.85 163.083V157.986L1746.92 163.083H1749.85Z" fill="white"/>
</g>
<g clip-path="url(#clip5_495_4849)">
<path d="M99.9998 124.033C95.2418 124.043 90.588 122.642 86.6274 120.009C82.6668 117.375 79.5774 113.627 77.7502 109.24C75.9229 104.852 75.4401 100.022 76.3626 95.3599C77.2852 90.6981 79.5717 86.4143 82.9329 83.0509C86.294 79.6874 90.5786 77.3954 95.2445 76.4649C99.9104 75.5344 104.748 76.0073 109.144 77.8237C113.541 79.6401 117.3 82.7183 119.944 86.6689C122.588 90.6194 124 95.2646 124 100.017C124 106.378 121.473 112.48 116.973 116.983C112.474 121.485 106.369 124.021 99.9998 124.033Z" fill="#E1251B"/>
<path d="M80.3359 92.7783H84.9716L88.405 103.726H88.4517L91.8851 92.7783H96.5207V107.222H93.7487V95.3001H93.7086L89.8144 107.222H87.0423L83.1481 95.3001L83.108 95.3401V107.222H80.3359V92.7783Z" fill="white"/>
<path d="M104.069 92.7783H106.634V107.222H103.742V96.0673L101.297 98.0553L99.8477 96.1673L104.069 92.7783Z" fill="white"/>
<path d="M110.84 97.5884H114.213C115.455 97.5884 117.312 97.9486 117.312 100.063C117.316 100.594 117.124 101.107 116.773 101.504C116.422 101.902 115.936 102.156 115.409 102.218C115.991 102.225 116.547 102.458 116.96 102.868C117.373 103.278 117.609 103.832 117.62 104.413C117.62 106.841 115.435 107.195 114.226 107.195H110.84V97.5884ZM112.777 101.484H113.558C114.373 101.484 115.382 101.304 115.382 100.31C115.382 99.1895 114.407 99.1094 113.518 99.1094H112.777V101.484ZM112.777 105.707H113.685C114.58 105.707 115.689 105.487 115.689 104.373C115.689 103.119 114.667 102.925 113.685 102.925H112.777V105.707Z" fill="white"/>
</g>
<defs>
<clipPath id="clip0_495_4849">
<rect width="36" height="36" fill="white" transform="translate(640 143)"/>
</clipPath>
<clipPath id="clip1_495_4849">
<rect width="36" height="36" fill="white" transform="translate(1762 143)"/>
</clipPath>
<clipPath id="clip2_495_4849">
<rect width="36" height="36" fill="white" transform="translate(1678 143)"/>
</clipPath>
<clipPath id="clip3_495_4849">
<rect width="36" height="36" fill="white" transform="translate(1804 143)"/>
</clipPath>
<clipPath id="clip4_495_4849">
<rect width="36" height="36" fill="white" transform="translate(1720 143)"/>
</clipPath>
<clipPath id="clip5_495_4849">
<rect width="48" height="48" fill="white" transform="translate(76 76)"/>
</clipPath>
</defs>
</svg>
