<svg id="Layer_1" data-name="Layer 1" xmlns="http://www.w3.org/2000/svg" viewBox="0 0 71.86 71.95"><defs><style>.cls-1{fill:#e1251b;}.cls-2{fill:#fff;}</style></defs><path class="cls-1" d="M35.93,72A36,36,0,1,1,71.86,36,36,36,0,0,1,35.93,72"/><polygon class="cls-2" points="5.02 25.14 11.96 25.14 17.11 41.56 17.17 41.56 22.31 25.14 29.26 25.14 29.26 46.8 25.1 46.8 25.1 28.93 25.04 28.93 19.22 46.8 15.06 46.8 9.24 28.93 9.17 28.99 9.17 46.8 5.02 46.8 5.02 25.14"/><polygon class="cls-2" points="40.55 25.14 44.4 25.14 44.4 46.8 40.06 46.8 40.06 30.08 36.4 33.06 34.23 30.23 40.55 25.14"/><path class="cls-2" d="M54.83,32.36h3.26L63.76,46.8H60.55l-1.24-3.31H53.47L52.21,46.8h-3Zm1.59,2.9h0l-2.09,6h4.22Z"/></svg>