<?xml version="1.0" encoding="utf-8"?>
<!-- Generator: Adobe Illustrator 24.2.1, SVG Export Plug-In . SVG Version: 6.00 Build 0)  -->
<svg version="1.1" id="Layer_1" xmlns="http://www.w3.org/2000/svg" xmlns:xlink="http://www.w3.org/1999/xlink" x="0px" y="0px"
	 viewBox="0 0 17.8 17.8" style="enable-background:new 0 0 17.8 17.8;" xml:space="preserve">
<style type="text/css">
	.st0{fill:#EE2229;}
	.st1{fill:#FFFFFF;}
</style>
<g id="Layer_2_1_">
	<g id="Layer_1-2">
		<path class="st0" d="M8.9,17.8C4,17.8,0,13.8,0,8.9S4,0,8.9,0s8.9,4,8.9,8.9C17.8,13.8,13.8,17.8,8.9,17.8z"/>
		<g>
			<polygon class="st1" points="3.3,5.8 5.3,5.8 6.8,10.5 6.8,10.5 8.2,5.8 10.3,5.8 10.3,12 9,12 9,6.9 9,6.9 7.3,12 6.2,12 
				4.5,6.9 4.5,6.9 4.5,12 3.3,12 			"/>
			<polygon class="st1" points="13.4,5.8 14.5,5.8 14.5,12 13.3,12 13.3,7.3 12.3,8.1 11.6,7.3 			"/>
		</g>
	</g>
</g>
</svg>
