<svg width="6300" height="395" viewBox="0 0 6300 395" fill="none" xmlns="http://www.w3.org/2000/svg">
<g clip-path="url(#clip0_543_2)">
<path d="M3547 267V188H3623.5V239H3923V267H3547Z" fill="#D9D9D9" stroke="#D9D9D9"/>
<rect x="4700" y="305" width="120" height="30" fill="#D9D9D9"/>
<path d="M4716.02 326V311.684H4718.91V318.041L4724.75 311.684H4728.64L4723.25 317.26L4728.93 326H4725.19L4721.26 319.281L4718.91 321.674V326H4716.02ZM4732.35 326V311.684H4735.24V326H4732.35ZM4732.46 310.863V308.266H4735.15V310.863H4732.46ZM4740.01 326V311.684H4746.1C4747.63 311.684 4748.74 311.814 4749.43 312.074C4750.12 312.328 4750.68 312.784 4751.1 313.441C4751.51 314.099 4751.72 314.851 4751.72 315.697C4751.72 316.771 4751.4 317.66 4750.77 318.363C4750.14 319.06 4749.2 319.499 4747.94 319.682C4748.57 320.046 4749.08 320.447 4749.48 320.883C4749.89 321.319 4750.44 322.094 4751.13 323.207L4752.88 326H4749.43L4747.34 322.885C4746.59 321.771 4746.09 321.072 4745.81 320.785C4745.54 320.492 4745.25 320.294 4744.94 320.189C4744.64 320.079 4744.15 320.023 4743.49 320.023H4742.9V326H4740.01ZM4742.9 317.738H4745.04C4746.43 317.738 4747.29 317.68 4747.64 317.562C4747.98 317.445 4748.25 317.243 4748.45 316.957C4748.64 316.671 4748.74 316.312 4748.74 315.883C4748.74 315.401 4748.61 315.014 4748.35 314.721C4748.1 314.421 4747.74 314.232 4747.27 314.154C4747.03 314.122 4746.33 314.105 4745.16 314.105H4742.9V317.738ZM4769.37 326H4766.22L4764.97 322.748H4759.25L4758.07 326H4755L4760.58 311.684H4763.63L4769.37 326ZM4764.04 320.336L4762.07 315.023L4760.14 320.336H4764.04ZM4771.67 326V323.393L4779.19 314.105H4772.52V311.684H4783V313.93L4775.15 323.588H4783.3V326H4771.67ZM4787.21 326V311.801H4790.1V323.588H4797.29V326H4787.21ZM4801.27 326V311.684H4804.16V326H4801.27Z" fill="#949494"/>
<rect x="4400" y="305" width="120" height="30" fill="#D9D9D9"/>
<path d="M4401.65 311.684H4407.38C4408.51 311.684 4409.35 311.732 4409.9 311.83C4410.46 311.921 4410.96 312.117 4411.4 312.416C4411.84 312.715 4412.21 313.116 4412.5 313.617C4412.79 314.112 4412.94 314.669 4412.94 315.287C4412.94 315.958 4412.76 316.573 4412.39 317.133C4412.04 317.693 4411.55 318.113 4410.93 318.393C4411.8 318.646 4412.47 319.079 4412.94 319.691C4413.41 320.303 4413.64 321.023 4413.64 321.85C4413.64 322.501 4413.49 323.135 4413.19 323.754C4412.89 324.366 4412.47 324.857 4411.95 325.229C4411.42 325.593 4410.78 325.818 4410.01 325.902C4409.53 325.954 4408.37 325.987 4406.53 326H4401.65V311.684ZM4404.54 314.066V317.377H4406.44C4407.56 317.377 4408.26 317.361 4408.54 317.328C4409.03 317.27 4409.42 317.1 4409.7 316.82C4409.99 316.534 4410.13 316.16 4410.13 315.697C4410.13 315.255 4410.01 314.896 4409.76 314.623C4409.52 314.343 4409.16 314.174 4408.67 314.115C4408.39 314.083 4407.56 314.066 4406.2 314.066H4404.54ZM4404.54 319.76V323.588H4407.22C4408.26 323.588 4408.92 323.559 4409.2 323.5C4409.63 323.422 4409.98 323.233 4410.25 322.934C4410.52 322.628 4410.66 322.221 4410.66 321.713C4410.66 321.283 4410.55 320.919 4410.34 320.619C4410.14 320.32 4409.83 320.102 4409.44 319.965C4409.04 319.828 4408.19 319.76 4406.88 319.76H4404.54ZM4431.01 326H4427.86L4426.61 322.748H4420.89L4419.71 326H4416.64L4422.22 311.684H4425.27L4431.01 326ZM4425.68 320.336L4423.71 315.023L4421.78 320.336H4425.68ZM4441.21 320.736V318.324H4447.44V324.027C4446.83 324.613 4445.96 325.131 4444.8 325.58C4443.66 326.023 4442.49 326.244 4441.32 326.244C4439.82 326.244 4438.51 325.932 4437.4 325.307C4436.29 324.675 4435.45 323.777 4434.89 322.611C4434.33 321.439 4434.05 320.167 4434.05 318.793C4434.05 317.302 4434.36 315.977 4434.99 314.818C4435.61 313.66 4436.53 312.771 4437.73 312.152C4438.65 311.677 4439.79 311.439 4441.16 311.439C4442.94 311.439 4444.32 311.814 4445.32 312.562C4446.32 313.305 4446.97 314.333 4447.25 315.648L4444.38 316.186C4444.18 315.482 4443.8 314.929 4443.24 314.525C4442.69 314.115 4441.99 313.91 4441.16 313.91C4439.9 313.91 4438.89 314.311 4438.14 315.111C4437.4 315.912 4437.03 317.1 4437.03 318.676C4437.03 320.375 4437.41 321.651 4438.16 322.504C4438.92 323.35 4439.91 323.773 4441.13 323.773C4441.74 323.773 4442.34 323.656 4442.95 323.422C4443.56 323.181 4444.08 322.891 4444.52 322.553V320.736H4441.21ZM4443.04 308.07H4444.38C4444.3 308.956 4443.99 309.652 4443.45 310.16C4442.9 310.661 4442.2 310.912 4441.34 310.912C4440.47 310.912 4439.76 310.661 4439.22 310.16C4438.68 309.652 4438.37 308.956 4438.29 308.07H4439.63C4439.67 308.533 4439.84 308.884 4440.12 309.125C4440.4 309.359 4440.8 309.477 4441.34 309.477C4441.87 309.477 4442.28 309.359 4442.56 309.125C4442.84 308.884 4443 308.533 4443.04 308.07ZM4461.28 320.736L4464.08 321.625C4463.65 323.188 4462.93 324.35 4461.93 325.111C4460.93 325.867 4459.67 326.244 4458.13 326.244C4456.23 326.244 4454.67 325.596 4453.44 324.301C4452.22 322.999 4451.61 321.221 4451.61 318.969C4451.61 316.586 4452.22 314.737 4453.45 313.422C4454.68 312.1 4456.3 311.439 4458.31 311.439C4460.06 311.439 4461.48 311.957 4462.57 312.992C4463.23 313.604 4463.71 314.483 4464.04 315.629L4461.18 316.312C4461.01 315.57 4460.65 314.984 4460.11 314.555C4459.58 314.125 4458.93 313.91 4458.16 313.91C4457.1 313.91 4456.24 314.291 4455.57 315.053C4454.91 315.814 4454.59 317.048 4454.59 318.754C4454.59 320.564 4454.91 321.853 4455.56 322.621C4456.21 323.389 4457.06 323.773 4458.1 323.773C4458.87 323.773 4459.53 323.529 4460.08 323.041C4460.64 322.553 4461.03 321.785 4461.28 320.736ZM4468.48 326V311.684H4471.37V326H4468.48ZM4476.21 326V311.801H4479.1V323.588H4486.29V326H4476.21ZM4503.27 326H4500.13L4498.88 322.748H4493.15L4491.97 326H4488.91L4494.48 311.684H4497.54L4503.27 326ZM4497.95 320.336L4495.98 315.023L4494.04 320.336H4497.95ZM4506.82 326V311.684H4512.91C4514.44 311.684 4515.55 311.814 4516.24 312.074C4516.93 312.328 4517.49 312.784 4517.91 313.441C4518.32 314.099 4518.53 314.851 4518.53 315.697C4518.53 316.771 4518.22 317.66 4517.59 318.363C4516.95 319.06 4516.01 319.499 4514.75 319.682C4515.38 320.046 4515.89 320.447 4516.3 320.883C4516.71 321.319 4517.26 322.094 4517.95 323.207L4519.7 326H4516.24L4514.15 322.885C4513.41 321.771 4512.9 321.072 4512.62 320.785C4512.35 320.492 4512.06 320.294 4511.76 320.189C4511.45 320.079 4510.96 320.023 4510.3 320.023H4509.71V326H4506.82ZM4509.71 317.738H4511.85C4513.24 317.738 4514.11 317.68 4514.45 317.562C4514.8 317.445 4515.07 317.243 4515.26 316.957C4515.46 316.671 4515.55 316.312 4515.55 315.883C4515.55 315.401 4515.42 315.014 4515.16 314.721C4514.91 314.421 4514.55 314.232 4514.08 314.154C4513.85 314.122 4513.14 314.105 4511.97 314.105H4509.71V317.738Z" fill="#949494"/>
<rect x="4200" y="305" width="120" height="30" fill="#D9D9D9"/>
<path d="M4207.63 311.684H4210.52V319.438C4210.52 320.668 4210.56 321.465 4210.63 321.83C4210.75 322.416 4211.05 322.888 4211.51 323.246C4211.98 323.598 4212.62 323.773 4213.42 323.773C4214.24 323.773 4214.86 323.607 4215.28 323.275C4215.7 322.937 4215.95 322.523 4216.03 322.035C4216.12 321.547 4216.16 320.736 4216.16 319.604V311.684H4219.05V319.203C4219.05 320.922 4218.97 322.136 4218.81 322.846C4218.66 323.555 4218.37 324.154 4217.95 324.643C4217.53 325.131 4216.97 325.521 4216.27 325.814C4215.56 326.101 4214.64 326.244 4213.51 326.244C4212.14 326.244 4211.11 326.088 4210.4 325.775C4209.69 325.456 4209.14 325.046 4208.73 324.545C4208.32 324.037 4208.05 323.507 4207.92 322.953C4207.73 322.133 4207.63 320.922 4207.63 319.32V311.684ZM4210.09 310.863V308.51H4212.45V310.863H4210.09ZM4214.29 310.863V308.51H4216.66V310.863H4214.29ZM4233.27 320.736L4236.07 321.625C4235.64 323.188 4234.92 324.35 4233.92 325.111C4232.92 325.867 4231.66 326.244 4230.12 326.244C4228.22 326.244 4226.66 325.596 4225.43 324.301C4224.21 322.999 4223.6 321.221 4223.6 318.969C4223.6 316.586 4224.21 314.737 4225.44 313.422C4226.67 312.1 4228.29 311.439 4230.3 311.439C4232.05 311.439 4233.47 311.957 4234.56 312.992C4235.22 313.604 4235.7 314.483 4236.03 315.629L4233.17 316.312C4233 315.57 4232.64 314.984 4232.1 314.555C4231.57 314.125 4230.92 313.91 4230.15 313.91C4229.09 313.91 4228.23 314.291 4227.56 315.053C4226.9 315.814 4226.58 317.048 4226.58 318.754C4226.58 320.564 4226.9 321.853 4227.55 322.621C4228.2 323.389 4229.05 323.773 4230.09 323.773C4230.86 323.773 4231.52 323.529 4232.07 323.041C4232.63 322.553 4233.02 321.785 4233.27 320.736ZM4227.19 329.936V328.783C4227.86 328.855 4228.48 328.891 4229.04 328.891C4229.62 328.891 4230.05 328.786 4230.33 328.578C4230.54 328.422 4230.65 328.22 4230.65 327.973C4230.65 327.751 4230.55 327.559 4230.35 327.396C4230.14 327.234 4229.83 327.152 4229.41 327.152C4228.99 327.152 4228.57 327.217 4228.13 327.348L4228.38 326.381C4228.89 326.205 4229.44 326.117 4230.02 326.117C4230.84 326.117 4231.46 326.296 4231.88 326.654C4232.3 327.012 4232.51 327.449 4232.51 327.963C4232.51 328.536 4232.28 329.001 4231.81 329.359C4231.18 329.848 4230.27 330.092 4229.1 330.092C4228.26 330.092 4227.62 330.04 4227.19 329.936ZM4244.32 326V319.975L4239.07 311.684H4242.46L4245.83 317.348L4249.13 311.684H4252.46L4247.2 319.994V326H4244.32ZM4255.88 311.684H4258.77V319.438C4258.77 320.668 4258.81 321.465 4258.88 321.83C4259 322.416 4259.29 322.888 4259.76 323.246C4260.22 323.598 4260.86 323.773 4261.67 323.773C4262.49 323.773 4263.11 323.607 4263.53 323.275C4263.94 322.937 4264.19 322.523 4264.28 322.035C4264.36 321.547 4264.4 320.736 4264.4 319.604V311.684H4267.29V319.203C4267.29 320.922 4267.22 322.136 4267.06 322.846C4266.9 323.555 4266.61 324.154 4266.19 324.643C4265.77 325.131 4265.21 325.521 4264.51 325.814C4263.81 326.101 4262.89 326.244 4261.76 326.244C4260.39 326.244 4259.35 326.088 4258.64 325.775C4257.94 325.456 4257.38 325.046 4256.97 324.545C4256.56 324.037 4256.29 323.507 4256.16 322.953C4255.97 322.133 4255.88 320.922 4255.88 319.32V311.684ZM4258.34 310.863V308.51H4260.69V310.863H4258.34ZM4262.54 310.863V308.51H4264.9V310.863H4262.54ZM4271.11 326V323.393L4278.63 314.105H4271.96V311.684H4282.44V313.93L4274.6 323.588H4282.74V326H4271.11ZM4286.66 326V311.801H4289.55V323.588H4296.73V326H4286.66ZM4300.79 311.684H4303.68V319.438C4303.68 320.668 4303.71 321.465 4303.78 321.83C4303.91 322.416 4304.2 322.888 4304.66 323.246C4305.13 323.598 4305.77 323.773 4306.58 323.773C4307.4 323.773 4308.01 323.607 4308.43 323.275C4308.85 322.937 4309.1 322.523 4309.18 322.035C4309.27 321.547 4309.31 320.736 4309.31 319.604V311.684H4312.2V319.203C4312.2 320.922 4312.12 322.136 4311.97 322.846C4311.81 323.555 4311.52 324.154 4311.1 324.643C4310.68 325.131 4310.12 325.521 4309.42 325.814C4308.71 326.101 4307.8 326.244 4306.66 326.244C4305.3 326.244 4304.26 326.088 4303.55 325.775C4302.85 325.456 4302.29 325.046 4301.88 324.545C4301.47 324.037 4301.2 323.507 4301.07 322.953C4300.88 322.133 4300.79 320.922 4300.79 319.32V311.684ZM4303.25 310.863V308.51H4305.6V310.863H4303.25ZM4307.45 310.863V308.51H4309.81V310.863H4307.45Z" fill="#949494"/>
<rect x="4000" y="305" width="120" height="30" fill="#D9D9D9"/>
<path d="M4005.4 326V311.684H4009.72L4012.32 321.449L4014.89 311.684H4019.22V326H4016.54V314.73L4013.7 326H4010.91L4008.08 314.73V326H4005.4ZM4024.1 326V311.684H4034.71V314.105H4026.99V317.279H4034.17V319.691H4026.99V323.588H4034.98V326H4024.1ZM4039.46 326V311.684H4042.28L4048.14 321.244V311.684H4050.82V326H4047.92L4042.15 316.664V326H4039.46ZM4055.88 311.684H4061.16C4062.35 311.684 4063.26 311.775 4063.89 311.957C4064.73 312.204 4065.45 312.644 4066.04 313.275C4066.64 313.907 4067.1 314.682 4067.41 315.6C4067.72 316.511 4067.88 317.637 4067.88 318.979C4067.88 320.157 4067.73 321.173 4067.44 322.025C4067.08 323.067 4066.57 323.91 4065.91 324.555C4065.41 325.043 4064.73 325.424 4063.88 325.697C4063.24 325.899 4062.39 326 4061.32 326H4055.88V311.684ZM4058.77 314.105V323.588H4060.93C4061.74 323.588 4062.32 323.542 4062.68 323.451C4063.14 323.334 4063.53 323.135 4063.84 322.855C4064.15 322.576 4064.4 322.117 4064.6 321.479C4064.79 320.834 4064.89 319.958 4064.89 318.852C4064.89 317.745 4064.79 316.895 4064.6 316.303C4064.4 315.71 4064.13 315.248 4063.78 314.916C4063.43 314.584 4062.98 314.359 4062.44 314.242C4062.04 314.151 4061.25 314.105 4060.07 314.105H4058.77ZM4072.35 326V311.684H4078.44C4079.97 311.684 4081.08 311.814 4081.77 312.074C4082.46 312.328 4083.02 312.784 4083.44 313.441C4083.85 314.099 4084.06 314.851 4084.06 315.697C4084.06 316.771 4083.74 317.66 4083.11 318.363C4082.48 319.06 4081.54 319.499 4080.28 319.682C4080.91 320.046 4081.42 320.447 4081.82 320.883C4082.23 321.319 4082.78 322.094 4083.47 323.207L4085.22 326H4081.77L4079.68 322.885C4078.93 321.771 4078.43 321.072 4078.15 320.785C4077.88 320.492 4077.59 320.294 4077.28 320.189C4076.98 320.079 4076.49 320.023 4075.83 320.023H4075.24V326H4072.35ZM4075.24 317.738H4077.38C4078.77 317.738 4079.63 317.68 4079.98 317.562C4080.32 317.445 4080.59 317.243 4080.79 316.957C4080.98 316.671 4081.08 316.312 4081.08 315.883C4081.08 315.401 4080.95 315.014 4080.69 314.721C4080.44 314.421 4080.08 314.232 4079.61 314.154C4079.37 314.122 4078.67 314.105 4077.5 314.105H4075.24V317.738ZM4088.79 326V311.684H4099.41V314.105H4091.69V317.279H4098.87V319.691H4091.69V323.588H4099.68V326H4088.79ZM4103.4 321.342L4106.21 321.068C4106.38 322.012 4106.73 322.706 4107.24 323.148C4107.76 323.591 4108.46 323.812 4109.34 323.812C4110.27 323.812 4110.97 323.617 4111.44 323.227C4111.91 322.829 4112.15 322.367 4112.15 321.84C4112.15 321.501 4112.05 321.215 4111.85 320.98C4111.65 320.74 4111.31 320.531 4110.81 320.355C4110.48 320.238 4109.7 320.03 4108.5 319.73C4106.95 319.346 4105.86 318.874 4105.24 318.314C4104.36 317.527 4103.92 316.566 4103.92 315.434C4103.92 314.704 4104.12 314.024 4104.54 313.393C4104.95 312.755 4105.55 312.27 4106.32 311.938C4107.1 311.605 4108.04 311.439 4109.14 311.439C4110.94 311.439 4112.29 311.833 4113.2 312.621C4114.11 313.409 4114.59 314.46 4114.63 315.775L4111.74 315.902C4111.62 315.167 4111.35 314.639 4110.94 314.32C4110.54 313.995 4109.93 313.832 4109.12 313.832C4108.28 313.832 4107.62 314.005 4107.14 314.35C4106.84 314.571 4106.68 314.867 4106.68 315.238C4106.68 315.577 4106.83 315.867 4107.11 316.107C4107.48 316.413 4108.36 316.732 4109.77 317.064C4111.18 317.396 4112.21 317.742 4112.88 318.1C4113.56 318.451 4114.09 318.936 4114.47 319.555C4114.85 320.167 4115.04 320.925 4115.04 321.83C4115.04 322.65 4114.82 323.419 4114.36 324.135C4113.9 324.851 4113.26 325.385 4112.43 325.736C4111.59 326.081 4110.55 326.254 4109.31 326.254C4107.5 326.254 4106.11 325.837 4105.14 325.004C4104.17 324.164 4103.59 322.943 4103.4 321.342Z" fill="#949494"/>
<rect x="3500" y="375" width="120" height="30" fill="#D9D9D9"/>
<rect x="3500" y="305" width="120" height="30" fill="#D9D9D9"/>
<path d="M3508.21 326V311.684H3518.82V314.105H3511.1V317.279H3518.29V319.691H3511.1V323.588H3519.1V326H3508.21ZM3522.82 321.342L3525.63 321.068C3525.8 322.012 3526.14 322.706 3526.65 323.148C3527.18 323.591 3527.88 323.812 3528.75 323.812C3529.68 323.812 3530.38 323.617 3530.85 323.227C3531.33 322.829 3531.57 322.367 3531.57 321.84C3531.57 321.501 3531.47 321.215 3531.26 320.98C3531.07 320.74 3530.72 320.531 3530.23 320.355C3529.89 320.238 3529.12 320.03 3527.91 319.73C3526.36 319.346 3525.28 318.874 3524.65 318.314C3523.77 317.527 3523.33 316.566 3523.33 315.434C3523.33 314.704 3523.54 314.024 3523.95 313.393C3524.37 312.755 3524.96 312.27 3525.74 311.938C3526.52 311.605 3527.46 311.439 3528.56 311.439C3530.36 311.439 3531.71 311.833 3532.61 312.621C3533.52 313.409 3534 314.46 3534.05 315.775L3531.16 315.902C3531.03 315.167 3530.77 314.639 3530.36 314.32C3529.95 313.995 3529.34 313.832 3528.53 313.832C3527.69 313.832 3527.03 314.005 3526.56 314.35C3526.25 314.571 3526.1 314.867 3526.1 315.238C3526.1 315.577 3526.24 315.867 3526.53 316.107C3526.89 316.413 3527.78 316.732 3529.18 317.064C3530.59 317.396 3531.63 317.742 3532.3 318.1C3532.98 318.451 3533.5 318.936 3533.88 319.555C3534.26 320.167 3534.46 320.925 3534.46 321.83C3534.46 322.65 3534.23 323.419 3533.77 324.135C3533.32 324.851 3532.67 325.385 3531.84 325.736C3531.01 326.081 3529.97 326.254 3528.72 326.254C3526.91 326.254 3525.52 325.837 3524.55 325.004C3523.58 324.164 3523.01 322.943 3522.82 321.342ZM3538.89 326V311.684H3549.5V314.105H3541.78V317.279H3548.97V319.691H3541.78V323.588H3549.78V326H3538.89ZM3554.26 326V311.684H3557.07L3562.93 321.244V311.684H3565.62V326H3562.71L3556.94 316.664V326H3554.26ZM3570.76 326V311.801H3573.65V323.588H3580.84V326H3570.76ZM3584.91 326V311.684H3595.52V314.105H3587.8V317.279H3594.99V319.691H3587.8V323.588H3595.8V326H3584.91ZM3600.26 326V311.684H3606.34C3607.87 311.684 3608.98 311.814 3609.67 312.074C3610.37 312.328 3610.93 312.784 3611.34 313.441C3611.76 314.099 3611.97 314.851 3611.97 315.697C3611.97 316.771 3611.65 317.66 3611.02 318.363C3610.39 319.06 3609.44 319.499 3608.19 319.682C3608.81 320.046 3609.33 320.447 3609.73 320.883C3610.14 321.319 3610.69 322.094 3611.38 323.207L3613.13 326H3609.67L3607.58 322.885C3606.84 321.771 3606.33 321.072 3606.06 320.785C3605.79 320.492 3605.5 320.294 3605.19 320.189C3604.88 320.079 3604.4 320.023 3603.73 320.023H3603.15V326H3600.26ZM3603.15 317.738H3605.29C3606.67 317.738 3607.54 317.68 3607.88 317.562C3608.23 317.445 3608.5 317.243 3608.7 316.957C3608.89 316.671 3608.99 316.312 3608.99 315.883C3608.99 315.401 3608.86 315.014 3608.6 314.721C3608.34 314.421 3607.98 314.232 3607.51 314.154C3607.28 314.122 3606.58 314.105 3605.4 314.105H3603.15V317.738Z" fill="#949494"/>
<rect x="6100" y="100" width="120" height="30" fill="#D9D9D9"/>
<path d="M6151.8 121H6148.65L6147.4 117.748H6141.68L6140.5 121H6137.43L6143.01 106.684H6146.07L6151.8 121ZM6146.48 115.336L6144.5 110.023L6142.57 115.336H6146.48ZM6155.35 121V106.684H6158.24V112.318H6163.91V106.684H6166.8V121H6163.91V114.74H6158.24V121H6155.35ZM6171.87 121V106.801H6174.76V118.588H6181.95V121H6171.87Z" fill="#949494"/>
<rect x="5700" y="100" width="120" height="30" fill="#D9D9D9"/>
<path d="M5737.78 106.684H5743.06C5744.25 106.684 5745.16 106.775 5745.78 106.957C5746.62 107.204 5747.34 107.644 5747.94 108.275C5748.54 108.907 5749 109.682 5749.31 110.6C5749.62 111.511 5749.78 112.637 5749.78 113.979C5749.78 115.157 5749.63 116.173 5749.34 117.025C5748.98 118.067 5748.47 118.91 5747.8 119.555C5747.3 120.043 5746.63 120.424 5745.77 120.697C5745.14 120.899 5744.28 121 5743.21 121H5737.78V106.684ZM5740.67 109.105V118.588H5742.82C5743.63 118.588 5744.21 118.542 5744.57 118.451C5745.04 118.334 5745.43 118.135 5745.73 117.855C5746.05 117.576 5746.3 117.117 5746.5 116.479C5746.69 115.834 5746.79 114.958 5746.79 113.852C5746.79 112.745 5746.69 111.895 5746.5 111.303C5746.3 110.71 5746.03 110.248 5745.68 109.916C5745.32 109.584 5744.88 109.359 5744.34 109.242C5743.93 109.151 5743.14 109.105 5741.96 109.105H5740.67ZM5757.46 121V109.105H5753.21V106.684H5764.59V109.105H5760.35V121H5757.46ZM5768.43 121V106.684H5772.75L5775.35 116.449L5777.92 106.684H5782.25V121H5779.57V109.73L5776.73 121H5773.94L5771.11 109.73V121H5768.43Z" fill="#949494"/>
<rect x="5500" y="100" width="120" height="30" fill="#D9D9D9"/>
<path d="M5506.52 121V114.975L5501.27 106.684H5504.66L5508.03 112.348L5511.33 106.684H5514.66L5509.4 114.994V121H5506.52ZM5518.1 121V106.684H5528.71V109.105H5520.99V112.279H5528.17V114.691H5520.99V118.588H5528.98V121H5518.1ZM5533.46 121V106.684H5536.28L5542.14 116.244V106.684H5544.82V121H5541.92L5536.15 111.664V121H5533.46ZM5549.8 121V106.684H5552.69V121H5549.8ZM5549.91 105.863V103.266H5552.6V105.863H5549.91ZM5557.46 106.684H5563.19C5564.32 106.684 5565.16 106.732 5565.72 106.83C5566.28 106.921 5566.77 107.117 5567.21 107.416C5567.65 107.715 5568.02 108.116 5568.31 108.617C5568.61 109.112 5568.75 109.669 5568.75 110.287C5568.75 110.958 5568.57 111.573 5568.21 112.133C5567.85 112.693 5567.36 113.113 5566.74 113.393C5567.61 113.646 5568.29 114.079 5568.75 114.691C5569.22 115.303 5569.46 116.023 5569.46 116.85C5569.46 117.501 5569.3 118.135 5569 118.754C5568.7 119.366 5568.29 119.857 5567.76 120.229C5567.24 120.593 5566.59 120.818 5565.82 120.902C5565.34 120.954 5564.18 120.987 5562.34 121H5557.46V106.684ZM5560.36 109.066V112.377H5562.25C5563.38 112.377 5564.08 112.361 5564.35 112.328C5564.84 112.27 5565.23 112.1 5565.51 111.82C5565.8 111.534 5565.94 111.16 5565.94 110.697C5565.94 110.255 5565.82 109.896 5565.57 109.623C5565.33 109.343 5564.97 109.174 5564.49 109.115C5564.2 109.083 5563.38 109.066 5562.02 109.066H5560.36ZM5560.36 114.76V118.588H5563.03C5564.07 118.588 5564.73 118.559 5565.01 118.5C5565.44 118.422 5565.79 118.233 5566.06 117.934C5566.33 117.628 5566.47 117.221 5566.47 116.713C5566.47 116.283 5566.36 115.919 5566.16 115.619C5565.95 115.32 5565.65 115.102 5565.25 114.965C5564.86 114.828 5564 114.76 5562.69 114.76H5560.36ZM5573.18 116.342L5575.99 116.068C5576.16 117.012 5576.5 117.706 5577.01 118.148C5577.53 118.591 5578.23 118.812 5579.11 118.812C5580.04 118.812 5580.74 118.617 5581.21 118.227C5581.69 117.829 5581.93 117.367 5581.93 116.84C5581.93 116.501 5581.82 116.215 5581.62 115.98C5581.43 115.74 5581.08 115.531 5580.59 115.355C5580.25 115.238 5579.48 115.03 5578.27 114.73C5576.72 114.346 5575.64 113.874 5575.01 113.314C5574.13 112.527 5573.69 111.566 5573.69 110.434C5573.69 109.704 5573.9 109.024 5574.31 108.393C5574.73 107.755 5575.32 107.27 5576.1 106.938C5576.88 106.605 5577.82 106.439 5578.92 106.439C5580.71 106.439 5582.07 106.833 5582.97 107.621C5583.88 108.409 5584.36 109.46 5584.41 110.775L5581.52 110.902C5581.39 110.167 5581.12 109.639 5580.71 109.32C5580.31 108.995 5579.7 108.832 5578.89 108.832C5578.05 108.832 5577.39 109.005 5576.92 109.35C5576.61 109.571 5576.46 109.867 5576.46 110.238C5576.46 110.577 5576.6 110.867 5576.89 111.107C5577.25 111.413 5578.14 111.732 5579.54 112.064C5580.95 112.396 5581.99 112.742 5582.66 113.1C5583.34 113.451 5583.86 113.936 5584.24 114.555C5584.62 115.167 5584.82 115.925 5584.82 116.83C5584.82 117.65 5584.59 118.419 5584.13 119.135C5583.68 119.851 5583.03 120.385 5582.2 120.736C5581.37 121.081 5580.33 121.254 5579.08 121.254C5577.27 121.254 5575.88 120.837 5574.91 120.004C5573.94 119.164 5573.36 117.943 5573.18 116.342ZM5589.28 121V106.684H5592.09L5597.95 116.244V106.684H5600.63V121H5597.73L5591.96 111.664V121H5589.28ZM5618.61 121H5615.47L5614.22 117.748H5608.49L5607.31 121H5604.25L5609.82 106.684H5612.88L5618.61 121ZM5613.29 115.336L5611.32 110.023L5609.38 115.336H5613.29Z" fill="#949494"/>
<rect x="5100" y="170" width="120" height="30" fill="#D9D9D9"/>
<rect x="5100" y="30" width="120" height="30" fill="#D9D9D9"/>
<path d="M5128.6 121H5125.46L5124.21 117.748H5118.49L5117.3 121H5114.24L5119.81 106.684H5122.87L5128.6 121ZM5123.28 115.336L5121.31 110.023L5119.38 115.336H5123.28ZM5133.88 121V109.105H5129.64V106.684H5141.01V109.105H5136.78V121H5133.88ZM5156.31 121H5153.17L5151.92 117.748H5146.2L5145.02 121H5141.95L5147.53 106.684H5150.58L5156.31 121ZM5150.99 115.336L5149.02 110.023L5147.09 115.336H5150.99ZM5159.9 121V106.684H5162.79V113.041L5168.63 106.684H5172.51L5167.12 112.26L5172.81 121H5169.07L5165.13 114.281L5162.79 116.674V121H5159.9ZM5175.72 113.93C5175.72 112.471 5175.94 111.247 5176.38 110.258C5176.7 109.529 5177.15 108.874 5177.71 108.295C5178.27 107.715 5178.89 107.286 5179.56 107.006C5180.45 106.628 5181.48 106.439 5182.65 106.439C5184.76 106.439 5186.44 107.094 5187.71 108.402C5188.98 109.711 5189.61 111.531 5189.61 113.861C5189.61 116.173 5188.98 117.982 5187.73 119.291C5186.47 120.593 5184.79 121.244 5182.69 121.244C5180.56 121.244 5178.87 120.596 5177.61 119.301C5176.35 117.999 5175.72 116.208 5175.72 113.93ZM5178.7 113.832C5178.7 115.453 5179.08 116.684 5179.83 117.523C5180.57 118.357 5181.53 118.773 5182.68 118.773C5183.83 118.773 5184.77 118.36 5185.51 117.533C5186.25 116.7 5186.62 115.453 5186.62 113.793C5186.62 112.152 5186.26 110.928 5185.54 110.121C5184.82 109.314 5183.87 108.91 5182.68 108.91C5181.49 108.91 5180.53 109.32 5179.8 110.141C5179.07 110.954 5178.7 112.185 5178.7 113.832ZM5179.22 105.863V103.51H5181.57V105.863H5179.22ZM5183.42 105.863V103.51H5185.78V105.863H5183.42ZM5197.64 121V114.975L5192.39 106.684H5195.78L5199.15 112.348L5202.45 106.684H5205.78L5200.52 114.994V121H5197.64Z" fill="#949494"/>
<rect x="4800" y="170" width="120" height="30" fill="#D9D9D9"/>
<rect x="4800" y="30" width="120" height="30" fill="#D9D9D9"/>
<path d="M4808.4 106.684H4814.13C4815.26 106.684 4816.1 106.732 4816.66 106.83C4817.22 106.921 4817.71 107.117 4818.15 107.416C4818.59 107.715 4818.96 108.116 4819.25 108.617C4819.55 109.112 4819.69 109.669 4819.69 110.287C4819.69 110.958 4819.51 111.573 4819.15 112.133C4818.79 112.693 4818.3 113.113 4817.68 113.393C4818.55 113.646 4819.22 114.079 4819.69 114.691C4820.16 115.303 4820.4 116.023 4820.4 116.85C4820.4 117.501 4820.24 118.135 4819.94 118.754C4819.64 119.366 4819.22 119.857 4818.7 120.229C4818.18 120.593 4817.53 120.818 4816.76 120.902C4816.28 120.954 4815.12 120.987 4813.28 121H4808.4V106.684ZM4811.29 109.066V112.377H4813.19C4814.32 112.377 4815.02 112.361 4815.29 112.328C4815.78 112.27 4816.17 112.1 4816.45 111.82C4816.74 111.534 4816.88 111.16 4816.88 110.697C4816.88 110.255 4816.76 109.896 4816.51 109.623C4816.27 109.343 4815.91 109.174 4815.43 109.115C4815.14 109.083 4814.32 109.066 4812.96 109.066H4811.29ZM4811.29 114.76V118.588H4813.97C4815.01 118.588 4815.67 118.559 4815.95 118.5C4816.38 118.422 4816.73 118.233 4817 117.934C4817.27 117.628 4817.41 117.221 4817.41 116.713C4817.41 116.283 4817.3 115.919 4817.1 115.619C4816.89 115.32 4816.58 115.102 4816.19 114.965C4815.8 114.828 4814.94 114.76 4813.63 114.76H4811.29ZM4824.86 121V106.684H4827.75V112.318H4833.41V106.684H4836.3V121H4833.41V114.74H4827.75V121H4824.86ZM4850.46 115.736L4853.26 116.625C4852.83 118.188 4852.12 119.35 4851.12 120.111C4850.12 120.867 4848.85 121.244 4847.32 121.244C4845.42 121.244 4843.85 120.596 4842.63 119.301C4841.4 117.999 4840.79 116.221 4840.79 113.969C4840.79 111.586 4841.41 109.737 4842.64 108.422C4843.87 107.1 4845.49 106.439 4847.49 106.439C4849.24 106.439 4850.67 106.957 4851.76 107.992C4852.41 108.604 4852.9 109.483 4853.22 110.629L4850.36 111.312C4850.19 110.57 4849.84 109.984 4849.3 109.555C4848.76 109.125 4848.11 108.91 4847.35 108.91C4846.28 108.91 4845.42 109.291 4844.76 110.053C4844.1 110.814 4843.77 112.048 4843.77 113.754C4843.77 115.564 4844.1 116.853 4844.75 117.621C4845.4 118.389 4846.25 118.773 4847.29 118.773C4848.06 118.773 4848.72 118.529 4849.27 118.041C4849.82 117.553 4850.22 116.785 4850.46 115.736ZM4844.39 124.936V123.783C4845.06 123.855 4845.67 123.891 4846.23 123.891C4846.81 123.891 4847.24 123.786 4847.52 123.578C4847.74 123.422 4847.84 123.22 4847.84 122.973C4847.84 122.751 4847.74 122.559 4847.54 122.396C4847.34 122.234 4847.03 122.152 4846.6 122.152C4846.19 122.152 4845.76 122.217 4845.32 122.348L4845.58 121.381C4846.09 121.205 4846.63 121.117 4847.22 121.117C4848.03 121.117 4848.65 121.296 4849.07 121.654C4849.5 122.012 4849.71 122.449 4849.71 122.963C4849.71 123.536 4849.47 124.001 4849.01 124.359C4848.37 124.848 4847.47 125.092 4846.29 125.092C4845.45 125.092 4844.82 125.04 4844.39 124.936ZM4857.83 121V106.801H4860.72V118.588H4867.91V121H4857.83ZM4874.15 121L4869.03 106.684H4872.17L4875.79 117.279L4879.29 106.684H4882.36L4877.23 121H4874.15ZM4885.91 121V106.801H4888.8V118.588H4895.99V121H4885.91ZM4900.07 121V106.684H4906.16C4907.69 106.684 4908.8 106.814 4909.49 107.074C4910.18 107.328 4910.74 107.784 4911.16 108.441C4911.57 109.099 4911.78 109.851 4911.78 110.697C4911.78 111.771 4911.47 112.66 4910.83 113.363C4910.2 114.06 4909.26 114.499 4908 114.682C4908.63 115.046 4909.14 115.447 4909.54 115.883C4909.96 116.319 4910.51 117.094 4911.2 118.207L4912.94 121H4909.49L4907.4 117.885C4906.65 116.771 4906.15 116.072 4905.87 115.785C4905.6 115.492 4905.31 115.294 4905 115.189C4904.7 115.079 4904.21 115.023 4903.55 115.023H4902.96V121H4900.07ZM4902.96 112.738H4905.1C4906.49 112.738 4907.35 112.68 4907.7 112.562C4908.04 112.445 4908.31 112.243 4908.51 111.957C4908.71 111.671 4908.8 111.312 4908.8 110.883C4908.8 110.401 4908.67 110.014 4908.41 109.721C4908.16 109.421 4907.8 109.232 4907.33 109.154C4907.09 109.122 4906.39 109.105 4905.22 109.105H4902.96V112.738Z" fill="#949494"/>
<rect x="4600" y="170" width="120" height="30" fill="#D9D9D9"/>
<rect x="4600" y="30" width="120" height="30" fill="#D9D9D9"/>
<path d="M4604.88 106.684H4610.6C4611.73 106.684 4612.58 106.732 4613.13 106.83C4613.69 106.921 4614.19 107.117 4614.62 107.416C4615.07 107.715 4615.44 108.116 4615.73 108.617C4616.02 109.112 4616.17 109.669 4616.17 110.287C4616.17 110.958 4615.99 111.573 4615.62 112.133C4615.26 112.693 4614.77 113.113 4614.16 113.393C4615.03 113.646 4615.7 114.079 4616.17 114.691C4616.64 115.303 4616.87 116.023 4616.87 116.85C4616.87 117.501 4616.72 118.135 4616.41 118.754C4616.11 119.366 4615.7 119.857 4615.17 120.229C4614.65 120.593 4614.01 120.818 4613.24 120.902C4612.76 120.954 4611.59 120.987 4609.75 121H4604.88V106.684ZM4607.77 109.066V112.377H4609.66C4610.79 112.377 4611.49 112.361 4611.76 112.328C4612.26 112.27 4612.65 112.1 4612.93 111.82C4613.21 111.534 4613.36 111.16 4613.36 110.697C4613.36 110.255 4613.23 109.896 4612.98 109.623C4612.74 109.343 4612.38 109.174 4611.9 109.115C4611.61 109.083 4610.79 109.066 4609.43 109.066H4607.77ZM4607.77 114.76V118.588H4610.45C4611.49 118.588 4612.15 118.559 4612.43 118.5C4612.86 118.422 4613.21 118.233 4613.47 117.934C4613.75 117.628 4613.88 117.221 4613.88 116.713C4613.88 116.283 4613.78 115.919 4613.57 115.619C4613.36 115.32 4613.06 115.102 4612.66 114.965C4612.27 114.828 4611.42 114.76 4610.1 114.76H4607.77ZM4634.23 121H4631.09L4629.84 117.748H4624.12L4622.93 121H4619.87L4625.44 106.684H4628.5L4634.23 121ZM4628.91 115.336L4626.94 110.023L4625 115.336H4628.91ZM4637.81 121V106.684H4640.71V113.041L4646.54 106.684H4650.43L4645.04 112.26L4650.72 121H4646.98L4643.05 114.281L4640.71 116.674V121H4637.81ZM4654.24 121V106.684H4660.32C4661.85 106.684 4662.96 106.814 4663.65 107.074C4664.35 107.328 4664.91 107.784 4665.32 108.441C4665.74 109.099 4665.95 109.851 4665.95 110.697C4665.95 111.771 4665.63 112.66 4665 113.363C4664.37 114.06 4663.42 114.499 4662.17 114.682C4662.79 115.046 4663.31 115.447 4663.71 115.883C4664.12 116.319 4664.67 117.094 4665.36 118.207L4667.11 121H4663.65L4661.56 117.885C4660.82 116.771 4660.31 116.072 4660.04 115.785C4659.77 115.492 4659.48 115.294 4659.17 115.189C4658.86 115.079 4658.38 115.023 4657.71 115.023H4657.13V121H4654.24ZM4657.13 112.738H4659.27C4660.65 112.738 4661.52 112.68 4661.87 112.562C4662.21 112.445 4662.48 112.243 4662.68 111.957C4662.87 111.671 4662.97 111.312 4662.97 110.883C4662.97 110.401 4662.84 110.014 4662.58 109.721C4662.32 109.421 4661.96 109.232 4661.49 109.154C4661.26 109.122 4660.56 109.105 4659.38 109.105H4657.13V112.738ZM4670.72 121V106.684H4673.61V113.041L4679.45 106.684H4683.34L4677.95 112.26L4683.63 121H4679.89L4675.96 114.281L4673.61 116.674V121H4670.72ZM4686.55 113.93C4686.55 112.471 4686.77 111.247 4687.2 110.258C4687.53 109.529 4687.97 108.874 4688.53 108.295C4689.1 107.715 4689.72 107.286 4690.39 107.006C4691.28 106.628 4692.31 106.439 4693.47 106.439C4695.58 106.439 4697.27 107.094 4698.53 108.402C4699.8 109.711 4700.44 111.531 4700.44 113.861C4700.44 116.173 4699.81 117.982 4698.55 119.291C4697.29 120.593 4695.61 121.244 4693.51 121.244C4691.38 121.244 4689.69 120.596 4688.43 119.301C4687.18 117.999 4686.55 116.208 4686.55 113.93ZM4689.53 113.832C4689.53 115.453 4689.9 116.684 4690.65 117.523C4691.4 118.357 4692.35 118.773 4693.5 118.773C4694.65 118.773 4695.6 118.36 4696.33 117.533C4697.08 116.7 4697.45 115.453 4697.45 113.793C4697.45 112.152 4697.09 110.928 4696.36 110.121C4695.65 109.314 4694.69 108.91 4693.5 108.91C4692.31 108.91 4691.35 109.32 4690.62 110.141C4689.89 110.954 4689.53 112.185 4689.53 113.832ZM4690.04 105.863V103.51H4692.4V105.863H4690.04ZM4694.24 105.863V103.51H4696.61V105.863H4694.24ZM4708.46 121V114.975L4703.22 106.684H4706.61L4709.97 112.348L4713.28 106.684H4716.61L4711.34 114.994V121H4708.46Z" fill="#949494"/>
<rect x="4300" y="170" width="120" height="30" fill="#D9D9D9"/>
<rect x="4300" y="30" width="120" height="30" fill="#D9D9D9"/>
<path d="M4306.41 121V118.393L4313.93 109.105H4307.26V106.684H4317.74V108.93L4309.9 118.588H4318.04V121H4306.41ZM4325.64 121V114.975L4320.39 106.684H4323.78L4327.15 112.348L4330.45 106.684H4333.78L4328.52 114.994V121H4325.64ZM4340.44 121V109.105H4336.19V106.684H4347.57V109.105H4343.33V121H4340.44ZM4351.47 121V106.684H4354.29L4360.15 116.244V106.684H4362.83V121H4359.93L4354.16 111.664V121H4351.47ZM4367.91 106.684H4373.63C4374.76 106.684 4375.61 106.732 4376.16 106.83C4376.72 106.921 4377.22 107.117 4377.65 107.416C4378.1 107.715 4378.46 108.116 4378.76 108.617C4379.05 109.112 4379.2 109.669 4379.2 110.287C4379.2 110.958 4379.01 111.573 4378.65 112.133C4378.29 112.693 4377.8 113.113 4377.19 113.393C4378.06 113.646 4378.73 114.079 4379.2 114.691C4379.67 115.303 4379.9 116.023 4379.9 116.85C4379.9 117.501 4379.75 118.135 4379.44 118.754C4379.14 119.366 4378.73 119.857 4378.2 120.229C4377.68 120.593 4377.04 120.818 4376.27 120.902C4375.79 120.954 4374.62 120.987 4372.78 121H4367.91V106.684ZM4370.8 109.066V112.377H4372.69C4373.82 112.377 4374.52 112.361 4374.79 112.328C4375.29 112.27 4375.68 112.1 4375.96 111.82C4376.24 111.534 4376.38 111.16 4376.38 110.697C4376.38 110.255 4376.26 109.896 4376.01 109.623C4375.77 109.343 4375.41 109.174 4374.93 109.115C4374.64 109.083 4373.82 109.066 4372.46 109.066H4370.8ZM4370.8 114.76V118.588H4373.47C4374.52 118.588 4375.18 118.559 4375.46 118.5C4375.89 118.422 4376.24 118.233 4376.5 117.934C4376.78 117.628 4376.91 117.221 4376.91 116.713C4376.91 116.283 4376.81 115.919 4376.6 115.619C4376.39 115.32 4376.09 115.102 4375.69 114.965C4375.3 114.828 4374.45 114.76 4373.13 114.76H4370.8ZM4384.36 121V106.684H4390.45C4391.98 106.684 4393.09 106.814 4393.78 107.074C4394.47 107.328 4395.03 107.784 4395.45 108.441C4395.86 109.099 4396.07 109.851 4396.07 110.697C4396.07 111.771 4395.75 112.66 4395.12 113.363C4394.49 114.06 4393.55 114.499 4392.29 114.682C4392.92 115.046 4393.43 115.447 4393.83 115.883C4394.24 116.319 4394.79 117.094 4395.48 118.207L4397.23 121H4393.78L4391.69 117.885C4390.94 116.771 4390.44 116.072 4390.16 115.785C4389.89 115.492 4389.6 115.294 4389.29 115.189C4388.99 115.079 4388.5 115.023 4387.84 115.023H4387.25V121H4384.36ZM4387.25 112.738H4389.39C4390.78 112.738 4391.64 112.68 4391.99 112.562C4392.33 112.445 4392.6 112.243 4392.8 111.957C4392.99 111.671 4393.09 111.312 4393.09 110.883C4393.09 110.401 4392.96 110.014 4392.7 109.721C4392.45 109.421 4392.09 109.232 4391.62 109.154C4391.38 109.122 4390.68 109.105 4389.51 109.105H4387.25V112.738ZM4400.83 121V106.684H4403.65L4409.51 116.244V106.684H4412.19V121H4409.29L4403.52 111.664V121H4400.83Z" fill="#949494"/>
<rect x="4100" y="170" width="120" height="30" fill="#D9D9D9"/>
<rect x="4100" y="30" width="120" height="30" fill="#D9D9D9"/>
<path d="M4114.18 121V106.684H4118.51L4121.1 116.449L4123.67 106.684H4128.01V121H4125.32V109.73L4122.48 121H4119.7L4116.87 109.73V121H4114.18ZM4132.88 121V106.684H4143.49V109.105H4135.77V112.279H4142.96V114.691H4135.77V118.588H4143.77V121H4132.88ZM4148.23 121V106.684H4154.31C4155.84 106.684 4156.95 106.814 4157.64 107.074C4158.34 107.328 4158.9 107.784 4159.31 108.441C4159.73 109.099 4159.94 109.851 4159.94 110.697C4159.94 111.771 4159.62 112.66 4158.99 113.363C4158.36 114.06 4157.41 114.499 4156.16 114.682C4156.78 115.046 4157.3 115.447 4157.7 115.883C4158.11 116.319 4158.66 117.094 4159.35 118.207L4161.1 121H4157.64L4155.55 117.885C4154.81 116.771 4154.3 116.072 4154.03 115.785C4153.76 115.492 4153.47 115.294 4153.16 115.189C4152.85 115.079 4152.37 115.023 4151.71 115.023H4151.12V121H4148.23ZM4151.12 112.738H4153.26C4154.64 112.738 4155.51 112.68 4155.86 112.562C4156.2 112.445 4156.47 112.243 4156.67 111.957C4156.86 111.671 4156.96 111.312 4156.96 110.883C4156.96 110.401 4156.83 110.014 4156.57 109.721C4156.31 109.421 4155.95 109.232 4155.48 109.154C4155.25 109.122 4154.55 109.105 4153.38 109.105H4151.12V112.738ZM4167.89 121V109.105H4163.65V106.684H4175.02V109.105H4170.79V121H4167.89ZM4178.9 121V106.684H4189.51V109.105H4181.79V112.279H4188.98V114.691H4181.79V118.588H4189.79V121H4178.9ZM4194.25 121V106.684H4200.33C4201.86 106.684 4202.97 106.814 4203.66 107.074C4204.36 107.328 4204.92 107.784 4205.33 108.441C4205.75 109.099 4205.96 109.851 4205.96 110.697C4205.96 111.771 4205.64 112.66 4205.01 113.363C4204.38 114.06 4203.43 114.499 4202.18 114.682C4202.8 115.046 4203.32 115.447 4203.72 115.883C4204.13 116.319 4204.68 117.094 4205.37 118.207L4207.12 121H4203.66L4201.57 117.885C4200.83 116.771 4200.32 116.072 4200.05 115.785C4199.78 115.492 4199.49 115.294 4199.18 115.189C4198.87 115.079 4198.39 115.023 4197.72 115.023H4197.14V121H4194.25ZM4197.14 112.738H4199.28C4200.66 112.738 4201.53 112.68 4201.88 112.562C4202.22 112.445 4202.49 112.243 4202.69 111.957C4202.88 111.671 4202.98 111.312 4202.98 110.883C4202.98 110.401 4202.85 110.014 4202.59 109.721C4202.33 109.421 4201.97 109.232 4201.5 109.154C4201.27 109.122 4200.57 109.105 4199.39 109.105H4197.14V112.738Z" fill="#949494"/>
<rect x="3900" y="170" width="120" height="30" fill="#D9D9D9"/>
<rect x="3900" y="30" width="120" height="30" fill="#D9D9D9"/>
<path d="M3908.38 106.684H3913.67C3914.86 106.684 3915.77 106.775 3916.39 106.957C3917.23 107.204 3917.95 107.644 3918.55 108.275C3919.15 108.907 3919.61 109.682 3919.92 110.6C3920.23 111.511 3920.39 112.637 3920.39 113.979C3920.39 115.157 3920.24 116.173 3919.95 117.025C3919.59 118.067 3919.08 118.91 3918.41 119.555C3917.91 120.043 3917.24 120.424 3916.38 120.697C3915.74 120.899 3914.89 121 3913.82 121H3908.38V106.684ZM3911.28 109.105V118.588H3913.43C3914.24 118.588 3914.82 118.542 3915.18 118.451C3915.65 118.334 3916.04 118.135 3916.34 117.855C3916.66 117.576 3916.91 117.117 3917.11 116.479C3917.3 115.834 3917.4 114.958 3917.4 113.852C3917.4 112.745 3917.3 111.895 3917.11 111.303C3916.91 110.71 3916.64 110.248 3916.29 109.916C3915.93 109.584 3915.49 109.359 3914.95 109.242C3914.54 109.151 3913.75 109.105 3912.57 109.105H3911.28ZM3937.76 121H3934.61L3933.36 117.748H3927.64L3926.46 121H3923.39L3928.97 106.684H3932.03L3937.76 121ZM3932.44 115.336L3930.46 110.023L3928.53 115.336H3932.44ZM3943.47 121L3938.35 106.684H3941.49L3945.11 117.279L3948.62 106.684H3951.68L3946.55 121H3943.47ZM3958.38 121V109.105H3954.13V106.684H3965.51V109.105H3961.27V121H3958.38ZM3969.38 121V106.684H3974.02C3975.78 106.684 3976.93 106.755 3977.46 106.898C3978.28 107.113 3978.97 107.582 3979.52 108.305C3980.07 109.021 3980.35 109.949 3980.35 111.088C3980.35 111.967 3980.19 112.706 3979.87 113.305C3979.55 113.904 3979.15 114.376 3978.65 114.721C3978.16 115.059 3977.66 115.284 3977.16 115.395C3976.47 115.531 3975.47 115.6 3974.16 115.6H3972.27V121H3969.38ZM3972.27 109.105V113.168H3973.86C3974.99 113.168 3975.76 113.093 3976.14 112.943C3976.52 112.794 3976.82 112.559 3977.04 112.24C3977.26 111.921 3977.37 111.55 3977.37 111.127C3977.37 110.606 3977.22 110.176 3976.91 109.838C3976.61 109.499 3976.22 109.288 3975.75 109.203C3975.4 109.138 3974.71 109.105 3973.67 109.105H3972.27ZM3983.99 116.342L3986.8 116.068C3986.97 117.012 3987.31 117.706 3987.83 118.148C3988.35 118.591 3989.05 118.812 3989.93 118.812C3990.86 118.812 3991.56 118.617 3992.03 118.227C3992.5 117.829 3992.74 117.367 3992.74 116.84C3992.74 116.501 3992.64 116.215 3992.44 115.98C3992.24 115.74 3991.9 115.531 3991.4 115.355C3991.06 115.238 3990.29 115.03 3989.09 114.73C3987.54 114.346 3986.45 113.874 3985.83 113.314C3984.95 112.527 3984.51 111.566 3984.51 110.434C3984.51 109.704 3984.71 109.024 3985.12 108.393C3985.54 107.755 3986.14 107.27 3986.91 106.938C3987.69 106.605 3988.63 106.439 3989.73 106.439C3991.53 106.439 3992.88 106.833 3993.79 107.621C3994.7 108.409 3995.18 109.46 3995.22 110.775L3992.33 110.902C3992.21 110.167 3991.94 109.639 3991.53 109.32C3991.13 108.995 3990.52 108.832 3989.7 108.832C3988.86 108.832 3988.21 109.005 3987.73 109.35C3987.42 109.571 3987.27 109.867 3987.27 110.238C3987.27 110.577 3987.41 110.867 3987.7 111.107C3988.07 111.413 3988.95 111.732 3990.36 112.064C3991.76 112.396 3992.8 112.742 3993.47 113.1C3994.15 113.451 3994.68 113.936 3995.05 114.555C3995.44 115.167 3995.63 115.925 3995.63 116.83C3995.63 117.65 3995.4 118.419 3994.95 119.135C3994.49 119.851 3993.85 120.385 3993.01 120.736C3992.18 121.081 3991.14 121.254 3989.9 121.254C3988.09 121.254 3986.7 120.837 3985.73 120.004C3984.76 119.164 3984.18 117.943 3983.99 116.342ZM3987.28 124.936V123.783C3987.95 123.855 3988.57 123.891 3989.13 123.891C3989.71 123.891 3990.14 123.786 3990.42 123.578C3990.63 123.422 3990.74 123.22 3990.74 122.973C3990.74 122.751 3990.64 122.559 3990.44 122.396C3990.23 122.234 3989.92 122.152 3989.5 122.152C3989.08 122.152 3988.65 122.217 3988.22 122.348L3988.47 121.381C3988.98 121.205 3989.53 121.117 3990.11 121.117C3990.93 121.117 3991.55 121.296 3991.97 121.654C3992.39 122.012 3992.6 122.449 3992.6 122.963C3992.6 123.536 3992.37 124.001 3991.9 124.359C3991.27 124.848 3990.36 125.092 3989.19 125.092C3988.35 125.092 3987.71 125.04 3987.28 124.936ZM4012.97 121H4009.83L4008.58 117.748H4002.86L4001.67 121H3998.61L4004.18 106.684H4007.24L4012.97 121ZM4007.65 115.336L4005.68 110.023L4003.74 115.336H4007.65Z" fill="#949494"/>
<rect x="3700" y="170" width="120" height="30" fill="#D9D9D9"/>
<rect x="3700" y="30" width="120" height="30" fill="#D9D9D9"/>
<path d="M3707.65 121V109.105H3703.4V106.684H3714.78V109.105H3710.54V121H3707.65ZM3718.65 121V106.684H3729.27V109.105H3721.54V112.279H3728.73V114.691H3721.54V118.588H3729.54V121H3718.65ZM3734 121V106.684H3740.09C3741.62 106.684 3742.73 106.814 3743.42 107.074C3744.11 107.328 3744.67 107.784 3745.09 108.441C3745.5 109.099 3745.71 109.851 3745.71 110.697C3745.71 111.771 3745.4 112.66 3744.76 113.363C3744.13 114.06 3743.19 114.499 3741.93 114.682C3742.56 115.046 3743.07 115.447 3743.47 115.883C3743.88 116.319 3744.43 117.094 3745.12 118.207L3746.87 121H3743.42L3741.33 117.885C3740.58 116.771 3740.08 116.072 3739.8 115.785C3739.53 115.492 3739.24 115.294 3738.93 115.189C3738.63 115.079 3738.14 115.023 3737.48 115.023H3736.89V121H3734ZM3736.89 112.738H3739.03C3740.42 112.738 3741.28 112.68 3741.63 112.562C3741.97 112.445 3742.24 112.243 3742.44 111.957C3742.63 111.671 3742.73 111.312 3742.73 110.883C3742.73 110.401 3742.6 110.014 3742.34 109.721C3742.09 109.421 3741.73 109.232 3741.26 109.154C3741.02 109.122 3740.32 109.105 3739.15 109.105H3736.89V112.738ZM3749.21 121V118.393L3756.72 109.105H3750.05V106.684H3760.53V108.93L3752.69 118.588H3760.84V121H3749.21ZM3764.58 121V106.684H3767.47V121H3764.58ZM3764.69 105.863V103.266H3767.39V105.863H3764.69ZM3772.23 106.684H3777.51C3778.7 106.684 3779.61 106.775 3780.24 106.957C3781.08 107.204 3781.8 107.644 3782.39 108.275C3782.99 108.907 3783.45 109.682 3783.76 110.6C3784.07 111.511 3784.23 112.637 3784.23 113.979C3784.23 115.157 3784.08 116.173 3783.79 117.025C3783.43 118.067 3782.92 118.91 3782.26 119.555C3781.76 120.043 3781.08 120.424 3780.23 120.697C3779.59 120.899 3778.74 121 3777.67 121H3772.23V106.684ZM3775.12 109.105V118.588H3777.28C3778.08 118.588 3778.67 118.542 3779.03 118.451C3779.49 118.334 3779.88 118.135 3780.19 117.855C3780.5 117.576 3780.75 117.117 3780.95 116.479C3781.14 115.834 3781.24 114.958 3781.24 113.852C3781.24 112.745 3781.14 111.895 3780.95 111.303C3780.75 110.71 3780.48 110.248 3780.13 109.916C3779.78 109.584 3779.33 109.359 3778.79 109.242C3778.39 109.151 3777.6 109.105 3776.42 109.105H3775.12ZM3788.7 121V106.684H3794.79C3796.32 106.684 3797.43 106.814 3798.12 107.074C3798.81 107.328 3799.37 107.784 3799.79 108.441C3800.2 109.099 3800.41 109.851 3800.41 110.697C3800.41 111.771 3800.09 112.66 3799.46 113.363C3798.83 114.06 3797.89 114.499 3796.63 114.682C3797.26 115.046 3797.77 115.447 3798.17 115.883C3798.58 116.319 3799.13 117.094 3799.82 118.207L3801.57 121H3798.12L3796.03 117.885C3795.28 116.771 3794.78 116.072 3794.5 115.785C3794.23 115.492 3793.94 115.294 3793.63 115.189C3793.33 115.079 3792.84 115.023 3792.18 115.023H3791.59V121H3788.7ZM3791.59 112.738H3793.73C3795.12 112.738 3795.98 112.68 3796.33 112.562C3796.67 112.445 3796.94 112.243 3797.14 111.957C3797.33 111.671 3797.43 111.312 3797.43 110.883C3797.43 110.401 3797.3 110.014 3797.04 109.721C3796.79 109.421 3796.43 109.232 3795.96 109.154C3795.72 109.122 3795.02 109.105 3793.85 109.105H3791.59V112.738ZM3805.14 121V106.684H3815.76V109.105H3808.04V112.279H3815.22V114.691H3808.04V118.588H3816.03V121H3805.14Z" fill="#949494"/>
<rect x="2600" y="231" width="120" height="30" fill="#D9D9D9"/>
<rect x="2600" y="180" width="120" height="30" fill="#D9D9D9"/>
<rect x="2600" y="100" width="120" height="30" fill="#D9D9D9"/>
<path d="M2612.14 194.93C2612.14 193.471 2612.36 192.247 2612.79 191.258C2613.12 190.529 2613.56 189.874 2614.12 189.295C2614.69 188.715 2615.31 188.286 2615.98 188.006C2616.87 187.628 2617.9 187.439 2619.06 187.439C2621.17 187.439 2622.86 188.094 2624.12 189.402C2625.39 190.711 2626.03 192.531 2626.03 194.861C2626.03 197.173 2625.4 198.982 2624.14 200.291C2622.88 201.593 2621.2 202.244 2619.1 202.244C2616.97 202.244 2615.28 201.596 2614.02 200.301C2612.77 198.999 2612.14 197.208 2612.14 194.93ZM2615.12 194.832C2615.12 196.453 2615.49 197.684 2616.24 198.523C2616.99 199.357 2617.94 199.773 2619.09 199.773C2620.24 199.773 2621.19 199.36 2621.92 198.533C2622.67 197.7 2623.04 196.453 2623.04 194.793C2623.04 193.152 2622.68 191.928 2621.95 191.121C2621.24 190.314 2620.28 189.91 2619.09 189.91C2617.9 189.91 2616.94 190.32 2616.21 191.141C2615.48 191.954 2615.12 193.185 2615.12 194.832ZM2633.51 202V190.105H2629.27V187.684H2640.64V190.105H2636.4V202H2633.51ZM2643.56 194.93C2643.56 193.471 2643.78 192.247 2644.21 191.258C2644.54 190.529 2644.98 189.874 2645.54 189.295C2646.11 188.715 2646.73 188.286 2647.4 188.006C2648.29 187.628 2649.32 187.439 2650.48 187.439C2652.59 187.439 2654.28 188.094 2655.54 189.402C2656.81 190.711 2657.45 192.531 2657.45 194.861C2657.45 197.173 2656.82 198.982 2655.56 200.291C2654.31 201.593 2652.63 202.244 2650.52 202.244C2648.39 202.244 2646.7 201.596 2645.45 200.301C2644.19 198.999 2643.56 197.208 2643.56 194.93ZM2646.54 194.832C2646.54 196.453 2646.91 197.684 2647.66 198.523C2648.41 199.357 2649.36 199.773 2650.51 199.773C2651.67 199.773 2652.61 199.36 2653.35 198.533C2654.09 197.7 2654.46 196.453 2654.46 194.793C2654.46 193.152 2654.1 191.928 2653.38 191.121C2652.66 190.314 2651.71 189.91 2650.51 189.91C2649.32 189.91 2648.36 190.32 2647.63 191.141C2646.9 191.954 2646.54 193.185 2646.54 194.832ZM2668.37 196.736V194.324H2674.6V200.027C2674 200.613 2673.12 201.131 2671.97 201.58C2670.82 202.023 2669.66 202.244 2668.48 202.244C2666.98 202.244 2665.68 201.932 2664.56 201.307C2663.45 200.675 2662.61 199.777 2662.05 198.611C2661.49 197.439 2661.21 196.167 2661.21 194.793C2661.21 193.302 2661.53 191.977 2662.15 190.818C2662.78 189.66 2663.69 188.771 2664.9 188.152C2665.81 187.677 2666.96 187.439 2668.32 187.439C2670.1 187.439 2671.49 187.814 2672.48 188.562C2673.49 189.305 2674.13 190.333 2674.42 191.648L2671.55 192.186C2671.35 191.482 2670.96 190.929 2670.4 190.525C2669.85 190.115 2669.16 189.91 2668.32 189.91C2667.06 189.91 2666.06 190.311 2665.31 191.111C2664.56 191.912 2664.19 193.1 2664.19 194.676C2664.19 196.375 2664.57 197.651 2665.33 198.504C2666.08 199.35 2667.07 199.773 2668.29 199.773C2668.9 199.773 2669.51 199.656 2670.11 199.422C2670.72 199.181 2671.25 198.891 2671.68 198.553V196.736H2668.37ZM2692.19 202H2689.04L2687.79 198.748H2682.07L2680.89 202H2677.82L2683.4 187.684H2686.46L2692.19 202ZM2686.87 196.336L2684.89 191.023L2682.96 196.336H2686.87ZM2695.74 202V187.684H2701.83C2703.36 187.684 2704.47 187.814 2705.16 188.074C2705.85 188.328 2706.41 188.784 2706.83 189.441C2707.24 190.099 2707.45 190.851 2707.45 191.697C2707.45 192.771 2707.14 193.66 2706.5 194.363C2705.87 195.06 2704.93 195.499 2703.67 195.682C2704.3 196.046 2704.81 196.447 2705.21 196.883C2705.62 197.319 2706.18 198.094 2706.87 199.207L2708.61 202H2705.16L2703.07 198.885C2702.32 197.771 2701.82 197.072 2701.54 196.785C2701.27 196.492 2700.98 196.294 2700.67 196.189C2700.37 196.079 2699.88 196.023 2699.22 196.023H2698.63V202H2695.74ZM2698.63 193.738H2700.77C2702.16 193.738 2703.02 193.68 2703.37 193.562C2703.71 193.445 2703.98 193.243 2704.18 192.957C2704.38 192.671 2704.47 192.312 2704.47 191.883C2704.47 191.401 2704.34 191.014 2704.08 190.721C2703.83 190.421 2703.47 190.232 2703 190.154C2702.76 190.122 2702.06 190.105 2700.89 190.105H2698.63V193.738Z" fill="#949494"/>
<rect x="2000" y="100" width="120" height="30" fill="#D9D9D9"/>
<path d="M2007.32 121V106.684H2010.21V113.041L2016.05 106.684H2019.94L2014.55 112.26L2020.23 121H2016.49L2012.55 114.281L2010.21 116.674V121H2007.32ZM2023.15 113.93C2023.15 112.471 2023.37 111.247 2023.8 110.258C2024.13 109.529 2024.57 108.874 2025.13 108.295C2025.7 107.715 2026.32 107.286 2026.99 107.006C2027.88 106.628 2028.91 106.439 2030.07 106.439C2032.18 106.439 2033.87 107.094 2035.13 108.402C2036.4 109.711 2037.04 111.531 2037.04 113.861C2037.04 116.173 2036.41 117.982 2035.15 119.291C2033.89 120.593 2032.21 121.244 2030.11 121.244C2027.98 121.244 2026.29 120.596 2025.03 119.301C2023.78 117.999 2023.15 116.208 2023.15 113.93ZM2026.13 113.832C2026.13 115.453 2026.5 116.684 2027.25 117.523C2028 118.357 2028.95 118.773 2030.1 118.773C2031.25 118.773 2032.2 118.36 2032.93 117.533C2033.68 116.7 2034.05 115.453 2034.05 113.793C2034.05 112.152 2033.69 110.928 2032.96 110.121C2032.25 109.314 2031.29 108.91 2030.1 108.91C2028.91 108.91 2027.95 109.32 2027.22 110.141C2026.49 110.954 2026.13 112.185 2026.13 113.832ZM2050.46 115.736L2053.26 116.625C2052.83 118.188 2052.12 119.35 2051.12 120.111C2050.12 120.867 2048.85 121.244 2047.32 121.244C2045.42 121.244 2043.85 120.596 2042.63 119.301C2041.4 117.999 2040.79 116.221 2040.79 113.969C2040.79 111.586 2041.41 109.737 2042.64 108.422C2043.87 107.1 2045.49 106.439 2047.49 106.439C2049.24 106.439 2050.67 106.957 2051.76 107.992C2052.41 108.604 2052.9 109.483 2053.22 110.629L2050.36 111.312C2050.19 110.57 2049.84 109.984 2049.3 109.555C2048.76 109.125 2048.11 108.91 2047.35 108.91C2046.28 108.91 2045.42 109.291 2044.76 110.053C2044.1 110.814 2043.77 112.048 2043.77 113.754C2043.77 115.564 2044.1 116.853 2044.75 117.621C2045.4 118.389 2046.25 118.773 2047.29 118.773C2048.06 118.773 2048.72 118.529 2049.27 118.041C2049.82 117.553 2050.22 116.785 2050.46 115.736ZM2070.66 121H2067.52L2066.27 117.748H2060.55L2059.37 121H2056.3L2061.88 106.684H2064.93L2070.66 121ZM2065.34 115.336L2063.37 110.023L2061.44 115.336H2065.34ZM2075.95 121V109.105H2071.7V106.684H2083.07V109.105H2078.84V121H2075.95ZM2086.95 121V106.684H2091.59C2093.35 106.684 2094.49 106.755 2095.03 106.898C2095.85 107.113 2096.53 107.582 2097.09 108.305C2097.64 109.021 2097.92 109.949 2097.92 111.088C2097.92 111.967 2097.76 112.706 2097.44 113.305C2097.12 113.904 2096.71 114.376 2096.22 114.721C2095.73 115.059 2095.23 115.284 2094.72 115.395C2094.03 115.531 2093.03 115.6 2091.72 115.6H2089.84V121H2086.95ZM2089.84 109.105V113.168H2091.42C2092.56 113.168 2093.32 113.093 2093.71 112.943C2094.09 112.794 2094.39 112.559 2094.61 112.24C2094.83 111.921 2094.94 111.55 2094.94 111.127C2094.94 110.606 2094.78 110.176 2094.48 109.838C2094.17 109.499 2093.79 109.288 2093.32 109.203C2092.97 109.138 2092.28 109.105 2091.24 109.105H2089.84ZM2102.29 121V106.684H2112.9V109.105H2105.18V112.279H2112.37V114.691H2105.18V118.588H2113.18V121H2102.29Z" fill="#949494"/>
<rect x="1800" y="100" width="120" height="30" fill="#D9D9D9"/>
<path d="M1805.26 116.342L1808.07 116.068C1808.24 117.012 1808.58 117.706 1809.1 118.148C1809.62 118.591 1810.32 118.812 1811.2 118.812C1812.13 118.812 1812.83 118.617 1813.3 118.227C1813.77 117.829 1814.01 117.367 1814.01 116.84C1814.01 116.501 1813.91 116.215 1813.71 115.98C1813.51 115.74 1813.17 115.531 1812.67 115.355C1812.33 115.238 1811.56 115.03 1810.36 114.73C1808.81 114.346 1807.72 113.874 1807.1 113.314C1806.22 112.527 1805.78 111.566 1805.78 110.434C1805.78 109.704 1805.98 109.024 1806.39 108.393C1806.81 107.755 1807.4 107.27 1808.18 106.938C1808.96 106.605 1809.9 106.439 1811 106.439C1812.8 106.439 1814.15 106.833 1815.05 107.621C1815.97 108.409 1816.44 109.46 1816.49 110.775L1813.6 110.902C1813.48 110.167 1813.21 109.639 1812.8 109.32C1812.4 108.995 1811.79 108.832 1810.97 108.832C1810.13 108.832 1809.48 109.005 1809 109.35C1808.69 109.571 1808.54 109.867 1808.54 110.238C1808.54 110.577 1808.68 110.867 1808.97 111.107C1809.34 111.413 1810.22 111.732 1811.63 112.064C1813.03 112.396 1814.07 112.742 1814.74 113.1C1815.42 113.451 1815.95 113.936 1816.32 114.555C1816.71 115.167 1816.9 115.925 1816.9 116.83C1816.9 117.65 1816.67 118.419 1816.22 119.135C1815.76 119.851 1815.12 120.385 1814.28 120.736C1813.45 121.081 1812.41 121.254 1811.17 121.254C1809.36 121.254 1807.97 120.837 1807 120.004C1806.03 119.164 1805.45 117.943 1805.26 116.342ZM1827.99 115.736V113.324H1834.22V119.027C1833.62 119.613 1832.74 120.131 1831.59 120.58C1830.44 121.023 1829.28 121.244 1828.1 121.244C1826.6 121.244 1825.3 120.932 1824.18 120.307C1823.07 119.675 1822.23 118.777 1821.67 117.611C1821.11 116.439 1820.83 115.167 1820.83 113.793C1820.83 112.302 1821.15 110.977 1821.77 109.818C1822.4 108.66 1823.31 107.771 1824.52 107.152C1825.43 106.677 1826.58 106.439 1827.94 106.439C1829.72 106.439 1831.11 106.814 1832.1 107.562C1833.11 108.305 1833.75 109.333 1834.04 110.648L1831.17 111.186C1830.96 110.482 1830.58 109.929 1830.02 109.525C1829.47 109.115 1828.78 108.91 1827.94 108.91C1826.68 108.91 1825.67 109.311 1824.93 110.111C1824.18 110.912 1823.81 112.1 1823.81 113.676C1823.81 115.375 1824.19 116.651 1824.95 117.504C1825.7 118.35 1826.69 118.773 1827.91 118.773C1828.52 118.773 1829.12 118.656 1829.73 118.422C1830.34 118.181 1830.87 117.891 1831.3 117.553V115.736H1827.99ZM1829.83 103.07H1831.17C1831.09 103.956 1830.78 104.652 1830.23 105.16C1829.69 105.661 1828.99 105.912 1828.12 105.912C1827.25 105.912 1826.55 105.661 1826 105.16C1825.46 104.652 1825.15 103.956 1825.07 103.07H1826.41C1826.46 103.533 1826.62 103.884 1826.9 104.125C1827.18 104.359 1827.59 104.477 1828.12 104.477C1828.65 104.477 1829.06 104.359 1829.34 104.125C1829.62 103.884 1829.78 103.533 1829.83 103.07ZM1838.86 121V106.684H1843.19L1845.78 116.449L1848.35 106.684H1852.69V121H1850V109.73L1847.16 121H1844.38L1841.54 109.73V121H1838.86ZM1857.64 121V106.801H1860.53V118.588H1867.71V121H1857.64ZM1880.95 115.736L1883.75 116.625C1883.32 118.188 1882.6 119.35 1881.6 120.111C1880.6 120.867 1879.34 121.244 1877.8 121.244C1875.9 121.244 1874.34 120.596 1873.11 119.301C1871.89 117.999 1871.28 116.221 1871.28 113.969C1871.28 111.586 1871.89 109.737 1873.12 108.422C1874.35 107.1 1875.97 106.439 1877.98 106.439C1879.73 106.439 1881.15 106.957 1882.24 107.992C1882.9 108.604 1883.38 109.483 1883.71 110.629L1880.85 111.312C1880.68 110.57 1880.32 109.984 1879.78 109.555C1879.25 109.125 1878.6 108.91 1877.83 108.91C1876.77 108.91 1875.91 109.291 1875.24 110.053C1874.58 110.814 1874.26 112.048 1874.26 113.754C1874.26 115.564 1874.58 116.853 1875.23 117.621C1875.88 118.389 1876.73 118.773 1877.77 118.773C1878.54 118.773 1879.2 118.529 1879.75 118.041C1880.31 117.553 1880.7 116.785 1880.95 115.736ZM1888.32 121V106.801H1891.21V118.588H1898.39V121H1888.32ZM1902.47 121V106.684H1908.56C1910.09 106.684 1911.2 106.814 1911.89 107.074C1912.59 107.328 1913.14 107.784 1913.56 108.441C1913.98 109.099 1914.18 109.851 1914.18 110.697C1914.18 111.771 1913.87 112.66 1913.24 113.363C1912.6 114.06 1911.66 114.499 1910.4 114.682C1911.03 115.046 1911.54 115.447 1911.95 115.883C1912.36 116.319 1912.91 117.094 1913.6 118.207L1915.35 121H1911.89L1909.8 117.885C1909.06 116.771 1908.55 116.072 1908.28 115.785C1908 115.492 1907.71 115.294 1907.41 115.189C1907.1 115.079 1906.62 115.023 1905.95 115.023H1905.37V121H1902.47ZM1905.37 112.738H1907.5C1908.89 112.738 1909.76 112.68 1910.1 112.562C1910.45 112.445 1910.72 112.243 1910.91 111.957C1911.11 111.671 1911.21 111.312 1911.21 110.883C1911.21 110.401 1911.07 110.014 1910.81 109.721C1910.56 109.421 1910.2 109.232 1909.73 109.154C1909.5 109.122 1908.79 109.105 1907.62 109.105H1905.37V112.738Z" fill="#949494"/>
<rect x="1400" y="100" width="120" height="30" fill="#D9D9D9"/>
<path d="M1405.45 106.684H1411.17C1412.3 106.684 1413.14 106.732 1413.7 106.83C1414.26 106.921 1414.76 107.117 1415.19 107.416C1415.63 107.715 1416 108.116 1416.29 108.617C1416.59 109.112 1416.73 109.669 1416.73 110.287C1416.73 110.958 1416.55 111.573 1416.19 112.133C1415.83 112.693 1415.34 113.113 1414.72 113.393C1415.6 113.646 1416.27 114.079 1416.73 114.691C1417.2 115.303 1417.44 116.023 1417.44 116.85C1417.44 117.501 1417.28 118.135 1416.98 118.754C1416.68 119.366 1416.27 119.857 1415.74 120.229C1415.22 120.593 1414.57 120.818 1413.8 120.902C1413.32 120.954 1412.16 120.987 1410.32 121H1405.45V106.684ZM1408.34 109.066V112.377H1410.23C1411.36 112.377 1412.06 112.361 1412.33 112.328C1412.82 112.27 1413.21 112.1 1413.49 111.82C1413.78 111.534 1413.92 111.16 1413.92 110.697C1413.92 110.255 1413.8 109.896 1413.55 109.623C1413.31 109.343 1412.95 109.174 1412.47 109.115C1412.18 109.083 1411.36 109.066 1410 109.066H1408.34ZM1408.34 114.76V118.588H1411.01C1412.05 118.588 1412.71 118.559 1412.99 118.5C1413.42 118.422 1413.77 118.233 1414.04 117.934C1414.31 117.628 1414.45 117.221 1414.45 116.713C1414.45 116.283 1414.35 115.919 1414.14 115.619C1413.93 115.32 1413.63 115.102 1413.23 114.965C1412.84 114.828 1411.99 114.76 1410.67 114.76H1408.34ZM1425.65 121V114.975L1420.4 106.684H1423.79L1427.16 112.348L1430.46 106.684H1433.79L1428.53 114.994V121H1425.65ZM1437.24 121V106.684H1443.32C1444.85 106.684 1445.96 106.814 1446.65 107.074C1447.35 107.328 1447.91 107.784 1448.32 108.441C1448.74 109.099 1448.95 109.851 1448.95 110.697C1448.95 111.771 1448.63 112.66 1448 113.363C1447.37 114.06 1446.42 114.499 1445.17 114.682C1445.79 115.046 1446.31 115.447 1446.71 115.883C1447.12 116.319 1447.67 117.094 1448.36 118.207L1450.11 121H1446.65L1444.56 117.885C1443.82 116.771 1443.31 116.072 1443.04 115.785C1442.77 115.492 1442.48 115.294 1442.17 115.189C1441.86 115.079 1441.38 115.023 1440.71 115.023H1440.13V121H1437.24ZM1440.13 112.738H1442.27C1443.65 112.738 1444.52 112.68 1444.87 112.562C1445.21 112.445 1445.48 112.243 1445.68 111.957C1445.87 111.671 1445.97 111.312 1445.97 110.883C1445.97 110.401 1445.84 110.014 1445.58 109.721C1445.32 109.421 1444.96 109.232 1444.49 109.154C1444.26 109.122 1443.56 109.105 1442.38 109.105H1440.13V112.738ZM1453.64 121V106.684H1457.97L1460.57 116.449L1463.13 106.684H1467.47V121H1464.79V109.73L1461.94 121H1459.16L1456.33 109.73V121H1453.64ZM1472.34 121V106.684H1476.98C1478.74 106.684 1479.88 106.755 1480.42 106.898C1481.24 107.113 1481.93 107.582 1482.48 108.305C1483.03 109.021 1483.31 109.949 1483.31 111.088C1483.31 111.967 1483.15 112.706 1482.83 113.305C1482.51 113.904 1482.1 114.376 1481.61 114.721C1481.12 115.059 1480.62 115.284 1480.12 115.395C1479.43 115.531 1478.43 115.6 1477.12 115.6H1475.23V121H1472.34ZM1475.23 109.105V113.168H1476.81C1477.95 113.168 1478.72 113.093 1479.1 112.943C1479.48 112.794 1479.78 112.559 1480 112.24C1480.22 111.921 1480.33 111.55 1480.33 111.127C1480.33 110.606 1480.18 110.176 1479.87 109.838C1479.57 109.499 1479.18 109.288 1478.71 109.203C1478.36 109.138 1477.67 109.105 1476.63 109.105H1475.23ZM1486.95 116.342L1489.76 116.068C1489.93 117.012 1490.27 117.706 1490.79 118.148C1491.31 118.591 1492.01 118.812 1492.89 118.812C1493.82 118.812 1494.52 118.617 1494.99 118.227C1495.46 117.829 1495.7 117.367 1495.7 116.84C1495.7 116.501 1495.6 116.215 1495.4 115.98C1495.2 115.74 1494.86 115.531 1494.36 115.355C1494.02 115.238 1493.25 115.03 1492.05 114.73C1490.5 114.346 1489.41 113.874 1488.79 113.314C1487.91 112.527 1487.47 111.566 1487.47 110.434C1487.47 109.704 1487.67 109.024 1488.08 108.393C1488.5 107.755 1489.09 107.27 1489.87 106.938C1490.65 106.605 1491.59 106.439 1492.69 106.439C1494.49 106.439 1495.84 106.833 1496.74 107.621C1497.66 108.409 1498.13 109.46 1498.18 110.775L1495.29 110.902C1495.17 110.167 1494.9 109.639 1494.49 109.32C1494.08 108.995 1493.48 108.832 1492.66 108.832C1491.82 108.832 1491.16 109.005 1490.69 109.35C1490.38 109.571 1490.23 109.867 1490.23 110.238C1490.23 110.577 1490.37 110.867 1490.66 111.107C1491.02 111.413 1491.91 111.732 1493.32 112.064C1494.72 112.396 1495.76 112.742 1496.43 113.1C1497.11 113.451 1497.64 113.936 1498.01 114.555C1498.4 115.167 1498.59 115.925 1498.59 116.83C1498.59 117.65 1498.36 118.419 1497.91 119.135C1497.45 119.851 1496.81 120.385 1495.97 120.736C1495.14 121.081 1494.1 121.254 1492.86 121.254C1491.05 121.254 1489.66 120.837 1488.69 120.004C1487.72 119.164 1487.14 117.943 1486.95 116.342ZM1490.24 124.936V123.783C1490.91 123.855 1491.53 123.891 1492.09 123.891C1492.67 123.891 1493.1 123.786 1493.38 123.578C1493.59 123.422 1493.7 123.22 1493.7 122.973C1493.7 122.751 1493.6 122.559 1493.39 122.396C1493.19 122.234 1492.88 122.152 1492.46 122.152C1492.04 122.152 1491.61 122.217 1491.18 122.348L1491.43 121.381C1491.94 121.205 1492.49 121.117 1493.07 121.117C1493.89 121.117 1494.5 121.296 1494.93 121.654C1495.35 122.012 1495.56 122.449 1495.56 122.963C1495.56 123.536 1495.33 124.001 1494.86 124.359C1494.23 124.848 1493.32 125.092 1492.14 125.092C1491.3 125.092 1490.67 125.04 1490.24 124.936ZM1515.93 121H1512.79L1511.54 117.748H1505.81L1504.63 121H1501.57L1507.14 106.684H1510.2L1515.93 121ZM1510.61 115.336L1508.64 110.023L1506.7 115.336H1510.61Z" fill="#949494"/>
<rect x="1200" y="170" width="120" height="30" fill="#D9D9D9"/>
<rect x="1200" y="30" width="120" height="30" fill="#D9D9D9"/>
<path d="M1205.15 106.684H1208.04V114.438C1208.04 115.668 1208.07 116.465 1208.15 116.83C1208.27 117.416 1208.56 117.888 1209.03 118.246C1209.49 118.598 1210.13 118.773 1210.94 118.773C1211.76 118.773 1212.38 118.607 1212.79 118.275C1213.21 117.937 1213.46 117.523 1213.55 117.035C1213.63 116.547 1213.67 115.736 1213.67 114.604V106.684H1216.56V114.203C1216.56 115.922 1216.49 117.136 1216.33 117.846C1216.17 118.555 1215.88 119.154 1215.46 119.643C1215.04 120.131 1214.48 120.521 1213.78 120.814C1213.08 121.101 1212.16 121.244 1211.03 121.244C1209.66 121.244 1208.62 121.088 1207.91 120.775C1207.21 120.456 1206.65 120.046 1206.24 119.545C1205.83 119.037 1205.56 118.507 1205.43 117.953C1205.24 117.133 1205.15 115.922 1205.15 114.32V106.684ZM1221.7 121V106.801H1224.59V118.588H1231.78V121H1221.7ZM1235.83 106.684H1238.72V114.438C1238.72 115.668 1238.75 116.465 1238.83 116.83C1238.95 117.416 1239.24 117.888 1239.71 118.246C1240.17 118.598 1240.81 118.773 1241.62 118.773C1242.44 118.773 1243.06 118.607 1243.47 118.275C1243.89 117.937 1244.14 117.523 1244.23 117.035C1244.31 116.547 1244.35 115.736 1244.35 114.604V106.684H1247.24V114.203C1247.24 115.922 1247.17 117.136 1247.01 117.846C1246.85 118.555 1246.56 119.154 1246.14 119.643C1245.72 120.131 1245.16 120.521 1244.46 120.814C1243.76 121.101 1242.84 121.244 1241.71 121.244C1240.34 121.244 1239.3 121.088 1238.59 120.775C1237.89 120.456 1237.33 120.046 1236.92 119.545C1236.51 119.037 1236.24 118.507 1236.11 117.953C1235.92 117.133 1235.83 115.922 1235.83 114.32V106.684ZM1252.31 106.684H1258.03C1259.17 106.684 1260.01 106.732 1260.56 106.83C1261.12 106.921 1261.62 107.117 1262.06 107.416C1262.5 107.715 1262.87 108.116 1263.16 108.617C1263.45 109.112 1263.6 109.669 1263.6 110.287C1263.6 110.958 1263.42 111.573 1263.05 112.133C1262.69 112.693 1262.21 113.113 1261.59 113.393C1262.46 113.646 1263.13 114.079 1263.6 114.691C1264.07 115.303 1264.3 116.023 1264.3 116.85C1264.3 117.501 1264.15 118.135 1263.84 118.754C1263.54 119.366 1263.13 119.857 1262.6 120.229C1262.08 120.593 1261.44 120.818 1260.67 120.902C1260.19 120.954 1259.03 120.987 1257.18 121H1252.31V106.684ZM1255.2 109.066V112.377H1257.1C1258.22 112.377 1258.92 112.361 1259.2 112.328C1259.69 112.27 1260.08 112.1 1260.36 111.82C1260.64 111.534 1260.79 111.16 1260.79 110.697C1260.79 110.255 1260.66 109.896 1260.42 109.623C1260.18 109.343 1259.81 109.174 1259.33 109.115C1259.05 109.083 1258.22 109.066 1256.86 109.066H1255.2ZM1255.2 114.76V118.588H1257.88C1258.92 118.588 1259.58 118.559 1259.86 118.5C1260.29 118.422 1260.64 118.233 1260.9 117.934C1261.18 117.628 1261.31 117.221 1261.31 116.713C1261.31 116.283 1261.21 115.919 1261 115.619C1260.79 115.32 1260.49 115.102 1260.09 114.965C1259.7 114.828 1258.85 114.76 1257.54 114.76H1255.2ZM1281.66 121H1278.52L1277.27 117.748H1271.55L1270.37 121H1267.3L1272.88 106.684H1275.93L1281.66 121ZM1276.34 115.336L1274.37 110.023L1272.44 115.336H1276.34ZM1286.95 121V109.105H1282.7V106.684H1294.07V109.105H1289.84V121H1286.95ZM1298.03 121V106.801H1300.92V118.588H1308.11V121H1298.03ZM1312.09 121V106.684H1314.98V121H1312.09Z" fill="#949494"/>
<rect x="800" y="170" width="120" height="30" fill="#D9D9D9"/>
<rect x="800" y="30" width="120" height="30" fill="#D9D9D9"/>
<path d="M810.992 121V106.684H821.607V109.105H813.883V112.279H821.07V114.691H813.883V118.588H821.881V121H810.992ZM826.293 121V106.684H830.619L833.217 116.449L835.785 106.684H840.121V121H837.436V109.73L834.594 121H831.811L828.979 109.73V121H826.293ZM845.021 121V106.684H847.834L853.693 116.244V106.684H856.379V121H853.479L847.707 111.664V121H845.021ZM861.357 121V106.684H864.248V121H861.357ZM861.465 105.863V103.266H864.16V105.863H861.465ZM872.771 121V114.975L867.527 106.684H870.916L874.285 112.348L877.586 106.684H880.916L875.652 114.994V121H872.771ZM884.352 121V106.684H894.967V109.105H887.242V112.279H894.43V114.691H887.242V118.588H895.24V121H884.352ZM902.914 121V109.105H898.666V106.684H910.043V109.105H905.805V121H902.914Z" fill="#949494"/>
<rect x="400" y="100" width="120" height="30" fill="#D9D9D9"/>
<path d="M419.811 121H416.666L415.416 117.748H409.693L408.512 121H405.445L411.021 106.684H414.078L419.811 121ZM414.488 115.336L412.516 110.023L410.582 115.336H414.488ZM423.393 121V106.684H426.283V113.041L432.123 106.684H436.01L430.619 112.26L436.303 121H432.562L428.627 114.281L426.283 116.674V121H423.393ZM439.074 116.342L441.887 116.068C442.056 117.012 442.398 117.706 442.912 118.148C443.433 118.591 444.133 118.812 445.012 118.812C445.943 118.812 446.643 118.617 447.111 118.227C447.587 117.829 447.824 117.367 447.824 116.84C447.824 116.501 447.723 116.215 447.521 115.98C447.326 115.74 446.981 115.531 446.486 115.355C446.148 115.238 445.376 115.03 444.172 114.73C442.622 114.346 441.535 113.874 440.91 113.314C440.031 112.527 439.592 111.566 439.592 110.434C439.592 109.704 439.797 109.024 440.207 108.393C440.624 107.755 441.219 107.27 441.994 106.938C442.775 106.605 443.716 106.439 444.816 106.439C446.613 106.439 447.964 106.833 448.869 107.621C449.781 108.409 450.259 109.46 450.305 110.775L447.414 110.902C447.29 110.167 447.023 109.639 446.613 109.32C446.21 108.995 445.601 108.832 444.787 108.832C443.947 108.832 443.29 109.005 442.814 109.35C442.508 109.571 442.355 109.867 442.355 110.238C442.355 110.577 442.499 110.867 442.785 111.107C443.15 111.413 444.035 111.732 445.441 112.064C446.848 112.396 447.886 112.742 448.557 113.1C449.234 113.451 449.761 113.936 450.139 114.555C450.523 115.167 450.715 115.925 450.715 116.83C450.715 117.65 450.487 118.419 450.031 119.135C449.576 119.851 448.931 120.385 448.098 120.736C447.264 121.081 446.226 121.254 444.982 121.254C443.173 121.254 441.783 120.837 440.812 120.004C439.842 119.164 439.263 117.943 439.074 116.342ZM468.057 121H464.912L463.662 117.748H457.939L456.758 121H453.691L459.268 106.684H462.324L468.057 121ZM462.734 115.336L460.762 110.023L458.828 115.336H462.734ZM471.609 121V106.684H477.693C479.223 106.684 480.333 106.814 481.023 107.074C481.72 107.328 482.277 107.784 482.693 108.441C483.11 109.099 483.318 109.851 483.318 110.697C483.318 111.771 483.003 112.66 482.371 113.363C481.74 114.06 480.796 114.499 479.539 114.682C480.164 115.046 480.678 115.447 481.082 115.883C481.492 116.319 482.042 117.094 482.732 118.207L484.48 121H481.023L478.934 117.885C478.191 116.771 477.684 116.072 477.41 115.785C477.137 115.492 476.847 115.294 476.541 115.189C476.235 115.079 475.75 115.023 475.086 115.023H474.5V121H471.609ZM474.5 112.738H476.639C478.025 112.738 478.891 112.68 479.236 112.562C479.581 112.445 479.852 112.243 480.047 111.957C480.242 111.671 480.34 111.312 480.34 110.883C480.34 110.401 480.21 110.014 479.949 109.721C479.695 109.421 479.334 109.232 478.865 109.154C478.631 109.122 477.928 109.105 476.756 109.105H474.5V112.738ZM500.963 121H497.818L496.568 117.748H490.846L489.664 121H486.598L492.174 106.684H495.23L500.963 121ZM495.641 115.336L493.668 110.023L491.734 115.336H495.641ZM506.43 121V114.975L501.186 106.684H504.574L507.943 112.348L511.244 106.684H514.574L509.311 114.994V121H506.43Z" fill="#949494"/>
<rect x="80" y="170" width="120" height="30" fill="#D9D9D9"/>
<rect x="80" y="30" width="120" height="30" fill="#D9D9D9"/>
<path d="M90.959 122V115.975L85.7148 107.684H89.1035L92.4727 113.348L95.7734 107.684H99.1035L93.8398 115.994V122H90.959ZM102.539 122V107.684H113.154V110.105H105.43V113.279H112.617V115.691H105.43V119.588H113.428V122H102.539ZM117.908 122V107.684H120.721L126.58 117.244V107.684H129.266V122H126.365L120.594 112.664V122H117.908ZM134.244 122V107.684H137.135V122H134.244ZM134.352 106.863V104.266H137.047V106.863H134.352ZM141.938 122V107.684H144.828V114.041L150.668 107.684H154.555L149.164 113.26L154.848 122H151.107L147.172 115.281L144.828 117.674V122H141.938ZM171.262 122H168.117L166.867 118.748H161.145L159.963 122H156.896L162.473 107.684H165.529L171.262 122ZM165.939 116.336L163.967 111.023L162.033 116.336H165.939ZM174.805 122V107.684H179.443C181.201 107.684 182.347 107.755 182.881 107.898C183.701 108.113 184.388 108.582 184.941 109.305C185.495 110.021 185.771 110.949 185.771 112.088C185.771 112.967 185.612 113.706 185.293 114.305C184.974 114.904 184.567 115.376 184.072 115.721C183.584 116.059 183.086 116.284 182.578 116.395C181.888 116.531 180.889 116.6 179.58 116.6H177.695V122H174.805ZM177.695 110.105V114.168H179.277C180.417 114.168 181.178 114.093 181.562 113.943C181.947 113.794 182.246 113.559 182.461 113.24C182.682 112.921 182.793 112.55 182.793 112.127C182.793 111.606 182.64 111.176 182.334 110.838C182.028 110.499 181.641 110.288 181.172 110.203C180.827 110.138 180.133 110.105 179.092 110.105H177.695ZM190.057 122V107.684H192.947V122H190.057Z" fill="#949494"/>
<path d="M255 80.0711L262.071 73L339.146 150.075L332.075 157.146L255 80.0711Z" fill="#949494"/>
<path d="M332.075 73L339.146 80.0711L262.071 157.146L255 150.075L332.075 73Z" fill="#949494"/>
<path d="M3083 80.0711L3090.07 73L3167.15 150.075L3160.07 157.146L3083 80.0711Z" fill="#949494"/>
<path d="M3160.07 73L3167.15 80.0711L3090.07 157.146L3083 150.075L3160.07 73Z" fill="#949494"/>
<path d="M4475 80.0711L4482.07 73L4559.15 150.075L4552.07 157.146L4475 80.0711Z" fill="#949494"/>
<path d="M4552.07 73L4559.14 80.0711L4482.07 157.146L4474.99 150.075L4552.07 73Z" fill="#949494"/>
<path d="M4576 285.071L4583.08 278L4660.15 355.075L4653.08 362.146L4576 285.071Z" fill="#949494"/>
<path d="M4653.07 278L4660.15 285.071L4583.07 362.146L4576 355.075L4653.07 278Z" fill="#949494"/>
<path d="M4967 80.0711L4974.07 73L5051.15 150.075L5044.07 157.146L4967 80.0711Z" fill="#949494"/>
<path d="M5044.07 73L5051.14 80.0711L4974.07 157.146L4966.99 150.075L5044.07 73Z" fill="#949494"/>
<path d="M3840 285.071L3847.07 278L3924.15 355.075L3917.07 362.146L3840 285.071Z" fill="#949494"/>
<path d="M3733.07 278L3740.15 285.071L3663.07 362.146L3656 355.075L3733.07 278Z" fill="#949494"/>
<path d="M3069.85 257.917L3076.92 250.846L3181.09 355.02L3174.02 362.091L3069.85 257.917Z" fill="#949494"/>
<path d="M3173.21 250.864L3180.28 257.935L3076.09 362.125L3069.02 355.054L3173.21 250.864Z" fill="#949494"/>
<path d="M640 73L647.071 80.0711L569.996 157.146L562.925 150.075L640 73Z" fill="#949494"/>
<path d="M670 80.0711L677.071 73L754.146 150.075L747.075 157.146L670 80.0711Z" fill="#949494"/>
<path d="M1040 73L1047.07 80.0711L969.996 157.146L962.925 150.075L1040 73Z" fill="#949494"/>
<path d="M1070 80.0711L1077.07 73L1154.15 150.075L1147.07 157.146L1070 80.0711Z" fill="#949494"/>
<path d="M1640 73L1647.07 80.0711L1570 157.146L1562.93 150.075L1640 73Z" fill="#949494"/>
<path d="M1670 80.0711L1677.07 73L1754.15 150.075L1747.07 157.146L1670 80.0711Z" fill="#949494"/>
<path d="M2511.07 152.93L2518.14 160.001L2390.06 288.082L2382.99 281.011L2511.07 152.93Z" fill="#949494"/>
<path d="M3647.04 256.194L3654.11 249.123L3682.93 277.934L3675.85 285.005L3647.04 256.194Z" fill="#949494"/>
<path d="M3804.85 249.123L3811.93 256.194L3783.11 285.005L3776.04 277.934L3804.85 249.123Z" fill="#949494"/>
<path d="M5263 80.0711L5270.07 73L5347.15 150.075L5340.07 157.146L5263 80.0711Z" fill="#949494"/>
<path d="M5447 73L5454.07 80.0711L5377 157.146L5369.93 150.075L5447 73Z" fill="#949494"/>
<path d="M5863 80.0711L5870.07 73L5947.15 150.075L5940.07 157.146L5863 80.0711Z" fill="#949494"/>
<path d="M6047 73L6054.07 80.0711L5977 157.146L5969.93 150.075L6047 73Z" fill="#949494"/>
<line x1="3030" y1="230" x2="3303" y2="230" stroke="#949494" stroke-width="10"/>
<path d="M3030 225.007L3037.07 232.078L3013.98 255.169L3006.91 248.098L3030 225.007Z" fill="#949494"/>
<line x1="80" y1="75" x2="6220" y2="75" stroke="#949494" stroke-width="10"/>
<line x1="2888" y1="360" x2="4820" y2="360" stroke="#949494" stroke-width="10"/>
<path d="M2811 288.071L2818.07 281L2895.15 358.075L2888.07 365.146L2811 288.071Z" fill="#949494"/>
<line x1="3413" y1="280" x2="4820" y2="280" stroke="#949494" stroke-width="10"/>
<line x1="2509" y1="155" x2="3292" y2="155" stroke="#949494" stroke-width="10"/>
<path d="M2434 80.0711L2441.07 73L2518.15 150.075L2511.07 157.146L2434 80.0711Z" fill="#949494"/>
<path d="M3284.92 157.071L3291.99 150L3419.93 277.934L3412.85 285.005L3284.92 157.071Z" fill="#949494"/>
<line x1="3573" y1="253" x2="3923" y2="253" stroke="#949494" stroke-width="10"/>
<line x1="3504" y1="202" x2="3624" y2="202" stroke="#949494" stroke-width="10"/>
<line x1="3559" y1="239" x2="3559" y2="219" stroke="#949494" stroke-width="10"/>
<line x1="2950" y1="253" x2="3457" y2="253" stroke="#949494" stroke-width="10"/>
<path d="M3504 197.007L3511.07 204.078L3457.13 258.02L3450.06 250.949L3504 197.007Z" fill="#949494"/>
<path d="M3576 197.007L3583.07 204.078L3561.08 226.073L3554.01 219.002L3576 197.007Z" fill="#949494"/>
<path d="M2850.63 158.636L2857.71 151.564L2957.04 250.901L2949.97 257.972L2850.63 158.636Z" fill="#949494"/>
<path d="M3554 238.996L3561.08 231.924L3580.07 250.919L3573 257.99L3554 238.996Z" fill="#949494"/>
<line x1="80" y1="154.995" x2="2184" y2="154.995" stroke="#949494" stroke-width="10"/>
<line x1="2311" y1="286" x2="2907" y2="286" stroke="#949494" stroke-width="10"/>
<line x1="2940" y1="206" x2="3303" y2="206" stroke="#949494" stroke-width="10"/>
<line x1="3350" y1="155" x2="6220" y2="155" stroke="#949494" stroke-width="10"/>
<path d="M2980.11 203.739L2987.18 210.81L2906.99 291.001L2899.92 283.93L2980.11 203.739Z" fill="#949494"/>
<path d="M3350 150.007L3357.07 157.078L3303.13 211.02L3296.06 203.949L3350 150.007Z" fill="#949494"/>
<path d="M2889.07 160.071L2896.14 153L2947.08 203.935L2940.01 211.006L2889.07 160.071Z" fill="#949494"/>
<path d="M2176.9 157.071L2183.97 150L2317.89 283.92L2310.82 290.991L2176.9 157.071Z" fill="#949494"/>
</g>
<defs>
<clipPath id="clip0_543_2">
<rect width="6300" height="395" fill="white"/>
</clipPath>
</defs>
</svg>
