<svg id="Layer_1" data-name="Layer 1" xmlns="http://www.w3.org/2000/svg" viewBox="0 0 71.86 71.95"><defs><style>.cls-1{fill:#009845;}.cls-2{fill:#fff;}</style></defs><path class="cls-1" d="M35.93,72A36,36,0,1,1,71.86,36,36,36,0,0,1,35.93,72"/><polygon class="cls-2" points="12.39 24.52 19.86 24.52 25.4 42.19 25.47 42.19 31.01 24.52 38.48 24.52 38.48 47.83 34.01 47.83 34.01 28.59 33.94 28.59 27.67 47.83 23.2 47.83 16.93 28.59 16.86 28.66 16.86 47.83 12.39 47.83 12.39 24.52"/><path class="cls-2" d="M42.57,47.83V43.92c2.17-2.1,10.07-8.72,10.07-13,0-2.14-1.9-3.14-3.8-3.14a10.1,10.1,0,0,0-5.37,1.87l-.37-3.87A15.47,15.47,0,0,1,50,24.12c4.44,0,7.31,2.23,7.31,6.81,0,5-5,9.49-8.78,13.23h9.51v3.67Z"/></svg>