<svg width="5760" height="649" viewBox="0 0 5760 649" fill="none" xmlns="http://www.w3.org/2000/svg">
<rect x="300" y="479" width="120" height="30" fill="#D9D9D9"/>
<rect x="300" y="399" width="120" height="30" fill="#D9D9D9"/>
<path d="M310.959 420V413.975L305.715 405.684H309.104L312.473 411.348L315.773 405.684H319.104L313.84 413.994V420H310.959ZM322.539 420V405.684H333.154V408.105H325.43V411.279H332.617V413.691H325.43V417.588H333.428V420H322.539ZM337.908 420V405.684H340.721L346.58 415.244V405.684H349.266V420H346.365L340.594 410.664V420H337.908ZM354.244 420V405.684H357.135V420H354.244ZM354.352 404.863V402.266H357.047V404.863H354.352ZM361.938 420V405.684H364.828V412.041L370.668 405.684H374.555L369.164 411.26L374.848 420H371.107L367.172 413.281L364.828 415.674V420H361.938ZM391.262 420H388.117L386.867 416.748H381.145L379.963 420H376.896L382.473 405.684H385.529L391.262 420ZM385.939 414.336L383.967 409.023L382.033 414.336H385.939ZM394.805 420V405.684H399.443C401.201 405.684 402.347 405.755 402.881 405.898C403.701 406.113 404.388 406.582 404.941 407.305C405.495 408.021 405.771 408.949 405.771 410.088C405.771 410.967 405.612 411.706 405.293 412.305C404.974 412.904 404.567 413.376 404.072 413.721C403.584 414.059 403.086 414.284 402.578 414.395C401.888 414.531 400.889 414.6 399.58 414.6H397.695V420H394.805ZM397.695 408.105V412.168H399.277C400.417 412.168 401.178 412.093 401.562 411.943C401.947 411.794 402.246 411.559 402.461 411.24C402.682 410.921 402.793 410.55 402.793 410.127C402.793 409.606 402.64 409.176 402.334 408.838C402.028 408.499 401.641 408.288 401.172 408.203C400.827 408.138 400.133 408.105 399.092 408.105H397.695ZM410.057 420V405.684H412.947V420H410.057Z" fill="#949494"/>
<rect x="700" y="479" width="120" height="30" fill="#D9D9D9"/>
<path d="M708.078 500L702.961 485.684H706.096L709.719 496.279L713.225 485.684H716.291L711.164 500H708.078ZM719.766 500V485.684H730.381V488.105H722.656V491.279H729.844V493.691H722.656V497.588H730.654V500H719.766ZM733.865 500V497.393L741.385 488.105H734.715V485.684H745.193V487.93L737.352 497.588H745.496V500H733.865ZM749.361 500V485.684H752.174L758.033 495.244V485.684H760.719V500H757.818L752.047 490.664V500H749.361ZM774.945 494.736L777.748 495.625C777.318 497.188 776.602 498.35 775.6 499.111C774.604 499.867 773.337 500.244 771.801 500.244C769.9 500.244 768.337 499.596 767.113 498.301C765.889 496.999 765.277 495.221 765.277 492.969C765.277 490.586 765.893 488.737 767.123 487.422C768.354 486.1 769.971 485.439 771.977 485.439C773.728 485.439 775.15 485.957 776.244 486.992C776.895 487.604 777.383 488.483 777.709 489.629L774.848 490.312C774.678 489.57 774.324 488.984 773.783 488.555C773.249 488.125 772.598 487.91 771.83 487.91C770.769 487.91 769.906 488.291 769.242 489.053C768.585 489.814 768.256 491.048 768.256 492.754C768.256 494.564 768.581 495.853 769.232 496.621C769.883 497.389 770.73 497.773 771.771 497.773C772.54 497.773 773.201 497.529 773.754 497.041C774.307 496.553 774.704 495.785 774.945 494.736ZM782.15 500V485.684H785.041V500H782.15ZM782.258 484.863V482.266H784.953V484.863H782.258ZM789.883 500V485.801H792.773V497.588H799.961V500H789.883ZM804.041 500V485.684H810.125C811.655 485.684 812.765 485.814 813.455 486.074C814.152 486.328 814.708 486.784 815.125 487.441C815.542 488.099 815.75 488.851 815.75 489.697C815.75 490.771 815.434 491.66 814.803 492.363C814.171 493.06 813.227 493.499 811.971 493.682C812.596 494.046 813.11 494.447 813.514 494.883C813.924 495.319 814.474 496.094 815.164 497.207L816.912 500H813.455L811.365 496.885C810.623 495.771 810.115 495.072 809.842 494.785C809.568 494.492 809.279 494.294 808.973 494.189C808.667 494.079 808.182 494.023 807.518 494.023H806.932V500H804.041ZM806.932 491.738H809.07C810.457 491.738 811.323 491.68 811.668 491.562C812.013 491.445 812.283 491.243 812.479 490.957C812.674 490.671 812.771 490.312 812.771 489.883C812.771 489.401 812.641 489.014 812.381 488.721C812.127 488.421 811.766 488.232 811.297 488.154C811.062 488.122 810.359 488.105 809.188 488.105H806.932V491.738Z" fill="#949494"/>
<rect x="1100" y="549" width="120" height="30" fill="#D9D9D9"/>
<rect x="1100" y="409" width="120" height="30" fill="#D9D9D9"/>
<path d="M1126.89 498V483.684H1129.78V489.318H1135.44V483.684H1138.33V498H1135.44V491.74H1129.78V498H1126.89ZM1156.24 498H1153.1L1151.85 494.748H1146.12L1144.94 498H1141.88L1147.45 483.684H1150.51L1156.24 498ZM1150.92 492.336L1148.95 487.023L1147.01 492.336H1150.92ZM1159.86 498V483.801H1162.75V495.588H1169.94V498H1159.86ZM1173.92 498V483.684H1176.81V498H1173.92ZM1174.03 482.863V480.266H1176.73V482.863H1174.03ZM1190.74 492.736L1193.54 493.625C1193.11 495.188 1192.4 496.35 1191.39 497.111C1190.4 497.867 1189.13 498.244 1187.59 498.244C1185.69 498.244 1184.13 497.596 1182.91 496.301C1181.68 494.999 1181.07 493.221 1181.07 490.969C1181.07 488.586 1181.69 486.737 1182.92 485.422C1184.15 484.1 1185.76 483.439 1187.77 483.439C1189.52 483.439 1190.94 483.957 1192.04 484.992C1192.69 485.604 1193.18 486.483 1193.5 487.629L1190.64 488.312C1190.47 487.57 1190.12 486.984 1189.58 486.555C1189.04 486.125 1188.39 485.91 1187.62 485.91C1186.56 485.91 1185.7 486.291 1185.04 487.053C1184.38 487.814 1184.05 489.048 1184.05 490.754C1184.05 492.564 1184.37 493.853 1185.03 494.621C1185.68 495.389 1186.52 495.773 1187.56 495.773C1188.33 495.773 1188.99 495.529 1189.55 495.041C1190.1 494.553 1190.5 493.785 1190.74 492.736ZM1184.66 501.936V500.783C1185.33 500.855 1185.95 500.891 1186.51 500.891C1187.09 500.891 1187.52 500.786 1187.8 500.578C1188.01 500.422 1188.12 500.22 1188.12 499.973C1188.12 499.751 1188.02 499.559 1187.82 499.396C1187.62 499.234 1187.3 499.152 1186.88 499.152C1186.46 499.152 1186.04 499.217 1185.6 499.348L1185.86 498.381C1186.36 498.205 1186.91 498.117 1187.5 498.117C1188.31 498.117 1188.93 498.296 1189.35 498.654C1189.77 499.012 1189.99 499.449 1189.99 499.963C1189.99 500.536 1189.75 501.001 1189.28 501.359C1188.65 501.848 1187.75 502.092 1186.57 502.092C1185.73 502.092 1185.09 502.04 1184.66 501.936Z" fill="#949494"/>
<rect x="1400" y="479" width="120" height="30" fill="#D9D9D9"/>
<path d="M1410.25 495.342L1413.06 495.068C1413.23 496.012 1413.57 496.706 1414.09 497.148C1414.61 497.591 1415.31 497.812 1416.19 497.812C1417.12 497.812 1417.82 497.617 1418.29 497.227C1418.76 496.829 1419 496.367 1419 495.84C1419 495.501 1418.9 495.215 1418.7 494.98C1418.5 494.74 1418.16 494.531 1417.66 494.355C1417.32 494.238 1416.55 494.03 1415.35 493.73C1413.8 493.346 1412.71 492.874 1412.09 492.314C1411.21 491.527 1410.77 490.566 1410.77 489.434C1410.77 488.704 1410.97 488.024 1411.38 487.393C1411.8 486.755 1412.4 486.27 1413.17 485.938C1413.95 485.605 1414.89 485.439 1415.99 485.439C1417.79 485.439 1419.14 485.833 1420.04 486.621C1420.96 487.409 1421.43 488.46 1421.48 489.775L1418.59 489.902C1418.47 489.167 1418.2 488.639 1417.79 488.32C1417.39 487.995 1416.78 487.832 1415.96 487.832C1415.12 487.832 1414.47 488.005 1413.99 488.35C1413.68 488.571 1413.53 488.867 1413.53 489.238C1413.53 489.577 1413.67 489.867 1413.96 490.107C1414.33 490.413 1415.21 490.732 1416.62 491.064C1418.02 491.396 1419.06 491.742 1419.73 492.1C1420.41 492.451 1420.94 492.936 1421.31 493.555C1421.7 494.167 1421.89 494.925 1421.89 495.83C1421.89 496.65 1421.66 497.419 1421.21 498.135C1420.75 498.851 1420.11 499.385 1419.27 499.736C1418.44 500.081 1417.4 500.254 1416.16 500.254C1414.35 500.254 1412.96 499.837 1411.99 499.004C1411.02 498.164 1410.44 496.943 1410.25 495.342ZM1413.54 503.936V502.783C1414.21 502.855 1414.83 502.891 1415.39 502.891C1415.97 502.891 1416.4 502.786 1416.68 502.578C1416.89 502.422 1417 502.22 1417 501.973C1417 501.751 1416.9 501.559 1416.7 501.396C1416.49 501.234 1416.18 501.152 1415.76 501.152C1415.34 501.152 1414.91 501.217 1414.48 501.348L1414.73 500.381C1415.24 500.205 1415.79 500.117 1416.37 500.117C1417.19 500.117 1417.81 500.296 1418.23 500.654C1418.65 501.012 1418.86 501.449 1418.86 501.963C1418.86 502.536 1418.63 503.001 1418.16 503.359C1417.53 503.848 1416.62 504.092 1415.45 504.092C1414.61 504.092 1413.97 504.04 1413.54 503.936ZM1426.23 500V485.684H1429.12V500H1426.23ZM1426.34 484.863V482.266H1429.04V484.863H1426.34ZM1433.16 495.342L1435.97 495.068C1436.14 496.012 1436.48 496.706 1436.99 497.148C1437.51 497.591 1438.21 497.812 1439.09 497.812C1440.02 497.812 1440.72 497.617 1441.19 497.227C1441.67 496.829 1441.91 496.367 1441.91 495.84C1441.91 495.501 1441.81 495.215 1441.6 494.98C1441.41 494.74 1441.06 494.531 1440.57 494.355C1440.23 494.238 1439.46 494.03 1438.25 493.73C1436.7 493.346 1435.62 492.874 1434.99 492.314C1434.11 491.527 1433.67 490.566 1433.67 489.434C1433.67 488.704 1433.88 488.024 1434.29 487.393C1434.71 486.755 1435.3 486.27 1436.08 485.938C1436.86 485.605 1437.8 485.439 1438.9 485.439C1440.7 485.439 1442.05 485.833 1442.95 486.621C1443.86 487.409 1444.34 488.46 1444.39 489.775L1441.5 489.902C1441.37 489.167 1441.11 488.639 1440.7 488.32C1440.29 487.995 1439.68 487.832 1438.87 487.832C1438.03 487.832 1437.37 488.005 1436.9 488.35C1436.59 488.571 1436.44 488.867 1436.44 489.238C1436.44 489.577 1436.58 489.867 1436.87 490.107C1437.23 490.413 1438.12 490.732 1439.52 491.064C1440.93 491.396 1441.97 491.742 1442.64 492.1C1443.32 492.451 1443.84 492.936 1444.22 493.555C1444.6 494.167 1444.8 494.925 1444.8 495.83C1444.8 496.65 1444.57 497.419 1444.11 498.135C1443.66 498.851 1443.01 499.385 1442.18 499.736C1441.35 500.081 1440.31 500.254 1439.06 500.254C1437.25 500.254 1435.86 499.837 1434.89 499.004C1433.92 498.164 1433.35 496.943 1433.16 495.342ZM1436.45 503.936V502.783C1437.12 502.855 1437.73 502.891 1438.29 502.891C1438.87 502.891 1439.3 502.786 1439.58 502.578C1439.8 502.422 1439.9 502.22 1439.9 501.973C1439.9 501.751 1439.8 501.559 1439.6 501.396C1439.4 501.234 1439.09 501.152 1438.66 501.152C1438.25 501.152 1437.82 501.217 1437.38 501.348L1437.64 500.381C1438.15 500.205 1438.69 500.117 1439.28 500.117C1440.09 500.117 1440.71 500.296 1441.13 500.654C1441.56 501.012 1441.77 501.449 1441.77 501.963C1441.77 502.536 1441.54 503.001 1441.07 503.359C1440.43 503.848 1439.53 504.092 1438.35 504.092C1437.51 504.092 1436.88 504.04 1436.45 503.936ZM1449.24 500V485.684H1452.13V491.318H1457.79V485.684H1460.68V500H1457.79V493.74H1452.13V500H1449.24ZM1478.59 500H1475.45L1474.2 496.748H1468.47L1467.29 500H1464.23L1469.8 485.684H1472.86L1478.59 500ZM1473.27 494.336L1471.3 489.023L1469.36 494.336H1473.27ZM1482.16 500V485.684H1484.98L1490.84 495.244V485.684H1493.52V500H1490.62L1484.85 490.664V500H1482.16ZM1498.59 500V485.684H1509.2V488.105H1501.48V491.279H1508.67V493.691H1501.48V497.588H1509.48V500H1498.59Z" fill="#949494"/>
<rect x="1730" y="479" width="120" height="30" fill="#D9D9D9"/>
<path d="M1752.07 500V488.105H1747.82V485.684H1759.2V488.105H1754.96V500H1752.07ZM1774.5 500H1771.36L1770.11 496.748H1764.38L1763.2 500H1760.13L1765.71 485.684H1768.77L1774.5 500ZM1769.18 494.336L1767.21 489.023L1765.27 494.336H1769.18ZM1778.08 500V485.684H1780.97V492.041L1786.81 485.684H1790.7L1785.31 491.26L1790.99 500H1787.25L1783.32 493.281L1780.97 495.674V500H1778.08ZM1793.76 495.342L1796.58 495.068C1796.75 496.012 1797.09 496.706 1797.6 497.148C1798.12 497.591 1798.82 497.812 1799.7 497.812C1800.63 497.812 1801.33 497.617 1801.8 497.227C1802.28 496.829 1802.51 496.367 1802.51 495.84C1802.51 495.501 1802.41 495.215 1802.21 494.98C1802.02 494.74 1801.67 494.531 1801.18 494.355C1800.84 494.238 1800.07 494.03 1798.86 493.73C1797.31 493.346 1796.22 492.874 1795.6 492.314C1794.72 491.527 1794.28 490.566 1794.28 489.434C1794.28 488.704 1794.49 488.024 1794.9 487.393C1795.31 486.755 1795.91 486.27 1796.68 485.938C1797.46 485.605 1798.41 485.439 1799.51 485.439C1801.3 485.439 1802.65 485.833 1803.56 486.621C1804.47 487.409 1804.95 488.46 1804.99 489.775L1802.1 489.902C1801.98 489.167 1801.71 488.639 1801.3 488.32C1800.9 487.995 1800.29 487.832 1799.48 487.832C1798.64 487.832 1797.98 488.005 1797.5 488.35C1797.2 488.571 1797.04 488.867 1797.04 489.238C1797.04 489.577 1797.19 489.867 1797.47 490.107C1797.84 490.413 1798.72 490.732 1800.13 491.064C1801.54 491.396 1802.58 491.742 1803.25 492.1C1803.92 492.451 1804.45 492.936 1804.83 493.555C1805.21 494.167 1805.4 494.925 1805.4 495.83C1805.4 496.65 1805.18 497.419 1804.72 498.135C1804.26 498.851 1803.62 499.385 1802.79 499.736C1801.95 500.081 1800.92 500.254 1799.67 500.254C1797.86 500.254 1796.47 499.837 1795.5 499.004C1794.53 498.164 1793.95 496.943 1793.76 495.342ZM1809.75 500V485.684H1812.64V500H1809.75ZM1809.86 484.863V482.266H1812.55V484.863H1809.86ZM1817.36 500V485.684H1821.69L1824.29 495.449L1826.86 485.684H1831.19V500H1828.51V488.73L1825.66 500H1822.88L1820.05 488.73V500H1817.36Z" fill="#949494"/>
<rect x="2100" y="479" width="120" height="30" fill="#D9D9D9"/>
<path d="M2104.29 492.93C2104.29 491.471 2104.51 490.247 2104.95 489.258C2105.27 488.529 2105.72 487.874 2106.28 487.295C2106.84 486.715 2107.46 486.286 2108.13 486.006C2109.02 485.628 2110.05 485.439 2111.22 485.439C2113.33 485.439 2115.01 486.094 2116.28 487.402C2117.54 488.711 2118.18 490.531 2118.18 492.861C2118.18 495.173 2117.55 496.982 2116.29 498.291C2115.04 499.593 2113.36 500.244 2111.26 500.244C2109.13 500.244 2107.43 499.596 2106.18 498.301C2104.92 496.999 2104.29 495.208 2104.29 492.93ZM2107.27 492.832C2107.27 494.453 2107.65 495.684 2108.39 496.523C2109.14 497.357 2110.09 497.773 2111.25 497.773C2112.4 497.773 2113.34 497.36 2114.08 496.533C2114.82 495.7 2115.19 494.453 2115.19 492.793C2115.19 491.152 2114.83 489.928 2114.11 489.121C2113.39 488.314 2112.44 487.91 2111.25 487.91C2110.05 487.91 2109.09 488.32 2108.37 489.141C2107.64 489.954 2107.27 491.185 2107.27 492.832ZM2121.71 495.342L2124.53 495.068C2124.69 496.012 2125.04 496.706 2125.55 497.148C2126.07 497.591 2126.77 497.812 2127.65 497.812C2128.58 497.812 2129.28 497.617 2129.75 497.227C2130.23 496.829 2130.46 496.367 2130.46 495.84C2130.46 495.501 2130.36 495.215 2130.16 494.98C2129.96 494.74 2129.62 494.531 2129.12 494.355C2128.79 494.238 2128.01 494.03 2126.81 493.73C2125.26 493.346 2124.17 492.874 2123.55 492.314C2122.67 491.527 2122.23 490.566 2122.23 489.434C2122.23 488.704 2122.44 488.024 2122.85 487.393C2123.26 486.755 2123.86 486.27 2124.63 485.938C2125.41 485.605 2126.35 485.439 2127.46 485.439C2129.25 485.439 2130.6 485.833 2131.51 486.621C2132.42 487.409 2132.9 488.46 2132.94 489.775L2130.05 489.902C2129.93 489.167 2129.66 488.639 2129.25 488.32C2128.85 487.995 2128.24 487.832 2127.43 487.832C2126.59 487.832 2125.93 488.005 2125.45 488.35C2125.15 488.571 2124.99 488.867 2124.99 489.238C2124.99 489.577 2125.14 489.867 2125.42 490.107C2125.79 490.413 2126.67 490.732 2128.08 491.064C2129.49 491.396 2130.52 491.742 2131.2 492.1C2131.87 492.451 2132.4 492.936 2132.78 493.555C2133.16 494.167 2133.35 494.925 2133.35 495.83C2133.35 496.65 2133.13 497.419 2132.67 498.135C2132.21 498.851 2131.57 499.385 2130.74 499.736C2129.9 500.081 2128.86 500.254 2127.62 500.254C2125.81 500.254 2124.42 499.837 2123.45 499.004C2122.48 498.164 2121.9 496.943 2121.71 495.342ZM2137.75 500V485.684H2142.07L2144.67 495.449L2147.24 485.684H2151.57V500H2148.89V488.73L2146.05 500H2143.26L2140.43 488.73V500H2137.75ZM2156.47 500V485.684H2159.29L2165.15 495.244V485.684H2167.83V500H2164.93L2159.16 490.664V500H2156.47ZM2172.91 485.684H2178.63C2179.76 485.684 2180.61 485.732 2181.16 485.83C2181.72 485.921 2182.22 486.117 2182.65 486.416C2183.1 486.715 2183.46 487.116 2183.76 487.617C2184.05 488.112 2184.2 488.669 2184.2 489.287C2184.2 489.958 2184.01 490.573 2183.65 491.133C2183.29 491.693 2182.8 492.113 2182.19 492.393C2183.06 492.646 2183.73 493.079 2184.2 493.691C2184.67 494.303 2184.9 495.023 2184.9 495.85C2184.9 496.501 2184.75 497.135 2184.44 497.754C2184.14 498.366 2183.73 498.857 2183.2 499.229C2182.68 499.593 2182.04 499.818 2181.27 499.902C2180.79 499.954 2179.62 499.987 2177.78 500H2172.91V485.684ZM2175.8 488.066V491.377H2177.69C2178.82 491.377 2179.52 491.361 2179.79 491.328C2180.29 491.27 2180.68 491.1 2180.96 490.82C2181.24 490.534 2181.38 490.16 2181.38 489.697C2181.38 489.255 2181.26 488.896 2181.01 488.623C2180.77 488.343 2180.41 488.174 2179.93 488.115C2179.64 488.083 2178.82 488.066 2177.46 488.066H2175.8ZM2175.8 493.76V497.588H2178.47C2179.52 497.588 2180.18 497.559 2180.46 497.5C2180.89 497.422 2181.24 497.233 2181.5 496.934C2181.78 496.628 2181.91 496.221 2181.91 495.713C2181.91 495.283 2181.81 494.919 2181.6 494.619C2181.39 494.32 2181.09 494.102 2180.69 493.965C2180.3 493.828 2179.45 493.76 2178.13 493.76H2175.8ZM2189.35 500V485.684H2199.97V488.105H2192.24V491.279H2199.43V493.691H2192.24V497.588H2200.24V500H2189.35ZM2208.45 500V493.975L2203.21 485.684H2206.6L2209.96 491.348L2213.27 485.684H2216.6L2211.33 493.994V500H2208.45Z" fill="#949494"/>
<rect x="2400" y="479" width="120" height="30" fill="#D9D9D9"/>
<path d="M2401.61 500V485.684H2405.94L2408.54 495.449L2411.11 485.684H2415.44V500H2412.76V488.73L2409.91 500H2407.13L2404.3 488.73V500H2401.61ZM2420.31 500V485.684H2430.93V488.105H2423.2V491.279H2430.39V493.691H2423.2V497.588H2431.2V500H2420.31ZM2444.81 494.736L2447.62 495.625C2447.19 497.188 2446.47 498.35 2445.47 499.111C2444.47 499.867 2443.2 500.244 2441.67 500.244C2439.77 500.244 2438.2 499.596 2436.98 498.301C2435.76 496.999 2435.14 495.221 2435.14 492.969C2435.14 490.586 2435.76 488.737 2436.99 487.422C2438.22 486.1 2439.84 485.439 2441.84 485.439C2443.6 485.439 2445.02 485.957 2446.11 486.992C2446.76 487.604 2447.25 488.483 2447.58 489.629L2444.71 490.312C2444.55 489.57 2444.19 488.984 2443.65 488.555C2443.12 488.125 2442.47 487.91 2441.7 487.91C2440.64 487.91 2439.77 488.291 2439.11 489.053C2438.45 489.814 2438.12 491.048 2438.12 492.754C2438.12 494.564 2438.45 495.853 2439.1 496.621C2439.75 497.389 2440.6 497.773 2441.64 497.773C2442.41 497.773 2443.07 497.529 2443.62 497.041C2444.17 496.553 2444.57 495.785 2444.81 494.736ZM2452.1 485.684H2457.38C2458.57 485.684 2459.48 485.775 2460.1 485.957C2460.94 486.204 2461.66 486.644 2462.26 487.275C2462.86 487.907 2463.32 488.682 2463.63 489.6C2463.94 490.511 2464.1 491.637 2464.1 492.979C2464.1 494.157 2463.95 495.173 2463.66 496.025C2463.3 497.067 2462.79 497.91 2462.12 498.555C2461.62 499.043 2460.95 499.424 2460.09 499.697C2459.46 499.899 2458.6 500 2457.54 500H2452.1V485.684ZM2454.99 488.105V497.588H2457.14C2457.95 497.588 2458.53 497.542 2458.89 497.451C2459.36 497.334 2459.75 497.135 2460.05 496.855C2460.37 496.576 2460.62 496.117 2460.82 495.479C2461.01 494.834 2461.11 493.958 2461.11 492.852C2461.11 491.745 2461.01 490.895 2460.82 490.303C2460.62 489.71 2460.35 489.248 2460 488.916C2459.64 488.584 2459.2 488.359 2458.66 488.242C2458.25 488.151 2457.46 488.105 2456.29 488.105H2454.99ZM2468.47 500V485.684H2471.36V500H2468.47ZM2468.58 484.863V482.266H2471.27V484.863H2468.58ZM2479.88 500V493.975L2474.64 485.684H2478.03L2481.4 491.348L2484.7 485.684H2488.03L2482.77 493.994V500H2479.88ZM2491.5 500V485.684H2494.39V492.041L2500.23 485.684H2504.12L2498.73 491.26L2504.41 500H2500.67L2496.74 493.281L2494.39 495.674V500H2491.5ZM2511.68 500V493.975L2506.43 485.684H2509.82L2513.19 491.348L2516.49 485.684H2519.82L2514.56 493.994V500H2511.68Z" fill="#949494"/>
<rect x="2600" y="479" width="120" height="30" fill="#D9D9D9"/>
<path d="M2614.87 494.736V492.324H2621.1V498.027C2620.49 498.613 2619.62 499.131 2618.46 499.58C2617.32 500.023 2616.15 500.244 2614.98 500.244C2613.48 500.244 2612.17 499.932 2611.06 499.307C2609.95 498.675 2609.11 497.777 2608.55 496.611C2607.99 495.439 2607.71 494.167 2607.71 492.793C2607.71 491.302 2608.02 489.977 2608.65 488.818C2609.27 487.66 2610.19 486.771 2611.39 486.152C2612.31 485.677 2613.45 485.439 2614.82 485.439C2616.6 485.439 2617.98 485.814 2618.98 486.562C2619.98 487.305 2620.63 488.333 2620.91 489.648L2618.04 490.186C2617.84 489.482 2617.46 488.929 2616.9 488.525C2616.35 488.115 2615.65 487.91 2614.82 487.91C2613.56 487.91 2612.55 488.311 2611.8 489.111C2611.06 489.912 2610.69 491.1 2610.69 492.676C2610.69 494.375 2611.07 495.651 2611.82 496.504C2612.58 497.35 2613.57 497.773 2614.79 497.773C2615.4 497.773 2616 497.656 2616.61 497.422C2617.22 497.181 2617.74 496.891 2618.18 496.553V494.736H2614.87ZM2629.54 500V493.975L2624.29 485.684H2627.68L2631.05 491.348L2634.35 485.684H2637.68L2632.42 493.994V500H2629.54ZM2641.12 500V485.684H2647.21C2648.74 485.684 2649.85 485.814 2650.54 486.074C2651.24 486.328 2651.79 486.784 2652.21 487.441C2652.63 488.099 2652.83 488.851 2652.83 489.697C2652.83 490.771 2652.52 491.66 2651.89 492.363C2651.26 493.06 2650.31 493.499 2649.05 493.682C2649.68 494.046 2650.19 494.447 2650.6 494.883C2651.01 495.319 2651.56 496.094 2652.25 497.207L2654 500H2650.54L2648.45 496.885C2647.71 495.771 2647.2 495.072 2646.93 494.785C2646.65 494.492 2646.36 494.294 2646.06 494.189C2645.75 494.079 2645.27 494.023 2644.6 494.023H2644.02V500H2641.12ZM2644.02 491.738H2646.15C2647.54 491.738 2648.41 491.68 2648.75 491.562C2649.1 491.445 2649.37 491.243 2649.56 490.957C2649.76 490.671 2649.86 490.312 2649.86 489.883C2649.86 489.401 2649.73 489.014 2649.46 488.721C2649.21 488.421 2648.85 488.232 2648.38 488.154C2648.15 488.122 2647.44 488.105 2646.27 488.105H2644.02V491.738ZM2660.79 500V488.105H2656.54V485.684H2667.92V488.105H2663.68V500H2660.79ZM2675.02 500V488.105H2670.77V485.684H2682.15V488.105H2677.91V500H2675.02ZM2686.02 500V485.684H2690.66C2692.42 485.684 2693.56 485.755 2694.1 485.898C2694.92 486.113 2695.6 486.582 2696.16 487.305C2696.71 488.021 2696.99 488.949 2696.99 490.088C2696.99 490.967 2696.83 491.706 2696.51 492.305C2696.19 492.904 2695.78 493.376 2695.29 493.721C2694.8 494.059 2694.3 494.284 2693.79 494.395C2693.1 494.531 2692.11 494.6 2690.8 494.6H2688.91V500H2686.02ZM2688.91 488.105V492.168H2690.49C2691.63 492.168 2692.4 492.093 2692.78 491.943C2693.16 491.794 2693.46 491.559 2693.68 491.24C2693.9 490.921 2694.01 490.55 2694.01 490.127C2694.01 489.606 2693.86 489.176 2693.55 488.838C2693.24 488.499 2692.86 488.288 2692.39 488.203C2692.04 488.138 2691.35 488.105 2690.31 488.105H2688.91ZM2701.36 500V485.684H2711.98V488.105H2704.25V491.279H2711.44V493.691H2704.25V497.588H2712.25V500H2701.36Z" fill="#949494"/>
<rect x="2800" y="479" width="120" height="30" fill="#D9D9D9"/>
<path d="M2817.07 500V485.801H2819.96V497.588H2827.15V500H2817.07ZM2831.22 500V485.684H2841.83V488.105H2834.11V491.279H2841.3V493.691H2834.11V497.588H2842.11V500H2831.22ZM2850.21 500L2845.09 485.684H2848.23L2851.85 496.279L2855.36 485.684H2858.42L2853.3 500H2850.21ZM2861.9 500V485.684H2872.51V488.105H2864.79V491.279H2871.98V493.691H2864.79V497.588H2872.79V500H2861.9ZM2877.27 500V485.684H2880.08L2885.94 495.244V485.684H2888.62V500H2885.72L2879.95 490.664V500H2877.27ZM2896.91 500V488.105H2892.67V485.684H2904.04V488.105H2899.8V500H2896.91Z" fill="#949494"/>
<rect x="3100" y="479" width="120" height="30" fill="#D9D9D9"/>
<path d="M3111.42 500V497.119H3105.56V494.717L3111.77 485.625H3114.07V494.707H3115.85V497.119H3114.07V500H3111.42ZM3111.42 494.707V489.814L3108.13 494.707H3111.42ZM3119.76 500V497.256H3122.5V500H3119.76ZM3127.42 500V485.801H3130.31V497.588H3137.5V500H3127.42ZM3141.57 500V485.684H3152.18V488.105H3144.46V491.279H3151.65V493.691H3144.46V497.588H3152.46V500H3141.57ZM3160.56 500L3155.44 485.684H3158.58L3162.2 496.279L3165.71 485.684H3168.77L3163.65 500H3160.56ZM3172.25 500V485.684H3182.86V488.105H3175.14V491.279H3182.33V493.691H3175.14V497.588H3183.14V500H3172.25ZM3187.62 500V485.684H3190.43L3196.29 495.244V485.684H3198.97V500H3196.07L3190.3 490.664V500H3187.62ZM3207.26 500V488.105H3203.02V485.684H3214.39V488.105H3210.15V500H3207.26Z" fill="#949494"/>
<rect x="3450" y="559" width="120" height="30" fill="#D9D9D9"/>
<rect x="3450" y="479" width="120" height="30" fill="#D9D9D9"/>
<path d="M3468.84 495.342L3471.65 495.068C3471.82 496.012 3472.16 496.706 3472.68 497.148C3473.2 497.591 3473.9 497.812 3474.78 497.812C3475.71 497.812 3476.41 497.617 3476.88 497.227C3477.35 496.829 3477.59 496.367 3477.59 495.84C3477.59 495.501 3477.49 495.215 3477.29 494.98C3477.09 494.74 3476.74 494.531 3476.25 494.355C3475.91 494.238 3475.14 494.03 3473.94 493.73C3472.39 493.346 3471.3 492.874 3470.67 492.314C3469.79 491.527 3469.36 490.566 3469.36 489.434C3469.36 488.704 3469.56 488.024 3469.97 487.393C3470.39 486.755 3470.98 486.27 3471.76 485.938C3472.54 485.605 3473.48 485.439 3474.58 485.439C3476.38 485.439 3477.73 485.833 3478.63 486.621C3479.54 487.409 3480.02 488.46 3480.07 489.775L3477.18 489.902C3477.05 489.167 3476.79 488.639 3476.38 488.32C3475.97 487.995 3475.36 487.832 3474.55 487.832C3473.71 487.832 3473.05 488.005 3472.58 488.35C3472.27 488.571 3472.12 488.867 3472.12 489.238C3472.12 489.577 3472.26 489.867 3472.55 490.107C3472.91 490.413 3473.8 490.732 3475.21 491.064C3476.61 491.396 3477.65 491.742 3478.32 492.1C3479 492.451 3479.52 492.936 3479.9 493.555C3480.29 494.167 3480.48 494.925 3480.48 495.83C3480.48 496.65 3480.25 497.419 3479.79 498.135C3479.34 498.851 3478.69 499.385 3477.86 499.736C3477.03 500.081 3475.99 500.254 3474.75 500.254C3472.94 500.254 3471.55 499.837 3470.58 499.004C3469.61 498.164 3469.03 496.943 3468.84 495.342ZM3497.82 500H3494.68L3493.43 496.748H3487.7L3486.52 500H3483.46L3489.03 485.684H3492.09L3497.82 500ZM3492.5 494.336L3490.53 489.023L3488.59 494.336H3492.5ZM3501.39 500V485.684H3504.21L3510.06 495.244V485.684H3512.75V500H3509.85L3504.08 490.664V500H3501.39ZM3530.73 500H3527.58L3526.33 496.748H3520.61L3519.43 500H3516.36L3521.94 485.684H3524.99L3530.73 500ZM3525.4 494.336L3523.43 489.023L3521.5 494.336H3525.4ZM3536.19 500V493.975L3530.95 485.684H3534.34L3537.71 491.348L3541.01 485.684H3544.34L3539.07 493.994V500H3536.19ZM3547.69 500V485.684H3550.58V500H3547.69ZM3547.79 484.863V482.266H3550.49V484.863H3547.79Z" fill="#949494"/>
<rect x="3443" y="60" width="120" height="30" fill="#D9D9D9"/>
<path d="M3450.48 76.3418L3453.29 76.0684C3453.46 77.0124 3453.8 77.7057 3454.31 78.1484C3454.84 78.5911 3455.54 78.8125 3456.41 78.8125C3457.35 78.8125 3458.04 78.6172 3458.51 78.2266C3458.99 77.8294 3459.23 77.3672 3459.23 76.8398C3459.23 76.5013 3459.13 76.2148 3458.92 75.9805C3458.73 75.7396 3458.38 75.5312 3457.89 75.3555C3457.55 75.2383 3456.78 75.0299 3455.57 74.7305C3454.02 74.3464 3452.94 73.8743 3452.31 73.3145C3451.43 72.5267 3450.99 71.5664 3450.99 70.4336C3450.99 69.7044 3451.2 69.0241 3451.61 68.3926C3452.03 67.7546 3452.62 67.2695 3453.4 66.9375C3454.18 66.6055 3455.12 66.4395 3456.22 66.4395C3458.02 66.4395 3459.37 66.8333 3460.27 67.6211C3461.18 68.4089 3461.66 69.4603 3461.71 70.7754L3458.82 70.9023C3458.69 70.1667 3458.43 69.6393 3458.02 69.3203C3457.61 68.9948 3457 68.832 3456.19 68.832C3455.35 68.832 3454.69 69.0046 3454.22 69.3496C3453.91 69.571 3453.76 69.8672 3453.76 70.2383C3453.76 70.5768 3453.9 70.8665 3454.19 71.1074C3454.55 71.4134 3455.44 71.7324 3456.84 72.0645C3458.25 72.3965 3459.29 72.7415 3459.96 73.0996C3460.64 73.4512 3461.16 73.9362 3461.54 74.5547C3461.93 75.1667 3462.12 75.9251 3462.12 76.8301C3462.12 77.6504 3461.89 78.4186 3461.43 79.1348C3460.98 79.8509 3460.33 80.3848 3459.5 80.7363C3458.67 81.0814 3457.63 81.2539 3456.38 81.2539C3454.57 81.2539 3453.18 80.8372 3452.21 80.0039C3451.24 79.1641 3450.67 77.9434 3450.48 76.3418ZM3470.31 81V74.9746L3465.06 66.6836H3468.45L3471.82 72.3477L3475.12 66.6836H3478.45L3473.19 74.9941V81H3470.31ZM3481.9 81V66.6836H3487.98C3489.51 66.6836 3490.62 66.8138 3491.31 67.0742C3492.01 67.3281 3492.57 67.7839 3492.98 68.4414C3493.4 69.099 3493.61 69.8509 3493.61 70.6973C3493.61 71.7715 3493.29 72.6602 3492.66 73.3633C3492.03 74.0599 3491.08 74.4993 3489.83 74.6816C3490.45 75.0462 3490.97 75.4466 3491.37 75.8828C3491.78 76.319 3492.33 77.0938 3493.02 78.207L3494.77 81H3491.31L3489.22 77.8848C3488.48 76.7715 3487.97 76.0716 3487.7 75.7852C3487.43 75.4922 3487.14 75.2936 3486.83 75.1895C3486.52 75.0788 3486.04 75.0234 3485.38 75.0234H3484.79V81H3481.9ZM3484.79 72.7383H3486.93C3488.31 72.7383 3489.18 72.6797 3489.53 72.5625C3489.87 72.4453 3490.14 72.2435 3490.34 71.957C3490.53 71.6706 3490.63 71.3125 3490.63 70.8828C3490.63 70.401 3490.5 70.0137 3490.24 69.7207C3489.98 69.4212 3489.62 69.2324 3489.15 69.1543C3488.92 69.1217 3488.22 69.1055 3487.04 69.1055H3484.79V72.7383ZM3498.37 81V66.6836H3501.18L3507.04 76.2441V66.6836H3509.73V81H3506.83L3501.06 71.6641V81H3498.37ZM3518.02 81V69.1055H3513.77V66.6836H3525.15V69.1055H3520.91V81H3518.02ZM3529.02 81V66.6836H3533.66C3535.42 66.6836 3536.56 66.7552 3537.1 66.8984C3537.92 67.1133 3538.6 67.582 3539.16 68.3047C3539.71 69.0208 3539.99 69.9486 3539.99 71.0879C3539.99 71.9668 3539.83 72.7057 3539.51 73.3047C3539.19 73.9036 3538.78 74.3757 3538.29 74.7207C3537.8 75.0592 3537.3 75.2839 3536.79 75.3945C3536.1 75.5312 3535.11 75.5996 3533.8 75.5996H3531.91V81H3529.02ZM3531.91 69.1055V73.168H3533.49C3534.63 73.168 3535.4 73.0931 3535.78 72.9434C3536.16 72.7936 3536.46 72.5592 3536.68 72.2402C3536.9 71.9212 3537.01 71.5501 3537.01 71.127C3537.01 70.6061 3536.86 70.1764 3536.55 69.8379C3536.24 69.4993 3535.86 69.2878 3535.39 69.2031C3535.04 69.138 3534.35 69.1055 3533.31 69.1055H3531.91ZM3544.36 81V66.6836H3554.98V69.1055H3547.25V72.2793H3554.44V74.6914H3547.25V78.5879H3555.25V81H3544.36Z" fill="#949494"/>
<rect x="3950" y="479" width="120" height="30" fill="#D9D9D9"/>
<path d="M3970.73 500H3967.58L3966.33 496.748H3960.61L3959.43 500H3956.36L3961.94 485.684H3965L3970.73 500ZM3965.41 494.336L3963.43 489.023L3961.5 494.336H3965.41ZM3976.2 500V493.975L3970.95 485.684H3974.34L3977.71 491.348L3981.01 485.684H3984.34L3979.08 493.994V500H3976.2ZM3998.85 500H3995.71L3994.46 496.748H3988.73L3987.55 500H3984.48L3990.06 485.684H3993.12L3998.85 500ZM3993.53 494.336L3991.55 489.023L3989.62 494.336H3993.53ZM4001.15 500V497.393L4008.67 488.105H4002V485.684H4012.48V487.93L4004.64 497.588H4012.78V500H4001.15ZM4029.53 500H4026.38L4025.13 496.748H4019.41L4018.23 500H4015.16L4020.74 485.684H4023.8L4029.53 500ZM4024.21 494.336L4022.23 489.023L4020.3 494.336H4024.21ZM4039.73 494.736V492.324H4045.96V498.027C4045.36 498.613 4044.48 499.131 4043.33 499.58C4042.18 500.023 4041.02 500.244 4039.84 500.244C4038.34 500.244 4037.04 499.932 4035.92 499.307C4034.81 498.675 4033.97 497.777 4033.41 496.611C4032.85 495.439 4032.57 494.167 4032.57 492.793C4032.57 491.302 4032.89 489.977 4033.51 488.818C4034.14 487.66 4035.05 486.771 4036.26 486.152C4037.17 485.677 4038.32 485.439 4039.68 485.439C4041.46 485.439 4042.85 485.814 4043.84 486.562C4044.85 487.305 4045.49 488.333 4045.78 489.648L4042.91 490.186C4042.7 489.482 4042.32 488.929 4041.76 488.525C4041.21 488.115 4040.52 487.91 4039.68 487.91C4038.42 487.91 4037.41 488.311 4036.67 489.111C4035.92 489.912 4035.55 491.1 4035.55 492.676C4035.55 494.375 4035.93 495.651 4036.69 496.504C4037.44 497.35 4038.43 497.773 4039.65 497.773C4040.26 497.773 4040.87 497.656 4041.47 497.422C4042.08 497.181 4042.61 496.891 4043.04 496.553V494.736H4039.73ZM4041.57 482.07H4042.91C4042.83 482.956 4042.52 483.652 4041.97 484.16C4041.43 484.661 4040.73 484.912 4039.86 484.912C4038.99 484.912 4038.29 484.661 4037.74 484.16C4037.2 483.652 4036.89 482.956 4036.81 482.07H4038.15C4038.2 482.533 4038.36 482.884 4038.64 483.125C4038.92 483.359 4039.33 483.477 4039.86 483.477C4040.39 483.477 4040.8 483.359 4041.08 483.125C4041.36 482.884 4041.52 482.533 4041.57 482.07ZM4063.55 500H4060.4L4059.15 496.748H4053.43L4052.25 500H4049.18L4054.76 485.684H4057.82L4063.55 500ZM4058.23 494.336L4056.25 489.023L4054.32 494.336H4058.23Z" fill="#949494"/>
<rect x="4250" y="479" width="120" height="30" fill="#D9D9D9"/>
<path d="M4300.69 500H4297.54L4296.29 496.748H4290.57L4289.39 500H4286.32L4291.9 485.684H4294.95L4300.69 500ZM4295.36 494.336L4293.39 489.023L4291.46 494.336H4295.36ZM4303.64 492.93C4303.64 491.471 4303.86 490.247 4304.3 489.258C4304.62 488.529 4305.07 487.874 4305.62 487.295C4306.19 486.715 4306.81 486.286 4307.48 486.006C4308.37 485.628 4309.4 485.439 4310.57 485.439C4312.68 485.439 4314.36 486.094 4315.62 487.402C4316.89 488.711 4317.53 490.531 4317.53 492.861C4317.53 495.173 4316.9 496.982 4315.64 498.291C4314.39 499.593 4312.71 500.244 4310.61 500.244C4308.48 500.244 4306.78 499.596 4305.53 498.301C4304.27 496.999 4303.64 495.208 4303.64 492.93ZM4306.62 492.832C4306.62 494.453 4307 495.684 4307.74 496.523C4308.49 497.357 4309.44 497.773 4310.6 497.773C4311.75 497.773 4312.69 497.36 4313.43 496.533C4314.17 495.7 4314.54 494.453 4314.54 492.793C4314.54 491.152 4314.18 489.928 4313.46 489.121C4312.74 488.314 4311.79 487.91 4310.6 487.91C4309.4 487.91 4308.44 488.32 4307.71 489.141C4306.99 489.954 4306.62 491.185 4306.62 492.832ZM4321.06 495.342L4323.88 495.068C4324.04 496.012 4324.39 496.706 4324.9 497.148C4325.42 497.591 4326.12 497.812 4327 497.812C4327.93 497.812 4328.63 497.617 4329.1 497.227C4329.57 496.829 4329.81 496.367 4329.81 495.84C4329.81 495.501 4329.71 495.215 4329.51 494.98C4329.31 494.74 4328.97 494.531 4328.47 494.355C4328.14 494.238 4327.36 494.03 4326.16 493.73C4324.61 493.346 4323.52 492.874 4322.9 492.314C4322.02 491.527 4321.58 490.566 4321.58 489.434C4321.58 488.704 4321.79 488.024 4322.2 487.393C4322.61 486.755 4323.21 486.27 4323.98 485.938C4324.76 485.605 4325.7 485.439 4326.8 485.439C4328.6 485.439 4329.95 485.833 4330.86 486.621C4331.77 487.409 4332.25 488.46 4332.29 489.775L4329.4 489.902C4329.28 489.167 4329.01 488.639 4328.6 488.32C4328.2 487.995 4327.59 487.832 4326.78 487.832C4325.94 487.832 4325.28 488.005 4324.8 488.35C4324.5 488.571 4324.34 488.867 4324.34 489.238C4324.34 489.577 4324.49 489.867 4324.77 490.107C4325.14 490.413 4326.02 490.732 4327.43 491.064C4328.84 491.396 4329.87 491.742 4330.54 492.1C4331.22 492.451 4331.75 492.936 4332.13 493.555C4332.51 494.167 4332.7 494.925 4332.7 495.83C4332.7 496.65 4332.48 497.419 4332.02 498.135C4331.56 498.851 4330.92 499.385 4330.09 499.736C4329.25 500.081 4328.21 500.254 4326.97 500.254C4325.16 500.254 4323.77 499.837 4322.8 499.004C4321.83 498.164 4321.25 496.943 4321.06 495.342Z" fill="#949494"/>
<rect x="4650" y="479" width="120" height="30" fill="#D9D9D9"/>
<path d="M4656.53 485.684H4661.81C4663 485.684 4663.91 485.775 4664.54 485.957C4665.38 486.204 4666.1 486.644 4666.7 487.275C4667.29 487.907 4667.75 488.682 4668.06 489.6C4668.38 490.511 4668.53 491.637 4668.53 492.979C4668.53 494.157 4668.38 495.173 4668.09 496.025C4667.73 497.067 4667.22 497.91 4666.56 498.555C4666.06 499.043 4665.38 499.424 4664.53 499.697C4663.89 499.899 4663.04 500 4661.97 500H4656.53V485.684ZM4659.42 488.105V497.588H4661.58C4662.39 497.588 4662.97 497.542 4663.33 497.451C4663.79 497.334 4664.18 497.135 4664.49 496.855C4664.8 496.576 4665.05 496.117 4665.25 495.479C4665.45 494.834 4665.54 493.958 4665.54 492.852C4665.54 491.745 4665.45 490.895 4665.25 490.303C4665.05 489.71 4664.78 489.248 4664.43 488.916C4664.08 488.584 4663.63 488.359 4663.09 488.242C4662.69 488.151 4661.9 488.105 4660.72 488.105H4659.42ZM4685.9 500H4682.76L4681.51 496.748H4675.79L4674.6 500H4671.54L4677.11 485.684H4680.17L4685.9 500ZM4680.58 494.336L4678.61 489.023L4676.67 494.336H4680.58ZM4689.46 500V485.684H4695.54C4697.07 485.684 4698.18 485.814 4698.87 486.074C4699.57 486.328 4700.12 486.784 4700.54 487.441C4700.96 488.099 4701.16 488.851 4701.16 489.697C4701.16 490.771 4700.85 491.66 4700.22 492.363C4699.59 493.06 4698.64 493.499 4697.38 493.682C4698.01 494.046 4698.52 494.447 4698.93 494.883C4699.34 495.319 4699.89 496.094 4700.58 497.207L4702.33 500H4698.87L4696.78 496.885C4696.04 495.771 4695.53 495.072 4695.26 494.785C4694.98 494.492 4694.69 494.294 4694.39 494.189C4694.08 494.079 4693.6 494.023 4692.93 494.023H4692.35V500H4689.46ZM4692.35 491.738H4694.48C4695.87 491.738 4696.74 491.68 4697.08 491.562C4697.43 491.445 4697.7 491.243 4697.89 490.957C4698.09 490.671 4698.19 490.312 4698.19 489.883C4698.19 489.401 4698.06 489.014 4697.79 488.721C4697.54 488.421 4697.18 488.232 4696.71 488.154C4696.48 488.122 4695.77 488.105 4694.6 488.105H4692.35V491.738ZM4705.17 495.342L4707.98 495.068C4708.15 496.012 4708.49 496.706 4709 497.148C4709.52 497.591 4710.22 497.812 4711.1 497.812C4712.03 497.812 4712.73 497.617 4713.2 497.227C4713.68 496.829 4713.92 496.367 4713.92 495.84C4713.92 495.501 4713.82 495.215 4713.61 494.98C4713.42 494.74 4713.07 494.531 4712.58 494.355C4712.24 494.238 4711.47 494.03 4710.26 493.73C4708.71 493.346 4707.63 492.874 4707 492.314C4706.12 491.527 4705.68 490.566 4705.68 489.434C4705.68 488.704 4705.89 488.024 4706.3 487.393C4706.72 486.755 4707.31 486.27 4708.09 485.938C4708.87 485.605 4709.81 485.439 4710.91 485.439C4712.71 485.439 4714.06 485.833 4714.96 486.621C4715.87 487.409 4716.35 488.46 4716.4 489.775L4713.51 489.902C4713.38 489.167 4713.12 488.639 4712.71 488.32C4712.3 487.995 4711.69 487.832 4710.88 487.832C4710.04 487.832 4709.38 488.005 4708.91 488.35C4708.6 488.571 4708.45 488.867 4708.45 489.238C4708.45 489.577 4708.59 489.867 4708.88 490.107C4709.24 490.413 4710.13 490.732 4711.53 491.064C4712.94 491.396 4713.98 491.742 4714.65 492.1C4715.33 492.451 4715.85 492.936 4716.23 493.555C4716.61 494.167 4716.81 494.925 4716.81 495.83C4716.81 496.65 4716.58 497.419 4716.12 498.135C4715.67 498.851 4715.02 499.385 4714.19 499.736C4713.36 500.081 4712.32 500.254 4711.07 500.254C4709.26 500.254 4707.87 499.837 4706.9 499.004C4705.93 498.164 4705.35 496.943 4705.17 495.342ZM4708.46 503.936V502.783C4709.13 502.855 4709.74 502.891 4710.3 502.891C4710.88 502.891 4711.31 502.786 4711.59 502.578C4711.81 502.422 4711.91 502.22 4711.91 501.973C4711.91 501.751 4711.81 501.559 4711.61 501.396C4711.41 501.234 4711.1 501.152 4710.67 501.152C4710.26 501.152 4709.83 501.217 4709.39 501.348L4709.65 500.381C4710.16 500.205 4710.7 500.117 4711.29 500.117C4712.1 500.117 4712.72 500.296 4713.14 500.654C4713.57 501.012 4713.78 501.449 4713.78 501.963C4713.78 502.536 4713.54 503.001 4713.08 503.359C4712.44 503.848 4711.54 504.092 4710.36 504.092C4709.52 504.092 4708.89 504.04 4708.46 503.936ZM4721.26 500V485.684H4731.07V488.105H4724.15V491.494H4730.12V493.916H4724.15V500H4721.26ZM4735.5 500V485.684H4738.39V492.041L4744.23 485.684H4748.12L4742.73 491.26L4748.41 500H4744.67L4740.74 493.281L4738.39 495.674V500H4735.5ZM4764.83 500H4761.68L4760.43 496.748H4754.71L4753.53 500H4750.46L4756.04 485.684H4759.1L4764.83 500ZM4759.51 494.336L4757.53 489.023L4755.6 494.336H4759.51Z" fill="#949494"/>
<rect x="5000" y="479" width="120" height="30" fill="#D9D9D9"/>
<path d="M5004.33 500V485.684H5007.22V491.318H5012.89V485.684H5015.78V500H5012.89V493.74H5007.22V500H5004.33ZM5033.69 500H5030.54L5029.29 496.748H5023.57L5022.39 500H5019.32L5024.9 485.684H5027.95L5033.69 500ZM5028.36 494.336L5026.39 489.023L5024.46 494.336H5028.36ZM5046.39 494.736L5049.19 495.625C5048.76 497.188 5048.05 498.35 5047.04 499.111C5046.05 499.867 5044.78 500.244 5043.24 500.244C5041.34 500.244 5039.78 499.596 5038.56 498.301C5037.33 496.999 5036.72 495.221 5036.72 492.969C5036.72 490.586 5037.34 488.737 5038.57 487.422C5039.8 486.1 5041.41 485.439 5043.42 485.439C5045.17 485.439 5046.59 485.957 5047.69 486.992C5048.34 487.604 5048.83 488.483 5049.15 489.629L5046.29 490.312C5046.12 489.57 5045.77 488.984 5045.23 488.555C5044.69 488.125 5044.04 487.91 5043.27 487.91C5042.21 487.91 5041.35 488.291 5040.69 489.053C5040.03 489.814 5039.7 491.048 5039.7 492.754C5039.7 494.564 5040.02 495.853 5040.68 496.621C5041.33 497.389 5042.17 497.773 5043.21 497.773C5043.98 497.773 5044.64 497.529 5045.2 497.041C5045.75 496.553 5046.15 495.785 5046.39 494.736ZM5052.95 495.342L5055.76 495.068C5055.93 496.012 5056.27 496.706 5056.79 497.148C5057.31 497.591 5058.01 497.812 5058.89 497.812C5059.82 497.812 5060.52 497.617 5060.99 497.227C5061.46 496.829 5061.7 496.367 5061.7 495.84C5061.7 495.501 5061.6 495.215 5061.4 494.98C5061.2 494.74 5060.86 494.531 5060.36 494.355C5060.02 494.238 5059.25 494.03 5058.05 493.73C5056.5 493.346 5055.41 492.874 5054.79 492.314C5053.91 491.527 5053.47 490.566 5053.47 489.434C5053.47 488.704 5053.67 488.024 5054.08 487.393C5054.5 486.755 5055.09 486.27 5055.87 485.938C5056.65 485.605 5057.59 485.439 5058.69 485.439C5060.49 485.439 5061.84 485.833 5062.74 486.621C5063.66 487.409 5064.13 488.46 5064.18 489.775L5061.29 489.902C5061.17 489.167 5060.9 488.639 5060.49 488.32C5060.08 487.995 5059.48 487.832 5058.66 487.832C5057.82 487.832 5057.16 488.005 5056.69 488.35C5056.38 488.571 5056.23 488.867 5056.23 489.238C5056.23 489.577 5056.37 489.867 5056.66 490.107C5057.02 490.413 5057.91 490.732 5059.32 491.064C5060.72 491.396 5061.76 491.742 5062.43 492.1C5063.11 492.451 5063.64 492.936 5064.01 493.555C5064.4 494.167 5064.59 494.925 5064.59 495.83C5064.59 496.65 5064.36 497.419 5063.91 498.135C5063.45 498.851 5062.81 499.385 5061.97 499.736C5061.14 500.081 5060.1 500.254 5058.86 500.254C5057.05 500.254 5055.66 499.837 5054.69 499.004C5053.72 498.164 5053.14 496.943 5052.95 495.342ZM5068.98 500V485.684H5073.31L5075.91 495.449L5078.47 485.684H5082.81V500H5080.12V488.73L5077.28 500H5074.5L5071.67 488.73V500H5068.98ZM5100.59 500H5097.45L5096.2 496.748H5090.47L5089.29 500H5086.23L5091.8 485.684H5094.86L5100.59 500ZM5095.27 494.336L5093.3 489.023L5091.36 494.336H5095.27ZM5104.16 500V485.684H5106.98L5112.84 495.244V485.684H5115.52V500H5112.62L5106.85 490.664V500H5104.16Z" fill="#949494"/>
<rect x="5200" y="479" width="120" height="30" fill="#D9D9D9"/>
<path d="M5212.28 494.736L5215.08 495.625C5214.65 497.188 5213.93 498.35 5212.93 499.111C5211.94 499.867 5210.67 500.244 5209.13 500.244C5207.23 500.244 5205.67 499.596 5204.45 498.301C5203.22 496.999 5202.61 495.221 5202.61 492.969C5202.61 490.586 5203.22 488.737 5204.46 487.422C5205.69 486.1 5207.3 485.439 5209.31 485.439C5211.06 485.439 5212.48 485.957 5213.58 486.992C5214.23 487.604 5214.72 488.483 5215.04 489.629L5212.18 490.312C5212.01 489.57 5211.66 488.984 5211.12 488.555C5210.58 488.125 5209.93 487.91 5209.16 487.91C5208.1 487.91 5207.24 488.291 5206.57 489.053C5205.92 489.814 5205.59 491.048 5205.59 492.754C5205.59 494.564 5205.91 495.853 5206.56 496.621C5207.22 497.389 5208.06 497.773 5209.1 497.773C5209.87 497.773 5210.53 497.529 5211.09 497.041C5211.64 496.553 5212.04 495.785 5212.28 494.736ZM5206.2 503.936V502.783C5206.87 502.855 5207.49 502.891 5208.05 502.891C5208.63 502.891 5209.06 502.786 5209.34 502.578C5209.55 502.422 5209.66 502.22 5209.66 501.973C5209.66 501.751 5209.56 501.559 5209.36 501.396C5209.16 501.234 5208.84 501.152 5208.42 501.152C5208 501.152 5207.58 501.217 5207.14 501.348L5207.39 500.381C5207.9 500.205 5208.45 500.117 5209.04 500.117C5209.85 500.117 5210.47 500.296 5210.89 500.654C5211.31 501.012 5211.53 501.449 5211.53 501.963C5211.53 502.536 5211.29 503.001 5210.82 503.359C5210.19 503.848 5209.29 504.092 5208.11 504.092C5207.27 504.092 5206.63 504.04 5206.2 503.936ZM5232.48 500H5229.34L5228.09 496.748H5222.36L5221.18 500H5218.12L5223.69 485.684H5226.75L5232.48 500ZM5227.16 494.336L5225.19 489.023L5223.25 494.336H5227.16ZM5237.95 500V493.975L5232.7 485.684H5236.09L5239.46 491.348L5242.76 485.684H5246.09L5240.83 493.994V500H5237.95ZM5249.54 500V485.684H5255.62C5257.15 485.684 5258.26 485.814 5258.95 486.074C5259.65 486.328 5260.2 486.784 5260.62 487.441C5261.04 488.099 5261.25 488.851 5261.25 489.697C5261.25 490.771 5260.93 491.66 5260.3 492.363C5259.67 493.06 5258.72 493.499 5257.47 493.682C5258.09 494.046 5258.61 494.447 5259.01 494.883C5259.42 495.319 5259.97 496.094 5260.66 497.207L5262.41 500H5258.95L5256.86 496.885C5256.12 495.771 5255.61 495.072 5255.34 494.785C5255.06 494.492 5254.77 494.294 5254.47 494.189C5254.16 494.079 5253.68 494.023 5253.01 494.023H5252.43V500H5249.54ZM5252.43 491.738H5254.57C5255.95 491.738 5256.82 491.68 5257.16 491.562C5257.51 491.445 5257.78 491.243 5257.97 490.957C5258.17 490.671 5258.27 490.312 5258.27 489.883C5258.27 489.401 5258.14 489.014 5257.88 488.721C5257.62 488.421 5257.26 488.232 5256.79 488.154C5256.56 488.122 5255.86 488.105 5254.68 488.105H5252.43V491.738ZM5265.99 485.684H5271.71C5272.85 485.684 5273.69 485.732 5274.24 485.83C5274.8 485.921 5275.3 486.117 5275.74 486.416C5276.18 486.715 5276.55 487.116 5276.84 487.617C5277.13 488.112 5277.28 488.669 5277.28 489.287C5277.28 489.958 5277.1 490.573 5276.73 491.133C5276.37 491.693 5275.89 492.113 5275.27 492.393C5276.14 492.646 5276.81 493.079 5277.28 493.691C5277.75 494.303 5277.98 495.023 5277.98 495.85C5277.98 496.501 5277.83 497.135 5277.52 497.754C5277.22 498.366 5276.81 498.857 5276.28 499.229C5275.76 499.593 5275.12 499.818 5274.35 499.902C5273.87 499.954 5272.71 499.987 5270.86 500H5265.99V485.684ZM5268.88 488.066V491.377H5270.78C5271.9 491.377 5272.6 491.361 5272.88 491.328C5273.37 491.27 5273.76 491.1 5274.04 490.82C5274.32 490.534 5274.47 490.16 5274.47 489.697C5274.47 489.255 5274.34 488.896 5274.1 488.623C5273.85 488.343 5273.49 488.174 5273.01 488.115C5272.73 488.083 5271.9 488.066 5270.54 488.066H5268.88ZM5268.88 493.76V497.588H5271.56C5272.6 497.588 5273.26 497.559 5273.54 497.5C5273.97 497.422 5274.32 497.233 5274.58 496.934C5274.86 496.628 5274.99 496.221 5274.99 495.713C5274.99 495.283 5274.89 494.919 5274.68 494.619C5274.47 494.32 5274.17 494.102 5273.77 493.965C5273.38 493.828 5272.53 493.76 5271.21 493.76H5268.88ZM5295.34 500H5292.2L5290.95 496.748H5285.23L5284.04 500H5280.98L5286.55 485.684H5289.61L5295.34 500ZM5290.02 494.336L5288.05 489.023L5286.12 494.336H5290.02ZM5298.15 495.342L5300.97 495.068C5301.14 496.012 5301.48 496.706 5301.99 497.148C5302.51 497.591 5303.21 497.812 5304.09 497.812C5305.02 497.812 5305.72 497.617 5306.19 497.227C5306.67 496.829 5306.9 496.367 5306.9 495.84C5306.9 495.501 5306.8 495.215 5306.6 494.98C5306.41 494.74 5306.06 494.531 5305.57 494.355C5305.23 494.238 5304.46 494.03 5303.25 493.73C5301.7 493.346 5300.62 492.874 5299.99 492.314C5299.11 491.527 5298.67 490.566 5298.67 489.434C5298.67 488.704 5298.88 488.024 5299.29 487.393C5299.7 486.755 5300.3 486.27 5301.07 485.938C5301.86 485.605 5302.8 485.439 5303.9 485.439C5305.69 485.439 5307.04 485.833 5307.95 486.621C5308.86 487.409 5309.34 488.46 5309.38 489.775L5306.49 489.902C5306.37 489.167 5306.1 488.639 5305.69 488.32C5305.29 487.995 5304.68 487.832 5303.87 487.832C5303.03 487.832 5302.37 488.005 5301.89 488.35C5301.59 488.571 5301.44 488.867 5301.44 489.238C5301.44 489.577 5301.58 489.867 5301.87 490.107C5302.23 490.413 5303.12 490.732 5304.52 491.064C5305.93 491.396 5306.97 491.742 5307.64 492.1C5308.31 492.451 5308.84 492.936 5309.22 493.555C5309.6 494.167 5309.79 494.925 5309.79 495.83C5309.79 496.65 5309.57 497.419 5309.11 498.135C5308.66 498.851 5308.01 499.385 5307.18 499.736C5306.34 500.081 5305.31 500.254 5304.06 500.254C5302.25 500.254 5300.86 499.837 5299.89 499.004C5298.92 498.164 5298.34 496.943 5298.15 495.342ZM5301.45 503.936V502.783C5302.12 502.855 5302.73 502.891 5303.29 502.891C5303.87 502.891 5304.3 502.786 5304.58 502.578C5304.79 502.422 5304.9 502.22 5304.9 501.973C5304.9 501.751 5304.8 501.559 5304.6 501.396C5304.4 501.234 5304.09 501.152 5303.66 501.152C5303.25 501.152 5302.82 501.217 5302.38 501.348L5302.64 500.381C5303.14 500.205 5303.69 500.117 5304.28 500.117C5305.09 500.117 5305.71 500.296 5306.13 500.654C5306.56 501.012 5306.77 501.449 5306.77 501.963C5306.77 502.536 5306.53 503.001 5306.06 503.359C5305.43 503.848 5304.53 504.092 5303.35 504.092C5302.51 504.092 5301.88 504.04 5301.45 503.936ZM5314.14 500V485.684H5317.03V500H5314.14Z" fill="#949494"/>
<rect x="5500" y="479" width="120" height="30" fill="#D9D9D9"/>
<path d="M5510.25 495.342L5513.06 495.068C5513.23 496.012 5513.57 496.706 5514.09 497.148C5514.61 497.591 5515.31 497.812 5516.19 497.812C5517.12 497.812 5517.82 497.617 5518.29 497.227C5518.76 496.829 5519 496.367 5519 495.84C5519 495.501 5518.9 495.215 5518.7 494.98C5518.5 494.74 5518.16 494.531 5517.66 494.355C5517.32 494.238 5516.55 494.03 5515.35 493.73C5513.8 493.346 5512.71 492.874 5512.09 492.314C5511.21 491.527 5510.77 490.566 5510.77 489.434C5510.77 488.704 5510.97 488.024 5511.38 487.393C5511.8 486.755 5512.4 486.27 5513.17 485.938C5513.95 485.605 5514.89 485.439 5515.99 485.439C5517.79 485.439 5519.14 485.833 5520.04 486.621C5520.96 487.409 5521.43 488.46 5521.48 489.775L5518.59 489.902C5518.47 489.167 5518.2 488.639 5517.79 488.32C5517.39 487.995 5516.78 487.832 5515.96 487.832C5515.12 487.832 5514.47 488.005 5513.99 488.35C5513.68 488.571 5513.53 488.867 5513.53 489.238C5513.53 489.577 5513.67 489.867 5513.96 490.107C5514.33 490.413 5515.21 490.732 5516.62 491.064C5518.02 491.396 5519.06 491.742 5519.73 492.1C5520.41 492.451 5520.94 492.936 5521.31 493.555C5521.7 494.167 5521.89 494.925 5521.89 495.83C5521.89 496.65 5521.66 497.419 5521.21 498.135C5520.75 498.851 5520.11 499.385 5519.27 499.736C5518.44 500.081 5517.4 500.254 5516.16 500.254C5514.35 500.254 5512.96 499.837 5511.99 499.004C5511.02 498.164 5510.44 496.943 5510.25 495.342ZM5539.23 500H5536.09L5534.84 496.748H5529.12L5527.93 500H5524.87L5530.44 485.684H5533.5L5539.23 500ZM5533.91 494.336L5531.94 489.023L5530 494.336H5533.91ZM5542.79 500V485.684H5548.87C5550.4 485.684 5551.51 485.814 5552.2 486.074C5552.9 486.328 5553.45 486.784 5553.87 487.441C5554.29 488.099 5554.49 488.851 5554.49 489.697C5554.49 490.771 5554.18 491.66 5553.55 492.363C5552.92 493.06 5551.97 493.499 5550.71 493.682C5551.34 494.046 5551.85 494.447 5552.26 494.883C5552.67 495.319 5553.22 496.094 5553.91 497.207L5555.66 500H5552.2L5550.11 496.885C5549.37 495.771 5548.86 495.072 5548.59 494.785C5548.31 494.492 5548.02 494.294 5547.72 494.189C5547.41 494.079 5546.93 494.023 5546.26 494.023H5545.68V500H5542.79ZM5545.68 491.738H5547.81C5549.2 491.738 5550.07 491.68 5550.41 491.562C5550.76 491.445 5551.03 491.243 5551.22 490.957C5551.42 490.671 5551.52 490.312 5551.52 489.883C5551.52 489.401 5551.39 489.014 5551.12 488.721C5550.87 488.421 5550.51 488.232 5550.04 488.154C5549.81 488.122 5549.1 488.105 5547.93 488.105H5545.68V491.738ZM5559.14 500V485.684H5562.03V500H5559.14ZM5570.55 500V493.975L5565.31 485.684H5568.7L5572.07 491.348L5575.37 485.684H5578.7L5573.44 493.994V500H5570.55ZM5582.13 500V485.684H5592.75V488.105H5585.03V491.279H5592.21V493.691H5585.03V497.588H5593.02V500H5582.13ZM5597.48 500V485.684H5603.57C5605.1 485.684 5606.21 485.814 5606.9 486.074C5607.6 486.328 5608.15 486.784 5608.57 487.441C5608.99 488.099 5609.19 488.851 5609.19 489.697C5609.19 490.771 5608.88 491.66 5608.25 492.363C5607.61 493.06 5606.67 493.499 5605.41 493.682C5606.04 494.046 5606.55 494.447 5606.96 494.883C5607.37 495.319 5607.92 496.094 5608.61 497.207L5610.36 500H5606.9L5604.81 496.885C5604.07 495.771 5603.56 495.072 5603.29 494.785C5603.01 494.492 5602.72 494.294 5602.42 494.189C5602.11 494.079 5601.62 494.023 5600.96 494.023H5600.38V500H5597.48ZM5600.38 491.738H5602.51C5603.9 491.738 5604.77 491.68 5605.11 491.562C5605.46 491.445 5605.73 491.243 5605.92 490.957C5606.12 490.671 5606.21 490.312 5606.21 489.883C5606.21 489.401 5606.08 489.014 5605.82 488.721C5605.57 488.421 5605.21 488.232 5604.74 488.154C5604.51 488.122 5603.8 488.105 5602.63 488.105H5600.38V491.738Z" fill="#949494"/>
<rect x="981" y="452" width="109" height="10" transform="rotate(45 981 452)" fill="#949494"/>
<rect x="862" y="528.997" width="109" height="10" transform="rotate(-45 862 528.997)" fill="#949494"/>
<rect x="4544" y="452" width="109" height="10" transform="rotate(45 4544 452)" fill="#949494"/>
<rect x="4425" y="528.997" width="109" height="10" transform="rotate(-45 4425 528.997)" fill="#949494"/>
<rect x="4140" y="452" width="109" height="10" transform="rotate(45 4140 452)" fill="#949494"/>
<rect x="1260" y="528.997" width="109" height="10" transform="rotate(-45 1260 528.997)" fill="#949494"/>
<line x1="275" y1="455" x2="445" y2="455" stroke="#949494" stroke-width="10"/>
<rect x="200" y="529.997" width="109" height="10" transform="rotate(-45 200 529.997)" fill="#949494"/>
<rect x="439" y="449.997" width="109" height="10" transform="rotate(-45 439 449.997)" fill="#949494"/>
<rect x="207" y="373" width="109" height="10" transform="rotate(45 207 373)" fill="#949494"/>
<rect x="446" y="453" width="109" height="10" transform="rotate(45 446 453)" fill="#949494"/>
<path d="M2270 459.071L2277.07 452L2354.15 529.075L2347.07 536.146L2270 459.071Z" fill="#949494"/>
<path d="M2347.07 452L2354.15 459.071L2277.07 536.146L2270 529.075L2347.07 452Z" fill="#949494"/>
<path d="M3240 459.071L3247.07 452L3324.15 529.075L3317.07 536.146L3240 459.071Z" fill="#949494"/>
<path d="M3317.07 452L3324.15 459.071L3247.07 536.146L3240 529.075L3317.07 452Z" fill="#949494"/>
<path d="M4840 459.071L4847.07 452L4924.15 529.075L4917.07 536.146L4840 459.071Z" fill="#949494"/>
<path d="M4917.07 452L4924.15 459.071L4847.07 536.146L4840 529.075L4917.07 452Z" fill="#949494"/>
<path d="M2950 459.071L2957.07 452L3034.15 529.075L3027.07 536.146L2950 459.071Z" fill="#949494"/>
<path d="M3846 459.071L3853.07 452L3930.15 529.075L3923.07 536.146L3846 459.071Z" fill="#949494"/>
<path d="M5380 459.071L5387.07 452L5464.15 529.075L5457.07 536.146L5380 459.071Z" fill="#949494"/>
<path d="M5457.07 452L5464.15 459.071L5387.07 536.146L5380 529.075L5457.07 452Z" fill="#949494"/>
<path d="M3688 286.071L3695.07 279L3772.15 356.075L3765.07 363.146L3688 286.071Z" fill="#949494"/>
<path d="M3765.07 279L3772.15 286.071L3695.07 363.146L3688 356.075L3765.07 279Z" fill="#949494"/>
<path d="M3568.94 37.0344L3576.01 29.9634L3749.01 202.966L3741.94 210.037L3568.94 37.0344Z" fill="#949494"/>
<path d="M3649.07 32.9999L3656.15 40.071L3579.07 117.146L3572 110.075L3649.07 32.9999Z" fill="#949494"/>
<line x1="1570" y1="494" x2="1670" y2="494" stroke="#949494" stroke-width="10"/>
<rect x="1665" y="489" width="52.5" height="10" transform="rotate(-45 1665 489)" fill="#949494"/>
<rect x="1672.07" y="491.877" width="52.5" height="10" transform="rotate(45 1672.07 491.877)" fill="#949494"/>
<line x1="1919" y1="494" x2="2019" y2="494" stroke="#949494" stroke-width="10"/>
<rect x="2014" y="489" width="52.5" height="10" transform="rotate(-45 2014 489)" fill="#949494"/>
<rect x="1880" y="529" width="52.5" height="10" transform="rotate(-45 1880 529)" fill="#949494"/>
<rect x="2021.07" y="491.877" width="52.5" height="10" transform="rotate(45 2021.07 491.877)" fill="#949494"/>
<rect x="1887.07" y="451.877" width="52.5" height="10" transform="rotate(45 1887.07 451.877)" fill="#949494"/>
<line x1="3100" y1="424" x2="3375" y2="424" stroke="#949494" stroke-width="10"/>
<path d="M3565.96 223.894L3573.03 230.965L3375 428.996L3367.93 421.925L3565.96 223.894Z" fill="#949494"/>
<path d="M3342.99 390.083L3350.06 383.012L3379.01 411.966L3371.94 419.037L3342.99 390.083Z" fill="#949494"/>
<path d="M3371.97 354.06L3379.04 346.989L3397.01 364.966L3389.94 372.037L3371.97 354.06Z" fill="#949494"/>
<path d="M3428.97 300.06L3436.04 292.989L3454.01 310.966L3446.94 318.037L3428.97 300.06Z" fill="#949494"/>
<path d="M3393.97 264.06L3401.04 256.989L3419.01 274.966L3411.94 282.037L3393.97 264.06Z" fill="#949494"/>
<path d="M3289.92 174.012L3296.99 166.941L3316.01 185.966L3308.94 193.037L3289.92 174.012Z" fill="#949494"/>
<path d="M3312.31 120.407L3319.38 113.336L3355.01 148.966L3347.94 156.037L3312.31 120.407Z" fill="#949494"/>
<path d="M3367.97 120.067L3375.04 112.995L3396.02 133.97L3388.95 141.041L3367.97 120.067Z" fill="#949494"/>
<path d="M3440.98 246.076L3448.05 239.005L3484.01 274.966L3476.94 282.037L3440.98 246.076Z" fill="#949494"/>
<path d="M3509.98 192.076L3517.05 185.005L3553.01 220.966L3545.94 228.037L3509.98 192.076Z" fill="#949494"/>
<path d="M3510 156.071L3517.07 149L3574.02 205.951L3566.95 213.022L3510 156.071Z" fill="#949494"/>
<path d="M3514.99 138.061L3522.06 130.99L3580.04 188.972L3572.97 196.043L3514.99 138.061Z" fill="#949494"/>
<path d="M3410.94 313.989L3418.01 321.06L3400.04 339.037L3392.97 331.966L3410.94 313.989Z" fill="#949494"/>
<path d="M3364.99 151.937L3372.07 159.008L3318.04 213.037L3310.97 205.966L3364.99 151.937Z" fill="#949494"/>
<line x1="3100" y1="352" x2="3379" y2="352" stroke="#949494" stroke-width="10"/>
<line x1="3100" y1="370" x2="3425" y2="370" stroke="#949494" stroke-width="10"/>
<line x1="3100" y1="388" x2="3350" y2="388" stroke="#949494" stroke-width="10"/>
<line x1="3100" y1="406" x2="3365" y2="406" stroke="#949494" stroke-width="10"/>
<line x1="3100" y1="334" x2="3400" y2="334" stroke="#949494" stroke-width="10"/>
<line x1="3100" y1="316" x2="3479" y2="316" stroke="#949494" stroke-width="10"/>
<line x1="3100" y1="298" x2="3436" y2="298" stroke="#949494" stroke-width="10"/>
<line x1="3100" y1="280" x2="3515" y2="280" stroke="#949494" stroke-width="10"/>
<line x1="3100" y1="262" x2="3401" y2="262" stroke="#949494" stroke-width="10"/>
<line x1="3100" y1="244" x2="3448" y2="244" stroke="#949494" stroke-width="10"/>
<line x1="3100" y1="226" x2="3676" y2="226" stroke="#949494" stroke-width="10"/>
<line x1="3100" y1="208" x2="3318" y2="208" stroke="#949494" stroke-width="10"/>
<line x1="3378" y1="208" x2="3534" y2="208" stroke="#949494" stroke-width="10"/>
<line x1="3567" y1="208" x2="3755" y2="208" stroke="#949494" stroke-width="10"/>
<line x1="3573" y1="191" x2="3730" y2="191" stroke="#949494" stroke-width="10"/>
<line x1="3100" y1="190" x2="3332" y2="190" stroke="#949494" stroke-width="10"/>
<line x1="3378" y1="190" x2="3517" y2="190" stroke="#949494" stroke-width="10"/>
<line x1="3100" y1="172" x2="3298" y2="172" stroke="#949494" stroke-width="10"/>
<line x1="3100" y1="154" x2="3517" y2="154" stroke="#949494" stroke-width="10"/>
<line x1="3100" y1="136" x2="3334" y2="136" stroke="#949494" stroke-width="10"/>
<line x1="3389" y1="136" x2="3522" y2="136" stroke="#949494" stroke-width="10"/>
<line x1="3100" y1="118" x2="3375" y2="118" stroke="#949494" stroke-width="10"/>
<path d="M3669 228.095L3676.07 221.024L3695.01 239.966L3687.94 247.037L3669 228.095Z" fill="#949494"/>
<line x1="701.622" y1="454" x2="5680" y2="454" stroke="#949494" stroke-width="10"/>
<line x1="80" y1="375" x2="620.703" y2="375" stroke="#949494" stroke-width="10"/>
<rect width="120.679" height="10.4127" transform="matrix(0.734099 0.679042 -0.734099 0.679042 620.617 370)" fill="#949494"/>
<line x1="80" y1="534" x2="5680" y2="534" stroke="#949494" stroke-width="10"/>
<path d="M3685.07 372L3692.15 379.071L3615.07 456.146L3608 449.075L3685.07 372Z" fill="#949494"/>
<path d="M3748 210.095L3755.07 203.024L3774.01 221.966L3766.94 229.037L3748 210.095Z" fill="#949494"/>
<path d="M3612 117.069L3619.07 109.998L3695.04 185.972L3687.97 193.043L3612 117.069Z" fill="#949494"/>
<path d="M3763.98 416.05L3771.05 408.979L3811.04 448.964L3803.96 456.035L3763.98 416.05Z" fill="#949494"/>
<line x1="3769" y1="416.012" x2="3769" y2="222.012" stroke="#949494" stroke-width="10"/>
<line x1="3443" y1="115" x2="3619" y2="115" stroke="#949494" stroke-width="10"/>
<path d="M3360 537.071L3367.07 530L3449.01 611.941L3441.94 619.012L3360 537.071Z" fill="#949494"/>
<line x1="3442" y1="614" x2="3658" y2="614" stroke="#949494" stroke-width="10"/>
<line x1="3733" y1="394" x2="3793" y2="394" stroke="#949494" stroke-width="10"/>
<path d="M3687.96 575L3695.03 582.071L3658.07 619.035L3651 611.964L3687.96 575Z" fill="#949494"/>
<path d="M3732.97 388.998L3740.04 396.069L3695.07 441.035L3688 433.964L3732.97 388.998Z" fill="#949494"/>
<path d="M3804.94 373.024L3812.01 380.095L3793.07 399.037L3786 391.966L3804.94 373.024Z" fill="#949494"/>
<path d="M3670.94 37.0345L3678.01 29.9634L3812.08 164.037L3805.01 171.108L3670.94 37.0345Z" fill="#949494"/>
<line x1="3690.08" y1="582.012" x2="3690.08" y2="240.012" stroke="#949494" stroke-width="10"/>
<line x1="3807" y1="380.08" x2="3807" y2="164.08" stroke="#949494" stroke-width="10"/>
<line x1="3443" y1="35" x2="3678" y2="35" stroke="#949494" stroke-width="10"/>
<path d="M2994.04 426.109L3001.11 419.038L3034.15 452.075L3027.07 459.146L2994.04 426.109Z" fill="#949494"/>
<line x1="2841" y1="424" x2="3001" y2="424" stroke="#949494" stroke-width="10"/>
</svg>
