<svg width="943" height="200" viewBox="0 0 943 200" fill="none" xmlns="http://www.w3.org/2000/svg">
<path d="M100 100H837" stroke="#65BAAF" stroke-width="20"/>
<circle cx="100" cy="100" r="24" fill="#65BAAF"/>
<circle cx="843" cy="100" r="24" fill="#65BAAF"/>
<path d="M76.5886 58L76.5646 47.92L71.6206 56.224H69.8686L64.9486 48.136V58H61.3006V41.2H64.5166L70.8046 51.64L76.9966 41.2H80.1886L80.2366 58H76.5886ZM89.1665 44.896C91.1665 44.896 92.7025 45.376 93.7745 46.336C94.8465 47.28 95.3825 48.712 95.3825 50.632V58H91.8785V56.392C91.1745 57.592 89.8625 58.192 87.9425 58.192C86.9505 58.192 86.0865 58.024 85.3505 57.688C84.6305 57.352 84.0785 56.888 83.6945 56.296C83.3105 55.704 83.1185 55.032 83.1185 54.28C83.1185 53.08 83.5665 52.136 84.4625 51.448C85.3745 50.76 86.7745 50.416 88.6625 50.416H91.6385C91.6385 49.6 91.3905 48.976 90.8945 48.544C90.3985 48.096 89.6545 47.872 88.6625 47.872C87.9745 47.872 87.2945 47.984 86.6225 48.208C85.9665 48.416 85.4065 48.704 84.9425 49.072L83.5985 46.456C84.3025 45.96 85.1425 45.576 86.1185 45.304C87.1105 45.032 88.1265 44.896 89.1665 44.896ZM88.8785 55.672C89.5185 55.672 90.0865 55.528 90.5825 55.24C91.0785 54.936 91.4305 54.496 91.6385 53.92V52.6H89.0705C87.5345 52.6 86.7665 53.104 86.7665 54.112C86.7665 54.592 86.9505 54.976 87.3185 55.264C87.7025 55.536 88.2225 55.672 88.8785 55.672ZM105.152 58.192C103.776 58.192 102.536 57.912 101.432 57.352C100.344 56.776 99.4876 55.984 98.8636 54.976C98.2556 53.968 97.9516 52.824 97.9516 51.544C97.9516 50.264 98.2556 49.12 98.8636 48.112C99.4876 47.104 100.344 46.32 101.432 45.76C102.536 45.184 103.776 44.896 105.152 44.896C106.512 44.896 107.696 45.184 108.704 45.76C109.728 46.32 110.472 47.128 110.936 48.184L108.032 49.744C107.36 48.56 106.392 47.968 105.128 47.968C104.152 47.968 103.344 48.288 102.704 48.928C102.064 49.568 101.744 50.44 101.744 51.544C101.744 52.648 102.064 53.52 102.704 54.16C103.344 54.8 104.152 55.12 105.128 55.12C106.408 55.12 107.376 54.528 108.032 53.344L110.936 54.928C110.472 55.952 109.728 56.752 108.704 57.328C107.696 57.904 106.512 58.192 105.152 58.192ZM103.784 63.568C103.368 63.568 102.96 63.52 102.56 63.424C102.16 63.344 101.824 63.224 101.552 63.064L102.128 61.456C102.64 61.696 103.16 61.816 103.688 61.816C104.52 61.816 104.936 61.56 104.936 61.048C104.936 60.584 104.544 60.352 103.76 60.352H102.944L103.568 57.808H105.56L105.224 59.2C105.928 59.28 106.448 59.496 106.784 59.848C107.136 60.216 107.312 60.664 107.312 61.192C107.312 61.928 106.992 62.504 106.352 62.92C105.712 63.352 104.856 63.568 103.784 63.568ZM118.542 52.936L116.742 54.712V58H112.998V40.192H116.742V50.272L122.214 45.088H126.678L121.302 50.56L127.158 58H122.622L118.542 52.936ZM133.815 44.896C135.815 44.896 137.351 45.376 138.423 46.336C139.495 47.28 140.031 48.712 140.031 50.632V58H136.527V56.392C135.823 57.592 134.511 58.192 132.591 58.192C131.599 58.192 130.735 58.024 129.999 57.688C129.279 57.352 128.727 56.888 128.343 56.296C127.959 55.704 127.767 55.032 127.767 54.28C127.767 53.08 128.215 52.136 129.111 51.448C130.023 50.76 131.423 50.416 133.311 50.416H136.287C136.287 49.6 136.039 48.976 135.543 48.544C135.047 48.096 134.303 47.872 133.311 47.872C132.623 47.872 131.943 47.984 131.271 48.208C130.615 48.416 130.055 48.704 129.591 49.072L128.247 46.456C128.951 45.96 129.791 45.576 130.767 45.304C131.759 45.032 132.775 44.896 133.815 44.896ZM133.527 55.672C134.167 55.672 134.735 55.528 135.231 55.24C135.727 54.936 136.079 54.496 136.287 53.92V52.6H133.719C132.183 52.6 131.415 53.104 131.415 54.112C131.415 54.592 131.599 54.976 131.967 55.264C132.351 55.536 132.871 55.672 133.527 55.672Z" fill="black"/>
<path d="M798.726 44.368H793.35V41.2H807.99V44.368H802.614V58H798.726V44.368ZM814.37 44.896C816.37 44.896 817.906 45.376 818.978 46.336C820.05 47.28 820.586 48.712 820.586 50.632V58H817.082V56.392C816.378 57.592 815.066 58.192 813.146 58.192C812.154 58.192 811.29 58.024 810.554 57.688C809.834 57.352 809.282 56.888 808.898 56.296C808.514 55.704 808.322 55.032 808.322 54.28C808.322 53.08 808.77 52.136 809.666 51.448C810.578 50.76 811.978 50.416 813.866 50.416H816.842C816.842 49.6 816.594 48.976 816.098 48.544C815.602 48.096 814.858 47.872 813.866 47.872C813.178 47.872 812.498 47.984 811.826 48.208C811.17 48.416 810.61 48.704 810.146 49.072L808.802 46.456C809.506 45.96 810.346 45.576 811.322 45.304C812.314 45.032 813.33 44.896 814.37 44.896ZM814.082 55.672C814.722 55.672 815.29 55.528 815.786 55.24C816.282 54.936 816.634 54.496 816.842 53.92V52.6H814.274C812.738 52.6 811.97 53.104 811.97 54.112C811.97 54.592 812.154 54.976 812.522 55.264C812.906 55.536 813.426 55.672 814.082 55.672ZM828.318 58.192C827.246 58.192 826.198 58.064 825.174 57.808C824.15 57.536 823.334 57.2 822.726 56.8L823.974 54.112C824.55 54.48 825.246 54.784 826.062 55.024C826.878 55.248 827.678 55.36 828.462 55.36C830.046 55.36 830.838 54.968 830.838 54.184C830.838 53.816 830.622 53.552 830.19 53.392C829.758 53.232 829.094 53.096 828.198 52.984C827.142 52.824 826.27 52.64 825.582 52.432C824.894 52.224 824.294 51.856 823.782 51.328C823.286 50.8 823.038 50.048 823.038 49.072C823.038 48.256 823.27 47.536 823.734 46.912C824.214 46.272 824.902 45.776 825.798 45.424C826.71 45.072 827.782 44.896 829.014 44.896C829.926 44.896 830.83 45 831.726 45.208C832.638 45.4 833.39 45.672 833.982 46.024L832.734 48.688C831.598 48.048 830.358 47.728 829.014 47.728C828.214 47.728 827.614 47.84 827.214 48.064C826.814 48.288 826.614 48.576 826.614 48.928C826.614 49.328 826.83 49.608 827.262 49.768C827.694 49.928 828.382 50.08 829.326 50.224C830.382 50.4 831.246 50.592 831.918 50.8C832.59 50.992 833.174 51.352 833.67 51.88C834.166 52.408 834.414 53.144 834.414 54.088C834.414 54.888 834.174 55.6 833.694 56.224C833.214 56.848 832.51 57.336 831.582 57.688C830.67 58.024 829.582 58.192 828.318 58.192ZM827.718 63.568C827.302 63.568 826.894 63.52 826.494 63.424C826.094 63.344 825.758 63.224 825.486 63.064L826.062 61.456C826.574 61.696 827.094 61.816 827.622 61.816C828.454 61.816 828.87 61.56 828.87 61.048C828.87 60.584 828.478 60.352 827.694 60.352H826.878L827.502 57.808H829.494L829.158 59.2C829.862 59.28 830.382 59.496 830.718 59.848C831.07 60.216 831.246 60.664 831.246 61.192C831.246 61.928 830.926 62.504 830.286 62.92C829.646 63.352 828.79 63.568 827.718 63.568ZM842.268 52.936L840.468 54.712V58H836.724V40.192H840.468V50.272L845.94 45.088H850.404L845.028 50.56L850.884 58H846.348L842.268 52.936ZM852.474 45.088H856.218V58H852.474V45.088ZM864.037 58.192C862.965 58.192 861.917 58.064 860.893 57.808C859.869 57.536 859.053 57.2 858.445 56.8L859.693 54.112C860.269 54.48 860.965 54.784 861.781 55.024C862.597 55.248 863.397 55.36 864.181 55.36C865.765 55.36 866.557 54.968 866.557 54.184C866.557 53.816 866.341 53.552 865.909 53.392C865.477 53.232 864.813 53.096 863.917 52.984C862.861 52.824 861.989 52.64 861.301 52.432C860.613 52.224 860.013 51.856 859.501 51.328C859.005 50.8 858.757 50.048 858.757 49.072C858.757 48.256 858.989 47.536 859.453 46.912C859.933 46.272 860.621 45.776 861.517 45.424C862.429 45.072 863.501 44.896 864.733 44.896C865.645 44.896 866.549 45 867.445 45.208C868.357 45.4 869.109 45.672 869.701 46.024L868.453 48.688C867.317 48.048 866.077 47.728 864.733 47.728C863.933 47.728 863.333 47.84 862.933 48.064C862.533 48.288 862.333 48.576 862.333 48.928C862.333 49.328 862.549 49.608 862.981 49.768C863.413 49.928 864.101 50.08 865.045 50.224C866.101 50.4 866.965 50.592 867.637 50.8C868.309 50.992 868.893 51.352 869.389 51.88C869.885 52.408 870.133 53.144 870.133 54.088C870.133 54.888 869.893 55.6 869.413 56.224C868.933 56.848 868.229 57.336 867.301 57.688C866.389 58.024 865.301 58.192 864.037 58.192ZM863.437 63.568C863.021 63.568 862.613 63.52 862.213 63.424C861.813 63.344 861.477 63.224 861.205 63.064L861.781 61.456C862.293 61.696 862.813 61.816 863.341 61.816C864.173 61.816 864.589 61.56 864.589 61.048C864.589 60.584 864.197 60.352 863.413 60.352H862.597L863.221 57.808H865.213L864.877 59.2C865.581 59.28 866.101 59.496 866.437 59.848C866.789 60.216 866.965 60.664 866.965 61.192C866.965 61.928 866.645 62.504 866.005 62.92C865.365 63.352 864.509 63.568 863.437 63.568ZM872.443 40.192H876.187V58H872.443V40.192ZM884.87 44.896C886.87 44.896 888.406 45.376 889.478 46.336C890.55 47.28 891.086 48.712 891.086 50.632V58H887.582V56.392C886.878 57.592 885.566 58.192 883.646 58.192C882.654 58.192 881.79 58.024 881.054 57.688C880.334 57.352 879.782 56.888 879.398 56.296C879.014 55.704 878.822 55.032 878.822 54.28C878.822 53.08 879.27 52.136 880.166 51.448C881.078 50.76 882.478 50.416 884.366 50.416H887.342C887.342 49.6 887.094 48.976 886.598 48.544C886.102 48.096 885.358 47.872 884.366 47.872C883.678 47.872 882.998 47.984 882.326 48.208C881.67 48.416 881.11 48.704 880.646 49.072L879.302 46.456C880.006 45.96 880.846 45.576 881.822 45.304C882.814 45.032 883.83 44.896 884.87 44.896ZM884.582 55.672C885.222 55.672 885.79 55.528 886.286 55.24C886.782 54.936 887.134 54.496 887.342 53.92V52.6H884.774C883.238 52.6 882.47 53.104 882.47 54.112C882.47 54.592 882.654 54.976 883.022 55.264C883.406 55.536 883.926 55.672 884.582 55.672Z" fill="black"/>
</svg>
