<svg id="Layer_1" data-name="Layer 1" xmlns="http://www.w3.org/2000/svg" viewBox="0 0 71.45 71.54"><defs><style>.cls-1{fill:#65baaf;}.cls-2{fill:#fff;}</style></defs><path class="cls-1" d="M35.73,71.54A35.77,35.77,0,1,1,71.45,35.77,35.79,35.79,0,0,1,35.73,71.54"/><polygon class="cls-2" points="19.58 28.71 13.68 28.71 13.68 25.47 29.6 25.47 29.6 28.71 23.71 28.71 23.71 46.07 19.58 46.07 19.58 28.71"/><polygon class="cls-2" points="32.24 25.47 43.67 25.47 43.67 28.71 36.36 28.71 36.36 33.79 43.33 33.79 43.33 37.04 36.36 37.04 36.36 46.07 32.24 46.07 32.24 25.47"/><polygon class="cls-2" points="52.94 25.47 56.6 25.47 56.6 46.07 52.47 46.07 52.47 30.16 48.99 32.99 46.93 30.31 52.94 25.47"/></svg>