<svg id="Layer_1" data-name="Layer 1" xmlns="http://www.w3.org/2000/svg" viewBox="0 0 71.45 71.54"><defs><style>.cls-1{fill:#65baaf;}.cls-2{fill:#fff;}</style></defs><path class="cls-1" d="M35.73,71.54A35.77,35.77,0,1,1,71.45,35.77,35.79,35.79,0,0,1,35.73,71.54"/><polygon class="cls-2" points="18.72 28.89 12.82 28.89 12.82 25.64 28.75 25.64 28.75 28.89 22.85 28.89 22.85 46.25 18.72 46.25 18.72 28.89"/><polygon class="cls-2" points="31.38 25.64 42.82 25.64 42.82 28.89 35.5 28.89 35.5 33.97 42.47 33.97 42.47 37.21 35.5 37.21 35.5 46.25 31.38 46.25 31.38 25.64"/><path class="cls-2" d="M45,46.25V42.8c1.91-1.86,8.9-7.71,8.9-11.49,0-1.89-1.68-2.77-3.36-2.77a8.85,8.85,0,0,0-4.74,1.65l-.33-3.42a13.62,13.62,0,0,1,6.1-1.48c3.93,0,6.46,2,6.46,6,0,4.37-4.39,8.38-7.75,11.69h8.4v3.25Z"/></svg>