<svg width="1677" height="200" viewBox="0 0 1677 200" fill="none" xmlns="http://www.w3.org/2000/svg">
<path d="M100 100H1585" stroke="#AB548F" stroke-width="20"/>
<circle cx="1025" cy="100" r="21" fill="#AB548F"/>
<circle cx="1025" cy="100" r="13" fill="white"/>
<circle cx="843" cy="100" r="21" fill="#AB548F"/>
<circle cx="843" cy="100" r="13" fill="white"/>
<circle cx="1392" cy="100" r="21" fill="#AB548F"/>
<circle cx="1392" cy="100" r="13" fill="white"/>
<circle cx="1577" cy="100" r="21" fill="#AB548F"/>
<circle cx="1577" cy="100" r="13" fill="white"/>
<circle cx="288" cy="100" r="21" fill="#AB548F"/>
<circle cx="288" cy="100" r="13" fill="white"/>
<circle cx="658" cy="100" r="21" fill="#AB548F"/>
<circle cx="658" cy="100" r="13" fill="white"/>
<circle cx="473" cy="100" r="21" fill="#AB548F"/>
<circle cx="473" cy="100" r="13" fill="white"/>
<circle cx="100" cy="100" r="24" fill="black"/>
<ellipse cx="100.001" cy="99.9939" rx="19.2" ry="19.2" fill="white"/>
<path d="M43.4768 49.336H47.0288V56.152C46.1168 56.84 45.0608 57.368 43.8608 57.736C42.6608 58.104 41.4528 58.288 40.2368 58.288C38.4928 58.288 36.9248 57.92 35.5328 57.184C34.1408 56.432 33.0448 55.4 32.2448 54.088C31.4608 52.76 31.0688 51.264 31.0688 49.6C31.0688 47.936 31.4608 46.448 32.2448 45.136C33.0448 43.808 34.1488 42.776 35.5568 42.04C36.9648 41.288 38.5488 40.912 40.3088 40.912C41.7808 40.912 43.1168 41.16 44.3168 41.656C45.5168 42.152 46.5248 42.872 47.3408 43.816L44.8448 46.12C43.6448 44.856 42.1968 44.224 40.5008 44.224C39.4288 44.224 38.4768 44.448 37.6448 44.896C36.8128 45.344 36.1648 45.976 35.7008 46.792C35.2368 47.608 35.0048 48.544 35.0048 49.6C35.0048 50.64 35.2368 51.568 35.7008 52.384C36.1648 53.2 36.8048 53.84 37.6208 54.304C38.4528 54.752 39.3968 54.976 40.4528 54.976C41.5728 54.976 42.5808 54.736 43.4768 54.256V49.336ZM55.5844 44.896C57.5844 44.896 59.1204 45.376 60.1924 46.336C61.2644 47.28 61.8004 48.712 61.8004 50.632V58H58.2964V56.392C57.5924 57.592 56.2804 58.192 54.3604 58.192C53.3684 58.192 52.5044 58.024 51.7684 57.688C51.0484 57.352 50.4964 56.888 50.1124 56.296C49.7284 55.704 49.5364 55.032 49.5364 54.28C49.5364 53.08 49.9844 52.136 50.8804 51.448C51.7924 50.76 53.1924 50.416 55.0804 50.416H58.0564C58.0564 49.6 57.8084 48.976 57.3124 48.544C56.8164 48.096 56.0724 47.872 55.0804 47.872C54.3924 47.872 53.7124 47.984 53.0404 48.208C52.3844 48.416 51.8244 48.704 51.3604 49.072L50.0164 46.456C50.7204 45.96 51.5604 45.576 52.5364 45.304C53.5284 45.032 54.5444 44.896 55.5844 44.896ZM55.2964 55.672C55.9364 55.672 56.5044 55.528 57.0004 55.24C57.4964 54.936 57.8484 54.496 58.0564 53.92V52.6H55.4884C53.9524 52.6 53.1844 53.104 53.1844 54.112C53.1844 54.592 53.3684 54.976 53.7364 55.264C54.1204 55.536 54.6404 55.672 55.2964 55.672ZM77.7706 45.088L71.9386 58.792C71.3466 60.28 70.6106 61.328 69.7306 61.936C68.8666 62.544 67.8186 62.848 66.5866 62.848C65.9146 62.848 65.2506 62.744 64.5946 62.536C63.9386 62.328 63.4026 62.04 62.9866 61.672L64.3546 59.008C64.6426 59.264 64.9706 59.464 65.3386 59.608C65.7226 59.752 66.0986 59.824 66.4666 59.824C66.9786 59.824 67.3946 59.696 67.7146 59.44C68.0346 59.2 68.3226 58.792 68.5786 58.216L68.6266 58.096L63.0346 45.088H66.8986L70.5226 53.848L74.1706 45.088H77.7706ZM82.8743 46.792C83.3223 46.168 83.9223 45.696 84.6743 45.376C85.4423 45.056 86.3223 44.896 87.3143 44.896V48.352C86.8983 48.32 86.6183 48.304 86.4743 48.304C85.4023 48.304 84.5623 48.608 83.9543 49.216C83.3463 49.808 83.0423 50.704 83.0423 51.904V58H79.2983V45.088H82.8743V46.792ZM102.071 51.592C102.071 51.64 102.047 51.976 101.999 52.6H92.2313C92.4073 53.4 92.8233 54.032 93.4793 54.496C94.1353 54.96 94.9513 55.192 95.9273 55.192C96.5993 55.192 97.1913 55.096 97.7033 54.904C98.2313 54.696 98.7193 54.376 99.1673 53.944L101.159 56.104C99.9433 57.496 98.1673 58.192 95.8313 58.192C94.3753 58.192 93.0873 57.912 91.9673 57.352C90.8473 56.776 89.9833 55.984 89.3753 54.976C88.7673 53.968 88.4633 52.824 88.4633 51.544C88.4633 50.28 88.7593 49.144 89.3513 48.136C89.9593 47.112 90.7833 46.32 91.8233 45.76C92.8793 45.184 94.0553 44.896 95.3513 44.896C96.6153 44.896 97.7593 45.168 98.7833 45.712C99.8073 46.256 100.607 47.04 101.183 48.064C101.775 49.072 102.071 50.248 102.071 51.592ZM95.3753 47.728C94.5273 47.728 93.8153 47.968 93.2393 48.448C92.6633 48.928 92.3113 49.584 92.1833 50.416H98.5433C98.4153 49.6 98.0633 48.952 97.4873 48.472C96.9113 47.976 96.2073 47.728 95.3753 47.728ZM112.892 57.376C112.524 57.648 112.068 57.856 111.524 58C110.996 58.128 110.436 58.192 109.844 58.192C108.308 58.192 107.116 57.8 106.268 57.016C105.436 56.232 105.02 55.08 105.02 53.56V48.256H103.028V45.376H105.02V42.232H108.764V45.376H111.98V48.256H108.764V53.512C108.764 54.056 108.9 54.48 109.172 54.784C109.46 55.072 109.86 55.216 110.372 55.216C110.964 55.216 111.468 55.056 111.884 54.736L112.892 57.376ZM123.04 57.376C122.672 57.648 122.216 57.856 121.672 58C121.144 58.128 120.584 58.192 119.992 58.192C118.456 58.192 117.264 57.8 116.416 57.016C115.584 56.232 115.168 55.08 115.168 53.56V48.256H113.176V45.376H115.168V42.232H118.912V45.376H122.128V48.256H118.912V53.512C118.912 54.056 119.048 54.48 119.32 54.784C119.608 55.072 120.008 55.216 120.52 55.216C121.112 55.216 121.616 55.056 122.032 54.736L123.04 57.376ZM137.392 51.592C137.392 51.64 137.368 51.976 137.32 52.6H127.552C127.728 53.4 128.144 54.032 128.8 54.496C129.456 54.96 130.272 55.192 131.248 55.192C131.92 55.192 132.512 55.096 133.024 54.904C133.552 54.696 134.04 54.376 134.488 53.944L136.48 56.104C135.264 57.496 133.488 58.192 131.152 58.192C129.696 58.192 128.408 57.912 127.288 57.352C126.168 56.776 125.304 55.984 124.696 54.976C124.088 53.968 123.784 52.824 123.784 51.544C123.784 50.28 124.08 49.144 124.672 48.136C125.28 47.112 126.104 46.32 127.144 45.76C128.2 45.184 129.376 44.896 130.672 44.896C131.936 44.896 133.08 45.168 134.104 45.712C135.128 46.256 135.928 47.04 136.504 48.064C137.096 49.072 137.392 50.248 137.392 51.592ZM130.696 47.728C129.848 47.728 129.136 47.968 128.56 48.448C127.984 48.928 127.632 49.584 127.504 50.416H133.864C133.736 49.6 133.384 48.952 132.808 48.472C132.232 47.976 131.528 47.728 130.696 47.728ZM147.516 44.896C148.716 44.896 149.804 45.176 150.78 45.736C151.772 46.28 152.548 47.056 153.108 48.064C153.668 49.056 153.948 50.216 153.948 51.544C153.948 52.872 153.668 54.04 153.108 55.048C152.548 56.04 151.772 56.816 150.78 57.376C149.804 57.92 148.716 58.192 147.516 58.192C145.868 58.192 144.572 57.672 143.628 56.632V62.656H139.884V45.088H143.46V46.576C144.388 45.456 145.74 44.896 147.516 44.896ZM146.868 55.12C147.828 55.12 148.612 54.8 149.22 54.16C149.844 53.504 150.156 52.632 150.156 51.544C150.156 50.456 149.844 49.592 149.22 48.952C148.612 48.296 147.828 47.968 146.868 47.968C145.908 47.968 145.116 48.296 144.492 48.952C143.884 49.592 143.58 50.456 143.58 51.544C143.58 52.632 143.884 53.504 144.492 54.16C145.116 54.8 145.908 55.12 146.868 55.12ZM169.103 51.592C169.103 51.64 169.079 51.976 169.031 52.6H159.263C159.439 53.4 159.855 54.032 160.511 54.496C161.167 54.96 161.983 55.192 162.959 55.192C163.631 55.192 164.223 55.096 164.735 54.904C165.263 54.696 165.751 54.376 166.199 53.944L168.191 56.104C166.975 57.496 165.199 58.192 162.863 58.192C161.407 58.192 160.119 57.912 158.999 57.352C157.879 56.776 157.015 55.984 156.407 54.976C155.799 53.968 155.495 52.824 155.495 51.544C155.495 50.28 155.791 49.144 156.383 48.136C156.991 47.112 157.815 46.32 158.855 45.76C159.911 45.184 161.087 44.896 162.383 44.896C163.647 44.896 164.791 45.168 165.815 45.712C166.839 46.256 167.639 47.04 168.215 48.064C168.807 49.072 169.103 50.248 169.103 51.592ZM162.407 47.728C161.559 47.728 160.847 47.968 160.271 48.448C159.695 48.928 159.343 49.584 159.215 50.416H165.575C165.447 49.6 165.095 48.952 164.519 48.472C163.943 47.976 163.239 47.728 162.407 47.728Z" fill="black"/>
<path d="M231.526 51.4L229.27 53.752V58H225.406V41.2H229.27V49.048L236.71 41.2H241.03L234.07 48.688L241.438 58H236.902L231.526 51.4ZM247.834 44.896C249.834 44.896 251.37 45.376 252.442 46.336C253.514 47.28 254.05 48.712 254.05 50.632V58H250.546V56.392C249.842 57.592 248.53 58.192 246.61 58.192C245.618 58.192 244.754 58.024 244.018 57.688C243.298 57.352 242.746 56.888 242.362 56.296C241.978 55.704 241.786 55.032 241.786 54.28C241.786 53.08 242.234 52.136 243.13 51.448C244.042 50.76 245.442 50.416 247.33 50.416H250.306C250.306 49.6 250.058 48.976 249.562 48.544C249.066 48.096 248.322 47.872 247.33 47.872C246.642 47.872 245.962 47.984 245.29 48.208C244.634 48.416 244.074 48.704 243.61 49.072L242.266 46.456C242.97 45.96 243.81 45.576 244.786 45.304C245.778 45.032 246.794 44.896 247.834 44.896ZM247.546 55.672C248.186 55.672 248.754 55.528 249.25 55.24C249.746 54.936 250.098 54.496 250.306 53.92V52.6H247.738C246.202 52.6 245.434 53.104 245.434 54.112C245.434 54.592 245.618 54.976 245.986 55.264C246.37 55.536 246.89 55.672 247.546 55.672ZM270.9 45.088V55.84C270.9 58.208 270.284 59.968 269.052 61.12C267.82 62.272 266.02 62.848 263.652 62.848C262.404 62.848 261.22 62.696 260.1 62.392C258.98 62.088 258.052 61.648 257.316 61.072L258.804 58.384C259.348 58.832 260.036 59.184 260.868 59.44C261.7 59.712 262.532 59.848 263.364 59.848C264.66 59.848 265.612 59.552 266.22 58.96C266.844 58.384 267.156 57.504 267.156 56.32V55.768C266.18 56.84 264.82 57.376 263.076 57.376C261.892 57.376 260.804 57.12 259.812 56.608C258.836 56.08 258.06 55.344 257.484 54.4C256.908 53.456 256.62 52.368 256.62 51.136C256.62 49.904 256.908 48.816 257.484 47.872C258.06 46.928 258.836 46.2 259.812 45.688C260.804 45.16 261.892 44.896 263.076 44.896C264.948 44.896 266.372 45.512 267.348 46.744V45.088H270.9ZM263.82 54.304C264.812 54.304 265.62 54.016 266.244 53.44C266.884 52.848 267.204 52.08 267.204 51.136C267.204 50.192 266.884 49.432 266.244 48.856C265.62 48.264 264.812 47.968 263.82 47.968C262.828 47.968 262.012 48.264 261.372 48.856C260.732 49.432 260.412 50.192 260.412 51.136C260.412 52.08 260.732 52.848 261.372 53.44C262.012 54.016 262.828 54.304 263.82 54.304ZM264.036 43.624C262.772 43.624 261.732 43.296 260.916 42.64C260.1 41.984 259.668 41.096 259.62 39.976H261.972C261.988 40.488 262.188 40.904 262.572 41.224C262.972 41.528 263.46 41.68 264.036 41.68C264.612 41.68 265.092 41.528 265.476 41.224C265.876 40.904 266.084 40.488 266.1 39.976H268.452C268.404 41.096 267.972 41.984 267.156 42.64C266.34 43.296 265.3 43.624 264.036 43.624ZM274.384 45.088H278.128V58H274.384V45.088ZM289.931 57.376C289.563 57.648 289.107 57.856 288.563 58C288.035 58.128 287.475 58.192 286.883 58.192C285.347 58.192 284.155 57.8 283.307 57.016C282.475 56.232 282.059 55.08 282.059 53.56V48.256H280.067V45.376H282.059V42.232H285.803V45.376H289.019V48.256H285.803V53.512C285.803 54.056 285.939 54.48 286.211 54.784C286.499 55.072 286.899 55.216 287.411 55.216C288.003 55.216 288.507 55.056 288.923 54.736L289.931 57.376ZM299.881 44.896C301.481 44.896 302.769 45.376 303.745 46.336C304.737 47.296 305.233 48.72 305.233 50.608V58H301.489V51.184C301.489 50.16 301.265 49.4 300.817 48.904C300.369 48.392 299.721 48.136 298.873 48.136C297.929 48.136 297.177 48.432 296.617 49.024C296.057 49.6 295.777 50.464 295.777 51.616V58H292.033V40.192H295.777V46.432C296.273 45.936 296.873 45.56 297.577 45.304C298.281 45.032 299.049 44.896 299.881 44.896ZM313.834 44.896C315.834 44.896 317.37 45.376 318.442 46.336C319.514 47.28 320.05 48.712 320.05 50.632V58H316.546V56.392C315.842 57.592 314.53 58.192 312.61 58.192C311.618 58.192 310.754 58.024 310.018 57.688C309.298 57.352 308.746 56.888 308.362 56.296C307.978 55.704 307.786 55.032 307.786 54.28C307.786 53.08 308.234 52.136 309.13 51.448C310.042 50.76 311.442 50.416 313.33 50.416H316.306C316.306 49.6 316.058 48.976 315.562 48.544C315.066 48.096 314.322 47.872 313.33 47.872C312.642 47.872 311.962 47.984 311.29 48.208C310.634 48.416 310.074 48.704 309.61 49.072L308.266 46.456C308.97 45.96 309.81 45.576 310.786 45.304C311.778 45.032 312.794 44.896 313.834 44.896ZM313.546 55.672C314.186 55.672 314.754 55.528 315.25 55.24C315.746 54.936 316.098 54.496 316.306 53.92V52.6H313.738C312.202 52.6 311.434 53.104 311.434 54.112C311.434 54.592 311.618 54.976 311.986 55.264C312.37 55.536 312.89 55.672 313.546 55.672ZM331.287 44.896C332.887 44.896 334.175 45.376 335.151 46.336C336.143 47.296 336.639 48.72 336.639 50.608V58H332.895V51.184C332.895 50.16 332.671 49.4 332.223 48.904C331.775 48.392 331.127 48.136 330.279 48.136C329.335 48.136 328.583 48.432 328.023 49.024C327.463 49.6 327.183 50.464 327.183 51.616V58H323.439V45.088H327.015V46.6C327.511 46.056 328.127 45.64 328.863 45.352C329.599 45.048 330.407 44.896 331.287 44.896ZM352.821 51.592C352.821 51.64 352.797 51.976 352.749 52.6H342.981C343.157 53.4 343.573 54.032 344.229 54.496C344.885 54.96 345.701 55.192 346.677 55.192C347.349 55.192 347.941 55.096 348.453 54.904C348.981 54.696 349.469 54.376 349.917 53.944L351.909 56.104C350.693 57.496 348.917 58.192 346.581 58.192C345.125 58.192 343.837 57.912 342.717 57.352C341.597 56.776 340.733 55.984 340.125 54.976C339.517 53.968 339.213 52.824 339.213 51.544C339.213 50.28 339.509 49.144 340.101 48.136C340.709 47.112 341.533 46.32 342.573 45.76C343.629 45.184 344.805 44.896 346.101 44.896C347.365 44.896 348.509 45.168 349.533 45.712C350.557 46.256 351.357 47.04 351.933 48.064C352.525 49.072 352.821 50.248 352.821 51.592ZM346.125 47.728C345.277 47.728 344.565 47.968 343.989 48.448C343.413 48.928 343.061 49.584 342.933 50.416H349.293C349.165 49.6 348.813 48.952 348.237 48.472C347.661 47.976 346.957 47.728 346.125 47.728Z" fill="black"/>
<path d="M447.603 41.2V58H443.715V51.112H436.083V58H432.195V41.2H436.083V47.824H443.715V41.2H447.603ZM456.522 44.896C458.522 44.896 460.058 45.376 461.13 46.336C462.202 47.28 462.738 48.712 462.738 50.632V58H459.234V56.392C458.53 57.592 457.218 58.192 455.298 58.192C454.306 58.192 453.442 58.024 452.706 57.688C451.986 57.352 451.434 56.888 451.05 56.296C450.666 55.704 450.474 55.032 450.474 54.28C450.474 53.08 450.922 52.136 451.818 51.448C452.73 50.76 454.13 50.416 456.018 50.416H458.994C458.994 49.6 458.746 48.976 458.25 48.544C457.754 48.096 457.01 47.872 456.018 47.872C455.33 47.872 454.65 47.984 453.978 48.208C453.322 48.416 452.762 48.704 452.298 49.072L450.954 46.456C451.658 45.96 452.498 45.576 453.474 45.304C454.466 45.032 455.482 44.896 456.522 44.896ZM456.234 55.672C456.874 55.672 457.442 55.528 457.938 55.24C458.434 54.936 458.786 54.496 458.994 53.92V52.6H456.426C454.89 52.6 454.122 53.104 454.122 54.112C454.122 54.592 454.306 54.976 454.674 55.264C455.058 55.536 455.578 55.672 456.234 55.672ZM470.47 58.192C469.398 58.192 468.35 58.064 467.326 57.808C466.302 57.536 465.486 57.2 464.878 56.8L466.126 54.112C466.702 54.48 467.398 54.784 468.214 55.024C469.03 55.248 469.83 55.36 470.614 55.36C472.198 55.36 472.99 54.968 472.99 54.184C472.99 53.816 472.774 53.552 472.342 53.392C471.91 53.232 471.246 53.096 470.35 52.984C469.294 52.824 468.422 52.64 467.734 52.432C467.046 52.224 466.446 51.856 465.934 51.328C465.438 50.8 465.19 50.048 465.19 49.072C465.19 48.256 465.422 47.536 465.886 46.912C466.366 46.272 467.054 45.776 467.95 45.424C468.862 45.072 469.934 44.896 471.166 44.896C472.078 44.896 472.982 45 473.878 45.208C474.79 45.4 475.542 45.672 476.134 46.024L474.886 48.688C473.75 48.048 472.51 47.728 471.166 47.728C470.366 47.728 469.766 47.84 469.366 48.064C468.966 48.288 468.766 48.576 468.766 48.928C468.766 49.328 468.982 49.608 469.414 49.768C469.846 49.928 470.534 50.08 471.478 50.224C472.534 50.4 473.398 50.592 474.07 50.8C474.742 50.992 475.326 51.352 475.822 51.88C476.318 52.408 476.566 53.144 476.566 54.088C476.566 54.888 476.326 55.6 475.846 56.224C475.366 56.848 474.662 57.336 473.734 57.688C472.822 58.024 471.734 58.192 470.47 58.192ZM492.028 40.192V58H488.452V56.512C487.524 57.632 486.18 58.192 484.42 58.192C483.204 58.192 482.1 57.92 481.108 57.376C480.132 56.832 479.364 56.056 478.804 55.048C478.244 54.04 477.964 52.872 477.964 51.544C477.964 50.216 478.244 49.048 478.804 48.04C479.364 47.032 480.132 46.256 481.108 45.712C482.1 45.168 483.204 44.896 484.42 44.896C486.068 44.896 487.356 45.416 488.284 46.456V40.192H492.028ZM485.068 55.12C486.012 55.12 486.796 54.8 487.42 54.16C488.044 53.504 488.356 52.632 488.356 51.544C488.356 50.456 488.044 49.592 487.42 48.952C486.796 48.296 486.012 47.968 485.068 47.968C484.108 47.968 483.316 48.296 482.692 48.952C482.068 49.592 481.756 50.456 481.756 51.544C481.756 52.632 482.068 53.504 482.692 54.16C483.316 54.8 484.108 55.12 485.068 55.12ZM500.702 44.896C502.702 44.896 504.238 45.376 505.31 46.336C506.382 47.28 506.918 48.712 506.918 50.632V58H503.414V56.392C502.71 57.592 501.398 58.192 499.478 58.192C498.486 58.192 497.622 58.024 496.886 57.688C496.166 57.352 495.614 56.888 495.23 56.296C494.846 55.704 494.654 55.032 494.654 54.28C494.654 53.08 495.102 52.136 495.998 51.448C496.91 50.76 498.31 50.416 500.198 50.416H503.174C503.174 49.6 502.926 48.976 502.43 48.544C501.934 48.096 501.19 47.872 500.198 47.872C499.51 47.872 498.83 47.984 498.158 48.208C497.502 48.416 496.942 48.704 496.478 49.072L495.134 46.456C495.838 45.96 496.678 45.576 497.654 45.304C498.646 45.032 499.662 44.896 500.702 44.896ZM500.414 55.672C501.054 55.672 501.622 55.528 502.118 55.24C502.614 54.936 502.966 54.496 503.174 53.92V52.6H500.606C499.07 52.6 498.302 53.104 498.302 54.112C498.302 54.592 498.486 54.976 498.854 55.264C499.238 55.536 499.758 55.672 500.414 55.672ZM510.306 40.192H514.05V58H510.306V40.192Z" fill="black"/>
<path d="M581.171 51.4L578.915 53.752V58H575.051V41.2H578.915V49.048L586.355 41.2H590.675L583.715 48.688L591.083 58H586.547L581.171 51.4ZM604.661 51.592C604.661 51.64 604.637 51.976 604.589 52.6H594.821C594.997 53.4 595.413 54.032 596.069 54.496C596.725 54.96 597.541 55.192 598.517 55.192C599.189 55.192 599.781 55.096 600.293 54.904C600.821 54.696 601.309 54.376 601.757 53.944L603.749 56.104C602.533 57.496 600.757 58.192 598.421 58.192C596.965 58.192 595.677 57.912 594.557 57.352C593.437 56.776 592.573 55.984 591.965 54.976C591.357 53.968 591.053 52.824 591.053 51.544C591.053 50.28 591.349 49.144 591.941 48.136C592.549 47.112 593.373 46.32 594.413 45.76C595.469 45.184 596.645 44.896 597.941 44.896C599.205 44.896 600.349 45.168 601.373 45.712C602.397 46.256 603.197 47.04 603.773 48.064C604.365 49.072 604.661 50.248 604.661 51.592ZM597.965 47.728C597.117 47.728 596.405 47.968 595.829 48.448C595.253 48.928 594.901 49.584 594.773 50.416H601.133C601.005 49.6 600.653 48.952 600.077 48.472C599.501 47.976 598.797 47.728 597.965 47.728ZM623.69 44.896C625.306 44.896 626.586 45.376 627.53 46.336C628.49 47.28 628.97 48.704 628.97 50.608V58H625.226V51.184C625.226 50.16 625.01 49.4 624.578 48.904C624.162 48.392 623.562 48.136 622.778 48.136C621.898 48.136 621.202 48.424 620.69 49C620.178 49.56 619.922 50.4 619.922 51.52V58H616.178V51.184C616.178 49.152 615.362 48.136 613.73 48.136C612.866 48.136 612.178 48.424 611.666 49C611.154 49.56 610.898 50.4 610.898 51.52V58H607.154V45.088H610.73V46.576C611.21 46.032 611.794 45.616 612.482 45.328C613.186 45.04 613.954 44.896 614.786 44.896C615.698 44.896 616.522 45.08 617.258 45.448C617.994 45.8 618.586 46.32 619.034 47.008C619.562 46.336 620.226 45.816 621.026 45.448C621.842 45.08 622.73 44.896 623.69 44.896ZM645.114 51.592C645.114 51.64 645.09 51.976 645.042 52.6H635.274C635.45 53.4 635.866 54.032 636.522 54.496C637.178 54.96 637.994 55.192 638.97 55.192C639.642 55.192 640.234 55.096 640.746 54.904C641.274 54.696 641.762 54.376 642.21 53.944L644.202 56.104C642.986 57.496 641.21 58.192 638.874 58.192C637.418 58.192 636.13 57.912 635.01 57.352C633.89 56.776 633.026 55.984 632.418 54.976C631.81 53.968 631.506 52.824 631.506 51.544C631.506 50.28 631.802 49.144 632.394 48.136C633.002 47.112 633.826 46.32 634.866 45.76C635.922 45.184 637.098 44.896 638.394 44.896C639.658 44.896 640.802 45.168 641.826 45.712C642.85 46.256 643.65 47.04 644.226 48.064C644.818 49.072 645.114 50.248 645.114 51.592ZM638.418 47.728C637.57 47.728 636.858 47.968 636.282 48.448C635.706 48.928 635.354 49.584 635.226 50.416H641.586C641.458 49.6 641.106 48.952 640.53 48.472C639.954 47.976 639.25 47.728 638.418 47.728ZM651.183 46.792C651.631 46.168 652.231 45.696 652.983 45.376C653.751 45.056 654.631 44.896 655.623 44.896V48.352C655.207 48.32 654.927 48.304 654.783 48.304C653.711 48.304 652.871 48.608 652.263 49.216C651.655 49.808 651.351 50.704 651.351 51.904V58H647.607V45.088H651.183V46.792ZM665.481 44.896C666.681 44.896 667.769 45.176 668.745 45.736C669.737 46.28 670.513 47.056 671.073 48.064C671.633 49.056 671.913 50.216 671.913 51.544C671.913 52.872 671.633 54.04 671.073 55.048C670.513 56.04 669.737 56.816 668.745 57.376C667.769 57.92 666.681 58.192 665.481 58.192C663.705 58.192 662.353 57.632 661.425 56.512V58H657.849V40.192H661.593V46.456C662.537 45.416 663.833 44.896 665.481 44.896ZM664.833 55.12C665.793 55.12 666.577 54.8 667.185 54.16C667.809 53.504 668.121 52.632 668.121 51.544C668.121 50.456 667.809 49.592 667.185 48.952C666.577 48.296 665.793 47.968 664.833 47.968C663.873 47.968 663.081 48.296 662.457 48.952C661.849 49.592 661.545 50.456 661.545 51.544C661.545 52.632 661.849 53.504 662.457 54.16C663.081 54.8 663.873 55.12 664.833 55.12ZM687.427 45.088V58H683.875V56.464C683.379 57.024 682.787 57.456 682.099 57.76C681.411 58.048 680.667 58.192 679.867 58.192C678.171 58.192 676.827 57.704 675.835 56.728C674.843 55.752 674.347 54.304 674.347 52.384V45.088H678.091V51.832C678.091 53.912 678.963 54.952 680.707 54.952C681.603 54.952 682.323 54.664 682.867 54.088C683.411 53.496 683.683 52.624 683.683 51.472V45.088H687.427ZM694.472 46.792C694.92 46.168 695.52 45.696 696.272 45.376C697.04 45.056 697.92 44.896 698.912 44.896V48.352C698.496 48.32 698.216 48.304 698.072 48.304C697 48.304 696.16 48.608 695.552 49.216C694.944 49.808 694.64 50.704 694.64 51.904V58H690.896V45.088H694.472V46.792ZM714.341 45.088V55.84C714.341 58.208 713.725 59.968 712.493 61.12C711.261 62.272 709.461 62.848 707.093 62.848C705.845 62.848 704.661 62.696 703.541 62.392C702.421 62.088 701.493 61.648 700.757 61.072L702.245 58.384C702.789 58.832 703.477 59.184 704.309 59.44C705.141 59.712 705.973 59.848 706.805 59.848C708.101 59.848 709.053 59.552 709.661 58.96C710.285 58.384 710.597 57.504 710.597 56.32V55.768C709.621 56.84 708.261 57.376 706.517 57.376C705.333 57.376 704.245 57.12 703.253 56.608C702.277 56.08 701.501 55.344 700.925 54.4C700.349 53.456 700.061 52.368 700.061 51.136C700.061 49.904 700.349 48.816 700.925 47.872C701.501 46.928 702.277 46.2 703.253 45.688C704.245 45.16 705.333 44.896 706.517 44.896C708.389 44.896 709.813 45.512 710.789 46.744V45.088H714.341ZM707.261 54.304C708.253 54.304 709.061 54.016 709.685 53.44C710.325 52.848 710.645 52.08 710.645 51.136C710.645 50.192 710.325 49.432 709.685 48.856C709.061 48.264 708.253 47.968 707.261 47.968C706.269 47.968 705.453 48.264 704.813 48.856C704.173 49.432 703.853 50.192 703.853 51.136C703.853 52.08 704.173 52.848 704.813 53.44C705.453 54.016 706.269 54.304 707.261 54.304ZM723.034 44.896C725.034 44.896 726.57 45.376 727.642 46.336C728.714 47.28 729.25 48.712 729.25 50.632V58H725.746V56.392C725.042 57.592 723.73 58.192 721.81 58.192C720.818 58.192 719.954 58.024 719.218 57.688C718.498 57.352 717.946 56.888 717.562 56.296C717.178 55.704 716.986 55.032 716.986 54.28C716.986 53.08 717.434 52.136 718.33 51.448C719.242 50.76 720.642 50.416 722.53 50.416H725.506C725.506 49.6 725.258 48.976 724.762 48.544C724.266 48.096 723.522 47.872 722.53 47.872C721.842 47.872 721.162 47.984 720.49 48.208C719.834 48.416 719.274 48.704 718.81 49.072L717.466 46.456C718.17 45.96 719.01 45.576 719.986 45.304C720.978 45.032 721.994 44.896 723.034 44.896ZM722.746 55.672C723.386 55.672 723.954 55.528 724.45 55.24C724.946 54.936 725.298 54.496 725.506 53.92V52.6H722.938C721.402 52.6 720.634 53.104 720.634 54.112C720.634 54.592 720.818 54.976 721.186 55.264C721.57 55.536 722.09 55.672 722.746 55.672ZM743.27 55.12V58H731.75V55.744L738.326 47.968H731.918V45.088H743.054V47.344L736.478 55.12H743.27Z" fill="black"/>
<path d="M804.805 49.336H808.357V56.152C807.445 56.84 806.389 57.368 805.189 57.736C803.989 58.104 802.781 58.288 801.565 58.288C799.821 58.288 798.253 57.92 796.861 57.184C795.469 56.432 794.373 55.4 793.573 54.088C792.789 52.76 792.397 51.264 792.397 49.6C792.397 47.936 792.789 46.448 793.573 45.136C794.373 43.808 795.477 42.776 796.885 42.04C798.293 41.288 799.877 40.912 801.637 40.912C803.109 40.912 804.445 41.16 805.645 41.656C806.845 42.152 807.853 42.872 808.669 43.816L806.173 46.12C804.973 44.856 803.525 44.224 801.829 44.224C800.757 44.224 799.805 44.448 798.973 44.896C798.141 45.344 797.493 45.976 797.029 46.792C796.565 47.608 796.333 48.544 796.333 49.6C796.333 50.64 796.565 51.568 797.029 52.384C797.493 53.2 798.133 53.84 798.949 54.304C799.781 54.752 800.725 54.976 801.781 54.976C802.901 54.976 803.909 54.736 804.805 54.256V49.336ZM817.849 58.192C816.489 58.192 815.265 57.912 814.177 57.352C813.105 56.776 812.265 55.984 811.657 54.976C811.049 53.968 810.745 52.824 810.745 51.544C810.745 50.264 811.049 49.12 811.657 48.112C812.265 47.104 813.105 46.32 814.177 45.76C815.265 45.184 816.489 44.896 817.849 44.896C819.209 44.896 820.425 45.184 821.497 45.76C822.569 46.32 823.409 47.104 824.017 48.112C824.625 49.12 824.929 50.264 824.929 51.544C824.929 52.824 824.625 53.968 824.017 54.976C823.409 55.984 822.569 56.776 821.497 57.352C820.425 57.912 819.209 58.192 817.849 58.192ZM817.849 55.12C818.809 55.12 819.593 54.8 820.201 54.16C820.825 53.504 821.137 52.632 821.137 51.544C821.137 50.456 820.825 49.592 820.201 48.952C819.593 48.296 818.809 47.968 817.849 47.968C816.889 47.968 816.097 48.296 815.473 48.952C814.849 49.592 814.537 50.456 814.537 51.544C814.537 52.632 814.849 53.504 815.473 54.16C816.097 54.8 816.889 55.12 817.849 55.12ZM815.377 43.312C814.897 43.312 814.497 43.16 814.177 42.856C813.857 42.536 813.697 42.136 813.697 41.656C813.697 41.176 813.857 40.784 814.177 40.48C814.497 40.16 814.897 40 815.377 40C815.857 40 816.249 40.16 816.553 40.48C816.873 40.784 817.033 41.176 817.033 41.656C817.033 42.136 816.873 42.536 816.553 42.856C816.249 43.16 815.857 43.312 815.377 43.312ZM820.225 43.312C819.745 43.312 819.345 43.16 819.025 42.856C818.721 42.536 818.569 42.136 818.569 41.656C818.569 41.176 818.721 40.784 819.025 40.48C819.345 40.16 819.745 40 820.225 40C820.705 40 821.105 40.16 821.425 40.48C821.745 40.784 821.905 41.176 821.905 41.656C821.905 42.136 821.745 42.536 821.425 42.856C821.105 43.16 820.705 43.312 820.225 43.312ZM832.975 52.936L831.175 54.712V58H827.431V40.192H831.175V50.272L836.647 45.088H841.111L835.735 50.56L841.591 58H837.055L832.975 52.936ZM851.603 57.376C851.235 57.648 850.779 57.856 850.235 58C849.707 58.128 849.147 58.192 848.555 58.192C847.019 58.192 845.827 57.8 844.979 57.016C844.147 56.232 843.731 55.08 843.731 53.56V48.256H841.739V45.376H843.731V42.232H847.475V45.376H850.691V48.256H847.475V53.512C847.475 54.056 847.611 54.48 847.883 54.784C848.171 55.072 848.571 55.216 849.083 55.216C849.675 55.216 850.179 55.056 850.595 54.736L851.603 57.376ZM866.713 45.088V58H863.161V56.464C862.665 57.024 862.073 57.456 861.385 57.76C860.697 58.048 859.953 58.192 859.153 58.192C857.457 58.192 856.113 57.704 855.121 56.728C854.129 55.752 853.633 54.304 853.633 52.384V45.088H857.377V51.832C857.377 53.912 858.249 54.952 859.993 54.952C860.889 54.952 861.609 54.664 862.153 54.088C862.697 53.496 862.969 52.624 862.969 51.472V45.088H866.713ZM857.737 43.312C857.257 43.312 856.857 43.16 856.537 42.856C856.217 42.536 856.057 42.136 856.057 41.656C856.057 41.176 856.217 40.784 856.537 40.48C856.857 40.16 857.257 40 857.737 40C858.217 40 858.609 40.16 858.913 40.48C859.233 40.784 859.393 41.176 859.393 41.656C859.393 42.136 859.233 42.536 858.913 42.856C858.609 43.16 858.217 43.312 857.737 43.312ZM862.585 43.312C862.105 43.312 861.705 43.16 861.385 42.856C861.081 42.536 860.929 42.136 860.929 41.656C860.929 41.176 861.081 40.784 861.385 40.48C861.705 40.16 862.105 40 862.585 40C863.065 40 863.465 40.16 863.785 40.48C864.105 40.784 864.265 41.176 864.265 41.656C864.265 42.136 864.105 42.536 863.785 42.856C863.465 43.16 863.065 43.312 862.585 43.312ZM873.757 46.792C874.205 46.168 874.805 45.696 875.557 45.376C876.325 45.056 877.205 44.896 878.197 44.896V48.352C877.781 48.32 877.501 48.304 877.357 48.304C876.285 48.304 875.445 48.608 874.837 49.216C874.229 49.808 873.925 50.704 873.925 51.904V58H870.181V45.088H873.757V46.792ZM885.967 52.936L884.167 54.712V58H880.423V40.192H884.167V50.272L889.639 45.088H894.103L888.727 50.56L894.583 58H890.047L885.967 52.936Z" fill="black"/>
<path d="M975.004 41.2H978.892V58H975.004V41.2ZM976.948 39.712C976.356 39.712 975.868 39.52 975.484 39.136C975.116 38.752 974.932 38.264 974.932 37.672C974.932 37.096 975.116 36.616 975.484 36.232C975.868 35.848 976.356 35.656 976.948 35.656C977.54 35.656 978.02 35.848 978.388 36.232C978.772 36.616 978.964 37.096 978.964 37.672C978.964 38.264 978.772 38.752 978.388 39.136C978.02 39.52 977.54 39.712 976.948 39.712ZM990.463 44.896C992.063 44.896 993.351 45.376 994.327 46.336C995.319 47.296 995.815 48.72 995.815 50.608V58H992.071V51.184C992.071 50.16 991.847 49.4 991.399 48.904C990.951 48.392 990.303 48.136 989.455 48.136C988.511 48.136 987.759 48.432 987.199 49.024C986.639 49.6 986.359 50.464 986.359 51.616V58H982.615V40.192H986.359V46.432C986.855 45.936 987.455 45.56 988.159 45.304C988.863 45.032 989.631 44.896 990.463 44.896ZM1003.55 58.192C1002.48 58.192 1001.43 58.064 1000.41 57.808C999.384 57.536 998.568 57.2 997.96 56.8L999.208 54.112C999.784 54.48 1000.48 54.784 1001.3 55.024C1002.11 55.248 1002.91 55.36 1003.7 55.36C1005.28 55.36 1006.07 54.968 1006.07 54.184C1006.07 53.816 1005.86 53.552 1005.42 53.392C1004.99 53.232 1004.33 53.096 1003.43 52.984C1002.38 52.824 1001.5 52.64 1000.82 52.432C1000.13 52.224 999.528 51.856 999.016 51.328C998.52 50.8 998.272 50.048 998.272 49.072C998.272 48.256 998.504 47.536 998.968 46.912C999.448 46.272 1000.14 45.776 1001.03 45.424C1001.94 45.072 1003.02 44.896 1004.25 44.896C1005.16 44.896 1006.06 45 1006.96 45.208C1007.87 45.4 1008.62 45.672 1009.22 46.024L1007.97 48.688C1006.83 48.048 1005.59 47.728 1004.25 47.728C1003.45 47.728 1002.85 47.84 1002.45 48.064C1002.05 48.288 1001.85 48.576 1001.85 48.928C1001.85 49.328 1002.06 49.608 1002.5 49.768C1002.93 49.928 1003.62 50.08 1004.56 50.224C1005.62 50.4 1006.48 50.592 1007.15 50.8C1007.82 50.992 1008.41 51.352 1008.9 51.88C1009.4 52.408 1009.65 53.144 1009.65 54.088C1009.65 54.888 1009.41 55.6 1008.93 56.224C1008.45 56.848 1007.74 57.336 1006.82 57.688C1005.9 58.024 1004.82 58.192 1003.55 58.192ZM1017.17 44.896C1019.17 44.896 1020.7 45.376 1021.77 46.336C1022.85 47.28 1023.38 48.712 1023.38 50.632V58H1019.88V56.392C1019.17 57.592 1017.86 58.192 1015.94 58.192C1014.95 58.192 1014.09 58.024 1013.35 57.688C1012.63 57.352 1012.08 56.888 1011.69 56.296C1011.31 55.704 1011.12 55.032 1011.12 54.28C1011.12 53.08 1011.57 52.136 1012.46 51.448C1013.37 50.76 1014.77 50.416 1016.66 50.416H1019.64C1019.64 49.6 1019.39 48.976 1018.89 48.544C1018.4 48.096 1017.65 47.872 1016.66 47.872C1015.97 47.872 1015.29 47.984 1014.62 48.208C1013.97 48.416 1013.41 48.704 1012.94 49.072L1011.6 46.456C1012.3 45.96 1013.14 45.576 1014.12 45.304C1015.11 45.032 1016.13 44.896 1017.17 44.896ZM1016.88 55.672C1017.52 55.672 1018.09 55.528 1018.58 55.24C1019.08 54.936 1019.43 54.496 1019.64 53.92V52.6H1017.07C1015.53 52.6 1014.77 53.104 1014.77 54.112C1014.77 54.592 1014.95 54.976 1015.32 55.264C1015.7 55.536 1016.22 55.672 1016.88 55.672ZM1034.62 44.896C1036.22 44.896 1037.51 45.376 1038.48 46.336C1039.47 47.296 1039.97 48.72 1039.97 50.608V58H1036.23V51.184C1036.23 50.16 1036 49.4 1035.55 48.904C1035.11 48.392 1034.46 48.136 1033.61 48.136C1032.67 48.136 1031.91 48.432 1031.35 49.024C1030.79 49.6 1030.51 50.464 1030.51 51.616V58H1026.77V45.088H1030.35V46.6C1030.84 46.056 1031.46 45.64 1032.19 45.352C1032.93 45.048 1033.74 44.896 1034.62 44.896ZM1043.36 45.088H1047.11V58H1043.36V45.088ZM1045.24 43.288C1044.55 43.288 1043.99 43.088 1043.56 42.688C1043.12 42.288 1042.91 41.792 1042.91 41.2C1042.91 40.608 1043.12 40.112 1043.56 39.712C1043.99 39.312 1044.55 39.112 1045.24 39.112C1045.92 39.112 1046.48 39.304 1046.92 39.688C1047.35 40.072 1047.56 40.552 1047.56 41.128C1047.56 41.752 1047.35 42.272 1046.92 42.688C1046.48 43.088 1045.92 43.288 1045.24 43.288ZM1063.4 45.088L1057.57 58.792C1056.98 60.28 1056.24 61.328 1055.36 61.936C1054.5 62.544 1053.45 62.848 1052.22 62.848C1051.54 62.848 1050.88 62.744 1050.22 62.536C1049.57 62.328 1049.03 62.04 1048.62 61.672L1049.98 59.008C1050.27 59.264 1050.6 59.464 1050.97 59.608C1051.35 59.752 1051.73 59.824 1052.1 59.824C1052.61 59.824 1053.02 59.696 1053.34 59.44C1053.66 59.2 1053.95 58.792 1054.21 58.216L1054.26 58.096L1048.66 45.088H1052.53L1056.15 53.848L1059.8 45.088H1063.4ZM1077.22 51.592C1077.22 51.64 1077.2 51.976 1077.15 52.6H1067.38C1067.56 53.4 1067.98 54.032 1068.63 54.496C1069.29 54.96 1070.1 55.192 1071.08 55.192C1071.75 55.192 1072.34 55.096 1072.86 54.904C1073.38 54.696 1073.87 54.376 1074.32 53.944L1076.31 56.104C1075.1 57.496 1073.32 58.192 1070.98 58.192C1069.53 58.192 1068.24 57.912 1067.12 57.352C1066 56.776 1065.14 55.984 1064.53 54.976C1063.92 53.968 1063.62 52.824 1063.62 51.544C1063.62 50.28 1063.91 49.144 1064.5 48.136C1065.11 47.112 1065.94 46.32 1066.98 45.76C1068.03 45.184 1069.21 44.896 1070.5 44.896C1071.77 44.896 1072.91 45.168 1073.94 45.712C1074.96 46.256 1075.76 47.04 1076.34 48.064C1076.93 49.072 1077.22 50.248 1077.22 51.592ZM1070.53 47.728C1069.68 47.728 1068.97 47.968 1068.39 48.448C1067.82 48.928 1067.46 49.584 1067.34 50.416H1073.7C1073.57 49.6 1073.22 48.952 1072.64 48.472C1072.06 47.976 1071.36 47.728 1070.53 47.728Z" fill="black"/>
<path d="M1183.46 29.288C1181.06 29.288 1179.18 28.624 1177.84 27.296C1176.51 25.968 1175.85 24.072 1175.85 21.608V12.2H1179.74V21.464C1179.74 24.472 1180.98 25.976 1183.48 25.976C1184.7 25.976 1185.62 25.616 1186.26 24.896C1186.9 24.16 1187.22 23.016 1187.22 21.464V12.2H1191.06V21.608C1191.06 24.072 1190.39 25.968 1189.05 27.296C1187.72 28.624 1185.86 29.288 1183.46 29.288ZM1207.46 16.088L1201.63 29.792C1201.03 31.28 1200.3 32.328 1199.42 32.936C1198.55 33.544 1197.51 33.848 1196.27 33.848C1195.6 33.848 1194.94 33.744 1194.28 33.536C1193.63 33.328 1193.09 33.04 1192.67 32.672L1194.04 30.008C1194.33 30.264 1194.66 30.464 1195.03 30.608C1195.41 30.752 1195.79 30.824 1196.15 30.824C1196.67 30.824 1197.08 30.696 1197.4 30.44C1197.72 30.2 1198.01 29.792 1198.27 29.216L1198.31 29.096L1192.72 16.088H1196.59L1200.21 24.848L1203.86 16.088H1207.46ZM1221.79 11.192V29H1218.21V27.512C1217.28 28.632 1215.94 29.192 1214.18 29.192C1212.96 29.192 1211.86 28.92 1210.87 28.376C1209.89 27.832 1209.12 27.056 1208.56 26.048C1208 25.04 1207.72 23.872 1207.72 22.544C1207.72 21.216 1208 20.048 1208.56 19.04C1209.12 18.032 1209.89 17.256 1210.87 16.712C1211.86 16.168 1212.96 15.896 1214.18 15.896C1215.83 15.896 1217.11 16.416 1218.04 17.456V11.192H1221.79ZM1214.83 26.12C1215.77 26.12 1216.55 25.8 1217.18 25.16C1217.8 24.504 1218.11 23.632 1218.11 22.544C1218.11 21.456 1217.8 20.592 1217.18 19.952C1216.55 19.296 1215.77 18.968 1214.83 18.968C1213.87 18.968 1213.07 19.296 1212.45 19.952C1211.83 20.592 1211.51 21.456 1211.51 22.544C1211.51 23.632 1211.83 24.504 1212.45 25.16C1213.07 25.8 1213.87 26.12 1214.83 26.12ZM1238.26 16.088V29H1234.71V27.464C1234.21 28.024 1233.62 28.456 1232.93 28.76C1232.24 29.048 1231.5 29.192 1230.7 29.192C1229 29.192 1227.66 28.704 1226.67 27.728C1225.68 26.752 1225.18 25.304 1225.18 23.384V16.088H1228.92V22.832C1228.92 24.912 1229.8 25.952 1231.54 25.952C1232.44 25.952 1233.16 25.664 1233.7 25.088C1234.24 24.496 1234.52 23.624 1234.52 22.472V16.088H1238.26ZM1153.9 44.368H1148.53V41.2H1163.17V44.368H1157.79V58H1153.9V44.368ZM1176.33 51.592C1176.33 51.64 1176.31 51.976 1176.26 52.6H1166.49C1166.67 53.4 1167.08 54.032 1167.74 54.496C1168.39 54.96 1169.21 55.192 1170.19 55.192C1170.86 55.192 1171.45 55.096 1171.96 54.904C1172.49 54.696 1172.98 54.376 1173.43 53.944L1175.42 56.104C1174.2 57.496 1172.43 58.192 1170.09 58.192C1168.63 58.192 1167.35 57.912 1166.23 57.352C1165.11 56.776 1164.24 55.984 1163.63 54.976C1163.03 53.968 1162.72 52.824 1162.72 51.544C1162.72 50.28 1163.02 49.144 1163.61 48.136C1164.22 47.112 1165.04 46.32 1166.08 45.76C1167.14 45.184 1168.31 44.896 1169.61 44.896C1170.87 44.896 1172.02 45.168 1173.04 45.712C1174.07 46.256 1174.87 47.04 1175.44 48.064C1176.03 49.072 1176.33 50.248 1176.33 51.592ZM1169.63 47.728C1168.79 47.728 1168.07 47.968 1167.5 48.448C1166.92 48.928 1166.57 49.584 1166.44 50.416H1172.8C1172.67 49.6 1172.32 48.952 1171.75 48.472C1171.17 47.976 1170.47 47.728 1169.63 47.728ZM1182.4 46.792C1182.85 46.168 1183.45 45.696 1184.2 45.376C1184.97 45.056 1185.85 44.896 1186.84 44.896V48.352C1186.42 48.32 1186.14 48.304 1186 48.304C1184.93 48.304 1184.09 48.608 1183.48 49.216C1182.87 49.808 1182.57 50.704 1182.57 51.904V58H1178.82V45.088H1182.4V46.792ZM1205.6 44.896C1207.22 44.896 1208.5 45.376 1209.44 46.336C1210.4 47.28 1210.88 48.704 1210.88 50.608V58H1207.14V51.184C1207.14 50.16 1206.92 49.4 1206.49 48.904C1206.07 48.392 1205.47 48.136 1204.69 48.136C1203.81 48.136 1203.11 48.424 1202.6 49C1202.09 49.56 1201.83 50.4 1201.83 51.52V58H1198.09V51.184C1198.09 49.152 1197.27 48.136 1195.64 48.136C1194.78 48.136 1194.09 48.424 1193.58 49C1193.06 49.56 1192.81 50.4 1192.81 51.52V58H1189.06V45.088H1192.64V46.576C1193.12 46.032 1193.7 45.616 1194.39 45.328C1195.1 45.04 1195.86 44.896 1196.7 44.896C1197.61 44.896 1198.43 45.08 1199.17 45.448C1199.9 45.8 1200.5 46.32 1200.94 47.008C1201.47 46.336 1202.14 45.816 1202.94 45.448C1203.75 45.08 1204.64 44.896 1205.6 44.896ZM1214.24 45.088H1217.98V58H1214.24V45.088ZM1216.11 43.288C1215.42 43.288 1214.86 43.088 1214.43 42.688C1214 42.288 1213.78 41.792 1213.78 41.2C1213.78 40.608 1214 40.112 1214.43 39.712C1214.86 39.312 1215.42 39.112 1216.11 39.112C1216.8 39.112 1217.36 39.304 1217.79 39.688C1218.22 40.072 1218.44 40.552 1218.44 41.128C1218.44 41.752 1218.22 42.272 1217.79 42.688C1217.36 43.088 1216.8 43.288 1216.11 43.288ZM1229.3 44.896C1230.9 44.896 1232.19 45.376 1233.17 46.336C1234.16 47.296 1234.65 48.72 1234.65 50.608V58H1230.91V51.184C1230.91 50.16 1230.69 49.4 1230.24 48.904C1229.79 48.392 1229.14 48.136 1228.29 48.136C1227.35 48.136 1226.6 48.432 1226.04 49.024C1225.48 49.6 1225.2 50.464 1225.2 51.616V58H1221.45V45.088H1225.03V46.6C1225.53 46.056 1226.14 45.64 1226.88 45.352C1227.61 45.048 1228.42 44.896 1229.3 44.896ZM1243.26 44.896C1245.26 44.896 1246.79 45.376 1247.86 46.336C1248.94 47.28 1249.47 48.712 1249.47 50.632V58H1245.97V56.392C1245.26 57.592 1243.95 58.192 1242.03 58.192C1241.04 58.192 1240.18 58.024 1239.44 57.688C1238.72 57.352 1238.17 56.888 1237.78 56.296C1237.4 55.704 1237.21 55.032 1237.21 54.28C1237.21 53.08 1237.66 52.136 1238.55 51.448C1239.46 50.76 1240.86 50.416 1242.75 50.416H1245.73C1245.73 49.6 1245.48 48.976 1244.98 48.544C1244.49 48.096 1243.74 47.872 1242.75 47.872C1242.06 47.872 1241.38 47.984 1240.71 48.208C1240.06 48.416 1239.5 48.704 1239.03 49.072L1237.69 46.456C1238.39 45.96 1239.23 45.576 1240.21 45.304C1241.2 45.032 1242.22 44.896 1243.26 44.896ZM1242.97 55.672C1243.61 55.672 1244.18 55.528 1244.67 55.24C1245.17 54.936 1245.52 54.496 1245.73 53.92V52.6H1243.16C1241.62 52.6 1240.86 53.104 1240.86 54.112C1240.86 54.592 1241.04 54.976 1241.41 55.264C1241.79 55.536 1242.31 55.672 1242.97 55.672ZM1252.86 40.192H1256.6V58H1252.86V40.192ZM1260.08 45.088H1263.82V58H1260.08V45.088ZM1261.95 43.288C1261.26 43.288 1260.7 43.088 1260.27 42.688C1259.84 42.288 1259.62 41.792 1259.62 41.2C1259.62 40.608 1259.84 40.112 1260.27 39.712C1260.7 39.312 1261.26 39.112 1261.95 39.112C1262.64 39.112 1263.2 39.304 1263.63 39.688C1264.06 40.072 1264.28 40.552 1264.28 41.128C1264.28 41.752 1264.06 42.272 1263.63 42.688C1263.2 43.088 1262.64 43.288 1261.95 43.288Z" fill="black"/>
<path d="M1343.13 12.2H1347.02V29H1343.13V12.2ZM1345.07 10.712C1344.48 10.712 1343.99 10.52 1343.61 10.136C1343.24 9.752 1343.06 9.264 1343.06 8.672C1343.06 8.096 1343.24 7.616 1343.61 7.232C1343.99 6.848 1344.48 6.656 1345.07 6.656C1345.66 6.656 1346.14 6.848 1346.51 7.232C1346.9 7.616 1347.09 8.096 1347.09 8.672C1347.09 9.264 1346.9 9.752 1346.51 10.136C1346.14 10.52 1345.66 10.712 1345.07 10.712ZM1355.08 29.192C1354.01 29.192 1352.96 29.064 1351.94 28.808C1350.92 28.536 1350.1 28.2 1349.49 27.8L1350.74 25.112C1351.32 25.48 1352.01 25.784 1352.83 26.024C1353.64 26.248 1354.44 26.36 1355.23 26.36C1356.81 26.36 1357.6 25.968 1357.6 25.184C1357.6 24.816 1357.39 24.552 1356.96 24.392C1356.52 24.232 1355.86 24.096 1354.96 23.984C1353.91 23.824 1353.04 23.64 1352.35 23.432C1351.66 23.224 1351.06 22.856 1350.55 22.328C1350.05 21.8 1349.8 21.048 1349.8 20.072C1349.8 19.256 1350.04 18.536 1350.5 17.912C1350.98 17.272 1351.67 16.776 1352.56 16.424C1353.48 16.072 1354.55 15.896 1355.78 15.896C1356.69 15.896 1357.6 16 1358.49 16.208C1359.4 16.4 1360.16 16.672 1360.75 17.024L1359.5 19.688C1358.36 19.048 1357.12 18.728 1355.78 18.728C1354.98 18.728 1354.38 18.84 1353.98 19.064C1353.58 19.288 1353.38 19.576 1353.38 19.928C1353.38 20.328 1353.6 20.608 1354.03 20.768C1354.46 20.928 1355.15 21.08 1356.09 21.224C1357.15 21.4 1358.01 21.592 1358.68 21.8C1359.36 21.992 1359.94 22.352 1360.44 22.88C1360.93 23.408 1361.18 24.144 1361.18 25.088C1361.18 25.888 1360.94 26.6 1360.46 27.224C1359.98 27.848 1359.28 28.336 1358.35 28.688C1357.44 29.024 1356.35 29.192 1355.08 29.192ZM1371.82 28.376C1371.45 28.648 1370.99 28.856 1370.45 29C1369.92 29.128 1369.36 29.192 1368.77 29.192C1367.23 29.192 1366.04 28.8 1365.19 28.016C1364.36 27.232 1363.95 26.08 1363.95 24.56V19.256H1361.95V16.376H1363.95V13.232H1367.69V16.376H1370.91V19.256H1367.69V24.512C1367.69 25.056 1367.83 25.48 1368.1 25.784C1368.39 26.072 1368.79 26.216 1369.3 26.216C1369.89 26.216 1370.39 26.056 1370.81 25.736L1371.82 28.376ZM1379.13 15.896C1381.13 15.896 1382.66 16.376 1383.74 17.336C1384.81 18.28 1385.34 19.712 1385.34 21.632V29H1381.84V27.392C1381.14 28.592 1379.82 29.192 1377.9 29.192C1376.91 29.192 1376.05 29.024 1375.31 28.688C1374.59 28.352 1374.04 27.888 1373.66 27.296C1373.27 26.704 1373.08 26.032 1373.08 25.28C1373.08 24.08 1373.53 23.136 1374.42 22.448C1375.34 21.76 1376.74 21.416 1378.62 21.416H1381.6C1381.6 20.6 1381.35 19.976 1380.86 19.544C1380.36 19.096 1379.62 18.872 1378.62 18.872C1377.94 18.872 1377.26 18.984 1376.58 19.208C1375.93 19.416 1375.37 19.704 1374.9 20.072L1373.56 17.456C1374.26 16.96 1375.1 16.576 1376.08 16.304C1377.07 16.032 1378.09 15.896 1379.13 15.896ZM1378.84 26.672C1379.48 26.672 1380.05 26.528 1380.54 26.24C1381.04 25.936 1381.39 25.496 1381.6 24.92V23.6H1379.03C1377.5 23.6 1376.73 24.104 1376.73 25.112C1376.73 25.592 1376.91 25.976 1377.28 26.264C1377.66 26.536 1378.18 26.672 1378.84 26.672ZM1396.58 15.896C1398.18 15.896 1399.47 16.376 1400.44 17.336C1401.44 18.296 1401.93 19.72 1401.93 21.608V29H1398.19V22.184C1398.19 21.16 1397.96 20.4 1397.52 19.904C1397.07 19.392 1396.42 19.136 1395.57 19.136C1394.63 19.136 1393.88 19.432 1393.32 20.024C1392.76 20.6 1392.48 21.464 1392.48 22.616V29H1388.73V16.088H1392.31V17.6C1392.8 17.056 1393.42 16.64 1394.16 16.352C1394.89 16.048 1395.7 15.896 1396.58 15.896ZM1412.96 15.896C1414.16 15.896 1415.25 16.176 1416.22 16.736C1417.21 17.28 1417.99 18.056 1418.55 19.064C1419.11 20.056 1419.39 21.216 1419.39 22.544C1419.39 23.872 1419.11 25.04 1418.55 26.048C1417.99 27.04 1417.21 27.816 1416.22 28.376C1415.25 28.92 1414.16 29.192 1412.96 29.192C1411.18 29.192 1409.83 28.632 1408.9 27.512V29H1405.33V11.192H1409.07V17.456C1410.01 16.416 1411.31 15.896 1412.96 15.896ZM1412.31 26.12C1413.27 26.12 1414.05 25.8 1414.66 25.16C1415.29 24.504 1415.6 23.632 1415.6 22.544C1415.6 21.456 1415.29 20.592 1414.66 19.952C1414.05 19.296 1413.27 18.968 1412.31 18.968C1411.35 18.968 1410.56 19.296 1409.93 19.952C1409.33 20.592 1409.02 21.456 1409.02 22.544C1409.02 23.632 1409.33 24.504 1409.93 25.16C1410.56 25.8 1411.35 26.12 1412.31 26.12ZM1434.9 16.088V29H1431.35V27.464C1430.86 28.024 1430.26 28.456 1429.58 28.76C1428.89 29.048 1428.14 29.192 1427.34 29.192C1425.65 29.192 1424.3 28.704 1423.31 27.728C1422.32 26.752 1421.82 25.304 1421.82 23.384V16.088H1425.57V22.832C1425.57 24.912 1426.44 25.952 1428.18 25.952C1429.08 25.952 1429.8 25.664 1430.34 25.088C1430.89 24.496 1431.16 23.624 1431.16 22.472V16.088H1434.9ZM1438.37 11.192H1442.12V29H1438.37V11.192ZM1339.44 41.2V58H1335.55V51.112H1327.92V58H1324.03V41.2H1327.92V47.824H1335.55V41.2H1339.44ZM1348.35 44.896C1350.35 44.896 1351.89 45.376 1352.96 46.336C1354.03 47.28 1354.57 48.712 1354.57 50.632V58H1351.07V56.392C1350.36 57.592 1349.05 58.192 1347.13 58.192C1346.14 58.192 1345.27 58.024 1344.54 57.688C1343.82 57.352 1343.27 56.888 1342.88 56.296C1342.5 55.704 1342.31 55.032 1342.31 54.28C1342.31 53.08 1342.75 52.136 1343.65 51.448C1344.56 50.76 1345.96 50.416 1347.85 50.416H1350.83C1350.83 49.6 1350.58 48.976 1350.08 48.544C1349.59 48.096 1348.84 47.872 1347.85 47.872C1347.16 47.872 1346.48 47.984 1345.81 48.208C1345.15 48.416 1344.59 48.704 1344.13 49.072L1342.79 46.456C1343.49 45.96 1344.33 45.576 1345.31 45.304C1346.3 45.032 1347.31 44.896 1348.35 44.896ZM1348.07 55.672C1348.71 55.672 1349.27 55.528 1349.77 55.24C1350.27 54.936 1350.62 54.496 1350.83 53.92V52.6H1348.26C1346.72 52.6 1345.95 53.104 1345.95 54.112C1345.95 54.592 1346.14 54.976 1346.51 55.264C1346.89 55.536 1347.41 55.672 1348.07 55.672ZM1370.54 45.088L1365.09 58H1361.23L1355.8 45.088H1359.67L1363.24 53.872L1366.94 45.088H1370.54ZM1376.85 44.896C1378.85 44.896 1380.39 45.376 1381.46 46.336C1382.53 47.28 1383.07 48.712 1383.07 50.632V58H1379.57V56.392C1378.86 57.592 1377.55 58.192 1375.63 58.192C1374.64 58.192 1373.77 58.024 1373.04 57.688C1372.32 57.352 1371.77 56.888 1371.38 56.296C1371 55.704 1370.81 55.032 1370.81 54.28C1370.81 53.08 1371.25 52.136 1372.15 51.448C1373.06 50.76 1374.46 50.416 1376.35 50.416H1379.33C1379.33 49.6 1379.08 48.976 1378.58 48.544C1378.09 48.096 1377.34 47.872 1376.35 47.872C1375.66 47.872 1374.98 47.984 1374.31 48.208C1373.65 48.416 1373.09 48.704 1372.63 49.072L1371.29 46.456C1371.99 45.96 1372.83 45.576 1373.81 45.304C1374.8 45.032 1375.81 44.896 1376.85 44.896ZM1376.57 55.672C1377.21 55.672 1377.77 55.528 1378.27 55.24C1378.77 54.936 1379.12 54.496 1379.33 53.92V52.6H1376.76C1375.22 52.6 1374.45 53.104 1374.45 54.112C1374.45 54.592 1374.64 54.976 1375.01 55.264C1375.39 55.536 1375.91 55.672 1376.57 55.672ZM1386.46 40.192H1390.2V58H1386.46V40.192ZM1393.68 45.088H1397.42V58H1393.68V45.088ZM1395.55 43.288C1394.86 43.288 1394.3 43.088 1393.87 42.688C1393.44 42.288 1393.22 41.792 1393.22 41.2C1393.22 40.608 1393.44 40.112 1393.87 39.712C1394.3 39.312 1394.86 39.112 1395.55 39.112C1396.24 39.112 1396.8 39.304 1397.23 39.688C1397.66 40.072 1397.88 40.552 1397.88 41.128C1397.88 41.752 1397.66 42.272 1397.23 42.688C1396.8 43.088 1396.24 43.288 1395.55 43.288ZM1417.43 44.896C1419.05 44.896 1420.33 45.376 1421.27 46.336C1422.23 47.28 1422.71 48.704 1422.71 50.608V58H1418.97V51.184C1418.97 50.16 1418.75 49.4 1418.32 48.904C1417.9 48.392 1417.3 48.136 1416.52 48.136C1415.64 48.136 1414.94 48.424 1414.43 49C1413.92 49.56 1413.66 50.4 1413.66 51.52V58H1409.92V51.184C1409.92 49.152 1409.1 48.136 1407.47 48.136C1406.61 48.136 1405.92 48.424 1405.41 49C1404.9 49.56 1404.64 50.4 1404.64 51.52V58H1400.9V45.088H1404.47V46.576C1404.95 46.032 1405.54 45.616 1406.22 45.328C1406.93 45.04 1407.7 44.896 1408.53 44.896C1409.44 44.896 1410.26 45.08 1411 45.448C1411.74 45.8 1412.33 46.32 1412.78 47.008C1413.3 46.336 1413.97 45.816 1414.77 45.448C1415.58 45.08 1416.47 44.896 1417.43 44.896ZM1431.28 44.896C1433.28 44.896 1434.81 45.376 1435.88 46.336C1436.96 47.28 1437.49 48.712 1437.49 50.632V58H1433.99V56.392C1433.28 57.592 1431.97 58.192 1430.05 58.192C1429.06 58.192 1428.2 58.024 1427.46 57.688C1426.74 57.352 1426.19 56.888 1425.8 56.296C1425.42 55.704 1425.23 55.032 1425.23 54.28C1425.23 53.08 1425.68 52.136 1426.57 51.448C1427.48 50.76 1428.88 50.416 1430.77 50.416H1433.75C1433.75 49.6 1433.5 48.976 1433 48.544C1432.51 48.096 1431.76 47.872 1430.77 47.872C1430.08 47.872 1429.4 47.984 1428.73 48.208C1428.08 48.416 1427.52 48.704 1427.05 49.072L1425.71 46.456C1426.41 45.96 1427.25 45.576 1428.23 45.304C1429.22 45.032 1430.24 44.896 1431.28 44.896ZM1430.99 55.672C1431.63 55.672 1432.2 55.528 1432.69 55.24C1433.19 54.936 1433.54 54.496 1433.75 53.92V52.6H1431.18C1429.64 52.6 1428.88 53.104 1428.88 54.112C1428.88 54.592 1429.06 54.976 1429.43 55.264C1429.81 55.536 1430.33 55.672 1430.99 55.672ZM1448.73 44.896C1450.33 44.896 1451.62 45.376 1452.59 46.336C1453.58 47.296 1454.08 48.72 1454.08 50.608V58H1450.34V51.184C1450.34 50.16 1450.11 49.4 1449.66 48.904C1449.22 48.392 1448.57 48.136 1447.72 48.136C1446.78 48.136 1446.02 48.432 1445.46 49.024C1444.9 49.6 1444.62 50.464 1444.62 51.616V58H1440.88V45.088H1444.46V46.6C1444.95 46.056 1445.57 45.64 1446.3 45.352C1447.04 45.048 1447.85 44.896 1448.73 44.896ZM1457.47 45.088H1461.22V58H1457.47V45.088Z" fill="black"/>
<path d="M1547.64 22.4L1545.38 24.752V29H1541.52V12.2H1545.38V20.048L1552.82 12.2H1557.14L1550.18 19.688L1557.55 29H1553.01L1547.64 22.4ZM1563.94 15.896C1565.94 15.896 1567.48 16.376 1568.55 17.336C1569.62 18.28 1570.16 19.712 1570.16 21.632V29H1566.66V27.392C1565.95 28.592 1564.64 29.192 1562.72 29.192C1561.73 29.192 1560.86 29.024 1560.13 28.688C1559.41 28.352 1558.86 27.888 1558.47 27.296C1558.09 26.704 1557.9 26.032 1557.9 25.28C1557.9 24.08 1558.34 23.136 1559.24 22.448C1560.15 21.76 1561.55 21.416 1563.44 21.416H1566.42C1566.42 20.6 1566.17 19.976 1565.67 19.544C1565.18 19.096 1564.43 18.872 1563.44 18.872C1562.75 18.872 1562.07 18.984 1561.4 19.208C1560.74 19.416 1560.18 19.704 1559.72 20.072L1558.38 17.456C1559.08 16.96 1559.92 16.576 1560.9 16.304C1561.89 16.032 1562.9 15.896 1563.94 15.896ZM1563.66 26.672C1564.3 26.672 1564.86 26.528 1565.36 26.24C1565.86 25.936 1566.21 25.496 1566.42 24.92V23.6H1563.85C1562.31 23.6 1561.54 24.104 1561.54 25.112C1561.54 25.592 1561.73 25.976 1562.1 26.264C1562.48 26.536 1563 26.672 1563.66 26.672ZM1577.12 17.792C1577.57 17.168 1578.17 16.696 1578.92 16.376C1579.69 16.056 1580.57 15.896 1581.56 15.896V19.352C1581.15 19.32 1580.87 19.304 1580.72 19.304C1579.65 19.304 1578.81 19.608 1578.2 20.216C1577.6 20.808 1577.29 21.704 1577.29 22.904V29H1573.55V16.088H1577.12V17.792ZM1596.99 16.088V26.84C1596.99 29.208 1596.38 30.968 1595.15 32.12C1593.91 33.272 1592.11 33.848 1589.75 33.848C1588.5 33.848 1587.31 33.696 1586.19 33.392C1585.07 33.088 1584.15 32.648 1583.41 32.072L1584.9 29.384C1585.44 29.832 1586.13 30.184 1586.96 30.44C1587.79 30.712 1588.63 30.848 1589.46 30.848C1590.75 30.848 1591.71 30.552 1592.31 29.96C1592.94 29.384 1593.25 28.504 1593.25 27.32V26.768C1592.27 27.84 1590.91 28.376 1589.17 28.376C1587.99 28.376 1586.9 28.12 1585.91 27.608C1584.93 27.08 1584.15 26.344 1583.58 25.4C1583 24.456 1582.71 23.368 1582.71 22.136C1582.71 20.904 1583 19.816 1583.58 18.872C1584.15 17.928 1584.93 17.2 1585.91 16.688C1586.9 16.16 1587.99 15.896 1589.17 15.896C1591.04 15.896 1592.47 16.512 1593.44 17.744V16.088H1596.99ZM1589.91 25.304C1590.91 25.304 1591.71 25.016 1592.34 24.44C1592.98 23.848 1593.3 23.08 1593.3 22.136C1593.3 21.192 1592.98 20.432 1592.34 19.856C1591.71 19.264 1590.91 18.968 1589.91 18.968C1588.92 18.968 1588.11 19.264 1587.47 19.856C1586.83 20.432 1586.51 21.192 1586.51 22.136C1586.51 23.08 1586.83 23.848 1587.47 24.44C1588.11 25.016 1588.92 25.304 1589.91 25.304ZM1606.62 29.192C1605.26 29.192 1604.04 28.912 1602.95 28.352C1601.88 27.776 1601.04 26.984 1600.43 25.976C1599.82 24.968 1599.52 23.824 1599.52 22.544C1599.52 21.264 1599.82 20.12 1600.43 19.112C1601.04 18.104 1601.88 17.32 1602.95 16.76C1604.04 16.184 1605.26 15.896 1606.62 15.896C1607.98 15.896 1609.2 16.184 1610.27 16.76C1611.34 17.32 1612.18 18.104 1612.79 19.112C1613.4 20.12 1613.7 21.264 1613.7 22.544C1613.7 23.824 1613.4 24.968 1612.79 25.976C1612.18 26.984 1611.34 27.776 1610.27 28.352C1609.2 28.912 1607.98 29.192 1606.62 29.192ZM1606.62 26.12C1607.58 26.12 1608.37 25.8 1608.97 25.16C1609.6 24.504 1609.91 23.632 1609.91 22.544C1609.91 21.456 1609.6 20.592 1608.97 19.952C1608.37 19.296 1607.58 18.968 1606.62 18.968C1605.66 18.968 1604.87 19.296 1604.25 19.952C1603.62 20.592 1603.31 21.456 1603.31 22.544C1603.31 23.632 1603.62 24.504 1604.25 25.16C1604.87 25.8 1605.66 26.12 1606.62 26.12ZM1523.9 44.368H1518.53V41.2H1533.17V44.368H1527.79V58H1523.9V44.368ZM1546.33 51.592C1546.33 51.64 1546.31 51.976 1546.26 52.6H1536.49C1536.67 53.4 1537.08 54.032 1537.74 54.496C1538.39 54.96 1539.21 55.192 1540.19 55.192C1540.86 55.192 1541.45 55.096 1541.96 54.904C1542.49 54.696 1542.98 54.376 1543.43 53.944L1545.42 56.104C1544.2 57.496 1542.43 58.192 1540.09 58.192C1538.63 58.192 1537.35 57.912 1536.23 57.352C1535.11 56.776 1534.24 55.984 1533.63 54.976C1533.03 53.968 1532.72 52.824 1532.72 51.544C1532.72 50.28 1533.02 49.144 1533.61 48.136C1534.22 47.112 1535.04 46.32 1536.08 45.76C1537.14 45.184 1538.31 44.896 1539.61 44.896C1540.87 44.896 1542.02 45.168 1543.04 45.712C1544.07 46.256 1544.87 47.04 1545.44 48.064C1546.03 49.072 1546.33 50.248 1546.33 51.592ZM1539.63 47.728C1538.79 47.728 1538.07 47.968 1537.5 48.448C1536.92 48.928 1536.57 49.584 1536.44 50.416H1542.8C1542.67 49.6 1542.32 48.952 1541.75 48.472C1541.17 47.976 1540.47 47.728 1539.63 47.728ZM1552.4 46.792C1552.85 46.168 1553.45 45.696 1554.2 45.376C1554.97 45.056 1555.85 44.896 1556.84 44.896V48.352C1556.42 48.32 1556.14 48.304 1556 48.304C1554.93 48.304 1554.09 48.608 1553.48 49.216C1552.87 49.808 1552.57 50.704 1552.57 51.904V58H1548.82V45.088H1552.4V46.792ZM1575.6 44.896C1577.22 44.896 1578.5 45.376 1579.44 46.336C1580.4 47.28 1580.88 48.704 1580.88 50.608V58H1577.14V51.184C1577.14 50.16 1576.92 49.4 1576.49 48.904C1576.07 48.392 1575.47 48.136 1574.69 48.136C1573.81 48.136 1573.11 48.424 1572.6 49C1572.09 49.56 1571.83 50.4 1571.83 51.52V58H1568.09V51.184C1568.09 49.152 1567.27 48.136 1565.64 48.136C1564.78 48.136 1564.09 48.424 1563.58 49C1563.06 49.56 1562.81 50.4 1562.81 51.52V58H1559.06V45.088H1562.64V46.576C1563.12 46.032 1563.7 45.616 1564.39 45.328C1565.1 45.04 1565.86 44.896 1566.7 44.896C1567.61 44.896 1568.43 45.08 1569.17 45.448C1569.9 45.8 1570.5 46.32 1570.94 47.008C1571.47 46.336 1572.14 45.816 1572.94 45.448C1573.75 45.08 1574.64 44.896 1575.6 44.896ZM1584.24 45.088H1587.98V58H1584.24V45.088ZM1586.11 43.288C1585.42 43.288 1584.86 43.088 1584.43 42.688C1584 42.288 1583.78 41.792 1583.78 41.2C1583.78 40.608 1584 40.112 1584.43 39.712C1584.86 39.312 1585.42 39.112 1586.11 39.112C1586.8 39.112 1587.36 39.304 1587.79 39.688C1588.22 40.072 1588.44 40.552 1588.44 41.128C1588.44 41.752 1588.22 42.272 1587.79 42.688C1587.36 43.088 1586.8 43.288 1586.11 43.288ZM1599.3 44.896C1600.9 44.896 1602.19 45.376 1603.17 46.336C1604.16 47.296 1604.65 48.72 1604.65 50.608V58H1600.91V51.184C1600.91 50.16 1600.69 49.4 1600.24 48.904C1599.79 48.392 1599.14 48.136 1598.29 48.136C1597.35 48.136 1596.6 48.432 1596.04 49.024C1595.48 49.6 1595.2 50.464 1595.2 51.616V58H1591.45V45.088H1595.03V46.6C1595.53 46.056 1596.14 45.64 1596.88 45.352C1597.61 45.048 1598.42 44.896 1599.3 44.896ZM1613.26 44.896C1615.26 44.896 1616.79 45.376 1617.86 46.336C1618.94 47.28 1619.47 48.712 1619.47 50.632V58H1615.97V56.392C1615.26 57.592 1613.95 58.192 1612.03 58.192C1611.04 58.192 1610.18 58.024 1609.44 57.688C1608.72 57.352 1608.17 56.888 1607.78 56.296C1607.4 55.704 1607.21 55.032 1607.21 54.28C1607.21 53.08 1607.66 52.136 1608.55 51.448C1609.46 50.76 1610.86 50.416 1612.75 50.416H1615.73C1615.73 49.6 1615.48 48.976 1614.98 48.544C1614.49 48.096 1613.74 47.872 1612.75 47.872C1612.06 47.872 1611.38 47.984 1610.71 48.208C1610.06 48.416 1609.5 48.704 1609.03 49.072L1607.69 46.456C1608.39 45.96 1609.23 45.576 1610.21 45.304C1611.2 45.032 1612.22 44.896 1613.26 44.896ZM1612.97 55.672C1613.61 55.672 1614.18 55.528 1614.67 55.24C1615.17 54.936 1615.52 54.496 1615.73 53.92V52.6H1613.16C1611.62 52.6 1610.86 53.104 1610.86 54.112C1610.86 54.592 1611.04 54.976 1611.41 55.264C1611.79 55.536 1612.31 55.672 1612.97 55.672ZM1622.86 40.192H1626.6V58H1622.86V40.192ZM1630.08 45.088H1633.82V58H1630.08V45.088ZM1631.95 43.288C1631.26 43.288 1630.7 43.088 1630.27 42.688C1629.84 42.288 1629.62 41.792 1629.62 41.2C1629.62 40.608 1629.84 40.112 1630.27 39.712C1630.7 39.312 1631.26 39.112 1631.95 39.112C1632.64 39.112 1633.2 39.304 1633.63 39.688C1634.06 40.072 1634.28 40.552 1634.28 41.128C1634.28 41.752 1634.06 42.272 1633.63 42.688C1633.2 43.088 1632.64 43.288 1631.95 43.288Z" fill="black"/>
<rect x="97" y="123" width="6" height="20" fill="black"/>
<circle cx="288" cy="100" r="24" fill="black"/>
<ellipse cx="288.001" cy="99.9939" rx="19.2" ry="19.2" fill="white"/>
<rect x="285" y="123" width="6" height="22" fill="black"/>
<g clip-path="url(#clip0_492_2501)">
<path d="M228 161C228 157.44 229.056 153.96 231.034 151C233.011 148.04 235.823 145.733 239.112 144.37C242.401 143.008 246.02 142.651 249.512 143.346C253.003 144.04 256.211 145.755 258.728 148.272C261.245 150.789 262.96 153.997 263.654 157.488C264.349 160.98 263.992 164.599 262.63 167.888C261.267 171.177 258.96 173.989 256 175.966C253.04 177.944 249.56 179 246 179C241.229 178.989 236.657 177.089 233.284 173.716C229.911 170.343 228.011 165.771 228 161Z" fill="#F29EBF"/>
<path d="M234.27 155.337H238.112L240.944 164.438L243.775 155.337H247.82V167.472H245.393V157.359L242.157 167.472H239.73L236.494 157.359V167.472H234.27V155.337Z" fill="white"/>
<path d="M250.045 155.337H257.73V157.359L253.483 167.472H250.854L255.303 157.157H250.045V155.337Z" fill="white"/>
</g>
<circle cx="1207" cy="100" r="21" fill="#AB548F"/>
<path d="M1206.13 82.5C1206.52 81.8333 1207.48 81.8333 1207.87 82.5L1223.45 109.5C1223.84 110.167 1223.36 111 1222.59 111H1191.41C1190.64 111 1190.16 110.167 1190.55 109.5L1206.13 82.5Z" fill="black"/>
<path d="M1206.83 84.3C1206.9 84.1667 1207.1 84.1667 1207.17 84.3L1221.55 109.2C1221.63 109.333 1221.53 109.5 1221.38 109.5H1192.62C1192.47 109.5 1192.37 109.333 1192.45 109.2L1206.83 84.3Z" fill="#FFD400"/>
<path d="M1204.78 91.2H1209.24L1208.5 102.168H1205.52L1204.78 91.2ZM1207.01 108.192C1206.36 108.192 1205.8 107.984 1205.36 107.568C1204.92 107.136 1204.71 106.616 1204.71 106.008C1204.71 105.4 1204.92 104.896 1205.36 104.496C1205.79 104.08 1206.34 103.872 1207.01 103.872C1207.68 103.872 1208.24 104.08 1208.67 104.496C1209.1 104.896 1209.32 105.4 1209.32 106.008C1209.32 106.616 1209.09 107.136 1208.64 107.568C1208.21 107.984 1207.67 108.192 1207.01 108.192Z" fill="black"/>
<g clip-path="url(#clip1_492_2501)">
<path d="M78.9998 179.025C75.4313 179.032 71.941 177.981 68.9705 176.006C66.0001 174.031 63.683 171.221 62.3126 167.93C60.9422 164.639 60.58 161.016 61.272 157.52C61.9639 154.024 63.6788 150.811 66.1996 148.288C68.7205 145.766 71.934 144.047 75.4334 143.349C78.9328 142.651 82.5608 143.005 85.8584 144.368C89.1559 145.73 91.9746 148.039 93.9579 151.002C95.9412 153.965 96.9998 157.448 96.9998 161.012C96.9998 165.784 95.1045 170.36 91.7299 173.737C88.3552 177.114 83.777 179.016 78.9998 179.025Z" fill="#009845"/>
<path d="M67.207 155.268H70.9493L73.7247 164.109H73.7598L76.5352 155.268H80.2774V166.931H78.0381V157.304H78.003L74.8619 166.931H72.6226L69.4815 157.304L69.4464 157.34V166.931H67.207V155.268Z" fill="white"/>
<path d="M82.3262 166.932V164.975C83.4133 163.925 87.371 160.612 87.371 158.471C87.371 157.4 86.4191 156.9 85.4673 156.9C84.4993 156.948 83.5656 157.273 82.777 157.835L82.5917 155.899C83.6639 155.358 84.8473 155.074 86.0484 155.068C88.2727 155.068 89.7105 156.184 89.7105 158.476C89.7105 160.977 87.2057 163.224 85.312 165.095H90.0762V166.932H82.3262Z" fill="white"/>
</g>
<g clip-path="url(#clip2_492_2501)">
<mask id="path-41-inside-1_492_2501" fill="white">
<path d="M104 146L106.5 144H135L138 146V175.5L135.5 178H106.5L104 175.5V146Z"/>
</mask>
<path d="M106.5 144V80H84.05L66.5195 94.0244L106.5 144ZM104 146L64.0195 96.0244L40 115.24V146H104ZM104 175.5H40V202.01L58.7452 220.755L104 175.5ZM106.5 178L61.2452 223.255L79.9903 242H106.5V178ZM135.5 178V242H162.01L180.755 223.255L135.5 178ZM138 175.5L183.255 220.755L202 202.01V175.5H138ZM138 146H202V111.748L173.501 92.7488L138 146ZM135 144L170.501 90.7488L154.378 80H135V144ZM66.5195 94.0244L64.0195 96.0244L143.98 195.976L146.48 193.976L66.5195 94.0244ZM40 146V175.5H168V146H40ZM58.7452 220.755L61.2452 223.255L151.755 132.745L149.255 130.245L58.7452 220.755ZM106.5 242H135.5V114H106.5V242ZM180.755 223.255L183.255 220.755L92.7452 130.245L90.2452 132.745L180.755 223.255ZM202 175.5V146H74V175.5H202ZM173.501 92.7488L170.501 90.7488L99.4992 197.251L102.499 199.251L173.501 92.7488ZM135 80H106.5V208H135V80Z" fill="white" mask="url(#path-41-inside-1_492_2501)"/>
<path d="M107.407 144.524C105.813 144.524 104.516 145.82 104.516 147.412V174.589C104.516 176.182 105.813 177.476 107.407 177.476H134.59C136.186 177.476 137.482 176.182 137.482 174.589V147.412C137.482 145.82 136.186 144.524 134.59 144.524H107.407ZM134.59 179H107.407C104.976 179 103 177.021 103 174.589V147.412C103 144.979 104.976 143 107.407 143H134.59C137.023 143 139 144.979 139 147.412V174.589C139 177.021 137.023 179 134.59 179Z" fill="#0F1F5C"/>
<path d="M125.699 167.671V169.035C125.699 170.697 128.162 170.697 128.162 169.035V167.671C129.702 167.671 129.663 166.411 129.663 166.411V159.667L129.592 158.979L128.761 152.672C128.531 151.533 127.793 151.077 126.687 150.624C125.595 150.175 122.921 149.639 120.993 149.623C119.067 149.639 116.397 150.175 115.308 150.624C114.203 151.077 113.467 151.533 113.236 152.672L112.408 158.979L112.336 159.667V166.411C112.336 166.411 112.298 167.671 113.835 167.671V169.035C113.835 170.697 116.295 170.697 116.295 169.035V167.671H125.699ZM126.928 164.946C126.277 164.946 125.747 164.424 125.747 163.78C125.747 163.135 126.277 162.613 126.928 162.613C127.581 162.613 128.112 163.135 128.112 163.78C128.112 164.424 127.581 164.946 126.928 164.946ZM117.397 152.239C116.709 152.239 116.709 151.215 117.397 151.215H124.594C125.283 151.215 125.283 152.239 124.594 152.239H117.397ZM126.495 153.273C127.227 153.273 127.417 153.641 127.505 154.195L128.107 158.77C128.166 159.207 128.039 159.644 127.424 159.644H114.572C113.959 159.644 113.831 159.207 113.89 158.77L114.49 154.195C114.579 153.641 114.768 153.273 115.499 153.273H126.495ZM113.885 163.78C113.885 163.135 114.415 162.613 115.066 162.613C115.717 162.613 116.245 163.135 116.245 163.78C116.245 164.424 115.717 164.946 115.066 164.946C114.415 164.946 113.885 164.424 113.885 163.78Z" fill="#0F1F5C"/>
<path d="M109.004 149.365V172.636" stroke="#0F1F5C" stroke-width="1.58533" stroke-miterlimit="3.864" stroke-linecap="round"/>
<path d="M132.996 149.365V172.636" stroke="#0F1F5C" stroke-width="1.58533" stroke-miterlimit="3.864" stroke-linecap="round"/>
</g>
<g clip-path="url(#clip3_492_2501)">
<path d="M270 161C270 157.44 271.056 153.96 273.034 151C275.011 148.04 277.823 145.733 281.112 144.37C284.401 143.008 288.02 142.651 291.512 143.346C295.003 144.04 298.211 145.755 300.728 148.272C303.245 150.789 304.96 153.997 305.654 157.488C306.349 160.98 305.992 164.599 304.63 167.888C303.267 171.177 300.96 173.989 298 175.966C295.04 177.944 291.56 179 288 179C283.228 178.995 278.652 177.097 275.278 173.722C271.903 170.348 270.005 165.772 270 161Z" fill="#9D9D9C"/>
<path d="M272.406 155.6H276.148L278.959 164.458H279L281.75 155.58H285.512L285.532 167.29H283.287L283.267 157.622H283.247L280.112 167.29H277.867L274.692 157.643L274.651 157.683L274.671 167.31H272.426L272.406 155.6Z" fill="white"/>
<path d="M286.949 165.105C287.773 165.435 288.65 165.613 289.538 165.631C290.509 165.631 292.005 165.146 292.005 163.973C292.005 162.8 290.913 162.132 289.416 162.132H288.203V160.292H289.275C290.852 160.292 291.864 159.766 291.864 158.755C291.864 157.744 290.994 157.157 289.922 157.157C289.01 157.166 288.111 157.38 287.293 157.784L287.151 155.903C288.197 155.503 289.308 155.297 290.428 155.296C291.864 155.296 294.291 155.802 294.291 158.29C294.32 158.95 294.121 159.6 293.727 160.131C293.333 160.661 292.767 161.04 292.127 161.202C292.768 161.307 293.346 161.651 293.744 162.165C294.142 162.679 294.33 163.325 294.27 163.973C294.27 166.764 291.742 167.472 289.801 167.472C288.763 167.482 287.729 167.353 286.727 167.087L286.949 165.105Z" fill="white"/>
<path d="M294.795 162.942L299.163 155.54H302.076V163.063H303.572V164.802H302.076V167.27H299.851V164.843H294.815L294.795 162.942ZM299.851 163.083V157.987L296.919 163.083H299.851Z" fill="white"/>
</g>
<g clip-path="url(#clip4_492_2501)">
<path d="M312 161C312 151.09 320.09 143 330 143C339.91 143 348 151.09 348 161C348 170.91 339.91 179 330 179C320.09 179.202 312.202 171.315 312 161.404C312 161.202 312 161.202 312 161Z" fill="#9D9D9D"/>
<path d="M323.326 154.933H327.371L330 164.034L333.034 154.933H336.877V167.067H334.45V156.955L331.416 167.067H328.989L325.753 156.955V157.157V167.067H323.326V154.933Z" fill="white"/>
</g>
<circle cx="1577" cy="100" r="24" fill="#AB548F"/>
<defs>
<clipPath id="clip0_492_2501">
<rect width="36" height="36" fill="white" transform="translate(228 143)"/>
</clipPath>
<clipPath id="clip1_492_2501">
<rect width="36" height="36" fill="white" transform="translate(61 143)"/>
</clipPath>
<clipPath id="clip2_492_2501">
<rect width="36" height="36" fill="white" transform="translate(103 143)"/>
</clipPath>
<clipPath id="clip3_492_2501">
<rect width="36" height="36" fill="white" transform="translate(270 143)"/>
</clipPath>
<clipPath id="clip4_492_2501">
<rect width="36" height="36" fill="white" transform="translate(312 143)"/>
</clipPath>
</defs>
</svg>
