<svg width="1492" height="200" viewBox="0 0 1492 200" fill="none" xmlns="http://www.w3.org/2000/svg">
<g clip-path="url(#clip0_496_5925)">
<path d="M100 100H1382" stroke="#AB548F" stroke-width="20"/>
<circle cx="473" cy="100" r="21" fill="#AB548F"/>
<circle cx="473" cy="100" r="13" fill="white"/>
<circle cx="658" cy="100" r="21" fill="#AB548F"/>
<circle cx="658" cy="100" r="13" fill="white"/>
<circle cx="288" cy="100" r="21" fill="#AB548F"/>
<circle cx="288" cy="100" r="13" fill="white"/>
<circle cx="843" cy="100" r="21" fill="#AB548F"/>
<circle cx="843" cy="100" r="13" fill="white"/>
<circle cx="1025" cy="100" r="21" fill="#AB548F"/>
<circle cx="1025" cy="100" r="13" fill="white"/>
<circle cx="1207" cy="100" r="21" fill="#AB548F"/>
<circle cx="1207" cy="100" r="13" fill="white"/>
<circle cx="1392" cy="100" r="21" fill="#AB548F"/>
<circle cx="1392" cy="100" r="13" fill="white"/>
<circle cx="1025" cy="100" r="24" fill="black"/>
<ellipse cx="1025" cy="99.9939" rx="19.2" ry="19.2" fill="white"/>
<path d="M70.6354 22.4L68.3794 24.752V29H64.5154V12.2H68.3794V20.048L75.8194 12.2H80.1394L73.1794 19.688L80.5474 29H76.0114L70.6354 22.4ZM86.9438 15.896C88.9438 15.896 90.4798 16.376 91.5518 17.336C92.6238 18.28 93.1598 19.712 93.1598 21.632V29H89.6558V27.392C88.9518 28.592 87.6398 29.192 85.7198 29.192C84.7278 29.192 83.8638 29.024 83.1278 28.688C82.4078 28.352 81.8558 27.888 81.4718 27.296C81.0878 26.704 80.8958 26.032 80.8958 25.28C80.8958 24.08 81.3438 23.136 82.2398 22.448C83.1518 21.76 84.5518 21.416 86.4398 21.416H89.4158C89.4158 20.6 89.1678 19.976 88.6718 19.544C88.1758 19.096 87.4318 18.872 86.4398 18.872C85.7518 18.872 85.0718 18.984 84.3998 19.208C83.7438 19.416 83.1838 19.704 82.7198 20.072L81.3758 17.456C82.0798 16.96 82.9198 16.576 83.8958 16.304C84.8878 16.032 85.9038 15.896 86.9438 15.896ZM86.6558 26.672C87.2958 26.672 87.8638 26.528 88.3598 26.24C88.8558 25.936 89.2078 25.496 89.4158 24.92V23.6H86.8478C85.3118 23.6 84.5438 24.104 84.5438 25.112C84.5438 25.592 84.7278 25.976 85.0958 26.264C85.4798 26.536 85.9998 26.672 86.6558 26.672ZM100.124 17.792C100.572 17.168 101.172 16.696 101.924 16.376C102.692 16.056 103.572 15.896 104.564 15.896V19.352C104.148 19.32 103.868 19.304 103.724 19.304C102.652 19.304 101.812 19.608 101.204 20.216C100.596 20.808 100.292 21.704 100.292 22.904V29H96.5483V16.088H100.124V17.792ZM119.993 16.088V26.84C119.993 29.208 119.377 30.968 118.145 32.12C116.913 33.272 115.113 33.848 112.745 33.848C111.497 33.848 110.313 33.696 109.193 33.392C108.073 33.088 107.145 32.648 106.409 32.072L107.897 29.384C108.441 29.832 109.129 30.184 109.961 30.44C110.793 30.712 111.625 30.848 112.457 30.848C113.753 30.848 114.705 30.552 115.313 29.96C115.937 29.384 116.249 28.504 116.249 27.32V26.768C115.273 27.84 113.913 28.376 112.169 28.376C110.985 28.376 109.897 28.12 108.905 27.608C107.929 27.08 107.153 26.344 106.577 25.4C106.001 24.456 105.713 23.368 105.713 22.136C105.713 20.904 106.001 19.816 106.577 18.872C107.153 17.928 107.929 17.2 108.905 16.688C109.897 16.16 110.985 15.896 112.169 15.896C114.041 15.896 115.465 16.512 116.441 17.744V16.088H119.993ZM112.913 25.304C113.905 25.304 114.713 25.016 115.337 24.44C115.977 23.848 116.297 23.08 116.297 22.136C116.297 21.192 115.977 20.432 115.337 19.856C114.713 19.264 113.905 18.968 112.913 18.968C111.921 18.968 111.105 19.264 110.465 19.856C109.825 20.432 109.505 21.192 109.505 22.136C109.505 23.08 109.825 23.848 110.465 24.44C111.105 25.016 111.921 25.304 112.913 25.304ZM129.622 29.192C128.262 29.192 127.038 28.912 125.95 28.352C124.878 27.776 124.038 26.984 123.43 25.976C122.822 24.968 122.518 23.824 122.518 22.544C122.518 21.264 122.822 20.12 123.43 19.112C124.038 18.104 124.878 17.32 125.95 16.76C127.038 16.184 128.262 15.896 129.622 15.896C130.982 15.896 132.198 16.184 133.27 16.76C134.342 17.32 135.182 18.104 135.79 19.112C136.398 20.12 136.702 21.264 136.702 22.544C136.702 23.824 136.398 24.968 135.79 25.976C135.182 26.984 134.342 27.776 133.27 28.352C132.198 28.912 130.982 29.192 129.622 29.192ZM129.622 26.12C130.582 26.12 131.366 25.8 131.974 25.16C132.598 24.504 132.91 23.632 132.91 22.544C132.91 21.456 132.598 20.592 131.974 19.952C131.366 19.296 130.582 18.968 129.622 18.968C128.662 18.968 127.87 19.296 127.246 19.952C126.622 20.592 126.31 21.456 126.31 22.544C126.31 23.632 126.622 24.504 127.246 25.16C127.87 25.8 128.662 26.12 129.622 26.12ZM46.9017 44.368H41.5257V41.2H56.1657V44.368H50.7897V58H46.9017V44.368ZM69.3291 51.592C69.3291 51.64 69.3051 51.976 69.2571 52.6H59.4891C59.6651 53.4 60.0811 54.032 60.7371 54.496C61.3931 54.96 62.2091 55.192 63.1851 55.192C63.8571 55.192 64.4491 55.096 64.9611 54.904C65.4891 54.696 65.9771 54.376 66.4251 53.944L68.4171 56.104C67.2011 57.496 65.4251 58.192 63.0891 58.192C61.6331 58.192 60.3451 57.912 59.2251 57.352C58.1051 56.776 57.2411 55.984 56.6331 54.976C56.0251 53.968 55.7211 52.824 55.7211 51.544C55.7211 50.28 56.0171 49.144 56.6091 48.136C57.2171 47.112 58.0411 46.32 59.0811 45.76C60.1371 45.184 61.3131 44.896 62.6091 44.896C63.8731 44.896 65.0171 45.168 66.0411 45.712C67.0651 46.256 67.8651 47.04 68.4411 48.064C69.0331 49.072 69.3291 50.248 69.3291 51.592ZM62.6331 47.728C61.7851 47.728 61.0731 47.968 60.4971 48.448C59.9211 48.928 59.5691 49.584 59.4411 50.416H65.8011C65.6731 49.6 65.3211 48.952 64.7451 48.472C64.1691 47.976 63.4651 47.728 62.6331 47.728ZM75.3978 46.792C75.8458 46.168 76.4458 45.696 77.1978 45.376C77.9658 45.056 78.8458 44.896 79.8378 44.896V48.352C79.4218 48.32 79.1418 48.304 78.9978 48.304C77.9258 48.304 77.0858 48.608 76.4778 49.216C75.8698 49.808 75.5658 50.704 75.5658 51.904V58H71.8218V45.088H75.3978V46.792ZM98.5999 44.896C100.216 44.896 101.496 45.376 102.44 46.336C103.4 47.28 103.88 48.704 103.88 50.608V58H100.136V51.184C100.136 50.16 99.9199 49.4 99.4879 48.904C99.0719 48.392 98.4719 48.136 97.6879 48.136C96.8079 48.136 96.1119 48.424 95.5999 49C95.0879 49.56 94.8319 50.4 94.8319 51.52V58H91.0879V51.184C91.0879 49.152 90.2719 48.136 88.6399 48.136C87.7759 48.136 87.0879 48.424 86.5759 49C86.0639 49.56 85.8079 50.4 85.8079 51.52V58H82.0639V45.088H85.6399V46.576C86.1199 46.032 86.7039 45.616 87.3919 45.328C88.0959 45.04 88.8639 44.896 89.6959 44.896C90.6079 44.896 91.4319 45.08 92.1679 45.448C92.9039 45.8 93.4959 46.32 93.9439 47.008C94.4719 46.336 95.1359 45.816 95.9359 45.448C96.7519 45.08 97.6399 44.896 98.5999 44.896ZM107.236 45.088H110.98V58H107.236V45.088ZM109.108 43.288C108.42 43.288 107.86 43.088 107.428 42.688C106.996 42.288 106.78 41.792 106.78 41.2C106.78 40.608 106.996 40.112 107.428 39.712C107.86 39.312 108.42 39.112 109.108 39.112C109.796 39.112 110.356 39.304 110.788 39.688C111.22 40.072 111.436 40.552 111.436 41.128C111.436 41.752 111.22 42.272 110.788 42.688C110.356 43.088 109.796 43.288 109.108 43.288ZM122.303 44.896C123.903 44.896 125.191 45.376 126.167 46.336C127.159 47.296 127.655 48.72 127.655 50.608V58H123.911V51.184C123.911 50.16 123.687 49.4 123.239 48.904C122.791 48.392 122.143 48.136 121.295 48.136C120.351 48.136 119.599 48.432 119.039 49.024C118.479 49.6 118.199 50.464 118.199 51.616V58H114.455V45.088H118.031V46.6C118.527 46.056 119.143 45.64 119.879 45.352C120.615 45.048 121.423 44.896 122.303 44.896ZM136.256 44.896C138.256 44.896 139.792 45.376 140.864 46.336C141.936 47.28 142.472 48.712 142.472 50.632V58H138.968V56.392C138.264 57.592 136.952 58.192 135.032 58.192C134.04 58.192 133.176 58.024 132.44 57.688C131.72 57.352 131.168 56.888 130.784 56.296C130.4 55.704 130.208 55.032 130.208 54.28C130.208 53.08 130.656 52.136 131.552 51.448C132.464 50.76 133.864 50.416 135.752 50.416H138.728C138.728 49.6 138.48 48.976 137.984 48.544C137.488 48.096 136.744 47.872 135.752 47.872C135.064 47.872 134.384 47.984 133.712 48.208C133.056 48.416 132.496 48.704 132.032 49.072L130.688 46.456C131.392 45.96 132.232 45.576 133.208 45.304C134.2 45.032 135.216 44.896 136.256 44.896ZM135.968 55.672C136.608 55.672 137.176 55.528 137.672 55.24C138.168 54.936 138.52 54.496 138.728 53.92V52.6H136.16C134.624 52.6 133.856 53.104 133.856 54.112C133.856 54.592 134.04 54.976 134.408 55.264C134.792 55.536 135.312 55.672 135.968 55.672ZM145.861 40.192H149.605V58H145.861V40.192ZM153.08 45.088H156.824V58H153.08V45.088ZM154.952 43.288C154.264 43.288 153.704 43.088 153.272 42.688C152.84 42.288 152.624 41.792 152.624 41.2C152.624 40.608 152.84 40.112 153.272 39.712C153.704 39.312 154.264 39.112 154.952 39.112C155.64 39.112 156.2 39.304 156.632 39.688C157.064 40.072 157.28 40.552 157.28 41.128C157.28 41.752 157.064 42.272 156.632 42.688C156.2 43.088 155.64 43.288 154.952 43.288Z" fill="black"/>
<path d="M244.968 44.368H239.592V41.2H254.232V44.368H248.856V58H244.968V44.368ZM260.612 44.896C262.612 44.896 264.148 45.376 265.22 46.336C266.292 47.28 266.828 48.712 266.828 50.632V58H263.324V56.392C262.62 57.592 261.308 58.192 259.388 58.192C258.396 58.192 257.532 58.024 256.796 57.688C256.076 57.352 255.524 56.888 255.14 56.296C254.756 55.704 254.564 55.032 254.564 54.28C254.564 53.08 255.012 52.136 255.908 51.448C256.82 50.76 258.22 50.416 260.108 50.416H263.084C263.084 49.6 262.836 48.976 262.34 48.544C261.844 48.096 261.1 47.872 260.108 47.872C259.42 47.872 258.74 47.984 258.068 48.208C257.412 48.416 256.852 48.704 256.388 49.072L255.044 46.456C255.748 45.96 256.588 45.576 257.564 45.304C258.556 45.032 259.572 44.896 260.612 44.896ZM260.324 55.672C260.964 55.672 261.532 55.528 262.028 55.24C262.524 54.936 262.876 54.496 263.084 53.92V52.6H260.516C258.98 52.6 258.212 53.104 258.212 54.112C258.212 54.592 258.396 54.976 258.764 55.264C259.148 55.536 259.668 55.672 260.324 55.672ZM274.56 58.192C273.488 58.192 272.44 58.064 271.416 57.808C270.392 57.536 269.576 57.2 268.968 56.8L270.216 54.112C270.792 54.48 271.488 54.784 272.304 55.024C273.12 55.248 273.92 55.36 274.704 55.36C276.288 55.36 277.08 54.968 277.08 54.184C277.08 53.816 276.864 53.552 276.432 53.392C276 53.232 275.336 53.096 274.44 52.984C273.384 52.824 272.512 52.64 271.824 52.432C271.136 52.224 270.536 51.856 270.024 51.328C269.528 50.8 269.28 50.048 269.28 49.072C269.28 48.256 269.512 47.536 269.976 46.912C270.456 46.272 271.144 45.776 272.04 45.424C272.952 45.072 274.024 44.896 275.256 44.896C276.168 44.896 277.072 45 277.968 45.208C278.88 45.4 279.632 45.672 280.224 46.024L278.976 48.688C277.84 48.048 276.6 47.728 275.256 47.728C274.456 47.728 273.856 47.84 273.456 48.064C273.056 48.288 272.856 48.576 272.856 48.928C272.856 49.328 273.072 49.608 273.504 49.768C273.936 49.928 274.624 50.08 275.568 50.224C276.624 50.4 277.488 50.592 278.16 50.8C278.832 50.992 279.416 51.352 279.912 51.88C280.408 52.408 280.656 53.144 280.656 54.088C280.656 54.888 280.416 55.6 279.936 56.224C279.456 56.848 278.752 57.336 277.824 57.688C276.912 58.024 275.824 58.192 274.56 58.192ZM273.96 63.568C273.544 63.568 273.136 63.52 272.736 63.424C272.336 63.344 272 63.224 271.728 63.064L272.304 61.456C272.816 61.696 273.336 61.816 273.864 61.816C274.696 61.816 275.112 61.56 275.112 61.048C275.112 60.584 274.72 60.352 273.936 60.352H273.12L273.744 57.808H275.736L275.4 59.2C276.104 59.28 276.624 59.496 276.96 59.848C277.312 60.216 277.488 60.664 277.488 61.192C277.488 61.928 277.168 62.504 276.528 62.92C275.888 63.352 275.032 63.568 273.96 63.568ZM289.11 58.192C287.75 58.192 286.526 57.912 285.438 57.352C284.366 56.776 283.526 55.984 282.918 54.976C282.31 53.968 282.006 52.824 282.006 51.544C282.006 50.264 282.31 49.12 282.918 48.112C283.526 47.104 284.366 46.32 285.438 45.76C286.526 45.184 287.75 44.896 289.11 44.896C290.47 44.896 291.686 45.184 292.758 45.76C293.83 46.32 294.67 47.104 295.278 48.112C295.886 49.12 296.19 50.264 296.19 51.544C296.19 52.824 295.886 53.968 295.278 54.976C294.67 55.984 293.83 56.776 292.758 57.352C291.686 57.912 290.47 58.192 289.11 58.192ZM289.11 55.12C290.07 55.12 290.854 54.8 291.462 54.16C292.086 53.504 292.398 52.632 292.398 51.544C292.398 50.456 292.086 49.592 291.462 48.952C290.854 48.296 290.07 47.968 289.11 47.968C288.15 47.968 287.358 48.296 286.734 48.952C286.11 49.592 285.798 50.456 285.798 51.544C285.798 52.632 286.11 53.504 286.734 54.16C287.358 54.8 288.15 55.12 289.11 55.12ZM298.693 40.192H302.437V58H298.693V40.192ZM318.92 45.088V58H315.368V56.464C314.872 57.024 314.28 57.456 313.592 57.76C312.904 58.048 312.16 58.192 311.36 58.192C309.664 58.192 308.32 57.704 307.328 56.728C306.336 55.752 305.84 54.304 305.84 52.384V45.088H309.584V51.832C309.584 53.912 310.456 54.952 312.2 54.952C313.096 54.952 313.816 54.664 314.36 54.088C314.904 53.496 315.176 52.624 315.176 51.472V45.088H318.92ZM327.932 52.936L326.132 54.712V58H322.388V40.192H326.132V50.272L331.604 45.088H336.068L330.692 50.56L336.548 58H332.012L327.932 52.936Z" fill="black"/>
<path d="M413.536 54.4H405.736L404.248 58H400.264L407.752 41.2H411.592L419.104 58H415.024L413.536 54.4ZM412.312 51.448L409.648 45.016L406.984 51.448H412.312ZM424.159 46.792C424.607 46.168 425.207 45.696 425.959 45.376C426.727 45.056 427.607 44.896 428.599 44.896V48.352C428.183 48.32 427.903 48.304 427.759 48.304C426.687 48.304 425.847 48.608 425.239 49.216C424.631 49.808 424.327 50.704 424.327 51.904V58H420.583V45.088H424.159V46.792ZM438.674 44.896C440.274 44.896 441.562 45.376 442.538 46.336C443.53 47.296 444.026 48.72 444.026 50.608V58H440.282V51.184C440.282 50.16 440.058 49.4 439.61 48.904C439.162 48.392 438.514 48.136 437.666 48.136C436.722 48.136 435.97 48.432 435.41 49.024C434.85 49.6 434.57 50.464 434.57 51.616V58H430.826V45.088H434.402V46.6C434.898 46.056 435.514 45.64 436.25 45.352C436.986 45.048 437.794 44.896 438.674 44.896ZM452.627 44.896C454.627 44.896 456.163 45.376 457.235 46.336C458.307 47.28 458.843 48.712 458.843 50.632V58H455.339V56.392C454.635 57.592 453.323 58.192 451.403 58.192C450.411 58.192 449.547 58.024 448.811 57.688C448.091 57.352 447.539 56.888 447.155 56.296C446.771 55.704 446.579 55.032 446.579 54.28C446.579 53.08 447.027 52.136 447.923 51.448C448.835 50.76 450.235 50.416 452.123 50.416H455.099C455.099 49.6 454.851 48.976 454.355 48.544C453.859 48.096 453.115 47.872 452.123 47.872C451.435 47.872 450.755 47.984 450.083 48.208C449.427 48.416 448.867 48.704 448.403 49.072L447.059 46.456C447.763 45.96 448.603 45.576 449.579 45.304C450.571 45.032 451.587 44.896 452.627 44.896ZM452.339 55.672C452.979 55.672 453.547 55.528 454.043 55.24C454.539 54.936 454.891 54.496 455.099 53.92V52.6H452.531C450.995 52.6 450.227 53.104 450.227 54.112C450.227 54.592 450.411 54.976 450.779 55.264C451.163 55.536 451.683 55.672 452.339 55.672ZM474.814 45.088L469.366 58H465.502L460.078 45.088H463.942L467.518 53.872L471.214 45.088H474.814ZM489.349 45.088V58H485.797V56.464C485.301 57.024 484.709 57.456 484.021 57.76C483.333 58.048 482.589 58.192 481.789 58.192C480.093 58.192 478.749 57.704 477.757 56.728C476.765 55.752 476.269 54.304 476.269 52.384V45.088H480.013V51.832C480.013 53.912 480.885 54.952 482.629 54.952C483.525 54.952 484.245 54.664 484.789 54.088C485.333 53.496 485.605 52.624 485.605 51.472V45.088H489.349ZM501.146 57.376C500.778 57.648 500.322 57.856 499.778 58C499.25 58.128 498.69 58.192 498.098 58.192C496.562 58.192 495.37 57.8 494.522 57.016C493.69 56.232 493.274 55.08 493.274 53.56V48.256H491.282V45.376H493.274V42.232H497.018V45.376H500.234V48.256H497.018V53.512C497.018 54.056 497.154 54.48 497.426 54.784C497.714 55.072 498.114 55.216 498.626 55.216C499.218 55.216 499.722 55.056 500.138 54.736L501.146 57.376ZM508.792 52.936L506.992 54.712V58H503.248V40.192H506.992V50.272L512.464 45.088H516.928L511.552 50.56L517.408 58H512.872L508.792 52.936ZM524.673 58.192C523.313 58.192 522.089 57.912 521.001 57.352C519.929 56.776 519.089 55.984 518.481 54.976C517.873 53.968 517.569 52.824 517.569 51.544C517.569 50.264 517.873 49.12 518.481 48.112C519.089 47.104 519.929 46.32 521.001 45.76C522.089 45.184 523.313 44.896 524.673 44.896C526.033 44.896 527.249 45.184 528.321 45.76C529.393 46.32 530.233 47.104 530.841 48.112C531.449 49.12 531.753 50.264 531.753 51.544C531.753 52.824 531.449 53.968 530.841 54.976C530.233 55.984 529.393 56.776 528.321 57.352C527.249 57.912 526.033 58.192 524.673 58.192ZM524.673 55.12C525.633 55.12 526.417 54.8 527.025 54.16C527.649 53.504 527.961 52.632 527.961 51.544C527.961 50.456 527.649 49.592 527.025 48.952C526.417 48.296 525.633 47.968 524.673 47.968C523.713 47.968 522.921 48.296 522.297 48.952C521.673 49.592 521.361 50.456 521.361 51.544C521.361 52.632 521.673 53.504 522.297 54.16C522.921 54.8 523.713 55.12 524.673 55.12ZM522.201 43.312C521.721 43.312 521.321 43.16 521.001 42.856C520.681 42.536 520.521 42.136 520.521 41.656C520.521 41.176 520.681 40.784 521.001 40.48C521.321 40.16 521.721 40 522.201 40C522.681 40 523.073 40.16 523.377 40.48C523.697 40.784 523.857 41.176 523.857 41.656C523.857 42.136 523.697 42.536 523.377 42.856C523.073 43.16 522.681 43.312 522.201 43.312ZM527.049 43.312C526.569 43.312 526.169 43.16 525.849 42.856C525.545 42.536 525.393 42.136 525.393 41.656C525.393 41.176 525.545 40.784 525.849 40.48C526.169 40.16 526.569 40 527.049 40C527.529 40 527.929 40.16 528.249 40.48C528.569 40.784 528.729 41.176 528.729 41.656C528.729 42.136 528.569 42.536 528.249 42.856C527.929 43.16 527.529 43.312 527.049 43.312ZM546.72 45.088L540.888 58.792C540.296 60.28 539.56 61.328 538.68 61.936C537.816 62.544 536.768 62.848 535.536 62.848C534.864 62.848 534.2 62.744 533.544 62.536C532.888 62.328 532.352 62.04 531.936 61.672L533.304 59.008C533.592 59.264 533.92 59.464 534.288 59.608C534.672 59.752 535.048 59.824 535.416 59.824C535.928 59.824 536.344 59.696 536.664 59.44C536.984 59.2 537.272 58.792 537.528 58.216L537.576 58.096L531.984 45.088H535.848L539.472 53.848L543.12 45.088H546.72Z" fill="black"/>
<path d="M599.087 44.32V48.76H606.863V51.88H599.087V58H595.199V41.2H607.895V44.32H599.087ZM622.583 51.592C622.583 51.64 622.559 51.976 622.511 52.6H612.743C612.919 53.4 613.335 54.032 613.991 54.496C614.647 54.96 615.463 55.192 616.439 55.192C617.111 55.192 617.703 55.096 618.215 54.904C618.743 54.696 619.231 54.376 619.679 53.944L621.671 56.104C620.455 57.496 618.679 58.192 616.343 58.192C614.887 58.192 613.599 57.912 612.479 57.352C611.359 56.776 610.495 55.984 609.887 54.976C609.279 53.968 608.975 52.824 608.975 51.544C608.975 50.28 609.271 49.144 609.863 48.136C610.471 47.112 611.295 46.32 612.335 45.76C613.391 45.184 614.567 44.896 615.863 44.896C617.127 44.896 618.271 45.168 619.295 45.712C620.319 46.256 621.119 47.04 621.695 48.064C622.287 49.072 622.583 50.248 622.583 51.592ZM615.887 47.728C615.039 47.728 614.327 47.968 613.751 48.448C613.175 48.928 612.823 49.584 612.695 50.416H619.055C618.927 49.6 618.575 48.952 617.999 48.472C617.423 47.976 616.719 47.728 615.887 47.728ZM632.924 44.896C634.524 44.896 635.812 45.376 636.788 46.336C637.78 47.296 638.276 48.72 638.276 50.608V58H634.532V51.184C634.532 50.16 634.308 49.4 633.86 48.904C633.412 48.392 632.764 48.136 631.916 48.136C630.972 48.136 630.22 48.432 629.66 49.024C629.1 49.6 628.82 50.464 628.82 51.616V58H625.076V45.088H628.652V46.6C629.148 46.056 629.764 45.64 630.5 45.352C631.236 45.048 632.044 44.896 632.924 44.896ZM654.458 51.592C654.458 51.64 654.434 51.976 654.386 52.6H644.618C644.794 53.4 645.21 54.032 645.866 54.496C646.522 54.96 647.338 55.192 648.314 55.192C648.986 55.192 649.578 55.096 650.09 54.904C650.618 54.696 651.106 54.376 651.554 53.944L653.546 56.104C652.33 57.496 650.554 58.192 648.218 58.192C646.762 58.192 645.474 57.912 644.354 57.352C643.234 56.776 642.37 55.984 641.762 54.976C641.154 53.968 640.85 52.824 640.85 51.544C640.85 50.28 641.146 49.144 641.738 48.136C642.346 47.112 643.17 46.32 644.21 45.76C645.266 45.184 646.442 44.896 647.738 44.896C649.002 44.896 650.146 45.168 651.17 45.712C652.194 46.256 652.994 47.04 653.57 48.064C654.162 49.072 654.458 50.248 654.458 51.592ZM647.762 47.728C646.914 47.728 646.202 47.968 645.626 48.448C645.05 48.928 644.698 49.584 644.57 50.416H650.93C650.802 49.6 650.45 48.952 649.874 48.472C649.298 47.976 648.594 47.728 647.762 47.728ZM660.527 46.792C660.975 46.168 661.575 45.696 662.327 45.376C663.095 45.056 663.975 44.896 664.967 44.896V48.352C664.551 48.32 664.271 48.304 664.127 48.304C663.055 48.304 662.215 48.608 661.607 49.216C660.999 49.808 660.695 50.704 660.695 51.904V58H656.951V45.088H660.527V46.792ZM675.966 57.376C675.598 57.648 675.142 57.856 674.598 58C674.07 58.128 673.51 58.192 672.918 58.192C671.382 58.192 670.19 57.8 669.342 57.016C668.51 56.232 668.094 55.08 668.094 53.56V48.256H666.102V45.376H668.094V42.232H671.838V45.376H675.054V48.256H671.838V53.512C671.838 54.056 671.974 54.48 672.246 54.784C672.534 55.072 672.934 55.216 673.446 55.216C674.038 55.216 674.542 55.056 674.958 54.736L675.966 57.376ZM690.317 51.592C690.317 51.64 690.293 51.976 690.245 52.6H680.477C680.653 53.4 681.069 54.032 681.725 54.496C682.381 54.96 683.197 55.192 684.173 55.192C684.845 55.192 685.437 55.096 685.949 54.904C686.477 54.696 686.965 54.376 687.413 53.944L689.405 56.104C688.189 57.496 686.413 58.192 684.077 58.192C682.621 58.192 681.333 57.912 680.213 57.352C679.093 56.776 678.229 55.984 677.621 54.976C677.013 53.968 676.709 52.824 676.709 51.544C676.709 50.28 677.005 49.144 677.597 48.136C678.205 47.112 679.029 46.32 680.069 45.76C681.125 45.184 682.301 44.896 683.597 44.896C684.861 44.896 686.005 45.168 687.029 45.712C688.053 46.256 688.853 47.04 689.429 48.064C690.021 49.072 690.317 50.248 690.317 51.592ZM683.621 47.728C682.773 47.728 682.061 47.968 681.485 48.448C680.909 48.928 680.557 49.584 680.429 50.416H686.789C686.661 49.6 686.309 48.952 685.733 48.472C685.157 47.976 684.453 47.728 683.621 47.728ZM700.442 44.896C701.642 44.896 702.73 45.176 703.706 45.736C704.698 46.28 705.474 47.056 706.034 48.064C706.594 49.056 706.874 50.216 706.874 51.544C706.874 52.872 706.594 54.04 706.034 55.048C705.474 56.04 704.698 56.816 703.706 57.376C702.73 57.92 701.642 58.192 700.442 58.192C698.794 58.192 697.498 57.672 696.554 56.632V62.656H692.81V45.088H696.386V46.576C697.314 45.456 698.666 44.896 700.442 44.896ZM699.794 55.12C700.754 55.12 701.538 54.8 702.146 54.16C702.77 53.504 703.082 52.632 703.082 51.544C703.082 50.456 702.77 49.592 702.146 48.952C701.538 48.296 700.754 47.968 699.794 47.968C698.834 47.968 698.042 48.296 697.418 48.952C696.81 49.592 696.506 50.456 696.506 51.544C696.506 52.632 696.81 53.504 697.418 54.16C698.042 54.8 698.834 55.12 699.794 55.12ZM722.028 51.592C722.028 51.64 722.004 51.976 721.956 52.6H712.188C712.364 53.4 712.78 54.032 713.436 54.496C714.092 54.96 714.908 55.192 715.884 55.192C716.556 55.192 717.148 55.096 717.66 54.904C718.188 54.696 718.676 54.376 719.124 53.944L721.116 56.104C719.9 57.496 718.124 58.192 715.788 58.192C714.332 58.192 713.044 57.912 711.924 57.352C710.804 56.776 709.94 55.984 709.332 54.976C708.724 53.968 708.42 52.824 708.42 51.544C708.42 50.28 708.716 49.144 709.308 48.136C709.916 47.112 710.74 46.32 711.78 45.76C712.836 45.184 714.012 44.896 715.308 44.896C716.572 44.896 717.716 45.168 718.74 45.712C719.764 46.256 720.564 47.04 721.14 48.064C721.732 49.072 722.028 50.248 722.028 51.592ZM715.332 47.728C714.484 47.728 713.772 47.968 713.196 48.448C712.62 48.928 712.268 49.584 712.14 50.416H718.5C718.372 49.6 718.02 48.952 717.444 48.472C716.868 47.976 716.164 47.728 715.332 47.728Z" fill="black"/>
<path d="M790.194 51.4L787.938 53.752V58H784.074V41.2H787.938V49.048L795.378 41.2H799.698L792.738 48.688L800.106 58H795.57L790.194 51.4ZM806.502 44.896C808.502 44.896 810.038 45.376 811.11 46.336C812.182 47.28 812.718 48.712 812.718 50.632V58H809.214V56.392C808.51 57.592 807.198 58.192 805.278 58.192C804.286 58.192 803.422 58.024 802.686 57.688C801.966 57.352 801.414 56.888 801.03 56.296C800.646 55.704 800.454 55.032 800.454 54.28C800.454 53.08 800.902 52.136 801.798 51.448C802.71 50.76 804.11 50.416 805.998 50.416H808.974C808.974 49.6 808.726 48.976 808.23 48.544C807.734 48.096 806.99 47.872 805.998 47.872C805.31 47.872 804.63 47.984 803.958 48.208C803.302 48.416 802.742 48.704 802.278 49.072L800.934 46.456C801.638 45.96 802.478 45.576 803.454 45.304C804.446 45.032 805.462 44.896 806.502 44.896ZM806.214 55.672C806.854 55.672 807.422 55.528 807.918 55.24C808.414 54.936 808.766 54.496 808.974 53.92V52.6H806.406C804.87 52.6 804.102 53.104 804.102 54.112C804.102 54.592 804.286 54.976 804.654 55.264C805.038 55.536 805.558 55.672 806.214 55.672ZM828.689 45.088L822.857 58.792C822.265 60.28 821.529 61.328 820.649 61.936C819.785 62.544 818.737 62.848 817.505 62.848C816.833 62.848 816.169 62.744 815.513 62.536C814.857 62.328 814.321 62.04 813.905 61.672L815.273 59.008C815.561 59.264 815.889 59.464 816.257 59.608C816.641 59.752 817.017 59.824 817.385 59.824C817.897 59.824 818.313 59.696 818.633 59.44C818.953 59.2 819.241 58.792 819.497 58.216L819.545 58.096L813.953 45.088H817.817L821.441 53.848L825.089 45.088H828.689ZM835.002 44.896C837.002 44.896 838.538 45.376 839.61 46.336C840.682 47.28 841.218 48.712 841.218 50.632V58H837.714V56.392C837.01 57.592 835.698 58.192 833.778 58.192C832.786 58.192 831.922 58.024 831.186 57.688C830.466 57.352 829.914 56.888 829.53 56.296C829.146 55.704 828.954 55.032 828.954 54.28C828.954 53.08 829.402 52.136 830.298 51.448C831.21 50.76 832.61 50.416 834.498 50.416H837.474C837.474 49.6 837.226 48.976 836.73 48.544C836.234 48.096 835.49 47.872 834.498 47.872C833.81 47.872 833.13 47.984 832.458 48.208C831.802 48.416 831.242 48.704 830.778 49.072L829.434 46.456C830.138 45.96 830.978 45.576 831.954 45.304C832.946 45.032 833.962 44.896 835.002 44.896ZM834.714 55.672C835.354 55.672 835.922 55.528 836.418 55.24C836.914 54.936 837.266 54.496 837.474 53.92V52.6H834.906C833.37 52.6 832.602 53.104 832.602 54.112C832.602 54.592 832.786 54.976 833.154 55.264C833.538 55.536 834.058 55.672 834.714 55.672ZM848.951 58.192C847.879 58.192 846.831 58.064 845.807 57.808C844.783 57.536 843.967 57.2 843.359 56.8L844.607 54.112C845.183 54.48 845.879 54.784 846.695 55.024C847.511 55.248 848.311 55.36 849.095 55.36C850.679 55.36 851.471 54.968 851.471 54.184C851.471 53.816 851.255 53.552 850.823 53.392C850.391 53.232 849.727 53.096 848.831 52.984C847.775 52.824 846.903 52.64 846.215 52.432C845.527 52.224 844.927 51.856 844.415 51.328C843.919 50.8 843.671 50.048 843.671 49.072C843.671 48.256 843.903 47.536 844.367 46.912C844.847 46.272 845.535 45.776 846.431 45.424C847.343 45.072 848.415 44.896 849.647 44.896C850.559 44.896 851.463 45 852.359 45.208C853.271 45.4 854.023 45.672 854.615 46.024L853.367 48.688C852.231 48.048 850.991 47.728 849.647 47.728C848.847 47.728 848.247 47.84 847.847 48.064C847.447 48.288 847.247 48.576 847.247 48.928C847.247 49.328 847.463 49.608 847.895 49.768C848.327 49.928 849.015 50.08 849.959 50.224C851.015 50.4 851.879 50.592 852.551 50.8C853.223 50.992 853.807 51.352 854.303 51.88C854.799 52.408 855.047 53.144 855.047 54.088C855.047 54.888 854.807 55.6 854.327 56.224C853.847 56.848 853.143 57.336 852.215 57.688C851.303 58.024 850.215 58.192 848.951 58.192ZM848.351 63.568C847.935 63.568 847.527 63.52 847.127 63.424C846.727 63.344 846.391 63.224 846.119 63.064L846.695 61.456C847.207 61.696 847.727 61.816 848.255 61.816C849.087 61.816 849.503 61.56 849.503 61.048C849.503 60.584 849.111 60.352 848.327 60.352H847.511L848.135 57.808H850.127L849.791 59.2C850.495 59.28 851.015 59.496 851.351 59.848C851.703 60.216 851.879 60.664 851.879 61.192C851.879 61.928 851.559 62.504 850.919 62.92C850.279 63.352 849.423 63.568 848.351 63.568ZM870.005 51.592C870.005 51.64 869.981 51.976 869.933 52.6H860.165C860.341 53.4 860.757 54.032 861.413 54.496C862.069 54.96 862.885 55.192 863.861 55.192C864.533 55.192 865.125 55.096 865.637 54.904C866.165 54.696 866.653 54.376 867.101 53.944L869.093 56.104C867.877 57.496 866.101 58.192 863.765 58.192C862.309 58.192 861.021 57.912 859.901 57.352C858.781 56.776 857.917 55.984 857.309 54.976C856.701 53.968 856.397 52.824 856.397 51.544C856.397 50.28 856.693 49.144 857.285 48.136C857.893 47.112 858.717 46.32 859.757 45.76C860.813 45.184 861.989 44.896 863.285 44.896C864.549 44.896 865.693 45.168 866.717 45.712C867.741 46.256 868.541 47.04 869.117 48.064C869.709 49.072 870.005 50.248 870.005 51.592ZM863.309 47.728C862.461 47.728 861.749 47.968 861.173 48.448C860.597 48.928 860.245 49.584 860.117 50.416H866.477C866.349 49.6 865.997 48.952 865.421 48.472C864.845 47.976 864.141 47.728 863.309 47.728ZM880.346 44.896C881.946 44.896 883.234 45.376 884.21 46.336C885.202 47.296 885.698 48.72 885.698 50.608V58H881.954V51.184C881.954 50.16 881.73 49.4 881.282 48.904C880.834 48.392 880.186 48.136 879.338 48.136C878.394 48.136 877.642 48.432 877.082 49.024C876.522 49.6 876.242 50.464 876.242 51.616V58H872.498V40.192H876.242V46.432C876.738 45.936 877.338 45.56 878.042 45.304C878.746 45.032 879.514 44.896 880.346 44.896ZM889.091 45.088H892.835V58H889.091V45.088ZM890.963 43.288C890.275 43.288 889.715 43.088 889.283 42.688C888.851 42.288 888.635 41.792 888.635 41.2C888.635 40.608 888.851 40.112 889.283 39.712C889.715 39.312 890.275 39.112 890.963 39.112C891.651 39.112 892.211 39.304 892.643 39.688C893.075 40.072 893.291 40.552 893.291 41.128C893.291 41.752 893.075 42.272 892.643 42.688C892.211 43.088 891.651 43.288 890.963 43.288ZM899.886 46.792C900.334 46.168 900.934 45.696 901.686 45.376C902.454 45.056 903.334 44.896 904.326 44.896V48.352C903.91 48.32 903.63 48.304 903.486 48.304C902.414 48.304 901.574 48.608 900.966 49.216C900.358 49.808 900.054 50.704 900.054 51.904V58H896.31V45.088H899.886V46.792Z" fill="black"/>
<path d="M974.222 58.288C972.478 58.288 970.902 57.912 969.494 57.16C968.102 56.408 967.006 55.376 966.206 54.064C965.422 52.736 965.03 51.248 965.03 49.6C965.03 47.952 965.422 46.472 966.206 45.16C967.006 43.832 968.102 42.792 969.494 42.04C970.902 41.288 972.478 40.912 974.222 40.912C975.966 40.912 977.534 41.288 978.926 42.04C980.318 42.792 981.414 43.832 982.214 45.16C983.014 46.472 983.414 47.952 983.414 49.6C983.414 51.248 983.014 52.736 982.214 54.064C981.414 55.376 980.318 56.408 978.926 57.16C977.534 57.912 975.966 58.288 974.222 58.288ZM974.222 54.976C975.214 54.976 976.11 54.752 976.91 54.304C977.71 53.84 978.334 53.2 978.782 52.384C979.246 51.568 979.478 50.64 979.478 49.6C979.478 48.56 979.246 47.632 978.782 46.816C978.334 46 977.71 45.368 976.91 44.92C976.11 44.456 975.214 44.224 974.222 44.224C973.23 44.224 972.334 44.456 971.534 44.92C970.734 45.368 970.102 46 969.638 46.816C969.19 47.632 968.966 48.56 968.966 49.6C968.966 50.64 969.19 51.568 969.638 52.384C970.102 53.2 970.734 53.84 971.534 54.304C972.334 54.752 973.23 54.976 974.222 54.976ZM986.072 40.192H989.816V58H986.072V40.192ZM993.291 45.088H997.035V58H993.291V45.088ZM995.163 43.288C994.475 43.288 993.915 43.088 993.483 42.688C993.051 42.288 992.835 41.792 992.835 41.2C992.835 40.608 993.051 40.112 993.483 39.712C993.915 39.312 994.475 39.112 995.163 39.112C995.851 39.112 996.411 39.304 996.843 39.688C997.275 40.072 997.491 40.552 997.491 41.128C997.491 41.752 997.275 42.272 996.843 42.688C996.411 43.088 995.851 43.288 995.163 43.288ZM1017.05 44.896C1018.66 44.896 1019.94 45.376 1020.89 46.336C1021.85 47.28 1022.33 48.704 1022.33 50.608V58H1018.58V51.184C1018.58 50.16 1018.37 49.4 1017.93 48.904C1017.52 48.392 1016.92 48.136 1016.13 48.136C1015.25 48.136 1014.56 48.424 1014.05 49C1013.53 49.56 1013.28 50.4 1013.28 51.52V58H1009.53V51.184C1009.53 49.152 1008.72 48.136 1007.09 48.136C1006.22 48.136 1005.53 48.424 1005.02 49C1004.51 49.56 1004.25 50.4 1004.25 51.52V58H1000.51V45.088H1004.09V46.576C1004.57 46.032 1005.15 45.616 1005.84 45.328C1006.54 45.04 1007.31 44.896 1008.14 44.896C1009.05 44.896 1009.88 45.08 1010.61 45.448C1011.35 45.8 1011.94 46.32 1012.39 47.008C1012.92 46.336 1013.58 45.816 1014.38 45.448C1015.2 45.08 1016.09 44.896 1017.05 44.896ZM1033.31 44.896C1034.51 44.896 1035.6 45.176 1036.58 45.736C1037.57 46.28 1038.35 47.056 1038.91 48.064C1039.47 49.056 1039.75 50.216 1039.75 51.544C1039.75 52.872 1039.47 54.04 1038.91 55.048C1038.35 56.04 1037.57 56.816 1036.58 57.376C1035.6 57.92 1034.51 58.192 1033.31 58.192C1031.67 58.192 1030.37 57.672 1029.43 56.632V62.656H1025.68V45.088H1029.26V46.576C1030.19 45.456 1031.54 44.896 1033.31 44.896ZM1032.67 55.12C1033.63 55.12 1034.41 54.8 1035.02 54.16C1035.64 53.504 1035.95 52.632 1035.95 51.544C1035.95 50.456 1035.64 49.592 1035.02 48.952C1034.41 48.296 1033.63 47.968 1032.67 47.968C1031.71 47.968 1030.91 48.296 1030.29 48.952C1029.68 49.592 1029.38 50.456 1029.38 51.544C1029.38 52.632 1029.68 53.504 1030.29 54.16C1030.91 54.8 1031.71 55.12 1032.67 55.12ZM1042.25 45.088H1046V58H1042.25V45.088ZM1044.12 43.288C1043.44 43.288 1042.88 43.088 1042.44 42.688C1042.01 42.288 1041.8 41.792 1041.8 41.2C1041.8 40.608 1042.01 40.112 1042.44 39.712C1042.88 39.312 1043.44 39.112 1044.12 39.112C1044.81 39.112 1045.37 39.304 1045.8 39.688C1046.24 40.072 1046.45 40.552 1046.45 41.128C1046.45 41.752 1046.24 42.272 1045.8 42.688C1045.37 43.088 1044.81 43.288 1044.12 43.288ZM1062.29 45.088L1056.45 58.792C1055.86 60.28 1055.13 61.328 1054.25 61.936C1053.38 62.544 1052.33 62.848 1051.1 62.848C1050.43 62.848 1049.77 62.744 1049.11 62.536C1048.45 62.328 1047.92 62.04 1047.5 61.672L1048.87 59.008C1049.16 59.264 1049.49 59.464 1049.85 59.608C1050.24 59.752 1050.61 59.824 1050.98 59.824C1051.49 59.824 1051.91 59.696 1052.23 59.44C1052.55 59.2 1052.84 58.792 1053.09 58.216L1053.14 58.096L1047.55 45.088H1051.41L1055.04 53.848L1058.69 45.088H1062.29ZM1068.6 44.896C1070.6 44.896 1072.14 45.376 1073.21 46.336C1074.28 47.28 1074.82 48.712 1074.82 50.632V58H1071.31V56.392C1070.61 57.592 1069.3 58.192 1067.38 58.192C1066.38 58.192 1065.52 58.024 1064.78 57.688C1064.06 57.352 1063.51 56.888 1063.13 56.296C1062.74 55.704 1062.55 55.032 1062.55 54.28C1062.55 53.08 1063 52.136 1063.9 51.448C1064.81 50.76 1066.21 50.416 1068.1 50.416H1071.07C1071.07 49.6 1070.82 48.976 1070.33 48.544C1069.83 48.096 1069.09 47.872 1068.1 47.872C1067.41 47.872 1066.73 47.984 1066.06 48.208C1065.4 48.416 1064.84 48.704 1064.38 49.072L1063.03 46.456C1063.74 45.96 1064.58 45.576 1065.55 45.304C1066.54 45.032 1067.56 44.896 1068.6 44.896ZM1068.31 55.672C1068.95 55.672 1069.52 55.528 1070.02 55.24C1070.51 54.936 1070.86 54.496 1071.07 53.92V52.6H1068.5C1066.97 52.6 1066.2 53.104 1066.2 54.112C1066.2 54.592 1066.38 54.976 1066.75 55.264C1067.14 55.536 1067.66 55.672 1068.31 55.672ZM1086.53 57.376C1086.16 57.648 1085.71 57.856 1085.16 58C1084.64 58.128 1084.08 58.192 1083.48 58.192C1081.95 58.192 1080.76 57.8 1079.91 57.016C1079.08 56.232 1078.66 55.08 1078.66 53.56V48.256H1076.67V45.376H1078.66V42.232H1082.4V45.376H1085.62V48.256H1082.4V53.512C1082.4 54.056 1082.54 54.48 1082.81 54.784C1083.1 55.072 1083.5 55.216 1084.01 55.216C1084.6 55.216 1085.11 55.056 1085.52 54.736L1086.53 57.376Z" fill="black"/>
<path d="M1145.6 41.2V58H1141.72V51.112H1134.08V58H1130.2V41.2H1134.08V47.824H1141.72V41.2H1145.6ZM1154.52 44.896C1156.52 44.896 1158.06 45.376 1159.13 46.336C1160.2 47.28 1160.74 48.712 1160.74 50.632V58H1157.23V56.392C1156.53 57.592 1155.22 58.192 1153.3 58.192C1152.31 58.192 1151.44 58.024 1150.71 57.688C1149.99 57.352 1149.43 56.888 1149.05 56.296C1148.67 55.704 1148.47 55.032 1148.47 54.28C1148.47 53.08 1148.92 52.136 1149.82 51.448C1150.73 50.76 1152.13 50.416 1154.02 50.416H1156.99C1156.99 49.6 1156.75 48.976 1156.25 48.544C1155.75 48.096 1155.01 47.872 1154.02 47.872C1153.33 47.872 1152.65 47.984 1151.98 48.208C1151.32 48.416 1150.76 48.704 1150.3 49.072L1148.95 46.456C1149.66 45.96 1150.5 45.576 1151.47 45.304C1152.47 45.032 1153.48 44.896 1154.52 44.896ZM1154.23 55.672C1154.87 55.672 1155.44 55.528 1155.94 55.24C1156.43 54.936 1156.79 54.496 1156.99 53.92V52.6H1154.43C1152.89 52.6 1152.12 53.104 1152.12 54.112C1152.12 54.592 1152.31 54.976 1152.67 55.264C1153.06 55.536 1153.58 55.672 1154.23 55.672ZM1164.13 40.192H1167.87V58H1164.13V40.192ZM1176.89 52.936L1175.09 54.712V58H1171.35V40.192H1175.09V50.272L1180.56 45.088H1185.03L1179.65 50.56L1185.51 58H1180.97L1176.89 52.936ZM1192.16 44.896C1194.16 44.896 1195.7 45.376 1196.77 46.336C1197.84 47.28 1198.38 48.712 1198.38 50.632V58H1194.87V56.392C1194.17 57.592 1192.86 58.192 1190.94 58.192C1189.95 58.192 1189.08 58.024 1188.35 57.688C1187.63 57.352 1187.07 56.888 1186.69 56.296C1186.31 55.704 1186.11 55.032 1186.11 54.28C1186.11 53.08 1186.56 52.136 1187.46 51.448C1188.37 50.76 1189.77 50.416 1191.66 50.416H1194.63C1194.63 49.6 1194.39 48.976 1193.89 48.544C1193.39 48.096 1192.65 47.872 1191.66 47.872C1190.97 47.872 1190.29 47.984 1189.62 48.208C1188.96 48.416 1188.4 48.704 1187.94 49.072L1186.59 46.456C1187.3 45.96 1188.14 45.576 1189.11 45.304C1190.11 45.032 1191.12 44.896 1192.16 44.896ZM1191.87 55.672C1192.51 55.672 1193.08 55.528 1193.58 55.24C1194.07 54.936 1194.43 54.496 1194.63 53.92V52.6H1192.07C1190.53 52.6 1189.76 53.104 1189.76 54.112C1189.76 54.592 1189.95 54.976 1190.31 55.264C1190.7 55.536 1191.22 55.672 1191.87 55.672ZM1201.77 40.192H1205.51V58H1201.77V40.192ZM1208.99 45.088H1212.73V58H1208.99V45.088ZM1228.79 58.288C1227.46 58.288 1226.17 58.112 1224.92 57.76C1223.69 57.392 1222.7 56.92 1221.95 56.344L1223.27 53.416C1223.99 53.944 1224.84 54.368 1225.83 54.688C1226.83 55.008 1227.82 55.168 1228.81 55.168C1229.91 55.168 1230.73 55.008 1231.26 54.688C1231.79 54.352 1232.05 53.912 1232.05 53.368C1232.05 52.968 1231.89 52.64 1231.57 52.384C1231.27 52.112 1230.87 51.896 1230.37 51.736C1229.89 51.576 1229.23 51.4 1228.4 51.208C1227.12 50.904 1226.07 50.6 1225.26 50.296C1224.44 49.992 1223.74 49.504 1223.15 48.832C1222.57 48.16 1222.28 47.264 1222.28 46.144C1222.28 45.168 1222.55 44.288 1223.07 43.504C1223.6 42.704 1224.39 42.072 1225.45 41.608C1226.52 41.144 1227.83 40.912 1229.36 40.912C1230.43 40.912 1231.48 41.04 1232.51 41.296C1233.53 41.552 1234.43 41.92 1235.19 42.4L1233.99 45.352C1232.44 44.472 1230.89 44.032 1229.34 44.032C1228.25 44.032 1227.44 44.208 1226.91 44.56C1226.4 44.912 1226.15 45.376 1226.15 45.952C1226.15 46.528 1226.44 46.96 1227.03 47.248C1227.64 47.52 1228.56 47.792 1229.79 48.064C1231.07 48.368 1232.12 48.672 1232.94 48.976C1233.75 49.28 1234.45 49.76 1235.03 50.416C1235.62 51.072 1235.91 51.96 1235.91 53.08C1235.91 54.04 1235.64 54.92 1235.1 55.72C1234.57 56.504 1233.77 57.128 1232.7 57.592C1231.63 58.056 1230.32 58.288 1228.79 58.288ZM1246.63 57.376C1246.27 57.648 1245.81 57.856 1245.27 58C1244.74 58.128 1244.18 58.192 1243.59 58.192C1242.05 58.192 1240.86 57.8 1240.01 57.016C1239.18 56.232 1238.76 55.08 1238.76 53.56V48.256H1236.77V45.376H1238.76V42.232H1242.51V45.376H1245.72V48.256H1242.51V53.512C1242.51 54.056 1242.64 54.48 1242.91 54.784C1243.2 55.072 1243.6 55.216 1244.11 55.216C1244.71 55.216 1245.21 55.056 1245.63 54.736L1246.63 57.376ZM1253.94 44.896C1255.94 44.896 1257.48 45.376 1258.55 46.336C1259.62 47.28 1260.16 48.712 1260.16 50.632V58H1256.66V56.392C1255.95 57.592 1254.64 58.192 1252.72 58.192C1251.73 58.192 1250.86 58.024 1250.13 57.688C1249.41 57.352 1248.86 56.888 1248.47 56.296C1248.09 55.704 1247.9 55.032 1247.9 54.28C1247.9 53.08 1248.34 52.136 1249.24 51.448C1250.15 50.76 1251.55 50.416 1253.44 50.416H1256.42C1256.42 49.6 1256.17 48.976 1255.67 48.544C1255.18 48.096 1254.43 47.872 1253.44 47.872C1252.75 47.872 1252.07 47.984 1251.4 48.208C1250.74 48.416 1250.18 48.704 1249.72 49.072L1248.38 46.456C1249.08 45.96 1249.92 45.576 1250.9 45.304C1251.89 45.032 1252.9 44.896 1253.94 44.896ZM1253.66 55.672C1254.3 55.672 1254.86 55.528 1255.36 55.24C1255.86 54.936 1256.21 54.496 1256.42 53.92V52.6H1253.85C1252.31 52.6 1251.54 53.104 1251.54 54.112C1251.54 54.592 1251.73 54.976 1252.1 55.264C1252.48 55.536 1253 55.672 1253.66 55.672ZM1276.84 40.192V58H1273.26V56.512C1272.34 57.632 1270.99 58.192 1269.23 58.192C1268.02 58.192 1266.91 57.92 1265.92 57.376C1264.94 56.832 1264.18 56.056 1263.62 55.048C1263.06 54.04 1262.78 52.872 1262.78 51.544C1262.78 50.216 1263.06 49.048 1263.62 48.04C1264.18 47.032 1264.94 46.256 1265.92 45.712C1266.91 45.168 1268.02 44.896 1269.23 44.896C1270.88 44.896 1272.17 45.416 1273.1 46.456V40.192H1276.84ZM1269.88 55.12C1270.82 55.12 1271.61 54.8 1272.23 54.16C1272.86 53.504 1273.17 52.632 1273.17 51.544C1273.17 50.456 1272.86 49.592 1272.23 48.952C1271.61 48.296 1270.82 47.968 1269.88 47.968C1268.92 47.968 1268.13 48.296 1267.5 48.952C1266.88 49.592 1266.57 50.456 1266.57 51.544C1266.57 52.632 1266.88 53.504 1267.5 54.16C1268.13 54.8 1268.92 55.12 1269.88 55.12ZM1280.31 45.088H1284.05V58H1280.31V45.088Z" fill="black"/>
<path d="M1366.76 41.2V58H1362.88V51.112H1355.24V58H1351.36V41.2H1355.24V47.824H1362.88V41.2H1366.76ZM1375.68 44.896C1377.68 44.896 1379.22 45.376 1380.29 46.336C1381.36 47.28 1381.9 48.712 1381.9 50.632V58H1378.39V56.392C1377.69 57.592 1376.38 58.192 1374.46 58.192C1373.47 58.192 1372.6 58.024 1371.87 57.688C1371.15 57.352 1370.59 56.888 1370.21 56.296C1369.83 55.704 1369.63 55.032 1369.63 54.28C1369.63 53.08 1370.08 52.136 1370.98 51.448C1371.89 50.76 1373.29 50.416 1375.18 50.416H1378.15C1378.15 49.6 1377.91 48.976 1377.41 48.544C1376.91 48.096 1376.17 47.872 1375.18 47.872C1374.49 47.872 1373.81 47.984 1373.14 48.208C1372.48 48.416 1371.92 48.704 1371.46 49.072L1370.11 46.456C1370.82 45.96 1371.66 45.576 1372.63 45.304C1373.63 45.032 1374.64 44.896 1375.68 44.896ZM1375.39 55.672C1376.03 55.672 1376.6 55.528 1377.1 55.24C1377.59 54.936 1377.95 54.496 1378.15 53.92V52.6H1375.59C1374.05 52.6 1373.28 53.104 1373.28 54.112C1373.28 54.592 1373.47 54.976 1373.83 55.264C1374.22 55.536 1374.74 55.672 1375.39 55.672ZM1385.29 40.192H1389.03V58H1385.29V40.192ZM1398.05 52.936L1396.25 54.712V58H1392.51V40.192H1396.25V50.272L1401.72 45.088H1406.19L1400.81 50.56L1406.67 58H1402.13L1398.05 52.936ZM1413.32 44.896C1415.32 44.896 1416.86 45.376 1417.93 46.336C1419 47.28 1419.54 48.712 1419.54 50.632V58H1416.03V56.392C1415.33 57.592 1414.02 58.192 1412.1 58.192C1411.11 58.192 1410.24 58.024 1409.51 57.688C1408.79 57.352 1408.23 56.888 1407.85 56.296C1407.47 55.704 1407.27 55.032 1407.27 54.28C1407.27 53.08 1407.72 52.136 1408.62 51.448C1409.53 50.76 1410.93 50.416 1412.82 50.416H1415.79C1415.79 49.6 1415.55 48.976 1415.05 48.544C1414.55 48.096 1413.81 47.872 1412.82 47.872C1412.13 47.872 1411.45 47.984 1410.78 48.208C1410.12 48.416 1409.56 48.704 1409.1 49.072L1407.75 46.456C1408.46 45.96 1409.3 45.576 1410.27 45.304C1411.27 45.032 1412.28 44.896 1413.32 44.896ZM1413.03 55.672C1413.67 55.672 1414.24 55.528 1414.74 55.24C1415.23 54.936 1415.59 54.496 1415.79 53.92V52.6H1413.23C1411.69 52.6 1410.92 53.104 1410.92 54.112C1410.92 54.592 1411.11 54.976 1411.47 55.264C1411.86 55.536 1412.38 55.672 1413.03 55.672ZM1422.93 40.192H1426.67V58H1422.93V40.192ZM1430.15 45.088H1433.89V58H1430.15V45.088Z" fill="black"/>
<rect x="1022" y="123" width="6" height="22" fill="black"/>
<circle cx="1207" cy="100" r="24" fill="black"/>
<ellipse cx="1207" cy="99.9939" rx="19.2" ry="19.2" fill="white"/>
<rect x="1204" y="123" width="6" height="21" fill="black"/>
<circle cx="1392" cy="100" r="24" fill="black"/>
<ellipse cx="1392" cy="99.9939" rx="19.2" ry="19.2" fill="white"/>
<rect x="1389" y="123" width="6" height="20" fill="black"/>
<g clip-path="url(#clip1_496_5925)">
<path d="M76 100C76 95.2533 77.4076 90.6131 80.0447 86.6663C82.6819 82.7195 86.4302 79.6434 90.8156 77.8269C95.201 76.0104 100.027 75.5351 104.682 76.4612C109.338 77.3872 113.614 79.673 116.971 83.0294C120.327 86.3859 122.613 90.6623 123.539 95.3178C124.465 99.9734 123.99 104.799 122.173 109.184C120.357 113.57 117.28 117.318 113.334 119.955C109.387 122.592 104.747 124 100 124C93.6392 123.986 87.543 121.453 83.0452 116.955C78.5474 112.457 76.0142 106.361 76 100Z" fill="#AB548F"/>
<path d="M79.2344 91.9102H84.6276L88.4029 104.045L92.1782 91.9102H97.3018V108.09H94.3355V94.8764L90.0209 108.09H86.7849L82.4703 94.8764V108.09H79.2344V91.9102Z" fill="white"/>
<path d="M104.584 91.9102H107.551V108.09H104.315V95.6854L101.618 97.8427L100 95.6854L104.584 91.9102Z" fill="white"/>
<path d="M116.178 91.9102H119.144V108.09H115.908V95.6854L113.212 97.8427L111.594 95.6854L116.178 91.9102Z" fill="white"/>
</g>
<circle cx="658" cy="100" r="24" fill="black"/>
<ellipse cx="658.001" cy="99.9939" rx="19.2" ry="19.2" fill="white"/>
<rect x="655" y="123" width="6" height="21" fill="black"/>
<circle cx="843" cy="100" r="24" fill="black"/>
<ellipse cx="843.001" cy="99.9939" rx="19.2" ry="19.2" fill="white"/>
<rect x="840" y="123" width="6" height="21" fill="black"/>
<g clip-path="url(#clip2_496_5925)">
<path d="M640 161C640 151.09 648.09 143 658 143C667.91 143 676 151.09 676 161C676 170.91 667.91 179 658 179C648.09 179.202 640.202 171.315 640 161.404C640 161.202 640 161.202 640 161Z" fill="#9D9D9D"/>
<path d="M651.324 154.933H655.369L657.998 164.034L661.032 154.933H664.875V167.067H662.448V156.955L659.414 167.067H656.987L653.751 156.955V157.157V167.067H651.324V154.933Z" fill="white"/>
</g>
<g clip-path="url(#clip3_496_5925)">
<path d="M843 179.025C839.431 179.032 835.941 177.981 832.971 176.006C830 174.031 827.683 171.221 826.313 167.93C824.942 164.639 824.58 161.016 825.272 157.52C825.964 154.024 827.679 150.811 830.2 148.288C832.72 145.766 835.934 144.047 839.433 143.349C842.933 142.651 846.561 143.005 849.858 144.368C853.156 145.73 855.975 148.039 857.958 151.002C859.941 153.965 861 157.448 861 161.012C861 165.784 859.105 170.36 855.73 173.737C852.355 177.114 847.777 179.016 843 179.025Z" fill="#00A7E1"/>
<path d="M831.277 155.168H835.025L837.8 164.01H837.83L840.605 155.168H844.348V166.832H842.108V157.205H842.078L838.937 166.832H836.693L833.552 157.205L833.517 157.24V166.832H831.277V155.168Z" fill="white"/>
<path d="M846.598 164.66C847.421 165 848.302 165.182 849.193 165.195C850.16 165.195 851.648 164.725 851.648 163.539C851.648 162.168 850.561 161.718 849.073 161.718H847.935V159.877H849.008C850.576 159.877 851.598 159.376 851.598 158.34C851.598 157.17 850.646 156.804 849.594 156.804C848.684 156.805 847.787 157.018 846.974 157.425L846.838 155.554C847.879 155.155 848.985 154.955 850.1 154.963C851.532 154.963 853.942 155.463 853.942 157.965C853.942 159.556 852.94 160.307 851.768 160.757V160.792C853.271 160.992 853.992 162.148 853.992 163.564C853.992 166.341 851.487 167.067 849.529 167.067C848.498 167.071 847.47 166.942 846.473 166.681L846.598 164.66Z" fill="white"/>
</g>
<g clip-path="url(#clip4_496_5925)">
<path d="M1007 160.997C1007 157.438 1008.06 153.958 1010.03 150.999C1012.01 148.039 1014.82 145.732 1018.11 144.37C1021.4 143.008 1025.02 142.651 1028.51 143.346C1032 144.04 1035.21 145.754 1037.73 148.271C1040.25 150.788 1041.96 153.995 1042.65 157.486C1043.35 160.977 1042.99 164.596 1041.63 167.884C1040.27 171.173 1037.96 173.984 1035 175.961C1032.04 177.939 1028.56 178.994 1025 178.994C1020.23 178.994 1015.65 177.098 1012.27 173.723C1008.9 170.348 1007 165.77 1007 160.997Z" fill="#FFD300"/>
<path d="M1013.48 155.465H1017.23L1020.01 164.32H1020.05L1022.83 155.465H1026.58V167.15H1024.33V157.509H1024.3L1021.15 167.15H1018.91L1015.76 157.509L1015.73 157.542V167.15H1013.48V155.465Z" fill="#1D1D1B"/>
<path d="M1029.55 165.04C1030.19 165.34 1030.89 165.499 1031.59 165.507C1033.62 165.507 1034.3 163.633 1034.36 161.894L1034.33 161.858C1034.09 162.239 1033.76 162.549 1033.36 162.755C1032.96 162.962 1032.52 163.058 1032.07 163.032C1029.85 163.032 1028.65 161.626 1028.65 159.466C1028.65 156.938 1029.89 155.266 1032.53 155.266C1035.77 155.266 1036.5 157.96 1036.5 160.704C1036.5 163.868 1035.48 167.349 1031.69 167.349C1030.85 167.353 1030.02 167.211 1029.23 166.931L1029.55 165.04ZM1034.17 159.081C1034.17 157.974 1033.7 157.007 1032.55 157.007C1031.46 157.007 1031.01 158.062 1031.01 159.098C1031.01 160.236 1031.47 161.291 1032.6 161.291C1033.72 161.291 1034.17 160.252 1034.17 159.076" fill="#1D1D1B"/>
</g>
<g clip-path="url(#clip5_496_5925)">
<path d="M1189 161C1189 157.44 1190.06 153.96 1192.03 151C1194.01 148.04 1196.82 145.733 1200.11 144.37C1203.4 143.008 1207.02 142.651 1210.51 143.346C1214 144.04 1217.21 145.755 1219.73 148.272C1222.25 150.789 1223.96 153.997 1224.65 157.488C1225.35 160.98 1224.99 164.599 1223.63 167.888C1222.27 171.177 1219.96 173.989 1217 175.966C1214.04 177.944 1210.56 179 1207 179C1202.23 178.989 1197.66 177.089 1194.28 173.716C1190.91 170.343 1189.01 165.771 1189 161Z" fill="#F29EBF"/>
<path d="M1195.27 155.337H1199.11L1201.94 164.438L1204.78 155.337H1208.82V167.472H1206.39V157.359L1203.16 167.472H1200.73L1197.49 157.359V167.472H1195.27V155.337Z" fill="white"/>
<path d="M1211.05 155.337H1218.73V157.359L1214.49 167.472H1211.86L1216.31 157.157H1211.05V155.337Z" fill="white"/>
</g>
<g clip-path="url(#clip6_496_5925)">
<path d="M1395 161C1395 157.44 1396.06 153.96 1398.03 151C1400.01 148.04 1402.82 145.733 1406.11 144.37C1409.4 143.008 1413.02 142.651 1416.51 143.346C1420 144.04 1423.21 145.755 1425.73 148.272C1428.25 150.789 1429.96 153.997 1430.65 157.488C1431.35 160.98 1430.99 164.599 1429.63 167.888C1428.27 171.177 1425.96 173.989 1423 175.966C1420.04 177.944 1416.56 179 1413 179C1410.67 179.029 1408.35 178.599 1406.18 177.732C1404.01 176.866 1402.04 175.581 1400.36 173.951C1398.69 172.321 1397.36 170.377 1396.44 168.231C1395.52 166.086 1395.03 163.78 1395 161.445V161Z" fill="#65656A"/>
<path d="M1403.37 167.674V154.305H1408.04C1410.77 154.305 1412.35 155.478 1412.35 157.723C1412.36 158.465 1412.09 159.184 1411.6 159.738C1411.1 160.292 1410.42 160.641 1409.68 160.716C1410.49 160.727 1411.26 161.051 1411.84 161.621C1412.41 162.191 1412.74 162.962 1412.76 163.77C1412.76 166.4 1410.87 167.633 1407.98 167.633L1403.37 167.674ZM1407.13 159.705C1408.89 159.705 1409.7 159.139 1409.7 158.087C1409.7 157.036 1409.16 156.409 1407.27 156.409H1406.04V159.705H1407.13ZM1407.36 165.57C1409.09 165.57 1410.09 164.964 1410.09 163.71C1410.09 162.456 1409.2 161.687 1407.42 161.687H1406.04V165.55L1407.36 165.57Z" fill="white"/>
<path d="M1418.64 167.674V157.359L1416.37 159.18L1415.04 157.42L1418.94 154.285H1421.29V167.674H1418.64Z" fill="white"/>
</g>
<g clip-path="url(#clip7_496_5925)">
<path d="M1329 179.025C1325.43 179.032 1321.94 177.981 1318.97 176.006C1316 174.031 1313.68 171.221 1312.31 167.93C1310.94 164.639 1310.58 161.016 1311.27 157.52C1311.96 154.024 1313.68 150.811 1316.2 148.288C1318.72 145.766 1321.93 144.047 1325.43 143.349C1328.93 142.651 1332.56 143.005 1335.86 144.368C1339.16 145.73 1341.97 148.039 1343.96 151.002C1345.94 153.965 1347 157.448 1347 161.012C1347 165.784 1345.1 170.36 1341.73 173.737C1338.36 177.114 1333.78 179.016 1329 179.025Z" fill="#E1251B"/>
<path d="M1314.25 155.583H1317.73L1320.3 163.794H1320.34L1322.91 155.583H1326.39V166.416H1324.31V157.475H1324.28L1321.36 166.416H1319.28L1316.36 157.475L1316.33 157.505V166.416H1314.25V155.583Z" fill="white"/>
<path d="M1332.05 155.583H1333.98V166.416H1331.81V158.05L1329.97 159.541L1328.89 158.125L1332.05 155.583Z" fill="white"/>
<path d="M1337.13 159.191H1339.66C1340.59 159.191 1341.98 159.462 1341.98 161.048C1341.99 161.445 1341.84 161.83 1341.58 162.128C1341.32 162.426 1340.95 162.617 1340.56 162.664C1340.99 162.669 1341.41 162.844 1341.72 163.151C1342.03 163.458 1342.21 163.874 1342.21 164.31C1342.21 166.131 1340.58 166.396 1339.67 166.396H1337.13V159.191ZM1338.58 162.113H1339.17C1339.78 162.113 1340.54 161.978 1340.54 161.233C1340.54 160.392 1339.8 160.332 1339.14 160.332H1338.58V162.113ZM1338.58 165.281H1339.26C1339.93 165.281 1340.77 165.116 1340.77 164.28C1340.77 163.339 1340 163.194 1339.26 163.194H1338.58V165.281Z" fill="white"/>
</g>
<g clip-path="url(#clip8_496_5925)">
<path d="M1437 161C1437 151.049 1445.05 143 1455 143C1464.95 143 1473 151.049 1473 161C1473 170.951 1464.95 179 1455 179C1445.19 179.121 1437.12 171.274 1437 161.445V161Z" fill="#76777A"/>
<path d="M1445.09 167.674V154.306H1449.76C1452.47 154.306 1454.07 155.479 1454.07 157.724C1454.09 159.261 1452.94 160.555 1451.4 160.717C1453.08 160.737 1454.43 162.092 1454.47 163.771C1454.47 166.4 1452.59 167.634 1449.7 167.634L1445.09 167.674ZM1448.81 159.706C1450.57 159.706 1451.38 159.139 1451.38 158.088C1451.38 157.036 1450.85 156.409 1448.99 156.409H1447.76V159.706H1448.81ZM1449.13 165.571C1450.87 165.571 1451.87 164.964 1451.87 163.71C1451.87 162.456 1450.98 161.688 1449.2 161.688H1447.76V165.551L1449.13 165.571Z" fill="white"/>
<path d="M1456.03 167.674V165.45L1457.63 163.953C1460.2 161.546 1461.82 159.443 1461.82 157.987C1461.82 156.834 1460.82 156.187 1459.63 156.187C1458.52 156.227 1457.45 156.611 1456.54 157.259L1456.33 155.135C1457.59 154.508 1458.98 154.184 1460.38 154.184C1462.4 153.942 1464.24 155.378 1464.49 157.38C1464.51 157.582 1464.53 157.784 1464.51 157.987C1464.51 159.847 1463.43 161.87 1459.45 165.571H1464.91V167.593L1456.03 167.674Z" fill="white"/>
</g>
<g clip-path="url(#clip9_496_5925)">
<path d="M1353 161C1353 157.44 1354.06 153.96 1356.03 151C1358.01 148.04 1360.82 145.733 1364.11 144.37C1367.4 143.008 1371.02 142.651 1374.51 143.346C1378 144.04 1381.21 145.755 1383.73 148.272C1386.25 150.789 1387.96 153.997 1388.65 157.488C1389.35 160.98 1388.99 164.599 1387.63 167.888C1386.27 171.177 1383.96 173.989 1381 175.966C1378.04 177.944 1374.56 179 1371 179C1366.23 178.995 1361.65 177.097 1358.28 173.722C1354.9 170.348 1353.01 165.772 1353 161Z" fill="#9D9D9C"/>
<path d="M1355.41 155.6H1359.15L1361.96 164.458H1362L1364.75 155.58H1368.51L1368.53 167.29H1366.29L1366.27 157.622H1366.25L1363.11 167.29H1360.87L1357.69 157.643L1357.65 157.683L1357.67 167.31H1355.43L1355.41 155.6Z" fill="white"/>
<path d="M1369.95 165.105C1370.77 165.435 1371.65 165.613 1372.54 165.631C1373.51 165.631 1375.01 165.146 1375.01 163.973C1375.01 162.8 1373.91 162.132 1372.42 162.132H1371.2V160.292H1372.27C1373.85 160.292 1374.86 159.766 1374.86 158.755C1374.86 157.744 1373.99 157.157 1372.92 157.157C1372.01 157.166 1371.11 157.38 1370.29 157.784L1370.15 155.903C1371.2 155.503 1372.31 155.297 1373.43 155.296C1374.86 155.296 1377.29 155.802 1377.29 158.29C1377.32 158.95 1377.12 159.6 1376.73 160.131C1376.33 160.661 1375.77 161.04 1375.13 161.202C1375.77 161.307 1376.35 161.651 1376.74 162.165C1377.14 162.679 1377.33 163.325 1377.27 163.973C1377.27 166.764 1374.74 167.472 1372.8 167.472C1371.76 167.482 1370.73 167.353 1369.73 167.087L1369.95 165.105Z" fill="white"/>
<path d="M1377.8 162.942L1382.17 155.54H1385.08V163.063H1386.57V164.802H1385.08V167.27H1382.85V164.843H1377.82L1377.8 162.942ZM1382.85 163.083V157.987L1379.92 163.083H1382.85Z" fill="white"/>
</g>
</g>
<defs>
<clipPath id="clip0_496_5925">
<rect width="1492" height="200" fill="white"/>
</clipPath>
<clipPath id="clip1_496_5925">
<rect width="48" height="48" fill="white" transform="translate(76 76)"/>
</clipPath>
<clipPath id="clip2_496_5925">
<rect width="36" height="36" fill="white" transform="translate(640 143)"/>
</clipPath>
<clipPath id="clip3_496_5925">
<rect width="36" height="36" fill="white" transform="translate(825 143)"/>
</clipPath>
<clipPath id="clip4_496_5925">
<rect width="36" height="36" fill="white" transform="translate(1007 143)"/>
</clipPath>
<clipPath id="clip5_496_5925">
<rect width="36" height="36" fill="white" transform="translate(1189 143)"/>
</clipPath>
<clipPath id="clip6_496_5925">
<rect width="36" height="36" fill="white" transform="translate(1395 143)"/>
</clipPath>
<clipPath id="clip7_496_5925">
<rect width="36" height="36" fill="white" transform="translate(1311 143)"/>
</clipPath>
<clipPath id="clip8_496_5925">
<rect width="36" height="36" fill="white" transform="translate(1437 143)"/>
</clipPath>
<clipPath id="clip9_496_5925">
<rect width="36" height="36" fill="white" transform="translate(1353 143)"/>
</clipPath>
</defs>
</svg>
