<svg xmlns="http://www.w3.org/2000/svg" viewBox="0 0 17.8 17.8"><defs><style>.cls-1{fill:#ab548f;}.cls-2{fill:#fff;}</style></defs><title>M11 symbol</title><g id="Layer_2" data-name="Layer 2"><g id="Layer_1-2" data-name="Layer 1"><path class="cls-1" d="M0,8.9a8.9,8.9,0,1,1,8.9,8.9A8.92,8.92,0,0,1,0,8.9"/><polygon class="cls-2" points="1.2 5.9 3.2 5.9 4.6 10.4 4.6 10.4 6 5.9 7.9 5.9 7.9 11.9 6.8 11.9 6.8 7 6.8 7 5.2 11.9 4 11.9 2.4 7 2.4 7 2.4 11.9 1.2 11.9 1.2 5.9"/><polygon class="cls-2" points="10.6 5.9 11.7 5.9 11.7 11.9 10.5 11.9 10.5 7.3 9.5 8.1 8.9 7.3 10.6 5.9"/><polygon class="cls-2" points="14.9 5.9 16 5.9 16 11.9 14.8 11.9 14.8 7.3 13.8 8.1 13.2 7.3 14.9 5.9"/></g></g></svg>