<svg width="4700" height="592" viewBox="0 0 4700 592" fill="none" xmlns="http://www.w3.org/2000/svg">
<rect x="300" y="342" width="120" height="30" fill="#D9D9D9"/>
<path d="M314.869 358.736V356.324H321.1V362.027C320.494 362.613 319.615 363.131 318.463 363.58C317.317 364.023 316.155 364.244 314.977 364.244C313.479 364.244 312.174 363.932 311.061 363.307C309.947 362.675 309.111 361.777 308.551 360.611C307.991 359.439 307.711 358.167 307.711 356.793C307.711 355.302 308.023 353.977 308.648 352.818C309.273 351.66 310.188 350.771 311.393 350.152C312.311 349.677 313.453 349.439 314.82 349.439C316.598 349.439 317.984 349.814 318.98 350.562C319.983 351.305 320.628 352.333 320.914 353.648L318.043 354.186C317.841 353.482 317.46 352.929 316.9 352.525C316.347 352.115 315.654 351.91 314.82 351.91C313.557 351.91 312.551 352.311 311.803 353.111C311.061 353.912 310.689 355.1 310.689 356.676C310.689 358.375 311.067 359.651 311.822 360.504C312.577 361.35 313.567 361.773 314.791 361.773C315.396 361.773 316.002 361.656 316.607 361.422C317.219 361.181 317.743 360.891 318.18 360.553V358.736H314.869ZM329.535 364V357.975L324.291 349.684H327.68L331.049 355.348L334.35 349.684H337.68L332.416 357.994V364H329.535ZM341.125 364V349.684H347.209C348.739 349.684 349.849 349.814 350.539 350.074C351.236 350.328 351.792 350.784 352.209 351.441C352.626 352.099 352.834 352.851 352.834 353.697C352.834 354.771 352.518 355.66 351.887 356.363C351.255 357.06 350.311 357.499 349.055 357.682C349.68 358.046 350.194 358.447 350.598 358.883C351.008 359.319 351.558 360.094 352.248 361.207L353.996 364H350.539L348.449 360.885C347.707 359.771 347.199 359.072 346.926 358.785C346.652 358.492 346.363 358.294 346.057 358.189C345.751 358.079 345.266 358.023 344.602 358.023H344.016V364H341.125ZM344.016 355.738H346.154C347.541 355.738 348.407 355.68 348.752 355.562C349.097 355.445 349.367 355.243 349.562 354.957C349.758 354.671 349.855 354.312 349.855 353.883C349.855 353.401 349.725 353.014 349.465 352.721C349.211 352.421 348.85 352.232 348.381 352.154C348.146 352.122 347.443 352.105 346.271 352.105H344.016V355.738ZM360.791 364V352.105H356.543V349.684H367.92V352.105H363.682V364H360.791ZM375.018 364V352.105H370.77V349.684H382.146V352.105H377.908V364H375.018ZM386.021 364V349.684H390.66C392.418 349.684 393.564 349.755 394.098 349.898C394.918 350.113 395.605 350.582 396.158 351.305C396.712 352.021 396.988 352.949 396.988 354.088C396.988 354.967 396.829 355.706 396.51 356.305C396.191 356.904 395.784 357.376 395.289 357.721C394.801 358.059 394.303 358.284 393.795 358.395C393.105 358.531 392.105 358.6 390.797 358.6H388.912V364H386.021ZM388.912 352.105V356.168H390.494C391.633 356.168 392.395 356.093 392.779 355.943C393.163 355.794 393.463 355.559 393.678 355.24C393.899 354.921 394.01 354.55 394.01 354.127C394.01 353.606 393.857 353.176 393.551 352.838C393.245 352.499 392.857 352.288 392.389 352.203C392.044 352.138 391.35 352.105 390.309 352.105H388.912ZM401.361 364V349.684H411.977V352.105H404.252V355.279H411.439V357.691H404.252V361.588H412.25V364H401.361Z" fill="#949494"/>
<rect x="750" y="422" width="120" height="30" fill="#D9D9D9"/>
<path d="M752.238 443V428.684H755.129V435.041L760.969 428.684H764.855L759.465 434.26L765.148 443H761.408L757.473 436.281L755.129 438.674V443H752.238ZM781.562 443H778.418L777.168 439.748H771.445L770.264 443H767.197L772.773 428.684H775.83L781.562 443ZM776.24 437.336L774.268 432.023L772.334 437.336H776.24ZM791.766 437.736V435.324H797.996V441.027C797.391 441.613 796.512 442.131 795.359 442.58C794.214 443.023 793.051 443.244 791.873 443.244C790.376 443.244 789.07 442.932 787.957 442.307C786.844 441.675 786.007 440.777 785.447 439.611C784.887 438.439 784.607 437.167 784.607 435.793C784.607 434.302 784.92 432.977 785.545 431.818C786.17 430.66 787.085 429.771 788.289 429.152C789.207 428.677 790.35 428.439 791.717 428.439C793.494 428.439 794.881 428.814 795.877 429.562C796.88 430.305 797.524 431.333 797.811 432.648L794.939 433.186C794.738 432.482 794.357 431.929 793.797 431.525C793.243 431.115 792.55 430.91 791.717 430.91C790.454 430.91 789.448 431.311 788.699 432.111C787.957 432.912 787.586 434.1 787.586 435.676C787.586 437.375 787.964 438.651 788.719 439.504C789.474 440.35 790.464 440.773 791.688 440.773C792.293 440.773 792.898 440.656 793.504 440.422C794.116 440.181 794.64 439.891 795.076 439.553V437.736H791.766ZM793.602 425.07H794.939C794.861 425.956 794.549 426.652 794.002 427.16C793.462 427.661 792.758 427.912 791.893 427.912C791.027 427.912 790.32 427.661 789.773 427.16C789.233 426.652 788.924 425.956 788.846 425.07H790.184C790.229 425.533 790.392 425.884 790.672 426.125C790.952 426.359 791.359 426.477 791.893 426.477C792.426 426.477 792.833 426.359 793.113 426.125C793.393 425.884 793.556 425.533 793.602 425.07ZM802.584 443V428.684H805.475V443H802.584ZM813.461 443V431.105H809.213V428.684H820.59V431.105H816.352V443H813.461ZM824.475 443V428.684H827.365V434.318H833.029V428.684H835.92V443H833.029V436.74H827.365V443H824.475ZM840.947 443V428.684H843.76L849.619 438.244V428.684H852.305V443H849.404L843.633 433.664V443H840.947ZM857.371 443V428.684H867.986V431.105H860.262V434.279H867.449V436.691H860.262V440.588H868.26V443H857.371Z" fill="#949494"/>
<rect x="1100" y="422" width="120" height="30" fill="#D9D9D9"/>
<path d="M1114.78 443V428.684H1117.67V434.318H1123.33V428.684H1126.22V443H1123.33V436.74H1117.67V443H1114.78ZM1144.13 443H1140.98L1139.73 439.748H1134.01L1132.83 443H1129.76L1135.34 428.684H1138.4L1144.13 443ZM1138.81 437.336L1136.83 432.023L1134.9 437.336H1138.81ZM1146.94 438.342L1149.75 438.068C1149.92 439.012 1150.26 439.706 1150.78 440.148C1151.3 440.591 1152 440.812 1152.88 440.812C1153.81 440.812 1154.51 440.617 1154.98 440.227C1155.45 439.829 1155.69 439.367 1155.69 438.84C1155.69 438.501 1155.59 438.215 1155.39 437.98C1155.19 437.74 1154.85 437.531 1154.35 437.355C1154.01 437.238 1153.24 437.03 1152.04 436.73C1150.49 436.346 1149.4 435.874 1148.78 435.314C1147.9 434.527 1147.46 433.566 1147.46 432.434C1147.46 431.704 1147.66 431.024 1148.07 430.393C1148.49 429.755 1149.08 429.27 1149.86 428.938C1150.64 428.605 1151.58 428.439 1152.68 428.439C1154.48 428.439 1155.83 428.833 1156.73 429.621C1157.65 430.409 1158.12 431.46 1158.17 432.775L1155.28 432.902C1155.16 432.167 1154.89 431.639 1154.48 431.32C1154.07 430.995 1153.47 430.832 1152.65 430.832C1151.81 430.832 1151.15 431.005 1150.68 431.35C1150.37 431.571 1150.22 431.867 1150.22 432.238C1150.22 432.577 1150.36 432.867 1150.65 433.107C1151.01 433.413 1151.9 433.732 1153.31 434.064C1154.71 434.396 1155.75 434.742 1156.42 435.1C1157.1 435.451 1157.63 435.936 1158 436.555C1158.39 437.167 1158.58 437.925 1158.58 438.83C1158.58 439.65 1158.35 440.419 1157.9 441.135C1157.44 441.851 1156.8 442.385 1155.96 442.736C1155.13 443.081 1154.09 443.254 1152.85 443.254C1151.04 443.254 1149.65 442.837 1148.68 442.004C1147.71 441.164 1147.13 439.943 1146.94 438.342ZM1163 428.684H1168.29C1169.48 428.684 1170.38 428.775 1171.01 428.957C1171.85 429.204 1172.57 429.644 1173.17 430.275C1173.77 430.907 1174.22 431.682 1174.54 432.6C1174.85 433.511 1175 434.637 1175 435.979C1175 437.157 1174.86 438.173 1174.56 439.025C1174.21 440.067 1173.7 440.91 1173.03 441.555C1172.53 442.043 1171.85 442.424 1171 442.697C1170.36 442.899 1169.51 443 1168.44 443H1163V428.684ZM1165.89 431.105V440.588H1168.05C1168.86 440.588 1169.44 440.542 1169.8 440.451C1170.27 440.334 1170.65 440.135 1170.96 439.855C1171.27 439.576 1171.53 439.117 1171.72 438.479C1171.92 437.834 1172.02 436.958 1172.02 435.852C1172.02 434.745 1171.92 433.895 1171.72 433.303C1171.53 432.71 1171.25 432.248 1170.9 431.916C1170.55 431.584 1170.1 431.359 1169.56 431.242C1169.16 431.151 1168.37 431.105 1167.19 431.105H1165.89ZM1192.38 443H1189.23L1187.98 439.748H1182.26L1181.08 443H1178.01L1183.59 428.684H1186.64L1192.38 443ZM1187.05 437.336L1185.08 432.023L1183.15 437.336H1187.05ZM1196 443V428.801H1198.89V440.588H1206.07V443H1196Z" fill="#949494"/>
<rect x="1450" y="422" width="120" height="30" fill="#D9D9D9"/>
<path d="M1454.36 443V428.684H1457.25V435.041L1463.09 428.684H1466.98L1461.59 434.26L1467.27 443H1463.53L1459.6 436.281L1457.25 438.674V443H1454.36ZM1470.74 443V428.684H1475.06L1477.66 438.449L1480.23 428.684H1484.56V443H1481.88V431.73L1479.04 443H1476.25L1473.42 431.73V443H1470.74ZM1489.45 443V428.684H1495.53C1497.06 428.684 1498.17 428.814 1498.86 429.074C1499.56 429.328 1500.11 429.784 1500.53 430.441C1500.95 431.099 1501.15 431.851 1501.15 432.697C1501.15 433.771 1500.84 434.66 1500.21 435.363C1499.58 436.06 1498.63 436.499 1497.38 436.682C1498 437.046 1498.51 437.447 1498.92 437.883C1499.33 438.319 1499.88 439.094 1500.57 440.207L1502.32 443H1498.86L1496.77 439.885C1496.03 438.771 1495.52 438.072 1495.25 437.785C1494.97 437.492 1494.68 437.294 1494.38 437.189C1494.07 437.079 1493.59 437.023 1492.92 437.023H1492.34V443H1489.45ZM1492.34 434.738H1494.47C1495.86 434.738 1496.73 434.68 1497.07 434.562C1497.42 434.445 1497.69 434.243 1497.88 433.957C1498.08 433.671 1498.18 433.312 1498.18 432.883C1498.18 432.401 1498.05 432.014 1497.79 431.721C1497.53 431.421 1497.17 431.232 1496.7 431.154C1496.47 431.122 1495.76 431.105 1494.59 431.105H1492.34V434.738ZM1505.9 428.684H1511.62C1512.75 428.684 1513.6 428.732 1514.15 428.83C1514.71 428.921 1515.21 429.117 1515.64 429.416C1516.09 429.715 1516.46 430.116 1516.75 430.617C1517.04 431.112 1517.19 431.669 1517.19 432.287C1517.19 432.958 1517.01 433.573 1516.64 434.133C1516.28 434.693 1515.79 435.113 1515.18 435.393C1516.05 435.646 1516.72 436.079 1517.19 436.691C1517.66 437.303 1517.89 438.023 1517.89 438.85C1517.89 439.501 1517.74 440.135 1517.43 440.754C1517.13 441.366 1516.72 441.857 1516.19 442.229C1515.67 442.593 1515.03 442.818 1514.26 442.902C1513.78 442.954 1512.61 442.987 1510.77 443H1505.9V428.684ZM1508.79 431.066V434.377H1510.68C1511.81 434.377 1512.51 434.361 1512.78 434.328C1513.28 434.27 1513.67 434.1 1513.95 433.82C1514.23 433.534 1514.38 433.16 1514.38 432.697C1514.38 432.255 1514.25 431.896 1514 431.623C1513.76 431.343 1513.4 431.174 1512.92 431.115C1512.63 431.083 1511.81 431.066 1510.45 431.066H1508.79ZM1508.79 436.76V440.588H1511.46C1512.51 440.588 1513.17 440.559 1513.45 440.5C1513.88 440.422 1514.23 440.233 1514.49 439.934C1514.77 439.628 1514.9 439.221 1514.9 438.713C1514.9 438.283 1514.8 437.919 1514.59 437.619C1514.38 437.32 1514.08 437.102 1513.68 436.965C1513.29 436.828 1512.44 436.76 1511.12 436.76H1508.79ZM1522.35 443V428.684H1528.44C1529.97 428.684 1531.08 428.814 1531.77 429.074C1532.46 429.328 1533.02 429.784 1533.44 430.441C1533.85 431.099 1534.06 431.851 1534.06 432.697C1534.06 433.771 1533.74 434.66 1533.11 435.363C1532.48 436.06 1531.54 436.499 1530.28 436.682C1530.91 437.046 1531.42 437.447 1531.82 437.883C1532.23 438.319 1532.78 439.094 1533.47 440.207L1535.22 443H1531.77L1529.68 439.885C1528.93 438.771 1528.43 438.072 1528.15 437.785C1527.88 437.492 1527.59 437.294 1527.28 437.189C1526.98 437.079 1526.49 437.023 1525.83 437.023H1525.24V443H1522.35ZM1525.24 434.738H1527.38C1528.77 434.738 1529.63 434.68 1529.98 434.562C1530.32 434.445 1530.59 434.243 1530.79 433.957C1530.98 433.671 1531.08 433.312 1531.08 432.883C1531.08 432.401 1530.95 432.014 1530.69 431.721C1530.44 431.421 1530.08 431.232 1529.61 431.154C1529.37 431.122 1528.67 431.105 1527.5 431.105H1525.24V434.738ZM1545.46 437.736V435.324H1551.69V441.027C1551.08 441.613 1550.2 442.131 1549.05 442.58C1547.9 443.023 1546.74 443.244 1545.56 443.244C1544.07 443.244 1542.76 442.932 1541.65 442.307C1540.53 441.675 1539.7 440.777 1539.14 439.611C1538.58 438.439 1538.3 437.167 1538.3 435.793C1538.3 434.302 1538.61 432.977 1539.23 431.818C1539.86 430.66 1540.77 429.771 1541.98 429.152C1542.9 428.677 1544.04 428.439 1545.41 428.439C1547.18 428.439 1548.57 428.814 1549.57 429.562C1550.57 430.305 1551.21 431.333 1551.5 432.648L1548.63 433.186C1548.43 432.482 1548.05 431.929 1547.49 431.525C1546.93 431.115 1546.24 430.91 1545.41 430.91C1544.14 430.91 1543.14 431.311 1542.39 432.111C1541.65 432.912 1541.28 434.1 1541.28 435.676C1541.28 437.375 1541.65 438.651 1542.41 439.504C1543.16 440.35 1544.15 440.773 1545.38 440.773C1545.98 440.773 1546.59 440.656 1547.19 440.422C1547.81 440.181 1548.33 439.891 1548.77 439.553V437.736H1545.46ZM1555.12 443V440.393L1562.64 431.105H1555.97V428.684H1566.45V430.93L1558.61 440.588H1566.75V443H1555.12Z" fill="#949494"/>
<rect x="1850" y="422" width="120" height="30" fill="#D9D9D9"/>
<path d="M1861.53 437.736V435.324H1867.76V441.027C1867.15 441.613 1866.28 442.131 1865.12 442.58C1863.98 443.023 1862.82 443.244 1861.64 443.244C1860.14 443.244 1858.83 442.932 1857.72 442.307C1856.61 441.675 1855.77 440.777 1855.21 439.611C1854.65 438.439 1854.37 437.167 1854.37 435.793C1854.37 434.302 1854.68 432.977 1855.31 431.818C1855.93 430.66 1856.85 429.771 1858.05 429.152C1858.97 428.677 1860.11 428.439 1861.48 428.439C1863.26 428.439 1864.64 428.814 1865.64 429.562C1866.64 430.305 1867.29 431.333 1867.57 432.648L1864.7 433.186C1864.5 432.482 1864.12 431.929 1863.56 431.525C1863.01 431.115 1862.31 430.91 1861.48 430.91C1860.22 430.91 1859.21 431.311 1858.46 432.111C1857.72 432.912 1857.35 434.1 1857.35 435.676C1857.35 437.375 1857.73 438.651 1858.48 439.504C1859.24 440.35 1860.23 440.773 1861.45 440.773C1862.06 440.773 1862.66 440.656 1863.27 440.422C1863.88 440.181 1864.4 439.891 1864.84 439.553V437.736H1861.53ZM1871.85 435.93C1871.85 434.471 1872.07 433.247 1872.5 432.258C1872.83 431.529 1873.27 430.874 1873.83 430.295C1874.4 429.715 1875.02 429.286 1875.69 429.006C1876.58 428.628 1877.61 428.439 1878.77 428.439C1880.88 428.439 1882.57 429.094 1883.83 430.402C1885.1 431.711 1885.74 433.531 1885.74 435.861C1885.74 438.173 1885.11 439.982 1883.85 441.291C1882.6 442.593 1880.92 443.244 1878.81 443.244C1876.68 443.244 1874.99 442.596 1873.73 441.301C1872.48 439.999 1871.85 438.208 1871.85 435.93ZM1874.83 435.832C1874.83 437.453 1875.2 438.684 1875.95 439.523C1876.7 440.357 1877.65 440.773 1878.8 440.773C1879.96 440.773 1880.9 440.36 1881.63 439.533C1882.38 438.7 1882.75 437.453 1882.75 435.793C1882.75 434.152 1882.39 432.928 1881.66 432.121C1880.95 431.314 1879.99 430.91 1878.8 430.91C1877.61 430.91 1876.65 431.32 1875.92 432.141C1875.19 432.954 1874.83 434.185 1874.83 435.832ZM1875.35 427.863V425.51H1877.7V427.863H1875.35ZM1879.54 427.863V425.51H1881.91V427.863H1879.54ZM1890.04 443V428.684H1892.93V435.041L1898.77 428.684H1902.66L1897.27 434.26L1902.95 443H1899.21L1895.28 436.281L1892.93 438.674V443H1890.04ZM1909.68 443V431.105H1905.43V428.684H1916.81V431.105H1912.57V443H1909.68ZM1920.66 428.684H1923.55V436.438C1923.55 437.668 1923.59 438.465 1923.66 438.83C1923.78 439.416 1924.08 439.888 1924.54 440.246C1925.01 440.598 1925.65 440.773 1926.45 440.773C1927.27 440.773 1927.89 440.607 1928.31 440.275C1928.73 439.937 1928.98 439.523 1929.06 439.035C1929.15 438.547 1929.19 437.736 1929.19 436.604V428.684H1932.08V436.203C1932.08 437.922 1932 439.136 1931.84 439.846C1931.69 440.555 1931.4 441.154 1930.97 441.643C1930.56 442.131 1930 442.521 1929.29 442.814C1928.59 443.101 1927.67 443.244 1926.54 443.244C1925.17 443.244 1924.14 443.088 1923.43 442.775C1922.72 442.456 1922.17 442.046 1921.76 441.545C1921.35 441.037 1921.08 440.507 1920.95 439.953C1920.76 439.133 1920.66 437.922 1920.66 436.32V428.684ZM1923.12 427.863V425.51H1925.48V427.863H1923.12ZM1927.32 427.863V425.51H1929.69V427.863H1927.32ZM1937.14 443V428.684H1943.23C1944.76 428.684 1945.87 428.814 1946.56 429.074C1947.26 429.328 1947.81 429.784 1948.23 430.441C1948.65 431.099 1948.85 431.851 1948.85 432.697C1948.85 433.771 1948.54 434.66 1947.91 435.363C1947.27 436.06 1946.33 436.499 1945.07 436.682C1945.7 437.046 1946.21 437.447 1946.62 437.883C1947.03 438.319 1947.58 439.094 1948.27 440.207L1950.02 443H1946.56L1944.47 439.885C1943.73 438.771 1943.22 438.072 1942.95 437.785C1942.67 437.492 1942.38 437.294 1942.08 437.189C1941.77 437.079 1941.29 437.023 1940.62 437.023H1940.04V443H1937.14ZM1940.04 434.738H1942.17C1943.56 434.738 1944.43 434.68 1944.77 434.562C1945.12 434.445 1945.39 434.243 1945.58 433.957C1945.78 433.671 1945.88 433.312 1945.88 432.883C1945.88 432.401 1945.74 432.014 1945.48 431.721C1945.23 431.421 1944.87 431.232 1944.4 431.154C1944.17 431.122 1943.46 431.105 1942.29 431.105H1940.04V434.738ZM1953.63 443V428.684H1956.52V435.041L1962.36 428.684H1966.24L1960.85 434.26L1966.54 443H1962.8L1958.86 436.281L1956.52 438.674V443H1953.63Z" fill="#949494"/>
<rect x="2450" y="422" width="120" height="30" fill="#D9D9D9"/>
<path d="M2457.11 443V428.684H2460V443H2457.11ZM2457.22 427.863V425.266H2459.91V427.863H2457.22ZM2464.78 443V428.684H2467.67V434.318H2473.33V428.684H2476.22V443H2473.33V436.74H2467.67V443H2464.78ZM2480.49 438.342L2483.3 438.068C2483.47 439.012 2483.81 439.706 2484.32 440.148C2484.85 440.591 2485.54 440.812 2486.42 440.812C2487.35 440.812 2488.05 440.617 2488.52 440.227C2489 439.829 2489.24 439.367 2489.24 438.84C2489.24 438.501 2489.14 438.215 2488.93 437.98C2488.74 437.74 2488.39 437.531 2487.9 437.355C2487.56 437.238 2486.79 437.03 2485.58 436.73C2484.03 436.346 2482.95 435.874 2482.32 435.314C2481.44 434.527 2481 433.566 2481 432.434C2481 431.704 2481.21 431.024 2481.62 430.393C2482.04 429.755 2482.63 429.27 2483.41 428.938C2484.19 428.605 2485.13 428.439 2486.23 428.439C2488.03 428.439 2489.38 428.833 2490.28 429.621C2491.19 430.409 2491.67 431.46 2491.72 432.775L2488.83 432.902C2488.7 432.167 2488.44 431.639 2488.03 431.32C2487.62 430.995 2487.01 430.832 2486.2 430.832C2485.36 430.832 2484.7 431.005 2484.23 431.35C2483.92 431.571 2483.77 431.867 2483.77 432.238C2483.77 432.577 2483.91 432.867 2484.2 433.107C2484.56 433.413 2485.45 433.732 2486.85 434.064C2488.26 434.396 2489.3 434.742 2489.97 435.1C2490.65 435.451 2491.17 435.936 2491.55 436.555C2491.93 437.167 2492.13 437.925 2492.13 438.83C2492.13 439.65 2491.9 440.419 2491.44 441.135C2490.99 441.851 2490.34 442.385 2489.51 442.736C2488.68 443.081 2487.64 443.254 2486.39 443.254C2484.58 443.254 2483.19 442.837 2482.22 442.004C2481.25 441.164 2480.68 439.943 2480.49 438.342ZM2509.47 443H2506.32L2505.07 439.748H2499.35L2498.17 443H2495.1L2500.68 428.684H2503.74L2509.47 443ZM2504.15 437.336L2502.17 432.023L2500.24 437.336H2504.15ZM2513.04 443V428.684H2515.85L2521.71 438.244V428.684H2524.4V443H2521.5L2515.73 433.664V443H2513.04ZM2529.38 443V428.684H2532.27V443H2529.38ZM2529.48 427.863V425.266H2532.18V427.863H2529.48ZM2540.79 443V436.975L2535.55 428.684H2538.94L2542.3 434.348L2545.61 428.684H2548.94L2543.67 436.994V443H2540.79ZM2552.37 443V428.684H2562.99V431.105H2555.26V434.279H2562.45V436.691H2555.26V440.588H2563.26V443H2552.37Z" fill="#949494"/>
<rect x="2850" y="422" width="120" height="30" fill="#D9D9D9"/>
<path d="M2857.28 443V431.105H2853.03V428.684H2864.41V431.105H2860.17V443H2857.28ZM2868.29 443V428.684H2874.38C2875.9 428.684 2877.01 428.814 2877.71 429.074C2878.4 429.328 2878.96 429.784 2879.38 430.441C2879.79 431.099 2880 431.851 2880 432.697C2880 433.771 2879.68 434.66 2879.05 435.363C2878.42 436.06 2877.48 436.499 2876.22 436.682C2876.85 437.046 2877.36 437.447 2877.76 437.883C2878.17 438.319 2878.72 439.094 2879.41 440.207L2881.16 443H2877.71L2875.62 439.885C2874.87 438.771 2874.37 438.072 2874.09 437.785C2873.82 437.492 2873.53 437.294 2873.22 437.189C2872.92 437.079 2872.43 437.023 2871.77 437.023H2871.18V443H2868.29ZM2871.18 434.738H2873.32C2874.71 434.738 2875.57 434.68 2875.92 434.562C2876.26 434.445 2876.53 434.243 2876.73 433.957C2876.92 433.671 2877.02 433.312 2877.02 432.883C2877.02 432.401 2876.89 432.014 2876.63 431.721C2876.38 431.421 2876.02 431.232 2875.55 431.154C2875.31 431.122 2874.61 431.105 2873.44 431.105H2871.18V434.738ZM2884.7 443V428.684H2889.02L2891.62 438.449L2894.19 428.684H2898.52V443H2895.84V431.73L2893 443H2890.21L2887.38 431.73V443H2884.7ZM2903.42 443V428.684H2906.24L2912.1 438.244V428.684H2914.78V443H2911.88L2906.11 433.664V443H2903.42ZM2932.76 443H2929.61L2928.36 439.748H2922.64L2921.46 443H2918.39L2923.97 428.684H2927.03L2932.76 443ZM2927.44 437.336L2925.46 432.023L2923.53 437.336H2927.44ZM2936.38 443V428.801H2939.27V440.588H2946.46V443H2936.38ZM2966.38 440.451V443H2956.77C2956.87 442.036 2957.18 441.125 2957.7 440.266C2958.22 439.4 2959.25 438.254 2960.79 436.828C2962.03 435.676 2962.78 434.895 2963.06 434.484C2963.44 433.918 2963.63 433.358 2963.63 432.805C2963.63 432.193 2963.46 431.724 2963.13 431.398C2962.81 431.066 2962.35 430.9 2961.78 430.9C2961.2 430.9 2960.75 431.073 2960.41 431.418C2960.07 431.763 2959.87 432.336 2959.82 433.137L2957.09 432.863C2957.25 431.353 2957.76 430.269 2958.62 429.611C2959.48 428.954 2960.55 428.625 2961.84 428.625C2963.26 428.625 2964.37 429.006 2965.17 429.768C2965.98 430.529 2966.38 431.477 2966.38 432.609C2966.38 433.254 2966.27 433.869 2966.03 434.455C2965.81 435.035 2965.44 435.643 2964.94 436.281C2964.61 436.704 2964.01 437.313 2963.14 438.107C2962.28 438.902 2961.73 439.429 2961.49 439.689C2961.26 439.95 2961.08 440.204 2960.94 440.451H2966.38Z" fill="#949494"/>
<rect x="3150" y="422" width="120" height="30" fill="#D9D9D9"/>
<path d="M3193.8 443V428.684H3196.69V443H3193.8ZM3193.91 427.863V425.266H3196.6V427.863H3193.91ZM3200.72 438.342L3203.54 438.068C3203.7 439.012 3204.05 439.706 3204.56 440.148C3205.08 440.591 3205.78 440.812 3206.66 440.812C3207.59 440.812 3208.29 440.617 3208.76 440.227C3209.24 439.829 3209.47 439.367 3209.47 438.84C3209.47 438.501 3209.37 438.215 3209.17 437.98C3208.97 437.74 3208.63 437.531 3208.13 437.355C3207.8 437.238 3207.02 437.03 3205.82 436.73C3204.27 436.346 3203.18 435.874 3202.56 435.314C3201.68 434.527 3201.24 433.566 3201.24 432.434C3201.24 431.704 3201.45 431.024 3201.86 430.393C3202.27 429.755 3202.87 429.27 3203.64 428.938C3204.42 428.605 3205.36 428.439 3206.46 428.439C3208.26 428.439 3209.61 428.833 3210.52 429.621C3211.43 430.409 3211.91 431.46 3211.95 432.775L3209.06 432.902C3208.94 432.167 3208.67 431.639 3208.26 431.32C3207.86 430.995 3207.25 430.832 3206.44 430.832C3205.6 430.832 3204.94 431.005 3204.46 431.35C3204.16 431.571 3204 431.867 3204 432.238C3204 432.577 3204.15 432.867 3204.43 433.107C3204.8 433.413 3205.68 433.732 3207.09 434.064C3208.5 434.396 3209.53 434.742 3210.21 435.1C3210.88 435.451 3211.41 435.936 3211.79 436.555C3212.17 437.167 3212.36 437.925 3212.36 438.83C3212.36 439.65 3212.14 440.419 3211.68 441.135C3211.22 441.851 3210.58 442.385 3209.75 442.736C3208.91 443.081 3207.87 443.254 3206.63 443.254C3204.82 443.254 3203.43 442.837 3202.46 442.004C3201.49 441.164 3200.91 439.943 3200.72 438.342ZM3220.02 443V431.105H3215.77V428.684H3227.15V431.105H3222.91V443H3220.02Z" fill="#949494"/>
<rect x="3450" y="422" width="120" height="30" fill="#D9D9D9"/>
<path d="M3470.25 443V428.684H3473.14V435.041L3478.98 428.684H3482.87L3477.47 434.26L3483.16 443H3479.42L3475.48 436.281L3473.14 438.674V443H3470.25ZM3499.57 443H3496.43L3495.18 439.748H3489.46L3488.27 443H3485.21L3490.78 428.684H3493.84L3499.57 443ZM3494.25 437.336L3492.28 432.023L3490.34 437.336H3494.25ZM3503.12 443V428.684H3509.21C3510.74 428.684 3511.85 428.814 3512.54 429.074C3513.24 429.328 3513.79 429.784 3514.21 430.441C3514.63 431.099 3514.83 431.851 3514.83 432.697C3514.83 433.771 3514.52 434.66 3513.89 435.363C3513.26 436.06 3512.31 436.499 3511.05 436.682C3511.68 437.046 3512.19 437.447 3512.6 437.883C3513.01 438.319 3513.56 439.094 3514.25 440.207L3516 443H3512.54L3510.45 439.885C3509.71 438.771 3509.2 438.072 3508.93 437.785C3508.65 437.492 3508.36 437.294 3508.06 437.189C3507.75 437.079 3507.27 437.023 3506.6 437.023H3506.02V443H3503.12ZM3506.02 434.738H3508.15C3509.54 434.738 3510.41 434.68 3510.75 434.562C3511.1 434.445 3511.37 434.243 3511.56 433.957C3511.76 433.671 3511.86 433.312 3511.86 432.883C3511.86 432.401 3511.73 432.014 3511.46 431.721C3511.21 431.421 3510.85 431.232 3510.38 431.154C3510.15 431.122 3509.44 431.105 3508.27 431.105H3506.02V434.738ZM3526.23 437.736V435.324H3532.46V441.027C3531.85 441.613 3530.97 442.131 3529.82 442.58C3528.68 443.023 3527.51 443.244 3526.34 443.244C3524.84 443.244 3523.53 442.932 3522.42 442.307C3521.31 441.675 3520.47 440.777 3519.91 439.611C3519.35 438.439 3519.07 437.167 3519.07 435.793C3519.07 434.302 3519.38 432.977 3520.01 431.818C3520.63 430.66 3521.55 429.771 3522.75 429.152C3523.67 428.677 3524.81 428.439 3526.18 428.439C3527.96 428.439 3529.34 428.814 3530.34 429.562C3531.34 430.305 3531.99 431.333 3532.27 432.648L3529.4 433.186C3529.2 432.482 3528.82 431.929 3528.26 431.525C3527.71 431.115 3527.01 430.91 3526.18 430.91C3524.92 430.91 3523.91 431.311 3523.16 432.111C3522.42 432.912 3522.05 434.1 3522.05 435.676C3522.05 437.375 3522.43 438.651 3523.18 439.504C3523.94 440.35 3524.93 440.773 3526.15 440.773C3526.76 440.773 3527.36 440.656 3527.97 440.422C3528.58 440.181 3529.1 439.891 3529.54 439.553V437.736H3526.23ZM3536.55 435.93C3536.55 434.471 3536.77 433.247 3537.2 432.258C3537.53 431.529 3537.97 430.874 3538.53 430.295C3539.1 429.715 3539.72 429.286 3540.39 429.006C3541.28 428.628 3542.31 428.439 3543.47 428.439C3545.58 428.439 3547.27 429.094 3548.53 430.402C3549.8 431.711 3550.44 433.531 3550.44 435.861C3550.44 438.173 3549.81 439.982 3548.55 441.291C3547.29 442.593 3545.61 443.244 3543.51 443.244C3541.38 443.244 3539.69 442.596 3538.43 441.301C3537.18 439.999 3536.55 438.208 3536.55 435.93ZM3539.53 435.832C3539.53 437.453 3539.9 438.684 3540.65 439.523C3541.4 440.357 3542.35 440.773 3543.5 440.773C3544.65 440.773 3545.6 440.36 3546.33 439.533C3547.08 438.7 3547.45 437.453 3547.45 435.793C3547.45 434.152 3547.09 432.928 3546.36 432.121C3545.65 431.314 3544.69 430.91 3543.5 430.91C3542.31 430.91 3541.35 431.32 3540.62 432.141C3539.89 432.954 3539.53 434.185 3539.53 435.832Z" fill="#949494"/>
<rect x="4100" y="422" width="120" height="30" fill="#D9D9D9"/>
<path d="M4111.06 443V431.105H4106.81V428.684H4118.19V431.105H4113.95V443H4111.06ZM4133.49 443H4130.35L4129.1 439.748H4123.37L4122.19 443H4119.12L4124.7 428.684H4127.76L4133.49 443ZM4128.17 437.336L4126.2 432.023L4124.26 437.336H4128.17ZM4136.3 438.342L4139.11 438.068C4139.28 439.012 4139.62 439.706 4140.14 440.148C4140.66 440.591 4141.36 440.812 4142.24 440.812C4143.17 440.812 4143.87 440.617 4144.34 440.227C4144.81 439.829 4145.05 439.367 4145.05 438.84C4145.05 438.501 4144.95 438.215 4144.75 437.98C4144.55 437.74 4144.21 437.531 4143.71 437.355C4143.37 437.238 4142.6 437.03 4141.4 436.73C4139.85 436.346 4138.76 435.874 4138.14 435.314C4137.26 434.527 4136.82 433.566 4136.82 432.434C4136.82 431.704 4137.02 431.024 4137.43 430.393C4137.85 429.755 4138.45 429.27 4139.22 428.938C4140 428.605 4140.94 428.439 4142.04 428.439C4143.84 428.439 4145.19 428.833 4146.1 429.621C4147.01 430.409 4147.49 431.46 4147.53 432.775L4144.64 432.902C4144.52 432.167 4144.25 431.639 4143.84 431.32C4143.44 430.995 4142.83 430.832 4142.01 430.832C4141.17 430.832 4140.52 431.005 4140.04 431.35C4139.74 431.571 4139.58 431.867 4139.58 432.238C4139.58 432.577 4139.73 432.867 4140.01 433.107C4140.38 433.413 4141.26 433.732 4142.67 434.064C4144.07 434.396 4145.11 434.742 4145.78 435.1C4146.46 435.451 4146.99 435.936 4147.37 436.555C4147.75 437.167 4147.94 437.925 4147.94 438.83C4147.94 439.65 4147.71 440.419 4147.26 441.135C4146.8 441.851 4146.16 442.385 4145.32 442.736C4144.49 443.081 4143.45 443.254 4142.21 443.254C4140.4 443.254 4139.01 442.837 4138.04 442.004C4137.07 441.164 4136.49 439.943 4136.3 438.342ZM4139.59 446.936V445.783C4140.26 445.855 4140.88 445.891 4141.44 445.891C4142.02 445.891 4142.45 445.786 4142.73 445.578C4142.94 445.422 4143.05 445.22 4143.05 444.973C4143.05 444.751 4142.95 444.559 4142.75 444.396C4142.54 444.234 4142.23 444.152 4141.81 444.152C4141.39 444.152 4140.97 444.217 4140.53 444.348L4140.78 443.381C4141.29 443.205 4141.84 443.117 4142.42 443.117C4143.24 443.117 4143.86 443.296 4144.28 443.654C4144.7 444.012 4144.91 444.449 4144.91 444.963C4144.91 445.536 4144.68 446.001 4144.21 446.359C4143.58 446.848 4142.67 447.092 4141.5 447.092C4140.66 447.092 4140.02 447.04 4139.59 446.936ZM4151.79 435.93C4151.79 434.471 4152.01 433.247 4152.44 432.258C4152.77 431.529 4153.21 430.874 4153.77 430.295C4154.34 429.715 4154.95 429.286 4155.62 429.006C4156.52 428.628 4157.55 428.439 4158.71 428.439C4160.82 428.439 4162.51 429.094 4163.77 430.402C4165.04 431.711 4165.67 433.531 4165.67 435.861C4165.67 438.173 4165.05 439.982 4163.79 441.291C4162.53 442.593 4160.85 443.244 4158.75 443.244C4156.62 443.244 4154.93 442.596 4153.67 441.301C4152.42 439.999 4151.79 438.208 4151.79 435.93ZM4154.77 435.832C4154.77 437.453 4155.14 438.684 4155.89 439.523C4156.64 440.357 4157.59 440.773 4158.74 440.773C4159.89 440.773 4160.84 440.36 4161.57 439.533C4162.31 438.7 4162.69 437.453 4162.69 435.793C4162.69 434.152 4162.32 432.928 4161.6 432.121C4160.89 431.314 4159.93 430.91 4158.74 430.91C4157.55 430.91 4156.59 431.32 4155.86 432.141C4155.13 432.954 4154.77 434.185 4154.77 435.832ZM4170.02 443V428.801H4172.91V440.588H4180.1V443H4170.02ZM4184.15 428.684H4187.04V436.438C4187.04 437.668 4187.07 438.465 4187.14 438.83C4187.27 439.416 4187.56 439.888 4188.02 440.246C4188.49 440.598 4189.13 440.773 4189.94 440.773C4190.76 440.773 4191.38 440.607 4191.79 440.275C4192.21 439.937 4192.46 439.523 4192.54 439.035C4192.63 438.547 4192.67 437.736 4192.67 436.604V428.684H4195.56V436.203C4195.56 437.922 4195.48 439.136 4195.33 439.846C4195.17 440.555 4194.88 441.154 4194.46 441.643C4194.04 442.131 4193.48 442.521 4192.78 442.814C4192.08 443.101 4191.16 443.244 4190.03 443.244C4188.66 443.244 4187.62 443.088 4186.91 442.775C4186.21 442.456 4185.65 442.046 4185.24 441.545C4184.83 441.037 4184.56 440.507 4184.43 439.953C4184.24 439.133 4184.15 437.922 4184.15 436.32V428.684ZM4200.66 443V428.684H4203.55V435.041L4209.39 428.684H4213.28L4207.88 434.26L4213.57 443H4209.83L4205.89 436.281L4203.55 438.674V443H4200.66Z" fill="#949494"/>
<rect x="4500" y="422" width="120" height="30" fill="#D9D9D9"/>
<path d="M4520.01 443H4516.86L4515.61 439.748H4509.89L4508.71 443H4505.64L4511.22 428.684H4514.27L4520.01 443ZM4514.68 437.336L4512.71 432.023L4510.78 437.336H4514.68ZM4523.56 443V428.684H4529.64C4531.17 428.684 4532.28 428.814 4532.97 429.074C4533.67 429.328 4534.23 429.784 4534.64 430.441C4535.06 431.099 4535.27 431.851 4535.27 432.697C4535.27 433.771 4534.95 434.66 4534.32 435.363C4533.69 436.06 4532.74 436.499 4531.49 436.682C4532.11 437.046 4532.63 437.447 4533.03 437.883C4533.44 438.319 4533.99 439.094 4534.68 440.207L4536.43 443H4532.97L4530.88 439.885C4530.14 438.771 4529.63 438.072 4529.36 437.785C4529.09 437.492 4528.8 437.294 4528.49 437.189C4528.18 437.079 4527.7 437.023 4527.04 437.023H4526.45V443H4523.56ZM4526.45 434.738H4528.59C4529.97 434.738 4530.84 434.68 4531.19 434.562C4531.53 434.445 4531.8 434.243 4532 433.957C4532.19 433.671 4532.29 433.312 4532.29 432.883C4532.29 432.401 4532.16 432.014 4531.9 431.721C4531.64 431.421 4531.28 431.232 4530.81 431.154C4530.58 431.122 4529.88 431.105 4528.71 431.105H4526.45V434.738ZM4540.03 443V428.684H4542.84L4548.7 438.244V428.684H4551.39V443H4548.49L4542.72 433.664V443H4540.03ZM4560.11 443L4554.99 428.684H4558.12L4561.75 439.279L4565.25 428.684H4568.32L4563.19 443H4560.11ZM4575.02 443V431.105H4570.77V428.684H4582.15V431.105H4577.91V443H4575.02ZM4586.06 443V428.684H4588.95V435.041L4594.79 428.684H4598.68L4593.29 434.26L4598.97 443H4595.23L4591.29 436.281L4588.95 438.674V443H4586.06ZM4606.23 443V436.975L4600.99 428.684H4604.38L4607.75 434.348L4611.05 428.684H4614.38L4609.12 436.994V443H4606.23Z" fill="#949494"/>
<path d="M900 402.071L907.071 395L984.146 472.075L977.075 479.146L900 402.071Z" fill="#949494"/>
<path d="M977.075 395L984.146 402.071L907.071 479.146L900 472.075L977.075 395Z" fill="#949494"/>
<path d="M1250 402.071L1257.07 395L1334.15 472.075L1327.07 479.146L1250 402.071Z" fill="#949494"/>
<path d="M1327.07 395L1334.15 402.071L1257.07 479.146L1250 472.075L1327.07 395Z" fill="#949494"/>
<path d="M2050 402.071L2057.07 395L2134.15 472.075L2127.07 479.146L2050 402.071Z" fill="#949494"/>
<path d="M2127.07 395L2134.15 402.071L2057.07 479.146L2050 472.075L2127.07 395Z" fill="#949494"/>
<path d="M2350 402.071L2357.07 395L2434.15 472.075L2427.07 479.146L2350 402.071Z" fill="#949494"/>
<path d="M2427.07 395L2434.15 402.071L2357.07 479.146L2350 472.075L2427.07 395Z" fill="#949494"/>
<path d="M2750 402.071L2757.07 395L2834.15 472.075L2827.07 479.146L2750 402.071Z" fill="#949494"/>
<path d="M2827.07 395L2834.15 402.071L2757.07 479.146L2750 472.075L2827.07 395Z" fill="#949494"/>
<path d="M3050 402.071L3057.07 395L3134.15 472.075L3127.07 479.146L3050 402.071Z" fill="#949494"/>
<path d="M3127.07 395L3134.15 402.071L3057.07 479.146L3050 472.075L3127.07 395Z" fill="#949494"/>
<path d="M3350 402.071L3357.07 395L3434.15 472.075L3427.07 479.146L3350 402.071Z" fill="#949494"/>
<path d="M3427.07 395L3434.15 402.071L3357.07 479.146L3350 472.075L3427.07 395Z" fill="#949494"/>
<path d="M3921 402.071L3928.07 395L4005.15 472.075L3998.07 479.146L3921 402.071Z" fill="#949494"/>
<path d="M3777.07 395L3784.15 402.071L3707.07 479.146L3700 472.075L3777.07 395Z" fill="#949494"/>
<path d="M4330 402.071L4337.07 395L4414.15 472.075L4407.07 479.146L4330 402.071Z" fill="#949494"/>
<path d="M4407.07 395L4414.15 402.071L4337.07 479.146L4330 472.075L4407.07 395Z" fill="#949494"/>
<path d="M284.075 315L291.146 322.071L214.071 399.146L207 392.075L284.075 315Z" fill="#949494"/>
<line x1="116" y1="557" x2="196" y2="557" stroke="#949494" stroke-width="10"/>
<line x1="116" y1="317" x2="466" y2="317" stroke="#949494" stroke-width="10"/>
<path d="M458.93 319.07L466.001 311.999L548.77 394.768L541.699 401.839L458.93 319.07Z" fill="#949494"/>
<line x1="85" y1="526" x2="85" y2="348" stroke="#949494" stroke-width="10"/>
<path d="M115.996 312L123.067 319.071L87.0754 355.063L80.0044 347.992L115.996 312Z" fill="#949494"/>
<path d="M80.0044 526.071L87.0755 519L123.067 554.992L115.996 562.063L80.0044 526.071Z" fill="#949494"/>
<line x1="116" y1="397" x2="506" y2="397" stroke="#949494" stroke-width="10"/>
<line x1="502.05" y1="437" x2="600.2" y2="437" stroke="#949494" stroke-width="10"/>
<rect x="600.195" y="432" width="56.5685" height="10" transform="rotate(45 600.195 432)" fill="#949494"/>
<rect x="469.071" y="394.877" width="56.6467" height="10" transform="rotate(45 469.071 394.877)" fill="#949494"/>
<line x1="1695" y1="437" x2="1795" y2="437" stroke="#949494" stroke-width="10"/>
<rect x="1790" y="432" width="52.5" height="10" transform="rotate(-45 1790 432)" fill="#949494"/>
<rect x="1656" y="472" width="52.5" height="10" transform="rotate(-45 1656 472)" fill="#949494"/>
<rect x="1797.07" y="434.877" width="52.5" height="10" transform="rotate(45 1797.07 434.877)" fill="#949494"/>
<rect x="1663.07" y="394.877" width="52.5" height="10" transform="rotate(45 1663.07 394.877)" fill="#949494"/>
<line x1="3331.95" y1="223" x2="3818.95" y2="223" stroke="#949494" stroke-width="10"/>
<path d="M3828.96 207.079L3836.03 200.008L3875.01 238.985L3867.94 246.056L3828.96 207.079Z" fill="#949494"/>
<path d="M3811.98 225.1L3819.05 218.029L3840.01 238.985L3832.94 246.056L3811.98 225.1Z" fill="#949494"/>
<line x1="3375.95" y1="205" x2="3835.95" y2="205" stroke="#949494" stroke-width="10"/>
<line x1="3367.95" y1="187" x2="3697.95" y2="187" stroke="#949494" stroke-width="10"/>
<line x1="3347.95" y1="169" x2="3704.95" y2="169" stroke="#949494" stroke-width="10"/>
<line x1="3211.95" y1="151" x2="3713.95" y2="151" stroke="#949494" stroke-width="10"/>
<line x1="3197.95" y1="133" x2="3679.95" y2="133" stroke="#949494" stroke-width="10"/>
<line x1="3179.95" y1="115" x2="3703.95" y2="115" stroke="#949494" stroke-width="10"/>
<line x1="3185.95" y1="97" x2="3669.95" y2="97" stroke="#949494" stroke-width="10"/>
<line x1="3171.95" y1="79" x2="3593.95" y2="79" stroke="#949494" stroke-width="10"/>
<line x1="3153.95" y1="61" x2="3593.95" y2="61" stroke="#949494" stroke-width="10"/>
<line x1="3042.95" y1="35" x2="3127.95" y2="35" stroke="#949494" stroke-width="10"/>
<line x1="3020.95" y1="85" x2="3149.95" y2="85" stroke="#949494" stroke-width="10"/>
<line x1="3367.95" y1="241" x2="3685.95" y2="241" stroke="#949494" stroke-width="10"/>
<line x1="3352.95" y1="259" x2="3692.95" y2="259" stroke="#949494" stroke-width="10"/>
<line x1="3357.95" y1="277" x2="3701.95" y2="277" stroke="#949494" stroke-width="10"/>
<line x1="3297.95" y1="295" x2="3717.95" y2="295" stroke="#949494" stroke-width="10"/>
<line x1="3317.95" y1="313" x2="3651.95" y2="313" stroke="#949494" stroke-width="10"/>
<line x1="3325.95" y1="331" x2="3659.95" y2="331" stroke="#949494" stroke-width="10"/>
<line x1="3333.95" y1="349" x2="3667.95" y2="349" stroke="#949494" stroke-width="10"/>
<line x1="3049.95" y1="367" x2="3637.95" y2="367" stroke="#949494" stroke-width="10"/>
<line x1="3057.95" y1="347" x2="3211.95" y2="347" stroke="#949494" stroke-width="10"/>
<line x1="3065.95" y1="327" x2="3193.95" y2="327" stroke="#949494" stroke-width="10"/>
<path d="M3697.32 220.71L3704.39 227.781L3686.16 246.011L3679.09 238.94L3697.32 220.71Z" fill="#949494"/>
<path d="M3723.17 220.85L3730.24 227.921L3694.14 264.023L3687.07 256.952L3723.17 220.85Z" fill="#949494"/>
<path d="M3749.17 220.85L3756.24 227.921L3702.07 282.093L3695 275.022L3749.17 220.85Z" fill="#949494"/>
<path d="M3787.17 220.85L3794.24 227.921L3668.19 353.98L3661.11 346.909L3787.17 220.85Z" fill="#949494"/>
<path d="M3689.03 293L3696.1 300.071L3660.06 336.107L3652.99 329.036L3689.03 293Z" fill="#949494"/>
<path d="M3663.03 293L3670.1 300.071L3652.11 318.063L3645.04 310.992L3663.03 293Z" fill="#949494"/>
<path d="M3297.97 290.06L3305.04 297.131L3233.03 369.143L3225.96 362.072L3297.97 290.06Z" fill="#949494"/>
<path d="M3367.94 182.093L3375.01 189.164L3212.16 352.01L3205.09 344.939L3367.94 182.093Z" fill="#949494"/>
<path d="M3347.98 163.959L3355.05 171.031L3194.17 331.917L3187.09 324.846L3347.98 163.959Z" fill="#949494"/>
<path d="M3318.03 308L3325.1 315.071L3271.03 369.136L3263.96 362.064L3318.03 308Z" fill="#949494"/>
<path d="M3326.03 326L3333.1 333.071L3297.03 369.137L3289.96 362.066L3326.03 326Z" fill="#949494"/>
<path d="M3367.94 236.042L3375.01 243.113L3321.02 297.102L3313.95 290.031L3367.94 236.042Z" fill="#949494"/>
<path d="M3105.02 32.9326L3112.09 40.0037L3065 87.0937L3057.93 80.0226L3105.02 32.9326Z" fill="#949494"/>
<path d="M3042.98 30L3050.06 37.0711L2972.08 115.05L2965.01 107.979L3042.98 30Z" fill="#949494"/>
<path d="M3021 79.9805L3028.07 87.0515L2992.08 123.05L2985.01 115.979L3021 79.9805Z" fill="#949494"/>
<path d="M3334.03 344L3341.1 351.071L3323.03 369.14L3315.96 362.069L3334.03 344Z" fill="#949494"/>
<path d="M3358.03 272.288L3365.1 279.359L3347.03 297.428L3339.96 290.357L3358.03 272.288Z" fill="#949494"/>
<path d="M3375.95 200L3383.02 207.071L3364.96 225.14L3357.88 218.069L3375.95 200Z" fill="#949494"/>
<path d="M3649.03 347L3656.1 354.071L3638.17 372.003L3631.1 364.932L3649.03 347Z" fill="#949494"/>
<path d="M3697.02 117.068L3704.09 109.997L3794.1 200.004L3787.03 207.075L3697.02 117.068Z" fill="#949494"/>
<path d="M3707.01 153.057L3714.08 145.986L3768.1 200.004L3761.03 207.075L3707.01 153.057Z" fill="#949494"/>
<path d="M3698.97 171.013L3706.04 163.942L3742.1 200.004L3735.03 207.075L3698.97 171.013Z" fill="#949494"/>
<path d="M3142.87 86.917L3149.94 79.8459L3219.03 148.932L3211.96 156.003L3142.87 86.917Z" fill="#949494"/>
<path d="M2965 287.047L2972.07 279.976L3057.03 364.932L3049.96 372.003L2965 287.047Z" fill="#949494"/>
<path d="M2984.94 278.99L2992.01 271.919L3065.06 344.961L3057.99 352.032L2984.94 278.99Z" fill="#949494"/>
<path d="M3004.98 271.024L3012.05 263.953L3073 324.909L3065.93 331.98L3004.98 271.024Z" fill="#949494"/>
<path d="M3120.95 37.0713L3128.02 30.0002L3193.33 95.3047L3186.26 102.376L3120.95 37.0713Z" fill="#949494"/>
<path d="M3056.95 37.0713L3064.02 30.0002L3114.18 80.1572L3107.11 87.2283L3056.95 37.0713Z" fill="#949494"/>
<path d="M3663.04 99.0908L3670.12 92.0198L3688.1 110.004L3681.03 117.075L3663.04 99.0908Z" fill="#949494"/>
<path d="M3673.04 135.091L3680.12 128.02L3698.1 146.004L3691.03 153.075L3673.04 135.091Z" fill="#949494"/>
<path d="M3691.04 189.091L3698.12 182.02L3716.1 200.004L3709.03 207.075L3691.04 189.091Z" fill="#949494"/>
<line x1="2969.95" y1="287" x2="2969.95" y2="108" stroke="#949494" stroke-width="10"/>
<line x1="2989.95" y1="279" x2="2989.95" y2="116" stroke="#949494" stroke-width="10"/>
<line x1="3009.95" y1="271" x2="3009.95" y2="100" stroke="#949494" stroke-width="10"/>
<path d="M3865 364L3872.07 356.929L3907.43 392.285L3900.36 399.356L3865 364Z" fill="#949494"/>
<path d="M3833 357L3840.07 364.072L3804.72 399.427L3797.64 392.356L3833 357Z" fill="#949494"/>
<line x1="3835" y1="364" x2="3835" y2="239" stroke="#949494" stroke-width="10"/>
<line x1="3870" y1="364" x2="3870" y2="239" stroke="#949494" stroke-width="10"/>
<line x1="541" y1="477" x2="4620" y2="477" stroke="#949494" stroke-width="10"/>
<line x1="541" y1="397" x2="4620" y2="397" stroke="#949494" stroke-width="10"/>
</svg>
