<svg width="943" height="200" viewBox="0 0 943 200" fill="none" xmlns="http://www.w3.org/2000/svg">
<path d="M100 100H837" stroke="#F29EBF" stroke-width="20"/>
<circle cx="473" cy="100" r="21" fill="#F29EBF"/>
<circle cx="473" cy="100" r="13" fill="white"/>
<circle cx="288" cy="100" r="21" fill="#F29EBF"/>
<circle cx="288" cy="100" r="13" fill="white"/>
<circle cx="843" cy="100" r="21" fill="#F29EBF"/>
<circle cx="843" cy="100" r="13" fill="white"/>
<circle cx="658" cy="100" r="21" fill="#F29EBF"/>
<circle cx="658" cy="100" r="13" fill="white"/>
<circle cx="473" cy="100" r="24" fill="black"/>
<ellipse cx="473.001" cy="99.9939" rx="19.2" ry="19.2" fill="white"/>
<circle cx="843" cy="100" r="24" fill="#F29EBF"/>
<path d="M38.5652 58L38.5412 47.92L33.5972 56.224H31.8452L26.9252 48.136V58H23.2772V41.2H26.4932L32.7812 51.64L38.9732 41.2H42.1652L42.2132 58H38.5652ZM58.583 51.592C58.583 51.64 58.559 51.976 58.511 52.6H48.743C48.919 53.4 49.335 54.032 49.991 54.496C50.647 54.96 51.463 55.192 52.439 55.192C53.111 55.192 53.703 55.096 54.215 54.904C54.743 54.696 55.231 54.376 55.679 53.944L57.671 56.104C56.455 57.496 54.679 58.192 52.343 58.192C50.887 58.192 49.599 57.912 48.479 57.352C47.359 56.776 46.495 55.984 45.887 54.976C45.279 53.968 44.975 52.824 44.975 51.544C44.975 50.28 45.271 49.144 45.863 48.136C46.471 47.112 47.295 46.32 48.335 45.76C49.391 45.184 50.567 44.896 51.863 44.896C53.127 44.896 54.271 45.168 55.295 45.712C56.319 46.256 57.119 47.04 57.695 48.064C58.287 49.072 58.583 50.248 58.583 51.592ZM51.887 47.728C51.039 47.728 50.327 47.968 49.751 48.448C49.175 48.928 48.823 49.584 48.695 50.416H55.055C54.927 49.6 54.575 48.952 53.999 48.472C53.423 47.976 52.719 47.728 51.887 47.728ZM67.3157 58.192C65.9397 58.192 64.6997 57.912 63.5957 57.352C62.5077 56.776 61.6517 55.984 61.0277 54.976C60.4197 53.968 60.1157 52.824 60.1157 51.544C60.1157 50.264 60.4197 49.12 61.0277 48.112C61.6517 47.104 62.5077 46.32 63.5957 45.76C64.6997 45.184 65.9397 44.896 67.3157 44.896C68.6757 44.896 69.8597 45.184 70.8677 45.76C71.8917 46.32 72.6357 47.128 73.0997 48.184L70.1957 49.744C69.5237 48.56 68.5557 47.968 67.2917 47.968C66.3157 47.968 65.5077 48.288 64.8677 48.928C64.2277 49.568 63.9077 50.44 63.9077 51.544C63.9077 52.648 64.2277 53.52 64.8677 54.16C65.5077 54.8 66.3157 55.12 67.2917 55.12C68.5717 55.12 69.5397 54.528 70.1957 53.344L73.0997 54.928C72.6357 55.952 71.8917 56.752 70.8677 57.328C69.8597 57.904 68.6757 58.192 67.3157 58.192ZM75.2553 45.088H78.9993V58H75.2553V45.088ZM77.1273 43.288C76.4393 43.288 75.8793 43.088 75.4473 42.688C75.0153 42.288 74.7993 41.792 74.7993 41.2C74.7993 40.608 75.0153 40.112 75.4473 39.712C75.8793 39.312 76.4393 39.112 77.1273 39.112C77.8153 39.112 78.3753 39.304 78.8073 39.688C79.2393 40.072 79.4553 40.552 79.4553 41.128C79.4553 41.752 79.2393 42.272 78.8073 42.688C78.3753 43.088 77.8153 43.288 77.1273 43.288ZM95.6261 40.192V58H92.0501V56.512C91.1221 57.632 89.7781 58.192 88.0181 58.192C86.8021 58.192 85.6981 57.92 84.7061 57.376C83.7301 56.832 82.9621 56.056 82.4021 55.048C81.8421 54.04 81.5621 52.872 81.5621 51.544C81.5621 50.216 81.8421 49.048 82.4021 48.04C82.9621 47.032 83.7301 46.256 84.7061 45.712C85.6981 45.168 86.8021 44.896 88.0181 44.896C89.6661 44.896 90.9541 45.416 91.8821 46.456V40.192H95.6261ZM88.6661 55.12C89.6101 55.12 90.3941 54.8 91.0181 54.16C91.6421 53.504 91.9541 52.632 91.9541 51.544C91.9541 50.456 91.6421 49.592 91.0181 48.952C90.3941 48.296 89.6101 47.968 88.6661 47.968C87.7061 47.968 86.9141 48.296 86.2901 48.952C85.6661 49.592 85.3541 50.456 85.3541 51.544C85.3541 52.632 85.6661 53.504 86.2901 54.16C86.9141 54.8 87.7061 55.12 88.6661 55.12ZM99.0913 45.088H102.835V58H99.0913V45.088ZM100.963 43.288C100.275 43.288 99.7153 43.088 99.2833 42.688C98.8513 42.288 98.6353 41.792 98.6353 41.2C98.6353 40.608 98.8513 40.112 99.2833 39.712C99.7153 39.312 100.275 39.112 100.963 39.112C101.651 39.112 102.211 39.304 102.643 39.688C103.075 40.072 103.291 40.552 103.291 41.128C103.291 41.752 103.075 42.272 102.643 42.688C102.211 43.088 101.651 43.288 100.963 43.288ZM119.126 45.088L113.294 58.792C112.702 60.28 111.966 61.328 111.086 61.936C110.222 62.544 109.174 62.848 107.942 62.848C107.27 62.848 106.606 62.744 105.95 62.536C105.294 62.328 104.758 62.04 104.342 61.672L105.71 59.008C105.998 59.264 106.326 59.464 106.694 59.608C107.078 59.752 107.454 59.824 107.822 59.824C108.334 59.824 108.75 59.696 109.07 59.44C109.39 59.2 109.678 58.792 109.934 58.216L109.982 58.096L104.39 45.088H108.254L111.878 53.848L115.526 45.088H119.126ZM132.95 51.592C132.95 51.64 132.926 51.976 132.878 52.6H123.11C123.286 53.4 123.702 54.032 124.358 54.496C125.014 54.96 125.83 55.192 126.806 55.192C127.478 55.192 128.07 55.096 128.582 54.904C129.11 54.696 129.598 54.376 130.046 53.944L132.038 56.104C130.822 57.496 129.046 58.192 126.71 58.192C125.254 58.192 123.966 57.912 122.846 57.352C121.726 56.776 120.862 55.984 120.254 54.976C119.646 53.968 119.342 52.824 119.342 51.544C119.342 50.28 119.638 49.144 120.23 48.136C120.838 47.112 121.662 46.32 122.702 45.76C123.758 45.184 124.934 44.896 126.23 44.896C127.494 44.896 128.638 45.168 129.662 45.712C130.686 46.256 131.486 47.04 132.062 48.064C132.654 49.072 132.95 50.248 132.95 51.592ZM126.254 47.728C125.406 47.728 124.694 47.968 124.118 48.448C123.542 48.928 123.19 49.584 123.062 50.416H129.422C129.294 49.6 128.942 48.952 128.366 48.472C127.79 47.976 127.086 47.728 126.254 47.728ZM140.987 52.936L139.187 54.712V58H135.443V40.192H139.187V50.272L144.659 45.088H149.123L143.747 50.56L149.603 58H145.067L140.987 52.936ZM156.868 58.192C155.508 58.192 154.284 57.912 153.196 57.352C152.124 56.776 151.284 55.984 150.676 54.976C150.068 53.968 149.764 52.824 149.764 51.544C149.764 50.264 150.068 49.12 150.676 48.112C151.284 47.104 152.124 46.32 153.196 45.76C154.284 45.184 155.508 44.896 156.868 44.896C158.228 44.896 159.444 45.184 160.516 45.76C161.588 46.32 162.428 47.104 163.036 48.112C163.644 49.12 163.948 50.264 163.948 51.544C163.948 52.824 163.644 53.968 163.036 54.976C162.428 55.984 161.588 56.776 160.516 57.352C159.444 57.912 158.228 58.192 156.868 58.192ZM156.868 55.12C157.828 55.12 158.612 54.8 159.22 54.16C159.844 53.504 160.156 52.632 160.156 51.544C160.156 50.456 159.844 49.592 159.22 48.952C158.612 48.296 157.828 47.968 156.868 47.968C155.908 47.968 155.116 48.296 154.492 48.952C153.868 49.592 153.556 50.456 153.556 51.544C153.556 52.632 153.868 53.504 154.492 54.16C155.116 54.8 155.908 55.12 156.868 55.12ZM154.396 43.312C153.916 43.312 153.516 43.16 153.196 42.856C152.876 42.536 152.716 42.136 152.716 41.656C152.716 41.176 152.876 40.784 153.196 40.48C153.516 40.16 153.916 40 154.396 40C154.876 40 155.268 40.16 155.572 40.48C155.892 40.784 156.052 41.176 156.052 41.656C156.052 42.136 155.892 42.536 155.572 42.856C155.268 43.16 154.876 43.312 154.396 43.312ZM159.244 43.312C158.764 43.312 158.364 43.16 158.044 42.856C157.74 42.536 157.588 42.136 157.588 41.656C157.588 41.176 157.74 40.784 158.044 40.48C158.364 40.16 158.764 40 159.244 40C159.724 40 160.124 40.16 160.444 40.48C160.764 40.784 160.924 41.176 160.924 41.656C160.924 42.136 160.764 42.536 160.444 42.856C160.124 43.16 159.724 43.312 159.244 43.312ZM178.915 45.088L173.083 58.792C172.491 60.28 171.755 61.328 170.875 61.936C170.011 62.544 168.963 62.848 167.731 62.848C167.059 62.848 166.395 62.744 165.739 62.536C165.083 62.328 164.547 62.04 164.131 61.672L165.499 59.008C165.787 59.264 166.115 59.464 166.483 59.608C166.867 59.752 167.243 59.824 167.611 59.824C168.123 59.824 168.539 59.696 168.859 59.44C169.179 59.2 169.467 58.792 169.723 58.216L169.771 58.096L164.179 45.088H168.043L171.667 53.848L175.315 45.088H178.915Z" fill="black"/>
<path d="M260.165 44.32V48.76H267.941V51.88H260.165V58H256.277V41.2H268.973V44.32H260.165ZM284.021 45.088V58H280.469V56.464C279.973 57.024 279.381 57.456 278.693 57.76C278.005 58.048 277.261 58.192 276.461 58.192C274.765 58.192 273.421 57.704 272.429 56.728C271.437 55.752 270.941 54.304 270.941 52.384V45.088H274.685V51.832C274.685 53.912 275.557 54.952 277.301 54.952C278.197 54.952 278.917 54.664 279.461 54.088C280.005 53.496 280.277 52.624 280.277 51.472V45.088H284.021ZM287.49 40.192H291.234V58H287.49V40.192ZM307.524 45.088L301.692 58.792C301.1 60.28 300.364 61.328 299.484 61.936C298.62 62.544 297.572 62.848 296.34 62.848C295.668 62.848 295.004 62.744 294.348 62.536C293.692 62.328 293.156 62.04 292.74 61.672L294.108 59.008C294.396 59.264 294.724 59.464 295.092 59.608C295.476 59.752 295.852 59.824 296.22 59.824C296.732 59.824 297.148 59.696 297.468 59.44C297.788 59.2 298.076 58.792 298.332 58.216L298.38 58.096L292.788 45.088H296.652L300.276 53.848L303.924 45.088H307.524ZM313.838 44.896C315.838 44.896 317.374 45.376 318.446 46.336C319.518 47.28 320.054 48.712 320.054 50.632V58H316.55V56.392C315.846 57.592 314.534 58.192 312.614 58.192C311.622 58.192 310.758 58.024 310.022 57.688C309.302 57.352 308.75 56.888 308.366 56.296C307.982 55.704 307.79 55.032 307.79 54.28C307.79 53.08 308.238 52.136 309.134 51.448C310.046 50.76 311.446 50.416 313.334 50.416H316.31C316.31 49.6 316.062 48.976 315.566 48.544C315.07 48.096 314.326 47.872 313.334 47.872C312.646 47.872 311.966 47.984 311.294 48.208C310.638 48.416 310.078 48.704 309.614 49.072L308.27 46.456C308.974 45.96 309.814 45.576 310.79 45.304C311.782 45.032 312.798 44.896 313.838 44.896ZM313.55 55.672C314.19 55.672 314.758 55.528 315.254 55.24C315.75 54.936 316.102 54.496 316.31 53.92V52.6H313.742C312.206 52.6 311.438 53.104 311.438 54.112C311.438 54.592 311.622 54.976 311.99 55.264C312.374 55.536 312.894 55.672 313.55 55.672Z" fill="black"/>
<path d="M450.24 52.048V58H446.352V52L439.848 41.2H443.976L448.464 48.664L452.952 41.2H456.768L450.24 52.048ZM457.24 45.088H460.984V58H457.24V45.088ZM464.458 40.192H468.202V58H464.458V40.192ZM484.829 40.192V58H481.253V56.512C480.325 57.632 478.981 58.192 477.221 58.192C476.005 58.192 474.901 57.92 473.909 57.376C472.933 56.832 472.165 56.056 471.605 55.048C471.045 54.04 470.765 52.872 470.765 51.544C470.765 50.216 471.045 49.048 471.605 48.04C472.165 47.032 472.933 46.256 473.909 45.712C474.901 45.168 476.005 44.896 477.221 44.896C478.869 44.896 480.157 45.416 481.085 46.456V40.192H484.829ZM477.869 55.12C478.813 55.12 479.597 54.8 480.221 54.16C480.845 53.504 481.157 52.632 481.157 51.544C481.157 50.456 480.845 49.592 480.221 48.952C479.597 48.296 478.813 47.968 477.869 47.968C476.909 47.968 476.117 48.296 475.493 48.952C474.869 49.592 474.557 50.456 474.557 51.544C474.557 52.632 474.869 53.504 475.493 54.16C476.117 54.8 476.909 55.12 477.869 55.12ZM488.294 45.088H492.038V58H488.294V45.088ZM506.145 55.12V58H494.625V55.744L501.201 47.968H494.793V45.088H505.929V47.344L499.353 55.12H506.145Z" fill="black"/>
<path d="M618.68 49.264C619.64 49.568 620.392 50.08 620.936 50.8C621.48 51.504 621.752 52.376 621.752 53.416C621.752 54.888 621.176 56.024 620.024 56.824C618.888 57.608 617.224 58 615.032 58H606.344V41.2H614.552C616.6 41.2 618.168 41.592 619.256 42.376C620.36 43.16 620.912 44.224 620.912 45.568C620.912 46.384 620.712 47.112 620.312 47.752C619.928 48.392 619.384 48.896 618.68 49.264ZM610.208 44.128V48.088H614.072C615.032 48.088 615.76 47.92 616.256 47.584C616.752 47.248 617 46.752 617 46.096C617 45.44 616.752 44.952 616.256 44.632C615.76 44.296 615.032 44.128 614.072 44.128H610.208ZM614.744 55.072C615.768 55.072 616.536 54.904 617.048 54.568C617.576 54.232 617.84 53.712 617.84 53.008C617.84 51.616 616.808 50.92 614.744 50.92H610.208V55.072H614.744ZM637.079 51.592C637.079 51.64 637.055 51.976 637.007 52.6H627.239C627.415 53.4 627.831 54.032 628.487 54.496C629.143 54.96 629.959 55.192 630.935 55.192C631.607 55.192 632.199 55.096 632.711 54.904C633.239 54.696 633.727 54.376 634.175 53.944L636.167 56.104C634.951 57.496 633.175 58.192 630.839 58.192C629.383 58.192 628.095 57.912 626.975 57.352C625.855 56.776 624.991 55.984 624.383 54.976C623.775 53.968 623.471 52.824 623.471 51.544C623.471 50.28 623.767 49.144 624.359 48.136C624.967 47.112 625.791 46.32 626.831 45.76C627.887 45.184 629.063 44.896 630.359 44.896C631.623 44.896 632.767 45.168 633.791 45.712C634.815 46.256 635.615 47.04 636.191 48.064C636.783 49.072 637.079 50.248 637.079 51.592ZM630.383 47.728C629.535 47.728 628.823 47.968 628.247 48.448C627.671 48.928 627.319 49.584 627.191 50.416H633.551C633.423 49.6 633.071 48.952 632.495 48.472C631.919 47.976 631.215 47.728 630.383 47.728ZM643.916 58.192C642.844 58.192 641.796 58.064 640.772 57.808C639.748 57.536 638.932 57.2 638.324 56.8L639.572 54.112C640.148 54.48 640.844 54.784 641.66 55.024C642.476 55.248 643.276 55.36 644.06 55.36C645.644 55.36 646.436 54.968 646.436 54.184C646.436 53.816 646.22 53.552 645.788 53.392C645.356 53.232 644.692 53.096 643.796 52.984C642.74 52.824 641.868 52.64 641.18 52.432C640.492 52.224 639.892 51.856 639.38 51.328C638.884 50.8 638.636 50.048 638.636 49.072C638.636 48.256 638.868 47.536 639.332 46.912C639.812 46.272 640.5 45.776 641.396 45.424C642.308 45.072 643.38 44.896 644.612 44.896C645.524 44.896 646.428 45 647.324 45.208C648.236 45.4 648.988 45.672 649.58 46.024L648.332 48.688C647.196 48.048 645.956 47.728 644.612 47.728C643.812 47.728 643.212 47.84 642.812 48.064C642.412 48.288 642.212 48.576 642.212 48.928C642.212 49.328 642.428 49.608 642.86 49.768C643.292 49.928 643.98 50.08 644.924 50.224C645.98 50.4 646.844 50.592 647.516 50.8C648.188 50.992 648.772 51.352 649.268 51.88C649.764 52.408 650.012 53.144 650.012 54.088C650.012 54.888 649.772 55.6 649.292 56.224C648.812 56.848 648.108 57.336 647.18 57.688C646.268 58.024 645.18 58.192 643.916 58.192ZM643.316 63.568C642.9 63.568 642.492 63.52 642.092 63.424C641.692 63.344 641.356 63.224 641.084 63.064L641.66 61.456C642.172 61.696 642.692 61.816 643.22 61.816C644.052 61.816 644.468 61.56 644.468 61.048C644.468 60.584 644.076 60.352 643.292 60.352H642.476L643.1 57.808H645.092L644.756 59.2C645.46 59.28 645.98 59.496 646.316 59.848C646.668 60.216 646.844 60.664 646.844 61.192C646.844 61.928 646.524 62.504 645.884 62.92C645.244 63.352 644.388 63.568 643.316 63.568ZM652.322 45.088H656.066V58H652.322V45.088ZM654.194 43.288C653.506 43.288 652.946 43.088 652.514 42.688C652.082 42.288 651.866 41.792 651.866 41.2C651.866 40.608 652.082 40.112 652.514 39.712C652.946 39.312 653.506 39.112 654.194 39.112C654.882 39.112 655.442 39.304 655.874 39.688C656.306 40.072 656.522 40.552 656.522 41.128C656.522 41.752 656.306 42.272 655.874 42.688C655.442 43.088 654.882 43.288 654.194 43.288ZM665.085 52.936L663.285 54.712V58H659.541V40.192H663.285V50.272L668.757 45.088H673.221L667.845 50.56L673.701 58H669.165L665.085 52.936ZM683.712 57.376C683.344 57.648 682.888 57.856 682.344 58C681.816 58.128 681.256 58.192 680.664 58.192C679.128 58.192 677.936 57.8 677.088 57.016C676.256 56.232 675.84 55.08 675.84 53.56V48.256H673.848V45.376H675.84V42.232H679.584V45.376H682.8V48.256H679.584V53.512C679.584 54.056 679.72 54.48 679.992 54.784C680.28 55.072 680.68 55.216 681.192 55.216C681.784 55.216 682.288 55.056 682.704 54.736L683.712 57.376ZM691.022 44.896C693.022 44.896 694.558 45.376 695.63 46.336C696.702 47.28 697.238 48.712 697.238 50.632V58H693.734V56.392C693.03 57.592 691.718 58.192 689.798 58.192C688.806 58.192 687.942 58.024 687.206 57.688C686.486 57.352 685.934 56.888 685.55 56.296C685.166 55.704 684.974 55.032 684.974 54.28C684.974 53.08 685.422 52.136 686.318 51.448C687.23 50.76 688.63 50.416 690.518 50.416H693.494C693.494 49.6 693.246 48.976 692.75 48.544C692.254 48.096 691.51 47.872 690.518 47.872C689.83 47.872 689.15 47.984 688.478 48.208C687.822 48.416 687.262 48.704 686.798 49.072L685.454 46.456C686.158 45.96 686.998 45.576 687.974 45.304C688.966 45.032 689.982 44.896 691.022 44.896ZM690.734 55.672C691.374 55.672 691.942 55.528 692.438 55.24C692.934 54.936 693.286 54.496 693.494 53.92V52.6H690.926C689.39 52.6 688.622 53.104 688.622 54.112C688.622 54.592 688.806 54.976 689.174 55.264C689.558 55.536 690.078 55.672 690.734 55.672ZM704.97 58.192C703.898 58.192 702.85 58.064 701.826 57.808C700.802 57.536 699.986 57.2 699.378 56.8L700.626 54.112C701.202 54.48 701.898 54.784 702.714 55.024C703.53 55.248 704.33 55.36 705.114 55.36C706.698 55.36 707.49 54.968 707.49 54.184C707.49 53.816 707.274 53.552 706.842 53.392C706.41 53.232 705.746 53.096 704.85 52.984C703.794 52.824 702.922 52.64 702.234 52.432C701.546 52.224 700.946 51.856 700.434 51.328C699.938 50.8 699.69 50.048 699.69 49.072C699.69 48.256 699.922 47.536 700.386 46.912C700.866 46.272 701.554 45.776 702.45 45.424C703.362 45.072 704.434 44.896 705.666 44.896C706.578 44.896 707.482 45 708.378 45.208C709.29 45.4 710.042 45.672 710.634 46.024L709.386 48.688C708.25 48.048 707.01 47.728 705.666 47.728C704.866 47.728 704.266 47.84 703.866 48.064C703.466 48.288 703.266 48.576 703.266 48.928C703.266 49.328 703.482 49.608 703.914 49.768C704.346 49.928 705.034 50.08 705.978 50.224C707.034 50.4 707.898 50.592 708.57 50.8C709.242 50.992 709.826 51.352 710.322 51.88C710.818 52.408 711.066 53.144 711.066 54.088C711.066 54.888 710.826 55.6 710.346 56.224C709.866 56.848 709.162 57.336 708.234 57.688C707.322 58.024 706.234 58.192 704.97 58.192ZM704.37 63.568C703.954 63.568 703.546 63.52 703.146 63.424C702.746 63.344 702.41 63.224 702.138 63.064L702.714 61.456C703.226 61.696 703.746 61.816 704.274 61.816C705.106 61.816 705.522 61.56 705.522 61.048C705.522 60.584 705.13 60.352 704.346 60.352H703.53L704.154 57.808H706.146L705.81 59.2C706.514 59.28 707.034 59.496 707.37 59.848C707.722 60.216 707.898 60.664 707.898 61.192C707.898 61.928 707.578 62.504 706.938 62.92C706.298 63.352 705.442 63.568 704.37 63.568Z" fill="black"/>
<path d="M800.382 51.4L798.126 53.752V58H794.262V41.2H798.126V49.048L805.566 41.2H809.886L802.926 48.688L810.294 58H805.758L800.382 51.4ZM816.69 44.896C818.69 44.896 820.226 45.376 821.298 46.336C822.37 47.28 822.906 48.712 822.906 50.632V58H819.402V56.392C818.698 57.592 817.386 58.192 815.466 58.192C814.474 58.192 813.61 58.024 812.874 57.688C812.154 57.352 811.602 56.888 811.218 56.296C810.834 55.704 810.642 55.032 810.642 54.28C810.642 53.08 811.09 52.136 811.986 51.448C812.898 50.76 814.298 50.416 816.186 50.416H819.162C819.162 49.6 818.914 48.976 818.418 48.544C817.922 48.096 817.178 47.872 816.186 47.872C815.498 47.872 814.818 47.984 814.146 48.208C813.49 48.416 812.93 48.704 812.466 49.072L811.122 46.456C811.826 45.96 812.666 45.576 813.642 45.304C814.634 45.032 815.65 44.896 816.69 44.896ZM816.402 55.672C817.042 55.672 817.61 55.528 818.106 55.24C818.602 54.936 818.954 54.496 819.162 53.92V52.6H816.594C815.058 52.6 814.29 53.104 814.29 54.112C814.29 54.592 814.474 54.976 814.842 55.264C815.226 55.536 815.746 55.672 816.402 55.672ZM833.926 44.896C835.126 44.896 836.214 45.176 837.19 45.736C838.182 46.28 838.958 47.056 839.518 48.064C840.078 49.056 840.358 50.216 840.358 51.544C840.358 52.872 840.078 54.04 839.518 55.048C838.958 56.04 838.182 56.816 837.19 57.376C836.214 57.92 835.126 58.192 833.926 58.192C832.15 58.192 830.798 57.632 829.87 56.512V58H826.294V40.192H830.038V46.456C830.982 45.416 832.278 44.896 833.926 44.896ZM833.278 55.12C834.238 55.12 835.022 54.8 835.63 54.16C836.254 53.504 836.566 52.632 836.566 51.544C836.566 50.456 836.254 49.592 835.63 48.952C835.022 48.296 834.238 47.968 833.278 47.968C832.318 47.968 831.526 48.296 830.902 48.952C830.294 49.592 829.99 50.456 829.99 51.544C829.99 52.632 830.294 53.504 830.902 54.16C831.526 54.8 832.318 55.12 833.278 55.12ZM847.862 44.896C849.862 44.896 851.398 45.376 852.47 46.336C853.542 47.28 854.078 48.712 854.078 50.632V58H850.574V56.392C849.87 57.592 848.558 58.192 846.638 58.192C845.646 58.192 844.782 58.024 844.046 57.688C843.326 57.352 842.774 56.888 842.39 56.296C842.006 55.704 841.814 55.032 841.814 54.28C841.814 53.08 842.262 52.136 843.158 51.448C844.07 50.76 845.47 50.416 847.358 50.416H850.334C850.334 49.6 850.086 48.976 849.59 48.544C849.094 48.096 848.35 47.872 847.358 47.872C846.67 47.872 845.99 47.984 845.318 48.208C844.662 48.416 844.102 48.704 843.638 49.072L842.294 46.456C842.998 45.96 843.838 45.576 844.814 45.304C845.806 45.032 846.822 44.896 847.862 44.896ZM847.574 55.672C848.214 55.672 848.782 55.528 849.278 55.24C849.774 54.936 850.126 54.496 850.334 53.92V52.6H847.766C846.23 52.6 845.462 53.104 845.462 54.112C845.462 54.592 845.646 54.976 846.014 55.264C846.398 55.536 846.918 55.672 847.574 55.672ZM865.794 57.376C865.426 57.648 864.97 57.856 864.426 58C863.898 58.128 863.338 58.192 862.746 58.192C861.21 58.192 860.018 57.8 859.17 57.016C858.338 56.232 857.922 55.08 857.922 53.56V48.256H855.93V45.376H857.922V42.232H861.666V45.376H864.882V48.256H861.666V53.512C861.666 54.056 861.802 54.48 862.074 54.784C862.362 55.072 862.762 55.216 863.274 55.216C863.866 55.216 864.37 55.056 864.786 54.736L865.794 57.376ZM873.104 44.896C875.104 44.896 876.64 45.376 877.712 46.336C878.784 47.28 879.32 48.712 879.32 50.632V58H875.816V56.392C875.112 57.592 873.8 58.192 871.88 58.192C870.888 58.192 870.024 58.024 869.288 57.688C868.568 57.352 868.016 56.888 867.632 56.296C867.248 55.704 867.056 55.032 867.056 54.28C867.056 53.08 867.504 52.136 868.4 51.448C869.312 50.76 870.712 50.416 872.6 50.416H875.576C875.576 49.6 875.328 48.976 874.832 48.544C874.336 48.096 873.592 47.872 872.6 47.872C871.912 47.872 871.232 47.984 870.56 48.208C869.904 48.416 869.344 48.704 868.88 49.072L867.536 46.456C868.24 45.96 869.08 45.576 870.056 45.304C871.048 45.032 872.064 44.896 873.104 44.896ZM872.816 55.672C873.456 55.672 874.024 55.528 874.52 55.24C875.016 54.936 875.368 54.496 875.576 53.92V52.6H873.008C871.472 52.6 870.704 53.104 870.704 54.112C870.704 54.592 870.888 54.976 871.256 55.264C871.64 55.536 872.16 55.672 872.816 55.672ZM887.052 58.192C885.98 58.192 884.932 58.064 883.908 57.808C882.884 57.536 882.068 57.2 881.46 56.8L882.708 54.112C883.284 54.48 883.98 54.784 884.796 55.024C885.612 55.248 886.412 55.36 887.196 55.36C888.78 55.36 889.572 54.968 889.572 54.184C889.572 53.816 889.356 53.552 888.924 53.392C888.492 53.232 887.828 53.096 886.932 52.984C885.876 52.824 885.004 52.64 884.316 52.432C883.628 52.224 883.028 51.856 882.516 51.328C882.02 50.8 881.772 50.048 881.772 49.072C881.772 48.256 882.004 47.536 882.468 46.912C882.948 46.272 883.636 45.776 884.532 45.424C885.444 45.072 886.516 44.896 887.748 44.896C888.66 44.896 889.564 45 890.46 45.208C891.372 45.4 892.124 45.672 892.716 46.024L891.468 48.688C890.332 48.048 889.092 47.728 887.748 47.728C886.948 47.728 886.348 47.84 885.948 48.064C885.548 48.288 885.348 48.576 885.348 48.928C885.348 49.328 885.564 49.608 885.996 49.768C886.428 49.928 887.116 50.08 888.06 50.224C889.116 50.4 889.98 50.592 890.652 50.8C891.324 50.992 891.908 51.352 892.404 51.88C892.9 52.408 893.148 53.144 893.148 54.088C893.148 54.888 892.908 55.6 892.428 56.224C891.948 56.848 891.244 57.336 890.316 57.688C889.404 58.024 888.316 58.192 887.052 58.192ZM886.452 63.568C886.036 63.568 885.628 63.52 885.228 63.424C884.828 63.344 884.492 63.224 884.22 63.064L884.796 61.456C885.308 61.696 885.828 61.816 886.356 61.816C887.188 61.816 887.604 61.56 887.604 61.048C887.604 60.584 887.212 60.352 886.428 60.352H885.612L886.236 57.808H888.228L887.892 59.2C888.596 59.28 889.116 59.496 889.452 59.848C889.804 60.216 889.98 60.664 889.98 61.192C889.98 61.928 889.66 62.504 889.02 62.92C888.38 63.352 887.524 63.568 886.452 63.568Z" fill="black"/>
<rect x="470" y="123" width="6" height="22" fill="black"/>
<g clip-path="url(#clip0_495_5326)">
<path d="M473 179.025C469.431 179.032 465.941 177.981 462.971 176.006C460 174.031 457.683 171.221 456.313 167.93C454.942 164.639 454.58 161.016 455.272 157.52C455.964 154.024 457.679 150.811 460.2 148.288C462.72 145.766 465.934 144.047 469.433 143.349C472.933 142.651 476.561 143.005 479.858 144.368C483.156 145.73 485.975 148.039 487.958 151.002C489.941 153.965 491 157.448 491 161.012C491 165.784 489.105 170.36 485.73 173.737C482.355 177.114 477.777 179.016 473 179.025Z" fill="#00A7E1"/>
<path d="M461.277 155.168H465.025L467.8 164.01H467.83L470.605 155.168H474.348V166.832H472.108V157.205H472.078L468.937 166.832H466.693L463.552 157.205L463.517 157.24V166.832H461.277V155.168Z" fill="white"/>
<path d="M476.598 164.66C477.421 165 478.302 165.182 479.193 165.195C480.16 165.195 481.648 164.725 481.648 163.539C481.648 162.168 480.561 161.718 479.073 161.718H477.935V159.877H479.008C480.576 159.877 481.598 159.376 481.598 158.34C481.598 157.17 480.646 156.804 479.594 156.804C478.684 156.805 477.787 157.018 476.974 157.425L476.838 155.554C477.879 155.155 478.985 154.955 480.1 154.963C481.532 154.963 483.942 155.463 483.942 157.965C483.942 159.556 482.94 160.307 481.768 160.757V160.792C483.271 160.992 483.992 162.148 483.992 163.564C483.992 166.341 481.487 167.067 479.529 167.067C478.498 167.071 477.47 166.942 476.473 166.681L476.598 164.66Z" fill="white"/>
<g clip-path="url(#clip1_495_5326)">
<path d="M455 160.99C455.004 157.433 456.063 153.956 458.043 151.001C460.024 148.045 462.836 145.742 466.126 144.384C469.415 143.025 473.034 142.672 476.524 143.368C480.014 144.065 483.22 145.78 485.735 148.296C488.25 150.813 489.963 154.019 490.656 157.508C491.349 160.997 490.991 164.613 489.628 167.899C488.265 171.185 485.958 173.994 482.998 175.969C480.039 177.945 476.559 179 473 179C470.635 179 468.292 178.534 466.107 177.628C463.922 176.723 461.937 175.396 460.265 173.724C458.593 172.051 457.268 170.065 456.364 167.88C455.461 165.695 454.997 163.354 455 160.99Z" fill="#9D9D9C"/>
<path d="M469.258 154.057H476.862V156.219H472.008V159.575H476.62V161.738H472.008V167.721H469.258V154.057Z" fill="white"/>
</g>
</g>
<circle cx="843" cy="100" r="24" fill="black"/>
<ellipse cx="843.001" cy="99.9939" rx="19.2" ry="19.2" fill="white"/>
<rect x="840" y="123" width="6" height="20" fill="black"/>
<g clip-path="url(#clip2_495_5326)">
<path d="M821.996 179C818.431 179.004 814.944 177.952 811.978 175.976C809.011 174.001 806.698 171.191 805.331 167.902C803.964 164.614 803.604 160.994 804.297 157.501C804.99 154.008 806.705 150.799 809.225 148.279C811.744 145.76 814.956 144.044 818.452 143.347C821.949 142.651 825.574 143.006 828.868 144.368C832.163 145.73 834.978 148.037 836.96 150.998C838.941 153.958 839.998 157.439 839.998 161C839.996 165.77 838.099 170.343 834.724 173.718C831.349 177.092 826.772 178.992 821.996 179Z" fill="#004987"/>
<path d="M816.324 156.783H812.797V154.846H822.325V156.783H818.793V167.154H816.324V156.783Z" fill="white"/>
<path d="M827.466 154.846H829.653V167.154H827.184V157.649L825.098 159.344L823.863 157.739L827.466 154.846Z" fill="white"/>
</g>
<g clip-path="url(#clip3_495_5326)">
<path d="M846 161C846.004 157.445 847.063 153.971 849.043 151.017C851.024 148.062 853.836 145.761 857.126 144.403C860.415 143.046 864.034 142.692 867.524 143.388C871.014 144.085 874.22 145.799 876.735 148.314C879.25 150.829 880.963 154.033 881.656 157.52C882.349 161.007 881.991 164.621 880.628 167.906C879.265 171.19 876.958 173.997 873.998 175.971C871.039 177.946 867.559 179 864 179C861.635 179 859.292 178.534 857.107 177.63C854.922 176.725 852.937 175.399 851.265 173.727C849.593 172.055 848.268 170.071 847.364 167.887C846.461 165.703 845.997 163.363 846 161Z" fill="#7A7157"/>
<path d="M855.93 154.354H863.312V156.374H858.599V159.727H863.089V161.747H858.599V167.646H855.93V154.354Z" fill="white"/>
<path d="M869.297 154.354H871.663V167.646H868.994V157.384L866.749 159.162L865.414 157.485L869.297 154.354Z" fill="white"/>
</g>
<g clip-path="url(#clip4_495_5326)">
<path d="M76 100C76 95.2533 77.4076 90.6131 80.0447 86.6663C82.6819 82.7195 86.4302 79.6434 90.8156 77.8269C95.201 76.0104 100.027 75.5351 104.682 76.4612C109.338 77.3872 113.614 79.673 116.971 83.0294C120.327 86.3859 122.613 90.6623 123.539 95.3178C124.465 99.9734 123.99 104.799 122.173 109.184C120.357 113.57 117.28 117.318 113.334 119.955C109.387 122.592 104.747 124 100 124C93.6392 123.986 87.543 121.453 83.0452 116.955C78.5474 112.457 76.0142 106.361 76 100Z" fill="#F29EBF"/>
<path d="M84.3594 92.4492H89.483L93.2583 104.584L97.0335 92.4492H102.427V108.629H99.1908V95.1458L94.8762 108.629H91.6403L87.3257 95.1458V108.629H84.3594V92.4492Z" fill="white"/>
<path d="M105.395 92.4492H115.642V95.1458L109.979 108.629H106.473L112.406 94.8762H105.395V92.4492Z" fill="white"/>
</g>
<defs>
<clipPath id="clip0_495_5326">
<rect width="36" height="36" fill="white" transform="translate(455 143)"/>
</clipPath>
<clipPath id="clip1_495_5326">
<rect width="36" height="36" fill="white" transform="translate(455 143)"/>
</clipPath>
<clipPath id="clip2_495_5326">
<rect width="36" height="36" fill="white" transform="translate(804 143)"/>
</clipPath>
<clipPath id="clip3_495_5326">
<rect width="36" height="36" fill="white" transform="translate(846 143)"/>
</clipPath>
<clipPath id="clip4_495_5326">
<rect width="48" height="48" fill="white" transform="translate(76 76)"/>
</clipPath>
</defs>
</svg>
