<svg width="4380" height="225" viewBox="0 0 4380 225" fill="none" xmlns="http://www.w3.org/2000/svg">
<rect x="80" y="100" width="120" height="30" fill="#D9D9D9"/>
<path d="M108.525 122V115.975L103.281 107.684H106.67L110.039 113.348L113.34 107.684H116.67L111.406 115.994V122H108.525ZM120.018 122V107.684H122.908V122H120.018ZM127.75 122V107.801H130.641V119.588H137.828V122H127.75ZM141.889 107.684H147.172C148.363 107.684 149.271 107.775 149.896 107.957C150.736 108.204 151.456 108.644 152.055 109.275C152.654 109.907 153.109 110.682 153.422 111.6C153.734 112.511 153.891 113.637 153.891 114.979C153.891 116.157 153.744 117.173 153.451 118.025C153.093 119.067 152.582 119.91 151.918 120.555C151.417 121.043 150.74 121.424 149.887 121.697C149.249 121.899 148.396 122 147.328 122H141.889V107.684ZM144.779 110.105V119.588H146.938C147.745 119.588 148.327 119.542 148.686 119.451C149.154 119.334 149.542 119.135 149.848 118.855C150.16 118.576 150.414 118.117 150.609 117.479C150.805 116.834 150.902 115.958 150.902 114.852C150.902 113.745 150.805 112.895 150.609 112.303C150.414 111.71 150.141 111.248 149.789 110.916C149.438 110.584 148.992 110.359 148.451 110.242C148.048 110.151 147.257 110.105 146.078 110.105H144.779ZM158.264 122V107.684H161.154V122H158.264ZM164.678 122V119.393L172.197 110.105H165.527V107.684H176.006V109.93L168.164 119.588H176.309V122H164.678Z" fill="#949494"/>
<rect x="280" y="100" width="120" height="30" fill="#D9D9D9"/>
<path d="M305.961 122V107.684H315.775V110.105H308.852V113.494H314.828V115.916H308.852V122H305.961ZM320.148 107.684H323.039V115.438C323.039 116.668 323.075 117.465 323.146 117.83C323.27 118.416 323.563 118.888 324.025 119.246C324.494 119.598 325.132 119.773 325.939 119.773C326.76 119.773 327.378 119.607 327.795 119.275C328.212 118.937 328.462 118.523 328.547 118.035C328.632 117.547 328.674 116.736 328.674 115.604V107.684H331.564V115.203C331.564 116.922 331.486 118.136 331.33 118.846C331.174 119.555 330.884 120.154 330.461 120.643C330.044 121.131 329.484 121.521 328.781 121.814C328.078 122.101 327.16 122.244 326.027 122.244C324.66 122.244 323.622 122.088 322.912 121.775C322.209 121.456 321.652 121.046 321.242 120.545C320.832 120.037 320.562 119.507 320.432 118.953C320.243 118.133 320.148 116.922 320.148 115.32V107.684ZM336.699 122V107.801H339.59V119.588H346.777V122H336.699ZM352.771 122V115.975L347.527 107.684H350.916L354.285 113.348L357.586 107.684H360.916L355.652 115.994V122H352.771ZM375.426 122H372.281L371.031 118.748H365.309L364.127 122H361.061L366.637 107.684H369.693L375.426 122ZM370.104 116.336L368.131 111.023L366.197 116.336H370.104Z" fill="#949494"/>
<rect x="640" y="100" width="120" height="30" fill="#D9D9D9"/>
<path d="M644.283 122V107.684H648.609L651.207 117.449L653.775 107.684H658.111V122H655.426V110.73L652.584 122H649.801L646.969 110.73V122H644.283ZM672.143 116.736L674.945 117.625C674.516 119.188 673.799 120.35 672.797 121.111C671.801 121.867 670.535 122.244 668.998 122.244C667.097 122.244 665.535 121.596 664.311 120.301C663.087 118.999 662.475 117.221 662.475 114.969C662.475 112.586 663.09 110.737 664.32 109.422C665.551 108.1 667.169 107.439 669.174 107.439C670.925 107.439 672.348 107.957 673.441 108.992C674.092 109.604 674.581 110.483 674.906 111.629L672.045 112.312C671.876 111.57 671.521 110.984 670.98 110.555C670.447 110.125 669.796 109.91 669.027 109.91C667.966 109.91 667.104 110.291 666.439 111.053C665.782 111.814 665.453 113.048 665.453 114.754C665.453 116.564 665.779 117.853 666.43 118.621C667.081 119.389 667.927 119.773 668.969 119.773C669.737 119.773 670.398 119.529 670.951 119.041C671.505 118.553 671.902 117.785 672.143 116.736ZM679.426 107.684H684.709C685.9 107.684 686.809 107.775 687.434 107.957C688.273 108.204 688.993 108.644 689.592 109.275C690.191 109.907 690.646 110.682 690.959 111.6C691.271 112.511 691.428 113.637 691.428 114.979C691.428 116.157 691.281 117.173 690.988 118.025C690.63 119.067 690.119 119.91 689.455 120.555C688.954 121.043 688.277 121.424 687.424 121.697C686.786 121.899 685.933 122 684.865 122H679.426V107.684ZM682.316 110.105V119.588H684.475C685.282 119.588 685.865 119.542 686.223 119.451C686.691 119.334 687.079 119.135 687.385 118.855C687.697 118.576 687.951 118.117 688.146 117.479C688.342 116.834 688.439 115.958 688.439 114.852C688.439 113.745 688.342 112.895 688.146 112.303C687.951 111.71 687.678 111.248 687.326 110.916C686.975 110.584 686.529 110.359 685.988 110.242C685.585 110.151 684.794 110.105 683.615 110.105H682.316ZM699.648 122V115.975L694.404 107.684H697.793L701.162 113.348L704.463 107.684H707.793L702.529 115.994V122H699.648ZM711.268 122V107.684H714.158V114.041L719.998 107.684H723.885L718.494 113.26L724.178 122H720.438L716.502 115.281L714.158 117.674V122H711.268ZM727.096 114.93C727.096 113.471 727.314 112.247 727.75 111.258C728.076 110.529 728.518 109.874 729.078 109.295C729.645 108.715 730.263 108.286 730.934 108.006C731.826 107.628 732.854 107.439 734.02 107.439C736.129 107.439 737.815 108.094 739.078 109.402C740.348 110.711 740.982 112.531 740.982 114.861C740.982 117.173 740.354 118.982 739.098 120.291C737.841 121.593 736.161 122.244 734.059 122.244C731.93 122.244 730.237 121.596 728.98 120.301C727.724 118.999 727.096 117.208 727.096 114.93ZM730.074 114.832C730.074 116.453 730.449 117.684 731.197 118.523C731.946 119.357 732.896 119.773 734.049 119.773C735.201 119.773 736.145 119.36 736.881 118.533C737.623 117.7 737.994 116.453 737.994 114.793C737.994 113.152 737.633 111.928 736.91 111.121C736.194 110.314 735.24 109.91 734.049 109.91C732.857 109.91 731.897 110.32 731.168 111.141C730.439 111.954 730.074 113.185 730.074 114.832ZM730.592 106.863V104.51H732.945V106.863H730.592ZM734.791 106.863V104.51H737.154V106.863H734.791ZM749.008 122V115.975L743.764 107.684H747.152L750.521 113.348L753.822 107.684H757.152L751.889 115.994V122H749.008Z" fill="#949494"/>
<rect x="980" y="100" width="120" height="30" fill="#D9D9D9"/>
<path d="M996.979 116.736L999.781 117.625C999.352 119.188 998.635 120.35 997.633 121.111C996.637 121.867 995.37 122.244 993.834 122.244C991.933 122.244 990.37 121.596 989.146 120.301C987.923 118.999 987.311 117.221 987.311 114.969C987.311 112.586 987.926 110.737 989.156 109.422C990.387 108.1 992.005 107.439 994.01 107.439C995.761 107.439 997.184 107.957 998.277 108.992C998.928 109.604 999.417 110.483 999.742 111.629L996.881 112.312C996.712 111.57 996.357 110.984 995.816 110.555C995.283 110.125 994.632 109.91 993.863 109.91C992.802 109.91 991.939 110.291 991.275 111.053C990.618 111.814 990.289 113.048 990.289 114.754C990.289 116.564 990.615 117.853 991.266 118.621C991.917 119.389 992.763 119.773 993.805 119.773C994.573 119.773 995.234 119.529 995.787 119.041C996.34 118.553 996.738 117.785 996.979 116.736ZM990.904 125.936V124.783C991.575 124.855 992.19 124.891 992.75 124.891C993.329 124.891 993.759 124.786 994.039 124.578C994.254 124.422 994.361 124.22 994.361 123.973C994.361 123.751 994.26 123.559 994.059 123.396C993.857 123.234 993.544 123.152 993.121 123.152C992.704 123.152 992.278 123.217 991.842 123.348L992.096 122.381C992.604 122.205 993.15 122.117 993.736 122.117C994.55 122.117 995.169 122.296 995.592 122.654C996.015 123.012 996.227 123.449 996.227 123.963C996.227 124.536 995.992 125.001 995.523 125.359C994.892 125.848 993.987 126.092 992.809 126.092C991.969 126.092 991.334 126.04 990.904 125.936ZM1017.18 122H1014.04L1012.79 118.748H1007.06L1005.88 122H1002.82L1008.39 107.684H1011.45L1017.18 122ZM1011.86 116.336L1009.89 111.023L1007.95 116.336H1011.86ZM1027.38 116.736V114.324H1033.62V120.027C1033.01 120.613 1032.13 121.131 1030.98 121.58C1029.83 122.023 1028.67 122.244 1027.49 122.244C1025.99 122.244 1024.69 121.932 1023.58 121.307C1022.46 120.675 1021.63 119.777 1021.07 118.611C1020.51 117.439 1020.23 116.167 1020.23 114.793C1020.23 113.302 1020.54 111.977 1021.16 110.818C1021.79 109.66 1022.7 108.771 1023.91 108.152C1024.83 107.677 1025.97 107.439 1027.34 107.439C1029.11 107.439 1030.5 107.814 1031.5 108.562C1032.5 109.305 1033.14 110.333 1033.43 111.648L1030.56 112.186C1030.36 111.482 1029.98 110.929 1029.42 110.525C1028.86 110.115 1028.17 109.91 1027.34 109.91C1026.07 109.91 1025.07 110.311 1024.32 111.111C1023.58 111.912 1023.21 113.1 1023.21 114.676C1023.21 116.375 1023.58 117.651 1024.34 118.504C1025.09 119.35 1026.08 119.773 1027.31 119.773C1027.91 119.773 1028.52 119.656 1029.12 119.422C1029.74 119.181 1030.26 118.891 1030.7 118.553V116.736H1027.38ZM1029.22 104.07H1030.56C1030.48 104.956 1030.17 105.652 1029.62 106.16C1029.08 106.661 1028.38 106.912 1027.51 106.912C1026.65 106.912 1025.94 106.661 1025.39 106.16C1024.85 105.652 1024.54 104.956 1024.46 104.07H1025.8C1025.85 104.533 1026.01 104.884 1026.29 105.125C1026.57 105.359 1026.98 105.477 1027.51 105.477C1028.05 105.477 1028.45 105.359 1028.73 105.125C1029.01 104.884 1029.18 104.533 1029.22 104.07ZM1038.37 122V107.801H1041.26V119.588H1048.45V122H1038.37ZM1054.44 122V115.975L1049.2 107.684H1052.59L1055.96 113.348L1059.26 107.684H1062.59L1057.32 115.994V122H1054.44ZM1077.1 122H1073.95L1072.7 118.748H1066.98L1065.8 122H1062.73L1068.31 107.684H1071.36L1077.1 122ZM1071.77 116.336L1069.8 111.023L1067.87 116.336H1071.77ZM1080.67 122V107.684H1083.48L1089.34 117.244V107.684H1092.03V122H1089.12L1083.35 112.664V122H1080.67Z" fill="#949494"/>
<rect x="1180" y="170" width="120" height="30" fill="#D9D9D9"/>
<rect x="1180" y="30" width="120" height="30" fill="#D9D9D9"/>
<path d="M1182.24 122V107.684H1185.13V114.041L1190.97 107.684H1194.86L1189.46 113.26L1195.15 122H1191.41L1187.47 115.281L1185.13 117.674V122H1182.24ZM1211.56 122H1208.42L1207.17 118.748H1201.45L1200.26 122H1197.2L1202.77 107.684H1205.83L1211.56 122ZM1206.24 116.336L1204.27 111.023L1202.33 116.336H1206.24ZM1221.77 116.736V114.324H1228V120.027C1227.39 120.613 1226.51 121.131 1225.36 121.58C1224.21 122.023 1223.05 122.244 1221.87 122.244C1220.38 122.244 1219.07 121.932 1217.96 121.307C1216.84 120.675 1216.01 119.777 1215.45 118.611C1214.89 117.439 1214.61 116.167 1214.61 114.793C1214.61 113.302 1214.92 111.977 1215.54 110.818C1216.17 109.66 1217.08 108.771 1218.29 108.152C1219.21 107.677 1220.35 107.439 1221.72 107.439C1223.49 107.439 1224.88 107.814 1225.88 108.562C1226.88 109.305 1227.52 110.333 1227.81 111.648L1224.94 112.186C1224.74 111.482 1224.36 110.929 1223.8 110.525C1223.24 110.115 1222.55 109.91 1221.72 109.91C1220.45 109.91 1219.45 110.311 1218.7 111.111C1217.96 111.912 1217.59 113.1 1217.59 114.676C1217.59 116.375 1217.96 117.651 1218.72 118.504C1219.47 119.35 1220.46 119.773 1221.69 119.773C1222.29 119.773 1222.9 119.656 1223.5 119.422C1224.12 119.181 1224.64 118.891 1225.08 118.553V116.736H1221.77ZM1223.6 104.07H1224.94C1224.86 104.956 1224.55 105.652 1224 106.16C1223.46 106.661 1222.76 106.912 1221.89 106.912C1221.03 106.912 1220.32 106.661 1219.77 106.16C1219.23 105.652 1218.92 104.956 1218.85 104.07H1220.18C1220.23 104.533 1220.39 104.884 1220.67 105.125C1220.95 105.359 1221.36 105.477 1221.89 105.477C1222.43 105.477 1222.83 105.359 1223.11 105.125C1223.39 104.884 1223.56 104.533 1223.6 104.07ZM1232.58 122V107.684H1235.47V122H1232.58ZM1243.46 122V110.105H1239.21V107.684H1250.59V110.105H1246.35V122H1243.46ZM1254.47 122V107.684H1257.37V113.318H1263.03V107.684H1265.92V122H1263.03V115.74H1257.37V122H1254.47ZM1270.95 122V107.684H1273.76L1279.62 117.244V107.684H1282.3V122H1279.4L1273.63 112.664V122H1270.95ZM1287.37 122V107.684H1297.99V110.105H1290.26V113.279H1297.45V115.691H1290.26V119.588H1298.26V122H1287.37Z" fill="#949494"/>
<rect x="1380" y="100" width="120" height="30" fill="#D9D9D9"/>
<path d="M1387.68 122V107.684H1390.49L1396.35 117.244V107.684H1399.04V122H1396.14L1390.37 112.664V122H1387.68ZM1404.09 107.684H1406.98V115.438C1406.98 116.668 1407.01 117.465 1407.08 117.83C1407.21 118.416 1407.5 118.888 1407.96 119.246C1408.43 119.598 1409.07 119.773 1409.88 119.773C1410.7 119.773 1411.32 119.607 1411.73 119.275C1412.15 118.937 1412.4 118.523 1412.48 118.035C1412.57 117.547 1412.61 116.736 1412.61 115.604V107.684H1415.5V115.203C1415.5 116.922 1415.42 118.136 1415.27 118.846C1415.11 119.555 1414.82 120.154 1414.4 120.643C1413.98 121.131 1413.42 121.521 1412.72 121.814C1412.02 122.101 1411.1 122.244 1409.96 122.244C1408.6 122.244 1407.56 122.088 1406.85 121.775C1406.15 121.456 1405.59 121.046 1405.18 120.545C1404.77 120.037 1404.5 119.507 1404.37 118.953C1404.18 118.133 1404.09 116.922 1404.09 115.32V107.684ZM1420.57 122V107.684H1426.65C1428.18 107.684 1429.29 107.814 1429.98 108.074C1430.68 108.328 1431.24 108.784 1431.65 109.441C1432.07 110.099 1432.28 110.851 1432.28 111.697C1432.28 112.771 1431.96 113.66 1431.33 114.363C1430.7 115.06 1429.75 115.499 1428.5 115.682C1429.12 116.046 1429.64 116.447 1430.04 116.883C1430.45 117.319 1431 118.094 1431.69 119.207L1433.44 122H1429.98L1427.89 118.885C1427.15 117.771 1426.64 117.072 1426.37 116.785C1426.1 116.492 1425.81 116.294 1425.5 116.189C1425.19 116.079 1424.71 116.023 1424.04 116.023H1423.46V122H1420.57ZM1423.46 113.738H1425.6C1426.98 113.738 1427.85 113.68 1428.2 113.562C1428.54 113.445 1428.81 113.243 1429.01 112.957C1429.2 112.671 1429.3 112.312 1429.3 111.883C1429.3 111.401 1429.17 111.014 1428.91 110.721C1428.65 110.421 1428.29 110.232 1427.82 110.154C1427.59 110.122 1426.89 110.105 1425.71 110.105H1423.46V113.738ZM1440.23 122V110.105H1435.99V107.684H1447.36V110.105H1443.12V122H1440.23ZM1451.24 122V107.684H1461.85V110.105H1454.13V113.279H1461.32V115.691H1454.13V119.588H1462.13V122H1451.24ZM1466.58 122V107.684H1471.22C1472.97 107.684 1474.12 107.755 1474.65 107.898C1475.47 108.113 1476.16 108.582 1476.71 109.305C1477.27 110.021 1477.54 110.949 1477.54 112.088C1477.54 112.967 1477.39 113.706 1477.07 114.305C1476.75 114.904 1476.34 115.376 1475.85 115.721C1475.36 116.059 1474.86 116.284 1474.35 116.395C1473.66 116.531 1472.66 116.6 1471.35 116.6H1469.47V122H1466.58ZM1469.47 110.105V114.168H1471.05C1472.19 114.168 1472.95 114.093 1473.34 113.943C1473.72 113.794 1474.02 113.559 1474.23 113.24C1474.46 112.921 1474.57 112.55 1474.57 112.127C1474.57 111.606 1474.41 111.176 1474.11 110.838C1473.8 110.499 1473.41 110.288 1472.95 110.203C1472.6 110.138 1471.91 110.105 1470.87 110.105H1469.47ZM1481.92 122V107.684H1492.53V110.105H1484.81V113.279H1492V115.691H1484.81V119.588H1492.81V122H1481.92Z" fill="#949494"/>
<rect x="1680" y="170" width="120" height="30" fill="#D9D9D9"/>
<rect x="1680" y="30" width="120" height="30" fill="#D9D9D9"/>
<path d="M1695.67 122H1692.52L1691.27 118.748H1685.55L1684.37 122H1681.3L1686.88 107.684H1689.93L1695.67 122ZM1690.34 116.336L1688.37 111.023L1686.44 116.336H1690.34ZM1699.29 122V107.801H1702.18V119.588H1709.37V122H1699.29ZM1713.35 122V107.684H1716.24V122H1713.35ZM1713.46 106.863V104.266H1716.15V106.863H1713.46ZM1721.01 107.684H1726.73C1727.87 107.684 1728.71 107.732 1729.26 107.83C1729.82 107.921 1730.32 108.117 1730.76 108.416C1731.2 108.715 1731.57 109.116 1731.86 109.617C1732.15 110.112 1732.3 110.669 1732.3 111.287C1732.3 111.958 1732.12 112.573 1731.75 113.133C1731.4 113.693 1730.91 114.113 1730.29 114.393C1731.16 114.646 1731.83 115.079 1732.3 115.691C1732.77 116.303 1733 117.023 1733 117.85C1733 118.501 1732.85 119.135 1732.54 119.754C1732.25 120.366 1731.83 120.857 1731.3 121.229C1730.78 121.593 1730.14 121.818 1729.37 121.902C1728.89 121.954 1727.73 121.987 1725.88 122H1721.01V107.684ZM1723.9 110.066V113.377H1725.8C1726.92 113.377 1727.62 113.361 1727.9 113.328C1728.39 113.27 1728.78 113.1 1729.06 112.82C1729.35 112.534 1729.49 112.16 1729.49 111.697C1729.49 111.255 1729.36 110.896 1729.12 110.623C1728.88 110.343 1728.51 110.174 1728.03 110.115C1727.75 110.083 1726.92 110.066 1725.56 110.066H1723.9ZM1723.9 115.76V119.588H1726.58C1727.62 119.588 1728.28 119.559 1728.56 119.5C1728.99 119.422 1729.34 119.233 1729.61 118.934C1729.88 118.628 1730.02 118.221 1730.02 117.713C1730.02 117.283 1729.91 116.919 1729.7 116.619C1729.49 116.32 1729.19 116.102 1728.79 115.965C1728.4 115.828 1727.55 115.76 1726.24 115.76H1723.9ZM1741.21 122V115.975L1735.97 107.684H1739.36L1742.73 113.348L1746.03 107.684H1749.36L1744.1 115.994V122H1741.21ZM1752.83 122V107.684H1755.72V114.041L1761.56 107.684H1765.45L1760.06 113.26L1765.74 122H1762L1758.07 115.281L1755.72 117.674V122H1752.83ZM1768.66 114.93C1768.66 113.471 1768.88 112.247 1769.32 111.258C1769.64 110.529 1770.08 109.874 1770.64 109.295C1771.21 108.715 1771.83 108.286 1772.5 108.006C1773.39 107.628 1774.42 107.439 1775.59 107.439C1777.7 107.439 1779.38 108.094 1780.64 109.402C1781.91 110.711 1782.55 112.531 1782.55 114.861C1782.55 117.173 1781.92 118.982 1780.66 120.291C1779.41 121.593 1777.73 122.244 1775.62 122.244C1773.5 122.244 1771.8 121.596 1770.55 120.301C1769.29 118.999 1768.66 117.208 1768.66 114.93ZM1771.64 114.832C1771.64 116.453 1772.01 117.684 1772.76 118.523C1773.51 119.357 1774.46 119.773 1775.62 119.773C1776.77 119.773 1777.71 119.36 1778.45 118.533C1779.19 117.7 1779.56 116.453 1779.56 114.793C1779.56 113.152 1779.2 111.928 1778.48 111.121C1777.76 110.314 1776.81 109.91 1775.62 109.91C1774.42 109.91 1773.46 110.32 1772.73 111.141C1772.01 111.954 1771.64 113.185 1771.64 114.832ZM1772.16 106.863V104.51H1774.51V106.863H1772.16ZM1776.36 106.863V104.51H1778.72V106.863H1776.36ZM1790.57 122V115.975L1785.33 107.684H1788.72L1792.09 113.348L1795.39 107.684H1798.72L1793.46 115.994V122H1790.57Z" fill="#949494"/>
<rect x="1880" y="100" width="120" height="30" fill="#D9D9D9"/>
<path d="M1911.14 116.736L1913.95 117.625C1913.52 119.188 1912.8 120.35 1911.8 121.111C1910.8 121.867 1909.53 122.244 1908 122.244C1906.1 122.244 1904.53 121.596 1903.31 120.301C1902.09 118.999 1901.47 117.221 1901.47 114.969C1901.47 112.586 1902.09 110.737 1903.32 109.422C1904.55 108.1 1906.17 107.439 1908.17 107.439C1909.93 107.439 1911.35 107.957 1912.44 108.992C1913.09 109.604 1913.58 110.483 1913.91 111.629L1911.04 112.312C1910.88 111.57 1910.52 110.984 1909.98 110.555C1909.45 110.125 1908.8 109.91 1908.03 109.91C1906.97 109.91 1906.1 110.291 1905.44 111.053C1904.78 111.814 1904.45 113.048 1904.45 114.754C1904.45 116.564 1904.78 117.853 1905.43 118.621C1906.08 119.389 1906.93 119.773 1907.97 119.773C1908.74 119.773 1909.4 119.529 1909.95 119.041C1910.5 118.553 1910.9 117.785 1911.14 116.736ZM1905.07 125.936V124.783C1905.74 124.855 1906.35 124.891 1906.91 124.891C1907.49 124.891 1907.92 124.786 1908.2 124.578C1908.42 124.422 1908.53 124.22 1908.53 123.973C1908.53 123.751 1908.42 123.559 1908.22 123.396C1908.02 123.234 1907.71 123.152 1907.29 123.152C1906.87 123.152 1906.44 123.217 1906.01 123.348L1906.26 122.381C1906.77 122.205 1907.31 122.117 1907.9 122.117C1908.71 122.117 1909.33 122.296 1909.76 122.654C1910.18 123.012 1910.39 123.449 1910.39 123.963C1910.39 124.536 1910.16 125.001 1909.69 125.359C1909.06 125.848 1908.15 126.092 1906.97 126.092C1906.13 126.092 1905.5 126.04 1905.07 125.936ZM1918.35 122V107.684H1921.24V122H1918.35ZM1926.01 122V107.684H1932.1C1933.63 107.684 1934.74 107.814 1935.43 108.074C1936.12 108.328 1936.68 108.784 1937.1 109.441C1937.51 110.099 1937.72 110.851 1937.72 111.697C1937.72 112.771 1937.4 113.66 1936.77 114.363C1936.14 115.06 1935.2 115.499 1933.94 115.682C1934.57 116.046 1935.08 116.447 1935.48 116.883C1935.89 117.319 1936.44 118.094 1937.13 119.207L1938.88 122H1935.43L1933.34 118.885C1932.59 117.771 1932.09 117.072 1931.81 116.785C1931.54 116.492 1931.25 116.294 1930.94 116.189C1930.64 116.079 1930.15 116.023 1929.49 116.023H1928.9V122H1926.01ZM1928.9 113.738H1931.04C1932.43 113.738 1933.29 113.68 1933.64 113.562C1933.98 113.445 1934.25 113.243 1934.45 112.957C1934.64 112.671 1934.74 112.312 1934.74 111.883C1934.74 111.401 1934.61 111.014 1934.35 110.721C1934.1 110.421 1933.74 110.232 1933.27 110.154C1933.03 110.122 1932.33 110.105 1931.16 110.105H1928.9V113.738ZM1951.62 116.736L1954.42 117.625C1953.99 119.188 1953.27 120.35 1952.27 121.111C1951.27 121.867 1950.01 122.244 1948.47 122.244C1946.57 122.244 1945.01 121.596 1943.78 120.301C1942.56 118.999 1941.95 117.221 1941.95 114.969C1941.95 112.586 1942.56 110.737 1943.79 109.422C1945.02 108.1 1946.64 107.439 1948.65 107.439C1950.4 107.439 1951.82 107.957 1952.91 108.992C1953.57 109.604 1954.05 110.483 1954.38 111.629L1951.52 112.312C1951.35 111.57 1950.99 110.984 1950.45 110.555C1949.92 110.125 1949.27 109.91 1948.5 109.91C1947.44 109.91 1946.58 110.291 1945.91 111.053C1945.25 111.814 1944.93 113.048 1944.93 114.754C1944.93 116.564 1945.25 117.853 1945.9 118.621C1946.55 119.389 1947.4 119.773 1948.44 119.773C1949.21 119.773 1949.87 119.529 1950.42 119.041C1950.98 118.553 1951.37 117.785 1951.62 116.736ZM1945.54 125.936V124.783C1946.21 124.855 1946.83 124.891 1947.39 124.891C1947.97 124.891 1948.4 124.786 1948.68 124.578C1948.89 124.422 1949 124.22 1949 123.973C1949 123.751 1948.9 123.559 1948.7 123.396C1948.49 123.234 1948.18 123.152 1947.76 123.152C1947.34 123.152 1946.91 123.217 1946.48 123.348L1946.73 122.381C1947.24 122.205 1947.79 122.117 1948.37 122.117C1949.19 122.117 1949.81 122.296 1950.23 122.654C1950.65 123.012 1950.86 123.449 1950.86 123.963C1950.86 124.536 1950.63 125.001 1950.16 125.359C1949.53 125.848 1948.62 126.092 1947.45 126.092C1946.61 126.092 1945.97 126.04 1945.54 125.936ZM1958.82 122V107.684H1961.71V122H1958.82ZM1966.48 122V107.684H1972.57C1974.1 107.684 1975.21 107.814 1975.9 108.074C1976.6 108.328 1977.15 108.784 1977.57 109.441C1977.99 110.099 1978.19 110.851 1978.19 111.697C1978.19 112.771 1977.88 113.66 1977.25 114.363C1976.61 115.06 1975.67 115.499 1974.41 115.682C1975.04 116.046 1975.55 116.447 1975.96 116.883C1976.37 117.319 1976.92 118.094 1977.61 119.207L1979.36 122H1975.9L1973.81 118.885C1973.07 117.771 1972.56 117.072 1972.29 116.785C1972.01 116.492 1971.72 116.294 1971.42 116.189C1971.11 116.079 1970.62 116.023 1969.96 116.023H1969.38V122H1966.48ZM1969.38 113.738H1971.51C1972.9 113.738 1973.77 113.68 1974.11 113.562C1974.46 113.445 1974.73 113.243 1974.92 112.957C1975.12 112.671 1975.21 112.312 1975.21 111.883C1975.21 111.401 1975.08 111.014 1974.82 110.721C1974.57 110.421 1974.21 110.232 1973.74 110.154C1973.51 110.122 1972.8 110.105 1971.63 110.105H1969.38V113.738Z" fill="#949494"/>
<rect x="2080" y="100" width="120" height="30" fill="#D9D9D9"/>
<path d="M2087.71 122L2082.59 107.684H2085.72L2089.35 118.279L2092.85 107.684H2095.92L2090.79 122H2087.71ZM2103.15 122V115.975L2097.91 107.684H2101.3L2104.67 113.348L2107.97 107.684H2111.3L2106.04 115.994V122H2103.15ZM2114 117.342L2116.81 117.068C2116.98 118.012 2117.33 118.706 2117.84 119.148C2118.36 119.591 2119.06 119.812 2119.94 119.812C2120.87 119.812 2121.57 119.617 2122.04 119.227C2122.51 118.829 2122.75 118.367 2122.75 117.84C2122.75 117.501 2122.65 117.215 2122.45 116.98C2122.25 116.74 2121.91 116.531 2121.41 116.355C2121.08 116.238 2120.3 116.03 2119.1 115.73C2117.55 115.346 2116.46 114.874 2115.84 114.314C2114.96 113.527 2114.52 112.566 2114.52 111.434C2114.52 110.704 2114.72 110.024 2115.13 109.393C2115.55 108.755 2116.15 108.27 2116.92 107.938C2117.7 107.605 2118.64 107.439 2119.74 107.439C2121.54 107.439 2122.89 107.833 2123.8 108.621C2124.71 109.409 2125.19 110.46 2125.23 111.775L2122.34 111.902C2122.22 111.167 2121.95 110.639 2121.54 110.32C2121.14 109.995 2120.53 109.832 2119.71 109.832C2118.88 109.832 2118.22 110.005 2117.74 110.35C2117.44 110.571 2117.28 110.867 2117.28 111.238C2117.28 111.577 2117.43 111.867 2117.71 112.107C2118.08 112.413 2118.96 112.732 2120.37 113.064C2121.78 113.396 2122.81 113.742 2123.48 114.1C2124.16 114.451 2124.69 114.936 2125.07 115.555C2125.45 116.167 2125.64 116.925 2125.64 117.83C2125.64 118.65 2125.41 119.419 2124.96 120.135C2124.5 120.851 2123.86 121.385 2123.03 121.736C2122.19 122.081 2121.15 122.254 2119.91 122.254C2118.1 122.254 2116.71 121.837 2115.74 121.004C2114.77 120.164 2114.19 118.943 2114 117.342ZM2130.15 122V107.801H2133.04V119.588H2140.23V122H2130.15ZM2151.54 122V107.684H2154.43V114.041L2160.27 107.684H2164.15L2158.76 113.26L2164.45 122H2160.71L2156.77 115.281L2154.43 117.674V122H2151.54ZM2167.96 122V107.684H2174.04C2175.57 107.684 2176.68 107.814 2177.37 108.074C2178.07 108.328 2178.63 108.784 2179.04 109.441C2179.46 110.099 2179.67 110.851 2179.67 111.697C2179.67 112.771 2179.35 113.66 2178.72 114.363C2178.09 115.06 2177.15 115.499 2175.89 115.682C2176.51 116.046 2177.03 116.447 2177.43 116.883C2177.84 117.319 2178.39 118.094 2179.08 119.207L2180.83 122H2177.37L2175.28 118.885C2174.54 117.771 2174.03 117.072 2173.76 116.785C2173.49 116.492 2173.2 116.294 2172.89 116.189C2172.58 116.079 2172.1 116.023 2171.44 116.023H2170.85V122H2167.96ZM2170.85 113.738H2172.99C2174.38 113.738 2175.24 113.68 2175.59 113.562C2175.93 113.445 2176.2 113.243 2176.4 112.957C2176.59 112.671 2176.69 112.312 2176.69 111.883C2176.69 111.401 2176.56 111.014 2176.3 110.721C2176.04 110.421 2175.68 110.232 2175.21 110.154C2174.98 110.122 2174.28 110.105 2173.11 110.105H2170.85V113.738ZM2184.43 122V107.684H2187.24L2193.1 117.244V107.684H2195.79V122H2192.89L2187.12 112.664V122H2184.43Z" fill="#949494"/>
<rect x="2380" y="100" width="120" height="30" fill="#D9D9D9"/>
<path d="M2387.63 122V115.975L2382.38 107.684H2385.77L2389.14 113.348L2392.44 107.684H2395.77L2390.51 115.994V122H2387.63ZM2398.48 117.342L2401.29 117.068C2401.46 118.012 2401.8 118.706 2402.31 119.148C2402.84 119.591 2403.54 119.812 2404.41 119.812C2405.35 119.812 2406.04 119.617 2406.51 119.227C2406.99 118.829 2407.23 118.367 2407.23 117.84C2407.23 117.501 2407.13 117.215 2406.92 116.98C2406.73 116.74 2406.38 116.531 2405.89 116.355C2405.55 116.238 2404.78 116.03 2403.57 115.73C2402.02 115.346 2400.94 114.874 2400.31 114.314C2399.43 113.527 2398.99 112.566 2398.99 111.434C2398.99 110.704 2399.2 110.024 2399.61 109.393C2400.03 108.755 2400.62 108.27 2401.4 107.938C2402.18 107.605 2403.12 107.439 2404.22 107.439C2406.02 107.439 2407.37 107.833 2408.27 108.621C2409.18 109.409 2409.66 110.46 2409.71 111.775L2406.82 111.902C2406.69 111.167 2406.43 110.639 2406.02 110.32C2405.61 109.995 2405 109.832 2404.19 109.832C2403.35 109.832 2402.69 110.005 2402.22 110.35C2401.91 110.571 2401.76 110.867 2401.76 111.238C2401.76 111.577 2401.9 111.867 2402.19 112.107C2402.55 112.413 2403.44 112.732 2404.84 113.064C2406.25 113.396 2407.29 113.742 2407.96 114.1C2408.64 114.451 2409.16 114.936 2409.54 115.555C2409.93 116.167 2410.12 116.925 2410.12 117.83C2410.12 118.65 2409.89 119.419 2409.43 120.135C2408.98 120.851 2408.33 121.385 2407.5 121.736C2406.67 122.081 2405.63 122.254 2404.38 122.254C2402.57 122.254 2401.18 121.837 2400.21 121.004C2399.24 120.164 2398.67 118.943 2398.48 117.342ZM2401.77 125.936V124.783C2402.44 124.855 2403.05 124.891 2403.61 124.891C2404.19 124.891 2404.62 124.786 2404.9 124.578C2405.12 124.422 2405.22 124.22 2405.22 123.973C2405.22 123.751 2405.12 123.559 2404.92 123.396C2404.72 123.234 2404.41 123.152 2403.98 123.152C2403.57 123.152 2403.14 123.217 2402.71 123.348L2402.96 122.381C2403.47 122.205 2404.01 122.117 2404.6 122.117C2405.41 122.117 2406.03 122.296 2406.46 122.654C2406.88 123.012 2407.09 123.449 2407.09 123.963C2407.09 124.536 2406.86 125.001 2406.39 125.359C2405.76 125.848 2404.85 126.092 2403.67 126.092C2402.83 126.092 2402.2 126.04 2401.77 125.936ZM2414.46 122V107.684H2417.35V122H2414.46ZM2414.57 106.863V104.266H2417.26V106.863H2414.57ZM2422.19 122V107.801H2425.08V119.588H2432.27V122H2422.19ZM2436.34 122V107.684H2440.98C2442.74 107.684 2443.88 107.755 2444.42 107.898C2445.24 108.113 2445.93 108.582 2446.48 109.305C2447.03 110.021 2447.31 110.949 2447.31 112.088C2447.31 112.967 2447.15 113.706 2446.83 114.305C2446.51 114.904 2446.1 115.376 2445.61 115.721C2445.12 116.059 2444.62 116.284 2444.12 116.395C2443.43 116.531 2442.43 116.6 2441.12 116.6H2439.23V122H2436.34ZM2439.23 110.105V114.168H2440.81C2441.95 114.168 2442.72 114.093 2443.1 113.943C2443.48 113.794 2443.78 113.559 2444 113.24C2444.22 112.921 2444.33 112.55 2444.33 112.127C2444.33 111.606 2444.18 111.176 2443.87 110.838C2443.57 110.499 2443.18 110.288 2442.71 110.203C2442.36 110.138 2441.67 110.105 2440.63 110.105H2439.23ZM2451.71 122V107.684H2454.52L2460.38 117.244V107.684H2463.07V122H2460.17L2454.4 112.664V122H2451.71ZM2481.04 122H2477.9L2476.65 118.748H2470.93L2469.75 122H2466.68L2472.26 107.684H2475.31L2481.04 122ZM2475.72 116.336L2473.75 111.023L2471.82 116.336H2475.72ZM2484.6 122V107.684H2490.68C2492.21 107.684 2493.32 107.814 2494.01 108.074C2494.71 108.328 2495.26 108.784 2495.68 109.441C2496.1 110.099 2496.31 110.851 2496.31 111.697C2496.31 112.771 2495.99 113.66 2495.36 114.363C2494.73 115.06 2493.78 115.499 2492.53 115.682C2493.15 116.046 2493.67 116.447 2494.07 116.883C2494.48 117.319 2495.03 118.094 2495.72 119.207L2497.47 122H2494.01L2491.92 118.885C2491.18 117.771 2490.67 117.072 2490.4 116.785C2490.12 116.492 2489.84 116.294 2489.53 116.189C2489.22 116.079 2488.74 116.023 2488.07 116.023H2487.49V122H2484.6ZM2487.49 113.738H2489.63C2491.01 113.738 2491.88 113.68 2492.22 113.562C2492.57 113.445 2492.84 113.243 2493.04 112.957C2493.23 112.671 2493.33 112.312 2493.33 111.883C2493.33 111.401 2493.2 111.014 2492.94 110.721C2492.68 110.421 2492.32 110.232 2491.85 110.154C2491.62 110.122 2490.92 110.105 2489.74 110.105H2487.49V113.738Z" fill="#949494"/>
<rect x="2580" y="100" width="120" height="30" fill="#D9D9D9"/>
<path d="M2589.36 122V107.684H2592.25V114.041L2598.09 107.684H2601.98L2596.59 113.26L2602.27 122H2598.53L2594.6 115.281L2592.25 117.674V122H2589.36ZM2604.54 122V119.393L2612.05 110.105H2605.38V107.684H2615.86V109.93L2608.02 119.588H2616.17V122H2604.54ZM2619.96 122V107.684H2624.29L2626.89 117.449L2629.46 107.684H2633.79V122H2631.11V110.73L2628.26 122H2625.48L2622.65 110.73V122H2619.96ZM2646.27 122V107.684H2649.16V114.041L2655 107.684H2658.88L2653.49 113.26L2659.18 122H2655.44L2651.5 115.281L2649.16 117.674V122H2646.27ZM2662.69 122V107.684H2668.78C2670.31 107.684 2671.42 107.814 2672.11 108.074C2672.8 108.328 2673.36 108.784 2673.78 109.441C2674.19 110.099 2674.4 110.851 2674.4 111.697C2674.4 112.771 2674.08 113.66 2673.45 114.363C2672.82 115.06 2671.88 115.499 2670.62 115.682C2671.25 116.046 2671.76 116.447 2672.16 116.883C2672.57 117.319 2673.12 118.094 2673.81 119.207L2675.56 122H2672.11L2670.02 118.885C2669.27 117.771 2668.77 117.072 2668.49 116.785C2668.22 116.492 2667.93 116.294 2667.62 116.189C2667.32 116.079 2666.83 116.023 2666.17 116.023H2665.58V122H2662.69ZM2665.58 113.738H2667.72C2669.11 113.738 2669.97 113.68 2670.32 113.562C2670.66 113.445 2670.93 113.243 2671.13 112.957C2671.32 112.671 2671.42 112.312 2671.42 111.883C2671.42 111.401 2671.29 111.014 2671.03 110.721C2670.78 110.421 2670.42 110.232 2669.95 110.154C2669.71 110.122 2669.01 110.105 2667.84 110.105H2665.58V113.738ZM2679.14 107.684H2684.87C2686 107.684 2686.84 107.732 2687.4 107.83C2687.96 107.921 2688.45 108.117 2688.89 108.416C2689.33 108.715 2689.7 109.116 2689.99 109.617C2690.29 110.112 2690.43 110.669 2690.43 111.287C2690.43 111.958 2690.25 112.573 2689.89 113.133C2689.53 113.693 2689.04 114.113 2688.42 114.393C2689.29 114.646 2689.96 115.079 2690.43 115.691C2690.9 116.303 2691.14 117.023 2691.14 117.85C2691.14 118.501 2690.98 119.135 2690.68 119.754C2690.38 120.366 2689.96 120.857 2689.44 121.229C2688.92 121.593 2688.27 121.818 2687.5 121.902C2687.02 121.954 2685.86 121.987 2684.02 122H2679.14V107.684ZM2682.04 110.066V113.377H2683.93C2685.06 113.377 2685.76 113.361 2686.03 113.328C2686.52 113.27 2686.91 113.1 2687.19 112.82C2687.48 112.534 2687.62 112.16 2687.62 111.697C2687.62 111.255 2687.5 110.896 2687.25 110.623C2687.01 110.343 2686.65 110.174 2686.17 110.115C2685.88 110.083 2685.06 110.066 2683.7 110.066H2682.04ZM2682.04 115.76V119.588H2684.71C2685.75 119.588 2686.41 119.559 2686.69 119.5C2687.12 119.422 2687.47 119.233 2687.74 118.934C2688.01 118.628 2688.15 118.221 2688.15 117.713C2688.15 117.283 2688.04 116.919 2687.84 116.619C2687.63 116.32 2687.32 116.102 2686.93 115.965C2686.54 115.828 2685.68 115.76 2684.37 115.76H2682.04Z" fill="#949494"/>
<rect x="2880" y="100" width="120" height="30" fill="#D9D9D9"/>
<path d="M2887.08 122V115.975L2881.84 107.684H2885.23L2888.6 113.348L2891.9 107.684H2895.23L2889.96 115.994V122H2887.08ZM2898.69 122V107.684H2901.5L2907.36 117.244V107.684H2910.05V122H2907.15L2901.38 112.664V122H2898.69ZM2915.03 122V107.684H2917.92V122H2915.03ZM2915.13 106.863V104.266H2917.83V106.863H2915.13ZM2922.64 122V107.684H2926.97L2929.57 117.449L2932.13 107.684H2936.47V122H2933.79V110.73L2930.94 122H2928.16L2925.33 110.73V122H2922.64ZM2941.35 122V107.684H2944.24V113.318H2949.91V107.684H2952.8V122H2949.91V115.74H2944.24V122H2941.35ZM2957.87 122V107.801H2960.76V119.588H2967.95V122H2957.87ZM2972.1 122V107.801H2974.99V119.588H2982.18V122H2972.1ZM2986.25 122V107.684H2996.86V110.105H2989.14V113.279H2996.33V115.691H2989.14V119.588H2997.14V122H2986.25Z" fill="#949494"/>
<rect x="3080" y="100" width="120" height="30" fill="#D9D9D9"/>
<path d="M3082.24 122V107.684H3085.13V114.041L3090.97 107.684H3094.86L3089.46 113.26L3095.15 122H3091.41L3087.47 115.281L3085.13 117.674V122H3082.24ZM3111.56 122H3108.42L3107.17 118.748H3101.45L3100.26 122H3097.2L3102.77 107.684H3105.83L3111.56 122ZM3106.24 116.336L3104.27 111.023L3102.33 116.336H3106.24ZM3115.12 122V107.684H3121.2C3122.73 107.684 3123.84 107.814 3124.53 108.074C3125.23 108.328 3125.78 108.784 3126.2 109.441C3126.62 110.099 3126.82 110.851 3126.82 111.697C3126.82 112.771 3126.51 113.66 3125.88 114.363C3125.25 115.06 3124.3 115.499 3123.04 115.682C3123.67 116.046 3124.18 116.447 3124.59 116.883C3125 117.319 3125.55 118.094 3126.24 119.207L3127.99 122H3124.53L3122.44 118.885C3121.7 117.771 3121.19 117.072 3120.92 116.785C3120.64 116.492 3120.35 116.294 3120.05 116.189C3119.74 116.079 3119.26 116.023 3118.59 116.023H3118.01V122H3115.12ZM3118.01 113.738H3120.14C3121.53 113.738 3122.4 113.68 3122.74 113.562C3123.09 113.445 3123.36 113.243 3123.55 112.957C3123.75 112.671 3123.85 112.312 3123.85 111.883C3123.85 111.401 3123.72 111.014 3123.46 110.721C3123.2 110.421 3122.84 110.232 3122.37 110.154C3122.14 110.122 3121.43 110.105 3120.26 110.105H3118.01V113.738ZM3144.47 122H3141.32L3140.07 118.748H3134.35L3133.17 122H3130.1L3135.68 107.684H3138.74L3144.47 122ZM3139.15 116.336L3137.17 111.023L3135.24 116.336H3139.15ZM3148 107.684H3153.29C3154.48 107.684 3155.38 107.775 3156.01 107.957C3156.85 108.204 3157.57 108.644 3158.17 109.275C3158.77 109.907 3159.22 110.682 3159.54 111.6C3159.85 112.511 3160 113.637 3160 114.979C3160 116.157 3159.86 117.173 3159.56 118.025C3159.21 119.067 3158.7 119.91 3158.03 120.555C3157.53 121.043 3156.85 121.424 3156 121.697C3155.36 121.899 3154.51 122 3153.44 122H3148V107.684ZM3150.89 110.105V119.588H3153.05C3153.86 119.588 3154.44 119.542 3154.8 119.451C3155.27 119.334 3155.65 119.135 3155.96 118.855C3156.27 118.576 3156.53 118.117 3156.72 117.479C3156.92 116.834 3157.02 115.958 3157.02 114.852C3157.02 113.745 3156.92 112.895 3156.72 112.303C3156.53 111.71 3156.25 111.248 3155.9 110.916C3155.55 110.584 3155.1 110.359 3154.56 110.242C3154.16 110.151 3153.37 110.105 3152.19 110.105H3150.89ZM3164.49 122V107.684H3167.31L3173.17 117.244V107.684H3175.85V122H3172.95L3167.18 112.664V122H3164.49ZM3180.83 122V107.684H3183.72V122H3180.83ZM3180.94 106.863V104.266H3183.63V106.863H3180.94ZM3187.24 122V119.393L3194.76 110.105H3188.09V107.684H3198.57V109.93L3190.73 119.588H3198.88V122H3187.24Z" fill="#949494"/>
<rect x="3380" y="100" width="120" height="30" fill="#D9D9D9"/>
<path d="M3384.88 122V110.105H3380.63V107.684H3392V110.105H3387.77V122H3384.88ZM3395.92 122V107.684H3398.81V114.041L3404.65 107.684H3408.54L3403.14 113.26L3408.83 122H3405.09L3401.15 115.281L3398.81 117.674V122H3395.92ZM3411.6 117.342L3414.41 117.068C3414.58 118.012 3414.92 118.706 3415.44 119.148C3415.96 119.591 3416.66 119.812 3417.54 119.812C3418.47 119.812 3419.17 119.617 3419.64 119.227C3420.11 118.829 3420.35 118.367 3420.35 117.84C3420.35 117.501 3420.25 117.215 3420.05 116.98C3419.85 116.74 3419.51 116.531 3419.01 116.355C3418.67 116.238 3417.9 116.03 3416.7 115.73C3415.15 115.346 3414.06 114.874 3413.44 114.314C3412.56 113.527 3412.12 112.566 3412.12 111.434C3412.12 110.704 3412.32 110.024 3412.73 109.393C3413.15 108.755 3413.74 108.27 3414.52 107.938C3415.3 107.605 3416.24 107.439 3417.34 107.439C3419.14 107.439 3420.49 107.833 3421.39 108.621C3422.31 109.409 3422.78 110.46 3422.83 111.775L3419.94 111.902C3419.82 111.167 3419.55 110.639 3419.14 110.32C3418.74 109.995 3418.13 109.832 3417.31 109.832C3416.47 109.832 3415.82 110.005 3415.34 110.35C3415.03 110.571 3414.88 110.867 3414.88 111.238C3414.88 111.577 3415.02 111.867 3415.31 112.107C3415.68 112.413 3416.56 112.732 3417.97 113.064C3419.37 113.396 3420.41 113.742 3421.08 114.1C3421.76 114.451 3422.29 114.936 3422.66 115.555C3423.05 116.167 3423.24 116.925 3423.24 117.83C3423.24 118.65 3423.01 119.419 3422.56 120.135C3422.1 120.851 3421.46 121.385 3420.62 121.736C3419.79 122.081 3418.75 122.254 3417.51 122.254C3415.7 122.254 3414.31 121.837 3413.34 121.004C3412.37 120.164 3411.79 118.943 3411.6 117.342ZM3430.89 122V110.105H3426.65V107.684H3438.02V110.105H3433.79V122H3430.89ZM3441.98 122V107.801H3444.87V119.588H3452.05V122H3441.98ZM3456.16 122V107.684H3459.05V114.041L3464.89 107.684H3468.78L3463.39 113.26L3469.07 122H3465.33L3461.4 115.281L3459.05 117.674V122H3456.16ZM3472.61 122V107.684H3475.42L3481.28 117.244V107.684H3483.96V122H3481.06L3475.29 112.664V122H3472.61ZM3492.25 122V110.105H3488.01V107.684H3499.38V110.105H3495.14V122H3492.25Z" fill="#949494"/>
<rect x="3680" y="100" width="120" height="30" fill="#D9D9D9"/>
<path d="M3685.5 114.93C3685.5 113.471 3685.72 112.247 3686.15 111.258C3686.48 110.529 3686.92 109.874 3687.48 109.295C3688.05 108.715 3688.67 108.286 3689.34 108.006C3690.23 107.628 3691.26 107.439 3692.42 107.439C3694.53 107.439 3696.22 108.094 3697.48 109.402C3698.75 110.711 3699.39 112.531 3699.39 114.861C3699.39 117.173 3698.76 118.982 3697.5 120.291C3696.25 121.593 3694.57 122.244 3692.46 122.244C3690.33 122.244 3688.64 121.596 3687.38 120.301C3686.13 118.999 3685.5 117.208 3685.5 114.93ZM3688.48 114.832C3688.48 116.453 3688.85 117.684 3689.6 118.523C3690.35 119.357 3691.3 119.773 3692.45 119.773C3693.61 119.773 3694.55 119.36 3695.29 118.533C3696.03 117.7 3696.4 116.453 3696.4 114.793C3696.4 113.152 3696.04 111.928 3695.31 111.121C3694.6 110.314 3693.64 109.91 3692.45 109.91C3691.26 109.91 3690.3 110.32 3689.57 111.141C3688.84 111.954 3688.48 113.185 3688.48 114.832ZM3703.66 122V107.684H3709.75C3711.28 107.684 3712.39 107.814 3713.08 108.074C3713.77 108.328 3714.33 108.784 3714.75 109.441C3715.16 110.099 3715.37 110.851 3715.37 111.697C3715.37 112.771 3715.06 113.66 3714.42 114.363C3713.79 115.06 3712.85 115.499 3711.59 115.682C3712.22 116.046 3712.73 116.447 3713.13 116.883C3713.54 117.319 3714.1 118.094 3714.79 119.207L3716.53 122H3713.08L3710.99 118.885C3710.24 117.771 3709.74 117.072 3709.46 116.785C3709.19 116.492 3708.9 116.294 3708.59 116.189C3708.29 116.079 3707.8 116.023 3707.14 116.023H3706.55V122H3703.66ZM3706.55 113.738H3708.69C3710.08 113.738 3710.94 113.68 3711.29 113.562C3711.63 113.445 3711.9 113.243 3712.1 112.957C3712.29 112.671 3712.39 112.312 3712.39 111.883C3712.39 111.401 3712.26 111.014 3712 110.721C3711.75 110.421 3711.39 110.232 3710.92 110.154C3710.68 110.122 3709.98 110.105 3708.81 110.105H3706.55V113.738ZM3729.27 116.736L3732.07 117.625C3731.64 119.188 3730.92 120.35 3729.92 121.111C3728.92 121.867 3727.66 122.244 3726.12 122.244C3724.22 122.244 3722.66 121.596 3721.43 120.301C3720.21 118.999 3719.6 117.221 3719.6 114.969C3719.6 112.586 3720.21 110.737 3721.44 109.422C3722.67 108.1 3724.29 107.439 3726.3 107.439C3728.05 107.439 3729.47 107.957 3730.56 108.992C3731.22 109.604 3731.7 110.483 3732.03 111.629L3729.17 112.312C3729 111.57 3728.64 110.984 3728.1 110.555C3727.57 110.125 3726.92 109.91 3726.15 109.91C3725.09 109.91 3724.23 110.291 3723.56 111.053C3722.9 111.814 3722.58 113.048 3722.58 114.754C3722.58 116.564 3722.9 117.853 3723.55 118.621C3724.2 119.389 3725.05 119.773 3726.09 119.773C3726.86 119.773 3727.52 119.529 3728.07 119.041C3728.63 118.553 3729.02 117.785 3729.27 116.736ZM3723.19 125.936V124.783C3723.86 124.855 3724.48 124.891 3725.04 124.891C3725.62 124.891 3726.05 124.786 3726.33 124.578C3726.54 124.422 3726.65 124.22 3726.65 123.973C3726.65 123.751 3726.55 123.559 3726.35 123.396C3726.14 123.234 3725.83 123.152 3725.41 123.152C3724.99 123.152 3724.57 123.217 3724.13 123.348L3724.38 122.381C3724.89 122.205 3725.44 122.117 3726.02 122.117C3726.84 122.117 3727.46 122.296 3727.88 122.654C3728.3 123.012 3728.51 123.449 3728.51 123.963C3728.51 124.536 3728.28 125.001 3727.81 125.359C3727.18 125.848 3726.27 126.092 3725.1 126.092C3724.26 126.092 3723.62 126.04 3723.19 125.936ZM3744.13 122V107.684H3750.22C3751.75 107.684 3752.86 107.814 3753.55 108.074C3754.25 108.328 3754.8 108.784 3755.22 109.441C3755.64 110.099 3755.84 110.851 3755.84 111.697C3755.84 112.771 3755.53 113.66 3754.9 114.363C3754.26 115.06 3753.32 115.499 3752.06 115.682C3752.69 116.046 3753.2 116.447 3753.61 116.883C3754.02 117.319 3754.57 118.094 3755.26 119.207L3757.01 122H3753.55L3751.46 118.885C3750.72 117.771 3750.21 117.072 3749.94 116.785C3749.66 116.492 3749.37 116.294 3749.07 116.189C3748.76 116.079 3748.28 116.023 3747.61 116.023H3747.03V122H3744.13ZM3747.03 113.738H3749.16C3750.55 113.738 3751.42 113.68 3751.76 113.562C3752.11 113.445 3752.38 113.243 3752.57 112.957C3752.77 112.671 3752.87 112.312 3752.87 111.883C3752.87 111.401 3752.74 111.014 3752.47 110.721C3752.22 110.421 3751.86 110.232 3751.39 110.154C3751.16 110.122 3750.45 110.105 3749.28 110.105H3747.03V113.738ZM3760.58 122V107.684H3771.19V110.105H3763.47V113.279H3770.66V115.691H3763.47V119.588H3771.47V122H3760.58ZM3775.83 122V107.684H3778.72V122H3775.83ZM3775.94 106.863V104.266H3778.63V106.863H3775.94ZM3782.75 117.342L3785.56 117.068C3785.73 118.012 3786.08 118.706 3786.59 119.148C3787.11 119.591 3787.81 119.812 3788.69 119.812C3789.62 119.812 3790.32 119.617 3790.79 119.227C3791.26 118.829 3791.5 118.367 3791.5 117.84C3791.5 117.501 3791.4 117.215 3791.2 116.98C3791 116.74 3790.66 116.531 3790.16 116.355C3789.83 116.238 3789.05 116.03 3787.85 115.73C3786.3 115.346 3785.21 114.874 3784.59 114.314C3783.71 113.527 3783.27 112.566 3783.27 111.434C3783.27 110.704 3783.47 110.024 3783.88 109.393C3784.3 108.755 3784.9 108.27 3785.67 107.938C3786.45 107.605 3787.39 107.439 3788.49 107.439C3790.29 107.439 3791.64 107.833 3792.55 108.621C3793.46 109.409 3793.94 110.46 3793.98 111.775L3791.09 111.902C3790.97 111.167 3790.7 110.639 3790.29 110.32C3789.89 109.995 3789.28 109.832 3788.46 109.832C3787.62 109.832 3786.97 110.005 3786.49 110.35C3786.19 110.571 3786.03 110.867 3786.03 111.238C3786.03 111.577 3786.18 111.867 3786.46 112.107C3786.83 112.413 3787.71 112.732 3789.12 113.064C3790.53 113.396 3791.56 113.742 3792.23 114.1C3792.91 114.451 3793.44 114.936 3793.82 115.555C3794.2 116.167 3794.39 116.925 3794.39 117.83C3794.39 118.65 3794.16 119.419 3793.71 120.135C3793.25 120.851 3792.61 121.385 3791.78 121.736C3790.94 122.081 3789.9 122.254 3788.66 122.254C3786.85 122.254 3785.46 121.837 3784.49 121.004C3783.52 120.164 3782.94 118.943 3782.75 117.342Z" fill="#949494"/>
<rect x="3880" y="100" width="120" height="30" fill="#D9D9D9"/>
<path d="M3904.64 122V115.975L3899.39 107.684H3902.78L3906.15 113.348L3909.45 107.684H3912.78L3907.52 115.994V122H3904.64ZM3916.2 107.684H3919.09V115.438C3919.09 116.668 3919.13 117.465 3919.2 117.83C3919.32 118.416 3919.61 118.888 3920.08 119.246C3920.54 119.598 3921.18 119.773 3921.99 119.773C3922.81 119.773 3923.43 119.607 3923.85 119.275C3924.26 118.937 3924.51 118.523 3924.6 118.035C3924.68 117.547 3924.72 116.736 3924.72 115.604V107.684H3927.62V115.203C3927.62 116.922 3927.54 118.136 3927.38 118.846C3927.22 119.555 3926.93 120.154 3926.51 120.643C3926.1 121.131 3925.54 121.521 3924.83 121.814C3924.13 122.101 3923.21 122.244 3922.08 122.244C3920.71 122.244 3919.67 122.088 3918.96 121.775C3918.26 121.456 3917.7 121.046 3917.29 120.545C3916.88 120.037 3916.61 119.507 3916.48 118.953C3916.29 118.133 3916.2 116.922 3916.2 115.32V107.684ZM3918.66 106.863V104.51H3921.01V106.863H3918.66ZM3922.86 106.863V104.51H3925.22V106.863H3922.86ZM3931.43 122V119.393L3938.95 110.105H3932.28V107.684H3942.76V109.93L3934.92 119.588H3943.06V122H3931.43ZM3950.66 122V115.975L3945.41 107.684H3948.8L3952.17 113.348L3955.47 107.684H3958.8L3953.54 115.994V122H3950.66ZM3962.15 122V107.684H3965.04V122H3962.15ZM3969.88 122V107.801H3972.77V119.588H3979.96V122H3969.88Z" fill="#949494"/>
<rect x="4180" y="100" width="120" height="30" fill="#D9D9D9"/>
<path d="M4184.85 122V107.684H4189.18L4191.77 117.449L4194.34 107.684H4198.68V122H4195.99V110.73L4193.15 122H4190.37L4187.54 110.73V122H4184.85ZM4203.56 122V107.684H4206.45V113.318H4212.11V107.684H4215V122H4212.11V115.74H4206.45V122H4203.56ZM4219.96 122V107.684H4224.29L4226.89 117.449L4229.46 107.684H4233.79V122H4231.11V110.73L4228.26 122H4225.48L4222.65 110.73V122H4219.96ZM4241.88 122V110.105H4237.64V107.684H4249.01V110.105H4244.78V122H4241.88ZM4252.9 107.684H4258.62C4259.75 107.684 4260.6 107.732 4261.15 107.83C4261.71 107.921 4262.21 108.117 4262.64 108.416C4263.09 108.715 4263.46 109.116 4263.75 109.617C4264.04 110.112 4264.19 110.669 4264.19 111.287C4264.19 111.958 4264.01 112.573 4263.64 113.133C4263.28 113.693 4262.79 114.113 4262.18 114.393C4263.05 114.646 4263.72 115.079 4264.19 115.691C4264.66 116.303 4264.89 117.023 4264.89 117.85C4264.89 118.501 4264.74 119.135 4264.43 119.754C4264.13 120.366 4263.72 120.857 4263.19 121.229C4262.67 121.593 4262.03 121.818 4261.26 121.902C4260.78 121.954 4259.61 121.987 4257.77 122H4252.9V107.684ZM4255.79 110.066V113.377H4257.68C4258.81 113.377 4259.51 113.361 4259.78 113.328C4260.28 113.27 4260.67 113.1 4260.95 112.82C4261.23 112.534 4261.38 112.16 4261.38 111.697C4261.38 111.255 4261.25 110.896 4261 110.623C4260.76 110.343 4260.4 110.174 4259.92 110.115C4259.63 110.083 4258.81 110.066 4257.45 110.066H4255.79ZM4255.79 115.76V119.588H4258.46C4259.51 119.588 4260.17 119.559 4260.45 119.5C4260.88 119.422 4261.23 119.233 4261.49 118.934C4261.77 118.628 4261.9 118.221 4261.9 117.713C4261.9 117.283 4261.8 116.919 4261.59 116.619C4261.38 116.32 4261.08 116.102 4260.68 115.965C4260.29 115.828 4259.44 115.76 4258.12 115.76H4255.79ZM4269.34 122V107.684H4279.96V110.105H4272.23V113.279H4279.42V115.691H4272.23V119.588H4280.23V122H4269.34ZM4288.44 122V115.975L4283.2 107.684H4286.59L4289.96 113.348L4293.26 107.684H4296.59L4291.32 115.994V122H4288.44Z" fill="#949494"/>
<path d="M800 80.0713L807.071 73.0002L884.146 150.075L877.075 157.146L800 80.0713Z" fill="#949494"/>
<path d="M877.075 73.0002L884.146 80.0713L807.071 157.146L800 150.075L877.075 73.0002Z" fill="#949494"/>
<path d="M1580 80.071L1587.07 73L1664.15 150.075L1657.08 157.146L1580 80.071Z" fill="#949494"/>
<path d="M1657.07 73L1664.15 80.0711L1587.07 157.146L1580 150.075L1657.07 73Z" fill="#949494"/>
<path d="M2280 80.071L2287.07 73L2364.15 150.075L2357.07 157.146L2280 80.071Z" fill="#949494"/>
<path d="M2357.07 73L2364.15 80.0711L2287.07 157.146L2280 150.075L2357.07 73Z" fill="#949494"/>
<path d="M2780 80.071L2787.07 73L2864.15 150.075L2857.07 157.146L2780 80.071Z" fill="#949494"/>
<path d="M2857.07 73L2864.15 80.0711L2787.07 157.146L2780 150.075L2857.07 73Z" fill="#949494"/>
<path d="M3510 80.071L3517.07 73L3594.15 150.075L3587.07 157.146L3510 80.071Z" fill="#949494"/>
<path d="M3363 73L3370.07 80.0711L3293 157.146L3285.93 150.075L3363 73Z" fill="#949494"/>
<path d="M4080 80.071L4087.07 73L4164.15 150.075L4157.07 157.146L4080 80.071Z" fill="#949494"/>
<path d="M4157.07 73L4164.15 80.0711L4087.07 157.146L4080 150.075L4157.07 73Z" fill="#949494"/>
<line x1="480" y1="115" x2="580" y2="115" stroke="#949494" stroke-width="10"/>
<rect x="575" y="110" width="52.5" height="10" transform="rotate(-45 575 110)" fill="#949494"/>
<rect x="582.071" y="112.877" width="52.5" height="10" transform="rotate(45 582.071 112.877)" fill="#949494"/>
<line x1="80" y1="155" x2="4300" y2="155" stroke="#949494" stroke-width="10"/>
<line x1="80" y1="75" x2="4300" y2="75" stroke="#949494" stroke-width="10"/>
<path d="M3603.36 160L3610.43 152.929L3645.78 188.284L3638.71 195.355L3603.36 160Z" fill="#949494"/>
<path d="M3268.36 152.998L3275.43 160.069L3240.07 195.425L3233 188.354L3268.36 152.998Z" fill="#949494"/>
</svg>
