<svg width="573" height="388" viewBox="0 0 573 388" fill="none" xmlns="http://www.w3.org/2000/svg">
<path d="M100 100H463" stroke="#4DA93E" stroke-width="20"/>
<path d="M291 100L322.983 100C322.983 100 343.267 111.345 352.467 123C362.206 135.34 369.457 159.5 369.457 159.5L379.952 200.5C379.952 200.5 387.088 224.034 394.943 237.5C401.889 249.407 406.082 256.399 416.432 265.5C426.161 274.055 432.758 278.032 444.916 282.5C456.091 286.606 474.9 288 474.9 288H491.5" stroke="#E81F76" stroke-width="20"/>
<path d="M100 100H281.5H341.547" stroke="url(#paint0_linear_495_5703)" stroke-width="20"/>
<circle cx="288" cy="100" r="24" fill="black"/>
<ellipse cx="288.001" cy="99.9939" rx="19.2" ry="19.2" fill="white"/>
<circle cx="473" cy="100" r="24" fill="black"/>
<ellipse cx="473.001" cy="99.9939" rx="19.2" ry="19.2" fill="white"/>
<path d="M18.8995 44.32V48.76H26.6755V51.88H18.8995V58H15.0115V41.2H27.7075V44.32H18.8995ZM42.3955 51.592C42.3955 51.64 42.3715 51.976 42.3235 52.6H32.5555C32.7315 53.4 33.1475 54.032 33.8035 54.496C34.4595 54.96 35.2755 55.192 36.2515 55.192C36.9235 55.192 37.5155 55.096 38.0275 54.904C38.5555 54.696 39.0435 54.376 39.4915 53.944L41.4835 56.104C40.2675 57.496 38.4915 58.192 36.1555 58.192C34.6995 58.192 33.4115 57.912 32.2915 57.352C31.1715 56.776 30.3075 55.984 29.6995 54.976C29.0915 53.968 28.7875 52.824 28.7875 51.544C28.7875 50.28 29.0835 49.144 29.6755 48.136C30.2835 47.112 31.1075 46.32 32.1475 45.76C33.2035 45.184 34.3795 44.896 35.6755 44.896C36.9395 44.896 38.0835 45.168 39.1075 45.712C40.1315 46.256 40.9315 47.04 41.5075 48.064C42.0995 49.072 42.3955 50.248 42.3955 51.592ZM35.6995 47.728C34.8515 47.728 34.1395 47.968 33.5635 48.448C32.9875 48.928 32.6355 49.584 32.5075 50.416H38.8675C38.7395 49.6 38.3875 48.952 37.8115 48.472C37.2355 47.976 36.5315 47.728 35.6995 47.728ZM57.4698 45.088L52.0218 58H48.1578L42.7338 45.088H46.5978L50.1738 53.872L53.8698 45.088H57.4698ZM69.3952 55.12V58H57.8752V55.744L64.4512 47.968H58.0432V45.088H69.1792V47.344L62.6032 55.12H69.3952ZM71.7944 45.088H75.5384V58H71.7944V45.088ZM73.6664 43.288C72.9784 43.288 72.4184 43.088 71.9864 42.688C71.5544 42.288 71.3384 41.792 71.3384 41.2C71.3384 40.608 71.5544 40.112 71.9864 39.712C72.4184 39.312 72.9784 39.112 73.6664 39.112C74.3544 39.112 74.9144 39.304 75.3464 39.688C75.7784 40.072 75.9944 40.552 75.9944 41.128C75.9944 41.752 75.7784 42.272 75.3464 42.688C74.9144 43.088 74.3544 43.288 73.6664 43.288ZM94.114 58.288C92.402 58.288 90.85 57.92 89.458 57.184C88.082 56.432 86.994 55.4 86.194 54.088C85.41 52.76 85.018 51.264 85.018 49.6C85.018 47.936 85.41 46.448 86.194 45.136C86.994 43.808 88.082 42.776 89.458 42.04C90.85 41.288 92.41 40.912 94.138 40.912C95.594 40.912 96.906 41.168 98.074 41.68C99.258 42.192 100.25 42.928 101.05 43.888L98.554 46.192C97.418 44.88 96.01 44.224 94.33 44.224C93.29 44.224 92.362 44.456 91.546 44.92C90.73 45.368 90.09 46 89.626 46.816C89.178 47.632 88.954 48.56 88.954 49.6C88.954 50.64 89.178 51.568 89.626 52.384C90.09 53.2 90.73 53.84 91.546 54.304C92.362 54.752 93.29 54.976 94.33 54.976C96.01 54.976 97.418 54.312 98.554 52.984L101.05 55.288C100.25 56.264 99.258 57.008 98.074 57.52C96.89 58.032 95.57 58.288 94.114 58.288ZM92.818 63.568C92.402 63.568 91.994 63.52 91.594 63.424C91.194 63.344 90.858 63.224 90.586 63.064L91.162 61.456C91.674 61.696 92.194 61.816 92.722 61.816C93.554 61.816 93.97 61.56 93.97 61.048C93.97 60.584 93.578 60.352 92.794 60.352H91.978L92.602 57.808H94.594L94.258 59.2C94.962 59.28 95.482 59.496 95.818 59.848C96.17 60.216 96.346 60.664 96.346 61.192C96.346 61.928 96.026 62.504 95.386 62.92C94.746 63.352 93.89 63.568 92.818 63.568ZM108.526 44.896C110.526 44.896 112.062 45.376 113.134 46.336C114.206 47.28 114.742 48.712 114.742 50.632V58H111.238V56.392C110.534 57.592 109.222 58.192 107.302 58.192C106.31 58.192 105.446 58.024 104.71 57.688C103.99 57.352 103.438 56.888 103.054 56.296C102.67 55.704 102.478 55.032 102.478 54.28C102.478 53.08 102.926 52.136 103.822 51.448C104.734 50.76 106.134 50.416 108.022 50.416H110.998C110.998 49.6 110.75 48.976 110.254 48.544C109.758 48.096 109.014 47.872 108.022 47.872C107.334 47.872 106.654 47.984 105.982 48.208C105.326 48.416 104.766 48.704 104.302 49.072L102.958 46.456C103.662 45.96 104.502 45.576 105.478 45.304C106.47 45.032 107.486 44.896 108.526 44.896ZM108.238 55.672C108.878 55.672 109.446 55.528 109.942 55.24C110.438 54.936 110.79 54.496 110.998 53.92V52.6H108.43C106.894 52.6 106.126 53.104 106.126 54.112C106.126 54.592 106.31 54.976 106.678 55.264C107.062 55.536 107.582 55.672 108.238 55.672ZM123.674 52.936L121.874 54.712V58H118.13V40.192H121.874V50.272L127.346 45.088H131.81L126.434 50.56L132.29 58H127.754L123.674 52.936ZM150.416 44.896C152.032 44.896 153.312 45.376 154.256 46.336C155.216 47.28 155.696 48.704 155.696 50.608V58H151.952V51.184C151.952 50.16 151.736 49.4 151.304 48.904C150.888 48.392 150.288 48.136 149.504 48.136C148.624 48.136 147.928 48.424 147.416 49C146.904 49.56 146.648 50.4 146.648 51.52V58H142.904V51.184C142.904 49.152 142.088 48.136 140.456 48.136C139.592 48.136 138.904 48.424 138.392 49C137.88 49.56 137.624 50.4 137.624 51.52V58H133.88V45.088H137.456V46.576C137.936 46.032 138.52 45.616 139.208 45.328C139.912 45.04 140.68 44.896 141.512 44.896C142.424 44.896 143.248 45.08 143.984 45.448C144.72 45.8 145.312 46.32 145.76 47.008C146.288 46.336 146.952 45.816 147.752 45.448C148.568 45.08 149.456 44.896 150.416 44.896ZM164.26 44.896C166.26 44.896 167.796 45.376 168.868 46.336C169.94 47.28 170.476 48.712 170.476 50.632V58H166.972V56.392C166.268 57.592 164.956 58.192 163.036 58.192C162.044 58.192 161.18 58.024 160.444 57.688C159.724 57.352 159.172 56.888 158.788 56.296C158.404 55.704 158.212 55.032 158.212 54.28C158.212 53.08 158.66 52.136 159.556 51.448C160.468 50.76 161.868 50.416 163.756 50.416H166.732C166.732 49.6 166.484 48.976 165.988 48.544C165.492 48.096 164.748 47.872 163.756 47.872C163.068 47.872 162.388 47.984 161.716 48.208C161.06 48.416 160.5 48.704 160.036 49.072L158.692 46.456C159.396 45.96 160.236 45.576 161.212 45.304C162.204 45.032 163.22 44.896 164.26 44.896ZM163.972 55.672C164.612 55.672 165.18 55.528 165.676 55.24C166.172 54.936 166.524 54.496 166.732 53.92V52.6H164.164C162.628 52.6 161.86 53.104 161.86 54.112C161.86 54.592 162.044 54.976 162.412 55.264C162.796 55.536 163.316 55.672 163.972 55.672ZM179.409 52.936L177.609 54.712V58H173.865V40.192H177.609V50.272L183.081 45.088H187.545L182.169 50.56L188.025 58H183.489L179.409 52.936Z" fill="black"/>
<path d="M238.147 22.4L235.891 24.752V29H232.027V12.2H235.891V20.048L243.331 12.2H247.651L240.691 19.688L248.059 29H243.523L238.147 22.4ZM254.456 15.896C256.456 15.896 257.992 16.376 259.064 17.336C260.136 18.28 260.672 19.712 260.672 21.632V29H257.168V27.392C256.464 28.592 255.152 29.192 253.232 29.192C252.24 29.192 251.376 29.024 250.64 28.688C249.92 28.352 249.368 27.888 248.984 27.296C248.6 26.704 248.408 26.032 248.408 25.28C248.408 24.08 248.856 23.136 249.752 22.448C250.664 21.76 252.064 21.416 253.952 21.416H256.928C256.928 20.6 256.68 19.976 256.184 19.544C255.688 19.096 254.944 18.872 253.952 18.872C253.264 18.872 252.584 18.984 251.912 19.208C251.256 19.416 250.696 19.704 250.232 20.072L248.888 17.456C249.592 16.96 250.432 16.576 251.408 16.304C252.4 16.032 253.416 15.896 254.456 15.896ZM254.168 26.672C254.808 26.672 255.376 26.528 255.872 26.24C256.368 25.936 256.72 25.496 256.928 24.92V23.6H254.36C252.824 23.6 252.056 24.104 252.056 25.112C252.056 25.592 252.24 25.976 252.608 26.264C252.992 26.536 253.512 26.672 254.168 26.672ZM276.642 16.088L270.81 29.792C270.218 31.28 269.482 32.328 268.602 32.936C267.738 33.544 266.69 33.848 265.458 33.848C264.786 33.848 264.122 33.744 263.466 33.536C262.81 33.328 262.274 33.04 261.858 32.672L263.226 30.008C263.514 30.264 263.842 30.464 264.21 30.608C264.594 30.752 264.97 30.824 265.338 30.824C265.85 30.824 266.266 30.696 266.586 30.44C266.906 30.2 267.194 29.792 267.45 29.216L267.498 29.096L261.906 16.088H265.77L269.394 24.848L273.042 16.088H276.642ZM286.017 15.896C287.617 15.896 288.905 16.376 289.881 17.336C290.873 18.296 291.369 19.72 291.369 21.608V29H287.625V22.184C287.625 21.16 287.401 20.4 286.953 19.904C286.505 19.392 285.857 19.136 285.009 19.136C284.065 19.136 283.313 19.432 282.753 20.024C282.193 20.6 281.913 21.464 281.913 22.616V29H278.169V16.088H281.745V17.6C282.241 17.056 282.857 16.64 283.593 16.352C284.329 16.048 285.137 15.896 286.017 15.896ZM299.971 15.896C301.971 15.896 303.507 16.376 304.579 17.336C305.651 18.28 306.187 19.712 306.187 21.632V29H302.683V27.392C301.979 28.592 300.667 29.192 298.747 29.192C297.755 29.192 296.891 29.024 296.155 28.688C295.435 28.352 294.883 27.888 294.499 27.296C294.115 26.704 293.923 26.032 293.923 25.28C293.923 24.08 294.371 23.136 295.267 22.448C296.179 21.76 297.579 21.416 299.467 21.416H302.443C302.443 20.6 302.195 19.976 301.699 19.544C301.203 19.096 300.459 18.872 299.467 18.872C298.779 18.872 298.099 18.984 297.427 19.208C296.771 19.416 296.211 19.704 295.747 20.072L294.403 17.456C295.107 16.96 295.947 16.576 296.923 16.304C297.915 16.032 298.931 15.896 299.971 15.896ZM299.683 26.672C300.323 26.672 300.891 26.528 301.387 26.24C301.883 25.936 302.235 25.496 302.443 24.92V23.6H299.875C298.339 23.6 297.571 24.104 297.571 25.112C297.571 25.592 297.755 25.976 298.123 26.264C298.507 26.536 299.027 26.672 299.683 26.672ZM313.152 17.792C313.6 17.168 314.2 16.696 314.952 16.376C315.72 16.056 316.6 15.896 317.592 15.896V19.352C317.176 19.32 316.896 19.304 316.752 19.304C315.68 19.304 314.84 19.608 314.232 20.216C313.624 20.808 313.32 21.704 313.32 22.904V29H309.576V16.088H313.152V17.792ZM325.941 29.192C324.565 29.192 323.325 28.912 322.221 28.352C321.133 27.776 320.277 26.984 319.653 25.976C319.045 24.968 318.741 23.824 318.741 22.544C318.741 21.264 319.045 20.12 319.653 19.112C320.277 18.104 321.133 17.32 322.221 16.76C323.325 16.184 324.565 15.896 325.941 15.896C327.301 15.896 328.485 16.184 329.493 16.76C330.517 17.32 331.261 18.128 331.725 19.184L328.821 20.744C328.149 19.56 327.181 18.968 325.917 18.968C324.941 18.968 324.133 19.288 323.493 19.928C322.853 20.568 322.533 21.44 322.533 22.544C322.533 23.648 322.853 24.52 323.493 25.16C324.133 25.8 324.941 26.12 325.917 26.12C327.197 26.12 328.165 25.528 328.821 24.344L331.725 25.928C331.261 26.952 330.517 27.752 329.493 28.328C328.485 28.904 327.301 29.192 325.941 29.192ZM339.088 15.896C341.088 15.896 342.624 16.376 343.696 17.336C344.768 18.28 345.304 19.712 345.304 21.632V29H341.8V27.392C341.096 28.592 339.784 29.192 337.864 29.192C336.872 29.192 336.008 29.024 335.272 28.688C334.552 28.352 334 27.888 333.616 27.296C333.232 26.704 333.04 26.032 333.04 25.28C333.04 24.08 333.488 23.136 334.384 22.448C335.296 21.76 336.696 21.416 338.584 21.416H341.56C341.56 20.6 341.312 19.976 340.816 19.544C340.32 19.096 339.576 18.872 338.584 18.872C337.896 18.872 337.216 18.984 336.544 19.208C335.888 19.416 335.328 19.704 334.864 20.072L333.52 17.456C334.224 16.96 335.064 16.576 336.04 16.304C337.032 16.032 338.048 15.896 339.088 15.896ZM338.8 26.672C339.44 26.672 340.008 26.528 340.504 26.24C341 25.936 341.352 25.496 341.56 24.92V23.6H338.992C337.456 23.6 336.688 24.104 336.688 25.112C336.688 25.592 336.872 25.976 337.24 26.264C337.624 26.536 338.144 26.672 338.8 26.672ZM259.96 58L259.936 47.92L254.992 56.224H253.24L248.32 48.136V58H244.672V41.2H247.888L254.176 51.64L260.368 41.2H263.56L263.608 58H259.96ZM279.978 51.592C279.978 51.64 279.954 51.976 279.906 52.6H270.138C270.314 53.4 270.73 54.032 271.386 54.496C272.042 54.96 272.858 55.192 273.834 55.192C274.506 55.192 275.098 55.096 275.61 54.904C276.138 54.696 276.626 54.376 277.074 53.944L279.066 56.104C277.85 57.496 276.074 58.192 273.738 58.192C272.282 58.192 270.994 57.912 269.874 57.352C268.754 56.776 267.89 55.984 267.282 54.976C266.674 53.968 266.37 52.824 266.37 51.544C266.37 50.28 266.666 49.144 267.258 48.136C267.866 47.112 268.69 46.32 269.73 45.76C270.786 45.184 271.962 44.896 273.258 44.896C274.522 44.896 275.666 45.168 276.69 45.712C277.714 46.256 278.514 47.04 279.09 48.064C279.682 49.072 279.978 50.248 279.978 51.592ZM273.282 47.728C272.434 47.728 271.722 47.968 271.146 48.448C270.57 48.928 270.218 49.584 270.09 50.416H276.45C276.322 49.6 275.97 48.952 275.394 48.472C274.818 47.976 274.114 47.728 273.282 47.728ZM286.046 46.792C286.494 46.168 287.094 45.696 287.846 45.376C288.614 45.056 289.494 44.896 290.486 44.896V48.352C290.07 48.32 289.79 48.304 289.646 48.304C288.574 48.304 287.734 48.608 287.126 49.216C286.518 49.808 286.214 50.704 286.214 51.904V58H282.47V45.088H286.046V46.792ZM298.256 52.936L296.456 54.712V58H292.712V40.192H296.456V50.272L301.928 45.088H306.392L301.016 50.56L306.872 58H302.336L298.256 52.936ZM320.642 51.592C320.642 51.64 320.618 51.976 320.57 52.6H310.802C310.978 53.4 311.394 54.032 312.05 54.496C312.706 54.96 313.522 55.192 314.498 55.192C315.17 55.192 315.762 55.096 316.274 54.904C316.802 54.696 317.29 54.376 317.738 53.944L319.73 56.104C318.514 57.496 316.738 58.192 314.402 58.192C312.946 58.192 311.658 57.912 310.538 57.352C309.418 56.776 308.554 55.984 307.946 54.976C307.338 53.968 307.034 52.824 307.034 51.544C307.034 50.28 307.33 49.144 307.922 48.136C308.53 47.112 309.354 46.32 310.394 45.76C311.45 45.184 312.626 44.896 313.922 44.896C315.186 44.896 316.33 45.168 317.354 45.712C318.378 46.256 319.178 47.04 319.754 48.064C320.346 49.072 320.642 50.248 320.642 51.592ZM313.946 47.728C313.098 47.728 312.386 47.968 311.81 48.448C311.234 48.928 310.882 49.584 310.754 50.416H317.114C316.986 49.6 316.634 48.952 316.058 48.472C315.482 47.976 314.778 47.728 313.946 47.728ZM333.649 55.12V58H322.129V55.744L328.705 47.968H322.297V45.088H333.433V47.344L326.857 55.12H333.649Z" fill="black"/>
<path d="M437.827 12.2C439.315 12.2 440.603 12.448 441.691 12.944C442.795 13.44 443.643 14.144 444.235 15.056C444.827 15.968 445.123 17.048 445.123 18.296C445.123 19.528 444.827 20.608 444.235 21.536C443.643 22.448 442.795 23.152 441.691 23.648C440.603 24.128 439.315 24.368 437.827 24.368H434.443V29H430.555V12.2H437.827ZM437.611 21.2C438.779 21.2 439.667 20.952 440.275 20.456C440.883 19.944 441.187 19.224 441.187 18.296C441.187 17.352 440.883 16.632 440.275 16.136C439.667 15.624 438.779 15.368 437.611 15.368H434.443V21.2H437.611ZM460.259 22.592C460.259 22.64 460.235 22.976 460.187 23.6H450.419C450.595 24.4 451.011 25.032 451.667 25.496C452.323 25.96 453.139 26.192 454.115 26.192C454.787 26.192 455.379 26.096 455.891 25.904C456.419 25.696 456.907 25.376 457.355 24.944L459.347 27.104C458.131 28.496 456.355 29.192 454.019 29.192C452.563 29.192 451.275 28.912 450.155 28.352C449.035 27.776 448.171 26.984 447.563 25.976C446.955 24.968 446.651 23.824 446.651 22.544C446.651 21.28 446.947 20.144 447.539 19.136C448.147 18.112 448.971 17.32 450.011 16.76C451.067 16.184 452.243 15.896 453.539 15.896C454.803 15.896 455.947 16.168 456.971 16.712C457.995 17.256 458.795 18.04 459.371 19.064C459.963 20.072 460.259 21.248 460.259 22.592ZM453.563 18.728C452.715 18.728 452.003 18.968 451.427 19.448C450.851 19.928 450.499 20.584 450.371 21.416H456.731C456.603 20.6 456.251 19.952 455.675 19.472C455.099 18.976 454.395 18.728 453.563 18.728ZM470.599 15.896C472.199 15.896 473.487 16.376 474.463 17.336C475.455 18.296 475.951 19.72 475.951 21.608V29H472.207V22.184C472.207 21.16 471.983 20.4 471.535 19.904C471.087 19.392 470.439 19.136 469.591 19.136C468.647 19.136 467.895 19.432 467.335 20.024C466.775 20.6 466.495 21.464 466.495 22.616V29H462.751V16.088H466.327V17.6C466.823 17.056 467.439 16.64 468.175 16.352C468.911 16.048 469.719 15.896 470.599 15.896ZM492.638 11.192V29H489.062V27.512C488.134 28.632 486.79 29.192 485.03 29.192C483.814 29.192 482.71 28.92 481.718 28.376C480.742 27.832 479.974 27.056 479.414 26.048C478.854 25.04 478.574 23.872 478.574 22.544C478.574 21.216 478.854 20.048 479.414 19.04C479.974 18.032 480.742 17.256 481.718 16.712C482.71 16.168 483.814 15.896 485.03 15.896C486.678 15.896 487.966 16.416 488.894 17.456V11.192H492.638ZM485.678 26.12C486.622 26.12 487.406 25.8 488.03 25.16C488.654 24.504 488.966 23.632 488.966 22.544C488.966 21.456 488.654 20.592 488.03 19.952C487.406 19.296 486.622 18.968 485.678 18.968C484.718 18.968 483.926 19.296 483.302 19.952C482.678 20.592 482.366 21.456 482.366 22.544C482.366 23.632 482.678 24.504 483.302 25.16C483.926 25.8 484.718 26.12 485.678 26.12ZM496.103 16.088H499.847V29H496.103V16.088ZM497.975 14.288C497.287 14.288 496.727 14.088 496.295 13.688C495.863 13.288 495.647 12.792 495.647 12.2C495.647 11.608 495.863 11.112 496.295 10.712C496.727 10.312 497.287 10.112 497.975 10.112C498.663 10.112 499.223 10.304 499.655 10.688C500.087 11.072 500.303 11.552 500.303 12.128C500.303 12.752 500.087 13.272 499.655 13.688C499.223 14.088 498.663 14.288 497.975 14.288ZM508.866 23.936L507.066 25.712V29H503.322V11.192H507.066V21.272L512.538 16.088H517.002L511.626 21.56L517.482 29H512.946L508.866 23.936ZM444.46 58L444.436 47.92L439.492 56.224H437.74L432.82 48.136V58H429.172V41.2H432.388L438.676 51.64L444.868 41.2H448.06L448.108 58H444.46ZM464.478 51.592C464.478 51.64 464.454 51.976 464.406 52.6H454.638C454.814 53.4 455.23 54.032 455.886 54.496C456.542 54.96 457.358 55.192 458.334 55.192C459.006 55.192 459.598 55.096 460.11 54.904C460.638 54.696 461.126 54.376 461.574 53.944L463.566 56.104C462.35 57.496 460.574 58.192 458.238 58.192C456.782 58.192 455.494 57.912 454.374 57.352C453.254 56.776 452.39 55.984 451.782 54.976C451.174 53.968 450.87 52.824 450.87 51.544C450.87 50.28 451.166 49.144 451.758 48.136C452.366 47.112 453.19 46.32 454.23 45.76C455.286 45.184 456.462 44.896 457.758 44.896C459.022 44.896 460.166 45.168 461.19 45.712C462.214 46.256 463.014 47.04 463.59 48.064C464.182 49.072 464.478 50.248 464.478 51.592ZM457.782 47.728C456.934 47.728 456.222 47.968 455.646 48.448C455.07 48.928 454.718 49.584 454.59 50.416H460.95C460.822 49.6 460.47 48.952 459.894 48.472C459.318 47.976 458.614 47.728 457.782 47.728ZM470.546 46.792C470.994 46.168 471.594 45.696 472.346 45.376C473.114 45.056 473.994 44.896 474.986 44.896V48.352C474.57 48.32 474.29 48.304 474.146 48.304C473.074 48.304 472.234 48.608 471.626 49.216C471.018 49.808 470.714 50.704 470.714 51.904V58H466.97V45.088H470.546V46.792ZM482.756 52.936L480.956 54.712V58H477.212V40.192H480.956V50.272L486.428 45.088H490.892L485.516 50.56L491.372 58H486.836L482.756 52.936ZM505.142 51.592C505.142 51.64 505.118 51.976 505.07 52.6H495.302C495.478 53.4 495.894 54.032 496.55 54.496C497.206 54.96 498.022 55.192 498.998 55.192C499.67 55.192 500.262 55.096 500.774 54.904C501.302 54.696 501.79 54.376 502.238 53.944L504.23 56.104C503.014 57.496 501.238 58.192 498.902 58.192C497.446 58.192 496.158 57.912 495.038 57.352C493.918 56.776 493.054 55.984 492.446 54.976C491.838 53.968 491.534 52.824 491.534 51.544C491.534 50.28 491.83 49.144 492.422 48.136C493.03 47.112 493.854 46.32 494.894 45.76C495.95 45.184 497.126 44.896 498.422 44.896C499.686 44.896 500.83 45.168 501.854 45.712C502.878 46.256 503.678 47.04 504.254 48.064C504.846 49.072 505.142 50.248 505.142 51.592ZM498.446 47.728C497.598 47.728 496.886 47.968 496.31 48.448C495.734 48.928 495.382 49.584 495.254 50.416H501.614C501.486 49.6 501.134 48.952 500.558 48.472C499.982 47.976 499.278 47.728 498.446 47.728ZM518.149 55.12V58H506.629V55.744L513.205 47.968H506.797V45.088H517.933V47.344L511.357 55.12H518.149Z" fill="black"/>
<path d="M405.495 232.368H400.119V229.2H414.759V232.368H409.383V246H405.495V232.368ZM421.139 232.896C423.139 232.896 424.675 233.376 425.747 234.336C426.819 235.28 427.355 236.712 427.355 238.632V246H423.851V244.392C423.147 245.592 421.835 246.192 419.915 246.192C418.923 246.192 418.059 246.024 417.323 245.688C416.603 245.352 416.051 244.888 415.667 244.296C415.283 243.704 415.091 243.032 415.091 242.28C415.091 241.08 415.539 240.136 416.435 239.448C417.347 238.76 418.747 238.416 420.635 238.416H423.611C423.611 237.6 423.363 236.976 422.867 236.544C422.371 236.096 421.627 235.872 420.635 235.872C419.947 235.872 419.267 235.984 418.595 236.208C417.939 236.416 417.379 236.704 416.915 237.072L415.571 234.456C416.275 233.96 417.115 233.576 418.091 233.304C419.083 233.032 420.099 232.896 421.139 232.896ZM420.851 243.672C421.491 243.672 422.059 243.528 422.555 243.24C423.051 242.936 423.403 242.496 423.611 241.92V240.6H421.043C419.507 240.6 418.739 241.104 418.739 242.112C418.739 242.592 418.923 242.976 419.291 243.264C419.675 243.536 420.195 243.672 420.851 243.672ZM443.325 233.088L437.877 246H434.013L428.589 233.088H432.453L436.029 241.872L439.725 233.088H443.325ZM449.01 246.192C447.938 246.192 446.89 246.064 445.866 245.808C444.842 245.536 444.026 245.2 443.418 244.8L444.666 242.112C445.242 242.48 445.938 242.784 446.754 243.024C447.57 243.248 448.37 243.36 449.154 243.36C450.738 243.36 451.53 242.968 451.53 242.184C451.53 241.816 451.314 241.552 450.882 241.392C450.45 241.232 449.786 241.096 448.89 240.984C447.834 240.824 446.962 240.64 446.274 240.432C445.586 240.224 444.986 239.856 444.474 239.328C443.978 238.8 443.729 238.048 443.729 237.072C443.729 236.256 443.962 235.536 444.426 234.912C444.906 234.272 445.594 233.776 446.49 233.424C447.402 233.072 448.474 232.896 449.706 232.896C450.618 232.896 451.522 233 452.418 233.208C453.33 233.4 454.082 233.672 454.674 234.024L453.426 236.688C452.29 236.048 451.05 235.728 449.706 235.728C448.906 235.728 448.306 235.84 447.906 236.064C447.506 236.288 447.306 236.576 447.306 236.928C447.306 237.328 447.522 237.608 447.954 237.768C448.386 237.928 449.074 238.08 450.018 238.224C451.074 238.4 451.938 238.592 452.61 238.8C453.282 238.992 453.866 239.352 454.362 239.88C454.858 240.408 455.106 241.144 455.106 242.088C455.106 242.888 454.866 243.6 454.386 244.224C453.906 244.848 453.202 245.336 452.274 245.688C451.362 246.024 450.274 246.192 449.01 246.192ZM448.41 251.568C447.994 251.568 447.586 251.52 447.186 251.424C446.786 251.344 446.45 251.224 446.178 251.064L446.754 249.456C447.266 249.696 447.786 249.816 448.314 249.816C449.146 249.816 449.562 249.56 449.562 249.048C449.562 248.584 449.17 248.352 448.386 248.352H447.57L448.194 245.808H450.186L449.85 247.2C450.554 247.28 451.074 247.496 451.41 247.848C451.762 248.216 451.938 248.664 451.938 249.192C451.938 249.928 451.618 250.504 450.978 250.92C450.338 251.352 449.482 251.568 448.41 251.568ZM462.624 232.896C464.624 232.896 466.16 233.376 467.232 234.336C468.304 235.28 468.84 236.712 468.84 238.632V246H465.336V244.392C464.632 245.592 463.32 246.192 461.4 246.192C460.408 246.192 459.544 246.024 458.808 245.688C458.088 245.352 457.536 244.888 457.152 244.296C456.768 243.704 456.576 243.032 456.576 242.28C456.576 241.08 457.024 240.136 457.92 239.448C458.832 238.76 460.232 238.416 462.12 238.416H465.096C465.096 237.6 464.848 236.976 464.352 236.544C463.856 236.096 463.112 235.872 462.12 235.872C461.432 235.872 460.752 235.984 460.08 236.208C459.424 236.416 458.864 236.704 458.4 237.072L457.056 234.456C457.76 233.96 458.6 233.576 459.576 233.304C460.568 233.032 461.584 232.896 462.624 232.896ZM462.336 243.672C462.976 243.672 463.544 243.528 464.04 243.24C464.536 242.936 464.888 242.496 465.096 241.92V240.6H462.528C460.992 240.6 460.224 241.104 460.224 242.112C460.224 242.592 460.408 242.976 460.776 243.264C461.16 243.536 461.68 243.672 462.336 243.672ZM480.076 232.896C481.676 232.896 482.964 233.376 483.94 234.336C484.932 235.296 485.428 236.72 485.428 238.608V246H481.684V239.184C481.684 238.16 481.46 237.4 481.012 236.904C480.564 236.392 479.916 236.136 479.068 236.136C478.124 236.136 477.372 236.432 476.812 237.024C476.252 237.6 475.972 238.464 475.972 239.616V246H472.228V233.088H475.804V234.6C476.3 234.056 476.916 233.64 477.652 233.352C478.388 233.048 479.196 232.896 480.076 232.896ZM497.15 245.376C496.782 245.648 496.326 245.856 495.782 246C495.254 246.128 494.694 246.192 494.102 246.192C492.566 246.192 491.374 245.8 490.526 245.016C489.694 244.232 489.278 243.08 489.278 241.56V236.256H487.286V233.376H489.278V230.232H493.022V233.376H496.238V236.256H493.022V241.512C493.022 242.056 493.158 242.48 493.43 242.784C493.718 243.072 494.118 243.216 494.63 243.216C495.222 243.216 495.726 243.056 496.142 242.736L497.15 245.376ZM511.501 239.592C511.501 239.64 511.477 239.976 511.429 240.6H501.661C501.837 241.4 502.253 242.032 502.909 242.496C503.565 242.96 504.381 243.192 505.357 243.192C506.029 243.192 506.621 243.096 507.133 242.904C507.661 242.696 508.149 242.376 508.597 241.944L510.589 244.104C509.373 245.496 507.597 246.192 505.261 246.192C503.805 246.192 502.517 245.912 501.397 245.352C500.277 244.776 499.413 243.984 498.805 242.976C498.197 241.968 497.893 240.824 497.893 239.544C497.893 238.28 498.189 237.144 498.781 236.136C499.389 235.112 500.213 234.32 501.253 233.76C502.309 233.184 503.485 232.896 504.781 232.896C506.045 232.896 507.189 233.168 508.213 233.712C509.237 234.256 510.037 235.04 510.613 236.064C511.205 237.072 511.501 238.248 511.501 239.592ZM504.805 235.728C503.957 235.728 503.245 235.968 502.669 236.448C502.093 236.928 501.741 237.584 501.613 238.416H507.973C507.845 237.6 507.493 236.952 506.917 236.472C506.341 235.976 505.637 235.728 504.805 235.728ZM521.626 232.896C522.826 232.896 523.914 233.176 524.89 233.736C525.882 234.28 526.658 235.056 527.218 236.064C527.778 237.056 528.058 238.216 528.058 239.544C528.058 240.872 527.778 242.04 527.218 243.048C526.658 244.04 525.882 244.816 524.89 245.376C523.914 245.92 522.826 246.192 521.626 246.192C519.978 246.192 518.682 245.672 517.738 244.632V250.656H513.994V233.088H517.57V234.576C518.498 233.456 519.85 232.896 521.626 232.896ZM520.978 243.12C521.938 243.12 522.722 242.8 523.33 242.16C523.954 241.504 524.266 240.632 524.266 239.544C524.266 238.456 523.954 237.592 523.33 236.952C522.722 236.296 521.938 235.968 520.978 235.968C520.018 235.968 519.226 236.296 518.602 236.952C517.994 237.592 517.69 238.456 517.69 239.544C517.69 240.632 517.994 241.504 518.602 242.16C519.226 242.8 520.018 243.12 520.978 243.12ZM543.212 239.592C543.212 239.64 543.188 239.976 543.14 240.6H533.372C533.548 241.4 533.964 242.032 534.62 242.496C535.276 242.96 536.092 243.192 537.068 243.192C537.74 243.192 538.332 243.096 538.844 242.904C539.372 242.696 539.86 242.376 540.308 241.944L542.3 244.104C541.084 245.496 539.308 246.192 536.972 246.192C535.516 246.192 534.228 245.912 533.108 245.352C531.988 244.776 531.124 243.984 530.516 242.976C529.908 241.968 529.604 240.824 529.604 239.544C529.604 238.28 529.9 237.144 530.492 236.136C531.1 235.112 531.924 234.32 532.964 233.76C534.02 233.184 535.196 232.896 536.492 232.896C537.756 232.896 538.9 233.168 539.924 233.712C540.948 234.256 541.748 235.04 542.324 236.064C542.916 237.072 543.212 238.248 543.212 239.592ZM536.516 235.728C535.668 235.728 534.956 235.968 534.38 236.448C533.804 236.928 533.452 237.584 533.324 238.416H539.684C539.556 237.6 539.204 236.952 538.628 236.472C538.052 235.976 537.348 235.728 536.516 235.728Z" fill="black"/>
<rect x="285" y="123" width="6" height="21" fill="black"/>
<rect x="470" y="123" width="6" height="22" fill="black"/>
<g clip-path="url(#clip0_495_5703)">
<path d="M455 162C455 158.44 456.056 154.96 458.034 152C460.011 149.04 462.823 146.733 466.112 145.37C469.401 144.008 473.02 143.651 476.512 144.346C480.003 145.04 483.211 146.755 485.728 149.272C488.245 151.789 489.96 154.997 490.654 158.488C491.349 161.98 490.992 165.599 489.63 168.888C488.267 172.177 485.96 174.989 483 176.966C480.04 178.944 476.56 180 473 180C470.665 180.029 468.348 179.599 466.18 178.732C464.012 177.866 462.035 176.581 460.364 174.951C458.692 173.321 457.358 171.377 456.438 169.231C455.518 167.086 455.029 164.78 455 162.445V162Z" fill="#65656A"/>
<path d="M463.371 168.674V155.305H468.043C470.773 155.305 472.351 156.478 472.351 158.723C472.36 159.465 472.091 160.184 471.597 160.738C471.103 161.292 470.42 161.641 469.681 161.716C470.49 161.727 471.263 162.051 471.836 162.621C472.41 163.191 472.74 163.962 472.755 164.77C472.755 167.4 470.874 168.633 467.982 168.633L463.371 168.674ZM467.133 160.705C468.892 160.705 469.701 160.139 469.701 159.087C469.701 158.036 469.155 157.409 467.274 157.409H466.041V160.705H467.133ZM467.355 166.57C469.095 166.57 470.086 165.964 470.086 164.71C470.086 163.456 469.196 162.687 467.416 162.687H466.041V166.55L467.355 166.57Z" fill="white"/>
<path d="M478.639 168.674V158.359L476.374 160.18L475.039 158.42L478.942 155.285H481.289V168.674H478.639Z" fill="white"/>
</g>
<g clip-path="url(#clip1_495_5703)">
<path d="M99.9998 124.033C95.2418 124.043 90.588 122.642 86.6274 120.009C82.6668 117.375 79.5774 113.627 77.7502 109.24C75.9229 104.852 75.4401 100.022 76.3626 95.3599C77.2852 90.6981 79.5717 86.4143 82.9329 83.0509C86.294 79.6874 90.5786 77.3954 95.2445 76.4649C99.9104 75.5344 104.748 76.0073 109.144 77.8237C113.541 79.6401 117.3 82.7183 119.944 86.6689C122.588 90.6194 124 95.2646 124 100.017C124 106.378 121.473 112.48 116.973 116.983C112.474 121.485 106.369 124.021 99.9998 124.033Z" fill="#E81F76"/>
<path d="M84.3711 92.2246H89.3675L93.068 104.013H93.1081L96.8086 92.2246H101.798V107.775H98.8125V94.9398H98.7724L94.5843 107.775H91.5918L87.4037 94.9398L87.3569 94.9865V107.775H84.3711V92.2246Z" fill="white"/>
<path d="M103.973 102.018L109.791 92.2178H113.665V102.225H115.669V104.546H113.665V107.775H110.679V104.546H103.999L103.973 102.018ZM110.652 102.218V95.4734H110.612L106.778 102.225L110.652 102.218Z" fill="white"/>
</g>
<g clip-path="url(#clip2_495_5703)">
<path d="M288 179.025C284.431 179.032 280.941 177.981 277.971 176.006C275 174.031 272.683 171.221 271.313 167.93C269.942 164.639 269.58 161.016 270.272 157.52C270.964 154.024 272.679 150.811 275.2 148.288C277.72 145.766 280.934 144.047 284.433 143.349C287.933 142.651 291.561 143.005 294.858 144.368C298.156 145.73 300.975 148.039 302.958 151.002C304.941 153.965 306 157.448 306 161.012C306 165.784 304.105 170.36 300.73 173.737C297.355 177.114 292.777 179.016 288 179.025Z" fill="#E81F76"/>
<path d="M276.277 155.168H280.025L282.8 164.01H282.83L285.605 155.168H289.348V166.832H287.108V157.205H287.078L283.937 166.832H281.693L278.552 157.205L278.517 157.24V166.832H276.277V155.168Z" fill="white"/>
<path d="M290.98 162.514L295.344 155.164H298.25V162.669H299.753V164.41H298.25V166.832H296.01V164.41H291.001L290.98 162.514ZM295.99 162.664V157.605H295.96L293.085 162.669L295.99 162.664Z" fill="white"/>
</g>
<g clip-path="url(#clip3_495_5703)">
<path d="M473 312.033C468.242 312.043 463.588 310.642 459.627 308.009C455.667 305.375 452.577 301.627 450.75 297.24C448.923 292.852 448.44 288.022 449.363 283.36C450.285 278.698 452.572 274.414 455.933 271.051C459.294 267.687 463.579 265.395 468.245 264.465C472.91 263.534 477.748 264.007 482.144 265.824C486.541 267.64 490.3 270.718 492.944 274.669C495.588 278.619 497 283.265 497 288.017C497 294.378 494.473 300.48 489.973 304.983C485.474 309.485 479.369 312.021 473 312.033Z" fill="#E81F76"/>
<path d="M457.371 280.225H462.367L466.068 292.013H466.108L469.809 280.225H474.798V295.775H471.813V282.94H471.772L467.584 295.775H464.592L460.404 282.94L460.357 282.987V295.775H457.371V280.225Z" fill="white"/>
<path d="M476.973 290.018L482.791 280.218H486.665V290.225H488.669V292.546H486.665V295.775H483.679V292.546H476.999L476.973 290.018ZM483.652 290.218V283.473H483.612L479.778 290.225L483.652 290.218Z" fill="white"/>
</g>
<defs>
<linearGradient id="paint0_linear_495_5703" x1="186" y1="90" x2="186" y2="110" gradientUnits="userSpaceOnUse">
<stop offset="0.5" stop-color="#4DAD3E"/>
<stop offset="0.5" stop-color="#E81F76"/>
</linearGradient>
<clipPath id="clip0_495_5703">
<rect width="36" height="36" fill="white" transform="translate(455 144)"/>
</clipPath>
<clipPath id="clip1_495_5703">
<rect width="48" height="48" fill="white" transform="translate(76 76)"/>
</clipPath>
<clipPath id="clip2_495_5703">
<rect width="36" height="36" fill="white" transform="translate(270 143)"/>
</clipPath>
<clipPath id="clip3_495_5703">
<rect width="48" height="48" fill="white" transform="translate(449 264)"/>
</clipPath>
</defs>
</svg>
