<?xml version="1.0" encoding="utf-8"?>
<!-- Generator: Adobe Illustrator 26.0.1, SVG Export Plug-In . SVG Version: 6.00 Build 0)  -->
<svg version="1.1" id="katman_1" xmlns="http://www.w3.org/2000/svg" xmlns:xlink="http://www.w3.org/1999/xlink" x="0px" y="0px"
	 viewBox="0 0 17.8 17.8" style="enable-background:new 0 0 17.8 17.8;" xml:space="preserve">
<style type="text/css">
	.st0{fill:#4DA93E;}
	.st1{fill:#FFFFFF;}
</style>
<g id="Layer_2_00000085241447192980582980000009991788844440780990_">
	<g id="Layer_1-2">
		<path class="st0" d="M0,8.9C0,4,4,0,8.9,0s8.9,4,8.9,8.9s-4,8.9-8.9,8.9S0,13.8,0,8.9"/>
		<polygon class="st1" points="1.2,5.9 3.2,5.9 4.6,10.4 4.6,10.4 6,5.9 7.9,5.9 7.9,11.9 6.8,11.9 6.8,6.9 6.8,6.9 5.2,11.9 
			4,11.9 2.4,6.9 2.4,7 2.4,11.9 1.2,11.9 		"/>
		<polygon class="st1" points="10.6,5.9 11.7,5.9 11.7,11.9 10.5,11.9 10.5,7.3 9.5,8.1 8.9,7.3 		"/>
		<path class="st1" d="M12.8,8.9c0-1.5,0.5-3.1,2.1-3.1S17,7.5,17,8.9S16.6,12,14.9,12C13,12,12.8,10.1,12.8,8.9 M15.8,8.9
			c0-0.8,0-2.2-0.9-2.2S14,8.1,14,8.9s0,2.2,0.9,2.2S15.8,9.7,15.8,8.9"/>
	</g>
</g>
</svg>
