<svg width="758" height="200" viewBox="0 0 758 200" fill="none" xmlns="http://www.w3.org/2000/svg">
<path d="M100 100H659" stroke="#C8A977" stroke-width="20"/>
<circle cx="473" cy="100" r="21" fill="#C8A977"/>
<circle cx="473" cy="100" r="13" fill="white"/>
<circle cx="288" cy="100" r="21" fill="#C8A977"/>
<circle cx="288" cy="100" r="13" fill="white"/>
<circle cx="100" cy="100" r="24" fill="black"/>
<ellipse cx="100.001" cy="99.9939" rx="19.2" ry="19.2" fill="white"/>
<circle cx="658" cy="100" r="24" fill="black"/>
<ellipse cx="658.001" cy="99.9939" rx="19.2" ry="19.2" fill="white"/>
<path d="M59.2654 41.2H63.1534V54.832H71.5774V58H59.2654V41.2ZM86.0401 51.592C86.0401 51.64 86.0161 51.976 85.9681 52.6H76.2001C76.3761 53.4 76.7921 54.032 77.4481 54.496C78.1041 54.96 78.9201 55.192 79.8961 55.192C80.5681 55.192 81.1601 55.096 81.6721 54.904C82.2001 54.696 82.6881 54.376 83.1361 53.944L85.1281 56.104C83.9121 57.496 82.1361 58.192 79.8001 58.192C78.3441 58.192 77.0561 57.912 75.9361 57.352C74.8161 56.776 73.9521 55.984 73.3441 54.976C72.7361 53.968 72.4321 52.824 72.4321 51.544C72.4321 50.28 72.7281 49.144 73.3201 48.136C73.9281 47.112 74.7521 46.32 75.7921 45.76C76.8481 45.184 78.0241 44.896 79.3201 44.896C80.5841 44.896 81.7281 45.168 82.7521 45.712C83.7761 46.256 84.5761 47.04 85.1521 48.064C85.7441 49.072 86.0401 50.248 86.0401 51.592ZM79.3441 47.728C78.4961 47.728 77.7841 47.968 77.2081 48.448C76.6321 48.928 76.2801 49.584 76.1521 50.416H82.5121C82.3841 49.6 82.0321 48.952 81.4561 48.472C80.8801 47.976 80.1761 47.728 79.3441 47.728ZM101.114 45.088L95.6663 58H91.8023L86.3783 45.088H90.2423L93.8183 53.872L97.5143 45.088H101.114ZM114.939 51.592C114.939 51.64 114.915 51.976 114.867 52.6H105.099C105.275 53.4 105.691 54.032 106.347 54.496C107.003 54.96 107.819 55.192 108.795 55.192C109.467 55.192 110.059 55.096 110.571 54.904C111.099 54.696 111.587 54.376 112.035 53.944L114.027 56.104C112.811 57.496 111.035 58.192 108.699 58.192C107.243 58.192 105.955 57.912 104.835 57.352C103.715 56.776 102.851 55.984 102.243 54.976C101.635 53.968 101.331 52.824 101.331 51.544C101.331 50.28 101.627 49.144 102.219 48.136C102.827 47.112 103.651 46.32 104.691 45.76C105.747 45.184 106.923 44.896 108.219 44.896C109.483 44.896 110.627 45.168 111.651 45.712C112.675 46.256 113.475 47.04 114.051 48.064C114.643 49.072 114.939 50.248 114.939 51.592ZM108.243 47.728C107.395 47.728 106.683 47.968 106.107 48.448C105.531 48.928 105.179 49.584 105.051 50.416H111.411C111.283 49.6 110.931 48.952 110.355 48.472C109.779 47.976 109.075 47.728 108.243 47.728ZM125.279 44.896C126.879 44.896 128.167 45.376 129.143 46.336C130.135 47.296 130.631 48.72 130.631 50.608V58H126.887V51.184C126.887 50.16 126.663 49.4 126.215 48.904C125.767 48.392 125.119 48.136 124.271 48.136C123.327 48.136 122.575 48.432 122.015 49.024C121.455 49.6 121.175 50.464 121.175 51.616V58H117.431V45.088H121.007V46.6C121.503 46.056 122.119 45.64 122.855 45.352C123.591 45.048 124.399 44.896 125.279 44.896ZM142.353 57.376C141.985 57.648 141.529 57.856 140.985 58C140.457 58.128 139.897 58.192 139.305 58.192C137.769 58.192 136.577 57.8 135.729 57.016C134.897 56.232 134.481 55.08 134.481 53.56V48.256H132.489V45.376H134.481V42.232H138.225V45.376H141.441V48.256H138.225V53.512C138.225 54.056 138.361 54.48 138.633 54.784C138.921 55.072 139.321 55.216 139.833 55.216C140.425 55.216 140.929 55.056 141.345 54.736L142.353 57.376Z" fill="black"/>
<path d="M246.478 41.2V58H243.286L234.91 47.8V58H231.07V41.2H234.286L242.638 51.4V41.2H246.478ZM250.189 45.088H253.933V58H250.189V45.088ZM252.061 43.288C251.373 43.288 250.813 43.088 250.381 42.688C249.949 42.288 249.733 41.792 249.733 41.2C249.733 40.608 249.949 40.112 250.381 39.712C250.813 39.312 251.373 39.112 252.061 39.112C252.749 39.112 253.309 39.304 253.741 39.688C254.173 40.072 254.389 40.552 254.389 41.128C254.389 41.752 254.173 42.272 253.741 42.688C253.309 43.088 252.749 43.288 252.061 43.288ZM261.752 58.192C260.68 58.192 259.632 58.064 258.608 57.808C257.584 57.536 256.768 57.2 256.16 56.8L257.408 54.112C257.984 54.48 258.68 54.784 259.496 55.024C260.312 55.248 261.112 55.36 261.896 55.36C263.48 55.36 264.272 54.968 264.272 54.184C264.272 53.816 264.056 53.552 263.624 53.392C263.192 53.232 262.528 53.096 261.632 52.984C260.576 52.824 259.704 52.64 259.016 52.432C258.328 52.224 257.728 51.856 257.216 51.328C256.72 50.8 256.472 50.048 256.472 49.072C256.472 48.256 256.704 47.536 257.168 46.912C257.648 46.272 258.336 45.776 259.232 45.424C260.144 45.072 261.216 44.896 262.448 44.896C263.36 44.896 264.264 45 265.16 45.208C266.072 45.4 266.824 45.672 267.416 46.024L266.168 48.688C265.032 48.048 263.792 47.728 262.448 47.728C261.648 47.728 261.048 47.84 260.648 48.064C260.248 48.288 260.048 48.576 260.048 48.928C260.048 49.328 260.264 49.608 260.696 49.768C261.128 49.928 261.816 50.08 262.76 50.224C263.816 50.4 264.68 50.592 265.352 50.8C266.024 50.992 266.608 51.352 267.104 51.88C267.6 52.408 267.848 53.144 267.848 54.088C267.848 54.888 267.608 55.6 267.128 56.224C266.648 56.848 265.944 57.336 265.016 57.688C264.104 58.024 263.016 58.192 261.752 58.192ZM277.79 44.896C278.99 44.896 280.078 45.176 281.054 45.736C282.046 46.28 282.822 47.056 283.382 48.064C283.942 49.056 284.222 50.216 284.222 51.544C284.222 52.872 283.942 54.04 283.382 55.048C282.822 56.04 282.046 56.816 281.054 57.376C280.078 57.92 278.99 58.192 277.79 58.192C276.142 58.192 274.846 57.672 273.902 56.632V62.656H270.158V45.088H273.734V46.576C274.662 45.456 276.014 44.896 277.79 44.896ZM277.142 55.12C278.102 55.12 278.886 54.8 279.494 54.16C280.118 53.504 280.43 52.632 280.43 51.544C280.43 50.456 280.118 49.592 279.494 48.952C278.886 48.296 278.102 47.968 277.142 47.968C276.182 47.968 275.39 48.296 274.766 48.952C274.158 49.592 273.854 50.456 273.854 51.544C273.854 52.632 274.158 53.504 274.766 54.16C275.39 54.8 276.182 55.12 277.142 55.12ZM299.376 51.592C299.376 51.64 299.352 51.976 299.304 52.6H289.536C289.712 53.4 290.128 54.032 290.784 54.496C291.44 54.96 292.256 55.192 293.232 55.192C293.904 55.192 294.496 55.096 295.008 54.904C295.536 54.696 296.024 54.376 296.472 53.944L298.464 56.104C297.248 57.496 295.472 58.192 293.136 58.192C291.68 58.192 290.392 57.912 289.272 57.352C288.152 56.776 287.288 55.984 286.68 54.976C286.072 53.968 285.768 52.824 285.768 51.544C285.768 50.28 286.064 49.144 286.656 48.136C287.264 47.112 288.088 46.32 289.128 45.76C290.184 45.184 291.36 44.896 292.656 44.896C293.92 44.896 295.064 45.168 296.088 45.712C297.112 46.256 297.912 47.04 298.488 48.064C299.08 49.072 299.376 50.248 299.376 51.592ZM292.68 47.728C291.832 47.728 291.12 47.968 290.544 48.448C289.968 48.928 289.616 49.584 289.488 50.416H295.848C295.72 49.6 295.368 48.952 294.792 48.472C294.216 47.976 293.512 47.728 292.68 47.728ZM310.197 57.376C309.829 57.648 309.373 57.856 308.829 58C308.301 58.128 307.741 58.192 307.149 58.192C305.613 58.192 304.421 57.8 303.573 57.016C302.741 56.232 302.325 55.08 302.325 53.56V48.256H300.333V45.376H302.325V42.232H306.069V45.376H309.285V48.256H306.069V53.512C306.069 54.056 306.205 54.48 306.477 54.784C306.765 55.072 307.165 55.216 307.677 55.216C308.269 55.216 308.773 55.056 309.189 54.736L310.197 57.376ZM312.298 45.088H316.042V58H312.298V45.088ZM314.17 43.288C313.482 43.288 312.922 43.088 312.49 42.688C312.058 42.288 311.842 41.792 311.842 41.2C311.842 40.608 312.058 40.112 312.49 39.712C312.922 39.312 313.482 39.112 314.17 39.112C314.858 39.112 315.418 39.304 315.85 39.688C316.282 40.072 316.498 40.552 316.498 41.128C316.498 41.752 316.282 42.272 315.85 42.688C315.418 43.088 314.858 43.288 314.17 43.288ZM332.333 45.088L326.501 58.792C325.909 60.28 325.173 61.328 324.293 61.936C323.429 62.544 322.381 62.848 321.149 62.848C320.477 62.848 319.813 62.744 319.157 62.536C318.501 62.328 317.965 62.04 317.549 61.672L318.917 59.008C319.205 59.264 319.533 59.464 319.901 59.608C320.285 59.752 320.661 59.824 321.029 59.824C321.541 59.824 321.957 59.696 322.277 59.44C322.597 59.2 322.885 58.792 323.141 58.216L323.189 58.096L317.597 45.088H321.461L325.085 53.848L328.733 45.088H332.333ZM346.157 51.592C346.157 51.64 346.133 51.976 346.085 52.6H336.317C336.493 53.4 336.909 54.032 337.565 54.496C338.221 54.96 339.037 55.192 340.013 55.192C340.685 55.192 341.277 55.096 341.789 54.904C342.317 54.696 342.805 54.376 343.253 53.944L345.245 56.104C344.029 57.496 342.253 58.192 339.917 58.192C338.461 58.192 337.173 57.912 336.053 57.352C334.933 56.776 334.069 55.984 333.461 54.976C332.853 53.968 332.549 52.824 332.549 51.544C332.549 50.28 332.845 49.144 333.437 48.136C334.045 47.112 334.869 46.32 335.909 45.76C336.965 45.184 338.141 44.896 339.437 44.896C340.701 44.896 341.845 45.168 342.869 45.712C343.893 46.256 344.693 47.04 345.269 48.064C345.861 49.072 346.157 50.248 346.157 51.592ZM339.461 47.728C338.613 47.728 337.901 47.968 337.325 48.448C336.749 48.928 336.397 49.584 336.269 50.416H342.629C342.501 49.6 342.149 48.952 341.573 48.472C340.997 47.976 340.293 47.728 339.461 47.728Z" fill="black"/>
<path d="M455.359 54.88V58H442.351V41.2H455.047V44.32H446.215V47.968H454.015V50.992H446.215V54.88H455.359ZM466.353 57.376C465.985 57.648 465.529 57.856 464.985 58C464.457 58.128 463.897 58.192 463.305 58.192C461.769 58.192 460.577 57.8 459.729 57.016C458.897 56.232 458.481 55.08 458.481 53.56V48.256H456.489V45.376H458.481V42.232H462.225V45.376H465.441V48.256H462.225V53.512C462.225 54.056 462.361 54.48 462.633 54.784C462.921 55.072 463.321 55.216 463.833 55.216C464.425 55.216 464.929 55.056 465.345 54.736L466.353 57.376ZM468.455 45.088H472.199V58H468.455V45.088ZM470.327 43.288C469.639 43.288 469.079 43.088 468.647 42.688C468.215 42.288 467.999 41.792 467.999 41.2C467.999 40.608 468.215 40.112 468.647 39.712C469.079 39.312 469.639 39.112 470.327 39.112C471.015 39.112 471.575 39.304 472.007 39.688C472.439 40.072 472.655 40.552 472.655 41.128C472.655 41.752 472.439 42.272 472.007 42.688C471.575 43.088 471.015 43.288 470.327 43.288ZM475.673 40.192H479.417V58H475.673V40.192ZM495.54 51.592C495.54 51.64 495.516 51.976 495.468 52.6H485.7C485.876 53.4 486.292 54.032 486.948 54.496C487.604 54.96 488.42 55.192 489.396 55.192C490.068 55.192 490.66 55.096 491.172 54.904C491.7 54.696 492.188 54.376 492.636 53.944L494.628 56.104C493.412 57.496 491.636 58.192 489.3 58.192C487.844 58.192 486.556 57.912 485.436 57.352C484.316 56.776 483.452 55.984 482.844 54.976C482.236 53.968 481.932 52.824 481.932 51.544C481.932 50.28 482.228 49.144 482.82 48.136C483.428 47.112 484.252 46.32 485.292 45.76C486.348 45.184 487.524 44.896 488.82 44.896C490.084 44.896 491.228 45.168 492.252 45.712C493.276 46.256 494.076 47.04 494.652 48.064C495.244 49.072 495.54 50.248 495.54 51.592ZM488.844 47.728C487.996 47.728 487.284 47.968 486.708 48.448C486.132 48.928 485.78 49.584 485.652 50.416H492.012C491.884 49.6 491.532 48.952 490.956 48.472C490.38 47.976 489.676 47.728 488.844 47.728ZM501.609 46.792C502.057 46.168 502.657 45.696 503.409 45.376C504.177 45.056 505.057 44.896 506.049 44.896V48.352C505.633 48.32 505.353 48.304 505.209 48.304C504.137 48.304 503.297 48.608 502.689 49.216C502.081 49.808 501.777 50.704 501.777 51.904V58H498.033V45.088H501.609V46.792Z" fill="black"/>
<path d="M590.754 20.264C591.714 20.568 592.466 21.08 593.01 21.8C593.554 22.504 593.826 23.376 593.826 24.416C593.826 25.888 593.25 27.024 592.098 27.824C590.962 28.608 589.298 29 587.106 29H578.418V12.2H586.626C588.674 12.2 590.242 12.592 591.33 13.376C592.434 14.16 592.986 15.224 592.986 16.568C592.986 17.384 592.786 18.112 592.386 18.752C592.002 19.392 591.458 19.896 590.754 20.264ZM582.282 15.128V19.088H586.146C587.106 19.088 587.834 18.92 588.33 18.584C588.826 18.248 589.074 17.752 589.074 17.096C589.074 16.44 588.826 15.952 588.33 15.632C587.834 15.296 587.106 15.128 586.146 15.128H582.282ZM586.818 26.072C587.842 26.072 588.61 25.904 589.122 25.568C589.65 25.232 589.914 24.712 589.914 24.008C589.914 22.616 588.882 21.92 586.818 21.92H582.282V26.072H586.818ZM602.649 29.192C601.289 29.192 600.065 28.912 598.977 28.352C597.905 27.776 597.065 26.984 596.457 25.976C595.849 24.968 595.545 23.824 595.545 22.544C595.545 21.264 595.849 20.12 596.457 19.112C597.065 18.104 597.905 17.32 598.977 16.76C600.065 16.184 601.289 15.896 602.649 15.896C604.009 15.896 605.225 16.184 606.297 16.76C607.369 17.32 608.209 18.104 608.817 19.112C609.425 20.12 609.729 21.264 609.729 22.544C609.729 23.824 609.425 24.968 608.817 25.976C608.209 26.984 607.369 27.776 606.297 28.352C605.225 28.912 604.009 29.192 602.649 29.192ZM602.649 26.12C603.609 26.12 604.393 25.8 605.001 25.16C605.625 24.504 605.937 23.632 605.937 22.544C605.937 21.456 605.625 20.592 605.001 19.952C604.393 19.296 603.609 18.968 602.649 18.968C601.689 18.968 600.897 19.296 600.273 19.952C599.649 20.592 599.337 21.456 599.337 22.544C599.337 23.632 599.649 24.504 600.273 25.16C600.897 25.8 601.689 26.12 602.649 26.12ZM625.552 16.088V26.84C625.552 29.208 624.936 30.968 623.704 32.12C622.472 33.272 620.672 33.848 618.304 33.848C617.056 33.848 615.872 33.696 614.752 33.392C613.632 33.088 612.704 32.648 611.968 32.072L613.456 29.384C614 29.832 614.688 30.184 615.52 30.44C616.352 30.712 617.184 30.848 618.016 30.848C619.312 30.848 620.264 30.552 620.872 29.96C621.496 29.384 621.808 28.504 621.808 27.32V26.768C620.832 27.84 619.472 28.376 617.728 28.376C616.544 28.376 615.456 28.12 614.464 27.608C613.488 27.08 612.712 26.344 612.136 25.4C611.56 24.456 611.272 23.368 611.272 22.136C611.272 20.904 611.56 19.816 612.136 18.872C612.712 17.928 613.488 17.2 614.464 16.688C615.456 16.16 616.544 15.896 617.728 15.896C619.6 15.896 621.024 16.512 622 17.744V16.088H625.552ZM618.472 25.304C619.464 25.304 620.272 25.016 620.896 24.44C621.536 23.848 621.856 23.08 621.856 22.136C621.856 21.192 621.536 20.432 620.896 19.856C620.272 19.264 619.464 18.968 618.472 18.968C617.48 18.968 616.664 19.264 616.024 19.856C615.384 20.432 615.064 21.192 615.064 22.136C615.064 23.08 615.384 23.848 616.024 24.44C616.664 25.016 617.48 25.304 618.472 25.304ZM618.688 14.624C617.424 14.624 616.384 14.296 615.568 13.64C614.752 12.984 614.32 12.096 614.272 10.976H616.624C616.64 11.488 616.84 11.904 617.224 12.224C617.624 12.528 618.112 12.68 618.688 12.68C619.264 12.68 619.744 12.528 620.128 12.224C620.528 11.904 620.736 11.488 620.752 10.976H623.104C623.056 12.096 622.624 12.984 621.808 13.64C620.992 14.296 619.952 14.624 618.688 14.624ZM634.245 15.896C636.245 15.896 637.781 16.376 638.853 17.336C639.925 18.28 640.461 19.712 640.461 21.632V29H636.957V27.392C636.253 28.592 634.941 29.192 633.021 29.192C632.029 29.192 631.165 29.024 630.429 28.688C629.709 28.352 629.157 27.888 628.773 27.296C628.389 26.704 628.197 26.032 628.197 25.28C628.197 24.08 628.645 23.136 629.541 22.448C630.453 21.76 631.853 21.416 633.741 21.416H636.717C636.717 20.6 636.469 19.976 635.973 19.544C635.477 19.096 634.733 18.872 633.741 18.872C633.053 18.872 632.373 18.984 631.701 19.208C631.045 19.416 630.485 19.704 630.021 20.072L628.677 17.456C629.381 16.96 630.221 16.576 631.197 16.304C632.189 16.032 633.205 15.896 634.245 15.896ZM633.957 26.672C634.597 26.672 635.165 26.528 635.661 26.24C636.157 25.936 636.509 25.496 636.717 24.92V23.6H634.149C632.613 23.6 631.845 24.104 631.845 25.112C631.845 25.592 632.029 25.976 632.397 26.264C632.781 26.536 633.301 26.672 633.957 26.672ZM654.481 26.12V29H642.961V26.744L649.537 18.968H643.129V16.088H654.265V18.344L647.689 26.12H654.481ZM656.88 16.088H660.624V29H656.88V16.088ZM658.752 14.288C658.064 14.288 657.504 14.088 657.072 13.688C656.64 13.288 656.424 12.792 656.424 12.2C656.424 11.608 656.64 11.112 657.072 10.712C657.504 10.312 658.064 10.112 658.752 10.112C659.44 10.112 660 10.304 660.432 10.688C660.864 11.072 661.08 11.552 661.08 12.128C661.08 12.752 660.864 13.272 660.432 13.688C660 14.088 659.44 14.288 658.752 14.288ZM670.339 29.192C668.963 29.192 667.723 28.912 666.619 28.352C665.531 27.776 664.675 26.984 664.051 25.976C663.443 24.968 663.139 23.824 663.139 22.544C663.139 21.264 663.443 20.12 664.051 19.112C664.675 18.104 665.531 17.32 666.619 16.76C667.723 16.184 668.963 15.896 670.339 15.896C671.699 15.896 672.883 16.184 673.891 16.76C674.915 17.32 675.659 18.128 676.123 19.184L673.219 20.744C672.547 19.56 671.579 18.968 670.315 18.968C669.339 18.968 668.531 19.288 667.891 19.928C667.251 20.568 666.931 21.44 666.931 22.544C666.931 23.648 667.251 24.52 667.891 25.16C668.531 25.8 669.339 26.12 670.315 26.12C671.595 26.12 672.563 25.528 673.219 24.344L676.123 25.928C675.659 26.952 674.915 27.752 673.891 28.328C672.883 28.904 671.699 29.192 670.339 29.192ZM668.971 34.568C668.555 34.568 668.147 34.52 667.747 34.424C667.347 34.344 667.011 34.224 666.739 34.064L667.315 32.456C667.827 32.696 668.347 32.816 668.875 32.816C669.707 32.816 670.123 32.56 670.123 32.048C670.123 31.584 669.731 31.352 668.947 31.352H668.131L668.755 28.808H670.747L670.411 30.2C671.115 30.28 671.635 30.496 671.971 30.848C672.323 31.216 672.499 31.664 672.499 32.192C672.499 32.928 672.179 33.504 671.539 33.92C670.899 34.352 670.043 34.568 668.971 34.568ZM678.279 16.088H682.023V29H678.279V16.088ZM680.151 14.288C679.463 14.288 678.903 14.088 678.471 13.688C678.039 13.288 677.823 12.792 677.823 12.2C677.823 11.608 678.039 11.112 678.471 10.712C678.903 10.312 679.463 10.112 680.151 10.112C680.839 10.112 681.399 10.304 681.831 10.688C682.263 11.072 682.479 11.552 682.479 12.128C682.479 12.752 682.263 13.272 681.831 13.688C681.399 14.088 680.839 14.288 680.151 14.288ZM700.022 29.288C697.622 29.288 695.75 28.624 694.406 27.296C693.078 25.968 692.414 24.072 692.414 21.608V12.2H696.302V21.464C696.302 24.472 697.55 25.976 700.046 25.976C701.262 25.976 702.19 25.616 702.83 24.896C703.47 24.16 703.79 23.016 703.79 21.464V12.2H707.63V21.608C707.63 24.072 706.958 25.968 705.614 27.296C704.286 28.624 702.422 29.288 700.022 29.288ZM697.622 10.712C697.142 10.712 696.742 10.56 696.422 10.256C696.102 9.936 695.942 9.536 695.942 9.056C695.942 8.576 696.102 8.184 696.422 7.88C696.742 7.56 697.142 7.4 697.622 7.4C698.102 7.4 698.494 7.56 698.798 7.88C699.118 8.184 699.278 8.576 699.278 9.056C699.278 9.536 699.118 9.936 698.798 10.256C698.494 10.56 698.102 10.712 697.622 10.712ZM702.47 10.712C701.99 10.712 701.59 10.56 701.27 10.256C700.966 9.936 700.814 9.536 700.814 9.056C700.814 8.576 700.966 8.184 701.27 7.88C701.59 7.56 701.99 7.4 702.47 7.4C702.95 7.4 703.35 7.56 703.67 7.88C703.99 8.184 704.15 8.576 704.15 9.056C704.15 9.536 703.99 9.936 703.67 10.256C703.35 10.56 702.95 10.712 702.47 10.712ZM719.056 15.896C720.656 15.896 721.944 16.376 722.92 17.336C723.912 18.296 724.408 19.72 724.408 21.608V29H720.664V22.184C720.664 21.16 720.44 20.4 719.992 19.904C719.544 19.392 718.896 19.136 718.048 19.136C717.104 19.136 716.352 19.432 715.792 20.024C715.232 20.6 714.952 21.464 714.952 22.616V29H711.208V16.088H714.784V17.6C715.28 17.056 715.896 16.64 716.632 16.352C717.368 16.048 718.176 15.896 719.056 15.896ZM727.802 16.088H731.546V29H727.802V16.088ZM729.674 14.288C728.986 14.288 728.426 14.088 727.994 13.688C727.562 13.288 727.346 12.792 727.346 12.2C727.346 11.608 727.562 11.112 727.994 10.712C728.426 10.312 728.986 10.112 729.674 10.112C730.362 10.112 730.922 10.304 731.354 10.688C731.786 11.072 732.002 11.552 732.002 12.128C732.002 12.752 731.786 13.272 731.354 13.688C730.922 14.088 730.362 14.288 729.674 14.288ZM736.437 29.192C735.781 29.192 735.229 28.968 734.781 28.52C734.333 28.072 734.109 27.512 734.109 26.84C734.109 26.152 734.333 25.6 734.781 25.184C735.229 24.752 735.781 24.536 736.437 24.536C737.093 24.536 737.645 24.752 738.093 25.184C738.541 25.6 738.765 26.152 738.765 26.84C738.765 27.512 738.541 28.072 738.093 28.52C737.645 28.968 737.093 29.192 736.437 29.192ZM615.084 41.2V58H611.196V51.112H603.564V58H599.676V41.2H603.564V47.824H611.196V41.2H615.084ZM618.794 45.088H622.538V58H618.794V45.088ZM620.666 43.288C619.978 43.288 619.418 43.088 618.986 42.688C618.554 42.288 618.338 41.792 618.338 41.2C618.338 40.608 618.554 40.112 618.986 39.712C619.418 39.312 619.978 39.112 620.666 39.112C621.354 39.112 621.914 39.304 622.346 39.688C622.778 40.072 622.994 40.552 622.994 41.128C622.994 41.752 622.778 42.272 622.346 42.688C621.914 43.088 621.354 43.288 620.666 43.288ZM630.357 58.192C629.285 58.192 628.237 58.064 627.213 57.808C626.189 57.536 625.373 57.2 624.765 56.8L626.013 54.112C626.589 54.48 627.285 54.784 628.101 55.024C628.917 55.248 629.717 55.36 630.501 55.36C632.085 55.36 632.877 54.968 632.877 54.184C632.877 53.816 632.661 53.552 632.229 53.392C631.797 53.232 631.133 53.096 630.237 52.984C629.181 52.824 628.309 52.64 627.621 52.432C626.933 52.224 626.333 51.856 625.821 51.328C625.325 50.8 625.077 50.048 625.077 49.072C625.077 48.256 625.309 47.536 625.773 46.912C626.253 46.272 626.941 45.776 627.837 45.424C628.749 45.072 629.821 44.896 631.053 44.896C631.965 44.896 632.869 45 633.765 45.208C634.677 45.4 635.429 45.672 636.021 46.024L634.773 48.688C633.637 48.048 632.397 47.728 631.053 47.728C630.253 47.728 629.653 47.84 629.253 48.064C628.853 48.288 628.653 48.576 628.653 48.928C628.653 49.328 628.869 49.608 629.301 49.768C629.733 49.928 630.421 50.08 631.365 50.224C632.421 50.4 633.285 50.592 633.957 50.8C634.629 50.992 635.213 51.352 635.709 51.88C636.205 52.408 636.453 53.144 636.453 54.088C636.453 54.888 636.213 55.6 635.733 56.224C635.253 56.848 634.549 57.336 633.621 57.688C632.709 58.024 631.621 58.192 630.357 58.192ZM643.971 44.896C645.971 44.896 647.507 45.376 648.579 46.336C649.651 47.28 650.187 48.712 650.187 50.632V58H646.683V56.392C645.979 57.592 644.667 58.192 642.747 58.192C641.755 58.192 640.891 58.024 640.155 57.688C639.435 57.352 638.883 56.888 638.499 56.296C638.115 55.704 637.923 55.032 637.923 54.28C637.923 53.08 638.371 52.136 639.267 51.448C640.179 50.76 641.579 50.416 643.467 50.416H646.443C646.443 49.6 646.195 48.976 645.699 48.544C645.203 48.096 644.459 47.872 643.467 47.872C642.779 47.872 642.099 47.984 641.427 48.208C640.771 48.416 640.211 48.704 639.747 49.072L638.403 46.456C639.107 45.96 639.947 45.576 640.923 45.304C641.915 45.032 642.931 44.896 643.971 44.896ZM643.683 55.672C644.323 55.672 644.891 55.528 645.387 55.24C645.883 54.936 646.235 54.496 646.443 53.92V52.6H643.875C642.339 52.6 641.571 53.104 641.571 54.112C641.571 54.592 641.755 54.976 642.123 55.264C642.507 55.536 643.027 55.672 643.683 55.672ZM657.152 46.792C657.6 46.168 658.2 45.696 658.952 45.376C659.72 45.056 660.6 44.896 661.592 44.896V48.352C661.176 48.32 660.896 48.304 660.752 48.304C659.68 48.304 658.84 48.608 658.232 49.216C657.624 49.808 657.32 50.704 657.32 51.904V58H653.576V45.088H657.152V46.792ZM676.92 45.088V58H673.368V56.464C672.872 57.024 672.28 57.456 671.592 57.76C670.904 58.048 670.16 58.192 669.36 58.192C667.664 58.192 666.32 57.704 665.328 56.728C664.336 55.752 663.84 54.304 663.84 52.384V45.088H667.584V51.832C667.584 53.912 668.456 54.952 670.2 54.952C671.096 54.952 671.816 54.664 672.36 54.088C672.904 53.496 673.176 52.624 673.176 51.472V45.088H676.92ZM667.944 43.312C667.464 43.312 667.064 43.16 666.744 42.856C666.424 42.536 666.264 42.136 666.264 41.656C666.264 41.176 666.424 40.784 666.744 40.48C667.064 40.16 667.464 40 667.944 40C668.424 40 668.816 40.16 669.12 40.48C669.44 40.784 669.6 41.176 669.6 41.656C669.6 42.136 669.44 42.536 669.12 42.856C668.816 43.16 668.424 43.312 667.944 43.312ZM672.792 43.312C672.312 43.312 671.912 43.16 671.592 42.856C671.288 42.536 671.136 42.136 671.136 41.656C671.136 41.176 671.288 40.784 671.592 40.48C671.912 40.16 672.312 40 672.792 40C673.272 40 673.672 40.16 673.992 40.48C674.312 40.784 674.472 41.176 674.472 41.656C674.472 42.136 674.312 42.536 673.992 42.856C673.672 43.16 673.272 43.312 672.792 43.312ZM684.732 58.192C683.66 58.192 682.612 58.064 681.588 57.808C680.564 57.536 679.748 57.2 679.14 56.8L680.388 54.112C680.964 54.48 681.66 54.784 682.476 55.024C683.292 55.248 684.092 55.36 684.876 55.36C686.46 55.36 687.252 54.968 687.252 54.184C687.252 53.816 687.036 53.552 686.604 53.392C686.172 53.232 685.508 53.096 684.612 52.984C683.556 52.824 682.684 52.64 681.996 52.432C681.308 52.224 680.708 51.856 680.196 51.328C679.7 50.8 679.452 50.048 679.452 49.072C679.452 48.256 679.684 47.536 680.148 46.912C680.628 46.272 681.316 45.776 682.212 45.424C683.124 45.072 684.196 44.896 685.428 44.896C686.34 44.896 687.244 45 688.14 45.208C689.052 45.4 689.804 45.672 690.396 46.024L689.148 48.688C688.012 48.048 686.772 47.728 685.428 47.728C684.628 47.728 684.028 47.84 683.628 48.064C683.228 48.288 683.028 48.576 683.028 48.928C683.028 49.328 683.244 49.608 683.676 49.768C684.108 49.928 684.796 50.08 685.74 50.224C686.796 50.4 687.66 50.592 688.332 50.8C689.004 50.992 689.588 51.352 690.084 51.88C690.58 52.408 690.828 53.144 690.828 54.088C690.828 54.888 690.588 55.6 690.108 56.224C689.628 56.848 688.924 57.336 687.996 57.688C687.084 58.024 685.996 58.192 684.732 58.192ZM701.466 57.376C701.098 57.648 700.642 57.856 700.098 58C699.57 58.128 699.01 58.192 698.418 58.192C696.882 58.192 695.69 57.8 694.842 57.016C694.01 56.232 693.594 55.08 693.594 53.56V48.256H691.602V45.376H693.594V42.232H697.338V45.376H700.554V48.256H697.338V53.512C697.338 54.056 697.474 54.48 697.746 54.784C698.034 55.072 698.434 55.216 698.946 55.216C699.538 55.216 700.042 55.056 700.458 54.736L701.466 57.376ZM716.576 45.088V58H713.024V56.464C712.528 57.024 711.936 57.456 711.248 57.76C710.56 58.048 709.816 58.192 709.016 58.192C707.32 58.192 705.976 57.704 704.984 56.728C703.992 55.752 703.496 54.304 703.496 52.384V45.088H707.24V51.832C707.24 53.912 708.112 54.952 709.856 54.952C710.752 54.952 711.472 54.664 712.016 54.088C712.56 53.496 712.832 52.624 712.832 51.472V45.088H716.576ZM707.6 43.312C707.12 43.312 706.72 43.16 706.4 42.856C706.08 42.536 705.92 42.136 705.92 41.656C705.92 41.176 706.08 40.784 706.4 40.48C706.72 40.16 707.12 40 707.6 40C708.08 40 708.472 40.16 708.776 40.48C709.096 40.784 709.256 41.176 709.256 41.656C709.256 42.136 709.096 42.536 708.776 42.856C708.472 43.16 708.08 43.312 707.6 43.312ZM712.448 43.312C711.968 43.312 711.568 43.16 711.248 42.856C710.944 42.536 710.792 42.136 710.792 41.656C710.792 41.176 710.944 40.784 711.248 40.48C711.568 40.16 711.968 40 712.448 40C712.928 40 713.328 40.16 713.648 40.48C713.968 40.784 714.128 41.176 714.128 41.656C714.128 42.136 713.968 42.536 713.648 42.856C713.328 43.16 712.928 43.312 712.448 43.312Z" fill="black"/>
<rect x="97" y="123" width="6" height="21" fill="black"/>
<rect x="655" y="123" width="6" height="21" fill="black"/>
<g clip-path="url(#clip0_488_1498)">
<path d="M99.9998 179.025C96.4313 179.032 92.941 177.981 89.9705 176.006C87.0001 174.031 84.683 171.221 83.3126 167.93C81.9422 164.639 81.58 161.016 82.272 157.52C82.9639 154.024 84.6788 150.811 87.1996 148.288C89.7205 145.766 92.934 144.047 96.4334 143.349C99.9328 142.651 103.561 143.005 106.858 144.368C110.156 145.73 112.975 148.039 114.958 151.002C116.941 153.965 118 157.448 118 161.012C118 165.784 116.105 170.36 112.73 173.737C109.355 177.114 104.777 179.016 99.9998 179.025Z" fill="#009845"/>
<path d="M88.207 155.269H91.9493L94.7247 164.11H94.7598L97.5352 155.269H101.277V166.932H99.0381V157.305H99.003L95.8619 166.932H93.6226L90.4815 157.305L90.4464 157.34V166.932H88.207V155.269Z" fill="white"/>
<path d="M103.326 166.932V164.975C104.413 163.925 108.371 160.612 108.371 158.471C108.371 157.4 107.419 156.9 106.467 156.9C105.499 156.948 104.566 157.273 103.777 157.835L103.592 155.899C104.664 155.358 105.847 155.074 107.048 155.068C109.273 155.068 110.711 156.184 110.711 158.476C110.711 160.977 108.206 163.224 106.312 165.095H111.076V166.932H103.326Z" fill="white"/>
</g>
<g clip-path="url(#clip1_488_1498)">
<path d="M640 161C640 157.44 641.056 153.96 643.034 151C645.011 148.04 647.823 145.733 651.112 144.37C654.401 143.008 658.02 142.651 661.512 143.346C665.003 144.04 668.211 145.755 670.728 148.272C673.245 150.789 674.96 153.997 675.654 157.488C676.349 160.98 675.992 164.599 674.63 167.888C673.267 171.177 670.96 173.989 668 175.966C665.04 177.944 661.56 179 658 179C653.229 178.989 648.657 177.089 645.284 173.716C641.911 170.343 640.011 165.771 640 161Z" fill="#7A7157"/>
<path d="M649.303 154.124H656.786V156.348H651.932V159.584H656.381V161.809H651.932V167.674H649.303V154.124Z" fill="white"/>
<path d="M657.596 162.82L662.652 154.326H666.09V163.022H667.91V165.045H666.09V167.876H663.461V165.045H657.596V162.82ZM663.461 162.82V156.955L660.023 162.82H663.461Z" fill="white"/>
</g>
<defs>
<clipPath id="clip0_488_1498">
<rect width="36" height="36" fill="white" transform="translate(82 143)"/>
</clipPath>
<clipPath id="clip1_488_1498">
<rect width="36" height="36" fill="white" transform="translate(640 143)"/>
</clipPath>
</defs>
</svg>
