<svg id="Layer_1" data-name="Layer 1" xmlns="http://www.w3.org/2000/svg" viewBox="0 0 71.84 71.93"><defs><style>.cls-1{fill:#c8a977;}.cls-2{fill:#fff;}</style></defs><path class="cls-1" d="M35.92,71.93A36,36,0,1,1,71.84,36a36,36,0,0,1-35.92,36"/><polygon class="cls-2" points="13.01 24.37 20.48 24.37 26.02 42.04 26.08 42.04 31.62 24.37 39.09 24.37 39.09 47.69 34.62 47.69 34.62 28.45 34.55 28.45 28.29 47.69 23.82 47.69 17.55 28.45 17.48 28.52 17.48 47.69 13.01 47.69 13.01 24.37"/><path class="cls-2" d="M57.15,28.58a9.89,9.89,0,0,0-4.06-.93c-4,0-5.41,3.74-5.54,7.21l.07.07a5.05,5.05,0,0,1,4.5-2.34c4.4,0,6.8,2.8,6.8,7.11,0,5-2.47,8.38-7.73,8.38-6.48,0-7.91-5.37-7.91-10.85,0-6.31,2-13.25,9.57-13.25a14.39,14.39,0,0,1,4.91.83ZM48,40.47c0,2.21.94,4.14,3.24,4.14s3.07-2.1,3.07-4.17c0-2.27-.94-4.38-3.17-4.38S48,38.13,48,40.47"/></svg>