<svg width="1320" height="150" viewBox="0 0 1320 150" fill="none" xmlns="http://www.w3.org/2000/svg">
<rect x="93" y="60" width="120" height="30" fill="#D9D9D9"/>
<path d="M110.07 81V66.8008H112.961V78.5879H120.148V81H110.07ZM124.219 81V66.6836H134.834V69.1055H127.109V72.2793H134.297V74.6914H127.109V78.5879H135.107V81H124.219ZM143.211 81L138.094 66.6836H141.229L144.852 77.2793L148.357 66.6836H151.424L146.297 81H143.211ZM154.898 81V66.6836H165.514V69.1055H157.789V72.2793H164.977V74.6914H157.789V78.5879H165.787V81H154.898ZM170.268 81V66.6836H173.08L178.939 76.2441V66.6836H181.625V81H178.725L172.953 71.6641V81H170.268ZM189.914 81V69.1055H185.666V66.6836H197.043V69.1055H192.805V81H189.914Z" fill="#949494"/>
<rect x="431" y="60" width="120" height="30" fill="#D9D9D9"/>
<path d="M436.012 81V66.6836H438.824L444.684 76.2441V66.6836H447.369V81H444.469L438.697 71.6641V81H436.012ZM452.348 81V66.6836H455.238V81H452.348ZM452.455 65.8633V63.2656H455.15V65.8633H452.455ZM459.27 76.3418L462.082 76.0684C462.251 77.0124 462.593 77.7057 463.107 78.1484C463.628 78.5911 464.328 78.8125 465.207 78.8125C466.138 78.8125 466.838 78.6172 467.307 78.2266C467.782 77.8294 468.02 77.3672 468.02 76.8398C468.02 76.5013 467.919 76.2148 467.717 75.9805C467.521 75.7396 467.176 75.5312 466.682 75.3555C466.343 75.2383 465.572 75.0299 464.367 74.7305C462.818 74.3464 461.73 73.8743 461.105 73.3145C460.227 72.5267 459.787 71.5664 459.787 70.4336C459.787 69.7044 459.992 69.0241 460.402 68.3926C460.819 67.7546 461.415 67.2695 462.189 66.9375C462.971 66.6055 463.911 66.4395 465.012 66.4395C466.809 66.4395 468.16 66.8333 469.064 67.6211C469.976 68.4089 470.454 69.4603 470.5 70.7754L467.609 70.9023C467.486 70.1667 467.219 69.6393 466.809 69.3203C466.405 68.9948 465.796 68.832 464.982 68.832C464.143 68.832 463.485 69.0046 463.01 69.3496C462.704 69.571 462.551 69.8672 462.551 70.2383C462.551 70.5768 462.694 70.8665 462.98 71.1074C463.345 71.4134 464.23 71.7324 465.637 72.0645C467.043 72.3965 468.081 72.7415 468.752 73.0996C469.429 73.4512 469.956 73.9362 470.334 74.5547C470.718 75.1667 470.91 75.9251 470.91 76.8301C470.91 77.6504 470.682 78.4186 470.227 79.1348C469.771 79.8509 469.126 80.3848 468.293 80.7363C467.46 81.0814 466.421 81.2539 465.178 81.2539C463.368 81.2539 461.978 80.8372 461.008 80.0039C460.038 79.1641 459.458 77.9434 459.27 76.3418ZM475.342 81V66.6836H479.98C481.738 66.6836 482.884 66.7552 483.418 66.8984C484.238 67.1133 484.925 67.582 485.479 68.3047C486.032 69.0208 486.309 69.9486 486.309 71.0879C486.309 71.9668 486.149 72.7057 485.83 73.3047C485.511 73.9036 485.104 74.3757 484.609 74.7207C484.121 75.0592 483.623 75.2839 483.115 75.3945C482.425 75.5312 481.426 75.5996 480.117 75.5996H478.232V81H475.342ZM478.232 69.1055V73.168H479.814C480.954 73.168 481.715 73.0931 482.1 72.9434C482.484 72.7936 482.783 72.5592 482.998 72.2402C483.219 71.9212 483.33 71.5501 483.33 71.127C483.33 70.6061 483.177 70.1764 482.871 69.8379C482.565 69.4993 482.178 69.2878 481.709 69.2031C481.364 69.138 480.671 69.1055 479.629 69.1055H478.232ZM490.682 81V66.6836H501.297V69.1055H493.572V72.2793H500.76V74.6914H493.572V78.5879H501.57V81H490.682ZM509.244 81V69.1055H504.996V66.6836H516.373V69.1055H512.135V81H509.244ZM524.008 81V74.9746L518.764 66.6836H522.152L525.521 72.3477L528.822 66.6836H532.152L526.889 74.9941V81H524.008ZM535.588 81V66.6836H546.203V69.1055H538.479V72.2793H545.666V74.6914H538.479V78.5879H546.477V81H535.588Z" fill="#949494"/>
<rect x="769" y="60" width="120" height="30" fill="#D9D9D9"/>
<path d="M789.879 81V66.6836H800.494V69.1055H792.77V72.2793H799.957V74.6914H792.77V78.5879H800.768V81H789.879ZM808.441 81V69.1055H804.193V66.6836H815.57V69.1055H811.332V81H808.441ZM819.357 81V66.6836H822.248V81H819.357ZM819.465 65.8633V63.2656H822.16V65.8633H819.465ZM827.09 81V66.8008H829.98V78.5879H837.168V81H827.09ZM841.238 81V66.6836H851.854V69.1055H844.129V72.2793H851.316V74.6914H844.129V78.5879H852.127V81H841.238ZM856.588 81V66.6836H862.672C864.202 66.6836 865.312 66.8138 866.002 67.0742C866.699 67.3281 867.255 67.7839 867.672 68.4414C868.089 69.099 868.297 69.8509 868.297 70.6973C868.297 71.7715 867.981 72.6602 867.35 73.3633C866.718 74.0599 865.774 74.4993 864.518 74.6816C865.143 75.0462 865.657 75.4466 866.061 75.8828C866.471 76.319 867.021 77.0938 867.711 78.207L869.459 81H866.002L863.912 77.8848C863.17 76.7715 862.662 76.0716 862.389 75.7852C862.115 75.4922 861.826 75.2936 861.52 75.1895C861.214 75.0788 860.729 75.0234 860.064 75.0234H859.479V81H856.588ZM859.479 72.7383H861.617C863.004 72.7383 863.87 72.6797 864.215 72.5625C864.56 72.4453 864.83 72.2435 865.025 71.957C865.221 71.6706 865.318 71.3125 865.318 70.8828C865.318 70.401 865.188 70.0137 864.928 69.7207C864.674 69.4212 864.312 69.2324 863.844 69.1543C863.609 69.1217 862.906 69.1055 861.734 69.1055H859.479V72.7383Z" fill="#949494"/>
<rect x="1107" y="60" width="120" height="30" fill="#D9D9D9"/>
<path d="M1112.54 66.6836H1118.26C1119.39 66.6836 1120.24 66.7324 1120.79 66.8301C1121.35 66.9212 1121.85 67.1165 1122.29 67.416C1122.73 67.7155 1123.1 68.1159 1123.39 68.6172C1123.68 69.112 1123.83 69.6686 1123.83 70.2871C1123.83 70.9577 1123.65 71.5729 1123.28 72.1328C1122.92 72.6927 1122.43 73.1126 1121.82 73.3926C1122.69 73.6465 1123.36 74.0794 1123.83 74.6914C1124.3 75.3034 1124.53 76.0228 1124.53 76.8496C1124.53 77.5007 1124.38 78.1354 1124.07 78.7539C1123.77 79.3659 1123.36 79.8574 1122.83 80.2285C1122.31 80.5931 1121.67 80.8177 1120.9 80.9023C1120.42 80.9544 1119.25 80.987 1117.41 81H1112.54V66.6836ZM1115.43 69.0664V72.377H1117.32C1118.45 72.377 1119.15 72.3607 1119.42 72.3281C1119.92 72.2695 1120.31 72.1003 1120.59 71.8203C1120.87 71.5339 1121.02 71.1595 1121.02 70.6973C1121.02 70.2546 1120.89 69.8965 1120.64 69.623C1120.4 69.3431 1120.04 69.1738 1119.56 69.1152C1119.27 69.0827 1118.45 69.0664 1117.09 69.0664H1115.43ZM1115.43 74.7598V78.5879H1118.11C1119.15 78.5879 1119.81 78.5586 1120.09 78.5C1120.52 78.4219 1120.87 78.2331 1121.13 77.9336C1121.41 77.6276 1121.54 77.2207 1121.54 76.7129C1121.54 76.2832 1121.44 75.9186 1121.23 75.6191C1121.02 75.3197 1120.72 75.1016 1120.32 74.9648C1119.93 74.8281 1119.08 74.7598 1117.76 74.7598H1115.43ZM1128.4 73.9297C1128.4 72.4714 1128.61 71.2474 1129.05 70.2578C1129.38 69.5286 1129.82 68.8743 1130.38 68.2949C1130.95 67.7155 1131.56 67.2858 1132.23 67.0059C1133.13 66.6283 1134.15 66.4395 1135.32 66.4395C1137.43 66.4395 1139.12 67.0938 1140.38 68.4023C1141.65 69.7109 1142.28 71.5306 1142.28 73.8613C1142.28 76.1725 1141.65 77.9824 1140.4 79.291C1139.14 80.5931 1137.46 81.2441 1135.36 81.2441C1133.23 81.2441 1131.54 80.5964 1130.28 79.3008C1129.02 77.9987 1128.4 76.2083 1128.4 73.9297ZM1131.38 73.832C1131.38 75.4531 1131.75 76.6836 1132.5 77.5234C1133.25 78.3568 1134.2 78.7734 1135.35 78.7734C1136.5 78.7734 1137.45 78.36 1138.18 77.5332C1138.92 76.6999 1139.29 75.4531 1139.29 73.793C1139.29 72.1523 1138.93 70.9284 1138.21 70.1211C1137.49 69.3138 1136.54 68.9102 1135.35 68.9102C1134.16 68.9102 1133.2 69.3203 1132.47 70.1406C1131.74 70.9544 1131.38 72.1849 1131.38 73.832ZM1153.21 75.7363V73.3242H1159.44V79.0273C1158.83 79.6133 1157.96 80.1309 1156.8 80.5801C1155.66 81.0228 1154.49 81.2441 1153.32 81.2441C1151.82 81.2441 1150.51 80.9316 1149.4 80.3066C1148.29 79.6751 1147.45 78.7767 1146.89 77.6113C1146.33 76.4395 1146.05 75.1667 1146.05 73.793C1146.05 72.3021 1146.36 70.9772 1146.99 69.8184C1147.61 68.6595 1148.53 67.7708 1149.73 67.1523C1150.65 66.6771 1151.79 66.4395 1153.16 66.4395C1154.94 66.4395 1156.32 66.8138 1157.32 67.5625C1158.32 68.3047 1158.97 69.3333 1159.25 70.6484L1156.38 71.1855C1156.18 70.4824 1155.8 69.929 1155.24 69.5254C1154.69 69.1152 1153.99 68.9102 1153.16 68.9102C1151.9 68.9102 1150.89 69.3105 1150.14 70.1113C1149.4 70.9121 1149.03 72.1003 1149.03 73.6758C1149.03 75.375 1149.41 76.651 1150.16 77.5039C1150.92 78.3503 1151.91 78.7734 1153.13 78.7734C1153.74 78.7734 1154.34 78.6562 1154.95 78.4219C1155.56 78.181 1156.08 77.8913 1156.52 77.5527V75.7363H1153.21ZM1155.04 63.0703H1156.38C1156.3 63.9557 1155.99 64.6523 1155.45 65.1602C1154.9 65.6615 1154.2 65.9121 1153.34 65.9121C1152.47 65.9121 1151.76 65.6615 1151.22 65.1602C1150.68 64.6523 1150.37 63.9557 1150.29 63.0703H1151.63C1151.67 63.5326 1151.84 63.8841 1152.12 64.125C1152.4 64.3594 1152.8 64.4766 1153.34 64.4766C1153.87 64.4766 1154.28 64.3594 1154.56 64.125C1154.84 63.8841 1155 63.5326 1155.04 63.0703ZM1177.03 81H1173.88L1172.63 77.748H1166.91L1165.73 81H1162.66L1168.24 66.6836H1171.29L1177.03 81ZM1171.7 75.3359L1169.73 70.0234L1167.8 75.3359H1171.7ZM1179.33 81V78.3926L1186.85 69.1055H1180.18V66.6836H1190.66V68.9297L1182.81 78.5879H1190.96V81H1179.33ZM1194.71 81V66.6836H1197.6V81H1194.71ZM1194.81 65.8633V63.2656H1197.51V65.8633H1194.81ZM1211.52 75.7363L1214.32 76.625C1213.89 78.1875 1213.18 79.3496 1212.18 80.1113C1211.18 80.8665 1209.91 81.2441 1208.38 81.2441C1206.48 81.2441 1204.91 80.5964 1203.69 79.3008C1202.47 77.9987 1201.85 76.2214 1201.85 73.9688C1201.85 71.5859 1202.47 69.737 1203.7 68.4219C1204.93 67.1003 1206.55 66.4395 1208.55 66.4395C1210.3 66.4395 1211.73 66.957 1212.82 67.9922C1213.47 68.6042 1213.96 69.4831 1214.29 70.6289L1211.42 71.3125C1211.25 70.5703 1210.9 69.9844 1210.36 69.5547C1209.83 69.125 1209.17 68.9102 1208.41 68.9102C1207.35 68.9102 1206.48 69.291 1205.82 70.0527C1205.16 70.8145 1204.83 72.0482 1204.83 73.7539C1204.83 75.5638 1205.16 76.8529 1205.81 77.6211C1206.46 78.3893 1207.31 78.7734 1208.35 78.7734C1209.12 78.7734 1209.78 78.5293 1210.33 78.041C1210.88 77.5527 1211.28 76.7845 1211.52 75.7363ZM1205.45 84.9355V83.7832C1206.12 83.8548 1206.73 83.8906 1207.29 83.8906C1207.87 83.8906 1208.3 83.7865 1208.58 83.5781C1208.8 83.4219 1208.9 83.2201 1208.9 82.9727C1208.9 82.7513 1208.8 82.5592 1208.6 82.3965C1208.4 82.2337 1208.09 82.1523 1207.66 82.1523C1207.25 82.1523 1206.82 82.2174 1206.38 82.3477L1206.64 81.3809C1207.15 81.2051 1207.69 81.1172 1208.28 81.1172C1209.09 81.1172 1209.71 81.2962 1210.13 81.6543C1210.56 82.0124 1210.77 82.4486 1210.77 82.9629C1210.77 83.5358 1210.54 84.0013 1210.07 84.3594C1209.43 84.8477 1208.53 85.0918 1207.35 85.0918C1206.51 85.0918 1205.88 85.0397 1205.45 84.9355ZM1218.73 81V66.6836H1221.62V81H1218.73ZM1218.83 65.8633V63.2656H1221.53V65.8633H1218.83Z" fill="#949494"/>
<line x1="314.436" y1="56.5643" x2="332.113" y2="74.242" stroke="#949494" stroke-width="10"/>
<line x1="316" y1="60.1497" x2="316" y2="30" stroke="#949494" stroke-width="10"/>
<line x1="80" y1="35" x2="230" y2="35" stroke="#949494" stroke-width="10"/>
<line x1="414" y1="35" x2="568" y2="35" stroke="#949494" stroke-width="10"/>
<line x1="752" y1="35" x2="906" y2="35" stroke="#949494" stroke-width="10"/>
<line x1="1090" y1="35" x2="1240" y2="35" stroke="#949494" stroke-width="10"/>
<line x1="262" y1="75" x2="382" y2="75" stroke="#949494" stroke-width="10"/>
<line x1="600" y1="75" x2="720" y2="75" stroke="#949494" stroke-width="10"/>
<line x1="938" y1="75" x2="1058" y2="75" stroke="#949494" stroke-width="10"/>
<line x1="80" y1="115" x2="230" y2="115" stroke="#949494" stroke-width="10"/>
<line x1="414" y1="115" x2="568" y2="115" stroke="#949494" stroke-width="10"/>
<line x1="752" y1="115" x2="906" y2="115" stroke="#949494" stroke-width="10"/>
<line x1="1090" y1="115" x2="1240" y2="115" stroke="#949494" stroke-width="10"/>
<line x1="226.464" y1="116.464" x2="267.477" y2="75.4523" stroke="#949494" stroke-width="10"/>
<line x1="564.464" y1="116.464" x2="605.477" y2="75.4523" stroke="#949494" stroke-width="10"/>
<line x1="902.464" y1="116.464" x2="943.477" y2="75.4523" stroke="#949494" stroke-width="10"/>
<line x1="376.464" y1="74.4645" x2="417.477" y2="33.4523" stroke="#949494" stroke-width="10"/>
<line x1="714.464" y1="74.4645" x2="755.477" y2="33.4523" stroke="#949494" stroke-width="10"/>
<line x1="1052.46" y1="74.4645" x2="1093.48" y2="33.4523" stroke="#949494" stroke-width="10"/>
<line x1="226.436" y1="33.5643" x2="267.448" y2="74.5765" stroke="#949494" stroke-width="10"/>
<line x1="564.436" y1="33.5643" x2="605.448" y2="74.5765" stroke="#949494" stroke-width="10"/>
<line x1="902.436" y1="33.5643" x2="943.448" y2="74.5765" stroke="#949494" stroke-width="10"/>
<line x1="376.436" y1="75.5643" x2="417.448" y2="116.577" stroke="#949494" stroke-width="10"/>
<line x1="714.436" y1="75.5643" x2="755.448" y2="116.577" stroke="#949494" stroke-width="10"/>
<line x1="1052.44" y1="75.5643" x2="1093.45" y2="116.577" stroke="#949494" stroke-width="10"/>
</svg>
