<?xml version="1.0" encoding="utf-8"?>
<!-- Generator: Adobe Illustrator 27.7.0, SVG Export Plug-In . SVG Version: 6.00 Build 0)  -->
<svg version="1.1" id="Layer_1" xmlns="http://www.w3.org/2000/svg" xmlns:xlink="http://www.w3.org/1999/xlink" x="0px" y="0px"
	 width="17.8px" height="17.8px" viewBox="0 0 17.8 17.8" style="enable-background:new 0 0 17.8 17.8;" xml:space="preserve">
<style type="text/css">
	.st0{fill:#76777A;}
	.st1{fill:#FFFFFF;}
</style>
<g id="Layer_2_00000050659629433572874120000010948693138501933203_">
	<g id="Layer_1-2">
		<g id="Layer_2-2">
			<g id="Layer_1-2-2">
				<path class="st0" d="M0,8.9C0,3.98,3.98,0,8.9,0s8.9,3.98,8.9,8.9s-3.98,8.9-8.9,8.9C4.05,17.86,0.06,13.98,0,9.12c0,0,0,0,0,0
					V8.9"/>
			</g>
			<g>
				<path class="st1" d="M4,12.2V5.59h2.31c1.34,0,2.13,0.58,2.13,1.69c0.01,0.76-0.56,1.4-1.32,1.48l0,0
					c0.83,0.01,1.5,0.68,1.52,1.51c0,1.3-0.93,1.91-2.36,1.91L4,12.2z M5.84,8.26c0.87,0,1.27-0.28,1.27-0.8S6.85,6.63,5.93,6.63
					H5.32v1.63H5.84z M6,11.16c0.86,0,1.35-0.3,1.35-0.92s-0.44-1-1.32-1H5.32v1.91L6,11.16z"/>
				<path class="st1" d="M9.41,12.2v-1.1l0.79-0.74c1.27-1.19,2.07-2.23,2.07-2.95c0-0.57-0.49-0.89-1.08-0.89
					c-0.55,0.02-1.08,0.21-1.53,0.53L9.56,6c0.62-0.31,1.31-0.47,2-0.47c1-0.12,1.91,0.59,2.03,1.58c0.01,0.1,0.02,0.2,0.01,0.3
					c0,0.92-0.53,1.92-2.5,3.75h2.7v1L9.41,12.2z"/>
			</g>
		</g>
	</g>
</g>
</svg>
