<svg width="943" height="200" viewBox="0 0 943 200" fill="none" xmlns="http://www.w3.org/2000/svg">
<path d="M100 100H837" stroke="#7A7157" stroke-width="20"/>
<circle cx="100" cy="100" r="24" fill="black"/>
<ellipse cx="100.001" cy="99.9939" rx="19.2" ry="19.2" fill="white"/>
<circle cx="843" cy="100" r="24" fill="black"/>
<ellipse cx="843.001" cy="99.9939" rx="19.2" ry="19.2" fill="white"/>
<path d="M60.6947 44.368H55.3187V41.2H69.9587V44.368H64.5827V58H60.6947V44.368ZM76.3383 44.896C78.3383 44.896 79.8743 45.376 80.9463 46.336C82.0183 47.28 82.5543 48.712 82.5543 50.632V58H79.0503V56.392C78.3463 57.592 77.0343 58.192 75.1143 58.192C74.1223 58.192 73.2583 58.024 72.5223 57.688C71.8023 57.352 71.2503 56.888 70.8663 56.296C70.4823 55.704 70.2903 55.032 70.2903 54.28C70.2903 53.08 70.7383 52.136 71.6343 51.448C72.5463 50.76 73.9463 50.416 75.8343 50.416H78.8103C78.8103 49.6 78.5623 48.976 78.0663 48.544C77.5703 48.096 76.8263 47.872 75.8343 47.872C75.1463 47.872 74.4663 47.984 73.7943 48.208C73.1383 48.416 72.5783 48.704 72.1143 49.072L70.7703 46.456C71.4743 45.96 72.3143 45.576 73.2903 45.304C74.2823 45.032 75.2983 44.896 76.3383 44.896ZM76.0503 55.672C76.6903 55.672 77.2583 55.528 77.7543 55.24C78.2503 54.936 78.6023 54.496 78.8103 53.92V52.6H76.2423C74.7063 52.6 73.9383 53.104 73.9383 54.112C73.9383 54.592 74.1223 54.976 74.4903 55.264C74.8743 55.536 75.3943 55.672 76.0503 55.672ZM91.4868 52.936L89.6868 54.712V58H85.9428V40.192H89.6868V50.272L95.1588 45.088H99.6228L94.2468 50.56L100.103 58H95.5668L91.4868 52.936ZM105.709 58.192C104.637 58.192 103.589 58.064 102.565 57.808C101.541 57.536 100.725 57.2 100.117 56.8L101.365 54.112C101.941 54.48 102.637 54.784 103.453 55.024C104.269 55.248 105.069 55.36 105.853 55.36C107.437 55.36 108.229 54.968 108.229 54.184C108.229 53.816 108.013 53.552 107.581 53.392C107.149 53.232 106.485 53.096 105.589 52.984C104.533 52.824 103.661 52.64 102.973 52.432C102.285 52.224 101.685 51.856 101.173 51.328C100.677 50.8 100.429 50.048 100.429 49.072C100.429 48.256 100.661 47.536 101.125 46.912C101.605 46.272 102.293 45.776 103.189 45.424C104.101 45.072 105.173 44.896 106.405 44.896C107.317 44.896 108.221 45 109.117 45.208C110.029 45.4 110.781 45.672 111.373 46.024L110.125 48.688C108.989 48.048 107.749 47.728 106.405 47.728C105.605 47.728 105.005 47.84 104.605 48.064C104.205 48.288 104.005 48.576 104.005 48.928C104.005 49.328 104.221 49.608 104.653 49.768C105.085 49.928 105.773 50.08 106.717 50.224C107.773 50.4 108.637 50.592 109.309 50.8C109.981 50.992 110.565 51.352 111.061 51.88C111.557 52.408 111.805 53.144 111.805 54.088C111.805 54.888 111.565 55.6 111.085 56.224C110.605 56.848 109.901 57.336 108.973 57.688C108.061 58.024 106.973 58.192 105.709 58.192ZM114.115 45.088H117.859V58H114.115V45.088ZM115.987 43.288C115.299 43.288 114.739 43.088 114.307 42.688C113.875 42.288 113.659 41.792 113.659 41.2C113.659 40.608 113.875 40.112 114.307 39.712C114.739 39.312 115.299 39.112 115.987 39.112C116.675 39.112 117.235 39.304 117.667 39.688C118.099 40.072 118.315 40.552 118.315 41.128C118.315 41.752 118.099 42.272 117.667 42.688C117.235 43.088 116.675 43.288 115.987 43.288ZM137.869 44.896C139.485 44.896 140.765 45.376 141.709 46.336C142.669 47.28 143.149 48.704 143.149 50.608V58H139.405V51.184C139.405 50.16 139.189 49.4 138.757 48.904C138.341 48.392 137.741 48.136 136.957 48.136C136.077 48.136 135.381 48.424 134.869 49C134.357 49.56 134.101 50.4 134.101 51.52V58H130.357V51.184C130.357 49.152 129.541 48.136 127.909 48.136C127.045 48.136 126.357 48.424 125.845 49C125.333 49.56 125.077 50.4 125.077 51.52V58H121.333V45.088H124.909V46.576C125.389 46.032 125.973 45.616 126.661 45.328C127.365 45.04 128.133 44.896 128.965 44.896C129.877 44.896 130.701 45.08 131.437 45.448C132.173 45.8 132.765 46.32 133.213 47.008C133.741 46.336 134.405 45.816 135.205 45.448C136.021 45.08 136.909 44.896 137.869 44.896Z" fill="black"/>
<path d="M800.382 51.4L798.126 53.752V58H794.262V41.2H798.126V49.048L805.566 41.2H809.886L802.926 48.688L810.294 58H805.758L800.382 51.4ZM816.69 44.896C818.69 44.896 820.226 45.376 821.298 46.336C822.37 47.28 822.906 48.712 822.906 50.632V58H819.402V56.392C818.698 57.592 817.386 58.192 815.466 58.192C814.474 58.192 813.61 58.024 812.874 57.688C812.154 57.352 811.602 56.888 811.218 56.296C810.834 55.704 810.642 55.032 810.642 54.28C810.642 53.08 811.09 52.136 811.986 51.448C812.898 50.76 814.298 50.416 816.186 50.416H819.162C819.162 49.6 818.914 48.976 818.418 48.544C817.922 48.096 817.178 47.872 816.186 47.872C815.498 47.872 814.818 47.984 814.146 48.208C813.49 48.416 812.93 48.704 812.466 49.072L811.122 46.456C811.826 45.96 812.666 45.576 813.642 45.304C814.634 45.032 815.65 44.896 816.69 44.896ZM816.402 55.672C817.042 55.672 817.61 55.528 818.106 55.24C818.602 54.936 818.954 54.496 819.162 53.92V52.6H816.594C815.058 52.6 814.29 53.104 814.29 54.112C814.29 54.592 814.474 54.976 814.842 55.264C815.226 55.536 815.746 55.672 816.402 55.672ZM833.926 44.896C835.126 44.896 836.214 45.176 837.19 45.736C838.182 46.28 838.958 47.056 839.518 48.064C840.078 49.056 840.358 50.216 840.358 51.544C840.358 52.872 840.078 54.04 839.518 55.048C838.958 56.04 838.182 56.816 837.19 57.376C836.214 57.92 835.126 58.192 833.926 58.192C832.15 58.192 830.798 57.632 829.87 56.512V58H826.294V40.192H830.038V46.456C830.982 45.416 832.278 44.896 833.926 44.896ZM833.278 55.12C834.238 55.12 835.022 54.8 835.63 54.16C836.254 53.504 836.566 52.632 836.566 51.544C836.566 50.456 836.254 49.592 835.63 48.952C835.022 48.296 834.238 47.968 833.278 47.968C832.318 47.968 831.526 48.296 830.902 48.952C830.294 49.592 829.99 50.456 829.99 51.544C829.99 52.632 830.294 53.504 830.902 54.16C831.526 54.8 832.318 55.12 833.278 55.12ZM847.862 44.896C849.862 44.896 851.398 45.376 852.47 46.336C853.542 47.28 854.078 48.712 854.078 50.632V58H850.574V56.392C849.87 57.592 848.558 58.192 846.638 58.192C845.646 58.192 844.782 58.024 844.046 57.688C843.326 57.352 842.774 56.888 842.39 56.296C842.006 55.704 841.814 55.032 841.814 54.28C841.814 53.08 842.262 52.136 843.158 51.448C844.07 50.76 845.47 50.416 847.358 50.416H850.334C850.334 49.6 850.086 48.976 849.59 48.544C849.094 48.096 848.35 47.872 847.358 47.872C846.67 47.872 845.99 47.984 845.318 48.208C844.662 48.416 844.102 48.704 843.638 49.072L842.294 46.456C842.998 45.96 843.838 45.576 844.814 45.304C845.806 45.032 846.822 44.896 847.862 44.896ZM847.574 55.672C848.214 55.672 848.782 55.528 849.278 55.24C849.774 54.936 850.126 54.496 850.334 53.92V52.6H847.766C846.23 52.6 845.462 53.104 845.462 54.112C845.462 54.592 845.646 54.976 846.014 55.264C846.398 55.536 846.918 55.672 847.574 55.672ZM865.794 57.376C865.426 57.648 864.97 57.856 864.426 58C863.898 58.128 863.338 58.192 862.746 58.192C861.21 58.192 860.018 57.8 859.17 57.016C858.338 56.232 857.922 55.08 857.922 53.56V48.256H855.93V45.376H857.922V42.232H861.666V45.376H864.882V48.256H861.666V53.512C861.666 54.056 861.802 54.48 862.074 54.784C862.362 55.072 862.762 55.216 863.274 55.216C863.866 55.216 864.37 55.056 864.786 54.736L865.794 57.376ZM873.104 44.896C875.104 44.896 876.64 45.376 877.712 46.336C878.784 47.28 879.32 48.712 879.32 50.632V58H875.816V56.392C875.112 57.592 873.8 58.192 871.88 58.192C870.888 58.192 870.024 58.024 869.288 57.688C868.568 57.352 868.016 56.888 867.632 56.296C867.248 55.704 867.056 55.032 867.056 54.28C867.056 53.08 867.504 52.136 868.4 51.448C869.312 50.76 870.712 50.416 872.6 50.416H875.576C875.576 49.6 875.328 48.976 874.832 48.544C874.336 48.096 873.592 47.872 872.6 47.872C871.912 47.872 871.232 47.984 870.56 48.208C869.904 48.416 869.344 48.704 868.88 49.072L867.536 46.456C868.24 45.96 869.08 45.576 870.056 45.304C871.048 45.032 872.064 44.896 873.104 44.896ZM872.816 55.672C873.456 55.672 874.024 55.528 874.52 55.24C875.016 54.936 875.368 54.496 875.576 53.92V52.6H873.008C871.472 52.6 870.704 53.104 870.704 54.112C870.704 54.592 870.888 54.976 871.256 55.264C871.64 55.536 872.16 55.672 872.816 55.672ZM887.052 58.192C885.98 58.192 884.932 58.064 883.908 57.808C882.884 57.536 882.068 57.2 881.46 56.8L882.708 54.112C883.284 54.48 883.98 54.784 884.796 55.024C885.612 55.248 886.412 55.36 887.196 55.36C888.78 55.36 889.572 54.968 889.572 54.184C889.572 53.816 889.356 53.552 888.924 53.392C888.492 53.232 887.828 53.096 886.932 52.984C885.876 52.824 885.004 52.64 884.316 52.432C883.628 52.224 883.028 51.856 882.516 51.328C882.02 50.8 881.772 50.048 881.772 49.072C881.772 48.256 882.004 47.536 882.468 46.912C882.948 46.272 883.636 45.776 884.532 45.424C885.444 45.072 886.516 44.896 887.748 44.896C888.66 44.896 889.564 45 890.46 45.208C891.372 45.4 892.124 45.672 892.716 46.024L891.468 48.688C890.332 48.048 889.092 47.728 887.748 47.728C886.948 47.728 886.348 47.84 885.948 48.064C885.548 48.288 885.348 48.576 885.348 48.928C885.348 49.328 885.564 49.608 885.996 49.768C886.428 49.928 887.116 50.08 888.06 50.224C889.116 50.4 889.98 50.592 890.652 50.8C891.324 50.992 891.908 51.352 892.404 51.88C892.9 52.408 893.148 53.144 893.148 54.088C893.148 54.888 892.908 55.6 892.428 56.224C891.948 56.848 891.244 57.336 890.316 57.688C889.404 58.024 888.316 58.192 887.052 58.192ZM886.452 63.568C886.036 63.568 885.628 63.52 885.228 63.424C884.828 63.344 884.492 63.224 884.22 63.064L884.796 61.456C885.308 61.696 885.828 61.816 886.356 61.816C887.188 61.816 887.604 61.56 887.604 61.048C887.604 60.584 887.212 60.352 886.428 60.352H885.612L886.236 57.808H888.228L887.892 59.2C888.596 59.28 889.116 59.496 889.452 59.848C889.804 60.216 889.98 60.664 889.98 61.192C889.98 61.928 889.66 62.504 889.02 62.92C888.38 63.352 887.524 63.568 886.452 63.568Z" fill="black"/>
<rect x="840" y="123" width="6" height="20" fill="black"/>
<rect x="97" y="123" width="6" height="21" fill="black"/>
<g clip-path="url(#clip0_494_3621)">
<path d="M57.9998 179.025C54.4313 179.032 50.941 177.981 47.9705 176.006C45.0001 174.031 42.683 171.221 41.3126 167.93C39.9422 164.639 39.58 161.016 40.272 157.52C40.9639 154.024 42.6788 150.811 45.1996 148.288C47.7205 145.766 50.934 144.047 54.4334 143.349C57.9328 142.651 61.5608 143.005 64.8584 144.368C68.1559 145.73 70.9746 148.039 72.9579 151.002C74.9412 153.965 75.9998 157.448 75.9998 161.012C75.9998 165.784 74.1045 170.36 70.7299 173.737C67.3552 177.114 62.7769 179.016 57.9998 179.025Z" fill="#009845"/>
<path d="M46.207 155.269H49.9493L52.7247 164.11H52.7598L55.5352 155.269H59.2774V166.932H57.0381V157.305H57.003L53.8619 166.932H51.6226L48.4815 157.305L48.4464 157.34V166.932H46.207V155.269Z" fill="white"/>
<path d="M61.3262 166.932V164.975C62.4133 163.925 66.371 160.612 66.371 158.471C66.371 157.4 65.4191 156.9 64.4673 156.9C63.4993 156.948 62.5656 157.273 61.777 157.835L61.5917 155.899C62.6639 155.358 63.8473 155.074 65.0484 155.068C67.2727 155.068 68.7105 156.184 68.7105 158.476C68.7105 160.977 66.2057 163.224 64.312 165.095H69.0762V166.932H61.3262Z" fill="white"/>
</g>
<g clip-path="url(#clip1_494_3621)">
<path d="M124 161C124 151.09 132.09 143 142 143C151.91 143 160 151.09 160 161C160 170.91 151.91 179 142 179C132.09 179.202 124.202 171.315 124 161.404C124 161.202 124 161.202 124 161Z" fill="#9D9D9D"/>
<path d="M135.326 154.933H139.371L142 164.034L145.034 154.933H148.877V167.067H146.45V156.955L143.416 167.067H140.989L137.753 156.955V157.157V167.067H135.326V154.933Z" fill="white"/>
</g>
<g clip-path="url(#clip2_494_3621)">
<path d="M863.998 179C860.433 179.004 856.946 177.952 853.98 175.976C851.013 174.001 848.7 171.191 847.333 167.902C845.966 164.614 845.606 160.994 846.299 157.501C846.992 154.008 848.707 150.799 851.227 148.279C853.746 145.76 856.958 144.044 860.454 143.347C863.951 142.651 867.576 143.006 870.87 144.368C874.164 145.73 876.98 148.037 878.962 150.998C880.943 153.958 882 157.439 882 161C881.998 165.77 880.101 170.343 876.726 173.718C873.351 177.092 868.774 178.992 863.998 179Z" fill="#004987"/>
<path d="M858.324 156.783H854.797V154.846H864.325V156.783H860.793V167.154H858.324V156.783Z" fill="white"/>
<path d="M869.464 154.846H871.651V167.154H869.182V157.649L867.096 159.344L865.861 157.739L869.464 154.846Z" fill="white"/>
</g>
<g clip-path="url(#clip3_494_3621)">
<path d="M804 161C804 157.44 805.056 153.96 807.034 151C809.011 148.04 811.823 145.733 815.112 144.37C818.401 143.008 822.02 142.651 825.512 143.346C829.003 144.04 832.211 145.755 834.728 148.272C837.245 150.789 838.96 153.997 839.654 157.488C840.349 160.98 839.992 164.599 838.63 167.888C837.267 171.177 834.96 173.989 832 175.966C829.04 177.944 825.56 179 822 179C817.229 178.989 812.657 177.089 809.284 173.716C805.911 170.343 804.011 165.771 804 161Z" fill="#F29EBF"/>
<path d="M810.27 155.337H814.112L816.944 164.438L819.775 155.337H823.82V167.472H821.393V157.359L818.157 167.472H815.73L812.494 157.359V167.472H810.27V155.337Z" fill="white"/>
<path d="M826.045 155.337H833.73V157.359L829.483 167.472H826.854L831.303 157.157H826.045V155.337Z" fill="white"/>
</g>
<g clip-path="url(#clip4_494_3621)">
<path d="M82 161C82.0102 157.453 83.0725 153.989 85.0528 151.045C87.0332 148.101 89.8428 145.808 93.127 144.457C96.4113 143.105 100.023 142.756 103.506 143.452C106.989 144.148 110.187 145.859 112.697 148.369C115.207 150.878 116.917 154.074 117.609 157.553C118.301 161.031 117.946 164.637 116.588 167.914C115.23 171.191 112.929 173.993 109.978 175.966C107.026 177.939 103.555 178.995 100.003 179C95.2248 178.996 90.6443 177.097 87.2683 173.722C83.8923 170.346 81.9973 165.77 82 161Z" fill="#90ABA0"/>
<path d="M94.0905 156.784H90.4746V154.8H100.244V156.784H96.6278V167.42H94.0905V156.784Z" fill="white"/>
<path d="M101.133 167.421V165.308C102.309 164.164 106.598 160.585 106.598 158.272C106.598 157.113 105.571 156.569 104.543 156.569C103.494 156.626 102.483 156.982 101.631 157.595L101.436 155.498C102.597 154.909 103.878 154.598 105.18 154.59C107.584 154.59 109.14 155.8 109.14 158.282C109.14 160.959 106.444 163.41 104.384 165.462H109.52V167.451L101.133 167.421Z" fill="white"/>
</g>
<defs>
<clipPath id="clip0_494_3621">
<rect width="36" height="36" fill="white" transform="translate(40 143)"/>
</clipPath>
<clipPath id="clip1_494_3621">
<rect width="36" height="36" fill="white" transform="translate(124 143)"/>
</clipPath>
<clipPath id="clip2_494_3621">
<rect width="36" height="36" fill="white" transform="translate(846 143)"/>
</clipPath>
<clipPath id="clip3_494_3621">
<rect width="36" height="36" fill="white" transform="translate(804 143)"/>
</clipPath>
<clipPath id="clip4_494_3621">
<rect width="36" height="36" fill="white" transform="translate(82 143)"/>
</clipPath>
</defs>
</svg>
