<svg xmlns="http://www.w3.org/2000/svg" viewBox="0 0 17.8 17.8"><defs><style>.cls-1{fill:#7a7157;}.cls-2{fill:#fff;}</style></defs><g id="Layer_2" data-name="Layer 2"><g id="Layer_1-2" data-name="Layer 1"><path class="cls-1" d="M0,8.9a8.9,8.9,0,1,1,8.9,8.9A8.92,8.92,0,0,1,0,8.9"/><polygon class="cls-2" points="4.5 5.6 8.2 5.6 8.2 6.7 5.8 6.7 5.8 8.3 8.1 8.3 8.1 9.3 5.8 9.3 5.8 12.2 4.5 12.2 4.5 5.6"/><path class="cls-2" d="M8.9,12.2V11.1c.6-.6,2.8-2.5,2.8-3.7,0-.6-.5-.9-1.1-.9A2.46,2.46,0,0,0,9.1,7L9,5.9a4.49,4.49,0,0,1,1.9-.5c1.3,0,2.1.6,2.1,1.9S11.6,10,10.5,11h2.7v1H8.9Z"/></g></g></svg>