<svg width="943" height="200" viewBox="0 0 943 200" fill="none" xmlns="http://www.w3.org/2000/svg">
<path d="M100 100H837" stroke="#7A7157" stroke-width="20"/>
<circle cx="100" cy="100" r="24" fill="black"/>
<ellipse cx="100.001" cy="99.9939" rx="19.2" ry="19.2" fill="white"/>
<circle cx="843" cy="100" r="24" fill="black"/>
<ellipse cx="843.001" cy="99.9939" rx="19.2" ry="19.2" fill="white"/>
<path d="M57.4714 51.4L55.2154 53.752V58H51.3514V41.2H55.2154V49.048L62.6554 41.2H66.9754L60.0154 48.688L67.3834 58H62.8474L57.4714 51.4ZM73.7798 44.896C75.7798 44.896 77.3158 45.376 78.3878 46.336C79.4598 47.28 79.9958 48.712 79.9958 50.632V58H76.4918V56.392C75.7878 57.592 74.4758 58.192 72.5558 58.192C71.5638 58.192 70.6998 58.024 69.9638 57.688C69.2438 57.352 68.6918 56.888 68.3078 56.296C67.9238 55.704 67.7318 55.032 67.7318 54.28C67.7318 53.08 68.1798 52.136 69.0758 51.448C69.9878 50.76 71.3878 50.416 73.2758 50.416H76.2518C76.2518 49.6 76.0038 48.976 75.5078 48.544C75.0118 48.096 74.2678 47.872 73.2758 47.872C72.5878 47.872 71.9078 47.984 71.2358 48.208C70.5798 48.416 70.0198 48.704 69.5558 49.072L68.2118 46.456C68.9158 45.96 69.7558 45.576 70.7318 45.304C71.7238 45.032 72.7398 44.896 73.7798 44.896ZM73.4918 55.672C74.1318 55.672 74.6998 55.528 75.1958 55.24C75.6918 54.936 76.0438 54.496 76.2518 53.92V52.6H73.6838C72.1478 52.6 71.3798 53.104 71.3798 54.112C71.3798 54.592 71.5638 54.976 71.9318 55.264C72.3158 55.536 72.8358 55.672 73.4918 55.672ZM86.9603 46.792C87.4083 46.168 88.0083 45.696 88.7603 45.376C89.5283 45.056 90.4083 44.896 91.4003 44.896V48.352C90.9843 48.32 90.7043 48.304 90.5603 48.304C89.4883 48.304 88.6483 48.608 88.0403 49.216C87.4323 49.808 87.1283 50.704 87.1283 51.904V58H83.3843V45.088H86.9603V46.792ZM98.7641 44.896C100.764 44.896 102.3 45.376 103.372 46.336C104.444 47.28 104.98 48.712 104.98 50.632V58H101.476V56.392C100.772 57.592 99.4601 58.192 97.5401 58.192C96.5481 58.192 95.6841 58.024 94.9481 57.688C94.2281 57.352 93.6761 56.888 93.2921 56.296C92.9081 55.704 92.7161 55.032 92.7161 54.28C92.7161 53.08 93.1641 52.136 94.0601 51.448C94.9721 50.76 96.3721 50.416 98.2601 50.416H101.236C101.236 49.6 100.988 48.976 100.492 48.544C99.9961 48.096 99.2521 47.872 98.2601 47.872C97.5721 47.872 96.8921 47.984 96.2201 48.208C95.5641 48.416 95.0041 48.704 94.5401 49.072L93.1961 46.456C93.9001 45.96 94.7401 45.576 95.7161 45.304C96.7081 45.032 97.7241 44.896 98.7641 44.896ZM98.4761 55.672C99.1161 55.672 99.6841 55.528 100.18 55.24C100.676 54.936 101.028 54.496 101.236 53.92V52.6H98.6681C97.1321 52.6 96.3641 53.104 96.3641 54.112C96.3641 54.592 96.5481 54.976 96.9161 55.264C97.3001 55.536 97.8201 55.672 98.4761 55.672ZM113.913 52.936L112.113 54.712V58H108.369V40.192H112.113V50.272L117.585 45.088H122.049L116.673 50.56L122.529 58H117.993L113.913 52.936ZM129.794 58.192C128.434 58.192 127.21 57.912 126.122 57.352C125.05 56.776 124.21 55.984 123.602 54.976C122.994 53.968 122.69 52.824 122.69 51.544C122.69 50.264 122.994 49.12 123.602 48.112C124.21 47.104 125.05 46.32 126.122 45.76C127.21 45.184 128.434 44.896 129.794 44.896C131.154 44.896 132.37 45.184 133.442 45.76C134.514 46.32 135.354 47.104 135.962 48.112C136.57 49.12 136.874 50.264 136.874 51.544C136.874 52.824 136.57 53.968 135.962 54.976C135.354 55.984 134.514 56.776 133.442 57.352C132.37 57.912 131.154 58.192 129.794 58.192ZM129.794 55.12C130.754 55.12 131.538 54.8 132.146 54.16C132.77 53.504 133.082 52.632 133.082 51.544C133.082 50.456 132.77 49.592 132.146 48.952C131.538 48.296 130.754 47.968 129.794 47.968C128.834 47.968 128.042 48.296 127.418 48.952C126.794 49.592 126.482 50.456 126.482 51.544C126.482 52.632 126.794 53.504 127.418 54.16C128.042 54.8 128.834 55.12 129.794 55.12ZM127.322 43.312C126.842 43.312 126.442 43.16 126.122 42.856C125.802 42.536 125.642 42.136 125.642 41.656C125.642 41.176 125.802 40.784 126.122 40.48C126.442 40.16 126.842 40 127.322 40C127.802 40 128.194 40.16 128.498 40.48C128.818 40.784 128.978 41.176 128.978 41.656C128.978 42.136 128.818 42.536 128.498 42.856C128.194 43.16 127.802 43.312 127.322 43.312ZM132.17 43.312C131.69 43.312 131.29 43.16 130.97 42.856C130.666 42.536 130.514 42.136 130.514 41.656C130.514 41.176 130.666 40.784 130.97 40.48C131.29 40.16 131.69 40 132.17 40C132.65 40 133.05 40.16 133.37 40.48C133.69 40.784 133.85 41.176 133.85 41.656C133.85 42.136 133.69 42.536 133.37 42.856C133.05 43.16 132.65 43.312 132.17 43.312ZM151.841 45.088L146.009 58.792C145.417 60.28 144.681 61.328 143.801 61.936C142.937 62.544 141.889 62.848 140.657 62.848C139.985 62.848 139.321 62.744 138.665 62.536C138.009 62.328 137.473 62.04 137.057 61.672L138.425 59.008C138.713 59.264 139.041 59.464 139.409 59.608C139.793 59.752 140.169 59.824 140.537 59.824C141.049 59.824 141.465 59.696 141.785 59.44C142.105 59.2 142.393 58.792 142.649 58.216L142.697 58.096L137.105 45.088H140.969L144.593 53.848L148.241 45.088H151.841Z" fill="black"/>
<path d="M805.59 49.264C806.55 49.568 807.302 50.08 807.846 50.8C808.39 51.504 808.662 52.376 808.662 53.416C808.662 54.888 808.086 56.024 806.934 56.824C805.798 57.608 804.134 58 801.942 58H793.254V41.2H801.462C803.51 41.2 805.078 41.592 806.166 42.376C807.27 43.16 807.822 44.224 807.822 45.568C807.822 46.384 807.622 47.112 807.222 47.752C806.838 48.392 806.294 48.896 805.59 49.264ZM797.118 44.128V48.088H800.982C801.942 48.088 802.67 47.92 803.166 47.584C803.662 47.248 803.91 46.752 803.91 46.096C803.91 45.44 803.662 44.952 803.166 44.632C802.67 44.296 801.942 44.128 800.982 44.128H797.118ZM801.654 55.072C802.678 55.072 803.446 54.904 803.958 54.568C804.486 54.232 804.75 53.712 804.75 53.008C804.75 51.616 803.718 50.92 801.654 50.92H797.118V55.072H801.654ZM823.989 51.592C823.989 51.64 823.965 51.976 823.917 52.6H814.149C814.325 53.4 814.741 54.032 815.397 54.496C816.053 54.96 816.869 55.192 817.845 55.192C818.517 55.192 819.109 55.096 819.621 54.904C820.149 54.696 820.637 54.376 821.085 53.944L823.077 56.104C821.861 57.496 820.085 58.192 817.749 58.192C816.293 58.192 815.005 57.912 813.885 57.352C812.765 56.776 811.901 55.984 811.293 54.976C810.685 53.968 810.381 52.824 810.381 51.544C810.381 50.28 810.677 49.144 811.269 48.136C811.877 47.112 812.701 46.32 813.741 45.76C814.797 45.184 815.973 44.896 817.269 44.896C818.533 44.896 819.677 45.168 820.701 45.712C821.725 46.256 822.525 47.04 823.101 48.064C823.693 49.072 823.989 50.248 823.989 51.592ZM817.293 47.728C816.445 47.728 815.733 47.968 815.157 48.448C814.581 48.928 814.229 49.584 814.101 50.416H820.461C820.333 49.6 819.981 48.952 819.405 48.472C818.829 47.976 818.125 47.728 817.293 47.728ZM839.064 45.088L833.232 58.792C832.64 60.28 831.904 61.328 831.024 61.936C830.16 62.544 829.112 62.848 827.88 62.848C827.208 62.848 826.544 62.744 825.888 62.536C825.232 62.328 824.696 62.04 824.28 61.672L825.648 59.008C825.936 59.264 826.264 59.464 826.632 59.608C827.016 59.752 827.392 59.824 827.76 59.824C828.272 59.824 828.688 59.696 829.008 59.44C829.328 59.2 829.616 58.792 829.872 58.216L829.92 58.096L824.328 45.088H828.192L831.816 53.848L835.464 45.088H839.064ZM846.384 58.192C845.024 58.192 843.8 57.912 842.712 57.352C841.64 56.776 840.8 55.984 840.192 54.976C839.584 53.968 839.28 52.824 839.28 51.544C839.28 50.264 839.584 49.12 840.192 48.112C840.8 47.104 841.64 46.32 842.712 45.76C843.8 45.184 845.024 44.896 846.384 44.896C847.744 44.896 848.96 45.184 850.032 45.76C851.104 46.32 851.944 47.104 852.552 48.112C853.16 49.12 853.464 50.264 853.464 51.544C853.464 52.824 853.16 53.968 852.552 54.976C851.944 55.984 851.104 56.776 850.032 57.352C848.96 57.912 847.744 58.192 846.384 58.192ZM846.384 55.12C847.344 55.12 848.128 54.8 848.736 54.16C849.36 53.504 849.672 52.632 849.672 51.544C849.672 50.456 849.36 49.592 848.736 48.952C848.128 48.296 847.344 47.968 846.384 47.968C845.424 47.968 844.632 48.296 844.008 48.952C843.384 49.592 843.072 50.456 843.072 51.544C843.072 52.632 843.384 53.504 844.008 54.16C844.632 54.8 845.424 55.12 846.384 55.12ZM869.286 45.088V55.84C869.286 58.208 868.67 59.968 867.438 61.12C866.206 62.272 864.406 62.848 862.038 62.848C860.79 62.848 859.606 62.696 858.486 62.392C857.366 62.088 856.438 61.648 855.702 61.072L857.19 58.384C857.734 58.832 858.422 59.184 859.254 59.44C860.086 59.712 860.918 59.848 861.75 59.848C863.046 59.848 863.998 59.552 864.606 58.96C865.23 58.384 865.542 57.504 865.542 56.32V55.768C864.566 56.84 863.206 57.376 861.462 57.376C860.278 57.376 859.19 57.12 858.198 56.608C857.222 56.08 856.446 55.344 855.87 54.4C855.294 53.456 855.006 52.368 855.006 51.136C855.006 49.904 855.294 48.816 855.87 47.872C856.446 46.928 857.222 46.2 858.198 45.688C859.19 45.16 860.278 44.896 861.462 44.896C863.334 44.896 864.758 45.512 865.734 46.744V45.088H869.286ZM862.206 54.304C863.198 54.304 864.006 54.016 864.63 53.44C865.27 52.848 865.59 52.08 865.59 51.136C865.59 50.192 865.27 49.432 864.63 48.856C864.006 48.264 863.198 47.968 862.206 47.968C861.214 47.968 860.398 48.264 859.758 48.856C859.118 49.432 858.798 50.192 858.798 51.136C858.798 52.08 859.118 52.848 859.758 53.44C860.398 54.016 861.214 54.304 862.206 54.304ZM862.422 43.624C861.158 43.624 860.118 43.296 859.302 42.64C858.486 41.984 858.054 41.096 858.006 39.976H860.358C860.374 40.488 860.574 40.904 860.958 41.224C861.358 41.528 861.846 41.68 862.422 41.68C862.998 41.68 863.478 41.528 863.862 41.224C864.262 40.904 864.47 40.488 864.486 39.976H866.838C866.79 41.096 866.358 41.984 865.542 42.64C864.726 43.296 863.686 43.624 862.422 43.624ZM872.771 40.192H876.515V58H872.771V40.192ZM892.998 45.088V58H889.446V56.464C888.95 57.024 888.358 57.456 887.67 57.76C886.982 58.048 886.238 58.192 885.438 58.192C883.742 58.192 882.398 57.704 881.406 56.728C880.414 55.752 879.918 54.304 879.918 52.384V45.088H883.662V51.832C883.662 53.912 884.534 54.952 886.278 54.952C887.174 54.952 887.894 54.664 888.438 54.088C888.982 53.496 889.254 52.624 889.254 51.472V45.088H892.998Z" fill="black"/>
<rect x="840" y="123" width="6" height="20" fill="black"/>
<rect x="97" y="123" width="6" height="21" fill="black"/>
<g clip-path="url(#clip0_494_3724)">
<path d="M822 179.025C818.431 179.032 814.941 177.981 811.971 176.006C809 174.031 806.683 171.221 805.313 167.93C803.942 164.639 803.58 161.016 804.272 157.52C804.964 154.024 806.679 150.811 809.2 148.288C811.72 145.766 814.934 144.047 818.433 143.349C821.933 142.651 825.561 143.005 828.858 144.368C832.156 145.73 834.975 148.039 836.958 151.002C838.941 153.965 840 157.448 840 161.012C840 165.784 838.105 170.36 834.73 173.737C831.355 177.114 826.777 179.016 822 179.025Z" fill="#009845"/>
<path d="M810.207 155.269H813.949L816.725 164.11H816.76L819.535 155.269H823.277V166.932H821.038V157.305H821.003L817.862 166.932H815.623L812.481 157.305L812.446 157.34V166.932H810.207V155.269Z" fill="white"/>
<path d="M825.326 166.932V164.975C826.413 163.925 830.371 160.612 830.371 158.471C830.371 157.4 829.419 156.9 828.467 156.9C827.499 156.948 826.566 157.273 825.777 157.835L825.592 155.899C826.664 155.358 827.847 155.074 829.048 155.068C831.273 155.068 832.711 156.184 832.711 158.476C832.711 160.977 830.206 163.224 828.312 165.095H833.076V166.932H825.326Z" fill="white"/>
</g>
<g clip-path="url(#clip1_494_3724)">
<path d="M846 161C846.01 157.453 847.072 153.989 849.053 151.045C851.033 148.101 853.843 145.808 857.127 144.457C860.411 143.105 864.023 142.756 867.506 143.452C870.989 144.148 874.187 145.859 876.697 148.369C879.207 150.878 880.917 154.074 881.609 157.553C882.301 161.031 881.946 164.637 880.588 167.914C879.23 171.191 876.929 173.993 873.978 175.966C871.026 177.939 867.555 178.995 864.003 179C859.225 178.996 854.644 177.097 851.268 173.722C847.892 170.346 845.997 165.77 846 161Z" fill="#90ABA0"/>
<path d="M858.091 156.784H854.475V154.8H864.244V156.784H860.628V167.42H858.091V156.784Z" fill="white"/>
<path d="M865.133 167.421V165.308C866.309 164.164 870.598 160.585 870.598 158.272C870.598 157.113 869.571 156.569 868.543 156.569C867.494 156.626 866.483 156.982 865.631 157.595L865.436 155.498C866.597 154.909 867.878 154.598 869.18 154.59C871.584 154.59 873.14 155.8 873.14 158.282C873.14 160.959 870.444 163.41 868.384 165.462H873.52V167.451L865.133 167.421Z" fill="white"/>
</g>
<g clip-path="url(#clip2_494_3724)">
<path d="M99.9979 179C96.4325 179.004 92.946 177.952 89.9796 175.976C87.0131 174.001 84.7 171.191 83.3328 167.902C81.9656 164.614 81.6058 160.994 82.2989 157.501C82.9921 154.008 84.707 150.799 87.2267 148.279C89.7464 145.76 92.9577 144.044 96.4543 143.347C99.9509 142.651 103.576 143.006 106.87 144.368C110.164 145.73 112.98 148.037 114.962 150.998C116.943 153.958 118 157.439 118 161C117.998 165.77 116.101 170.343 112.726 173.718C109.351 177.092 104.774 178.992 99.9979 179Z" fill="#004987"/>
<path d="M94.3238 156.783H90.7969V154.846H100.325V156.783H96.7927V167.154H94.3238V156.783Z" fill="white"/>
<path d="M105.464 154.846H107.651V167.154H105.182V157.649L103.096 159.344L101.861 157.739L105.464 154.846Z" fill="white"/>
</g>
<defs>
<clipPath id="clip0_494_3724">
<rect width="36" height="36" fill="white" transform="translate(804 143)"/>
</clipPath>
<clipPath id="clip1_494_3724">
<rect width="36" height="36" fill="white" transform="translate(846 143)"/>
</clipPath>
<clipPath id="clip2_494_3724">
<rect width="36" height="36" fill="white" transform="translate(82 143)"/>
</clipPath>
</defs>
</svg>
