<svg width="758" height="200" viewBox="0 0 758 200" fill="none" xmlns="http://www.w3.org/2000/svg">
<path d="M100 100H659" stroke="#B06402" stroke-width="20"/>
<circle cx="473" cy="100" r="21" fill="#B06402"/>
<circle cx="473" cy="100" r="13" fill="white"/>
<circle cx="288" cy="100" r="21" fill="#B06402"/>
<circle cx="288" cy="100" r="13" fill="white"/>
<circle cx="100" cy="100" r="24" fill="black"/>
<ellipse cx="100.001" cy="99.9939" rx="19.2" ry="19.2" fill="white"/>
<circle cx="658" cy="100" r="24" fill="#B06402"/>
<path d="M45.0599 54.4H37.2599L35.7719 58H31.7879L39.2759 41.2H43.1159L50.6279 58H46.5479L45.0599 54.4ZM43.8359 51.448L41.1719 45.016L38.5079 51.448H43.8359ZM52.1069 40.192H55.8509V58H52.1069V40.192ZM68.5912 57.376C68.2232 57.648 67.7672 57.856 67.2232 58C66.6952 58.128 66.1352 58.192 65.5432 58.192C64.0072 58.192 62.8152 57.8 61.9672 57.016C61.1352 56.232 60.7192 55.08 60.7192 53.56V48.256H58.7272V45.376H60.7192V42.232H64.4632V45.376H67.6792V48.256H64.4632V53.512C64.4632 54.056 64.5992 54.48 64.8712 54.784C65.1592 55.072 65.5592 55.216 66.0712 55.216C66.6632 55.216 67.1672 55.056 67.5832 54.736L68.5912 57.376ZM83.7008 45.088V58H80.1488V56.464C79.6528 57.024 79.0608 57.456 78.3728 57.76C77.6848 58.048 76.9408 58.192 76.1408 58.192C74.4448 58.192 73.1008 57.704 72.1088 56.728C71.1168 55.752 70.6208 54.304 70.6208 52.384V45.088H74.3648V51.832C74.3648 53.912 75.2368 54.952 76.9808 54.952C77.8768 54.952 78.5968 54.664 79.1408 54.088C79.6848 53.496 79.9568 52.624 79.9568 51.472V45.088H83.7008ZM95.0174 44.896C96.6174 44.896 97.9054 45.376 98.8814 46.336C99.8734 47.296 100.369 48.72 100.369 50.608V58H96.6254V51.184C96.6254 50.16 96.4014 49.4 95.9534 48.904C95.5054 48.392 94.8574 48.136 94.0094 48.136C93.0654 48.136 92.3134 48.432 91.7534 49.024C91.1934 49.6 90.9134 50.464 90.9134 51.616V58H87.1694V45.088H90.7454V46.6C91.2414 46.056 91.8574 45.64 92.5934 45.352C93.3294 45.048 94.1374 44.896 95.0174 44.896ZM103.763 45.088H107.507V58H103.763V45.088ZM105.635 43.288C104.947 43.288 104.387 43.088 103.955 42.688C103.523 42.288 103.307 41.792 103.307 41.2C103.307 40.608 103.523 40.112 103.955 39.712C104.387 39.312 104.947 39.112 105.635 39.112C106.323 39.112 106.883 39.304 107.315 39.688C107.747 40.072 107.963 40.552 107.963 41.128C107.963 41.752 107.747 42.272 107.315 42.688C106.883 43.088 106.323 43.288 105.635 43.288ZM121.614 55.12V58H110.094V55.744L116.67 47.968H110.262V45.088H121.398V47.344L114.822 55.12H121.614ZM129.221 44.896C131.221 44.896 132.757 45.376 133.829 46.336C134.901 47.28 135.437 48.712 135.437 50.632V58H131.933V56.392C131.229 57.592 129.917 58.192 127.997 58.192C127.005 58.192 126.141 58.024 125.405 57.688C124.685 57.352 124.133 56.888 123.749 56.296C123.365 55.704 123.173 55.032 123.173 54.28C123.173 53.08 123.621 52.136 124.517 51.448C125.429 50.76 126.829 50.416 128.717 50.416H131.693C131.693 49.6 131.445 48.976 130.949 48.544C130.453 48.096 129.709 47.872 128.717 47.872C128.029 47.872 127.349 47.984 126.677 48.208C126.021 48.416 125.461 48.704 124.997 49.072L123.653 46.456C124.357 45.96 125.197 45.576 126.173 45.304C127.165 45.032 128.181 44.896 129.221 44.896ZM128.933 55.672C129.573 55.672 130.141 55.528 130.637 55.24C131.133 54.936 131.485 54.496 131.693 53.92V52.6H129.125C127.589 52.6 126.821 53.104 126.821 54.112C126.821 54.592 127.005 54.976 127.373 55.264C127.757 55.536 128.277 55.672 128.933 55.672ZM152.118 40.192V58H148.542V56.512C147.614 57.632 146.27 58.192 144.51 58.192C143.294 58.192 142.19 57.92 141.198 57.376C140.222 56.832 139.454 56.056 138.894 55.048C138.334 54.04 138.054 52.872 138.054 51.544C138.054 50.216 138.334 49.048 138.894 48.04C139.454 47.032 140.222 46.256 141.198 45.712C142.19 45.168 143.294 44.896 144.51 44.896C146.158 44.896 147.446 45.416 148.374 46.456V40.192H152.118ZM145.158 55.12C146.102 55.12 146.886 54.8 147.51 54.16C148.134 53.504 148.446 52.632 148.446 51.544C148.446 50.456 148.134 49.592 147.51 48.952C146.886 48.296 146.102 47.968 145.158 47.968C144.198 47.968 143.406 48.296 142.782 48.952C142.158 49.592 141.846 50.456 141.846 51.544C141.846 52.632 142.158 53.504 142.782 54.16C143.406 54.8 144.198 55.12 145.158 55.12ZM168.231 51.592C168.231 51.64 168.207 51.976 168.159 52.6H158.391C158.567 53.4 158.983 54.032 159.639 54.496C160.295 54.96 161.111 55.192 162.087 55.192C162.759 55.192 163.351 55.096 163.863 54.904C164.391 54.696 164.879 54.376 165.327 53.944L167.319 56.104C166.103 57.496 164.327 58.192 161.991 58.192C160.535 58.192 159.247 57.912 158.127 57.352C157.007 56.776 156.143 55.984 155.535 54.976C154.927 53.968 154.623 52.824 154.623 51.544C154.623 50.28 154.919 49.144 155.511 48.136C156.119 47.112 156.943 46.32 157.983 45.76C159.039 45.184 160.215 44.896 161.511 44.896C162.775 44.896 163.919 45.168 164.943 45.712C165.967 46.256 166.767 47.04 167.343 48.064C167.935 49.072 168.231 50.248 168.231 51.592ZM161.535 47.728C160.687 47.728 159.975 47.968 159.399 48.448C158.823 48.928 158.471 49.584 158.343 50.416H164.703C164.575 49.6 164.223 48.952 163.647 48.472C163.071 47.976 162.367 47.728 161.535 47.728Z" fill="black"/>
<path d="M258.521 15.32V19.76H266.297V22.88H258.521V29H254.633V12.2H267.329V15.32H258.521ZM282.017 22.592C282.017 22.64 281.993 22.976 281.945 23.6H272.177C272.353 24.4 272.769 25.032 273.425 25.496C274.081 25.96 274.897 26.192 275.873 26.192C276.545 26.192 277.137 26.096 277.649 25.904C278.177 25.696 278.665 25.376 279.113 24.944L281.105 27.104C279.889 28.496 278.113 29.192 275.777 29.192C274.321 29.192 273.033 28.912 271.913 28.352C270.793 27.776 269.929 26.984 269.321 25.976C268.713 24.968 268.409 23.824 268.409 22.544C268.409 21.28 268.705 20.144 269.297 19.136C269.905 18.112 270.729 17.32 271.769 16.76C272.825 16.184 274.001 15.896 275.297 15.896C276.561 15.896 277.705 16.168 278.729 16.712C279.753 17.256 280.553 18.04 281.129 19.064C281.721 20.072 282.017 21.248 282.017 22.592ZM275.321 18.728C274.473 18.728 273.761 18.968 273.185 19.448C272.609 19.928 272.257 20.584 272.129 21.416H278.489C278.361 20.6 278.009 19.952 277.433 19.472C276.857 18.976 276.153 18.728 275.321 18.728ZM288.085 17.792C288.533 17.168 289.133 16.696 289.885 16.376C290.653 16.056 291.533 15.896 292.525 15.896V19.352C292.109 19.32 291.829 19.304 291.685 19.304C290.613 19.304 289.773 19.608 289.165 20.216C288.557 20.808 288.253 21.704 288.253 22.904V29H284.509V16.088H288.085V17.792ZM299.889 15.896C301.889 15.896 303.425 16.376 304.497 17.336C305.569 18.28 306.105 19.712 306.105 21.632V29H302.601V27.392C301.897 28.592 300.585 29.192 298.665 29.192C297.673 29.192 296.809 29.024 296.073 28.688C295.353 28.352 294.801 27.888 294.417 27.296C294.033 26.704 293.841 26.032 293.841 25.28C293.841 24.08 294.289 23.136 295.185 22.448C296.097 21.76 297.497 21.416 299.385 21.416H302.361C302.361 20.6 302.113 19.976 301.617 19.544C301.121 19.096 300.377 18.872 299.385 18.872C298.697 18.872 298.017 18.984 297.345 19.208C296.689 19.416 296.129 19.704 295.665 20.072L294.321 17.456C295.025 16.96 295.865 16.576 296.841 16.304C297.833 16.032 298.849 15.896 299.889 15.896ZM299.601 26.672C300.241 26.672 300.809 26.528 301.305 26.24C301.801 25.936 302.153 25.496 302.361 24.92V23.6H299.793C298.257 23.6 297.489 24.104 297.489 25.112C297.489 25.592 297.673 25.976 298.041 26.264C298.425 26.536 298.945 26.672 299.601 26.672ZM317.342 15.896C318.942 15.896 320.23 16.376 321.206 17.336C322.198 18.296 322.694 19.72 322.694 21.608V29H318.95V22.184C318.95 21.16 318.726 20.4 318.278 19.904C317.83 19.392 317.182 19.136 316.334 19.136C315.39 19.136 314.638 19.432 314.078 20.024C313.518 20.6 313.238 21.464 313.238 22.616V29H309.494V11.192H313.238V17.432C313.734 16.936 314.334 16.56 315.038 16.304C315.742 16.032 316.51 15.896 317.342 15.896ZM246.436 58L246.412 47.92L241.468 56.224H239.716L234.796 48.136V58H231.148V41.2H234.364L240.652 51.64L246.844 41.2H250.036L250.084 58H246.436ZM259.014 44.896C261.014 44.896 262.55 45.376 263.622 46.336C264.694 47.28 265.23 48.712 265.23 50.632V58H261.726V56.392C261.022 57.592 259.71 58.192 257.79 58.192C256.798 58.192 255.934 58.024 255.198 57.688C254.478 57.352 253.926 56.888 253.542 56.296C253.158 55.704 252.966 55.032 252.966 54.28C252.966 53.08 253.414 52.136 254.31 51.448C255.222 50.76 256.622 50.416 258.51 50.416H261.486C261.486 49.6 261.238 48.976 260.742 48.544C260.246 48.096 259.502 47.872 258.51 47.872C257.822 47.872 257.142 47.984 256.47 48.208C255.814 48.416 255.254 48.704 254.79 49.072L253.446 46.456C254.15 45.96 254.99 45.576 255.966 45.304C256.958 45.032 257.974 44.896 259.014 44.896ZM258.726 55.672C259.366 55.672 259.934 55.528 260.43 55.24C260.926 54.936 261.278 54.496 261.486 53.92V52.6H258.918C257.382 52.6 256.614 53.104 256.614 54.112C256.614 54.592 256.798 54.976 257.166 55.264C257.55 55.536 258.07 55.672 258.726 55.672ZM276.467 44.896C278.067 44.896 279.355 45.376 280.331 46.336C281.323 47.296 281.819 48.72 281.819 50.608V58H278.075V51.184C278.075 50.16 277.851 49.4 277.403 48.904C276.955 48.392 276.307 48.136 275.459 48.136C274.515 48.136 273.763 48.432 273.203 49.024C272.643 49.6 272.363 50.464 272.363 51.616V58H268.619V40.192H272.363V46.432C272.859 45.936 273.459 45.56 274.163 45.304C274.867 45.032 275.635 44.896 276.467 44.896ZM290.42 44.896C292.42 44.896 293.956 45.376 295.028 46.336C296.1 47.28 296.636 48.712 296.636 50.632V58H293.132V56.392C292.428 57.592 291.116 58.192 289.196 58.192C288.204 58.192 287.34 58.024 286.604 57.688C285.884 57.352 285.332 56.888 284.948 56.296C284.564 55.704 284.372 55.032 284.372 54.28C284.372 53.08 284.82 52.136 285.716 51.448C286.628 50.76 288.028 50.416 289.916 50.416H292.892C292.892 49.6 292.644 48.976 292.148 48.544C291.652 48.096 290.908 47.872 289.916 47.872C289.228 47.872 288.548 47.984 287.876 48.208C287.22 48.416 286.66 48.704 286.196 49.072L284.852 46.456C285.556 45.96 286.396 45.576 287.372 45.304C288.364 45.032 289.38 44.896 290.42 44.896ZM290.132 55.672C290.772 55.672 291.34 55.528 291.836 55.24C292.332 54.936 292.684 54.496 292.892 53.92V52.6H290.324C288.788 52.6 288.02 53.104 288.02 54.112C288.02 54.592 288.204 54.976 288.572 55.264C288.956 55.536 289.476 55.672 290.132 55.672ZM300.025 40.192H303.769V58H300.025V40.192ZM307.244 40.192H310.988V58H307.244V40.192ZM327.11 51.592C327.11 51.64 327.086 51.976 327.038 52.6H317.27C317.446 53.4 317.862 54.032 318.518 54.496C319.174 54.96 319.99 55.192 320.966 55.192C321.638 55.192 322.23 55.096 322.742 54.904C323.27 54.696 323.758 54.376 324.206 53.944L326.198 56.104C324.982 57.496 323.206 58.192 320.87 58.192C319.414 58.192 318.126 57.912 317.006 57.352C315.886 56.776 315.022 55.984 314.414 54.976C313.806 53.968 313.502 52.824 313.502 51.544C313.502 50.28 313.798 49.144 314.39 48.136C314.998 47.112 315.822 46.32 316.862 45.76C317.918 45.184 319.094 44.896 320.39 44.896C321.654 44.896 322.798 45.168 323.822 45.712C324.846 46.256 325.646 47.04 326.222 48.064C326.814 49.072 327.11 50.248 327.11 51.592ZM320.414 47.728C319.566 47.728 318.854 47.968 318.278 48.448C317.702 48.928 317.35 49.584 317.222 50.416H323.582C323.454 49.6 323.102 48.952 322.526 48.472C321.95 47.976 321.246 47.728 320.414 47.728ZM333.947 58.192C332.875 58.192 331.827 58.064 330.803 57.808C329.779 57.536 328.963 57.2 328.355 56.8L329.603 54.112C330.179 54.48 330.875 54.784 331.691 55.024C332.507 55.248 333.307 55.36 334.091 55.36C335.675 55.36 336.467 54.968 336.467 54.184C336.467 53.816 336.251 53.552 335.819 53.392C335.387 53.232 334.723 53.096 333.827 52.984C332.771 52.824 331.899 52.64 331.211 52.432C330.523 52.224 329.923 51.856 329.411 51.328C328.915 50.8 328.667 50.048 328.667 49.072C328.667 48.256 328.899 47.536 329.363 46.912C329.843 46.272 330.531 45.776 331.427 45.424C332.339 45.072 333.411 44.896 334.643 44.896C335.555 44.896 336.459 45 337.355 45.208C338.267 45.4 339.019 45.672 339.611 46.024L338.363 48.688C337.227 48.048 335.987 47.728 334.643 47.728C333.843 47.728 333.243 47.84 332.843 48.064C332.443 48.288 332.243 48.576 332.243 48.928C332.243 49.328 332.459 49.608 332.891 49.768C333.323 49.928 334.011 50.08 334.955 50.224C336.011 50.4 336.875 50.592 337.547 50.8C338.219 50.992 338.803 51.352 339.299 51.88C339.795 52.408 340.043 53.144 340.043 54.088C340.043 54.888 339.803 55.6 339.323 56.224C338.843 56.848 338.139 57.336 337.211 57.688C336.299 58.024 335.211 58.192 333.947 58.192ZM342.353 45.088H346.097V58H342.353V45.088ZM344.225 43.288C343.537 43.288 342.977 43.088 342.545 42.688C342.113 42.288 341.897 41.792 341.897 41.2C341.897 40.608 342.113 40.112 342.545 39.712C342.977 39.312 343.537 39.112 344.225 39.112C344.913 39.112 345.473 39.304 345.905 39.688C346.337 40.072 346.553 40.552 346.553 41.128C346.553 41.752 346.337 42.272 345.905 42.688C345.473 43.088 344.913 43.288 344.225 43.288Z" fill="black"/>
<path d="M393.208 58.288C391.496 58.288 389.944 57.92 388.552 57.184C387.176 56.432 386.088 55.4 385.288 54.088C384.504 52.76 384.112 51.264 384.112 49.6C384.112 47.936 384.504 46.448 385.288 45.136C386.088 43.808 387.176 42.776 388.552 42.04C389.944 41.288 391.504 40.912 393.232 40.912C394.688 40.912 396 41.168 397.168 41.68C398.352 42.192 399.344 42.928 400.144 43.888L397.648 46.192C396.512 44.88 395.104 44.224 393.424 44.224C392.384 44.224 391.456 44.456 390.64 44.92C389.824 45.368 389.184 46 388.72 46.816C388.272 47.632 388.048 48.56 388.048 49.6C388.048 50.64 388.272 51.568 388.72 52.384C389.184 53.2 389.824 53.84 390.64 54.304C391.456 54.752 392.384 54.976 393.424 54.976C395.104 54.976 396.512 54.312 397.648 52.984L400.144 55.288C399.344 56.264 398.352 57.008 397.168 57.52C395.984 58.032 394.664 58.288 393.208 58.288ZM391.912 63.568C391.496 63.568 391.088 63.52 390.688 63.424C390.288 63.344 389.952 63.224 389.68 63.064L390.256 61.456C390.768 61.696 391.288 61.816 391.816 61.816C392.648 61.816 393.064 61.56 393.064 61.048C393.064 60.584 392.672 60.352 391.888 60.352H391.072L391.696 57.808H393.688L393.352 59.2C394.056 59.28 394.576 59.496 394.912 59.848C395.264 60.216 395.44 60.664 395.44 61.192C395.44 61.928 395.12 62.504 394.48 62.92C393.84 63.352 392.984 63.568 391.912 63.568ZM407.62 44.896C409.62 44.896 411.156 45.376 412.228 46.336C413.3 47.28 413.836 48.712 413.836 50.632V58H410.332V56.392C409.628 57.592 408.316 58.192 406.396 58.192C405.404 58.192 404.54 58.024 403.804 57.688C403.084 57.352 402.532 56.888 402.148 56.296C401.764 55.704 401.572 55.032 401.572 54.28C401.572 53.08 402.02 52.136 402.916 51.448C403.828 50.76 405.228 50.416 407.116 50.416H410.092C410.092 49.6 409.844 48.976 409.348 48.544C408.852 48.096 408.108 47.872 407.116 47.872C406.428 47.872 405.748 47.984 405.076 48.208C404.42 48.416 403.86 48.704 403.396 49.072L402.052 46.456C402.756 45.96 403.596 45.576 404.572 45.304C405.564 45.032 406.58 44.896 407.62 44.896ZM407.332 55.672C407.972 55.672 408.54 55.528 409.036 55.24C409.532 54.936 409.884 54.496 410.092 53.92V52.6H407.524C405.988 52.6 405.22 53.104 405.22 54.112C405.22 54.592 405.404 54.976 405.772 55.264C406.156 55.536 406.676 55.672 407.332 55.672ZM433.76 44.896C435.376 44.896 436.656 45.376 437.6 46.336C438.56 47.28 439.04 48.704 439.04 50.608V58H435.296V51.184C435.296 50.16 435.08 49.4 434.648 48.904C434.232 48.392 433.632 48.136 432.848 48.136C431.968 48.136 431.272 48.424 430.76 49C430.248 49.56 429.992 50.4 429.992 51.52V58H426.248V51.184C426.248 49.152 425.432 48.136 423.8 48.136C422.936 48.136 422.248 48.424 421.736 49C421.224 49.56 420.968 50.4 420.968 51.52V58H417.224V45.088H420.8V46.576C421.28 46.032 421.864 45.616 422.552 45.328C423.256 45.04 424.024 44.896 424.856 44.896C425.768 44.896 426.592 45.08 427.328 45.448C428.064 45.8 428.656 46.32 429.104 47.008C429.632 46.336 430.296 45.816 431.096 45.448C431.912 45.08 432.8 44.896 433.76 44.896ZM442.396 40.192H446.14V58H442.396V40.192ZM449.615 45.088H453.359V58H449.615V45.088ZM463.073 58.192C461.697 58.192 460.457 57.912 459.353 57.352C458.265 56.776 457.409 55.984 456.785 54.976C456.177 53.968 455.873 52.824 455.873 51.544C455.873 50.264 456.177 49.12 456.785 48.112C457.409 47.104 458.265 46.32 459.353 45.76C460.457 45.184 461.697 44.896 463.073 44.896C464.433 44.896 465.617 45.184 466.625 45.76C467.649 46.32 468.393 47.128 468.857 48.184L465.953 49.744C465.281 48.56 464.313 47.968 463.049 47.968C462.073 47.968 461.265 48.288 460.625 48.928C459.985 49.568 459.665 50.44 459.665 51.544C459.665 52.648 459.985 53.52 460.625 54.16C461.265 54.8 462.073 55.12 463.049 55.12C464.329 55.12 465.297 54.528 465.953 53.344L468.857 54.928C468.393 55.952 467.649 56.752 466.625 57.328C465.617 57.904 464.433 58.192 463.073 58.192ZM476.221 44.896C478.221 44.896 479.757 45.376 480.829 46.336C481.901 47.28 482.437 48.712 482.437 50.632V58H478.933V56.392C478.229 57.592 476.917 58.192 474.997 58.192C474.005 58.192 473.141 58.024 472.405 57.688C471.685 57.352 471.133 56.888 470.749 56.296C470.365 55.704 470.173 55.032 470.173 54.28C470.173 53.08 470.621 52.136 471.517 51.448C472.429 50.76 473.829 50.416 475.717 50.416H478.693C478.693 49.6 478.445 48.976 477.949 48.544C477.453 48.096 476.709 47.872 475.717 47.872C475.029 47.872 474.349 47.984 473.677 48.208C473.021 48.416 472.461 48.704 471.997 49.072L470.653 46.456C471.357 45.96 472.197 45.576 473.173 45.304C474.165 45.032 475.181 44.896 476.221 44.896ZM475.933 55.672C476.573 55.672 477.141 55.528 477.637 55.24C478.133 54.936 478.485 54.496 478.693 53.92V52.6H476.125C474.589 52.6 473.821 53.104 473.821 54.112C473.821 54.592 474.005 54.976 474.373 55.264C474.757 55.536 475.277 55.672 475.933 55.672ZM500.927 58.288C499.215 58.288 497.663 57.92 496.271 57.184C494.895 56.432 493.807 55.4 493.007 54.088C492.223 52.76 491.831 51.264 491.831 49.6C491.831 47.936 492.223 46.448 493.007 45.136C493.807 43.808 494.895 42.776 496.271 42.04C497.663 41.288 499.223 40.912 500.951 40.912C502.407 40.912 503.719 41.168 504.887 41.68C506.071 42.192 507.063 42.928 507.863 43.888L505.367 46.192C504.231 44.88 502.823 44.224 501.143 44.224C500.103 44.224 499.175 44.456 498.359 44.92C497.543 45.368 496.903 46 496.439 46.816C495.991 47.632 495.767 48.56 495.767 49.6C495.767 50.64 495.991 51.568 496.439 52.384C496.903 53.2 497.543 53.84 498.359 54.304C499.175 54.752 500.103 54.976 501.143 54.976C502.823 54.976 504.231 54.312 505.367 52.984L507.863 55.288C507.063 56.264 506.071 57.008 504.887 57.52C503.703 58.032 502.383 58.288 500.927 58.288ZM515.338 44.896C517.338 44.896 518.874 45.376 519.946 46.336C521.018 47.28 521.554 48.712 521.554 50.632V58H518.05V56.392C517.346 57.592 516.034 58.192 514.114 58.192C513.122 58.192 512.258 58.024 511.522 57.688C510.802 57.352 510.25 56.888 509.866 56.296C509.482 55.704 509.29 55.032 509.29 54.28C509.29 53.08 509.738 52.136 510.634 51.448C511.546 50.76 512.946 50.416 514.834 50.416H517.81C517.81 49.6 517.562 48.976 517.066 48.544C516.57 48.096 515.826 47.872 514.834 47.872C514.146 47.872 513.466 47.984 512.794 48.208C512.138 48.416 511.578 48.704 511.114 49.072L509.77 46.456C510.474 45.96 511.314 45.576 512.29 45.304C513.282 45.032 514.298 44.896 515.338 44.896ZM515.05 55.672C515.69 55.672 516.258 55.528 516.754 55.24C517.25 54.936 517.602 54.496 517.81 53.92V52.6H515.242C513.706 52.6 512.938 53.104 512.938 54.112C512.938 54.592 513.122 54.976 513.49 55.264C513.874 55.536 514.394 55.672 515.05 55.672ZM541.479 44.896C543.095 44.896 544.375 45.376 545.319 46.336C546.279 47.28 546.759 48.704 546.759 50.608V58H543.015V51.184C543.015 50.16 542.799 49.4 542.367 48.904C541.951 48.392 541.351 48.136 540.567 48.136C539.687 48.136 538.991 48.424 538.479 49C537.967 49.56 537.711 50.4 537.711 51.52V58H533.967V51.184C533.967 49.152 533.151 48.136 531.519 48.136C530.655 48.136 529.967 48.424 529.455 49C528.943 49.56 528.687 50.4 528.687 51.52V58H524.943V45.088H528.519V46.576C528.999 46.032 529.583 45.616 530.271 45.328C530.975 45.04 531.743 44.896 532.575 44.896C533.487 44.896 534.311 45.08 535.047 45.448C535.783 45.8 536.375 46.32 536.823 47.008C537.351 46.336 538.015 45.816 538.815 45.448C539.631 45.08 540.519 44.896 541.479 44.896ZM550.115 45.088H553.859V58H550.115V45.088ZM551.987 43.288C551.299 43.288 550.739 43.088 550.307 42.688C549.875 42.288 549.659 41.792 549.659 41.2C549.659 40.608 549.875 40.112 550.307 39.712C550.739 39.312 551.299 39.112 551.987 39.112C552.675 39.112 553.235 39.304 553.667 39.688C554.099 40.072 554.315 40.552 554.315 41.128C554.315 41.752 554.099 42.272 553.667 42.688C553.235 43.088 552.675 43.288 551.987 43.288ZM557.333 45.088H561.077V58H557.333V45.088ZM559.205 43.288C558.517 43.288 557.957 43.088 557.525 42.688C557.093 42.288 556.877 41.792 556.877 41.2C556.877 40.608 557.093 40.112 557.525 39.712C557.957 39.312 558.517 39.112 559.205 39.112C559.893 39.112 560.453 39.304 560.885 39.688C561.317 40.072 561.533 40.552 561.533 41.128C561.533 41.752 561.317 42.272 560.885 42.688C560.453 43.088 559.893 43.288 559.205 43.288Z" fill="black"/>
<path d="M633.711 20.264C634.671 20.568 635.423 21.08 635.967 21.8C636.511 22.504 636.783 23.376 636.783 24.416C636.783 25.888 636.207 27.024 635.055 27.824C633.919 28.608 632.255 29 630.063 29H621.375V12.2H629.583C631.631 12.2 633.199 12.592 634.287 13.376C635.391 14.16 635.943 15.224 635.943 16.568C635.943 17.384 635.743 18.112 635.343 18.752C634.959 19.392 634.415 19.896 633.711 20.264ZM625.239 15.128V19.088H629.103C630.063 19.088 630.791 18.92 631.287 18.584C631.783 18.248 632.031 17.752 632.031 17.096C632.031 16.44 631.783 15.952 631.287 15.632C630.791 15.296 630.063 15.128 629.103 15.128H625.239ZM629.775 26.072C630.799 26.072 631.567 25.904 632.079 25.568C632.607 25.232 632.871 24.712 632.871 24.008C632.871 22.616 631.839 21.92 629.775 21.92H625.239V26.072H629.775ZM645.606 29.192C644.246 29.192 643.022 28.912 641.934 28.352C640.862 27.776 640.022 26.984 639.414 25.976C638.806 24.968 638.502 23.824 638.502 22.544C638.502 21.264 638.806 20.12 639.414 19.112C640.022 18.104 640.862 17.32 641.934 16.76C643.022 16.184 644.246 15.896 645.606 15.896C646.966 15.896 648.182 16.184 649.254 16.76C650.326 17.32 651.166 18.104 651.774 19.112C652.382 20.12 652.686 21.264 652.686 22.544C652.686 23.824 652.382 24.968 651.774 25.976C651.166 26.984 650.326 27.776 649.254 28.352C648.182 28.912 646.966 29.192 645.606 29.192ZM645.606 26.12C646.566 26.12 647.35 25.8 647.958 25.16C648.582 24.504 648.894 23.632 648.894 22.544C648.894 21.456 648.582 20.592 647.958 19.952C647.35 19.296 646.566 18.968 645.606 18.968C644.646 18.968 643.854 19.296 643.23 19.952C642.606 20.592 642.294 21.456 642.294 22.544C642.294 23.632 642.606 24.504 643.23 25.16C643.854 25.8 644.646 26.12 645.606 26.12ZM659.533 29.192C658.461 29.192 657.413 29.064 656.389 28.808C655.365 28.536 654.549 28.2 653.941 27.8L655.189 25.112C655.765 25.48 656.461 25.784 657.277 26.024C658.093 26.248 658.893 26.36 659.677 26.36C661.261 26.36 662.053 25.968 662.053 25.184C662.053 24.816 661.837 24.552 661.405 24.392C660.973 24.232 660.309 24.096 659.413 23.984C658.357 23.824 657.485 23.64 656.797 23.432C656.109 23.224 655.509 22.856 654.997 22.328C654.501 21.8 654.253 21.048 654.253 20.072C654.253 19.256 654.485 18.536 654.949 17.912C655.429 17.272 656.117 16.776 657.013 16.424C657.925 16.072 658.997 15.896 660.229 15.896C661.141 15.896 662.045 16 662.941 16.208C663.853 16.4 664.605 16.672 665.197 17.024L663.949 19.688C662.813 19.048 661.573 18.728 660.229 18.728C659.429 18.728 658.829 18.84 658.429 19.064C658.029 19.288 657.829 19.576 657.829 19.928C657.829 20.328 658.045 20.608 658.477 20.768C658.909 20.928 659.597 21.08 660.541 21.224C661.597 21.4 662.461 21.592 663.133 21.8C663.805 21.992 664.389 22.352 664.885 22.88C665.381 23.408 665.629 24.144 665.629 25.088C665.629 25.888 665.389 26.6 664.909 27.224C664.429 27.848 663.725 28.336 662.797 28.688C661.885 29.024 660.797 29.192 659.533 29.192ZM675.787 15.896C677.387 15.896 678.675 16.376 679.651 17.336C680.643 18.296 681.139 19.72 681.139 21.608V29H677.395V22.184C677.395 21.16 677.171 20.4 676.723 19.904C676.275 19.392 675.627 19.136 674.779 19.136C673.835 19.136 673.083 19.432 672.523 20.024C671.963 20.6 671.683 21.464 671.683 22.616V29H667.939V16.088H671.515V17.6C672.011 17.056 672.627 16.64 673.363 16.352C674.099 16.048 674.907 15.896 675.787 15.896ZM689.741 15.896C691.741 15.896 693.277 16.376 694.349 17.336C695.421 18.28 695.957 19.712 695.957 21.632V29H692.453V27.392C691.749 28.592 690.437 29.192 688.517 29.192C687.525 29.192 686.661 29.024 685.925 28.688C685.205 28.352 684.653 27.888 684.269 27.296C683.885 26.704 683.693 26.032 683.693 25.28C683.693 24.08 684.141 23.136 685.037 22.448C685.949 21.76 687.349 21.416 689.237 21.416H692.213C692.213 20.6 691.965 19.976 691.469 19.544C690.973 19.096 690.229 18.872 689.237 18.872C688.549 18.872 687.869 18.984 687.197 19.208C686.541 19.416 685.981 19.704 685.517 20.072L684.173 17.456C684.877 16.96 685.717 16.576 686.693 16.304C687.685 16.032 688.701 15.896 689.741 15.896ZM689.453 26.672C690.093 26.672 690.661 26.528 691.157 26.24C691.653 25.936 692.005 25.496 692.213 24.92V23.6H689.645C688.109 23.6 687.341 24.104 687.341 25.112C687.341 25.592 687.525 25.976 687.893 26.264C688.277 26.536 688.797 26.672 689.453 26.672ZM628.707 49.264C629.667 49.568 630.419 50.08 630.963 50.8C631.507 51.504 631.779 52.376 631.779 53.416C631.779 54.888 631.203 56.024 630.051 56.824C628.915 57.608 627.251 58 625.059 58H616.371V41.2H624.579C626.627 41.2 628.195 41.592 629.283 42.376C630.387 43.16 630.939 44.224 630.939 45.568C630.939 46.384 630.739 47.112 630.339 47.752C629.955 48.392 629.411 48.896 628.707 49.264ZM620.235 44.128V48.088H624.099C625.059 48.088 625.787 47.92 626.283 47.584C626.779 47.248 627.027 46.752 627.027 46.096C627.027 45.44 626.779 44.952 626.283 44.632C625.787 44.296 625.059 44.128 624.099 44.128H620.235ZM624.771 55.072C625.795 55.072 626.563 54.904 627.075 54.568C627.603 54.232 627.867 53.712 627.867 53.008C627.867 51.616 626.835 50.92 624.771 50.92H620.235V55.072H624.771ZM647.466 45.088V58H643.914V56.464C643.418 57.024 642.826 57.456 642.138 57.76C641.45 58.048 640.706 58.192 639.906 58.192C638.21 58.192 636.866 57.704 635.874 56.728C634.882 55.752 634.386 54.304 634.386 52.384V45.088H638.13V51.832C638.13 53.912 639.002 54.952 640.746 54.952C641.642 54.952 642.362 54.664 642.906 54.088C643.45 53.496 643.722 52.624 643.722 51.472V45.088H647.466ZM650.935 40.192H654.679V58H650.935V40.192ZM670.97 45.088L665.522 58H661.658L656.234 45.088H660.098L663.674 53.872L667.37 45.088H670.97ZM677.284 44.896C679.284 44.896 680.82 45.376 681.892 46.336C682.964 47.28 683.5 48.712 683.5 50.632V58H679.996V56.392C679.292 57.592 677.98 58.192 676.06 58.192C675.068 58.192 674.204 58.024 673.468 57.688C672.748 57.352 672.196 56.888 671.812 56.296C671.428 55.704 671.236 55.032 671.236 54.28C671.236 53.08 671.684 52.136 672.58 51.448C673.492 50.76 674.892 50.416 676.78 50.416H679.756C679.756 49.6 679.508 48.976 679.012 48.544C678.516 48.096 677.772 47.872 676.78 47.872C676.092 47.872 675.412 47.984 674.74 48.208C674.084 48.416 673.524 48.704 673.06 49.072L671.716 46.456C672.42 45.96 673.26 45.576 674.236 45.304C675.228 45.032 676.244 44.896 677.284 44.896ZM676.996 55.672C677.636 55.672 678.204 55.528 678.7 55.24C679.196 54.936 679.548 54.496 679.756 53.92V52.6H677.188C675.652 52.6 674.884 53.104 674.884 54.112C674.884 54.592 675.068 54.976 675.436 55.264C675.82 55.536 676.34 55.672 676.996 55.672ZM690.464 46.792C690.912 46.168 691.512 45.696 692.264 45.376C693.032 45.056 693.912 44.896 694.904 44.896V48.352C694.488 48.32 694.208 48.304 694.064 48.304C692.992 48.304 692.152 48.608 691.544 49.216C690.936 49.808 690.632 50.704 690.632 51.904V58H686.888V45.088H690.464V46.792ZM697.13 45.088H700.874V58H697.13V45.088Z" fill="black"/>
<rect x="97" y="123" width="6" height="20" fill="black"/>
<g clip-path="url(#clip0_496_6244)">
<mask id="path-14-inside-1_496_6244" fill="white">
<path d="M104 146L106.5 144H135L138 146V175.5L135.5 178H106.5L104 175.5V146Z"/>
</mask>
<path d="M106.5 144V80H84.05L66.5195 94.0244L106.5 144ZM104 146L64.0195 96.0244L40 115.24V146H104ZM104 175.5H40V202.01L58.7452 220.755L104 175.5ZM106.5 178L61.2452 223.255L79.9903 242H106.5V178ZM135.5 178V242H162.01L180.755 223.255L135.5 178ZM138 175.5L183.255 220.755L202 202.01V175.5H138ZM138 146H202V111.748L173.501 92.7488L138 146ZM135 144L170.501 90.7488L154.378 80H135V144ZM66.5195 94.0244L64.0195 96.0244L143.98 195.976L146.48 193.976L66.5195 94.0244ZM40 146V175.5H168V146H40ZM58.7452 220.755L61.2452 223.255L151.755 132.745L149.255 130.245L58.7452 220.755ZM106.5 242H135.5V114H106.5V242ZM180.755 223.255L183.255 220.755L92.7452 130.245L90.2452 132.745L180.755 223.255ZM202 175.5V146H74V175.5H202ZM173.501 92.7488L170.501 90.7488L99.4992 197.251L102.499 199.251L173.501 92.7488ZM135 80H106.5V208H135V80Z" fill="white" mask="url(#path-14-inside-1_496_6244)"/>
<path d="M107.407 144.524C105.813 144.524 104.516 145.82 104.516 147.412V174.589C104.516 176.182 105.813 177.476 107.407 177.476H134.59C136.186 177.476 137.482 176.182 137.482 174.589V147.412C137.482 145.82 136.186 144.524 134.59 144.524H107.407ZM134.59 179H107.407C104.976 179 103 177.021 103 174.589V147.412C103 144.979 104.976 143 107.407 143H134.59C137.023 143 139 144.979 139 147.412V174.589C139 177.021 137.023 179 134.59 179Z" fill="#0F1F5C"/>
<path d="M125.699 167.671V169.035C125.699 170.697 128.162 170.697 128.162 169.035V167.671C129.702 167.671 129.663 166.411 129.663 166.411V159.667L129.592 158.979L128.761 152.672C128.531 151.533 127.793 151.077 126.687 150.624C125.595 150.175 122.921 149.639 120.993 149.623C119.067 149.639 116.397 150.175 115.308 150.624C114.203 151.077 113.467 151.533 113.236 152.672L112.408 158.979L112.336 159.667V166.411C112.336 166.411 112.298 167.671 113.835 167.671V169.035C113.835 170.697 116.295 170.697 116.295 169.035V167.671H125.699ZM126.928 164.946C126.277 164.946 125.747 164.424 125.747 163.78C125.747 163.135 126.277 162.613 126.928 162.613C127.581 162.613 128.112 163.135 128.112 163.78C128.112 164.424 127.581 164.946 126.928 164.946ZM117.397 152.239C116.709 152.239 116.709 151.215 117.397 151.215H124.594C125.283 151.215 125.283 152.239 124.594 152.239H117.397ZM126.495 153.273C127.227 153.273 127.417 153.641 127.505 154.195L128.107 158.77C128.166 159.207 128.039 159.644 127.424 159.644H114.572C113.959 159.644 113.831 159.207 113.89 158.77L114.49 154.195C114.579 153.641 114.768 153.273 115.499 153.273H126.495ZM113.885 163.78C113.885 163.135 114.415 162.613 115.066 162.613C115.717 162.613 116.245 163.135 116.245 163.78C116.245 164.424 115.717 164.946 115.066 164.946C114.415 164.946 113.885 164.424 113.885 163.78Z" fill="#0F1F5C"/>
<path d="M109.004 149.365V172.636" stroke="#0F1F5C" stroke-width="1.58533" stroke-miterlimit="3.864" stroke-linecap="round"/>
<path d="M132.996 149.365V172.636" stroke="#0F1F5C" stroke-width="1.58533" stroke-miterlimit="3.864" stroke-linecap="round"/>
</g>
<g clip-path="url(#clip1_496_6244)">
<path d="M79.0279 179C75.4586 179.011 71.9664 177.962 68.9937 175.988C66.0211 174.013 63.7019 171.201 62.3301 167.907C60.9582 164.614 60.5954 160.988 61.2876 157.488C61.9798 153.989 63.6959 150.773 66.2184 148.249C68.7409 145.725 71.9562 144.007 75.4571 143.311C78.9579 142.615 82.5865 142.974 85.8832 144.341C89.1799 145.709 91.9963 148.023 93.9754 150.992C95.9545 153.961 97.0073 157.45 97.0004 161.017C96.9911 165.78 95.0953 170.346 91.7274 173.716C88.3594 177.085 83.7935 178.985 79.0279 179Z" fill="#673065"/>
<path d="M67.7266 155.162H71.4122L74.1414 163.86H74.1764L76.9056 155.162H80.5862V166.643H78.3828V157.169H78.3528L75.2581 166.643H73.0547L69.965 157.169L69.9299 157.199V166.643H67.7266V155.162Z" fill="white"/>
<path d="M89.9732 156.868H85.5364L85.4863 159.321C85.8322 159.248 86.1844 159.209 86.5379 159.206C88.1504 159.206 90.2386 159.961 90.2386 162.939C90.2386 165.096 88.7363 166.838 85.7667 166.838C84.8683 166.829 83.9734 166.724 83.0977 166.523L83.1477 164.466C83.8829 164.814 84.6831 165.003 85.4963 165.021C86.6982 165.021 87.9451 164.461 87.9451 162.994C87.9451 161.528 86.6331 160.992 85.316 160.992C84.6198 160.99 83.9273 161.095 83.2629 161.303L83.3781 155.137H89.9732V156.868Z" fill="white"/>
</g>
<defs>
<clipPath id="clip0_496_6244">
<rect width="36" height="36" fill="white" transform="translate(103 143)"/>
</clipPath>
<clipPath id="clip1_496_6244">
<rect width="36" height="36" fill="white" transform="translate(61 143)"/>
</clipPath>
</defs>
</svg>
