<svg width="2232" height="200" viewBox="0 0 2232 200" fill="none" xmlns="http://www.w3.org/2000/svg">
<path d="M100 100H2130" stroke="#F29EBF" stroke-width="20"/>
<circle cx="1025" cy="100" r="21" fill="#F29EBF"/>
<circle cx="1025" cy="100" r="13" fill="white"/>
<circle cx="843" cy="100" r="21" fill="#F29EBF"/>
<circle cx="843" cy="100" r="13" fill="white"/>
<circle cx="1207" cy="100" r="21" fill="#F29EBF"/>
<circle cx="1207" cy="100" r="13" fill="white"/>
<circle cx="1392" cy="100" r="21" fill="#F29EBF"/>
<circle cx="1392" cy="100" r="13" fill="white"/>
<circle cx="1577" cy="100" r="21" fill="#F29EBF"/>
<circle cx="1577" cy="100" r="13" fill="white"/>
<circle cx="1762" cy="100" r="21" fill="#F29EBF"/>
<circle cx="1762" cy="100" r="13" fill="white"/>
<circle cx="2132" cy="100" r="21" fill="#F29EBF"/>
<circle cx="2132" cy="100" r="13" fill="white"/>
<circle cx="288" cy="100" r="21" fill="#F29EBF"/>
<circle cx="288" cy="100" r="13" fill="white"/>
<circle cx="658" cy="100" r="21" fill="#F29EBF"/>
<circle cx="658" cy="100" r="13" fill="white"/>
<circle cx="1944" cy="100" r="21" fill="#F29EBF"/>
<circle cx="1944" cy="100" r="13" fill="white"/>
<circle cx="473" cy="100" r="24" fill="black"/>
<ellipse cx="473.001" cy="99.9939" rx="19.2" ry="19.2" fill="white"/>
<circle cx="843" cy="100" r="24" fill="black"/>
<ellipse cx="843.001" cy="99.9939" rx="19.2" ry="19.2" fill="white"/>
<path d="M41.6667 58L41.6427 47.92L36.6987 56.224H34.9467L30.0267 48.136V58H26.3787V41.2H29.5947L35.8827 51.64L42.0747 41.2H45.2667L45.3147 58H41.6667ZM54.2446 44.896C56.2446 44.896 57.7806 45.376 58.8526 46.336C59.9246 47.28 60.4606 48.712 60.4606 50.632V58H56.9566V56.392C56.2526 57.592 54.9406 58.192 53.0206 58.192C52.0286 58.192 51.1646 58.024 50.4286 57.688C49.7086 57.352 49.1566 56.888 48.7726 56.296C48.3886 55.704 48.1966 55.032 48.1966 54.28C48.1966 53.08 48.6446 52.136 49.5406 51.448C50.4526 50.76 51.8526 50.416 53.7406 50.416H56.7166C56.7166 49.6 56.4686 48.976 55.9726 48.544C55.4766 48.096 54.7326 47.872 53.7406 47.872C53.0526 47.872 52.3726 47.984 51.7006 48.208C51.0446 48.416 50.4846 48.704 50.0206 49.072L48.6766 46.456C49.3806 45.96 50.2206 45.576 51.1966 45.304C52.1886 45.032 53.2046 44.896 54.2446 44.896ZM53.9566 55.672C54.5966 55.672 55.1646 55.528 55.6606 55.24C56.1566 54.936 56.5086 54.496 56.7166 53.92V52.6H54.1486C52.6126 52.6 51.8446 53.104 51.8446 54.112C51.8446 54.592 52.0286 54.976 52.3966 55.264C52.7806 55.536 53.3006 55.672 53.9566 55.672ZM71.6971 44.896C73.2971 44.896 74.5851 45.376 75.5611 46.336C76.5531 47.296 77.0491 48.72 77.0491 50.608V58H73.3051V51.184C73.3051 50.16 73.0811 49.4 72.6331 48.904C72.1851 48.392 71.5371 48.136 70.6891 48.136C69.7451 48.136 68.9931 48.432 68.4331 49.024C67.8731 49.6 67.5931 50.464 67.5931 51.616V58H63.8491V40.192H67.5931V46.432C68.0891 45.936 68.6891 45.56 69.3931 45.304C70.0971 45.032 70.8651 44.896 71.6971 44.896ZM96.9788 44.896C98.5948 44.896 99.8748 45.376 100.819 46.336C101.779 47.28 102.259 48.704 102.259 50.608V58H98.5148V51.184C98.5148 50.16 98.2988 49.4 97.8668 48.904C97.4508 48.392 96.8508 48.136 96.0668 48.136C95.1868 48.136 94.4908 48.424 93.9788 49C93.4668 49.56 93.2108 50.4 93.2108 51.52V58H89.4668V51.184C89.4668 49.152 88.6508 48.136 87.0188 48.136C86.1548 48.136 85.4668 48.424 84.9548 49C84.4428 49.56 84.1868 50.4 84.1868 51.52V58H80.4428V45.088H84.0188V46.576C84.4988 46.032 85.0828 45.616 85.7708 45.328C86.4748 45.04 87.2428 44.896 88.0748 44.896C88.9868 44.896 89.8108 45.08 90.5468 45.448C91.2828 45.8 91.8748 46.32 92.3228 47.008C92.8508 46.336 93.5148 45.816 94.3148 45.448C95.1308 45.08 96.0188 44.896 96.9788 44.896ZM118.623 45.088V58H115.071V56.464C114.575 57.024 113.983 57.456 113.295 57.76C112.607 58.048 111.863 58.192 111.063 58.192C109.367 58.192 108.023 57.704 107.031 56.728C106.039 55.752 105.543 54.304 105.543 52.384V45.088H109.287V51.832C109.287 53.912 110.159 54.952 111.903 54.952C112.799 54.952 113.519 54.664 114.063 54.088C114.607 53.496 114.879 52.624 114.879 51.472V45.088H118.623ZM130.419 57.376C130.051 57.648 129.595 57.856 129.051 58C128.523 58.128 127.963 58.192 127.371 58.192C125.835 58.192 124.643 57.8 123.795 57.016C122.963 56.232 122.547 55.08 122.547 53.56V48.256H120.555V45.376H122.547V42.232H126.291V45.376H129.507V48.256H126.291V53.512C126.291 54.056 126.427 54.48 126.699 54.784C126.987 55.072 127.387 55.216 127.899 55.216C128.491 55.216 128.995 55.056 129.411 54.736L130.419 57.376ZM140.153 44.896C141.353 44.896 142.441 45.176 143.417 45.736C144.409 46.28 145.185 47.056 145.745 48.064C146.305 49.056 146.585 50.216 146.585 51.544C146.585 52.872 146.305 54.04 145.745 55.048C145.185 56.04 144.409 56.816 143.417 57.376C142.441 57.92 141.353 58.192 140.153 58.192C138.377 58.192 137.025 57.632 136.097 56.512V58H132.521V40.192H136.265V46.456C137.209 45.416 138.505 44.896 140.153 44.896ZM139.505 55.12C140.465 55.12 141.249 54.8 141.857 54.16C142.481 53.504 142.793 52.632 142.793 51.544C142.793 50.456 142.481 49.592 141.857 48.952C141.249 48.296 140.465 47.968 139.505 47.968C138.545 47.968 137.753 48.296 137.129 48.952C136.521 49.592 136.217 50.456 136.217 51.544C136.217 52.632 136.521 53.504 137.129 54.16C137.753 54.8 138.545 55.12 139.505 55.12ZM161.739 51.592C161.739 51.64 161.715 51.976 161.667 52.6H151.899C152.075 53.4 152.491 54.032 153.147 54.496C153.803 54.96 154.619 55.192 155.595 55.192C156.267 55.192 156.859 55.096 157.371 54.904C157.899 54.696 158.387 54.376 158.835 53.944L160.827 56.104C159.611 57.496 157.835 58.192 155.499 58.192C154.043 58.192 152.755 57.912 151.635 57.352C150.515 56.776 149.651 55.984 149.043 54.976C148.435 53.968 148.131 52.824 148.131 51.544C148.131 50.28 148.427 49.144 149.019 48.136C149.627 47.112 150.451 46.32 151.491 45.76C152.547 45.184 153.723 44.896 155.019 44.896C156.283 44.896 157.427 45.168 158.451 45.712C159.475 46.256 160.275 47.04 160.851 48.064C161.443 49.072 161.739 50.248 161.739 51.592ZM155.043 47.728C154.195 47.728 153.483 47.968 152.907 48.448C152.331 48.928 151.979 49.584 151.851 50.416H158.211C158.083 49.6 157.731 48.952 157.155 48.472C156.579 47.976 155.875 47.728 155.043 47.728ZM176.814 45.088L170.982 58.792C170.39 60.28 169.654 61.328 168.774 61.936C167.91 62.544 166.862 62.848 165.63 62.848C164.958 62.848 164.294 62.744 163.638 62.536C162.982 62.328 162.446 62.04 162.03 61.672L163.398 59.008C163.686 59.264 164.014 59.464 164.382 59.608C164.766 59.752 165.142 59.824 165.51 59.824C166.022 59.824 166.438 59.696 166.758 59.44C167.078 59.2 167.366 58.792 167.622 58.216L167.67 58.096L162.078 45.088H165.942L169.566 53.848L173.214 45.088H176.814Z" fill="black"/>
<path d="M229.683 49.264C230.643 49.568 231.395 50.08 231.939 50.8C232.483 51.504 232.755 52.376 232.755 53.416C232.755 54.888 232.179 56.024 231.027 56.824C229.891 57.608 228.227 58 226.035 58H217.347V41.2H225.555C227.603 41.2 229.171 41.592 230.259 42.376C231.363 43.16 231.915 44.224 231.915 45.568C231.915 46.384 231.715 47.112 231.315 47.752C230.931 48.392 230.387 48.896 229.683 49.264ZM221.211 44.128V48.088H225.075C226.035 48.088 226.763 47.92 227.259 47.584C227.755 47.248 228.003 46.752 228.003 46.096C228.003 45.44 227.755 44.952 227.259 44.632C226.763 44.296 226.035 44.128 225.075 44.128H221.211ZM225.747 55.072C226.771 55.072 227.539 54.904 228.051 54.568C228.579 54.232 228.843 53.712 228.843 53.008C228.843 51.616 227.811 50.92 225.747 50.92H221.211V55.072H225.747ZM241.579 58.192C240.219 58.192 238.995 57.912 237.907 57.352C236.835 56.776 235.995 55.984 235.387 54.976C234.779 53.968 234.475 52.824 234.475 51.544C234.475 50.264 234.779 49.12 235.387 48.112C235.995 47.104 236.835 46.32 237.907 45.76C238.995 45.184 240.219 44.896 241.579 44.896C242.939 44.896 244.155 45.184 245.227 45.76C246.299 46.32 247.139 47.104 247.747 48.112C248.355 49.12 248.659 50.264 248.659 51.544C248.659 52.824 248.355 53.968 247.747 54.976C247.139 55.984 246.299 56.776 245.227 57.352C244.155 57.912 242.939 58.192 241.579 58.192ZM241.579 55.12C242.539 55.12 243.323 54.8 243.931 54.16C244.555 53.504 244.867 52.632 244.867 51.544C244.867 50.456 244.555 49.592 243.931 48.952C243.323 48.296 242.539 47.968 241.579 47.968C240.619 47.968 239.827 48.296 239.203 48.952C238.579 49.592 238.267 50.456 238.267 51.544C238.267 52.632 238.579 53.504 239.203 54.16C239.827 54.8 240.619 55.12 241.579 55.12ZM239.107 43.312C238.627 43.312 238.227 43.16 237.907 42.856C237.587 42.536 237.427 42.136 237.427 41.656C237.427 41.176 237.587 40.784 237.907 40.48C238.227 40.16 238.627 40 239.107 40C239.587 40 239.979 40.16 240.283 40.48C240.603 40.784 240.763 41.176 240.763 41.656C240.763 42.136 240.603 42.536 240.283 42.856C239.979 43.16 239.587 43.312 239.107 43.312ZM243.955 43.312C243.475 43.312 243.075 43.16 242.755 42.856C242.451 42.536 242.299 42.136 242.299 41.656C242.299 41.176 242.451 40.784 242.755 40.48C243.075 40.16 243.475 40 243.955 40C244.435 40 244.835 40.16 245.155 40.48C245.475 40.784 245.635 41.176 245.635 41.656C245.635 42.136 245.475 42.536 245.155 42.856C244.835 43.16 244.435 43.312 243.955 43.312ZM251.162 40.192H254.906V58H251.162V40.192ZM271.7 45.088V55.84C271.7 58.208 271.084 59.968 269.852 61.12C268.62 62.272 266.82 62.848 264.452 62.848C263.204 62.848 262.02 62.696 260.9 62.392C259.78 62.088 258.852 61.648 258.116 61.072L259.604 58.384C260.148 58.832 260.836 59.184 261.668 59.44C262.5 59.712 263.332 59.848 264.164 59.848C265.46 59.848 266.412 59.552 267.02 58.96C267.644 58.384 267.956 57.504 267.956 56.32V55.768C266.98 56.84 265.62 57.376 263.876 57.376C262.692 57.376 261.604 57.12 260.612 56.608C259.636 56.08 258.86 55.344 258.284 54.4C257.708 53.456 257.42 52.368 257.42 51.136C257.42 49.904 257.708 48.816 258.284 47.872C258.86 46.928 259.636 46.2 260.612 45.688C261.604 45.16 262.692 44.896 263.876 44.896C265.748 44.896 267.172 45.512 268.148 46.744V45.088H271.7ZM264.62 54.304C265.612 54.304 266.42 54.016 267.044 53.44C267.684 52.848 268.004 52.08 268.004 51.136C268.004 50.192 267.684 49.432 267.044 48.856C266.42 48.264 265.612 47.968 264.62 47.968C263.628 47.968 262.812 48.264 262.172 48.856C261.532 49.432 261.212 50.192 261.212 51.136C261.212 52.08 261.532 52.848 262.172 53.44C262.812 54.016 263.628 54.304 264.62 54.304ZM287.833 51.592C287.833 51.64 287.809 51.976 287.761 52.6H277.993C278.169 53.4 278.585 54.032 279.241 54.496C279.897 54.96 280.713 55.192 281.689 55.192C282.361 55.192 282.953 55.096 283.465 54.904C283.993 54.696 284.481 54.376 284.929 53.944L286.921 56.104C285.705 57.496 283.929 58.192 281.593 58.192C280.137 58.192 278.849 57.912 277.729 57.352C276.609 56.776 275.745 55.984 275.137 54.976C274.529 53.968 274.225 52.824 274.225 51.544C274.225 50.28 274.521 49.144 275.113 48.136C275.721 47.112 276.545 46.32 277.585 45.76C278.641 45.184 279.817 44.896 281.113 44.896C282.377 44.896 283.521 45.168 284.545 45.712C285.569 46.256 286.369 47.04 286.945 48.064C287.537 49.072 287.833 50.248 287.833 51.592ZM281.137 47.728C280.289 47.728 279.577 47.968 279.001 48.448C278.425 48.928 278.073 49.584 277.945 50.416H284.305C284.177 49.6 283.825 48.952 283.249 48.472C282.673 47.976 281.969 47.728 281.137 47.728ZM304.659 41.2C306.147 41.2 307.435 41.448 308.523 41.944C309.627 42.44 310.475 43.144 311.067 44.056C311.659 44.968 311.955 46.048 311.955 47.296C311.955 48.528 311.659 49.608 311.067 50.536C310.475 51.448 309.627 52.152 308.523 52.648C307.435 53.128 306.147 53.368 304.659 53.368H301.275V58H297.387V41.2H304.659ZM304.443 50.2C305.611 50.2 306.499 49.952 307.107 49.456C307.715 48.944 308.019 48.224 308.019 47.296C308.019 46.352 307.715 45.632 307.107 45.136C306.499 44.624 305.611 44.368 304.443 44.368H301.275V50.2H304.443ZM319.557 44.896C321.557 44.896 323.093 45.376 324.165 46.336C325.237 47.28 325.773 48.712 325.773 50.632V58H322.269V56.392C321.565 57.592 320.253 58.192 318.333 58.192C317.341 58.192 316.477 58.024 315.741 57.688C315.021 57.352 314.469 56.888 314.085 56.296C313.701 55.704 313.509 55.032 313.509 54.28C313.509 53.08 313.957 52.136 314.853 51.448C315.765 50.76 317.165 50.416 319.053 50.416H322.029C322.029 49.6 321.781 48.976 321.285 48.544C320.789 48.096 320.045 47.872 319.053 47.872C318.365 47.872 317.685 47.984 317.013 48.208C316.357 48.416 315.797 48.704 315.333 49.072L313.989 46.456C314.693 45.96 315.533 45.576 316.509 45.304C317.501 45.032 318.517 44.896 319.557 44.896ZM319.269 55.672C319.909 55.672 320.477 55.528 320.973 55.24C321.469 54.936 321.821 54.496 322.029 53.92V52.6H319.461C317.925 52.6 317.157 53.104 317.157 54.112C317.157 54.592 317.341 54.976 317.709 55.264C318.093 55.536 318.613 55.672 319.269 55.672ZM332.738 46.792C333.186 46.168 333.786 45.696 334.538 45.376C335.306 45.056 336.186 44.896 337.178 44.896V48.352C336.762 48.32 336.482 48.304 336.338 48.304C335.266 48.304 334.426 48.608 333.818 49.216C333.21 49.808 332.906 50.704 332.906 51.904V58H329.162V45.088H332.738V46.792ZM344.948 52.936L343.148 54.712V58H339.404V40.192H343.148V50.272L348.62 45.088H353.084L347.708 50.56L353.564 58H349.028L344.948 52.936ZM355.154 45.088H358.898V58H355.154V45.088Z" fill="black"/>
<path d="M438.31 25.4H430.51L429.022 29H425.038L432.526 12.2H436.366L443.878 29H439.798L438.31 25.4ZM437.086 22.448L434.422 16.016L431.758 22.448H437.086ZM453.568 28.376C453.2 28.648 452.744 28.856 452.2 29C451.672 29.128 451.112 29.192 450.52 29.192C448.984 29.192 447.792 28.8 446.944 28.016C446.112 27.232 445.696 26.08 445.696 24.56V19.256H443.704V16.376H445.696V13.232H449.44V16.376H452.656V19.256H449.44V24.512C449.44 25.056 449.576 25.48 449.848 25.784C450.136 26.072 450.536 26.216 451.048 26.216C451.64 26.216 452.144 26.056 452.56 25.736L453.568 28.376ZM460.877 15.896C462.877 15.896 464.413 16.376 465.485 17.336C466.557 18.28 467.093 19.712 467.093 21.632V29H463.589V27.392C462.885 28.592 461.573 29.192 459.653 29.192C458.661 29.192 457.797 29.024 457.061 28.688C456.341 28.352 455.789 27.888 455.405 27.296C455.021 26.704 454.829 26.032 454.829 25.28C454.829 24.08 455.277 23.136 456.173 22.448C457.085 21.76 458.485 21.416 460.373 21.416H463.349C463.349 20.6 463.101 19.976 462.605 19.544C462.109 19.096 461.365 18.872 460.373 18.872C459.685 18.872 459.005 18.984 458.333 19.208C457.677 19.416 457.117 19.704 456.653 20.072L455.309 17.456C456.013 16.96 456.853 16.576 457.829 16.304C458.821 16.032 459.837 15.896 460.877 15.896ZM460.589 26.672C461.229 26.672 461.797 26.528 462.293 26.24C462.789 25.936 463.141 25.496 463.349 24.92V23.6H460.781C459.245 23.6 458.477 24.104 458.477 25.112C458.477 25.592 458.661 25.976 459.029 26.264C459.413 26.536 459.933 26.672 460.589 26.672ZM478.81 28.376C478.442 28.648 477.986 28.856 477.442 29C476.914 29.128 476.354 29.192 475.762 29.192C474.226 29.192 473.034 28.8 472.186 28.016C471.354 27.232 470.938 26.08 470.938 24.56V19.256H468.946V16.376H470.938V13.232H474.682V16.376H477.898V19.256H474.682V24.512C474.682 25.056 474.818 25.48 475.09 25.784C475.378 26.072 475.778 26.216 476.29 26.216C476.882 26.216 477.386 26.056 477.802 25.736L478.81 28.376ZM493.92 16.088V29H490.368V27.464C489.872 28.024 489.28 28.456 488.592 28.76C487.904 29.048 487.16 29.192 486.36 29.192C484.664 29.192 483.32 28.704 482.328 27.728C481.336 26.752 480.84 25.304 480.84 23.384V16.088H484.584V22.832C484.584 24.912 485.456 25.952 487.2 25.952C488.096 25.952 488.816 25.664 489.36 25.088C489.904 24.496 490.176 23.624 490.176 22.472V16.088H493.92ZM484.944 14.312C484.464 14.312 484.064 14.16 483.744 13.856C483.424 13.536 483.264 13.136 483.264 12.656C483.264 12.176 483.424 11.784 483.744 11.48C484.064 11.16 484.464 11 484.944 11C485.424 11 485.816 11.16 486.12 11.48C486.44 11.784 486.6 12.176 486.6 12.656C486.6 13.136 486.44 13.536 486.12 13.856C485.816 14.16 485.424 14.312 484.944 14.312ZM489.792 14.312C489.312 14.312 488.912 14.16 488.592 13.856C488.288 13.536 488.136 13.136 488.136 12.656C488.136 12.176 488.288 11.784 488.592 11.48C488.912 11.16 489.312 11 489.792 11C490.272 11 490.672 11.16 490.992 11.48C491.312 11.784 491.472 12.176 491.472 12.656C491.472 13.136 491.312 13.536 490.992 13.856C490.672 14.16 490.272 14.312 489.792 14.312ZM500.964 17.792C501.412 17.168 502.012 16.696 502.764 16.376C503.532 16.056 504.412 15.896 505.404 15.896V19.352C504.988 19.32 504.708 19.304 504.564 19.304C503.492 19.304 502.652 19.608 502.044 20.216C501.436 20.808 501.132 21.704 501.132 22.904V29H497.388V16.088H500.964V17.792ZM513.174 23.936L511.374 25.712V29H507.63V11.192H511.374V21.272L516.846 16.088H521.31L515.934 21.56L521.79 29H517.254L513.174 23.936ZM431.436 58L431.412 47.92L426.468 56.224H424.716L419.796 48.136V58H416.148V41.2H419.364L425.652 51.64L431.844 41.2H435.036L435.084 58H431.436ZM444.014 44.896C446.014 44.896 447.55 45.376 448.622 46.336C449.694 47.28 450.23 48.712 450.23 50.632V58H446.726V56.392C446.022 57.592 444.71 58.192 442.79 58.192C441.798 58.192 440.934 58.024 440.198 57.688C439.478 57.352 438.926 56.888 438.542 56.296C438.158 55.704 437.966 55.032 437.966 54.28C437.966 53.08 438.414 52.136 439.31 51.448C440.222 50.76 441.622 50.416 443.51 50.416H446.486C446.486 49.6 446.238 48.976 445.742 48.544C445.246 48.096 444.502 47.872 443.51 47.872C442.822 47.872 442.142 47.984 441.47 48.208C440.814 48.416 440.254 48.704 439.79 49.072L438.446 46.456C439.15 45.96 439.99 45.576 440.966 45.304C441.958 45.032 442.974 44.896 444.014 44.896ZM443.726 55.672C444.366 55.672 444.934 55.528 445.43 55.24C445.926 54.936 446.278 54.496 446.486 53.92V52.6H443.918C442.382 52.6 441.614 53.104 441.614 54.112C441.614 54.592 441.798 54.976 442.166 55.264C442.55 55.536 443.07 55.672 443.726 55.672ZM461.467 44.896C463.067 44.896 464.355 45.376 465.331 46.336C466.323 47.296 466.819 48.72 466.819 50.608V58H463.075V51.184C463.075 50.16 462.851 49.4 462.403 48.904C461.955 48.392 461.307 48.136 460.459 48.136C459.515 48.136 458.763 48.432 458.203 49.024C457.643 49.6 457.363 50.464 457.363 51.616V58H453.619V40.192H457.363V46.432C457.859 45.936 458.459 45.56 459.163 45.304C459.867 45.032 460.635 44.896 461.467 44.896ZM475.42 44.896C477.42 44.896 478.956 45.376 480.028 46.336C481.1 47.28 481.636 48.712 481.636 50.632V58H478.132V56.392C477.428 57.592 476.116 58.192 474.196 58.192C473.204 58.192 472.34 58.024 471.604 57.688C470.884 57.352 470.332 56.888 469.948 56.296C469.564 55.704 469.372 55.032 469.372 54.28C469.372 53.08 469.82 52.136 470.716 51.448C471.628 50.76 473.028 50.416 474.916 50.416H477.892C477.892 49.6 477.644 48.976 477.148 48.544C476.652 48.096 475.908 47.872 474.916 47.872C474.228 47.872 473.548 47.984 472.876 48.208C472.22 48.416 471.66 48.704 471.196 49.072L469.852 46.456C470.556 45.96 471.396 45.576 472.372 45.304C473.364 45.032 474.38 44.896 475.42 44.896ZM475.132 55.672C475.772 55.672 476.34 55.528 476.836 55.24C477.332 54.936 477.684 54.496 477.892 53.92V52.6H475.324C473.788 52.6 473.02 53.104 473.02 54.112C473.02 54.592 473.204 54.976 473.572 55.264C473.956 55.536 474.476 55.672 475.132 55.672ZM485.025 40.192H488.769V58H485.025V40.192ZM492.244 40.192H495.988V58H492.244V40.192ZM512.11 51.592C512.11 51.64 512.086 51.976 512.038 52.6H502.27C502.446 53.4 502.862 54.032 503.518 54.496C504.174 54.96 504.99 55.192 505.966 55.192C506.638 55.192 507.23 55.096 507.742 54.904C508.27 54.696 508.758 54.376 509.206 53.944L511.198 56.104C509.982 57.496 508.206 58.192 505.87 58.192C504.414 58.192 503.126 57.912 502.006 57.352C500.886 56.776 500.022 55.984 499.414 54.976C498.806 53.968 498.502 52.824 498.502 51.544C498.502 50.28 498.798 49.144 499.39 48.136C499.998 47.112 500.822 46.32 501.862 45.76C502.918 45.184 504.094 44.896 505.39 44.896C506.654 44.896 507.798 45.168 508.822 45.712C509.846 46.256 510.646 47.04 511.222 48.064C511.814 49.072 512.11 50.248 512.11 51.592ZM505.414 47.728C504.566 47.728 503.854 47.968 503.278 48.448C502.702 48.928 502.35 49.584 502.222 50.416H508.582C508.454 49.6 508.102 48.952 507.526 48.472C506.95 47.976 506.246 47.728 505.414 47.728ZM518.947 58.192C517.875 58.192 516.827 58.064 515.803 57.808C514.779 57.536 513.963 57.2 513.355 56.8L514.603 54.112C515.179 54.48 515.875 54.784 516.691 55.024C517.507 55.248 518.307 55.36 519.091 55.36C520.675 55.36 521.467 54.968 521.467 54.184C521.467 53.816 521.251 53.552 520.819 53.392C520.387 53.232 519.723 53.096 518.827 52.984C517.771 52.824 516.899 52.64 516.211 52.432C515.523 52.224 514.923 51.856 514.411 51.328C513.915 50.8 513.667 50.048 513.667 49.072C513.667 48.256 513.899 47.536 514.363 46.912C514.843 46.272 515.531 45.776 516.427 45.424C517.339 45.072 518.411 44.896 519.643 44.896C520.555 44.896 521.459 45 522.355 45.208C523.267 45.4 524.019 45.672 524.611 46.024L523.363 48.688C522.227 48.048 520.987 47.728 519.643 47.728C518.843 47.728 518.243 47.84 517.843 48.064C517.443 48.288 517.243 48.576 517.243 48.928C517.243 49.328 517.459 49.608 517.891 49.768C518.323 49.928 519.011 50.08 519.955 50.224C521.011 50.4 521.875 50.592 522.547 50.8C523.219 50.992 523.803 51.352 524.299 51.88C524.795 52.408 525.043 53.144 525.043 54.088C525.043 54.888 524.803 55.6 524.323 56.224C523.843 56.848 523.139 57.336 522.211 57.688C521.299 58.024 520.211 58.192 518.947 58.192ZM527.353 45.088H531.097V58H527.353V45.088ZM529.225 43.288C528.537 43.288 527.977 43.088 527.545 42.688C527.113 42.288 526.897 41.792 526.897 41.2C526.897 40.608 527.113 40.112 527.545 39.712C527.977 39.312 528.537 39.112 529.225 39.112C529.913 39.112 530.473 39.304 530.905 39.688C531.337 40.072 531.553 40.552 531.553 41.128C531.553 41.752 531.337 42.272 530.905 42.688C530.473 43.088 529.913 43.288 529.225 43.288Z" fill="black"/>
<path d="M629.214 15.368H623.838V12.2H638.478V15.368H633.102V29H629.214V15.368ZM645.138 29.192C643.778 29.192 642.554 28.912 641.466 28.352C640.394 27.776 639.554 26.984 638.946 25.976C638.338 24.968 638.034 23.824 638.034 22.544C638.034 21.264 638.338 20.12 638.946 19.112C639.554 18.104 640.394 17.32 641.466 16.76C642.554 16.184 643.778 15.896 645.138 15.896C646.498 15.896 647.714 16.184 648.786 16.76C649.858 17.32 650.698 18.104 651.306 19.112C651.914 20.12 652.218 21.264 652.218 22.544C652.218 23.824 651.914 24.968 651.306 25.976C650.698 26.984 649.858 27.776 648.786 28.352C647.714 28.912 646.498 29.192 645.138 29.192ZM645.138 26.12C646.098 26.12 646.882 25.8 647.49 25.16C648.114 24.504 648.426 23.632 648.426 22.544C648.426 21.456 648.114 20.592 647.49 19.952C646.882 19.296 646.098 18.968 645.138 18.968C644.178 18.968 643.386 19.296 642.762 19.952C642.138 20.592 641.826 21.456 641.826 22.544C641.826 23.632 642.138 24.504 642.762 25.16C643.386 25.8 644.178 26.12 645.138 26.12ZM662.352 15.896C663.552 15.896 664.64 16.176 665.616 16.736C666.608 17.28 667.384 18.056 667.944 19.064C668.504 20.056 668.784 21.216 668.784 22.544C668.784 23.872 668.504 25.04 667.944 26.048C667.384 27.04 666.608 27.816 665.616 28.376C664.64 28.92 663.552 29.192 662.352 29.192C660.704 29.192 659.408 28.672 658.464 27.632V33.656H654.72V16.088H658.296V17.576C659.224 16.456 660.576 15.896 662.352 15.896ZM661.704 26.12C662.664 26.12 663.448 25.8 664.056 25.16C664.68 24.504 664.992 23.632 664.992 22.544C664.992 21.456 664.68 20.592 664.056 19.952C663.448 19.296 662.664 18.968 661.704 18.968C660.744 18.968 659.952 19.296 659.328 19.952C658.72 20.592 658.416 21.456 658.416 22.544C658.416 23.632 658.72 24.504 659.328 25.16C659.952 25.8 660.744 26.12 661.704 26.12ZM671.291 11.192H675.035V29H671.291V11.192ZM691.517 16.088V29H687.965V27.464C687.469 28.024 686.877 28.456 686.189 28.76C685.501 29.048 684.757 29.192 683.957 29.192C682.261 29.192 680.917 28.704 679.925 27.728C678.933 26.752 678.437 25.304 678.437 23.384V16.088H682.181V22.832C682.181 24.912 683.053 25.952 684.797 25.952C685.693 25.952 686.413 25.664 686.957 25.088C687.501 24.496 687.773 23.624 687.773 22.472V16.088H691.517ZM612.202 51.4L609.946 53.752V58H606.082V41.2H609.946V49.048L617.386 41.2H621.706L614.746 48.688L622.114 58H617.578L612.202 51.4ZM629.188 58.192C627.828 58.192 626.604 57.912 625.516 57.352C624.444 56.776 623.604 55.984 622.996 54.976C622.388 53.968 622.084 52.824 622.084 51.544C622.084 50.264 622.388 49.12 622.996 48.112C623.604 47.104 624.444 46.32 625.516 45.76C626.604 45.184 627.828 44.896 629.188 44.896C630.548 44.896 631.764 45.184 632.836 45.76C633.908 46.32 634.748 47.104 635.356 48.112C635.964 49.12 636.268 50.264 636.268 51.544C636.268 52.824 635.964 53.968 635.356 54.976C634.748 55.984 633.908 56.776 632.836 57.352C631.764 57.912 630.548 58.192 629.188 58.192ZM629.188 55.12C630.148 55.12 630.932 54.8 631.54 54.16C632.164 53.504 632.476 52.632 632.476 51.544C632.476 50.456 632.164 49.592 631.54 48.952C630.932 48.296 630.148 47.968 629.188 47.968C628.228 47.968 627.436 48.296 626.812 48.952C626.188 49.592 625.876 50.456 625.876 51.544C625.876 52.632 626.188 53.504 626.812 54.16C627.436 54.8 628.228 55.12 629.188 55.12ZM646.619 44.896C648.219 44.896 649.507 45.376 650.483 46.336C651.475 47.296 651.971 48.72 651.971 50.608V58H648.227V51.184C648.227 50.16 648.003 49.4 647.555 48.904C647.107 48.392 646.459 48.136 645.611 48.136C644.667 48.136 643.915 48.432 643.355 49.024C642.795 49.6 642.515 50.464 642.515 51.616V58H638.771V45.088H642.347V46.6C642.843 46.056 643.459 45.64 644.195 45.352C644.931 45.048 645.739 44.896 646.619 44.896ZM668.373 45.088V58H664.821V56.464C664.325 57.024 663.733 57.456 663.045 57.76C662.357 58.048 661.613 58.192 660.813 58.192C659.117 58.192 657.773 57.704 656.781 56.728C655.789 55.752 655.293 54.304 655.293 52.384V45.088H659.037V51.832C659.037 53.912 659.909 54.952 661.653 54.952C662.549 54.952 663.269 54.664 663.813 54.088C664.357 53.496 664.629 52.624 664.629 51.472V45.088H668.373ZM680.169 57.376C679.801 57.648 679.345 57.856 678.801 58C678.273 58.128 677.713 58.192 677.121 58.192C675.585 58.192 674.393 57.8 673.545 57.016C672.713 56.232 672.297 55.08 672.297 53.56V48.256H670.305V45.376H672.297V42.232H676.041V45.376H679.257V48.256H676.041V53.512C676.041 54.056 676.177 54.48 676.449 54.784C676.737 55.072 677.137 55.216 677.649 55.216C678.241 55.216 678.745 55.056 679.161 54.736L680.169 57.376ZM682.271 40.192H686.015V58H682.271V40.192ZM694.698 44.896C696.698 44.896 698.234 45.376 699.306 46.336C700.378 47.28 700.914 48.712 700.914 50.632V58H697.41V56.392C696.706 57.592 695.394 58.192 693.474 58.192C692.482 58.192 691.618 58.024 690.882 57.688C690.162 57.352 689.61 56.888 689.226 56.296C688.842 55.704 688.65 55.032 688.65 54.28C688.65 53.08 689.098 52.136 689.994 51.448C690.906 50.76 692.306 50.416 694.194 50.416H697.17C697.17 49.6 696.922 48.976 696.426 48.544C695.93 48.096 695.186 47.872 694.194 47.872C693.506 47.872 692.826 47.984 692.154 48.208C691.498 48.416 690.938 48.704 690.474 49.072L689.13 46.456C689.834 45.96 690.674 45.576 691.65 45.304C692.642 45.032 693.658 44.896 694.698 44.896ZM694.41 55.672C695.05 55.672 695.618 55.528 696.114 55.24C696.61 54.936 696.962 54.496 697.17 53.92V52.6H694.602C693.066 52.6 692.298 53.104 692.298 54.112C692.298 54.592 692.482 54.976 692.85 55.264C693.234 55.536 693.754 55.672 694.41 55.672ZM707.878 46.792C708.326 46.168 708.926 45.696 709.678 45.376C710.446 45.056 711.326 44.896 712.318 44.896V48.352C711.902 48.32 711.622 48.304 711.478 48.304C710.406 48.304 709.566 48.608 708.958 49.216C708.35 49.808 708.046 50.704 708.046 51.904V58H704.302V45.088H707.878V46.792Z" fill="black"/>
<path d="M781.687 44.368H776.311V41.2H790.951V44.368H785.575V58H781.687V44.368ZM804.114 51.592C804.114 51.64 804.09 51.976 804.042 52.6H794.274C794.45 53.4 794.866 54.032 795.522 54.496C796.178 54.96 796.994 55.192 797.97 55.192C798.642 55.192 799.234 55.096 799.746 54.904C800.274 54.696 800.762 54.376 801.21 53.944L803.202 56.104C801.986 57.496 800.21 58.192 797.874 58.192C796.418 58.192 795.13 57.912 794.01 57.352C792.89 56.776 792.026 55.984 791.418 54.976C790.81 53.968 790.506 52.824 790.506 51.544C790.506 50.28 790.802 49.144 791.394 48.136C792.002 47.112 792.826 46.32 793.866 45.76C794.922 45.184 796.098 44.896 797.394 44.896C798.658 44.896 799.802 45.168 800.826 45.712C801.85 46.256 802.65 47.04 803.226 48.064C803.818 49.072 804.114 50.248 804.114 51.592ZM797.418 47.728C796.57 47.728 795.858 47.968 795.282 48.448C794.706 48.928 794.354 49.584 794.226 50.416H800.586C800.458 49.6 800.106 48.952 799.53 48.472C798.954 47.976 798.25 47.728 797.418 47.728ZM823.143 44.896C824.759 44.896 826.039 45.376 826.983 46.336C827.943 47.28 828.423 48.704 828.423 50.608V58H824.679V51.184C824.679 50.16 824.463 49.4 824.031 48.904C823.615 48.392 823.015 48.136 822.231 48.136C821.351 48.136 820.655 48.424 820.143 49C819.631 49.56 819.375 50.4 819.375 51.52V58H815.631V51.184C815.631 49.152 814.815 48.136 813.183 48.136C812.319 48.136 811.631 48.424 811.119 49C810.607 49.56 810.351 50.4 810.351 51.52V58H806.607V45.088H810.183V46.576C810.663 46.032 811.247 45.616 811.935 45.328C812.639 45.04 813.407 44.896 814.239 44.896C815.151 44.896 815.975 45.08 816.711 45.448C817.447 45.8 818.039 46.32 818.487 47.008C819.015 46.336 819.679 45.816 820.479 45.448C821.295 45.08 822.183 44.896 823.143 44.896ZM836.987 44.896C838.987 44.896 840.523 45.376 841.595 46.336C842.667 47.28 843.203 48.712 843.203 50.632V58H839.699V56.392C838.995 57.592 837.683 58.192 835.763 58.192C834.771 58.192 833.907 58.024 833.171 57.688C832.451 57.352 831.899 56.888 831.515 56.296C831.131 55.704 830.939 55.032 830.939 54.28C830.939 53.08 831.387 52.136 832.283 51.448C833.195 50.76 834.595 50.416 836.483 50.416H839.459C839.459 49.6 839.211 48.976 838.715 48.544C838.219 48.096 837.475 47.872 836.483 47.872C835.795 47.872 835.115 47.984 834.443 48.208C833.787 48.416 833.227 48.704 832.763 49.072L831.419 46.456C832.123 45.96 832.963 45.576 833.939 45.304C834.931 45.032 835.947 44.896 836.987 44.896ZM836.699 55.672C837.339 55.672 837.907 55.528 838.403 55.24C838.899 54.936 839.251 54.496 839.459 53.92V52.6H836.891C835.355 52.6 834.587 53.104 834.587 54.112C834.587 54.592 834.771 54.976 835.139 55.264C835.523 55.536 836.043 55.672 836.699 55.672ZM860.924 41.2C862.412 41.2 863.7 41.448 864.788 41.944C865.892 42.44 866.74 43.144 867.332 44.056C867.924 44.968 868.22 46.048 868.22 47.296C868.22 48.528 867.924 49.608 867.332 50.536C866.74 51.448 865.892 52.152 864.788 52.648C863.7 53.128 862.412 53.368 860.924 53.368H857.54V58H853.652V41.2H860.924ZM860.708 50.2C861.876 50.2 862.764 49.952 863.372 49.456C863.98 48.944 864.284 48.224 864.284 47.296C864.284 46.352 863.98 45.632 863.372 45.136C862.764 44.624 861.876 44.368 860.708 44.368H857.54V50.2H860.708ZM875.823 44.896C877.823 44.896 879.359 45.376 880.431 46.336C881.503 47.28 882.039 48.712 882.039 50.632V58H878.535V56.392C877.831 57.592 876.519 58.192 874.599 58.192C873.607 58.192 872.743 58.024 872.007 57.688C871.287 57.352 870.735 56.888 870.351 56.296C869.967 55.704 869.775 55.032 869.775 54.28C869.775 53.08 870.223 52.136 871.119 51.448C872.031 50.76 873.431 50.416 875.319 50.416H878.295C878.295 49.6 878.047 48.976 877.551 48.544C877.055 48.096 876.311 47.872 875.319 47.872C874.631 47.872 873.951 47.984 873.279 48.208C872.623 48.416 872.063 48.704 871.599 49.072L870.255 46.456C870.959 45.96 871.799 45.576 872.775 45.304C873.767 45.032 874.783 44.896 875.823 44.896ZM875.535 55.672C876.175 55.672 876.743 55.528 877.239 55.24C877.735 54.936 878.087 54.496 878.295 53.92V52.6H875.727C874.191 52.6 873.423 53.104 873.423 54.112C873.423 54.592 873.607 54.976 873.975 55.264C874.359 55.536 874.879 55.672 875.535 55.672ZM889.003 46.792C889.451 46.168 890.051 45.696 890.803 45.376C891.571 45.056 892.451 44.896 893.443 44.896V48.352C893.027 48.32 892.747 48.304 892.603 48.304C891.531 48.304 890.691 48.608 890.083 49.216C889.475 49.808 889.171 50.704 889.171 51.904V58H885.427V45.088H889.003V46.792ZM901.213 52.936L899.413 54.712V58H895.669V40.192H899.413V50.272L904.885 45.088H909.349L903.973 50.56L909.829 58H905.293L901.213 52.936Z" fill="black"/>
<path d="M990.869 41.2V58H986.981V51.112H979.349V58H975.461V41.2H979.349V47.824H986.981V41.2H990.869ZM999.788 44.896C1001.79 44.896 1003.32 45.376 1004.4 46.336C1005.47 47.28 1006 48.712 1006 50.632V58H1002.5V56.392C1001.8 57.592 1000.48 58.192 998.564 58.192C997.572 58.192 996.708 58.024 995.972 57.688C995.252 57.352 994.7 56.888 994.316 56.296C993.932 55.704 993.74 55.032 993.74 54.28C993.74 53.08 994.188 52.136 995.084 51.448C995.996 50.76 997.396 50.416 999.284 50.416H1002.26C1002.26 49.6 1002.01 48.976 1001.52 48.544C1001.02 48.096 1000.28 47.872 999.284 47.872C998.596 47.872 997.916 47.984 997.244 48.208C996.588 48.416 996.028 48.704 995.564 49.072L994.22 46.456C994.924 45.96 995.764 45.576 996.74 45.304C997.732 45.032 998.748 44.896 999.788 44.896ZM999.5 55.672C1000.14 55.672 1000.71 55.528 1001.2 55.24C1001.7 54.936 1002.05 54.496 1002.26 53.92V52.6H999.692C998.156 52.6 997.388 53.104 997.388 54.112C997.388 54.592 997.572 54.976 997.94 55.264C998.324 55.536 998.844 55.672 999.5 55.672ZM1013.74 58.192C1012.66 58.192 1011.62 58.064 1010.59 57.808C1009.57 57.536 1008.75 57.2 1008.14 56.8L1009.39 54.112C1009.97 54.48 1010.66 54.784 1011.48 55.024C1012.3 55.248 1013.1 55.36 1013.88 55.36C1015.46 55.36 1016.26 54.968 1016.26 54.184C1016.26 53.816 1016.04 53.552 1015.61 53.392C1015.18 53.232 1014.51 53.096 1013.62 52.984C1012.56 52.824 1011.69 52.64 1011 52.432C1010.31 52.224 1009.71 51.856 1009.2 51.328C1008.7 50.8 1008.46 50.048 1008.46 49.072C1008.46 48.256 1008.69 47.536 1009.15 46.912C1009.63 46.272 1010.32 45.776 1011.22 45.424C1012.13 45.072 1013.2 44.896 1014.43 44.896C1015.34 44.896 1016.25 45 1017.14 45.208C1018.06 45.4 1018.81 45.672 1019.4 46.024L1018.15 48.688C1017.02 48.048 1015.78 47.728 1014.43 47.728C1013.63 47.728 1013.03 47.84 1012.63 48.064C1012.23 48.288 1012.03 48.576 1012.03 48.928C1012.03 49.328 1012.25 49.608 1012.68 49.768C1013.11 49.928 1013.8 50.08 1014.74 50.224C1015.8 50.4 1016.66 50.592 1017.34 50.8C1018.01 50.992 1018.59 51.352 1019.09 51.88C1019.58 52.408 1019.83 53.144 1019.83 54.088C1019.83 54.888 1019.59 55.6 1019.11 56.224C1018.63 56.848 1017.93 57.336 1017 57.688C1016.09 58.024 1015 58.192 1013.74 58.192ZM1030.47 57.376C1030.1 57.648 1029.65 57.856 1029.1 58C1028.57 58.128 1028.01 58.192 1027.42 58.192C1025.89 58.192 1024.69 57.8 1023.85 57.016C1023.01 56.232 1022.6 55.08 1022.6 53.56V48.256H1020.61V45.376H1022.6V42.232H1026.34V45.376H1029.56V48.256H1026.34V53.512C1026.34 54.056 1026.48 54.48 1026.75 54.784C1027.04 55.072 1027.44 55.216 1027.95 55.216C1028.54 55.216 1029.05 55.056 1029.46 54.736L1030.47 57.376ZM1037.78 44.896C1039.78 44.896 1041.32 45.376 1042.39 46.336C1043.46 47.28 1044 48.712 1044 50.632V58H1040.49V56.392C1039.79 57.592 1038.48 58.192 1036.56 58.192C1035.56 58.192 1034.7 58.024 1033.96 57.688C1033.24 57.352 1032.69 56.888 1032.31 56.296C1031.92 55.704 1031.73 55.032 1031.73 54.28C1031.73 53.08 1032.18 52.136 1033.08 51.448C1033.99 50.76 1035.39 50.416 1037.28 50.416H1040.25C1040.25 49.6 1040 48.976 1039.51 48.544C1039.01 48.096 1038.27 47.872 1037.28 47.872C1036.59 47.872 1035.91 47.984 1035.24 48.208C1034.58 48.416 1034.02 48.704 1033.56 49.072L1032.21 46.456C1032.92 45.96 1033.76 45.576 1034.73 45.304C1035.72 45.032 1036.74 44.896 1037.78 44.896ZM1037.49 55.672C1038.13 55.672 1038.7 55.528 1039.2 55.24C1039.69 54.936 1040.04 54.496 1040.25 53.92V52.6H1037.68C1036.15 52.6 1035.38 53.104 1035.38 54.112C1035.38 54.592 1035.56 54.976 1035.93 55.264C1036.32 55.536 1036.84 55.672 1037.49 55.672ZM1055.23 44.896C1056.83 44.896 1058.12 45.376 1059.1 46.336C1060.09 47.296 1060.58 48.72 1060.58 50.608V58H1056.84V51.184C1056.84 50.16 1056.62 49.4 1056.17 48.904C1055.72 48.392 1055.07 48.136 1054.22 48.136C1053.28 48.136 1052.53 48.432 1051.97 49.024C1051.41 49.6 1051.13 50.464 1051.13 51.616V58H1047.38V45.088H1050.96V46.6C1051.46 46.056 1052.07 45.64 1052.81 45.352C1053.54 45.048 1054.35 44.896 1055.23 44.896ZM1076.77 51.592C1076.77 51.64 1076.74 51.976 1076.69 52.6H1066.93C1067.1 53.4 1067.52 54.032 1068.17 54.496C1068.83 54.96 1069.65 55.192 1070.62 55.192C1071.29 55.192 1071.89 55.096 1072.4 54.904C1072.93 54.696 1073.41 54.376 1073.86 53.944L1075.85 56.104C1074.64 57.496 1072.86 58.192 1070.53 58.192C1069.07 58.192 1067.78 57.912 1066.66 57.352C1065.54 56.776 1064.68 55.984 1064.07 54.976C1063.46 53.968 1063.16 52.824 1063.16 51.544C1063.16 50.28 1063.45 49.144 1064.05 48.136C1064.65 47.112 1065.48 46.32 1066.52 45.76C1067.57 45.184 1068.75 44.896 1070.05 44.896C1071.31 44.896 1072.45 45.168 1073.48 45.712C1074.5 46.256 1075.3 47.04 1075.88 48.064C1076.47 49.072 1076.77 50.248 1076.77 51.592ZM1070.07 47.728C1069.22 47.728 1068.51 47.968 1067.93 48.448C1067.36 48.928 1067.01 49.584 1066.88 50.416H1073.24C1073.11 49.6 1072.76 48.952 1072.18 48.472C1071.61 47.976 1070.9 47.728 1070.07 47.728Z" fill="black"/>
<path d="M1150.67 44.368H1145.29V41.2H1159.93V44.368H1154.56V58H1150.67V44.368ZM1166.31 44.896C1168.31 44.896 1169.85 45.376 1170.92 46.336C1171.99 47.28 1172.53 48.712 1172.53 50.632V58H1169.02V56.392C1168.32 57.592 1167.01 58.192 1165.09 58.192C1164.1 58.192 1163.23 58.024 1162.5 57.688C1161.78 57.352 1161.22 56.888 1160.84 56.296C1160.46 55.704 1160.26 55.032 1160.26 54.28C1160.26 53.08 1160.71 52.136 1161.61 51.448C1162.52 50.76 1163.92 50.416 1165.81 50.416H1168.78C1168.78 49.6 1168.54 48.976 1168.04 48.544C1167.54 48.096 1166.8 47.872 1165.81 47.872C1165.12 47.872 1164.44 47.984 1163.77 48.208C1163.11 48.416 1162.55 48.704 1162.09 49.072L1160.74 46.456C1161.45 45.96 1162.29 45.576 1163.26 45.304C1164.26 45.032 1165.27 44.896 1166.31 44.896ZM1166.02 55.672C1166.66 55.672 1167.23 55.528 1167.73 55.24C1168.22 54.936 1168.58 54.496 1168.78 53.92V52.6H1166.22C1164.68 52.6 1163.91 53.104 1163.91 54.112C1163.91 54.592 1164.1 54.976 1164.46 55.264C1164.85 55.536 1165.37 55.672 1166.02 55.672ZM1183.76 44.896C1185.36 44.896 1186.65 45.376 1187.63 46.336C1188.62 47.296 1189.12 48.72 1189.12 50.608V58H1185.37V51.184C1185.37 50.16 1185.15 49.4 1184.7 48.904C1184.25 48.392 1183.6 48.136 1182.76 48.136C1181.81 48.136 1181.06 48.432 1180.5 49.024C1179.94 49.6 1179.66 50.464 1179.66 51.616V58H1175.92V40.192H1179.66V46.432C1180.16 45.936 1180.76 45.56 1181.46 45.304C1182.16 45.032 1182.93 44.896 1183.76 44.896ZM1200.84 57.376C1200.47 57.648 1200.01 57.856 1199.47 58C1198.94 58.128 1198.38 58.192 1197.79 58.192C1196.25 58.192 1195.06 57.8 1194.21 57.016C1193.38 56.232 1192.97 55.08 1192.97 53.56V48.256H1190.97V45.376H1192.97V42.232H1196.71V45.376H1199.93V48.256H1196.71V53.512C1196.71 54.056 1196.85 54.48 1197.12 54.784C1197.41 55.072 1197.81 55.216 1198.32 55.216C1198.91 55.216 1199.41 55.056 1199.83 54.736L1200.84 57.376ZM1208.15 44.896C1210.15 44.896 1211.68 45.376 1212.75 46.336C1213.83 47.28 1214.36 48.712 1214.36 50.632V58H1210.86V56.392C1210.15 57.592 1208.84 58.192 1206.92 58.192C1205.93 58.192 1205.07 58.024 1204.33 57.688C1203.61 57.352 1203.06 56.888 1202.67 56.296C1202.29 55.704 1202.1 55.032 1202.1 54.28C1202.1 53.08 1202.55 52.136 1203.44 51.448C1204.35 50.76 1205.75 50.416 1207.64 50.416H1210.62C1210.62 49.6 1210.37 48.976 1209.87 48.544C1209.38 48.096 1208.63 47.872 1207.64 47.872C1206.95 47.872 1206.27 47.984 1205.6 48.208C1204.95 48.416 1204.39 48.704 1203.92 49.072L1202.58 46.456C1203.28 45.96 1204.12 45.576 1205.1 45.304C1206.09 45.032 1207.11 44.896 1208.15 44.896ZM1207.86 55.672C1208.5 55.672 1209.07 55.528 1209.56 55.24C1210.06 54.936 1210.41 54.496 1210.62 53.92V52.6H1208.05C1206.51 52.6 1205.75 53.104 1205.75 54.112C1205.75 54.592 1205.93 54.976 1206.3 55.264C1206.68 55.536 1207.2 55.672 1207.86 55.672ZM1223.3 52.936L1221.5 54.712V58H1217.75V40.192H1221.5V50.272L1226.97 45.088H1231.43L1226.06 50.56L1231.91 58H1227.38L1223.3 52.936ZM1238.57 44.896C1240.57 44.896 1242.1 45.376 1243.18 46.336C1244.25 47.28 1244.78 48.712 1244.78 50.632V58H1241.28V56.392C1240.58 57.592 1239.26 58.192 1237.34 58.192C1236.35 58.192 1235.49 58.024 1234.75 57.688C1234.03 57.352 1233.48 56.888 1233.1 56.296C1232.71 55.704 1232.52 55.032 1232.52 54.28C1232.52 53.08 1232.97 52.136 1233.86 51.448C1234.78 50.76 1236.18 50.416 1238.06 50.416H1241.04C1241.04 49.6 1240.79 48.976 1240.3 48.544C1239.8 48.096 1239.06 47.872 1238.06 47.872C1237.38 47.872 1236.7 47.984 1236.02 48.208C1235.37 48.416 1234.81 48.704 1234.34 49.072L1233 46.456C1233.7 45.96 1234.54 45.576 1235.52 45.304C1236.51 45.032 1237.53 44.896 1238.57 44.896ZM1238.28 55.672C1238.92 55.672 1239.49 55.528 1239.98 55.24C1240.48 54.936 1240.83 54.496 1241.04 53.92V52.6H1238.47C1236.94 52.6 1236.17 53.104 1236.17 54.112C1236.17 54.592 1236.35 54.976 1236.72 55.264C1237.1 55.536 1237.62 55.672 1238.28 55.672ZM1248.17 40.192H1251.92V58H1248.17V40.192ZM1268.04 51.592C1268.04 51.64 1268.02 51.976 1267.97 52.6H1258.2C1258.38 53.4 1258.79 54.032 1259.45 54.496C1260.1 54.96 1260.92 55.192 1261.9 55.192C1262.57 55.192 1263.16 55.096 1263.67 54.904C1264.2 54.696 1264.69 54.376 1265.14 53.944L1267.13 56.104C1265.91 57.496 1264.14 58.192 1261.8 58.192C1260.34 58.192 1259.06 57.912 1257.94 57.352C1256.82 56.776 1255.95 55.984 1255.34 54.976C1254.74 53.968 1254.43 52.824 1254.43 51.544C1254.43 50.28 1254.73 49.144 1255.32 48.136C1255.93 47.112 1256.75 46.32 1257.79 45.76C1258.85 45.184 1260.02 44.896 1261.32 44.896C1262.58 44.896 1263.73 45.168 1264.75 45.712C1265.78 46.256 1266.58 47.04 1267.15 48.064C1267.74 49.072 1268.04 50.248 1268.04 51.592ZM1261.34 47.728C1260.5 47.728 1259.78 47.968 1259.21 48.448C1258.63 48.928 1258.28 49.584 1258.15 50.416H1264.51C1264.38 49.6 1264.03 48.952 1263.46 48.472C1262.88 47.976 1262.18 47.728 1261.34 47.728Z" fill="black"/>
<path d="M1323.41 41.2H1327.29V58H1323.41V41.2ZM1335.36 58.192C1334.29 58.192 1333.24 58.064 1332.22 57.808C1331.19 57.536 1330.38 57.2 1329.77 56.8L1331.02 54.112C1331.59 54.48 1332.29 54.784 1333.11 55.024C1333.92 55.248 1334.72 55.36 1335.51 55.36C1337.09 55.36 1337.88 54.968 1337.88 54.184C1337.88 53.816 1337.67 53.552 1337.23 53.392C1336.8 53.232 1336.14 53.096 1335.24 52.984C1334.19 52.824 1333.31 52.64 1332.63 52.432C1331.94 52.224 1331.34 51.856 1330.83 51.328C1330.33 50.8 1330.08 50.048 1330.08 49.072C1330.08 48.256 1330.31 47.536 1330.78 46.912C1331.26 46.272 1331.95 45.776 1332.84 45.424C1333.75 45.072 1334.83 44.896 1336.06 44.896C1336.97 44.896 1337.87 45 1338.77 45.208C1339.68 45.4 1340.43 45.672 1341.03 46.024L1339.78 48.688C1338.64 48.048 1337.4 47.728 1336.06 47.728C1335.26 47.728 1334.66 47.84 1334.26 48.064C1333.86 48.288 1333.66 48.576 1333.66 48.928C1333.66 49.328 1333.87 49.608 1334.31 49.768C1334.74 49.928 1335.43 50.08 1336.37 50.224C1337.43 50.4 1338.29 50.592 1338.96 50.8C1339.63 50.992 1340.22 51.352 1340.71 51.88C1341.21 52.408 1341.46 53.144 1341.46 54.088C1341.46 54.888 1341.22 55.6 1340.74 56.224C1340.26 56.848 1339.55 57.336 1338.63 57.688C1337.71 58.024 1336.63 58.192 1335.36 58.192ZM1351.4 44.896C1352.6 44.896 1353.69 45.176 1354.66 45.736C1355.66 46.28 1356.43 47.056 1356.99 48.064C1357.55 49.056 1357.83 50.216 1357.83 51.544C1357.83 52.872 1357.55 54.04 1356.99 55.048C1356.43 56.04 1355.66 56.816 1354.66 57.376C1353.69 57.92 1352.6 58.192 1351.4 58.192C1349.75 58.192 1348.46 57.672 1347.51 56.632V62.656H1343.77V45.088H1347.34V46.576C1348.27 45.456 1349.62 44.896 1351.4 44.896ZM1350.75 55.12C1351.71 55.12 1352.5 54.8 1353.1 54.16C1353.73 53.504 1354.04 52.632 1354.04 51.544C1354.04 50.456 1353.73 49.592 1353.1 48.952C1352.5 48.296 1351.71 47.968 1350.75 47.968C1349.79 47.968 1349 48.296 1348.38 48.952C1347.77 49.592 1347.46 50.456 1347.46 51.544C1347.46 52.632 1347.77 53.504 1348.38 54.16C1349 54.8 1349.79 55.12 1350.75 55.12ZM1365.33 44.896C1367.33 44.896 1368.87 45.376 1369.94 46.336C1371.01 47.28 1371.55 48.712 1371.55 50.632V58H1368.05V56.392C1367.34 57.592 1366.03 58.192 1364.11 58.192C1363.12 58.192 1362.25 58.024 1361.52 57.688C1360.8 57.352 1360.25 56.888 1359.86 56.296C1359.48 55.704 1359.29 55.032 1359.29 54.28C1359.29 53.08 1359.73 52.136 1360.63 51.448C1361.54 50.76 1362.94 50.416 1364.83 50.416H1367.81C1367.81 49.6 1367.56 48.976 1367.06 48.544C1366.57 48.096 1365.82 47.872 1364.83 47.872C1364.14 47.872 1363.46 47.984 1362.79 48.208C1362.13 48.416 1361.57 48.704 1361.11 49.072L1359.77 46.456C1360.47 45.96 1361.31 45.576 1362.29 45.304C1363.28 45.032 1364.29 44.896 1365.33 44.896ZM1365.05 55.672C1365.69 55.672 1366.25 55.528 1366.75 55.24C1367.25 54.936 1367.6 54.496 1367.81 53.92V52.6H1365.24C1363.7 52.6 1362.93 53.104 1362.93 54.112C1362.93 54.592 1363.12 54.976 1363.49 55.264C1363.87 55.536 1364.39 55.672 1365.05 55.672ZM1378.51 46.792C1378.96 46.168 1379.56 45.696 1380.31 45.376C1381.08 45.056 1381.96 44.896 1382.95 44.896V48.352C1382.54 48.32 1382.26 48.304 1382.11 48.304C1381.04 48.304 1380.2 48.608 1379.59 49.216C1378.99 49.808 1378.68 50.704 1378.68 51.904V58H1374.94V45.088H1378.51V46.792ZM1393.95 57.376C1393.59 57.648 1393.13 57.856 1392.59 58C1392.06 58.128 1391.5 58.192 1390.91 58.192C1389.37 58.192 1388.18 57.8 1387.33 57.016C1386.5 56.232 1386.08 55.08 1386.08 53.56V48.256H1384.09V45.376H1386.08V42.232H1389.83V45.376H1393.04V48.256H1389.83V53.512C1389.83 54.056 1389.96 54.48 1390.23 54.784C1390.52 55.072 1390.92 55.216 1391.43 55.216C1392.03 55.216 1392.53 55.056 1392.95 54.736L1393.95 57.376ZM1401.26 44.896C1403.26 44.896 1404.8 45.376 1405.87 46.336C1406.94 47.28 1407.48 48.712 1407.48 50.632V58H1403.98V56.392C1403.27 57.592 1401.96 58.192 1400.04 58.192C1399.05 58.192 1398.18 58.024 1397.45 57.688C1396.73 57.352 1396.18 56.888 1395.79 56.296C1395.41 55.704 1395.22 55.032 1395.22 54.28C1395.22 53.08 1395.66 52.136 1396.56 51.448C1397.47 50.76 1398.87 50.416 1400.76 50.416H1403.74C1403.74 49.6 1403.49 48.976 1402.99 48.544C1402.5 48.096 1401.75 47.872 1400.76 47.872C1400.07 47.872 1399.39 47.984 1398.72 48.208C1398.06 48.416 1397.5 48.704 1397.04 49.072L1395.7 46.456C1396.4 45.96 1397.24 45.576 1398.22 45.304C1399.21 45.032 1400.22 44.896 1401.26 44.896ZM1400.98 55.672C1401.62 55.672 1402.18 55.528 1402.68 55.24C1403.18 54.936 1403.53 54.496 1403.74 53.92V52.6H1401.17C1399.63 52.6 1398.86 53.104 1398.86 54.112C1398.86 54.592 1399.05 54.976 1399.42 55.264C1399.8 55.536 1400.32 55.672 1400.98 55.672ZM1416.41 52.936L1414.61 54.712V58H1410.87V40.192H1414.61V50.272L1420.08 45.088H1424.55L1419.17 50.56L1425.03 58H1420.49L1416.41 52.936ZM1439.49 45.088V58H1435.93V56.464C1435.44 57.024 1434.85 57.456 1434.16 57.76C1433.47 58.048 1432.73 58.192 1431.93 58.192C1430.23 58.192 1428.89 57.704 1427.89 56.728C1426.9 55.752 1426.41 54.304 1426.41 52.384V45.088H1430.15V51.832C1430.15 53.912 1431.02 54.952 1432.77 54.952C1433.66 54.952 1434.38 54.664 1434.93 54.088C1435.47 53.496 1435.74 52.624 1435.74 51.472V45.088H1439.49ZM1442.95 40.192H1446.7V58H1442.95V40.192ZM1462.82 51.592C1462.82 51.64 1462.8 51.976 1462.75 52.6H1452.98C1453.16 53.4 1453.57 54.032 1454.23 54.496C1454.89 54.96 1455.7 55.192 1456.68 55.192C1457.35 55.192 1457.94 55.096 1458.45 54.904C1458.98 54.696 1459.47 54.376 1459.92 53.944L1461.91 56.104C1460.69 57.496 1458.92 58.192 1456.58 58.192C1455.13 58.192 1453.84 57.912 1452.72 57.352C1451.6 56.776 1450.73 55.984 1450.13 54.976C1449.52 53.968 1449.21 52.824 1449.21 51.544C1449.21 50.28 1449.51 49.144 1450.1 48.136C1450.71 47.112 1451.53 46.32 1452.57 45.76C1453.63 45.184 1454.81 44.896 1456.1 44.896C1457.37 44.896 1458.51 45.168 1459.53 45.712C1460.56 46.256 1461.36 47.04 1461.93 48.064C1462.53 49.072 1462.82 50.248 1462.82 51.592ZM1456.13 47.728C1455.28 47.728 1454.57 47.968 1453.99 48.448C1453.41 48.928 1453.06 49.584 1452.93 50.416H1459.29C1459.17 49.6 1458.81 48.952 1458.24 48.472C1457.66 47.976 1456.96 47.728 1456.13 47.728Z" fill="black"/>
<path d="M1520.78 49.264C1521.74 49.568 1522.49 50.08 1523.04 50.8C1523.58 51.504 1523.85 52.376 1523.85 53.416C1523.85 54.888 1523.28 56.024 1522.13 56.824C1520.99 57.608 1519.33 58 1517.13 58H1508.45V41.2H1516.65C1518.7 41.2 1520.27 41.592 1521.36 42.376C1522.46 43.16 1523.01 44.224 1523.01 45.568C1523.01 46.384 1522.81 47.112 1522.41 47.752C1522.03 48.392 1521.49 48.896 1520.78 49.264ZM1512.31 44.128V48.088H1516.17C1517.13 48.088 1517.86 47.92 1518.36 47.584C1518.85 47.248 1519.1 46.752 1519.1 46.096C1519.1 45.44 1518.85 44.952 1518.36 44.632C1517.86 44.296 1517.13 44.128 1516.17 44.128H1512.31ZM1516.85 55.072C1517.87 55.072 1518.64 54.904 1519.15 54.568C1519.68 54.232 1519.94 53.712 1519.94 53.008C1519.94 51.616 1518.91 50.92 1516.85 50.92H1512.31V55.072H1516.85ZM1531.74 44.896C1533.74 44.896 1535.28 45.376 1536.35 46.336C1537.42 47.28 1537.96 48.712 1537.96 50.632V58H1534.45V56.392C1533.75 57.592 1532.44 58.192 1530.52 58.192C1529.52 58.192 1528.66 58.024 1527.92 57.688C1527.2 57.352 1526.65 56.888 1526.27 56.296C1525.88 55.704 1525.69 55.032 1525.69 54.28C1525.69 53.08 1526.14 52.136 1527.04 51.448C1527.95 50.76 1529.35 50.416 1531.24 50.416H1534.21C1534.21 49.6 1533.96 48.976 1533.47 48.544C1532.97 48.096 1532.23 47.872 1531.24 47.872C1530.55 47.872 1529.87 47.984 1529.2 48.208C1528.54 48.416 1527.98 48.704 1527.52 49.072L1526.17 46.456C1526.88 45.96 1527.72 45.576 1528.69 45.304C1529.68 45.032 1530.7 44.896 1531.74 44.896ZM1531.45 55.672C1532.09 55.672 1532.66 55.528 1533.16 55.24C1533.65 54.936 1534 54.496 1534.21 53.92V52.6H1531.64C1530.11 52.6 1529.34 53.104 1529.34 54.112C1529.34 54.592 1529.52 54.976 1529.89 55.264C1530.28 55.536 1530.8 55.672 1531.45 55.672ZM1549.19 44.896C1550.79 44.896 1552.08 45.376 1553.06 46.336C1554.05 47.296 1554.55 48.72 1554.55 50.608V58H1550.8V51.184C1550.8 50.16 1550.58 49.4 1550.13 48.904C1549.68 48.392 1549.03 48.136 1548.19 48.136C1547.24 48.136 1546.49 48.432 1545.93 49.024C1545.37 49.6 1545.09 50.464 1545.09 51.616V58H1541.35V40.192H1545.09V46.432C1545.59 45.936 1546.19 45.56 1546.89 45.304C1547.59 45.032 1548.36 44.896 1549.19 44.896ZM1564.32 58.192C1562.94 58.192 1561.7 57.912 1560.6 57.352C1559.51 56.776 1558.66 55.984 1558.03 54.976C1557.42 53.968 1557.12 52.824 1557.12 51.544C1557.12 50.264 1557.42 49.12 1558.03 48.112C1558.66 47.104 1559.51 46.32 1560.6 45.76C1561.7 45.184 1562.94 44.896 1564.32 44.896C1565.68 44.896 1566.86 45.184 1567.87 45.76C1568.9 46.32 1569.64 47.128 1570.1 48.184L1567.2 49.744C1566.53 48.56 1565.56 47.968 1564.3 47.968C1563.32 47.968 1562.51 48.288 1561.87 48.928C1561.23 49.568 1560.91 50.44 1560.91 51.544C1560.91 52.648 1561.23 53.52 1561.87 54.16C1562.51 54.8 1563.32 55.12 1564.3 55.12C1565.58 55.12 1566.54 54.528 1567.2 53.344L1570.1 54.928C1569.64 55.952 1568.9 56.752 1567.87 57.328C1566.86 57.904 1565.68 58.192 1564.32 58.192ZM1562.95 63.568C1562.54 63.568 1562.13 63.52 1561.73 63.424C1561.33 63.344 1560.99 63.224 1560.72 63.064L1561.3 61.456C1561.81 61.696 1562.33 61.816 1562.86 61.816C1563.69 61.816 1564.1 61.56 1564.1 61.048C1564.1 60.584 1563.71 60.352 1562.93 60.352H1562.11L1562.74 57.808H1564.73L1564.39 59.2C1565.1 59.28 1565.62 59.496 1565.95 59.848C1566.3 60.216 1566.48 60.664 1566.48 61.192C1566.48 61.928 1566.16 62.504 1565.52 62.92C1564.88 63.352 1564.02 63.568 1562.95 63.568ZM1584.74 51.592C1584.74 51.64 1584.72 51.976 1584.67 52.6H1574.9C1575.08 53.4 1575.5 54.032 1576.15 54.496C1576.81 54.96 1577.62 55.192 1578.6 55.192C1579.27 55.192 1579.86 55.096 1580.38 54.904C1580.9 54.696 1581.39 54.376 1581.84 53.944L1583.83 56.104C1582.62 57.496 1580.84 58.192 1578.5 58.192C1577.05 58.192 1575.76 57.912 1574.64 57.352C1573.52 56.776 1572.66 55.984 1572.05 54.976C1571.44 53.968 1571.14 52.824 1571.14 51.544C1571.14 50.28 1571.43 49.144 1572.02 48.136C1572.63 47.112 1573.46 46.32 1574.5 45.76C1575.55 45.184 1576.73 44.896 1578.02 44.896C1579.29 44.896 1580.43 45.168 1581.46 45.712C1582.48 46.256 1583.28 47.04 1583.86 48.064C1584.45 49.072 1584.74 50.248 1584.74 51.592ZM1578.05 47.728C1577.2 47.728 1576.49 47.968 1575.91 48.448C1575.34 48.928 1574.98 49.584 1574.86 50.416H1581.22C1581.09 49.6 1580.74 48.952 1580.16 48.472C1579.58 47.976 1578.88 47.728 1578.05 47.728ZM1591.58 58.192C1590.51 58.192 1589.46 58.064 1588.44 57.808C1587.41 57.536 1586.6 57.2 1585.99 56.8L1587.24 54.112C1587.81 54.48 1588.51 54.784 1589.32 55.024C1590.14 55.248 1590.94 55.36 1591.72 55.36C1593.31 55.36 1594.1 54.968 1594.1 54.184C1594.1 53.816 1593.88 53.552 1593.45 53.392C1593.02 53.232 1592.36 53.096 1591.46 52.984C1590.4 52.824 1589.53 52.64 1588.84 52.432C1588.16 52.224 1587.56 51.856 1587.04 51.328C1586.55 50.8 1586.3 50.048 1586.3 49.072C1586.3 48.256 1586.53 47.536 1587 46.912C1587.48 46.272 1588.16 45.776 1589.06 45.424C1589.97 45.072 1591.04 44.896 1592.28 44.896C1593.19 44.896 1594.09 45 1594.99 45.208C1595.9 45.4 1596.65 45.672 1597.24 46.024L1596 48.688C1594.86 48.048 1593.62 47.728 1592.28 47.728C1591.48 47.728 1590.88 47.84 1590.48 48.064C1590.08 48.288 1589.88 48.576 1589.88 48.928C1589.88 49.328 1590.09 49.608 1590.52 49.768C1590.96 49.928 1591.64 50.08 1592.59 50.224C1593.64 50.4 1594.51 50.592 1595.18 50.8C1595.85 50.992 1596.44 51.352 1596.93 51.88C1597.43 52.408 1597.68 53.144 1597.68 54.088C1597.68 54.888 1597.44 55.6 1596.96 56.224C1596.48 56.848 1595.77 57.336 1594.84 57.688C1593.93 58.024 1592.84 58.192 1591.58 58.192ZM1590.98 63.568C1590.56 63.568 1590.16 63.52 1589.76 63.424C1589.36 63.344 1589.02 63.224 1588.75 63.064L1589.32 61.456C1589.84 61.696 1590.36 61.816 1590.88 61.816C1591.72 61.816 1592.13 61.56 1592.13 61.048C1592.13 60.584 1591.74 60.352 1590.96 60.352H1590.14L1590.76 57.808H1592.76L1592.42 59.2C1593.12 59.28 1593.64 59.496 1593.98 59.848C1594.33 60.216 1594.51 60.664 1594.51 61.192C1594.51 61.928 1594.19 62.504 1593.55 62.92C1592.91 63.352 1592.05 63.568 1590.98 63.568ZM1612.63 51.592C1612.63 51.64 1612.61 51.976 1612.56 52.6H1602.79C1602.97 53.4 1603.39 54.032 1604.04 54.496C1604.7 54.96 1605.51 55.192 1606.49 55.192C1607.16 55.192 1607.75 55.096 1608.27 54.904C1608.79 54.696 1609.28 54.376 1609.73 53.944L1611.72 56.104C1610.51 57.496 1608.73 58.192 1606.39 58.192C1604.94 58.192 1603.65 57.912 1602.53 57.352C1601.41 56.776 1600.55 55.984 1599.94 54.976C1599.33 53.968 1599.03 52.824 1599.03 51.544C1599.03 50.28 1599.32 49.144 1599.91 48.136C1600.52 47.112 1601.35 46.32 1602.39 45.76C1603.44 45.184 1604.62 44.896 1605.91 44.896C1607.18 44.896 1608.32 45.168 1609.35 45.712C1610.37 46.256 1611.17 47.04 1611.75 48.064C1612.34 49.072 1612.63 50.248 1612.63 51.592ZM1605.94 47.728C1605.09 47.728 1604.38 47.968 1603.8 48.448C1603.23 48.928 1602.87 49.584 1602.75 50.416H1609.11C1608.98 49.6 1608.63 48.952 1608.05 48.472C1607.47 47.976 1606.77 47.728 1605.94 47.728ZM1622.97 44.896C1624.57 44.896 1625.86 45.376 1626.84 46.336C1627.83 47.296 1628.33 48.72 1628.33 50.608V58H1624.58V51.184C1624.58 50.16 1624.36 49.4 1623.91 48.904C1623.46 48.392 1622.81 48.136 1621.97 48.136C1621.02 48.136 1620.27 48.432 1619.71 49.024C1619.15 49.6 1618.87 50.464 1618.87 51.616V58H1615.13V40.192H1618.87V46.432C1619.37 45.936 1619.97 45.56 1620.67 45.304C1621.37 45.032 1622.14 44.896 1622.97 44.896ZM1631.72 45.088H1635.46V58H1631.72V45.088ZM1633.59 43.288C1632.9 43.288 1632.34 43.088 1631.91 42.688C1631.48 42.288 1631.26 41.792 1631.26 41.2C1631.26 40.608 1631.48 40.112 1631.91 39.712C1632.34 39.312 1632.9 39.112 1633.59 39.112C1634.28 39.112 1634.84 39.304 1635.27 39.688C1635.7 40.072 1635.92 40.552 1635.92 41.128C1635.92 41.752 1635.7 42.272 1635.27 42.688C1634.84 43.088 1634.28 43.288 1633.59 43.288ZM1642.51 46.792C1642.96 46.168 1643.56 45.696 1644.31 45.376C1645.08 45.056 1645.96 44.896 1646.95 44.896V48.352C1646.54 48.32 1646.26 48.304 1646.11 48.304C1645.04 48.304 1644.2 48.608 1643.59 49.216C1642.99 49.808 1642.68 50.704 1642.68 51.904V58H1638.94V45.088H1642.51V46.792Z" fill="black"/>
<path d="M1715.03 54.88V58H1702.02V41.2H1714.72V44.32H1705.89V47.968H1713.69V50.992H1705.89V54.88H1715.03ZM1722.11 58.192C1721.04 58.192 1719.99 58.064 1718.97 57.808C1717.94 57.536 1717.13 57.2 1716.52 56.8L1717.77 54.112C1718.34 54.48 1719.04 54.784 1719.86 55.024C1720.67 55.248 1721.47 55.36 1722.26 55.36C1723.84 55.36 1724.63 54.968 1724.63 54.184C1724.63 53.816 1724.42 53.552 1723.98 53.392C1723.55 53.232 1722.89 53.096 1721.99 52.984C1720.94 52.824 1720.06 52.64 1719.38 52.432C1718.69 52.224 1718.09 51.856 1717.58 51.328C1717.08 50.8 1716.83 50.048 1716.83 49.072C1716.83 48.256 1717.06 47.536 1717.53 46.912C1718.01 46.272 1718.7 45.776 1719.59 45.424C1720.5 45.072 1721.58 44.896 1722.81 44.896C1723.72 44.896 1724.62 45 1725.52 45.208C1726.43 45.4 1727.18 45.672 1727.78 46.024L1726.53 48.688C1725.39 48.048 1724.15 47.728 1722.81 47.728C1722.01 47.728 1721.41 47.84 1721.01 48.064C1720.61 48.288 1720.41 48.576 1720.41 48.928C1720.41 49.328 1720.62 49.608 1721.06 49.768C1721.49 49.928 1722.18 50.08 1723.12 50.224C1724.18 50.4 1725.04 50.592 1725.71 50.8C1726.38 50.992 1726.97 51.352 1727.46 51.88C1727.96 52.408 1728.21 53.144 1728.21 54.088C1728.21 54.888 1727.97 55.6 1727.49 56.224C1727.01 56.848 1726.3 57.336 1725.38 57.688C1724.46 58.024 1723.38 58.192 1722.11 58.192ZM1743.17 51.592C1743.17 51.64 1743.14 51.976 1743.09 52.6H1733.33C1733.5 53.4 1733.92 54.032 1734.57 54.496C1735.23 54.96 1736.05 55.192 1737.02 55.192C1737.69 55.192 1738.29 55.096 1738.8 54.904C1739.33 54.696 1739.81 54.376 1740.26 53.944L1742.25 56.104C1741.04 57.496 1739.26 58.192 1736.93 58.192C1735.47 58.192 1734.18 57.912 1733.06 57.352C1731.94 56.776 1731.08 55.984 1730.47 54.976C1729.86 53.968 1729.56 52.824 1729.56 51.544C1729.56 50.28 1729.85 49.144 1730.45 48.136C1731.05 47.112 1731.88 46.32 1732.92 45.76C1733.97 45.184 1735.15 44.896 1736.45 44.896C1737.71 44.896 1738.85 45.168 1739.88 45.712C1740.9 46.256 1741.7 47.04 1742.28 48.064C1742.87 49.072 1743.17 50.248 1743.17 51.592ZM1736.47 47.728C1735.62 47.728 1734.91 47.968 1734.33 48.448C1733.76 48.928 1733.41 49.584 1733.28 50.416H1739.64C1739.51 49.6 1739.16 48.952 1738.58 48.472C1738.01 47.976 1737.3 47.728 1736.47 47.728ZM1753.51 44.896C1755.11 44.896 1756.39 45.376 1757.37 46.336C1758.36 47.296 1758.86 48.72 1758.86 50.608V58H1755.11V51.184C1755.11 50.16 1754.89 49.4 1754.44 48.904C1753.99 48.392 1753.35 48.136 1752.5 48.136C1751.55 48.136 1750.8 48.432 1750.24 49.024C1749.68 49.6 1749.4 50.464 1749.4 51.616V58H1745.66V45.088H1749.23V46.6C1749.73 46.056 1750.35 45.64 1751.08 45.352C1751.82 45.048 1752.63 44.896 1753.51 44.896ZM1767.8 52.936L1766 54.712V58H1762.25V40.192H1766V50.272L1771.47 45.088H1775.93L1770.56 50.56L1776.41 58H1771.88L1767.8 52.936ZM1790.18 51.592C1790.18 51.64 1790.16 51.976 1790.11 52.6H1780.34C1780.52 53.4 1780.93 54.032 1781.59 54.496C1782.24 54.96 1783.06 55.192 1784.04 55.192C1784.71 55.192 1785.3 55.096 1785.81 54.904C1786.34 54.696 1786.83 54.376 1787.28 53.944L1789.27 56.104C1788.05 57.496 1786.28 58.192 1783.94 58.192C1782.48 58.192 1781.2 57.912 1780.08 57.352C1778.96 56.776 1778.09 55.984 1777.48 54.976C1776.88 53.968 1776.57 52.824 1776.57 51.544C1776.57 50.28 1776.87 49.144 1777.46 48.136C1778.07 47.112 1778.89 46.32 1779.93 45.76C1780.99 45.184 1782.16 44.896 1783.46 44.896C1784.72 44.896 1785.87 45.168 1786.89 45.712C1787.92 46.256 1788.72 47.04 1789.29 48.064C1789.88 49.072 1790.18 50.248 1790.18 51.592ZM1783.48 47.728C1782.64 47.728 1781.92 47.968 1781.35 48.448C1780.77 48.928 1780.42 49.584 1780.29 50.416H1786.65C1786.52 49.6 1786.17 48.952 1785.6 48.472C1785.02 47.976 1784.32 47.728 1783.48 47.728ZM1800.52 44.896C1802.12 44.896 1803.41 45.376 1804.39 46.336C1805.38 47.296 1805.87 48.72 1805.87 50.608V58H1802.13V51.184C1802.13 50.16 1801.91 49.4 1801.46 48.904C1801.01 48.392 1800.36 48.136 1799.51 48.136C1798.57 48.136 1797.82 48.432 1797.26 49.024C1796.7 49.6 1796.42 50.464 1796.42 51.616V58H1792.67V45.088H1796.25V46.6C1796.75 46.056 1797.36 45.64 1798.1 45.352C1798.83 45.048 1799.64 44.896 1800.52 44.896ZM1817.6 57.376C1817.23 57.648 1816.77 57.856 1816.23 58C1815.7 58.128 1815.14 58.192 1814.55 58.192C1813.01 58.192 1811.82 57.8 1810.97 57.016C1810.14 56.232 1809.72 55.08 1809.72 53.56V48.256H1807.73V45.376H1809.72V42.232H1813.47V45.376H1816.68V48.256H1813.47V53.512C1813.47 54.056 1813.6 54.48 1813.88 54.784C1814.16 55.072 1814.56 55.216 1815.08 55.216C1815.67 55.216 1816.17 55.056 1816.59 54.736L1817.6 57.376Z" fill="black"/>
<path d="M1917.13 54.4H1909.33L1907.84 58H1903.85L1911.34 41.2H1915.18L1922.69 58H1918.61L1917.13 54.4ZM1915.9 51.448L1913.24 45.016L1910.57 51.448H1915.9ZM1927.75 46.792C1928.2 46.168 1928.8 45.696 1929.55 45.376C1930.32 45.056 1931.2 44.896 1932.19 44.896V48.352C1931.77 48.32 1931.49 48.304 1931.35 48.304C1930.28 48.304 1929.44 48.608 1928.83 49.216C1928.22 49.808 1927.92 50.704 1927.92 51.904V58H1924.17V45.088H1927.75V46.792ZM1947.45 40.192V58H1943.87V56.512C1942.95 57.632 1941.6 58.192 1939.84 58.192C1938.63 58.192 1937.52 57.92 1936.53 57.376C1935.55 56.832 1934.79 56.056 1934.23 55.048C1933.67 54.04 1933.39 52.872 1933.39 51.544C1933.39 50.216 1933.67 49.048 1934.23 48.04C1934.79 47.032 1935.55 46.256 1936.53 45.712C1937.52 45.168 1938.63 44.896 1939.84 44.896C1941.49 44.896 1942.78 45.416 1943.71 46.456V40.192H1947.45ZM1940.49 55.12C1941.43 55.12 1942.22 54.8 1942.84 54.16C1943.47 53.504 1943.78 52.632 1943.78 51.544C1943.78 50.456 1943.47 49.592 1942.84 48.952C1942.22 48.296 1941.43 47.968 1940.49 47.968C1939.53 47.968 1938.74 48.296 1938.11 48.952C1937.49 49.592 1937.18 50.456 1937.18 51.544C1937.18 52.632 1937.49 53.504 1938.11 54.16C1938.74 54.8 1939.53 55.12 1940.49 55.12ZM1950.92 45.088H1954.66V58H1950.92V45.088ZM1964.37 58.192C1963 58.192 1961.76 57.912 1960.65 57.352C1959.57 56.776 1958.71 55.984 1958.09 54.976C1957.48 53.968 1957.17 52.824 1957.17 51.544C1957.17 50.264 1957.48 49.12 1958.09 48.112C1958.71 47.104 1959.57 46.32 1960.65 45.76C1961.76 45.184 1963 44.896 1964.37 44.896C1965.73 44.896 1966.92 45.184 1967.93 45.76C1968.95 46.32 1969.69 47.128 1970.16 48.184L1967.25 49.744C1966.58 48.56 1965.61 47.968 1964.35 47.968C1963.37 47.968 1962.57 48.288 1961.93 48.928C1961.29 49.568 1960.97 50.44 1960.97 51.544C1960.97 52.648 1961.29 53.52 1961.93 54.16C1962.57 54.8 1963.37 55.12 1964.35 55.12C1965.63 55.12 1966.6 54.528 1967.25 53.344L1970.16 54.928C1969.69 55.952 1968.95 56.752 1967.93 57.328C1966.92 57.904 1965.73 58.192 1964.37 58.192ZM1963.01 63.568C1962.59 63.568 1962.18 63.52 1961.78 63.424C1961.38 63.344 1961.05 63.224 1960.77 63.064L1961.35 61.456C1961.86 61.696 1962.38 61.816 1962.91 61.816C1963.74 61.816 1964.16 61.56 1964.16 61.048C1964.16 60.584 1963.77 60.352 1962.98 60.352H1962.17L1962.79 57.808H1964.78L1964.45 59.2C1965.15 59.28 1965.67 59.496 1966.01 59.848C1966.36 60.216 1966.53 60.664 1966.53 61.192C1966.53 61.928 1966.21 62.504 1965.57 62.92C1964.93 63.352 1964.08 63.568 1963.01 63.568ZM1972.22 40.192H1975.96V58H1972.22V40.192ZM1979.44 45.088H1983.18V58H1979.44V45.088Z" fill="black"/>
<path d="M2091.4 25.88V29H2078.39V12.2H2091.09V15.32H2082.26V18.968H2090.06V21.992H2082.26V25.88H2091.4ZM2098.48 29.192C2097.41 29.192 2096.36 29.064 2095.34 28.808C2094.31 28.536 2093.5 28.2 2092.89 27.8L2094.14 25.112C2094.71 25.48 2095.41 25.784 2096.23 26.024C2097.04 26.248 2097.84 26.36 2098.63 26.36C2100.21 26.36 2101 25.968 2101 25.184C2101 24.816 2100.79 24.552 2100.35 24.392C2099.92 24.232 2099.26 24.096 2098.36 23.984C2097.31 23.824 2096.43 23.64 2095.75 23.432C2095.06 23.224 2094.46 22.856 2093.95 22.328C2093.45 21.8 2093.2 21.048 2093.2 20.072C2093.2 19.256 2093.43 18.536 2093.9 17.912C2094.38 17.272 2095.07 16.776 2095.96 16.424C2096.87 16.072 2097.95 15.896 2099.18 15.896C2100.09 15.896 2100.99 16 2101.89 16.208C2102.8 16.4 2103.55 16.672 2104.15 17.024L2102.9 19.688C2101.76 19.048 2100.52 18.728 2099.18 18.728C2098.38 18.728 2097.78 18.84 2097.38 19.064C2096.98 19.288 2096.78 19.576 2096.78 19.928C2096.78 20.328 2096.99 20.608 2097.43 20.768C2097.86 20.928 2098.55 21.08 2099.49 21.224C2100.55 21.4 2101.41 21.592 2102.08 21.8C2102.75 21.992 2103.34 22.352 2103.83 22.88C2104.33 23.408 2104.58 24.144 2104.58 25.088C2104.58 25.888 2104.34 26.6 2103.86 27.224C2103.38 27.848 2102.67 28.336 2101.75 28.688C2100.83 29.024 2099.75 29.192 2098.48 29.192ZM2119.54 22.592C2119.54 22.64 2119.51 22.976 2119.46 23.6H2109.7C2109.87 24.4 2110.29 25.032 2110.94 25.496C2111.6 25.96 2112.42 26.192 2113.39 26.192C2114.06 26.192 2114.66 26.096 2115.17 25.904C2115.7 25.696 2116.18 25.376 2116.63 24.944L2118.62 27.104C2117.41 28.496 2115.63 29.192 2113.3 29.192C2111.84 29.192 2110.55 28.912 2109.43 28.352C2108.31 27.776 2107.45 26.984 2106.84 25.976C2106.23 24.968 2105.93 23.824 2105.93 22.544C2105.93 21.28 2106.22 20.144 2106.82 19.136C2107.42 18.112 2108.25 17.32 2109.29 16.76C2110.34 16.184 2111.52 15.896 2112.82 15.896C2114.08 15.896 2115.22 16.168 2116.25 16.712C2117.27 17.256 2118.07 18.04 2118.65 19.064C2119.24 20.072 2119.54 21.248 2119.54 22.592ZM2112.84 18.728C2111.99 18.728 2111.28 18.968 2110.7 19.448C2110.13 19.928 2109.78 20.584 2109.65 21.416H2116.01C2115.88 20.6 2115.53 19.952 2114.95 19.472C2114.38 18.976 2113.67 18.728 2112.84 18.728ZM2129.88 15.896C2131.48 15.896 2132.76 16.376 2133.74 17.336C2134.73 18.296 2135.23 19.72 2135.23 21.608V29H2131.48V22.184C2131.48 21.16 2131.26 20.4 2130.81 19.904C2130.36 19.392 2129.72 19.136 2128.87 19.136C2127.92 19.136 2127.17 19.432 2126.61 20.024C2126.05 20.6 2125.77 21.464 2125.77 22.616V29H2122.03V16.088H2125.6V17.6C2126.1 17.056 2126.72 16.64 2127.45 16.352C2128.19 16.048 2129 15.896 2129.88 15.896ZM2151.2 16.088L2145.37 29.792C2144.78 31.28 2144.04 32.328 2143.16 32.936C2142.3 33.544 2141.25 33.848 2140.02 33.848C2139.35 33.848 2138.68 33.744 2138.03 33.536C2137.37 33.328 2136.84 33.04 2136.42 32.672L2137.79 30.008C2138.08 30.264 2138.4 30.464 2138.77 30.608C2139.16 30.752 2139.53 30.824 2139.9 30.824C2140.41 30.824 2140.83 30.696 2141.15 30.44C2141.47 30.2 2141.76 29.792 2142.01 29.216L2142.06 29.096L2136.47 16.088H2140.33L2143.96 24.848L2147.6 16.088H2151.2ZM2165.74 16.088V29H2162.19V27.464C2161.69 28.024 2161.1 28.456 2160.41 28.76C2159.72 29.048 2158.98 29.192 2158.18 29.192C2156.48 29.192 2155.14 28.704 2154.15 27.728C2153.16 26.752 2152.66 25.304 2152.66 23.384V16.088H2156.4V22.832C2156.4 24.912 2157.28 25.952 2159.02 25.952C2159.92 25.952 2160.64 25.664 2161.18 25.088C2161.72 24.496 2162 23.624 2162 22.472V16.088H2165.74ZM2172.78 17.792C2173.23 17.168 2173.83 16.696 2174.58 16.376C2175.35 16.056 2176.23 15.896 2177.22 15.896V19.352C2176.81 19.32 2176.53 19.304 2176.38 19.304C2175.31 19.304 2174.47 19.608 2173.86 20.216C2173.26 20.808 2172.95 21.704 2172.95 22.904V29H2169.21V16.088H2172.78V17.792ZM2188.22 28.376C2187.86 28.648 2187.4 28.856 2186.86 29C2186.33 29.128 2185.77 29.192 2185.18 29.192C2183.64 29.192 2182.45 28.8 2181.6 28.016C2180.77 27.232 2180.35 26.08 2180.35 24.56V19.256H2178.36V16.376H2180.35V13.232H2184.1V16.376H2187.31V19.256H2184.1V24.512C2184.1 25.056 2184.23 25.48 2184.5 25.784C2184.79 26.072 2185.19 26.216 2185.7 26.216C2186.3 26.216 2186.8 26.056 2187.22 25.736L2188.22 28.376ZM2099.86 58L2099.83 47.92L2094.89 56.224H2093.14L2088.22 48.136V58H2084.57V41.2H2087.79L2094.07 51.64L2100.27 41.2H2103.46L2103.51 58H2099.86ZM2119.88 51.592C2119.88 51.64 2119.85 51.976 2119.8 52.6H2110.04C2110.21 53.4 2110.63 54.032 2111.28 54.496C2111.94 54.96 2112.76 55.192 2113.73 55.192C2114.4 55.192 2115 55.096 2115.51 54.904C2116.04 54.696 2116.52 54.376 2116.97 53.944L2118.96 56.104C2117.75 57.496 2115.97 58.192 2113.64 58.192C2112.18 58.192 2110.89 57.912 2109.77 57.352C2108.65 56.776 2107.79 55.984 2107.18 54.976C2106.57 53.968 2106.27 52.824 2106.27 51.544C2106.27 50.28 2106.56 49.144 2107.16 48.136C2107.76 47.112 2108.59 46.32 2109.63 45.76C2110.68 45.184 2111.86 44.896 2113.16 44.896C2114.42 44.896 2115.56 45.168 2116.59 45.712C2117.61 46.256 2118.41 47.04 2118.99 48.064C2119.58 49.072 2119.88 50.248 2119.88 51.592ZM2113.18 47.728C2112.33 47.728 2111.62 47.968 2111.04 48.448C2110.47 48.928 2110.12 49.584 2109.99 50.416H2116.35C2116.22 49.6 2115.87 48.952 2115.29 48.472C2114.72 47.976 2114.01 47.728 2113.18 47.728ZM2134.95 45.088L2129.12 58.792C2128.53 60.28 2127.79 61.328 2126.91 61.936C2126.05 62.544 2125 62.848 2123.77 62.848C2123.09 62.848 2122.43 62.744 2121.77 62.536C2121.12 62.328 2120.58 62.04 2120.17 61.672L2121.53 59.008C2121.82 59.264 2122.15 59.464 2122.52 59.608C2122.9 59.752 2123.28 59.824 2123.65 59.824C2124.16 59.824 2124.57 59.696 2124.89 59.44C2125.21 59.2 2125.5 58.792 2125.76 58.216L2125.81 58.096L2120.21 45.088H2124.08L2127.7 53.848L2131.35 45.088H2134.95ZM2149.28 40.192V58H2145.7V56.512C2144.77 57.632 2143.43 58.192 2141.67 58.192C2140.45 58.192 2139.35 57.92 2138.36 57.376C2137.38 56.832 2136.61 56.056 2136.05 55.048C2135.49 54.04 2135.21 52.872 2135.21 51.544C2135.21 50.216 2135.49 49.048 2136.05 48.04C2136.61 47.032 2137.38 46.256 2138.36 45.712C2139.35 45.168 2140.45 44.896 2141.67 44.896C2143.32 44.896 2144.61 45.416 2145.53 46.456V40.192H2149.28ZM2142.32 55.12C2143.26 55.12 2144.05 54.8 2144.67 54.16C2145.29 53.504 2145.61 52.632 2145.61 51.544C2145.61 50.456 2145.29 49.592 2144.67 48.952C2144.05 48.296 2143.26 47.968 2142.32 47.968C2141.36 47.968 2140.57 48.296 2139.94 48.952C2139.32 49.592 2139.01 50.456 2139.01 51.544C2139.01 52.632 2139.32 53.504 2139.94 54.16C2140.57 54.8 2141.36 55.12 2142.32 55.12ZM2157.95 44.896C2159.95 44.896 2161.49 45.376 2162.56 46.336C2163.63 47.28 2164.17 48.712 2164.17 50.632V58H2160.66V56.392C2159.96 57.592 2158.65 58.192 2156.73 58.192C2155.74 58.192 2154.87 58.024 2154.14 57.688C2153.42 57.352 2152.86 56.888 2152.48 56.296C2152.1 55.704 2151.9 55.032 2151.9 54.28C2151.9 53.08 2152.35 52.136 2153.25 51.448C2154.16 50.76 2155.56 50.416 2157.45 50.416H2160.42C2160.42 49.6 2160.18 48.976 2159.68 48.544C2159.18 48.096 2158.44 47.872 2157.45 47.872C2156.76 47.872 2156.08 47.984 2155.41 48.208C2154.75 48.416 2154.19 48.704 2153.73 49.072L2152.38 46.456C2153.09 45.96 2153.93 45.576 2154.9 45.304C2155.9 45.032 2156.91 44.896 2157.95 44.896ZM2157.66 55.672C2158.3 55.672 2158.87 55.528 2159.37 55.24C2159.86 54.936 2160.22 54.496 2160.42 53.92V52.6H2157.86C2156.32 52.6 2155.55 53.104 2155.55 54.112C2155.55 54.592 2155.74 54.976 2156.1 55.264C2156.49 55.536 2157.01 55.672 2157.66 55.672ZM2175.4 44.896C2177 44.896 2178.29 45.376 2179.27 46.336C2180.26 47.296 2180.76 48.72 2180.76 50.608V58H2177.01V51.184C2177.01 50.16 2176.79 49.4 2176.34 48.904C2175.89 48.392 2175.24 48.136 2174.4 48.136C2173.45 48.136 2172.7 48.432 2172.14 49.024C2171.58 49.6 2171.3 50.464 2171.3 51.616V58H2167.56V45.088H2171.13V46.6C2171.63 46.056 2172.24 45.64 2172.98 45.352C2173.72 45.048 2174.52 44.896 2175.4 44.896Z" fill="black"/>
<rect x="470" y="123" width="6" height="22" fill="black"/>
<rect x="840" y="123" width="6" height="22" fill="black"/>
<circle cx="2132" cy="100" r="24" fill="#F29EBF"/>
<circle cx="1762" cy="100" r="24" fill="black"/>
<ellipse cx="1762" cy="99.9939" rx="19.2" ry="19.2" fill="white"/>
<rect x="1759" y="123" width="6" height="22" fill="black"/>
<g clip-path="url(#clip0_495_5403)">
<path d="M1744 161C1744 151.09 1752.09 143 1762 143C1771.91 143 1780 151.09 1780 161C1780 170.91 1771.91 179 1762 179C1752.09 179.202 1744.2 171.315 1744 161.404C1744 161.202 1744 161.202 1744 161Z" fill="#9D9D9D"/>
<path d="M1755.32 154.933H1759.37L1762 164.034L1765.03 154.933H1768.87V167.067H1766.45V156.955L1763.41 167.067H1760.99L1757.75 156.955V157.157V167.067H1755.32V154.933Z" fill="white"/>
</g>
<g clip-path="url(#clip1_495_5403)">
<path d="M76 100C76 95.2533 77.4076 90.6131 80.0447 86.6663C82.6819 82.7195 86.4302 79.6434 90.8156 77.8269C95.201 76.0104 100.027 75.5351 104.682 76.4612C109.338 77.3872 113.614 79.673 116.971 83.0294C120.327 86.3859 122.613 90.6623 123.539 95.3178C124.465 99.9734 123.99 104.799 122.173 109.184C120.357 113.57 117.28 117.318 113.334 119.955C109.387 122.592 104.747 124 100 124C93.6392 123.986 87.543 121.453 83.0452 116.955C78.5474 112.457 76.0142 106.361 76 100Z" fill="#F29EBF"/>
<path d="M84.3594 92.4492H89.483L93.2583 104.584L97.0335 92.4492H102.427V108.629H99.1908V95.1458L94.8762 108.629H91.6403L87.3257 95.1458V108.629H84.3594V92.4492Z" fill="white"/>
<path d="M105.395 92.4492H115.642V95.1458L109.979 108.629H106.473L112.406 94.8762H105.395V92.4492Z" fill="white"/>
</g>
<g clip-path="url(#clip2_495_5403)">
<path d="M455 160.997C455 157.438 456.056 153.958 458.034 150.999C460.011 148.039 462.823 145.732 466.112 144.37C469.401 143.008 473.02 142.651 476.512 143.346C480.003 144.04 483.211 145.754 485.728 148.271C488.245 150.788 489.96 153.995 490.654 157.486C491.349 160.977 490.992 164.596 489.63 167.884C488.267 171.173 485.96 173.984 483 175.961C480.04 177.939 476.56 178.994 473 178.994C468.226 178.994 463.648 177.098 460.272 173.723C456.896 170.348 455 165.77 455 160.997Z" fill="#FFD300"/>
<path d="M461.484 155.465H465.234L468.014 164.32H468.047L470.828 155.465H474.577V167.15H472.331V157.509H472.301L469.15 167.15H466.909L463.763 157.509L463.727 157.542V167.15H461.484V155.465Z" fill="#1D1D1B"/>
<path d="M477.55 165.04C478.19 165.34 478.886 165.499 479.593 165.507C481.618 165.507 482.304 163.633 482.362 161.894L482.329 161.858C482.093 162.239 481.758 162.549 481.361 162.755C480.963 162.962 480.517 163.058 480.07 163.032C477.854 163.032 476.652 161.626 476.652 159.466C476.652 156.938 477.893 155.266 480.529 155.266C483.775 155.266 484.498 157.96 484.498 160.704C484.498 163.868 483.476 167.349 479.693 167.349C478.854 167.353 478.021 167.211 477.231 166.931L477.55 165.04ZM482.169 159.081C482.169 157.974 481.703 157.007 480.546 157.007C479.458 157.007 479.006 158.062 479.006 159.098C479.006 160.236 479.474 161.291 480.596 161.291C481.717 161.291 482.169 160.252 482.169 159.076" fill="#1D1D1B"/>
</g>
<g clip-path="url(#clip3_495_5403)">
<path d="M825 161C825 157.44 826.056 153.96 828.034 151C830.011 148.04 832.823 145.733 836.112 144.37C839.401 143.008 843.02 142.651 846.512 143.346C850.003 144.04 853.211 145.755 855.728 148.272C858.245 150.789 859.96 153.997 860.654 157.488C861.349 160.98 860.992 164.599 859.63 167.888C858.267 171.177 855.96 173.989 853 175.966C850.04 177.944 846.56 179 843 179C838.229 178.989 833.657 177.089 830.284 173.716C826.911 170.343 825.011 165.771 825 161Z" fill="#AB548F"/>
<path d="M827.426 154.933H831.471L834.302 164.034L837.134 154.933H840.976V167.067H838.752V157.157L835.516 167.067H833.089L829.853 157.157V167.067H827.426V154.933Z" fill="white"/>
<path d="M846.438 154.933H848.663V167.067H846.236V157.764L844.213 159.382L843 157.764L846.438 154.933Z" fill="white"/>
<path d="M855.134 154.933H857.358V167.067H854.931V157.764L852.909 159.382L851.695 157.764L855.134 154.933Z" fill="white"/>
</g>
<defs>
<clipPath id="clip0_495_5403">
<rect width="36" height="36" fill="white" transform="translate(1744 143)"/>
</clipPath>
<clipPath id="clip1_495_5403">
<rect width="48" height="48" fill="white" transform="translate(76 76)"/>
</clipPath>
<clipPath id="clip2_495_5403">
<rect width="36" height="36" fill="white" transform="translate(455 143)"/>
</clipPath>
<clipPath id="clip3_495_5403">
<rect width="36" height="36" fill="white" transform="translate(825 143)"/>
</clipPath>
</defs>
</svg>
