<svg width="943" height="200" viewBox="0 0 943 200" fill="none" xmlns="http://www.w3.org/2000/svg">
<path d="M100 100H837" stroke="#7C72B3" stroke-width="20"/>
<circle cx="473" cy="100" r="21" fill="#7C72B3"/>
<circle cx="473" cy="100" r="13" fill="white"/>
<circle cx="288" cy="100" r="21" fill="#7C72B3"/>
<circle cx="288" cy="100" r="13" fill="white"/>
<circle cx="843" cy="100" r="21" fill="#7C72B3"/>
<circle cx="843" cy="100" r="13" fill="white"/>
<circle cx="658" cy="100" r="21" fill="#7C72B3"/>
<circle cx="658" cy="100" r="13" fill="white"/>
<circle cx="288" cy="100" r="24" fill="black"/>
<ellipse cx="288.001" cy="99.9939" rx="19.2" ry="19.2" fill="white"/>
<circle cx="843" cy="100" r="24" fill="#7C72B3"/>
<path d="M53.2941 44.32V48.76H61.0701V51.88H53.2941V58H49.4061V41.2H62.1021V44.32H53.2941ZM76.7901 51.592C76.7901 51.64 76.7661 51.976 76.7181 52.6H66.9501C67.1261 53.4 67.5421 54.032 68.1981 54.496C68.8541 54.96 69.6701 55.192 70.6461 55.192C71.3181 55.192 71.9101 55.096 72.4221 54.904C72.9501 54.696 73.4381 54.376 73.8861 53.944L75.8781 56.104C74.6621 57.496 72.8861 58.192 70.5501 58.192C69.0941 58.192 67.8061 57.912 66.6861 57.352C65.5661 56.776 64.7021 55.984 64.0941 54.976C63.4861 53.968 63.1821 52.824 63.1821 51.544C63.1821 50.28 63.4781 49.144 64.0701 48.136C64.6781 47.112 65.5021 46.32 66.5421 45.76C67.5981 45.184 68.7741 44.896 70.0701 44.896C71.3341 44.896 72.4781 45.168 73.5021 45.712C74.5261 46.256 75.3261 47.04 75.9021 48.064C76.4941 49.072 76.7901 50.248 76.7901 51.592ZM70.0941 47.728C69.2461 47.728 68.5341 47.968 67.9581 48.448C67.3821 48.928 67.0301 49.584 66.9021 50.416H73.2621C73.1341 49.6 72.7821 48.952 72.2061 48.472C71.6301 47.976 70.9261 47.728 70.0941 47.728ZM83.6267 58.192C82.5547 58.192 81.5067 58.064 80.4827 57.808C79.4587 57.536 78.6427 57.2 78.0347 56.8L79.2827 54.112C79.8587 54.48 80.5547 54.784 81.3707 55.024C82.1867 55.248 82.9867 55.36 83.7707 55.36C85.3547 55.36 86.1467 54.968 86.1467 54.184C86.1467 53.816 85.9307 53.552 85.4987 53.392C85.0667 53.232 84.4027 53.096 83.5067 52.984C82.4507 52.824 81.5787 52.64 80.8907 52.432C80.2027 52.224 79.6027 51.856 79.0907 51.328C78.5947 50.8 78.3467 50.048 78.3467 49.072C78.3467 48.256 78.5787 47.536 79.0427 46.912C79.5227 46.272 80.2107 45.776 81.1067 45.424C82.0187 45.072 83.0907 44.896 84.3227 44.896C85.2347 44.896 86.1387 45 87.0347 45.208C87.9467 45.4 88.6987 45.672 89.2907 46.024L88.0427 48.688C86.9067 48.048 85.6667 47.728 84.3227 47.728C83.5227 47.728 82.9227 47.84 82.5227 48.064C82.1227 48.288 81.9227 48.576 81.9227 48.928C81.9227 49.328 82.1387 49.608 82.5707 49.768C83.0027 49.928 83.6907 50.08 84.6347 50.224C85.6907 50.4 86.5547 50.592 87.2267 50.8C87.8987 50.992 88.4827 51.352 88.9787 51.88C89.4747 52.408 89.7227 53.144 89.7227 54.088C89.7227 54.888 89.4827 55.6 89.0027 56.224C88.5227 56.848 87.8187 57.336 86.8907 57.688C85.9787 58.024 84.8907 58.192 83.6267 58.192ZM99.8807 44.896C101.481 44.896 102.769 45.376 103.745 46.336C104.737 47.296 105.233 48.72 105.233 50.608V58H101.489V51.184C101.489 50.16 101.265 49.4 100.817 48.904C100.369 48.392 99.7207 48.136 98.8727 48.136C97.9287 48.136 97.1767 48.432 96.6167 49.024C96.0567 49.6 95.7767 50.464 95.7767 51.616V58H92.0327V40.192H95.7767V46.432C96.2727 45.936 96.8727 45.56 97.5767 45.304C98.2807 45.032 99.0487 44.896 99.8807 44.896ZM113.834 44.896C115.834 44.896 117.37 45.376 118.442 46.336C119.514 47.28 120.05 48.712 120.05 50.632V58H116.546V56.392C115.842 57.592 114.53 58.192 112.61 58.192C111.618 58.192 110.754 58.024 110.018 57.688C109.298 57.352 108.746 56.888 108.362 56.296C107.978 55.704 107.786 55.032 107.786 54.28C107.786 53.08 108.234 52.136 109.13 51.448C110.042 50.76 111.442 50.416 113.33 50.416H116.306C116.306 49.6 116.058 48.976 115.562 48.544C115.066 48.096 114.322 47.872 113.33 47.872C112.642 47.872 111.962 47.984 111.29 48.208C110.634 48.416 110.074 48.704 109.61 49.072L108.266 46.456C108.97 45.96 109.81 45.576 110.786 45.304C111.778 45.032 112.794 44.896 113.834 44.896ZM113.546 55.672C114.186 55.672 114.754 55.528 115.25 55.24C115.746 54.936 116.098 54.496 116.306 53.92V52.6H113.738C112.202 52.6 111.434 53.104 111.434 54.112C111.434 54.592 111.618 54.976 111.986 55.264C112.37 55.536 112.89 55.672 113.546 55.672ZM131.287 44.896C132.887 44.896 134.175 45.376 135.151 46.336C136.143 47.296 136.639 48.72 136.639 50.608V58H132.895V51.184C132.895 50.16 132.671 49.4 132.223 48.904C131.775 48.392 131.127 48.136 130.279 48.136C129.335 48.136 128.583 48.432 128.023 49.024C127.463 49.6 127.183 50.464 127.183 51.616V58H123.439V45.088H127.015V46.6C127.511 46.056 128.127 45.64 128.863 45.352C129.599 45.048 130.407 44.896 131.287 44.896ZM152.821 51.592C152.821 51.64 152.797 51.976 152.749 52.6H142.981C143.157 53.4 143.573 54.032 144.229 54.496C144.885 54.96 145.701 55.192 146.677 55.192C147.349 55.192 147.941 55.096 148.453 54.904C148.981 54.696 149.469 54.376 149.917 53.944L151.909 56.104C150.693 57.496 148.917 58.192 146.581 58.192C145.125 58.192 143.837 57.912 142.717 57.352C141.597 56.776 140.733 55.984 140.125 54.976C139.517 53.968 139.213 52.824 139.213 51.544C139.213 50.28 139.509 49.144 140.101 48.136C140.709 47.112 141.533 46.32 142.573 45.76C143.629 45.184 144.805 44.896 146.101 44.896C147.365 44.896 148.509 45.168 149.533 45.712C150.557 46.256 151.357 47.04 151.933 48.064C152.525 49.072 152.821 50.248 152.821 51.592ZM146.125 47.728C145.277 47.728 144.565 47.968 143.989 48.448C143.413 48.928 143.061 49.584 142.933 50.416H149.293C149.165 49.6 148.813 48.952 148.237 48.472C147.661 47.976 146.957 47.728 146.125 47.728Z" fill="black"/>
<path d="M232.203 54.88V58H219.195V41.2H231.891V44.32H223.059V47.968H230.859V50.992H223.059V54.88H232.203ZM247.732 45.088L241.9 58.792C241.308 60.28 240.572 61.328 239.692 61.936C238.828 62.544 237.78 62.848 236.548 62.848C235.876 62.848 235.212 62.744 234.556 62.536C233.9 62.328 233.364 62.04 232.947 61.672L234.316 59.008C234.604 59.264 234.932 59.464 235.3 59.608C235.684 59.752 236.06 59.824 236.428 59.824C236.94 59.824 237.356 59.696 237.676 59.44C237.996 59.2 238.284 58.792 238.54 58.216L238.588 58.096L232.995 45.088H236.86L240.484 53.848L244.132 45.088H247.732ZM262.267 45.088V58H258.715V56.464C258.219 57.024 257.627 57.456 256.939 57.76C256.251 58.048 255.507 58.192 254.707 58.192C253.011 58.192 251.667 57.704 250.675 56.728C249.683 55.752 249.187 54.304 249.187 52.384V45.088H252.931V51.832C252.931 53.912 253.803 54.952 255.547 54.952C256.443 54.952 257.163 54.664 257.707 54.088C258.251 53.496 258.523 52.624 258.523 51.472V45.088H262.267ZM253.291 43.312C252.811 43.312 252.411 43.16 252.091 42.856C251.771 42.536 251.611 42.136 251.611 41.656C251.611 41.176 251.771 40.784 252.091 40.48C252.411 40.16 252.811 40 253.291 40C253.771 40 254.163 40.16 254.467 40.48C254.787 40.784 254.947 41.176 254.947 41.656C254.947 42.136 254.787 42.536 254.467 42.856C254.163 43.16 253.771 43.312 253.291 43.312ZM258.139 43.312C257.659 43.312 257.259 43.16 256.939 42.856C256.635 42.536 256.483 42.136 256.483 41.656C256.483 41.176 256.635 40.784 256.939 40.48C257.259 40.16 257.659 40 258.139 40C258.619 40 259.019 40.16 259.339 40.48C259.659 40.784 259.819 41.176 259.819 41.656C259.819 42.136 259.659 42.536 259.339 42.856C259.019 43.16 258.619 43.312 258.139 43.312ZM273.368 44.896C274.568 44.896 275.656 45.176 276.632 45.736C277.624 46.28 278.4 47.056 278.96 48.064C279.52 49.056 279.8 50.216 279.8 51.544C279.8 52.872 279.52 54.04 278.96 55.048C278.4 56.04 277.624 56.816 276.632 57.376C275.656 57.92 274.568 58.192 273.368 58.192C271.72 58.192 270.424 57.672 269.48 56.632V62.656H265.736V45.088H269.312V46.576C270.24 45.456 271.592 44.896 273.368 44.896ZM272.72 55.12C273.68 55.12 274.464 54.8 275.072 54.16C275.696 53.504 276.008 52.632 276.008 51.544C276.008 50.456 275.696 49.592 275.072 48.952C274.464 48.296 273.68 47.968 272.72 47.968C271.76 47.968 270.968 48.296 270.344 48.952C269.736 49.592 269.432 50.456 269.432 51.544C269.432 52.632 269.736 53.504 270.344 54.16C270.968 54.8 271.76 55.12 272.72 55.12ZM286.65 58.192C285.578 58.192 284.53 58.064 283.506 57.808C282.482 57.536 281.666 57.2 281.058 56.8L282.306 54.112C282.882 54.48 283.578 54.784 284.394 55.024C285.21 55.248 286.01 55.36 286.794 55.36C288.378 55.36 289.17 54.968 289.17 54.184C289.17 53.816 288.954 53.552 288.522 53.392C288.09 53.232 287.426 53.096 286.53 52.984C285.474 52.824 284.602 52.64 283.914 52.432C283.226 52.224 282.626 51.856 282.114 51.328C281.618 50.8 281.37 50.048 281.37 49.072C281.37 48.256 281.602 47.536 282.066 46.912C282.546 46.272 283.234 45.776 284.13 45.424C285.042 45.072 286.114 44.896 287.346 44.896C288.258 44.896 289.162 45 290.058 45.208C290.97 45.4 291.722 45.672 292.314 46.024L291.066 48.688C289.93 48.048 288.69 47.728 287.346 47.728C286.546 47.728 285.946 47.84 285.546 48.064C285.146 48.288 284.946 48.576 284.946 48.928C284.946 49.328 285.162 49.608 285.594 49.768C286.026 49.928 286.714 50.08 287.658 50.224C288.714 50.4 289.578 50.592 290.25 50.8C290.922 50.992 291.506 51.352 292.002 51.88C292.498 52.408 292.746 53.144 292.746 54.088C292.746 54.888 292.506 55.6 292.026 56.224C291.546 56.848 290.842 57.336 289.914 57.688C289.002 58.024 287.914 58.192 286.65 58.192ZM308.064 45.088V58H304.512V56.464C304.016 57.024 303.424 57.456 302.736 57.76C302.048 58.048 301.304 58.192 300.504 58.192C298.808 58.192 297.464 57.704 296.472 56.728C295.48 55.752 294.984 54.304 294.984 52.384V45.088H298.728V51.832C298.728 53.912 299.6 54.952 301.344 54.952C302.24 54.952 302.96 54.664 303.504 54.088C304.048 53.496 304.32 52.624 304.32 51.472V45.088H308.064ZM311.533 40.192H315.277V58H311.533V40.192ZM328.017 57.376C327.649 57.648 327.193 57.856 326.649 58C326.121 58.128 325.561 58.192 324.969 58.192C323.433 58.192 322.241 57.8 321.393 57.016C320.561 56.232 320.145 55.08 320.145 53.56V48.256H318.153V45.376H320.145V42.232H323.889V45.376H327.105V48.256H323.889V53.512C323.889 54.056 324.025 54.48 324.297 54.784C324.585 55.072 324.985 55.216 325.497 55.216C326.089 55.216 326.593 55.056 327.009 54.736L328.017 57.376ZM335.327 44.896C337.327 44.896 338.863 45.376 339.935 46.336C341.007 47.28 341.543 48.712 341.543 50.632V58H338.039V56.392C337.335 57.592 336.023 58.192 334.103 58.192C333.111 58.192 332.247 58.024 331.511 57.688C330.791 57.352 330.239 56.888 329.855 56.296C329.471 55.704 329.279 55.032 329.279 54.28C329.279 53.08 329.727 52.136 330.623 51.448C331.535 50.76 332.935 50.416 334.823 50.416H337.799C337.799 49.6 337.551 48.976 337.055 48.544C336.559 48.096 335.815 47.872 334.823 47.872C334.135 47.872 333.455 47.984 332.783 48.208C332.127 48.416 331.567 48.704 331.103 49.072L329.759 46.456C330.463 45.96 331.303 45.576 332.279 45.304C333.271 45.032 334.287 44.896 335.327 44.896ZM335.039 55.672C335.679 55.672 336.247 55.528 336.743 55.24C337.239 54.936 337.591 54.496 337.799 53.92V52.6H335.231C333.695 52.6 332.927 53.104 332.927 54.112C332.927 54.592 333.111 54.976 333.479 55.264C333.863 55.536 334.383 55.672 335.039 55.672ZM352.779 44.896C354.379 44.896 355.667 45.376 356.643 46.336C357.635 47.296 358.131 48.72 358.131 50.608V58H354.387V51.184C354.387 50.16 354.163 49.4 353.715 48.904C353.267 48.392 352.619 48.136 351.771 48.136C350.827 48.136 350.075 48.432 349.515 49.024C348.955 49.6 348.675 50.464 348.675 51.616V58H344.931V45.088H348.507V46.6C349.003 46.056 349.619 45.64 350.355 45.352C351.091 45.048 351.899 44.896 352.779 44.896Z" fill="black"/>
<path d="M409.086 41.2H416.718C418.542 41.2 420.15 41.552 421.542 42.256C422.95 42.944 424.038 43.92 424.806 45.184C425.59 46.448 425.982 47.92 425.982 49.6C425.982 51.28 425.59 52.752 424.806 54.016C424.038 55.28 422.95 56.264 421.542 56.968C420.15 57.656 418.542 58 416.718 58H409.086V41.2ZM416.526 54.808C418.206 54.808 419.542 54.344 420.534 53.416C421.542 52.472 422.046 51.2 422.046 49.6C422.046 48 421.542 46.736 420.534 45.808C419.542 44.864 418.206 44.392 416.526 44.392H412.974V54.808H416.526ZM441.298 51.592C441.298 51.64 441.274 51.976 441.226 52.6H431.458C431.634 53.4 432.05 54.032 432.706 54.496C433.362 54.96 434.178 55.192 435.154 55.192C435.826 55.192 436.418 55.096 436.93 54.904C437.458 54.696 437.946 54.376 438.394 53.944L440.386 56.104C439.17 57.496 437.394 58.192 435.058 58.192C433.602 58.192 432.314 57.912 431.194 57.352C430.074 56.776 429.21 55.984 428.602 54.976C427.994 53.968 427.69 52.824 427.69 51.544C427.69 50.28 427.986 49.144 428.578 48.136C429.186 47.112 430.01 46.32 431.05 45.76C432.106 45.184 433.282 44.896 434.578 44.896C435.842 44.896 436.986 45.168 438.01 45.712C439.034 46.256 439.834 47.04 440.41 48.064C441.002 49.072 441.298 50.248 441.298 51.592ZM434.602 47.728C433.754 47.728 433.042 47.968 432.466 48.448C431.89 48.928 431.538 49.584 431.41 50.416H437.77C437.642 49.6 437.29 48.952 436.714 48.472C436.138 47.976 435.434 47.728 434.602 47.728ZM460.327 44.896C461.943 44.896 463.223 45.376 464.167 46.336C465.127 47.28 465.607 48.704 465.607 50.608V58H461.863V51.184C461.863 50.16 461.647 49.4 461.215 48.904C460.799 48.392 460.199 48.136 459.415 48.136C458.535 48.136 457.839 48.424 457.327 49C456.815 49.56 456.559 50.4 456.559 51.52V58H452.815V51.184C452.815 49.152 451.999 48.136 450.367 48.136C449.503 48.136 448.815 48.424 448.303 49C447.791 49.56 447.535 50.4 447.535 51.52V58H443.791V45.088H447.367V46.576C447.847 46.032 448.431 45.616 449.118 45.328C449.823 45.04 450.591 44.896 451.423 44.896C452.335 44.896 453.159 45.08 453.895 45.448C454.631 45.8 455.223 46.32 455.671 47.008C456.199 46.336 456.863 45.816 457.663 45.448C458.479 45.08 459.367 44.896 460.327 44.896ZM468.962 45.088H472.706V58H468.962V45.088ZM470.834 43.288C470.146 43.288 469.586 43.088 469.154 42.688C468.722 42.288 468.506 41.792 468.506 41.2C468.506 40.608 468.722 40.112 469.154 39.712C469.586 39.312 470.146 39.112 470.834 39.112C471.522 39.112 472.082 39.304 472.514 39.688C472.946 40.072 473.162 40.552 473.162 41.128C473.162 41.752 472.946 42.272 472.514 42.688C472.082 43.088 471.522 43.288 470.834 43.288ZM479.757 46.792C480.205 46.168 480.805 45.696 481.557 45.376C482.325 45.056 483.205 44.896 484.197 44.896V48.352C483.781 48.32 483.501 48.304 483.357 48.304C482.285 48.304 481.445 48.608 480.837 49.216C480.229 49.808 479.925 50.704 479.925 51.904V58H476.181V45.088H479.757V46.792ZM491.967 52.936L490.167 54.712V58H486.423V40.192H490.167V50.272L495.639 45.088H500.103L494.727 50.56L500.583 58H496.047L491.967 52.936ZM507.241 44.896C509.241 44.896 510.777 45.376 511.849 46.336C512.921 47.28 513.457 48.712 513.457 50.632V58H509.953V56.392C509.249 57.592 507.937 58.192 506.017 58.192C505.025 58.192 504.161 58.024 503.425 57.688C502.705 57.352 502.153 56.888 501.769 56.296C501.385 55.704 501.193 55.032 501.193 54.28C501.193 53.08 501.641 52.136 502.537 51.448C503.449 50.76 504.849 50.416 506.737 50.416H509.713C509.713 49.6 509.465 48.976 508.969 48.544C508.473 48.096 507.729 47.872 506.737 47.872C506.049 47.872 505.369 47.984 504.697 48.208C504.041 48.416 503.481 48.704 503.017 49.072L501.673 46.456C502.377 45.96 503.217 45.576 504.193 45.304C505.185 45.032 506.201 44.896 507.241 44.896ZM506.953 55.672C507.593 55.672 508.161 55.528 508.657 55.24C509.153 54.936 509.505 54.496 509.713 53.92V52.6H507.145C505.609 52.6 504.841 53.104 504.841 54.112C504.841 54.592 505.025 54.976 505.393 55.264C505.777 55.536 506.297 55.672 506.953 55.672ZM524.477 44.896C525.677 44.896 526.765 45.176 527.741 45.736C528.733 46.28 529.509 47.056 530.069 48.064C530.629 49.056 530.909 50.216 530.909 51.544C530.909 52.872 530.629 54.04 530.069 55.048C529.509 56.04 528.733 56.816 527.741 57.376C526.765 57.92 525.677 58.192 524.477 58.192C522.829 58.192 521.533 57.672 520.589 56.632V62.656H516.845V45.088H520.421V46.576C521.349 45.456 522.701 44.896 524.477 44.896ZM523.829 55.12C524.789 55.12 525.573 54.8 526.181 54.16C526.805 53.504 527.117 52.632 527.117 51.544C527.117 50.456 526.805 49.592 526.181 48.952C525.573 48.296 524.789 47.968 523.829 47.968C522.869 47.968 522.077 48.296 521.453 48.952C520.845 49.592 520.541 50.456 520.541 51.544C520.541 52.632 520.845 53.504 521.453 54.16C522.077 54.8 522.869 55.12 523.829 55.12ZM533.416 45.088H537.16V58H533.416V45.088Z" fill="black"/>
<path d="M594.746 49.264C595.706 49.568 596.458 50.08 597.002 50.8C597.546 51.504 597.818 52.376 597.818 53.416C597.818 54.888 597.242 56.024 596.09 56.824C594.954 57.608 593.29 58 591.098 58H582.41V41.2H590.618C592.666 41.2 594.234 41.592 595.322 42.376C596.426 43.16 596.978 44.224 596.978 45.568C596.978 46.384 596.778 47.112 596.378 47.752C595.994 48.392 595.45 48.896 594.746 49.264ZM586.274 44.128V48.088H590.138C591.098 48.088 591.826 47.92 592.322 47.584C592.818 47.248 593.066 46.752 593.066 46.096C593.066 45.44 592.818 44.952 592.322 44.632C591.826 44.296 591.098 44.128 590.138 44.128H586.274ZM590.81 55.072C591.834 55.072 592.602 54.904 593.114 54.568C593.642 54.232 593.906 53.712 593.906 53.008C593.906 51.616 592.874 50.92 590.81 50.92H586.274V55.072H590.81ZM605.706 44.896C607.706 44.896 609.242 45.376 610.314 46.336C611.386 47.28 611.922 48.712 611.922 50.632V58H608.418V56.392C607.714 57.592 606.402 58.192 604.482 58.192C603.49 58.192 602.626 58.024 601.89 57.688C601.17 57.352 600.618 56.888 600.234 56.296C599.85 55.704 599.658 55.032 599.658 54.28C599.658 53.08 600.106 52.136 601.002 51.448C601.914 50.76 603.314 50.416 605.202 50.416H608.178C608.178 49.6 607.93 48.976 607.434 48.544C606.938 48.096 606.194 47.872 605.202 47.872C604.514 47.872 603.834 47.984 603.162 48.208C602.506 48.416 601.946 48.704 601.482 49.072L600.138 46.456C600.842 45.96 601.682 45.576 602.658 45.304C603.65 45.032 604.666 44.896 605.706 44.896ZM605.418 55.672C606.058 55.672 606.626 55.528 607.122 55.24C607.618 54.936 607.97 54.496 608.178 53.92V52.6H605.61C604.074 52.6 603.306 53.104 603.306 54.112C603.306 54.592 603.49 54.976 603.858 55.264C604.242 55.536 604.762 55.672 605.418 55.672ZM627.892 45.088L622.06 58.792C621.468 60.28 620.732 61.328 619.852 61.936C618.988 62.544 617.94 62.848 616.708 62.848C616.036 62.848 615.372 62.744 614.716 62.536C614.06 62.328 613.524 62.04 613.108 61.672L614.476 59.008C614.764 59.264 615.092 59.464 615.46 59.608C615.844 59.752 616.22 59.824 616.588 59.824C617.1 59.824 617.516 59.696 617.836 59.44C618.156 59.2 618.444 58.792 618.7 58.216L618.748 58.096L613.156 45.088H617.02L620.644 53.848L624.292 45.088H627.892ZM632.995 46.792C633.443 46.168 634.043 45.696 634.795 45.376C635.563 45.056 636.443 44.896 637.435 44.896V48.352C637.019 48.32 636.739 48.304 636.595 48.304C635.523 48.304 634.683 48.608 634.075 49.216C633.467 49.808 633.163 50.704 633.163 51.904V58H629.419V45.088H632.995V46.792ZM644.799 44.896C646.799 44.896 648.335 45.376 649.407 46.336C650.479 47.28 651.015 48.712 651.015 50.632V58H647.511V56.392C646.807 57.592 645.495 58.192 643.575 58.192C642.583 58.192 641.719 58.024 640.983 57.688C640.263 57.352 639.711 56.888 639.327 56.296C638.943 55.704 638.751 55.032 638.751 54.28C638.751 53.08 639.199 52.136 640.095 51.448C641.007 50.76 642.407 50.416 644.295 50.416H647.271C647.271 49.6 647.023 48.976 646.527 48.544C646.031 48.096 645.287 47.872 644.295 47.872C643.607 47.872 642.927 47.984 642.255 48.208C641.599 48.416 641.039 48.704 640.575 49.072L639.231 46.456C639.935 45.96 640.775 45.576 641.751 45.304C642.743 45.032 643.759 44.896 644.799 44.896ZM644.511 55.672C645.151 55.672 645.719 55.528 646.215 55.24C646.711 54.936 647.063 54.496 647.271 53.92V52.6H644.703C643.167 52.6 642.399 53.104 642.399 54.112C642.399 54.592 642.583 54.976 642.951 55.264C643.335 55.536 643.855 55.672 644.511 55.672ZM670.94 44.896C672.556 44.896 673.836 45.376 674.78 46.336C675.74 47.28 676.22 48.704 676.22 50.608V58H672.476V51.184C672.476 50.16 672.26 49.4 671.828 48.904C671.412 48.392 670.812 48.136 670.028 48.136C669.148 48.136 668.452 48.424 667.94 49C667.428 49.56 667.172 50.4 667.172 51.52V58H663.428V51.184C663.428 49.152 662.612 48.136 660.98 48.136C660.116 48.136 659.428 48.424 658.916 49C658.404 49.56 658.148 50.4 658.148 51.52V58H654.404V45.088H657.98V46.576C658.46 46.032 659.044 45.616 659.732 45.328C660.436 45.04 661.204 44.896 662.036 44.896C662.948 44.896 663.772 45.08 664.508 45.448C665.244 45.8 665.836 46.32 666.284 47.008C666.812 46.336 667.476 45.816 668.276 45.448C669.092 45.08 669.98 44.896 670.94 44.896ZM687.208 44.896C688.408 44.896 689.496 45.176 690.472 45.736C691.464 46.28 692.24 47.056 692.8 48.064C693.36 49.056 693.64 50.216 693.64 51.544C693.64 52.872 693.36 54.04 692.8 55.048C692.24 56.04 691.464 56.816 690.472 57.376C689.496 57.92 688.408 58.192 687.208 58.192C685.56 58.192 684.264 57.672 683.32 56.632V62.656H679.576V45.088H683.152V46.576C684.08 45.456 685.432 44.896 687.208 44.896ZM686.56 55.12C687.52 55.12 688.304 54.8 688.912 54.16C689.536 53.504 689.848 52.632 689.848 51.544C689.848 50.456 689.536 49.592 688.912 48.952C688.304 48.296 687.52 47.968 686.56 47.968C685.6 47.968 684.808 48.296 684.184 48.952C683.576 49.592 683.272 50.456 683.272 51.544C683.272 52.632 683.576 53.504 684.184 54.16C684.808 54.8 685.6 55.12 686.56 55.12ZM701.143 44.896C703.143 44.896 704.679 45.376 705.751 46.336C706.823 47.28 707.359 48.712 707.359 50.632V58H703.855V56.392C703.151 57.592 701.839 58.192 699.919 58.192C698.927 58.192 698.063 58.024 697.327 57.688C696.607 57.352 696.055 56.888 695.671 56.296C695.287 55.704 695.095 55.032 695.095 54.28C695.095 53.08 695.543 52.136 696.439 51.448C697.351 50.76 698.751 50.416 700.639 50.416H703.615C703.615 49.6 703.367 48.976 702.871 48.544C702.375 48.096 701.631 47.872 700.639 47.872C699.951 47.872 699.271 47.984 698.599 48.208C697.943 48.416 697.383 48.704 696.919 49.072L695.575 46.456C696.279 45.96 697.119 45.576 698.095 45.304C699.087 45.032 700.103 44.896 701.143 44.896ZM700.855 55.672C701.495 55.672 702.063 55.528 702.559 55.24C703.055 54.936 703.407 54.496 703.615 53.92V52.6H701.047C699.511 52.6 698.743 53.104 698.743 54.112C698.743 54.592 698.927 54.976 699.295 55.264C699.679 55.536 700.199 55.672 700.855 55.672ZM715.092 58.192C714.02 58.192 712.972 58.064 711.948 57.808C710.924 57.536 710.108 57.2 709.5 56.8L710.748 54.112C711.324 54.48 712.02 54.784 712.836 55.024C713.652 55.248 714.452 55.36 715.236 55.36C716.82 55.36 717.612 54.968 717.612 54.184C717.612 53.816 717.396 53.552 716.964 53.392C716.532 53.232 715.868 53.096 714.972 52.984C713.916 52.824 713.044 52.64 712.356 52.432C711.668 52.224 711.068 51.856 710.556 51.328C710.06 50.8 709.812 50.048 709.812 49.072C709.812 48.256 710.044 47.536 710.508 46.912C710.988 46.272 711.676 45.776 712.572 45.424C713.484 45.072 714.556 44.896 715.788 44.896C716.7 44.896 717.604 45 718.5 45.208C719.412 45.4 720.164 45.672 720.756 46.024L719.508 48.688C718.372 48.048 717.132 47.728 715.788 47.728C714.988 47.728 714.388 47.84 713.988 48.064C713.588 48.288 713.388 48.576 713.388 48.928C713.388 49.328 713.604 49.608 714.036 49.768C714.468 49.928 715.156 50.08 716.1 50.224C717.156 50.4 718.02 50.592 718.692 50.8C719.364 50.992 719.948 51.352 720.444 51.88C720.94 52.408 721.188 53.144 721.188 54.088C721.188 54.888 720.948 55.6 720.468 56.224C719.988 56.848 719.284 57.336 718.356 57.688C717.444 58.024 716.356 58.192 715.092 58.192ZM714.492 63.568C714.076 63.568 713.668 63.52 713.268 63.424C712.868 63.344 712.532 63.224 712.26 63.064L712.836 61.456C713.348 61.696 713.868 61.816 714.396 61.816C715.228 61.816 715.644 61.56 715.644 61.048C715.644 60.584 715.252 60.352 714.468 60.352H713.652L714.276 57.808H716.268L715.932 59.2C716.636 59.28 717.156 59.496 717.492 59.848C717.844 60.216 718.02 60.664 718.02 61.192C718.02 61.928 717.7 62.504 717.06 62.92C716.42 63.352 715.564 63.568 714.492 63.568ZM728.706 44.896C730.706 44.896 732.242 45.376 733.314 46.336C734.386 47.28 734.922 48.712 734.922 50.632V58H731.418V56.392C730.714 57.592 729.402 58.192 727.482 58.192C726.49 58.192 725.626 58.024 724.89 57.688C724.17 57.352 723.618 56.888 723.234 56.296C722.85 55.704 722.658 55.032 722.658 54.28C722.658 53.08 723.106 52.136 724.002 51.448C724.914 50.76 726.314 50.416 728.202 50.416H731.178C731.178 49.6 730.93 48.976 730.434 48.544C729.938 48.096 729.194 47.872 728.202 47.872C727.514 47.872 726.834 47.984 726.162 48.208C725.506 48.416 724.946 48.704 724.482 49.072L723.138 46.456C723.842 45.96 724.682 45.576 725.658 45.304C726.65 45.032 727.666 44.896 728.706 44.896ZM728.418 55.672C729.058 55.672 729.626 55.528 730.122 55.24C730.618 54.936 730.97 54.496 731.178 53.92V52.6H728.61C727.074 52.6 726.306 53.104 726.306 54.112C726.306 54.592 726.49 54.976 726.858 55.264C727.242 55.536 727.762 55.672 728.418 55.672Z" fill="black"/>
<path d="M810.358 58L810.334 47.92L805.39 56.224H803.638L798.718 48.136V58H795.07V41.2H798.286L804.574 51.64L810.766 41.2H813.958L814.006 58H810.358ZM830.376 51.592C830.376 51.64 830.352 51.976 830.304 52.6H820.536C820.712 53.4 821.128 54.032 821.784 54.496C822.44 54.96 823.256 55.192 824.232 55.192C824.904 55.192 825.496 55.096 826.008 54.904C826.536 54.696 827.024 54.376 827.472 53.944L829.464 56.104C828.248 57.496 826.472 58.192 824.136 58.192C822.68 58.192 821.392 57.912 820.272 57.352C819.152 56.776 818.288 55.984 817.68 54.976C817.072 53.968 816.768 52.824 816.768 51.544C816.768 50.28 817.064 49.144 817.656 48.136C818.264 47.112 819.088 46.32 820.128 45.76C821.184 45.184 822.36 44.896 823.656 44.896C824.92 44.896 826.064 45.168 827.088 45.712C828.112 46.256 828.912 47.04 829.488 48.064C830.08 49.072 830.376 50.248 830.376 51.592ZM823.68 47.728C822.832 47.728 822.12 47.968 821.544 48.448C820.968 48.928 820.616 49.584 820.488 50.416H826.848C826.72 49.6 826.368 48.952 825.792 48.472C825.216 47.976 824.512 47.728 823.68 47.728ZM845.45 45.088L839.618 58.792C839.026 60.28 838.29 61.328 837.41 61.936C836.546 62.544 835.498 62.848 834.266 62.848C833.594 62.848 832.93 62.744 832.274 62.536C831.618 62.328 831.082 62.04 830.666 61.672L832.034 59.008C832.322 59.264 832.65 59.464 833.018 59.608C833.402 59.752 833.778 59.824 834.146 59.824C834.658 59.824 835.074 59.696 835.394 59.44C835.714 59.2 836.002 58.792 836.258 58.216L836.306 58.096L830.714 45.088H834.578L838.202 53.848L841.85 45.088H845.45ZM859.778 40.192V58H856.202V56.512C855.274 57.632 853.93 58.192 852.17 58.192C850.954 58.192 849.85 57.92 848.858 57.376C847.882 56.832 847.114 56.056 846.554 55.048C845.994 54.04 845.714 52.872 845.714 51.544C845.714 50.216 845.994 49.048 846.554 48.04C847.114 47.032 847.882 46.256 848.858 45.712C849.85 45.168 850.954 44.896 852.17 44.896C853.818 44.896 855.106 45.416 856.034 46.456V40.192H859.778ZM852.818 55.12C853.762 55.12 854.546 54.8 855.17 54.16C855.794 53.504 856.106 52.632 856.106 51.544C856.106 50.456 855.794 49.592 855.17 48.952C854.546 48.296 853.762 47.968 852.818 47.968C851.858 47.968 851.066 48.296 850.442 48.952C849.818 49.592 849.506 50.456 849.506 51.544C849.506 52.632 849.818 53.504 850.442 54.16C851.066 54.8 851.858 55.12 852.818 55.12ZM868.452 44.896C870.452 44.896 871.988 45.376 873.06 46.336C874.132 47.28 874.668 48.712 874.668 50.632V58H871.164V56.392C870.46 57.592 869.148 58.192 867.228 58.192C866.236 58.192 865.372 58.024 864.636 57.688C863.916 57.352 863.364 56.888 862.98 56.296C862.596 55.704 862.404 55.032 862.404 54.28C862.404 53.08 862.852 52.136 863.748 51.448C864.66 50.76 866.06 50.416 867.948 50.416H870.924C870.924 49.6 870.676 48.976 870.18 48.544C869.684 48.096 868.94 47.872 867.948 47.872C867.26 47.872 866.58 47.984 865.908 48.208C865.252 48.416 864.692 48.704 864.228 49.072L862.884 46.456C863.588 45.96 864.428 45.576 865.404 45.304C866.396 45.032 867.412 44.896 868.452 44.896ZM868.164 55.672C868.804 55.672 869.372 55.528 869.868 55.24C870.364 54.936 870.716 54.496 870.924 53.92V52.6H868.356C866.82 52.6 866.052 53.104 866.052 54.112C866.052 54.592 866.236 54.976 866.604 55.264C866.988 55.536 867.508 55.672 868.164 55.672ZM885.904 44.896C887.504 44.896 888.792 45.376 889.768 46.336C890.76 47.296 891.256 48.72 891.256 50.608V58H887.512V51.184C887.512 50.16 887.288 49.4 886.84 48.904C886.392 48.392 885.744 48.136 884.896 48.136C883.952 48.136 883.2 48.432 882.64 49.024C882.08 49.6 881.8 50.464 881.8 51.616V58H878.056V45.088H881.632V46.6C882.128 46.056 882.744 45.64 883.48 45.352C884.216 45.048 885.024 44.896 885.904 44.896Z" fill="black"/>
<rect x="285" y="123" width="6" height="22" fill="black"/>
<circle cx="658" cy="100" r="24" fill="black"/>
<ellipse cx="658.001" cy="99.9939" rx="19.2" ry="19.2" fill="white"/>
<rect x="655" y="123" width="6" height="20" fill="black"/>
<g clip-path="url(#clip0_513_925)">
<path d="M679.001 179C675.435 179.005 671.948 177.954 668.981 175.979C666.014 174.004 663.7 171.194 662.332 167.906C660.964 164.617 660.604 160.997 661.296 157.504C661.989 154.01 663.703 150.801 666.223 148.281C668.742 145.761 671.954 144.044 675.45 143.348C678.947 142.651 682.572 143.006 685.867 144.368C689.162 145.729 691.978 148.036 693.959 150.997C695.941 153.958 696.998 157.439 696.998 161C696.996 165.769 695.1 170.342 691.726 173.716C688.352 177.09 683.776 178.991 679.001 179Z" fill="#FF7F40"/>
<path d="M672.157 156.783H668.625V154.846H678.153V156.783H674.626V167.154H672.157V156.783Z" fill="white"/>
<path d="M678.578 162.625L683.168 154.846H686.237V162.766H687.809V164.598H686.252V167.154H683.889V164.598H678.578V162.625ZM683.889 162.786V157.417H683.853L680.8 162.766L683.889 162.786Z" fill="white"/>
</g>
<g clip-path="url(#clip1_513_925)">
<path d="M76 100C76 95.2533 77.4076 90.6131 80.0447 86.6663C82.6819 82.7195 86.4302 79.6434 90.8156 77.8269C95.201 76.0104 100.027 75.5351 104.682 76.4612C109.338 77.3872 113.614 79.673 116.971 83.0294C120.327 86.3859 122.613 90.6623 123.539 95.3178C124.465 99.9734 123.99 104.799 122.173 109.184C120.357 113.57 117.28 117.318 113.334 119.955C109.387 122.592 104.747 124 100 124C96.8473 124.004 93.7248 123.385 90.8114 122.18C87.898 120.975 85.2509 119.208 83.0215 116.978C80.7922 114.749 79.0245 112.102 77.8197 109.189C76.6148 106.275 75.9965 103.153 76 100Z" fill="#7C72B3"/>
<path d="M91.5884 93.7167H86.4648V90.8853H100.326V93.7167H95.175V108.791H91.5884V93.7167Z" fill="white"/>
<path d="M113.104 93.5551H106.2V97.3844C106.74 97.264 107.292 97.2007 107.845 97.1956C108.611 97.1514 109.377 97.2711 110.093 97.5466C110.809 97.8221 111.458 98.2471 111.996 98.7933C112.535 99.3395 112.95 99.9942 113.216 100.714C113.481 101.433 113.59 102.201 113.535 102.966C113.536 103.845 113.348 104.713 112.985 105.513C112.621 106.312 112.091 107.025 111.429 107.602C110.767 108.18 109.99 108.609 109.148 108.86C108.307 109.112 107.421 109.18 106.551 109.061C105.144 109.035 103.743 108.863 102.371 108.548V105.339C103.52 105.882 104.768 106.185 106.039 106.229C107.899 106.229 109.868 105.366 109.868 103.074C109.868 100.782 107.791 99.9731 105.742 99.9731C104.654 99.9721 103.572 100.136 102.533 100.459L102.722 90.8315H113.023L113.104 93.5551Z" fill="white"/>
</g>
<g clip-path="url(#clip2_513_925)">
<path d="M637 179C627.09 179 619 170.91 619 161C619 151.09 627.09 143 637 143C646.91 143 655 151.09 655 161C655 170.91 646.91 179 637 179Z" fill="#EE2229"/>
<path d="M625.676 154.73H629.721L632.754 164.236L635.586 154.73H639.833V167.27H637.204V156.955L633.766 167.27H631.541L628.103 156.955V167.27H625.676V154.73Z" fill="white"/>
<path d="M646.101 154.73H648.326V167.27H645.899V157.764L643.877 159.382L642.461 157.764L646.101 154.73Z" fill="white"/>
</g>
<g clip-path="url(#clip3_513_925)">
<path d="M270 161C270 151.09 278.09 143 288 143C297.91 143 306 151.09 306 161C306 170.91 297.91 179 288 179C278.09 179.202 270.202 171.315 270 161.404C270 161.202 270 161.202 270 161Z" fill="#9D9D9D"/>
<path d="M281.324 154.933H285.369L287.998 164.034L291.032 154.933H294.875V167.067H292.448V156.955L289.414 167.067H286.987L283.751 156.955V157.157V167.067H281.324V154.933Z" fill="white"/>
</g>
<defs>
<clipPath id="clip0_513_925">
<rect width="36" height="36" fill="white" transform="translate(661 143)"/>
</clipPath>
<clipPath id="clip1_513_925">
<rect width="48" height="48" fill="white" transform="translate(76 76)"/>
</clipPath>
<clipPath id="clip2_513_925">
<rect width="36" height="36" fill="white" transform="translate(619 143)"/>
</clipPath>
<clipPath id="clip3_513_925">
<rect width="36" height="36" fill="white" transform="translate(270 143)"/>
</clipPath>
</defs>
</svg>
