<svg width="2044" height="200" viewBox="0 0 2044 200" fill="none" xmlns="http://www.w3.org/2000/svg">
<path d="M100 100H1947" stroke="#C9D200" stroke-width="20"/>
<circle cx="1025" cy="100" r="21" fill="#C9D200"/>
<circle cx="1025" cy="100" r="13" fill="white"/>
<circle cx="843" cy="100" r="21" fill="#C9D200"/>
<circle cx="843" cy="100" r="13" fill="white"/>
<circle cx="1207" cy="100" r="21" fill="#C9D200"/>
<circle cx="1207" cy="100" r="13" fill="white"/>
<circle cx="1392" cy="100" r="21" fill="#C9D200"/>
<circle cx="1392" cy="100" r="13" fill="white"/>
<circle cx="1577" cy="100" r="21" fill="#C9D200"/>
<circle cx="1577" cy="100" r="13" fill="white"/>
<circle cx="1762" cy="100" r="21" fill="#C9D200"/>
<circle cx="1762" cy="100" r="13" fill="white"/>
<circle cx="288" cy="100" r="21" fill="#C9D200"/>
<circle cx="288" cy="100" r="13" fill="white"/>
<circle cx="658" cy="100" r="21" fill="#C9D200"/>
<circle cx="658" cy="100" r="13" fill="white"/>
<circle cx="1944" cy="100" r="21" fill="#C9D200"/>
<circle cx="1944" cy="100" r="13" fill="white"/>
<circle cx="473" cy="100" r="24" fill="black"/>
<ellipse cx="473.001" cy="99.9939" rx="19.2" ry="19.2" fill="white"/>
<circle cx="288" cy="100" r="24" fill="black"/>
<ellipse cx="288.001" cy="99.9939" rx="19.2" ry="19.2" fill="white"/>
<circle cx="658" cy="100" r="24" fill="black"/>
<ellipse cx="658.001" cy="99.9939" rx="19.2" ry="19.2" fill="white"/>
<circle cx="1025" cy="100" r="24" fill="black"/>
<ellipse cx="1025" cy="99.9939" rx="19.2" ry="19.2" fill="white"/>
<circle cx="1577" cy="100" r="24" fill="black"/>
<ellipse cx="1577" cy="99.9939" rx="19.2" ry="19.2" fill="white"/>
<path d="M28.8752 47.464C30.0272 47.464 31.0592 47.688 31.9712 48.136C32.8832 48.568 33.6032 49.184 34.1312 49.984C34.6592 50.768 34.9232 51.672 34.9232 52.696C34.9232 53.8 34.6352 54.776 34.0592 55.624C33.4832 56.472 32.6832 57.128 31.6592 57.592C30.6512 58.056 29.4992 58.288 28.2032 58.288C25.7872 58.288 23.8912 57.568 22.5152 56.128C21.1552 54.672 20.4752 52.624 20.4752 49.984C20.4752 48.224 20.8432 46.664 21.5792 45.304C22.3152 43.928 23.3712 42.856 24.7472 42.088C26.1232 41.304 27.7392 40.912 29.5952 40.912C30.5072 40.912 31.3712 41.016 32.1872 41.224C33.0192 41.416 33.7232 41.696 34.2992 42.064L32.8592 44.992C32.4432 44.688 31.9472 44.464 31.3712 44.32C30.8112 44.16 30.2192 44.08 29.5952 44.08C28.0432 44.08 26.7872 44.528 25.8272 45.424C24.8832 46.304 24.3872 47.528 24.3392 49.096C24.8352 48.584 25.4752 48.184 26.2592 47.896C27.0432 47.608 27.9152 47.464 28.8752 47.464ZM28.0592 55.408C28.9232 55.408 29.6352 55.176 30.1952 54.712C30.7552 54.248 31.0352 53.64 31.0352 52.888C31.0352 52.12 30.7552 51.504 30.1952 51.04C29.6352 50.576 28.9072 50.344 28.0112 50.344C27.1312 50.344 26.3872 50.584 25.7792 51.064C25.1872 51.528 24.8912 52.136 24.8912 52.888C24.8912 53.592 25.1792 54.192 25.7552 54.688C26.3312 55.168 27.0992 55.408 28.0592 55.408ZM44.4079 58.288C42.9839 58.288 41.7199 57.944 40.6159 57.256C39.5119 56.552 38.6479 55.544 38.0239 54.232C37.4159 52.92 37.1119 51.376 37.1119 49.6C37.1119 47.824 37.4159 46.28 38.0239 44.968C38.6479 43.656 39.5119 42.656 40.6159 41.968C41.7199 41.264 42.9839 40.912 44.4079 40.912C45.8319 40.912 47.0959 41.264 48.1999 41.968C49.3039 42.656 50.1679 43.656 50.7919 44.968C51.4159 46.28 51.7279 47.824 51.7279 49.6C51.7279 51.376 51.4159 52.92 50.7919 54.232C50.1679 55.544 49.3039 56.552 48.1999 57.256C47.0959 57.944 45.8319 58.288 44.4079 58.288ZM44.4079 55C45.4479 55 46.2719 54.552 46.8799 53.656C47.4879 52.76 47.7919 51.408 47.7919 49.6C47.7919 47.792 47.4879 46.44 46.8799 45.544C46.2719 44.648 45.4479 44.2 44.4079 44.2C43.3679 44.2 42.5439 44.648 41.9359 45.544C41.3279 46.44 41.0239 47.792 41.0239 49.6C41.0239 51.408 41.3279 52.76 41.9359 53.656C42.5439 54.552 43.3679 55 44.4079 55ZM55.9566 58.192C55.3006 58.192 54.7486 57.968 54.3006 57.52C53.8526 57.072 53.6286 56.512 53.6286 55.84C53.6286 55.152 53.8526 54.6 54.3006 54.184C54.7486 53.752 55.3006 53.536 55.9566 53.536C56.6126 53.536 57.1646 53.752 57.6126 54.184C58.0606 54.6 58.2846 55.152 58.2846 55.84C58.2846 56.512 58.0606 57.072 57.6126 57.52C57.1646 57.968 56.6126 58.192 55.9566 58.192ZM77.1498 52.048V58H73.2617V52L66.7577 41.2H70.8858L75.3738 48.664L79.8618 41.2H83.6778L77.1498 52.048ZM84.1499 45.088H87.8939V58H84.1499V45.088ZM91.3686 40.192H95.1126V58H91.3686V40.192ZM112.92 41.2C114.408 41.2 115.696 41.448 116.784 41.944C117.888 42.44 118.736 43.144 119.328 44.056C119.92 44.968 120.216 46.048 120.216 47.296C120.216 48.528 119.92 49.608 119.328 50.536C118.736 51.448 117.888 52.152 116.784 52.648C115.696 53.128 114.408 53.368 112.92 53.368H109.536V58H105.648V41.2H112.92ZM112.704 50.2C113.872 50.2 114.76 49.952 115.368 49.456C115.976 48.944 116.28 48.224 116.28 47.296C116.28 46.352 115.976 45.632 115.368 45.136C114.76 44.624 113.872 44.368 112.704 44.368H109.536V50.2H112.704ZM127.819 44.896C129.819 44.896 131.355 45.376 132.427 46.336C133.499 47.28 134.035 48.712 134.035 50.632V58H130.531V56.392C129.827 57.592 128.515 58.192 126.595 58.192C125.603 58.192 124.739 58.024 124.003 57.688C123.283 57.352 122.731 56.888 122.347 56.296C121.963 55.704 121.771 55.032 121.771 54.28C121.771 53.08 122.219 52.136 123.115 51.448C124.027 50.76 125.427 50.416 127.315 50.416H130.291C130.291 49.6 130.043 48.976 129.547 48.544C129.051 48.096 128.307 47.872 127.315 47.872C126.627 47.872 125.947 47.984 125.275 48.208C124.619 48.416 124.059 48.704 123.595 49.072L122.251 46.456C122.955 45.96 123.795 45.576 124.771 45.304C125.763 45.032 126.779 44.896 127.819 44.896ZM127.531 55.672C128.171 55.672 128.739 55.528 129.235 55.24C129.731 54.936 130.083 54.496 130.291 53.92V52.6H127.723C126.187 52.6 125.419 53.104 125.419 54.112C125.419 54.592 125.603 54.976 125.971 55.264C126.355 55.536 126.875 55.672 127.531 55.672ZM140.999 46.792C141.447 46.168 142.047 45.696 142.799 45.376C143.567 45.056 144.447 44.896 145.439 44.896V48.352C145.023 48.32 144.743 48.304 144.599 48.304C143.527 48.304 142.687 48.608 142.079 49.216C141.471 49.808 141.167 50.704 141.167 51.904V58H137.423V45.088H140.999V46.792ZM153.21 52.936L151.41 54.712V58H147.666V40.192H151.41V50.272L156.882 45.088H161.346L155.97 50.56L161.826 58H157.29L153.21 52.936ZM163.416 45.088H167.16V58H163.416V45.088Z" fill="black"/>
<path d="M240.808 15.368H235.432V12.2H250.072V15.368H244.696V29H240.808V15.368ZM264.627 16.088V29H261.075V27.464C260.579 28.024 259.987 28.456 259.299 28.76C258.611 29.048 257.867 29.192 257.067 29.192C255.371 29.192 254.027 28.704 253.035 27.728C252.043 26.752 251.547 25.304 251.547 23.384V16.088H255.291V22.832C255.291 24.912 256.163 25.952 257.907 25.952C258.803 25.952 259.523 25.664 260.067 25.088C260.611 24.496 260.883 23.624 260.883 22.472V16.088H264.627ZM255.651 14.312C255.171 14.312 254.771 14.16 254.451 13.856C254.131 13.536 253.971 13.136 253.971 12.656C253.971 12.176 254.131 11.784 254.451 11.48C254.771 11.16 255.171 11 255.651 11C256.131 11 256.523 11.16 256.827 11.48C257.147 11.784 257.307 12.176 257.307 12.656C257.307 13.136 257.147 13.536 256.827 13.856C256.523 14.16 256.131 14.312 255.651 14.312ZM260.499 14.312C260.019 14.312 259.619 14.16 259.299 13.856C258.995 13.536 258.843 13.136 258.843 12.656C258.843 12.176 258.995 11.784 259.299 11.48C259.619 11.16 260.019 11 260.499 11C260.979 11 261.379 11.16 261.699 11.48C262.019 11.784 262.179 12.176 262.179 12.656C262.179 13.136 262.019 13.536 261.699 13.856C261.379 14.16 260.979 14.312 260.499 14.312ZM276.423 28.376C276.055 28.648 275.599 28.856 275.055 29C274.527 29.128 273.967 29.192 273.375 29.192C271.839 29.192 270.647 28.8 269.799 28.016C268.967 27.232 268.551 26.08 268.551 24.56V19.256H266.559V16.376H268.551V13.232H272.295V16.376H275.511V19.256H272.295V24.512C272.295 25.056 272.431 25.48 272.703 25.784C272.991 26.072 273.391 26.216 273.903 26.216C274.495 26.216 274.999 26.056 275.415 25.736L276.423 28.376ZM291.533 16.088V29H287.981V27.464C287.485 28.024 286.893 28.456 286.205 28.76C285.517 29.048 284.773 29.192 283.973 29.192C282.277 29.192 280.933 28.704 279.941 27.728C278.949 26.752 278.453 25.304 278.453 23.384V16.088H282.197V22.832C282.197 24.912 283.069 25.952 284.813 25.952C285.709 25.952 286.429 25.664 286.973 25.088C287.517 24.496 287.789 23.624 287.789 22.472V16.088H291.533ZM282.557 14.312C282.077 14.312 281.677 14.16 281.357 13.856C281.037 13.536 280.877 13.136 280.877 12.656C280.877 12.176 281.037 11.784 281.357 11.48C281.677 11.16 282.077 11 282.557 11C283.037 11 283.429 11.16 283.733 11.48C284.053 11.784 284.213 12.176 284.213 12.656C284.213 13.136 284.053 13.536 283.733 13.856C283.429 14.16 283.037 14.312 282.557 14.312ZM287.405 14.312C286.925 14.312 286.525 14.16 286.205 13.856C285.901 13.536 285.749 13.136 285.749 12.656C285.749 12.176 285.901 11.784 286.205 11.48C286.525 11.16 286.925 11 287.405 11C287.885 11 288.285 11.16 288.605 11.48C288.925 11.784 289.085 12.176 289.085 12.656C289.085 13.136 288.925 13.536 288.605 13.856C288.285 14.16 287.885 14.312 287.405 14.312ZM302.849 15.896C304.449 15.896 305.737 16.376 306.713 17.336C307.705 18.296 308.201 19.72 308.201 21.608V29H304.457V22.184C304.457 21.16 304.233 20.4 303.785 19.904C303.337 19.392 302.689 19.136 301.841 19.136C300.897 19.136 300.145 19.432 299.585 20.024C299.025 20.6 298.745 21.464 298.745 22.616V29H295.001V16.088H298.577V17.6C299.073 17.056 299.689 16.64 300.425 16.352C301.161 16.048 301.969 15.896 302.849 15.896ZM317.976 29.192C316.6 29.192 315.36 28.912 314.256 28.352C313.168 27.776 312.312 26.984 311.688 25.976C311.08 24.968 310.776 23.824 310.776 22.544C310.776 21.264 311.08 20.12 311.688 19.112C312.312 18.104 313.168 17.32 314.256 16.76C315.36 16.184 316.6 15.896 317.976 15.896C319.336 15.896 320.52 16.184 321.528 16.76C322.552 17.32 323.296 18.128 323.76 19.184L320.856 20.744C320.184 19.56 319.216 18.968 317.952 18.968C316.976 18.968 316.168 19.288 315.528 19.928C314.888 20.568 314.568 21.44 314.568 22.544C314.568 23.648 314.888 24.52 315.528 25.16C316.168 25.8 316.976 26.12 317.952 26.12C319.232 26.12 320.2 25.528 320.856 24.344L323.76 25.928C323.296 26.952 322.552 27.752 321.528 28.328C320.52 28.904 319.336 29.192 317.976 29.192ZM338.924 16.088V29H335.372V27.464C334.876 28.024 334.284 28.456 333.596 28.76C332.908 29.048 332.164 29.192 331.364 29.192C329.668 29.192 328.324 28.704 327.332 27.728C326.34 26.752 325.844 25.304 325.844 23.384V16.088H329.588V22.832C329.588 24.912 330.46 25.952 332.204 25.952C333.1 25.952 333.82 25.664 334.364 25.088C334.908 24.496 335.18 23.624 335.18 22.472V16.088H338.924ZM329.948 14.312C329.468 14.312 329.068 14.16 328.748 13.856C328.428 13.536 328.268 13.136 328.268 12.656C328.268 12.176 328.428 11.784 328.748 11.48C329.068 11.16 329.468 11 329.948 11C330.428 11 330.82 11.16 331.124 11.48C331.444 11.784 331.604 12.176 331.604 12.656C331.604 13.136 331.444 13.536 331.124 13.856C330.82 14.16 330.428 14.312 329.948 14.312ZM334.796 14.312C334.316 14.312 333.916 14.16 333.596 13.856C333.292 13.536 333.14 13.136 333.14 12.656C333.14 12.176 333.292 11.784 333.596 11.48C333.916 11.16 334.316 11 334.796 11C335.276 11 335.676 11.16 335.996 11.48C336.316 11.784 336.476 12.176 336.476 12.656C336.476 13.136 336.316 13.536 335.996 13.856C335.676 14.16 335.276 14.312 334.796 14.312ZM208.647 58L208.623 47.92L203.679 56.224H201.927L197.007 48.136V58H193.359V41.2H196.575L202.863 51.64L209.055 41.2H212.247L212.295 58H208.647ZM228.665 51.592C228.665 51.64 228.641 51.976 228.593 52.6H218.825C219.001 53.4 219.417 54.032 220.073 54.496C220.729 54.96 221.545 55.192 222.521 55.192C223.193 55.192 223.785 55.096 224.297 54.904C224.825 54.696 225.313 54.376 225.761 53.944L227.753 56.104C226.537 57.496 224.761 58.192 222.425 58.192C220.969 58.192 219.681 57.912 218.561 57.352C217.441 56.776 216.577 55.984 215.969 54.976C215.361 53.968 215.057 52.824 215.057 51.544C215.057 50.28 215.353 49.144 215.945 48.136C216.553 47.112 217.377 46.32 218.417 45.76C219.473 45.184 220.649 44.896 221.945 44.896C223.209 44.896 224.353 45.168 225.377 45.712C226.401 46.256 227.201 47.04 227.777 48.064C228.369 49.072 228.665 50.248 228.665 51.592ZM221.969 47.728C221.121 47.728 220.409 47.968 219.833 48.448C219.257 48.928 218.905 49.584 218.777 50.416H225.137C225.009 49.6 224.657 48.952 224.081 48.472C223.505 47.976 222.801 47.728 221.969 47.728ZM239.006 44.896C240.606 44.896 241.894 45.376 242.87 46.336C243.862 47.296 244.358 48.72 244.358 50.608V58H240.614V51.184C240.614 50.16 240.39 49.4 239.942 48.904C239.494 48.392 238.846 48.136 237.998 48.136C237.054 48.136 236.302 48.432 235.742 49.024C235.182 49.6 234.902 50.464 234.902 51.616V58H231.158V40.192H234.902V46.432C235.398 45.936 235.998 45.56 236.702 45.304C237.406 45.032 238.174 44.896 239.006 44.896ZM264.287 44.896C265.903 44.896 267.183 45.376 268.127 46.336C269.087 47.28 269.567 48.704 269.567 50.608V58H265.823V51.184C265.823 50.16 265.607 49.4 265.175 48.904C264.759 48.392 264.159 48.136 263.375 48.136C262.495 48.136 261.799 48.424 261.287 49C260.775 49.56 260.519 50.4 260.519 51.52V58H256.775V51.184C256.775 49.152 255.959 48.136 254.327 48.136C253.463 48.136 252.775 48.424 252.263 49C251.751 49.56 251.495 50.4 251.495 51.52V58H247.751V45.088H251.327V46.576C251.807 46.032 252.391 45.616 253.079 45.328C253.783 45.04 254.551 44.896 255.383 44.896C256.295 44.896 257.119 45.08 257.855 45.448C258.591 45.8 259.183 46.32 259.631 47.008C260.159 46.336 260.823 45.816 261.623 45.448C262.439 45.08 263.327 44.896 264.287 44.896ZM285.712 51.592C285.712 51.64 285.688 51.976 285.64 52.6H275.872C276.048 53.4 276.464 54.032 277.12 54.496C277.776 54.96 278.592 55.192 279.568 55.192C280.24 55.192 280.832 55.096 281.344 54.904C281.872 54.696 282.36 54.376 282.808 53.944L284.8 56.104C283.584 57.496 281.808 58.192 279.472 58.192C278.016 58.192 276.728 57.912 275.608 57.352C274.488 56.776 273.624 55.984 273.016 54.976C272.408 53.968 272.104 52.824 272.104 51.544C272.104 50.28 272.4 49.144 272.992 48.136C273.6 47.112 274.424 46.32 275.464 45.76C276.52 45.184 277.696 44.896 278.992 44.896C280.256 44.896 281.4 45.168 282.424 45.712C283.448 46.256 284.248 47.04 284.824 48.064C285.416 49.072 285.712 50.248 285.712 51.592ZM279.016 47.728C278.168 47.728 277.456 47.968 276.88 48.448C276.304 48.928 275.952 49.584 275.824 50.416H282.184C282.056 49.6 281.704 48.952 281.128 48.472C280.552 47.976 279.848 47.728 279.016 47.728ZM296.533 57.376C296.165 57.648 295.709 57.856 295.165 58C294.637 58.128 294.077 58.192 293.485 58.192C291.949 58.192 290.757 57.8 289.909 57.016C289.077 56.232 288.661 55.08 288.661 53.56V48.256H286.669V45.376H288.661V42.232H292.405V45.376H295.621V48.256H292.405V53.512C292.405 54.056 292.541 54.48 292.813 54.784C293.101 55.072 293.501 55.216 294.013 55.216C294.605 55.216 295.109 55.056 295.525 54.736L296.533 57.376ZM318.703 54.88V58H305.695V41.2H318.391V44.32H309.559V47.968H317.359V50.992H309.559V54.88H318.703ZM325.637 45.376H328.949V48.256H325.733V58H321.989V48.256H319.997V45.376H321.989V44.8C321.989 43.328 322.421 42.16 323.285 41.296C324.165 40.432 325.397 40 326.981 40C327.541 40 328.069 40.064 328.565 40.192C329.077 40.304 329.501 40.472 329.837 40.696L328.853 43.408C328.421 43.104 327.917 42.952 327.341 42.952C326.205 42.952 325.637 43.576 325.637 44.824V45.376ZM343.298 51.592C343.298 51.64 343.274 51.976 343.226 52.6H333.458C333.634 53.4 334.05 54.032 334.706 54.496C335.362 54.96 336.178 55.192 337.154 55.192C337.826 55.192 338.418 55.096 338.93 54.904C339.458 54.696 339.946 54.376 340.394 53.944L342.386 56.104C341.17 57.496 339.394 58.192 337.058 58.192C335.602 58.192 334.314 57.912 333.194 57.352C332.074 56.776 331.21 55.984 330.602 54.976C329.994 53.968 329.69 52.824 329.69 51.544C329.69 50.28 329.986 49.144 330.578 48.136C331.186 47.112 332.01 46.32 333.05 45.76C334.106 45.184 335.282 44.896 336.578 44.896C337.842 44.896 338.986 45.168 340.01 45.712C341.034 46.256 341.834 47.04 342.41 48.064C343.002 49.072 343.298 50.248 343.298 51.592ZM336.602 47.728C335.754 47.728 335.042 47.968 334.466 48.448C333.89 48.928 333.538 49.584 333.41 50.416H339.77C339.642 49.6 339.29 48.952 338.714 48.472C338.138 47.976 337.434 47.728 336.602 47.728ZM353.639 44.896C355.239 44.896 356.527 45.376 357.503 46.336C358.495 47.296 358.991 48.72 358.991 50.608V58H355.247V51.184C355.247 50.16 355.023 49.4 354.575 48.904C354.127 48.392 353.479 48.136 352.631 48.136C351.687 48.136 350.935 48.432 350.375 49.024C349.815 49.6 349.535 50.464 349.535 51.616V58H345.791V45.088H349.367V46.6C349.863 46.056 350.479 45.64 351.215 45.352C351.951 45.048 352.759 44.896 353.639 44.896ZM375.677 40.192V58H372.101V56.512C371.173 57.632 369.829 58.192 368.069 58.192C366.853 58.192 365.749 57.92 364.757 57.376C363.781 56.832 363.013 56.056 362.453 55.048C361.893 54.04 361.613 52.872 361.613 51.544C361.613 50.216 361.893 49.048 362.453 48.04C363.013 47.032 363.781 46.256 364.757 45.712C365.749 45.168 366.853 44.896 368.069 44.896C369.717 44.896 371.005 45.416 371.933 46.456V40.192H375.677ZM368.717 55.12C369.661 55.12 370.445 54.8 371.069 54.16C371.693 53.504 372.005 52.632 372.005 51.544C372.005 50.456 371.693 49.592 371.069 48.952C370.445 48.296 369.661 47.968 368.717 47.968C367.757 47.968 366.965 48.296 366.341 48.952C365.717 49.592 365.405 50.456 365.405 51.544C365.405 52.632 365.717 53.504 366.341 54.16C366.965 54.8 367.757 55.12 368.717 55.12ZM379.142 45.088H382.886V58H379.142V45.088ZM381.014 43.288C380.326 43.288 379.766 43.088 379.334 42.688C378.902 42.288 378.686 41.792 378.686 41.2C378.686 40.608 378.902 40.112 379.334 39.712C379.766 39.312 380.326 39.112 381.014 39.112C381.702 39.112 382.262 39.304 382.694 39.688C383.126 40.072 383.342 40.552 383.342 41.128C383.342 41.752 383.126 42.272 382.694 42.688C382.262 43.088 381.702 43.288 381.014 43.288Z" fill="black"/>
<path d="M402.789 58.288C401.461 58.288 400.173 58.112 398.925 57.76C397.693 57.392 396.701 56.92 395.949 56.344L397.269 53.416C397.989 53.944 398.845 54.368 399.837 54.688C400.829 55.008 401.821 55.168 402.813 55.168C403.917 55.168 404.733 55.008 405.261 54.688C405.789 54.352 406.053 53.912 406.053 53.368C406.053 52.968 405.893 52.64 405.573 52.384C405.269 52.112 404.869 51.896 404.373 51.736C403.893 51.576 403.237 51.4 402.405 51.208C401.125 50.904 400.077 50.6 399.261 50.296C398.445 49.992 397.741 49.504 397.149 48.832C396.573 48.16 396.285 47.264 396.285 46.144C396.285 45.168 396.549 44.288 397.077 43.504C397.605 42.704 398.397 42.072 399.453 41.608C400.525 41.144 401.829 40.912 403.365 40.912C404.437 40.912 405.485 41.04 406.509 41.296C407.533 41.552 408.429 41.92 409.197 42.4L407.997 45.352C406.445 44.472 404.893 44.032 403.341 44.032C402.253 44.032 401.445 44.208 400.917 44.56C400.405 44.912 400.149 45.376 400.149 45.952C400.149 46.528 400.445 46.96 401.037 47.248C401.645 47.52 402.565 47.792 403.797 48.064C405.077 48.368 406.125 48.672 406.941 48.976C407.757 49.28 408.453 49.76 409.029 50.416C409.621 51.072 409.917 51.96 409.917 53.08C409.917 54.04 409.645 54.92 409.101 55.72C408.573 56.504 407.773 57.128 406.701 57.592C405.629 58.056 404.325 58.288 402.789 58.288ZM417.518 44.896C419.518 44.896 421.054 45.376 422.126 46.336C423.198 47.28 423.734 48.712 423.734 50.632V58H420.23V56.392C419.526 57.592 418.214 58.192 416.294 58.192C415.302 58.192 414.438 58.024 413.702 57.688C412.982 57.352 412.43 56.888 412.046 56.296C411.662 55.704 411.47 55.032 411.47 54.28C411.47 53.08 411.918 52.136 412.814 51.448C413.726 50.76 415.126 50.416 417.014 50.416H419.99C419.99 49.6 419.742 48.976 419.246 48.544C418.75 48.096 418.006 47.872 417.014 47.872C416.326 47.872 415.646 47.984 414.974 48.208C414.318 48.416 413.758 48.704 413.294 49.072L411.95 46.456C412.654 45.96 413.494 45.576 414.47 45.304C415.462 45.032 416.478 44.896 417.518 44.896ZM417.23 55.672C417.87 55.672 418.438 55.528 418.934 55.24C419.43 54.936 419.782 54.496 419.99 53.92V52.6H417.422C415.886 52.6 415.118 53.104 415.118 54.112C415.118 54.592 415.302 54.976 415.67 55.264C416.054 55.536 416.574 55.672 417.23 55.672ZM434.971 44.896C436.571 44.896 437.859 45.376 438.835 46.336C439.827 47.296 440.323 48.72 440.323 50.608V58H436.579V51.184C436.579 50.16 436.355 49.4 435.907 48.904C435.459 48.392 434.811 48.136 433.963 48.136C433.019 48.136 432.267 48.432 431.707 49.024C431.147 49.6 430.867 50.464 430.867 51.616V58H427.123V40.192H430.867V46.432C431.363 45.936 431.963 45.56 432.667 45.304C433.371 45.032 434.139 44.896 434.971 44.896ZM447.292 46.792C447.74 46.168 448.34 45.696 449.092 45.376C449.86 45.056 450.74 44.896 451.732 44.896V48.352C451.316 48.32 451.036 48.304 450.892 48.304C449.82 48.304 448.98 48.608 448.372 49.216C447.764 49.808 447.46 50.704 447.46 51.904V58H443.716V45.088H447.292V46.792ZM459.096 44.896C461.096 44.896 462.632 45.376 463.704 46.336C464.776 47.28 465.312 48.712 465.312 50.632V58H461.808V56.392C461.104 57.592 459.792 58.192 457.872 58.192C456.88 58.192 456.016 58.024 455.28 57.688C454.56 57.352 454.008 56.888 453.624 56.296C453.24 55.704 453.048 55.032 453.048 54.28C453.048 53.08 453.496 52.136 454.392 51.448C455.304 50.76 456.704 50.416 458.592 50.416H461.568C461.568 49.6 461.32 48.976 460.824 48.544C460.328 48.096 459.584 47.872 458.592 47.872C457.904 47.872 457.224 47.984 456.552 48.208C455.896 48.416 455.336 48.704 454.872 49.072L453.528 46.456C454.232 45.96 455.072 45.576 456.048 45.304C457.04 45.032 458.056 44.896 459.096 44.896ZM458.808 55.672C459.448 55.672 460.016 55.528 460.512 55.24C461.008 54.936 461.36 54.496 461.568 53.92V52.6H459C457.464 52.6 456.696 53.104 456.696 54.112C456.696 54.592 456.88 54.976 457.248 55.264C457.632 55.536 458.152 55.672 458.808 55.672ZM481.282 45.088L475.45 58.792C474.858 60.28 474.122 61.328 473.242 61.936C472.378 62.544 471.33 62.848 470.098 62.848C469.426 62.848 468.762 62.744 468.106 62.536C467.45 62.328 466.914 62.04 466.498 61.672L467.866 59.008C468.154 59.264 468.482 59.464 468.85 59.608C469.234 59.752 469.61 59.824 469.978 59.824C470.49 59.824 470.906 59.696 471.226 59.44C471.546 59.2 471.834 58.792 472.09 58.216L472.138 58.096L466.546 45.088H470.41L474.034 53.848L477.682 45.088H481.282ZM482.81 45.088H486.554V58H482.81V45.088ZM496.269 58.192C494.893 58.192 493.653 57.912 492.549 57.352C491.461 56.776 490.605 55.984 489.981 54.976C489.373 53.968 489.069 52.824 489.069 51.544C489.069 50.264 489.373 49.12 489.981 48.112C490.605 47.104 491.461 46.32 492.549 45.76C493.653 45.184 494.893 44.896 496.269 44.896C497.629 44.896 498.813 45.184 499.821 45.76C500.845 46.32 501.589 47.128 502.053 48.184L499.149 49.744C498.477 48.56 497.509 47.968 496.245 47.968C495.269 47.968 494.461 48.288 493.821 48.928C493.181 49.568 492.861 50.44 492.861 51.544C492.861 52.648 493.181 53.52 493.821 54.16C494.461 54.8 495.269 55.12 496.245 55.12C497.525 55.12 498.493 54.528 499.149 53.344L502.053 54.928C501.589 55.952 500.845 56.752 499.821 57.328C498.813 57.904 497.629 58.192 496.269 58.192ZM516.692 51.592C516.692 51.64 516.668 51.976 516.62 52.6H506.852C507.028 53.4 507.444 54.032 508.1 54.496C508.756 54.96 509.572 55.192 510.548 55.192C511.22 55.192 511.812 55.096 512.324 54.904C512.852 54.696 513.34 54.376 513.788 53.944L515.78 56.104C514.564 57.496 512.788 58.192 510.452 58.192C508.996 58.192 507.708 57.912 506.588 57.352C505.468 56.776 504.604 55.984 503.996 54.976C503.388 53.968 503.084 52.824 503.084 51.544C503.084 50.28 503.38 49.144 503.972 48.136C504.58 47.112 505.404 46.32 506.444 45.76C507.5 45.184 508.676 44.896 509.972 44.896C511.236 44.896 512.38 45.168 513.404 45.712C514.428 46.256 515.228 47.04 515.804 48.064C516.396 49.072 516.692 50.248 516.692 51.592ZM509.996 47.728C509.148 47.728 508.436 47.968 507.86 48.448C507.284 48.928 506.932 49.584 506.804 50.416H513.164C513.036 49.6 512.684 48.952 512.108 48.472C511.532 47.976 510.828 47.728 509.996 47.728ZM532.337 40.192V58H528.761V56.512C527.833 57.632 526.489 58.192 524.729 58.192C523.513 58.192 522.409 57.92 521.417 57.376C520.441 56.832 519.673 56.056 519.113 55.048C518.553 54.04 518.273 52.872 518.273 51.544C518.273 50.216 518.553 49.048 519.113 48.04C519.673 47.032 520.441 46.256 521.417 45.712C522.409 45.168 523.513 44.896 524.729 44.896C526.377 44.896 527.665 45.416 528.593 46.456V40.192H532.337ZM525.377 55.12C526.321 55.12 527.105 54.8 527.729 54.16C528.353 53.504 528.665 52.632 528.665 51.544C528.665 50.456 528.353 49.592 527.729 48.952C527.105 48.296 526.321 47.968 525.377 47.968C524.417 47.968 523.625 48.296 523.001 48.952C522.377 49.592 522.065 50.456 522.065 51.544C522.065 52.632 522.377 53.504 523.001 54.16C523.625 54.8 524.417 55.12 525.377 55.12ZM535.802 45.088H539.546V58H535.802V45.088ZM537.674 43.288C536.986 43.288 536.426 43.088 535.994 42.688C535.562 42.288 535.346 41.792 535.346 41.2C535.346 40.608 535.562 40.112 535.994 39.712C536.426 39.312 536.986 39.112 537.674 39.112C538.362 39.112 538.922 39.304 539.354 39.688C539.786 40.072 540.002 40.552 540.002 41.128C540.002 41.752 539.786 42.272 539.354 42.688C538.922 43.088 538.362 43.288 537.674 43.288ZM551.349 57.376C550.981 57.648 550.525 57.856 549.981 58C549.453 58.128 548.893 58.192 548.301 58.192C546.765 58.192 545.573 57.8 544.725 57.016C543.893 56.232 543.477 55.08 543.477 53.56V48.256H541.485V45.376H543.477V42.232H547.221V45.376H550.437V48.256H547.221V53.512C547.221 54.056 547.357 54.48 547.629 54.784C547.917 55.072 548.317 55.216 548.829 55.216C549.421 55.216 549.925 55.056 550.341 54.736L551.349 57.376Z" fill="black"/>
<path d="M607.115 52.048V58H603.227V52L596.723 41.2H600.851L605.339 48.664L609.827 41.2H613.643L607.115 52.048ZM626.224 51.592C626.224 51.64 626.2 51.976 626.152 52.6H616.384C616.56 53.4 616.976 54.032 617.632 54.496C618.288 54.96 619.104 55.192 620.08 55.192C620.752 55.192 621.344 55.096 621.856 54.904C622.384 54.696 622.872 54.376 623.32 53.944L625.312 56.104C624.096 57.496 622.32 58.192 619.984 58.192C618.528 58.192 617.24 57.912 616.12 57.352C615 56.776 614.136 55.984 613.528 54.976C612.92 53.968 612.616 52.824 612.616 51.544C612.616 50.28 612.912 49.144 613.504 48.136C614.112 47.112 614.936 46.32 615.976 45.76C617.032 45.184 618.208 44.896 619.504 44.896C620.768 44.896 621.912 45.168 622.936 45.712C623.96 46.256 624.76 47.04 625.336 48.064C625.928 49.072 626.224 50.248 626.224 51.592ZM619.528 47.728C618.68 47.728 617.968 47.968 617.392 48.448C616.816 48.928 616.464 49.584 616.336 50.416H622.696C622.568 49.6 622.216 48.952 621.64 48.472C621.064 47.976 620.36 47.728 619.528 47.728ZM636.564 44.896C638.164 44.896 639.452 45.376 640.428 46.336C641.42 47.296 641.916 48.72 641.916 50.608V58H638.172V51.184C638.172 50.16 637.948 49.4 637.5 48.904C637.052 48.392 636.404 48.136 635.556 48.136C634.612 48.136 633.86 48.432 633.3 49.024C632.74 49.6 632.46 50.464 632.46 51.616V58H628.716V45.088H632.292V46.6C632.788 46.056 633.404 45.64 634.14 45.352C634.876 45.048 635.684 44.896 636.564 44.896ZM645.31 45.088H649.054V58H645.31V45.088ZM647.182 43.288C646.494 43.288 645.934 43.088 645.502 42.688C645.07 42.288 644.854 41.792 644.854 41.2C644.854 40.608 645.07 40.112 645.502 39.712C645.934 39.312 646.494 39.112 647.182 39.112C647.87 39.112 648.43 39.304 648.862 39.688C649.294 40.072 649.51 40.552 649.51 41.128C649.51 41.752 649.294 42.272 648.862 42.688C648.43 43.088 647.87 43.288 647.182 43.288ZM656.873 58.192C655.801 58.192 654.753 58.064 653.729 57.808C652.705 57.536 651.889 57.2 651.281 56.8L652.529 54.112C653.105 54.48 653.801 54.784 654.617 55.024C655.433 55.248 656.233 55.36 657.017 55.36C658.601 55.36 659.393 54.968 659.393 54.184C659.393 53.816 659.177 53.552 658.745 53.392C658.313 53.232 657.649 53.096 656.753 52.984C655.697 52.824 654.825 52.64 654.137 52.432C653.449 52.224 652.849 51.856 652.337 51.328C651.841 50.8 651.593 50.048 651.593 49.072C651.593 48.256 651.825 47.536 652.289 46.912C652.769 46.272 653.457 45.776 654.353 45.424C655.265 45.072 656.337 44.896 657.569 44.896C658.481 44.896 659.385 45 660.281 45.208C661.193 45.4 661.945 45.672 662.537 46.024L661.289 48.688C660.153 48.048 658.913 47.728 657.569 47.728C656.769 47.728 656.169 47.84 655.769 48.064C655.369 48.288 655.169 48.576 655.169 48.928C655.169 49.328 655.385 49.608 655.817 49.768C656.249 49.928 656.937 50.08 657.881 50.224C658.937 50.4 659.801 50.592 660.473 50.8C661.145 50.992 661.729 51.352 662.225 51.88C662.721 52.408 662.969 53.144 662.969 54.088C662.969 54.888 662.729 55.6 662.249 56.224C661.769 56.848 661.065 57.336 660.137 57.688C659.225 58.024 658.137 58.192 656.873 58.192ZM670.487 44.896C672.487 44.896 674.023 45.376 675.095 46.336C676.167 47.28 676.703 48.712 676.703 50.632V58H673.199V56.392C672.495 57.592 671.183 58.192 669.263 58.192C668.271 58.192 667.407 58.024 666.671 57.688C665.951 57.352 665.399 56.888 665.015 56.296C664.631 55.704 664.439 55.032 664.439 54.28C664.439 53.08 664.887 52.136 665.783 51.448C666.695 50.76 668.095 50.416 669.983 50.416H672.959C672.959 49.6 672.711 48.976 672.215 48.544C671.719 48.096 670.975 47.872 669.983 47.872C669.295 47.872 668.615 47.984 667.943 48.208C667.287 48.416 666.727 48.704 666.263 49.072L664.919 46.456C665.623 45.96 666.463 45.576 667.439 45.304C668.431 45.032 669.447 44.896 670.487 44.896ZM670.199 55.672C670.839 55.672 671.407 55.528 671.903 55.24C672.399 54.936 672.751 54.496 672.959 53.92V52.6H670.391C668.855 52.6 668.087 53.104 668.087 54.112C668.087 54.592 668.271 54.976 668.639 55.264C669.023 55.536 669.543 55.672 670.199 55.672ZM687.939 44.896C689.539 44.896 690.827 45.376 691.803 46.336C692.795 47.296 693.291 48.72 693.291 50.608V58H689.547V51.184C689.547 50.16 689.323 49.4 688.875 48.904C688.427 48.392 687.779 48.136 686.931 48.136C685.987 48.136 685.235 48.432 684.675 49.024C684.115 49.6 683.835 50.464 683.835 51.616V58H680.091V40.192H683.835V46.432C684.331 45.936 684.931 45.56 685.635 45.304C686.339 45.032 687.107 44.896 687.939 44.896ZM700.261 46.792C700.709 46.168 701.309 45.696 702.061 45.376C702.829 45.056 703.709 44.896 704.701 44.896V48.352C704.285 48.32 704.005 48.304 703.861 48.304C702.789 48.304 701.949 48.608 701.341 49.216C700.733 49.808 700.429 50.704 700.429 51.904V58H696.685V45.088H700.261V46.792ZM712.065 44.896C714.065 44.896 715.601 45.376 716.673 46.336C717.745 47.28 718.281 48.712 718.281 50.632V58H714.777V56.392C714.073 57.592 712.761 58.192 710.841 58.192C709.849 58.192 708.985 58.024 708.249 57.688C707.529 57.352 706.977 56.888 706.593 56.296C706.209 55.704 706.017 55.032 706.017 54.28C706.017 53.08 706.465 52.136 707.361 51.448C708.273 50.76 709.673 50.416 711.561 50.416H714.537C714.537 49.6 714.289 48.976 713.793 48.544C713.297 48.096 712.553 47.872 711.561 47.872C710.873 47.872 710.193 47.984 709.521 48.208C708.865 48.416 708.305 48.704 707.841 49.072L706.497 46.456C707.201 45.96 708.041 45.576 709.017 45.304C710.009 45.032 711.025 44.896 712.065 44.896ZM711.777 55.672C712.417 55.672 712.985 55.528 713.481 55.24C713.977 54.936 714.329 54.496 714.537 53.92V52.6H711.969C710.433 52.6 709.665 53.104 709.665 54.112C709.665 54.592 709.849 54.976 710.217 55.264C710.601 55.536 711.121 55.672 711.777 55.672Z" fill="black"/>
<path d="M803.286 54.4H795.486L793.998 58H790.014L797.502 41.2H801.342L808.854 58H804.774L803.286 54.4ZM802.062 51.448L799.398 45.016L796.734 51.448H802.062ZM818.544 57.376C818.176 57.648 817.72 57.856 817.176 58C816.648 58.128 816.088 58.192 815.496 58.192C813.96 58.192 812.768 57.8 811.92 57.016C811.088 56.232 810.672 55.08 810.672 53.56V48.256H808.68V45.376H810.672V42.232H814.416V45.376H817.632V48.256H814.416V53.512C814.416 54.056 814.552 54.48 814.824 54.784C815.112 55.072 815.512 55.216 816.024 55.216C816.616 55.216 817.12 55.056 817.536 54.736L818.544 57.376ZM825.854 44.896C827.854 44.896 829.39 45.376 830.462 46.336C831.534 47.28 832.07 48.712 832.07 50.632V58H828.566V56.392C827.862 57.592 826.55 58.192 824.63 58.192C823.638 58.192 822.774 58.024 822.038 57.688C821.318 57.352 820.766 56.888 820.382 56.296C819.998 55.704 819.806 55.032 819.806 54.28C819.806 53.08 820.254 52.136 821.15 51.448C822.062 50.76 823.462 50.416 825.35 50.416H828.326C828.326 49.6 828.078 48.976 827.582 48.544C827.086 48.096 826.342 47.872 825.35 47.872C824.662 47.872 823.982 47.984 823.31 48.208C822.654 48.416 822.094 48.704 821.63 49.072L820.286 46.456C820.99 45.96 821.83 45.576 822.806 45.304C823.798 45.032 824.814 44.896 825.854 44.896ZM825.566 55.672C826.206 55.672 826.774 55.528 827.27 55.24C827.766 54.936 828.118 54.496 828.326 53.92V52.6H825.758C824.222 52.6 823.454 53.104 823.454 54.112C823.454 54.592 823.638 54.976 824.006 55.264C824.39 55.536 824.91 55.672 825.566 55.672ZM839.802 58.192C838.73 58.192 837.682 58.064 836.658 57.808C835.634 57.536 834.818 57.2 834.21 56.8L835.458 54.112C836.034 54.48 836.73 54.784 837.546 55.024C838.362 55.248 839.162 55.36 839.946 55.36C841.53 55.36 842.322 54.968 842.322 54.184C842.322 53.816 842.106 53.552 841.674 53.392C841.242 53.232 840.578 53.096 839.682 52.984C838.626 52.824 837.754 52.64 837.066 52.432C836.378 52.224 835.778 51.856 835.266 51.328C834.77 50.8 834.522 50.048 834.522 49.072C834.522 48.256 834.754 47.536 835.218 46.912C835.698 46.272 836.386 45.776 837.282 45.424C838.194 45.072 839.266 44.896 840.498 44.896C841.41 44.896 842.314 45 843.21 45.208C844.122 45.4 844.874 45.672 845.466 46.024L844.218 48.688C843.082 48.048 841.842 47.728 840.498 47.728C839.698 47.728 839.098 47.84 838.698 48.064C838.298 48.288 838.098 48.576 838.098 48.928C838.098 49.328 838.314 49.608 838.746 49.768C839.178 49.928 839.866 50.08 840.81 50.224C841.866 50.4 842.73 50.592 843.402 50.8C844.074 50.992 844.658 51.352 845.154 51.88C845.65 52.408 845.898 53.144 845.898 54.088C845.898 54.888 845.658 55.6 845.178 56.224C844.698 56.848 843.994 57.336 843.066 57.688C842.154 58.024 841.066 58.192 839.802 58.192ZM839.202 63.568C838.786 63.568 838.378 63.52 837.978 63.424C837.578 63.344 837.242 63.224 836.97 63.064L837.546 61.456C838.058 61.696 838.578 61.816 839.106 61.816C839.938 61.816 840.354 61.56 840.354 61.048C840.354 60.584 839.962 60.352 839.178 60.352H838.362L838.986 57.808H840.978L840.642 59.2C841.346 59.28 841.866 59.496 842.202 59.848C842.554 60.216 842.73 60.664 842.73 61.192C842.73 61.928 842.41 62.504 841.77 62.92C841.13 63.352 840.274 63.568 839.202 63.568ZM860.856 51.592C860.856 51.64 860.832 51.976 860.784 52.6H851.016C851.192 53.4 851.608 54.032 852.264 54.496C852.92 54.96 853.736 55.192 854.712 55.192C855.384 55.192 855.976 55.096 856.488 54.904C857.016 54.696 857.504 54.376 857.952 53.944L859.944 56.104C858.728 57.496 856.952 58.192 854.616 58.192C853.16 58.192 851.872 57.912 850.752 57.352C849.632 56.776 848.768 55.984 848.16 54.976C847.552 53.968 847.248 52.824 847.248 51.544C847.248 50.28 847.544 49.144 848.136 48.136C848.744 47.112 849.568 46.32 850.608 45.76C851.664 45.184 852.84 44.896 854.136 44.896C855.4 44.896 856.544 45.168 857.568 45.712C858.592 46.256 859.392 47.04 859.968 48.064C860.56 49.072 860.856 50.248 860.856 51.592ZM854.16 47.728C853.312 47.728 852.6 47.968 852.024 48.448C851.448 48.928 851.096 49.584 850.968 50.416H857.328C857.2 49.6 856.848 48.952 856.272 48.472C855.696 47.976 854.992 47.728 854.16 47.728ZM871.197 44.896C872.797 44.896 874.085 45.376 875.061 46.336C876.053 47.296 876.549 48.72 876.549 50.608V58H872.805V51.184C872.805 50.16 872.581 49.4 872.133 48.904C871.685 48.392 871.037 48.136 870.189 48.136C869.245 48.136 868.493 48.432 867.933 49.024C867.373 49.6 867.093 50.464 867.093 51.616V58H863.349V40.192H867.093V46.432C867.589 45.936 868.189 45.56 868.893 45.304C869.597 45.032 870.365 44.896 871.197 44.896ZM879.943 45.088H883.687V58H879.943V45.088ZM881.815 43.288C881.127 43.288 880.567 43.088 880.135 42.688C879.703 42.288 879.487 41.792 879.487 41.2C879.487 40.608 879.703 40.112 880.135 39.712C880.567 39.312 881.127 39.112 881.815 39.112C882.503 39.112 883.063 39.304 883.495 39.688C883.927 40.072 884.143 40.552 884.143 41.128C884.143 41.752 883.927 42.272 883.495 42.688C883.063 43.088 882.503 43.288 881.815 43.288ZM890.738 46.792C891.186 46.168 891.786 45.696 892.538 45.376C893.306 45.056 894.186 44.896 895.178 44.896V48.352C894.762 48.32 894.482 48.304 894.338 48.304C893.266 48.304 892.426 48.608 891.818 49.216C891.21 49.808 890.906 50.704 890.906 51.904V58H887.162V45.088H890.738V46.792Z" fill="black"/>
<path d="M937.021 44.32V48.76H944.797V51.88H937.021V58H933.133V41.2H945.829V44.32H937.021ZM947.962 45.088H951.706V58H947.962V45.088ZM949.834 43.288C949.146 43.288 948.586 43.088 948.154 42.688C947.722 42.288 947.506 41.792 947.506 41.2C947.506 40.608 947.722 40.112 948.154 39.712C948.586 39.312 949.146 39.112 949.834 39.112C950.522 39.112 951.082 39.304 951.514 39.688C951.946 40.072 952.162 40.552 952.162 41.128C952.162 41.752 951.946 42.272 951.514 42.688C951.082 43.088 950.522 43.288 949.834 43.288ZM963.029 44.896C964.629 44.896 965.917 45.376 966.893 46.336C967.885 47.296 968.381 48.72 968.381 50.608V58H964.637V51.184C964.637 50.16 964.413 49.4 963.965 48.904C963.517 48.392 962.869 48.136 962.021 48.136C961.077 48.136 960.325 48.432 959.765 49.024C959.205 49.6 958.925 50.464 958.925 51.616V58H955.181V45.088H958.757V46.6C959.253 46.056 959.869 45.64 960.605 45.352C961.341 45.048 962.149 44.896 963.029 44.896ZM976.983 44.896C978.983 44.896 980.519 45.376 981.591 46.336C982.663 47.28 983.199 48.712 983.199 50.632V58H979.695V56.392C978.991 57.592 977.679 58.192 975.759 58.192C974.767 58.192 973.903 58.024 973.167 57.688C972.447 57.352 971.895 56.888 971.511 56.296C971.127 55.704 970.935 55.032 970.935 54.28C970.935 53.08 971.383 52.136 972.279 51.448C973.191 50.76 974.591 50.416 976.479 50.416H979.455C979.455 49.6 979.207 48.976 978.711 48.544C978.215 48.096 977.471 47.872 976.479 47.872C975.791 47.872 975.111 47.984 974.439 48.208C973.783 48.416 973.223 48.704 972.759 49.072L971.415 46.456C972.119 45.96 972.959 45.576 973.935 45.304C974.927 45.032 975.943 44.896 976.983 44.896ZM976.695 55.672C977.335 55.672 977.903 55.528 978.399 55.24C978.895 54.936 979.247 54.496 979.455 53.92V52.6H976.887C975.351 52.6 974.583 53.104 974.583 54.112C974.583 54.592 974.767 54.976 975.135 55.264C975.519 55.536 976.039 55.672 976.695 55.672ZM994.435 44.896C996.035 44.896 997.323 45.376 998.299 46.336C999.291 47.296 999.787 48.72 999.787 50.608V58H996.043V51.184C996.043 50.16 995.819 49.4 995.371 48.904C994.923 48.392 994.275 48.136 993.427 48.136C992.483 48.136 991.731 48.432 991.171 49.024C990.611 49.6 990.331 50.464 990.331 51.616V58H986.587V45.088H990.163V46.6C990.659 46.056 991.275 45.64 992.011 45.352C992.747 45.048 993.555 44.896 994.435 44.896ZM1007.53 58.192C1006.45 58.192 1005.41 58.064 1004.38 57.808C1003.36 57.536 1002.54 57.2 1001.93 56.8L1003.18 54.112C1003.76 54.48 1004.45 54.784 1005.27 55.024C1006.09 55.248 1006.89 55.36 1007.67 55.36C1009.25 55.36 1010.05 54.968 1010.05 54.184C1010.05 53.816 1009.83 53.552 1009.4 53.392C1008.97 53.232 1008.3 53.096 1007.41 52.984C1006.35 52.824 1005.48 52.64 1004.79 52.432C1004.1 52.224 1003.5 51.856 1002.99 51.328C1002.49 50.8 1002.25 50.048 1002.25 49.072C1002.25 48.256 1002.48 47.536 1002.94 46.912C1003.42 46.272 1004.11 45.776 1005.01 45.424C1005.92 45.072 1006.99 44.896 1008.22 44.896C1009.13 44.896 1010.04 45 1010.93 45.208C1011.85 45.4 1012.6 45.672 1013.19 46.024L1011.94 48.688C1010.81 48.048 1009.57 47.728 1008.22 47.728C1007.42 47.728 1006.82 47.84 1006.42 48.064C1006.02 48.288 1005.82 48.576 1005.82 48.928C1005.82 49.328 1006.04 49.608 1006.47 49.768C1006.9 49.928 1007.59 50.08 1008.53 50.224C1009.59 50.4 1010.45 50.592 1011.13 50.8C1011.8 50.992 1012.38 51.352 1012.88 51.88C1013.37 52.408 1013.62 53.144 1013.62 54.088C1013.62 54.888 1013.38 55.6 1012.9 56.224C1012.42 56.848 1011.72 57.336 1010.79 57.688C1009.88 58.024 1008.79 58.192 1007.53 58.192ZM1038.28 58L1038.26 47.92L1033.31 56.224H1031.56L1026.64 48.136V58H1022.99V41.2H1026.21L1032.5 51.64L1038.69 41.2H1041.88L1041.93 58H1038.28ZM1058.3 51.592C1058.3 51.64 1058.27 51.976 1058.23 52.6H1048.46C1048.63 53.4 1049.05 54.032 1049.71 54.496C1050.36 54.96 1051.18 55.192 1052.15 55.192C1052.83 55.192 1053.42 55.096 1053.93 54.904C1054.46 54.696 1054.95 54.376 1055.39 53.944L1057.39 56.104C1056.17 57.496 1054.39 58.192 1052.06 58.192C1050.6 58.192 1049.31 57.912 1048.19 57.352C1047.07 56.776 1046.21 55.984 1045.6 54.976C1044.99 53.968 1044.69 52.824 1044.69 51.544C1044.69 50.28 1044.99 49.144 1045.58 48.136C1046.19 47.112 1047.01 46.32 1048.05 45.76C1049.11 45.184 1050.28 44.896 1051.58 44.896C1052.84 44.896 1053.99 45.168 1055.01 45.712C1056.03 46.256 1056.83 47.04 1057.41 48.064C1058 49.072 1058.3 50.248 1058.3 51.592ZM1051.6 47.728C1050.75 47.728 1050.04 47.968 1049.47 48.448C1048.89 48.928 1048.54 49.584 1048.41 50.416H1054.77C1054.64 49.6 1054.29 48.952 1053.71 48.472C1053.14 47.976 1052.43 47.728 1051.6 47.728ZM1064.37 46.792C1064.81 46.168 1065.41 45.696 1066.17 45.376C1066.93 45.056 1067.81 44.896 1068.81 44.896V48.352C1068.39 48.32 1068.11 48.304 1067.97 48.304C1066.89 48.304 1066.05 48.608 1065.45 49.216C1064.84 49.808 1064.53 50.704 1064.53 51.904V58H1060.79V45.088H1064.37V46.792ZM1076.58 52.936L1074.78 54.712V58H1071.03V40.192H1074.78V50.272L1080.25 45.088H1084.71L1079.34 50.56L1085.19 58H1080.66L1076.58 52.936ZM1098.96 51.592C1098.96 51.64 1098.94 51.976 1098.89 52.6H1089.12C1089.3 53.4 1089.71 54.032 1090.37 54.496C1091.03 54.96 1091.84 55.192 1092.82 55.192C1093.49 55.192 1094.08 55.096 1094.59 54.904C1095.12 54.696 1095.61 54.376 1096.06 53.944L1098.05 56.104C1096.83 57.496 1095.06 58.192 1092.72 58.192C1091.27 58.192 1089.98 57.912 1088.86 57.352C1087.74 56.776 1086.87 55.984 1086.27 54.976C1085.66 53.968 1085.35 52.824 1085.35 51.544C1085.35 50.28 1085.65 49.144 1086.24 48.136C1086.85 47.112 1087.67 46.32 1088.71 45.76C1089.77 45.184 1090.95 44.896 1092.24 44.896C1093.51 44.896 1094.65 45.168 1095.67 45.712C1096.7 46.256 1097.5 47.04 1098.07 48.064C1098.67 49.072 1098.96 50.248 1098.96 51.592ZM1092.27 47.728C1091.42 47.728 1090.71 47.968 1090.13 48.448C1089.55 48.928 1089.2 49.584 1089.07 50.416H1095.43C1095.31 49.6 1094.95 48.952 1094.38 48.472C1093.8 47.976 1093.1 47.728 1092.27 47.728ZM1111.97 55.12V58H1100.45V55.744L1107.03 47.968H1100.62V45.088H1111.75V47.344L1105.18 55.12H1111.97ZM1114.37 45.088H1118.11V58H1114.37V45.088ZM1116.24 43.288C1115.55 43.288 1114.99 43.088 1114.56 42.688C1114.13 42.288 1113.91 41.792 1113.91 41.2C1113.91 40.608 1114.13 40.112 1114.56 39.712C1114.99 39.312 1115.55 39.112 1116.24 39.112C1116.93 39.112 1117.49 39.304 1117.92 39.688C1118.35 40.072 1118.57 40.552 1118.57 41.128C1118.57 41.752 1118.35 42.272 1117.92 42.688C1117.49 43.088 1116.93 43.288 1116.24 43.288Z" fill="black"/>
<path d="M1190.66 58.288C1189.34 58.288 1188.05 58.112 1186.8 57.76C1185.57 57.392 1184.58 56.92 1183.82 56.344L1185.14 53.416C1185.86 53.944 1186.72 54.368 1187.71 54.688C1188.7 55.008 1189.7 55.168 1190.69 55.168C1191.79 55.168 1192.61 55.008 1193.14 54.688C1193.66 54.352 1193.93 53.912 1193.93 53.368C1193.93 52.968 1193.77 52.64 1193.45 52.384C1193.14 52.112 1192.74 51.896 1192.25 51.736C1191.77 51.576 1191.11 51.4 1190.28 51.208C1189 50.904 1187.95 50.6 1187.14 50.296C1186.32 49.992 1185.62 49.504 1185.02 48.832C1184.45 48.16 1184.16 47.264 1184.16 46.144C1184.16 45.168 1184.42 44.288 1184.95 43.504C1185.48 42.704 1186.27 42.072 1187.33 41.608C1188.4 41.144 1189.7 40.912 1191.24 40.912C1192.31 40.912 1193.36 41.04 1194.38 41.296C1195.41 41.552 1196.3 41.92 1197.07 42.4L1195.87 45.352C1194.32 44.472 1192.77 44.032 1191.22 44.032C1190.13 44.032 1189.32 44.208 1188.79 44.56C1188.28 44.912 1188.02 45.376 1188.02 45.952C1188.02 46.528 1188.32 46.96 1188.91 47.248C1189.52 47.52 1190.44 47.792 1191.67 48.064C1192.95 48.368 1194 48.672 1194.82 48.976C1195.63 49.28 1196.33 49.76 1196.9 50.416C1197.5 51.072 1197.79 51.96 1197.79 53.08C1197.79 54.04 1197.52 54.92 1196.98 55.72C1196.45 56.504 1195.65 57.128 1194.58 57.592C1193.5 58.056 1192.2 58.288 1190.66 58.288ZM1200.19 45.088H1203.93V58H1200.19V45.088ZM1202.06 43.288C1201.37 43.288 1200.81 43.088 1200.38 42.688C1199.95 42.288 1199.73 41.792 1199.73 41.2C1199.73 40.608 1199.95 40.112 1200.38 39.712C1200.81 39.312 1201.37 39.112 1202.06 39.112C1202.75 39.112 1203.31 39.304 1203.74 39.688C1204.17 40.072 1204.39 40.552 1204.39 41.128C1204.39 41.752 1204.17 42.272 1203.74 42.688C1203.31 43.088 1202.75 43.288 1202.06 43.288ZM1215.73 57.376C1215.36 57.648 1214.91 57.856 1214.36 58C1213.84 58.128 1213.28 58.192 1212.68 58.192C1211.15 58.192 1209.96 57.8 1209.11 57.016C1208.28 56.232 1207.86 55.08 1207.86 53.56V48.256H1205.87V45.376H1207.86V42.232H1211.6V45.376H1214.82V48.256H1211.6V53.512C1211.6 54.056 1211.74 54.48 1212.01 54.784C1212.3 55.072 1212.7 55.216 1213.21 55.216C1213.8 55.216 1214.31 55.056 1214.72 54.736L1215.73 57.376ZM1230.08 51.592C1230.08 51.64 1230.06 51.976 1230.01 52.6H1220.24C1220.42 53.4 1220.84 54.032 1221.49 54.496C1222.15 54.96 1222.96 55.192 1223.94 55.192C1224.61 55.192 1225.2 55.096 1225.72 54.904C1226.24 54.696 1226.73 54.376 1227.18 53.944L1229.17 56.104C1227.96 57.496 1226.18 58.192 1223.84 58.192C1222.39 58.192 1221.1 57.912 1219.98 57.352C1218.86 56.776 1218 55.984 1217.39 54.976C1216.78 53.968 1216.48 52.824 1216.48 51.544C1216.48 50.28 1216.77 49.144 1217.36 48.136C1217.97 47.112 1218.8 46.32 1219.84 45.76C1220.89 45.184 1222.07 44.896 1223.36 44.896C1224.63 44.896 1225.77 45.168 1226.8 45.712C1227.82 46.256 1228.62 47.04 1229.2 48.064C1229.79 49.072 1230.08 50.248 1230.08 51.592ZM1223.39 47.728C1222.54 47.728 1221.83 47.968 1221.25 48.448C1220.68 48.928 1220.32 49.584 1220.2 50.416H1226.56C1226.43 49.6 1226.08 48.952 1225.5 48.472C1224.92 47.976 1224.22 47.728 1223.39 47.728Z" fill="black"/>
<path d="M1355.08 54.4H1347.28L1345.8 58H1341.81L1349.3 41.2H1353.14L1360.65 58H1356.57L1355.08 54.4ZM1353.86 51.448L1351.2 45.016L1348.53 51.448H1353.86ZM1370.34 57.376C1369.97 57.648 1369.52 57.856 1368.97 58C1368.45 58.128 1367.89 58.192 1367.29 58.192C1365.76 58.192 1364.57 57.8 1363.72 57.016C1362.89 56.232 1362.47 55.08 1362.47 53.56V48.256H1360.48V45.376H1362.47V42.232H1366.21V45.376H1369.43V48.256H1366.21V53.512C1366.21 54.056 1366.35 54.48 1366.62 54.784C1366.91 55.072 1367.31 55.216 1367.82 55.216C1368.41 55.216 1368.92 55.056 1369.33 54.736L1370.34 57.376ZM1377.65 44.896C1379.65 44.896 1381.19 45.376 1382.26 46.336C1383.33 47.28 1383.87 48.712 1383.87 50.632V58H1380.36V56.392C1379.66 57.592 1378.35 58.192 1376.43 58.192C1375.43 58.192 1374.57 58.024 1373.83 57.688C1373.11 57.352 1372.56 56.888 1372.18 56.296C1371.79 55.704 1371.6 55.032 1371.6 54.28C1371.6 53.08 1372.05 52.136 1372.95 51.448C1373.86 50.76 1375.26 50.416 1377.15 50.416H1380.12C1380.12 49.6 1379.87 48.976 1379.38 48.544C1378.88 48.096 1378.14 47.872 1377.15 47.872C1376.46 47.872 1375.78 47.984 1375.11 48.208C1374.45 48.416 1373.89 48.704 1373.43 49.072L1372.08 46.456C1372.79 45.96 1373.63 45.576 1374.6 45.304C1375.59 45.032 1376.61 44.896 1377.65 44.896ZM1377.36 55.672C1378 55.672 1378.57 55.528 1379.07 55.24C1379.56 54.936 1379.91 54.496 1380.12 53.92V52.6H1377.55C1376.02 52.6 1375.25 53.104 1375.25 54.112C1375.25 54.592 1375.43 54.976 1375.8 55.264C1376.19 55.536 1376.71 55.672 1377.36 55.672ZM1392.8 52.936L1391 54.712V58H1387.26V40.192H1391V50.272L1396.47 45.088H1400.94L1395.56 50.56L1401.42 58H1396.88L1392.8 52.936ZM1415.18 51.592C1415.18 51.64 1415.16 51.976 1415.11 52.6H1405.34C1405.52 53.4 1405.94 54.032 1406.59 54.496C1407.25 54.96 1408.06 55.192 1409.04 55.192C1409.71 55.192 1410.3 55.096 1410.82 54.904C1411.34 54.696 1411.83 54.376 1412.28 53.944L1414.27 56.104C1413.06 57.496 1411.28 58.192 1408.94 58.192C1407.49 58.192 1406.2 57.912 1405.08 57.352C1403.96 56.776 1403.1 55.984 1402.49 54.976C1401.88 53.968 1401.58 52.824 1401.58 51.544C1401.58 50.28 1401.87 49.144 1402.46 48.136C1403.07 47.112 1403.9 46.32 1404.94 45.76C1405.99 45.184 1407.17 44.896 1408.46 44.896C1409.73 44.896 1410.87 45.168 1411.9 45.712C1412.92 46.256 1413.72 47.04 1414.3 48.064C1414.89 49.072 1415.18 50.248 1415.18 51.592ZM1408.49 47.728C1407.64 47.728 1406.93 47.968 1406.35 48.448C1405.78 48.928 1405.42 49.584 1405.3 50.416H1411.66C1411.53 49.6 1411.18 48.952 1410.6 48.472C1410.02 47.976 1409.32 47.728 1408.49 47.728ZM1425.53 44.896C1427.13 44.896 1428.41 45.376 1429.39 46.336C1430.38 47.296 1430.88 48.72 1430.88 50.608V58H1427.13V51.184C1427.13 50.16 1426.91 49.4 1426.46 48.904C1426.01 48.392 1425.37 48.136 1424.52 48.136C1423.57 48.136 1422.82 48.432 1422.26 49.024C1421.7 49.6 1421.42 50.464 1421.42 51.616V58H1417.68V45.088H1421.25V46.6C1421.75 46.056 1422.37 45.64 1423.1 45.352C1423.84 45.048 1424.65 44.896 1425.53 44.896ZM1442.6 57.376C1442.23 57.648 1441.77 57.856 1441.23 58C1440.7 58.128 1440.14 58.192 1439.55 58.192C1438.01 58.192 1436.82 57.8 1435.97 57.016C1435.14 56.232 1434.73 55.08 1434.73 53.56V48.256H1432.73V45.376H1434.73V42.232H1438.47V45.376H1441.69V48.256H1438.47V53.512C1438.47 54.056 1438.61 54.48 1438.88 54.784C1439.17 55.072 1439.57 55.216 1440.08 55.216C1440.67 55.216 1441.17 55.056 1441.59 54.736L1442.6 57.376Z" fill="black"/>
<path d="M1556.24 58.288C1554.53 58.288 1552.98 57.92 1551.59 57.184C1550.21 56.432 1549.12 55.4 1548.32 54.088C1547.54 52.76 1547.15 51.264 1547.15 49.6C1547.15 47.936 1547.54 46.448 1548.32 45.136C1549.12 43.808 1550.21 42.776 1551.59 42.04C1552.98 41.288 1554.54 40.912 1556.27 40.912C1557.72 40.912 1559.03 41.168 1560.2 41.68C1561.39 42.192 1562.38 42.928 1563.18 43.888L1560.68 46.192C1559.55 44.88 1558.14 44.224 1556.46 44.224C1555.42 44.224 1554.49 44.456 1553.67 44.92C1552.86 45.368 1552.22 46 1551.75 46.816C1551.31 47.632 1551.08 48.56 1551.08 49.6C1551.08 50.64 1551.31 51.568 1551.75 52.384C1552.22 53.2 1552.86 53.84 1553.67 54.304C1554.49 54.752 1555.42 54.976 1556.46 54.976C1558.14 54.976 1559.55 54.312 1560.68 52.984L1563.18 55.288C1562.38 56.264 1561.39 57.008 1560.2 57.52C1559.02 58.032 1557.7 58.288 1556.24 58.288ZM1554.95 63.568C1554.53 63.568 1554.12 63.52 1553.72 63.424C1553.32 63.344 1552.99 63.224 1552.71 63.064L1553.29 61.456C1553.8 61.696 1554.32 61.816 1554.85 61.816C1555.68 61.816 1556.1 61.56 1556.1 61.048C1556.1 60.584 1555.71 60.352 1554.92 60.352H1554.11L1554.73 57.808H1556.72L1556.39 59.2C1557.09 59.28 1557.61 59.496 1557.95 59.848C1558.3 60.216 1558.47 60.664 1558.47 61.192C1558.47 61.928 1558.15 62.504 1557.51 62.92C1556.87 63.352 1556.02 63.568 1554.95 63.568ZM1570.65 44.896C1572.65 44.896 1574.19 45.376 1575.26 46.336C1576.33 47.28 1576.87 48.712 1576.87 50.632V58H1573.37V56.392C1572.66 57.592 1571.35 58.192 1569.43 58.192C1568.44 58.192 1567.57 58.024 1566.84 57.688C1566.12 57.352 1565.57 56.888 1565.18 56.296C1564.8 55.704 1564.61 55.032 1564.61 54.28C1564.61 53.08 1565.05 52.136 1565.95 51.448C1566.86 50.76 1568.26 50.416 1570.15 50.416H1573.13C1573.13 49.6 1572.88 48.976 1572.38 48.544C1571.89 48.096 1571.14 47.872 1570.15 47.872C1569.46 47.872 1568.78 47.984 1568.11 48.208C1567.45 48.416 1566.89 48.704 1566.43 49.072L1565.09 46.456C1565.79 45.96 1566.63 45.576 1567.61 45.304C1568.6 45.032 1569.61 44.896 1570.65 44.896ZM1570.37 55.672C1571.01 55.672 1571.57 55.528 1572.07 55.24C1572.57 54.936 1572.92 54.496 1573.13 53.92V52.6H1570.56C1569.02 52.6 1568.25 53.104 1568.25 54.112C1568.25 54.592 1568.44 54.976 1568.81 55.264C1569.19 55.536 1569.71 55.672 1570.37 55.672ZM1583.84 46.792C1584.28 46.168 1584.88 45.696 1585.64 45.376C1586.4 45.056 1587.28 44.896 1588.28 44.896V48.352C1587.86 48.32 1587.58 48.304 1587.44 48.304C1586.36 48.304 1585.52 48.608 1584.92 49.216C1584.31 49.808 1584 50.704 1584 51.904V58H1580.26V45.088H1583.84V46.792ZM1594.89 58.192C1593.82 58.192 1592.77 58.064 1591.75 57.808C1590.72 57.536 1589.91 57.2 1589.3 56.8L1590.55 54.112C1591.12 54.48 1591.82 54.784 1592.64 55.024C1593.45 55.248 1594.25 55.36 1595.04 55.36C1596.62 55.36 1597.41 54.968 1597.41 54.184C1597.41 53.816 1597.2 53.552 1596.76 53.392C1596.33 53.232 1595.67 53.096 1594.77 52.984C1593.72 52.824 1592.84 52.64 1592.16 52.432C1591.47 52.224 1590.87 51.856 1590.36 51.328C1589.86 50.8 1589.61 50.048 1589.61 49.072C1589.61 48.256 1589.84 47.536 1590.31 46.912C1590.79 46.272 1591.48 45.776 1592.37 45.424C1593.28 45.072 1594.36 44.896 1595.59 44.896C1596.5 44.896 1597.4 45 1598.3 45.208C1599.21 45.4 1599.96 45.672 1600.56 46.024L1599.31 48.688C1598.17 48.048 1596.93 47.728 1595.59 47.728C1594.79 47.728 1594.19 47.84 1593.79 48.064C1593.39 48.288 1593.19 48.576 1593.19 48.928C1593.19 49.328 1593.4 49.608 1593.84 49.768C1594.27 49.928 1594.96 50.08 1595.9 50.224C1596.96 50.4 1597.82 50.592 1598.49 50.8C1599.16 50.992 1599.75 51.352 1600.24 51.88C1600.74 52.408 1600.99 53.144 1600.99 54.088C1600.99 54.888 1600.75 55.6 1600.27 56.224C1599.79 56.848 1599.08 57.336 1598.16 57.688C1597.24 58.024 1596.16 58.192 1594.89 58.192ZM1594.29 63.568C1593.88 63.568 1593.47 63.52 1593.07 63.424C1592.67 63.344 1592.33 63.224 1592.06 63.064L1592.64 61.456C1593.15 61.696 1593.67 61.816 1594.2 61.816C1595.03 61.816 1595.44 61.56 1595.44 61.048C1595.44 60.584 1595.05 60.352 1594.27 60.352H1593.45L1594.08 57.808H1596.07L1595.73 59.2C1596.44 59.28 1596.96 59.496 1597.29 59.848C1597.64 60.216 1597.82 60.664 1597.82 61.192C1597.82 61.928 1597.5 62.504 1596.86 62.92C1596.22 63.352 1595.36 63.568 1594.29 63.568ZM1603.3 45.088H1607.04V58H1603.3V45.088Z" fill="black"/>
<path d="M1740.73 29.288C1739.4 29.288 1738.11 29.112 1736.86 28.76C1735.63 28.392 1734.64 27.92 1733.89 27.344L1735.21 24.416C1735.93 24.944 1736.78 25.368 1737.77 25.688C1738.77 26.008 1739.76 26.168 1740.75 26.168C1741.85 26.168 1742.67 26.008 1743.2 25.688C1743.73 25.352 1743.99 24.912 1743.99 24.368C1743.99 23.968 1743.83 23.64 1743.51 23.384C1743.21 23.112 1742.81 22.896 1742.31 22.736C1741.83 22.576 1741.17 22.4 1740.34 22.208C1739.06 21.904 1738.01 21.6 1737.2 21.296C1736.38 20.992 1735.68 20.504 1735.09 19.832C1734.51 19.16 1734.22 18.264 1734.22 17.144C1734.22 16.168 1734.49 15.288 1735.01 14.504C1735.54 13.704 1736.33 13.072 1737.39 12.608C1738.46 12.144 1739.77 11.912 1741.3 11.912C1742.37 11.912 1743.42 12.04 1744.45 12.296C1745.47 12.552 1746.37 12.92 1747.13 13.4L1745.93 16.352C1744.38 15.472 1742.83 15.032 1741.28 15.032C1740.19 15.032 1739.38 15.208 1738.85 15.56C1738.34 15.912 1738.09 16.376 1738.09 16.952C1738.09 17.528 1738.38 17.96 1738.97 18.248C1739.58 18.52 1740.5 18.792 1741.73 19.064C1743.01 19.368 1744.06 19.672 1744.88 19.976C1745.69 20.28 1746.39 20.76 1746.97 21.416C1747.56 22.072 1747.85 22.96 1747.85 24.08C1747.85 25.04 1747.58 25.92 1747.04 26.72C1746.51 27.504 1745.71 28.128 1744.64 28.592C1743.57 29.056 1742.26 29.288 1740.73 29.288ZM1762.85 20.264C1763.81 20.568 1764.56 21.08 1765.1 21.8C1765.65 22.504 1765.92 23.376 1765.92 24.416C1765.92 25.888 1765.34 27.024 1764.19 27.824C1763.06 28.608 1761.39 29 1759.2 29H1750.51V12.2H1758.72C1760.77 12.2 1762.34 12.592 1763.42 13.376C1764.53 14.16 1765.08 15.224 1765.08 16.568C1765.08 17.384 1764.88 18.112 1764.48 18.752C1764.1 19.392 1763.55 19.896 1762.85 20.264ZM1754.38 15.128V19.088H1758.24C1759.2 19.088 1759.93 18.92 1760.42 18.584C1760.92 18.248 1761.17 17.752 1761.17 17.096C1761.17 16.44 1760.92 15.952 1760.42 15.632C1759.93 15.296 1759.2 15.128 1758.24 15.128H1754.38ZM1758.91 26.072C1759.94 26.072 1760.7 25.904 1761.22 25.568C1761.74 25.232 1762.01 24.712 1762.01 24.008C1762.01 22.616 1760.98 21.92 1758.91 21.92H1754.38V26.072H1758.91ZM1776.33 29.288C1773.93 29.288 1772.06 28.624 1770.71 27.296C1769.38 25.968 1768.72 24.072 1768.72 21.608V12.2H1772.61V21.464C1772.61 24.472 1773.86 25.976 1776.35 25.976C1777.57 25.976 1778.5 25.616 1779.14 24.896C1779.78 24.16 1780.1 23.016 1780.1 21.464V12.2H1783.94V21.608C1783.94 24.072 1783.26 25.968 1781.92 27.296C1780.59 28.624 1778.73 29.288 1776.33 29.288ZM1773.93 10.712C1773.45 10.712 1773.05 10.56 1772.73 10.256C1772.41 9.936 1772.25 9.536 1772.25 9.056C1772.25 8.576 1772.41 8.184 1772.73 7.88C1773.05 7.56 1773.45 7.4 1773.93 7.4C1774.41 7.4 1774.8 7.56 1775.1 7.88C1775.42 8.184 1775.58 8.576 1775.58 9.056C1775.58 9.536 1775.42 9.936 1775.1 10.256C1774.8 10.56 1774.41 10.712 1773.93 10.712ZM1778.78 10.712C1778.3 10.712 1777.9 10.56 1777.58 10.256C1777.27 9.936 1777.12 9.536 1777.12 9.056C1777.12 8.576 1777.27 8.184 1777.58 7.88C1777.9 7.56 1778.3 7.4 1778.78 7.4C1779.26 7.4 1779.66 7.56 1779.98 7.88C1780.3 8.184 1780.46 8.576 1780.46 9.056C1780.46 9.536 1780.3 9.936 1779.98 10.256C1779.66 10.56 1779.26 10.712 1778.78 10.712ZM1714.88 41.2V58H1711V51.112H1703.36V58H1699.48V41.2H1703.36V47.824H1711V41.2H1714.88ZM1723.8 44.896C1725.8 44.896 1727.34 45.376 1728.41 46.336C1729.48 47.28 1730.02 48.712 1730.02 50.632V58H1726.52V56.392C1725.81 57.592 1724.5 58.192 1722.58 58.192C1721.59 58.192 1720.72 58.024 1719.99 57.688C1719.27 57.352 1718.72 56.888 1718.33 56.296C1717.95 55.704 1717.76 55.032 1717.76 54.28C1717.76 53.08 1718.2 52.136 1719.1 51.448C1720.01 50.76 1721.41 50.416 1723.3 50.416H1726.28C1726.28 49.6 1726.03 48.976 1725.53 48.544C1725.04 48.096 1724.29 47.872 1723.3 47.872C1722.61 47.872 1721.93 47.984 1721.26 48.208C1720.6 48.416 1720.04 48.704 1719.58 49.072L1718.24 46.456C1718.94 45.96 1719.78 45.576 1720.76 45.304C1721.75 45.032 1722.76 44.896 1723.8 44.896ZM1723.52 55.672C1724.16 55.672 1724.72 55.528 1725.22 55.24C1725.72 54.936 1726.07 54.496 1726.28 53.92V52.6H1723.71C1722.17 52.6 1721.4 53.104 1721.4 54.112C1721.4 54.592 1721.59 54.976 1721.96 55.264C1722.34 55.536 1722.86 55.672 1723.52 55.672ZM1737.75 58.192C1736.68 58.192 1735.63 58.064 1734.61 57.808C1733.58 57.536 1732.77 57.2 1732.16 56.8L1733.41 54.112C1733.98 54.48 1734.68 54.784 1735.5 55.024C1736.31 55.248 1737.11 55.36 1737.9 55.36C1739.48 55.36 1740.27 54.968 1740.27 54.184C1740.27 53.816 1740.06 53.552 1739.62 53.392C1739.19 53.232 1738.53 53.096 1737.63 52.984C1736.58 52.824 1735.7 52.64 1735.02 52.432C1734.33 52.224 1733.73 51.856 1733.22 51.328C1732.72 50.8 1732.47 50.048 1732.47 49.072C1732.47 48.256 1732.7 47.536 1733.17 46.912C1733.65 46.272 1734.34 45.776 1735.23 45.424C1736.14 45.072 1737.22 44.896 1738.45 44.896C1739.36 44.896 1740.26 45 1741.16 45.208C1742.07 45.4 1742.82 45.672 1743.42 46.024L1742.17 48.688C1741.03 48.048 1739.79 47.728 1738.45 47.728C1737.65 47.728 1737.05 47.84 1736.65 48.064C1736.25 48.288 1736.05 48.576 1736.05 48.928C1736.05 49.328 1736.26 49.608 1736.7 49.768C1737.13 49.928 1737.82 50.08 1738.76 50.224C1739.82 50.4 1740.68 50.592 1741.35 50.8C1742.02 50.992 1742.61 51.352 1743.1 51.88C1743.6 52.408 1743.85 53.144 1743.85 54.088C1743.85 54.888 1743.61 55.6 1743.13 56.224C1742.65 56.848 1741.94 57.336 1741.02 57.688C1740.1 58.024 1739.02 58.192 1737.75 58.192ZM1754.49 57.376C1754.12 57.648 1753.66 57.856 1753.12 58C1752.59 58.128 1752.03 58.192 1751.44 58.192C1749.9 58.192 1748.71 57.8 1747.86 57.016C1747.03 56.232 1746.61 55.08 1746.61 53.56V48.256H1744.62V45.376H1746.61V42.232H1750.36V45.376H1753.57V48.256H1750.36V53.512C1750.36 54.056 1750.49 54.48 1750.77 54.784C1751.05 55.072 1751.45 55.216 1751.97 55.216C1752.56 55.216 1753.06 55.056 1753.48 54.736L1754.49 57.376ZM1761.8 44.896C1763.8 44.896 1765.33 45.376 1766.4 46.336C1767.48 47.28 1768.01 48.712 1768.01 50.632V58H1764.51V56.392C1763.8 57.592 1762.49 58.192 1760.57 58.192C1759.58 58.192 1758.72 58.024 1757.98 57.688C1757.26 57.352 1756.71 56.888 1756.32 56.296C1755.94 55.704 1755.75 55.032 1755.75 54.28C1755.75 53.08 1756.2 52.136 1757.09 51.448C1758 50.76 1759.4 50.416 1761.29 50.416H1764.27C1764.27 49.6 1764.02 48.976 1763.52 48.544C1763.03 48.096 1762.28 47.872 1761.29 47.872C1760.6 47.872 1759.92 47.984 1759.25 48.208C1758.6 48.416 1758.04 48.704 1757.57 49.072L1756.23 46.456C1756.93 45.96 1757.77 45.576 1758.75 45.304C1759.74 45.032 1760.76 44.896 1761.8 44.896ZM1761.51 55.672C1762.15 55.672 1762.72 55.528 1763.21 55.24C1763.71 54.936 1764.06 54.496 1764.27 53.92V52.6H1761.7C1760.16 52.6 1759.4 53.104 1759.4 54.112C1759.4 54.592 1759.58 54.976 1759.95 55.264C1760.33 55.536 1760.85 55.672 1761.51 55.672ZM1779.25 44.896C1780.85 44.896 1782.14 45.376 1783.11 46.336C1784.1 47.296 1784.6 48.72 1784.6 50.608V58H1780.86V51.184C1780.86 50.16 1780.63 49.4 1780.18 48.904C1779.74 48.392 1779.09 48.136 1778.24 48.136C1777.3 48.136 1776.54 48.432 1775.98 49.024C1775.42 49.6 1775.14 50.464 1775.14 51.616V58H1771.4V45.088H1774.98V46.6C1775.47 46.056 1776.09 45.64 1776.82 45.352C1777.56 45.048 1778.37 44.896 1779.25 44.896ZM1800.78 51.592C1800.78 51.64 1800.76 51.976 1800.71 52.6H1790.94C1791.12 53.4 1791.53 54.032 1792.19 54.496C1792.85 54.96 1793.66 55.192 1794.64 55.192C1795.31 55.192 1795.9 55.096 1796.41 54.904C1796.94 54.696 1797.43 54.376 1797.88 53.944L1799.87 56.104C1798.65 57.496 1796.88 58.192 1794.54 58.192C1793.09 58.192 1791.8 57.912 1790.68 57.352C1789.56 56.776 1788.69 55.984 1788.09 54.976C1787.48 53.968 1787.17 52.824 1787.17 51.544C1787.17 50.28 1787.47 49.144 1788.06 48.136C1788.67 47.112 1789.49 46.32 1790.53 45.76C1791.59 45.184 1792.77 44.896 1794.06 44.896C1795.33 44.896 1796.47 45.168 1797.49 45.712C1798.52 46.256 1799.32 47.04 1799.89 48.064C1800.49 49.072 1800.78 50.248 1800.78 51.592ZM1794.09 47.728C1793.24 47.728 1792.53 47.968 1791.95 48.448C1791.37 48.928 1791.02 49.584 1790.89 50.416H1797.25C1797.13 49.6 1796.77 48.952 1796.2 48.472C1795.62 47.976 1794.92 47.728 1794.09 47.728ZM1807.62 58.192C1806.55 58.192 1805.5 58.064 1804.47 57.808C1803.45 57.536 1802.63 57.2 1802.03 56.8L1803.27 54.112C1803.85 54.48 1804.55 54.784 1805.36 55.024C1806.18 55.248 1806.98 55.36 1807.76 55.36C1809.35 55.36 1810.14 54.968 1810.14 54.184C1810.14 53.816 1809.92 53.552 1809.49 53.392C1809.06 53.232 1808.39 53.096 1807.5 52.984C1806.44 52.824 1805.57 52.64 1804.88 52.432C1804.19 52.224 1803.59 51.856 1803.08 51.328C1802.59 50.8 1802.34 50.048 1802.34 49.072C1802.34 48.256 1802.57 47.536 1803.03 46.912C1803.51 46.272 1804.2 45.776 1805.1 45.424C1806.01 45.072 1807.08 44.896 1808.31 44.896C1809.23 44.896 1810.13 45 1811.03 45.208C1811.94 45.4 1812.69 45.672 1813.28 46.024L1812.03 48.688C1810.9 48.048 1809.66 47.728 1808.31 47.728C1807.51 47.728 1806.91 47.84 1806.51 48.064C1806.11 48.288 1805.91 48.576 1805.91 48.928C1805.91 49.328 1806.13 49.608 1806.56 49.768C1806.99 49.928 1807.68 50.08 1808.63 50.224C1809.68 50.4 1810.55 50.592 1811.22 50.8C1811.89 50.992 1812.47 51.352 1812.97 51.88C1813.47 52.408 1813.71 53.144 1813.71 54.088C1813.71 54.888 1813.47 55.6 1812.99 56.224C1812.51 56.848 1811.81 57.336 1810.88 57.688C1809.97 58.024 1808.88 58.192 1807.62 58.192ZM1816.02 45.088H1819.77V58H1816.02V45.088ZM1817.9 43.288C1817.21 43.288 1816.65 43.088 1816.22 42.688C1815.78 42.288 1815.57 41.792 1815.57 41.2C1815.57 40.608 1815.78 40.112 1816.22 39.712C1816.65 39.312 1817.21 39.112 1817.9 39.112C1818.58 39.112 1819.14 39.304 1819.58 39.688C1820.01 40.072 1820.22 40.552 1820.22 41.128C1820.22 41.752 1820.01 42.272 1819.58 42.688C1819.14 43.088 1818.58 43.288 1817.9 43.288Z" fill="black"/>
<path d="M1913.75 22.4L1911.5 24.752V29H1907.63V12.2H1911.5V20.048L1918.94 12.2H1923.26L1916.3 19.688L1923.66 29H1919.13L1913.75 22.4ZM1930.06 15.896C1932.06 15.896 1933.6 16.376 1934.67 17.336C1935.74 18.28 1936.28 19.712 1936.28 21.632V29H1932.77V27.392C1932.07 28.592 1930.76 29.192 1928.84 29.192C1927.85 29.192 1926.98 29.024 1926.25 28.688C1925.53 28.352 1924.97 27.888 1924.59 27.296C1924.21 26.704 1924.01 26.032 1924.01 25.28C1924.01 24.08 1924.46 23.136 1925.36 22.448C1926.27 21.76 1927.67 21.416 1929.56 21.416H1932.53C1932.53 20.6 1932.29 19.976 1931.79 19.544C1931.29 19.096 1930.55 18.872 1929.56 18.872C1928.87 18.872 1928.19 18.984 1927.52 19.208C1926.86 19.416 1926.3 19.704 1925.84 20.072L1924.49 17.456C1925.2 16.96 1926.04 16.576 1927.01 16.304C1928.01 16.032 1929.02 15.896 1930.06 15.896ZM1929.77 26.672C1930.41 26.672 1930.98 26.528 1931.48 26.24C1931.97 25.936 1932.33 25.496 1932.53 24.92V23.6H1929.97C1928.43 23.6 1927.66 24.104 1927.66 25.112C1927.66 25.592 1927.85 25.976 1928.21 26.264C1928.6 26.536 1929.12 26.672 1929.77 26.672ZM1950.3 26.12V29H1938.78V26.744L1945.35 18.968H1938.95V16.088H1950.08V18.344L1943.51 26.12H1950.3ZM1952.7 16.088H1956.44V29H1952.7V16.088ZM1976.45 15.896C1978.07 15.896 1979.35 16.376 1980.29 17.336C1981.25 18.28 1981.73 19.704 1981.73 21.608V29H1977.99V22.184C1977.99 21.16 1977.77 20.4 1977.34 19.904C1976.92 19.392 1976.32 19.136 1975.54 19.136C1974.66 19.136 1973.96 19.424 1973.45 20C1972.94 20.56 1972.68 21.4 1972.68 22.52V29H1968.94V22.184C1968.94 20.152 1968.12 19.136 1966.49 19.136C1965.63 19.136 1964.94 19.424 1964.43 20C1963.92 20.56 1963.66 21.4 1963.66 22.52V29H1959.92V16.088H1963.49V17.576C1963.97 17.032 1964.56 16.616 1965.24 16.328C1965.95 16.04 1966.72 15.896 1967.55 15.896C1968.46 15.896 1969.28 16.08 1970.02 16.448C1970.76 16.8 1971.35 17.32 1971.8 18.008C1972.32 17.336 1972.99 16.816 1973.79 16.448C1974.6 16.08 1975.49 15.896 1976.45 15.896ZM1891.46 51.4L1889.21 53.752V58H1885.34V41.2H1889.21V49.048L1896.65 41.2H1900.97L1894.01 48.688L1901.38 58H1896.84L1891.46 51.4ZM1907.77 44.896C1909.77 44.896 1911.31 45.376 1912.38 46.336C1913.45 47.28 1913.99 48.712 1913.99 50.632V58H1910.48V56.392C1909.78 57.592 1908.47 58.192 1906.55 58.192C1905.56 58.192 1904.69 58.024 1903.96 57.688C1903.24 57.352 1902.68 56.888 1902.3 56.296C1901.92 55.704 1901.72 55.032 1901.72 54.28C1901.72 53.08 1902.17 52.136 1903.07 51.448C1903.98 50.76 1905.38 50.416 1907.27 50.416H1910.24C1910.24 49.6 1910 48.976 1909.5 48.544C1909 48.096 1908.26 47.872 1907.27 47.872C1906.58 47.872 1905.9 47.984 1905.23 48.208C1904.57 48.416 1904.01 48.704 1903.55 49.072L1902.2 46.456C1902.91 45.96 1903.75 45.576 1904.72 45.304C1905.72 45.032 1906.73 44.896 1907.77 44.896ZM1907.48 55.672C1908.12 55.672 1908.69 55.528 1909.19 55.24C1909.68 54.936 1910.04 54.496 1910.24 53.92V52.6H1907.68C1906.14 52.6 1905.37 53.104 1905.37 54.112C1905.37 54.592 1905.56 54.976 1905.92 55.264C1906.31 55.536 1906.83 55.672 1907.48 55.672ZM1920.95 46.792C1921.4 46.168 1922 45.696 1922.75 45.376C1923.52 45.056 1924.4 44.896 1925.39 44.896V48.352C1924.98 48.32 1924.7 48.304 1924.55 48.304C1923.48 48.304 1922.64 48.608 1922.03 49.216C1921.42 49.808 1921.12 50.704 1921.12 51.904V58H1917.38V45.088H1920.95V46.792ZM1932.76 44.896C1934.76 44.896 1936.29 45.376 1937.36 46.336C1938.44 47.28 1938.97 48.712 1938.97 50.632V58H1935.47V56.392C1934.76 57.592 1933.45 58.192 1931.53 58.192C1930.54 58.192 1929.68 58.024 1928.94 57.688C1928.22 57.352 1927.67 56.888 1927.28 56.296C1926.9 55.704 1926.71 55.032 1926.71 54.28C1926.71 53.08 1927.16 52.136 1928.05 51.448C1928.96 50.76 1930.36 50.416 1932.25 50.416H1935.23C1935.23 49.6 1934.98 48.976 1934.48 48.544C1933.99 48.096 1933.24 47.872 1932.25 47.872C1931.56 47.872 1930.88 47.984 1930.21 48.208C1929.56 48.416 1929 48.704 1928.53 49.072L1927.19 46.456C1927.89 45.96 1928.73 45.576 1929.71 45.304C1930.7 45.032 1931.72 44.896 1932.76 44.896ZM1932.47 55.672C1933.11 55.672 1933.68 55.528 1934.17 55.24C1934.67 54.936 1935.02 54.496 1935.23 53.92V52.6H1932.66C1931.12 52.6 1930.36 53.104 1930.36 54.112C1930.36 54.592 1930.54 54.976 1930.91 55.264C1931.29 55.536 1931.81 55.672 1932.47 55.672ZM1949.99 44.896C1951.19 44.896 1952.28 45.176 1953.26 45.736C1954.25 46.28 1955.02 47.056 1955.58 48.064C1956.14 49.056 1956.42 50.216 1956.42 51.544C1956.42 52.872 1956.14 54.04 1955.58 55.048C1955.02 56.04 1954.25 56.816 1953.26 57.376C1952.28 57.92 1951.19 58.192 1949.99 58.192C1948.22 58.192 1946.86 57.632 1945.94 56.512V58H1942.36V40.192H1946.1V46.456C1947.05 45.416 1948.34 44.896 1949.99 44.896ZM1949.34 55.12C1950.3 55.12 1951.09 54.8 1951.7 54.16C1952.32 53.504 1952.63 52.632 1952.63 51.544C1952.63 50.456 1952.32 49.592 1951.7 48.952C1951.09 48.296 1950.3 47.968 1949.34 47.968C1948.38 47.968 1947.59 48.296 1946.97 48.952C1946.36 49.592 1946.06 50.456 1946.06 51.544C1946.06 52.632 1946.36 53.504 1946.97 54.16C1947.59 54.8 1948.38 55.12 1949.34 55.12ZM1971.58 51.592C1971.58 51.64 1971.56 51.976 1971.51 52.6H1961.74C1961.92 53.4 1962.33 54.032 1962.99 54.496C1963.64 54.96 1964.46 55.192 1965.44 55.192C1966.11 55.192 1966.7 55.096 1967.21 54.904C1967.74 54.696 1968.23 54.376 1968.68 53.944L1970.67 56.104C1969.45 57.496 1967.68 58.192 1965.34 58.192C1963.88 58.192 1962.6 57.912 1961.48 57.352C1960.36 56.776 1959.49 55.984 1958.88 54.976C1958.28 53.968 1957.97 52.824 1957.97 51.544C1957.97 50.28 1958.27 49.144 1958.86 48.136C1959.47 47.112 1960.29 46.32 1961.33 45.76C1962.39 45.184 1963.56 44.896 1964.86 44.896C1966.12 44.896 1967.27 45.168 1968.29 45.712C1969.32 46.256 1970.12 47.04 1970.69 48.064C1971.28 49.072 1971.58 50.248 1971.58 51.592ZM1964.88 47.728C1964.04 47.728 1963.32 47.968 1962.75 48.448C1962.17 48.928 1961.82 49.584 1961.69 50.416H1968.05C1967.92 49.6 1967.57 48.952 1967 48.472C1966.42 47.976 1965.72 47.728 1964.88 47.728ZM1979.62 52.936L1977.82 54.712V58H1974.07V40.192H1977.82V50.272L1983.29 45.088H1987.75L1982.38 50.56L1988.23 58H1983.7L1979.62 52.936ZM1989.82 45.088H1993.57V58H1989.82V45.088ZM1991.69 43.288C1991.01 43.288 1990.45 43.088 1990.01 42.688C1989.58 42.288 1989.37 41.792 1989.37 41.2C1989.37 40.608 1989.58 40.112 1990.01 39.712C1990.45 39.312 1991.01 39.112 1991.69 39.112C1992.38 39.112 1992.94 39.304 1993.37 39.688C1993.81 40.072 1994.02 40.552 1994.02 41.128C1994.02 41.752 1993.81 42.272 1993.37 42.688C1992.94 43.088 1992.38 43.288 1991.69 43.288ZM2000.62 46.792C2001.06 46.168 2001.66 45.696 2002.42 45.376C2003.18 45.056 2004.06 44.896 2005.06 44.896V48.352C2004.64 48.32 2004.36 48.304 2004.22 48.304C2003.14 48.304 2002.3 48.608 2001.7 49.216C2001.09 49.808 2000.78 50.704 2000.78 51.904V58H1997.04V45.088H2000.62V46.792Z" fill="black"/>
<rect x="470" y="123" width="6" height="22" fill="black"/>
<rect x="285" y="123" width="6" height="22" fill="black"/>
<rect x="655" y="123" width="6" height="22" fill="black"/>
<rect x="1022" y="123" width="6" height="20" fill="black"/>
<rect x="1574" y="123" width="6" height="22" fill="black"/>
<circle cx="1944" cy="100" r="24" fill="#C9D200"/>
<g clip-path="url(#clip0_496_6087)">
<path d="M658 179.025C654.431 179.032 650.941 177.981 647.971 176.006C645 174.031 642.683 171.221 641.313 167.93C639.942 164.639 639.58 161.016 640.272 157.52C640.964 154.024 642.679 150.811 645.2 148.288C647.72 145.766 650.934 144.047 654.433 143.349C657.933 142.651 661.561 143.005 664.858 144.368C668.156 145.73 670.975 148.039 672.958 151.002C674.941 153.965 676 157.448 676 161.012C676 165.784 674.105 170.36 670.73 173.737C667.355 177.114 662.777 179.016 658 179.025Z" fill="#E81F76"/>
<path d="M646.277 155.168H650.025L652.8 164.01H652.83L655.605 155.168H659.348V166.832H657.108V157.205H657.078L653.937 166.832H651.693L648.552 157.205L648.517 157.24V166.832H646.277V155.168Z" fill="white"/>
<path d="M660.98 162.514L665.344 155.164H668.25V162.669H669.753V164.41H668.25V166.832H666.01V164.41H661.001L660.98 162.514ZM665.99 162.664V157.605H665.96L663.085 162.669L665.99 162.664Z" fill="white"/>
</g>
<path d="M76 100C76 95.2533 77.4076 90.6131 80.0447 86.6663C82.6819 82.7195 86.4302 79.6434 90.8156 77.8269C95.201 76.0104 100.027 75.5351 104.682 76.4612C109.338 77.3872 113.614 79.673 116.971 83.0294C120.327 86.3859 122.613 90.6623 123.539 95.3178C124.465 99.9734 123.99 104.799 122.173 109.184C120.357 113.57 117.28 117.318 113.334 119.955C109.387 122.592 104.747 124 100 124C93.6392 123.986 87.543 121.453 83.0452 116.955C78.5474 112.457 76.0142 106.361 76 100Z" fill="#C9D200"/>
<g clip-path="url(#clip1_496_6087)">
<path d="M270 161.001C270 157.441 271.056 153.961 273.034 151.001C275.011 148.041 277.823 145.734 281.112 144.371C284.401 143.009 288.02 142.652 291.512 143.347C295.003 144.041 298.211 145.756 300.728 148.273C303.245 150.79 304.96 153.998 305.654 157.489C306.349 160.981 305.992 164.6 304.63 167.889C303.267 171.178 300.96 173.99 298 175.967C295.04 177.945 291.56 179.001 288 179.001C285.665 179.03 283.348 178.6 281.18 177.733C279.012 176.867 277.035 175.582 275.364 173.952C273.692 172.322 272.358 170.378 271.438 168.232C270.518 166.087 270.029 163.781 270 161.446V161.001Z" fill="#65656A"/>
<path d="M278.375 167.675V154.307H283.047C285.777 154.307 287.355 155.48 287.355 157.725C287.364 158.467 287.095 159.185 286.601 159.739C286.107 160.293 285.423 160.642 284.685 160.718C285.494 160.728 286.267 161.053 286.84 161.623C287.414 162.193 287.744 162.963 287.759 163.772C287.759 166.401 285.878 167.635 282.986 167.635L278.375 167.675ZM282.137 159.707C283.896 159.707 284.705 159.14 284.705 158.089C284.705 157.037 284.159 156.41 282.278 156.41H281.045V159.707H282.137ZM282.359 165.572C284.099 165.572 285.09 164.965 285.09 163.711C285.09 162.457 284.2 161.689 282.42 161.689H281.045V165.552L282.359 165.572Z" fill="white"/>
<path d="M293.643 167.675V157.361L291.378 159.181L290.043 157.421L293.946 154.287H296.292V167.675H293.643Z" fill="white"/>
</g>
<g clip-path="url(#clip2_496_6087)">
<path d="M455 161C455.004 157.445 456.063 153.971 458.043 151.017C460.024 148.062 462.836 145.761 466.126 144.403C469.415 143.046 473.034 142.692 476.524 143.388C480.014 144.085 483.22 145.799 485.735 148.314C488.25 150.829 489.963 154.033 490.656 157.52C491.349 161.007 490.991 164.621 489.628 167.906C488.265 171.19 485.958 173.997 482.998 175.971C480.039 177.946 476.559 179 473 179C470.635 179 468.292 178.534 466.107 177.63C463.922 176.725 461.937 175.399 460.265 173.727C458.593 172.055 457.268 170.071 456.364 167.887C455.461 165.703 454.997 163.363 455 161Z" fill="#9D9D9C"/>
<path d="M471.605 156.253H467.621V154.051H478.381V156.253H474.396V167.95H471.605V156.253Z" fill="white"/>
</g>
<g clip-path="url(#clip3_496_6087)">
<path d="M1028 161C1028 157.44 1029.06 153.96 1031.03 151C1033.01 148.04 1035.82 145.733 1039.11 144.37C1042.4 143.008 1046.02 142.651 1049.51 143.346C1053 144.04 1056.21 145.755 1058.73 148.272C1061.25 150.789 1062.96 153.997 1063.65 157.488C1064.35 160.98 1063.99 164.599 1062.63 167.888C1061.27 171.177 1058.96 173.989 1056 175.966C1053.04 177.944 1049.56 179 1046 179C1041.23 178.995 1036.65 177.097 1033.28 173.722C1029.9 170.348 1028.01 165.772 1028 161Z" fill="#9D9D9C"/>
<path d="M1030.41 155.6H1034.15L1036.96 164.458H1037L1039.75 155.58H1043.51L1043.53 167.29H1041.29L1041.27 157.622H1041.25L1038.11 167.29H1035.87L1032.69 157.643L1032.65 157.683L1032.67 167.31H1030.43L1030.41 155.6Z" fill="white"/>
<path d="M1044.95 165.105C1045.77 165.435 1046.65 165.613 1047.54 165.631C1048.51 165.631 1050.01 165.146 1050.01 163.973C1050.01 162.8 1048.91 162.132 1047.42 162.132H1046.2V160.292H1047.27C1048.85 160.292 1049.86 159.766 1049.86 158.755C1049.86 157.744 1048.99 157.157 1047.92 157.157C1047.01 157.166 1046.11 157.38 1045.29 157.784L1045.15 155.903C1046.2 155.503 1047.31 155.297 1048.43 155.296C1049.86 155.296 1052.29 155.802 1052.29 158.29C1052.32 158.95 1052.12 159.6 1051.73 160.131C1051.33 160.661 1050.77 161.04 1050.13 161.202C1050.77 161.307 1051.35 161.651 1051.74 162.165C1052.14 162.679 1052.33 163.325 1052.27 163.973C1052.27 166.764 1049.74 167.472 1047.8 167.472C1046.76 167.482 1045.73 167.353 1044.73 167.087L1044.95 165.105Z" fill="white"/>
<path d="M1052.8 162.942L1057.17 155.54H1060.08V163.063H1061.57V164.802H1060.08V167.27H1057.85V164.843H1052.82L1052.8 162.942ZM1057.85 163.083V157.987L1054.92 163.083H1057.85Z" fill="white"/>
</g>
<g clip-path="url(#clip4_496_6087)">
<path d="M986 161C986 151.082 994.082 143 1004 143C1013.92 143 1022 151.082 1022 161C1022 170.918 1013.92 179 1004 179C994.082 179 986 170.918 986 161Z" fill="#00A94F"/>
<path d="M988.43 154.934H992.48L995.306 164.24L998.132 154.934H1001.98V167.066H999.752V157.166L996.512 167.066H994.082L990.86 157.166V167.066H988.43V154.934Z" fill="white"/>
<path d="M1007.44 154.934H1009.67V167.066H1007.24V157.76L1005.21 159.38L1004 157.958L1007.44 154.934Z" fill="white"/>
<path d="M1012.3 164.834C1013.11 165.23 1014.12 165.446 1014.93 165.446C1015.93 165.446 1017.55 165.05 1017.55 163.826C1017.55 162.404 1016.35 162.008 1014.93 162.008H1013.72V160.19H1014.73C1016.35 160.19 1017.36 159.578 1017.36 158.57C1017.36 157.364 1016.35 156.95 1015.34 156.95C1014.33 156.95 1013.52 157.148 1012.71 157.562L1012.51 155.546C1013.52 155.15 1014.75 154.934 1015.95 154.934C1017.37 154.934 1020 155.546 1020 157.976C1020 159.596 1018.99 160.406 1017.77 160.802C1019.39 161 1020 162.224 1020 163.628C1020 166.454 1017.37 167.264 1015.36 167.264C1014.35 167.264 1013.13 167.066 1012.12 166.868L1012.3 164.834Z" fill="white"/>
</g>
<g clip-path="url(#clip5_496_6087)">
<path d="M1577.03 179C1573.46 179.011 1569.97 177.962 1566.99 175.988C1564.02 174.013 1561.7 171.201 1560.33 167.907C1558.96 164.614 1558.6 160.988 1559.29 157.488C1559.98 153.989 1561.7 150.773 1564.22 148.249C1566.74 145.725 1569.96 144.007 1573.46 143.311C1576.96 142.615 1580.59 142.974 1583.88 144.341C1587.18 145.709 1590 148.023 1591.98 150.992C1593.95 153.961 1595.01 157.45 1595 161.017C1594.99 165.78 1593.1 170.346 1589.73 173.716C1586.36 177.085 1581.79 178.985 1577.03 179Z" fill="#673065"/>
<path d="M1565.73 155.162H1569.41L1572.14 163.86H1572.18L1574.91 155.162H1578.59V166.643H1576.38V157.169H1576.35L1573.26 166.643H1571.05L1567.96 157.169L1567.93 157.199V166.643H1565.73V155.162Z" fill="white"/>
<path d="M1587.97 156.868H1583.54L1583.49 159.321C1583.83 159.248 1584.18 159.209 1584.54 159.206C1586.15 159.206 1588.24 159.961 1588.24 162.939C1588.24 165.096 1586.74 166.838 1583.77 166.838C1582.87 166.829 1581.97 166.724 1581.1 166.523L1581.15 164.466C1581.88 164.814 1582.68 165.003 1583.5 165.021C1584.7 165.021 1585.95 164.461 1585.95 162.994C1585.95 161.528 1584.63 160.992 1583.32 160.992C1582.62 160.99 1581.93 161.095 1581.26 161.303L1581.38 155.137H1587.97V156.868Z" fill="white"/>
</g>
<defs>
<clipPath id="clip0_496_6087">
<rect width="36" height="36" fill="white" transform="translate(640 143)"/>
</clipPath>
<clipPath id="clip1_496_6087">
<rect width="36" height="36" fill="white" transform="translate(270 143)"/>
</clipPath>
<clipPath id="clip2_496_6087">
<rect width="36" height="36" fill="white" transform="translate(455 143)"/>
</clipPath>
<clipPath id="clip3_496_6087">
<rect width="36" height="36" fill="white" transform="translate(1028 143)"/>
</clipPath>
<clipPath id="clip4_496_6087">
<rect width="36" height="36" fill="white" transform="translate(986 143)"/>
</clipPath>
<clipPath id="clip5_496_6087">
<rect width="36" height="36" fill="white" transform="translate(1559 143)"/>
</clipPath>
</defs>
</svg>
