<svg xmlns="http://www.w3.org/2000/svg" viewBox="0 0 17.8 17.8"><defs><style>.cls-1{fill:#c9d200;}.cls-2{fill:#fff;}</style></defs><title>M12 symbol</title><g id="Layer_2" data-name="Layer 2"><g id="Layer_1-2" data-name="Layer 1"><path class="cls-1" d="M0,8.9a8.9,8.9,0,1,1,8.9,8.9A8.92,8.92,0,0,1,0,8.9"/><polygon class="cls-2" points="1.2 5.9 3.2 5.9 4.6 10.4 4.6 10.4 6 5.9 7.9 5.9 7.9 11.9 6.8 11.9 6.8 7 6.8 7 5.2 11.9 4 11.9 2.4 7 2.4 7 2.4 11.9 1.2 11.9 1.2 5.9"/><polygon class="cls-2" points="10.6 5.9 11.7 5.9 11.7 11.9 10.5 11.9 10.5 7.3 9.5 8.1 8.9 7.3 10.6 5.9"/><path class="cls-2" d="M12.9,11.9v-1c.6-.5,2.6-2.2,2.6-3.3a.91.91,0,0,0-1-.8,2.39,2.39,0,0,0-1.4.5l-.1-1a3.66,3.66,0,0,1,1.8-.4,1.69,1.69,0,0,1,1.9,1.7c0,1.3-1.3,2.4-2.2,3.4h2.4v.9Z"/></g></g></svg>