<svg id="Layer_1" data-name="Layer 1" xmlns="http://www.w3.org/2000/svg" viewBox="0 0 71.86 71.95"><defs><style>.cls-1{fill:#e1251b;}.cls-2{fill:#fff;}</style></defs><path class="cls-1" d="M35.93,72A36,36,0,1,1,71.86,36,36,36,0,0,1,35.93,72"/><polygon class="cls-2" points="6.49 25.15 13.43 25.15 18.57 41.56 18.64 41.56 23.78 25.15 30.72 25.15 30.72 46.8 26.57 46.8 26.57 28.93 26.51 28.93 20.68 46.8 16.53 46.8 10.7 28.93 10.64 28.99 10.64 46.8 6.49 46.8 6.49 25.15"/><polygon class="cls-2" points="42.02 25.15 45.86 25.15 45.86 46.8 41.53 46.8 41.53 30.08 37.87 33.06 35.7 30.23 42.02 25.15"/><path class="cls-2" d="M52.16,32.36h5.05c1.86,0,4.64.54,4.64,3.71A3.23,3.23,0,0,1,59,39.3v0a3.35,3.35,0,0,1,3.31,3.29c0,3.64-3.27,4.17-5.08,4.17H52.16Zm2.9,5.84h1.17c1.22,0,2.73-.27,2.73-1.76,0-1.68-1.46-1.8-2.79-1.8H55.06Zm0,6.33h1.36c1.34,0,3-.33,3-2,0-1.88-1.53-2.17-3-2.17H55.06Z"/></svg>