<svg id="Layer_1" data-name="Layer 1" xmlns="http://www.w3.org/2000/svg" viewBox="0 0 71.86 71.95"><defs><style>.cls-1{fill:#00a7e1;}.cls-2{fill:#fff;}</style></defs><path class="cls-1" d="M35.93,72A36,36,0,1,1,71.86,36,36,36,0,0,1,35.93,72"/><polygon class="cls-2" points="12.53 24.32 20.01 24.32 25.55 41.99 25.61 41.99 31.15 24.32 38.62 24.32 38.62 47.63 34.15 47.63 34.15 28.39 34.09 28.39 27.82 47.63 23.34 47.63 17.07 28.39 17 28.46 17 47.63 12.53 47.63 12.53 24.32"/><path class="cls-2" d="M43.11,43.29a14.13,14.13,0,0,0,5.18,1.07c1.93,0,4.9-.94,4.9-3.31,0-2.74-2.17-3.64-5.14-3.64H45.78V33.73h2.14c3.13,0,5.17-1,5.17-3.07,0-2.34-1.9-3.07-4-3.07a11.7,11.7,0,0,0-5.23,1.24l-.27-3.74a17.82,17.82,0,0,1,6.51-1.18c2.86,0,7.67,1,7.67,6,0,3.18-2,4.68-4.34,5.58v.07c3,.4,4.44,2.71,4.44,5.54,0,5.55-5,7-8.91,7a23.69,23.69,0,0,1-6.1-.77Z"/></svg>