<svg width="2984" height="200" viewBox="0 0 2984 200" fill="none" xmlns="http://www.w3.org/2000/svg">
<path d="M100 100H2884" stroke="#673065" stroke-width="20"/>
<circle cx="473" cy="100" r="21" fill="#673065"/>
<circle cx="473" cy="100" r="13" fill="white"/>
<circle cx="288" cy="100" r="21" fill="#673065"/>
<circle cx="288" cy="100" r="13" fill="white"/>
<circle cx="843" cy="100" r="21" fill="#673065"/>
<circle cx="843" cy="100" r="13" fill="white"/>
<circle cx="1025" cy="100" r="21" fill="#673065"/>
<circle cx="1025" cy="100" r="13" fill="white"/>
<circle cx="1577" cy="100" r="21" fill="#673065"/>
<circle cx="1577" cy="100" r="13" fill="white"/>
<circle cx="1759" cy="100" r="21" fill="#673065"/>
<circle cx="1759" cy="100" r="13" fill="white"/>
<circle cx="1944" cy="100" r="21" fill="#673065"/>
<circle cx="1944" cy="100" r="13" fill="white"/>
<circle cx="2132" cy="100" r="21" fill="#673065"/>
<circle cx="2132" cy="100" r="13" fill="white"/>
<circle cx="2320" cy="100" r="21" fill="#673065"/>
<circle cx="2320" cy="100" r="13" fill="white"/>
<circle cx="2696" cy="100" r="21" fill="#673065"/>
<circle cx="2696" cy="100" r="13" fill="white"/>
<circle cx="1207" cy="100" r="21" fill="#673065"/>
<circle cx="1207" cy="100" r="13" fill="white"/>
<circle cx="100" cy="100" r="24" fill="black"/>
<ellipse cx="100.001" cy="99.9939" rx="19.2" ry="19.2" fill="white"/>
<circle cx="658" cy="100" r="24" fill="black"/>
<ellipse cx="658.001" cy="99.9939" rx="19.2" ry="19.2" fill="white"/>
<circle cx="1392" cy="100" r="24" fill="black"/>
<ellipse cx="1392" cy="99.9939" rx="19.2" ry="19.2" fill="white"/>
<circle cx="1207" cy="100" r="24" fill="black"/>
<ellipse cx="1207" cy="99.9939" rx="19.2" ry="19.2" fill="white"/>
<circle cx="2508" cy="100" r="24" fill="black"/>
<ellipse cx="2508" cy="99.9939" rx="19.2" ry="19.2" fill="white"/>
<circle cx="2884" cy="100" r="24" fill="black"/>
<ellipse cx="2884" cy="99.9939" rx="19.2" ry="19.2" fill="white"/>
<circle cx="2884" cy="100" r="24" fill="#673065"/>
<path d="M56.6982 58.288C54.2982 58.288 52.4262 57.624 51.0822 56.296C49.7542 54.968 49.0902 53.072 49.0902 50.608V41.2H52.9782V50.464C52.9782 53.472 54.2262 54.976 56.7222 54.976C57.9382 54.976 58.8662 54.616 59.5062 53.896C60.1462 53.16 60.4662 52.016 60.4662 50.464V41.2H64.3062V50.608C64.3062 53.072 63.6342 54.968 62.2902 56.296C60.9622 57.624 59.0982 58.288 56.6982 58.288ZM54.2982 39.712C53.8182 39.712 53.4182 39.56 53.0982 39.256C52.7782 38.936 52.6182 38.536 52.6182 38.056C52.6182 37.576 52.7782 37.184 53.0982 36.88C53.4182 36.56 53.8182 36.4 54.2982 36.4C54.7782 36.4 55.1702 36.56 55.4742 36.88C55.7942 37.184 55.9542 37.576 55.9542 38.056C55.9542 38.536 55.7942 38.936 55.4742 39.256C55.1702 39.56 54.7782 39.712 54.2982 39.712ZM59.1462 39.712C58.6662 39.712 58.2662 39.56 57.9462 39.256C57.6422 38.936 57.4902 38.536 57.4902 38.056C57.4902 37.576 57.6422 37.184 57.9462 36.88C58.2662 36.56 58.6662 36.4 59.1462 36.4C59.6262 36.4 60.0262 36.56 60.3462 36.88C60.6662 37.184 60.8262 37.576 60.8262 38.056C60.8262 38.536 60.6662 38.936 60.3462 39.256C60.0262 39.56 59.6262 39.712 59.1462 39.712ZM72.2283 58.192C71.1563 58.192 70.1083 58.064 69.0843 57.808C68.0603 57.536 67.2443 57.2 66.6363 56.8L67.8843 54.112C68.4603 54.48 69.1563 54.784 69.9723 55.024C70.7883 55.248 71.5883 55.36 72.3723 55.36C73.9563 55.36 74.7483 54.968 74.7483 54.184C74.7483 53.816 74.5323 53.552 74.1003 53.392C73.6683 53.232 73.0043 53.096 72.1083 52.984C71.0523 52.824 70.1803 52.64 69.4923 52.432C68.8043 52.224 68.2043 51.856 67.6923 51.328C67.1963 50.8 66.9482 50.048 66.9482 49.072C66.9482 48.256 67.1803 47.536 67.6443 46.912C68.1243 46.272 68.8123 45.776 69.7083 45.424C70.6203 45.072 71.6923 44.896 72.9243 44.896C73.8363 44.896 74.7403 45 75.6363 45.208C76.5483 45.4 77.3003 45.672 77.8923 46.024L76.6443 48.688C75.5083 48.048 74.2683 47.728 72.9243 47.728C72.1243 47.728 71.5243 47.84 71.1243 48.064C70.7243 48.288 70.5243 48.576 70.5243 48.928C70.5243 49.328 70.7403 49.608 71.1723 49.768C71.6043 49.928 72.2923 50.08 73.2363 50.224C74.2923 50.4 75.1563 50.592 75.8283 50.8C76.5003 50.992 77.0843 51.352 77.5803 51.88C78.0763 52.408 78.3243 53.144 78.3243 54.088C78.3243 54.888 78.0843 55.6 77.6043 56.224C77.1243 56.848 76.4203 57.336 75.4923 57.688C74.5803 58.024 73.4923 58.192 72.2283 58.192ZM86.1783 52.936L84.3783 54.712V58H80.6343V40.192H84.3783V50.272L89.8503 45.088H94.3143L88.9383 50.56L94.7943 58H90.2583L86.1783 52.936ZM109.252 45.088V58H105.7V56.464C105.204 57.024 104.612 57.456 103.924 57.76C103.236 58.048 102.492 58.192 101.692 58.192C99.9956 58.192 98.6516 57.704 97.6596 56.728C96.6676 55.752 96.1716 54.304 96.1716 52.384V45.088H99.9156V51.832C99.9156 53.912 100.788 54.952 102.532 54.952C103.428 54.952 104.148 54.664 104.692 54.088C105.236 53.496 105.508 52.624 105.508 51.472V45.088H109.252ZM100.276 43.312C99.7956 43.312 99.3956 43.16 99.0756 42.856C98.7556 42.536 98.5956 42.136 98.5956 41.656C98.5956 41.176 98.7556 40.784 99.0756 40.48C99.3956 40.16 99.7956 40 100.276 40C100.756 40 101.148 40.16 101.452 40.48C101.772 40.784 101.932 41.176 101.932 41.656C101.932 42.136 101.772 42.536 101.452 42.856C101.148 43.16 100.756 43.312 100.276 43.312ZM105.124 43.312C104.644 43.312 104.244 43.16 103.924 42.856C103.62 42.536 103.468 42.136 103.468 41.656C103.468 41.176 103.62 40.784 103.924 40.48C104.244 40.16 104.644 40 105.124 40C105.604 40 106.004 40.16 106.324 40.48C106.644 40.784 106.804 41.176 106.804 41.656C106.804 42.136 106.644 42.536 106.324 42.856C106.004 43.16 105.604 43.312 105.124 43.312ZM125.872 40.192V58H122.296V56.512C121.368 57.632 120.024 58.192 118.264 58.192C117.048 58.192 115.944 57.92 114.952 57.376C113.976 56.832 113.208 56.056 112.648 55.048C112.088 54.04 111.808 52.872 111.808 51.544C111.808 50.216 112.088 49.048 112.648 48.04C113.208 47.032 113.976 46.256 114.952 45.712C115.944 45.168 117.048 44.896 118.264 44.896C119.912 44.896 121.2 45.416 122.128 46.456V40.192H125.872ZM118.912 55.12C119.856 55.12 120.64 54.8 121.264 54.16C121.888 53.504 122.2 52.632 122.2 51.544C122.2 50.456 121.888 49.592 121.264 48.952C120.64 48.296 119.856 47.968 118.912 47.968C117.952 47.968 117.16 48.296 116.536 48.952C115.912 49.592 115.6 50.456 115.6 51.544C115.6 52.632 115.912 53.504 116.536 54.16C117.16 54.8 117.952 55.12 118.912 55.12ZM134.545 44.896C136.545 44.896 138.081 45.376 139.153 46.336C140.225 47.28 140.761 48.712 140.761 50.632V58H137.257V56.392C136.553 57.592 135.241 58.192 133.321 58.192C132.329 58.192 131.465 58.024 130.729 57.688C130.009 57.352 129.457 56.888 129.073 56.296C128.689 55.704 128.497 55.032 128.497 54.28C128.497 53.08 128.945 52.136 129.841 51.448C130.753 50.76 132.153 50.416 134.041 50.416H137.017C137.017 49.6 136.769 48.976 136.273 48.544C135.777 48.096 135.033 47.872 134.041 47.872C133.353 47.872 132.673 47.984 132.001 48.208C131.345 48.416 130.785 48.704 130.321 49.072L128.977 46.456C129.681 45.96 130.521 45.576 131.497 45.304C132.489 45.032 133.505 44.896 134.545 44.896ZM134.257 55.672C134.897 55.672 135.465 55.528 135.961 55.24C136.457 54.936 136.809 54.496 137.017 53.92V52.6H134.449C132.913 52.6 132.145 53.104 132.145 54.112C132.145 54.592 132.329 54.976 132.697 55.264C133.081 55.536 133.601 55.672 134.257 55.672ZM147.726 46.792C148.174 46.168 148.774 45.696 149.526 45.376C150.294 45.056 151.174 44.896 152.166 44.896V48.352C151.75 48.32 151.47 48.304 151.326 48.304C150.254 48.304 149.414 48.608 148.806 49.216C148.198 49.808 147.894 50.704 147.894 51.904V58H144.15V45.088H147.726V46.792Z" fill="black"/>
<path d="M226.165 44.32V48.76H233.941V51.88H226.165V58H222.277V41.2H234.973V44.32H226.165ZM237.107 45.088H240.851V58H237.107V45.088ZM248.67 58.192C247.598 58.192 246.55 58.064 245.526 57.808C244.502 57.536 243.686 57.2 243.078 56.8L244.326 54.112C244.902 54.48 245.598 54.784 246.414 55.024C247.23 55.248 248.03 55.36 248.814 55.36C250.398 55.36 251.19 54.968 251.19 54.184C251.19 53.816 250.974 53.552 250.542 53.392C250.11 53.232 249.446 53.096 248.55 52.984C247.494 52.824 246.622 52.64 245.934 52.432C245.246 52.224 244.646 51.856 244.134 51.328C243.638 50.8 243.39 50.048 243.39 49.072C243.39 48.256 243.622 47.536 244.086 46.912C244.566 46.272 245.254 45.776 246.15 45.424C247.062 45.072 248.134 44.896 249.366 44.896C250.278 44.896 251.182 45 252.078 45.208C252.99 45.4 253.742 45.672 254.334 46.024L253.086 48.688C251.95 48.048 250.71 47.728 249.366 47.728C248.566 47.728 247.966 47.84 247.566 48.064C247.166 48.288 246.966 48.576 246.966 48.928C246.966 49.328 247.182 49.608 247.614 49.768C248.046 49.928 248.734 50.08 249.678 50.224C250.734 50.4 251.598 50.592 252.27 50.8C252.942 50.992 253.526 51.352 254.022 51.88C254.518 52.408 254.766 53.144 254.766 54.088C254.766 54.888 254.526 55.6 254.046 56.224C253.566 56.848 252.862 57.336 251.934 57.688C251.022 58.024 249.934 58.192 248.67 58.192ZM265.404 57.376C265.036 57.648 264.58 57.856 264.036 58C263.508 58.128 262.948 58.192 262.356 58.192C260.82 58.192 259.628 57.8 258.78 57.016C257.948 56.232 257.532 55.08 257.532 53.56V48.256H255.54V45.376H257.532V42.232H261.276V45.376H264.492V48.256H261.276V53.512C261.276 54.056 261.412 54.48 261.684 54.784C261.972 55.072 262.372 55.216 262.884 55.216C263.476 55.216 263.98 55.056 264.396 54.736L265.404 57.376ZM267.505 45.088H271.249V58H267.505V45.088ZM280.268 52.936L278.468 54.712V58H274.724V40.192H278.468V50.272L283.94 45.088H288.404L283.028 50.56L288.884 58H284.348L280.268 52.936ZM295.541 44.896C297.541 44.896 299.077 45.376 300.149 46.336C301.221 47.28 301.757 48.712 301.757 50.632V58H298.253V56.392C297.549 57.592 296.237 58.192 294.317 58.192C293.325 58.192 292.461 58.024 291.725 57.688C291.005 57.352 290.453 56.888 290.069 56.296C289.685 55.704 289.493 55.032 289.493 54.28C289.493 53.08 289.941 52.136 290.837 51.448C291.749 50.76 293.149 50.416 295.037 50.416H298.013C298.013 49.6 297.765 48.976 297.269 48.544C296.773 48.096 296.029 47.872 295.037 47.872C294.349 47.872 293.669 47.984 292.997 48.208C292.341 48.416 291.781 48.704 291.317 49.072L289.973 46.456C290.677 45.96 291.517 45.576 292.493 45.304C293.485 45.032 294.501 44.896 295.541 44.896ZM295.253 55.672C295.893 55.672 296.461 55.528 296.957 55.24C297.453 54.936 297.805 54.496 298.013 53.92V52.6H295.445C293.909 52.6 293.141 53.104 293.141 54.112C293.141 54.592 293.325 54.976 293.693 55.264C294.077 55.536 294.597 55.672 295.253 55.672ZM318.607 45.088V55.84C318.607 58.208 317.991 59.968 316.759 61.12C315.527 62.272 313.727 62.848 311.359 62.848C310.111 62.848 308.927 62.696 307.807 62.392C306.687 62.088 305.759 61.648 305.023 61.072L306.511 58.384C307.055 58.832 307.743 59.184 308.575 59.44C309.407 59.712 310.239 59.848 311.071 59.848C312.367 59.848 313.319 59.552 313.927 58.96C314.551 58.384 314.863 57.504 314.863 56.32V55.768C313.887 56.84 312.527 57.376 310.783 57.376C309.599 57.376 308.511 57.12 307.519 56.608C306.543 56.08 305.767 55.344 305.191 54.4C304.615 53.456 304.327 52.368 304.327 51.136C304.327 49.904 304.615 48.816 305.191 47.872C305.767 46.928 306.543 46.2 307.519 45.688C308.511 45.16 309.599 44.896 310.783 44.896C312.655 44.896 314.079 45.512 315.055 46.744V45.088H318.607ZM311.527 54.304C312.519 54.304 313.327 54.016 313.951 53.44C314.591 52.848 314.911 52.08 314.911 51.136C314.911 50.192 314.591 49.432 313.951 48.856C313.327 48.264 312.519 47.968 311.527 47.968C310.535 47.968 309.719 48.264 309.079 48.856C308.439 49.432 308.119 50.192 308.119 51.136C308.119 52.08 308.439 52.848 309.079 53.44C309.719 54.016 310.535 54.304 311.527 54.304ZM311.743 43.624C310.479 43.624 309.439 43.296 308.623 42.64C307.807 41.984 307.375 41.096 307.327 39.976H309.679C309.695 40.488 309.895 40.904 310.279 41.224C310.679 41.528 311.167 41.68 311.743 41.68C312.319 41.68 312.799 41.528 313.183 41.224C313.583 40.904 313.791 40.488 313.807 39.976H316.159C316.111 41.096 315.679 41.984 314.863 42.64C314.047 43.296 313.007 43.624 311.743 43.624ZM327.299 44.896C329.299 44.896 330.835 45.376 331.907 46.336C332.979 47.28 333.515 48.712 333.515 50.632V58H330.011V56.392C329.307 57.592 327.995 58.192 326.075 58.192C325.083 58.192 324.219 58.024 323.483 57.688C322.763 57.352 322.211 56.888 321.827 56.296C321.443 55.704 321.251 55.032 321.251 54.28C321.251 53.08 321.699 52.136 322.595 51.448C323.507 50.76 324.907 50.416 326.795 50.416H329.771C329.771 49.6 329.523 48.976 329.027 48.544C328.531 48.096 327.787 47.872 326.795 47.872C326.107 47.872 325.427 47.984 324.755 48.208C324.099 48.416 323.539 48.704 323.075 49.072L321.731 46.456C322.435 45.96 323.275 45.576 324.251 45.304C325.243 45.032 326.259 44.896 327.299 44.896ZM327.011 55.672C327.651 55.672 328.219 55.528 328.715 55.24C329.211 54.936 329.563 54.496 329.771 53.92V52.6H327.203C325.667 52.6 324.899 53.104 324.899 54.112C324.899 54.592 325.083 54.976 325.451 55.264C325.835 55.536 326.355 55.672 327.011 55.672ZM343.284 58.192C341.908 58.192 340.668 57.912 339.564 57.352C338.476 56.776 337.62 55.984 336.996 54.976C336.388 53.968 336.084 52.824 336.084 51.544C336.084 50.264 336.388 49.12 336.996 48.112C337.62 47.104 338.476 46.32 339.564 45.76C340.668 45.184 341.908 44.896 343.284 44.896C344.644 44.896 345.828 45.184 346.836 45.76C347.86 46.32 348.604 47.128 349.068 48.184L346.164 49.744C345.492 48.56 344.524 47.968 343.26 47.968C342.284 47.968 341.476 48.288 340.836 48.928C340.196 49.568 339.876 50.44 339.876 51.544C339.876 52.648 340.196 53.52 340.836 54.16C341.476 54.8 342.284 55.12 343.26 55.12C344.54 55.12 345.508 54.528 346.164 53.344L349.068 54.928C348.604 55.952 347.86 56.752 346.836 57.328C345.828 57.904 344.644 58.192 343.284 58.192ZM351.224 45.088H354.968V58H351.224V45.088Z" fill="black"/>
<path d="M420.566 49.264C421.526 49.568 422.278 50.08 422.822 50.8C423.366 51.504 423.638 52.376 423.638 53.416C423.638 54.888 423.062 56.024 421.91 56.824C420.774 57.608 419.11 58 416.918 58H408.23V41.2H416.438C418.486 41.2 420.054 41.592 421.142 42.376C422.246 43.16 422.798 44.224 422.798 45.568C422.798 46.384 422.598 47.112 422.198 47.752C421.814 48.392 421.27 48.896 420.566 49.264ZM412.094 44.128V48.088H415.958C416.918 48.088 417.646 47.92 418.142 47.584C418.638 47.248 418.886 46.752 418.886 46.096C418.886 45.44 418.638 44.952 418.142 44.632C417.646 44.296 416.918 44.128 415.958 44.128H412.094ZM416.63 55.072C417.654 55.072 418.422 54.904 418.934 54.568C419.462 54.232 419.726 53.712 419.726 53.008C419.726 51.616 418.694 50.92 416.63 50.92H412.094V55.072H416.63ZM431.526 44.896C433.526 44.896 435.062 45.376 436.134 46.336C437.206 47.28 437.742 48.712 437.742 50.632V58H434.238V56.392C433.534 57.592 432.222 58.192 430.302 58.192C429.31 58.192 428.446 58.024 427.71 57.688C426.99 57.352 426.438 56.888 426.054 56.296C425.67 55.704 425.478 55.032 425.478 54.28C425.478 53.08 425.926 52.136 426.822 51.448C427.734 50.76 429.134 50.416 431.022 50.416H433.998C433.998 49.6 433.75 48.976 433.254 48.544C432.758 48.096 432.014 47.872 431.022 47.872C430.334 47.872 429.654 47.984 428.982 48.208C428.326 48.416 427.766 48.704 427.302 49.072L425.958 46.456C426.662 45.96 427.502 45.576 428.478 45.304C429.47 45.032 430.486 44.896 431.526 44.896ZM431.238 55.672C431.878 55.672 432.446 55.528 432.942 55.24C433.438 54.936 433.79 54.496 433.998 53.92V52.6H431.43C429.894 52.6 429.126 53.104 429.126 54.112C429.126 54.592 429.31 54.976 429.678 55.264C430.062 55.536 430.582 55.672 431.238 55.672ZM454.591 45.088V55.84C454.591 58.208 453.975 59.968 452.743 61.12C451.511 62.272 449.711 62.848 447.343 62.848C446.095 62.848 444.911 62.696 443.791 62.392C442.671 62.088 441.743 61.648 441.007 61.072L442.495 58.384C443.039 58.832 443.727 59.184 444.559 59.44C445.391 59.712 446.223 59.848 447.055 59.848C448.351 59.848 449.303 59.552 449.911 58.96C450.535 58.384 450.847 57.504 450.847 56.32V55.768C449.871 56.84 448.511 57.376 446.767 57.376C445.583 57.376 444.495 57.12 443.503 56.608C442.527 56.08 441.751 55.344 441.175 54.4C440.599 53.456 440.311 52.368 440.311 51.136C440.311 49.904 440.599 48.816 441.175 47.872C441.751 46.928 442.527 46.2 443.503 45.688C444.495 45.16 445.583 44.896 446.767 44.896C448.639 44.896 450.063 45.512 451.039 46.744V45.088H454.591ZM447.511 54.304C448.503 54.304 449.311 54.016 449.935 53.44C450.575 52.848 450.895 52.08 450.895 51.136C450.895 50.192 450.575 49.432 449.935 48.856C449.311 48.264 448.503 47.968 447.511 47.968C446.519 47.968 445.703 48.264 445.063 48.856C444.423 49.432 444.103 50.192 444.103 51.136C444.103 52.08 444.423 52.848 445.063 53.44C445.703 54.016 446.519 54.304 447.511 54.304ZM447.727 43.624C446.463 43.624 445.423 43.296 444.607 42.64C443.791 41.984 443.359 41.096 443.311 39.976H445.663C445.679 40.488 445.879 40.904 446.263 41.224C446.663 41.528 447.151 41.68 447.727 41.68C448.303 41.68 448.783 41.528 449.167 41.224C449.567 40.904 449.775 40.488 449.791 39.976H452.143C452.095 41.096 451.663 41.984 450.847 42.64C450.031 43.296 448.991 43.624 447.727 43.624ZM458.076 40.192H461.82V58H458.076V40.192ZM470.502 44.896C472.502 44.896 474.038 45.376 475.11 46.336C476.182 47.28 476.718 48.712 476.718 50.632V58H473.214V56.392C472.51 57.592 471.198 58.192 469.278 58.192C468.286 58.192 467.422 58.024 466.686 57.688C465.966 57.352 465.414 56.888 465.03 56.296C464.646 55.704 464.454 55.032 464.454 54.28C464.454 53.08 464.902 52.136 465.798 51.448C466.71 50.76 468.11 50.416 469.998 50.416H472.974C472.974 49.6 472.726 48.976 472.23 48.544C471.734 48.096 470.99 47.872 469.998 47.872C469.31 47.872 468.63 47.984 467.958 48.208C467.302 48.416 466.742 48.704 466.278 49.072L464.934 46.456C465.638 45.96 466.478 45.576 467.454 45.304C468.446 45.032 469.462 44.896 470.502 44.896ZM470.214 55.672C470.854 55.672 471.422 55.528 471.918 55.24C472.414 54.936 472.766 54.496 472.974 53.92V52.6H470.406C468.87 52.6 468.102 53.104 468.102 54.112C468.102 54.592 468.286 54.976 468.654 55.264C469.038 55.536 469.558 55.672 470.214 55.672ZM483.683 46.792C484.131 46.168 484.731 45.696 485.483 45.376C486.251 45.056 487.131 44.896 488.123 44.896V48.352C487.707 48.32 487.427 48.304 487.283 48.304C486.211 48.304 485.371 48.608 484.763 49.216C484.155 49.808 483.851 50.704 483.851 51.904V58H480.107V45.088H483.683V46.792ZM497.981 44.896C499.181 44.896 500.269 45.176 501.245 45.736C502.237 46.28 503.013 47.056 503.573 48.064C504.133 49.056 504.413 50.216 504.413 51.544C504.413 52.872 504.133 54.04 503.573 55.048C503.013 56.04 502.237 56.816 501.245 57.376C500.269 57.92 499.181 58.192 497.981 58.192C496.205 58.192 494.853 57.632 493.925 56.512V58H490.349V40.192H494.093V46.456C495.037 45.416 496.333 44.896 497.981 44.896ZM497.333 55.12C498.293 55.12 499.077 54.8 499.685 54.16C500.309 53.504 500.621 52.632 500.621 51.544C500.621 50.456 500.309 49.592 499.685 48.952C499.077 48.296 498.293 47.968 497.333 47.968C496.373 47.968 495.581 48.296 494.957 48.952C494.349 49.592 494.045 50.456 494.045 51.544C494.045 52.632 494.349 53.504 494.957 54.16C495.581 54.8 496.373 55.12 497.333 55.12ZM511.916 44.896C513.916 44.896 515.452 45.376 516.524 46.336C517.596 47.28 518.132 48.712 518.132 50.632V58H514.628V56.392C513.924 57.592 512.612 58.192 510.692 58.192C509.7 58.192 508.836 58.024 508.1 57.688C507.38 57.352 506.828 56.888 506.444 56.296C506.06 55.704 505.868 55.032 505.868 54.28C505.868 53.08 506.316 52.136 507.212 51.448C508.124 50.76 509.524 50.416 511.412 50.416H514.388C514.388 49.6 514.14 48.976 513.644 48.544C513.148 48.096 512.404 47.872 511.412 47.872C510.724 47.872 510.044 47.984 509.372 48.208C508.716 48.416 508.156 48.704 507.692 49.072L506.348 46.456C507.052 45.96 507.892 45.576 508.868 45.304C509.86 45.032 510.876 44.896 511.916 44.896ZM511.628 55.672C512.268 55.672 512.836 55.528 513.332 55.24C513.828 54.936 514.18 54.496 514.388 53.92V52.6H511.82C510.284 52.6 509.516 53.104 509.516 54.112C509.516 54.592 509.7 54.976 510.068 55.264C510.452 55.536 510.972 55.672 511.628 55.672ZM525.865 58.192C524.793 58.192 523.745 58.064 522.721 57.808C521.697 57.536 520.881 57.2 520.273 56.8L521.521 54.112C522.097 54.48 522.793 54.784 523.609 55.024C524.425 55.248 525.225 55.36 526.009 55.36C527.593 55.36 528.385 54.968 528.385 54.184C528.385 53.816 528.169 53.552 527.737 53.392C527.305 53.232 526.641 53.096 525.745 52.984C524.689 52.824 523.817 52.64 523.129 52.432C522.441 52.224 521.841 51.856 521.329 51.328C520.833 50.8 520.585 50.048 520.585 49.072C520.585 48.256 520.817 47.536 521.281 46.912C521.761 46.272 522.449 45.776 523.345 45.424C524.257 45.072 525.329 44.896 526.561 44.896C527.473 44.896 528.377 45 529.273 45.208C530.185 45.4 530.937 45.672 531.529 46.024L530.281 48.688C529.145 48.048 527.905 47.728 526.561 47.728C525.761 47.728 525.161 47.84 524.761 48.064C524.361 48.288 524.161 48.576 524.161 48.928C524.161 49.328 524.377 49.608 524.809 49.768C525.241 49.928 525.929 50.08 526.873 50.224C527.929 50.4 528.793 50.592 529.465 50.8C530.137 50.992 530.721 51.352 531.217 51.88C531.713 52.408 531.961 53.144 531.961 54.088C531.961 54.888 531.721 55.6 531.241 56.224C530.761 56.848 530.057 57.336 529.129 57.688C528.217 58.024 527.129 58.192 525.865 58.192ZM525.265 63.568C524.849 63.568 524.441 63.52 524.041 63.424C523.641 63.344 523.305 63.224 523.033 63.064L523.609 61.456C524.121 61.696 524.641 61.816 525.169 61.816C526.001 61.816 526.417 61.56 526.417 61.048C526.417 60.584 526.025 60.352 525.241 60.352H524.425L525.049 57.808H527.041L526.705 59.2C527.409 59.28 527.929 59.496 528.265 59.848C528.617 60.216 528.793 60.664 528.793 61.192C528.793 61.928 528.473 62.504 527.833 62.92C527.193 63.352 526.337 63.568 525.265 63.568ZM534.271 45.088H538.015V58H534.271V45.088Z" fill="black"/>
<path d="M603.06 54.4H595.26L593.772 58H589.788L597.276 41.2H601.116L608.628 58H604.548L603.06 54.4ZM601.836 51.448L599.172 45.016L596.508 51.448H601.836ZM610.107 40.192H613.851V58H610.107V40.192ZM626.591 57.376C626.223 57.648 625.767 57.856 625.223 58C624.695 58.128 624.135 58.192 623.543 58.192C622.007 58.192 620.815 57.8 619.967 57.016C619.135 56.232 618.719 55.08 618.719 53.56V48.256H616.727V45.376H618.719V42.232H622.463V45.376H625.679V48.256H622.463V53.512C622.463 54.056 622.599 54.48 622.871 54.784C623.159 55.072 623.559 55.216 624.071 55.216C624.663 55.216 625.167 55.056 625.583 54.736L626.591 57.376ZM641.701 45.088V58H638.149V56.464C637.653 57.024 637.061 57.456 636.373 57.76C635.685 58.048 634.941 58.192 634.141 58.192C632.445 58.192 631.101 57.704 630.109 56.728C629.117 55.752 628.621 54.304 628.621 52.384V45.088H632.365V51.832C632.365 53.912 633.237 54.952 634.981 54.952C635.877 54.952 636.597 54.664 637.141 54.088C637.685 53.496 637.957 52.624 637.957 51.472V45.088H641.701ZM653.017 44.896C654.617 44.896 655.905 45.376 656.881 46.336C657.873 47.296 658.369 48.72 658.369 50.608V58H654.625V51.184C654.625 50.16 654.401 49.4 653.953 48.904C653.505 48.392 652.857 48.136 652.009 48.136C651.065 48.136 650.313 48.432 649.753 49.024C649.193 49.6 648.913 50.464 648.913 51.616V58H645.169V45.088H648.745V46.6C649.241 46.056 649.857 45.64 650.593 45.352C651.329 45.048 652.137 44.896 653.017 44.896ZM661.763 45.088H665.507V58H661.763V45.088ZM663.635 43.288C662.947 43.288 662.387 43.088 661.955 42.688C661.523 42.288 661.307 41.792 661.307 41.2C661.307 40.608 661.523 40.112 661.955 39.712C662.387 39.312 662.947 39.112 663.635 39.112C664.323 39.112 664.883 39.304 665.315 39.688C665.747 40.072 665.963 40.552 665.963 41.128C665.963 41.752 665.747 42.272 665.315 42.688C664.883 43.088 664.323 43.288 663.635 43.288ZM679.614 55.12V58H668.094V55.744L674.67 47.968H668.262V45.088H679.398V47.344L672.822 55.12H679.614ZM687.221 44.896C689.221 44.896 690.757 45.376 691.829 46.336C692.901 47.28 693.437 48.712 693.437 50.632V58H689.933V56.392C689.229 57.592 687.917 58.192 685.997 58.192C685.005 58.192 684.141 58.024 683.405 57.688C682.685 57.352 682.133 56.888 681.749 56.296C681.365 55.704 681.173 55.032 681.173 54.28C681.173 53.08 681.621 52.136 682.517 51.448C683.429 50.76 684.829 50.416 686.717 50.416H689.693C689.693 49.6 689.445 48.976 688.949 48.544C688.453 48.096 687.709 47.872 686.717 47.872C686.029 47.872 685.349 47.984 684.677 48.208C684.021 48.416 683.461 48.704 682.997 49.072L681.653 46.456C682.357 45.96 683.197 45.576 684.173 45.304C685.165 45.032 686.181 44.896 687.221 44.896ZM686.933 55.672C687.573 55.672 688.141 55.528 688.637 55.24C689.133 54.936 689.485 54.496 689.693 53.92V52.6H687.125C685.589 52.6 684.821 53.104 684.821 54.112C684.821 54.592 685.005 54.976 685.373 55.264C685.757 55.536 686.277 55.672 686.933 55.672ZM710.118 40.192V58H706.542V56.512C705.614 57.632 704.27 58.192 702.51 58.192C701.294 58.192 700.19 57.92 699.198 57.376C698.222 56.832 697.454 56.056 696.894 55.048C696.334 54.04 696.054 52.872 696.054 51.544C696.054 50.216 696.334 49.048 696.894 48.04C697.454 47.032 698.222 46.256 699.198 45.712C700.19 45.168 701.294 44.896 702.51 44.896C704.158 44.896 705.446 45.416 706.374 46.456V40.192H710.118ZM703.158 55.12C704.102 55.12 704.886 54.8 705.51 54.16C706.134 53.504 706.446 52.632 706.446 51.544C706.446 50.456 706.134 49.592 705.51 48.952C704.886 48.296 704.102 47.968 703.158 47.968C702.198 47.968 701.406 48.296 700.782 48.952C700.158 49.592 699.846 50.456 699.846 51.544C699.846 52.632 700.158 53.504 700.782 54.16C701.406 54.8 702.198 55.12 703.158 55.12ZM726.231 51.592C726.231 51.64 726.207 51.976 726.159 52.6H716.391C716.567 53.4 716.983 54.032 717.639 54.496C718.295 54.96 719.111 55.192 720.087 55.192C720.759 55.192 721.351 55.096 721.863 54.904C722.391 54.696 722.879 54.376 723.327 53.944L725.319 56.104C724.103 57.496 722.327 58.192 719.991 58.192C718.535 58.192 717.247 57.912 716.127 57.352C715.007 56.776 714.143 55.984 713.535 54.976C712.927 53.968 712.623 52.824 712.623 51.544C712.623 50.28 712.919 49.144 713.511 48.136C714.119 47.112 714.943 46.32 715.983 45.76C717.039 45.184 718.215 44.896 719.511 44.896C720.775 44.896 721.919 45.168 722.943 45.712C723.967 46.256 724.767 47.04 725.343 48.064C725.935 49.072 726.231 50.248 726.231 51.592ZM719.535 47.728C718.687 47.728 717.975 47.968 717.399 48.448C716.823 48.928 716.471 49.584 716.343 50.416H722.703C722.575 49.6 722.223 48.952 721.647 48.472C721.071 47.976 720.367 47.728 719.535 47.728Z" fill="black"/>
<path d="M814.112 51.4L811.856 53.752V58H807.992V41.2H811.856V49.048L819.296 41.2H823.616L816.656 48.688L824.024 58H819.488L814.112 51.4ZM825.259 45.088H829.003V58H825.259V45.088ZM836.822 58.192C835.75 58.192 834.702 58.064 833.678 57.808C832.654 57.536 831.838 57.2 831.23 56.8L832.478 54.112C833.054 54.48 833.75 54.784 834.566 55.024C835.382 55.248 836.182 55.36 836.966 55.36C838.55 55.36 839.342 54.968 839.342 54.184C839.342 53.816 839.126 53.552 838.694 53.392C838.262 53.232 837.598 53.096 836.702 52.984C835.646 52.824 834.774 52.64 834.086 52.432C833.398 52.224 832.798 51.856 832.286 51.328C831.79 50.8 831.542 50.048 831.542 49.072C831.542 48.256 831.774 47.536 832.238 46.912C832.718 46.272 833.406 45.776 834.302 45.424C835.214 45.072 836.286 44.896 837.518 44.896C838.43 44.896 839.334 45 840.23 45.208C841.142 45.4 841.894 45.672 842.486 46.024L841.238 48.688C840.102 48.048 838.862 47.728 837.518 47.728C836.718 47.728 836.118 47.84 835.718 48.064C835.318 48.288 835.118 48.576 835.118 48.928C835.118 49.328 835.334 49.608 835.766 49.768C836.198 49.928 836.886 50.08 837.83 50.224C838.886 50.4 839.75 50.592 840.422 50.8C841.094 50.992 841.678 51.352 842.174 51.88C842.67 52.408 842.918 53.144 842.918 54.088C842.918 54.888 842.678 55.6 842.198 56.224C841.718 56.848 841.014 57.336 840.086 57.688C839.174 58.024 838.086 58.192 836.822 58.192ZM845.228 45.088H848.972V58H845.228V45.088ZM857.991 52.936L856.191 54.712V58H852.447V40.192H856.191V50.272L861.663 45.088H866.127L860.751 50.56L866.607 58H862.071L857.991 52.936ZM868.291 40.192H872.035V58H868.291V40.192ZM875.509 45.088H879.253V58H875.509V45.088Z" fill="black"/>
<path d="M984.695 49.264C985.655 49.568 986.407 50.08 986.951 50.8C987.495 51.504 987.767 52.376 987.767 53.416C987.767 54.888 987.191 56.024 986.039 56.824C984.903 57.608 983.239 58 981.047 58H972.359V41.2H980.567C982.615 41.2 984.183 41.592 985.271 42.376C986.375 43.16 986.927 44.224 986.927 45.568C986.927 46.384 986.727 47.112 986.327 47.752C985.943 48.392 985.399 48.896 984.695 49.264ZM976.223 44.128V48.088H980.087C981.047 48.088 981.775 47.92 982.271 47.584C982.767 47.248 983.015 46.752 983.015 46.096C983.015 45.44 982.767 44.952 982.271 44.632C981.775 44.296 981.047 44.128 980.087 44.128H976.223ZM980.759 55.072C981.783 55.072 982.551 54.904 983.063 54.568C983.591 54.232 983.855 53.712 983.855 53.008C983.855 51.616 982.823 50.92 980.759 50.92H976.223V55.072H980.759ZM1003.45 45.088V58H999.903V56.464C999.407 57.024 998.815 57.456 998.127 57.76C997.439 58.048 996.695 58.192 995.895 58.192C994.199 58.192 992.855 57.704 991.863 56.728C990.871 55.752 990.375 54.304 990.375 52.384V45.088H994.119V51.832C994.119 53.912 994.991 54.952 996.735 54.952C997.631 54.952 998.351 54.664 998.895 54.088C999.439 53.496 999.711 52.624 999.711 51.472V45.088H1003.45ZM1006.92 40.192H1010.67V58H1006.92V40.192ZM1027.46 45.088V55.84C1027.46 58.208 1026.85 59.968 1025.61 61.12C1024.38 62.272 1022.58 62.848 1020.21 62.848C1018.97 62.848 1017.78 62.696 1016.66 62.392C1015.54 62.088 1014.61 61.648 1013.88 61.072L1015.37 58.384C1015.91 58.832 1016.6 59.184 1017.43 59.44C1018.26 59.712 1019.09 59.848 1019.93 59.848C1021.22 59.848 1022.17 59.552 1022.78 58.96C1023.41 58.384 1023.72 57.504 1023.72 56.32V55.768C1022.74 56.84 1021.38 57.376 1019.64 57.376C1018.45 57.376 1017.37 57.12 1016.37 56.608C1015.4 56.08 1014.62 55.344 1014.05 54.4C1013.47 53.456 1013.18 52.368 1013.18 51.136C1013.18 49.904 1013.47 48.816 1014.05 47.872C1014.62 46.928 1015.4 46.2 1016.37 45.688C1017.37 45.16 1018.45 44.896 1019.64 44.896C1021.51 44.896 1022.93 45.512 1023.91 46.744V45.088H1027.46ZM1020.38 54.304C1021.37 54.304 1022.18 54.016 1022.81 53.44C1023.45 52.848 1023.77 52.08 1023.77 51.136C1023.77 50.192 1023.45 49.432 1022.81 48.856C1022.18 48.264 1021.37 47.968 1020.38 47.968C1019.39 47.968 1018.57 48.264 1017.93 48.856C1017.29 49.432 1016.97 50.192 1016.97 51.136C1016.97 52.08 1017.29 52.848 1017.93 53.44C1018.57 54.016 1019.39 54.304 1020.38 54.304ZM1043.95 45.088V58H1040.4V56.464C1039.91 57.024 1039.31 57.456 1038.63 57.76C1037.94 58.048 1037.19 58.192 1036.39 58.192C1034.7 58.192 1033.35 57.704 1032.36 56.728C1031.37 55.752 1030.87 54.304 1030.87 52.384V45.088H1034.62V51.832C1034.62 53.912 1035.49 54.952 1037.23 54.952C1038.13 54.952 1038.85 54.664 1039.39 54.088C1039.94 53.496 1040.21 52.624 1040.21 51.472V45.088H1043.95ZM1051 46.792C1051.45 46.168 1052.05 45.696 1052.8 45.376C1053.57 45.056 1054.45 44.896 1055.44 44.896V48.352C1055.02 48.32 1054.74 48.304 1054.6 48.304C1053.53 48.304 1052.69 48.608 1052.08 49.216C1051.47 49.808 1051.17 50.704 1051.17 51.904V58H1047.42V45.088H1051V46.792ZM1057.67 40.192H1061.41V58H1057.67V40.192ZM1077.89 45.088V58H1074.34V56.464C1073.84 57.024 1073.25 57.456 1072.56 57.76C1071.88 58.048 1071.13 58.192 1070.33 58.192C1068.64 58.192 1067.29 57.704 1066.3 56.728C1065.31 55.752 1064.81 54.304 1064.81 52.384V45.088H1068.56V51.832C1068.56 53.912 1069.43 54.952 1071.17 54.952C1072.07 54.952 1072.79 54.664 1073.33 54.088C1073.88 53.496 1074.15 52.624 1074.15 51.472V45.088H1077.89Z" fill="black"/>
<path d="M1155.95 58.288C1153.55 58.288 1151.68 57.624 1150.33 56.296C1149 54.968 1148.34 53.072 1148.34 50.608V41.2H1152.23V50.464C1152.23 53.472 1153.48 54.976 1155.97 54.976C1157.19 54.976 1158.12 54.616 1158.76 53.896C1159.4 53.16 1159.72 52.016 1159.72 50.464V41.2H1163.56V50.608C1163.56 53.072 1162.88 54.968 1161.54 56.296C1160.21 57.624 1158.35 58.288 1155.95 58.288ZM1153.55 39.712C1153.07 39.712 1152.67 39.56 1152.35 39.256C1152.03 38.936 1151.87 38.536 1151.87 38.056C1151.87 37.576 1152.03 37.184 1152.35 36.88C1152.67 36.56 1153.07 36.4 1153.55 36.4C1154.03 36.4 1154.42 36.56 1154.72 36.88C1155.04 37.184 1155.2 37.576 1155.2 38.056C1155.2 38.536 1155.04 38.936 1154.72 39.256C1154.42 39.56 1154.03 39.712 1153.55 39.712ZM1158.4 39.712C1157.92 39.712 1157.52 39.56 1157.2 39.256C1156.89 38.936 1156.74 38.536 1156.74 38.056C1156.74 37.576 1156.89 37.184 1157.2 36.88C1157.52 36.56 1157.92 36.4 1158.4 36.4C1158.88 36.4 1159.28 36.56 1159.6 36.88C1159.92 37.184 1160.08 37.576 1160.08 38.056C1160.08 38.536 1159.92 38.936 1159.6 39.256C1159.28 39.56 1158.88 39.712 1158.4 39.712ZM1183.67 44.896C1185.29 44.896 1186.57 45.376 1187.51 46.336C1188.47 47.28 1188.95 48.704 1188.95 50.608V58H1185.21V51.184C1185.21 50.16 1184.99 49.4 1184.56 48.904C1184.14 48.392 1183.54 48.136 1182.76 48.136C1181.88 48.136 1181.18 48.424 1180.67 49C1180.16 49.56 1179.9 50.4 1179.9 51.52V58H1176.16V51.184C1176.16 49.152 1175.34 48.136 1173.71 48.136C1172.85 48.136 1172.16 48.424 1171.65 49C1171.13 49.56 1170.88 50.4 1170.88 51.52V58H1167.13V45.088H1170.71V46.576C1171.19 46.032 1171.77 45.616 1172.46 45.328C1173.17 45.04 1173.93 44.896 1174.77 44.896C1175.68 44.896 1176.5 45.08 1177.24 45.448C1177.97 45.8 1178.57 46.32 1179.01 47.008C1179.54 46.336 1180.21 45.816 1181.01 45.448C1181.82 45.08 1182.71 44.896 1183.67 44.896ZM1195.88 46.792C1196.33 46.168 1196.93 45.696 1197.68 45.376C1198.45 45.056 1199.33 44.896 1200.32 44.896V48.352C1199.91 48.32 1199.63 48.304 1199.48 48.304C1198.41 48.304 1197.57 48.608 1196.96 49.216C1196.35 49.808 1196.05 50.704 1196.05 51.904V58H1192.31V45.088H1195.88V46.792ZM1207.69 44.896C1209.69 44.896 1211.22 45.376 1212.29 46.336C1213.37 47.28 1213.9 48.712 1213.9 50.632V58H1210.4V56.392C1209.69 57.592 1208.38 58.192 1206.46 58.192C1205.47 58.192 1204.61 58.024 1203.87 57.688C1203.15 57.352 1202.6 56.888 1202.21 56.296C1201.83 55.704 1201.64 55.032 1201.64 54.28C1201.64 53.08 1202.09 52.136 1202.98 51.448C1203.89 50.76 1205.29 50.416 1207.18 50.416H1210.16C1210.16 49.6 1209.91 48.976 1209.41 48.544C1208.92 48.096 1208.17 47.872 1207.18 47.872C1206.49 47.872 1205.81 47.984 1205.14 48.208C1204.49 48.416 1203.93 48.704 1203.46 49.072L1202.12 46.456C1202.82 45.96 1203.66 45.576 1204.64 45.304C1205.63 45.032 1206.65 44.896 1207.69 44.896ZM1207.4 55.672C1208.04 55.672 1208.61 55.528 1209.1 55.24C1209.6 54.936 1209.95 54.496 1210.16 53.92V52.6H1207.59C1206.05 52.6 1205.29 53.104 1205.29 54.112C1205.29 54.592 1205.47 54.976 1205.84 55.264C1206.22 55.536 1206.74 55.672 1207.4 55.672ZM1225.14 44.896C1226.74 44.896 1228.03 45.376 1229 46.336C1229.99 47.296 1230.49 48.72 1230.49 50.608V58H1226.75V51.184C1226.75 50.16 1226.52 49.4 1226.07 48.904C1225.63 48.392 1224.98 48.136 1224.13 48.136C1223.19 48.136 1222.43 48.432 1221.87 49.024C1221.31 49.6 1221.03 50.464 1221.03 51.616V58H1217.29V45.088H1220.87V46.6C1221.36 46.056 1221.98 45.64 1222.71 45.352C1223.45 45.048 1224.26 44.896 1225.14 44.896ZM1233.88 45.088H1237.63V58H1233.88V45.088ZM1235.76 43.288C1235.07 43.288 1234.51 43.088 1234.08 42.688C1233.64 42.288 1233.43 41.792 1233.43 41.2C1233.43 40.608 1233.64 40.112 1234.08 39.712C1234.51 39.312 1235.07 39.112 1235.76 39.112C1236.44 39.112 1237 39.304 1237.44 39.688C1237.87 40.072 1238.08 40.552 1238.08 41.128C1238.08 41.752 1237.87 42.272 1237.44 42.688C1237 43.088 1236.44 43.288 1235.76 43.288ZM1253.92 45.088L1248.09 58.792C1247.5 60.28 1246.76 61.328 1245.88 61.936C1245.02 62.544 1243.97 62.848 1242.74 62.848C1242.06 62.848 1241.4 62.744 1240.74 62.536C1240.09 62.328 1239.55 62.04 1239.13 61.672L1240.5 59.008C1240.79 59.264 1241.12 59.464 1241.49 59.608C1241.87 59.752 1242.25 59.824 1242.62 59.824C1243.13 59.824 1243.54 59.696 1243.86 59.44C1244.18 59.2 1244.47 58.792 1244.73 58.216L1244.78 58.096L1239.18 45.088H1243.05L1246.67 53.848L1250.32 45.088H1253.92ZM1267.74 51.592C1267.74 51.64 1267.72 51.976 1267.67 52.6H1257.9C1258.08 53.4 1258.5 54.032 1259.15 54.496C1259.81 54.96 1260.62 55.192 1261.6 55.192C1262.27 55.192 1262.86 55.096 1263.38 54.904C1263.9 54.696 1264.39 54.376 1264.84 53.944L1266.83 56.104C1265.62 57.496 1263.84 58.192 1261.5 58.192C1260.05 58.192 1258.76 57.912 1257.64 57.352C1256.52 56.776 1255.66 55.984 1255.05 54.976C1254.44 53.968 1254.14 52.824 1254.14 51.544C1254.14 50.28 1254.43 49.144 1255.02 48.136C1255.63 47.112 1256.46 46.32 1257.5 45.76C1258.55 45.184 1259.73 44.896 1261.02 44.896C1262.29 44.896 1263.43 45.168 1264.46 45.712C1265.48 46.256 1266.28 47.04 1266.86 48.064C1267.45 49.072 1267.74 50.248 1267.74 51.592ZM1261.05 47.728C1260.2 47.728 1259.49 47.968 1258.91 48.448C1258.34 48.928 1257.98 49.584 1257.86 50.416H1264.22C1264.09 49.6 1263.74 48.952 1263.16 48.472C1262.58 47.976 1261.88 47.728 1261.05 47.728Z" fill="black"/>
<path d="M1371.24 58.288C1369.53 58.288 1367.98 57.92 1366.59 57.184C1365.21 56.432 1364.12 55.4 1363.32 54.088C1362.54 52.76 1362.15 51.264 1362.15 49.6C1362.15 47.936 1362.54 46.448 1363.32 45.136C1364.12 43.808 1365.21 42.776 1366.59 42.04C1367.98 41.288 1369.54 40.912 1371.27 40.912C1372.72 40.912 1374.03 41.168 1375.2 41.68C1376.39 42.192 1377.38 42.928 1378.18 43.888L1375.68 46.192C1374.55 44.88 1373.14 44.224 1371.46 44.224C1370.42 44.224 1369.49 44.456 1368.67 44.92C1367.86 45.368 1367.22 46 1366.75 46.816C1366.31 47.632 1366.08 48.56 1366.08 49.6C1366.08 50.64 1366.31 51.568 1366.75 52.384C1367.22 53.2 1367.86 53.84 1368.67 54.304C1369.49 54.752 1370.42 54.976 1371.46 54.976C1373.14 54.976 1374.55 54.312 1375.68 52.984L1378.18 55.288C1377.38 56.264 1376.39 57.008 1375.2 57.52C1374.02 58.032 1372.7 58.288 1371.24 58.288ZM1369.95 63.568C1369.53 63.568 1369.12 63.52 1368.72 63.424C1368.32 63.344 1367.99 63.224 1367.71 63.064L1368.29 61.456C1368.8 61.696 1369.32 61.816 1369.85 61.816C1370.68 61.816 1371.1 61.56 1371.1 61.048C1371.1 60.584 1370.71 60.352 1369.92 60.352H1369.11L1369.73 57.808H1371.72L1371.39 59.2C1372.09 59.28 1372.61 59.496 1372.95 59.848C1373.3 60.216 1373.47 60.664 1373.47 61.192C1373.47 61.928 1373.15 62.504 1372.51 62.92C1371.87 63.352 1371.02 63.568 1369.95 63.568ZM1385.65 44.896C1387.65 44.896 1389.19 45.376 1390.26 46.336C1391.33 47.28 1391.87 48.712 1391.87 50.632V58H1388.37V56.392C1387.66 57.592 1386.35 58.192 1384.43 58.192C1383.44 58.192 1382.57 58.024 1381.84 57.688C1381.12 57.352 1380.57 56.888 1380.18 56.296C1379.8 55.704 1379.61 55.032 1379.61 54.28C1379.61 53.08 1380.05 52.136 1380.95 51.448C1381.86 50.76 1383.26 50.416 1385.15 50.416H1388.13C1388.13 49.6 1387.88 48.976 1387.38 48.544C1386.89 48.096 1386.14 47.872 1385.15 47.872C1384.46 47.872 1383.78 47.984 1383.11 48.208C1382.45 48.416 1381.89 48.704 1381.43 49.072L1380.09 46.456C1380.79 45.96 1381.63 45.576 1382.61 45.304C1383.6 45.032 1384.61 44.896 1385.65 44.896ZM1385.37 55.672C1386.01 55.672 1386.57 55.528 1387.07 55.24C1387.57 54.936 1387.92 54.496 1388.13 53.92V52.6H1385.56C1384.02 52.6 1383.25 53.104 1383.25 54.112C1383.25 54.592 1383.44 54.976 1383.81 55.264C1384.19 55.536 1384.71 55.672 1385.37 55.672ZM1398.84 46.792C1399.28 46.168 1399.88 45.696 1400.64 45.376C1401.4 45.056 1402.28 44.896 1403.28 44.896V48.352C1402.86 48.32 1402.58 48.304 1402.44 48.304C1401.36 48.304 1400.52 48.608 1399.92 49.216C1399.31 49.808 1399 50.704 1399 51.904V58H1395.26V45.088H1398.84V46.792ZM1409.89 58.192C1408.82 58.192 1407.77 58.064 1406.75 57.808C1405.72 57.536 1404.91 57.2 1404.3 56.8L1405.55 54.112C1406.12 54.48 1406.82 54.784 1407.64 55.024C1408.45 55.248 1409.25 55.36 1410.04 55.36C1411.62 55.36 1412.41 54.968 1412.41 54.184C1412.41 53.816 1412.2 53.552 1411.76 53.392C1411.33 53.232 1410.67 53.096 1409.77 52.984C1408.72 52.824 1407.84 52.64 1407.16 52.432C1406.47 52.224 1405.87 51.856 1405.36 51.328C1404.86 50.8 1404.61 50.048 1404.61 49.072C1404.61 48.256 1404.84 47.536 1405.31 46.912C1405.79 46.272 1406.48 45.776 1407.37 45.424C1408.28 45.072 1409.36 44.896 1410.59 44.896C1411.5 44.896 1412.4 45 1413.3 45.208C1414.21 45.4 1414.96 45.672 1415.56 46.024L1414.31 48.688C1413.17 48.048 1411.93 47.728 1410.59 47.728C1409.79 47.728 1409.19 47.84 1408.79 48.064C1408.39 48.288 1408.19 48.576 1408.19 48.928C1408.19 49.328 1408.4 49.608 1408.84 49.768C1409.27 49.928 1409.96 50.08 1410.9 50.224C1411.96 50.4 1412.82 50.592 1413.49 50.8C1414.16 50.992 1414.75 51.352 1415.24 51.88C1415.74 52.408 1415.99 53.144 1415.99 54.088C1415.99 54.888 1415.75 55.6 1415.27 56.224C1414.79 56.848 1414.08 57.336 1413.16 57.688C1412.24 58.024 1411.16 58.192 1409.89 58.192ZM1409.29 63.568C1408.88 63.568 1408.47 63.52 1408.07 63.424C1407.67 63.344 1407.33 63.224 1407.06 63.064L1407.64 61.456C1408.15 61.696 1408.67 61.816 1409.2 61.816C1410.03 61.816 1410.44 61.56 1410.44 61.048C1410.44 60.584 1410.05 60.352 1409.27 60.352H1408.45L1409.08 57.808H1411.07L1410.73 59.2C1411.44 59.28 1411.96 59.496 1412.29 59.848C1412.64 60.216 1412.82 60.664 1412.82 61.192C1412.82 61.928 1412.5 62.504 1411.86 62.92C1411.22 63.352 1410.36 63.568 1409.29 63.568ZM1418.3 45.088H1422.04V58H1418.3V45.088Z" fill="black"/>
<path d="M1513.49 52.048V58H1509.61V52L1503.1 41.2H1507.23L1511.72 48.664L1516.21 41.2H1520.02L1513.49 52.048ZM1525.02 44.896C1527.02 44.896 1528.56 45.376 1529.63 46.336C1530.7 47.28 1531.24 48.712 1531.24 50.632V58H1527.73V56.392C1527.03 57.592 1525.72 58.192 1523.8 58.192C1522.81 58.192 1521.94 58.024 1521.21 57.688C1520.49 57.352 1519.93 56.888 1519.55 56.296C1519.17 55.704 1518.97 55.032 1518.97 54.28C1518.97 53.08 1519.42 52.136 1520.32 51.448C1521.23 50.76 1522.63 50.416 1524.52 50.416H1527.49C1527.49 49.6 1527.25 48.976 1526.75 48.544C1526.25 48.096 1525.51 47.872 1524.52 47.872C1523.83 47.872 1523.15 47.984 1522.48 48.208C1521.82 48.416 1521.26 48.704 1520.8 49.072L1519.45 46.456C1520.16 45.96 1521 45.576 1521.97 45.304C1522.97 45.032 1523.98 44.896 1525.02 44.896ZM1524.73 55.672C1525.37 55.672 1525.94 55.528 1526.44 55.24C1526.93 54.936 1527.29 54.496 1527.49 53.92V52.6H1524.93C1523.39 52.6 1522.62 53.104 1522.62 54.112C1522.62 54.592 1522.81 54.976 1523.17 55.264C1523.56 55.536 1524.08 55.672 1524.73 55.672ZM1551.16 44.896C1552.78 44.896 1554.06 45.376 1555 46.336C1555.96 47.28 1556.44 48.704 1556.44 50.608V58H1552.7V51.184C1552.7 50.16 1552.48 49.4 1552.05 48.904C1551.63 48.392 1551.03 48.136 1550.25 48.136C1549.37 48.136 1548.67 48.424 1548.16 49C1547.65 49.56 1547.39 50.4 1547.39 51.52V58H1543.65V51.184C1543.65 49.152 1542.83 48.136 1541.2 48.136C1540.34 48.136 1539.65 48.424 1539.14 49C1538.63 49.56 1538.37 50.4 1538.37 51.52V58H1534.63V45.088H1538.2V46.576C1538.68 46.032 1539.27 45.616 1539.95 45.328C1540.66 45.04 1541.43 44.896 1542.26 44.896C1543.17 44.896 1543.99 45.08 1544.73 45.448C1545.47 45.8 1546.06 46.32 1546.51 47.008C1547.03 46.336 1547.7 45.816 1548.5 45.448C1549.31 45.08 1550.2 44.896 1551.16 44.896ZM1565.01 44.896C1567.01 44.896 1568.54 45.376 1569.61 46.336C1570.69 47.28 1571.22 48.712 1571.22 50.632V58H1567.72V56.392C1567.01 57.592 1565.7 58.192 1563.78 58.192C1562.79 58.192 1561.93 58.024 1561.19 57.688C1560.47 57.352 1559.92 56.888 1559.53 56.296C1559.15 55.704 1558.96 55.032 1558.96 54.28C1558.96 53.08 1559.41 52.136 1560.3 51.448C1561.21 50.76 1562.61 50.416 1564.5 50.416H1567.48C1567.48 49.6 1567.23 48.976 1566.73 48.544C1566.24 48.096 1565.49 47.872 1564.5 47.872C1563.81 47.872 1563.13 47.984 1562.46 48.208C1561.81 48.416 1561.25 48.704 1560.78 49.072L1559.44 46.456C1560.14 45.96 1560.98 45.576 1561.96 45.304C1562.95 45.032 1563.97 44.896 1565.01 44.896ZM1564.72 55.672C1565.36 55.672 1565.93 55.528 1566.42 55.24C1566.92 54.936 1567.27 54.496 1567.48 53.92V52.6H1564.91C1563.37 52.6 1562.61 53.104 1562.61 54.112C1562.61 54.592 1562.79 54.976 1563.16 55.264C1563.54 55.536 1564.06 55.672 1564.72 55.672ZM1582.46 44.896C1584.06 44.896 1585.35 45.376 1586.32 46.336C1587.31 47.296 1587.81 48.72 1587.81 50.608V58H1584.07V51.184C1584.07 50.16 1583.84 49.4 1583.39 48.904C1582.95 48.392 1582.3 48.136 1581.45 48.136C1580.51 48.136 1579.75 48.432 1579.19 49.024C1578.63 49.6 1578.35 50.464 1578.35 51.616V58H1574.61V45.088H1578.19V46.6C1578.68 46.056 1579.3 45.64 1580.03 45.352C1580.77 45.048 1581.58 44.896 1582.46 44.896ZM1603.99 51.592C1603.99 51.64 1603.97 51.976 1603.92 52.6H1594.15C1594.33 53.4 1594.75 54.032 1595.4 54.496C1596.06 54.96 1596.87 55.192 1597.85 55.192C1598.52 55.192 1599.11 55.096 1599.63 54.904C1600.15 54.696 1600.64 54.376 1601.09 53.944L1603.08 56.104C1601.87 57.496 1600.09 58.192 1597.75 58.192C1596.3 58.192 1595.01 57.912 1593.89 57.352C1592.77 56.776 1591.91 55.984 1591.3 54.976C1590.69 53.968 1590.39 52.824 1590.39 51.544C1590.39 50.28 1590.68 49.144 1591.27 48.136C1591.88 47.112 1592.71 46.32 1593.75 45.76C1594.8 45.184 1595.98 44.896 1597.27 44.896C1598.54 44.896 1599.68 45.168 1600.71 45.712C1601.73 46.256 1602.53 47.04 1603.11 48.064C1603.7 49.072 1603.99 50.248 1603.99 51.592ZM1597.3 47.728C1596.45 47.728 1595.74 47.968 1595.16 48.448C1594.59 48.928 1594.23 49.584 1594.11 50.416H1600.47C1600.34 49.6 1599.99 48.952 1599.41 48.472C1598.83 47.976 1598.13 47.728 1597.3 47.728ZM1619.07 45.088L1613.62 58H1609.76L1604.33 45.088H1608.2L1611.77 53.872L1615.47 45.088H1619.07ZM1620.6 40.192H1624.34V58H1620.6V40.192ZM1640.46 51.592C1640.46 51.64 1640.44 51.976 1640.39 52.6H1630.62C1630.8 53.4 1631.21 54.032 1631.87 54.496C1632.53 54.96 1633.34 55.192 1634.32 55.192C1634.99 55.192 1635.58 55.096 1636.09 54.904C1636.62 54.696 1637.11 54.376 1637.56 53.944L1639.55 56.104C1638.33 57.496 1636.56 58.192 1634.22 58.192C1632.77 58.192 1631.48 57.912 1630.36 57.352C1629.24 56.776 1628.37 55.984 1627.77 54.976C1627.16 53.968 1626.85 52.824 1626.85 51.544C1626.85 50.28 1627.15 49.144 1627.74 48.136C1628.35 47.112 1629.17 46.32 1630.21 45.76C1631.27 45.184 1632.45 44.896 1633.74 44.896C1635.01 44.896 1636.15 45.168 1637.17 45.712C1638.2 46.256 1639 47.04 1639.57 48.064C1640.17 49.072 1640.46 50.248 1640.46 51.592ZM1633.77 47.728C1632.92 47.728 1632.21 47.968 1631.63 48.448C1631.05 48.928 1630.7 49.584 1630.57 50.416H1636.93C1636.81 49.6 1636.45 48.952 1635.88 48.472C1635.3 47.976 1634.6 47.728 1633.77 47.728ZM1646.53 46.792C1646.98 46.168 1647.58 45.696 1648.33 45.376C1649.1 45.056 1649.98 44.896 1650.97 44.896V48.352C1650.55 48.32 1650.27 48.304 1650.13 48.304C1649.06 48.304 1648.22 48.608 1647.61 49.216C1647 49.808 1646.7 50.704 1646.7 51.904V58H1642.95V45.088H1646.53V46.792Z" fill="black"/>
<path d="M1717.08 58.288C1715.37 58.288 1713.82 57.92 1712.43 57.184C1711.05 56.432 1709.96 55.4 1709.16 54.088C1708.38 52.76 1707.99 51.264 1707.99 49.6C1707.99 47.936 1708.38 46.448 1709.16 45.136C1709.96 43.808 1711.05 42.776 1712.43 42.04C1713.82 41.288 1715.38 40.912 1717.11 40.912C1718.56 40.912 1719.87 41.168 1721.04 41.68C1722.23 42.192 1723.22 42.928 1724.02 43.888L1721.52 46.192C1720.39 44.88 1718.98 44.224 1717.3 44.224C1716.26 44.224 1715.33 44.456 1714.51 44.92C1713.7 45.368 1713.06 46 1712.59 46.816C1712.15 47.632 1711.92 48.56 1711.92 49.6C1711.92 50.64 1712.15 51.568 1712.59 52.384C1713.06 53.2 1713.7 53.84 1714.51 54.304C1715.33 54.752 1716.26 54.976 1717.3 54.976C1718.98 54.976 1720.39 54.312 1721.52 52.984L1724.02 55.288C1723.22 56.264 1722.23 57.008 1721.04 57.52C1719.86 58.032 1718.54 58.288 1717.08 58.288ZM1715.79 63.568C1715.37 63.568 1714.96 63.52 1714.56 63.424C1714.16 63.344 1713.83 63.224 1713.55 63.064L1714.13 61.456C1714.64 61.696 1715.16 61.816 1715.69 61.816C1716.52 61.816 1716.94 61.56 1716.94 61.048C1716.94 60.584 1716.55 60.352 1715.76 60.352H1714.95L1715.57 57.808H1717.56L1717.23 59.2C1717.93 59.28 1718.45 59.496 1718.79 59.848C1719.14 60.216 1719.31 60.664 1719.31 61.192C1719.31 61.928 1718.99 62.504 1718.35 62.92C1717.71 63.352 1716.86 63.568 1715.79 63.568ZM1731.49 44.896C1733.49 44.896 1735.03 45.376 1736.1 46.336C1737.17 47.28 1737.71 48.712 1737.71 50.632V58H1734.21V56.392C1733.5 57.592 1732.19 58.192 1730.27 58.192C1729.28 58.192 1728.41 58.024 1727.68 57.688C1726.96 57.352 1726.41 56.888 1726.02 56.296C1725.64 55.704 1725.45 55.032 1725.45 54.28C1725.45 53.08 1725.89 52.136 1726.79 51.448C1727.7 50.76 1729.1 50.416 1730.99 50.416H1733.97C1733.97 49.6 1733.72 48.976 1733.22 48.544C1732.73 48.096 1731.98 47.872 1730.99 47.872C1730.3 47.872 1729.62 47.984 1728.95 48.208C1728.29 48.416 1727.73 48.704 1727.27 49.072L1725.93 46.456C1726.63 45.96 1727.47 45.576 1728.45 45.304C1729.44 45.032 1730.45 44.896 1731.49 44.896ZM1731.21 55.672C1731.85 55.672 1732.41 55.528 1732.91 55.24C1733.41 54.936 1733.76 54.496 1733.97 53.92V52.6H1731.4C1729.86 52.6 1729.09 53.104 1729.09 54.112C1729.09 54.592 1729.28 54.976 1729.65 55.264C1730.03 55.536 1730.55 55.672 1731.21 55.672ZM1746.64 52.936L1744.84 54.712V58H1741.1V40.192H1744.84V50.272L1750.32 45.088H1754.78L1749.4 50.56L1755.26 58H1750.72L1746.64 52.936ZM1773.39 44.896C1775 44.896 1776.28 45.376 1777.23 46.336C1778.19 47.28 1778.67 48.704 1778.67 50.608V58H1774.92V51.184C1774.92 50.16 1774.71 49.4 1774.27 48.904C1773.86 48.392 1773.26 48.136 1772.47 48.136C1771.59 48.136 1770.9 48.424 1770.39 49C1769.87 49.56 1769.62 50.4 1769.62 51.52V58H1765.87V51.184C1765.87 49.152 1765.06 48.136 1763.43 48.136C1762.56 48.136 1761.87 48.424 1761.36 49C1760.85 49.56 1760.59 50.4 1760.59 51.52V58H1756.85V45.088H1760.43V46.576C1760.91 46.032 1761.49 45.616 1762.18 45.328C1762.88 45.04 1763.65 44.896 1764.48 44.896C1765.39 44.896 1766.22 45.08 1766.95 45.448C1767.69 45.8 1768.28 46.32 1768.73 47.008C1769.26 46.336 1769.92 45.816 1770.72 45.448C1771.54 45.08 1772.43 44.896 1773.39 44.896ZM1787.23 44.896C1789.23 44.896 1790.76 45.376 1791.84 46.336C1792.91 47.28 1793.44 48.712 1793.44 50.632V58H1789.94V56.392C1789.24 57.592 1787.92 58.192 1786 58.192C1785.01 58.192 1784.15 58.024 1783.41 57.688C1782.69 57.352 1782.14 56.888 1781.76 56.296C1781.37 55.704 1781.18 55.032 1781.18 54.28C1781.18 53.08 1781.63 52.136 1782.52 51.448C1783.44 50.76 1784.84 50.416 1786.72 50.416H1789.7C1789.7 49.6 1789.45 48.976 1788.96 48.544C1788.46 48.096 1787.72 47.872 1786.72 47.872C1786.04 47.872 1785.36 47.984 1784.68 48.208C1784.03 48.416 1783.47 48.704 1783 49.072L1781.66 46.456C1782.36 45.96 1783.2 45.576 1784.18 45.304C1785.17 45.032 1786.19 44.896 1787.23 44.896ZM1786.94 55.672C1787.58 55.672 1788.15 55.528 1788.64 55.24C1789.14 54.936 1789.49 54.496 1789.7 53.92V52.6H1787.13C1785.6 52.6 1784.83 53.104 1784.83 54.112C1784.83 54.592 1785.01 54.976 1785.38 55.264C1785.76 55.536 1786.28 55.672 1786.94 55.672ZM1802.38 52.936L1800.58 54.712V58H1796.83V40.192H1800.58V50.272L1806.05 45.088H1810.51L1805.14 50.56L1810.99 58H1806.46L1802.38 52.936Z" fill="black"/>
<path d="M1865.34 41.2H1869.23V58H1865.34V41.2ZM1880.8 44.896C1882.4 44.896 1883.69 45.376 1884.67 46.336C1885.66 47.296 1886.15 48.72 1886.15 50.608V58H1882.41V51.184C1882.41 50.16 1882.19 49.4 1881.74 48.904C1881.29 48.392 1880.64 48.136 1879.79 48.136C1878.85 48.136 1878.1 48.432 1877.54 49.024C1876.98 49.6 1876.7 50.464 1876.7 51.616V58H1872.95V40.192H1876.7V46.432C1877.19 45.936 1877.79 45.56 1878.5 45.304C1879.2 45.032 1879.97 44.896 1880.8 44.896ZM1889.55 40.192H1893.29V58H1889.55V40.192ZM1901.98 44.896C1903.98 44.896 1905.51 45.376 1906.58 46.336C1907.66 47.28 1908.19 48.712 1908.19 50.632V58H1904.69V56.392C1903.98 57.592 1902.67 58.192 1900.75 58.192C1899.76 58.192 1898.9 58.024 1898.16 57.688C1897.44 57.352 1896.89 56.888 1896.5 56.296C1896.12 55.704 1895.93 55.032 1895.93 54.28C1895.93 53.08 1896.38 52.136 1897.27 51.448C1898.18 50.76 1899.58 50.416 1901.47 50.416H1904.45C1904.45 49.6 1904.2 48.976 1903.7 48.544C1903.21 48.096 1902.46 47.872 1901.47 47.872C1900.78 47.872 1900.1 47.984 1899.43 48.208C1898.78 48.416 1898.22 48.704 1897.75 49.072L1896.41 46.456C1897.11 45.96 1897.95 45.576 1898.93 45.304C1899.92 45.032 1900.94 44.896 1901.98 44.896ZM1901.69 55.672C1902.33 55.672 1902.9 55.528 1903.39 55.24C1903.89 54.936 1904.24 54.496 1904.45 53.92V52.6H1901.88C1900.34 52.6 1899.58 53.104 1899.58 54.112C1899.58 54.592 1899.76 54.976 1900.13 55.264C1900.51 55.536 1901.03 55.672 1901.69 55.672ZM1928.12 44.896C1929.73 44.896 1931.01 45.376 1931.96 46.336C1932.92 47.28 1933.4 48.704 1933.4 50.608V58H1929.65V51.184C1929.65 50.16 1929.44 49.4 1929 48.904C1928.59 48.392 1927.99 48.136 1927.2 48.136C1926.32 48.136 1925.63 48.424 1925.12 49C1924.6 49.56 1924.35 50.4 1924.35 51.52V58H1920.6V51.184C1920.6 49.152 1919.79 48.136 1918.16 48.136C1917.29 48.136 1916.6 48.424 1916.09 49C1915.58 49.56 1915.32 50.4 1915.32 51.52V58H1911.58V45.088H1915.16V46.576C1915.64 46.032 1916.22 45.616 1916.91 45.328C1917.61 45.04 1918.38 44.896 1919.21 44.896C1920.12 44.896 1920.95 45.08 1921.68 45.448C1922.42 45.8 1923.01 46.32 1923.46 47.008C1923.99 46.336 1924.65 45.816 1925.45 45.448C1926.27 45.08 1927.16 44.896 1928.12 44.896ZM1949.76 45.088V58H1946.21V56.464C1945.71 57.024 1945.12 57.456 1944.43 57.76C1943.74 58.048 1943 58.192 1942.2 58.192C1940.5 58.192 1939.16 57.704 1938.17 56.728C1937.18 55.752 1936.68 54.304 1936.68 52.384V45.088H1940.42V51.832C1940.42 53.912 1941.3 54.952 1943.04 54.952C1943.94 54.952 1944.66 54.664 1945.2 54.088C1945.74 53.496 1946.02 52.624 1946.02 51.472V45.088H1949.76ZM1956.8 46.792C1957.25 46.168 1957.85 45.696 1958.6 45.376C1959.37 45.056 1960.25 44.896 1961.24 44.896V48.352C1960.83 48.32 1960.55 48.304 1960.4 48.304C1959.33 48.304 1958.49 48.608 1957.88 49.216C1957.28 49.808 1956.97 50.704 1956.97 51.904V58H1953.23V45.088H1956.8V46.792ZM1969.01 52.936L1967.21 54.712V58H1963.47V40.192H1967.21V50.272L1972.69 45.088H1977.15L1971.77 50.56L1977.63 58H1973.09L1969.01 52.936ZM1992.09 45.088V58H1988.54V56.464C1988.04 57.024 1987.45 57.456 1986.76 57.76C1986.07 58.048 1985.33 58.192 1984.53 58.192C1982.83 58.192 1981.49 57.704 1980.5 56.728C1979.5 55.752 1979.01 54.304 1979.01 52.384V45.088H1982.75V51.832C1982.75 53.912 1983.62 54.952 1985.37 54.952C1986.26 54.952 1986.98 54.664 1987.53 54.088C1988.07 53.496 1988.34 52.624 1988.34 51.472V45.088H1992.09ZM2008.37 45.088L2002.54 58.792C2001.95 60.28 2001.21 61.328 2000.33 61.936C1999.47 62.544 1998.42 62.848 1997.19 62.848C1996.52 62.848 1995.85 62.744 1995.2 62.536C1994.54 62.328 1994 62.04 1993.59 61.672L1994.96 59.008C1995.24 59.264 1995.57 59.464 1995.94 59.608C1996.32 59.752 1996.7 59.824 1997.07 59.824C1997.58 59.824 1998 59.696 1998.32 59.44C1998.64 59.2 1998.92 58.792 1999.18 58.216L1999.23 58.096L1993.64 45.088H1997.5L2001.12 53.848L2004.77 45.088H2008.37ZM2022.91 45.088V58H2019.36V56.464C2018.86 57.024 2018.27 57.456 2017.58 57.76C2016.89 58.048 2016.15 58.192 2015.35 58.192C2013.65 58.192 2012.31 57.704 2011.32 56.728C2010.32 55.752 2009.83 54.304 2009.83 52.384V45.088H2013.57V51.832C2013.57 53.912 2014.44 54.952 2016.19 54.952C2017.08 54.952 2017.8 54.664 2018.35 54.088C2018.89 53.496 2019.16 52.624 2019.16 51.472V45.088H2022.91Z" fill="black"/>
<path d="M2084.15 54.4H2076.35L2074.86 58H2070.88L2078.37 41.2H2082.21L2089.72 58H2085.64L2084.15 54.4ZM2082.93 51.448L2080.26 45.016L2077.6 51.448H2082.93ZM2091.2 40.192H2094.94V58H2091.2V40.192ZM2107.68 57.376C2107.31 57.648 2106.86 57.856 2106.31 58C2105.79 58.128 2105.23 58.192 2104.63 58.192C2103.1 58.192 2101.91 57.8 2101.06 57.016C2100.23 56.232 2099.81 55.08 2099.81 53.56V48.256H2097.82V45.376H2099.81V42.232H2103.55V45.376H2106.77V48.256H2103.55V53.512C2103.55 54.056 2103.69 54.48 2103.96 54.784C2104.25 55.072 2104.65 55.216 2105.16 55.216C2105.75 55.216 2106.26 55.056 2106.67 54.736L2107.68 57.376ZM2109.78 45.088H2113.53V58H2109.78V45.088ZM2124.85 44.896C2126.45 44.896 2127.74 45.376 2128.71 46.336C2129.71 47.296 2130.2 48.72 2130.2 50.608V58H2126.46V51.184C2126.46 50.16 2126.23 49.4 2125.79 48.904C2125.34 48.392 2124.69 48.136 2123.84 48.136C2122.9 48.136 2122.15 48.432 2121.59 49.024C2121.03 49.6 2120.75 50.464 2120.75 51.616V58H2117V45.088H2120.58V46.6C2121.07 46.056 2121.69 45.64 2122.43 45.352C2123.16 45.048 2123.97 44.896 2124.85 44.896ZM2137.94 58.192C2136.87 58.192 2135.82 58.064 2134.8 57.808C2133.77 57.536 2132.96 57.2 2132.35 56.8L2133.6 54.112C2134.17 54.48 2134.87 54.784 2135.68 55.024C2136.5 55.248 2137.3 55.36 2138.08 55.36C2139.67 55.36 2140.46 54.968 2140.46 54.184C2140.46 53.816 2140.24 53.552 2139.81 53.392C2139.38 53.232 2138.72 53.096 2137.82 52.984C2136.76 52.824 2135.89 52.64 2135.2 52.432C2134.52 52.224 2133.92 51.856 2133.4 51.328C2132.91 50.8 2132.66 50.048 2132.66 49.072C2132.66 48.256 2132.89 47.536 2133.36 46.912C2133.84 46.272 2134.52 45.776 2135.42 45.424C2136.33 45.072 2137.4 44.896 2138.64 44.896C2139.55 44.896 2140.45 45 2141.35 45.208C2142.26 45.4 2143.01 45.672 2143.6 46.024L2142.36 48.688C2141.22 48.048 2139.98 47.728 2138.64 47.728C2137.84 47.728 2137.24 47.84 2136.84 48.064C2136.44 48.288 2136.24 48.576 2136.24 48.928C2136.24 49.328 2136.45 49.608 2136.88 49.768C2137.32 49.928 2138 50.08 2138.95 50.224C2140 50.4 2140.87 50.592 2141.54 50.8C2142.21 50.992 2142.8 51.352 2143.29 51.88C2143.79 52.408 2144.04 53.144 2144.04 54.088C2144.04 54.888 2143.8 55.6 2143.32 56.224C2142.84 56.848 2142.13 57.336 2141.2 57.688C2140.29 58.024 2139.2 58.192 2137.94 58.192ZM2137.34 63.568C2136.92 63.568 2136.52 63.52 2136.12 63.424C2135.72 63.344 2135.38 63.224 2135.11 63.064L2135.68 61.456C2136.2 61.696 2136.72 61.816 2137.24 61.816C2138.08 61.816 2138.49 61.56 2138.49 61.048C2138.49 60.584 2138.1 60.352 2137.32 60.352H2136.5L2137.12 57.808H2139.12L2138.78 59.2C2139.48 59.28 2140 59.496 2140.34 59.848C2140.69 60.216 2140.87 60.664 2140.87 61.192C2140.87 61.928 2140.55 62.504 2139.91 62.92C2139.27 63.352 2138.41 63.568 2137.34 63.568ZM2158.99 51.592C2158.99 51.64 2158.97 51.976 2158.92 52.6H2149.15C2149.33 53.4 2149.75 54.032 2150.4 54.496C2151.06 54.96 2151.87 55.192 2152.85 55.192C2153.52 55.192 2154.11 55.096 2154.63 54.904C2155.15 54.696 2155.64 54.376 2156.09 53.944L2158.08 56.104C2156.87 57.496 2155.09 58.192 2152.75 58.192C2151.3 58.192 2150.01 57.912 2148.89 57.352C2147.77 56.776 2146.91 55.984 2146.3 54.976C2145.69 53.968 2145.39 52.824 2145.39 51.544C2145.39 50.28 2145.68 49.144 2146.27 48.136C2146.88 47.112 2147.71 46.32 2148.75 45.76C2149.8 45.184 2150.98 44.896 2152.27 44.896C2153.54 44.896 2154.68 45.168 2155.71 45.712C2156.73 46.256 2157.53 47.04 2158.11 48.064C2158.7 49.072 2158.99 50.248 2158.99 51.592ZM2152.3 47.728C2151.45 47.728 2150.74 47.968 2150.16 48.448C2149.59 48.928 2149.23 49.584 2149.11 50.416H2155.47C2155.34 49.6 2154.99 48.952 2154.41 48.472C2153.83 47.976 2153.13 47.728 2152.3 47.728ZM2169.33 44.896C2170.93 44.896 2172.22 45.376 2173.2 46.336C2174.19 47.296 2174.69 48.72 2174.69 50.608V58H2170.94V51.184C2170.94 50.16 2170.72 49.4 2170.27 48.904C2169.82 48.392 2169.17 48.136 2168.33 48.136C2167.38 48.136 2166.63 48.432 2166.07 49.024C2165.51 49.6 2165.23 50.464 2165.23 51.616V58H2161.49V40.192H2165.23V46.432C2165.73 45.936 2166.33 45.56 2167.03 45.304C2167.73 45.032 2168.5 44.896 2169.33 44.896ZM2178.08 45.088H2181.82V58H2178.08V45.088ZM2179.95 43.288C2179.26 43.288 2178.7 43.088 2178.27 42.688C2177.84 42.288 2177.62 41.792 2177.62 41.2C2177.62 40.608 2177.84 40.112 2178.27 39.712C2178.7 39.312 2179.26 39.112 2179.95 39.112C2180.64 39.112 2181.2 39.304 2181.63 39.688C2182.06 40.072 2182.28 40.552 2182.28 41.128C2182.28 41.752 2182.06 42.272 2181.63 42.688C2181.2 43.088 2180.64 43.288 2179.95 43.288ZM2188.87 46.792C2189.32 46.168 2189.92 45.696 2190.67 45.376C2191.44 45.056 2192.32 44.896 2193.31 44.896V48.352C2192.9 48.32 2192.62 48.304 2192.47 48.304C2191.4 48.304 2190.56 48.608 2189.95 49.216C2189.35 49.808 2189.04 50.704 2189.04 51.904V58H2185.3V45.088H2188.87V46.792Z" fill="black"/>
<path d="M2248.37 12.2H2252.26V29H2248.37V12.2ZM2250.31 10.712C2249.72 10.712 2249.23 10.52 2248.85 10.136C2248.48 9.752 2248.3 9.264 2248.3 8.672C2248.3 8.096 2248.48 7.616 2248.85 7.232C2249.23 6.848 2249.72 6.656 2250.31 6.656C2250.91 6.656 2251.39 6.848 2251.75 7.232C2252.14 7.616 2252.33 8.096 2252.33 8.672C2252.33 9.264 2252.14 9.752 2251.75 10.136C2251.39 10.52 2250.91 10.712 2250.31 10.712ZM2272.52 15.896C2274.13 15.896 2275.41 16.376 2276.36 17.336C2277.32 18.28 2277.8 19.704 2277.8 21.608V29H2274.05V22.184C2274.05 21.16 2273.84 20.4 2273.41 19.904C2272.99 19.392 2272.39 19.136 2271.61 19.136C2270.73 19.136 2270.03 19.424 2269.52 20C2269.01 20.56 2268.75 21.4 2268.75 22.52V29H2265.01V22.184C2265.01 20.152 2264.19 19.136 2262.56 19.136C2261.69 19.136 2261.01 19.424 2260.49 20C2259.98 20.56 2259.73 21.4 2259.73 22.52V29H2255.98V16.088H2259.56V17.576C2260.04 17.032 2260.62 16.616 2261.31 16.328C2262.01 16.04 2262.78 15.896 2263.61 15.896C2264.53 15.896 2265.35 16.08 2266.09 16.448C2266.82 16.8 2267.41 17.32 2267.86 18.008C2268.39 17.336 2269.05 16.816 2269.85 16.448C2270.67 16.08 2271.56 15.896 2272.52 15.896ZM2286.36 15.896C2288.36 15.896 2289.9 16.376 2290.97 17.336C2292.04 18.28 2292.58 19.712 2292.58 21.632V29H2289.07V27.392C2288.37 28.592 2287.06 29.192 2285.14 29.192C2284.15 29.192 2283.28 29.024 2282.55 28.688C2281.83 28.352 2281.27 27.888 2280.89 27.296C2280.51 26.704 2280.31 26.032 2280.31 25.28C2280.31 24.08 2280.76 23.136 2281.66 22.448C2282.57 21.76 2283.97 21.416 2285.86 21.416H2288.83C2288.83 20.6 2288.59 19.976 2288.09 19.544C2287.59 19.096 2286.85 18.872 2285.86 18.872C2285.17 18.872 2284.49 18.984 2283.82 19.208C2283.16 19.416 2282.6 19.704 2282.14 20.072L2280.79 17.456C2281.5 16.96 2282.34 16.576 2283.31 16.304C2284.31 16.032 2285.32 15.896 2286.36 15.896ZM2286.07 26.672C2286.71 26.672 2287.28 26.528 2287.78 26.24C2288.27 25.936 2288.63 25.496 2288.83 24.92V23.6H2286.27C2284.73 23.6 2283.96 24.104 2283.96 25.112C2283.96 25.592 2284.15 25.976 2284.51 26.264C2284.9 26.536 2285.42 26.672 2286.07 26.672ZM2312.5 15.896C2314.12 15.896 2315.4 16.376 2316.34 17.336C2317.3 18.28 2317.78 19.704 2317.78 21.608V29H2314.04V22.184C2314.04 21.16 2313.82 20.4 2313.39 19.904C2312.97 19.392 2312.37 19.136 2311.59 19.136C2310.71 19.136 2310.01 19.424 2309.5 20C2308.99 20.56 2308.73 21.4 2308.73 22.52V29H2304.99V22.184C2304.99 20.152 2304.17 19.136 2302.54 19.136C2301.68 19.136 2300.99 19.424 2300.48 20C2299.97 20.56 2299.71 21.4 2299.71 22.52V29H2295.97V16.088H2299.54V17.576C2300.02 17.032 2300.61 16.616 2301.29 16.328C2302 16.04 2302.77 15.896 2303.6 15.896C2304.51 15.896 2305.33 16.08 2306.07 16.448C2306.81 16.8 2307.4 17.32 2307.85 18.008C2308.37 17.336 2309.04 16.816 2309.84 16.448C2310.65 16.08 2311.54 15.896 2312.5 15.896ZM2343.61 12.2V29H2339.72V22.112H2332.09V29H2328.2V12.2H2332.09V18.824H2339.72V12.2H2343.61ZM2352.53 15.896C2354.53 15.896 2356.06 16.376 2357.13 17.336C2358.21 18.28 2358.74 19.712 2358.74 21.632V29H2355.24V27.392C2354.53 28.592 2353.22 29.192 2351.3 29.192C2350.31 29.192 2349.45 29.024 2348.71 28.688C2347.99 28.352 2347.44 27.888 2347.05 27.296C2346.67 26.704 2346.48 26.032 2346.48 25.28C2346.48 24.08 2346.93 23.136 2347.82 22.448C2348.73 21.76 2350.13 21.416 2352.02 21.416H2355C2355 20.6 2354.75 19.976 2354.25 19.544C2353.76 19.096 2353.01 18.872 2352.02 18.872C2351.33 18.872 2350.65 18.984 2349.98 19.208C2349.33 19.416 2348.77 19.704 2348.3 20.072L2346.96 17.456C2347.66 16.96 2348.5 16.576 2349.48 16.304C2350.47 16.032 2351.49 15.896 2352.53 15.896ZM2352.24 26.672C2352.88 26.672 2353.45 26.528 2353.94 26.24C2354.44 25.936 2354.79 25.496 2355 24.92V23.6H2352.43C2350.89 23.6 2350.13 24.104 2350.13 25.112C2350.13 25.592 2350.31 25.976 2350.68 26.264C2351.06 26.536 2351.58 26.672 2352.24 26.672ZM2370.46 28.376C2370.09 28.648 2369.63 28.856 2369.09 29C2368.56 29.128 2368 29.192 2367.41 29.192C2365.87 29.192 2364.68 28.8 2363.83 28.016C2363 27.232 2362.59 26.08 2362.59 24.56V19.256H2360.59V16.376H2362.59V13.232H2366.33V16.376H2369.55V19.256H2366.33V24.512C2366.33 25.056 2366.47 25.48 2366.74 25.784C2367.03 26.072 2367.43 26.216 2367.94 26.216C2368.53 26.216 2369.03 26.056 2369.45 25.736L2370.46 28.376ZM2372.56 16.088H2376.3V29H2372.56V16.088ZM2374.43 14.288C2373.74 14.288 2373.18 14.088 2372.75 13.688C2372.32 13.288 2372.1 12.792 2372.1 12.2C2372.1 11.608 2372.32 11.112 2372.75 10.712C2373.18 10.312 2373.74 10.112 2374.43 10.112C2375.12 10.112 2375.68 10.304 2376.11 10.688C2376.54 11.072 2376.76 11.552 2376.76 12.128C2376.76 12.752 2376.54 13.272 2376.11 13.688C2375.68 14.088 2375.12 14.288 2374.43 14.288ZM2387.41 15.896C2388.61 15.896 2389.7 16.176 2390.67 16.736C2391.67 17.28 2392.44 18.056 2393 19.064C2393.56 20.056 2393.84 21.216 2393.84 22.544C2393.84 23.872 2393.56 25.04 2393 26.048C2392.44 27.04 2391.67 27.816 2390.67 28.376C2389.7 28.92 2388.61 29.192 2387.41 29.192C2385.76 29.192 2384.47 28.672 2383.52 27.632V33.656H2379.78V16.088H2383.35V17.576C2384.28 16.456 2385.63 15.896 2387.41 15.896ZM2386.76 26.12C2387.72 26.12 2388.51 25.8 2389.11 25.16C2389.74 24.504 2390.05 23.632 2390.05 22.544C2390.05 21.456 2389.74 20.592 2389.11 19.952C2388.51 19.296 2387.72 18.968 2386.76 18.968C2385.8 18.968 2385.01 19.296 2384.39 19.952C2383.78 20.592 2383.47 21.456 2383.47 22.544C2383.47 23.632 2383.78 24.504 2384.39 25.16C2385.01 25.8 2385.8 26.12 2386.76 26.12ZM2287.71 41.2H2291.6V54.832H2300.02V58H2287.71V41.2ZM2301.93 45.088H2305.68V58H2301.93V45.088ZM2303.8 43.288C2303.12 43.288 2302.56 43.088 2302.12 42.688C2301.69 42.288 2301.48 41.792 2301.48 41.2C2301.48 40.608 2301.69 40.112 2302.12 39.712C2302.56 39.312 2303.12 39.112 2303.8 39.112C2304.49 39.112 2305.05 39.304 2305.48 39.688C2305.92 40.072 2306.13 40.552 2306.13 41.128C2306.13 41.752 2305.92 42.272 2305.48 42.688C2305.05 43.088 2304.49 43.288 2303.8 43.288ZM2313.49 58.192C2312.42 58.192 2311.37 58.064 2310.35 57.808C2309.33 57.536 2308.51 57.2 2307.9 56.8L2309.15 54.112C2309.73 54.48 2310.42 54.784 2311.24 55.024C2312.05 55.248 2312.85 55.36 2313.64 55.36C2315.22 55.36 2316.01 54.968 2316.01 54.184C2316.01 53.816 2315.8 53.552 2315.37 53.392C2314.93 53.232 2314.27 53.096 2313.37 52.984C2312.32 52.824 2311.45 52.64 2310.76 52.432C2310.07 52.224 2309.47 51.856 2308.96 51.328C2308.46 50.8 2308.21 50.048 2308.21 49.072C2308.21 48.256 2308.45 47.536 2308.91 46.912C2309.39 46.272 2310.08 45.776 2310.97 45.424C2311.89 45.072 2312.96 44.896 2314.19 44.896C2315.1 44.896 2316.01 45 2316.9 45.208C2317.81 45.4 2318.57 45.672 2319.16 46.024L2317.91 48.688C2316.77 48.048 2315.53 47.728 2314.19 47.728C2313.39 47.728 2312.79 47.84 2312.39 48.064C2311.99 48.288 2311.79 48.576 2311.79 48.928C2311.79 49.328 2312.01 49.608 2312.44 49.768C2312.87 49.928 2313.56 50.08 2314.5 50.224C2315.56 50.4 2316.42 50.592 2317.09 50.8C2317.77 50.992 2318.35 51.352 2318.85 51.88C2319.34 52.408 2319.59 53.144 2319.59 54.088C2319.59 54.888 2319.35 55.6 2318.87 56.224C2318.39 56.848 2317.69 57.336 2316.76 57.688C2315.85 58.024 2314.76 58.192 2313.49 58.192ZM2334.55 51.592C2334.55 51.64 2334.52 51.976 2334.48 52.6H2324.71C2324.88 53.4 2325.3 54.032 2325.96 54.496C2326.61 54.96 2327.43 55.192 2328.4 55.192C2329.08 55.192 2329.67 55.096 2330.18 54.904C2330.71 54.696 2331.2 54.376 2331.64 53.944L2333.64 56.104C2332.42 57.496 2330.64 58.192 2328.31 58.192C2326.85 58.192 2325.56 57.912 2324.44 57.352C2323.32 56.776 2322.46 55.984 2321.85 54.976C2321.24 53.968 2320.94 52.824 2320.94 51.544C2320.94 50.28 2321.24 49.144 2321.83 48.136C2322.44 47.112 2323.26 46.32 2324.3 45.76C2325.36 45.184 2326.53 44.896 2327.83 44.896C2329.09 44.896 2330.24 45.168 2331.26 45.712C2332.28 46.256 2333.08 47.04 2333.66 48.064C2334.25 49.072 2334.55 50.248 2334.55 51.592ZM2327.85 47.728C2327 47.728 2326.29 47.968 2325.72 48.448C2325.14 48.928 2324.79 49.584 2324.66 50.416H2331.02C2330.89 49.6 2330.54 48.952 2329.96 48.472C2329.39 47.976 2328.68 47.728 2327.85 47.728ZM2341.38 58.192C2340.31 58.192 2339.26 58.064 2338.24 57.808C2337.22 57.536 2336.4 57.2 2335.79 56.8L2337.04 54.112C2337.62 54.48 2338.31 54.784 2339.13 55.024C2339.94 55.248 2340.74 55.36 2341.53 55.36C2343.11 55.36 2343.9 54.968 2343.9 54.184C2343.9 53.816 2343.69 53.552 2343.26 53.392C2342.82 53.232 2342.16 53.096 2341.26 52.984C2340.21 52.824 2339.34 52.64 2338.65 52.432C2337.96 52.224 2337.36 51.856 2336.85 51.328C2336.35 50.8 2336.1 50.048 2336.1 49.072C2336.1 48.256 2336.34 47.536 2336.8 46.912C2337.28 46.272 2337.97 45.776 2338.86 45.424C2339.78 45.072 2340.85 44.896 2342.08 44.896C2342.99 44.896 2343.9 45 2344.79 45.208C2345.7 45.4 2346.46 45.672 2347.05 46.024L2345.8 48.688C2344.66 48.048 2343.42 47.728 2342.08 47.728C2341.28 47.728 2340.68 47.84 2340.28 48.064C2339.88 48.288 2339.68 48.576 2339.68 48.928C2339.68 49.328 2339.9 49.608 2340.33 49.768C2340.76 49.928 2341.45 50.08 2342.39 50.224C2343.45 50.4 2344.31 50.592 2344.98 50.8C2345.66 50.992 2346.24 51.352 2346.74 51.88C2347.23 52.408 2347.48 53.144 2347.48 54.088C2347.48 54.888 2347.24 55.6 2346.76 56.224C2346.28 56.848 2345.58 57.336 2344.65 57.688C2343.74 58.024 2342.65 58.192 2341.38 58.192ZM2349.79 45.088H2353.53V58H2349.79V45.088ZM2351.66 43.288C2350.97 43.288 2350.41 43.088 2349.98 42.688C2349.55 42.288 2349.33 41.792 2349.33 41.2C2349.33 40.608 2349.55 40.112 2349.98 39.712C2350.41 39.312 2350.97 39.112 2351.66 39.112C2352.35 39.112 2352.91 39.304 2353.34 39.688C2353.77 40.072 2353.99 40.552 2353.99 41.128C2353.99 41.752 2353.77 42.272 2353.34 42.688C2352.91 43.088 2352.35 43.288 2351.66 43.288Z" fill="black"/>
<path d="M2460.34 41.2H2467.97C2469.79 41.2 2471.4 41.552 2472.79 42.256C2474.2 42.944 2475.29 43.92 2476.06 45.184C2476.84 46.448 2477.23 47.92 2477.23 49.6C2477.23 51.28 2476.84 52.752 2476.06 54.016C2475.29 55.28 2474.2 56.264 2472.79 56.968C2471.4 57.656 2469.79 58 2467.97 58H2460.34V41.2ZM2467.78 54.808C2469.46 54.808 2470.79 54.344 2471.78 53.416C2472.79 52.472 2473.3 51.2 2473.3 49.6C2473.3 48 2472.79 46.736 2471.78 45.808C2470.79 44.864 2469.46 44.392 2467.78 44.392H2464.22V54.808H2467.78ZM2492.91 45.088V58H2489.36V56.464C2488.86 57.024 2488.27 57.456 2487.58 57.76C2486.89 58.048 2486.15 58.192 2485.35 58.192C2483.65 58.192 2482.31 57.704 2481.32 56.728C2480.32 55.752 2479.83 54.304 2479.83 52.384V45.088H2483.57V51.832C2483.57 53.912 2484.44 54.952 2486.19 54.952C2487.08 54.952 2487.8 54.664 2488.35 54.088C2488.89 53.496 2489.16 52.624 2489.16 51.472V45.088H2492.91ZM2509.53 40.192V58H2505.95V56.512C2505.02 57.632 2503.68 58.192 2501.92 58.192C2500.7 58.192 2499.6 57.92 2498.61 57.376C2497.63 56.832 2496.86 56.056 2496.3 55.048C2495.74 54.04 2495.46 52.872 2495.46 51.544C2495.46 50.216 2495.74 49.048 2496.3 48.04C2496.86 47.032 2497.63 46.256 2498.61 45.712C2499.6 45.168 2500.7 44.896 2501.92 44.896C2503.57 44.896 2504.86 45.416 2505.78 46.456V40.192H2509.53ZM2502.57 55.12C2503.51 55.12 2504.3 54.8 2504.92 54.16C2505.54 53.504 2505.86 52.632 2505.86 51.544C2505.86 50.456 2505.54 49.592 2504.92 48.952C2504.3 48.296 2503.51 47.968 2502.57 47.968C2501.61 47.968 2500.82 48.296 2500.19 48.952C2499.57 49.592 2499.26 50.456 2499.26 51.544C2499.26 52.632 2499.57 53.504 2500.19 54.16C2500.82 54.8 2501.61 55.12 2502.57 55.12ZM2526 45.088V58H2522.45V56.464C2521.95 57.024 2521.36 57.456 2520.67 57.76C2519.99 58.048 2519.24 58.192 2518.44 58.192C2516.75 58.192 2515.4 57.704 2514.41 56.728C2513.42 55.752 2512.92 54.304 2512.92 52.384V45.088H2516.67V51.832C2516.67 53.912 2517.54 54.952 2519.28 54.952C2520.18 54.952 2520.9 54.664 2521.44 54.088C2521.99 53.496 2522.26 52.624 2522.26 51.472V45.088H2526ZM2529.47 40.192H2533.21V58H2529.47V40.192ZM2536.69 40.192H2540.43V58H2536.69V40.192ZM2556.92 45.088V58H2553.36V56.464C2552.87 57.024 2552.28 57.456 2551.59 57.76C2550.9 58.048 2550.16 58.192 2549.36 58.192C2547.66 58.192 2546.32 57.704 2545.32 56.728C2544.33 55.752 2543.84 54.304 2543.84 52.384V45.088H2547.58V51.832C2547.58 53.912 2548.45 54.952 2550.2 54.952C2551.09 54.952 2551.81 54.664 2552.36 54.088C2552.9 53.496 2553.17 52.624 2553.17 51.472V45.088H2556.92Z" fill="black"/>
<path d="M2645.63 41.2V58H2642.43L2634.06 47.8V58H2630.22V41.2H2633.43L2641.79 51.4V41.2H2645.63ZM2661.99 51.592C2661.99 51.64 2661.96 51.976 2661.91 52.6H2652.15C2652.32 53.4 2652.74 54.032 2653.39 54.496C2654.05 54.96 2654.87 55.192 2655.84 55.192C2656.51 55.192 2657.11 55.096 2657.62 54.904C2658.15 54.696 2658.63 54.376 2659.08 53.944L2661.07 56.104C2659.86 57.496 2658.08 58.192 2655.75 58.192C2654.29 58.192 2653 57.912 2651.88 57.352C2650.76 56.776 2649.9 55.984 2649.29 54.976C2648.68 53.968 2648.38 52.824 2648.38 51.544C2648.38 50.28 2648.67 49.144 2649.27 48.136C2649.87 47.112 2650.7 46.32 2651.74 45.76C2652.79 45.184 2653.97 44.896 2655.27 44.896C2656.53 44.896 2657.67 45.168 2658.7 45.712C2659.72 46.256 2660.52 47.04 2661.1 48.064C2661.69 49.072 2661.99 50.248 2661.99 51.592ZM2655.29 47.728C2654.44 47.728 2653.73 47.968 2653.15 48.448C2652.58 48.928 2652.23 49.584 2652.1 50.416H2658.46C2658.33 49.6 2657.98 48.952 2657.4 48.472C2656.83 47.976 2656.12 47.728 2655.29 47.728ZM2670.72 58.192C2669.34 58.192 2668.1 57.912 2667 57.352C2665.91 56.776 2665.05 55.984 2664.43 54.976C2663.82 53.968 2663.52 52.824 2663.52 51.544C2663.52 50.264 2663.82 49.12 2664.43 48.112C2665.05 47.104 2665.91 46.32 2667 45.76C2668.1 45.184 2669.34 44.896 2670.72 44.896C2672.08 44.896 2673.26 45.184 2674.27 45.76C2675.29 46.32 2676.04 47.128 2676.5 48.184L2673.6 49.744C2672.93 48.56 2671.96 47.968 2670.69 47.968C2669.72 47.968 2668.91 48.288 2668.27 48.928C2667.63 49.568 2667.31 50.44 2667.31 51.544C2667.31 52.648 2667.63 53.52 2668.27 54.16C2668.91 54.8 2669.72 55.12 2670.69 55.12C2671.97 55.12 2672.94 54.528 2673.6 53.344L2676.5 54.928C2676.04 55.952 2675.29 56.752 2674.27 57.328C2673.26 57.904 2672.08 58.192 2670.72 58.192ZM2678.66 45.088H2682.4V58H2678.66V45.088ZM2680.53 43.288C2679.84 43.288 2679.28 43.088 2678.85 42.688C2678.42 42.288 2678.2 41.792 2678.2 41.2C2678.2 40.608 2678.42 40.112 2678.85 39.712C2679.28 39.312 2679.84 39.112 2680.53 39.112C2681.22 39.112 2681.78 39.304 2682.21 39.688C2682.64 40.072 2682.86 40.552 2682.86 41.128C2682.86 41.752 2682.64 42.272 2682.21 42.688C2681.78 43.088 2681.22 43.288 2680.53 43.288ZM2693.51 44.896C2694.71 44.896 2695.8 45.176 2696.77 45.736C2697.76 46.28 2698.54 47.056 2699.1 48.064C2699.66 49.056 2699.94 50.216 2699.94 51.544C2699.94 52.872 2699.66 54.04 2699.1 55.048C2698.54 56.04 2697.76 56.816 2696.77 57.376C2695.8 57.92 2694.71 58.192 2693.51 58.192C2691.86 58.192 2690.56 57.672 2689.62 56.632V62.656H2685.88V45.088H2689.45V46.576C2690.38 45.456 2691.73 44.896 2693.51 44.896ZM2692.86 55.12C2693.82 55.12 2694.6 54.8 2695.21 54.16C2695.84 53.504 2696.15 52.632 2696.15 51.544C2696.15 50.456 2695.84 49.592 2695.21 48.952C2694.6 48.296 2693.82 47.968 2692.86 47.968C2691.9 47.968 2691.11 48.296 2690.48 48.952C2689.88 49.592 2689.57 50.456 2689.57 51.544C2689.57 52.632 2689.88 53.504 2690.48 54.16C2691.11 54.8 2691.9 55.12 2692.86 55.12ZM2713.4 44.32V48.76H2721.17V51.88H2713.4V58H2709.51V41.2H2722.2V44.32H2713.4ZM2729.43 44.896C2731.43 44.896 2732.96 45.376 2734.04 46.336C2735.11 47.28 2735.64 48.712 2735.64 50.632V58H2732.14V56.392C2731.44 57.592 2730.12 58.192 2728.2 58.192C2727.21 58.192 2726.35 58.024 2725.61 57.688C2724.89 57.352 2724.34 56.888 2723.96 56.296C2723.57 55.704 2723.38 55.032 2723.38 54.28C2723.38 53.08 2723.83 52.136 2724.72 51.448C2725.64 50.76 2727.04 50.416 2728.92 50.416H2731.9C2731.9 49.6 2731.65 48.976 2731.16 48.544C2730.66 48.096 2729.92 47.872 2728.92 47.872C2728.24 47.872 2727.56 47.984 2726.88 48.208C2726.23 48.416 2725.67 48.704 2725.2 49.072L2723.86 46.456C2724.56 45.96 2725.4 45.576 2726.38 45.304C2727.37 45.032 2728.39 44.896 2729.43 44.896ZM2729.14 55.672C2729.78 55.672 2730.35 55.528 2730.84 55.24C2731.34 54.936 2731.69 54.496 2731.9 53.92V52.6H2729.33C2727.8 52.6 2727.03 53.104 2727.03 54.112C2727.03 54.592 2727.21 54.976 2727.58 55.264C2727.96 55.536 2728.48 55.672 2729.14 55.672ZM2749.66 55.12V58H2738.14V55.744L2744.72 47.968H2738.31V45.088H2749.45V47.344L2742.87 55.12H2749.66ZM2752.06 45.088H2755.81V58H2752.06V45.088ZM2759.28 40.192H2763.03V58H2759.28V40.192Z" fill="black"/>
<path d="M2827.28 58.288C2825.57 58.288 2824.02 57.92 2822.63 57.184C2821.25 56.432 2820.16 55.4 2819.36 54.088C2818.58 52.76 2818.19 51.264 2818.19 49.6C2818.19 47.936 2818.58 46.448 2819.36 45.136C2820.16 43.808 2821.25 42.776 2822.63 42.04C2824.02 41.288 2825.58 40.912 2827.31 40.912C2828.76 40.912 2830.07 41.168 2831.24 41.68C2832.43 42.192 2833.42 42.928 2834.22 43.888L2831.72 46.192C2830.59 44.88 2829.18 44.224 2827.5 44.224C2826.46 44.224 2825.53 44.456 2824.71 44.92C2823.9 45.368 2823.26 46 2822.79 46.816C2822.35 47.632 2822.12 48.56 2822.12 49.6C2822.12 50.64 2822.35 51.568 2822.79 52.384C2823.26 53.2 2823.9 53.84 2824.71 54.304C2825.53 54.752 2826.46 54.976 2827.5 54.976C2829.18 54.976 2830.59 54.312 2831.72 52.984L2834.22 55.288C2833.42 56.264 2832.43 57.008 2831.24 57.52C2830.06 58.032 2828.74 58.288 2827.28 58.288ZM2825.99 63.568C2825.57 63.568 2825.16 63.52 2824.76 63.424C2824.36 63.344 2824.03 63.224 2823.75 63.064L2824.33 61.456C2824.84 61.696 2825.36 61.816 2825.89 61.816C2826.72 61.816 2827.14 61.56 2827.14 61.048C2827.14 60.584 2826.75 60.352 2825.96 60.352H2825.15L2825.77 57.808H2827.76L2827.43 59.2C2828.13 59.28 2828.65 59.496 2828.99 59.848C2829.34 60.216 2829.51 60.664 2829.51 61.192C2829.51 61.928 2829.19 62.504 2828.55 62.92C2827.91 63.352 2827.06 63.568 2825.99 63.568ZM2848.78 51.592C2848.78 51.64 2848.76 51.976 2848.71 52.6H2838.94C2839.12 53.4 2839.53 54.032 2840.19 54.496C2840.85 54.96 2841.66 55.192 2842.64 55.192C2843.31 55.192 2843.9 55.096 2844.41 54.904C2844.94 54.696 2845.43 54.376 2845.88 53.944L2847.87 56.104C2846.65 57.496 2844.88 58.192 2842.54 58.192C2841.09 58.192 2839.8 57.912 2838.68 57.352C2837.56 56.776 2836.69 55.984 2836.09 54.976C2835.48 53.968 2835.17 52.824 2835.17 51.544C2835.17 50.28 2835.47 49.144 2836.06 48.136C2836.67 47.112 2837.49 46.32 2838.53 45.76C2839.59 45.184 2840.77 44.896 2842.06 44.896C2843.33 44.896 2844.47 45.168 2845.49 45.712C2846.52 46.256 2847.32 47.04 2847.89 48.064C2848.49 49.072 2848.78 50.248 2848.78 51.592ZM2842.09 47.728C2841.24 47.728 2840.53 47.968 2839.95 48.448C2839.37 48.928 2839.02 49.584 2838.89 50.416H2845.25C2845.13 49.6 2844.77 48.952 2844.2 48.472C2843.62 47.976 2842.92 47.728 2842.09 47.728ZM2856.82 52.936L2855.02 54.712V58H2851.27V40.192H2855.02V50.272L2860.49 45.088H2864.95L2859.58 50.56L2865.43 58H2860.9L2856.82 52.936ZM2883.56 44.896C2885.18 44.896 2886.46 45.376 2887.4 46.336C2888.36 47.28 2888.84 48.704 2888.84 50.608V58H2885.1V51.184C2885.1 50.16 2884.88 49.4 2884.45 48.904C2884.03 48.392 2883.43 48.136 2882.65 48.136C2881.77 48.136 2881.07 48.424 2880.56 49C2880.05 49.56 2879.79 50.4 2879.79 51.52V58H2876.05V51.184C2876.05 49.152 2875.23 48.136 2873.6 48.136C2872.74 48.136 2872.05 48.424 2871.54 49C2871.02 49.56 2870.77 50.4 2870.77 51.52V58H2867.02V45.088H2870.6V46.576C2871.08 46.032 2871.66 45.616 2872.35 45.328C2873.06 45.04 2873.82 44.896 2874.66 44.896C2875.57 44.896 2876.39 45.08 2877.13 45.448C2877.86 45.8 2878.46 46.32 2878.9 47.008C2879.43 46.336 2880.1 45.816 2880.9 45.448C2881.71 45.08 2882.6 44.896 2883.56 44.896ZM2904.99 51.592C2904.99 51.64 2904.96 51.976 2904.91 52.6H2895.15C2895.32 53.4 2895.74 54.032 2896.39 54.496C2897.05 54.96 2897.87 55.192 2898.84 55.192C2899.51 55.192 2900.11 55.096 2900.62 54.904C2901.15 54.696 2901.63 54.376 2902.08 53.944L2904.07 56.104C2902.86 57.496 2901.08 58.192 2898.75 58.192C2897.29 58.192 2896 57.912 2894.88 57.352C2893.76 56.776 2892.9 55.984 2892.29 54.976C2891.68 53.968 2891.38 52.824 2891.38 51.544C2891.38 50.28 2891.67 49.144 2892.27 48.136C2892.87 47.112 2893.7 46.32 2894.74 45.76C2895.79 45.184 2896.97 44.896 2898.27 44.896C2899.53 44.896 2900.67 45.168 2901.7 45.712C2902.72 46.256 2903.52 47.04 2904.1 48.064C2904.69 49.072 2904.99 50.248 2904.99 51.592ZM2898.29 47.728C2897.44 47.728 2896.73 47.968 2896.15 48.448C2895.58 48.928 2895.23 49.584 2895.1 50.416H2901.46C2901.33 49.6 2900.98 48.952 2900.4 48.472C2899.83 47.976 2899.12 47.728 2898.29 47.728ZM2913.02 52.936L2911.22 54.712V58H2907.48V40.192H2911.22V50.272L2916.69 45.088H2921.16L2915.78 50.56L2921.64 58H2917.1L2913.02 52.936ZM2928.9 58.192C2927.54 58.192 2926.32 57.912 2925.23 57.352C2924.16 56.776 2923.32 55.984 2922.71 54.976C2922.1 53.968 2921.8 52.824 2921.8 51.544C2921.8 50.264 2922.1 49.12 2922.71 48.112C2923.32 47.104 2924.16 46.32 2925.23 45.76C2926.32 45.184 2927.54 44.896 2928.9 44.896C2930.26 44.896 2931.48 45.184 2932.55 45.76C2933.62 46.32 2934.46 47.104 2935.07 48.112C2935.68 49.12 2935.98 50.264 2935.98 51.544C2935.98 52.824 2935.68 53.968 2935.07 54.976C2934.46 55.984 2933.62 56.776 2932.55 57.352C2931.48 57.912 2930.26 58.192 2928.9 58.192ZM2928.9 55.12C2929.86 55.12 2930.65 54.8 2931.26 54.16C2931.88 53.504 2932.19 52.632 2932.19 51.544C2932.19 50.456 2931.88 49.592 2931.26 48.952C2930.65 48.296 2929.86 47.968 2928.9 47.968C2927.94 47.968 2927.15 48.296 2926.53 48.952C2925.9 49.592 2925.59 50.456 2925.59 51.544C2925.59 52.632 2925.9 53.504 2926.53 54.16C2927.15 54.8 2927.94 55.12 2928.9 55.12ZM2926.43 43.312C2925.95 43.312 2925.55 43.16 2925.23 42.856C2924.91 42.536 2924.75 42.136 2924.75 41.656C2924.75 41.176 2924.91 40.784 2925.23 40.48C2925.55 40.16 2925.95 40 2926.43 40C2926.91 40 2927.3 40.16 2927.61 40.48C2927.93 40.784 2928.09 41.176 2928.09 41.656C2928.09 42.136 2927.93 42.536 2927.61 42.856C2927.3 43.16 2926.91 43.312 2926.43 43.312ZM2931.28 43.312C2930.8 43.312 2930.4 43.16 2930.08 42.856C2929.78 42.536 2929.62 42.136 2929.62 41.656C2929.62 41.176 2929.78 40.784 2930.08 40.48C2930.4 40.16 2930.8 40 2931.28 40C2931.76 40 2932.16 40.16 2932.48 40.48C2932.8 40.784 2932.96 41.176 2932.96 41.656C2932.96 42.136 2932.8 42.536 2932.48 42.856C2932.16 43.16 2931.76 43.312 2931.28 43.312ZM2950.95 45.088L2945.12 58.792C2944.53 60.28 2943.79 61.328 2942.91 61.936C2942.05 62.544 2941 62.848 2939.77 62.848C2939.09 62.848 2938.43 62.744 2937.77 62.536C2937.12 62.328 2936.58 62.04 2936.17 61.672L2937.53 59.008C2937.82 59.264 2938.15 59.464 2938.52 59.608C2938.9 59.752 2939.28 59.824 2939.65 59.824C2940.16 59.824 2940.57 59.696 2940.89 59.44C2941.21 59.2 2941.5 58.792 2941.76 58.216L2941.81 58.096L2936.21 45.088H2940.08L2943.7 53.848L2947.35 45.088H2950.95Z" fill="black"/>
<rect x="1389" y="123" width="6" height="21" fill="black"/>
<rect x="1204" y="123" width="6" height="21" fill="black"/>
<rect x="2505" y="123" width="6" height="21" fill="black"/>
<rect x="97" y="123" width="6" height="20" fill="black"/>
<g clip-path="url(#clip0_488_1233)">
<path d="M61 161.001C61 157.441 62.0557 153.961 64.0335 151.001C66.0114 148.041 68.8226 145.734 72.1117 144.371C75.4008 143.009 79.02 142.652 82.5116 143.347C86.0033 144.041 89.2106 145.756 91.7279 148.273C94.2453 150.79 95.9596 153.998 96.6541 157.489C97.3487 160.981 96.9922 164.6 95.6298 167.889C94.2675 171.178 91.9603 173.99 89.0003 175.967C86.0402 177.945 82.5601 179.001 79 179.001C76.6654 179.03 74.3478 178.6 72.1797 177.733C70.0116 176.867 68.0353 175.582 66.3638 173.952C64.6923 172.322 63.3583 170.378 62.438 168.232C61.5177 166.087 61.029 163.781 61 161.446V161.001Z" fill="#65656A"/>
<path d="M69.373 167.675V154.307H74.045C76.7753 154.307 78.3528 155.48 78.3528 157.725C78.3617 158.467 78.0928 159.185 77.5988 159.739C77.1048 160.293 76.4215 160.642 75.6832 160.718C76.4918 160.728 77.2647 161.053 77.8384 161.623C78.4121 162.193 78.7416 162.963 78.7573 163.772C78.7573 166.401 76.8764 167.635 73.9843 167.635L69.373 167.675ZM73.1348 159.707C74.8944 159.707 75.7034 159.14 75.7034 158.089C75.7034 157.037 75.1573 156.41 73.2764 156.41H72.0427V159.707H73.1348ZM73.3573 165.572C75.0966 165.572 76.0877 164.965 76.0877 163.711C76.0877 162.457 75.1978 161.689 73.418 161.689H72.0427V165.552L73.3573 165.572Z" fill="white"/>
<path d="M84.643 167.675V157.361L82.3778 159.181L81.043 157.421L84.9463 154.287H87.2924V167.675H84.643Z" fill="white"/>
</g>
<rect x="655" y="123" width="6" height="20" fill="black"/>
<g clip-path="url(#clip1_488_1233)">
<path d="M1189 161C1189 157.44 1190.06 153.96 1192.03 151C1194.01 148.04 1196.82 145.733 1200.11 144.37C1203.4 143.008 1207.02 142.651 1210.51 143.346C1214 144.04 1217.21 145.755 1219.73 148.272C1222.25 150.789 1223.96 153.997 1224.65 157.488C1225.35 160.98 1224.99 164.599 1223.63 167.888C1222.27 171.177 1219.96 173.989 1217 175.966C1214.04 177.944 1210.56 179 1207 179C1202.23 178.995 1197.65 177.097 1194.28 173.722C1190.9 170.348 1189.01 165.772 1189 161Z" fill="#9D9D9C"/>
<path d="M1191.41 155.6H1195.15L1197.96 164.458H1198L1200.75 155.58H1204.51L1204.53 167.29H1202.29L1202.27 157.622H1202.25L1199.11 167.29H1196.87L1193.69 157.643L1193.65 157.683L1193.67 167.31H1191.43L1191.41 155.6Z" fill="white"/>
<path d="M1205.95 165.105C1206.77 165.435 1207.65 165.613 1208.54 165.631C1209.51 165.631 1211.01 165.146 1211.01 163.973C1211.01 162.8 1209.91 162.132 1208.42 162.132H1207.2V160.292H1208.27C1209.85 160.292 1210.86 159.766 1210.86 158.755C1210.86 157.744 1209.99 157.157 1208.92 157.157C1208.01 157.166 1207.11 157.38 1206.29 157.784L1206.15 155.903C1207.2 155.503 1208.31 155.297 1209.43 155.296C1210.86 155.296 1213.29 155.802 1213.29 158.29C1213.32 158.95 1213.12 159.6 1212.73 160.131C1212.33 160.661 1211.77 161.04 1211.13 161.202C1211.77 161.307 1212.35 161.651 1212.74 162.165C1213.14 162.679 1213.33 163.325 1213.27 163.973C1213.27 166.764 1210.74 167.472 1208.8 167.472C1207.76 167.482 1206.73 167.353 1205.73 167.087L1205.95 165.105Z" fill="white"/>
<path d="M1213.79 162.942L1218.16 155.54H1221.08V163.063H1222.57V164.802H1221.08V167.27H1218.85V164.843H1213.82L1213.79 162.942ZM1218.85 163.083V157.987L1215.92 163.083H1218.85Z" fill="white"/>
</g>
<g clip-path="url(#clip2_488_1233)">
<mask id="path-65-inside-1_488_1233" fill="white">
<path d="M662 146L664.5 144H693L696 146V175.5L693.5 178H664.5L662 175.5V146Z"/>
</mask>
<path d="M664.5 144V80H642.05L624.52 94.0244L664.5 144ZM662 146L622.02 96.0244L598 115.24V146H662ZM662 175.5H598V202.01L616.745 220.755L662 175.5ZM664.5 178L619.245 223.255L637.99 242H664.5V178ZM693.5 178V242H720.01L738.755 223.255L693.5 178ZM696 175.5L741.255 220.755L760 202.01V175.5H696ZM696 146H760V111.748L731.501 92.7488L696 146ZM693 144L728.501 90.7488L712.378 80H693V144ZM624.52 94.0244L622.02 96.0244L701.98 195.976L704.48 193.976L624.52 94.0244ZM598 146V175.5H726V146H598ZM616.745 220.755L619.245 223.255L709.755 132.745L707.255 130.245L616.745 220.755ZM664.5 242H693.5V114H664.5V242ZM738.755 223.255L741.255 220.755L650.745 130.245L648.245 132.745L738.755 223.255ZM760 175.5V146H632V175.5H760ZM731.501 92.7488L728.501 90.7488L657.499 197.251L660.499 199.251L731.501 92.7488ZM693 80H664.5V208H693V80Z" fill="white" mask="url(#path-65-inside-1_488_1233)"/>
<path d="M665.407 144.524C663.813 144.524 662.516 145.82 662.516 147.412V174.589C662.516 176.182 663.813 177.476 665.407 177.476H692.59C694.186 177.476 695.482 176.182 695.482 174.589V147.412C695.482 145.82 694.186 144.524 692.59 144.524H665.407ZM692.59 179H665.407C662.976 179 661 177.021 661 174.589V147.412C661 144.979 662.976 143 665.407 143H692.59C695.023 143 697 144.979 697 147.412V174.589C697 177.021 695.023 179 692.59 179Z" fill="#0F1F5C"/>
<path d="M683.699 167.671V169.035C683.699 170.697 686.162 170.697 686.162 169.035V167.671C687.702 167.671 687.663 166.411 687.663 166.411V159.667L687.592 158.979L686.761 152.672C686.531 151.533 685.793 151.077 684.687 150.624C683.595 150.175 680.921 149.639 678.993 149.623C677.067 149.639 674.397 150.175 673.308 150.624C672.203 151.077 671.467 151.533 671.236 152.672L670.408 158.979L670.336 159.667V166.411C670.336 166.411 670.298 167.671 671.835 167.671V169.035C671.835 170.697 674.295 170.697 674.295 169.035V167.671H683.699ZM684.928 164.946C684.277 164.946 683.747 164.424 683.747 163.78C683.747 163.135 684.277 162.613 684.928 162.613C685.581 162.613 686.112 163.135 686.112 163.78C686.112 164.424 685.581 164.946 684.928 164.946ZM675.397 152.239C674.709 152.239 674.709 151.215 675.397 151.215H682.594C683.283 151.215 683.283 152.239 682.594 152.239H675.397ZM684.495 153.273C685.227 153.273 685.417 153.641 685.505 154.195L686.107 158.77C686.166 159.207 686.039 159.644 685.424 159.644H672.572C671.959 159.644 671.831 159.207 671.89 158.77L672.49 154.195C672.579 153.641 672.768 153.273 673.499 153.273H684.495ZM671.885 163.78C671.885 163.135 672.415 162.613 673.066 162.613C673.717 162.613 674.245 163.135 674.245 163.78C674.245 164.424 673.717 164.946 673.066 164.946C672.415 164.946 671.885 164.424 671.885 163.78Z" fill="#0F1F5C"/>
<path d="M667.004 149.365V172.636" stroke="#0F1F5C" stroke-width="1.58533" stroke-miterlimit="3.864" stroke-linecap="round"/>
<path d="M690.996 149.365V172.636" stroke="#0F1F5C" stroke-width="1.58533" stroke-miterlimit="3.864" stroke-linecap="round"/>
</g>
<g clip-path="url(#clip3_488_1233)">
<path d="M103 161C103.004 157.445 104.063 153.971 106.043 151.017C108.024 148.062 110.836 145.761 114.126 144.403C117.415 143.046 121.034 142.692 124.524 143.388C128.014 144.085 131.22 145.799 133.735 148.314C136.25 150.829 137.963 154.033 138.656 157.52C139.349 161.007 138.991 164.621 137.628 167.906C136.265 171.19 133.958 173.997 130.998 175.971C128.039 177.946 124.559 179 121 179C118.635 179 116.292 178.534 114.107 177.63C111.922 176.725 109.937 175.399 108.265 173.727C106.593 172.055 105.268 170.071 104.364 167.887C103.461 165.703 102.997 163.363 103 161Z" fill="#9D9D9C"/>
<path d="M119.605 156.253H115.621V154.051H126.381V156.253H122.396V167.95H119.605V156.253Z" fill="white"/>
</g>
<g clip-path="url(#clip4_488_1233)">
<path d="M637 179C633.44 179 629.96 177.944 627 175.966C624.04 173.989 621.733 171.177 620.37 167.888C619.008 164.599 618.651 160.98 619.346 157.488C620.04 153.997 621.755 150.789 624.272 148.272C626.789 145.755 629.997 144.04 633.488 143.346C636.98 142.651 640.599 143.008 643.888 144.37C647.177 145.733 649.989 148.04 651.966 151C653.944 153.96 655 157.44 655 161C654.995 165.772 653.097 170.348 649.722 173.722C646.348 177.097 641.772 178.995 637 179Z" fill="#B06402"/>
<path d="M632.828 167.034V157.173L629.528 167.034H627.22L623.96 157.173V167.135H621.611V154.987H625.499L628.354 164.138L631.269 154.966H635.197V167.115L632.828 167.034Z" fill="white"/>
<path d="M640.3 167.034V157.72L638.275 159.38L637.061 157.801L640.604 154.966H642.75V167.115L640.3 167.034Z" fill="white"/>
<path d="M649.918 167.034V164.523H644.715V162.498L649.23 154.885H652.247V162.721H653.786V164.523H652.247V167.034H649.918ZM649.918 157.497L646.902 162.721H649.918V157.497Z" fill="white"/>
</g>
<g clip-path="url(#clip5_488_1233)">
<path d="M1374 161C1374 157.44 1375.06 153.96 1377.03 151C1379.01 148.04 1381.82 145.733 1385.11 144.37C1388.4 143.008 1392.02 142.651 1395.51 143.346C1399 144.04 1402.21 145.755 1404.73 148.272C1407.25 150.789 1408.96 153.997 1409.65 157.488C1410.35 160.98 1409.99 164.599 1408.63 167.888C1407.27 171.177 1404.96 173.989 1402 175.966C1399.04 177.944 1395.56 179 1392 179C1387.23 178.989 1382.66 177.089 1379.28 173.716C1375.91 170.343 1374.01 165.771 1374 161Z" fill="#C9D200"/>
<path d="M1376.43 154.933H1380.47L1383.3 164.034L1386.14 154.933H1389.98V167.067H1387.75V157.157L1384.52 167.067H1382.09L1378.85 157.157V167.067H1376.43V154.933Z" fill="white"/>
<path d="M1395.44 154.933H1397.66V167.067H1395.24V157.764L1393.21 159.382L1392 157.764L1395.44 154.933Z" fill="white"/>
<path d="M1400.09 167.068V165.045C1401.3 164.034 1405.35 160.596 1405.35 158.371C1405.29 157.889 1405.05 157.449 1404.67 157.146C1404.29 156.843 1403.81 156.702 1403.33 156.753C1402.3 156.781 1401.31 157.135 1400.49 157.764L1400.29 155.742C1401.42 155.166 1402.67 154.887 1403.93 154.933C1404.42 154.872 1404.91 154.916 1405.38 155.062C1405.84 155.207 1406.27 155.451 1406.64 155.777C1407 156.103 1407.29 156.503 1407.49 156.95C1407.68 157.398 1407.78 157.882 1407.78 158.371C1407.78 161 1405.15 163.225 1403.33 165.247H1408.18V167.068H1400.09Z" fill="white"/>
</g>
<g clip-path="url(#clip6_488_1233)">
<path d="M2490 161C2490 151.061 2498.06 143 2508 143C2517.94 143 2526 151.061 2526 161C2526 170.939 2517.94 179 2508 179C2498.06 179 2490 170.942 2490 161Z" fill="#447ABE"/>
<path d="M2496.39 155.145H2500.15L2502.94 164.021H2502.97L2505.76 155.145H2509.52V166.855H2507.27V157.192H2507.23L2504.08 166.855H2501.83L2498.68 157.192L2498.64 157.226V166.855H2496.39V155.145Z" fill="white"/>
<path d="M2513.6 160.751C2512.42 160.23 2511.65 159.258 2511.65 158.034C2511.65 155.937 2513.25 154.946 2515.38 154.946C2517.51 154.946 2519.3 155.802 2519.3 157.763C2519.3 158.821 2518.65 160.045 2517.36 160.566V160.583C2518.9 161.305 2519.61 162.31 2519.61 163.654C2519.61 166.02 2517.89 167.059 2515.58 167.059C2513.26 167.059 2511.45 166.071 2511.45 163.688C2511.45 162.38 2512.19 161.473 2513.6 160.787V160.753L2513.6 160.751ZM2515.58 165.312C2516.52 165.312 2517.26 164.724 2517.26 163.753C2517.26 162.596 2516.27 162.042 2515.29 161.722C2514.46 162.126 2513.8 162.661 2513.8 163.652C2513.8 164.643 2514.64 165.312 2515.58 165.312ZM2515.75 159.86C2516.4 159.625 2517.05 158.888 2517.05 158.166C2517.05 157.293 2516.5 156.69 2515.61 156.69C2514.72 156.69 2513.9 157.158 2513.9 158.099C2513.9 159.104 2514.94 159.56 2515.75 159.86Z" fill="white"/>
</g>
<defs>
<clipPath id="clip0_488_1233">
<rect width="36" height="36" fill="white" transform="translate(61 143)"/>
</clipPath>
<clipPath id="clip1_488_1233">
<rect width="36" height="36" fill="white" transform="translate(1189 143)"/>
</clipPath>
<clipPath id="clip2_488_1233">
<rect width="36" height="36" fill="white" transform="translate(661 143)"/>
</clipPath>
<clipPath id="clip3_488_1233">
<rect width="36" height="36" fill="white" transform="translate(103 143)"/>
</clipPath>
<clipPath id="clip4_488_1233">
<rect width="36" height="36" fill="white" transform="translate(619 143)"/>
</clipPath>
<clipPath id="clip5_488_1233">
<rect width="36" height="36" fill="white" transform="translate(1374 143)"/>
</clipPath>
<clipPath id="clip6_488_1233">
<rect width="36" height="36" fill="white" transform="translate(2490 143)"/>
</clipPath>
</defs>
</svg>
