<svg xmlns="http://www.w3.org/2000/svg" viewBox="0 0 17.8 17.8"><defs><style>.cls-1{fill:#f29ebf;}.cls-2{fill:#fff;}</style></defs><g id="Layer_2" data-name="Layer 2"><g id="Layer_1-2" data-name="Layer 1"><path class="cls-1" d="M0,8.9a8.9,8.9,0,1,1,8.9,8.9A8.92,8.92,0,0,1,0,8.9"/><polygon class="cls-2" points="3.1 6.1 5 6.1 6.4 10.6 6.4 10.6 7.8 6.1 9.8 6.1 9.8 12.1 8.6 12.1 8.6 7.1 8.6 7.1 7 12.1 5.8 12.1 4.2 7.1 4.2 7.1 4.2 12.1 3.1 12.1 3.1 6.1"/><polygon class="cls-2" points="10.9 6.1 14.7 6.1 14.7 7.1 12.6 12.1 11.3 12.1 13.5 7 10.9 7 10.9 6.1"/></g></g></svg>