<?xml version="1.0" encoding="UTF-8"?>
<svg id="Layer_2" data-name="Layer 2" xmlns="http://www.w3.org/2000/svg" width="150" height="150.02" viewBox="0 0 150 150.02">
  <defs>
    <style>
      .cls-1 {
        fill: #fff;
      }

      .cls-2 {
        fill: #447abe;
      }
    </style>
  </defs>
  <g id="Layer_1-2" data-name="Layer 1">
    <g>
      <path class="cls-2" d="m0,75.01C0,33.59,33.58,0,75,0s75,33.59,75,75.01-33.58,75.01-75,75.01S0,116.44,0,75.01"/>
      <polygon class="cls-1" points="26.64 50.61 42.3 50.61 53.9 87.6 54.05 87.6 65.65 50.61 81.31 50.61 81.31 99.41 71.95 99.41 71.95 59.14 71.8 59.14 58.66 99.41 49.29 99.41 36.15 59.14 36 59.28 36 99.41 26.64 99.41 26.64 50.61"/>
      <path class="cls-1" d="m98.33,73.97c-4.9-2.17-8.1-6.22-8.1-11.32,0-8.74,6.64-12.87,15.51-12.87s16.36,3.57,16.36,11.74c0,4.41-2.73,9.51-8.11,11.68v.07c6.43,3.01,9.37,7.2,9.37,12.8,0,9.86-7.13,14.19-16.78,14.19s-17.19-4.12-17.19-14.05c0-5.45,3.08-9.23,8.95-12.09v-.14Zm8.25,19.01c3.91,0,6.99-2.45,6.99-6.5,0-4.82-4.12-7.13-8.18-8.46-3.49,1.68-6.22,3.91-6.22,8.04s3.49,6.92,7.41,6.92m.7-22.72c2.73-.98,5.45-4.05,5.45-7.06,0-3.64-2.31-6.15-6.01-6.15s-7.14,1.95-7.14,5.87c0,4.19,4.34,6.09,7.7,7.34"/>
    </g>
  </g>
</svg>