<svg width="943" height="200" viewBox="0 0 943 200" fill="none" xmlns="http://www.w3.org/2000/svg">
<path d="M100 100H837" stroke="#FFD300" stroke-width="20"/>
<circle cx="473" cy="100" r="21" fill="#FFD300"/>
<circle cx="473" cy="100" r="13" fill="white"/>
<circle cx="288" cy="100" r="21" fill="#FFD300"/>
<circle cx="288" cy="100" r="13" fill="white"/>
<circle cx="843" cy="100" r="21" fill="#FFD300"/>
<circle cx="843" cy="100" r="13" fill="white"/>
<circle cx="658" cy="100" r="21" fill="#FFD300"/>
<circle cx="658" cy="100" r="13" fill="white"/>
<circle cx="100" cy="100" r="24" fill="black"/>
<ellipse cx="100.001" cy="99.9939" rx="19.2" ry="19.2" fill="white"/>
<circle cx="473" cy="100" r="24" fill="black"/>
<ellipse cx="473.001" cy="99.9939" rx="19.2" ry="19.2" fill="white"/>
<circle cx="843" cy="100" r="24" fill="#FFD300"/>
<path d="M49.2218 58.288C47.4778 58.288 45.9018 57.912 44.4938 57.16C43.1018 56.408 42.0058 55.376 41.2058 54.064C40.4218 52.736 40.0298 51.248 40.0298 49.6C40.0298 47.952 40.4218 46.472 41.2058 45.16C42.0058 43.832 43.1018 42.792 44.4938 42.04C45.9018 41.288 47.4778 40.912 49.2218 40.912C50.9658 40.912 52.5338 41.288 53.9258 42.04C55.3178 42.792 56.4138 43.832 57.2138 45.16C58.0138 46.472 58.4138 47.952 58.4138 49.6C58.4138 51.248 58.0138 52.736 57.2138 54.064C56.4138 55.376 55.3178 56.408 53.9258 57.16C52.5338 57.912 50.9658 58.288 49.2218 58.288ZM49.2218 54.976C50.2138 54.976 51.1098 54.752 51.9098 54.304C52.7098 53.84 53.3338 53.2 53.7818 52.384C54.2458 51.568 54.4778 50.64 54.4778 49.6C54.4778 48.56 54.2458 47.632 53.7818 46.816C53.3338 46 52.7098 45.368 51.9098 44.92C51.1098 44.456 50.2138 44.224 49.2218 44.224C48.2298 44.224 47.3338 44.456 46.5338 44.92C45.7338 45.368 45.1018 46 44.6378 46.816C44.1898 47.632 43.9658 48.56 43.9658 49.6C43.9658 50.64 44.1898 51.568 44.6378 52.384C45.1018 53.2 45.7338 53.84 46.5338 54.304C47.3338 54.752 48.2298 54.976 49.2218 54.976ZM61.0718 40.192H64.8158V58H61.0718V40.192ZM68.2905 45.088H72.0345V58H68.2905V45.088ZM70.1625 43.288C69.4745 43.288 68.9145 43.088 68.4825 42.688C68.0505 42.288 67.8345 41.792 67.8345 41.2C67.8345 40.608 68.0505 40.112 68.4825 39.712C68.9145 39.312 69.4745 39.112 70.1625 39.112C70.8505 39.112 71.4105 39.304 71.8425 39.688C72.2745 40.072 72.4905 40.552 72.4905 41.128C72.4905 41.752 72.2745 42.272 71.8425 42.688C71.4105 43.088 70.8505 43.288 70.1625 43.288ZM92.0453 44.896C93.6613 44.896 94.9413 45.376 95.8853 46.336C96.8453 47.28 97.3253 48.704 97.3253 50.608V58H93.5813V51.184C93.5813 50.16 93.3653 49.4 92.9333 48.904C92.5173 48.392 91.9173 48.136 91.1333 48.136C90.2533 48.136 89.5573 48.424 89.0453 49C88.5333 49.56 88.2773 50.4 88.2773 51.52V58H84.5333V51.184C84.5333 49.152 83.7173 48.136 82.0853 48.136C81.2213 48.136 80.5333 48.424 80.0213 49C79.5093 49.56 79.2533 50.4 79.2533 51.52V58H75.5093V45.088H79.0853V46.576C79.5653 46.032 80.1493 45.616 80.8372 45.328C81.5413 45.04 82.3093 44.896 83.1413 44.896C84.0533 44.896 84.8773 45.08 85.6133 45.448C86.3493 45.8 86.9413 46.32 87.3893 47.008C87.9173 46.336 88.5813 45.816 89.3813 45.448C90.1973 45.08 91.0853 44.896 92.0453 44.896ZM108.313 44.896C109.513 44.896 110.601 45.176 111.577 45.736C112.569 46.28 113.345 47.056 113.905 48.064C114.465 49.056 114.745 50.216 114.745 51.544C114.745 52.872 114.465 54.04 113.905 55.048C113.345 56.04 112.569 56.816 111.577 57.376C110.601 57.92 109.513 58.192 108.313 58.192C106.665 58.192 105.369 57.672 104.425 56.632V62.656H100.681V45.088H104.257V46.576C105.185 45.456 106.537 44.896 108.313 44.896ZM107.665 55.12C108.625 55.12 109.409 54.8 110.017 54.16C110.641 53.504 110.953 52.632 110.953 51.544C110.953 50.456 110.641 49.592 110.017 48.952C109.409 48.296 108.625 47.968 107.665 47.968C106.705 47.968 105.913 48.296 105.289 48.952C104.681 49.592 104.377 50.456 104.377 51.544C104.377 52.632 104.681 53.504 105.289 54.16C105.913 54.8 106.705 55.12 107.665 55.12ZM117.251 45.088H120.995V58H117.251V45.088ZM119.123 43.288C118.435 43.288 117.875 43.088 117.443 42.688C117.011 42.288 116.795 41.792 116.795 41.2C116.795 40.608 117.011 40.112 117.443 39.712C117.875 39.312 118.435 39.112 119.123 39.112C119.811 39.112 120.371 39.304 120.803 39.688C121.235 40.072 121.451 40.552 121.451 41.128C121.451 41.752 121.235 42.272 120.803 42.688C120.371 43.088 119.811 43.288 119.123 43.288ZM137.286 45.088L131.454 58.792C130.862 60.28 130.126 61.328 129.246 61.936C128.382 62.544 127.334 62.848 126.102 62.848C125.43 62.848 124.766 62.744 124.11 62.536C123.454 62.328 122.918 62.04 122.502 61.672L123.87 59.008C124.158 59.264 124.486 59.464 124.854 59.608C125.238 59.752 125.614 59.824 125.982 59.824C126.494 59.824 126.91 59.696 127.23 59.44C127.55 59.2 127.838 58.792 128.094 58.216L128.142 58.096L122.55 45.088H126.414L130.038 53.848L133.686 45.088H137.286ZM143.6 44.896C145.6 44.896 147.136 45.376 148.208 46.336C149.28 47.28 149.816 48.712 149.816 50.632V58H146.312V56.392C145.608 57.592 144.296 58.192 142.376 58.192C141.384 58.192 140.52 58.024 139.784 57.688C139.064 57.352 138.512 56.888 138.128 56.296C137.744 55.704 137.552 55.032 137.552 54.28C137.552 53.08 138 52.136 138.896 51.448C139.808 50.76 141.208 50.416 143.096 50.416H146.072C146.072 49.6 145.824 48.976 145.328 48.544C144.832 48.096 144.088 47.872 143.096 47.872C142.408 47.872 141.728 47.984 141.056 48.208C140.4 48.416 139.84 48.704 139.376 49.072L138.032 46.456C138.736 45.96 139.576 45.576 140.552 45.304C141.544 45.032 142.56 44.896 143.6 44.896ZM143.312 55.672C143.952 55.672 144.52 55.528 145.016 55.24C145.512 54.936 145.864 54.496 146.072 53.92V52.6H143.504C141.968 52.6 141.2 53.104 141.2 54.112C141.2 54.592 141.384 54.976 141.752 55.264C142.136 55.536 142.656 55.672 143.312 55.672ZM161.533 57.376C161.165 57.648 160.709 57.856 160.165 58C159.637 58.128 159.077 58.192 158.485 58.192C156.949 58.192 155.757 57.8 154.909 57.016C154.077 56.232 153.661 55.08 153.661 53.56V48.256H151.669V45.376H153.661V42.232H157.405V45.376H160.621V48.256H157.405V53.512C157.405 54.056 157.541 54.48 157.813 54.784C158.101 55.072 158.501 55.216 159.013 55.216C159.605 55.216 160.109 55.056 160.525 54.736L161.533 57.376Z" fill="black"/>
<path d="M229.948 25.832V29H215.26V26.48L224.476 15.368H215.452V12.2H229.588V14.72L220.396 25.832H229.948ZM232.177 16.088H235.921V29H232.177V16.088ZM234.049 14.288C233.361 14.288 232.801 14.088 232.369 13.688C231.937 13.288 231.721 12.792 231.721 12.2C231.721 11.608 231.937 11.112 232.369 10.712C232.801 10.312 233.361 10.112 234.049 10.112C234.737 10.112 235.297 10.304 235.729 10.688C236.161 11.072 236.377 11.552 236.377 12.128C236.377 12.752 236.161 13.272 235.729 13.688C235.297 14.088 234.737 14.288 234.049 14.288ZM252.212 16.088L246.38 29.792C245.788 31.28 245.052 32.328 244.172 32.936C243.308 33.544 242.26 33.848 241.028 33.848C240.356 33.848 239.692 33.744 239.036 33.536C238.38 33.328 237.844 33.04 237.428 32.672L238.796 30.008C239.084 30.264 239.412 30.464 239.78 30.608C240.164 30.752 240.54 30.824 240.908 30.824C241.42 30.824 241.836 30.696 242.156 30.44C242.476 30.2 242.764 29.792 243.02 29.216L243.068 29.096L237.476 16.088H241.34L244.964 24.848L248.612 16.088H252.212ZM258.526 15.896C260.526 15.896 262.062 16.376 263.134 17.336C264.206 18.28 264.742 19.712 264.742 21.632V29H261.238V27.392C260.534 28.592 259.222 29.192 257.302 29.192C256.31 29.192 255.446 29.024 254.71 28.688C253.99 28.352 253.438 27.888 253.054 27.296C252.67 26.704 252.478 26.032 252.478 25.28C252.478 24.08 252.926 23.136 253.822 22.448C254.734 21.76 256.134 21.416 258.022 21.416H260.998C260.998 20.6 260.75 19.976 260.254 19.544C259.758 19.096 259.014 18.872 258.022 18.872C257.334 18.872 256.654 18.984 255.982 19.208C255.326 19.416 254.766 19.704 254.302 20.072L252.958 17.456C253.662 16.96 254.502 16.576 255.478 16.304C256.47 16.032 257.486 15.896 258.526 15.896ZM258.238 26.672C258.878 26.672 259.446 26.528 259.942 26.24C260.438 25.936 260.79 25.496 260.998 24.92V23.6H258.43C256.894 23.6 256.126 24.104 256.126 25.112C256.126 25.592 256.31 25.976 256.678 26.264C257.062 26.536 257.582 26.672 258.238 26.672ZM286.543 20.336H290.095V27.152C289.183 27.84 288.127 28.368 286.927 28.736C285.727 29.104 284.519 29.288 283.303 29.288C281.559 29.288 279.991 28.92 278.599 28.184C277.207 27.432 276.111 26.4 275.311 25.088C274.527 23.76 274.135 22.264 274.135 20.6C274.135 18.936 274.527 17.448 275.311 16.136C276.111 14.808 277.215 13.776 278.623 13.04C280.031 12.288 281.615 11.912 283.375 11.912C284.847 11.912 286.183 12.16 287.383 12.656C288.583 13.152 289.591 13.872 290.407 14.816L287.911 17.12C286.711 15.856 285.263 15.224 283.567 15.224C282.495 15.224 281.543 15.448 280.711 15.896C279.879 16.344 279.231 16.976 278.767 17.792C278.303 18.608 278.071 19.544 278.071 20.6C278.071 21.64 278.303 22.568 278.767 23.384C279.231 24.2 279.871 24.84 280.687 25.304C281.519 25.752 282.463 25.976 283.519 25.976C284.639 25.976 285.647 25.736 286.543 25.256V20.336ZM299.587 29.192C298.227 29.192 297.003 28.912 295.915 28.352C294.843 27.776 294.003 26.984 293.395 25.976C292.787 24.968 292.483 23.824 292.483 22.544C292.483 21.264 292.787 20.12 293.395 19.112C294.003 18.104 294.843 17.32 295.915 16.76C297.003 16.184 298.227 15.896 299.587 15.896C300.947 15.896 302.163 16.184 303.235 16.76C304.307 17.32 305.147 18.104 305.755 19.112C306.363 20.12 306.667 21.264 306.667 22.544C306.667 23.824 306.363 24.968 305.755 25.976C305.147 26.984 304.307 27.776 303.235 28.352C302.163 28.912 300.947 29.192 299.587 29.192ZM299.587 26.12C300.547 26.12 301.331 25.8 301.939 25.16C302.563 24.504 302.875 23.632 302.875 22.544C302.875 21.456 302.563 20.592 301.939 19.952C301.331 19.296 300.547 18.968 299.587 18.968C298.627 18.968 297.835 19.296 297.211 19.952C296.587 20.592 296.275 21.456 296.275 22.544C296.275 23.632 296.587 24.504 297.211 25.16C297.835 25.8 298.627 26.12 299.587 26.12ZM297.115 14.312C296.635 14.312 296.235 14.16 295.915 13.856C295.595 13.536 295.435 13.136 295.435 12.656C295.435 12.176 295.595 11.784 295.915 11.48C296.235 11.16 296.635 11 297.115 11C297.595 11 297.987 11.16 298.291 11.48C298.611 11.784 298.771 12.176 298.771 12.656C298.771 13.136 298.611 13.536 298.291 13.856C297.987 14.16 297.595 14.312 297.115 14.312ZM301.963 14.312C301.483 14.312 301.083 14.16 300.763 13.856C300.459 13.536 300.307 13.136 300.307 12.656C300.307 12.176 300.459 11.784 300.763 11.48C301.083 11.16 301.483 11 301.963 11C302.443 11 302.843 11.16 303.163 11.48C303.483 11.784 303.643 12.176 303.643 12.656C303.643 13.136 303.483 13.536 303.163 13.856C302.843 14.16 302.443 14.312 301.963 14.312ZM314.713 23.936L312.913 25.712V29H309.169V11.192H312.913V21.272L318.385 16.088H322.849L317.473 21.56L323.329 29H318.793L314.713 23.936ZM329.987 15.896C331.987 15.896 333.523 16.376 334.595 17.336C335.667 18.28 336.203 19.712 336.203 21.632V29H332.699V27.392C331.995 28.592 330.683 29.192 328.763 29.192C327.771 29.192 326.907 29.024 326.171 28.688C325.451 28.352 324.899 27.888 324.515 27.296C324.131 26.704 323.939 26.032 323.939 25.28C323.939 24.08 324.387 23.136 325.283 22.448C326.195 21.76 327.595 21.416 329.483 21.416H332.459C332.459 20.6 332.211 19.976 331.715 19.544C331.219 19.096 330.475 18.872 329.483 18.872C328.795 18.872 328.115 18.984 327.443 19.208C326.787 19.416 326.227 19.704 325.763 20.072L324.419 17.456C325.123 16.96 325.963 16.576 326.939 16.304C327.931 16.032 328.947 15.896 329.987 15.896ZM329.699 26.672C330.339 26.672 330.907 26.528 331.403 26.24C331.899 25.936 332.251 25.496 332.459 24.92V23.6H329.891C328.355 23.6 327.587 24.104 327.587 25.112C327.587 25.592 327.771 25.976 328.139 26.264C328.523 26.536 329.043 26.672 329.699 26.672ZM339.591 11.192H343.335V29H339.591V11.192ZM354.442 15.896C355.642 15.896 356.73 16.176 357.706 16.736C358.698 17.28 359.474 18.056 360.034 19.064C360.594 20.056 360.874 21.216 360.874 22.544C360.874 23.872 360.594 25.04 360.034 26.048C359.474 27.04 358.698 27.816 357.706 28.376C356.73 28.92 355.642 29.192 354.442 29.192C352.794 29.192 351.498 28.672 350.554 27.632V33.656H346.81V16.088H350.386V17.576C351.314 16.456 352.666 15.896 354.442 15.896ZM353.794 26.12C354.754 26.12 355.538 25.8 356.146 25.16C356.77 24.504 357.082 23.632 357.082 22.544C357.082 21.456 356.77 20.592 356.146 19.952C355.538 19.296 354.754 18.968 353.794 18.968C352.834 18.968 352.042 19.296 351.418 19.952C350.81 20.592 350.506 21.456 350.506 22.544C350.506 23.632 350.81 24.504 351.418 25.16C352.042 25.8 352.834 26.12 353.794 26.12ZM245.936 58L245.912 47.92L240.968 56.224H239.216L234.296 48.136V58H230.648V41.2H233.864L240.152 51.64L246.344 41.2H249.536L249.584 58H245.936ZM258.514 44.896C260.514 44.896 262.05 45.376 263.122 46.336C264.194 47.28 264.73 48.712 264.73 50.632V58H261.226V56.392C260.522 57.592 259.21 58.192 257.29 58.192C256.298 58.192 255.434 58.024 254.698 57.688C253.978 57.352 253.426 56.888 253.042 56.296C252.658 55.704 252.466 55.032 252.466 54.28C252.466 53.08 252.914 52.136 253.81 51.448C254.722 50.76 256.122 50.416 258.01 50.416H260.986C260.986 49.6 260.738 48.976 260.242 48.544C259.746 48.096 259.002 47.872 258.01 47.872C257.322 47.872 256.642 47.984 255.97 48.208C255.314 48.416 254.754 48.704 254.29 49.072L252.946 46.456C253.65 45.96 254.49 45.576 255.466 45.304C256.458 45.032 257.474 44.896 258.514 44.896ZM258.226 55.672C258.866 55.672 259.434 55.528 259.93 55.24C260.426 54.936 260.778 54.496 260.986 53.92V52.6H258.418C256.882 52.6 256.114 53.104 256.114 54.112C256.114 54.592 256.298 54.976 256.666 55.264C257.05 55.536 257.57 55.672 258.226 55.672ZM275.967 44.896C277.567 44.896 278.855 45.376 279.831 46.336C280.823 47.296 281.319 48.72 281.319 50.608V58H277.575V51.184C277.575 50.16 277.351 49.4 276.903 48.904C276.455 48.392 275.807 48.136 274.959 48.136C274.015 48.136 273.263 48.432 272.703 49.024C272.143 49.6 271.863 50.464 271.863 51.616V58H268.119V40.192H271.863V46.432C272.359 45.936 272.959 45.56 273.663 45.304C274.367 45.032 275.135 44.896 275.967 44.896ZM289.92 44.896C291.92 44.896 293.456 45.376 294.528 46.336C295.6 47.28 296.136 48.712 296.136 50.632V58H292.632V56.392C291.928 57.592 290.616 58.192 288.696 58.192C287.704 58.192 286.84 58.024 286.104 57.688C285.384 57.352 284.832 56.888 284.448 56.296C284.064 55.704 283.872 55.032 283.872 54.28C283.872 53.08 284.32 52.136 285.216 51.448C286.128 50.76 287.528 50.416 289.416 50.416H292.392C292.392 49.6 292.144 48.976 291.648 48.544C291.152 48.096 290.408 47.872 289.416 47.872C288.728 47.872 288.048 47.984 287.376 48.208C286.72 48.416 286.16 48.704 285.696 49.072L284.352 46.456C285.056 45.96 285.896 45.576 286.872 45.304C287.864 45.032 288.88 44.896 289.92 44.896ZM289.632 55.672C290.272 55.672 290.84 55.528 291.336 55.24C291.832 54.936 292.184 54.496 292.392 53.92V52.6H289.824C288.288 52.6 287.52 53.104 287.52 54.112C287.52 54.592 287.704 54.976 288.072 55.264C288.456 55.536 288.976 55.672 289.632 55.672ZM299.525 40.192H303.269V58H299.525V40.192ZM306.744 40.192H310.488V58H306.744V40.192ZM326.61 51.592C326.61 51.64 326.586 51.976 326.538 52.6H316.77C316.946 53.4 317.362 54.032 318.018 54.496C318.674 54.96 319.49 55.192 320.466 55.192C321.138 55.192 321.73 55.096 322.242 54.904C322.77 54.696 323.258 54.376 323.706 53.944L325.698 56.104C324.482 57.496 322.706 58.192 320.37 58.192C318.914 58.192 317.626 57.912 316.506 57.352C315.386 56.776 314.522 55.984 313.914 54.976C313.306 53.968 313.002 52.824 313.002 51.544C313.002 50.28 313.298 49.144 313.89 48.136C314.498 47.112 315.322 46.32 316.362 45.76C317.418 45.184 318.594 44.896 319.89 44.896C321.154 44.896 322.298 45.168 323.322 45.712C324.346 46.256 325.146 47.04 325.722 48.064C326.314 49.072 326.61 50.248 326.61 51.592ZM319.914 47.728C319.066 47.728 318.354 47.968 317.778 48.448C317.202 48.928 316.85 49.584 316.722 50.416H323.082C322.954 49.6 322.602 48.952 322.026 48.472C321.45 47.976 320.746 47.728 319.914 47.728ZM333.447 58.192C332.375 58.192 331.327 58.064 330.303 57.808C329.279 57.536 328.463 57.2 327.855 56.8L329.103 54.112C329.679 54.48 330.375 54.784 331.191 55.024C332.007 55.248 332.807 55.36 333.591 55.36C335.175 55.36 335.967 54.968 335.967 54.184C335.967 53.816 335.751 53.552 335.319 53.392C334.887 53.232 334.223 53.096 333.327 52.984C332.271 52.824 331.399 52.64 330.711 52.432C330.023 52.224 329.423 51.856 328.911 51.328C328.415 50.8 328.167 50.048 328.167 49.072C328.167 48.256 328.399 47.536 328.863 46.912C329.343 46.272 330.031 45.776 330.927 45.424C331.839 45.072 332.911 44.896 334.143 44.896C335.055 44.896 335.959 45 336.855 45.208C337.767 45.4 338.519 45.672 339.111 46.024L337.863 48.688C336.727 48.048 335.487 47.728 334.143 47.728C333.343 47.728 332.743 47.84 332.343 48.064C331.943 48.288 331.743 48.576 331.743 48.928C331.743 49.328 331.959 49.608 332.391 49.768C332.823 49.928 333.511 50.08 334.455 50.224C335.511 50.4 336.375 50.592 337.047 50.8C337.719 50.992 338.303 51.352 338.799 51.88C339.295 52.408 339.543 53.144 339.543 54.088C339.543 54.888 339.303 55.6 338.823 56.224C338.343 56.848 337.639 57.336 336.711 57.688C335.799 58.024 334.711 58.192 333.447 58.192ZM341.853 45.088H345.597V58H341.853V45.088ZM343.725 43.288C343.037 43.288 342.477 43.088 342.045 42.688C341.613 42.288 341.397 41.792 341.397 41.2C341.397 40.608 341.613 40.112 342.045 39.712C342.477 39.312 343.037 39.112 343.725 39.112C344.413 39.112 344.973 39.304 345.405 39.688C345.837 40.072 346.053 40.552 346.053 41.128C346.053 41.752 345.837 42.272 345.405 42.688C344.973 43.088 344.413 43.288 343.725 43.288Z" fill="black"/>
<path d="M391.332 41.2H395.22V58H391.332V41.2ZM393.276 39.712C392.684 39.712 392.196 39.52 391.812 39.136C391.444 38.752 391.26 38.264 391.26 37.672C391.26 37.096 391.444 36.616 391.812 36.232C392.196 35.848 392.684 35.656 393.276 35.656C393.868 35.656 394.348 35.848 394.716 36.232C395.1 36.616 395.292 37.096 395.292 37.672C395.292 38.264 395.1 38.752 394.716 39.136C394.348 39.52 393.868 39.712 393.276 39.712ZM404.487 52.936L402.687 54.712V58H398.943V40.192H402.687V50.272L408.159 45.088H412.623L407.247 50.56L413.103 58H408.567L404.487 52.936ZM414.693 45.088H418.437V58H414.693V45.088ZM416.565 43.288C415.877 43.288 415.317 43.088 414.885 42.688C414.453 42.288 414.237 41.792 414.237 41.2C414.237 40.608 414.453 40.112 414.885 39.712C415.317 39.312 415.877 39.112 416.565 39.112C417.253 39.112 417.813 39.304 418.245 39.688C418.677 40.072 418.893 40.552 418.893 41.128C418.893 41.752 418.677 42.272 418.245 42.688C417.813 43.088 417.253 43.288 416.565 43.288ZM430.24 57.376C429.872 57.648 429.416 57.856 428.872 58C428.344 58.128 427.784 58.192 427.192 58.192C425.656 58.192 424.464 57.8 423.616 57.016C422.784 56.232 422.368 55.08 422.368 53.56V48.256H420.376V45.376H422.368V42.232H426.112V45.376H429.328V48.256H426.112V53.512C426.112 54.056 426.248 54.48 426.52 54.784C426.808 55.072 427.208 55.216 427.72 55.216C428.312 55.216 428.816 55.056 429.232 54.736L430.24 57.376ZM444.591 51.592C444.591 51.64 444.567 51.976 444.519 52.6H434.751C434.927 53.4 435.343 54.032 435.999 54.496C436.655 54.96 437.471 55.192 438.447 55.192C439.119 55.192 439.711 55.096 440.223 54.904C440.751 54.696 441.239 54.376 441.687 53.944L443.679 56.104C442.463 57.496 440.687 58.192 438.351 58.192C436.895 58.192 435.607 57.912 434.487 57.352C433.367 56.776 432.503 55.984 431.895 54.976C431.287 53.968 430.983 52.824 430.983 51.544C430.983 50.28 431.279 49.144 431.871 48.136C432.479 47.112 433.303 46.32 434.343 45.76C435.399 45.184 436.575 44.896 437.871 44.896C439.135 44.896 440.279 45.168 441.303 45.712C442.327 46.256 443.127 47.04 443.703 48.064C444.295 49.072 444.591 50.248 444.591 51.592ZM437.895 47.728C437.047 47.728 436.335 47.968 435.759 48.448C435.183 48.928 434.831 49.584 434.703 50.416H441.063C440.935 49.6 440.583 48.952 440.007 48.472C439.431 47.976 438.727 47.728 437.895 47.728ZM447.083 40.192H450.827V58H447.083V40.192ZM454.302 40.192H458.046V58H454.302V40.192ZM461.521 45.088H465.265V58H461.521V45.088ZM463.393 43.288C462.705 43.288 462.145 43.088 461.713 42.688C461.281 42.288 461.065 41.792 461.065 41.2C461.065 40.608 461.281 40.112 461.713 39.712C462.145 39.312 462.705 39.112 463.393 39.112C464.081 39.112 464.641 39.304 465.073 39.688C465.505 40.072 465.721 40.552 465.721 41.128C465.721 41.752 465.505 42.272 465.073 42.688C464.641 43.088 464.081 43.288 463.393 43.288ZM481.321 58.288C479.993 58.288 478.705 58.112 477.457 57.76C476.225 57.392 475.233 56.92 474.481 56.344L475.801 53.416C476.521 53.944 477.377 54.368 478.369 54.688C479.361 55.008 480.353 55.168 481.345 55.168C482.449 55.168 483.265 55.008 483.793 54.688C484.321 54.352 484.585 53.912 484.585 53.368C484.585 52.968 484.425 52.64 484.105 52.384C483.801 52.112 483.401 51.896 482.905 51.736C482.425 51.576 481.769 51.4 480.937 51.208C479.657 50.904 478.609 50.6 477.793 50.296C476.977 49.992 476.273 49.504 475.681 48.832C475.105 48.16 474.817 47.264 474.817 46.144C474.817 45.168 475.081 44.288 475.609 43.504C476.137 42.704 476.929 42.072 477.985 41.608C479.057 41.144 480.361 40.912 481.897 40.912C482.969 40.912 484.017 41.04 485.041 41.296C486.065 41.552 486.961 41.92 487.729 42.4L486.529 45.352C484.977 44.472 483.425 44.032 481.873 44.032C480.785 44.032 479.977 44.208 479.449 44.56C478.937 44.912 478.681 45.376 478.681 45.952C478.681 46.528 478.977 46.96 479.569 47.248C480.177 47.52 481.097 47.792 482.329 48.064C483.609 48.368 484.657 48.672 485.473 48.976C486.289 49.28 486.985 49.76 487.561 50.416C488.153 51.072 488.449 51.96 488.449 53.08C488.449 54.04 488.177 54.92 487.633 55.72C487.105 56.504 486.305 57.128 485.233 57.592C484.161 58.056 482.857 58.288 481.321 58.288ZM496.049 44.896C498.049 44.896 499.585 45.376 500.657 46.336C501.729 47.28 502.265 48.712 502.265 50.632V58H498.761V56.392C498.057 57.592 496.745 58.192 494.825 58.192C493.833 58.192 492.969 58.024 492.233 57.688C491.513 57.352 490.961 56.888 490.577 56.296C490.193 55.704 490.001 55.032 490.001 54.28C490.001 53.08 490.449 52.136 491.345 51.448C492.257 50.76 493.657 50.416 495.545 50.416H498.521C498.521 49.6 498.273 48.976 497.777 48.544C497.281 48.096 496.537 47.872 495.545 47.872C494.857 47.872 494.177 47.984 493.505 48.208C492.849 48.416 492.289 48.704 491.825 49.072L490.481 46.456C491.185 45.96 492.025 45.576 493.001 45.304C493.993 45.032 495.009 44.896 496.049 44.896ZM495.761 55.672C496.401 55.672 496.969 55.528 497.465 55.24C497.961 54.936 498.313 54.496 498.521 53.92V52.6H495.953C494.417 52.6 493.649 53.104 493.649 54.112C493.649 54.592 493.833 54.976 494.201 55.264C494.585 55.536 495.105 55.672 495.761 55.672ZM513.502 44.896C515.102 44.896 516.39 45.376 517.366 46.336C518.358 47.296 518.854 48.72 518.854 50.608V58H515.11V51.184C515.11 50.16 514.886 49.4 514.438 48.904C513.99 48.392 513.342 48.136 512.494 48.136C511.55 48.136 510.798 48.432 510.238 49.024C509.678 49.6 509.398 50.464 509.398 51.616V58H505.654V45.088H509.23V46.6C509.726 46.056 510.342 45.64 511.078 45.352C511.814 45.048 512.622 44.896 513.502 44.896ZM527.456 44.896C529.456 44.896 530.992 45.376 532.064 46.336C533.136 47.28 533.672 48.712 533.672 50.632V58H530.168V56.392C529.464 57.592 528.152 58.192 526.232 58.192C525.24 58.192 524.376 58.024 523.64 57.688C522.92 57.352 522.368 56.888 521.984 56.296C521.6 55.704 521.408 55.032 521.408 54.28C521.408 53.08 521.856 52.136 522.752 51.448C523.664 50.76 525.064 50.416 526.952 50.416H529.928C529.928 49.6 529.68 48.976 529.184 48.544C528.688 48.096 527.944 47.872 526.952 47.872C526.264 47.872 525.584 47.984 524.912 48.208C524.256 48.416 523.696 48.704 523.232 49.072L521.888 46.456C522.592 45.96 523.432 45.576 524.408 45.304C525.4 45.032 526.416 44.896 527.456 44.896ZM527.168 55.672C527.808 55.672 528.376 55.528 528.872 55.24C529.368 54.936 529.72 54.496 529.928 53.92V52.6H527.36C525.824 52.6 525.056 53.104 525.056 54.112C525.056 54.592 525.24 54.976 525.608 55.264C525.992 55.536 526.512 55.672 527.168 55.672ZM549.642 45.088L543.81 58.792C543.218 60.28 542.482 61.328 541.602 61.936C540.738 62.544 539.69 62.848 538.458 62.848C537.786 62.848 537.122 62.744 536.466 62.536C535.81 62.328 535.274 62.04 534.858 61.672L536.226 59.008C536.514 59.264 536.842 59.464 537.21 59.608C537.594 59.752 537.97 59.824 538.338 59.824C538.85 59.824 539.266 59.696 539.586 59.44C539.906 59.2 540.194 58.792 540.45 58.216L540.498 58.096L534.906 45.088H538.77L542.394 53.848L546.042 45.088H549.642ZM551.169 45.088H554.913V58H551.169V45.088ZM553.041 43.288C552.353 43.288 551.793 43.088 551.361 42.688C550.929 42.288 550.713 41.792 550.713 41.2C550.713 40.608 550.929 40.112 551.361 39.712C551.793 39.312 552.353 39.112 553.041 39.112C553.729 39.112 554.289 39.304 554.721 39.688C555.153 40.072 555.369 40.552 555.369 41.128C555.369 41.752 555.153 42.272 554.721 42.688C554.289 43.088 553.729 43.288 553.041 43.288Z" fill="black"/>
<path d="M628.776 58L628.752 47.92L623.808 56.224H622.056L617.136 48.136V58H613.488V41.2H616.704L622.992 51.64L629.184 41.2H632.376L632.424 58H628.776ZM647.474 54.4H639.674L638.186 58H634.202L641.69 41.2H645.53L653.042 58H648.962L647.474 54.4ZM646.25 51.448L643.586 45.016L640.922 51.448H646.25ZM660.305 58.288C658.977 58.288 657.689 58.112 656.441 57.76C655.209 57.392 654.217 56.92 653.465 56.344L654.785 53.416C655.505 53.944 656.361 54.368 657.353 54.688C658.345 55.008 659.337 55.168 660.329 55.168C661.433 55.168 662.249 55.008 662.777 54.688C663.305 54.352 663.569 53.912 663.569 53.368C663.569 52.968 663.409 52.64 663.089 52.384C662.785 52.112 662.385 51.896 661.889 51.736C661.409 51.576 660.753 51.4 659.921 51.208C658.641 50.904 657.593 50.6 656.777 50.296C655.961 49.992 655.257 49.504 654.665 48.832C654.089 48.16 653.801 47.264 653.801 46.144C653.801 45.168 654.065 44.288 654.593 43.504C655.121 42.704 655.913 42.072 656.969 41.608C658.041 41.144 659.345 40.912 660.881 40.912C661.953 40.912 663.001 41.04 664.025 41.296C665.049 41.552 665.945 41.92 666.713 42.4L665.513 45.352C663.961 44.472 662.409 44.032 660.857 44.032C659.769 44.032 658.961 44.208 658.433 44.56C657.921 44.912 657.665 45.376 657.665 45.952C657.665 46.528 657.961 46.96 658.553 47.248C659.161 47.52 660.081 47.792 661.313 48.064C662.593 48.368 663.641 48.672 664.457 48.976C665.273 49.28 665.969 49.76 666.545 50.416C667.137 51.072 667.433 51.96 667.433 53.08C667.433 54.04 667.161 54.92 666.617 55.72C666.089 56.504 665.289 57.128 664.217 57.592C663.145 58.056 661.841 58.288 660.305 58.288ZM676.21 51.4L673.954 53.752V58H670.09V41.2H673.954V49.048L681.394 41.2H685.714L678.754 48.688L686.122 58H681.586L676.21 51.4ZM695.382 58.288C693.638 58.288 692.062 57.912 690.654 57.16C689.262 56.408 688.166 55.376 687.366 54.064C686.582 52.736 686.19 51.248 686.19 49.6C686.19 47.952 686.582 46.472 687.366 45.16C688.166 43.832 689.262 42.792 690.654 42.04C692.062 41.288 693.638 40.912 695.382 40.912C697.126 40.912 698.694 41.288 700.086 42.04C701.478 42.792 702.574 43.832 703.374 45.16C704.174 46.472 704.574 47.952 704.574 49.6C704.574 51.248 704.174 52.736 703.374 54.064C702.574 55.376 701.478 56.408 700.086 57.16C698.694 57.912 697.126 58.288 695.382 58.288ZM695.382 54.976C696.374 54.976 697.27 54.752 698.07 54.304C698.87 53.84 699.494 53.2 699.942 52.384C700.406 51.568 700.638 50.64 700.638 49.6C700.638 48.56 700.406 47.632 699.942 46.816C699.494 46 698.87 45.368 698.07 44.92C697.27 44.456 696.374 44.224 695.382 44.224C694.39 44.224 693.494 44.456 692.694 44.92C691.894 45.368 691.262 46 690.798 46.816C690.35 47.632 690.126 48.56 690.126 49.6C690.126 50.64 690.35 51.568 690.798 52.384C691.262 53.2 691.894 53.84 692.694 54.304C693.494 54.752 694.39 54.976 695.382 54.976Z" fill="black"/>
<path d="M801.746 49.264C802.706 49.568 803.458 50.08 804.002 50.8C804.546 51.504 804.818 52.376 804.818 53.416C804.818 54.888 804.242 56.024 803.09 56.824C801.954 57.608 800.29 58 798.098 58H789.41V41.2H797.618C799.666 41.2 801.234 41.592 802.322 42.376C803.426 43.16 803.978 44.224 803.978 45.568C803.978 46.384 803.778 47.112 803.378 47.752C802.994 48.392 802.45 48.896 801.746 49.264ZM793.274 44.128V48.088H797.138C798.098 48.088 798.826 47.92 799.322 47.584C799.818 47.248 800.066 46.752 800.066 46.096C800.066 45.44 799.818 44.952 799.322 44.632C798.826 44.296 798.098 44.128 797.138 44.128H793.274ZM797.81 55.072C798.834 55.072 799.602 54.904 800.114 54.568C800.642 54.232 800.906 53.712 800.906 53.008C800.906 51.616 799.874 50.92 797.81 50.92H793.274V55.072H797.81ZM812.706 44.896C814.706 44.896 816.242 45.376 817.314 46.336C818.386 47.28 818.922 48.712 818.922 50.632V58H815.418V56.392C814.714 57.592 813.402 58.192 811.482 58.192C810.49 58.192 809.626 58.024 808.89 57.688C808.17 57.352 807.618 56.888 807.234 56.296C806.85 55.704 806.658 55.032 806.658 54.28C806.658 53.08 807.106 52.136 808.002 51.448C808.914 50.76 810.314 50.416 812.202 50.416H815.178C815.178 49.6 814.93 48.976 814.434 48.544C813.938 48.096 813.194 47.872 812.202 47.872C811.514 47.872 810.834 47.984 810.162 48.208C809.506 48.416 808.946 48.704 808.482 49.072L807.138 46.456C807.842 45.96 808.682 45.576 809.658 45.304C810.65 45.032 811.666 44.896 812.706 44.896ZM812.418 55.672C813.058 55.672 813.626 55.528 814.122 55.24C814.618 54.936 814.97 54.496 815.178 53.92V52.6H812.61C811.074 52.6 810.306 53.104 810.306 54.112C810.306 54.592 810.49 54.976 810.858 55.264C811.242 55.536 811.762 55.672 812.418 55.672ZM830.158 44.896C831.758 44.896 833.046 45.376 834.022 46.336C835.014 47.296 835.51 48.72 835.51 50.608V58H831.766V51.184C831.766 50.16 831.542 49.4 831.094 48.904C830.646 48.392 829.998 48.136 829.15 48.136C828.206 48.136 827.454 48.432 826.894 49.024C826.334 49.6 826.054 50.464 826.054 51.616V58H822.31V40.192H826.054V46.432C826.55 45.936 827.15 45.56 827.854 45.304C828.558 45.032 829.326 44.896 830.158 44.896ZM844.112 44.896C846.112 44.896 847.648 45.376 848.72 46.336C849.792 47.28 850.328 48.712 850.328 50.632V58H846.824V56.392C846.12 57.592 844.808 58.192 842.888 58.192C841.896 58.192 841.032 58.024 840.296 57.688C839.576 57.352 839.024 56.888 838.64 56.296C838.256 55.704 838.064 55.032 838.064 54.28C838.064 53.08 838.512 52.136 839.408 51.448C840.32 50.76 841.72 50.416 843.608 50.416H846.584C846.584 49.6 846.336 48.976 845.84 48.544C845.344 48.096 844.6 47.872 843.608 47.872C842.92 47.872 842.24 47.984 841.568 48.208C840.912 48.416 840.352 48.704 839.888 49.072L838.544 46.456C839.248 45.96 840.088 45.576 841.064 45.304C842.056 45.032 843.072 44.896 844.112 44.896ZM843.824 55.672C844.464 55.672 845.032 55.528 845.528 55.24C846.024 54.936 846.376 54.496 846.584 53.92V52.6H844.016C842.48 52.6 841.712 53.104 841.712 54.112C841.712 54.592 841.896 54.976 842.264 55.264C842.648 55.536 843.168 55.672 843.824 55.672ZM857.292 46.792C857.74 46.168 858.34 45.696 859.092 45.376C859.86 45.056 860.74 44.896 861.732 44.896V48.352C861.316 48.32 861.036 48.304 860.892 48.304C859.82 48.304 858.98 48.608 858.372 49.216C857.764 49.808 857.46 50.704 857.46 51.904V58H853.716V45.088H857.292V46.792ZM863.958 45.088H867.702V58H863.958V45.088ZM865.83 43.288C865.142 43.288 864.582 43.088 864.15 42.688C863.718 42.288 863.502 41.792 863.502 41.2C863.502 40.608 863.718 40.112 864.15 39.712C864.582 39.312 865.142 39.112 865.83 39.112C866.518 39.112 867.078 39.304 867.51 39.688C867.942 40.072 868.158 40.552 868.158 41.128C868.158 41.752 867.942 42.272 867.51 42.688C867.078 43.088 866.518 43.288 865.83 43.288ZM883.993 45.088L878.161 58.792C877.569 60.28 876.833 61.328 875.953 61.936C875.089 62.544 874.041 62.848 872.809 62.848C872.137 62.848 871.473 62.744 870.817 62.536C870.161 62.328 869.625 62.04 869.209 61.672L870.577 59.008C870.865 59.264 871.193 59.464 871.561 59.608C871.945 59.752 872.321 59.824 872.689 59.824C873.201 59.824 873.617 59.696 873.937 59.44C874.257 59.2 874.545 58.792 874.801 58.216L874.849 58.096L869.257 45.088H873.121L876.745 53.848L880.393 45.088H883.993ZM897.817 51.592C897.817 51.64 897.793 51.976 897.745 52.6H887.977C888.153 53.4 888.569 54.032 889.225 54.496C889.881 54.96 890.697 55.192 891.673 55.192C892.345 55.192 892.937 55.096 893.449 54.904C893.977 54.696 894.465 54.376 894.913 53.944L896.905 56.104C895.689 57.496 893.913 58.192 891.577 58.192C890.121 58.192 888.833 57.912 887.713 57.352C886.593 56.776 885.729 55.984 885.121 54.976C884.513 53.968 884.209 52.824 884.209 51.544C884.209 50.28 884.505 49.144 885.097 48.136C885.705 47.112 886.529 46.32 887.569 45.76C888.625 45.184 889.801 44.896 891.097 44.896C892.361 44.896 893.505 45.168 894.529 45.712C895.553 46.256 896.353 47.04 896.929 48.064C897.521 49.072 897.817 50.248 897.817 51.592ZM891.121 47.728C890.273 47.728 889.561 47.968 888.985 48.448C888.409 48.928 888.057 49.584 887.929 50.416H894.289C894.161 49.6 893.809 48.952 893.233 48.472C892.657 47.976 891.953 47.728 891.121 47.728Z" fill="black"/>
<rect x="470" y="123" width="6" height="22" fill="black"/>
<rect x="97" y="123" width="6" height="21" fill="black"/>
<g clip-path="url(#clip0_492_2344)">
<path d="M82 160.99C82.004 157.433 83.0631 153.956 85.0434 151.001C87.0237 148.045 89.8363 145.742 93.1257 144.384C96.4151 143.025 100.034 142.672 103.524 143.368C107.014 144.065 110.22 145.78 112.735 148.296C115.25 150.813 116.963 154.019 117.656 157.508C118.349 160.997 117.991 164.613 116.628 167.899C115.265 171.185 112.958 173.994 109.998 175.969C107.039 177.945 103.559 179 100 179C97.6345 179 95.2922 178.534 93.107 177.628C90.9219 176.723 88.9367 175.396 87.2649 173.724C85.5932 172.051 84.2678 170.065 83.3644 167.88C82.461 165.695 81.9974 163.354 82 160.99Z" fill="#9D9D9C"/>
<path d="M96.2578 154.057H103.862V156.219H99.0084V159.575H103.62V161.738H99.0084V167.721H96.2578V154.057Z" fill="white"/>
</g>
<g clip-path="url(#clip1_492_2344)">
<path d="M473 179.025C469.431 179.032 465.941 177.981 462.971 176.006C460 174.031 457.683 171.221 456.313 167.93C454.942 164.639 454.58 161.016 455.272 157.52C455.964 154.024 457.679 150.811 460.2 148.288C462.72 145.766 465.934 144.047 469.433 143.349C472.933 142.651 476.561 143.005 479.858 144.368C483.156 145.73 485.975 148.039 487.958 151.002C489.941 153.965 491 157.448 491 161.012C491 165.784 489.105 170.36 485.73 173.737C482.355 177.114 477.777 179.016 473 179.025Z" fill="#00A7E1"/>
<path d="M461.277 155.168H465.025L467.8 164.01H467.83L470.605 155.168H474.348V166.832H472.108V157.205H472.078L468.937 166.832H466.693L463.552 157.205L463.517 157.24V166.832H461.277V155.168Z" fill="white"/>
<path d="M476.598 164.66C477.421 165 478.302 165.182 479.193 165.195C480.16 165.195 481.648 164.725 481.648 163.539C481.648 162.168 480.561 161.718 479.073 161.718H477.935V159.877H479.008C480.576 159.877 481.598 159.376 481.598 158.34C481.598 157.17 480.646 156.804 479.594 156.804C478.684 156.805 477.787 157.018 476.974 157.425L476.838 155.554C477.879 155.155 478.985 154.955 480.1 154.963C481.532 154.963 483.942 155.463 483.942 157.965C483.942 159.556 482.94 160.307 481.768 160.757V160.792C483.271 160.992 483.992 162.148 483.992 163.564C483.992 166.341 481.487 167.067 479.529 167.067C478.498 167.071 477.47 166.942 476.473 166.681L476.598 164.66Z" fill="white"/>
</g>
<g clip-path="url(#clip2_492_2344)">
<path d="M82 161C82 157.44 83.0557 153.96 85.0335 151C87.0114 148.04 89.8226 145.733 93.1117 144.37C96.4008 143.008 100.02 142.651 103.512 143.346C107.003 144.04 110.211 145.755 112.728 148.272C115.245 150.789 116.96 153.997 117.654 157.488C118.349 160.98 117.992 164.599 116.63 167.888C115.267 171.177 112.96 173.989 110 175.966C107.04 177.944 103.56 179 100 179C95.2294 178.989 90.6572 177.089 87.2839 173.716C83.9105 170.343 82.0107 165.771 82 161Z" fill="#AB548F"/>
<path d="M84.4277 154.933H88.4727L91.3041 164.034L94.1356 154.933H97.9783V167.067H95.7536V157.157L92.5176 167.067H90.0907L86.8547 157.157V167.067H84.4277V154.933Z" fill="white"/>
<path d="M103.438 154.933H105.663V167.067H103.236V157.764L101.213 159.382L100 157.764L103.438 154.933Z" fill="white"/>
<path d="M112.135 154.933H114.36V167.067H111.933V157.764L109.911 159.382L108.697 157.764L112.135 154.933Z" fill="white"/>
</g>
<defs>
<clipPath id="clip0_492_2344">
<rect width="36" height="36" fill="white" transform="translate(82 143)"/>
</clipPath>
<clipPath id="clip1_492_2344">
<rect width="36" height="36" fill="white" transform="translate(455 143)"/>
</clipPath>
<clipPath id="clip2_492_2344">
<rect width="36" height="36" fill="white" transform="translate(82 143)"/>
</clipPath>
</defs>
</svg>
