<svg id="Layer_1" data-name="Layer 1" xmlns="http://www.w3.org/2000/svg" viewBox="0 0 70.09 70.2"><defs><style>.cls-1{fill:#90aba0;}.cls-2{fill:#fff;}</style></defs><path class="cls-1" d="M0,35.1A35,35,0,1,1,35.05,70.2,35.08,35.08,0,0,1,0,35.1"/><polygon class="cls-2" points="23.54 26.88 16.5 26.88 16.5 23.01 35.52 23.01 35.52 26.88 28.48 26.88 28.48 47.62 23.54 47.62 23.54 26.88"/><path class="cls-2" d="M37.25,47.62V43.5c2.29-2.23,10.64-9.21,10.64-13.72,0-2.26-2-3.32-4-3.32a10.68,10.68,0,0,0-5.67,2l-.38-4.09a16.33,16.33,0,0,1,7.29-1.77c4.68,0,7.71,2.36,7.71,7.2,0,5.22-5.25,10-9.26,14h10v3.88Z"/></svg>