<svg width="943" height="200" viewBox="0 0 943 200" fill="none" xmlns="http://www.w3.org/2000/svg">
<path d="M100 100H837" stroke="#90ABA0" stroke-width="20"/>
<circle cx="473" cy="100" r="21" fill="#90ABA0"/>
<circle cx="473" cy="100" r="13" fill="white"/>
<circle cx="288" cy="100" r="21" fill="#90ABA0"/>
<circle cx="288" cy="100" r="13" fill="white"/>
<circle cx="843" cy="100" r="21" fill="#90ABA0"/>
<circle cx="843" cy="100" r="13" fill="white"/>
<circle cx="658" cy="100" r="21" fill="#90ABA0"/>
<circle cx="658" cy="100" r="13" fill="white"/>
<circle cx="473" cy="100" r="21" fill="#90ABA0"/>
<circle cx="473" cy="100" r="13" fill="white"/>
<circle cx="100" cy="100" r="24" fill="black"/>
<ellipse cx="100.001" cy="99.9939" rx="19.2" ry="19.2" fill="white"/>
<circle cx="843" cy="100" r="24" fill="black"/>
<ellipse cx="843.001" cy="99.9939" rx="19.2" ry="19.2" fill="white"/>
<path d="M60.6947 44.368H55.3187V41.2H69.9587V44.368H64.5827V58H60.6947V44.368ZM76.3383 44.896C78.3383 44.896 79.8743 45.376 80.9463 46.336C82.0183 47.28 82.5543 48.712 82.5543 50.632V58H79.0503V56.392C78.3463 57.592 77.0343 58.192 75.1143 58.192C74.1223 58.192 73.2583 58.024 72.5223 57.688C71.8023 57.352 71.2503 56.888 70.8663 56.296C70.4823 55.704 70.2903 55.032 70.2903 54.28C70.2903 53.08 70.7383 52.136 71.6343 51.448C72.5463 50.76 73.9463 50.416 75.8343 50.416H78.8103C78.8103 49.6 78.5623 48.976 78.0663 48.544C77.5703 48.096 76.8263 47.872 75.8343 47.872C75.1463 47.872 74.4663 47.984 73.7943 48.208C73.1383 48.416 72.5783 48.704 72.1143 49.072L70.7703 46.456C71.4743 45.96 72.3143 45.576 73.2903 45.304C74.2823 45.032 75.2983 44.896 76.3383 44.896ZM76.0503 55.672C76.6903 55.672 77.2583 55.528 77.7543 55.24C78.2503 54.936 78.6023 54.496 78.8103 53.92V52.6H76.2423C74.7063 52.6 73.9383 53.104 73.9383 54.112C73.9383 54.592 74.1223 54.976 74.4903 55.264C74.8743 55.536 75.3943 55.672 76.0503 55.672ZM91.4868 52.936L89.6868 54.712V58H85.9428V40.192H89.6868V50.272L95.1588 45.088H99.6228L94.2468 50.56L100.103 58H95.5668L91.4868 52.936ZM105.709 58.192C104.637 58.192 103.589 58.064 102.565 57.808C101.541 57.536 100.725 57.2 100.117 56.8L101.365 54.112C101.941 54.48 102.637 54.784 103.453 55.024C104.269 55.248 105.069 55.36 105.853 55.36C107.437 55.36 108.229 54.968 108.229 54.184C108.229 53.816 108.013 53.552 107.581 53.392C107.149 53.232 106.485 53.096 105.589 52.984C104.533 52.824 103.661 52.64 102.973 52.432C102.285 52.224 101.685 51.856 101.173 51.328C100.677 50.8 100.429 50.048 100.429 49.072C100.429 48.256 100.661 47.536 101.125 46.912C101.605 46.272 102.293 45.776 103.189 45.424C104.101 45.072 105.173 44.896 106.405 44.896C107.317 44.896 108.221 45 109.117 45.208C110.029 45.4 110.781 45.672 111.373 46.024L110.125 48.688C108.989 48.048 107.749 47.728 106.405 47.728C105.605 47.728 105.005 47.84 104.605 48.064C104.205 48.288 104.005 48.576 104.005 48.928C104.005 49.328 104.221 49.608 104.653 49.768C105.085 49.928 105.773 50.08 106.717 50.224C107.773 50.4 108.637 50.592 109.309 50.8C109.981 50.992 110.565 51.352 111.061 51.88C111.557 52.408 111.805 53.144 111.805 54.088C111.805 54.888 111.565 55.6 111.085 56.224C110.605 56.848 109.901 57.336 108.973 57.688C108.061 58.024 106.973 58.192 105.709 58.192ZM114.115 45.088H117.859V58H114.115V45.088ZM115.987 43.288C115.299 43.288 114.739 43.088 114.307 42.688C113.875 42.288 113.659 41.792 113.659 41.2C113.659 40.608 113.875 40.112 114.307 39.712C114.739 39.312 115.299 39.112 115.987 39.112C116.675 39.112 117.235 39.304 117.667 39.688C118.099 40.072 118.315 40.552 118.315 41.128C118.315 41.752 118.099 42.272 117.667 42.688C117.235 43.088 116.675 43.288 115.987 43.288ZM137.869 44.896C139.485 44.896 140.765 45.376 141.709 46.336C142.669 47.28 143.149 48.704 143.149 50.608V58H139.405V51.184C139.405 50.16 139.189 49.4 138.757 48.904C138.341 48.392 137.741 48.136 136.957 48.136C136.077 48.136 135.381 48.424 134.869 49C134.357 49.56 134.101 50.4 134.101 51.52V58H130.357V51.184C130.357 49.152 129.541 48.136 127.909 48.136C127.045 48.136 126.357 48.424 125.845 49C125.333 49.56 125.077 50.4 125.077 51.52V58H121.333V45.088H124.909V46.576C125.389 46.032 125.973 45.616 126.661 45.328C127.365 45.04 128.133 44.896 128.965 44.896C129.877 44.896 130.701 45.08 131.437 45.448C132.173 45.8 132.765 46.32 133.213 47.008C133.741 46.336 134.405 45.816 135.205 45.448C136.021 45.08 136.909 44.896 137.869 44.896Z" fill="black"/>
<path d="M237.255 54.4H229.455L227.967 58H223.983L231.471 41.2H235.311L242.823 58H238.743L237.255 54.4ZM236.031 51.448L233.367 45.016L230.703 51.448H236.031ZM257.505 45.088V55.84C257.505 58.208 256.889 59.968 255.657 61.12C254.425 62.272 252.625 62.848 250.257 62.848C249.009 62.848 247.825 62.696 246.705 62.392C245.585 62.088 244.657 61.648 243.921 61.072L245.409 58.384C245.953 58.832 246.641 59.184 247.473 59.44C248.305 59.712 249.137 59.848 249.969 59.848C251.265 59.848 252.217 59.552 252.825 58.96C253.449 58.384 253.761 57.504 253.761 56.32V55.768C252.785 56.84 251.425 57.376 249.681 57.376C248.497 57.376 247.409 57.12 246.417 56.608C245.441 56.08 244.665 55.344 244.089 54.4C243.513 53.456 243.225 52.368 243.225 51.136C243.225 49.904 243.513 48.816 244.089 47.872C244.665 46.928 245.441 46.2 246.417 45.688C247.409 45.16 248.497 44.896 249.681 44.896C251.553 44.896 252.977 45.512 253.953 46.744V45.088H257.505ZM250.425 54.304C251.417 54.304 252.225 54.016 252.849 53.44C253.489 52.848 253.809 52.08 253.809 51.136C253.809 50.192 253.489 49.432 252.849 48.856C252.225 48.264 251.417 47.968 250.425 47.968C249.433 47.968 248.617 48.264 247.977 48.856C247.337 49.432 247.017 50.192 247.017 51.136C247.017 52.08 247.337 52.848 247.977 53.44C248.617 54.016 249.433 54.304 250.425 54.304ZM250.641 43.624C249.377 43.624 248.337 43.296 247.521 42.64C246.705 41.984 246.273 41.096 246.225 39.976H248.577C248.593 40.488 248.793 40.904 249.177 41.224C249.577 41.528 250.065 41.68 250.641 41.68C251.217 41.68 251.697 41.528 252.081 41.224C252.481 40.904 252.689 40.488 252.705 39.976H255.057C255.009 41.096 254.577 41.984 253.761 42.64C252.945 43.296 251.905 43.624 250.641 43.624ZM266.198 44.896C268.198 44.896 269.734 45.376 270.806 46.336C271.878 47.28 272.414 48.712 272.414 50.632V58H268.91V56.392C268.206 57.592 266.894 58.192 264.974 58.192C263.982 58.192 263.118 58.024 262.382 57.688C261.662 57.352 261.11 56.888 260.726 56.296C260.342 55.704 260.15 55.032 260.15 54.28C260.15 53.08 260.598 52.136 261.494 51.448C262.406 50.76 263.806 50.416 265.694 50.416H268.67C268.67 49.6 268.422 48.976 267.926 48.544C267.43 48.096 266.686 47.872 265.694 47.872C265.006 47.872 264.326 47.984 263.654 48.208C262.998 48.416 262.438 48.704 261.974 49.072L260.63 46.456C261.334 45.96 262.174 45.576 263.15 45.304C264.142 45.032 265.158 44.896 266.198 44.896ZM265.91 55.672C266.55 55.672 267.118 55.528 267.614 55.24C268.11 54.936 268.462 54.496 268.67 53.92V52.6H266.102C264.566 52.6 263.798 53.104 263.798 54.112C263.798 54.592 263.982 54.976 264.35 55.264C264.734 55.536 265.254 55.672 265.91 55.672ZM290.903 58.288C289.191 58.288 287.639 57.92 286.247 57.184C284.871 56.432 283.783 55.4 282.983 54.088C282.199 52.76 281.807 51.264 281.807 49.6C281.807 47.936 282.199 46.448 282.983 45.136C283.783 43.808 284.871 42.776 286.247 42.04C287.639 41.288 289.199 40.912 290.927 40.912C292.383 40.912 293.695 41.168 294.863 41.68C296.047 42.192 297.039 42.928 297.839 43.888L295.343 46.192C294.207 44.88 292.799 44.224 291.119 44.224C290.079 44.224 289.151 44.456 288.335 44.92C287.519 45.368 286.879 46 286.415 46.816C285.967 47.632 285.743 48.56 285.743 49.6C285.743 50.64 285.967 51.568 286.415 52.384C286.879 53.2 287.519 53.84 288.335 54.304C289.151 54.752 290.079 54.976 291.119 54.976C292.799 54.976 294.207 54.312 295.343 52.984L297.839 55.288C297.039 56.264 296.047 57.008 294.863 57.52C293.679 58.032 292.359 58.288 290.903 58.288ZM305.315 44.896C307.315 44.896 308.851 45.376 309.923 46.336C310.995 47.28 311.531 48.712 311.531 50.632V58H308.027V56.392C307.323 57.592 306.011 58.192 304.091 58.192C303.099 58.192 302.235 58.024 301.499 57.688C300.779 57.352 300.227 56.888 299.843 56.296C299.459 55.704 299.267 55.032 299.267 54.28C299.267 53.08 299.715 52.136 300.611 51.448C301.523 50.76 302.923 50.416 304.811 50.416H307.787C307.787 49.6 307.539 48.976 307.043 48.544C306.547 48.096 305.803 47.872 304.811 47.872C304.123 47.872 303.443 47.984 302.771 48.208C302.115 48.416 301.555 48.704 301.091 49.072L299.747 46.456C300.451 45.96 301.291 45.576 302.267 45.304C303.259 45.032 304.275 44.896 305.315 44.896ZM305.027 55.672C305.667 55.672 306.235 55.528 306.731 55.24C307.227 54.936 307.579 54.496 307.787 53.92V52.6H305.219C303.683 52.6 302.915 53.104 302.915 54.112C302.915 54.592 303.099 54.976 303.467 55.264C303.851 55.536 304.371 55.672 305.027 55.672ZM331.455 44.896C333.071 44.896 334.351 45.376 335.295 46.336C336.255 47.28 336.735 48.704 336.735 50.608V58H332.991V51.184C332.991 50.16 332.775 49.4 332.343 48.904C331.927 48.392 331.327 48.136 330.543 48.136C329.663 48.136 328.967 48.424 328.455 49C327.943 49.56 327.687 50.4 327.687 51.52V58H323.943V51.184C323.943 49.152 323.127 48.136 321.495 48.136C320.631 48.136 319.943 48.424 319.431 49C318.919 49.56 318.663 50.4 318.663 51.52V58H314.919V45.088H318.495V46.576C318.975 46.032 319.559 45.616 320.247 45.328C320.951 45.04 321.719 44.896 322.551 44.896C323.463 44.896 324.287 45.08 325.023 45.448C325.759 45.8 326.351 46.32 326.799 47.008C327.327 46.336 327.991 45.816 328.791 45.448C329.607 45.08 330.495 44.896 331.455 44.896ZM340.091 45.088H343.835V58H340.091V45.088ZM341.963 43.288C341.275 43.288 340.715 43.088 340.283 42.688C339.851 42.288 339.635 41.792 339.635 41.2C339.635 40.608 339.851 40.112 340.283 39.712C340.715 39.312 341.275 39.112 341.963 39.112C342.651 39.112 343.211 39.304 343.643 39.688C344.075 40.072 344.291 40.552 344.291 41.128C344.291 41.752 344.075 42.272 343.643 42.688C343.211 43.088 342.651 43.288 341.963 43.288ZM347.31 45.088H351.054V58H347.31V45.088ZM349.182 43.288C348.494 43.288 347.934 43.088 347.502 42.688C347.07 42.288 346.854 41.792 346.854 41.2C346.854 40.608 347.07 40.112 347.502 39.712C347.934 39.312 348.494 39.112 349.182 39.112C349.87 39.112 350.43 39.304 350.862 39.688C351.294 40.072 351.51 40.552 351.51 41.128C351.51 41.752 351.294 42.272 350.862 42.688C350.43 43.088 349.87 43.288 349.182 43.288Z" fill="black"/>
<path d="M412.715 20.336H416.267V27.152C415.355 27.84 414.299 28.368 413.099 28.736C411.899 29.104 410.691 29.288 409.475 29.288C407.731 29.288 406.163 28.92 404.771 28.184C403.379 27.432 402.283 26.4 401.483 25.088C400.699 23.76 400.307 22.264 400.307 20.6C400.307 18.936 400.699 17.448 401.483 16.136C402.283 14.808 403.387 13.776 404.795 13.04C406.203 12.288 407.787 11.912 409.547 11.912C411.019 11.912 412.355 12.16 413.555 12.656C414.755 13.152 415.763 13.872 416.579 14.816L414.083 17.12C412.883 15.856 411.435 15.224 409.739 15.224C408.667 15.224 407.715 15.448 406.883 15.896C406.051 16.344 405.403 16.976 404.939 17.792C404.475 18.608 404.243 19.544 404.243 20.6C404.243 21.64 404.475 22.568 404.939 23.384C405.403 24.2 406.043 24.84 406.859 25.304C407.691 25.752 408.635 25.976 409.691 25.976C410.811 25.976 411.819 25.736 412.715 25.256V20.336ZM424.823 15.896C426.823 15.896 428.359 16.376 429.431 17.336C430.503 18.28 431.039 19.712 431.039 21.632V29H427.535V27.392C426.831 28.592 425.519 29.192 423.599 29.192C422.607 29.192 421.743 29.024 421.007 28.688C420.287 28.352 419.735 27.888 419.351 27.296C418.967 26.704 418.775 26.032 418.775 25.28C418.775 24.08 419.223 23.136 420.119 22.448C421.031 21.76 422.431 21.416 424.319 21.416H427.295C427.295 20.6 427.047 19.976 426.551 19.544C426.055 19.096 425.311 18.872 424.319 18.872C423.631 18.872 422.951 18.984 422.279 19.208C421.623 19.416 421.063 19.704 420.599 20.072L419.255 17.456C419.959 16.96 420.799 16.576 421.775 16.304C422.767 16.032 423.783 15.896 424.823 15.896ZM424.535 26.672C425.175 26.672 425.743 26.528 426.239 26.24C426.735 25.936 427.087 25.496 427.295 24.92V23.6H424.727C423.191 23.6 422.423 24.104 422.423 25.112C422.423 25.592 422.607 25.976 422.975 26.264C423.359 26.536 423.879 26.672 424.535 26.672ZM434.427 11.192H438.171V29H434.427V11.192ZM446.854 15.896C448.854 15.896 450.39 16.376 451.462 17.336C452.534 18.28 453.07 19.712 453.07 21.632V29H449.566V27.392C448.862 28.592 447.55 29.192 445.63 29.192C444.638 29.192 443.774 29.024 443.038 28.688C442.318 28.352 441.766 27.888 441.382 27.296C440.998 26.704 440.806 26.032 440.806 25.28C440.806 24.08 441.254 23.136 442.15 22.448C443.062 21.76 444.462 21.416 446.35 21.416H449.326C449.326 20.6 449.078 19.976 448.582 19.544C448.086 19.096 447.342 18.872 446.35 18.872C445.662 18.872 444.982 18.984 444.31 19.208C443.654 19.416 443.094 19.704 442.63 20.072L441.286 17.456C441.99 16.96 442.83 16.576 443.806 16.304C444.798 16.032 445.814 15.896 446.854 15.896ZM446.566 26.672C447.206 26.672 447.774 26.528 448.27 26.24C448.766 25.936 449.118 25.496 449.326 24.92V23.6H446.758C445.222 23.6 444.454 24.104 444.454 25.112C444.454 25.592 444.638 25.976 445.006 26.264C445.39 26.536 445.91 26.672 446.566 26.672ZM464.786 28.376C464.418 28.648 463.962 28.856 463.418 29C462.89 29.128 462.33 29.192 461.738 29.192C460.202 29.192 459.01 28.8 458.162 28.016C457.33 27.232 456.914 26.08 456.914 24.56V19.256H454.922V16.376H456.914V13.232H460.658V16.376H463.874V19.256H460.658V24.512C460.658 25.056 460.794 25.48 461.066 25.784C461.354 26.072 461.754 26.216 462.266 26.216C462.858 26.216 463.362 26.056 463.778 25.736L464.786 28.376ZM472.096 15.896C474.096 15.896 475.632 16.376 476.704 17.336C477.776 18.28 478.312 19.712 478.312 21.632V29H474.808V27.392C474.104 28.592 472.792 29.192 470.872 29.192C469.88 29.192 469.016 29.024 468.28 28.688C467.56 28.352 467.008 27.888 466.624 27.296C466.24 26.704 466.048 26.032 466.048 25.28C466.048 24.08 466.496 23.136 467.392 22.448C468.304 21.76 469.704 21.416 471.592 21.416H474.568C474.568 20.6 474.32 19.976 473.824 19.544C473.328 19.096 472.584 18.872 471.592 18.872C470.904 18.872 470.224 18.984 469.552 19.208C468.896 19.416 468.336 19.704 467.872 20.072L466.528 17.456C467.232 16.96 468.072 16.576 469.048 16.304C470.04 16.032 471.056 15.896 472.096 15.896ZM471.808 26.672C472.448 26.672 473.016 26.528 473.512 26.24C474.008 25.936 474.36 25.496 474.568 24.92V23.6H472C470.464 23.6 469.696 24.104 469.696 25.112C469.696 25.592 469.88 25.976 470.248 26.264C470.632 26.536 471.152 26.672 471.808 26.672ZM486.045 29.192C484.973 29.192 483.925 29.064 482.901 28.808C481.877 28.536 481.061 28.2 480.453 27.8L481.701 25.112C482.277 25.48 482.973 25.784 483.789 26.024C484.605 26.248 485.405 26.36 486.189 26.36C487.773 26.36 488.565 25.968 488.565 25.184C488.565 24.816 488.349 24.552 487.917 24.392C487.485 24.232 486.821 24.096 485.925 23.984C484.869 23.824 483.997 23.64 483.309 23.432C482.621 23.224 482.021 22.856 481.509 22.328C481.013 21.8 480.765 21.048 480.765 20.072C480.765 19.256 480.997 18.536 481.461 17.912C481.941 17.272 482.629 16.776 483.525 16.424C484.437 16.072 485.509 15.896 486.741 15.896C487.653 15.896 488.557 16 489.453 16.208C490.365 16.4 491.117 16.672 491.709 17.024L490.461 19.688C489.325 19.048 488.085 18.728 486.741 18.728C485.941 18.728 485.341 18.84 484.941 19.064C484.541 19.288 484.341 19.576 484.341 19.928C484.341 20.328 484.557 20.608 484.989 20.768C485.421 20.928 486.109 21.08 487.053 21.224C488.109 21.4 488.973 21.592 489.645 21.8C490.317 21.992 490.901 22.352 491.397 22.88C491.893 23.408 492.141 24.144 492.141 25.088C492.141 25.888 491.901 26.6 491.421 27.224C490.941 27.848 490.237 28.336 489.309 28.688C488.397 29.024 487.309 29.192 486.045 29.192ZM499.659 15.896C501.659 15.896 503.195 16.376 504.267 17.336C505.339 18.28 505.875 19.712 505.875 21.632V29H502.371V27.392C501.667 28.592 500.355 29.192 498.435 29.192C497.443 29.192 496.579 29.024 495.843 28.688C495.123 28.352 494.571 27.888 494.187 27.296C493.803 26.704 493.611 26.032 493.611 25.28C493.611 24.08 494.059 23.136 494.955 22.448C495.867 21.76 497.267 21.416 499.155 21.416H502.131C502.131 20.6 501.883 19.976 501.387 19.544C500.891 19.096 500.147 18.872 499.155 18.872C498.467 18.872 497.787 18.984 497.115 19.208C496.459 19.416 495.899 19.704 495.435 20.072L494.091 17.456C494.795 16.96 495.635 16.576 496.611 16.304C497.603 16.032 498.619 15.896 499.659 15.896ZM499.371 26.672C500.011 26.672 500.579 26.528 501.075 26.24C501.571 25.936 501.923 25.496 502.131 24.92V23.6H499.563C498.027 23.6 497.259 24.104 497.259 25.112C497.259 25.592 497.443 25.976 497.811 26.264C498.195 26.536 498.715 26.672 499.371 26.672ZM512.839 17.792C513.287 17.168 513.887 16.696 514.639 16.376C515.407 16.056 516.287 15.896 517.279 15.896V19.352C516.863 19.32 516.583 19.304 516.439 19.304C515.367 19.304 514.527 19.608 513.919 20.216C513.311 20.808 513.007 21.704 513.007 22.904V29H509.263V16.088H512.839V17.792ZM524.643 15.896C526.643 15.896 528.179 16.376 529.251 17.336C530.323 18.28 530.859 19.712 530.859 21.632V29H527.355V27.392C526.651 28.592 525.339 29.192 523.419 29.192C522.427 29.192 521.563 29.024 520.827 28.688C520.107 28.352 519.555 27.888 519.171 27.296C518.787 26.704 518.595 26.032 518.595 25.28C518.595 24.08 519.043 23.136 519.939 22.448C520.851 21.76 522.251 21.416 524.139 21.416H527.115C527.115 20.6 526.867 19.976 526.371 19.544C525.875 19.096 525.131 18.872 524.139 18.872C523.451 18.872 522.771 18.984 522.099 19.208C521.443 19.416 520.883 19.704 520.419 20.072L519.075 17.456C519.779 16.96 520.619 16.576 521.595 16.304C522.587 16.032 523.603 15.896 524.643 15.896ZM524.355 26.672C524.995 26.672 525.563 26.528 526.059 26.24C526.555 25.936 526.907 25.496 527.115 24.92V23.6H524.547C523.011 23.6 522.243 24.104 522.243 25.112C522.243 25.592 522.427 25.976 522.795 26.264C523.179 26.536 523.699 26.672 524.355 26.672ZM546.829 16.088L540.997 29.792C540.405 31.28 539.669 32.328 538.789 32.936C537.925 33.544 536.877 33.848 535.645 33.848C534.973 33.848 534.309 33.744 533.653 33.536C532.997 33.328 532.461 33.04 532.045 32.672L533.413 30.008C533.701 30.264 534.029 30.464 534.397 30.608C534.781 30.752 535.157 30.824 535.525 30.824C536.037 30.824 536.453 30.696 536.773 30.44C537.093 30.2 537.381 29.792 537.637 29.216L537.685 29.096L532.093 16.088H535.957L539.581 24.848L543.229 16.088H546.829ZM440.211 41.2H444.099V54.832H452.523V58H440.211V41.2ZM454.431 45.088H458.175V58H454.431V45.088ZM456.303 43.288C455.615 43.288 455.055 43.088 454.623 42.688C454.191 42.288 453.975 41.792 453.975 41.2C453.975 40.608 454.191 40.112 454.623 39.712C455.055 39.312 455.615 39.112 456.303 39.112C456.991 39.112 457.551 39.304 457.983 39.688C458.415 40.072 458.631 40.552 458.631 41.128C458.631 41.752 458.415 42.272 457.983 42.688C457.551 43.088 456.991 43.288 456.303 43.288ZM465.994 58.192C464.922 58.192 463.874 58.064 462.85 57.808C461.826 57.536 461.01 57.2 460.402 56.8L461.65 54.112C462.226 54.48 462.922 54.784 463.738 55.024C464.554 55.248 465.354 55.36 466.138 55.36C467.722 55.36 468.514 54.968 468.514 54.184C468.514 53.816 468.298 53.552 467.866 53.392C467.434 53.232 466.77 53.096 465.874 52.984C464.818 52.824 463.946 52.64 463.258 52.432C462.57 52.224 461.97 51.856 461.458 51.328C460.962 50.8 460.714 50.048 460.714 49.072C460.714 48.256 460.946 47.536 461.41 46.912C461.89 46.272 462.578 45.776 463.474 45.424C464.386 45.072 465.458 44.896 466.69 44.896C467.602 44.896 468.506 45 469.402 45.208C470.314 45.4 471.066 45.672 471.658 46.024L470.41 48.688C469.274 48.048 468.034 47.728 466.69 47.728C465.89 47.728 465.29 47.84 464.89 48.064C464.49 48.288 464.29 48.576 464.29 48.928C464.29 49.328 464.506 49.608 464.938 49.768C465.37 49.928 466.058 50.08 467.002 50.224C468.058 50.4 468.922 50.592 469.594 50.8C470.266 50.992 470.85 51.352 471.346 51.88C471.842 52.408 472.09 53.144 472.09 54.088C472.09 54.888 471.85 55.6 471.37 56.224C470.89 56.848 470.186 57.336 469.258 57.688C468.346 58.024 467.258 58.192 465.994 58.192ZM487.048 51.592C487.048 51.64 487.024 51.976 486.976 52.6H477.208C477.384 53.4 477.8 54.032 478.456 54.496C479.112 54.96 479.928 55.192 480.904 55.192C481.576 55.192 482.168 55.096 482.68 54.904C483.208 54.696 483.696 54.376 484.144 53.944L486.136 56.104C484.92 57.496 483.144 58.192 480.808 58.192C479.352 58.192 478.064 57.912 476.944 57.352C475.824 56.776 474.96 55.984 474.352 54.976C473.744 53.968 473.44 52.824 473.44 51.544C473.44 50.28 473.736 49.144 474.328 48.136C474.936 47.112 475.76 46.32 476.8 45.76C477.856 45.184 479.032 44.896 480.328 44.896C481.592 44.896 482.736 45.168 483.76 45.712C484.784 46.256 485.584 47.04 486.16 48.064C486.752 49.072 487.048 50.248 487.048 51.592ZM480.352 47.728C479.504 47.728 478.792 47.968 478.216 48.448C477.64 48.928 477.288 49.584 477.16 50.416H483.52C483.392 49.6 483.04 48.952 482.464 48.472C481.888 47.976 481.184 47.728 480.352 47.728ZM493.885 58.192C492.813 58.192 491.765 58.064 490.741 57.808C489.717 57.536 488.901 57.2 488.293 56.8L489.541 54.112C490.117 54.48 490.813 54.784 491.629 55.024C492.445 55.248 493.245 55.36 494.029 55.36C495.613 55.36 496.405 54.968 496.405 54.184C496.405 53.816 496.189 53.552 495.757 53.392C495.325 53.232 494.661 53.096 493.765 52.984C492.709 52.824 491.837 52.64 491.149 52.432C490.461 52.224 489.861 51.856 489.349 51.328C488.853 50.8 488.604 50.048 488.604 49.072C488.604 48.256 488.837 47.536 489.301 46.912C489.781 46.272 490.469 45.776 491.365 45.424C492.277 45.072 493.349 44.896 494.581 44.896C495.493 44.896 496.397 45 497.293 45.208C498.205 45.4 498.957 45.672 499.549 46.024L498.301 48.688C497.165 48.048 495.925 47.728 494.581 47.728C493.781 47.728 493.181 47.84 492.781 48.064C492.381 48.288 492.181 48.576 492.181 48.928C492.181 49.328 492.397 49.608 492.829 49.768C493.261 49.928 493.949 50.08 494.893 50.224C495.949 50.4 496.813 50.592 497.485 50.8C498.157 50.992 498.741 51.352 499.237 51.88C499.733 52.408 499.981 53.144 499.981 54.088C499.981 54.888 499.741 55.6 499.261 56.224C498.781 56.848 498.077 57.336 497.149 57.688C496.237 58.024 495.149 58.192 493.885 58.192ZM502.291 45.088H506.035V58H502.291V45.088ZM504.163 43.288C503.475 43.288 502.915 43.088 502.483 42.688C502.051 42.288 501.835 41.792 501.835 41.2C501.835 40.608 502.051 40.112 502.483 39.712C502.915 39.312 503.475 39.112 504.163 39.112C504.851 39.112 505.411 39.304 505.843 39.688C506.275 40.072 506.491 40.552 506.491 41.128C506.491 41.752 506.275 42.272 505.843 42.688C505.411 43.088 504.851 43.288 504.163 43.288Z" fill="black"/>
<path d="M615.566 58.288C613.822 58.288 612.246 57.912 610.838 57.16C609.446 56.408 608.35 55.376 607.55 54.064C606.766 52.736 606.374 51.248 606.374 49.6C606.374 47.952 606.766 46.472 607.55 45.16C608.35 43.832 609.446 42.792 610.838 42.04C612.246 41.288 613.822 40.912 615.566 40.912C617.31 40.912 618.878 41.288 620.27 42.04C621.662 42.792 622.758 43.832 623.558 45.16C624.358 46.472 624.758 47.952 624.758 49.6C624.758 51.248 624.358 52.736 623.558 54.064C622.758 55.376 621.662 56.408 620.27 57.16C618.878 57.912 617.31 58.288 615.566 58.288ZM615.566 54.976C616.558 54.976 617.454 54.752 618.254 54.304C619.054 53.84 619.678 53.2 620.126 52.384C620.59 51.568 620.822 50.64 620.822 49.6C620.822 48.56 620.59 47.632 620.126 46.816C619.678 46 619.054 45.368 618.254 44.92C617.454 44.456 616.558 44.224 615.566 44.224C614.574 44.224 613.678 44.456 612.878 44.92C612.078 45.368 611.446 46 610.982 46.816C610.534 47.632 610.31 48.56 610.31 49.6C610.31 50.64 610.534 51.568 610.982 52.384C611.446 53.2 612.078 53.84 612.878 54.304C613.678 54.752 614.574 54.976 615.566 54.976ZM640.568 40.192V58H636.992V56.512C636.064 57.632 634.72 58.192 632.96 58.192C631.744 58.192 630.64 57.92 629.648 57.376C628.672 56.832 627.904 56.056 627.344 55.048C626.784 54.04 626.504 52.872 626.504 51.544C626.504 50.216 626.784 49.048 627.344 48.04C627.904 47.032 628.672 46.256 629.648 45.712C630.64 45.168 631.744 44.896 632.96 44.896C634.608 44.896 635.896 45.416 636.824 46.456V40.192H640.568ZM633.608 55.12C634.552 55.12 635.336 54.8 635.96 54.16C636.584 53.504 636.896 52.632 636.896 51.544C636.896 50.456 636.584 49.592 635.96 48.952C635.336 48.296 634.552 47.968 633.608 47.968C632.648 47.968 631.856 48.296 631.232 48.952C630.608 49.592 630.296 50.456 630.296 51.544C630.296 52.632 630.608 53.504 631.232 54.16C631.856 54.8 632.648 55.12 633.608 55.12ZM649.241 44.896C651.241 44.896 652.777 45.376 653.849 46.336C654.921 47.28 655.457 48.712 655.457 50.632V58H651.953V56.392C651.249 57.592 649.937 58.192 648.017 58.192C647.025 58.192 646.161 58.024 645.425 57.688C644.705 57.352 644.153 56.888 643.769 56.296C643.385 55.704 643.193 55.032 643.193 54.28C643.193 53.08 643.641 52.136 644.537 51.448C645.449 50.76 646.849 50.416 648.737 50.416H651.713C651.713 49.6 651.465 48.976 650.969 48.544C650.473 48.096 649.729 47.872 648.737 47.872C648.049 47.872 647.369 47.984 646.697 48.208C646.041 48.416 645.481 48.704 645.017 49.072L643.673 46.456C644.377 45.96 645.217 45.576 646.193 45.304C647.185 45.032 648.201 44.896 649.241 44.896ZM648.953 55.672C649.593 55.672 650.161 55.528 650.657 55.24C651.153 54.936 651.505 54.496 651.713 53.92V52.6H649.145C647.609 52.6 646.841 53.104 646.841 54.112C646.841 54.592 647.025 54.976 647.393 55.264C647.777 55.536 648.297 55.672 648.953 55.672ZM664.389 52.936L662.589 54.712V58H658.845V40.192H662.589V50.272L668.061 45.088H672.525L667.149 50.56L673.005 58H668.469L664.389 52.936ZM687.463 45.088V58H683.911V56.464C683.415 57.024 682.823 57.456 682.135 57.76C681.447 58.048 680.703 58.192 679.903 58.192C678.207 58.192 676.863 57.704 675.871 56.728C674.879 55.752 674.383 54.304 674.383 52.384V45.088H678.127V51.832C678.127 53.912 678.999 54.952 680.743 54.952C681.639 54.952 682.359 54.664 682.903 54.088C683.447 53.496 683.719 52.624 683.719 51.472V45.088H687.463ZM690.931 40.192H694.675V58H690.931V40.192ZM710.798 51.592C710.798 51.64 710.774 51.976 710.726 52.6H700.958C701.134 53.4 701.55 54.032 702.206 54.496C702.862 54.96 703.678 55.192 704.654 55.192C705.326 55.192 705.918 55.096 706.43 54.904C706.958 54.696 707.446 54.376 707.894 53.944L709.886 56.104C708.67 57.496 706.894 58.192 704.558 58.192C703.102 58.192 701.814 57.912 700.694 57.352C699.574 56.776 698.71 55.984 698.102 54.976C697.494 53.968 697.19 52.824 697.19 51.544C697.19 50.28 697.486 49.144 698.078 48.136C698.686 47.112 699.51 46.32 700.55 45.76C701.606 45.184 702.782 44.896 704.078 44.896C705.342 44.896 706.486 45.168 707.51 45.712C708.534 46.256 709.334 47.04 709.91 48.064C710.502 49.072 710.798 50.248 710.798 51.592ZM704.102 47.728C703.254 47.728 702.542 47.968 701.966 48.448C701.39 48.928 701.038 49.584 700.91 50.416H707.27C707.142 49.6 706.79 48.952 706.214 48.472C705.638 47.976 704.934 47.728 704.102 47.728Z" fill="black"/>
<path d="M813.91 44.368H808.534V41.2H823.174V44.368H817.798V58H813.91V44.368ZM837.728 45.088V58H834.176V56.464C833.68 57.024 833.088 57.456 832.4 57.76C831.712 58.048 830.968 58.192 830.168 58.192C828.472 58.192 827.128 57.704 826.136 56.728C825.144 55.752 824.648 54.304 824.648 52.384V45.088H828.392V51.832C828.392 53.912 829.264 54.952 831.008 54.952C831.904 54.952 832.624 54.664 833.168 54.088C833.712 53.496 833.984 52.624 833.984 51.472V45.088H837.728ZM828.752 43.312C828.272 43.312 827.872 43.16 827.552 42.856C827.232 42.536 827.072 42.136 827.072 41.656C827.072 41.176 827.232 40.784 827.552 40.48C827.872 40.16 828.272 40 828.752 40C829.232 40 829.624 40.16 829.928 40.48C830.248 40.784 830.408 41.176 830.408 41.656C830.408 42.136 830.248 42.536 829.928 42.856C829.624 43.16 829.232 43.312 828.752 43.312ZM833.6 43.312C833.12 43.312 832.72 43.16 832.4 42.856C832.096 42.536 831.944 42.136 831.944 41.656C831.944 41.176 832.096 40.784 832.4 40.48C832.72 40.16 833.12 40 833.6 40C834.08 40 834.48 40.16 834.8 40.48C835.12 40.784 835.28 41.176 835.28 41.656C835.28 42.136 835.12 42.536 834.8 42.856C834.48 43.16 834.08 43.312 833.6 43.312ZM849.045 44.896C850.645 44.896 851.933 45.376 852.909 46.336C853.901 47.296 854.397 48.72 854.397 50.608V58H850.653V51.184C850.653 50.16 850.429 49.4 849.981 48.904C849.533 48.392 848.885 48.136 848.037 48.136C847.093 48.136 846.341 48.432 845.781 49.024C845.221 49.6 844.941 50.464 844.941 51.616V58H841.197V45.088H844.773V46.6C845.269 46.056 845.885 45.64 846.621 45.352C847.357 45.048 848.165 44.896 849.045 44.896ZM870.579 51.592C870.579 51.64 870.555 51.976 870.507 52.6H860.739C860.915 53.4 861.331 54.032 861.987 54.496C862.643 54.96 863.459 55.192 864.435 55.192C865.107 55.192 865.699 55.096 866.211 54.904C866.739 54.696 867.227 54.376 867.675 53.944L869.667 56.104C868.451 57.496 866.675 58.192 864.339 58.192C862.883 58.192 861.595 57.912 860.475 57.352C859.355 56.776 858.491 55.984 857.883 54.976C857.275 53.968 856.971 52.824 856.971 51.544C856.971 50.28 857.267 49.144 857.859 48.136C858.467 47.112 859.291 46.32 860.331 45.76C861.387 45.184 862.563 44.896 863.859 44.896C865.123 44.896 866.267 45.168 867.291 45.712C868.315 46.256 869.115 47.04 869.691 48.064C870.283 49.072 870.579 50.248 870.579 51.592ZM863.883 47.728C863.035 47.728 862.323 47.968 861.747 48.448C861.171 48.928 860.819 49.584 860.691 50.416H867.051C866.923 49.6 866.571 48.952 865.995 48.472C865.419 47.976 864.715 47.728 863.883 47.728ZM873.072 40.192H876.816V58H873.072V40.192Z" fill="black"/>
<rect x="840" y="123" width="6" height="20" fill="black"/>
<rect x="97" y="123" width="6" height="21" fill="black"/>
<g clip-path="url(#clip0_494_2977)">
<path d="M57.9998 179.025C54.4313 179.032 50.941 177.981 47.9705 176.006C45.0001 174.031 42.683 171.221 41.3126 167.93C39.9422 164.639 39.58 161.016 40.272 157.52C40.9639 154.024 42.6788 150.811 45.1996 148.288C47.7205 145.766 50.934 144.047 54.4334 143.349C57.9328 142.651 61.5608 143.005 64.8584 144.368C68.1559 145.73 70.9746 148.039 72.9579 151.002C74.9412 153.965 75.9998 157.448 75.9998 161.012C75.9998 165.784 74.1045 170.36 70.7299 173.737C67.3552 177.114 62.7769 179.016 57.9998 179.025Z" fill="#009845"/>
<path d="M46.207 155.269H49.9493L52.7247 164.11H52.7598L55.5352 155.269H59.2774V166.932H57.0381V157.305H57.003L53.8619 166.932H51.6226L48.4815 157.305L48.4464 157.34V166.932H46.207V155.269Z" fill="white"/>
<path d="M61.3262 166.932V164.975C62.4133 163.925 66.371 160.612 66.371 158.471C66.371 157.4 65.4191 156.9 64.4673 156.9C63.4993 156.948 62.5656 157.273 61.777 157.835L61.5917 155.899C62.6639 155.358 63.8473 155.074 65.0484 155.068C67.2727 155.068 68.7105 156.184 68.7105 158.476C68.7105 160.977 66.2057 163.224 64.312 165.095H69.0762V166.932H61.3262Z" fill="white"/>
</g>
<g clip-path="url(#clip1_494_2977)">
<path d="M822 179.025C818.431 179.032 814.941 177.981 811.971 176.006C809 174.031 806.683 171.221 805.313 167.93C803.942 164.639 803.58 161.016 804.272 157.52C804.964 154.024 806.679 150.811 809.2 148.288C811.72 145.766 814.934 144.047 818.433 143.349C821.933 142.651 825.561 143.005 828.858 144.368C832.156 145.73 834.975 148.039 836.958 151.002C838.941 153.965 840 157.448 840 161.012C840 165.784 838.105 170.36 834.73 173.737C831.355 177.114 826.777 179.016 822 179.025Z" fill="#009845"/>
<path d="M810.207 155.269H813.949L816.725 164.11H816.76L819.535 155.269H823.277V166.932H821.038V157.305H821.003L817.862 166.932H815.623L812.481 157.305L812.446 157.34V166.932H810.207V155.269Z" fill="white"/>
<path d="M825.326 166.932V164.975C826.413 163.925 830.371 160.612 830.371 158.471C830.371 157.4 829.419 156.9 828.467 156.9C827.499 156.948 826.566 157.273 825.777 157.835L825.592 155.899C826.664 155.358 827.847 155.074 829.048 155.068C831.273 155.068 832.711 156.184 832.711 158.476C832.711 160.977 830.206 163.224 828.312 165.095H833.076V166.932H825.326Z" fill="white"/>
</g>
<g clip-path="url(#clip2_494_2977)">
<path d="M82 161C82.004 157.445 83.0631 153.971 85.0434 151.017C87.0237 148.062 89.8363 145.761 93.1257 144.403C96.4151 143.046 100.034 142.692 103.524 143.388C107.014 144.085 110.22 145.799 112.735 148.314C115.25 150.829 116.963 154.033 117.656 157.52C118.349 161.007 117.991 164.621 116.628 167.906C115.265 171.19 112.958 173.997 109.998 175.971C107.039 177.946 103.559 179 100 179C97.6345 179 95.2922 178.534 93.107 177.63C90.9219 176.725 88.9367 175.399 87.2649 173.727C85.5932 172.055 84.2678 170.071 83.3644 167.887C82.461 165.703 81.9974 163.363 82 161Z" fill="#7A7157"/>
<path d="M91.9297 154.354H99.3117V156.374H94.5994V159.727H99.0892V161.747H94.5994V167.646H91.9297V154.354Z" fill="white"/>
<path d="M105.299 154.354H107.665V167.646H104.996V157.384L102.751 159.162L101.416 157.485L105.299 154.354Z" fill="white"/>
</g>
<g clip-path="url(#clip3_494_2977)">
<path d="M846 161C846 157.44 847.056 153.96 849.034 151C851.011 148.04 853.823 145.733 857.112 144.37C860.401 143.008 864.02 142.651 867.512 143.346C871.003 144.04 874.211 145.755 876.728 148.272C879.245 150.789 880.96 153.997 881.654 157.488C882.349 160.98 881.992 164.599 880.63 167.888C879.267 171.177 876.96 173.989 874 175.966C871.04 177.944 867.56 179 864 179C859.229 178.989 854.657 177.089 851.284 173.716C847.911 170.343 846.011 165.771 846 161Z" fill="#7A7157"/>
<path d="M855.102 154.326H862.585V156.55H857.731V159.786H862.382V161.809H857.731V167.674H855.102V154.326Z" fill="white"/>
<path d="M864 167.674V165.449C865.213 164.236 869.663 160.393 869.663 157.966C869.663 156.753 868.652 156.146 867.438 156.146C866.343 156.14 865.277 156.496 864.404 157.157L864.202 154.933C865.393 154.316 866.705 153.971 868.045 153.921C870.674 153.921 872.292 155.135 872.292 157.764C872.292 160.393 869.461 163.225 867.236 165.247H872.697V167.27H864V167.674Z" fill="white"/>
</g>
<g clip-path="url(#clip4_494_2977)">
<path d="M124 161C124 151.09 132.09 143 142 143C151.91 143 160 151.09 160 161C160 170.91 151.91 179 142 179C132.09 179.202 124.202 171.315 124 161.404C124 161.202 124 161.202 124 161Z" fill="#9D9D9D"/>
<path d="M135.326 154.933H139.371L142 164.034L145.034 154.933H148.877V167.067H146.45V156.955L143.416 167.067H140.989L137.753 156.955V157.157V167.067H135.326V154.933Z" fill="white"/>
</g>
<defs>
<clipPath id="clip0_494_2977">
<rect width="36" height="36" fill="white" transform="translate(40 143)"/>
</clipPath>
<clipPath id="clip1_494_2977">
<rect width="36" height="36" fill="white" transform="translate(804 143)"/>
</clipPath>
<clipPath id="clip2_494_2977">
<rect width="36" height="36" fill="white" transform="translate(82 143)"/>
</clipPath>
<clipPath id="clip3_494_2977">
<rect width="36" height="36" fill="white" transform="translate(846 143)"/>
</clipPath>
<clipPath id="clip4_494_2977">
<rect width="36" height="36" fill="white" transform="translate(124 143)"/>
</clipPath>
</defs>
</svg>
