<?xml version="1.0" encoding="utf-8"?>
<!-- Generator: Adobe Illustrator 28.1.0, SVG Export Plug-In . SVG Version: 6.00 Build 0)  -->
<svg version="1.1" id="Layer_1" xmlns="http://www.w3.org/2000/svg" xmlns:xlink="http://www.w3.org/1999/xlink" x="0px" y="0px"
	 width="250px" height="250px" viewBox="0 0 250 250" style="enable-background:new 0 0 250 250;" xml:space="preserve">
<style type="text/css">
	.st0{fill:#E77C7C;}
	.st1{fill:#FFFFFF;}
</style>
<g id="Layer_2_00000000209175192285895040000016629688099482850183_">
	<g id="Layer_1-2">
		<path class="st0" d="M0,125C0,56.19,56.17,0,125,0s125,56.17,125,125s-56.17,125-125,125S0,193.83,0,125z"/>
		<path class="st1" d="M83.72,168.61V95.15h-25V81.4h67.46v13.75h-25v73.46H83.72z"/>
		<path class="st1" d="M184.65,97.14c-4.77-2.24-9.97-3.43-15.24-3.5c-13.86,0-20.12,11.88-20.74,27l0.25,0.25
			c4.13-6,9.49-8.74,17-8.74c16,0,25.36,10.11,25.36,26.61c0,20-10.24,31.35-29,31.35c-19.49,0-29.61-12.86-29.61-40.59
			c0-26.75,9.49-49.61,35.85-49.61c6.26-0.04,12.48,1,18.38,3.09L184.65,97.14z M173.79,141.49c0-8-3.13-16.36-12-16.36
			c-7.25,0-11.62,6.12-11.62,16.49c0,8.12,3.37,15.5,12.12,15.5C170.66,157.12,173.79,148.87,173.79,141.49L173.79,141.49z"/>
	</g>
</g>
</svg>
