<svg width="1492" height="200" viewBox="0 0 1492 200" fill="none" xmlns="http://www.w3.org/2000/svg">
<g clip-path="url(#clip0_494_4670)">
<path d="M100 100H1408" stroke="#E77C7C" stroke-width="20"/>
<circle cx="1025" cy="100" r="21" fill="#E77C7C"/>
<circle cx="1025" cy="100" r="13" fill="white"/>
<circle cx="843" cy="100" r="21" fill="#E77C7C"/>
<circle cx="843" cy="100" r="13" fill="white"/>
<circle cx="1207" cy="100" r="21" fill="#E77C7C"/>
<circle cx="1207" cy="100" r="13" fill="white"/>
<circle cx="1392" cy="100" r="21" fill="#E77C7C"/>
<circle cx="1392" cy="100" r="13" fill="white"/>
<circle cx="288" cy="100" r="21" fill="#E77C7C"/>
<circle cx="288" cy="100" r="13" fill="white"/>
<circle cx="473" cy="100" r="21" fill="#E77C7C"/>
<circle cx="473" cy="100" r="13" fill="white"/>
<circle cx="658" cy="100" r="21" fill="#E77C7C"/>
<circle cx="658" cy="100" r="13" fill="white"/>
<circle cx="100" cy="100" r="24" fill="black"/>
<ellipse cx="100.001" cy="99.9939" rx="19.2" ry="19.2" fill="white"/>
<circle cx="658" cy="100" r="24" fill="black"/>
<ellipse cx="658.001" cy="99.9939" rx="19.2" ry="19.2" fill="white"/>
<circle cx="1392" cy="100" r="24" fill="black"/>
<ellipse cx="1392" cy="99.9939" rx="19.2" ry="19.2" fill="white"/>
<path d="M65.719 58.288C64.391 58.288 63.103 58.112 61.855 57.76C60.623 57.392 59.631 56.92 58.879 56.344L60.199 53.416C60.919 53.944 61.775 54.368 62.767 54.688C63.759 55.008 64.751 55.168 65.743 55.168C66.847 55.168 67.663 55.008 68.191 54.688C68.719 54.352 68.983 53.912 68.983 53.368C68.983 52.968 68.823 52.64 68.503 52.384C68.199 52.112 67.799 51.896 67.303 51.736C66.823 51.576 66.167 51.4 65.335 51.208C64.055 50.904 63.007 50.6 62.191 50.296C61.375 49.992 60.671 49.504 60.079 48.832C59.503 48.16 59.215 47.264 59.215 46.144C59.215 45.168 59.479 44.288 60.007 43.504C60.535 42.704 61.327 42.072 62.383 41.608C63.455 41.144 64.759 40.912 66.295 40.912C67.367 40.912 68.415 41.04 69.439 41.296C70.463 41.552 71.359 41.92 72.127 42.4L70.927 45.352C69.375 44.472 67.823 44.032 66.271 44.032C65.183 44.032 64.375 44.208 63.847 44.56C63.335 44.912 63.079 45.376 63.079 45.952C63.079 46.528 63.375 46.96 63.967 47.248C64.575 47.52 65.495 47.792 66.727 48.064C68.007 48.368 69.055 48.672 69.871 48.976C70.687 49.28 71.383 49.76 71.959 50.416C72.551 51.072 72.847 51.96 72.847 53.08C72.847 54.04 72.575 54.92 72.031 55.72C71.503 56.504 70.703 57.128 69.631 57.592C68.559 58.056 67.255 58.288 65.719 58.288ZM75.2397 45.088H78.9837V58H75.2397V45.088ZM77.1117 43.288C76.4237 43.288 75.8637 43.088 75.4317 42.688C74.9997 42.288 74.7837 41.792 74.7837 41.2C74.7837 40.608 74.9997 40.112 75.4317 39.712C75.8637 39.312 76.4237 39.112 77.1117 39.112C77.7997 39.112 78.3597 39.304 78.7917 39.688C79.2237 40.072 79.4397 40.552 79.4397 41.128C79.4397 41.752 79.2237 42.272 78.7917 42.688C78.3597 43.088 77.7997 43.288 77.1117 43.288ZM86.0345 46.792C86.4825 46.168 87.0825 45.696 87.8345 45.376C88.6025 45.056 89.4825 44.896 90.4745 44.896V48.352C90.0585 48.32 89.7785 48.304 89.6345 48.304C88.5625 48.304 87.7225 48.608 87.1145 49.216C86.5065 49.808 86.2025 50.704 86.2025 51.904V58H82.4585V45.088H86.0345V46.792ZM98.2447 52.936L96.4447 54.712V58H92.7007V40.192H96.4447V50.272L101.917 45.088H106.381L101.005 50.56L106.861 58H102.325L98.2447 52.936ZM120.63 51.592C120.63 51.64 120.606 51.976 120.558 52.6H110.79C110.966 53.4 111.382 54.032 112.038 54.496C112.694 54.96 113.51 55.192 114.486 55.192C115.158 55.192 115.75 55.096 116.262 54.904C116.79 54.696 117.278 54.376 117.726 53.944L119.718 56.104C118.502 57.496 116.726 58.192 114.39 58.192C112.934 58.192 111.646 57.912 110.526 57.352C109.406 56.776 108.542 55.984 107.934 54.976C107.326 53.968 107.022 52.824 107.022 51.544C107.022 50.28 107.318 49.144 107.91 48.136C108.518 47.112 109.342 46.32 110.382 45.76C111.438 45.184 112.614 44.896 113.91 44.896C115.174 44.896 116.318 45.168 117.342 45.712C118.366 46.256 119.166 47.04 119.742 48.064C120.334 49.072 120.63 50.248 120.63 51.592ZM113.934 47.728C113.086 47.728 112.374 47.968 111.798 48.448C111.222 48.928 110.87 49.584 110.742 50.416H117.102C116.974 49.6 116.622 48.952 116.046 48.472C115.47 47.976 114.766 47.728 113.934 47.728ZM129.363 58.192C127.987 58.192 126.747 57.912 125.643 57.352C124.555 56.776 123.699 55.984 123.075 54.976C122.467 53.968 122.163 52.824 122.163 51.544C122.163 50.264 122.467 49.12 123.075 48.112C123.699 47.104 124.555 46.32 125.643 45.76C126.747 45.184 127.987 44.896 129.363 44.896C130.723 44.896 131.907 45.184 132.915 45.76C133.939 46.32 134.683 47.128 135.147 48.184L132.243 49.744C131.571 48.56 130.603 47.968 129.339 47.968C128.363 47.968 127.555 48.288 126.915 48.928C126.275 49.568 125.955 50.44 125.955 51.544C125.955 52.648 126.275 53.52 126.915 54.16C127.555 54.8 128.363 55.12 129.339 55.12C130.619 55.12 131.587 54.528 132.243 53.344L135.147 54.928C134.683 55.952 133.939 56.752 132.915 57.328C131.907 57.904 130.723 58.192 129.363 58.192ZM137.302 45.088H141.046V58H137.302V45.088ZM139.174 43.288C138.486 43.288 137.926 43.088 137.494 42.688C137.062 42.288 136.846 41.792 136.846 41.2C136.846 40.608 137.062 40.112 137.494 39.712C137.926 39.312 138.486 39.112 139.174 39.112C139.862 39.112 140.422 39.304 140.854 39.688C141.286 40.072 141.502 40.552 141.502 41.128C141.502 41.752 141.286 42.272 140.854 42.688C140.422 43.088 139.862 43.288 139.174 43.288Z" fill="black"/>
<path d="M219.278 58.288C217.566 58.288 216.014 57.92 214.622 57.184C213.246 56.432 212.158 55.4 211.358 54.088C210.574 52.76 210.182 51.264 210.182 49.6C210.182 47.936 210.574 46.448 211.358 45.136C212.158 43.808 213.246 42.776 214.622 42.04C216.014 41.288 217.574 40.912 219.302 40.912C220.758 40.912 222.07 41.168 223.238 41.68C224.422 42.192 225.414 42.928 226.214 43.888L223.718 46.192C222.582 44.88 221.174 44.224 219.494 44.224C218.454 44.224 217.526 44.456 216.71 44.92C215.894 45.368 215.254 46 214.79 46.816C214.342 47.632 214.118 48.56 214.118 49.6C214.118 50.64 214.342 51.568 214.79 52.384C215.254 53.2 215.894 53.84 216.71 54.304C217.526 54.752 218.454 54.976 219.494 54.976C221.174 54.976 222.582 54.312 223.718 52.984L226.214 55.288C225.414 56.264 224.422 57.008 223.238 57.52C222.054 58.032 220.734 58.288 219.278 58.288ZM233.69 44.896C235.69 44.896 237.226 45.376 238.298 46.336C239.37 47.28 239.906 48.712 239.906 50.632V58H236.402V56.392C235.698 57.592 234.386 58.192 232.466 58.192C231.474 58.192 230.61 58.024 229.874 57.688C229.154 57.352 228.602 56.888 228.218 56.296C227.834 55.704 227.642 55.032 227.642 54.28C227.642 53.08 228.09 52.136 228.986 51.448C229.898 50.76 231.298 50.416 233.186 50.416H236.162C236.162 49.6 235.914 48.976 235.418 48.544C234.922 48.096 234.178 47.872 233.186 47.872C232.498 47.872 231.818 47.984 231.146 48.208C230.49 48.416 229.93 48.704 229.466 49.072L228.122 46.456C228.826 45.96 229.666 45.576 230.642 45.304C231.634 45.032 232.65 44.896 233.69 44.896ZM233.402 55.672C234.042 55.672 234.61 55.528 235.106 55.24C235.602 54.936 235.954 54.496 236.162 53.92V52.6H233.594C232.058 52.6 231.29 53.104 231.29 54.112C231.29 54.592 231.474 54.976 231.842 55.264C232.226 55.536 232.746 55.672 233.402 55.672ZM251.142 44.896C252.742 44.896 254.03 45.376 255.006 46.336C255.998 47.296 256.494 48.72 256.494 50.608V58H252.75V51.184C252.75 50.16 252.526 49.4 252.078 48.904C251.63 48.392 250.982 48.136 250.134 48.136C249.19 48.136 248.438 48.432 247.878 49.024C247.318 49.6 247.038 50.464 247.038 51.616V58H243.294V45.088H246.87V46.6C247.366 46.056 247.982 45.64 248.718 45.352C249.454 45.048 250.262 44.896 251.142 44.896ZM265.432 52.936L263.632 54.712V58H259.888V40.192H263.632V50.272L269.104 45.088H273.568L268.192 50.56L274.048 58H269.512L265.432 52.936ZM288.506 45.088V58H284.954V56.464C284.458 57.024 283.866 57.456 283.178 57.76C282.49 58.048 281.746 58.192 280.946 58.192C279.25 58.192 277.906 57.704 276.914 56.728C275.922 55.752 275.426 54.304 275.426 52.384V45.088H279.17V51.832C279.17 53.912 280.042 54.952 281.786 54.952C282.682 54.952 283.402 54.664 283.946 54.088C284.49 53.496 284.762 52.624 284.762 51.472V45.088H288.506ZM295.55 46.792C295.998 46.168 296.598 45.696 297.35 45.376C298.118 45.056 298.998 44.896 299.99 44.896V48.352C299.574 48.32 299.294 48.304 299.15 48.304C298.078 48.304 297.238 48.608 296.63 49.216C296.022 49.808 295.718 50.704 295.718 51.904V58H291.974V45.088H295.55V46.792ZM310.99 57.376C310.622 57.648 310.166 57.856 309.622 58C309.094 58.128 308.534 58.192 307.942 58.192C306.406 58.192 305.214 57.8 304.366 57.016C303.534 56.232 303.118 55.08 303.118 53.56V48.256H301.126V45.376H303.118V42.232H306.862V45.376H310.078V48.256H306.862V53.512C306.862 54.056 306.998 54.48 307.27 54.784C307.558 55.072 307.958 55.216 308.47 55.216C309.062 55.216 309.566 55.056 309.982 54.736L310.99 57.376ZM318.299 44.896C320.299 44.896 321.835 45.376 322.907 46.336C323.979 47.28 324.515 48.712 324.515 50.632V58H321.011V56.392C320.307 57.592 318.995 58.192 317.075 58.192C316.083 58.192 315.219 58.024 314.483 57.688C313.763 57.352 313.211 56.888 312.827 56.296C312.443 55.704 312.251 55.032 312.251 54.28C312.251 53.08 312.699 52.136 313.595 51.448C314.507 50.76 315.907 50.416 317.795 50.416H320.771C320.771 49.6 320.523 48.976 320.027 48.544C319.531 48.096 318.787 47.872 317.795 47.872C317.107 47.872 316.427 47.984 315.755 48.208C315.099 48.416 314.539 48.704 314.075 49.072L312.731 46.456C313.435 45.96 314.275 45.576 315.251 45.304C316.243 45.032 317.259 44.896 318.299 44.896ZM318.011 55.672C318.651 55.672 319.219 55.528 319.715 55.24C320.211 54.936 320.563 54.496 320.771 53.92V52.6H318.203C316.667 52.6 315.899 53.104 315.899 54.112C315.899 54.592 316.083 54.976 316.451 55.264C316.835 55.536 317.355 55.672 318.011 55.672ZM331.48 46.792C331.928 46.168 332.528 45.696 333.28 45.376C334.048 45.056 334.928 44.896 335.92 44.896V48.352C335.504 48.32 335.224 48.304 335.08 48.304C334.008 48.304 333.168 48.608 332.56 49.216C331.952 49.808 331.648 50.704 331.648 51.904V58H327.904V45.088H331.48V46.792ZM343.284 44.896C345.284 44.896 346.82 45.376 347.892 46.336C348.964 47.28 349.5 48.712 349.5 50.632V58H345.996V56.392C345.292 57.592 343.98 58.192 342.06 58.192C341.068 58.192 340.204 58.024 339.468 57.688C338.748 57.352 338.196 56.888 337.812 56.296C337.428 55.704 337.236 55.032 337.236 54.28C337.236 53.08 337.684 52.136 338.58 51.448C339.492 50.76 340.892 50.416 342.78 50.416H345.756C345.756 49.6 345.508 48.976 345.012 48.544C344.516 48.096 343.772 47.872 342.78 47.872C342.092 47.872 341.412 47.984 340.74 48.208C340.084 48.416 339.524 48.704 339.06 49.072L337.716 46.456C338.42 45.96 339.26 45.576 340.236 45.304C341.228 45.032 342.244 44.896 343.284 44.896ZM342.996 55.672C343.636 55.672 344.204 55.528 344.7 55.24C345.196 54.936 345.548 54.496 345.756 53.92V52.6H343.188C341.652 52.6 340.884 53.104 340.884 54.112C340.884 54.592 341.068 54.976 341.436 55.264C341.82 55.536 342.34 55.672 342.996 55.672ZM360.736 44.896C362.336 44.896 363.624 45.376 364.6 46.336C365.592 47.296 366.088 48.72 366.088 50.608V58H362.344V51.184C362.344 50.16 362.12 49.4 361.672 48.904C361.224 48.392 360.576 48.136 359.728 48.136C358.784 48.136 358.032 48.432 357.472 49.024C356.912 49.6 356.632 50.464 356.632 51.616V58H352.888V45.088H356.464V46.6C356.96 46.056 357.576 45.64 358.312 45.352C359.048 45.048 359.856 44.896 360.736 44.896Z" fill="black"/>
<path d="M424.499 51.4L422.243 53.752V58H418.379V41.2H422.243V49.048L429.683 41.2H434.003L427.043 48.688L434.411 58H429.875L424.499 51.4ZM448.49 45.088V58H444.938V56.464C444.442 57.024 443.85 57.456 443.162 57.76C442.474 58.048 441.73 58.192 440.93 58.192C439.234 58.192 437.89 57.704 436.898 56.728C435.906 55.752 435.41 54.304 435.41 52.384V45.088H439.154V51.832C439.154 53.912 440.026 54.952 441.77 54.952C442.666 54.952 443.386 54.664 443.93 54.088C444.474 53.496 444.746 52.624 444.746 51.472V45.088H448.49ZM468.494 44.896C470.11 44.896 471.39 45.376 472.334 46.336C473.294 47.28 473.774 48.704 473.774 50.608V58H470.03V51.184C470.03 50.16 469.814 49.4 469.382 48.904C468.966 48.392 468.366 48.136 467.582 48.136C466.702 48.136 466.006 48.424 465.494 49C464.982 49.56 464.726 50.4 464.726 51.52V58H460.982V51.184C460.982 49.152 460.166 48.136 458.534 48.136C457.67 48.136 456.982 48.424 456.47 49C455.958 49.56 455.702 50.4 455.702 51.52V58H451.958V45.088H455.534V46.576C456.014 46.032 456.598 45.616 457.286 45.328C457.99 45.04 458.758 44.896 459.59 44.896C460.502 44.896 461.326 45.08 462.062 45.448C462.798 45.8 463.39 46.32 463.838 47.008C464.366 46.336 465.03 45.816 465.83 45.448C466.646 45.08 467.534 44.896 468.494 44.896ZM482.674 52.936L480.874 54.712V58H477.13V40.192H480.874V50.272L486.346 45.088H490.81L485.434 50.56L491.29 58H486.754L482.674 52.936ZM497.948 44.896C499.948 44.896 501.484 45.376 502.556 46.336C503.628 47.28 504.164 48.712 504.164 50.632V58H500.66V56.392C499.956 57.592 498.644 58.192 496.724 58.192C495.732 58.192 494.868 58.024 494.132 57.688C493.412 57.352 492.86 56.888 492.476 56.296C492.092 55.704 491.9 55.032 491.9 54.28C491.9 53.08 492.348 52.136 493.244 51.448C494.156 50.76 495.556 50.416 497.444 50.416H500.42C500.42 49.6 500.172 48.976 499.676 48.544C499.18 48.096 498.436 47.872 497.444 47.872C496.756 47.872 496.076 47.984 495.404 48.208C494.748 48.416 494.188 48.704 493.724 49.072L492.38 46.456C493.084 45.96 493.924 45.576 494.9 45.304C495.892 45.032 496.908 44.896 497.948 44.896ZM497.66 55.672C498.3 55.672 498.868 55.528 499.364 55.24C499.86 54.936 500.212 54.496 500.42 53.92V52.6H497.852C496.316 52.6 495.548 53.104 495.548 54.112C495.548 54.592 495.732 54.976 496.1 55.264C496.484 55.536 497.004 55.672 497.66 55.672ZM515.184 44.896C516.384 44.896 517.472 45.176 518.448 45.736C519.44 46.28 520.216 47.056 520.776 48.064C521.336 49.056 521.616 50.216 521.616 51.544C521.616 52.872 521.336 54.04 520.776 55.048C520.216 56.04 519.44 56.816 518.448 57.376C517.472 57.92 516.384 58.192 515.184 58.192C513.536 58.192 512.24 57.672 511.296 56.632V62.656H507.552V45.088H511.128V46.576C512.056 45.456 513.408 44.896 515.184 44.896ZM514.536 55.12C515.496 55.12 516.28 54.8 516.888 54.16C517.512 53.504 517.824 52.632 517.824 51.544C517.824 50.456 517.512 49.592 516.888 48.952C516.28 48.296 515.496 47.968 514.536 47.968C513.576 47.968 512.784 48.296 512.16 48.952C511.552 49.592 511.248 50.456 511.248 51.544C511.248 52.632 511.552 53.504 512.16 54.16C512.784 54.8 513.576 55.12 514.536 55.12ZM524.123 45.088H527.867V58H524.123V45.088Z" fill="black"/>
<path d="M614.079 52.048V58H610.191V52L603.687 41.2H607.815L612.303 48.664L616.791 41.2H620.607L614.079 52.048ZM633.189 51.592C633.189 51.64 633.165 51.976 633.117 52.6H623.349C623.525 53.4 623.941 54.032 624.597 54.496C625.253 54.96 626.069 55.192 627.045 55.192C627.717 55.192 628.309 55.096 628.821 54.904C629.349 54.696 629.837 54.376 630.285 53.944L632.277 56.104C631.061 57.496 629.285 58.192 626.949 58.192C625.493 58.192 624.205 57.912 623.085 57.352C621.965 56.776 621.101 55.984 620.493 54.976C619.885 53.968 619.581 52.824 619.581 51.544C619.581 50.28 619.877 49.144 620.469 48.136C621.077 47.112 621.901 46.32 622.941 45.76C623.997 45.184 625.173 44.896 626.469 44.896C627.733 44.896 628.877 45.168 629.901 45.712C630.925 46.256 631.725 47.04 632.301 48.064C632.893 49.072 633.189 50.248 633.189 51.592ZM626.493 47.728C625.645 47.728 624.933 47.968 624.357 48.448C623.781 48.928 623.429 49.584 623.301 50.416H629.661C629.533 49.6 629.181 48.952 628.605 48.472C628.029 47.976 627.325 47.728 626.493 47.728ZM643.529 44.896C645.129 44.896 646.417 45.376 647.393 46.336C648.385 47.296 648.881 48.72 648.881 50.608V58H645.137V51.184C645.137 50.16 644.913 49.4 644.465 48.904C644.017 48.392 643.369 48.136 642.521 48.136C641.577 48.136 640.825 48.432 640.265 49.024C639.705 49.6 639.425 50.464 639.425 51.616V58H635.681V45.088H639.257V46.6C639.753 46.056 640.369 45.64 641.105 45.352C641.841 45.048 642.649 44.896 643.529 44.896ZM652.275 45.088H656.019V58H652.275V45.088ZM654.147 43.288C653.459 43.288 652.899 43.088 652.467 42.688C652.035 42.288 651.819 41.792 651.819 41.2C651.819 40.608 652.035 40.112 652.467 39.712C652.899 39.312 653.459 39.112 654.147 39.112C654.835 39.112 655.395 39.304 655.827 39.688C656.259 40.072 656.475 40.552 656.475 41.128C656.475 41.752 656.259 42.272 655.827 42.688C655.395 43.088 654.835 43.288 654.147 43.288ZM665.038 52.936L663.238 54.712V58H659.494V40.192H663.238V50.272L668.71 45.088H673.174L667.798 50.56L673.654 58H669.118L665.038 52.936ZM680.311 44.896C682.311 44.896 683.847 45.376 684.919 46.336C685.991 47.28 686.527 48.712 686.527 50.632V58H683.023V56.392C682.319 57.592 681.007 58.192 679.087 58.192C678.095 58.192 677.231 58.024 676.495 57.688C675.775 57.352 675.223 56.888 674.839 56.296C674.455 55.704 674.263 55.032 674.263 54.28C674.263 53.08 674.711 52.136 675.607 51.448C676.519 50.76 677.919 50.416 679.807 50.416H682.783C682.783 49.6 682.535 48.976 682.039 48.544C681.543 48.096 680.799 47.872 679.807 47.872C679.119 47.872 678.439 47.984 677.767 48.208C677.111 48.416 676.551 48.704 676.087 49.072L674.743 46.456C675.447 45.96 676.287 45.576 677.263 45.304C678.255 45.032 679.271 44.896 680.311 44.896ZM680.023 55.672C680.663 55.672 681.231 55.528 681.727 55.24C682.223 54.936 682.575 54.496 682.783 53.92V52.6H680.215C678.679 52.6 677.911 53.104 677.911 54.112C677.911 54.592 678.095 54.976 678.463 55.264C678.847 55.536 679.367 55.672 680.023 55.672ZM697.548 44.896C698.748 44.896 699.836 45.176 700.812 45.736C701.804 46.28 702.58 47.056 703.14 48.064C703.7 49.056 703.98 50.216 703.98 51.544C703.98 52.872 703.7 54.04 703.14 55.048C702.58 56.04 701.804 56.816 700.812 57.376C699.836 57.92 698.748 58.192 697.548 58.192C695.9 58.192 694.604 57.672 693.66 56.632V62.656H689.916V45.088H693.492V46.576C694.42 45.456 695.772 44.896 697.548 44.896ZM696.9 55.12C697.86 55.12 698.644 54.8 699.252 54.16C699.876 53.504 700.188 52.632 700.188 51.544C700.188 50.456 699.876 49.592 699.252 48.952C698.644 48.296 697.86 47.968 696.9 47.968C695.94 47.968 695.148 48.296 694.523 48.952C693.916 49.592 693.612 50.456 693.612 51.544C693.612 52.632 693.916 53.504 694.523 54.16C695.148 54.8 695.94 55.12 696.9 55.12ZM706.486 45.088H710.23V58H706.486V45.088Z" fill="black"/>
<path d="M782.106 58.288C780.394 58.288 778.842 57.92 777.45 57.184C776.074 56.432 774.986 55.4 774.186 54.088C773.402 52.76 773.01 51.264 773.01 49.6C773.01 47.936 773.402 46.448 774.186 45.136C774.986 43.808 776.074 42.776 777.45 42.04C778.842 41.288 780.402 40.912 782.13 40.912C783.586 40.912 784.898 41.168 786.066 41.68C787.25 42.192 788.242 42.928 789.042 43.888L786.546 46.192C785.41 44.88 784.002 44.224 782.322 44.224C781.282 44.224 780.354 44.456 779.538 44.92C778.722 45.368 778.082 46 777.618 46.816C777.17 47.632 776.946 48.56 776.946 49.6C776.946 50.64 777.17 51.568 777.618 52.384C778.082 53.2 778.722 53.84 779.538 54.304C780.354 54.752 781.282 54.976 782.322 54.976C784.002 54.976 785.41 54.312 786.546 52.984L789.042 55.288C788.242 56.264 787.25 57.008 786.066 57.52C784.882 58.032 783.562 58.288 782.106 58.288ZM803.606 51.592C803.606 51.64 803.582 51.976 803.534 52.6H793.766C793.942 53.4 794.358 54.032 795.014 54.496C795.67 54.96 796.486 55.192 797.462 55.192C798.134 55.192 798.726 55.096 799.238 54.904C799.766 54.696 800.254 54.376 800.702 53.944L802.694 56.104C801.478 57.496 799.702 58.192 797.366 58.192C795.91 58.192 794.622 57.912 793.502 57.352C792.382 56.776 791.518 55.984 790.91 54.976C790.302 53.968 789.998 52.824 789.998 51.544C789.998 50.28 790.294 49.144 790.886 48.136C791.494 47.112 792.318 46.32 793.358 45.76C794.414 45.184 795.59 44.896 796.886 44.896C798.15 44.896 799.294 45.168 800.318 45.712C801.342 46.256 802.142 47.04 802.718 48.064C803.31 49.072 803.606 50.248 803.606 51.592ZM796.91 47.728C796.062 47.728 795.35 47.968 794.774 48.448C794.198 48.928 793.846 49.584 793.718 50.416H800.078C799.95 49.6 799.598 48.952 799.022 48.472C798.446 47.976 797.742 47.728 796.91 47.728ZM809.675 46.792C810.123 46.168 810.723 45.696 811.475 45.376C812.243 45.056 813.123 44.896 814.115 44.896V48.352C813.699 48.32 813.419 48.304 813.275 48.304C812.203 48.304 811.363 48.608 810.755 49.216C810.147 49.808 809.843 50.704 809.843 51.904V58H806.099V45.088H809.675V46.792ZM819.917 46.792C820.365 46.168 820.965 45.696 821.717 45.376C822.485 45.056 823.365 44.896 824.357 44.896V48.352C823.941 48.32 823.661 48.304 823.517 48.304C822.445 48.304 821.605 48.608 820.997 49.216C820.389 49.808 820.085 50.704 820.085 51.904V58H816.341V45.088H819.917V46.792ZM831.721 44.896C833.721 44.896 835.257 45.376 836.329 46.336C837.401 47.28 837.937 48.712 837.937 50.632V58H834.433V56.392C833.729 57.592 832.417 58.192 830.497 58.192C829.505 58.192 828.641 58.024 827.905 57.688C827.185 57.352 826.633 56.888 826.249 56.296C825.865 55.704 825.673 55.032 825.673 54.28C825.673 53.08 826.121 52.136 827.017 51.448C827.929 50.76 829.329 50.416 831.217 50.416H834.193C834.193 49.6 833.945 48.976 833.449 48.544C832.953 48.096 832.209 47.872 831.217 47.872C830.529 47.872 829.849 47.984 829.177 48.208C828.521 48.416 827.961 48.704 827.497 49.072L826.153 46.456C826.857 45.96 827.697 45.576 828.673 45.304C829.665 45.032 830.681 44.896 831.721 44.896ZM831.433 55.672C832.073 55.672 832.641 55.528 833.137 55.24C833.633 54.936 833.985 54.496 834.193 53.92V52.6H831.625C830.089 52.6 829.321 53.104 829.321 54.112C829.321 54.592 829.505 54.976 829.873 55.264C830.257 55.536 830.777 55.672 831.433 55.672ZM849.174 44.896C850.774 44.896 852.062 45.376 853.038 46.336C854.03 47.296 854.526 48.72 854.526 50.608V58H850.782V51.184C850.782 50.16 850.558 49.4 850.11 48.904C849.662 48.392 849.014 48.136 848.166 48.136C847.222 48.136 846.47 48.432 845.91 49.024C845.35 49.6 845.07 50.464 845.07 51.616V58H841.326V40.192H845.07V46.432C845.566 45.936 846.166 45.56 846.87 45.304C847.574 45.032 848.342 44.896 849.174 44.896ZM865.551 44.896C866.751 44.896 867.839 45.176 868.815 45.736C869.807 46.28 870.583 47.056 871.143 48.064C871.703 49.056 871.983 50.216 871.983 51.544C871.983 52.872 871.703 54.04 871.143 55.048C870.583 56.04 869.807 56.816 868.815 57.376C867.839 57.92 866.751 58.192 865.551 58.192C863.903 58.192 862.607 57.672 861.663 56.632V62.656H857.919V45.088H861.495V46.576C862.423 45.456 863.775 44.896 865.551 44.896ZM864.903 55.12C865.863 55.12 866.647 54.8 867.255 54.16C867.879 53.504 868.191 52.632 868.191 51.544C868.191 50.456 867.879 49.592 867.255 48.952C866.647 48.296 865.863 47.968 864.903 47.968C863.943 47.968 863.151 48.296 862.527 48.952C861.919 49.592 861.615 50.456 861.615 51.544C861.615 52.632 861.919 53.504 862.527 54.16C863.151 54.8 863.943 55.12 864.903 55.12ZM879.487 44.896C881.487 44.896 883.023 45.376 884.095 46.336C885.167 47.28 885.703 48.712 885.703 50.632V58H882.199V56.392C881.495 57.592 880.183 58.192 878.263 58.192C877.271 58.192 876.407 58.024 875.671 57.688C874.951 57.352 874.399 56.888 874.015 56.296C873.631 55.704 873.439 55.032 873.439 54.28C873.439 53.08 873.887 52.136 874.783 51.448C875.695 50.76 877.095 50.416 878.983 50.416H881.959C881.959 49.6 881.711 48.976 881.215 48.544C880.719 48.096 879.975 47.872 878.983 47.872C878.295 47.872 877.615 47.984 876.943 48.208C876.287 48.416 875.727 48.704 875.263 49.072L873.919 46.456C874.623 45.96 875.463 45.576 876.439 45.304C877.431 45.032 878.447 44.896 879.487 44.896ZM879.199 55.672C879.839 55.672 880.407 55.528 880.903 55.24C881.399 54.936 881.751 54.496 881.959 53.92V52.6H879.391C877.855 52.6 877.087 53.104 877.087 54.112C877.087 54.592 877.271 54.976 877.639 55.264C878.023 55.536 878.543 55.672 879.199 55.672ZM893.435 58.192C892.363 58.192 891.315 58.064 890.291 57.808C889.267 57.536 888.451 57.2 887.843 56.8L889.091 54.112C889.667 54.48 890.363 54.784 891.179 55.024C891.995 55.248 892.795 55.36 893.579 55.36C895.163 55.36 895.955 54.968 895.955 54.184C895.955 53.816 895.739 53.552 895.307 53.392C894.875 53.232 894.211 53.096 893.315 52.984C892.259 52.824 891.387 52.64 890.699 52.432C890.011 52.224 889.411 51.856 888.899 51.328C888.403 50.8 888.155 50.048 888.155 49.072C888.155 48.256 888.387 47.536 888.851 46.912C889.331 46.272 890.019 45.776 890.915 45.424C891.827 45.072 892.899 44.896 894.131 44.896C895.043 44.896 895.947 45 896.843 45.208C897.755 45.4 898.507 45.672 899.099 46.024L897.851 48.688C896.715 48.048 895.475 47.728 894.131 47.728C893.331 47.728 892.731 47.84 892.331 48.064C891.931 48.288 891.731 48.576 891.731 48.928C891.731 49.328 891.947 49.608 892.379 49.768C892.811 49.928 893.499 50.08 894.443 50.224C895.499 50.4 896.363 50.592 897.035 50.8C897.707 50.992 898.291 51.352 898.787 51.88C899.283 52.408 899.531 53.144 899.531 54.088C899.531 54.888 899.291 55.6 898.811 56.224C898.331 56.848 897.627 57.336 896.699 57.688C895.787 58.024 894.699 58.192 893.435 58.192ZM892.835 63.568C892.419 63.568 892.011 63.52 891.611 63.424C891.211 63.344 890.875 63.224 890.603 63.064L891.179 61.456C891.691 61.696 892.211 61.816 892.739 61.816C893.571 61.816 893.987 61.56 893.987 61.048C893.987 60.584 893.595 60.352 892.811 60.352H891.995L892.619 57.808H894.611L894.275 59.2C894.979 59.28 895.499 59.496 895.835 59.848C896.187 60.216 896.363 60.664 896.363 61.192C896.363 61.928 896.043 62.504 895.403 62.92C894.763 63.352 893.907 63.568 892.835 63.568ZM907.049 44.896C909.049 44.896 910.585 45.376 911.657 46.336C912.729 47.28 913.265 48.712 913.265 50.632V58H909.761V56.392C909.057 57.592 907.745 58.192 905.825 58.192C904.833 58.192 903.969 58.024 903.233 57.688C902.513 57.352 901.961 56.888 901.577 56.296C901.193 55.704 901.001 55.032 901.001 54.28C901.001 53.08 901.449 52.136 902.345 51.448C903.257 50.76 904.657 50.416 906.545 50.416H909.521C909.521 49.6 909.273 48.976 908.777 48.544C908.281 48.096 907.537 47.872 906.545 47.872C905.857 47.872 905.177 47.984 904.505 48.208C903.849 48.416 903.289 48.704 902.825 49.072L901.481 46.456C902.185 45.96 903.025 45.576 904.001 45.304C904.993 45.032 906.009 44.896 907.049 44.896ZM906.761 55.672C907.401 55.672 907.969 55.528 908.465 55.24C908.961 54.936 909.313 54.496 909.521 53.92V52.6H906.953C905.417 52.6 904.649 53.104 904.649 54.112C904.649 54.592 904.833 54.976 905.201 55.264C905.585 55.536 906.105 55.672 906.761 55.672Z" fill="black"/>
<path d="M940.471 51.4L938.215 53.752V58H934.351V41.2H938.215V49.048L945.655 41.2H949.975L943.015 48.688L950.383 58H945.847L940.471 51.4ZM953.269 58.192C952.613 58.192 952.061 57.968 951.613 57.52C951.165 57.072 950.941 56.512 950.941 55.84C950.941 55.152 951.165 54.6 951.613 54.184C952.061 53.752 952.613 53.536 953.269 53.536C953.925 53.536 954.477 53.752 954.925 54.184C955.373 54.6 955.597 55.152 955.597 55.84C955.597 56.512 955.373 57.072 954.925 57.52C954.477 57.968 953.925 58.192 953.269 58.192ZM974.67 44.896C976.286 44.896 977.566 45.376 978.51 46.336C979.47 47.28 979.95 48.704 979.95 50.608V58H976.206V51.184C976.206 50.16 975.99 49.4 975.558 48.904C975.142 48.392 974.542 48.136 973.758 48.136C972.878 48.136 972.182 48.424 971.67 49C971.158 49.56 970.902 50.4 970.902 51.52V58H967.158V51.184C967.158 49.152 966.342 48.136 964.71 48.136C963.846 48.136 963.158 48.424 962.646 49C962.134 49.56 961.878 50.4 961.878 51.52V58H958.134V45.088H961.71V46.576C962.19 46.032 962.774 45.616 963.462 45.328C964.166 45.04 964.934 44.896 965.766 44.896C966.678 44.896 967.502 45.08 968.238 45.448C968.974 45.8 969.566 46.32 970.014 47.008C970.542 46.336 971.206 45.816 972.006 45.448C972.822 45.08 973.71 44.896 974.67 44.896ZM996.314 45.088V58H992.762V56.464C992.266 57.024 991.674 57.456 990.986 57.76C990.298 58.048 989.554 58.192 988.754 58.192C987.058 58.192 985.714 57.704 984.722 56.728C983.73 55.752 983.234 54.304 983.234 52.384V45.088H986.978V51.832C986.978 53.912 987.85 54.952 989.594 54.952C990.49 54.952 991.21 54.664 991.754 54.088C992.298 53.496 992.57 52.624 992.57 51.472V45.088H996.314ZM1004.13 58.192C1003.05 58.192 1002.01 58.064 1000.98 57.808C999.959 57.536 999.143 57.2 998.535 56.8L999.783 54.112C1000.36 54.48 1001.05 54.784 1001.87 55.024C1002.69 55.248 1003.49 55.36 1004.27 55.36C1005.85 55.36 1006.65 54.968 1006.65 54.184C1006.65 53.816 1006.43 53.552 1006 53.392C1005.57 53.232 1004.9 53.096 1004.01 52.984C1002.95 52.824 1002.08 52.64 1001.39 52.432C1000.7 52.224 1000.1 51.856 999.591 51.328C999.095 50.8 998.847 50.048 998.847 49.072C998.847 48.256 999.079 47.536 999.543 46.912C1000.02 46.272 1000.71 45.776 1001.61 45.424C1002.52 45.072 1003.59 44.896 1004.82 44.896C1005.73 44.896 1006.64 45 1007.53 45.208C1008.45 45.4 1009.2 45.672 1009.79 46.024L1008.54 48.688C1007.41 48.048 1006.17 47.728 1004.82 47.728C1004.02 47.728 1003.42 47.84 1003.02 48.064C1002.62 48.288 1002.42 48.576 1002.42 48.928C1002.42 49.328 1002.64 49.608 1003.07 49.768C1003.5 49.928 1004.19 50.08 1005.13 50.224C1006.19 50.4 1007.05 50.592 1007.73 50.8C1008.4 50.992 1008.98 51.352 1009.48 51.88C1009.97 52.408 1010.22 53.144 1010.22 54.088C1010.22 54.888 1009.98 55.6 1009.5 56.224C1009.02 56.848 1008.32 57.336 1007.39 57.688C1006.48 58.024 1005.39 58.192 1004.13 58.192ZM1020.86 57.376C1020.49 57.648 1020.04 57.856 1019.49 58C1018.96 58.128 1018.4 58.192 1017.81 58.192C1016.28 58.192 1015.08 57.8 1014.24 57.016C1013.4 56.232 1012.99 55.08 1012.99 53.56V48.256H1011V45.376H1012.99V42.232H1016.73V45.376H1019.95V48.256H1016.73V53.512C1016.73 54.056 1016.87 54.48 1017.14 54.784C1017.43 55.072 1017.83 55.216 1018.34 55.216C1018.93 55.216 1019.44 55.056 1019.85 54.736L1020.86 57.376ZM1028.17 44.896C1030.17 44.896 1031.71 45.376 1032.78 46.336C1033.85 47.28 1034.39 48.712 1034.39 50.632V58H1030.88V56.392C1030.18 57.592 1028.87 58.192 1026.95 58.192C1025.95 58.192 1025.09 58.024 1024.35 57.688C1023.63 57.352 1023.08 56.888 1022.7 56.296C1022.31 55.704 1022.12 55.032 1022.12 54.28C1022.12 53.08 1022.57 52.136 1023.47 51.448C1024.38 50.76 1025.78 50.416 1027.67 50.416H1030.64C1030.64 49.6 1030.39 48.976 1029.9 48.544C1029.4 48.096 1028.66 47.872 1027.67 47.872C1026.98 47.872 1026.3 47.984 1025.63 48.208C1024.97 48.416 1024.41 48.704 1023.95 49.072L1022.6 46.456C1023.31 45.96 1024.15 45.576 1025.12 45.304C1026.11 45.032 1027.13 44.896 1028.17 44.896ZM1027.88 55.672C1028.52 55.672 1029.09 55.528 1029.59 55.24C1030.08 54.936 1030.43 54.496 1030.64 53.92V52.6H1028.07C1026.54 52.6 1025.77 53.104 1025.77 54.112C1025.77 54.592 1025.95 54.976 1026.32 55.264C1026.71 55.536 1027.23 55.672 1027.88 55.672ZM1041.88 45.376H1045.19V48.256H1041.97V58H1038.23V48.256H1036.24V45.376H1038.23V44.8C1038.23 43.328 1038.66 42.16 1039.53 41.296C1040.41 40.432 1041.64 40 1043.22 40C1043.78 40 1044.31 40.064 1044.81 40.192C1045.32 40.304 1045.74 40.472 1046.08 40.696L1045.09 43.408C1044.66 43.104 1044.16 42.952 1043.58 42.952C1042.45 42.952 1041.88 43.576 1041.88 44.824V45.376ZM1052.03 44.896C1054.03 44.896 1055.57 45.376 1056.64 46.336C1057.71 47.28 1058.25 48.712 1058.25 50.632V58H1054.74V56.392C1054.04 57.592 1052.73 58.192 1050.81 58.192C1049.81 58.192 1048.95 58.024 1048.21 57.688C1047.49 57.352 1046.94 56.888 1046.56 56.296C1046.17 55.704 1045.98 55.032 1045.98 54.28C1045.98 53.08 1046.43 52.136 1047.33 51.448C1048.24 50.76 1049.64 50.416 1051.53 50.416H1054.5C1054.5 49.6 1054.25 48.976 1053.76 48.544C1053.26 48.096 1052.52 47.872 1051.53 47.872C1050.84 47.872 1050.16 47.984 1049.49 48.208C1048.83 48.416 1048.27 48.704 1047.81 49.072L1046.46 46.456C1047.17 45.96 1048.01 45.576 1048.98 45.304C1049.97 45.032 1050.99 44.896 1052.03 44.896ZM1051.74 55.672C1052.38 55.672 1052.95 55.528 1053.45 55.24C1053.94 54.936 1054.29 54.496 1054.5 53.92V52.6H1051.93C1050.4 52.6 1049.63 53.104 1049.63 54.112C1049.63 54.592 1049.81 54.976 1050.18 55.264C1050.57 55.536 1051.09 55.672 1051.74 55.672ZM1069.27 44.896C1070.47 44.896 1071.55 45.176 1072.53 45.736C1073.52 46.28 1074.3 47.056 1074.86 48.064C1075.42 49.056 1075.7 50.216 1075.7 51.544C1075.7 52.872 1075.42 54.04 1074.86 55.048C1074.3 56.04 1073.52 56.816 1072.53 57.376C1071.55 57.92 1070.47 58.192 1069.27 58.192C1067.62 58.192 1066.32 57.672 1065.38 56.632V62.656H1061.63V45.088H1065.21V46.576C1066.14 45.456 1067.49 44.896 1069.27 44.896ZM1068.62 55.12C1069.58 55.12 1070.36 54.8 1070.97 54.16C1071.59 53.504 1071.91 52.632 1071.91 51.544C1071.91 50.456 1071.59 49.592 1070.97 48.952C1070.36 48.296 1069.58 47.968 1068.62 47.968C1067.66 47.968 1066.87 48.296 1066.24 48.952C1065.63 49.592 1065.33 50.456 1065.33 51.544C1065.33 52.632 1065.63 53.504 1066.24 54.16C1066.87 54.8 1067.66 55.12 1068.62 55.12ZM1083.2 44.896C1085.2 44.896 1086.74 45.376 1087.81 46.336C1088.88 47.28 1089.42 48.712 1089.42 50.632V58H1085.91V56.392C1085.21 57.592 1083.9 58.192 1081.98 58.192C1080.99 58.192 1080.12 58.024 1079.39 57.688C1078.67 57.352 1078.11 56.888 1077.73 56.296C1077.35 55.704 1077.15 55.032 1077.15 54.28C1077.15 53.08 1077.6 52.136 1078.5 51.448C1079.41 50.76 1080.81 50.416 1082.7 50.416H1085.67C1085.67 49.6 1085.43 48.976 1084.93 48.544C1084.43 48.096 1083.69 47.872 1082.7 47.872C1082.01 47.872 1081.33 47.984 1080.66 48.208C1080 48.416 1079.44 48.704 1078.98 49.072L1077.63 46.456C1078.34 45.96 1079.18 45.576 1080.15 45.304C1081.15 45.032 1082.16 44.896 1083.2 44.896ZM1082.91 55.672C1083.55 55.672 1084.12 55.528 1084.62 55.24C1085.11 54.936 1085.47 54.496 1085.67 53.92V52.6H1083.11C1081.57 52.6 1080.8 53.104 1080.8 54.112C1080.8 54.592 1080.99 54.976 1081.35 55.264C1081.74 55.536 1082.26 55.672 1082.91 55.672ZM1097.15 58.192C1096.08 58.192 1095.03 58.064 1094.01 57.808C1092.98 57.536 1092.17 57.2 1091.56 56.8L1092.81 54.112C1093.38 54.48 1094.08 54.784 1094.89 55.024C1095.71 55.248 1096.51 55.36 1097.29 55.36C1098.88 55.36 1099.67 54.968 1099.67 54.184C1099.67 53.816 1099.45 53.552 1099.02 53.392C1098.59 53.232 1097.93 53.096 1097.03 52.984C1095.97 52.824 1095.1 52.64 1094.41 52.432C1093.73 52.224 1093.13 51.856 1092.61 51.328C1092.12 50.8 1091.87 50.048 1091.87 49.072C1091.87 48.256 1092.1 47.536 1092.57 46.912C1093.05 46.272 1093.73 45.776 1094.63 45.424C1095.54 45.072 1096.61 44.896 1097.85 44.896C1098.76 44.896 1099.66 45 1100.56 45.208C1101.47 45.4 1102.22 45.672 1102.81 46.024L1101.57 48.688C1100.43 48.048 1099.19 47.728 1097.85 47.728C1097.05 47.728 1096.45 47.84 1096.05 48.064C1095.65 48.288 1095.45 48.576 1095.45 48.928C1095.45 49.328 1095.66 49.608 1096.09 49.768C1096.53 49.928 1097.21 50.08 1098.16 50.224C1099.21 50.4 1100.08 50.592 1100.75 50.8C1101.42 50.992 1102.01 51.352 1102.5 51.88C1103 52.408 1103.25 53.144 1103.25 54.088C1103.25 54.888 1103.01 55.6 1102.53 56.224C1102.05 56.848 1101.34 57.336 1100.41 57.688C1099.5 58.024 1098.41 58.192 1097.15 58.192ZM1096.55 63.568C1096.13 63.568 1095.73 63.52 1095.33 63.424C1094.93 63.344 1094.59 63.224 1094.32 63.064L1094.89 61.456C1095.41 61.696 1095.93 61.816 1096.45 61.816C1097.29 61.816 1097.7 61.56 1097.7 61.048C1097.7 60.584 1097.31 60.352 1096.53 60.352H1095.71L1096.33 57.808H1098.33L1097.99 59.2C1098.69 59.28 1099.21 59.496 1099.55 59.848C1099.9 60.216 1100.08 60.664 1100.08 61.192C1100.08 61.928 1099.76 62.504 1099.12 62.92C1098.48 63.352 1097.62 63.568 1096.55 63.568ZM1110.76 44.896C1112.76 44.896 1114.3 45.376 1115.37 46.336C1116.44 47.28 1116.98 48.712 1116.98 50.632V58H1113.48V56.392C1112.77 57.592 1111.46 58.192 1109.54 58.192C1108.55 58.192 1107.68 58.024 1106.95 57.688C1106.23 57.352 1105.68 56.888 1105.29 56.296C1104.91 55.704 1104.72 55.032 1104.72 54.28C1104.72 53.08 1105.16 52.136 1106.06 51.448C1106.97 50.76 1108.37 50.416 1110.26 50.416H1113.24C1113.24 49.6 1112.99 48.976 1112.49 48.544C1112 48.096 1111.25 47.872 1110.26 47.872C1109.57 47.872 1108.89 47.984 1108.22 48.208C1107.56 48.416 1107 48.704 1106.54 49.072L1105.2 46.456C1105.9 45.96 1106.74 45.576 1107.72 45.304C1108.71 45.032 1109.72 44.896 1110.76 44.896ZM1110.48 55.672C1111.12 55.672 1111.68 55.528 1112.18 55.24C1112.68 54.936 1113.03 54.496 1113.24 53.92V52.6H1110.67C1109.13 52.6 1108.36 53.104 1108.36 54.112C1108.36 54.592 1108.55 54.976 1108.92 55.264C1109.3 55.536 1109.82 55.672 1110.48 55.672Z" fill="black"/>
<path d="M1163.45 52.048V58H1159.56V52L1153.06 41.2H1157.19L1161.67 48.664L1166.16 41.2H1169.98L1163.45 52.048ZM1182.56 51.592C1182.56 51.64 1182.54 51.976 1182.49 52.6H1172.72C1172.9 53.4 1173.31 54.032 1173.97 54.496C1174.62 54.96 1175.44 55.192 1176.42 55.192C1177.09 55.192 1177.68 55.096 1178.19 54.904C1178.72 54.696 1179.21 54.376 1179.66 53.944L1181.65 56.104C1180.43 57.496 1178.66 58.192 1176.32 58.192C1174.86 58.192 1173.58 57.912 1172.46 57.352C1171.34 56.776 1170.47 55.984 1169.86 54.976C1169.26 53.968 1168.95 52.824 1168.95 51.544C1168.95 50.28 1169.25 49.144 1169.84 48.136C1170.45 47.112 1171.27 46.32 1172.31 45.76C1173.37 45.184 1174.54 44.896 1175.84 44.896C1177.1 44.896 1178.25 45.168 1179.27 45.712C1180.3 46.256 1181.1 47.04 1181.67 48.064C1182.26 49.072 1182.56 50.248 1182.56 51.592ZM1175.86 47.728C1175.02 47.728 1174.3 47.968 1173.73 48.448C1173.15 48.928 1172.8 49.584 1172.67 50.416H1179.03C1178.9 49.6 1178.55 48.952 1177.98 48.472C1177.4 47.976 1176.7 47.728 1175.86 47.728ZM1198.2 40.192V58H1194.63V56.512C1193.7 57.632 1192.36 58.192 1190.6 58.192C1189.38 58.192 1188.28 57.92 1187.28 57.376C1186.31 56.832 1185.54 56.056 1184.98 55.048C1184.42 54.04 1184.14 52.872 1184.14 51.544C1184.14 50.216 1184.42 49.048 1184.98 48.04C1185.54 47.032 1186.31 46.256 1187.28 45.712C1188.28 45.168 1189.38 44.896 1190.6 44.896C1192.24 44.896 1193.53 45.416 1194.46 46.456V40.192H1198.2ZM1191.24 55.12C1192.19 55.12 1192.97 54.8 1193.6 54.16C1194.22 53.504 1194.53 52.632 1194.53 51.544C1194.53 50.456 1194.22 49.592 1193.6 48.952C1192.97 48.296 1192.19 47.968 1191.24 47.968C1190.28 47.968 1189.49 48.296 1188.87 48.952C1188.24 49.592 1187.93 50.456 1187.93 51.544C1187.93 52.632 1188.24 53.504 1188.87 54.16C1189.49 54.8 1190.28 55.12 1191.24 55.12ZM1201.67 45.088H1205.41V58H1201.67V45.088ZM1203.54 43.288C1202.85 43.288 1202.29 43.088 1201.86 42.688C1201.43 42.288 1201.21 41.792 1201.21 41.2C1201.21 40.608 1201.43 40.112 1201.86 39.712C1202.29 39.312 1202.85 39.112 1203.54 39.112C1204.23 39.112 1204.79 39.304 1205.22 39.688C1205.65 40.072 1205.87 40.552 1205.87 41.128C1205.87 41.752 1205.65 42.272 1205.22 42.688C1204.79 43.088 1204.23 43.288 1203.54 43.288ZM1214.43 52.936L1212.63 54.712V58H1208.89V40.192H1212.63V50.272L1218.1 45.088H1222.57L1217.19 50.56L1223.05 58H1218.51L1214.43 52.936ZM1237.51 45.088V58H1233.95V56.464C1233.46 57.024 1232.87 57.456 1232.18 57.76C1231.49 58.048 1230.75 58.192 1229.95 58.192C1228.25 58.192 1226.91 57.704 1225.91 56.728C1224.92 55.752 1224.43 54.304 1224.43 52.384V45.088H1228.17V51.832C1228.17 53.912 1229.04 54.952 1230.79 54.952C1231.68 54.952 1232.4 54.664 1232.95 54.088C1233.49 53.496 1233.76 52.624 1233.76 51.472V45.088H1237.51ZM1240.97 40.192H1244.72V58H1240.97V40.192ZM1260.84 51.592C1260.84 51.64 1260.82 51.976 1260.77 52.6H1251C1251.18 53.4 1251.59 54.032 1252.25 54.496C1252.9 54.96 1253.72 55.192 1254.7 55.192C1255.37 55.192 1255.96 55.096 1256.47 54.904C1257 54.696 1257.49 54.376 1257.94 53.944L1259.93 56.104C1258.71 57.496 1256.94 58.192 1254.6 58.192C1253.14 58.192 1251.86 57.912 1250.74 57.352C1249.62 56.776 1248.75 55.984 1248.14 54.976C1247.54 53.968 1247.23 52.824 1247.23 51.544C1247.23 50.28 1247.53 49.144 1248.12 48.136C1248.73 47.112 1249.55 46.32 1250.59 45.76C1251.65 45.184 1252.82 44.896 1254.12 44.896C1255.38 44.896 1256.53 45.168 1257.55 45.712C1258.58 46.256 1259.38 47.04 1259.95 48.064C1260.54 49.072 1260.84 50.248 1260.84 51.592ZM1254.14 47.728C1253.3 47.728 1252.58 47.968 1252.01 48.448C1251.43 48.928 1251.08 49.584 1250.95 50.416H1257.31C1257.18 49.6 1256.83 48.952 1256.26 48.472C1255.68 47.976 1254.98 47.728 1254.14 47.728Z" fill="black"/>
<path d="M1329.55 51.4L1327.29 53.752V58H1323.43V41.2H1327.29V49.048L1334.73 41.2H1339.05L1332.09 48.688L1339.46 58H1334.93L1329.55 51.4ZM1345.86 44.896C1347.86 44.896 1349.39 45.376 1350.47 46.336C1351.54 47.28 1352.07 48.712 1352.07 50.632V58H1348.57V56.392C1347.87 57.592 1346.55 58.192 1344.63 58.192C1343.64 58.192 1342.78 58.024 1342.04 57.688C1341.32 57.352 1340.77 56.888 1340.39 56.296C1340 55.704 1339.81 55.032 1339.81 54.28C1339.81 53.08 1340.26 52.136 1341.15 51.448C1342.07 50.76 1343.47 50.416 1345.35 50.416H1348.33C1348.33 49.6 1348.08 48.976 1347.59 48.544C1347.09 48.096 1346.35 47.872 1345.35 47.872C1344.67 47.872 1343.99 47.984 1343.31 48.208C1342.66 48.416 1342.1 48.704 1341.63 49.072L1340.29 46.456C1340.99 45.96 1341.83 45.576 1342.81 45.304C1343.8 45.032 1344.82 44.896 1345.86 44.896ZM1345.57 55.672C1346.21 55.672 1346.78 55.528 1347.27 55.24C1347.77 54.936 1348.12 54.496 1348.33 53.92V52.6H1345.76C1344.23 52.6 1343.46 53.104 1343.46 54.112C1343.46 54.592 1343.64 54.976 1344.01 55.264C1344.39 55.536 1344.91 55.672 1345.57 55.672ZM1366.09 55.12V58H1354.57V55.744L1361.15 47.968H1354.74V45.088H1365.88V47.344L1359.3 55.12H1366.09ZM1368.49 40.192H1372.24V58H1368.49V40.192ZM1375.71 45.088H1379.46V58H1375.71V45.088ZM1389.17 58.192C1387.8 58.192 1386.56 57.912 1385.45 57.352C1384.36 56.776 1383.51 55.984 1382.88 54.976C1382.28 53.968 1381.97 52.824 1381.97 51.544C1381.97 50.264 1382.28 49.12 1382.88 48.112C1383.51 47.104 1384.36 46.32 1385.45 45.76C1386.56 45.184 1387.8 44.896 1389.17 44.896C1390.53 44.896 1391.72 45.184 1392.72 45.76C1393.75 46.32 1394.49 47.128 1394.96 48.184L1392.05 49.744C1391.38 48.56 1390.41 47.968 1389.15 47.968C1388.17 47.968 1387.36 48.288 1386.72 48.928C1386.08 49.568 1385.76 50.44 1385.76 51.544C1385.76 52.648 1386.08 53.52 1386.72 54.16C1387.36 54.8 1388.17 55.12 1389.15 55.12C1390.43 55.12 1391.4 54.528 1392.05 53.344L1394.96 54.928C1394.49 55.952 1393.75 56.752 1392.72 57.328C1391.72 57.904 1390.53 58.192 1389.17 58.192ZM1387.8 63.568C1387.39 63.568 1386.98 63.52 1386.58 63.424C1386.18 63.344 1385.84 63.224 1385.57 63.064L1386.15 61.456C1386.66 61.696 1387.18 61.816 1387.71 61.816C1388.54 61.816 1388.96 61.56 1388.96 61.048C1388.96 60.584 1388.56 60.352 1387.78 60.352H1386.96L1387.59 57.808H1389.58L1389.24 59.2C1389.95 59.28 1390.47 59.496 1390.8 59.848C1391.16 60.216 1391.33 60.664 1391.33 61.192C1391.33 61.928 1391.01 62.504 1390.37 62.92C1389.73 63.352 1388.88 63.568 1387.8 63.568ZM1409.59 51.592C1409.59 51.64 1409.57 51.976 1409.52 52.6H1399.75C1399.93 53.4 1400.35 54.032 1401 54.496C1401.66 54.96 1402.47 55.192 1403.45 55.192C1404.12 55.192 1404.71 55.096 1405.23 54.904C1405.75 54.696 1406.24 54.376 1406.69 53.944L1408.68 56.104C1407.47 57.496 1405.69 58.192 1403.35 58.192C1401.9 58.192 1400.61 57.912 1399.49 57.352C1398.37 56.776 1397.51 55.984 1396.9 54.976C1396.29 53.968 1395.99 52.824 1395.99 51.544C1395.99 50.28 1396.28 49.144 1396.87 48.136C1397.48 47.112 1398.31 46.32 1399.35 45.76C1400.4 45.184 1401.58 44.896 1402.87 44.896C1404.14 44.896 1405.28 45.168 1406.31 45.712C1407.33 46.256 1408.13 47.04 1408.71 48.064C1409.3 49.072 1409.59 50.248 1409.59 51.592ZM1402.9 47.728C1402.05 47.728 1401.34 47.968 1400.76 48.448C1400.19 48.928 1399.83 49.584 1399.71 50.416H1406.07C1405.94 49.6 1405.59 48.952 1405.01 48.472C1404.43 47.976 1403.73 47.728 1402.9 47.728ZM1416.43 58.192C1415.36 58.192 1414.31 58.064 1413.29 57.808C1412.26 57.536 1411.45 57.2 1410.84 56.8L1412.09 54.112C1412.66 54.48 1413.36 54.784 1414.18 55.024C1414.99 55.248 1415.79 55.36 1416.58 55.36C1418.16 55.36 1418.95 54.968 1418.95 54.184C1418.95 53.816 1418.74 53.552 1418.3 53.392C1417.87 53.232 1417.21 53.096 1416.31 52.984C1415.26 52.824 1414.38 52.64 1413.7 52.432C1413.01 52.224 1412.41 51.856 1411.9 51.328C1411.4 50.8 1411.15 50.048 1411.15 49.072C1411.15 48.256 1411.38 47.536 1411.85 46.912C1412.33 46.272 1413.02 45.776 1413.91 45.424C1414.82 45.072 1415.9 44.896 1417.13 44.896C1418.04 44.896 1418.94 45 1419.84 45.208C1420.75 45.4 1421.5 45.672 1422.1 46.024L1420.85 48.688C1419.71 48.048 1418.47 47.728 1417.13 47.728C1416.33 47.728 1415.73 47.84 1415.33 48.064C1414.93 48.288 1414.73 48.576 1414.73 48.928C1414.73 49.328 1414.94 49.608 1415.38 49.768C1415.81 49.928 1416.5 50.08 1417.44 50.224C1418.5 50.4 1419.36 50.592 1420.03 50.8C1420.7 50.992 1421.29 51.352 1421.78 51.88C1422.28 52.408 1422.53 53.144 1422.53 54.088C1422.53 54.888 1422.29 55.6 1421.81 56.224C1421.33 56.848 1420.62 57.336 1419.7 57.688C1418.78 58.024 1417.7 58.192 1416.43 58.192ZM1415.83 63.568C1415.42 63.568 1415.01 63.52 1414.61 63.424C1414.21 63.344 1413.87 63.224 1413.6 63.064L1414.18 61.456C1414.69 61.696 1415.21 61.816 1415.74 61.816C1416.57 61.816 1416.98 61.56 1416.98 61.048C1416.98 60.584 1416.59 60.352 1415.81 60.352H1414.99L1415.62 57.808H1417.61L1417.27 59.2C1417.98 59.28 1418.5 59.496 1418.83 59.848C1419.18 60.216 1419.36 60.664 1419.36 61.192C1419.36 61.928 1419.04 62.504 1418.4 62.92C1417.76 63.352 1416.9 63.568 1415.83 63.568ZM1441.37 44.896C1442.99 44.896 1444.27 45.376 1445.21 46.336C1446.17 47.28 1446.65 48.704 1446.65 50.608V58H1442.91V51.184C1442.91 50.16 1442.69 49.4 1442.26 48.904C1441.85 48.392 1441.25 48.136 1440.46 48.136C1439.58 48.136 1438.89 48.424 1438.37 49C1437.86 49.56 1437.61 50.4 1437.61 51.52V58H1433.86V51.184C1433.86 49.152 1433.05 48.136 1431.41 48.136C1430.55 48.136 1429.86 48.424 1429.35 49C1428.84 49.56 1428.58 50.4 1428.58 51.52V58H1424.84V45.088H1428.41V46.576C1428.89 46.032 1429.48 45.616 1430.17 45.328C1430.87 45.04 1431.64 44.896 1432.47 44.896C1433.38 44.896 1434.21 45.08 1434.94 45.448C1435.68 45.8 1436.27 46.32 1436.72 47.008C1437.25 46.336 1437.91 45.816 1438.71 45.448C1439.53 45.08 1440.41 44.896 1441.37 44.896ZM1462.8 51.592C1462.8 51.64 1462.77 51.976 1462.73 52.6H1452.96C1453.13 53.4 1453.55 54.032 1454.21 54.496C1454.86 54.96 1455.68 55.192 1456.65 55.192C1457.33 55.192 1457.92 55.096 1458.43 54.904C1458.96 54.696 1459.45 54.376 1459.89 53.944L1461.89 56.104C1460.67 57.496 1458.89 58.192 1456.56 58.192C1455.1 58.192 1453.81 57.912 1452.69 57.352C1451.57 56.776 1450.71 55.984 1450.1 54.976C1449.49 53.968 1449.19 52.824 1449.19 51.544C1449.19 50.28 1449.49 49.144 1450.08 48.136C1450.69 47.112 1451.51 46.32 1452.55 45.76C1453.61 45.184 1454.78 44.896 1456.08 44.896C1457.34 44.896 1458.49 45.168 1459.51 45.712C1460.53 46.256 1461.33 47.04 1461.91 48.064C1462.5 49.072 1462.8 50.248 1462.8 51.592ZM1456.1 47.728C1455.25 47.728 1454.54 47.968 1453.97 48.448C1453.39 48.928 1453.04 49.584 1452.91 50.416H1459.27C1459.14 49.6 1458.79 48.952 1458.21 48.472C1457.64 47.976 1456.93 47.728 1456.1 47.728Z" fill="black"/>
<rect x="655" y="123" width="6" height="22" fill="black"/>
<rect x="1389" y="123" width="6" height="22" fill="black"/>
<rect x="97" y="123" width="6" height="20" fill="black"/>
<g clip-path="url(#clip1_494_4670)">
<path d="M103 161.001C103 157.441 104.056 153.961 106.034 151.001C108.011 148.041 110.823 145.734 114.112 144.371C117.401 143.009 121.02 142.652 124.512 143.347C128.003 144.041 131.211 145.756 133.728 148.273C136.245 150.79 137.96 153.998 138.654 157.489C139.349 160.981 138.992 164.6 137.63 167.889C136.267 171.178 133.96 173.99 131 175.967C128.04 177.945 124.56 179.001 121 179.001C118.665 179.03 116.348 178.6 114.18 177.733C112.012 176.867 110.035 175.582 108.364 173.952C106.692 172.322 105.358 170.378 104.438 168.232C103.518 166.087 103.029 163.781 103 161.446V161.001Z" fill="#65656A"/>
<path d="M111.373 167.674V154.306H116.045C118.775 154.306 120.353 155.479 120.353 157.724C120.362 158.466 120.093 159.184 119.599 159.738C119.105 160.292 118.421 160.641 117.683 160.717C118.492 160.727 119.265 161.052 119.838 161.622C120.412 162.192 120.742 162.962 120.757 163.771C120.757 166.4 118.876 167.634 115.984 167.634L111.373 167.674ZM115.135 159.706C116.894 159.706 117.703 159.139 117.703 158.088C117.703 157.036 117.157 156.409 115.276 156.409H114.043V159.706H115.135ZM115.357 165.571C117.097 165.571 118.088 164.964 118.088 163.71C118.088 162.456 117.198 161.688 115.418 161.688H114.043V165.551L115.357 165.571Z" fill="white"/>
<path d="M126.643 167.675V157.36L124.378 159.181L123.043 157.421L126.946 154.286H129.292V167.675H126.643Z" fill="white"/>
</g>
<g clip-path="url(#clip2_494_4670)">
<path d="M658 179.025C654.431 179.032 650.941 177.981 647.971 176.006C645 174.031 642.683 171.221 641.313 167.93C639.942 164.639 639.58 161.016 640.272 157.52C640.964 154.024 642.679 150.811 645.2 148.288C647.72 145.766 650.934 144.047 654.433 143.349C657.933 142.651 661.561 143.005 664.858 144.368C668.156 145.73 670.975 148.039 672.958 151.002C674.941 153.965 676 157.448 676 161.012C676 165.784 674.105 170.36 670.73 173.737C667.355 177.114 662.777 179.016 658 179.025Z" fill="#009845"/>
<path d="M646.207 155.269H649.949L652.725 164.11H652.76L655.535 155.269H659.277V166.932H657.038V157.305H657.003L653.862 166.932H651.623L648.481 157.305L648.446 157.34V166.932H646.207V155.269Z" fill="white"/>
<path d="M661.326 166.932V164.975C662.413 163.925 666.371 160.612 666.371 158.471C666.371 157.4 665.419 156.9 664.467 156.9C663.499 156.948 662.566 157.273 661.777 157.835L661.592 155.899C662.664 155.358 663.847 155.074 665.048 155.068C667.273 155.068 668.711 156.184 668.711 158.476C668.711 160.977 666.206 163.224 664.312 165.095H669.076V166.932H661.326Z" fill="white"/>
</g>
<g clip-path="url(#clip3_494_4670)">
<path d="M78.9979 179C75.4325 179.004 71.946 177.952 68.9796 175.976C66.0131 174.001 63.7 171.191 62.3328 167.902C60.9656 164.614 60.6058 160.994 61.2989 157.501C61.9921 154.008 63.707 150.799 66.2267 148.279C68.7464 145.76 71.9577 144.044 75.4543 143.347C78.9509 142.651 82.5757 143.006 85.8701 144.368C89.1645 145.73 91.9804 148.037 93.9617 150.998C95.9429 153.958 97.0004 157.439 97.0004 161C96.9978 165.77 95.1009 170.343 91.7259 173.718C88.3509 177.092 83.7735 178.992 78.9979 179Z" fill="#004987"/>
<path d="M73.3238 156.783H69.7969V154.846H79.3247V156.783H75.7927V167.154H73.3238V156.783Z" fill="white"/>
<path d="M84.4638 154.846H86.6506V167.154H84.1817V157.649L82.0958 159.344L80.8613 157.739L84.4638 154.846Z" fill="white"/>
</g>
<g clip-path="url(#clip4_494_4670)">
<path d="M616 179C606.09 179 598 170.91 598 161C598 151.09 606.09 143 616 143C625.91 143 634 151.09 634 161C634 170.91 625.91 179 616 179Z" fill="#EE2229"/>
<path d="M604.674 154.73H608.719L611.752 164.236L614.584 154.73H618.831V167.27H616.202V156.955L612.764 167.27H610.539L607.101 156.955V167.27H604.674V154.73Z" fill="white"/>
<path d="M625.101 154.73H627.326V167.27H624.899V157.764L622.877 159.382L621.461 157.764L625.101 154.73Z" fill="white"/>
</g>
<g clip-path="url(#clip5_494_4670)">
<path d="M682 161C682 157.44 683.056 153.96 685.034 151C687.011 148.04 689.823 145.733 693.112 144.37C696.401 143.008 700.02 142.651 703.512 143.346C707.003 144.04 710.211 145.755 712.728 148.272C715.245 150.789 716.96 153.997 717.654 157.488C718.349 160.98 717.992 164.599 716.63 167.888C715.267 171.177 712.96 173.989 710 175.966C707.04 177.944 703.56 179 700 179C697.665 179.029 695.348 178.599 693.18 177.732C691.012 176.866 689.035 175.581 687.364 173.951C685.692 172.321 684.358 170.377 683.438 168.231C682.518 166.086 682.029 163.78 682 161.445V161Z" fill="#65656A"/>
<path d="M690.373 167.673V154.305H695.045C697.775 154.305 699.353 155.478 699.353 157.723C699.362 158.465 699.093 159.183 698.599 159.737C698.105 160.291 697.421 160.64 696.683 160.716C697.492 160.726 698.265 161.051 698.838 161.621C699.412 162.191 699.742 162.961 699.757 163.77C699.757 166.399 697.876 167.633 694.984 167.633L690.373 167.673ZM694.135 159.705C695.894 159.705 696.703 159.138 696.703 158.087C696.703 157.035 696.157 156.408 694.276 156.408H693.043V159.705H694.135ZM694.357 165.57C696.097 165.57 697.088 164.963 697.088 163.709C697.088 162.455 696.198 161.687 694.418 161.687H693.043V165.55L694.357 165.57Z" fill="white"/>
<path d="M705.643 167.674V157.359L703.378 159.18L702.043 157.42L705.946 154.285H708.292V167.674H705.643Z" fill="white"/>
</g>
<g clip-path="url(#clip6_494_4670)">
<path d="M1374 161C1374 157.44 1375.06 153.96 1377.03 151C1379.01 148.04 1381.82 145.733 1385.11 144.37C1388.4 143.008 1392.02 142.651 1395.51 143.346C1399 144.04 1402.21 145.755 1404.73 148.272C1407.25 150.789 1408.96 153.997 1409.65 157.488C1410.35 160.98 1409.99 164.599 1408.63 167.888C1407.27 171.177 1404.96 173.989 1402 175.966C1399.04 177.944 1395.56 179 1392 179C1389.67 179.029 1387.35 178.599 1385.18 177.732C1383.01 176.866 1381.04 175.581 1379.36 173.951C1377.69 172.321 1376.36 170.377 1375.44 168.231C1374.52 166.086 1374.03 163.78 1374 161.445V161Z" fill="#65656A"/>
<path d="M1382.37 167.673V154.305H1387.04C1389.78 154.305 1391.35 155.478 1391.35 157.723C1391.36 158.465 1391.09 159.183 1390.6 159.737C1390.1 160.291 1389.42 160.64 1388.68 160.716C1389.49 160.726 1390.26 161.051 1390.84 161.621C1391.41 162.191 1391.74 162.961 1391.76 163.77C1391.76 166.399 1389.88 167.633 1386.98 167.633L1382.37 167.673ZM1386.13 159.705C1387.89 159.705 1388.7 159.138 1388.7 158.087C1388.7 157.035 1388.16 156.408 1386.28 156.408H1385.04V159.705H1386.13ZM1386.36 165.57C1388.1 165.57 1389.09 164.963 1389.09 163.709C1389.09 162.455 1388.2 161.687 1386.42 161.687H1385.04V165.55L1386.36 165.57Z" fill="white"/>
<path d="M1397.64 167.674V157.359L1395.38 159.18L1394.04 157.42L1397.95 154.285H1400.29V167.674H1397.64Z" fill="white"/>
</g>
</g>
<defs>
<clipPath id="clip0_494_4670">
<rect width="1492" height="200" fill="white"/>
</clipPath>
<clipPath id="clip1_494_4670">
<rect width="36" height="36" fill="white" transform="translate(103 143)"/>
</clipPath>
<clipPath id="clip2_494_4670">
<rect width="36" height="36" fill="white" transform="translate(640 143)"/>
</clipPath>
<clipPath id="clip3_494_4670">
<rect width="36" height="36" fill="white" transform="translate(61 143)"/>
</clipPath>
<clipPath id="clip4_494_4670">
<rect width="36" height="36" fill="white" transform="translate(598 143)"/>
</clipPath>
<clipPath id="clip5_494_4670">
<rect width="36" height="36" fill="white" transform="translate(682 143)"/>
</clipPath>
<clipPath id="clip6_494_4670">
<rect width="36" height="36" fill="white" transform="translate(1374 143)"/>
</clipPath>
</defs>
</svg>
