<svg width="943" height="200" viewBox="0 0 943 200" fill="none" xmlns="http://www.w3.org/2000/svg">
<path d="M100 100H837" stroke="#65BAAF" stroke-width="20"/>
<circle cx="100" cy="100" r="24" fill="black"/>
<ellipse cx="100.001" cy="99.9939" rx="19.2" ry="19.2" fill="white"/>
<circle cx="843" cy="100" r="24" fill="#65BAAF"/>
<path d="M83.3125 54.88V58H70.3045V41.2H83.0005V44.32H74.1685V47.968H81.9685V50.992H74.1685V54.88H83.3125ZM98.8409 45.088L93.0089 58.792C92.4169 60.28 91.6809 61.328 90.8009 61.936C89.9369 62.544 88.8889 62.848 87.6569 62.848C86.9849 62.848 86.3209 62.744 85.6649 62.536C85.0089 62.328 84.4729 62.04 84.0569 61.672L85.4249 59.008C85.7129 59.264 86.0409 59.464 86.4089 59.608C86.7929 59.752 87.1689 59.824 87.5369 59.824C88.0489 59.824 88.4649 59.696 88.7849 59.44C89.1049 59.2 89.3929 58.792 89.6489 58.216L89.6969 58.096L84.1049 45.088H87.9689L91.5929 53.848L95.2409 45.088H98.8409ZM113.377 45.088V58H109.825V56.464C109.329 57.024 108.737 57.456 108.049 57.76C107.361 58.048 106.617 58.192 105.817 58.192C104.121 58.192 102.777 57.704 101.785 56.728C100.793 55.752 100.297 54.304 100.297 52.384V45.088H104.041V51.832C104.041 53.912 104.913 54.952 106.657 54.952C107.553 54.952 108.273 54.664 108.817 54.088C109.361 53.496 109.633 52.624 109.633 51.472V45.088H113.377ZM104.401 43.312C103.921 43.312 103.521 43.16 103.201 42.856C102.881 42.536 102.721 42.136 102.721 41.656C102.721 41.176 102.881 40.784 103.201 40.48C103.521 40.16 103.921 40 104.401 40C104.881 40 105.273 40.16 105.577 40.48C105.897 40.784 106.057 41.176 106.057 41.656C106.057 42.136 105.897 42.536 105.577 42.856C105.273 43.16 104.881 43.312 104.401 43.312ZM109.249 43.312C108.769 43.312 108.369 43.16 108.049 42.856C107.745 42.536 107.593 42.136 107.593 41.656C107.593 41.176 107.745 40.784 108.049 40.48C108.369 40.16 108.769 40 109.249 40C109.729 40 110.129 40.16 110.449 40.48C110.769 40.784 110.929 41.176 110.929 41.656C110.929 42.136 110.769 42.536 110.449 42.856C110.129 43.16 109.729 43.312 109.249 43.312ZM124.477 44.896C125.677 44.896 126.765 45.176 127.741 45.736C128.733 46.28 129.509 47.056 130.069 48.064C130.629 49.056 130.909 50.216 130.909 51.544C130.909 52.872 130.629 54.04 130.069 55.048C129.509 56.04 128.733 56.816 127.741 57.376C126.765 57.92 125.677 58.192 124.477 58.192C122.829 58.192 121.533 57.672 120.589 56.632V62.656H116.845V45.088H120.421V46.576C121.349 45.456 122.701 44.896 124.477 44.896ZM123.829 55.12C124.789 55.12 125.573 54.8 126.181 54.16C126.805 53.504 127.117 52.632 127.117 51.544C127.117 50.456 126.805 49.592 126.181 48.952C125.573 48.296 124.789 47.968 123.829 47.968C122.869 47.968 122.077 48.296 121.453 48.952C120.845 49.592 120.541 50.456 120.541 51.544C120.541 52.632 120.845 53.504 121.453 54.16C122.077 54.8 122.869 55.12 123.829 55.12Z" fill="black"/>
<path d="M793.467 41.2C794.955 41.2 796.243 41.448 797.331 41.944C798.435 42.44 799.283 43.144 799.875 44.056C800.467 44.968 800.763 46.048 800.763 47.296C800.763 48.528 800.467 49.608 799.875 50.536C799.283 51.448 798.435 52.152 797.331 52.648C796.243 53.128 794.955 53.368 793.467 53.368H790.083V58H786.195V41.2H793.467ZM793.251 50.2C794.419 50.2 795.307 49.952 795.915 49.456C796.523 48.944 796.827 48.224 796.827 47.296C796.827 46.352 796.523 45.632 795.915 45.136C795.307 44.624 794.419 44.368 793.251 44.368H790.083V50.2H793.251ZM803.275 45.088H807.019V58H803.275V45.088ZM805.147 43.288C804.459 43.288 803.899 43.088 803.467 42.688C803.035 42.288 802.819 41.792 802.819 41.2C802.819 40.608 803.035 40.112 803.467 39.712C803.899 39.312 804.459 39.112 805.147 39.112C805.835 39.112 806.395 39.304 806.827 39.688C807.259 40.072 807.475 40.552 807.475 41.128C807.475 41.752 807.259 42.272 806.827 42.688C806.395 43.088 805.835 43.288 805.147 43.288ZM823.31 45.088L817.478 58.792C816.886 60.28 816.15 61.328 815.27 61.936C814.406 62.544 813.358 62.848 812.126 62.848C811.454 62.848 810.79 62.744 810.134 62.536C809.478 62.328 808.942 62.04 808.526 61.672L809.894 59.008C810.182 59.264 810.51 59.464 810.878 59.608C811.262 59.752 811.638 59.824 812.006 59.824C812.518 59.824 812.934 59.696 813.254 59.44C813.574 59.2 813.862 58.792 814.118 58.216L814.166 58.096L808.574 45.088H812.438L816.062 53.848L819.71 45.088H823.31ZM837.134 51.592C837.134 51.64 837.11 51.976 837.062 52.6H827.294C827.47 53.4 827.886 54.032 828.542 54.496C829.198 54.96 830.014 55.192 830.99 55.192C831.662 55.192 832.254 55.096 832.766 54.904C833.294 54.696 833.782 54.376 834.23 53.944L836.222 56.104C835.006 57.496 833.23 58.192 830.894 58.192C829.438 58.192 828.15 57.912 827.03 57.352C825.91 56.776 825.046 55.984 824.438 54.976C823.83 53.968 823.526 52.824 823.526 51.544C823.526 50.28 823.822 49.144 824.414 48.136C825.022 47.112 825.846 46.32 826.886 45.76C827.942 45.184 829.118 44.896 830.414 44.896C831.678 44.896 832.822 45.168 833.846 45.712C834.87 46.256 835.67 47.04 836.246 48.064C836.838 49.072 837.134 50.248 837.134 51.592ZM830.438 47.728C829.59 47.728 828.878 47.968 828.302 48.448C827.726 48.928 827.374 49.584 827.246 50.416H833.606C833.478 49.6 833.126 48.952 832.55 48.472C831.974 47.976 831.27 47.728 830.438 47.728ZM843.202 46.792C843.65 46.168 844.25 45.696 845.002 45.376C845.77 45.056 846.65 44.896 847.642 44.896V48.352C847.226 48.32 846.946 48.304 846.802 48.304C845.73 48.304 844.89 48.608 844.282 49.216C843.674 49.808 843.37 50.704 843.37 51.904V58H839.626V45.088H843.202V46.792ZM857.023 41.2H860.911V54.832H869.335V58H857.023V41.2ZM877.294 58.192C875.934 58.192 874.71 57.912 873.622 57.352C872.55 56.776 871.71 55.984 871.102 54.976C870.494 53.968 870.19 52.824 870.19 51.544C870.19 50.264 870.494 49.12 871.102 48.112C871.71 47.104 872.55 46.32 873.622 45.76C874.71 45.184 875.934 44.896 877.294 44.896C878.654 44.896 879.87 45.184 880.942 45.76C882.014 46.32 882.854 47.104 883.462 48.112C884.07 49.12 884.374 50.264 884.374 51.544C884.374 52.824 884.07 53.968 883.462 54.976C882.854 55.984 882.014 56.776 880.942 57.352C879.87 57.912 878.654 58.192 877.294 58.192ZM877.294 55.12C878.254 55.12 879.038 54.8 879.646 54.16C880.27 53.504 880.582 52.632 880.582 51.544C880.582 50.456 880.27 49.592 879.646 48.952C879.038 48.296 878.254 47.968 877.294 47.968C876.334 47.968 875.542 48.296 874.918 48.952C874.294 49.592 873.982 50.456 873.982 51.544C873.982 52.632 874.294 53.504 874.918 54.16C875.542 54.8 876.334 55.12 877.294 55.12ZM895.204 57.376C894.836 57.648 894.38 57.856 893.836 58C893.308 58.128 892.748 58.192 892.156 58.192C890.62 58.192 889.428 57.8 888.58 57.016C887.748 56.232 887.332 55.08 887.332 53.56V48.256H885.34V45.376H887.332V42.232H891.076V45.376H894.292V48.256H891.076V53.512C891.076 54.056 891.212 54.48 891.484 54.784C891.772 55.072 892.172 55.216 892.684 55.216C893.276 55.216 893.78 55.056 894.196 54.736L895.204 57.376ZM897.306 45.088H901.05V58H897.306V45.088ZM899.178 43.288C898.49 43.288 897.93 43.088 897.498 42.688C897.066 42.288 896.85 41.792 896.85 41.2C896.85 40.608 897.066 40.112 897.498 39.712C897.93 39.312 898.49 39.112 899.178 39.112C899.866 39.112 900.426 39.304 900.858 39.688C901.29 40.072 901.506 40.552 901.506 41.128C901.506 41.752 901.29 42.272 900.858 42.688C900.426 43.088 899.866 43.288 899.178 43.288Z" fill="black"/>
<rect x="97" y="123" width="6" height="21" fill="black"/>
<g clip-path="url(#clip0_494_3965)">
<path d="M82 161C82 157.44 83.0557 153.96 85.0336 151C87.0114 148.04 89.8226 145.733 93.1117 144.37C96.4008 143.008 100.02 142.651 103.512 143.346C107.003 144.04 110.211 145.755 112.728 148.272C115.245 150.789 116.96 153.997 117.654 157.488C118.349 160.98 117.992 164.599 116.63 167.888C115.267 171.177 112.96 173.989 110 175.966C107.04 177.944 103.56 179 100 179C97.6355 179.003 95.2936 178.539 93.1086 177.635C90.9235 176.732 88.9381 175.406 87.2662 173.734C85.5942 172.062 84.2684 170.077 83.3648 167.891C82.4611 165.706 81.9974 163.365 82 161Z" fill="#7C72B3"/>
<path d="M93.6904 156.288H89.8477V154.164H100.243V156.288H96.3802V167.593H93.6904V156.288Z" fill="white"/>
<path d="M109.829 156.167H104.651V159.039C105.056 158.948 105.47 158.901 105.885 158.897C106.459 158.864 107.034 158.954 107.571 159.16C108.108 159.367 108.594 159.686 108.998 160.095C109.402 160.505 109.714 160.996 109.913 161.536C110.112 162.075 110.194 162.651 110.152 163.225C110.153 163.884 110.012 164.535 109.739 165.135C109.467 165.734 109.069 166.269 108.573 166.702C108.077 167.135 107.493 167.457 106.862 167.645C106.231 167.834 105.567 167.885 104.914 167.796C103.859 167.776 102.808 167.648 101.779 167.412V165.005C102.641 165.412 103.577 165.639 104.53 165.672C105.925 165.672 107.402 165.025 107.402 163.306C107.402 161.587 105.844 160.98 104.307 160.98C103.491 160.979 102.68 161.102 101.901 161.344L102.042 154.124H109.768L109.829 156.167Z" fill="white"/>
</g>
<defs>
<clipPath id="clip0_494_3965">
<rect width="36" height="36" fill="white" transform="translate(82 143)"/>
</clipPath>
</defs>
</svg>
