<svg width="2420" height="200" viewBox="0 0 2420 200" fill="none" xmlns="http://www.w3.org/2000/svg">
<g clip-path="url(#clip0_492_2163)">
<path d="M100 100H2320" stroke="#447ABE" stroke-width="20"/>
<circle cx="1025" cy="100" r="21" fill="#447ABE"/>
<circle cx="1025" cy="100" r="13" fill="white"/>
<circle cx="843" cy="100" r="21" fill="#447ABE"/>
<circle cx="843" cy="100" r="13" fill="white"/>
<circle cx="1207" cy="100" r="21" fill="#447ABE"/>
<circle cx="1207" cy="100" r="13" fill="white"/>
<circle cx="1392" cy="100" r="21" fill="#447ABE"/>
<circle cx="1392" cy="100" r="13" fill="white"/>
<circle cx="1577" cy="100" r="21" fill="#447ABE"/>
<circle cx="1577" cy="100" r="13" fill="white"/>
<circle cx="1762" cy="100" r="21" fill="#447ABE"/>
<circle cx="1762" cy="100" r="13" fill="white"/>
<circle cx="2132" cy="100" r="21" fill="#447ABE"/>
<circle cx="2132" cy="100" r="13" fill="white"/>
<circle cx="288" cy="100" r="21" fill="#447ABE"/>
<circle cx="288" cy="100" r="13" fill="white"/>
<circle cx="658" cy="100" r="21" fill="#447ABE"/>
<circle cx="658" cy="100" r="13" fill="white"/>
<circle cx="1944" cy="100" r="21" fill="#447ABE"/>
<circle cx="1944" cy="100" r="13" fill="white"/>
<circle cx="100" cy="100" r="24" fill="black"/>
<ellipse cx="100.001" cy="99.9939" rx="19.2" ry="19.2" fill="white"/>
<circle cx="473" cy="100" r="24" fill="black"/>
<ellipse cx="473.001" cy="99.9939" rx="19.2" ry="19.2" fill="white"/>
<circle cx="288" cy="100" r="24" fill="black"/>
<ellipse cx="288.001" cy="99.9939" rx="19.2" ry="19.2" fill="white"/>
<circle cx="658" cy="100" r="24" fill="black"/>
<ellipse cx="658.001" cy="99.9939" rx="19.2" ry="19.2" fill="white"/>
<circle cx="1392" cy="100" r="24" fill="black"/>
<ellipse cx="1392" cy="99.9939" rx="19.2" ry="19.2" fill="white"/>
<path d="M59.7264 49.264C60.6864 49.568 61.4384 50.08 61.9824 50.8C62.5264 51.504 62.7984 52.376 62.7984 53.416C62.7984 54.888 62.2224 56.024 61.0704 56.824C59.9344 57.608 58.2704 58 56.0784 58H47.3904V41.2H55.5984C57.6464 41.2 59.2144 41.592 60.3024 42.376C61.4064 43.16 61.9584 44.224 61.9584 45.568C61.9584 46.384 61.7584 47.112 61.3584 47.752C60.9744 48.392 60.4304 48.896 59.7264 49.264ZM51.2544 44.128V48.088H55.1184C56.0784 48.088 56.8064 47.92 57.3024 47.584C57.7984 47.248 58.0464 46.752 58.0464 46.096C58.0464 45.44 57.7984 44.952 57.3024 44.632C56.8064 44.296 56.0784 44.128 55.1184 44.128H51.2544ZM55.7904 55.072C56.8144 55.072 57.5824 54.904 58.0944 54.568C58.6224 54.232 58.8864 53.712 58.8864 53.008C58.8864 51.616 57.8544 50.92 55.7904 50.92H51.2544V55.072H55.7904ZM71.622 58.192C70.262 58.192 69.038 57.912 67.95 57.352C66.878 56.776 66.038 55.984 65.43 54.976C64.822 53.968 64.518 52.824 64.518 51.544C64.518 50.264 64.822 49.12 65.43 48.112C66.038 47.104 66.878 46.32 67.95 45.76C69.038 45.184 70.262 44.896 71.622 44.896C72.982 44.896 74.198 45.184 75.27 45.76C76.342 46.32 77.182 47.104 77.79 48.112C78.398 49.12 78.702 50.264 78.702 51.544C78.702 52.824 78.398 53.968 77.79 54.976C77.182 55.984 76.342 56.776 75.27 57.352C74.198 57.912 72.982 58.192 71.622 58.192ZM71.622 55.12C72.582 55.12 73.366 54.8 73.974 54.16C74.598 53.504 74.91 52.632 74.91 51.544C74.91 50.456 74.598 49.592 73.974 48.952C73.366 48.296 72.582 47.968 71.622 47.968C70.662 47.968 69.87 48.296 69.246 48.952C68.622 49.592 68.31 50.456 68.31 51.544C68.31 52.632 68.622 53.504 69.246 54.16C69.87 54.8 70.662 55.12 71.622 55.12ZM85.5486 58.192C84.4766 58.192 83.4286 58.064 82.4046 57.808C81.3806 57.536 80.5646 57.2 79.9566 56.8L81.2046 54.112C81.7806 54.48 82.4766 54.784 83.2926 55.024C84.1086 55.248 84.9086 55.36 85.6926 55.36C87.2766 55.36 88.0686 54.968 88.0686 54.184C88.0686 53.816 87.8526 53.552 87.4206 53.392C86.9886 53.232 86.3246 53.096 85.4286 52.984C84.3726 52.824 83.5006 52.64 82.8126 52.432C82.1246 52.224 81.5246 51.856 81.0126 51.328C80.5166 50.8 80.2686 50.048 80.2686 49.072C80.2686 48.256 80.5006 47.536 80.9646 46.912C81.4446 46.272 82.1326 45.776 83.0286 45.424C83.9406 45.072 85.0126 44.896 86.2446 44.896C87.1566 44.896 88.0606 45 88.9566 45.208C89.8686 45.4 90.6206 45.672 91.2126 46.024L89.9646 48.688C88.8286 48.048 87.5886 47.728 86.2446 47.728C85.4446 47.728 84.8446 47.84 84.4446 48.064C84.0446 48.288 83.8446 48.576 83.8446 48.928C83.8446 49.328 84.0606 49.608 84.4926 49.768C84.9246 49.928 85.6126 50.08 86.5566 50.224C87.6126 50.4 88.4766 50.592 89.1486 50.8C89.8206 50.992 90.4046 51.352 90.9006 51.88C91.3966 52.408 91.6446 53.144 91.6446 54.088C91.6446 54.888 91.4046 55.6 90.9246 56.224C90.4446 56.848 89.7406 57.336 88.8126 57.688C87.9006 58.024 86.8126 58.192 85.5486 58.192ZM102.283 57.376C101.915 57.648 101.459 57.856 100.915 58C100.387 58.128 99.8266 58.192 99.2346 58.192C97.6986 58.192 96.5066 57.8 95.6586 57.016C94.8266 56.232 94.4106 55.08 94.4106 53.56V48.256H92.4186V45.376H94.4106V42.232H98.1546V45.376H101.371V48.256H98.1546V53.512C98.1546 54.056 98.2906 54.48 98.5626 54.784C98.8506 55.072 99.2506 55.216 99.7626 55.216C100.355 55.216 100.859 55.056 101.275 54.736L102.283 57.376ZM109.592 44.896C111.592 44.896 113.128 45.376 114.2 46.336C115.272 47.28 115.808 48.712 115.808 50.632V58H112.304V56.392C111.6 57.592 110.288 58.192 108.368 58.192C107.376 58.192 106.512 58.024 105.776 57.688C105.056 57.352 104.504 56.888 104.12 56.296C103.736 55.704 103.544 55.032 103.544 54.28C103.544 53.08 103.992 52.136 104.888 51.448C105.8 50.76 107.2 50.416 109.088 50.416H112.064C112.064 49.6 111.816 48.976 111.32 48.544C110.824 48.096 110.08 47.872 109.088 47.872C108.4 47.872 107.72 47.984 107.048 48.208C106.392 48.416 105.832 48.704 105.368 49.072L104.024 46.456C104.728 45.96 105.568 45.576 106.544 45.304C107.536 45.032 108.552 44.896 109.592 44.896ZM109.304 55.672C109.944 55.672 110.512 55.528 111.008 55.24C111.504 54.936 111.856 54.496 112.064 53.92V52.6H109.496C107.96 52.6 107.192 53.104 107.192 54.112C107.192 54.592 107.376 54.976 107.744 55.264C108.128 55.536 108.648 55.672 109.304 55.672ZM127.045 44.896C128.645 44.896 129.933 45.376 130.909 46.336C131.901 47.296 132.397 48.72 132.397 50.608V58H128.653V51.184C128.653 50.16 128.429 49.4 127.981 48.904C127.533 48.392 126.885 48.136 126.037 48.136C125.093 48.136 124.341 48.432 123.781 49.024C123.221 49.6 122.941 50.464 122.941 51.616V58H119.197V45.088H122.773V46.6C123.269 46.056 123.885 45.64 124.621 45.352C125.357 45.048 126.165 44.896 127.045 44.896ZM142.171 58.192C140.795 58.192 139.555 57.912 138.451 57.352C137.363 56.776 136.507 55.984 135.883 54.976C135.275 53.968 134.971 52.824 134.971 51.544C134.971 50.264 135.275 49.12 135.883 48.112C136.507 47.104 137.363 46.32 138.451 45.76C139.555 45.184 140.795 44.896 142.171 44.896C143.531 44.896 144.715 45.184 145.723 45.76C146.747 46.32 147.491 47.128 147.955 48.184L145.051 49.744C144.379 48.56 143.411 47.968 142.147 47.968C141.171 47.968 140.363 48.288 139.723 48.928C139.083 49.568 138.763 50.44 138.763 51.544C138.763 52.648 139.083 53.52 139.723 54.16C140.363 54.8 141.171 55.12 142.147 55.12C143.427 55.12 144.395 54.528 145.051 53.344L147.955 54.928C147.491 55.952 146.747 56.752 145.723 57.328C144.715 57.904 143.531 58.192 142.171 58.192ZM150.111 45.088H153.855V58H150.111V45.088Z" fill="black"/>
<path d="M217.453 54.88V58H204.445V41.2H217.141V44.32H208.309V47.968H216.109V50.992H208.309V54.88H217.453ZM236.819 44.896C238.435 44.896 239.715 45.376 240.659 46.336C241.619 47.28 242.099 48.704 242.099 50.608V58H238.355V51.184C238.355 50.16 238.139 49.4 237.707 48.904C237.291 48.392 236.691 48.136 235.907 48.136C235.027 48.136 234.331 48.424 233.819 49C233.307 49.56 233.051 50.4 233.051 51.52V58H229.307V51.184C229.307 49.152 228.491 48.136 226.859 48.136C225.995 48.136 225.307 48.424 224.795 49C224.283 49.56 224.027 50.4 224.027 51.52V58H220.283V45.088H223.859V46.576C224.339 46.032 224.923 45.616 225.611 45.328C226.315 45.04 227.083 44.896 227.915 44.896C228.827 44.896 229.651 45.08 230.387 45.448C231.123 45.8 231.715 46.32 232.163 47.008C232.691 46.336 233.355 45.816 234.155 45.448C234.971 45.08 235.859 44.896 236.819 44.896ZM245.455 45.088H249.199V58H245.455V45.088ZM247.327 43.288C246.639 43.288 246.079 43.088 245.647 42.688C245.215 42.288 244.999 41.792 244.999 41.2C244.999 40.608 245.215 40.112 245.647 39.712C246.079 39.312 246.639 39.112 247.327 39.112C248.015 39.112 248.575 39.304 249.007 39.688C249.439 40.072 249.655 40.552 249.655 41.128C249.655 41.752 249.439 42.272 249.007 42.688C248.575 43.088 248.015 43.288 247.327 43.288ZM260.521 44.896C262.121 44.896 263.409 45.376 264.385 46.336C265.377 47.296 265.873 48.72 265.873 50.608V58H262.129V51.184C262.129 50.16 261.905 49.4 261.457 48.904C261.009 48.392 260.361 48.136 259.513 48.136C258.569 48.136 257.817 48.432 257.257 49.024C256.697 49.6 256.417 50.464 256.417 51.616V58H252.673V45.088H256.249V46.6C256.745 46.056 257.361 45.64 258.097 45.352C258.833 45.048 259.641 44.896 260.521 44.896ZM287.392 54.4H279.592L278.104 58H274.12L281.608 41.2H285.448L292.96 58H288.88L287.392 54.4ZM286.168 51.448L283.504 45.016L280.84 51.448H286.168ZM294.439 40.192H298.183V58H294.439V40.192ZM301.658 45.088H305.402V58H301.658V45.088ZM303.53 43.288C302.842 43.288 302.282 43.088 301.85 42.688C301.418 42.288 301.202 41.792 301.202 41.2C301.202 40.608 301.418 40.112 301.85 39.712C302.282 39.312 302.842 39.112 303.53 39.112C304.218 39.112 304.778 39.304 305.21 39.688C305.642 40.072 305.858 40.552 305.858 41.128C305.858 41.752 305.642 42.272 305.21 42.688C304.778 43.088 304.218 43.288 303.53 43.288ZM323.209 41.2C324.697 41.2 325.985 41.448 327.073 41.944C328.177 42.44 329.025 43.144 329.617 44.056C330.209 44.968 330.505 46.048 330.505 47.296C330.505 48.528 330.209 49.608 329.617 50.536C329.025 51.448 328.177 52.152 327.073 52.648C325.985 53.128 324.697 53.368 323.209 53.368H319.825V58H315.937V41.2H323.209ZM322.993 50.2C324.161 50.2 325.049 49.952 325.657 49.456C326.265 48.944 326.569 48.224 326.569 47.296C326.569 46.352 326.265 45.632 325.657 45.136C325.049 44.624 324.161 44.368 322.993 44.368H319.825V50.2H322.993ZM338.108 44.896C340.108 44.896 341.644 45.376 342.716 46.336C343.788 47.28 344.324 48.712 344.324 50.632V58H340.82V56.392C340.116 57.592 338.804 58.192 336.884 58.192C335.892 58.192 335.028 58.024 334.292 57.688C333.572 57.352 333.02 56.888 332.636 56.296C332.252 55.704 332.06 55.032 332.06 54.28C332.06 53.08 332.508 52.136 333.404 51.448C334.316 50.76 335.716 50.416 337.604 50.416H340.58C340.58 49.6 340.332 48.976 339.836 48.544C339.34 48.096 338.596 47.872 337.604 47.872C336.916 47.872 336.236 47.984 335.564 48.208C334.908 48.416 334.348 48.704 333.884 49.072L332.54 46.456C333.244 45.96 334.084 45.576 335.06 45.304C336.052 45.032 337.068 44.896 338.108 44.896ZM337.82 55.672C338.46 55.672 339.028 55.528 339.524 55.24C340.02 54.936 340.372 54.496 340.58 53.92V52.6H338.012C336.476 52.6 335.708 53.104 335.708 54.112C335.708 54.592 335.892 54.976 336.26 55.264C336.644 55.536 337.164 55.672 337.82 55.672ZM352.056 58.192C350.984 58.192 349.936 58.064 348.912 57.808C347.888 57.536 347.072 57.2 346.464 56.8L347.712 54.112C348.288 54.48 348.984 54.784 349.8 55.024C350.616 55.248 351.416 55.36 352.2 55.36C353.784 55.36 354.576 54.968 354.576 54.184C354.576 53.816 354.36 53.552 353.928 53.392C353.496 53.232 352.832 53.096 351.936 52.984C350.88 52.824 350.008 52.64 349.32 52.432C348.632 52.224 348.032 51.856 347.52 51.328C347.024 50.8 346.776 50.048 346.776 49.072C346.776 48.256 347.008 47.536 347.472 46.912C347.952 46.272 348.64 45.776 349.536 45.424C350.448 45.072 351.52 44.896 352.752 44.896C353.664 44.896 354.568 45 355.464 45.208C356.376 45.4 357.128 45.672 357.72 46.024L356.472 48.688C355.336 48.048 354.096 47.728 352.752 47.728C351.952 47.728 351.352 47.84 350.952 48.064C350.552 48.288 350.352 48.576 350.352 48.928C350.352 49.328 350.568 49.608 351 49.768C351.432 49.928 352.12 50.08 353.064 50.224C354.12 50.4 354.984 50.592 355.656 50.8C356.328 50.992 356.912 51.352 357.408 51.88C357.904 52.408 358.152 53.144 358.152 54.088C358.152 54.888 357.912 55.6 357.432 56.224C356.952 56.848 356.248 57.336 355.32 57.688C354.408 58.024 353.32 58.192 352.056 58.192ZM351.456 63.568C351.04 63.568 350.632 63.52 350.232 63.424C349.832 63.344 349.496 63.224 349.224 63.064L349.8 61.456C350.312 61.696 350.832 61.816 351.36 61.816C352.192 61.816 352.608 61.56 352.608 61.048C352.608 60.584 352.216 60.352 351.432 60.352H350.616L351.24 57.808H353.232L352.896 59.2C353.6 59.28 354.12 59.496 354.456 59.848C354.808 60.216 354.984 60.664 354.984 61.192C354.984 61.928 354.664 62.504 354.024 62.92C353.384 63.352 352.528 63.568 351.456 63.568ZM365.67 44.896C367.67 44.896 369.206 45.376 370.278 46.336C371.35 47.28 371.886 48.712 371.886 50.632V58H368.382V56.392C367.678 57.592 366.366 58.192 364.446 58.192C363.454 58.192 362.59 58.024 361.854 57.688C361.134 57.352 360.582 56.888 360.198 56.296C359.814 55.704 359.622 55.032 359.622 54.28C359.622 53.08 360.07 52.136 360.966 51.448C361.878 50.76 363.278 50.416 365.166 50.416H368.142C368.142 49.6 367.894 48.976 367.398 48.544C366.902 48.096 366.158 47.872 365.166 47.872C364.478 47.872 363.798 47.984 363.126 48.208C362.47 48.416 361.91 48.704 361.446 49.072L360.102 46.456C360.806 45.96 361.646 45.576 362.622 45.304C363.614 45.032 364.63 44.896 365.67 44.896ZM365.382 55.672C366.022 55.672 366.59 55.528 367.086 55.24C367.582 54.936 367.934 54.496 368.142 53.92V52.6H365.574C364.038 52.6 363.27 53.104 363.27 54.112C363.27 54.592 363.454 54.976 363.822 55.264C364.206 55.536 364.726 55.672 365.382 55.672Z" fill="black"/>
<path d="M421.189 54.4H413.389L411.901 58H407.917L415.405 41.2H419.245L426.757 58H422.677L421.189 54.4ZM419.965 51.448L417.301 45.016L414.637 51.448H419.965ZM440.372 45.088L434.54 58.792C433.948 60.28 433.212 61.328 432.332 61.936C431.468 62.544 430.42 62.848 429.188 62.848C428.516 62.848 427.852 62.744 427.196 62.536C426.54 62.328 426.004 62.04 425.588 61.672L426.956 59.008C427.244 59.264 427.572 59.464 427.94 59.608C428.324 59.752 428.7 59.824 429.068 59.824C429.58 59.824 429.996 59.696 430.316 59.44C430.636 59.2 430.924 58.792 431.18 58.216L431.228 58.096L425.636 45.088H429.5L433.124 53.848L436.772 45.088H440.372ZM446.056 58.192C444.984 58.192 443.936 58.064 442.912 57.808C441.888 57.536 441.072 57.2 440.464 56.8L441.712 54.112C442.288 54.48 442.984 54.784 443.8 55.024C444.616 55.248 445.416 55.36 446.2 55.36C447.784 55.36 448.576 54.968 448.576 54.184C448.576 53.816 448.36 53.552 447.928 53.392C447.496 53.232 446.832 53.096 445.936 52.984C444.88 52.824 444.008 52.64 443.32 52.432C442.632 52.224 442.032 51.856 441.52 51.328C441.024 50.8 440.776 50.048 440.776 49.072C440.776 48.256 441.008 47.536 441.472 46.912C441.952 46.272 442.64 45.776 443.536 45.424C444.448 45.072 445.52 44.896 446.752 44.896C447.664 44.896 448.568 45 449.464 45.208C450.376 45.4 451.128 45.672 451.72 46.024L450.472 48.688C449.336 48.048 448.096 47.728 446.752 47.728C445.952 47.728 445.352 47.84 444.952 48.064C444.552 48.288 444.352 48.576 444.352 48.928C444.352 49.328 444.568 49.608 445 49.768C445.432 49.928 446.12 50.08 447.064 50.224C448.12 50.4 448.984 50.592 449.656 50.8C450.328 50.992 450.912 51.352 451.408 51.88C451.904 52.408 452.152 53.144 452.152 54.088C452.152 54.888 451.912 55.6 451.432 56.224C450.952 56.848 450.248 57.336 449.32 57.688C448.408 58.024 447.32 58.192 446.056 58.192ZM445.456 63.568C445.04 63.568 444.632 63.52 444.232 63.424C443.832 63.344 443.496 63.224 443.224 63.064L443.8 61.456C444.312 61.696 444.832 61.816 445.36 61.816C446.192 61.816 446.608 61.56 446.608 61.048C446.608 60.584 446.216 60.352 445.432 60.352H444.616L445.24 57.808H447.232L446.896 59.2C447.6 59.28 448.12 59.496 448.456 59.848C448.808 60.216 448.984 60.664 448.984 61.192C448.984 61.928 448.664 62.504 448.024 62.92C447.384 63.352 446.528 63.568 445.456 63.568ZM467.11 51.592C467.11 51.64 467.086 51.976 467.038 52.6H457.27C457.446 53.4 457.862 54.032 458.518 54.496C459.174 54.96 459.99 55.192 460.966 55.192C461.638 55.192 462.23 55.096 462.742 54.904C463.27 54.696 463.758 54.376 464.206 53.944L466.198 56.104C464.982 57.496 463.206 58.192 460.87 58.192C459.414 58.192 458.126 57.912 457.006 57.352C455.886 56.776 455.022 55.984 454.414 54.976C453.806 53.968 453.502 52.824 453.502 51.544C453.502 50.28 453.798 49.144 454.39 48.136C454.998 47.112 455.822 46.32 456.862 45.76C457.918 45.184 459.094 44.896 460.39 44.896C461.654 44.896 462.798 45.168 463.822 45.712C464.846 46.256 465.646 47.04 466.222 48.064C466.814 49.072 467.11 50.248 467.11 51.592ZM460.414 47.728C459.566 47.728 458.854 47.968 458.278 48.448C457.702 48.928 457.35 49.584 457.222 50.416H463.582C463.454 49.6 463.102 48.952 462.526 48.472C461.95 47.976 461.246 47.728 460.414 47.728ZM475.147 52.936L473.347 54.712V58H469.603V40.192H473.347V50.272L478.819 45.088H483.283L477.907 50.56L483.763 58H479.227L475.147 52.936ZM490.42 44.896C492.42 44.896 493.956 45.376 495.028 46.336C496.1 47.28 496.636 48.712 496.636 50.632V58H493.132V56.392C492.428 57.592 491.116 58.192 489.196 58.192C488.204 58.192 487.34 58.024 486.604 57.688C485.884 57.352 485.332 56.888 484.948 56.296C484.564 55.704 484.372 55.032 484.372 54.28C484.372 53.08 484.82 52.136 485.716 51.448C486.628 50.76 488.028 50.416 489.916 50.416H492.892C492.892 49.6 492.644 48.976 492.148 48.544C491.652 48.096 490.908 47.872 489.916 47.872C489.228 47.872 488.548 47.984 487.876 48.208C487.22 48.416 486.66 48.704 486.196 49.072L484.852 46.456C485.556 45.96 486.396 45.576 487.372 45.304C488.364 45.032 489.38 44.896 490.42 44.896ZM490.132 55.672C490.772 55.672 491.34 55.528 491.836 55.24C492.332 54.936 492.684 54.496 492.892 53.92V52.6H490.324C488.788 52.6 488.02 53.104 488.02 54.112C488.02 54.592 488.204 54.976 488.572 55.264C488.956 55.536 489.476 55.672 490.132 55.672ZM513.318 40.192V58H509.742V56.512C508.814 57.632 507.47 58.192 505.71 58.192C504.494 58.192 503.39 57.92 502.398 57.376C501.422 56.832 500.654 56.056 500.094 55.048C499.534 54.04 499.254 52.872 499.254 51.544C499.254 50.216 499.534 49.048 500.094 48.04C500.654 47.032 501.422 46.256 502.398 45.712C503.39 45.168 504.494 44.896 505.71 44.896C507.358 44.896 508.646 45.416 509.574 46.456V40.192H513.318ZM506.358 55.12C507.302 55.12 508.086 54.8 508.71 54.16C509.334 53.504 509.646 52.632 509.646 51.544C509.646 50.456 509.334 49.592 508.71 48.952C508.086 48.296 507.302 47.968 506.358 47.968C505.398 47.968 504.606 48.296 503.982 48.952C503.358 49.592 503.046 50.456 503.046 51.544C503.046 52.632 503.358 53.504 503.982 54.16C504.606 54.8 505.398 55.12 506.358 55.12ZM516.783 45.088H520.527V58H516.783V45.088ZM531.849 44.896C533.449 44.896 534.737 45.376 535.713 46.336C536.705 47.296 537.201 48.72 537.201 50.608V58H533.457V51.184C533.457 50.16 533.233 49.4 532.785 48.904C532.337 48.392 531.689 48.136 530.841 48.136C529.897 48.136 529.145 48.432 528.585 49.024C528.025 49.6 527.745 50.464 527.745 51.616V58H524.001V45.088H527.577V46.6C528.073 46.056 528.689 45.64 529.425 45.352C530.161 45.048 530.969 44.896 531.849 44.896Z" fill="black"/>
<path d="M604.249 51.4L601.993 53.752V58H598.129V41.2H601.993V49.048L609.433 41.2H613.753L606.793 48.688L614.161 58H609.625L604.249 51.4ZM621.235 58.192C619.875 58.192 618.651 57.912 617.563 57.352C616.491 56.776 615.651 55.984 615.043 54.976C614.435 53.968 614.131 52.824 614.131 51.544C614.131 50.264 614.435 49.12 615.043 48.112C615.651 47.104 616.491 46.32 617.563 45.76C618.651 45.184 619.875 44.896 621.235 44.896C622.595 44.896 623.811 45.184 624.883 45.76C625.955 46.32 626.795 47.104 627.403 48.112C628.011 49.12 628.315 50.264 628.315 51.544C628.315 52.824 628.011 53.968 627.403 54.976C626.795 55.984 625.955 56.776 624.883 57.352C623.811 57.912 622.595 58.192 621.235 58.192ZM621.235 55.12C622.195 55.12 622.979 54.8 623.587 54.16C624.211 53.504 624.523 52.632 624.523 51.544C624.523 50.456 624.211 49.592 623.587 48.952C622.979 48.296 622.195 47.968 621.235 47.968C620.275 47.968 619.483 48.296 618.859 48.952C618.235 49.592 617.923 50.456 617.923 51.544C617.923 52.632 618.235 53.504 618.859 54.16C619.483 54.8 620.275 55.12 621.235 55.12ZM641.286 55.12V58H629.766V55.744L636.342 47.968H629.934V45.088H641.07V47.344L634.494 55.12H641.286ZM656.267 45.088L650.435 58.792C649.843 60.28 649.107 61.328 648.227 61.936C647.363 62.544 646.315 62.848 645.083 62.848C644.411 62.848 643.747 62.744 643.091 62.536C642.435 62.328 641.899 62.04 641.483 61.672L642.851 59.008C643.139 59.264 643.467 59.464 643.835 59.608C644.219 59.752 644.595 59.824 644.963 59.824C645.475 59.824 645.891 59.696 646.211 59.44C646.531 59.2 646.819 58.792 647.075 58.216L647.123 58.096L641.531 45.088H645.395L649.019 53.848L652.667 45.088H656.267ZM662.581 44.896C664.581 44.896 666.117 45.376 667.189 46.336C668.261 47.28 668.797 48.712 668.797 50.632V58H665.293V56.392C664.589 57.592 663.277 58.192 661.357 58.192C660.365 58.192 659.501 58.024 658.765 57.688C658.045 57.352 657.493 56.888 657.109 56.296C656.725 55.704 656.533 55.032 656.533 54.28C656.533 53.08 656.981 52.136 657.877 51.448C658.789 50.76 660.189 50.416 662.077 50.416H665.053C665.053 49.6 664.805 48.976 664.309 48.544C663.813 48.096 663.069 47.872 662.077 47.872C661.389 47.872 660.709 47.984 660.037 48.208C659.381 48.416 658.821 48.704 658.357 49.072L657.013 46.456C657.717 45.96 658.557 45.576 659.533 45.304C660.525 45.032 661.541 44.896 662.581 44.896ZM662.293 55.672C662.933 55.672 663.501 55.528 663.997 55.24C664.493 54.936 664.845 54.496 665.053 53.92V52.6H662.485C660.949 52.6 660.181 53.104 660.181 54.112C660.181 54.592 660.365 54.976 660.733 55.264C661.117 55.536 661.637 55.672 662.293 55.672ZM680.513 57.376C680.145 57.648 679.689 57.856 679.145 58C678.617 58.128 678.057 58.192 677.465 58.192C675.929 58.192 674.737 57.8 673.889 57.016C673.057 56.232 672.641 55.08 672.641 53.56V48.256H670.649V45.376H672.641V42.232H676.385V45.376H679.601V48.256H676.385V53.512C676.385 54.056 676.521 54.48 676.793 54.784C677.081 55.072 677.481 55.216 677.993 55.216C678.585 55.216 679.089 55.056 679.505 54.736L680.513 57.376ZM687.823 44.896C689.823 44.896 691.359 45.376 692.431 46.336C693.503 47.28 694.039 48.712 694.039 50.632V58H690.535V56.392C689.831 57.592 688.519 58.192 686.599 58.192C685.607 58.192 684.743 58.024 684.007 57.688C683.287 57.352 682.735 56.888 682.351 56.296C681.967 55.704 681.775 55.032 681.775 54.28C681.775 53.08 682.223 52.136 683.119 51.448C684.031 50.76 685.431 50.416 687.319 50.416H690.295C690.295 49.6 690.047 48.976 689.551 48.544C689.055 48.096 688.311 47.872 687.319 47.872C686.631 47.872 685.951 47.984 685.279 48.208C684.623 48.416 684.063 48.704 683.599 49.072L682.255 46.456C682.959 45.96 683.799 45.576 684.775 45.304C685.767 45.032 686.783 44.896 687.823 44.896ZM687.535 55.672C688.175 55.672 688.743 55.528 689.239 55.24C689.735 54.936 690.087 54.496 690.295 53.92V52.6H687.727C686.191 52.6 685.423 53.104 685.423 54.112C685.423 54.592 685.607 54.976 685.975 55.264C686.359 55.536 686.879 55.672 687.535 55.672ZM710.888 45.088V55.84C710.888 58.208 710.272 59.968 709.04 61.12C707.808 62.272 706.008 62.848 703.64 62.848C702.392 62.848 701.208 62.696 700.088 62.392C698.968 62.088 698.04 61.648 697.304 61.072L698.792 58.384C699.336 58.832 700.024 59.184 700.856 59.44C701.688 59.712 702.52 59.848 703.352 59.848C704.648 59.848 705.6 59.552 706.208 58.96C706.832 58.384 707.144 57.504 707.144 56.32V55.768C706.168 56.84 704.808 57.376 703.064 57.376C701.88 57.376 700.792 57.12 699.8 56.608C698.824 56.08 698.048 55.344 697.472 54.4C696.896 53.456 696.608 52.368 696.608 51.136C696.608 49.904 696.896 48.816 697.472 47.872C698.048 46.928 698.824 46.2 699.8 45.688C700.792 45.16 701.88 44.896 703.064 44.896C704.936 44.896 706.36 45.512 707.336 46.744V45.088H710.888ZM703.808 54.304C704.8 54.304 705.608 54.016 706.232 53.44C706.872 52.848 707.192 52.08 707.192 51.136C707.192 50.192 706.872 49.432 706.232 48.856C705.608 48.264 704.8 47.968 703.808 47.968C702.816 47.968 702 48.264 701.36 48.856C700.72 49.432 700.4 50.192 700.4 51.136C700.4 52.08 700.72 52.848 701.36 53.44C702 54.016 702.816 54.304 703.808 54.304ZM704.024 43.624C702.76 43.624 701.72 43.296 700.904 42.64C700.088 41.984 699.656 41.096 699.608 39.976H701.96C701.976 40.488 702.176 40.904 702.56 41.224C702.96 41.528 703.448 41.68 704.024 41.68C704.6 41.68 705.08 41.528 705.464 41.224C705.864 40.904 706.072 40.488 706.088 39.976H708.44C708.392 41.096 707.96 41.984 707.144 42.64C706.328 43.296 705.288 43.624 704.024 43.624ZM714.373 45.088H718.117V58H714.373V45.088Z" fill="black"/>
<path d="M774.26 51.4L772.004 53.752V58H768.14V41.2H772.004V49.048L779.444 41.2H783.764L776.804 48.688L784.172 58H779.636L774.26 51.4ZM787.058 58.192C786.402 58.192 785.85 57.968 785.402 57.52C784.954 57.072 784.73 56.512 784.73 55.84C784.73 55.152 784.954 54.6 785.402 54.184C785.85 53.752 786.402 53.536 787.058 53.536C787.714 53.536 788.266 53.752 788.714 54.184C789.162 54.6 789.386 55.152 789.386 55.84C789.386 56.512 789.162 57.072 788.714 57.52C788.266 57.968 787.714 58.192 787.058 58.192ZM799.555 44.896C800.755 44.896 801.843 45.176 802.819 45.736C803.811 46.28 804.587 47.056 805.147 48.064C805.707 49.056 805.987 50.216 805.987 51.544C805.987 52.872 805.707 54.04 805.147 55.048C804.587 56.04 803.811 56.816 802.819 57.376C801.843 57.92 800.755 58.192 799.555 58.192C797.779 58.192 796.427 57.632 795.499 56.512V58H791.923V40.192H795.667V46.456C796.611 45.416 797.907 44.896 799.555 44.896ZM798.907 55.12C799.867 55.12 800.651 54.8 801.259 54.16C801.883 53.504 802.195 52.632 802.195 51.544C802.195 50.456 801.883 49.592 801.259 48.952C800.651 48.296 799.867 47.968 798.907 47.968C797.947 47.968 797.155 48.296 796.531 48.952C795.923 49.592 795.619 50.456 795.619 51.544C795.619 52.632 795.923 53.504 796.531 54.16C797.155 54.8 797.947 55.12 798.907 55.12ZM813.491 44.896C815.491 44.896 817.027 45.376 818.099 46.336C819.171 47.28 819.707 48.712 819.707 50.632V58H816.203V56.392C815.499 57.592 814.187 58.192 812.267 58.192C811.275 58.192 810.411 58.024 809.675 57.688C808.955 57.352 808.403 56.888 808.019 56.296C807.635 55.704 807.443 55.032 807.443 54.28C807.443 53.08 807.891 52.136 808.787 51.448C809.699 50.76 811.099 50.416 812.987 50.416H815.963C815.963 49.6 815.715 48.976 815.219 48.544C814.723 48.096 813.979 47.872 812.987 47.872C812.299 47.872 811.619 47.984 810.947 48.208C810.291 48.416 809.731 48.704 809.267 49.072L807.923 46.456C808.627 45.96 809.467 45.576 810.443 45.304C811.435 45.032 812.451 44.896 813.491 44.896ZM813.203 55.672C813.843 55.672 814.411 55.528 814.907 55.24C815.403 54.936 815.755 54.496 815.963 53.92V52.6H813.395C811.859 52.6 811.091 53.104 811.091 54.112C811.091 54.592 811.275 54.976 811.643 55.264C812.027 55.536 812.547 55.672 813.203 55.672ZM828.639 52.936L826.839 54.712V58H823.095V40.192H826.839V50.272L832.311 45.088H836.775L831.399 50.56L837.255 58H832.719L828.639 52.936ZM844.483 52.936L842.683 54.712V58H838.939V40.192H842.683V50.272L848.155 45.088H852.619L847.243 50.56L853.099 58H848.563L844.483 52.936ZM859.756 44.896C861.756 44.896 863.292 45.376 864.364 46.336C865.436 47.28 865.972 48.712 865.972 50.632V58H862.468V56.392C861.764 57.592 860.452 58.192 858.532 58.192C857.54 58.192 856.676 58.024 855.94 57.688C855.22 57.352 854.668 56.888 854.284 56.296C853.9 55.704 853.708 55.032 853.708 54.28C853.708 53.08 854.156 52.136 855.052 51.448C855.964 50.76 857.364 50.416 859.252 50.416H862.228C862.228 49.6 861.98 48.976 861.484 48.544C860.988 48.096 860.244 47.872 859.252 47.872C858.564 47.872 857.884 47.984 857.212 48.208C856.556 48.416 855.996 48.704 855.532 49.072L854.188 46.456C854.892 45.96 855.732 45.576 856.708 45.304C857.7 45.032 858.716 44.896 859.756 44.896ZM859.468 55.672C860.108 55.672 860.676 55.528 861.172 55.24C861.668 54.936 862.02 54.496 862.228 53.92V52.6H859.66C858.124 52.6 857.356 53.104 857.356 54.112C857.356 54.592 857.54 54.976 857.908 55.264C858.292 55.536 858.812 55.672 859.468 55.672ZM869.361 40.192H873.105V58H869.361V40.192ZM882.124 52.936L880.324 54.712V58H876.58V40.192H880.324V50.272L885.796 45.088H890.26L884.884 50.56L890.74 58H886.204L882.124 52.936ZM898.005 58.192C896.645 58.192 895.421 57.912 894.333 57.352C893.261 56.776 892.421 55.984 891.813 54.976C891.205 53.968 890.901 52.824 890.901 51.544C890.901 50.264 891.205 49.12 891.813 48.112C892.421 47.104 893.261 46.32 894.333 45.76C895.421 45.184 896.645 44.896 898.005 44.896C899.365 44.896 900.581 45.184 901.653 45.76C902.725 46.32 903.565 47.104 904.173 48.112C904.781 49.12 905.085 50.264 905.085 51.544C905.085 52.824 904.781 53.968 904.173 54.976C903.565 55.984 902.725 56.776 901.653 57.352C900.581 57.912 899.365 58.192 898.005 58.192ZM898.005 55.12C898.965 55.12 899.749 54.8 900.357 54.16C900.981 53.504 901.293 52.632 901.293 51.544C901.293 50.456 900.981 49.592 900.357 48.952C899.749 48.296 898.965 47.968 898.005 47.968C897.045 47.968 896.253 48.296 895.629 48.952C895.005 49.592 894.693 50.456 894.693 51.544C894.693 52.632 895.005 53.504 895.629 54.16C896.253 54.8 897.045 55.12 898.005 55.12ZM895.533 43.312C895.053 43.312 894.653 43.16 894.333 42.856C894.013 42.536 893.853 42.136 893.853 41.656C893.853 41.176 894.013 40.784 894.333 40.48C894.653 40.16 895.053 40 895.533 40C896.013 40 896.405 40.16 896.709 40.48C897.029 40.784 897.189 41.176 897.189 41.656C897.189 42.136 897.029 42.536 896.709 42.856C896.405 43.16 896.013 43.312 895.533 43.312ZM900.381 43.312C899.901 43.312 899.501 43.16 899.181 42.856C898.877 42.536 898.725 42.136 898.725 41.656C898.725 41.176 898.877 40.784 899.181 40.48C899.501 40.16 899.901 40 900.381 40C900.861 40 901.261 40.16 901.581 40.48C901.901 40.784 902.061 41.176 902.061 41.656C902.061 42.136 901.901 42.536 901.581 42.856C901.261 43.16 900.861 43.312 900.381 43.312ZM920.052 45.088L914.22 58.792C913.628 60.28 912.892 61.328 912.012 61.936C911.148 62.544 910.1 62.848 908.868 62.848C908.196 62.848 907.532 62.744 906.876 62.536C906.22 62.328 905.684 62.04 905.268 61.672L906.636 59.008C906.924 59.264 907.252 59.464 907.62 59.608C908.004 59.752 908.38 59.824 908.748 59.824C909.26 59.824 909.676 59.696 909.996 59.44C910.316 59.2 910.604 58.792 910.86 58.216L910.908 58.096L905.316 45.088H909.18L912.804 53.848L916.452 45.088H920.052Z" fill="black"/>
<path d="M965.047 41.2H968.935V58H965.047V41.2ZM966.991 39.712C966.399 39.712 965.911 39.52 965.527 39.136C965.159 38.752 964.975 38.264 964.975 37.672C964.975 37.096 965.159 36.616 965.527 36.232C965.911 35.848 966.399 35.656 966.991 35.656C967.583 35.656 968.063 35.848 968.431 36.232C968.815 36.616 969.007 37.096 969.007 37.672C969.007 38.264 968.815 38.752 968.431 39.136C968.063 39.52 967.583 39.712 966.991 39.712ZM978.898 58.192C977.522 58.192 976.282 57.912 975.178 57.352C974.09 56.776 973.234 55.984 972.61 54.976C972.002 53.968 971.698 52.824 971.698 51.544C971.698 50.264 972.002 49.12 972.61 48.112C973.234 47.104 974.09 46.32 975.178 45.76C976.282 45.184 977.522 44.896 978.898 44.896C980.258 44.896 981.442 45.184 982.45 45.76C983.474 46.32 984.218 47.128 984.682 48.184L981.778 49.744C981.106 48.56 980.138 47.968 978.874 47.968C977.898 47.968 977.09 48.288 976.45 48.928C975.81 49.568 975.49 50.44 975.49 51.544C975.49 52.648 975.81 53.52 976.45 54.16C977.09 54.8 977.898 55.12 978.874 55.12C980.154 55.12 981.122 54.528 981.778 53.344L984.682 54.928C984.218 55.952 983.474 56.752 982.45 57.328C981.442 57.904 980.258 58.192 978.898 58.192ZM977.53 63.568C977.114 63.568 976.706 63.52 976.306 63.424C975.906 63.344 975.57 63.224 975.298 63.064L975.874 61.456C976.386 61.696 976.906 61.816 977.434 61.816C978.266 61.816 978.682 61.56 978.682 61.048C978.682 60.584 978.29 60.352 977.506 60.352H976.69L977.314 57.808H979.306L978.97 59.2C979.674 59.28 980.194 59.496 980.53 59.848C980.882 60.216 981.058 60.664 981.058 61.192C981.058 61.928 980.738 62.504 980.098 62.92C979.458 63.352 978.602 63.568 977.53 63.568ZM999.321 51.592C999.321 51.64 999.297 51.976 999.249 52.6H989.481C989.657 53.4 990.073 54.032 990.729 54.496C991.385 54.96 992.201 55.192 993.177 55.192C993.849 55.192 994.441 55.096 994.953 54.904C995.481 54.696 995.969 54.376 996.417 53.944L998.409 56.104C997.193 57.496 995.417 58.192 993.081 58.192C991.625 58.192 990.337 57.912 989.217 57.352C988.097 56.776 987.233 55.984 986.625 54.976C986.017 53.968 985.713 52.824 985.713 51.544C985.713 50.28 986.009 49.144 986.601 48.136C987.209 47.112 988.033 46.32 989.073 45.76C990.129 45.184 991.305 44.896 992.601 44.896C993.865 44.896 995.009 45.168 996.033 45.712C997.057 46.256 997.857 47.04 998.433 48.064C999.025 49.072 999.321 50.248 999.321 51.592ZM992.625 47.728C991.777 47.728 991.065 47.968 990.489 48.448C989.913 48.928 989.561 49.584 989.433 50.416H995.793C995.665 49.6 995.313 48.952 994.737 48.472C994.161 47.976 993.457 47.728 992.625 47.728ZM1005.39 46.792C1005.84 46.168 1006.44 45.696 1007.19 45.376C1007.96 45.056 1008.84 44.896 1009.83 44.896V48.352C1009.41 48.32 1009.13 48.304 1008.99 48.304C1007.92 48.304 1007.08 48.608 1006.47 49.216C1005.86 49.808 1005.56 50.704 1005.56 51.904V58H1001.81V45.088H1005.39V46.792ZM1024.59 51.592C1024.59 51.64 1024.56 51.976 1024.51 52.6H1014.75C1014.92 53.4 1015.34 54.032 1015.99 54.496C1016.65 54.96 1017.47 55.192 1018.44 55.192C1019.11 55.192 1019.71 55.096 1020.22 54.904C1020.75 54.696 1021.23 54.376 1021.68 53.944L1023.67 56.104C1022.46 57.496 1020.68 58.192 1018.35 58.192C1016.89 58.192 1015.6 57.912 1014.48 57.352C1013.36 56.776 1012.5 55.984 1011.89 54.976C1011.28 53.968 1010.98 52.824 1010.98 51.544C1010.98 50.28 1011.27 49.144 1011.87 48.136C1012.47 47.112 1013.3 46.32 1014.34 45.76C1015.39 45.184 1016.57 44.896 1017.87 44.896C1019.13 44.896 1020.27 45.168 1021.3 45.712C1022.32 46.256 1023.12 47.04 1023.7 48.064C1024.29 49.072 1024.59 50.248 1024.59 51.592ZM1017.89 47.728C1017.04 47.728 1016.33 47.968 1015.75 48.448C1015.18 48.928 1014.83 49.584 1014.7 50.416H1021.06C1020.93 49.6 1020.58 48.952 1020 48.472C1019.43 47.976 1018.72 47.728 1017.89 47.728ZM1034.93 44.896C1036.53 44.896 1037.82 45.376 1038.79 46.336C1039.78 47.296 1040.28 48.72 1040.28 50.608V58H1036.54V51.184C1036.54 50.16 1036.31 49.4 1035.86 48.904C1035.42 48.392 1034.77 48.136 1033.92 48.136C1032.98 48.136 1032.22 48.432 1031.66 49.024C1031.1 49.6 1030.82 50.464 1030.82 51.616V58H1027.08V45.088H1030.66V46.6C1031.15 46.056 1031.77 45.64 1032.5 45.352C1033.24 45.048 1034.05 44.896 1034.93 44.896ZM1049.22 52.936L1047.42 54.712V58H1043.67V40.192H1047.42V50.272L1052.89 45.088H1057.35L1051.98 50.56L1057.83 58H1053.3L1049.22 52.936ZM1065.1 58.192C1063.74 58.192 1062.51 57.912 1061.43 57.352C1060.35 56.776 1059.51 55.984 1058.91 54.976C1058.3 53.968 1057.99 52.824 1057.99 51.544C1057.99 50.264 1058.3 49.12 1058.91 48.112C1059.51 47.104 1060.35 46.32 1061.43 45.76C1062.51 45.184 1063.74 44.896 1065.1 44.896C1066.46 44.896 1067.67 45.184 1068.75 45.76C1069.82 46.32 1070.66 47.104 1071.27 48.112C1071.87 49.12 1072.18 50.264 1072.18 51.544C1072.18 52.824 1071.87 53.968 1071.27 54.976C1070.66 55.984 1069.82 56.776 1068.75 57.352C1067.67 57.912 1066.46 58.192 1065.1 58.192ZM1065.1 55.12C1066.06 55.12 1066.84 54.8 1067.45 54.16C1068.07 53.504 1068.39 52.632 1068.39 51.544C1068.39 50.456 1068.07 49.592 1067.45 48.952C1066.84 48.296 1066.06 47.968 1065.1 47.968C1064.14 47.968 1063.35 48.296 1062.72 48.952C1062.1 49.592 1061.79 50.456 1061.79 51.544C1061.79 52.632 1062.1 53.504 1062.72 54.16C1063.35 54.8 1064.14 55.12 1065.1 55.12ZM1062.63 43.312C1062.15 43.312 1061.75 43.16 1061.43 42.856C1061.11 42.536 1060.95 42.136 1060.95 41.656C1060.95 41.176 1061.11 40.784 1061.43 40.48C1061.75 40.16 1062.15 40 1062.63 40C1063.11 40 1063.5 40.16 1063.8 40.48C1064.12 40.784 1064.28 41.176 1064.28 41.656C1064.28 42.136 1064.12 42.536 1063.8 42.856C1063.5 43.16 1063.11 43.312 1062.63 43.312ZM1067.47 43.312C1066.99 43.312 1066.59 43.16 1066.27 42.856C1065.97 42.536 1065.82 42.136 1065.82 41.656C1065.82 41.176 1065.97 40.784 1066.27 40.48C1066.59 40.16 1066.99 40 1067.47 40C1067.95 40 1068.35 40.16 1068.67 40.48C1068.99 40.784 1069.15 41.176 1069.15 41.656C1069.15 42.136 1068.99 42.536 1068.67 42.856C1068.35 43.16 1067.95 43.312 1067.47 43.312ZM1087.15 45.088L1081.31 58.792C1080.72 60.28 1079.99 61.328 1079.11 61.936C1078.24 62.544 1077.19 62.848 1075.96 62.848C1075.29 62.848 1074.63 62.744 1073.97 62.536C1073.31 62.328 1072.78 62.04 1072.36 61.672L1073.73 59.008C1074.02 59.264 1074.35 59.464 1074.71 59.608C1075.1 59.752 1075.47 59.824 1075.84 59.824C1076.35 59.824 1076.77 59.696 1077.09 59.44C1077.41 59.2 1077.7 58.792 1077.95 58.216L1078 58.096L1072.41 45.088H1076.27L1079.9 53.848L1083.55 45.088H1087.15Z" fill="black"/>
<path d="M1154.13 51.4L1151.87 53.752V58H1148.01V41.2H1151.87V49.048L1159.31 41.2H1163.63L1156.67 48.688L1164.04 58H1159.5L1154.13 51.4ZM1170.44 44.896C1172.44 44.896 1173.97 45.376 1175.04 46.336C1176.12 47.28 1176.65 48.712 1176.65 50.632V58H1173.15V56.392C1172.44 57.592 1171.13 58.192 1169.21 58.192C1168.22 58.192 1167.36 58.024 1166.62 57.688C1165.9 57.352 1165.35 56.888 1164.96 56.296C1164.58 55.704 1164.39 55.032 1164.39 54.28C1164.39 53.08 1164.84 52.136 1165.73 51.448C1166.64 50.76 1168.04 50.416 1169.93 50.416H1172.91C1172.91 49.6 1172.66 48.976 1172.16 48.544C1171.67 48.096 1170.92 47.872 1169.93 47.872C1169.24 47.872 1168.56 47.984 1167.89 48.208C1167.24 48.416 1166.68 48.704 1166.21 49.072L1164.87 46.456C1165.57 45.96 1166.41 45.576 1167.39 45.304C1168.38 45.032 1169.4 44.896 1170.44 44.896ZM1170.15 55.672C1170.79 55.672 1171.36 55.528 1171.85 55.24C1172.35 54.936 1172.7 54.496 1172.91 53.92V52.6H1170.34C1168.8 52.6 1168.04 53.104 1168.04 54.112C1168.04 54.592 1168.22 54.976 1168.59 55.264C1168.97 55.536 1169.49 55.672 1170.15 55.672ZM1192.62 45.088L1186.79 58.792C1186.2 60.28 1185.46 61.328 1184.58 61.936C1183.72 62.544 1182.67 62.848 1181.44 62.848C1180.77 62.848 1180.1 62.744 1179.45 62.536C1178.79 62.328 1178.25 62.04 1177.84 61.672L1179.21 59.008C1179.49 59.264 1179.82 59.464 1180.19 59.608C1180.57 59.752 1180.95 59.824 1181.32 59.824C1181.83 59.824 1182.25 59.696 1182.57 59.44C1182.89 59.2 1183.17 58.792 1183.43 58.216L1183.48 58.096L1177.89 45.088H1181.75L1185.37 53.848L1189.02 45.088H1192.62ZM1194.15 45.088H1197.89V58H1194.15V45.088ZM1205.71 58.192C1204.64 58.192 1203.59 58.064 1202.57 57.808C1201.54 57.536 1200.73 57.2 1200.12 56.8L1201.37 54.112C1201.94 54.48 1202.64 54.784 1203.46 55.024C1204.27 55.248 1205.07 55.36 1205.86 55.36C1207.44 55.36 1208.23 54.968 1208.23 54.184C1208.23 53.816 1208.02 53.552 1207.58 53.392C1207.15 53.232 1206.49 53.096 1205.59 52.984C1204.54 52.824 1203.66 52.64 1202.98 52.432C1202.29 52.224 1201.69 51.856 1201.18 51.328C1200.68 50.8 1200.43 50.048 1200.43 49.072C1200.43 48.256 1200.66 47.536 1201.13 46.912C1201.61 46.272 1202.3 45.776 1203.19 45.424C1204.1 45.072 1205.18 44.896 1206.41 44.896C1207.32 44.896 1208.22 45 1209.12 45.208C1210.03 45.4 1210.78 45.672 1211.38 46.024L1210.13 48.688C1208.99 48.048 1207.75 47.728 1206.41 47.728C1205.61 47.728 1205.01 47.84 1204.61 48.064C1204.21 48.288 1204.01 48.576 1204.01 48.928C1204.01 49.328 1204.22 49.608 1204.66 49.768C1205.09 49.928 1205.78 50.08 1206.72 50.224C1207.78 50.4 1208.64 50.592 1209.31 50.8C1209.98 50.992 1210.57 51.352 1211.06 51.88C1211.56 52.408 1211.81 53.144 1211.81 54.088C1211.81 54.888 1211.57 55.6 1211.09 56.224C1210.61 56.848 1209.9 57.336 1208.98 57.688C1208.06 58.024 1206.98 58.192 1205.71 58.192ZM1205.11 63.568C1204.7 63.568 1204.29 63.52 1203.89 63.424C1203.49 63.344 1203.15 63.224 1202.88 63.064L1203.46 61.456C1203.97 61.696 1204.49 61.816 1205.02 61.816C1205.85 61.816 1206.26 61.56 1206.26 61.048C1206.26 60.584 1205.87 60.352 1205.09 60.352H1204.27L1204.9 57.808H1206.89L1206.55 59.2C1207.26 59.28 1207.78 59.496 1208.11 59.848C1208.46 60.216 1208.64 60.664 1208.64 61.192C1208.64 61.928 1208.32 62.504 1207.68 62.92C1207.04 63.352 1206.18 63.568 1205.11 63.568ZM1227.27 40.192V58H1223.69V56.512C1222.77 57.632 1221.42 58.192 1219.66 58.192C1218.45 58.192 1217.34 57.92 1216.35 57.376C1215.37 56.832 1214.61 56.056 1214.05 55.048C1213.49 54.04 1213.21 52.872 1213.21 51.544C1213.21 50.216 1213.49 49.048 1214.05 48.04C1214.61 47.032 1215.37 46.256 1216.35 45.712C1217.34 45.168 1218.45 44.896 1219.66 44.896C1221.31 44.896 1222.6 45.416 1223.53 46.456V40.192H1227.27ZM1220.31 55.12C1221.25 55.12 1222.04 54.8 1222.66 54.16C1223.29 53.504 1223.6 52.632 1223.6 51.544C1223.6 50.456 1223.29 49.592 1222.66 48.952C1222.04 48.296 1221.25 47.968 1220.31 47.968C1219.35 47.968 1218.56 48.296 1217.93 48.952C1217.31 49.592 1217 50.456 1217 51.544C1217 52.632 1217.31 53.504 1217.93 54.16C1218.56 54.8 1219.35 55.12 1220.31 55.12ZM1235.94 44.896C1237.94 44.896 1239.48 45.376 1240.55 46.336C1241.62 47.28 1242.16 48.712 1242.16 50.632V58H1238.66V56.392C1237.95 57.592 1236.64 58.192 1234.72 58.192C1233.73 58.192 1232.86 58.024 1232.13 57.688C1231.41 57.352 1230.86 56.888 1230.47 56.296C1230.09 55.704 1229.9 55.032 1229.9 54.28C1229.9 53.08 1230.34 52.136 1231.24 51.448C1232.15 50.76 1233.55 50.416 1235.44 50.416H1238.42C1238.42 49.6 1238.17 48.976 1237.67 48.544C1237.18 48.096 1236.43 47.872 1235.44 47.872C1234.75 47.872 1234.07 47.984 1233.4 48.208C1232.74 48.416 1232.18 48.704 1231.72 49.072L1230.38 46.456C1231.08 45.96 1231.92 45.576 1232.9 45.304C1233.89 45.032 1234.9 44.896 1235.94 44.896ZM1235.66 55.672C1236.3 55.672 1236.86 55.528 1237.36 55.24C1237.86 54.936 1238.21 54.496 1238.42 53.92V52.6H1235.85C1234.31 52.6 1233.54 53.104 1233.54 54.112C1233.54 54.592 1233.73 54.976 1234.1 55.264C1234.48 55.536 1235 55.672 1235.66 55.672ZM1259.01 45.088V55.84C1259.01 58.208 1258.39 59.968 1257.16 61.12C1255.93 62.272 1254.13 62.848 1251.76 62.848C1250.51 62.848 1249.33 62.696 1248.21 62.392C1247.09 62.088 1246.16 61.648 1245.42 61.072L1246.91 58.384C1247.46 58.832 1248.14 59.184 1248.98 59.44C1249.81 59.712 1250.64 59.848 1251.47 59.848C1252.77 59.848 1253.72 59.552 1254.33 58.96C1254.95 58.384 1255.26 57.504 1255.26 56.32V55.768C1254.29 56.84 1252.93 57.376 1251.18 57.376C1250 57.376 1248.91 57.12 1247.92 56.608C1246.94 56.08 1246.17 55.344 1245.59 54.4C1245.02 53.456 1244.73 52.368 1244.73 51.136C1244.73 49.904 1245.02 48.816 1245.59 47.872C1246.17 46.928 1246.94 46.2 1247.92 45.688C1248.91 45.16 1250 44.896 1251.18 44.896C1253.06 44.896 1254.48 45.512 1255.46 46.744V45.088H1259.01ZM1251.93 54.304C1252.92 54.304 1253.73 54.016 1254.35 53.44C1254.99 52.848 1255.31 52.08 1255.31 51.136C1255.31 50.192 1254.99 49.432 1254.35 48.856C1253.73 48.264 1252.92 47.968 1251.93 47.968C1250.94 47.968 1250.12 48.264 1249.48 48.856C1248.84 49.432 1248.52 50.192 1248.52 51.136C1248.52 52.08 1248.84 52.848 1249.48 53.44C1250.12 54.016 1250.94 54.304 1251.93 54.304ZM1252.14 43.624C1250.88 43.624 1249.84 43.296 1249.02 42.64C1248.21 41.984 1247.78 41.096 1247.73 39.976H1250.08C1250.1 40.488 1250.3 40.904 1250.68 41.224C1251.08 41.528 1251.57 41.68 1252.14 41.68C1252.72 41.68 1253.2 41.528 1253.58 41.224C1253.98 40.904 1254.19 40.488 1254.21 39.976H1256.56C1256.51 41.096 1256.08 41.984 1255.26 42.64C1254.45 43.296 1253.41 43.624 1252.14 43.624ZM1262.49 45.088H1266.24V58H1262.49V45.088Z" fill="black"/>
<path d="M1356.48 58L1356.45 47.92L1351.51 56.224H1349.76L1344.84 48.136V58H1341.19V41.2H1344.4L1350.69 51.64L1356.88 41.2H1360.08L1360.12 58H1356.48ZM1376.49 51.592C1376.49 51.64 1376.47 51.976 1376.42 52.6H1366.65C1366.83 53.4 1367.25 54.032 1367.9 54.496C1368.56 54.96 1369.37 55.192 1370.35 55.192C1371.02 55.192 1371.61 55.096 1372.13 54.904C1372.65 54.696 1373.14 54.376 1373.59 53.944L1375.58 56.104C1374.37 57.496 1372.59 58.192 1370.25 58.192C1368.8 58.192 1367.51 57.912 1366.39 57.352C1365.27 56.776 1364.41 55.984 1363.8 54.976C1363.19 53.968 1362.89 52.824 1362.89 51.544C1362.89 50.28 1363.18 49.144 1363.77 48.136C1364.38 47.112 1365.21 46.32 1366.25 45.76C1367.3 45.184 1368.48 44.896 1369.77 44.896C1371.04 44.896 1372.18 45.168 1373.21 45.712C1374.23 46.256 1375.03 47.04 1375.61 48.064C1376.2 49.072 1376.49 50.248 1376.49 51.592ZM1369.8 47.728C1368.95 47.728 1368.24 47.968 1367.66 48.448C1367.09 48.928 1366.73 49.584 1366.61 50.416H1372.97C1372.84 49.6 1372.49 48.952 1371.91 48.472C1371.33 47.976 1370.63 47.728 1369.8 47.728ZM1391.57 45.088L1386.12 58H1382.26L1376.83 45.088H1380.7L1384.27 53.872L1387.97 45.088H1391.57ZM1393.1 40.192H1396.84V58H1393.1V40.192ZM1405.52 44.896C1407.52 44.896 1409.06 45.376 1410.13 46.336C1411.2 47.28 1411.74 48.712 1411.74 50.632V58H1408.23V56.392C1407.53 57.592 1406.22 58.192 1404.3 58.192C1403.31 58.192 1402.44 58.024 1401.71 57.688C1400.99 57.352 1400.43 56.888 1400.05 56.296C1399.67 55.704 1399.47 55.032 1399.47 54.28C1399.47 53.08 1399.92 52.136 1400.82 51.448C1401.73 50.76 1403.13 50.416 1405.02 50.416H1407.99C1407.99 49.6 1407.75 48.976 1407.25 48.544C1406.75 48.096 1406.01 47.872 1405.02 47.872C1404.33 47.872 1403.65 47.984 1402.98 48.208C1402.32 48.416 1401.76 48.704 1401.3 49.072L1399.95 46.456C1400.66 45.96 1401.5 45.576 1402.47 45.304C1403.47 45.032 1404.48 44.896 1405.52 44.896ZM1405.23 55.672C1405.87 55.672 1406.44 55.528 1406.94 55.24C1407.43 54.936 1407.79 54.496 1407.99 53.92V52.6H1405.43C1403.89 52.6 1403.12 53.104 1403.12 54.112C1403.12 54.592 1403.31 54.976 1403.67 55.264C1404.06 55.536 1404.58 55.672 1405.23 55.672ZM1422.97 44.896C1424.57 44.896 1425.86 45.376 1426.84 46.336C1427.83 47.296 1428.33 48.72 1428.33 50.608V58H1424.58V51.184C1424.58 50.16 1424.36 49.4 1423.91 48.904C1423.46 48.392 1422.81 48.136 1421.97 48.136C1421.02 48.136 1420.27 48.432 1419.71 49.024C1419.15 49.6 1418.87 50.464 1418.87 51.616V58H1415.13V45.088H1418.7V46.6C1419.2 46.056 1419.81 45.64 1420.55 45.352C1421.29 45.048 1422.09 44.896 1422.97 44.896ZM1436.93 44.896C1438.93 44.896 1440.46 45.376 1441.54 46.336C1442.61 47.28 1443.14 48.712 1443.14 50.632V58H1439.64V56.392C1438.94 57.592 1437.62 58.192 1435.7 58.192C1434.71 58.192 1433.85 58.024 1433.11 57.688C1432.39 57.352 1431.84 56.888 1431.46 56.296C1431.07 55.704 1430.88 55.032 1430.88 54.28C1430.88 53.08 1431.33 52.136 1432.22 51.448C1433.14 50.76 1434.54 50.416 1436.42 50.416H1439.4C1439.4 49.6 1439.15 48.976 1438.66 48.544C1438.16 48.096 1437.42 47.872 1436.42 47.872C1435.74 47.872 1435.06 47.984 1434.38 48.208C1433.73 48.416 1433.17 48.704 1432.7 49.072L1431.36 46.456C1432.06 45.96 1432.9 45.576 1433.88 45.304C1434.87 45.032 1435.89 44.896 1436.93 44.896ZM1436.64 55.672C1437.28 55.672 1437.85 55.528 1438.34 55.24C1438.84 54.936 1439.19 54.496 1439.4 53.92V52.6H1436.83C1435.3 52.6 1434.53 53.104 1434.53 54.112C1434.53 54.592 1434.71 54.976 1435.08 55.264C1435.46 55.536 1435.98 55.672 1436.64 55.672Z" fill="black"/>
<path d="M1548.39 41.2H1552.28V58H1548.39V41.2ZM1550.33 39.712C1549.74 39.712 1549.25 39.52 1548.87 39.136C1548.5 38.752 1548.32 38.264 1548.32 37.672C1548.32 37.096 1548.5 36.616 1548.87 36.232C1549.25 35.848 1549.74 35.656 1550.33 35.656C1550.93 35.656 1551.41 35.848 1551.77 36.232C1552.16 36.616 1552.35 37.096 1552.35 37.672C1552.35 38.264 1552.16 38.752 1551.77 39.136C1551.41 39.52 1550.93 39.712 1550.33 39.712ZM1571.55 58L1571.53 47.92L1566.59 56.224H1564.83L1559.91 48.136V58H1556.27V41.2H1559.48L1565.77 51.64L1571.96 41.2H1575.15L1575.2 58H1571.55ZM1592.2 54.88V58H1579.19V41.2H1591.88V44.32H1583.05V47.968H1590.85V50.992H1583.05V54.88H1592.2ZM1600.81 58.288C1599.48 58.288 1598.19 58.112 1596.94 57.76C1595.71 57.392 1594.72 56.92 1593.97 56.344L1595.29 53.416C1596.01 53.944 1596.86 54.368 1597.86 54.688C1598.85 55.008 1599.84 55.168 1600.83 55.168C1601.94 55.168 1602.75 55.008 1603.28 54.688C1603.81 54.352 1604.07 53.912 1604.07 53.368C1604.07 52.968 1603.91 52.64 1603.59 52.384C1603.29 52.112 1602.89 51.896 1602.39 51.736C1601.91 51.576 1601.26 51.4 1600.42 51.208C1599.14 50.904 1598.1 50.6 1597.28 50.296C1596.46 49.992 1595.76 49.504 1595.17 48.832C1594.59 48.16 1594.3 47.264 1594.3 46.144C1594.3 45.168 1594.57 44.288 1595.1 43.504C1595.62 42.704 1596.42 42.072 1597.47 41.608C1598.54 41.144 1599.85 40.912 1601.38 40.912C1602.46 40.912 1603.5 41.04 1604.53 41.296C1605.55 41.552 1606.45 41.92 1607.22 42.4L1606.02 45.352C1604.46 44.472 1602.91 44.032 1601.36 44.032C1600.27 44.032 1599.46 44.208 1598.94 44.56C1598.42 44.912 1598.17 45.376 1598.17 45.952C1598.17 46.528 1598.46 46.96 1599.06 47.248C1599.66 47.52 1600.58 47.792 1601.82 48.064C1603.1 48.368 1604.14 48.672 1604.96 48.976C1605.78 49.28 1606.47 49.76 1607.05 50.416C1607.64 51.072 1607.94 51.96 1607.94 53.08C1607.94 54.04 1607.66 54.92 1607.12 55.72C1606.59 56.504 1605.79 57.128 1604.72 57.592C1603.65 58.056 1602.34 58.288 1600.81 58.288Z" fill="black"/>
<path d="M1716.45 29L1716.43 18.92L1711.48 27.224H1709.73L1704.81 19.136V29H1701.16V12.2H1704.38L1710.67 22.64L1716.86 12.2H1720.05L1720.1 29H1716.45ZM1732.22 29.288C1730.48 29.288 1728.9 28.912 1727.49 28.16C1726.1 27.408 1725.01 26.376 1724.21 25.064C1723.42 23.736 1723.03 22.248 1723.03 20.6C1723.03 18.952 1723.42 17.472 1724.21 16.16C1725.01 14.832 1726.1 13.792 1727.49 13.04C1728.9 12.288 1730.48 11.912 1732.22 11.912C1733.97 11.912 1735.53 12.288 1736.93 13.04C1738.32 13.792 1739.41 14.832 1740.21 16.16C1741.01 17.472 1741.41 18.952 1741.41 20.6C1741.41 22.248 1741.01 23.736 1740.21 25.064C1739.41 26.376 1738.32 27.408 1736.93 28.16C1735.53 28.912 1733.97 29.288 1732.22 29.288ZM1732.22 25.976C1733.21 25.976 1734.11 25.752 1734.91 25.304C1735.71 24.84 1736.33 24.2 1736.78 23.384C1737.25 22.568 1737.48 21.64 1737.48 20.6C1737.48 19.56 1737.25 18.632 1736.78 17.816C1736.33 17 1735.71 16.368 1734.91 15.92C1734.11 15.456 1733.21 15.224 1732.22 15.224C1731.23 15.224 1730.33 15.456 1729.53 15.92C1728.73 16.368 1728.1 17 1727.64 17.816C1727.19 18.632 1726.97 19.56 1726.97 20.6C1726.97 21.64 1727.19 22.568 1727.64 23.384C1728.1 24.2 1728.73 24.84 1729.53 25.304C1730.33 25.752 1731.23 25.976 1732.22 25.976ZM1744.34 12.2H1751.97C1753.79 12.2 1755.4 12.552 1756.79 13.256C1758.2 13.944 1759.29 14.92 1760.06 16.184C1760.84 17.448 1761.23 18.92 1761.23 20.6C1761.23 22.28 1760.84 23.752 1760.06 25.016C1759.29 26.28 1758.2 27.264 1756.79 27.968C1755.4 28.656 1753.79 29 1751.97 29H1744.34V12.2ZM1751.78 25.808C1753.46 25.808 1754.79 25.344 1755.78 24.416C1756.79 23.472 1757.3 22.2 1757.3 20.6C1757.3 19 1756.79 17.736 1755.78 16.808C1754.79 15.864 1753.46 15.392 1751.78 15.392H1748.22V25.808H1751.78ZM1772.3 29.288C1770.56 29.288 1768.98 28.912 1767.57 28.16C1766.18 27.408 1765.08 26.376 1764.28 25.064C1763.5 23.736 1763.11 22.248 1763.11 20.6C1763.11 18.952 1763.5 17.472 1764.28 16.16C1765.08 14.832 1766.18 13.792 1767.57 13.04C1768.98 12.288 1770.56 11.912 1772.3 11.912C1774.04 11.912 1775.61 12.288 1777 13.04C1778.4 13.792 1779.49 14.832 1780.29 16.16C1781.09 17.472 1781.49 18.952 1781.49 20.6C1781.49 22.248 1781.09 23.736 1780.29 25.064C1779.49 26.376 1778.4 27.408 1777 28.16C1775.61 28.912 1774.04 29.288 1772.3 29.288ZM1772.3 25.976C1773.29 25.976 1774.19 25.752 1774.99 25.304C1775.79 24.84 1776.41 24.2 1776.86 23.384C1777.32 22.568 1777.56 21.64 1777.56 20.6C1777.56 19.56 1777.32 18.632 1776.86 17.816C1776.41 17 1775.79 16.368 1774.99 15.92C1774.19 15.456 1773.29 15.224 1772.3 15.224C1771.31 15.224 1770.41 15.456 1769.61 15.92C1768.81 16.368 1768.18 17 1767.72 17.816C1767.27 18.632 1767.04 19.56 1767.04 20.6C1767.04 21.64 1767.27 22.568 1767.72 23.384C1768.18 24.2 1768.81 24.84 1769.61 25.304C1770.41 25.752 1771.31 25.976 1772.3 25.976ZM1790.53 22.4L1788.28 24.752V29H1784.41V12.2H1788.28V20.048L1795.72 12.2H1800.04L1793.08 19.688L1800.45 29H1795.91L1790.53 22.4ZM1809.71 29.288C1807.96 29.288 1806.39 28.912 1804.98 28.16C1803.59 27.408 1802.49 26.376 1801.69 25.064C1800.91 23.736 1800.51 22.248 1800.51 20.6C1800.51 18.952 1800.91 17.472 1801.69 16.16C1802.49 14.832 1803.59 13.792 1804.98 13.04C1806.39 12.288 1807.96 11.912 1809.71 11.912C1811.45 11.912 1813.02 12.288 1814.41 13.04C1815.8 13.792 1816.9 14.832 1817.7 16.16C1818.5 17.472 1818.9 18.952 1818.9 20.6C1818.9 22.248 1818.5 23.736 1817.7 25.064C1816.9 26.376 1815.8 27.408 1814.41 28.16C1813.02 28.912 1811.45 29.288 1809.71 29.288ZM1809.71 25.976C1810.7 25.976 1811.59 25.752 1812.39 25.304C1813.19 24.84 1813.82 24.2 1814.27 23.384C1814.73 22.568 1814.96 21.64 1814.96 20.6C1814.96 19.56 1814.73 18.632 1814.27 17.816C1813.82 17 1813.19 16.368 1812.39 15.92C1811.59 15.456 1810.7 15.224 1809.71 15.224C1808.71 15.224 1807.82 15.456 1807.02 15.92C1806.22 16.368 1805.59 17 1805.12 17.816C1804.67 18.632 1804.45 19.56 1804.45 20.6C1804.45 21.64 1804.67 22.568 1805.12 23.384C1805.59 24.2 1806.22 24.84 1807.02 25.304C1807.82 25.752 1808.71 25.976 1809.71 25.976ZM1725.19 51.4L1722.93 53.752V58H1719.07V41.2H1722.93V49.048L1730.37 41.2H1734.69L1727.73 48.688L1735.1 58H1730.57L1725.19 51.4ZM1749.84 54.88V58H1736.84V41.2H1749.53V44.32H1740.7V47.968H1748.5V50.992H1740.7V54.88H1749.84ZM1760.84 52.048V58H1756.95V52L1750.45 41.2H1754.57L1759.06 48.664L1763.55 41.2H1767.37L1760.84 52.048ZM1779.02 54.4H1771.22L1769.74 58H1765.75L1773.24 41.2H1777.08L1784.59 58H1780.51L1779.02 54.4ZM1777.8 51.448L1775.14 45.016L1772.47 51.448H1777.8ZM1793.61 41.2C1795.1 41.2 1796.38 41.448 1797.47 41.944C1798.58 42.44 1799.42 43.144 1800.02 44.056C1800.61 44.968 1800.9 46.048 1800.9 47.296C1800.9 48.528 1800.61 49.608 1800.02 50.536C1799.42 51.448 1798.58 52.152 1797.47 52.648C1796.38 53.128 1795.1 53.368 1793.61 53.368H1790.22V58H1786.34V41.2H1793.61ZM1793.39 50.2C1794.56 50.2 1795.45 49.952 1796.06 49.456C1796.66 48.944 1796.97 48.224 1796.97 47.296C1796.97 46.352 1796.66 45.632 1796.06 45.136C1795.45 44.624 1794.56 44.368 1793.39 44.368H1790.22V50.2H1793.39Z" fill="black"/>
<path d="M1896.34 41.2H1903.97C1905.79 41.2 1907.4 41.552 1908.79 42.256C1910.2 42.944 1911.29 43.92 1912.06 45.184C1912.84 46.448 1913.23 47.92 1913.23 49.6C1913.23 51.28 1912.84 52.752 1912.06 54.016C1911.29 55.28 1910.2 56.264 1908.79 56.968C1907.4 57.656 1905.79 58 1903.97 58H1896.34V41.2ZM1903.78 54.808C1905.46 54.808 1906.79 54.344 1907.78 53.416C1908.79 52.472 1909.3 51.2 1909.3 49.6C1909.3 48 1908.79 46.736 1907.78 45.808C1906.79 44.864 1905.46 44.392 1903.78 44.392H1900.22V54.808H1903.78ZM1928.91 45.088V58H1925.36V56.464C1924.86 57.024 1924.27 57.456 1923.58 57.76C1922.89 58.048 1922.15 58.192 1921.35 58.192C1919.65 58.192 1918.31 57.704 1917.32 56.728C1916.32 55.752 1915.83 54.304 1915.83 52.384V45.088H1919.57V51.832C1919.57 53.912 1920.44 54.952 1922.19 54.952C1923.08 54.952 1923.8 54.664 1924.35 54.088C1924.89 53.496 1925.16 52.624 1925.16 51.472V45.088H1928.91ZM1945.53 40.192V58H1941.95V56.512C1941.02 57.632 1939.68 58.192 1937.92 58.192C1936.7 58.192 1935.6 57.92 1934.61 57.376C1933.63 56.832 1932.86 56.056 1932.3 55.048C1931.74 54.04 1931.46 52.872 1931.46 51.544C1931.46 50.216 1931.74 49.048 1932.3 48.04C1932.86 47.032 1933.63 46.256 1934.61 45.712C1935.6 45.168 1936.7 44.896 1937.92 44.896C1939.57 44.896 1940.86 45.416 1941.78 46.456V40.192H1945.53ZM1938.57 55.12C1939.51 55.12 1940.3 54.8 1940.92 54.16C1941.54 53.504 1941.86 52.632 1941.86 51.544C1941.86 50.456 1941.54 49.592 1940.92 48.952C1940.3 48.296 1939.51 47.968 1938.57 47.968C1937.61 47.968 1936.82 48.296 1936.19 48.952C1935.57 49.592 1935.26 50.456 1935.26 51.544C1935.26 52.632 1935.57 53.504 1936.19 54.16C1936.82 54.8 1937.61 55.12 1938.57 55.12ZM1962 45.088V58H1958.45V56.464C1957.95 57.024 1957.36 57.456 1956.67 57.76C1955.99 58.048 1955.24 58.192 1954.44 58.192C1952.75 58.192 1951.4 57.704 1950.41 56.728C1949.42 55.752 1948.92 54.304 1948.92 52.384V45.088H1952.67V51.832C1952.67 53.912 1953.54 54.952 1955.28 54.952C1956.18 54.952 1956.9 54.664 1957.44 54.088C1957.99 53.496 1958.26 52.624 1958.26 51.472V45.088H1962ZM1965.47 40.192H1969.21V58H1965.47V40.192ZM1972.69 40.192H1976.43V58H1972.69V40.192ZM1992.92 45.088V58H1989.36V56.464C1988.87 57.024 1988.28 57.456 1987.59 57.76C1986.9 58.048 1986.16 58.192 1985.36 58.192C1983.66 58.192 1982.32 57.704 1981.32 56.728C1980.33 55.752 1979.84 54.304 1979.84 52.384V45.088H1983.58V51.832C1983.58 53.912 1984.45 54.952 1986.2 54.952C1987.09 54.952 1987.81 54.664 1988.36 54.088C1988.9 53.496 1989.17 52.624 1989.17 51.472V45.088H1992.92Z" fill="black"/>
<path d="M2111.55 41.2V58H2107.66V51.112H2100.03V58H2096.14V41.2H2100.03V47.824H2107.66V41.2H2111.55ZM2128.27 45.088V58H2124.72V56.464C2124.22 57.024 2123.63 57.456 2122.94 57.76C2122.25 58.048 2121.51 58.192 2120.71 58.192C2119.01 58.192 2117.67 57.704 2116.68 56.728C2115.68 55.752 2115.19 54.304 2115.19 52.384V45.088H2118.93V51.832C2118.93 53.912 2119.8 54.952 2121.55 54.952C2122.44 54.952 2123.16 54.664 2123.71 54.088C2124.25 53.496 2124.52 52.624 2124.52 51.472V45.088H2128.27ZM2142.37 55.12V58H2130.85V55.744L2137.42 47.968H2131.02V45.088H2142.15V47.344L2135.58 55.12H2142.37ZM2157.78 45.088V58H2154.22V56.464C2153.73 57.024 2153.14 57.456 2152.45 57.76C2151.76 58.048 2151.02 58.192 2150.22 58.192C2148.52 58.192 2147.18 57.704 2146.18 56.728C2145.19 55.752 2144.7 54.304 2144.7 52.384V45.088H2148.44V51.832C2148.44 53.912 2149.31 54.952 2151.06 54.952C2151.95 54.952 2152.67 54.664 2153.22 54.088C2153.76 53.496 2154.03 52.624 2154.03 51.472V45.088H2157.78ZM2164.82 46.792C2165.27 46.168 2165.87 45.696 2166.62 45.376C2167.39 45.056 2168.27 44.896 2169.26 44.896V48.352C2168.84 48.32 2168.56 48.304 2168.42 48.304C2167.35 48.304 2166.51 48.608 2165.9 49.216C2165.29 49.808 2164.99 50.704 2164.99 51.904V58H2161.24V45.088H2164.82V46.792Z" fill="black"/>
<path d="M2274.7 41.2C2276.19 41.2 2277.47 41.448 2278.56 41.944C2279.67 42.44 2280.51 43.144 2281.11 44.056C2281.7 44.968 2281.99 46.048 2281.99 47.296C2281.99 48.528 2281.7 49.608 2281.11 50.536C2280.51 51.448 2279.67 52.152 2278.56 52.648C2277.47 53.128 2276.19 53.368 2274.7 53.368H2271.31V58H2267.43V41.2H2274.7ZM2274.48 50.2C2275.65 50.2 2276.54 49.952 2277.15 49.456C2277.75 48.944 2278.06 48.224 2278.06 47.296C2278.06 46.352 2277.75 45.632 2277.15 45.136C2276.54 44.624 2275.65 44.368 2274.48 44.368H2271.31V50.2H2274.48ZM2289.6 44.896C2291.6 44.896 2293.13 45.376 2294.2 46.336C2295.28 47.28 2295.81 48.712 2295.81 50.632V58H2292.31V56.392C2291.6 57.592 2290.29 58.192 2288.37 58.192C2287.38 58.192 2286.52 58.024 2285.78 57.688C2285.06 57.352 2284.51 56.888 2284.12 56.296C2283.74 55.704 2283.55 55.032 2283.55 54.28C2283.55 53.08 2284 52.136 2284.89 51.448C2285.8 50.76 2287.2 50.416 2289.09 50.416H2292.07C2292.07 49.6 2291.82 48.976 2291.32 48.544C2290.83 48.096 2290.08 47.872 2289.09 47.872C2288.4 47.872 2287.72 47.984 2287.05 48.208C2286.4 48.416 2285.84 48.704 2285.37 49.072L2284.03 46.456C2284.73 45.96 2285.57 45.576 2286.55 45.304C2287.54 45.032 2288.56 44.896 2289.6 44.896ZM2289.31 55.672C2289.95 55.672 2290.52 55.528 2291.01 55.24C2291.51 54.936 2291.86 54.496 2292.07 53.92V52.6H2289.5C2287.96 52.6 2287.2 53.104 2287.2 54.112C2287.2 54.592 2287.38 54.976 2287.75 55.264C2288.13 55.536 2288.65 55.672 2289.31 55.672ZM2302.78 46.792C2303.22 46.168 2303.82 45.696 2304.58 45.376C2305.34 45.056 2306.22 44.896 2307.22 44.896V48.352C2306.8 48.32 2306.52 48.304 2306.38 48.304C2305.3 48.304 2304.46 48.608 2303.86 49.216C2303.25 49.808 2302.94 50.704 2302.94 51.904V58H2299.2V45.088H2302.78V46.792ZM2313.83 58.192C2312.76 58.192 2311.71 58.064 2310.69 57.808C2309.67 57.536 2308.85 57.2 2308.24 56.8L2309.49 54.112C2310.07 54.48 2310.76 54.784 2311.58 55.024C2312.39 55.248 2313.19 55.36 2313.98 55.36C2315.56 55.36 2316.35 54.968 2316.35 54.184C2316.35 53.816 2316.14 53.552 2315.71 53.392C2315.27 53.232 2314.61 53.096 2313.71 52.984C2312.66 52.824 2311.79 52.64 2311.1 52.432C2310.41 52.224 2309.81 51.856 2309.3 51.328C2308.8 50.8 2308.55 50.048 2308.55 49.072C2308.55 48.256 2308.79 47.536 2309.25 46.912C2309.73 46.272 2310.42 45.776 2311.31 45.424C2312.23 45.072 2313.3 44.896 2314.53 44.896C2315.44 44.896 2316.35 45 2317.24 45.208C2318.15 45.4 2318.91 45.672 2319.5 46.024L2318.25 48.688C2317.11 48.048 2315.87 47.728 2314.53 47.728C2313.73 47.728 2313.13 47.84 2312.73 48.064C2312.33 48.288 2312.13 48.576 2312.13 48.928C2312.13 49.328 2312.35 49.608 2312.78 49.768C2313.21 49.928 2313.9 50.08 2314.84 50.224C2315.9 50.4 2316.76 50.592 2317.43 50.8C2318.11 50.992 2318.69 51.352 2319.19 51.88C2319.68 52.408 2319.93 53.144 2319.93 54.088C2319.93 54.888 2319.69 55.6 2319.21 56.224C2318.73 56.848 2318.03 57.336 2317.1 57.688C2316.19 58.024 2315.1 58.192 2313.83 58.192ZM2334.89 51.592C2334.89 51.64 2334.86 51.976 2334.82 52.6H2325.05C2325.22 53.4 2325.64 54.032 2326.3 54.496C2326.95 54.96 2327.77 55.192 2328.74 55.192C2329.42 55.192 2330.01 55.096 2330.52 54.904C2331.05 54.696 2331.54 54.376 2331.98 53.944L2333.98 56.104C2332.76 57.496 2330.98 58.192 2328.65 58.192C2327.19 58.192 2325.9 57.912 2324.78 57.352C2323.66 56.776 2322.8 55.984 2322.19 54.976C2321.58 53.968 2321.28 52.824 2321.28 51.544C2321.28 50.28 2321.58 49.144 2322.17 48.136C2322.78 47.112 2323.6 46.32 2324.64 45.76C2325.7 45.184 2326.87 44.896 2328.17 44.896C2329.43 44.896 2330.58 45.168 2331.6 45.712C2332.62 46.256 2333.42 47.04 2334 48.064C2334.59 49.072 2334.89 50.248 2334.89 51.592ZM2328.19 47.728C2327.34 47.728 2326.63 47.968 2326.06 48.448C2325.48 48.928 2325.13 49.584 2325 50.416H2331.36C2331.23 49.6 2330.88 48.952 2330.3 48.472C2329.73 47.976 2329.02 47.728 2328.19 47.728ZM2337.38 40.192H2341.12V58H2337.38V40.192ZM2344.6 40.192H2348.34V58H2344.6V40.192ZM2364.47 51.592C2364.47 51.64 2364.44 51.976 2364.39 52.6H2354.63C2354.8 53.4 2355.22 54.032 2355.87 54.496C2356.53 54.96 2357.35 55.192 2358.32 55.192C2358.99 55.192 2359.59 55.096 2360.1 54.904C2360.63 54.696 2361.11 54.376 2361.56 53.944L2363.55 56.104C2362.34 57.496 2360.56 58.192 2358.23 58.192C2356.77 58.192 2355.48 57.912 2354.36 57.352C2353.24 56.776 2352.38 55.984 2351.77 54.976C2351.16 53.968 2350.86 52.824 2350.86 51.544C2350.86 50.28 2351.15 49.144 2351.75 48.136C2352.35 47.112 2353.18 46.32 2354.22 45.76C2355.27 45.184 2356.45 44.896 2357.75 44.896C2359.01 44.896 2360.15 45.168 2361.18 45.712C2362.2 46.256 2363 47.04 2363.58 48.064C2364.17 49.072 2364.47 50.248 2364.47 51.592ZM2357.77 47.728C2356.92 47.728 2356.21 47.968 2355.63 48.448C2355.06 48.928 2354.71 49.584 2354.58 50.416H2360.94C2360.81 49.6 2360.46 48.952 2359.88 48.472C2359.31 47.976 2358.6 47.728 2357.77 47.728ZM2370.53 46.792C2370.98 46.168 2371.58 45.696 2372.33 45.376C2373.1 45.056 2373.98 44.896 2374.97 44.896V48.352C2374.56 48.32 2374.28 48.304 2374.13 48.304C2373.06 48.304 2372.22 48.608 2371.61 49.216C2371.01 49.808 2370.7 50.704 2370.7 51.904V58H2366.96V45.088H2370.53V46.792Z" fill="black"/>
<rect x="470" y="123" width="6" height="22" fill="black"/>
<rect x="285" y="123" width="6" height="22" fill="black"/>
<rect x="655" y="123" width="6" height="22" fill="black"/>
<rect x="1389" y="123" width="6" height="22" fill="black"/>
<rect x="97" y="123" width="6" height="21" fill="black"/>
<g clip-path="url(#clip1_492_2163)">
<path d="M1374 161C1374 157.44 1375.06 153.96 1377.03 151C1379.01 148.04 1381.82 145.733 1385.11 144.37C1388.4 143.008 1392.02 142.651 1395.51 143.346C1399 144.04 1402.21 145.755 1404.73 148.272C1407.25 150.789 1408.96 153.997 1409.65 157.488C1410.35 160.98 1409.99 164.599 1408.63 167.888C1407.27 171.177 1404.96 173.989 1402 175.966C1399.04 177.944 1395.56 179 1392 179C1387.23 178.995 1382.65 177.097 1379.28 173.722C1375.9 170.348 1374.01 165.772 1374 161Z" fill="#9D9D9C"/>
<path d="M1376.41 155.6H1380.15L1382.96 164.458H1383L1385.75 155.58H1389.51L1389.53 167.29H1387.29L1387.27 157.622H1387.25L1384.11 167.29H1381.87L1378.69 157.643L1378.65 157.683L1378.67 167.31H1376.43L1376.41 155.6Z" fill="white"/>
<path d="M1390.95 165.105C1391.77 165.435 1392.65 165.613 1393.54 165.631C1394.51 165.631 1396.01 165.146 1396.01 163.973C1396.01 162.8 1394.91 162.132 1393.42 162.132H1392.2V160.292H1393.27C1394.85 160.292 1395.86 159.766 1395.86 158.755C1395.86 157.744 1394.99 157.157 1393.92 157.157C1393.01 157.166 1392.11 157.38 1391.29 157.784L1391.15 155.903C1392.2 155.503 1393.31 155.297 1394.43 155.296C1395.86 155.296 1398.29 155.802 1398.29 158.29C1398.32 158.95 1398.12 159.6 1397.73 160.131C1397.33 160.661 1396.77 161.04 1396.13 161.202C1396.77 161.307 1397.35 161.651 1397.74 162.165C1398.14 162.679 1398.33 163.325 1398.27 163.973C1398.27 166.764 1395.74 167.472 1393.8 167.472C1392.76 167.482 1391.73 167.353 1390.73 167.087L1390.95 165.105Z" fill="white"/>
<path d="M1398.79 162.942L1403.16 155.54H1406.08V163.063H1407.57V164.802H1406.08V167.27H1403.85V164.843H1398.82L1398.79 162.942ZM1403.85 163.083V157.987L1400.92 163.083H1403.85Z" fill="white"/>
</g>
<g clip-path="url(#clip2_492_2163)">
<path d="M82 161.001C82 157.441 83.0557 153.961 85.0335 151.001C87.0114 148.041 89.8226 145.734 93.1117 144.371C96.4008 143.009 100.02 142.652 103.512 143.347C107.003 144.041 110.211 145.756 112.728 148.273C115.245 150.79 116.96 153.998 117.654 157.489C118.349 160.981 117.992 164.6 116.63 167.889C115.267 171.178 112.96 173.99 110 175.967C107.04 177.945 103.56 179.001 100 179.001C97.6654 179.03 95.3478 178.6 93.1797 177.733C91.0116 176.867 89.0353 175.582 87.3638 173.952C85.6923 172.322 84.3583 170.378 83.438 168.232C82.5177 166.087 82.029 163.781 82 161.446V161.001Z" fill="#65656A"/>
<path d="M90.373 167.675V154.307H95.045C97.7753 154.307 99.3528 155.48 99.3528 157.725C99.3617 158.467 99.0928 159.185 98.5988 159.739C98.1048 160.293 97.4215 160.642 96.6832 160.718C97.4918 160.728 98.2647 161.053 98.8384 161.623C99.4121 162.193 99.7416 162.963 99.7573 163.772C99.7573 166.401 97.8764 167.635 94.9843 167.635L90.373 167.675ZM94.1348 159.707C95.8944 159.707 96.7034 159.14 96.7034 158.089C96.7034 157.037 96.1573 156.41 94.2764 156.41H93.0427V159.707H94.1348ZM94.3573 165.572C96.0966 165.572 97.0877 164.965 97.0877 163.711C97.0877 162.457 96.1978 161.689 94.418 161.689H93.0427V165.552L94.3573 165.572Z" fill="white"/>
<path d="M105.643 167.675V157.361L103.378 159.181L102.043 157.421L105.946 154.287H108.292V167.675H105.643Z" fill="white"/>
</g>
<circle cx="2320" cy="100" r="24" fill="#447ABE"/>
<g clip-path="url(#clip3_492_2163)">
<path d="M455 161C455.004 157.445 456.063 153.971 458.043 151.017C460.024 148.062 462.836 145.761 466.126 144.403C469.415 143.046 473.034 142.692 476.524 143.388C480.014 144.085 483.22 145.799 485.735 148.314C488.25 150.829 489.963 154.033 490.656 157.52C491.349 161.007 490.991 164.621 489.628 167.906C488.265 171.19 485.958 173.997 482.998 175.971C480.039 177.946 476.559 179 473 179C470.635 179 468.292 178.534 466.107 177.63C463.922 176.725 461.937 175.399 460.265 173.727C458.593 172.055 457.268 170.071 456.364 167.887C455.461 165.703 454.997 163.363 455 161Z" fill="#9D9D9C"/>
<path d="M471.605 156.253H467.621V154.051H478.381V156.253H474.396V167.95H471.605V156.253Z" fill="white"/>
</g>
<g clip-path="url(#clip4_492_2163)">
<path d="M270 161C270.004 157.445 271.063 153.971 273.043 151.017C275.024 148.062 277.836 145.761 281.126 144.403C284.415 143.046 288.034 142.692 291.524 143.388C295.014 144.085 298.22 145.799 300.735 148.314C303.25 150.829 304.963 154.033 305.656 157.52C306.349 161.007 305.991 164.621 304.628 167.906C303.265 171.19 300.958 173.997 297.998 175.971C295.039 177.946 291.559 179 288 179C285.635 179 283.292 178.534 281.107 177.63C278.922 176.725 276.937 175.399 275.265 173.727C273.593 172.055 272.268 170.071 271.364 167.887C270.461 165.703 269.997 163.363 270 161Z" fill="#9D9D9C"/>
<path d="M286.605 156.253H282.621V154.051H293.381V156.253H289.396V167.95H286.605V156.253Z" fill="white"/>
</g>
<g clip-path="url(#clip5_492_2163)">
<path d="M640 161C640.004 157.445 641.063 153.971 643.043 151.017C645.024 148.062 647.836 145.761 651.126 144.403C654.415 143.046 658.034 142.692 661.524 143.388C665.014 144.085 668.22 145.799 670.735 148.314C673.25 150.829 674.963 154.033 675.656 157.52C676.349 161.007 675.991 164.621 674.628 167.906C673.265 171.19 670.958 173.997 667.998 175.971C665.039 177.946 661.559 179 658 179C655.635 179 653.292 178.534 651.107 177.63C648.922 176.725 646.937 175.399 645.265 173.727C643.593 172.055 642.268 170.071 641.364 167.887C640.461 165.703 639.997 163.363 640 161Z" fill="#9D9D9C"/>
<path d="M656.605 156.253H652.621V154.051H663.381V156.253H659.396V167.95H656.605V156.253Z" fill="white"/>
</g>
<circle cx="1577" cy="100" r="24" fill="black"/>
<ellipse cx="1577" cy="99.9939" rx="19.2" ry="19.2" fill="white"/>
<rect x="1574" y="123" width="6" height="22" fill="black"/>
<g clip-path="url(#clip6_492_2163)">
<path d="M1559 161C1559 157.445 1560.06 153.971 1562.04 151.017C1564.02 148.062 1566.84 145.761 1570.13 144.403C1573.42 143.046 1577.03 142.692 1580.52 143.388C1584.01 144.085 1587.22 145.799 1589.74 148.314C1592.25 150.829 1593.96 154.033 1594.66 157.52C1595.35 161.007 1594.99 164.621 1593.63 167.906C1592.26 171.19 1589.96 173.997 1587 175.971C1584.04 177.946 1580.56 179 1577 179C1574.63 179 1572.29 178.534 1570.11 177.63C1567.92 176.725 1565.94 175.399 1564.26 173.727C1562.59 172.055 1561.27 170.071 1560.36 167.887C1559.46 165.703 1559 163.363 1559 161Z" fill="#9D9D9C"/>
<path d="M1575.61 156.253H1571.62V154.051H1582.38V156.253H1578.4V167.95H1575.61V156.253Z" fill="white"/>
</g>
<circle cx="1944" cy="100" r="24" fill="black"/>
<ellipse cx="1944" cy="99.9939" rx="19.2" ry="19.2" fill="white"/>
<rect x="1941" y="123" width="6" height="22" fill="black"/>
<g clip-path="url(#clip7_492_2163)">
<path d="M1926 161C1926 157.445 1927.06 153.971 1929.04 151.017C1931.02 148.062 1933.84 145.761 1937.13 144.403C1940.42 143.046 1944.03 142.692 1947.52 143.388C1951.01 144.085 1954.22 145.799 1956.74 148.314C1959.25 150.829 1960.96 154.033 1961.66 157.52C1962.35 161.007 1961.99 164.621 1960.63 167.906C1959.26 171.19 1956.96 173.997 1954 175.971C1951.04 177.946 1947.56 179 1944 179C1941.63 179 1939.29 178.534 1937.11 177.63C1934.92 176.725 1932.94 175.399 1931.26 173.727C1929.59 172.055 1928.27 170.071 1927.36 167.887C1926.46 165.703 1926 163.363 1926 161Z" fill="#9D9D9C"/>
<path d="M1942.61 156.253H1938.62V154.051H1949.38V156.253H1945.4V167.95H1942.61V156.253Z" fill="white"/>
</g>
<g clip-path="url(#clip8_492_2163)">
<path d="M658 179.025C654.431 179.032 650.941 177.981 647.971 176.006C645 174.031 642.683 171.221 641.313 167.93C639.942 164.639 639.58 161.016 640.272 157.52C640.964 154.024 642.679 150.811 645.2 148.288C647.72 145.766 650.934 144.047 654.433 143.349C657.933 142.651 661.561 143.005 664.858 144.368C668.156 145.73 670.975 148.039 672.958 151.002C674.941 153.965 676 157.448 676 161.012C676 165.784 674.105 170.36 670.73 173.737C667.355 177.114 662.777 179.016 658 179.025Z" fill="#E81F76"/>
<path d="M646.277 155.168H650.025L652.8 164.01H652.83L655.605 155.168H659.348V166.832H657.108V157.205H657.078L653.937 166.832H651.693L648.552 157.205L648.517 157.24V166.832H646.277V155.168Z" fill="white"/>
<path d="M660.98 162.514L665.344 155.164H668.25V162.669H669.753V164.41H668.25V166.832H666.01V164.41H661.001L660.98 162.514ZM665.99 162.664V157.605H665.96L663.085 162.669L665.99 162.664Z" fill="white"/>
</g>
<g clip-path="url(#clip9_492_2163)">
<path d="M1559 161C1559 151.082 1567.08 143 1577 143C1586.92 143 1595 151.082 1595 161C1595 170.918 1586.92 179 1577 179C1567.08 179 1559 170.918 1559 161Z" fill="#00A94F"/>
<path d="M1561.43 154.934H1565.48L1568.31 164.24L1571.13 154.934H1574.98V167.066H1572.75V157.166L1569.51 167.066H1567.08L1563.86 157.166V167.066H1561.43V154.934Z" fill="white"/>
<path d="M1580.44 154.934H1582.67V167.066H1580.24V157.76L1578.21 159.38L1577 157.958L1580.44 154.934Z" fill="white"/>
<path d="M1585.3 164.834C1586.11 165.23 1587.12 165.446 1587.93 165.446C1588.93 165.446 1590.55 165.05 1590.55 163.826C1590.55 162.404 1589.35 162.008 1587.93 162.008H1586.72V160.19H1587.73C1589.35 160.19 1590.36 159.578 1590.36 158.57C1590.36 157.364 1589.35 156.95 1588.34 156.95C1587.33 156.95 1586.52 157.148 1585.71 157.562L1585.51 155.546C1586.52 155.15 1587.75 154.934 1588.95 154.934C1590.37 154.934 1593 155.546 1593 157.976C1593 159.596 1591.99 160.406 1590.77 160.802C1592.39 161 1593 162.224 1593 163.628C1593 166.454 1590.37 167.264 1588.36 167.264C1587.35 167.264 1586.13 167.066 1585.12 166.868L1585.3 164.834Z" fill="white"/>
</g>
<g clip-path="url(#clip10_492_2163)">
<path d="M1944.03 179C1940.46 179.011 1936.97 177.962 1933.99 175.988C1931.02 174.013 1928.7 171.201 1927.33 167.907C1925.96 164.614 1925.6 160.988 1926.29 157.488C1926.98 153.989 1928.7 150.773 1931.22 148.249C1933.74 145.725 1936.96 144.007 1940.46 143.311C1943.96 142.615 1947.59 142.974 1950.88 144.341C1954.18 145.709 1957 148.023 1958.98 150.992C1960.95 153.961 1962.01 157.45 1962 161.017C1961.99 165.78 1960.1 170.346 1956.73 173.716C1953.36 177.085 1948.79 178.985 1944.03 179Z" fill="#673065"/>
<path d="M1932.72 155.162H1936.41L1939.14 163.86H1939.17L1941.9 155.162H1945.58V166.643H1943.38V157.169H1943.35L1940.26 166.643H1938.05L1934.96 157.169L1934.93 157.199V166.643H1932.72V155.162Z" fill="white"/>
<path d="M1954.98 156.868H1950.54L1950.49 159.321C1950.83 159.248 1951.19 159.209 1951.54 159.206C1953.15 159.206 1955.24 159.961 1955.24 162.939C1955.24 165.096 1953.74 166.838 1950.77 166.838C1949.87 166.829 1948.98 166.724 1948.1 166.523L1948.15 164.466C1948.88 164.814 1949.69 165.003 1950.5 165.021C1951.7 165.021 1952.95 164.461 1952.95 162.994C1952.95 161.528 1951.64 160.992 1950.32 160.992C1949.62 160.99 1948.93 161.095 1948.26 161.303L1948.38 155.137H1954.98V156.868Z" fill="white"/>
</g>
</g>
<defs>
<clipPath id="clip0_492_2163">
<rect width="2420" height="200" fill="white"/>
</clipPath>
<clipPath id="clip1_492_2163">
<rect width="36" height="36" fill="white" transform="translate(1374 143)"/>
</clipPath>
<clipPath id="clip2_492_2163">
<rect width="36" height="36" fill="white" transform="translate(82 143)"/>
</clipPath>
<clipPath id="clip3_492_2163">
<rect width="36" height="36" fill="white" transform="translate(455 143)"/>
</clipPath>
<clipPath id="clip4_492_2163">
<rect width="36" height="36" fill="white" transform="translate(270 143)"/>
</clipPath>
<clipPath id="clip5_492_2163">
<rect width="36" height="36" fill="white" transform="translate(640 143)"/>
</clipPath>
<clipPath id="clip6_492_2163">
<rect width="36" height="36" fill="white" transform="translate(1559 143)"/>
</clipPath>
<clipPath id="clip7_492_2163">
<rect width="36" height="36" fill="white" transform="translate(1926 143)"/>
</clipPath>
<clipPath id="clip8_492_2163">
<rect width="36" height="36" fill="white" transform="translate(640 143)"/>
</clipPath>
<clipPath id="clip9_492_2163">
<rect width="36" height="36" fill="white" transform="translate(1559 143)"/>
</clipPath>
<clipPath id="clip10_492_2163">
<rect width="36" height="36" fill="white" transform="translate(1926 143)"/>
</clipPath>
</defs>
</svg>
