<svg width="3510" height="230" viewBox="0 0 3510 230" fill="none" xmlns="http://www.w3.org/2000/svg">
<rect x="300" y="100" width="120" height="30" fill="#D9D9D9"/>
<path d="M302.951 107.684H308.674C309.807 107.684 310.65 107.732 311.203 107.83C311.763 107.921 312.261 108.117 312.697 108.416C313.14 108.715 313.508 109.116 313.801 109.617C314.094 110.112 314.24 110.669 314.24 111.287C314.24 111.958 314.058 112.573 313.693 113.133C313.335 113.693 312.847 114.113 312.229 114.393C313.101 114.646 313.771 115.079 314.24 115.691C314.709 116.303 314.943 117.023 314.943 117.85C314.943 118.501 314.79 119.135 314.484 119.754C314.185 120.366 313.771 120.857 313.244 121.229C312.723 121.593 312.079 121.818 311.311 121.902C310.829 121.954 309.667 121.987 307.824 122H302.951V107.684ZM305.842 110.066V113.377H307.736C308.863 113.377 309.562 113.361 309.836 113.328C310.331 113.27 310.718 113.1 310.998 112.82C311.285 112.534 311.428 112.16 311.428 111.697C311.428 111.255 311.304 110.896 311.057 110.623C310.816 110.343 310.454 110.174 309.973 110.115C309.686 110.083 308.863 110.066 307.502 110.066H305.842ZM305.842 115.76V119.588H308.518C309.559 119.588 310.22 119.559 310.5 119.5C310.93 119.422 311.278 119.233 311.545 118.934C311.818 118.628 311.955 118.221 311.955 117.713C311.955 117.283 311.851 116.919 311.643 116.619C311.434 116.32 311.132 116.102 310.734 115.965C310.344 115.828 309.491 115.76 308.176 115.76H305.842ZM318.809 114.93C318.809 113.471 319.027 112.247 319.463 111.258C319.788 110.529 320.231 109.874 320.791 109.295C321.357 108.715 321.976 108.286 322.646 108.006C323.538 107.628 324.567 107.439 325.732 107.439C327.842 107.439 329.528 108.094 330.791 109.402C332.061 110.711 332.695 112.531 332.695 114.861C332.695 117.173 332.067 118.982 330.811 120.291C329.554 121.593 327.874 122.244 325.771 122.244C323.643 122.244 321.95 121.596 320.693 120.301C319.437 118.999 318.809 117.208 318.809 114.93ZM321.787 114.832C321.787 116.453 322.161 117.684 322.91 118.523C323.659 119.357 324.609 119.773 325.762 119.773C326.914 119.773 327.858 119.36 328.594 118.533C329.336 117.7 329.707 116.453 329.707 114.793C329.707 113.152 329.346 111.928 328.623 111.121C327.907 110.314 326.953 109.91 325.762 109.91C324.57 109.91 323.61 110.32 322.881 111.141C322.152 111.954 321.787 113.185 321.787 114.832ZM336.229 117.342L339.041 117.068C339.21 118.012 339.552 118.706 340.066 119.148C340.587 119.591 341.287 119.812 342.166 119.812C343.097 119.812 343.797 119.617 344.266 119.227C344.741 118.829 344.979 118.367 344.979 117.84C344.979 117.501 344.878 117.215 344.676 116.98C344.48 116.74 344.135 116.531 343.641 116.355C343.302 116.238 342.531 116.03 341.326 115.73C339.777 115.346 338.689 114.874 338.064 114.314C337.186 113.527 336.746 112.566 336.746 111.434C336.746 110.704 336.951 110.024 337.361 109.393C337.778 108.755 338.374 108.27 339.148 107.938C339.93 107.605 340.87 107.439 341.971 107.439C343.768 107.439 345.118 107.833 346.023 108.621C346.935 109.409 347.413 110.46 347.459 111.775L344.568 111.902C344.445 111.167 344.178 110.639 343.768 110.32C343.364 109.995 342.755 109.832 341.941 109.832C341.102 109.832 340.444 110.005 339.969 110.35C339.663 110.571 339.51 110.867 339.51 111.238C339.51 111.577 339.653 111.867 339.939 112.107C340.304 112.413 341.189 112.732 342.596 113.064C344.002 113.396 345.04 113.742 345.711 114.1C346.388 114.451 346.915 114.936 347.293 115.555C347.677 116.167 347.869 116.925 347.869 117.83C347.869 118.65 347.641 119.419 347.186 120.135C346.73 120.851 346.085 121.385 345.252 121.736C344.419 122.081 343.38 122.254 342.137 122.254C340.327 122.254 338.937 121.837 337.967 121.004C336.997 120.164 336.417 118.943 336.229 117.342ZM355.523 122V110.105H351.275V107.684H362.652V110.105H358.414V122H355.523ZM377.953 122H374.809L373.559 118.748H367.836L366.654 122H363.588L369.164 107.684H372.221L377.953 122ZM372.631 116.336L370.658 111.023L368.725 116.336H372.631ZM381.525 122V107.684H384.338L390.197 117.244V107.684H392.883V122H389.982L384.211 112.664V122H381.525ZM407.109 116.736L409.912 117.625C409.482 119.188 408.766 120.35 407.764 121.111C406.768 121.867 405.501 122.244 403.965 122.244C402.064 122.244 400.501 121.596 399.277 120.301C398.053 118.999 397.441 117.221 397.441 114.969C397.441 112.586 398.057 110.737 399.287 109.422C400.518 108.1 402.135 107.439 404.141 107.439C405.892 107.439 407.314 107.957 408.408 108.992C409.059 109.604 409.548 110.483 409.873 111.629L407.012 112.312C406.842 111.57 406.488 110.984 405.947 110.555C405.413 110.125 404.762 109.91 403.994 109.91C402.933 109.91 402.07 110.291 401.406 111.053C400.749 111.814 400.42 113.048 400.42 114.754C400.42 116.564 400.745 117.853 401.396 118.621C402.048 119.389 402.894 119.773 403.936 119.773C404.704 119.773 405.365 119.529 405.918 119.041C406.471 118.553 406.868 117.785 407.109 116.736ZM414.314 122V107.684H417.205V122H414.314Z" fill="#949494"/>
<rect x="500" y="100" width="120" height="30" fill="#D9D9D9"/>
<path d="M514.693 122V107.684H525.309V110.105H517.584V113.279H524.771V115.691H517.584V119.588H525.582V122H514.693ZM529.994 122V107.684H534.32L536.918 117.449L539.486 107.684H543.822V122H541.137V110.73L538.295 122H535.512L532.68 110.73V122H529.994ZM548.723 122V107.684H551.535L557.395 117.244V107.684H560.08V122H557.18L551.408 112.664V122H548.723ZM584.881 122H581.736L580.486 118.748H574.764L573.582 122H570.516L576.092 107.684H579.148L584.881 122ZM579.559 116.336L577.586 111.023L575.652 116.336H579.559ZM588.502 122V107.801H591.393V119.588H598.58V122H588.502ZM602.562 122V107.684H605.453V122H602.562ZM602.67 106.863V104.266H605.365V106.863H602.67Z" fill="#949494"/>
<rect x="700" y="100" width="120" height="30" fill="#D9D9D9"/>
<path d="M716.584 122H713.439L712.189 118.748H706.467L705.285 122H702.219L707.795 107.684H710.852L716.584 122ZM711.262 116.336L709.289 111.023L707.355 116.336H711.262ZM722.051 122V115.975L716.807 107.684H720.195L723.564 113.348L726.865 107.684H730.195L724.932 115.994V122H722.051ZM732.898 117.342L735.711 117.068C735.88 118.012 736.222 118.706 736.736 119.148C737.257 119.591 737.957 119.812 738.836 119.812C739.767 119.812 740.467 119.617 740.936 119.227C741.411 118.829 741.648 118.367 741.648 117.84C741.648 117.501 741.548 117.215 741.346 116.98C741.15 116.74 740.805 116.531 740.311 116.355C739.972 116.238 739.201 116.03 737.996 115.73C736.447 115.346 735.359 114.874 734.734 114.314C733.855 113.527 733.416 112.566 733.416 111.434C733.416 110.704 733.621 110.024 734.031 109.393C734.448 108.755 735.044 108.27 735.818 107.938C736.6 107.605 737.54 107.439 738.641 107.439C740.438 107.439 741.788 107.833 742.693 108.621C743.605 109.409 744.083 110.46 744.129 111.775L741.238 111.902C741.115 111.167 740.848 110.639 740.438 110.32C740.034 109.995 739.425 109.832 738.611 109.832C737.771 109.832 737.114 110.005 736.639 110.35C736.333 110.571 736.18 110.867 736.18 111.238C736.18 111.577 736.323 111.867 736.609 112.107C736.974 112.413 737.859 112.732 739.266 113.064C740.672 113.396 741.71 113.742 742.381 114.1C743.058 114.451 743.585 114.936 743.963 115.555C744.347 116.167 744.539 116.925 744.539 117.83C744.539 118.65 744.311 119.419 743.855 120.135C743.4 120.851 742.755 121.385 741.922 121.736C741.089 122.081 740.05 122.254 738.807 122.254C736.997 122.254 735.607 121.837 734.637 121.004C733.667 120.164 733.087 118.943 732.898 117.342ZM736.189 125.936V124.783C736.86 124.855 737.475 124.891 738.035 124.891C738.615 124.891 739.044 124.786 739.324 124.578C739.539 124.422 739.646 124.22 739.646 123.973C739.646 123.751 739.546 123.559 739.344 123.396C739.142 123.234 738.829 123.152 738.406 123.152C737.99 123.152 737.563 123.217 737.127 123.348L737.381 122.381C737.889 122.205 738.436 122.117 739.021 122.117C739.835 122.117 740.454 122.296 740.877 122.654C741.3 123.012 741.512 123.449 741.512 123.963C741.512 124.536 741.277 125.001 740.809 125.359C740.177 125.848 739.272 126.092 738.094 126.092C737.254 126.092 736.619 126.04 736.189 125.936ZM748.971 122V107.684H759.586V110.105H751.861V113.279H759.049V115.691H751.861V119.588H759.859V122H748.971ZM771.916 122V107.684H774.807V114.041L780.646 107.684H784.533L779.143 113.26L784.826 122H781.086L777.15 115.281L774.807 117.674V122H771.916ZM788.32 107.684H793.604C794.795 107.684 795.703 107.775 796.328 107.957C797.168 108.204 797.887 108.644 798.486 109.275C799.085 109.907 799.541 110.682 799.854 111.6C800.166 112.511 800.322 113.637 800.322 114.979C800.322 116.157 800.176 117.173 799.883 118.025C799.525 119.067 799.014 119.91 798.35 120.555C797.848 121.043 797.171 121.424 796.318 121.697C795.68 121.899 794.827 122 793.76 122H788.32V107.684ZM791.211 110.105V119.588H793.369C794.176 119.588 794.759 119.542 795.117 119.451C795.586 119.334 795.973 119.135 796.279 118.855C796.592 118.576 796.846 118.117 797.041 117.479C797.236 116.834 797.334 115.958 797.334 114.852C797.334 113.745 797.236 112.895 797.041 112.303C796.846 111.71 796.572 111.248 796.221 110.916C795.869 110.584 795.423 110.359 794.883 110.242C794.479 110.151 793.688 110.105 792.51 110.105H791.211ZM804.812 122V107.684H807.625L813.484 117.244V107.684H816.17V122H813.27L807.498 112.664V122H804.812Z" fill="#949494"/>
<rect x="1000" y="100" width="120" height="30" fill="#D9D9D9"/>
<path d="M1003.54 122V107.684H1006.43V114.041L1012.27 107.684H1016.15L1010.76 113.26L1016.45 122H1012.71L1008.77 115.281L1006.43 117.674V122H1003.54ZM1019.37 114.93C1019.37 113.471 1019.58 112.247 1020.02 111.258C1020.35 110.529 1020.79 109.874 1021.35 109.295C1021.91 108.715 1022.53 108.286 1023.2 108.006C1024.1 107.628 1025.12 107.439 1026.29 107.439C1028.4 107.439 1030.08 108.094 1031.35 109.402C1032.62 110.711 1033.25 112.531 1033.25 114.861C1033.25 117.173 1032.62 118.982 1031.37 120.291C1030.11 121.593 1028.43 122.244 1026.33 122.244C1024.2 122.244 1022.51 121.596 1021.25 120.301C1019.99 118.999 1019.37 117.208 1019.37 114.93ZM1022.34 114.832C1022.34 116.453 1022.72 117.684 1023.47 118.523C1024.22 119.357 1025.17 119.773 1026.32 119.773C1027.47 119.773 1028.41 119.36 1029.15 118.533C1029.89 117.7 1030.26 116.453 1030.26 114.793C1030.26 113.152 1029.9 111.928 1029.18 111.121C1028.46 110.314 1027.51 109.91 1026.32 109.91C1025.13 109.91 1024.17 110.32 1023.44 111.141C1022.71 111.954 1022.34 113.185 1022.34 114.832ZM1036.28 122V119.393L1043.8 110.105H1037.13V107.684H1047.61V109.93L1039.76 119.588H1047.91V122H1036.28ZM1055.5 122V115.975L1050.26 107.684H1053.65L1057.02 113.348L1060.32 107.684H1063.65L1058.38 115.994V122H1055.5ZM1070.31 122V110.105H1066.06V107.684H1077.44V110.105H1073.2V122H1070.31ZM1092.74 122H1089.59L1088.34 118.748H1082.62L1081.44 122H1078.37L1083.95 107.684H1087L1092.74 122ZM1087.41 116.336L1085.44 111.023L1083.51 116.336H1087.41ZM1102.94 116.736V114.324H1109.17V120.027C1108.56 120.613 1107.69 121.131 1106.53 121.58C1105.39 122.023 1104.23 122.244 1103.05 122.244C1101.55 122.244 1100.24 121.932 1099.13 121.307C1098.02 120.675 1097.18 119.777 1096.62 118.611C1096.06 117.439 1095.78 116.167 1095.78 114.793C1095.78 113.302 1096.09 111.977 1096.72 110.818C1097.34 109.66 1098.26 108.771 1099.46 108.152C1100.38 107.677 1101.52 107.439 1102.89 107.439C1104.67 107.439 1106.05 107.814 1107.05 108.562C1108.05 109.305 1108.7 110.333 1108.98 111.648L1106.11 112.186C1105.91 111.482 1105.53 110.929 1104.97 110.525C1104.42 110.115 1103.72 109.91 1102.89 109.91C1101.63 109.91 1100.62 110.311 1099.87 111.111C1099.13 111.912 1098.76 113.1 1098.76 114.676C1098.76 116.375 1099.14 117.651 1099.89 118.504C1100.65 119.35 1101.64 119.773 1102.86 119.773C1103.47 119.773 1104.07 119.656 1104.68 119.422C1105.29 119.181 1105.81 118.891 1106.25 118.553V116.736H1102.94ZM1104.78 104.07H1106.11C1106.04 104.956 1105.72 105.652 1105.18 106.16C1104.64 106.661 1103.93 106.912 1103.07 106.912C1102.2 106.912 1101.49 106.661 1100.95 106.16C1100.41 105.652 1100.1 104.956 1100.02 104.07H1101.36C1101.4 104.533 1101.57 104.884 1101.85 105.125C1102.13 105.359 1102.53 105.477 1103.07 105.477C1103.6 105.477 1104.01 105.359 1104.29 105.125C1104.57 104.884 1104.73 104.533 1104.78 104.07ZM1113.76 122V107.684H1116.65V122H1113.76Z" fill="#949494"/>
<rect x="1200" y="100" width="120" height="30" fill="#D9D9D9"/>
<path d="M1206.02 122V107.684H1208.91V114.041L1214.75 107.684H1218.64L1213.25 113.26L1218.93 122H1215.19L1211.26 115.281L1208.91 117.674V122H1206.02ZM1231.6 116.736L1234.4 117.625C1233.97 119.188 1233.25 120.35 1232.25 121.111C1231.25 121.867 1229.99 122.244 1228.45 122.244C1226.55 122.244 1224.99 121.596 1223.76 120.301C1222.54 118.999 1221.93 117.221 1221.93 114.969C1221.93 112.586 1222.54 110.737 1223.77 109.422C1225 108.1 1226.62 107.439 1228.63 107.439C1230.38 107.439 1231.8 107.957 1232.89 108.992C1233.55 109.604 1234.03 110.483 1234.36 111.629L1231.5 112.312C1231.33 111.57 1230.97 110.984 1230.43 110.555C1229.9 110.125 1229.25 109.91 1228.48 109.91C1227.42 109.91 1226.56 110.291 1225.89 111.053C1225.24 111.814 1224.91 113.048 1224.91 114.754C1224.91 116.564 1225.23 117.853 1225.88 118.621C1226.53 119.389 1227.38 119.773 1228.42 119.773C1229.19 119.773 1229.85 119.529 1230.4 119.041C1230.96 118.553 1231.35 117.785 1231.6 116.736ZM1225.52 125.936V124.783C1226.19 124.855 1226.81 124.891 1227.37 124.891C1227.95 124.891 1228.38 124.786 1228.66 124.578C1228.87 124.422 1228.98 124.22 1228.98 123.973C1228.98 123.751 1228.88 123.559 1228.68 123.396C1228.47 123.234 1228.16 123.152 1227.74 123.152C1227.32 123.152 1226.9 123.217 1226.46 123.348L1226.71 122.381C1227.22 122.205 1227.77 122.117 1228.35 122.117C1229.17 122.117 1229.79 122.296 1230.21 122.654C1230.63 123.012 1230.84 123.449 1230.84 123.963C1230.84 124.536 1230.61 125.001 1230.14 125.359C1229.51 125.848 1228.6 126.092 1227.43 126.092C1226.59 126.092 1225.95 126.04 1225.52 125.936ZM1238.93 122V107.684H1241.82V114.041L1247.66 107.684H1251.54L1246.15 113.26L1251.84 122H1248.1L1244.16 115.281L1241.82 117.674V122H1238.93ZM1255.35 107.684H1261.07C1262.21 107.684 1263.05 107.732 1263.6 107.83C1264.16 107.921 1264.66 108.117 1265.1 108.416C1265.54 108.715 1265.91 109.116 1266.2 109.617C1266.49 110.112 1266.64 110.669 1266.64 111.287C1266.64 111.958 1266.46 112.573 1266.09 113.133C1265.74 113.693 1265.25 114.113 1264.63 114.393C1265.5 114.646 1266.17 115.079 1266.64 115.691C1267.11 116.303 1267.34 117.023 1267.34 117.85C1267.34 118.501 1267.19 119.135 1266.88 119.754C1266.59 120.366 1266.17 120.857 1265.64 121.229C1265.12 121.593 1264.48 121.818 1263.71 121.902C1263.23 121.954 1262.07 121.987 1260.22 122H1255.35V107.684ZM1258.24 110.066V113.377H1260.14C1261.26 113.377 1261.96 113.361 1262.24 113.328C1262.73 113.27 1263.12 113.1 1263.4 112.82C1263.68 112.534 1263.83 112.16 1263.83 111.697C1263.83 111.255 1263.7 110.896 1263.46 110.623C1263.22 110.343 1262.85 110.174 1262.37 110.115C1262.09 110.083 1261.26 110.066 1259.9 110.066H1258.24ZM1258.24 115.76V119.588H1260.92C1261.96 119.588 1262.62 119.559 1262.9 119.5C1263.33 119.422 1263.68 119.233 1263.95 118.934C1264.22 118.628 1264.36 118.221 1264.36 117.713C1264.36 117.283 1264.25 116.919 1264.04 116.619C1263.83 116.32 1263.53 116.102 1263.13 115.965C1262.74 115.828 1261.89 115.76 1260.58 115.76H1258.24ZM1271.83 122V107.684H1274.72V114.041L1280.56 107.684H1284.45L1279.06 113.26L1284.74 122H1281L1277.07 115.281L1274.72 117.674V122H1271.83ZM1288.29 122V107.684H1291.18V114.041L1297.02 107.684H1300.9L1295.51 113.26L1301.2 122H1297.46L1293.52 115.281L1291.18 117.674V122H1288.29ZM1304.78 122V107.801H1307.67V119.588H1314.86V122H1304.78Z" fill="#949494"/>
<rect x="1500" y="100" width="120" height="30" fill="#D9D9D9"/>
<path d="M1501.55 122V107.684H1504.45V122H1501.55ZM1501.66 106.863V104.266H1504.36V106.863H1501.66ZM1518.37 116.736L1521.17 117.625C1520.74 119.188 1520.03 120.35 1519.02 121.111C1518.03 121.867 1516.76 122.244 1515.22 122.244C1513.32 122.244 1511.76 121.596 1510.54 120.301C1509.31 118.999 1508.7 117.221 1508.7 114.969C1508.7 112.586 1509.32 110.737 1510.55 109.422C1511.78 108.1 1513.4 107.439 1515.4 107.439C1517.15 107.439 1518.57 107.957 1519.67 108.992C1520.32 109.604 1520.81 110.483 1521.13 111.629L1518.27 112.312C1518.1 111.57 1517.75 110.984 1517.21 110.555C1516.67 110.125 1516.02 109.91 1515.25 109.91C1514.19 109.91 1513.33 110.291 1512.67 111.053C1512.01 111.814 1511.68 113.048 1511.68 114.754C1511.68 116.564 1512.01 117.853 1512.66 118.621C1513.31 119.389 1514.15 119.773 1515.2 119.773C1515.96 119.773 1516.62 119.529 1517.18 119.041C1517.73 118.553 1518.13 117.785 1518.37 116.736ZM1512.29 125.936V124.783C1512.97 124.855 1513.58 124.891 1514.14 124.891C1514.72 124.891 1515.15 124.786 1515.43 124.578C1515.64 124.422 1515.75 124.22 1515.75 123.973C1515.75 123.751 1515.65 123.559 1515.45 123.396C1515.25 123.234 1514.93 123.152 1514.51 123.152C1514.1 123.152 1513.67 123.217 1513.23 123.348L1513.49 122.381C1513.99 122.205 1514.54 122.117 1515.13 122.117C1515.94 122.117 1516.56 122.296 1516.98 122.654C1517.41 123.012 1517.62 123.449 1517.62 123.963C1517.62 124.536 1517.38 125.001 1516.91 125.359C1516.28 125.848 1515.38 126.092 1514.2 126.092C1513.36 126.092 1512.72 126.04 1512.29 125.936ZM1525.66 122V107.684H1536.28V110.105H1528.55V113.279H1535.74V115.691H1528.55V119.588H1536.55V122H1525.66ZM1541.01 122V107.684H1547.1C1548.63 107.684 1549.74 107.814 1550.43 108.074C1551.12 108.328 1551.68 108.784 1552.1 109.441C1552.51 110.099 1552.72 110.851 1552.72 111.697C1552.72 112.771 1552.4 113.66 1551.77 114.363C1551.14 115.06 1550.2 115.499 1548.94 115.682C1549.57 116.046 1550.08 116.447 1550.48 116.883C1550.89 117.319 1551.44 118.094 1552.13 119.207L1553.88 122H1550.43L1548.34 118.885C1547.59 117.771 1547.09 117.072 1546.81 116.785C1546.54 116.492 1546.25 116.294 1545.94 116.189C1545.64 116.079 1545.15 116.023 1544.49 116.023H1543.9V122H1541.01ZM1543.9 113.738H1546.04C1547.43 113.738 1548.29 113.68 1548.64 113.562C1548.98 113.445 1549.25 113.243 1549.45 112.957C1549.64 112.671 1549.74 112.312 1549.74 111.883C1549.74 111.401 1549.61 111.014 1549.35 110.721C1549.1 110.421 1548.74 110.232 1548.27 110.154C1548.03 110.122 1547.33 110.105 1546.16 110.105H1543.9V113.738ZM1557.48 122V107.684H1560.3L1566.16 117.244V107.684H1568.84V122H1565.94L1560.17 112.664V122H1557.48ZM1573.95 122V107.684H1576.84V114.041L1582.68 107.684H1586.56L1581.17 113.26L1586.86 122H1583.12L1579.18 115.281L1576.84 117.674V122H1573.95ZM1589.78 114.93C1589.78 113.471 1589.99 112.247 1590.43 111.258C1590.76 110.529 1591.2 109.874 1591.76 109.295C1592.32 108.715 1592.94 108.286 1593.61 108.006C1594.51 107.628 1595.53 107.439 1596.7 107.439C1598.81 107.439 1600.49 108.094 1601.76 109.402C1603.03 110.711 1603.66 112.531 1603.66 114.861C1603.66 117.173 1603.03 118.982 1601.78 120.291C1600.52 121.593 1598.84 122.244 1596.74 122.244C1594.61 122.244 1592.92 121.596 1591.66 120.301C1590.4 118.999 1589.78 117.208 1589.78 114.93ZM1592.75 114.832C1592.75 116.453 1593.13 117.684 1593.88 118.523C1594.63 119.357 1595.58 119.773 1596.73 119.773C1597.88 119.773 1598.82 119.36 1599.56 118.533C1600.3 117.7 1600.67 116.453 1600.67 114.793C1600.67 113.152 1600.31 111.928 1599.59 111.121C1598.87 110.314 1597.92 109.91 1596.73 109.91C1595.54 109.91 1594.58 110.32 1593.85 111.141C1593.12 111.954 1592.75 113.185 1592.75 114.832ZM1593.27 106.863V104.51H1595.62V106.863H1593.27ZM1597.47 106.863V104.51H1599.83V106.863H1597.47ZM1611.69 122V115.975L1606.44 107.684H1609.83L1613.2 113.348L1616.5 107.684H1619.83L1614.57 115.994V122H1611.69Z" fill="#949494"/>
<rect x="1700" y="170" width="120" height="30" fill="#D9D9D9"/>
<rect x="1700" y="30" width="120" height="30" fill="#D9D9D9"/>
<path d="M1702.6 52V37.6836H1705.49V44.041L1711.33 37.6836H1715.22L1709.83 43.2598L1715.51 52H1711.77L1707.83 45.2812L1705.49 47.6738V52H1702.6ZM1731.92 52H1728.78L1727.53 48.748H1721.81L1720.62 52H1717.56L1723.13 37.6836H1726.19L1731.92 52ZM1726.6 46.3359L1724.63 41.0234L1722.7 46.3359H1726.6ZM1737.39 52V45.9746L1732.15 37.6836H1735.54L1738.9 43.3477L1742.21 37.6836H1745.54L1740.27 45.9941V52H1737.39ZM1748.24 47.3418L1751.05 47.0684C1751.22 48.0124 1751.56 48.7057 1752.08 49.1484C1752.6 49.5911 1753.3 49.8125 1754.18 49.8125C1755.11 49.8125 1755.81 49.6172 1756.28 49.2266C1756.75 48.8294 1756.99 48.3672 1756.99 47.8398C1756.99 47.5013 1756.89 47.2148 1756.69 46.9805C1756.49 46.7396 1756.15 46.5312 1755.65 46.3555C1755.31 46.2383 1754.54 46.0299 1753.34 45.7305C1751.79 45.3464 1750.7 44.8743 1750.07 44.3145C1749.2 43.5267 1748.76 42.5664 1748.76 41.4336C1748.76 40.7044 1748.96 40.0241 1749.37 39.3926C1749.79 38.7546 1750.38 38.2695 1751.16 37.9375C1751.94 37.6055 1752.88 37.4395 1753.98 37.4395C1755.78 37.4395 1757.13 37.8333 1758.03 38.6211C1758.94 39.4089 1759.42 40.4603 1759.47 41.7754L1756.58 41.9023C1756.45 41.1667 1756.19 40.6393 1755.78 40.3203C1755.37 39.9948 1754.76 39.832 1753.95 39.832C1753.11 39.832 1752.45 40.0046 1751.98 40.3496C1751.67 40.571 1751.52 40.8672 1751.52 41.2383C1751.52 41.5768 1751.66 41.8665 1751.95 42.1074C1752.31 42.4134 1753.2 42.7324 1754.61 43.0645C1756.01 43.3965 1757.05 43.7415 1757.72 44.0996C1758.4 44.4512 1758.93 44.9362 1759.3 45.5547C1759.69 46.1667 1759.88 46.9251 1759.88 47.8301C1759.88 48.6504 1759.65 49.4186 1759.2 50.1348C1758.74 50.8509 1758.1 51.3848 1757.26 51.7363C1756.43 52.0814 1755.39 52.2539 1754.15 52.2539C1752.34 52.2539 1750.95 51.8372 1749.98 51.0039C1749.01 50.1641 1748.43 48.9434 1748.24 47.3418ZM1751.53 55.9355V54.7832C1752.2 54.8548 1752.82 54.8906 1753.38 54.8906C1753.95 54.8906 1754.38 54.7865 1754.66 54.5781C1754.88 54.4219 1754.99 54.2201 1754.99 53.9727C1754.99 53.7513 1754.89 53.5592 1754.68 53.3965C1754.48 53.2337 1754.17 53.1523 1753.75 53.1523C1753.33 53.1523 1752.9 53.2174 1752.47 53.3477L1752.72 52.3809C1753.23 52.2051 1753.78 52.1172 1754.36 52.1172C1755.18 52.1172 1755.79 52.2962 1756.22 52.6543C1756.64 53.0124 1756.85 53.4486 1756.85 53.9629C1756.85 54.5358 1756.62 55.0013 1756.15 55.3594C1755.52 55.8477 1754.61 56.0918 1753.43 56.0918C1752.59 56.0918 1751.96 56.0397 1751.53 55.9355ZM1764.3 37.6836H1769.58C1770.78 37.6836 1771.68 37.7747 1772.31 37.957C1773.15 38.2044 1773.87 38.6439 1774.47 39.2754C1775.07 39.9069 1775.52 40.6816 1775.83 41.5996C1776.15 42.5111 1776.3 43.6374 1776.3 44.9785C1776.3 46.1569 1776.16 47.1725 1775.86 48.0254C1775.51 49.0671 1774.99 49.9102 1774.33 50.5547C1773.83 51.043 1773.15 51.4238 1772.3 51.6973C1771.66 51.8991 1770.81 52 1769.74 52H1764.3V37.6836ZM1767.19 40.1055V49.5879H1769.35C1770.16 49.5879 1770.74 49.5423 1771.1 49.4512C1771.57 49.334 1771.95 49.1354 1772.26 48.8555C1772.57 48.5755 1772.83 48.1165 1773.02 47.4785C1773.22 46.834 1773.31 45.9583 1773.31 44.8516C1773.31 43.7448 1773.22 42.8952 1773.02 42.3027C1772.83 41.7103 1772.55 41.248 1772.2 40.916C1771.85 40.584 1771.4 40.3594 1770.86 40.2422C1770.46 40.151 1769.67 40.1055 1768.49 40.1055H1767.19ZM1793.67 52H1790.53L1789.28 48.748H1783.56L1782.38 52H1779.31L1784.88 37.6836H1787.94L1793.67 52ZM1788.35 46.3359L1786.38 41.0234L1784.45 46.3359H1788.35ZM1803.88 46.7363V44.3242H1810.11V50.0273C1809.5 50.6133 1808.62 51.1309 1807.47 51.5801C1806.32 52.0228 1805.16 52.2441 1803.98 52.2441C1802.49 52.2441 1801.18 51.9316 1800.07 51.3066C1798.96 50.6751 1798.12 49.7767 1797.56 48.6113C1797 47.4395 1796.72 46.1667 1796.72 44.793C1796.72 43.3021 1797.03 41.9772 1797.66 40.8184C1798.28 39.6595 1799.2 38.7708 1800.4 38.1523C1801.32 37.6771 1802.46 37.4395 1803.83 37.4395C1805.61 37.4395 1806.99 37.8138 1807.99 38.5625C1808.99 39.3047 1809.64 40.3333 1809.92 41.6484L1807.05 42.1855C1806.85 41.4824 1806.47 40.929 1805.91 40.5254C1805.35 40.1152 1804.66 39.9102 1803.83 39.9102C1802.57 39.9102 1801.56 40.3105 1800.81 41.1113C1800.07 41.9121 1799.7 43.1003 1799.7 44.6758C1799.7 46.375 1800.07 47.651 1800.83 48.5039C1801.59 49.3503 1802.57 49.7734 1803.8 49.7734C1804.4 49.7734 1805.01 49.6562 1805.62 49.4219C1806.23 49.181 1806.75 48.8913 1807.19 48.5527V46.7363H1803.88ZM1805.71 34.0703H1807.05C1806.97 34.9557 1806.66 35.6523 1806.11 36.1602C1805.57 36.6615 1804.87 36.9121 1804 36.9121C1803.14 36.9121 1802.43 36.6615 1801.88 36.1602C1801.34 35.6523 1801.04 34.9557 1800.96 34.0703H1802.29C1802.34 34.5326 1802.5 34.8841 1802.78 35.125C1803.06 35.3594 1803.47 35.4766 1804 35.4766C1804.54 35.4766 1804.94 35.3594 1805.22 35.125C1805.5 34.8841 1805.67 34.5326 1805.71 34.0703ZM1814.7 52V37.6836H1817.59V52H1814.7Z" fill="#949494"/>
<rect x="1900" y="100" width="120" height="30" fill="#D9D9D9"/>
<path d="M1905.95 122V107.684H1910.28L1912.88 117.449L1915.45 107.684H1919.78V122H1917.1V110.73L1914.25 122H1911.47L1908.64 110.73V122H1905.95ZM1924.65 122V107.684H1935.27V110.105H1927.54V113.279H1934.73V115.691H1927.54V119.588H1935.54V122H1924.65ZM1943.64 122L1938.53 107.684H1941.66L1945.29 118.279L1948.79 107.684H1951.86L1946.73 122H1943.64ZM1955.41 122V107.801H1958.3V119.588H1965.49V122H1955.41ZM1982.47 122H1979.32L1978.07 118.748H1972.35L1971.17 122H1968.1L1973.68 107.684H1976.74L1982.47 122ZM1977.15 116.336L1975.17 111.023L1973.24 116.336H1977.15ZM1986.04 122V107.684H1988.85L1994.71 117.244V107.684H1997.4V122H1994.5L1988.73 112.664V122H1986.04ZM2015.38 122H2012.23L2010.98 118.748H2005.26L2004.08 122H2001.01L2006.59 107.684H2009.64L2015.38 122ZM2010.05 116.336L2008.08 111.023L2006.15 116.336H2010.05Z" fill="#949494"/>
<rect x="2100" y="100" width="120" height="30" fill="#D9D9D9"/>
<path d="M2133.91 122V107.684H2136.8V122H2133.91ZM2134.02 106.863V104.266H2136.72V106.863H2134.02ZM2141.53 122V107.684H2145.86L2148.45 117.449L2151.02 107.684H2155.36V122H2152.67V110.73L2149.83 122H2147.05L2144.21 110.73V122H2141.53ZM2160.23 122V107.684H2170.84V110.105H2163.12V113.279H2170.31V115.691H2163.12V119.588H2171.12V122H2160.23ZM2174.84 117.342L2177.65 117.068C2177.82 118.012 2178.16 118.706 2178.67 119.148C2179.19 119.591 2179.89 119.812 2180.77 119.812C2181.7 119.812 2182.4 119.617 2182.87 119.227C2183.35 118.829 2183.59 118.367 2183.59 117.84C2183.59 117.501 2183.49 117.215 2183.28 116.98C2183.09 116.74 2182.74 116.531 2182.25 116.355C2181.91 116.238 2181.14 116.03 2179.93 115.73C2178.38 115.346 2177.3 114.874 2176.67 114.314C2175.79 113.527 2175.35 112.566 2175.35 111.434C2175.35 110.704 2175.56 110.024 2175.97 109.393C2176.39 108.755 2176.98 108.27 2177.76 107.938C2178.54 107.605 2179.48 107.439 2180.58 107.439C2182.38 107.439 2183.73 107.833 2184.63 108.621C2185.54 109.409 2186.02 110.46 2186.07 111.775L2183.18 111.902C2183.05 111.167 2182.79 110.639 2182.38 110.32C2181.97 109.995 2181.36 109.832 2180.55 109.832C2179.71 109.832 2179.05 110.005 2178.58 110.35C2178.27 110.571 2178.12 110.867 2178.12 111.238C2178.12 111.577 2178.26 111.867 2178.55 112.107C2178.91 112.413 2179.8 112.732 2181.2 113.064C2182.61 113.396 2183.65 113.742 2184.32 114.1C2185 114.451 2185.52 114.936 2185.9 115.555C2186.28 116.167 2186.48 116.925 2186.48 117.83C2186.48 118.65 2186.25 119.419 2185.79 120.135C2185.34 120.851 2184.69 121.385 2183.86 121.736C2183.03 122.081 2181.99 122.254 2180.74 122.254C2178.93 122.254 2177.54 121.837 2176.57 121.004C2175.6 120.164 2175.02 118.943 2174.84 117.342Z" fill="#949494"/>
<rect x="2400" y="100" width="120" height="30" fill="#D9D9D9"/>
<path d="M2410.28 122V107.684H2414.61L2417.21 117.449L2419.78 107.684H2424.11V122H2421.43V110.73L2418.58 122H2415.8L2412.97 110.73V122H2410.28ZM2428.4 114.93C2428.4 113.471 2428.61 112.247 2429.05 111.258C2429.38 110.529 2429.82 109.874 2430.38 109.295C2430.95 108.715 2431.56 108.286 2432.23 108.006C2433.13 107.628 2434.15 107.439 2435.32 107.439C2437.43 107.439 2439.12 108.094 2440.38 109.402C2441.65 110.711 2442.28 112.531 2442.28 114.861C2442.28 117.173 2441.65 118.982 2440.4 120.291C2439.14 121.593 2437.46 122.244 2435.36 122.244C2433.23 122.244 2431.54 121.596 2430.28 120.301C2429.02 118.999 2428.4 117.208 2428.4 114.93ZM2431.38 114.832C2431.38 116.453 2431.75 117.684 2432.5 118.523C2433.25 119.357 2434.2 119.773 2435.35 119.773C2436.5 119.773 2437.45 119.36 2438.18 118.533C2438.92 117.7 2439.29 116.453 2439.29 114.793C2439.29 113.152 2438.93 111.928 2438.21 111.121C2437.49 110.314 2436.54 109.91 2435.35 109.91C2434.16 109.91 2433.2 110.32 2432.47 111.141C2431.74 111.954 2431.38 113.185 2431.38 114.832ZM2446.54 107.684H2451.82C2453.01 107.684 2453.92 107.775 2454.55 107.957C2455.39 108.204 2456.11 108.644 2456.71 109.275C2457.3 109.907 2457.76 110.682 2458.07 111.6C2458.38 112.511 2458.54 113.637 2458.54 114.979C2458.54 116.157 2458.39 117.173 2458.1 118.025C2457.74 119.067 2457.23 119.91 2456.57 120.555C2456.07 121.043 2455.39 121.424 2454.54 121.697C2453.9 121.899 2453.05 122 2451.98 122H2446.54V107.684ZM2449.43 110.105V119.588H2451.59C2452.4 119.588 2452.98 119.542 2453.34 119.451C2453.8 119.334 2454.19 119.135 2454.5 118.855C2454.81 118.576 2455.06 118.117 2455.26 117.479C2455.46 116.834 2455.55 115.958 2455.55 114.852C2455.55 113.745 2455.46 112.895 2455.26 112.303C2455.06 111.71 2454.79 111.248 2454.44 110.916C2454.09 110.584 2453.64 110.359 2453.1 110.242C2452.7 110.151 2451.91 110.105 2450.73 110.105H2449.43ZM2462.42 114.93C2462.42 113.471 2462.63 112.247 2463.07 111.258C2463.4 110.529 2463.84 109.874 2464.4 109.295C2464.96 108.715 2465.58 108.286 2466.25 108.006C2467.15 107.628 2468.17 107.439 2469.34 107.439C2471.45 107.439 2473.14 108.094 2474.4 109.402C2475.67 110.711 2476.3 112.531 2476.3 114.861C2476.3 117.173 2475.67 118.982 2474.42 120.291C2473.16 121.593 2471.48 122.244 2469.38 122.244C2467.25 122.244 2465.56 121.596 2464.3 120.301C2463.04 118.999 2462.42 117.208 2462.42 114.93ZM2465.39 114.832C2465.39 116.453 2465.77 117.684 2466.52 118.523C2467.27 119.357 2468.22 119.773 2469.37 119.773C2470.52 119.773 2471.47 119.36 2472.2 118.533C2472.94 117.7 2473.31 116.453 2473.31 114.793C2473.31 113.152 2472.95 111.928 2472.23 111.121C2471.51 110.314 2470.56 109.91 2469.37 109.91C2468.18 109.91 2467.22 110.32 2466.49 111.141C2465.76 111.954 2465.39 113.185 2465.39 114.832ZM2480.61 122V107.684H2483.5V114.041L2489.34 107.684H2493.22L2487.83 113.26L2493.52 122H2489.78L2485.84 115.281L2483.5 117.674V122H2480.61ZM2496.44 114.93C2496.44 113.471 2496.65 112.247 2497.09 111.258C2497.42 110.529 2497.86 109.874 2498.42 109.295C2498.98 108.715 2499.6 108.286 2500.27 108.006C2501.17 107.628 2502.19 107.439 2503.36 107.439C2505.47 107.439 2507.15 108.094 2508.42 109.402C2509.69 110.711 2510.32 112.531 2510.32 114.861C2510.32 117.173 2509.69 118.982 2508.44 120.291C2507.18 121.593 2505.5 122.244 2503.4 122.244C2501.27 122.244 2499.58 121.596 2498.32 120.301C2497.06 118.999 2496.44 117.208 2496.44 114.93ZM2499.41 114.832C2499.41 116.453 2499.79 117.684 2500.54 118.523C2501.29 119.357 2502.24 119.773 2503.39 119.773C2504.54 119.773 2505.49 119.36 2506.22 118.533C2506.96 117.7 2507.33 116.453 2507.33 114.793C2507.33 113.152 2506.97 111.928 2506.25 111.121C2505.53 110.314 2504.58 109.91 2503.39 109.91C2502.2 109.91 2501.24 110.32 2500.51 111.141C2499.78 111.954 2499.41 113.185 2499.41 114.832Z" fill="#949494"/>
<rect x="2600" y="100" width="120" height="30" fill="#D9D9D9"/>
<path d="M2607.09 107.684H2612.37C2613.56 107.684 2614.47 107.775 2615.09 107.957C2615.93 108.204 2616.65 108.644 2617.25 109.275C2617.85 109.907 2618.31 110.682 2618.62 111.6C2618.93 112.511 2619.09 113.637 2619.09 114.979C2619.09 116.157 2618.94 117.173 2618.65 118.025C2618.29 119.067 2617.78 119.91 2617.12 120.555C2616.61 121.043 2615.94 121.424 2615.08 121.697C2614.45 121.899 2613.59 122 2612.53 122H2607.09V107.684ZM2609.98 110.105V119.588H2612.13C2612.94 119.588 2613.52 119.542 2613.88 119.451C2614.35 119.334 2614.74 119.135 2615.04 118.855C2615.36 118.576 2615.61 118.117 2615.81 117.479C2616 116.834 2616.1 115.958 2616.1 114.852C2616.1 113.745 2616 112.895 2615.81 112.303C2615.61 111.71 2615.34 111.248 2614.99 110.916C2614.63 110.584 2614.19 110.359 2613.65 110.242C2613.24 110.151 2612.45 110.105 2611.28 110.105H2609.98ZM2623.53 107.684H2626.42V115.438C2626.42 116.668 2626.46 117.465 2626.53 117.83C2626.65 118.416 2626.94 118.888 2627.41 119.246C2627.88 119.598 2628.51 119.773 2629.32 119.773C2630.14 119.773 2630.76 119.607 2631.18 119.275C2631.59 118.937 2631.84 118.523 2631.93 118.035C2632.01 117.547 2632.05 116.736 2632.05 115.604V107.684H2634.95V115.203C2634.95 116.922 2634.87 118.136 2634.71 118.846C2634.55 119.555 2634.26 120.154 2633.84 120.643C2633.43 121.131 2632.87 121.521 2632.16 121.814C2631.46 122.101 2630.54 122.244 2629.41 122.244C2628.04 122.244 2627 122.088 2626.29 121.775C2625.59 121.456 2625.03 121.046 2624.62 120.545C2624.21 120.037 2623.94 119.507 2623.81 118.953C2623.62 118.133 2623.53 116.922 2623.53 115.32V107.684ZM2639.99 107.684H2645.28C2646.47 107.684 2647.38 107.775 2648 107.957C2648.84 108.204 2649.56 108.644 2650.16 109.275C2650.76 109.907 2651.21 110.682 2651.53 111.6C2651.84 112.511 2651.99 113.637 2651.99 114.979C2651.99 116.157 2651.85 117.173 2651.55 118.025C2651.2 119.067 2650.69 119.91 2650.02 120.555C2649.52 121.043 2648.84 121.424 2647.99 121.697C2647.35 121.899 2646.5 122 2645.43 122H2639.99V107.684ZM2642.88 110.105V119.588H2645.04C2645.85 119.588 2646.43 119.542 2646.79 119.451C2647.26 119.334 2647.65 119.135 2647.95 118.855C2648.26 118.576 2648.52 118.117 2648.71 117.479C2648.91 116.834 2649.01 115.958 2649.01 114.852C2649.01 113.745 2648.91 112.895 2648.71 112.303C2648.52 111.71 2648.24 111.248 2647.89 110.916C2647.54 110.584 2647.1 110.359 2646.55 110.242C2646.15 110.151 2645.36 110.105 2644.18 110.105H2642.88ZM2656.44 107.684H2659.33V115.438C2659.33 116.668 2659.36 117.465 2659.43 117.83C2659.56 118.416 2659.85 118.888 2660.31 119.246C2660.78 119.598 2661.42 119.773 2662.23 119.773C2663.05 119.773 2663.67 119.607 2664.08 119.275C2664.5 118.937 2664.75 118.523 2664.83 118.035C2664.92 117.547 2664.96 116.736 2664.96 115.604V107.684H2667.85V115.203C2667.85 116.922 2667.77 118.136 2667.62 118.846C2667.46 119.555 2667.17 120.154 2666.75 120.643C2666.33 121.131 2665.77 121.521 2665.07 121.814C2664.37 122.101 2663.45 122.244 2662.31 122.244C2660.95 122.244 2659.91 122.088 2659.2 121.775C2658.5 121.456 2657.94 121.046 2657.53 120.545C2657.12 120.037 2656.85 119.507 2656.72 118.953C2656.53 118.133 2656.44 116.922 2656.44 115.32V107.684ZM2672.99 122V107.801H2675.88V119.588H2683.06V122H2672.99ZM2687.21 122V107.801H2690.1V119.588H2697.29V122H2687.21ZM2701.34 107.684H2704.23V115.438C2704.23 116.668 2704.27 117.465 2704.34 117.83C2704.46 118.416 2704.76 118.888 2705.22 119.246C2705.69 119.598 2706.33 119.773 2707.13 119.773C2707.95 119.773 2708.57 119.607 2708.99 119.275C2709.4 118.937 2709.66 118.523 2709.74 118.035C2709.82 117.547 2709.87 116.736 2709.87 115.604V107.684H2712.76V115.203C2712.76 116.922 2712.68 118.136 2712.52 118.846C2712.37 119.555 2712.08 120.154 2711.65 120.643C2711.24 121.131 2710.68 121.521 2709.97 121.814C2709.27 122.101 2708.35 122.244 2707.22 122.244C2705.85 122.244 2704.82 122.088 2704.11 121.775C2703.4 121.456 2702.85 121.046 2702.44 120.545C2702.03 120.037 2701.76 119.507 2701.62 118.953C2701.44 118.133 2701.34 116.922 2701.34 115.32V107.684Z" fill="#949494"/>
<rect x="2800" y="170" width="120" height="30" fill="#D9D9D9"/>
<rect x="2800" y="30" width="120" height="30" fill="#D9D9D9"/>
<path d="M2822.45 122V107.684H2825.34V113.318H2831V107.684H2833.89V122H2831V115.74H2825.34V122H2822.45ZM2838.87 107.684H2841.76V115.438C2841.76 116.668 2841.8 117.465 2841.87 117.83C2841.99 118.416 2842.28 118.888 2842.75 119.246C2843.21 119.598 2843.85 119.773 2844.66 119.773C2845.48 119.773 2846.1 119.607 2846.52 119.275C2846.93 118.937 2847.18 118.523 2847.27 118.035C2847.35 117.547 2847.39 116.736 2847.39 115.604V107.684H2850.29V115.203C2850.29 116.922 2850.21 118.136 2850.05 118.846C2849.89 119.555 2849.6 120.154 2849.18 120.643C2848.76 121.131 2848.21 121.521 2847.5 121.814C2846.8 122.101 2845.88 122.244 2844.75 122.244C2843.38 122.244 2842.34 122.088 2841.63 121.775C2840.93 121.456 2840.37 121.046 2839.96 120.545C2839.55 120.037 2839.28 119.507 2839.15 118.953C2838.96 118.133 2838.87 116.922 2838.87 115.32V107.684ZM2854.1 122V119.393L2861.62 110.105H2854.95V107.684H2865.43V109.93L2857.59 119.588H2865.73V122H2854.1ZM2869.55 107.684H2872.44V115.438C2872.44 116.668 2872.48 117.465 2872.55 117.83C2872.67 118.416 2872.96 118.888 2873.43 119.246C2873.89 119.598 2874.53 119.773 2875.34 119.773C2876.16 119.773 2876.78 119.607 2877.2 119.275C2877.61 118.937 2877.86 118.523 2877.95 118.035C2878.03 117.547 2878.07 116.736 2878.07 115.604V107.684H2880.96V115.203C2880.96 116.922 2880.89 118.136 2880.73 118.846C2880.57 119.555 2880.28 120.154 2879.86 120.643C2879.44 121.131 2878.88 121.521 2878.18 121.814C2877.48 122.101 2876.56 122.244 2875.43 122.244C2874.06 122.244 2873.02 122.088 2872.31 121.775C2871.61 121.456 2871.05 121.046 2870.64 120.545C2870.23 120.037 2869.96 119.507 2869.83 118.953C2869.64 118.133 2869.55 116.922 2869.55 115.32V107.684ZM2886.03 122V107.684H2892.12C2893.65 107.684 2894.76 107.814 2895.45 108.074C2896.14 108.328 2896.7 108.784 2897.12 109.441C2897.53 110.099 2897.74 110.851 2897.74 111.697C2897.74 112.771 2897.42 113.66 2896.79 114.363C2896.16 115.06 2895.22 115.499 2893.96 115.682C2894.59 116.046 2895.1 116.447 2895.5 116.883C2895.91 117.319 2896.46 118.094 2897.15 119.207L2898.9 122H2895.45L2893.36 118.885C2892.61 117.771 2892.11 117.072 2891.83 116.785C2891.56 116.492 2891.27 116.294 2890.96 116.189C2890.66 116.079 2890.17 116.023 2889.51 116.023H2888.92V122H2886.03ZM2888.92 113.738H2891.06C2892.45 113.738 2893.31 113.68 2893.66 113.562C2894 113.445 2894.27 113.243 2894.47 112.957C2894.66 112.671 2894.76 112.312 2894.76 111.883C2894.76 111.401 2894.63 111.014 2894.37 110.721C2894.12 110.421 2893.76 110.232 2893.29 110.154C2893.05 110.122 2892.35 110.105 2891.18 110.105H2888.92V113.738Z" fill="#949494"/>
<rect x="3100" y="170" width="120" height="30" fill="#D9D9D9"/>
<rect x="3100" y="30" width="120" height="30" fill="#D9D9D9"/>
<path d="M3108.95 122V107.684H3113.59C3115.35 107.684 3116.49 107.755 3117.03 107.898C3117.85 108.113 3118.53 108.582 3119.09 109.305C3119.64 110.021 3119.92 110.949 3119.92 112.088C3119.92 112.967 3119.76 113.706 3119.44 114.305C3119.12 114.904 3118.71 115.376 3118.22 115.721C3117.73 116.059 3117.23 116.284 3116.72 116.395C3116.03 116.531 3115.04 116.6 3113.73 116.6H3111.84V122H3108.95ZM3111.84 110.105V114.168H3113.42C3114.56 114.168 3115.32 114.093 3115.71 113.943C3116.09 113.794 3116.39 113.559 3116.61 113.24C3116.83 112.921 3116.94 112.55 3116.94 112.127C3116.94 111.606 3116.79 111.176 3116.48 110.838C3116.17 110.499 3115.79 110.288 3115.32 110.203C3114.97 110.138 3114.28 110.105 3113.24 110.105H3111.84ZM3135.72 122H3132.57L3131.32 118.748H3125.6L3124.42 122H3121.35L3126.93 107.684H3129.98L3135.72 122ZM3130.39 116.336L3128.42 111.023L3126.49 116.336H3130.39ZM3139.27 122V107.684H3145.35C3146.88 107.684 3147.99 107.814 3148.68 108.074C3149.38 108.328 3149.94 108.784 3150.35 109.441C3150.77 110.099 3150.98 110.851 3150.98 111.697C3150.98 112.771 3150.66 113.66 3150.03 114.363C3149.4 115.06 3148.46 115.499 3147.2 115.682C3147.82 116.046 3148.34 116.447 3148.74 116.883C3149.15 117.319 3149.7 118.094 3150.39 119.207L3152.14 122H3148.68L3146.59 118.885C3145.85 117.771 3145.34 117.072 3145.07 116.785C3144.8 116.492 3144.51 116.294 3144.2 116.189C3143.9 116.079 3143.41 116.023 3142.75 116.023H3142.16V122H3139.27ZM3142.16 113.738H3144.3C3145.69 113.738 3146.55 113.68 3146.9 113.562C3147.24 113.445 3147.51 113.243 3147.71 112.957C3147.9 112.671 3148 112.312 3148 111.883C3148 111.401 3147.87 111.014 3147.61 110.721C3147.36 110.421 3146.99 110.232 3146.53 110.154C3146.29 110.122 3145.59 110.105 3144.42 110.105H3142.16V113.738ZM3154.98 117.342L3157.79 117.068C3157.96 118.012 3158.3 118.706 3158.82 119.148C3159.34 119.591 3160.04 119.812 3160.92 119.812C3161.85 119.812 3162.55 119.617 3163.02 119.227C3163.49 118.829 3163.73 118.367 3163.73 117.84C3163.73 117.501 3163.63 117.215 3163.43 116.98C3163.23 116.74 3162.89 116.531 3162.39 116.355C3162.05 116.238 3161.28 116.03 3160.08 115.73C3158.53 115.346 3157.44 114.874 3156.82 114.314C3155.94 113.527 3155.5 112.566 3155.5 111.434C3155.5 110.704 3155.7 110.024 3156.11 109.393C3156.53 108.755 3157.13 108.27 3157.9 107.938C3158.68 107.605 3159.62 107.439 3160.72 107.439C3162.52 107.439 3163.87 107.833 3164.78 108.621C3165.69 109.409 3166.17 110.46 3166.21 111.775L3163.32 111.902C3163.2 111.167 3162.93 110.639 3162.52 110.32C3162.12 109.995 3161.51 109.832 3160.69 109.832C3159.85 109.832 3159.2 110.005 3158.72 110.35C3158.41 110.571 3158.26 110.867 3158.26 111.238C3158.26 111.577 3158.4 111.867 3158.69 112.107C3159.06 112.413 3159.94 112.732 3161.35 113.064C3162.75 113.396 3163.79 113.742 3164.46 114.1C3165.14 114.451 3165.67 114.936 3166.04 115.555C3166.43 116.167 3166.62 116.925 3166.62 117.83C3166.62 118.65 3166.39 119.419 3165.94 120.135C3165.48 120.851 3164.84 121.385 3164 121.736C3163.17 122.081 3162.13 122.254 3160.89 122.254C3159.08 122.254 3157.69 121.837 3156.72 121.004C3155.75 120.164 3155.17 118.943 3154.98 117.342ZM3171.13 122V107.801H3174.02V119.588H3181.21V122H3171.13ZM3185.36 122V107.801H3188.25V119.588H3195.44V122H3185.36ZM3199.52 122V107.684H3205.6C3207.13 107.684 3208.24 107.814 3208.93 108.074C3209.63 108.328 3210.18 108.784 3210.6 109.441C3211.02 110.099 3211.22 110.851 3211.22 111.697C3211.22 112.771 3210.91 113.66 3210.28 114.363C3209.65 115.06 3208.7 115.499 3207.45 115.682C3208.07 116.046 3208.58 116.447 3208.99 116.883C3209.4 117.319 3209.95 118.094 3210.64 119.207L3212.39 122H3208.93L3206.84 118.885C3206.1 117.771 3205.59 117.072 3205.32 116.785C3205.04 116.492 3204.75 116.294 3204.45 116.189C3204.14 116.079 3203.66 116.023 3202.99 116.023H3202.41V122H3199.52ZM3202.41 113.738H3204.54C3205.93 113.738 3206.8 113.68 3207.14 113.562C3207.49 113.445 3207.76 113.243 3207.95 112.957C3208.15 112.671 3208.25 112.312 3208.25 111.883C3208.25 111.401 3208.12 111.014 3207.86 110.721C3207.6 110.421 3207.24 110.232 3206.77 110.154C3206.54 110.122 3205.83 110.105 3204.66 110.105H3202.41V113.738Z" fill="#949494"/>
<line x1="1711" y1="115.123" x2="1811" y2="115.123" stroke="#949494" stroke-width="10"/>
<rect x="1806" y="110.123" width="52.5" height="10" transform="rotate(-45 1806 110.123)" fill="#949494"/>
<rect x="1672" y="150.123" width="52.5" height="10" transform="rotate(-45 1672 150.123)" fill="#949494"/>
<rect x="1813.07" y="113" width="52.5" height="10" transform="rotate(45 1813.07 113)" fill="#949494"/>
<rect x="1679.07" y="73" width="52.5" height="10" transform="rotate(45 1679.07 73)" fill="#949494"/>
<path d="M200 80.071L207.071 73L284.146 150.075L277.075 157.146L200 80.071Z" fill="#949494"/>
<path d="M277.075 73L284.146 80.0711L207.071 157.146L200 150.075L277.075 73Z" fill="#949494"/>
<path d="M850 80.071L857.071 73L934.146 150.075L927.075 157.146L850 80.071Z" fill="#949494"/>
<path d="M927.075 73L934.146 80.0711L857.071 157.146L850 150.075L927.075 73Z" fill="#949494"/>
<path d="M1370 80.071L1377.07 73L1454.15 150.075L1447.07 157.146L1370 80.071Z" fill="#949494"/>
<path d="M1447.07 73L1454.15 80.0711L1377.07 157.146L1370 150.075L1447.07 73Z" fill="#949494"/>
<path d="M2270 80.071L2277.07 73L2354.15 150.075L2347.07 157.146L2270 80.071Z" fill="#949494"/>
<path d="M2347.07 73L2354.15 80.0711L2277.07 157.146L2270 150.075L2347.07 73Z" fill="#949494"/>
<path d="M3000 80.071L3007.07 73L3084.15 150.075L3077.07 157.146L3000 80.071Z" fill="#949494"/>
<path d="M3077.07 73L3084.15 80.0711L3007.07 157.146L3000 150.075L3077.07 73Z" fill="#949494"/>
<path d="M3250 80.071L3257.07 73L3334.15 150.075L3327.07 157.146L3250 80.071Z" fill="#949494"/>
<path d="M3327.07 73L3334.15 80.0711L3257.07 157.146L3250 150.075L3327.07 73Z" fill="#949494"/>
<line x1="80" y1="155" x2="3430" y2="155" stroke="#949494" stroke-width="10"/>
<line x1="80" y1="75" x2="3430" y2="75" stroke="#949494" stroke-width="10"/>
<path d="M979.075 35L986.146 42.0711L950.79 77.4264L943.719 70.3553L979.075 35Z" fill="#949494"/>
</svg>
