<svg width="1859" height="200" viewBox="0 0 1859 200" fill="none" xmlns="http://www.w3.org/2000/svg">
<path d="M100 100H1750" stroke="#424242" stroke-width="20"/>
<circle cx="473" cy="100" r="21" fill="#424242"/>
<circle cx="473" cy="100" r="13" fill="white"/>
<circle cx="658" cy="100" r="21" fill="#424242"/>
<circle cx="658" cy="100" r="13" fill="white"/>
<circle cx="288" cy="100" r="21" fill="#424242"/>
<circle cx="288" cy="100" r="13" fill="white"/>
<circle cx="843" cy="100" r="21" fill="#424242"/>
<circle cx="843" cy="100" r="13" fill="white"/>
<circle cx="1025" cy="100" r="21" fill="#424242"/>
<circle cx="1025" cy="100" r="13" fill="white"/>
<circle cx="1577" cy="100" r="21" fill="#424242"/>
<circle cx="1577" cy="100" r="13" fill="white"/>
<circle cx="1759" cy="100" r="21" fill="#424242"/>
<circle cx="1759" cy="100" r="13" fill="white"/>
<circle cx="1207" cy="100" r="21" fill="#424242"/>
<circle cx="1207" cy="100" r="13" fill="white"/>
<circle cx="1392" cy="100" r="21" fill="#424242"/>
<circle cx="1392" cy="100" r="13" fill="white"/>
<circle cx="288" cy="100" r="24" fill="black"/>
<ellipse cx="288.001" cy="99.9939" rx="19.2" ry="19.2" fill="white"/>
<circle cx="100" cy="100" r="24" fill="black"/>
<ellipse cx="100.001" cy="99.9939" rx="19.2" ry="19.2" fill="white"/>
<circle cx="473" cy="100" r="24" fill="black"/>
<ellipse cx="473.001" cy="99.9939" rx="19.2" ry="19.2" fill="white"/>
<path d="M63.7845 44.368H58.4085V41.2H73.0485V44.368H67.6725V58H63.7845V44.368ZM82.3232 58.288C79.9232 58.288 78.0512 57.624 76.7072 56.296C75.3792 54.968 74.7152 53.072 74.7152 50.608V41.2H78.6032V50.464C78.6032 53.472 79.8512 54.976 82.3472 54.976C83.5632 54.976 84.4912 54.616 85.1312 53.896C85.7712 53.16 86.0912 52.016 86.0912 50.464V41.2H89.9312V50.608C89.9312 53.072 89.2592 54.968 87.9152 56.296C86.5872 57.624 84.7232 58.288 82.3232 58.288ZM79.9232 39.712C79.4432 39.712 79.0432 39.56 78.7232 39.256C78.4032 38.936 78.2432 38.536 78.2432 38.056C78.2432 37.576 78.4032 37.184 78.7232 36.88C79.0432 36.56 79.4432 36.4 79.9232 36.4C80.4032 36.4 80.7952 36.56 81.0992 36.88C81.4192 37.184 81.5792 37.576 81.5792 38.056C81.5792 38.536 81.4192 38.936 81.0992 39.256C80.7952 39.56 80.4032 39.712 79.9232 39.712ZM84.7712 39.712C84.2912 39.712 83.8912 39.56 83.5712 39.256C83.2672 38.936 83.1152 38.536 83.1152 38.056C83.1152 37.576 83.2672 37.184 83.5712 36.88C83.8912 36.56 84.2912 36.4 84.7712 36.4C85.2512 36.4 85.6512 36.56 85.9712 36.88C86.2912 37.184 86.4512 37.576 86.4512 38.056C86.4512 38.536 86.2912 38.936 85.9712 39.256C85.6512 39.56 85.2512 39.712 84.7712 39.712ZM101.603 52.048V58H97.7149V52L91.2109 41.2H95.3389L99.8269 48.664L104.315 41.2H108.131L101.603 52.048ZM119.79 54.4H111.99L110.502 58H106.518L114.006 41.2H117.846L125.358 58H121.278L119.79 54.4ZM118.566 51.448L115.902 45.016L113.238 51.448H118.566ZM134.373 41.2C135.861 41.2 137.149 41.448 138.237 41.944C139.341 42.44 140.189 43.144 140.781 44.056C141.373 44.968 141.669 46.048 141.669 47.296C141.669 48.528 141.373 49.608 140.781 50.536C140.189 51.448 139.341 52.152 138.237 52.648C137.149 53.128 135.861 53.368 134.373 53.368H130.989V58H127.101V41.2H134.373ZM134.157 50.2C135.325 50.2 136.213 49.952 136.821 49.456C137.429 48.944 137.733 48.224 137.733 47.296C137.733 46.352 137.429 45.632 136.821 45.136C136.213 44.624 135.325 44.368 134.157 44.368H130.989V50.2H134.157Z" fill="black"/>
<path d="M250.439 23.048V29H246.551V23L240.047 12.2H244.175L248.663 19.664L253.151 12.2H256.967L250.439 23.048ZM257.439 16.088H261.183V29H257.439V16.088ZM264.658 11.192H268.402V29H264.658V11.192ZM285.028 11.192V29H281.452V27.512C280.524 28.632 279.18 29.192 277.42 29.192C276.204 29.192 275.1 28.92 274.108 28.376C273.132 27.832 272.364 27.056 271.804 26.048C271.244 25.04 270.964 23.872 270.964 22.544C270.964 21.216 271.244 20.048 271.804 19.04C272.364 18.032 273.132 17.256 274.108 16.712C275.1 16.168 276.204 15.896 277.42 15.896C279.068 15.896 280.356 16.416 281.284 17.456V11.192H285.028ZM278.068 26.12C279.012 26.12 279.796 25.8 280.42 25.16C281.044 24.504 281.356 23.632 281.356 22.544C281.356 21.456 281.044 20.592 280.42 19.952C279.796 19.296 279.012 18.968 278.068 18.968C277.108 18.968 276.316 19.296 275.692 19.952C275.068 20.592 274.756 21.456 274.756 22.544C274.756 23.632 275.068 24.504 275.692 25.16C276.316 25.8 277.108 26.12 278.068 26.12ZM288.494 16.088H292.238V29H288.494V16.088ZM299.288 17.792C299.736 17.168 300.336 16.696 301.088 16.376C301.856 16.056 302.736 15.896 303.728 15.896V19.352C303.312 19.32 303.032 19.304 302.888 19.304C301.816 19.304 300.976 19.608 300.368 20.216C299.76 20.808 299.456 21.704 299.456 22.904V29H295.712V16.088H299.288V17.792ZM305.955 16.088H309.699V29H305.955V16.088ZM329.709 15.896C331.325 15.896 332.605 16.376 333.549 17.336C334.509 18.28 334.989 19.704 334.989 21.608V29H331.245V22.184C331.245 21.16 331.029 20.4 330.597 19.904C330.181 19.392 329.581 19.136 328.797 19.136C327.917 19.136 327.221 19.424 326.709 20C326.197 20.56 325.941 21.4 325.941 22.52V29H322.197V22.184C322.197 20.152 321.381 19.136 319.749 19.136C318.885 19.136 318.197 19.424 317.685 20C317.173 20.56 316.917 21.4 316.917 22.52V29H313.173V16.088H316.749V17.576C317.229 17.032 317.813 16.616 318.501 16.328C319.205 16.04 319.973 15.896 320.805 15.896C321.717 15.896 322.541 16.08 323.277 16.448C324.013 16.8 324.605 17.32 325.053 18.008C325.581 17.336 326.245 16.816 327.045 16.448C327.861 16.08 328.749 15.896 329.709 15.896ZM256.492 49.264C257.452 49.568 258.204 50.08 258.748 50.8C259.292 51.504 259.564 52.376 259.564 53.416C259.564 54.888 258.988 56.024 257.836 56.824C256.7 57.608 255.036 58 252.844 58H244.156V41.2H252.364C254.412 41.2 255.98 41.592 257.068 42.376C258.172 43.16 258.724 44.224 258.724 45.568C258.724 46.384 258.524 47.112 258.124 47.752C257.74 48.392 257.196 48.896 256.492 49.264ZM248.02 44.128V48.088H251.884C252.844 48.088 253.572 47.92 254.068 47.584C254.564 47.248 254.812 46.752 254.812 46.096C254.812 45.44 254.564 44.952 254.068 44.632C253.572 44.296 252.844 44.128 251.884 44.128H248.02ZM252.556 55.072C253.58 55.072 254.348 54.904 254.86 54.568C255.388 54.232 255.652 53.712 255.652 53.008C255.652 51.616 254.62 50.92 252.556 50.92H248.02V55.072H252.556ZM274.892 51.592C274.892 51.64 274.868 51.976 274.82 52.6H265.052C265.228 53.4 265.644 54.032 266.3 54.496C266.956 54.96 267.772 55.192 268.748 55.192C269.42 55.192 270.012 55.096 270.524 54.904C271.052 54.696 271.54 54.376 271.988 53.944L273.98 56.104C272.764 57.496 270.988 58.192 268.652 58.192C267.196 58.192 265.908 57.912 264.788 57.352C263.668 56.776 262.804 55.984 262.196 54.976C261.588 53.968 261.284 52.824 261.284 51.544C261.284 50.28 261.58 49.144 262.172 48.136C262.78 47.112 263.604 46.32 264.644 45.76C265.7 45.184 266.876 44.896 268.172 44.896C269.436 44.896 270.58 45.168 271.604 45.712C272.628 46.256 273.428 47.04 274.004 48.064C274.596 49.072 274.892 50.248 274.892 51.592ZM268.196 47.728C267.348 47.728 266.636 47.968 266.06 48.448C265.484 48.928 265.132 49.584 265.004 50.416H271.364C271.236 49.6 270.884 48.952 270.308 48.472C269.732 47.976 269.028 47.728 268.196 47.728ZM289.966 45.088L284.134 58.792C283.542 60.28 282.806 61.328 281.926 61.936C281.062 62.544 280.014 62.848 278.782 62.848C278.11 62.848 277.446 62.744 276.79 62.536C276.134 62.328 275.598 62.04 275.182 61.672L276.55 59.008C276.838 59.264 277.166 59.464 277.534 59.608C277.918 59.752 278.294 59.824 278.662 59.824C279.174 59.824 279.59 59.696 279.91 59.44C280.23 59.2 280.518 58.792 280.774 58.216L280.822 58.096L275.23 45.088H279.094L282.718 53.848L286.366 45.088H289.966ZM296.28 44.896C298.28 44.896 299.816 45.376 300.888 46.336C301.96 47.28 302.496 48.712 302.496 50.632V58H298.992V56.392C298.288 57.592 296.976 58.192 295.056 58.192C294.064 58.192 293.2 58.024 292.464 57.688C291.744 57.352 291.192 56.888 290.808 56.296C290.424 55.704 290.232 55.032 290.232 54.28C290.232 53.08 290.68 52.136 291.576 51.448C292.488 50.76 293.888 50.416 295.776 50.416H298.752C298.752 49.6 298.504 48.976 298.008 48.544C297.512 48.096 296.768 47.872 295.776 47.872C295.088 47.872 294.408 47.984 293.736 48.208C293.08 48.416 292.52 48.704 292.056 49.072L290.712 46.456C291.416 45.96 292.256 45.576 293.232 45.304C294.224 45.032 295.24 44.896 296.28 44.896ZM295.992 55.672C296.632 55.672 297.2 55.528 297.696 55.24C298.192 54.936 298.544 54.496 298.752 53.92V52.6H296.184C294.648 52.6 293.88 53.104 293.88 54.112C293.88 54.592 294.064 54.976 294.432 55.264C294.816 55.536 295.336 55.672 295.992 55.672ZM316.516 55.12V58H304.996V55.744L311.572 47.968H305.164V45.088H316.3V47.344L309.724 55.12H316.516ZM318.916 45.088H322.66V58H318.916V45.088ZM334.462 57.376C334.094 57.648 333.638 57.856 333.094 58C332.566 58.128 332.006 58.192 331.414 58.192C329.878 58.192 328.686 57.8 327.838 57.016C327.006 56.232 326.59 55.08 326.59 53.56V48.256H324.598V45.376H326.59V42.232H330.334V45.376H333.55V48.256H330.334V53.512C330.334 54.056 330.47 54.48 330.742 54.784C331.03 55.072 331.43 55.216 331.942 55.216C332.534 55.216 333.038 55.056 333.454 54.736L334.462 57.376Z" fill="black"/>
<path d="M417.367 49.264C418.327 49.568 419.079 50.08 419.623 50.8C420.167 51.504 420.439 52.376 420.439 53.416C420.439 54.888 419.863 56.024 418.711 56.824C417.575 57.608 415.911 58 413.719 58H405.031V41.2H413.239C415.287 41.2 416.855 41.592 417.943 42.376C419.047 43.16 419.599 44.224 419.599 45.568C419.599 46.384 419.399 47.112 418.999 47.752C418.615 48.392 418.071 48.896 417.367 49.264ZM408.895 44.128V48.088H412.759C413.719 48.088 414.447 47.92 414.943 47.584C415.439 47.248 415.687 46.752 415.687 46.096C415.687 45.44 415.439 44.952 414.943 44.632C414.447 44.296 413.719 44.128 412.759 44.128H408.895ZM413.431 55.072C414.455 55.072 415.223 54.904 415.735 54.568C416.263 54.232 416.527 53.712 416.527 53.008C416.527 51.616 415.495 50.92 413.431 50.92H408.895V55.072H413.431ZM435.767 51.592C435.767 51.64 435.743 51.976 435.695 52.6H425.927C426.103 53.4 426.519 54.032 427.175 54.496C427.831 54.96 428.647 55.192 429.623 55.192C430.295 55.192 430.887 55.096 431.399 54.904C431.927 54.696 432.415 54.376 432.863 53.944L434.855 56.104C433.639 57.496 431.863 58.192 429.527 58.192C428.071 58.192 426.783 57.912 425.663 57.352C424.543 56.776 423.679 55.984 423.071 54.976C422.463 53.968 422.159 52.824 422.159 51.544C422.159 50.28 422.455 49.144 423.047 48.136C423.655 47.112 424.479 46.32 425.519 45.76C426.575 45.184 427.751 44.896 429.047 44.896C430.311 44.896 431.455 45.168 432.479 45.712C433.503 46.256 434.303 47.04 434.879 48.064C435.471 49.072 435.767 50.248 435.767 51.592ZM429.071 47.728C428.223 47.728 427.511 47.968 426.935 48.448C426.359 48.928 426.007 49.584 425.879 50.416H432.239C432.111 49.6 431.759 48.952 431.183 48.472C430.607 47.976 429.903 47.728 429.071 47.728ZM450.841 45.088L445.009 58.792C444.417 60.28 443.681 61.328 442.801 61.936C441.937 62.544 440.889 62.848 439.657 62.848C438.985 62.848 438.321 62.744 437.665 62.536C437.009 62.328 436.473 62.04 436.057 61.672L437.425 59.008C437.713 59.264 438.041 59.464 438.409 59.608C438.793 59.752 439.169 59.824 439.537 59.824C440.049 59.824 440.465 59.696 440.785 59.44C441.105 59.2 441.393 58.792 441.649 58.216L441.697 58.096L436.105 45.088H439.969L443.593 53.848L447.241 45.088H450.841ZM452.369 40.192H456.113V58H452.369V40.192ZM459.587 45.088H463.331V58H459.587V45.088ZM461.459 43.288C460.771 43.288 460.211 43.088 459.779 42.688C459.347 42.288 459.131 41.792 459.131 41.2C459.131 40.608 459.347 40.112 459.779 39.712C460.211 39.312 460.771 39.112 461.459 39.112C462.147 39.112 462.707 39.304 463.139 39.688C463.571 40.072 463.787 40.552 463.787 41.128C463.787 41.752 463.571 42.272 463.139 42.688C462.707 43.088 462.147 43.288 461.459 43.288ZM472.35 52.936L470.55 54.712V58H466.806V40.192H470.55V50.272L476.022 45.088H480.486L475.11 50.56L480.966 58H476.43L472.35 52.936ZM495.239 40.192V58H491.663V56.512C490.735 57.632 489.391 58.192 487.631 58.192C486.415 58.192 485.311 57.92 484.319 57.376C483.343 56.832 482.575 56.056 482.015 55.048C481.455 54.04 481.175 52.872 481.175 51.544C481.175 50.216 481.455 49.048 482.015 48.04C482.575 47.032 483.343 46.256 484.319 45.712C485.311 45.168 486.415 44.896 487.631 44.896C489.279 44.896 490.567 45.416 491.495 46.456V40.192H495.239ZM488.279 55.12C489.223 55.12 490.007 54.8 490.631 54.16C491.255 53.504 491.567 52.632 491.567 51.544C491.567 50.456 491.255 49.592 490.631 48.952C490.007 48.296 489.223 47.968 488.279 47.968C487.319 47.968 486.527 48.296 485.903 48.952C485.279 49.592 484.967 50.456 484.967 51.544C484.967 52.632 485.279 53.504 485.903 54.16C486.527 54.8 487.319 55.12 488.279 55.12ZM511.713 45.088V58H508.161V56.464C507.665 57.024 507.073 57.456 506.385 57.76C505.697 58.048 504.953 58.192 504.153 58.192C502.457 58.192 501.113 57.704 500.121 56.728C499.129 55.752 498.633 54.304 498.633 52.384V45.088H502.377V51.832C502.377 53.912 503.249 54.952 504.993 54.952C505.889 54.952 506.609 54.664 507.153 54.088C507.697 53.496 507.969 52.624 507.969 51.472V45.088H511.713ZM502.737 43.312C502.257 43.312 501.857 43.16 501.537 42.856C501.217 42.536 501.057 42.136 501.057 41.656C501.057 41.176 501.217 40.784 501.537 40.48C501.857 40.16 502.257 40 502.737 40C503.217 40 503.609 40.16 503.913 40.48C504.233 40.784 504.393 41.176 504.393 41.656C504.393 42.136 504.233 42.536 503.913 42.856C503.609 43.16 503.217 43.312 502.737 43.312ZM507.585 43.312C507.105 43.312 506.705 43.16 506.385 42.856C506.081 42.536 505.929 42.136 505.929 41.656C505.929 41.176 506.081 40.784 506.385 40.48C506.705 40.16 507.105 40 507.585 40C508.065 40 508.465 40.16 508.785 40.48C509.105 40.784 509.265 41.176 509.265 41.656C509.265 42.136 509.105 42.536 508.785 42.856C508.465 43.16 508.065 43.312 507.585 43.312ZM525.813 55.12V58H514.293V55.744L520.869 47.968H514.461V45.088H525.597V47.344L519.021 55.12H525.813ZM541.22 45.088V58H537.668V56.464C537.172 57.024 536.58 57.456 535.892 57.76C535.204 58.048 534.46 58.192 533.66 58.192C531.964 58.192 530.62 57.704 529.628 56.728C528.636 55.752 528.14 54.304 528.14 52.384V45.088H531.884V51.832C531.884 53.912 532.756 54.952 534.5 54.952C535.396 54.952 536.116 54.664 536.66 54.088C537.204 53.496 537.476 52.624 537.476 51.472V45.088H541.22ZM532.244 43.312C531.764 43.312 531.364 43.16 531.044 42.856C530.724 42.536 530.564 42.136 530.564 41.656C530.564 41.176 530.724 40.784 531.044 40.48C531.364 40.16 531.764 40 532.244 40C532.724 40 533.116 40.16 533.42 40.48C533.74 40.784 533.9 41.176 533.9 41.656C533.9 42.136 533.74 42.536 533.42 42.856C533.116 43.16 532.724 43.312 532.244 43.312ZM537.092 43.312C536.612 43.312 536.212 43.16 535.892 42.856C535.588 42.536 535.436 42.136 535.436 41.656C535.436 41.176 535.588 40.784 535.892 40.48C536.212 40.16 536.612 40 537.092 40C537.572 40 537.972 40.16 538.292 40.48C538.612 40.784 538.772 41.176 538.772 41.656C538.772 42.136 538.612 42.536 538.292 42.856C537.972 43.16 537.572 43.312 537.092 43.312Z" fill="black"/>
<path d="M593.571 58.288C592.243 58.288 590.955 58.112 589.707 57.76C588.475 57.392 587.483 56.92 586.731 56.344L588.051 53.416C588.771 53.944 589.627 54.368 590.619 54.688C591.611 55.008 592.603 55.168 593.595 55.168C594.699 55.168 595.515 55.008 596.043 54.688C596.571 54.352 596.835 53.912 596.835 53.368C596.835 52.968 596.675 52.64 596.355 52.384C596.051 52.112 595.651 51.896 595.155 51.736C594.675 51.576 594.019 51.4 593.187 51.208C591.907 50.904 590.859 50.6 590.043 50.296C589.227 49.992 588.523 49.504 587.931 48.832C587.355 48.16 587.067 47.264 587.067 46.144C587.067 45.168 587.331 44.288 587.859 43.504C588.387 42.704 589.179 42.072 590.235 41.608C591.307 41.144 592.611 40.912 594.147 40.912C595.219 40.912 596.267 41.04 597.291 41.296C598.315 41.552 599.211 41.92 599.979 42.4L598.779 45.352C597.227 44.472 595.675 44.032 594.123 44.032C593.035 44.032 592.227 44.208 591.699 44.56C591.187 44.912 590.931 45.376 590.931 45.952C590.931 46.528 591.227 46.96 591.819 47.248C592.427 47.52 593.347 47.792 594.579 48.064C595.859 48.368 596.907 48.672 597.723 48.976C598.539 49.28 599.235 49.76 599.811 50.416C600.403 51.072 600.699 51.96 600.699 53.08C600.699 54.04 600.427 54.92 599.883 55.72C599.355 56.504 598.555 57.128 597.483 57.592C596.411 58.056 595.107 58.288 593.571 58.288ZM608.299 44.896C610.299 44.896 611.835 45.376 612.907 46.336C613.979 47.28 614.515 48.712 614.515 50.632V58H611.011V56.392C610.307 57.592 608.995 58.192 607.075 58.192C606.083 58.192 605.219 58.024 604.483 57.688C603.763 57.352 603.211 56.888 602.827 56.296C602.443 55.704 602.251 55.032 602.251 54.28C602.251 53.08 602.699 52.136 603.595 51.448C604.507 50.76 605.907 50.416 607.795 50.416H610.771C610.771 49.6 610.523 48.976 610.027 48.544C609.531 48.096 608.787 47.872 607.795 47.872C607.107 47.872 606.427 47.984 605.755 48.208C605.099 48.416 604.539 48.704 604.075 49.072L602.731 46.456C603.435 45.96 604.275 45.576 605.251 45.304C606.243 45.032 607.259 44.896 608.299 44.896ZM608.011 55.672C608.651 55.672 609.219 55.528 609.715 55.24C610.211 54.936 610.563 54.496 610.771 53.92V52.6H608.203C606.667 52.6 605.899 53.104 605.899 54.112C605.899 54.592 606.083 54.976 606.451 55.264C606.835 55.536 607.355 55.672 608.011 55.672ZM623.112 44.896C625.112 44.896 626.648 45.376 627.72 46.336C628.792 47.28 629.328 48.712 629.328 50.632V58H625.824V56.392C625.12 57.592 623.808 58.192 621.888 58.192C620.896 58.192 620.032 58.024 619.296 57.688C618.576 57.352 618.024 56.888 617.64 56.296C617.256 55.704 617.064 55.032 617.064 54.28C617.064 53.08 617.512 52.136 618.408 51.448C619.32 50.76 620.72 50.416 622.608 50.416H625.584C625.584 49.6 625.336 48.976 624.84 48.544C624.344 48.096 623.6 47.872 622.608 47.872C621.92 47.872 621.24 47.984 620.568 48.208C619.912 48.416 619.352 48.704 618.888 49.072L617.544 46.456C618.248 45.96 619.088 45.576 620.064 45.304C621.056 45.032 622.072 44.896 623.112 44.896ZM622.824 55.672C623.464 55.672 624.032 55.528 624.528 55.24C625.024 54.936 625.376 54.496 625.584 53.92V52.6H623.016C621.48 52.6 620.712 53.104 620.712 54.112C620.712 54.592 620.896 54.976 621.264 55.264C621.648 55.536 622.168 55.672 622.824 55.672ZM646.009 40.192V58H642.433V56.512C641.505 57.632 640.161 58.192 638.401 58.192C637.185 58.192 636.081 57.92 635.089 57.376C634.113 56.832 633.345 56.056 632.785 55.048C632.225 54.04 631.945 52.872 631.945 51.544C631.945 50.216 632.225 49.048 632.785 48.04C633.345 47.032 634.113 46.256 635.089 45.712C636.081 45.168 637.185 44.896 638.401 44.896C640.049 44.896 641.337 45.416 642.265 46.456V40.192H646.009ZM639.049 55.12C639.993 55.12 640.777 54.8 641.401 54.16C642.025 53.504 642.337 52.632 642.337 51.544C642.337 50.456 642.025 49.592 641.401 48.952C640.777 48.296 639.993 47.968 639.049 47.968C638.089 47.968 637.297 48.296 636.673 48.952C636.049 49.592 635.737 50.456 635.737 51.544C635.737 52.632 636.049 53.504 636.673 54.16C637.297 54.8 638.089 55.12 639.049 55.12ZM662.122 51.592C662.122 51.64 662.098 51.976 662.05 52.6H652.282C652.458 53.4 652.874 54.032 653.53 54.496C654.186 54.96 655.002 55.192 655.978 55.192C656.65 55.192 657.242 55.096 657.754 54.904C658.282 54.696 658.77 54.376 659.218 53.944L661.21 56.104C659.994 57.496 658.218 58.192 655.882 58.192C654.426 58.192 653.138 57.912 652.018 57.352C650.898 56.776 650.034 55.984 649.426 54.976C648.818 53.968 648.514 52.824 648.514 51.544C648.514 50.28 648.81 49.144 649.402 48.136C650.01 47.112 650.834 46.32 651.874 45.76C652.93 45.184 654.106 44.896 655.402 44.896C656.666 44.896 657.81 45.168 658.834 45.712C659.858 46.256 660.658 47.04 661.234 48.064C661.826 49.072 662.122 50.248 662.122 51.592ZM655.426 47.728C654.578 47.728 653.866 47.968 653.29 48.448C652.714 48.928 652.362 49.584 652.234 50.416H658.594C658.466 49.6 658.114 48.952 657.538 48.472C656.962 47.976 656.258 47.728 655.426 47.728ZM672.943 57.376C672.575 57.648 672.119 57.856 671.575 58C671.047 58.128 670.487 58.192 669.895 58.192C668.359 58.192 667.167 57.8 666.319 57.016C665.487 56.232 665.071 55.08 665.071 53.56V48.256H663.079V45.376H665.071V42.232H668.815V45.376H672.031V48.256H668.815V53.512C668.815 54.056 668.951 54.48 669.223 54.784C669.511 55.072 669.911 55.216 670.423 55.216C671.015 55.216 671.519 55.056 671.935 54.736L672.943 57.376ZM687.798 40.192V58H684.222V56.512C683.294 57.632 681.95 58.192 680.19 58.192C678.974 58.192 677.87 57.92 676.878 57.376C675.902 56.832 675.134 56.056 674.574 55.048C674.014 54.04 673.734 52.872 673.734 51.544C673.734 50.216 674.014 49.048 674.574 48.04C675.134 47.032 675.902 46.256 676.878 45.712C677.87 45.168 678.974 44.896 680.19 44.896C681.838 44.896 683.126 45.416 684.054 46.456V40.192H687.798ZM680.838 55.12C681.782 55.12 682.566 54.8 683.19 54.16C683.814 53.504 684.126 52.632 684.126 51.544C684.126 50.456 683.814 49.592 683.19 48.952C682.566 48.296 681.782 47.968 680.838 47.968C679.878 47.968 679.086 48.296 678.462 48.952C677.838 49.592 677.526 50.456 677.526 51.544C677.526 52.632 677.838 53.504 678.462 54.16C679.086 54.8 679.878 55.12 680.838 55.12ZM703.911 51.592C703.911 51.64 703.887 51.976 703.839 52.6H694.071C694.247 53.4 694.663 54.032 695.319 54.496C695.975 54.96 696.791 55.192 697.767 55.192C698.439 55.192 699.031 55.096 699.543 54.904C700.071 54.696 700.559 54.376 701.007 53.944L702.999 56.104C701.783 57.496 700.007 58.192 697.671 58.192C696.215 58.192 694.927 57.912 693.807 57.352C692.687 56.776 691.823 55.984 691.215 54.976C690.607 53.968 690.303 52.824 690.303 51.544C690.303 50.28 690.599 49.144 691.191 48.136C691.799 47.112 692.623 46.32 693.663 45.76C694.719 45.184 695.895 44.896 697.191 44.896C698.455 44.896 699.599 45.168 700.623 45.712C701.647 46.256 702.447 47.04 703.023 48.064C703.615 49.072 703.911 50.248 703.911 51.592ZM697.215 47.728C696.367 47.728 695.655 47.968 695.079 48.448C694.503 48.928 694.151 49.584 694.023 50.416H700.383C700.255 49.6 699.903 48.952 699.327 48.472C698.751 47.976 698.047 47.728 697.215 47.728ZM709.98 46.792C710.428 46.168 711.028 45.696 711.78 45.376C712.548 45.056 713.428 44.896 714.42 44.896V48.352C714.004 48.32 713.724 48.304 713.58 48.304C712.508 48.304 711.668 48.608 711.06 49.216C710.452 49.808 710.148 50.704 710.148 51.904V58H706.404V45.088H709.98V46.792ZM729.177 51.592C729.177 51.64 729.153 51.976 729.105 52.6H719.337C719.513 53.4 719.929 54.032 720.585 54.496C721.241 54.96 722.057 55.192 723.033 55.192C723.705 55.192 724.297 55.096 724.809 54.904C725.337 54.696 725.825 54.376 726.273 53.944L728.265 56.104C727.049 57.496 725.273 58.192 722.937 58.192C721.481 58.192 720.193 57.912 719.073 57.352C717.953 56.776 717.089 55.984 716.481 54.976C715.873 53.968 715.569 52.824 715.569 51.544C715.569 50.28 715.865 49.144 716.457 48.136C717.065 47.112 717.889 46.32 718.929 45.76C719.985 45.184 721.161 44.896 722.457 44.896C723.721 44.896 724.865 45.168 725.889 45.712C726.913 46.256 727.713 47.04 728.289 48.064C728.881 49.072 729.177 50.248 729.177 51.592ZM722.481 47.728C721.633 47.728 720.921 47.968 720.345 48.448C719.769 48.928 719.417 49.584 719.289 50.416H725.649C725.521 49.6 725.169 48.952 724.593 48.472C724.017 47.976 723.313 47.728 722.481 47.728Z" fill="black"/>
<path d="M799.372 58.288C797.66 58.288 796.108 57.92 794.716 57.184C793.34 56.432 792.252 55.4 791.452 54.088C790.668 52.76 790.276 51.264 790.276 49.6C790.276 47.936 790.668 46.448 791.452 45.136C792.252 43.808 793.34 42.776 794.716 42.04C796.108 41.288 797.668 40.912 799.396 40.912C800.852 40.912 802.164 41.168 803.332 41.68C804.516 42.192 805.508 42.928 806.308 43.888L803.812 46.192C802.676 44.88 801.268 44.224 799.588 44.224C798.548 44.224 797.62 44.456 796.804 44.92C795.988 45.368 795.348 46 794.884 46.816C794.436 47.632 794.212 48.56 794.212 49.6C794.212 50.64 794.436 51.568 794.884 52.384C795.348 53.2 795.988 53.84 796.804 54.304C797.62 54.752 798.548 54.976 799.588 54.976C801.268 54.976 802.676 54.312 803.812 52.984L806.308 55.288C805.508 56.264 804.516 57.008 803.332 57.52C802.148 58.032 800.828 58.288 799.372 58.288ZM808.669 45.088H812.413V58H808.669V45.088ZM810.541 43.288C809.853 43.288 809.293 43.088 808.861 42.688C808.429 42.288 808.213 41.792 808.213 41.2C808.213 40.608 808.429 40.112 808.861 39.712C809.293 39.312 809.853 39.112 810.541 39.112C811.229 39.112 811.789 39.304 812.221 39.688C812.653 40.072 812.869 40.552 812.869 41.128C812.869 41.752 812.653 42.272 812.221 42.688C811.789 43.088 811.229 43.288 810.541 43.288ZM823.736 44.896C825.336 44.896 826.624 45.376 827.6 46.336C828.592 47.296 829.088 48.72 829.088 50.608V58H825.344V51.184C825.344 50.16 825.12 49.4 824.672 48.904C824.224 48.392 823.576 48.136 822.728 48.136C821.784 48.136 821.032 48.432 820.472 49.024C819.912 49.6 819.632 50.464 819.632 51.616V58H815.888V40.192H819.632V46.432C820.128 45.936 820.728 45.56 821.432 45.304C822.136 45.032 822.904 44.896 823.736 44.896ZM837.69 44.896C839.69 44.896 841.226 45.376 842.298 46.336C843.37 47.28 843.906 48.712 843.906 50.632V58H840.402V56.392C839.698 57.592 838.386 58.192 836.466 58.192C835.474 58.192 834.61 58.024 833.874 57.688C833.154 57.352 832.602 56.888 832.218 56.296C831.834 55.704 831.642 55.032 831.642 54.28C831.642 53.08 832.09 52.136 832.986 51.448C833.898 50.76 835.298 50.416 837.186 50.416H840.162C840.162 49.6 839.914 48.976 839.418 48.544C838.922 48.096 838.178 47.872 837.186 47.872C836.498 47.872 835.818 47.984 835.146 48.208C834.49 48.416 833.93 48.704 833.466 49.072L832.122 46.456C832.826 45.96 833.666 45.576 834.642 45.304C835.634 45.032 836.65 44.896 837.69 44.896ZM837.402 55.672C838.042 55.672 838.61 55.528 839.106 55.24C839.602 54.936 839.954 54.496 840.162 53.92V52.6H837.594C836.058 52.6 835.29 53.104 835.29 54.112C835.29 54.592 835.474 54.976 835.842 55.264C836.226 55.536 836.746 55.672 837.402 55.672ZM855.142 44.896C856.742 44.896 858.03 45.376 859.006 46.336C859.998 47.296 860.494 48.72 860.494 50.608V58H856.75V51.184C856.75 50.16 856.526 49.4 856.078 48.904C855.63 48.392 854.982 48.136 854.134 48.136C853.19 48.136 852.438 48.432 851.878 49.024C851.318 49.6 851.038 50.464 851.038 51.616V58H847.294V45.088H850.87V46.6C851.366 46.056 851.982 45.64 852.718 45.352C853.454 45.048 854.262 44.896 855.142 44.896ZM877.349 45.088V55.84C877.349 58.208 876.733 59.968 875.501 61.12C874.269 62.272 872.469 62.848 870.101 62.848C868.853 62.848 867.669 62.696 866.549 62.392C865.429 62.088 864.501 61.648 863.765 61.072L865.253 58.384C865.797 58.832 866.485 59.184 867.317 59.44C868.149 59.712 868.981 59.848 869.813 59.848C871.109 59.848 872.061 59.552 872.669 58.96C873.293 58.384 873.605 57.504 873.605 56.32V55.768C872.629 56.84 871.269 57.376 869.525 57.376C868.341 57.376 867.253 57.12 866.261 56.608C865.285 56.08 864.509 55.344 863.933 54.4C863.357 53.456 863.069 52.368 863.069 51.136C863.069 49.904 863.357 48.816 863.933 47.872C864.509 46.928 865.285 46.2 866.261 45.688C867.253 45.16 868.341 44.896 869.525 44.896C871.397 44.896 872.821 45.512 873.797 46.744V45.088H877.349ZM870.269 54.304C871.261 54.304 872.069 54.016 872.693 53.44C873.333 52.848 873.653 52.08 873.653 51.136C873.653 50.192 873.333 49.432 872.693 48.856C872.069 48.264 871.261 47.968 870.269 47.968C869.277 47.968 868.461 48.264 867.821 48.856C867.181 49.432 866.861 50.192 866.861 51.136C866.861 52.08 867.181 52.848 867.821 53.44C868.461 54.016 869.277 54.304 870.269 54.304ZM880.833 45.088H884.577V58H880.833V45.088ZM882.705 43.288C882.017 43.288 881.457 43.088 881.025 42.688C880.593 42.288 880.377 41.792 880.377 41.2C880.377 40.608 880.593 40.112 881.025 39.712C881.457 39.312 882.017 39.112 882.705 39.112C883.393 39.112 883.953 39.304 884.385 39.688C884.817 40.072 885.033 40.552 885.033 41.128C885.033 41.752 884.817 42.272 884.385 42.688C883.953 43.088 883.393 43.288 882.705 43.288ZM891.628 46.792C892.076 46.168 892.676 45.696 893.428 45.376C894.196 45.056 895.076 44.896 896.068 44.896V48.352C895.652 48.32 895.372 48.304 895.228 48.304C894.156 48.304 893.316 48.608 892.708 49.216C892.1 49.808 891.796 50.704 891.796 51.904V58H888.052V45.088H891.628V46.792Z" fill="black"/>
<path d="M995.329 54.4H987.529L986.041 58H982.057L989.545 41.2H993.385L1000.9 58H996.817L995.329 54.4ZM994.105 51.448L991.441 45.016L988.777 51.448H994.105ZM1014.51 45.088L1009.06 58H1005.2L999.777 45.088H1003.64L1007.22 53.872L1010.91 45.088H1014.51ZM1021.93 58.192C1020.55 58.192 1019.31 57.912 1018.21 57.352C1017.12 56.776 1016.26 55.984 1015.64 54.976C1015.03 53.968 1014.73 52.824 1014.73 51.544C1014.73 50.264 1015.03 49.12 1015.64 48.112C1016.26 47.104 1017.12 46.32 1018.21 45.76C1019.31 45.184 1020.55 44.896 1021.93 44.896C1023.29 44.896 1024.47 45.184 1025.48 45.76C1026.5 46.32 1027.25 47.128 1027.71 48.184L1024.81 49.744C1024.14 48.56 1023.17 47.968 1021.9 47.968C1020.93 47.968 1020.12 48.288 1019.48 48.928C1018.84 49.568 1018.52 50.44 1018.52 51.544C1018.52 52.648 1018.84 53.52 1019.48 54.16C1020.12 54.8 1020.93 55.12 1021.9 55.12C1023.18 55.12 1024.15 54.528 1024.81 53.344L1027.71 54.928C1027.25 55.952 1026.5 56.752 1025.48 57.328C1024.47 57.904 1023.29 58.192 1021.93 58.192ZM1029.87 45.088H1033.61V58H1029.87V45.088ZM1037.09 40.192H1040.83V58H1037.09V40.192ZM1049.51 44.896C1051.51 44.896 1053.05 45.376 1054.12 46.336C1055.19 47.28 1055.73 48.712 1055.73 50.632V58H1052.23V56.392C1051.52 57.592 1050.21 58.192 1048.29 58.192C1047.3 58.192 1046.43 58.024 1045.7 57.688C1044.98 57.352 1044.43 56.888 1044.04 56.296C1043.66 55.704 1043.47 55.032 1043.47 54.28C1043.47 53.08 1043.91 52.136 1044.81 51.448C1045.72 50.76 1047.12 50.416 1049.01 50.416H1051.99C1051.99 49.6 1051.74 48.976 1051.24 48.544C1050.75 48.096 1050 47.872 1049.01 47.872C1048.32 47.872 1047.64 47.984 1046.97 48.208C1046.31 48.416 1045.75 48.704 1045.29 49.072L1043.95 46.456C1044.65 45.96 1045.49 45.576 1046.47 45.304C1047.46 45.032 1048.47 44.896 1049.51 44.896ZM1049.23 55.672C1049.87 55.672 1050.43 55.528 1050.93 55.24C1051.43 54.936 1051.78 54.496 1051.99 53.92V52.6H1049.42C1047.88 52.6 1047.11 53.104 1047.11 54.112C1047.11 54.592 1047.3 54.976 1047.67 55.264C1048.05 55.536 1048.57 55.672 1049.23 55.672ZM1062.69 46.792C1063.14 46.168 1063.74 45.696 1064.49 45.376C1065.26 45.056 1066.14 44.896 1067.13 44.896V48.352C1066.72 48.32 1066.44 48.304 1066.29 48.304C1065.22 48.304 1064.38 48.608 1063.77 49.216C1063.17 49.808 1062.86 50.704 1062.86 51.904V58H1059.12V45.088H1062.69V46.792Z" fill="black"/>
<path d="M1158.74 58L1155.5 53.32H1155.3H1151.92V58H1148.03V41.2H1155.3C1156.79 41.2 1158.08 41.448 1159.17 41.944C1160.27 42.44 1161.12 43.144 1161.71 44.056C1162.3 44.968 1162.6 46.048 1162.6 47.296C1162.6 48.544 1162.3 49.624 1161.69 50.536C1161.1 51.432 1160.25 52.12 1159.14 52.6L1162.91 58H1158.74ZM1158.66 47.296C1158.66 46.352 1158.36 45.632 1157.75 45.136C1157.14 44.624 1156.26 44.368 1155.09 44.368H1151.92V50.224H1155.09C1156.26 50.224 1157.14 49.968 1157.75 49.456C1158.36 48.944 1158.66 48.224 1158.66 47.296ZM1178.06 51.592C1178.06 51.64 1178.04 51.976 1177.99 52.6H1168.22C1168.4 53.4 1168.82 54.032 1169.47 54.496C1170.13 54.96 1170.94 55.192 1171.92 55.192C1172.59 55.192 1173.18 55.096 1173.7 54.904C1174.22 54.696 1174.71 54.376 1175.16 53.944L1177.15 56.104C1175.94 57.496 1174.16 58.192 1171.82 58.192C1170.37 58.192 1169.08 57.912 1167.96 57.352C1166.84 56.776 1165.98 55.984 1165.37 54.976C1164.76 53.968 1164.46 52.824 1164.46 51.544C1164.46 50.28 1164.75 49.144 1165.34 48.136C1165.95 47.112 1166.78 46.32 1167.82 45.76C1168.87 45.184 1170.05 44.896 1171.34 44.896C1172.61 44.896 1173.75 45.168 1174.78 45.712C1175.8 46.256 1176.6 47.04 1177.18 48.064C1177.77 49.072 1178.06 50.248 1178.06 51.592ZM1171.37 47.728C1170.52 47.728 1169.81 47.968 1169.23 48.448C1168.66 48.928 1168.3 49.584 1168.18 50.416H1174.54C1174.41 49.6 1174.06 48.952 1173.48 48.472C1172.9 47.976 1172.2 47.728 1171.37 47.728ZM1184.9 58.192C1183.83 58.192 1182.78 58.064 1181.76 57.808C1180.73 57.536 1179.92 57.2 1179.31 56.8L1180.56 54.112C1181.13 54.48 1181.83 54.784 1182.64 55.024C1183.46 55.248 1184.26 55.36 1185.04 55.36C1186.63 55.36 1187.42 54.968 1187.42 54.184C1187.42 53.816 1187.2 53.552 1186.77 53.392C1186.34 53.232 1185.68 53.096 1184.78 52.984C1183.72 52.824 1182.85 52.64 1182.16 52.432C1181.48 52.224 1180.88 51.856 1180.36 51.328C1179.87 50.8 1179.62 50.048 1179.62 49.072C1179.62 48.256 1179.85 47.536 1180.32 46.912C1180.8 46.272 1181.48 45.776 1182.38 45.424C1183.29 45.072 1184.36 44.896 1185.6 44.896C1186.51 44.896 1187.41 45 1188.31 45.208C1189.22 45.4 1189.97 45.672 1190.56 46.024L1189.32 48.688C1188.18 48.048 1186.94 47.728 1185.6 47.728C1184.8 47.728 1184.2 47.84 1183.8 48.064C1183.4 48.288 1183.2 48.576 1183.2 48.928C1183.2 49.328 1183.41 49.608 1183.84 49.768C1184.28 49.928 1184.96 50.08 1185.91 50.224C1186.96 50.4 1187.83 50.592 1188.5 50.8C1189.17 50.992 1189.76 51.352 1190.25 51.88C1190.75 52.408 1191 53.144 1191 54.088C1191 54.888 1190.76 55.6 1190.28 56.224C1189.8 56.848 1189.09 57.336 1188.16 57.688C1187.25 58.024 1186.16 58.192 1184.9 58.192ZM1184.3 63.568C1183.88 63.568 1183.48 63.52 1183.08 63.424C1182.68 63.344 1182.34 63.224 1182.07 63.064L1182.64 61.456C1183.16 61.696 1183.68 61.816 1184.2 61.816C1185.04 61.816 1185.45 61.56 1185.45 61.048C1185.45 60.584 1185.06 60.352 1184.28 60.352H1183.46L1184.08 57.808H1186.08L1185.74 59.2C1186.44 59.28 1186.96 59.496 1187.3 59.848C1187.65 60.216 1187.83 60.664 1187.83 61.192C1187.83 61.928 1187.51 62.504 1186.87 62.92C1186.23 63.352 1185.37 63.568 1184.3 63.568ZM1193.31 45.088H1197.05V58H1193.31V45.088ZM1195.18 43.288C1194.49 43.288 1193.93 43.088 1193.5 42.688C1193.07 42.288 1192.85 41.792 1192.85 41.2C1192.85 40.608 1193.07 40.112 1193.5 39.712C1193.93 39.312 1194.49 39.112 1195.18 39.112C1195.87 39.112 1196.43 39.304 1196.86 39.688C1197.29 40.072 1197.51 40.552 1197.51 41.128C1197.51 41.752 1197.29 42.272 1196.86 42.688C1196.43 43.088 1195.87 43.288 1195.18 43.288ZM1208.85 57.376C1208.48 57.648 1208.03 57.856 1207.48 58C1206.96 58.128 1206.4 58.192 1205.8 58.192C1204.27 58.192 1203.08 57.8 1202.23 57.016C1201.4 56.232 1200.98 55.08 1200.98 53.56V48.256H1198.99V45.376H1200.98V42.232H1204.72V45.376H1207.94V48.256H1204.72V53.512C1204.72 54.056 1204.86 54.48 1205.13 54.784C1205.42 55.072 1205.82 55.216 1206.33 55.216C1206.92 55.216 1207.43 55.056 1207.84 54.736L1208.85 57.376ZM1218.59 44.896C1219.79 44.896 1220.87 45.176 1221.85 45.736C1222.84 46.28 1223.62 47.056 1224.18 48.064C1224.74 49.056 1225.02 50.216 1225.02 51.544C1225.02 52.872 1224.74 54.04 1224.18 55.048C1223.62 56.04 1222.84 56.816 1221.85 57.376C1220.87 57.92 1219.79 58.192 1218.59 58.192C1216.94 58.192 1215.64 57.672 1214.7 56.632V62.656H1210.95V45.088H1214.53V46.576C1215.46 45.456 1216.81 44.896 1218.59 44.896ZM1217.94 55.12C1218.9 55.12 1219.68 54.8 1220.29 54.16C1220.91 53.504 1221.23 52.632 1221.23 51.544C1221.23 50.456 1220.91 49.592 1220.29 48.952C1219.68 48.296 1218.9 47.968 1217.94 47.968C1216.98 47.968 1216.19 48.296 1215.56 48.952C1214.95 49.592 1214.65 50.456 1214.65 51.544C1214.65 52.632 1214.95 53.504 1215.56 54.16C1216.19 54.8 1216.98 55.12 1217.94 55.12ZM1232.52 44.896C1234.52 44.896 1236.06 45.376 1237.13 46.336C1238.2 47.28 1238.74 48.712 1238.74 50.632V58H1235.23V56.392C1234.53 57.592 1233.22 58.192 1231.3 58.192C1230.31 58.192 1229.44 58.024 1228.71 57.688C1227.99 57.352 1227.43 56.888 1227.05 56.296C1226.67 55.704 1226.47 55.032 1226.47 54.28C1226.47 53.08 1226.92 52.136 1227.82 51.448C1228.73 50.76 1230.13 50.416 1232.02 50.416H1234.99C1234.99 49.6 1234.75 48.976 1234.25 48.544C1233.75 48.096 1233.01 47.872 1232.02 47.872C1231.33 47.872 1230.65 47.984 1229.98 48.208C1229.32 48.416 1228.76 48.704 1228.3 49.072L1226.95 46.456C1227.66 45.96 1228.5 45.576 1229.47 45.304C1230.47 45.032 1231.48 44.896 1232.52 44.896ZM1232.23 55.672C1232.87 55.672 1233.44 55.528 1233.94 55.24C1234.43 54.936 1234.79 54.496 1234.99 53.92V52.6H1232.43C1230.89 52.6 1230.12 53.104 1230.12 54.112C1230.12 54.592 1230.31 54.976 1230.67 55.264C1231.06 55.536 1231.58 55.672 1232.23 55.672ZM1246.47 58.192C1245.4 58.192 1244.35 58.064 1243.33 57.808C1242.3 57.536 1241.49 57.2 1240.88 56.8L1242.13 54.112C1242.7 54.48 1243.4 54.784 1244.21 55.024C1245.03 55.248 1245.83 55.36 1246.61 55.36C1248.2 55.36 1248.99 54.968 1248.99 54.184C1248.99 53.816 1248.77 53.552 1248.34 53.392C1247.91 53.232 1247.25 53.096 1246.35 52.984C1245.29 52.824 1244.42 52.64 1243.73 52.432C1243.05 52.224 1242.45 51.856 1241.93 51.328C1241.44 50.8 1241.19 50.048 1241.19 49.072C1241.19 48.256 1241.42 47.536 1241.89 46.912C1242.37 46.272 1243.05 45.776 1243.95 45.424C1244.86 45.072 1245.93 44.896 1247.17 44.896C1248.08 44.896 1248.98 45 1249.88 45.208C1250.79 45.4 1251.54 45.672 1252.13 46.024L1250.89 48.688C1249.75 48.048 1248.51 47.728 1247.17 47.728C1246.37 47.728 1245.77 47.84 1245.37 48.064C1244.97 48.288 1244.77 48.576 1244.77 48.928C1244.77 49.328 1244.98 49.608 1245.41 49.768C1245.85 49.928 1246.53 50.08 1247.48 50.224C1248.53 50.4 1249.4 50.592 1250.07 50.8C1250.74 50.992 1251.33 51.352 1251.82 51.88C1252.32 52.408 1252.57 53.144 1252.57 54.088C1252.57 54.888 1252.33 55.6 1251.85 56.224C1251.37 56.848 1250.66 57.336 1249.73 57.688C1248.82 58.024 1247.73 58.192 1246.47 58.192ZM1245.87 63.568C1245.45 63.568 1245.05 63.52 1244.65 63.424C1244.25 63.344 1243.91 63.224 1243.64 63.064L1244.21 61.456C1244.73 61.696 1245.25 61.816 1245.77 61.816C1246.61 61.816 1247.02 61.56 1247.02 61.048C1247.02 60.584 1246.63 60.352 1245.85 60.352H1245.03L1245.65 57.808H1247.65L1247.31 59.2C1248.01 59.28 1248.53 59.496 1248.87 59.848C1249.22 60.216 1249.4 60.664 1249.4 61.192C1249.4 61.928 1249.08 62.504 1248.44 62.92C1247.8 63.352 1246.94 63.568 1245.87 63.568ZM1260.08 44.896C1262.08 44.896 1263.62 45.376 1264.69 46.336C1265.76 47.28 1266.3 48.712 1266.3 50.632V58H1262.8V56.392C1262.09 57.592 1260.78 58.192 1258.86 58.192C1257.87 58.192 1257 58.024 1256.27 57.688C1255.55 57.352 1255 56.888 1254.61 56.296C1254.23 55.704 1254.04 55.032 1254.04 54.28C1254.04 53.08 1254.48 52.136 1255.38 51.448C1256.29 50.76 1257.69 50.416 1259.58 50.416H1262.56C1262.56 49.6 1262.31 48.976 1261.81 48.544C1261.32 48.096 1260.57 47.872 1259.58 47.872C1258.89 47.872 1258.21 47.984 1257.54 48.208C1256.88 48.416 1256.32 48.704 1255.86 49.072L1254.52 46.456C1255.22 45.96 1256.06 45.576 1257.04 45.304C1258.03 45.032 1259.04 44.896 1260.08 44.896ZM1259.8 55.672C1260.44 55.672 1261 55.528 1261.5 55.24C1262 54.936 1262.35 54.496 1262.56 53.92V52.6H1259.99C1258.45 52.6 1257.68 53.104 1257.68 54.112C1257.68 54.592 1257.87 54.976 1258.24 55.264C1258.62 55.536 1259.14 55.672 1259.8 55.672Z" fill="black"/>
<path d="M1303.46 51.4L1301.21 53.752V58H1297.34V41.2H1301.21V49.048L1308.65 41.2H1312.97L1306.01 48.688L1313.38 58H1308.84L1303.46 51.4ZM1327.45 45.088V58H1323.9V56.464C1323.41 57.024 1322.81 57.456 1322.13 57.76C1321.44 58.048 1320.69 58.192 1319.89 58.192C1318.2 58.192 1316.85 57.704 1315.86 56.728C1314.87 55.752 1314.37 54.304 1314.37 52.384V45.088H1318.12V51.832C1318.12 53.912 1318.99 54.952 1320.73 54.952C1321.63 54.952 1322.35 54.664 1322.89 54.088C1323.44 53.496 1323.71 52.624 1323.71 51.472V45.088H1327.45ZM1318.48 43.312C1318 43.312 1317.6 43.16 1317.28 42.856C1316.96 42.536 1316.8 42.136 1316.8 41.656C1316.8 41.176 1316.96 40.784 1317.28 40.48C1317.6 40.16 1318 40 1318.48 40C1318.96 40 1319.35 40.16 1319.65 40.48C1319.97 40.784 1320.13 41.176 1320.13 41.656C1320.13 42.136 1319.97 42.536 1319.65 42.856C1319.35 43.16 1318.96 43.312 1318.48 43.312ZM1323.33 43.312C1322.85 43.312 1322.45 43.16 1322.13 42.856C1321.82 42.536 1321.67 42.136 1321.67 41.656C1321.67 41.176 1321.82 40.784 1322.13 40.48C1322.45 40.16 1322.85 40 1323.33 40C1323.81 40 1324.21 40.16 1324.53 40.48C1324.85 40.784 1325.01 41.176 1325.01 41.656C1325.01 42.136 1324.85 42.536 1324.53 42.856C1324.21 43.16 1323.81 43.312 1323.33 43.312ZM1337.16 58.192C1335.79 58.192 1334.55 57.912 1333.44 57.352C1332.36 56.776 1331.5 55.984 1330.88 54.976C1330.27 53.968 1329.96 52.824 1329.96 51.544C1329.96 50.264 1330.27 49.12 1330.88 48.112C1331.5 47.104 1332.36 46.32 1333.44 45.76C1334.55 45.184 1335.79 44.896 1337.16 44.896C1338.52 44.896 1339.71 45.184 1340.72 45.76C1341.74 46.32 1342.48 47.128 1342.95 48.184L1340.04 49.744C1339.37 48.56 1338.4 47.968 1337.14 47.968C1336.16 47.968 1335.36 48.288 1334.72 48.928C1334.08 49.568 1333.76 50.44 1333.76 51.544C1333.76 52.648 1334.08 53.52 1334.72 54.16C1335.36 54.8 1336.16 55.12 1337.14 55.12C1338.42 55.12 1339.39 54.528 1340.04 53.344L1342.95 54.928C1342.48 55.952 1341.74 56.752 1340.72 57.328C1339.71 57.904 1338.52 58.192 1337.16 58.192ZM1335.8 63.568C1335.38 63.568 1334.97 63.52 1334.57 63.424C1334.17 63.344 1333.84 63.224 1333.56 63.064L1334.14 61.456C1334.65 61.696 1335.17 61.816 1335.7 61.816C1336.53 61.816 1336.95 61.56 1336.95 61.048C1336.95 60.584 1336.56 60.352 1335.77 60.352H1334.96L1335.58 57.808H1337.57L1337.24 59.2C1337.94 59.28 1338.46 59.496 1338.8 59.848C1339.15 60.216 1339.32 60.664 1339.32 61.192C1339.32 61.928 1339 62.504 1338.36 62.92C1337.72 63.352 1336.87 63.568 1335.8 63.568ZM1358.11 45.088V58H1354.56V56.464C1354.06 57.024 1353.47 57.456 1352.78 57.76C1352.1 58.048 1351.35 58.192 1350.55 58.192C1348.86 58.192 1347.51 57.704 1346.52 56.728C1345.53 55.752 1345.03 54.304 1345.03 52.384V45.088H1348.78V51.832C1348.78 53.912 1349.65 54.952 1351.39 54.952C1352.29 54.952 1353.01 54.664 1353.55 54.088C1354.1 53.496 1354.37 52.624 1354.37 51.472V45.088H1358.11ZM1349.14 43.312C1348.66 43.312 1348.26 43.16 1347.94 42.856C1347.62 42.536 1347.46 42.136 1347.46 41.656C1347.46 41.176 1347.62 40.784 1347.94 40.48C1348.26 40.16 1348.66 40 1349.14 40C1349.62 40 1350.01 40.16 1350.31 40.48C1350.63 40.784 1350.79 41.176 1350.79 41.656C1350.79 42.136 1350.63 42.536 1350.31 42.856C1350.01 43.16 1349.62 43.312 1349.14 43.312ZM1353.98 43.312C1353.5 43.312 1353.1 43.16 1352.78 42.856C1352.48 42.536 1352.33 42.136 1352.33 41.656C1352.33 41.176 1352.48 40.784 1352.78 40.48C1353.1 40.16 1353.5 40 1353.98 40C1354.46 40 1354.86 40.16 1355.18 40.48C1355.5 40.784 1355.66 41.176 1355.66 41.656C1355.66 42.136 1355.5 42.536 1355.18 42.856C1354.86 43.16 1354.46 43.312 1353.98 43.312ZM1367.12 52.936L1365.32 54.712V58H1361.58V40.192H1365.32V50.272L1370.8 45.088H1375.26L1369.88 50.56L1375.74 58H1371.2L1367.12 52.936ZM1383.1 58.192C1381.72 58.192 1380.48 57.912 1379.38 57.352C1378.29 56.776 1377.44 55.984 1376.81 54.976C1376.2 53.968 1375.9 52.824 1375.9 51.544C1375.9 50.264 1376.2 49.12 1376.81 48.112C1377.44 47.104 1378.29 46.32 1379.38 45.76C1380.48 45.184 1381.72 44.896 1383.1 44.896C1384.46 44.896 1385.64 45.184 1386.65 45.76C1387.68 46.32 1388.42 47.128 1388.88 48.184L1385.98 49.744C1385.31 48.56 1384.34 47.968 1383.08 47.968C1382.1 47.968 1381.29 48.288 1380.65 48.928C1380.01 49.568 1379.69 50.44 1379.69 51.544C1379.69 52.648 1380.01 53.52 1380.65 54.16C1381.29 54.8 1382.1 55.12 1383.08 55.12C1384.36 55.12 1385.32 54.528 1385.98 53.344L1388.88 54.928C1388.42 55.952 1387.68 56.752 1386.65 57.328C1385.64 57.904 1384.46 58.192 1383.1 58.192ZM1381.73 63.568C1381.32 63.568 1380.91 63.52 1380.51 63.424C1380.11 63.344 1379.77 63.224 1379.5 63.064L1380.08 61.456C1380.59 61.696 1381.11 61.816 1381.64 61.816C1382.47 61.816 1382.88 61.56 1382.88 61.048C1382.88 60.584 1382.49 60.352 1381.71 60.352H1380.89L1381.52 57.808H1383.51L1383.17 59.2C1383.88 59.28 1384.4 59.496 1384.73 59.848C1385.08 60.216 1385.26 60.664 1385.26 61.192C1385.26 61.928 1384.94 62.504 1384.3 62.92C1383.66 63.352 1382.8 63.568 1381.73 63.568ZM1403.52 51.592C1403.52 51.64 1403.5 51.976 1403.45 52.6H1393.68C1393.86 53.4 1394.28 54.032 1394.93 54.496C1395.59 54.96 1396.4 55.192 1397.38 55.192C1398.05 55.192 1398.64 55.096 1399.16 54.904C1399.68 54.696 1400.17 54.376 1400.62 53.944L1402.61 56.104C1401.4 57.496 1399.62 58.192 1397.28 58.192C1395.83 58.192 1394.54 57.912 1393.42 57.352C1392.3 56.776 1391.44 55.984 1390.83 54.976C1390.22 53.968 1389.92 52.824 1389.92 51.544C1389.92 50.28 1390.21 49.144 1390.8 48.136C1391.41 47.112 1392.24 46.32 1393.28 45.76C1394.33 45.184 1395.51 44.896 1396.8 44.896C1398.07 44.896 1399.21 45.168 1400.24 45.712C1401.26 46.256 1402.06 47.04 1402.64 48.064C1403.23 49.072 1403.52 50.248 1403.52 51.592ZM1396.83 47.728C1395.98 47.728 1395.27 47.968 1394.69 48.448C1394.12 48.928 1393.76 49.584 1393.64 50.416H1400C1399.87 49.6 1399.52 48.952 1398.94 48.472C1398.36 47.976 1397.66 47.728 1396.83 47.728ZM1411.56 52.936L1409.76 54.712V58H1406.02V40.192H1409.76V50.272L1415.23 45.088H1419.7L1414.32 50.56L1420.18 58H1415.64L1411.56 52.936ZM1438.3 44.896C1439.92 44.896 1441.2 45.376 1442.14 46.336C1443.1 47.28 1443.58 48.704 1443.58 50.608V58H1439.84V51.184C1439.84 50.16 1439.62 49.4 1439.19 48.904C1438.78 48.392 1438.18 48.136 1437.39 48.136C1436.51 48.136 1435.82 48.424 1435.3 49C1434.79 49.56 1434.54 50.4 1434.54 51.52V58H1430.79V51.184C1430.79 49.152 1429.98 48.136 1428.34 48.136C1427.48 48.136 1426.79 48.424 1426.28 49C1425.77 49.56 1425.51 50.4 1425.51 51.52V58H1421.77V45.088H1425.34V46.576C1425.82 46.032 1426.41 45.616 1427.1 45.328C1427.8 45.04 1428.57 44.896 1429.4 44.896C1430.31 44.896 1431.14 45.08 1431.87 45.448C1432.61 45.8 1433.2 46.32 1433.65 47.008C1434.18 46.336 1434.84 45.816 1435.64 45.448C1436.46 45.08 1437.34 44.896 1438.3 44.896ZM1459.73 51.592C1459.73 51.64 1459.7 51.976 1459.66 52.6H1449.89C1450.06 53.4 1450.48 54.032 1451.14 54.496C1451.79 54.96 1452.61 55.192 1453.58 55.192C1454.26 55.192 1454.85 55.096 1455.36 54.904C1455.89 54.696 1456.38 54.376 1456.82 53.944L1458.82 56.104C1457.6 57.496 1455.82 58.192 1453.49 58.192C1452.03 58.192 1450.74 57.912 1449.62 57.352C1448.5 56.776 1447.64 55.984 1447.03 54.976C1446.42 53.968 1446.12 52.824 1446.12 51.544C1446.12 50.28 1446.42 49.144 1447.01 48.136C1447.62 47.112 1448.44 46.32 1449.48 45.76C1450.54 45.184 1451.71 44.896 1453.01 44.896C1454.27 44.896 1455.42 45.168 1456.44 45.712C1457.46 46.256 1458.26 47.04 1458.84 48.064C1459.43 49.072 1459.73 50.248 1459.73 51.592ZM1453.03 47.728C1452.18 47.728 1451.47 47.968 1450.9 48.448C1450.32 48.928 1449.97 49.584 1449.84 50.416H1456.2C1456.07 49.6 1455.72 48.952 1455.14 48.472C1454.57 47.976 1453.86 47.728 1453.03 47.728ZM1468.46 58.192C1467.08 58.192 1465.84 57.912 1464.74 57.352C1463.65 56.776 1462.8 55.984 1462.17 54.976C1461.56 53.968 1461.26 52.824 1461.26 51.544C1461.26 50.264 1461.56 49.12 1462.17 48.112C1462.8 47.104 1463.65 46.32 1464.74 45.76C1465.84 45.184 1467.08 44.896 1468.46 44.896C1469.82 44.896 1471 45.184 1472.01 45.76C1473.04 46.32 1473.78 47.128 1474.24 48.184L1471.34 49.744C1470.67 48.56 1469.7 47.968 1468.44 47.968C1467.46 47.968 1466.65 48.288 1466.01 48.928C1465.37 49.568 1465.05 50.44 1465.05 51.544C1465.05 52.648 1465.37 53.52 1466.01 54.16C1466.65 54.8 1467.46 55.12 1468.44 55.12C1469.72 55.12 1470.68 54.528 1471.34 53.344L1474.24 54.928C1473.78 55.952 1473.04 56.752 1472.01 57.328C1471 57.904 1469.82 58.192 1468.46 58.192ZM1488.88 51.592C1488.88 51.64 1488.86 51.976 1488.81 52.6H1479.04C1479.22 53.4 1479.64 54.032 1480.29 54.496C1480.95 54.96 1481.76 55.192 1482.74 55.192C1483.41 55.192 1484 55.096 1484.52 54.904C1485.04 54.696 1485.53 54.376 1485.98 53.944L1487.97 56.104C1486.76 57.496 1484.98 58.192 1482.64 58.192C1481.19 58.192 1479.9 57.912 1478.78 57.352C1477.66 56.776 1476.8 55.984 1476.19 54.976C1475.58 53.968 1475.28 52.824 1475.28 51.544C1475.28 50.28 1475.57 49.144 1476.16 48.136C1476.77 47.112 1477.6 46.32 1478.64 45.76C1479.69 45.184 1480.87 44.896 1482.16 44.896C1483.43 44.896 1484.57 45.168 1485.6 45.712C1486.62 46.256 1487.42 47.04 1488 48.064C1488.59 49.072 1488.88 50.248 1488.88 51.592ZM1482.19 47.728C1481.34 47.728 1480.63 47.968 1480.05 48.448C1479.48 48.928 1479.12 49.584 1479 50.416H1485.36C1485.23 49.6 1484.88 48.952 1484.3 48.472C1483.72 47.976 1483.02 47.728 1482.19 47.728Z" fill="black"/>
<path d="M1541.43 58.288C1539.72 58.288 1538.17 57.92 1536.78 57.184C1535.4 56.432 1534.31 55.4 1533.51 54.088C1532.73 52.76 1532.34 51.264 1532.34 49.6C1532.34 47.936 1532.73 46.448 1533.51 45.136C1534.31 43.808 1535.4 42.776 1536.78 42.04C1538.17 41.288 1539.73 40.912 1541.46 40.912C1542.91 40.912 1544.23 41.168 1545.39 41.68C1546.58 42.192 1547.57 42.928 1548.37 43.888L1545.87 46.192C1544.74 44.88 1543.33 44.224 1541.65 44.224C1540.61 44.224 1539.68 44.456 1538.87 44.92C1538.05 45.368 1537.41 46 1536.95 46.816C1536.5 47.632 1536.27 48.56 1536.27 49.6C1536.27 50.64 1536.5 51.568 1536.95 52.384C1537.41 53.2 1538.05 53.84 1538.87 54.304C1539.68 54.752 1540.61 54.976 1541.65 54.976C1543.33 54.976 1544.74 54.312 1545.87 52.984L1548.37 55.288C1547.57 56.264 1546.58 57.008 1545.39 57.52C1544.21 58.032 1542.89 58.288 1541.43 58.288ZM1562.93 51.592C1562.93 51.64 1562.91 51.976 1562.86 52.6H1553.09C1553.27 53.4 1553.69 54.032 1554.34 54.496C1555 54.96 1555.81 55.192 1556.79 55.192C1557.46 55.192 1558.05 55.096 1558.57 54.904C1559.09 54.696 1559.58 54.376 1560.03 53.944L1562.02 56.104C1560.81 57.496 1559.03 58.192 1556.69 58.192C1555.24 58.192 1553.95 57.912 1552.83 57.352C1551.71 56.776 1550.85 55.984 1550.24 54.976C1549.63 53.968 1549.33 52.824 1549.33 51.544C1549.33 50.28 1549.62 49.144 1550.21 48.136C1550.82 47.112 1551.65 46.32 1552.69 45.76C1553.74 45.184 1554.92 44.896 1556.21 44.896C1557.48 44.896 1558.62 45.168 1559.65 45.712C1560.67 46.256 1561.47 47.04 1562.05 48.064C1562.64 49.072 1562.93 50.248 1562.93 51.592ZM1556.24 47.728C1555.39 47.728 1554.68 47.968 1554.1 48.448C1553.53 48.928 1553.17 49.584 1553.05 50.416H1559.41C1559.28 49.6 1558.93 48.952 1558.35 48.472C1557.77 47.976 1557.07 47.728 1556.24 47.728ZM1573.28 44.896C1574.88 44.896 1576.16 45.376 1577.14 46.336C1578.13 47.296 1578.63 48.72 1578.63 50.608V58H1574.88V51.184C1574.88 50.16 1574.66 49.4 1574.21 48.904C1573.76 48.392 1573.12 48.136 1572.27 48.136C1571.32 48.136 1570.57 48.432 1570.01 49.024C1569.45 49.6 1569.17 50.464 1569.17 51.616V58H1565.43V45.088H1569V46.6C1569.5 46.056 1570.12 45.64 1570.85 45.352C1571.59 45.048 1572.4 44.896 1573.28 44.896ZM1589.87 44.896C1591.47 44.896 1592.76 45.376 1593.73 46.336C1594.72 47.296 1595.22 48.72 1595.22 50.608V58H1591.48V51.184C1591.48 50.16 1591.25 49.4 1590.8 48.904C1590.36 48.392 1589.71 48.136 1588.86 48.136C1587.92 48.136 1587.16 48.432 1586.6 49.024C1586.04 49.6 1585.76 50.464 1585.76 51.616V58H1582.02V45.088H1585.6V46.6C1586.09 46.056 1586.71 45.64 1587.44 45.352C1588.18 45.048 1588.99 44.896 1589.87 44.896ZM1611.4 51.592C1611.4 51.64 1611.38 51.976 1611.33 52.6H1601.56C1601.74 53.4 1602.16 54.032 1602.81 54.496C1603.47 54.96 1604.28 55.192 1605.26 55.192C1605.93 55.192 1606.52 55.096 1607.04 54.904C1607.56 54.696 1608.05 54.376 1608.5 53.944L1610.49 56.104C1609.28 57.496 1607.5 58.192 1605.16 58.192C1603.71 58.192 1602.42 57.912 1601.3 57.352C1600.18 56.776 1599.32 55.984 1598.71 54.976C1598.1 53.968 1597.8 52.824 1597.8 51.544C1597.8 50.28 1598.09 49.144 1598.68 48.136C1599.29 47.112 1600.12 46.32 1601.16 45.76C1602.21 45.184 1603.39 44.896 1604.68 44.896C1605.95 44.896 1607.09 45.168 1608.12 45.712C1609.14 46.256 1609.94 47.04 1610.52 48.064C1611.11 49.072 1611.4 50.248 1611.4 51.592ZM1604.71 47.728C1603.86 47.728 1603.15 47.968 1602.57 48.448C1602 48.928 1601.64 49.584 1601.52 50.416H1607.88C1607.75 49.6 1607.4 48.952 1606.82 48.472C1606.24 47.976 1605.54 47.728 1604.71 47.728ZM1622.22 57.376C1621.86 57.648 1621.4 57.856 1620.86 58C1620.33 58.128 1619.77 58.192 1619.18 58.192C1617.64 58.192 1616.45 57.8 1615.6 57.016C1614.77 56.232 1614.35 55.08 1614.35 53.56V48.256H1612.36V45.376H1614.35V42.232H1618.1V45.376H1621.31V48.256H1618.1V53.512C1618.1 54.056 1618.23 54.48 1618.5 54.784C1618.79 55.072 1619.19 55.216 1619.7 55.216C1620.3 55.216 1620.8 55.056 1621.22 54.736L1622.22 57.376Z" fill="black"/>
<path d="M1716.86 58.288C1715.53 58.288 1714.24 58.112 1713 57.76C1711.76 57.392 1710.77 56.92 1710.02 56.344L1711.34 53.416C1712.06 53.944 1712.92 54.368 1713.91 54.688C1714.9 55.008 1715.89 55.168 1716.88 55.168C1717.99 55.168 1718.8 55.008 1719.33 54.688C1719.86 54.352 1720.12 53.912 1720.12 53.368C1720.12 52.968 1719.96 52.64 1719.64 52.384C1719.34 52.112 1718.94 51.896 1718.44 51.736C1717.96 51.576 1717.31 51.4 1716.48 51.208C1715.2 50.904 1714.15 50.6 1713.33 50.296C1712.52 49.992 1711.81 49.504 1711.22 48.832C1710.64 48.16 1710.36 47.264 1710.36 46.144C1710.36 45.168 1710.62 44.288 1711.15 43.504C1711.68 42.704 1712.47 42.072 1713.52 41.608C1714.6 41.144 1715.9 40.912 1717.44 40.912C1718.51 40.912 1719.56 41.04 1720.58 41.296C1721.6 41.552 1722.5 41.92 1723.27 42.4L1722.07 45.352C1720.52 44.472 1718.96 44.032 1717.41 44.032C1716.32 44.032 1715.52 44.208 1714.99 44.56C1714.48 44.912 1714.22 45.376 1714.22 45.952C1714.22 46.528 1714.52 46.96 1715.11 47.248C1715.72 47.52 1716.64 47.792 1717.87 48.064C1719.15 48.368 1720.2 48.672 1721.01 48.976C1721.83 49.28 1722.52 49.76 1723.1 50.416C1723.69 51.072 1723.99 51.96 1723.99 53.08C1723.99 54.04 1723.72 54.92 1723.17 55.72C1722.64 56.504 1721.84 57.128 1720.77 57.592C1719.7 58.056 1718.4 58.288 1716.86 58.288ZM1739.03 51.592C1739.03 51.64 1739 51.976 1738.96 52.6H1729.19C1729.36 53.4 1729.78 54.032 1730.44 54.496C1731.09 54.96 1731.91 55.192 1732.88 55.192C1733.56 55.192 1734.15 55.096 1734.66 54.904C1735.19 54.696 1735.68 54.376 1736.12 53.944L1738.12 56.104C1736.9 57.496 1735.12 58.192 1732.79 58.192C1731.33 58.192 1730.04 57.912 1728.92 57.352C1727.8 56.776 1726.94 55.984 1726.33 54.976C1725.72 53.968 1725.42 52.824 1725.42 51.544C1725.42 50.28 1725.72 49.144 1726.31 48.136C1726.92 47.112 1727.74 46.32 1728.78 45.76C1729.84 45.184 1731.01 44.896 1732.31 44.896C1733.57 44.896 1734.72 45.168 1735.74 45.712C1736.76 46.256 1737.56 47.04 1738.14 48.064C1738.73 49.072 1739.03 50.248 1739.03 51.592ZM1732.33 47.728C1731.48 47.728 1730.77 47.968 1730.2 48.448C1729.62 48.928 1729.27 49.584 1729.14 50.416H1735.5C1735.37 49.6 1735.02 48.952 1734.44 48.472C1733.87 47.976 1733.16 47.728 1732.33 47.728ZM1745.62 45.376H1748.94V48.256H1745.72V58H1741.98V48.256H1739.98V45.376H1741.98V44.8C1741.98 43.328 1742.41 42.16 1743.27 41.296C1744.15 40.432 1745.38 40 1746.97 40C1747.53 40 1748.06 40.064 1748.55 40.192C1749.06 40.304 1749.49 40.472 1749.82 40.696L1748.84 43.408C1748.41 43.104 1747.9 42.952 1747.33 42.952C1746.19 42.952 1745.62 43.576 1745.62 44.824V45.376ZM1755.78 44.896C1757.78 44.896 1759.31 45.376 1760.38 46.336C1761.46 47.28 1761.99 48.712 1761.99 50.632V58H1758.49V56.392C1757.78 57.592 1756.47 58.192 1754.55 58.192C1753.56 58.192 1752.7 58.024 1751.96 57.688C1751.24 57.352 1750.69 56.888 1750.3 56.296C1749.92 55.704 1749.73 55.032 1749.73 54.28C1749.73 53.08 1750.18 52.136 1751.07 51.448C1751.98 50.76 1753.38 50.416 1755.27 50.416H1758.25C1758.25 49.6 1758 48.976 1757.5 48.544C1757.01 48.096 1756.26 47.872 1755.27 47.872C1754.58 47.872 1753.9 47.984 1753.23 48.208C1752.58 48.416 1752.02 48.704 1751.55 49.072L1750.21 46.456C1750.91 45.96 1751.75 45.576 1752.73 45.304C1753.72 45.032 1754.74 44.896 1755.78 44.896ZM1755.49 55.672C1756.13 55.672 1756.7 55.528 1757.19 55.24C1757.69 54.936 1758.04 54.496 1758.25 53.92V52.6H1755.68C1754.14 52.6 1753.38 53.104 1753.38 54.112C1753.38 54.592 1753.56 54.976 1753.93 55.264C1754.31 55.536 1754.83 55.672 1755.49 55.672ZM1770.92 52.936L1769.12 54.712V58H1765.38V40.192H1769.12V50.272L1774.6 45.088H1779.06L1773.68 50.56L1779.54 58H1775L1770.92 52.936ZM1786.81 58.192C1785.45 58.192 1784.22 57.912 1783.13 57.352C1782.06 56.776 1781.22 55.984 1780.61 54.976C1780.01 53.968 1779.7 52.824 1779.7 51.544C1779.7 50.264 1780.01 49.12 1780.61 48.112C1781.22 47.104 1782.06 46.32 1783.13 45.76C1784.22 45.184 1785.45 44.896 1786.81 44.896C1788.17 44.896 1789.38 45.184 1790.45 45.76C1791.53 46.32 1792.37 47.104 1792.97 48.112C1793.58 49.12 1793.89 50.264 1793.89 51.544C1793.89 52.824 1793.58 53.968 1792.97 54.976C1792.37 55.984 1791.53 56.776 1790.45 57.352C1789.38 57.912 1788.17 58.192 1786.81 58.192ZM1786.81 55.12C1787.77 55.12 1788.55 54.8 1789.16 54.16C1789.78 53.504 1790.09 52.632 1790.09 51.544C1790.09 50.456 1789.78 49.592 1789.16 48.952C1788.55 48.296 1787.77 47.968 1786.81 47.968C1785.85 47.968 1785.05 48.296 1784.43 48.952C1783.81 49.592 1783.49 50.456 1783.49 51.544C1783.49 52.632 1783.81 53.504 1784.43 54.16C1785.05 54.8 1785.85 55.12 1786.81 55.12ZM1784.33 43.312C1783.85 43.312 1783.45 43.16 1783.13 42.856C1782.81 42.536 1782.65 42.136 1782.65 41.656C1782.65 41.176 1782.81 40.784 1783.13 40.48C1783.45 40.16 1783.85 40 1784.33 40C1784.81 40 1785.21 40.16 1785.51 40.48C1785.83 40.784 1785.99 41.176 1785.99 41.656C1785.99 42.136 1785.83 42.536 1785.51 42.856C1785.21 43.16 1784.81 43.312 1784.33 43.312ZM1789.18 43.312C1788.7 43.312 1788.3 43.16 1787.98 42.856C1787.68 42.536 1787.53 42.136 1787.53 41.656C1787.53 41.176 1787.68 40.784 1787.98 40.48C1788.3 40.16 1788.7 40 1789.18 40C1789.66 40 1790.06 40.16 1790.38 40.48C1790.7 40.784 1790.86 41.176 1790.86 41.656C1790.86 42.136 1790.7 42.536 1790.38 42.856C1790.06 43.16 1789.66 43.312 1789.18 43.312ZM1808.85 45.088L1803.02 58.792C1802.43 60.28 1801.69 61.328 1800.81 61.936C1799.95 62.544 1798.9 62.848 1797.67 62.848C1797 62.848 1796.33 62.744 1795.68 62.536C1795.02 62.328 1794.48 62.04 1794.07 61.672L1795.44 59.008C1795.72 59.264 1796.05 59.464 1796.42 59.608C1796.8 59.752 1797.18 59.824 1797.55 59.824C1798.06 59.824 1798.48 59.696 1798.8 59.44C1799.12 59.2 1799.4 58.792 1799.66 58.216L1799.71 58.096L1794.12 45.088H1797.98L1801.6 53.848L1805.25 45.088H1808.85Z" fill="black"/>
<rect x="285" y="123" width="6" height="21" fill="black"/>
<rect x="97" y="123" width="6" height="21" fill="black"/>
<rect x="470" y="123" width="6" height="21" fill="black"/>
<circle cx="1759" cy="100" r="24" fill="black"/>
<ellipse cx="1759" cy="99.9939" rx="19.2" ry="19.2" fill="white"/>
<rect x="1756" y="123" width="6" height="21" fill="black"/>
<g clip-path="url(#clip0_663_93)">
<path d="M1353 161C1353 157.44 1354.06 153.96 1356.03 151C1358.01 148.04 1360.82 145.733 1364.11 144.37C1367.4 143.008 1371.02 142.651 1374.51 143.346C1378 144.04 1381.21 145.755 1383.73 148.272C1386.25 150.789 1387.96 153.997 1388.65 157.488C1389.35 160.98 1388.99 164.599 1387.63 167.888C1386.27 171.177 1383.96 173.989 1381 175.966C1378.04 177.944 1374.56 179 1371 179C1368.67 179.029 1366.35 178.599 1364.18 177.732C1362.01 176.866 1360.04 175.581 1358.36 173.951C1356.69 172.321 1355.36 170.377 1354.44 168.231C1353.52 166.086 1353.03 163.78 1353 161.445V161Z" fill="#65656A"/>
<path d="M1361.37 167.674V154.305H1366.04C1368.77 154.305 1370.35 155.478 1370.35 157.723C1370.36 158.466 1370.09 159.184 1369.6 159.738C1369.1 160.292 1368.42 160.641 1367.68 160.717C1368.49 160.727 1369.26 161.051 1369.84 161.621C1370.41 162.191 1370.74 162.962 1370.76 163.771C1370.76 166.4 1368.87 167.634 1365.98 167.634L1361.37 167.674ZM1365.13 159.705C1366.89 159.705 1367.7 159.139 1367.7 158.087C1367.7 157.036 1367.16 156.409 1365.27 156.409H1364.04V159.705H1365.13ZM1365.36 165.571C1367.09 165.571 1368.09 164.964 1368.09 163.71C1368.09 162.456 1367.2 161.687 1365.42 161.687H1364.04V165.55L1365.36 165.571Z" fill="white"/>
<path d="M1376.64 167.674V157.36L1374.37 159.18L1373.04 157.42L1376.94 154.285H1379.29V167.674H1376.64Z" fill="white"/>
</g>
<circle cx="843" cy="100" r="24" fill="black"/>
<ellipse cx="843.001" cy="99.9939" rx="19.2" ry="19.2" fill="white"/>
<circle cx="658" cy="100" r="24" fill="black"/>
<ellipse cx="658.001" cy="99.9939" rx="19.2" ry="19.2" fill="white"/>
<rect x="840" y="123" width="6" height="21" fill="black"/>
<rect x="655" y="123" width="6" height="21" fill="black"/>
<circle cx="1392" cy="100" r="24" fill="black"/>
<ellipse cx="1392" cy="99.9939" rx="19.2" ry="19.2" fill="white"/>
<rect x="1389" y="123" width="6" height="20" fill="black"/>
<g clip-path="url(#clip1_663_93)">
<path d="M640 161C640 157.44 641.056 153.96 643.034 151C645.011 148.04 647.823 145.733 651.112 144.37C654.401 143.008 658.02 142.651 661.512 143.346C665.003 144.04 668.211 145.755 670.728 148.272C673.245 150.789 674.96 153.997 675.654 157.488C676.349 160.98 675.992 164.599 674.63 167.888C673.267 171.177 670.96 173.989 668 175.966C665.04 177.944 661.56 179 658 179C653.229 178.989 648.657 177.089 645.284 173.716C641.911 170.343 640.011 165.771 640 161Z" fill="#F29EBF"/>
<path d="M646.27 155.337H650.112L652.944 164.438L655.775 155.337H659.82V167.472H657.393V157.36L654.157 167.472H651.73L648.494 157.36V167.472H646.27V155.337Z" fill="white"/>
<path d="M662.045 155.337H669.73V157.36L665.483 167.472H662.854L667.303 157.157H662.045V155.337Z" fill="white"/>
</g>
<g clip-path="url(#clip2_663_93)">
<path d="M455 161C455 151.09 463.09 143 473 143C482.91 143 491 151.09 491 161C491 170.91 482.91 179 473 179C463.09 179.202 455.202 171.315 455 161.404C455 161.202 455 161.202 455 161Z" fill="#9D9D9D"/>
<path d="M466.326 154.933H470.371L473 164.034L476.034 154.933H479.877V167.067H477.45V156.955L474.416 167.067H471.989L468.753 156.955V157.157V167.067H466.326V154.933Z" fill="white"/>
</g>
<g clip-path="url(#clip3_663_93)">
<path d="M413 160.968C413 157.415 414.054 153.941 416.028 150.986C418.003 148.031 420.809 145.728 424.092 144.368C427.375 143.008 430.988 142.652 434.474 143.345C437.959 144.039 441.161 145.75 443.674 148.263C446.187 150.776 447.898 153.977 448.591 157.463C449.285 160.948 448.929 164.561 447.569 167.844C446.209 171.128 443.906 173.934 440.951 175.908C437.996 177.883 434.522 178.937 430.968 178.937C426.203 178.937 421.632 177.044 418.263 173.674C414.893 170.304 413 165.734 413 160.968Z" fill="#9D9D9C"/>
<path d="M415.494 155.018H419.341L422.227 164.139L425.091 155.007H428.96V167.056H426.74V157.121L423.4 167.067H421.085L417.841 157.121V167.035H415.494V155.018Z" fill="white"/>
<path d="M430.238 167.067V165.048C431.359 163.991 435.46 160.545 435.46 158.336C435.46 157.279 434.477 156.709 433.483 156.709C432.484 156.76 431.52 157.093 430.703 157.671L430.513 155.683C431.637 155.113 432.878 154.813 434.138 154.806C436.432 154.806 437.912 155.969 437.912 158.336C437.912 160.884 435.343 163.241 433.377 165.175H438.292V167.067H430.238Z" fill="white"/>
<path d="M438.875 161.074C438.875 158.051 439.795 154.806 443.103 154.806C446.623 154.806 447.331 158.284 447.331 161.074C447.331 163.864 446.612 167.278 443.103 167.278C439.34 167.31 438.875 163.6 438.875 161.074ZM444.857 161.074C444.857 159.52 444.857 156.603 443.061 156.603C441.264 156.603 441.295 159.52 441.295 161.074C441.295 162.628 441.295 165.481 443.061 165.481C444.826 165.481 444.857 162.596 444.857 161.074Z" fill="white"/>
</g>
<g clip-path="url(#clip4_663_93)">
<mask id="path-63-inside-1_663_93" fill="white">
<path d="M498 146L500.5 144H529L532 146V175.5L529.5 178H500.5L498 175.5V146Z"/>
</mask>
<path d="M500.5 144V80H478.05L460.52 94.0244L500.5 144ZM498 146L458.02 96.0244L434 115.24V146H498ZM498 175.5H434V202.01L452.745 220.755L498 175.5ZM500.5 178L455.245 223.255L473.99 242H500.5V178ZM529.5 178V242H556.01L574.755 223.255L529.5 178ZM532 175.5L577.255 220.755L596 202.01V175.5H532ZM532 146H596V111.748L567.501 92.7488L532 146ZM529 144L564.501 90.7488L548.378 80H529V144ZM460.52 94.0244L458.02 96.0244L537.98 195.976L540.48 193.976L460.52 94.0244ZM434 146V175.5H562V146H434ZM452.745 220.755L455.245 223.255L545.755 132.745L543.255 130.245L452.745 220.755ZM500.5 242H529.5V114H500.5V242ZM574.755 223.255L577.255 220.755L486.745 130.245L484.245 132.745L574.755 223.255ZM596 175.5V146H468V175.5H596ZM567.501 92.7488L564.501 90.7488L493.499 197.251L496.499 199.251L567.501 92.7488ZM529 80H500.5V208H529V80Z" fill="white" mask="url(#path-63-inside-1_663_93)"/>
<path d="M501.407 144.524C499.813 144.524 498.516 145.82 498.516 147.412V174.589C498.516 176.182 499.813 177.476 501.407 177.476H528.59C530.186 177.476 531.482 176.182 531.482 174.589V147.412C531.482 145.82 530.186 144.524 528.59 144.524H501.407ZM528.59 179H501.407C498.976 179 497 177.021 497 174.589V147.412C497 144.979 498.976 143 501.407 143H528.59C531.023 143 533 144.979 533 147.412V174.589C533 177.021 531.023 179 528.59 179Z" fill="#0F1F5C"/>
<path d="M519.699 167.671V169.035C519.699 170.697 522.162 170.697 522.162 169.035V167.671C523.702 167.671 523.663 166.411 523.663 166.411V159.667L523.592 158.979L522.761 152.672C522.531 151.533 521.793 151.077 520.687 150.624C519.595 150.175 516.921 149.639 514.993 149.623C513.067 149.639 510.397 150.175 509.308 150.624C508.203 151.077 507.467 151.533 507.236 152.672L506.408 158.979L506.336 159.667V166.411C506.336 166.411 506.298 167.671 507.835 167.671V169.035C507.835 170.697 510.295 170.697 510.295 169.035V167.671H519.699ZM520.928 164.946C520.277 164.946 519.747 164.424 519.747 163.78C519.747 163.135 520.277 162.613 520.928 162.613C521.581 162.613 522.112 163.135 522.112 163.78C522.112 164.424 521.581 164.946 520.928 164.946ZM511.397 152.239C510.709 152.239 510.709 151.215 511.397 151.215H518.594C519.283 151.215 519.283 152.239 518.594 152.239H511.397ZM520.495 153.273C521.227 153.273 521.417 153.641 521.505 154.195L522.107 158.77C522.166 159.207 522.039 159.644 521.424 159.644H508.572C507.959 159.644 507.831 159.207 507.89 158.77L508.49 154.195C508.579 153.641 508.768 153.273 509.499 153.273H520.495ZM507.885 163.78C507.885 163.135 508.415 162.613 509.066 162.613C509.717 162.613 510.245 163.135 510.245 163.78C510.245 164.424 509.717 164.946 509.066 164.946C508.415 164.946 507.885 164.424 507.885 163.78Z" fill="#0F1F5C"/>
<path d="M503.004 149.364V172.635" stroke="#0F1F5C" stroke-width="1.58533" stroke-miterlimit="3.864" stroke-linecap="round"/>
<path d="M526.996 149.364V172.635" stroke="#0F1F5C" stroke-width="1.58533" stroke-miterlimit="3.864" stroke-linecap="round"/>
</g>
<g clip-path="url(#clip5_663_93)">
<mask id="path-69-inside-2_663_93" fill="white">
<path d="M83 146L85.5 144H114L117 146V175.5L114.5 178H85.5L83 175.5V146Z"/>
</mask>
<path d="M85.5 144V80H63.05L45.5195 94.0244L85.5 144ZM83 146L43.0195 96.0244L19 115.24V146H83ZM83 175.5H19V202.01L37.7452 220.755L83 175.5ZM85.5 178L40.2452 223.255L58.9903 242H85.5V178ZM114.5 178V242H141.01L159.755 223.255L114.5 178ZM117 175.5L162.255 220.755L181 202.01V175.5H117ZM117 146H181V111.748L152.501 92.7488L117 146ZM114 144L149.501 90.7488L133.378 80H114V144ZM45.5195 94.0244L43.0195 96.0244L122.98 195.976L125.48 193.976L45.5195 94.0244ZM19 146V175.5H147V146H19ZM37.7452 220.755L40.2452 223.255L130.755 132.745L128.255 130.245L37.7452 220.755ZM85.5 242H114.5V114H85.5V242ZM159.755 223.255L162.255 220.755L71.7452 130.245L69.2452 132.745L159.755 223.255ZM181 175.5V146H53V175.5H181ZM152.501 92.7488L149.501 90.7488L78.4992 197.251L81.4992 199.251L152.501 92.7488ZM114 80H85.5V208H114V80Z" fill="white" mask="url(#path-69-inside-2_663_93)"/>
<path d="M86.4069 144.524C84.8131 144.524 83.5163 145.82 83.5163 147.412V174.589C83.5163 176.182 84.8131 177.476 86.4069 177.476H113.59C115.186 177.476 116.482 176.182 116.482 174.589V147.412C116.482 145.82 115.186 144.524 113.59 144.524H86.4069ZM113.59 179H86.4069C83.9761 179 82 177.021 82 174.589V147.412C82 144.979 83.9761 143 86.4069 143H113.59C116.023 143 118 144.979 118 147.412V174.589C118 177.021 116.023 179 113.59 179Z" fill="#0F1F5C"/>
<path d="M104.699 167.671V169.035C104.699 170.697 107.162 170.697 107.162 169.035V167.671C108.702 167.671 108.663 166.411 108.663 166.411V159.667L108.592 158.979L107.761 152.672C107.531 151.533 106.793 151.077 105.687 150.624C104.595 150.175 101.921 149.639 99.9934 149.623C98.0672 149.639 95.3973 150.175 94.3081 150.624C93.2031 151.077 92.4673 151.533 92.2361 152.672L91.4083 158.979L91.336 159.667V166.411C91.336 166.411 91.2979 167.671 92.8352 167.671V169.035C92.8352 170.697 95.2949 170.697 95.2949 169.035V167.671H104.699ZM105.928 164.946C105.277 164.946 104.747 164.424 104.747 163.78C104.747 163.135 105.277 162.613 105.928 162.613C106.581 162.613 107.112 163.135 107.112 163.78C107.112 164.424 106.581 164.946 105.928 164.946ZM96.3972 152.239C95.7087 152.239 95.7087 151.215 96.3972 151.215H103.594C104.283 151.215 104.283 152.239 103.594 152.239H96.3972ZM105.495 153.273C106.227 153.273 106.417 153.641 106.505 154.195L107.107 158.77C107.166 159.207 107.039 159.644 106.424 159.644H93.5723C92.9587 159.644 92.8313 159.207 92.8904 158.77L93.4895 154.195C93.5789 153.641 93.7681 153.273 94.4986 153.273H105.495ZM92.8851 163.78C92.8851 163.135 93.4146 162.613 94.0663 162.613C94.7167 162.613 95.2449 163.135 95.2449 163.78C95.2449 164.424 94.7167 164.946 94.0663 164.946C93.4146 164.946 92.8851 164.424 92.8851 163.78Z" fill="#0F1F5C"/>
<path d="M88.0039 149.364V172.635" stroke="#0F1F5C" stroke-width="1.58533" stroke-miterlimit="3.864" stroke-linecap="round"/>
<path d="M111.996 149.364V172.635" stroke="#0F1F5C" stroke-width="1.58533" stroke-miterlimit="3.864" stroke-linecap="round"/>
</g>
<g clip-path="url(#clip6_663_93)">
<mask id="path-75-inside-3_663_93" fill="white">
<path d="M271 146L273.5 144H302L305 146V175.5L302.5 178H273.5L271 175.5V146Z"/>
</mask>
<path d="M273.5 144V80H251.05L233.52 94.0244L273.5 144ZM271 146L231.02 96.0244L207 115.24V146H271ZM271 175.5H207V202.01L225.745 220.755L271 175.5ZM273.5 178L228.245 223.255L246.99 242H273.5V178ZM302.5 178V242H329.01L347.755 223.255L302.5 178ZM305 175.5L350.255 220.755L369 202.01V175.5H305ZM305 146H369V111.748L340.501 92.7488L305 146ZM302 144L337.501 90.7488L321.378 80H302V144ZM233.52 94.0244L231.02 96.0244L310.98 195.976L313.48 193.976L233.52 94.0244ZM207 146V175.5H335V146H207ZM225.745 220.755L228.245 223.255L318.755 132.745L316.255 130.245L225.745 220.755ZM273.5 242H302.5V114H273.5V242ZM347.755 223.255L350.255 220.755L259.745 130.245L257.245 132.745L347.755 223.255ZM369 175.5V146H241V175.5H369ZM340.501 92.7488L337.501 90.7488L266.499 197.251L269.499 199.251L340.501 92.7488ZM302 80H273.5V208H302V80Z" fill="white" mask="url(#path-75-inside-3_663_93)"/>
<path d="M274.407 144.524C272.813 144.524 271.516 145.82 271.516 147.412V174.589C271.516 176.182 272.813 177.476 274.407 177.476H301.59C303.186 177.476 304.482 176.182 304.482 174.589V147.412C304.482 145.82 303.186 144.524 301.59 144.524H274.407ZM301.59 179H274.407C271.976 179 270 177.021 270 174.589V147.412C270 144.979 271.976 143 274.407 143H301.59C304.023 143 306 144.979 306 147.412V174.589C306 177.021 304.023 179 301.59 179Z" fill="#0F1F5C"/>
<path d="M292.699 167.671V169.035C292.699 170.697 295.162 170.697 295.162 169.035V167.671C296.702 167.671 296.663 166.411 296.663 166.411V159.667L296.592 158.979L295.761 152.672C295.531 151.533 294.793 151.077 293.687 150.624C292.595 150.175 289.921 149.639 287.993 149.623C286.067 149.639 283.397 150.175 282.308 150.624C281.203 151.077 280.467 151.533 280.236 152.672L279.408 158.979L279.336 159.667V166.411C279.336 166.411 279.298 167.671 280.835 167.671V169.035C280.835 170.697 283.295 170.697 283.295 169.035V167.671H292.699ZM293.928 164.946C293.277 164.946 292.747 164.424 292.747 163.78C292.747 163.135 293.277 162.613 293.928 162.613C294.581 162.613 295.112 163.135 295.112 163.78C295.112 164.424 294.581 164.946 293.928 164.946ZM284.397 152.239C283.709 152.239 283.709 151.215 284.397 151.215H291.594C292.283 151.215 292.283 152.239 291.594 152.239H284.397ZM293.495 153.273C294.227 153.273 294.417 153.641 294.505 154.195L295.107 158.77C295.166 159.207 295.039 159.644 294.424 159.644H281.572C280.959 159.644 280.831 159.207 280.89 158.77L281.49 154.195C281.579 153.641 281.768 153.273 282.499 153.273H293.495ZM280.885 163.78C280.885 163.135 281.415 162.613 282.066 162.613C282.717 162.613 283.245 163.135 283.245 163.78C283.245 164.424 282.717 164.946 282.066 164.946C281.415 164.946 280.885 164.424 280.885 163.78Z" fill="#0F1F5C"/>
<path d="M276.004 149.364V172.635" stroke="#0F1F5C" stroke-width="1.58533" stroke-miterlimit="3.864" stroke-linecap="round"/>
<path d="M299.996 149.364V172.635" stroke="#0F1F5C" stroke-width="1.58533" stroke-miterlimit="3.864" stroke-linecap="round"/>
</g>
<g clip-path="url(#clip7_663_93)">
<mask id="path-81-inside-4_663_93" fill="white">
<path d="M1396 146L1398.5 144H1427L1430 146V175.5L1427.5 178H1398.5L1396 175.5V146Z"/>
</mask>
<path d="M1398.5 144V80H1376.05L1358.52 94.0244L1398.5 144ZM1396 146L1356.02 96.0244L1332 115.24V146H1396ZM1396 175.5H1332V202.01L1350.75 220.755L1396 175.5ZM1398.5 178L1353.25 223.255L1371.99 242H1398.5V178ZM1427.5 178V242H1454.01L1472.75 223.255L1427.5 178ZM1430 175.5L1475.25 220.755L1494 202.01V175.5H1430ZM1430 146H1494V111.748L1465.5 92.7488L1430 146ZM1427 144L1462.5 90.7488L1446.38 80H1427V144ZM1358.52 94.0244L1356.02 96.0244L1435.98 195.976L1438.48 193.976L1358.52 94.0244ZM1332 146V175.5H1460V146H1332ZM1350.75 220.755L1353.25 223.255L1443.75 132.745L1441.25 130.245L1350.75 220.755ZM1398.5 242H1427.5V114H1398.5V242ZM1472.75 223.255L1475.25 220.755L1384.75 130.245L1382.25 132.745L1472.75 223.255ZM1494 175.5V146H1366V175.5H1494ZM1465.5 92.7488L1462.5 90.7488L1391.5 197.251L1394.5 199.251L1465.5 92.7488ZM1427 80H1398.5V208H1427V80Z" fill="white" mask="url(#path-81-inside-4_663_93)"/>
<path d="M1399.41 144.524C1397.81 144.524 1396.52 145.82 1396.52 147.412V174.589C1396.52 176.182 1397.81 177.476 1399.41 177.476H1426.59C1428.19 177.476 1429.48 176.182 1429.48 174.589V147.412C1429.48 145.82 1428.19 144.524 1426.59 144.524H1399.41ZM1426.59 179H1399.41C1396.98 179 1395 177.021 1395 174.589V147.412C1395 144.979 1396.98 143 1399.41 143H1426.59C1429.02 143 1431 144.979 1431 147.412V174.589C1431 177.021 1429.02 179 1426.59 179Z" fill="#0F1F5C"/>
<path d="M1417.7 167.671V169.035C1417.7 170.697 1420.16 170.697 1420.16 169.035V167.671C1421.7 167.671 1421.66 166.411 1421.66 166.411V159.667L1421.59 158.979L1420.76 152.672C1420.53 151.533 1419.79 151.077 1418.69 150.624C1417.59 150.175 1414.92 149.639 1412.99 149.623C1411.07 149.639 1408.4 150.175 1407.31 150.624C1406.2 151.077 1405.47 151.533 1405.24 152.672L1404.41 158.979L1404.34 159.667V166.411C1404.34 166.411 1404.3 167.671 1405.84 167.671V169.035C1405.84 170.697 1408.29 170.697 1408.29 169.035V167.671H1417.7ZM1418.93 164.946C1418.28 164.946 1417.75 164.424 1417.75 163.78C1417.75 163.135 1418.28 162.613 1418.93 162.613C1419.58 162.613 1420.11 163.135 1420.11 163.78C1420.11 164.424 1419.58 164.946 1418.93 164.946ZM1409.4 152.239C1408.71 152.239 1408.71 151.215 1409.4 151.215H1416.59C1417.28 151.215 1417.28 152.239 1416.59 152.239H1409.4ZM1418.49 153.273C1419.23 153.273 1419.42 153.641 1419.51 154.195L1420.11 158.77C1420.17 159.207 1420.04 159.644 1419.42 159.644H1406.57C1405.96 159.644 1405.83 159.207 1405.89 158.77L1406.49 154.195C1406.58 153.641 1406.77 153.273 1407.5 153.273H1418.49ZM1405.89 163.78C1405.89 163.135 1406.41 162.613 1407.07 162.613C1407.72 162.613 1408.24 163.135 1408.24 163.78C1408.24 164.424 1407.72 164.946 1407.07 164.946C1406.41 164.946 1405.89 164.424 1405.89 163.78Z" fill="#0F1F5C"/>
<path d="M1401 149.364V172.635" stroke="#0F1F5C" stroke-width="1.58533" stroke-miterlimit="3.864" stroke-linecap="round"/>
<path d="M1425 149.364V172.635" stroke="#0F1F5C" stroke-width="1.58533" stroke-miterlimit="3.864" stroke-linecap="round"/>
</g>
<g clip-path="url(#clip8_663_93)">
<mask id="path-87-inside-5_663_93" fill="white">
<path d="M1742 146L1744.5 144H1773L1776 146V175.5L1773.5 178H1744.5L1742 175.5V146Z"/>
</mask>
<path d="M1744.5 144V80H1722.05L1704.52 94.0244L1744.5 144ZM1742 146L1702.02 96.0244L1678 115.24V146H1742ZM1742 175.5H1678V202.01L1696.75 220.755L1742 175.5ZM1744.5 178L1699.25 223.255L1717.99 242H1744.5V178ZM1773.5 178V242H1800.01L1818.75 223.255L1773.5 178ZM1776 175.5L1821.25 220.755L1840 202.01V175.5H1776ZM1776 146H1840V111.748L1811.5 92.7488L1776 146ZM1773 144L1808.5 90.7488L1792.38 80H1773V144ZM1704.52 94.0244L1702.02 96.0244L1781.98 195.976L1784.48 193.976L1704.52 94.0244ZM1678 146V175.5H1806V146H1678ZM1696.75 220.755L1699.25 223.255L1789.75 132.745L1787.25 130.245L1696.75 220.755ZM1744.5 242H1773.5V114H1744.5V242ZM1818.75 223.255L1821.25 220.755L1730.75 130.245L1728.25 132.745L1818.75 223.255ZM1840 175.5V146H1712V175.5H1840ZM1811.5 92.7488L1808.5 90.7488L1737.5 197.251L1740.5 199.251L1811.5 92.7488ZM1773 80H1744.5V208H1773V80Z" fill="white" mask="url(#path-87-inside-5_663_93)"/>
<path d="M1745.41 144.524C1743.81 144.524 1742.52 145.82 1742.52 147.412V174.589C1742.52 176.182 1743.81 177.476 1745.41 177.476H1772.59C1774.19 177.476 1775.48 176.182 1775.48 174.589V147.412C1775.48 145.82 1774.19 144.524 1772.59 144.524H1745.41ZM1772.59 179H1745.41C1742.98 179 1741 177.021 1741 174.589V147.412C1741 144.979 1742.98 143 1745.41 143H1772.59C1775.02 143 1777 144.979 1777 147.412V174.589C1777 177.021 1775.02 179 1772.59 179Z" fill="#0F1F5C"/>
<path d="M1763.7 167.671V169.035C1763.7 170.697 1766.16 170.697 1766.16 169.035V167.671C1767.7 167.671 1767.66 166.411 1767.66 166.411V159.667L1767.59 158.979L1766.76 152.672C1766.53 151.533 1765.79 151.077 1764.69 150.624C1763.59 150.175 1760.92 149.639 1758.99 149.623C1757.07 149.639 1754.4 150.175 1753.31 150.624C1752.2 151.077 1751.47 151.533 1751.24 152.672L1750.41 158.979L1750.34 159.667V166.411C1750.34 166.411 1750.3 167.671 1751.84 167.671V169.035C1751.84 170.697 1754.29 170.697 1754.29 169.035V167.671H1763.7ZM1764.93 164.946C1764.28 164.946 1763.75 164.424 1763.75 163.78C1763.75 163.135 1764.28 162.613 1764.93 162.613C1765.58 162.613 1766.11 163.135 1766.11 163.78C1766.11 164.424 1765.58 164.946 1764.93 164.946ZM1755.4 152.239C1754.71 152.239 1754.71 151.215 1755.4 151.215H1762.59C1763.28 151.215 1763.28 152.239 1762.59 152.239H1755.4ZM1764.49 153.273C1765.23 153.273 1765.42 153.641 1765.51 154.195L1766.11 158.77C1766.17 159.207 1766.04 159.644 1765.42 159.644H1752.57C1751.96 159.644 1751.83 159.207 1751.89 158.77L1752.49 154.195C1752.58 153.641 1752.77 153.273 1753.5 153.273H1764.49ZM1751.89 163.78C1751.89 163.135 1752.41 162.613 1753.07 162.613C1753.72 162.613 1754.24 163.135 1754.24 163.78C1754.24 164.424 1753.72 164.946 1753.07 164.946C1752.41 164.946 1751.89 164.424 1751.89 163.78Z" fill="#0F1F5C"/>
<path d="M1747 149.364V172.635" stroke="#0F1F5C" stroke-width="1.58533" stroke-miterlimit="3.864" stroke-linecap="round"/>
<path d="M1771 149.364V172.635" stroke="#0F1F5C" stroke-width="1.58533" stroke-miterlimit="3.864" stroke-linecap="round"/>
</g>
<g clip-path="url(#clip9_663_93)">
<mask id="path-93-inside-6_663_93" fill="white">
<path d="M826 146L828.5 144H857L860 146V175.5L857.5 178H828.5L826 175.5V146Z"/>
</mask>
<path d="M828.5 144V80H806.05L788.52 94.0244L828.5 144ZM826 146L786.02 96.0244L762 115.24V146H826ZM826 175.5H762V202.01L780.745 220.755L826 175.5ZM828.5 178L783.245 223.255L801.99 242H828.5V178ZM857.5 178V242H884.01L902.755 223.255L857.5 178ZM860 175.5L905.255 220.755L924 202.01V175.5H860ZM860 146H924V111.748L895.501 92.7488L860 146ZM857 144L892.501 90.7488L876.378 80H857V144ZM788.52 94.0244L786.02 96.0244L865.98 195.976L868.48 193.976L788.52 94.0244ZM762 146V175.5H890V146H762ZM780.745 220.755L783.245 223.255L873.755 132.745L871.255 130.245L780.745 220.755ZM828.5 242H857.5V114H828.5V242ZM902.755 223.255L905.255 220.755L814.745 130.245L812.245 132.745L902.755 223.255ZM924 175.5V146H796V175.5H924ZM895.501 92.7488L892.501 90.7488L821.499 197.251L824.499 199.251L895.501 92.7488ZM857 80H828.5V208H857V80Z" fill="white" mask="url(#path-93-inside-6_663_93)"/>
<path d="M829.407 144.524C827.813 144.524 826.516 145.82 826.516 147.412V174.589C826.516 176.182 827.813 177.476 829.407 177.476H856.59C858.186 177.476 859.482 176.182 859.482 174.589V147.412C859.482 145.82 858.186 144.524 856.59 144.524H829.407ZM856.59 179H829.407C826.976 179 825 177.021 825 174.589V147.412C825 144.979 826.976 143 829.407 143H856.59C859.023 143 861 144.979 861 147.412V174.589C861 177.021 859.023 179 856.59 179Z" fill="#0F1F5C"/>
<path d="M847.699 167.671V169.035C847.699 170.697 850.162 170.697 850.162 169.035V167.671C851.702 167.671 851.663 166.411 851.663 166.411V159.667L851.592 158.979L850.761 152.672C850.531 151.533 849.793 151.077 848.687 150.624C847.595 150.175 844.921 149.639 842.993 149.623C841.067 149.639 838.397 150.175 837.308 150.624C836.203 151.077 835.467 151.533 835.236 152.672L834.408 158.979L834.336 159.667V166.411C834.336 166.411 834.298 167.671 835.835 167.671V169.035C835.835 170.697 838.295 170.697 838.295 169.035V167.671H847.699ZM848.928 164.946C848.277 164.946 847.747 164.424 847.747 163.78C847.747 163.135 848.277 162.613 848.928 162.613C849.581 162.613 850.112 163.135 850.112 163.78C850.112 164.424 849.581 164.946 848.928 164.946ZM839.397 152.239C838.709 152.239 838.709 151.215 839.397 151.215H846.594C847.283 151.215 847.283 152.239 846.594 152.239H839.397ZM848.495 153.273C849.227 153.273 849.417 153.641 849.505 154.195L850.107 158.77C850.166 159.207 850.039 159.644 849.424 159.644H836.572C835.959 159.644 835.831 159.207 835.89 158.77L836.49 154.195C836.579 153.641 836.768 153.273 837.499 153.273H848.495ZM835.885 163.78C835.885 163.135 836.415 162.613 837.066 162.613C837.717 162.613 838.245 163.135 838.245 163.78C838.245 164.424 837.717 164.946 837.066 164.946C836.415 164.946 835.885 164.424 835.885 163.78Z" fill="#0F1F5C"/>
<path d="M831.004 149.364V172.635" stroke="#0F1F5C" stroke-width="1.58533" stroke-miterlimit="3.864" stroke-linecap="round"/>
<path d="M854.996 149.364V172.635" stroke="#0F1F5C" stroke-width="1.58533" stroke-miterlimit="3.864" stroke-linecap="round"/>
</g>
<defs>
<clipPath id="clip0_663_93">
<rect width="36" height="36" fill="white" transform="translate(1353 143)"/>
</clipPath>
<clipPath id="clip1_663_93">
<rect width="36" height="36" fill="white" transform="translate(640 143)"/>
</clipPath>
<clipPath id="clip2_663_93">
<rect width="36" height="36" fill="white" transform="translate(455 143)"/>
</clipPath>
<clipPath id="clip3_663_93">
<rect width="36" height="36" fill="white" transform="translate(413 143)"/>
</clipPath>
<clipPath id="clip4_663_93">
<rect width="36" height="36" fill="white" transform="translate(497 143)"/>
</clipPath>
<clipPath id="clip5_663_93">
<rect width="36" height="36" fill="white" transform="translate(82 143)"/>
</clipPath>
<clipPath id="clip6_663_93">
<rect width="36" height="36" fill="white" transform="translate(270 143)"/>
</clipPath>
<clipPath id="clip7_663_93">
<rect width="36" height="36" fill="white" transform="translate(1395 143)"/>
</clipPath>
<clipPath id="clip8_663_93">
<rect width="36" height="36" fill="white" transform="translate(1741 143)"/>
</clipPath>
<clipPath id="clip9_663_93">
<rect width="36" height="36" fill="white" transform="translate(825 143)"/>
</clipPath>
</defs>
</svg>
