<svg width="36" height="36" viewBox="0 0 36 36" fill="none" xmlns="http://www.w3.org/2000/svg">
<g clip-path="url(#clip0_478_226)">
<path d="M0 17.9683C0 14.4145 1.05382 10.9405 3.0282 7.98565C5.00258 5.03078 7.80885 2.72774 11.0921 1.36776C14.3754 0.00778537 17.9882 -0.348047 21.4737 0.345264C24.9592 1.03857 28.1609 2.74989 30.6738 5.2628C33.1867 7.77571 34.898 10.9774 35.5913 14.4629C36.2846 17.9484 35.9288 21.5612 34.5688 24.8445C33.2088 28.1277 30.9058 30.934 27.9509 32.9084C24.9961 34.8828 21.5221 35.9366 17.9683 35.9366C13.2028 35.9366 8.6325 34.0435 5.26279 30.6738C1.89308 27.3041 0 22.7338 0 17.9683Z" fill="#9D9D9C"/>
<path d="M2.49414 12.0176H6.34147L9.22696 21.1391L12.0913 12.007H15.9598V24.0563H13.7402V14.1209L10.4002 24.0669H8.08545L4.84059 14.1209V24.0352H2.49414V12.0176Z" fill="white"/>
<path d="M17.2393 24.0669V22.0481C18.3596 20.9912 22.4606 17.5455 22.4606 15.3365C22.4606 14.2795 21.4777 13.7087 20.4841 13.7087C19.4852 13.7598 18.5212 14.0934 17.7043 14.6706L17.5141 12.6835C18.6379 12.1133 19.8792 11.8129 21.1394 11.8062C23.433 11.8062 24.9128 12.9689 24.9128 15.3365C24.9128 17.8837 22.3444 20.2407 20.3784 22.175H25.2933V24.0669H17.2393Z" fill="white"/>
<path d="M25.874 18.074C25.874 15.0511 26.7936 11.8062 30.1019 11.8062C33.6215 11.8062 34.3297 15.2836 34.3297 18.074C34.3297 20.8643 33.611 24.2783 30.1019 24.2783C26.3391 24.31 25.874 20.6001 25.874 18.074ZM31.8564 18.074C31.8564 16.5202 31.8564 13.603 30.0596 13.603C28.2628 13.603 28.2945 16.5202 28.2945 18.074C28.2945 19.6277 28.2945 22.4815 30.0596 22.4815C31.8247 22.4815 31.8564 19.596 31.8564 18.074Z" fill="white"/>
</g>
<defs>
<clipPath id="clip0_478_226">
<rect width="36" height="36" fill="white"/>
</clipPath>
</defs>
</svg>
