<svg width="2420" height="200" viewBox="0 0 2420 200" fill="none" xmlns="http://www.w3.org/2000/svg">
<path d="M100 100H2320" stroke="#00A7E1" stroke-width="20"/>
<circle cx="1025" cy="100" r="21" fill="#00A7E1"/>
<circle cx="1025" cy="100" r="13" fill="white"/>
<circle cx="1207" cy="100" r="21" fill="#00A7E1"/>
<circle cx="1207" cy="100" r="13" fill="white"/>
<circle cx="1392" cy="100" r="21" fill="#00A7E1"/>
<circle cx="1392" cy="100" r="13" fill="white"/>
<circle cx="1577" cy="100" r="21" fill="#00A7E1"/>
<circle cx="1577" cy="100" r="13" fill="white"/>
<circle cx="1762" cy="100" r="21" fill="#00A7E1"/>
<circle cx="1762" cy="100" r="13" fill="white"/>
<circle cx="2132" cy="100" r="21" fill="#00A7E1"/>
<circle cx="2132" cy="100" r="13" fill="white"/>
<circle cx="288" cy="100" r="21" fill="#00A7E1"/>
<circle cx="288" cy="100" r="13" fill="white"/>
<circle cx="658" cy="100" r="21" fill="#00A7E1"/>
<circle cx="658" cy="100" r="13" fill="white"/>
<circle cx="1944" cy="100" r="21" fill="#00A7E1"/>
<circle cx="1944" cy="100" r="13" fill="white"/>
<circle cx="100" cy="100" r="24" fill="black"/>
<ellipse cx="100.001" cy="99.9939" rx="19.2" ry="19.2" fill="white"/>
<circle cx="473" cy="100" r="24" fill="black"/>
<ellipse cx="473.001" cy="99.9939" rx="19.2" ry="19.2" fill="white"/>
<circle cx="843" cy="100" r="24" fill="black"/>
<ellipse cx="843.001" cy="99.9939" rx="19.2" ry="19.2" fill="white"/>
<circle cx="2320" cy="100" r="24" fill="black"/>
<ellipse cx="2320" cy="99.9939" rx="19.2" ry="19.2" fill="white"/>
<path d="M69.5104 22.4L67.2544 24.752V29H63.3904V12.2H67.2544V20.048L74.6944 12.2H79.0144L72.0544 19.688L79.4224 29H74.8864L69.5104 22.4ZM80.6577 16.088H84.4017V29H80.6577V16.088ZM82.5297 14.288C81.8417 14.288 81.2817 14.088 80.8497 13.688C80.4177 13.288 80.2017 12.792 80.2017 12.2C80.2017 11.608 80.4177 11.112 80.8497 10.712C81.2817 10.312 81.8417 10.112 82.5297 10.112C83.2177 10.112 83.7777 10.304 84.2097 10.688C84.6417 11.072 84.8577 11.552 84.8577 12.128C84.8577 12.752 84.6417 13.272 84.2097 13.688C83.7777 14.088 83.2177 14.288 82.5297 14.288ZM91.4524 17.792C91.9004 17.168 92.5004 16.696 93.2524 16.376C94.0204 16.056 94.9004 15.896 95.8924 15.896V19.352C95.4764 19.32 95.1964 19.304 95.0524 19.304C93.9804 19.304 93.1404 19.608 92.5324 20.216C91.9244 20.808 91.6204 21.704 91.6204 22.904V29H87.8764V16.088H91.4524V17.792ZM103.256 15.896C105.256 15.896 106.792 16.376 107.864 17.336C108.936 18.28 109.472 19.712 109.472 21.632V29H105.968V27.392C105.264 28.592 103.952 29.192 102.032 29.192C101.04 29.192 100.176 29.024 99.4403 28.688C98.7203 28.352 98.1683 27.888 97.7843 27.296C97.4003 26.704 97.2083 26.032 97.2083 25.28C97.2083 24.08 97.6563 23.136 98.5523 22.448C99.4643 21.76 100.864 21.416 102.752 21.416H105.728C105.728 20.6 105.48 19.976 104.984 19.544C104.488 19.096 103.744 18.872 102.752 18.872C102.064 18.872 101.384 18.984 100.712 19.208C100.056 19.416 99.4963 19.704 99.0323 20.072L97.6883 17.456C98.3923 16.96 99.2323 16.576 100.208 16.304C101.2 16.032 102.216 15.896 103.256 15.896ZM102.968 26.672C103.608 26.672 104.176 26.528 104.672 26.24C105.168 25.936 105.52 25.496 105.728 24.92V23.6H103.16C101.624 23.6 100.856 24.104 100.856 25.112C100.856 25.592 101.04 25.976 101.408 26.264C101.792 26.536 102.312 26.672 102.968 26.672ZM123.493 26.12V29H111.973V26.744L118.549 18.968H112.141V16.088H123.277V18.344L116.701 26.12H123.493ZM125.892 11.192H129.636V29H125.892V11.192ZM133.111 16.088H136.855V29H133.111V16.088ZM62.3905 49.264C63.3505 49.568 64.1025 50.08 64.6465 50.8C65.1905 51.504 65.4625 52.376 65.4625 53.416C65.4625 54.888 64.8865 56.024 63.7345 56.824C62.5985 57.608 60.9345 58 58.7425 58H50.0545V41.2H58.2625C60.3105 41.2 61.8785 41.592 62.9665 42.376C64.0705 43.16 64.6225 44.224 64.6225 45.568C64.6225 46.384 64.4225 47.112 64.0225 47.752C63.6385 48.392 63.0945 48.896 62.3905 49.264ZM53.9185 44.128V48.088H57.7825C58.7425 48.088 59.4705 47.92 59.9665 47.584C60.4625 47.248 60.7105 46.752 60.7105 46.096C60.7105 45.44 60.4625 44.952 59.9665 44.632C59.4705 44.296 58.7425 44.128 57.7825 44.128H53.9185ZM58.4545 55.072C59.4785 55.072 60.2465 54.904 60.7585 54.568C61.2865 54.232 61.5505 53.712 61.5505 53.008C61.5505 51.616 60.5185 50.92 58.4545 50.92H53.9185V55.072H58.4545ZM73.3501 44.896C75.3501 44.896 76.8861 45.376 77.9581 46.336C79.0301 47.28 79.5661 48.712 79.5661 50.632V58H76.0621V56.392C75.3581 57.592 74.0461 58.192 72.1261 58.192C71.1341 58.192 70.2701 58.024 69.5341 57.688C68.8141 57.352 68.2621 56.888 67.8781 56.296C67.4941 55.704 67.3021 55.032 67.3021 54.28C67.3021 53.08 67.7501 52.136 68.6461 51.448C69.5581 50.76 70.9581 50.416 72.8461 50.416H75.8221C75.8221 49.6 75.5741 48.976 75.0781 48.544C74.5821 48.096 73.8381 47.872 72.8461 47.872C72.1581 47.872 71.4781 47.984 70.8061 48.208C70.1501 48.416 69.5901 48.704 69.1261 49.072L67.7821 46.456C68.4861 45.96 69.3261 45.576 70.3021 45.304C71.2941 45.032 72.3101 44.896 73.3501 44.896ZM73.0621 55.672C73.7021 55.672 74.2701 55.528 74.7661 55.24C75.2621 54.936 75.6141 54.496 75.8221 53.92V52.6H73.2541C71.7181 52.6 70.9501 53.104 70.9501 54.112C70.9501 54.592 71.1341 54.976 71.5021 55.264C71.8861 55.536 72.4061 55.672 73.0621 55.672ZM96.4152 45.088V55.84C96.4152 58.208 95.7992 59.968 94.5672 61.12C93.3352 62.272 91.5352 62.848 89.1672 62.848C87.9192 62.848 86.7352 62.696 85.6152 62.392C84.4952 62.088 83.5672 61.648 82.8312 61.072L84.3192 58.384C84.8632 58.832 85.5512 59.184 86.3832 59.44C87.2152 59.712 88.0472 59.848 88.8792 59.848C90.1752 59.848 91.1272 59.552 91.7352 58.96C92.3592 58.384 92.6712 57.504 92.6712 56.32V55.768C91.6952 56.84 90.3352 57.376 88.5912 57.376C87.4072 57.376 86.3192 57.12 85.3272 56.608C84.3512 56.08 83.5752 55.344 82.9992 54.4C82.4232 53.456 82.1352 52.368 82.1352 51.136C82.1352 49.904 82.4232 48.816 82.9992 47.872C83.5752 46.928 84.3512 46.2 85.3272 45.688C86.3192 45.16 87.4072 44.896 88.5912 44.896C90.4632 44.896 91.8872 45.512 92.8632 46.744V45.088H96.4152ZM89.3352 54.304C90.3272 54.304 91.1352 54.016 91.7592 53.44C92.3992 52.848 92.7192 52.08 92.7192 51.136C92.7192 50.192 92.3992 49.432 91.7592 48.856C91.1352 48.264 90.3272 47.968 89.3352 47.968C88.3432 47.968 87.5272 48.264 86.8872 48.856C86.2472 49.432 85.9272 50.192 85.9272 51.136C85.9272 52.08 86.2472 52.848 86.8872 53.44C87.5272 54.016 88.3432 54.304 89.3352 54.304ZM89.5512 43.624C88.2872 43.624 87.2472 43.296 86.4312 42.64C85.6152 41.984 85.1832 41.096 85.1352 39.976H87.4872C87.5032 40.488 87.7032 40.904 88.0872 41.224C88.4872 41.528 88.9752 41.68 89.5512 41.68C90.1272 41.68 90.6072 41.528 90.9912 41.224C91.3912 40.904 91.5992 40.488 91.6152 39.976H93.9672C93.9192 41.096 93.4872 41.984 92.6712 42.64C91.8552 43.296 90.8152 43.624 89.5512 43.624ZM106.14 58.192C104.764 58.192 103.524 57.912 102.42 57.352C101.332 56.776 100.476 55.984 99.8519 54.976C99.2439 53.968 98.9399 52.824 98.9399 51.544C98.9399 50.264 99.2439 49.12 99.8519 48.112C100.476 47.104 101.332 46.32 102.42 45.76C103.524 45.184 104.764 44.896 106.14 44.896C107.5 44.896 108.684 45.184 109.692 45.76C110.716 46.32 111.46 47.128 111.924 48.184L109.02 49.744C108.348 48.56 107.38 47.968 106.116 47.968C105.14 47.968 104.332 48.288 103.692 48.928C103.052 49.568 102.732 50.44 102.732 51.544C102.732 52.648 103.052 53.52 103.692 54.16C104.332 54.8 105.14 55.12 106.116 55.12C107.396 55.12 108.364 54.528 109.02 53.344L111.924 54.928C111.46 55.952 110.716 56.752 109.692 57.328C108.684 57.904 107.5 58.192 106.14 58.192ZM114.08 45.088H117.824V58H114.08V45.088ZM121.298 40.192H125.042V58H121.298V40.192ZM133.725 44.896C135.725 44.896 137.261 45.376 138.333 46.336C139.405 47.28 139.941 48.712 139.941 50.632V58H136.437V56.392C135.733 57.592 134.421 58.192 132.501 58.192C131.509 58.192 130.645 58.024 129.909 57.688C129.189 57.352 128.637 56.888 128.253 56.296C127.869 55.704 127.677 55.032 127.677 54.28C127.677 53.08 128.125 52.136 129.021 51.448C129.933 50.76 131.333 50.416 133.221 50.416H136.197C136.197 49.6 135.949 48.976 135.453 48.544C134.957 48.096 134.213 47.872 133.221 47.872C132.533 47.872 131.853 47.984 131.181 48.208C130.525 48.416 129.965 48.704 129.501 49.072L128.157 46.456C128.861 45.96 129.701 45.576 130.677 45.304C131.669 45.032 132.685 44.896 133.725 44.896ZM133.437 55.672C134.077 55.672 134.645 55.528 135.141 55.24C135.637 54.936 135.989 54.496 136.197 53.92V52.6H133.629C132.093 52.6 131.325 53.104 131.325 54.112C131.325 54.592 131.509 54.976 131.877 55.264C132.261 55.536 132.781 55.672 133.437 55.672ZM146.906 46.792C147.354 46.168 147.954 45.696 148.706 45.376C149.474 45.056 150.354 44.896 151.346 44.896V48.352C150.93 48.32 150.65 48.304 150.506 48.304C149.434 48.304 148.594 48.608 147.986 49.216C147.378 49.808 147.074 50.704 147.074 51.904V58H143.33V45.088H146.906V46.792Z" fill="black"/>
<path d="M221.201 52.048V58H217.313V52L210.809 41.2H214.937L219.425 48.664L223.913 41.2H227.729L221.201 52.048ZM240.31 51.592C240.31 51.64 240.286 51.976 240.238 52.6H230.47C230.646 53.4 231.062 54.032 231.718 54.496C232.374 54.96 233.19 55.192 234.166 55.192C234.838 55.192 235.43 55.096 235.942 54.904C236.47 54.696 236.958 54.376 237.406 53.944L239.398 56.104C238.182 57.496 236.406 58.192 234.07 58.192C232.614 58.192 231.326 57.912 230.206 57.352C229.086 56.776 228.222 55.984 227.614 54.976C227.006 53.968 226.702 52.824 226.702 51.544C226.702 50.28 226.998 49.144 227.59 48.136C228.198 47.112 229.022 46.32 230.062 45.76C231.118 45.184 232.294 44.896 233.59 44.896C234.854 44.896 235.998 45.168 237.022 45.712C238.046 46.256 238.846 47.04 239.422 48.064C240.014 49.072 240.31 50.248 240.31 51.592ZM233.614 47.728C232.766 47.728 232.054 47.968 231.478 48.448C230.902 48.928 230.55 49.584 230.422 50.416H236.782C236.654 49.6 236.302 48.952 235.726 48.472C235.15 47.976 234.446 47.728 233.614 47.728ZM250.65 44.896C252.25 44.896 253.538 45.376 254.514 46.336C255.506 47.296 256.002 48.72 256.002 50.608V58H252.258V51.184C252.258 50.16 252.034 49.4 251.586 48.904C251.138 48.392 250.49 48.136 249.642 48.136C248.698 48.136 247.946 48.432 247.386 49.024C246.826 49.6 246.546 50.464 246.546 51.616V58H242.802V45.088H246.378V46.6C246.874 46.056 247.49 45.64 248.226 45.352C248.962 45.048 249.77 44.896 250.65 44.896ZM259.396 45.088H263.14V58H259.396V45.088ZM261.268 43.288C260.58 43.288 260.02 43.088 259.588 42.688C259.156 42.288 258.94 41.792 258.94 41.2C258.94 40.608 259.156 40.112 259.588 39.712C260.02 39.312 260.58 39.112 261.268 39.112C261.956 39.112 262.516 39.304 262.948 39.688C263.38 40.072 263.596 40.552 263.596 41.128C263.596 41.752 263.38 42.272 262.948 42.688C262.516 43.088 261.956 43.288 261.268 43.288ZM283.151 44.896C284.767 44.896 286.047 45.376 286.991 46.336C287.951 47.28 288.431 48.704 288.431 50.608V58H284.687V51.184C284.687 50.16 284.471 49.4 284.039 48.904C283.623 48.392 283.023 48.136 282.239 48.136C281.359 48.136 280.663 48.424 280.151 49C279.639 49.56 279.383 50.4 279.383 51.52V58H275.639V51.184C275.639 49.152 274.823 48.136 273.191 48.136C272.327 48.136 271.639 48.424 271.127 49C270.615 49.56 270.359 50.4 270.359 51.52V58H266.615V45.088H270.191V46.576C270.671 46.032 271.255 45.616 271.943 45.328C272.647 45.04 273.415 44.896 274.247 44.896C275.159 44.896 275.983 45.08 276.719 45.448C277.455 45.8 278.047 46.32 278.495 47.008C279.023 46.336 279.687 45.816 280.487 45.448C281.303 45.08 282.191 44.896 283.151 44.896ZM296.995 44.896C298.995 44.896 300.531 45.376 301.603 46.336C302.675 47.28 303.211 48.712 303.211 50.632V58H299.707V56.392C299.003 57.592 297.691 58.192 295.771 58.192C294.779 58.192 293.915 58.024 293.179 57.688C292.459 57.352 291.907 56.888 291.523 56.296C291.139 55.704 290.947 55.032 290.947 54.28C290.947 53.08 291.395 52.136 292.291 51.448C293.203 50.76 294.603 50.416 296.491 50.416H299.467C299.467 49.6 299.219 48.976 298.723 48.544C298.227 48.096 297.483 47.872 296.491 47.872C295.803 47.872 295.123 47.984 294.451 48.208C293.795 48.416 293.235 48.704 292.771 49.072L291.427 46.456C292.131 45.96 292.971 45.576 293.947 45.304C294.939 45.032 295.955 44.896 296.995 44.896ZM296.707 55.672C297.347 55.672 297.915 55.528 298.411 55.24C298.907 54.936 299.259 54.496 299.467 53.92V52.6H296.899C295.363 52.6 294.595 53.104 294.595 54.112C294.595 54.592 294.779 54.976 295.147 55.264C295.531 55.536 296.051 55.672 296.707 55.672ZM314.447 44.896C316.047 44.896 317.335 45.376 318.311 46.336C319.303 47.296 319.799 48.72 319.799 50.608V58H316.055V51.184C316.055 50.16 315.831 49.4 315.383 48.904C314.935 48.392 314.287 48.136 313.439 48.136C312.495 48.136 311.743 48.432 311.183 49.024C310.623 49.6 310.343 50.464 310.343 51.616V58H306.599V40.192H310.343V46.432C310.839 45.936 311.439 45.56 312.143 45.304C312.847 45.032 313.615 44.896 314.447 44.896ZM328.401 44.896C330.401 44.896 331.937 45.376 333.009 46.336C334.081 47.28 334.617 48.712 334.617 50.632V58H331.113V56.392C330.409 57.592 329.097 58.192 327.177 58.192C326.185 58.192 325.321 58.024 324.585 57.688C323.865 57.352 323.313 56.888 322.929 56.296C322.545 55.704 322.353 55.032 322.353 54.28C322.353 53.08 322.801 52.136 323.697 51.448C324.609 50.76 326.009 50.416 327.897 50.416H330.873C330.873 49.6 330.625 48.976 330.129 48.544C329.633 48.096 328.889 47.872 327.897 47.872C327.209 47.872 326.529 47.984 325.857 48.208C325.201 48.416 324.641 48.704 324.177 49.072L322.833 46.456C323.537 45.96 324.377 45.576 325.353 45.304C326.345 45.032 327.361 44.896 328.401 44.896ZM328.113 55.672C328.753 55.672 329.321 55.528 329.817 55.24C330.313 54.936 330.665 54.496 330.873 53.92V52.6H328.305C326.769 52.6 326.001 53.104 326.001 54.112C326.001 54.592 326.185 54.976 326.553 55.264C326.937 55.536 327.457 55.672 328.113 55.672ZM338.005 40.192H341.749V58H338.005V40.192ZM345.224 40.192H348.968V58H345.224V40.192ZM365.091 51.592C365.091 51.64 365.067 51.976 365.019 52.6H355.251C355.427 53.4 355.843 54.032 356.499 54.496C357.155 54.96 357.971 55.192 358.947 55.192C359.619 55.192 360.211 55.096 360.723 54.904C361.251 54.696 361.739 54.376 362.187 53.944L364.179 56.104C362.963 57.496 361.187 58.192 358.851 58.192C357.395 58.192 356.107 57.912 354.987 57.352C353.867 56.776 353.003 55.984 352.395 54.976C351.787 53.968 351.483 52.824 351.483 51.544C351.483 50.28 351.779 49.144 352.371 48.136C352.979 47.112 353.803 46.32 354.843 45.76C355.899 45.184 357.075 44.896 358.371 44.896C359.635 44.896 360.779 45.168 361.803 45.712C362.827 46.256 363.627 47.04 364.203 48.064C364.795 49.072 365.091 50.248 365.091 51.592ZM358.395 47.728C357.547 47.728 356.835 47.968 356.259 48.448C355.683 48.928 355.331 49.584 355.203 50.416H361.563C361.435 49.6 361.083 48.952 360.507 48.472C359.931 47.976 359.227 47.728 358.395 47.728Z" fill="black"/>
<path d="M414.667 58L414.643 47.92L409.699 56.224H407.947L403.027 48.136V58H399.379V41.2H402.595L408.883 51.64L415.075 41.2H418.267L418.315 58H414.667ZM427.245 44.896C429.245 44.896 430.781 45.376 431.853 46.336C432.925 47.28 433.461 48.712 433.461 50.632V58H429.957V56.392C429.253 57.592 427.941 58.192 426.021 58.192C425.029 58.192 424.165 58.024 423.429 57.688C422.709 57.352 422.157 56.888 421.773 56.296C421.389 55.704 421.197 55.032 421.197 54.28C421.197 53.08 421.645 52.136 422.541 51.448C423.453 50.76 424.853 50.416 426.741 50.416H429.717C429.717 49.6 429.469 48.976 428.973 48.544C428.477 48.096 427.733 47.872 426.741 47.872C426.053 47.872 425.373 47.984 424.701 48.208C424.045 48.416 423.485 48.704 423.021 49.072L421.677 46.456C422.381 45.96 423.221 45.576 424.197 45.304C425.189 45.032 426.205 44.896 427.245 44.896ZM426.957 55.672C427.597 55.672 428.165 55.528 428.661 55.24C429.157 54.936 429.509 54.496 429.717 53.92V52.6H427.149C425.613 52.6 424.845 53.104 424.845 54.112C424.845 54.592 425.029 54.976 425.397 55.264C425.781 55.536 426.301 55.672 426.957 55.672ZM444.697 44.896C446.297 44.896 447.585 45.376 448.561 46.336C449.553 47.296 450.049 48.72 450.049 50.608V58H446.305V51.184C446.305 50.16 446.081 49.4 445.633 48.904C445.185 48.392 444.537 48.136 443.689 48.136C442.745 48.136 441.993 48.432 441.433 49.024C440.873 49.6 440.593 50.464 440.593 51.616V58H436.849V40.192H440.593V46.432C441.089 45.936 441.689 45.56 442.393 45.304C443.097 45.032 443.865 44.896 444.697 44.896ZM469.979 44.896C471.595 44.896 472.875 45.376 473.819 46.336C474.779 47.28 475.259 48.704 475.259 50.608V58H471.515V51.184C471.515 50.16 471.299 49.4 470.867 48.904C470.451 48.392 469.851 48.136 469.067 48.136C468.187 48.136 467.491 48.424 466.979 49C466.467 49.56 466.211 50.4 466.211 51.52V58H462.467V51.184C462.467 49.152 461.651 48.136 460.019 48.136C459.155 48.136 458.467 48.424 457.955 49C457.443 49.56 457.187 50.4 457.187 51.52V58H453.443V45.088H457.019V46.576C457.499 46.032 458.083 45.616 458.771 45.328C459.475 45.04 460.243 44.896 461.075 44.896C461.987 44.896 462.811 45.08 463.547 45.448C464.283 45.8 464.875 46.32 465.323 47.008C465.851 46.336 466.515 45.816 467.315 45.448C468.131 45.08 469.019 44.896 469.979 44.896ZM491.623 45.088V58H488.071V56.464C487.575 57.024 486.983 57.456 486.295 57.76C485.607 58.048 484.863 58.192 484.063 58.192C482.367 58.192 481.023 57.704 480.031 56.728C479.039 55.752 478.543 54.304 478.543 52.384V45.088H482.287V51.832C482.287 53.912 483.159 54.952 484.903 54.952C485.799 54.952 486.519 54.664 487.063 54.088C487.607 53.496 487.879 52.624 487.879 51.472V45.088H491.623ZM503.419 57.376C503.051 57.648 502.595 57.856 502.051 58C501.523 58.128 500.963 58.192 500.371 58.192C498.835 58.192 497.643 57.8 496.795 57.016C495.963 56.232 495.547 55.08 495.547 53.56V48.256H493.555V45.376H495.547V42.232H499.291V45.376H502.507V48.256H499.291V53.512C499.291 54.056 499.427 54.48 499.699 54.784C499.987 55.072 500.387 55.216 500.899 55.216C501.491 55.216 501.995 55.056 502.411 54.736L503.419 57.376ZM513.153 44.896C514.353 44.896 515.441 45.176 516.417 45.736C517.409 46.28 518.185 47.056 518.745 48.064C519.305 49.056 519.585 50.216 519.585 51.544C519.585 52.872 519.305 54.04 518.745 55.048C518.185 56.04 517.409 56.816 516.417 57.376C515.441 57.92 514.353 58.192 513.153 58.192C511.377 58.192 510.025 57.632 509.097 56.512V58H505.521V40.192H509.265V46.456C510.209 45.416 511.505 44.896 513.153 44.896ZM512.505 55.12C513.465 55.12 514.249 54.8 514.857 54.16C515.481 53.504 515.793 52.632 515.793 51.544C515.793 50.456 515.481 49.592 514.857 48.952C514.249 48.296 513.465 47.968 512.505 47.968C511.545 47.968 510.753 48.296 510.129 48.952C509.521 49.592 509.217 50.456 509.217 51.544C509.217 52.632 509.521 53.504 510.129 54.16C510.753 54.8 511.545 55.12 512.505 55.12ZM534.739 51.592C534.739 51.64 534.715 51.976 534.667 52.6H524.899C525.075 53.4 525.491 54.032 526.147 54.496C526.803 54.96 527.619 55.192 528.595 55.192C529.267 55.192 529.859 55.096 530.371 54.904C530.899 54.696 531.387 54.376 531.835 53.944L533.827 56.104C532.611 57.496 530.835 58.192 528.499 58.192C527.043 58.192 525.755 57.912 524.635 57.352C523.515 56.776 522.651 55.984 522.043 54.976C521.435 53.968 521.131 52.824 521.131 51.544C521.131 50.28 521.427 49.144 522.019 48.136C522.627 47.112 523.451 46.32 524.491 45.76C525.547 45.184 526.723 44.896 528.019 44.896C529.283 44.896 530.427 45.168 531.451 45.712C532.475 46.256 533.275 47.04 533.851 48.064C534.443 49.072 534.739 50.248 534.739 51.592ZM528.043 47.728C527.195 47.728 526.483 47.968 525.907 48.448C525.331 48.928 524.979 49.584 524.851 50.416H531.211C531.083 49.6 530.731 48.952 530.155 48.472C529.579 47.976 528.875 47.728 528.043 47.728ZM549.814 45.088L543.982 58.792C543.39 60.28 542.654 61.328 541.774 61.936C540.91 62.544 539.862 62.848 538.63 62.848C537.958 62.848 537.294 62.744 536.638 62.536C535.982 62.328 535.446 62.04 535.03 61.672L536.398 59.008C536.686 59.264 537.014 59.464 537.382 59.608C537.766 59.752 538.142 59.824 538.51 59.824C539.022 59.824 539.438 59.696 539.758 59.44C540.078 59.2 540.366 58.792 540.622 58.216L540.67 58.096L535.078 45.088H538.942L542.566 53.848L546.214 45.088H549.814Z" fill="black"/>
<path d="M622.293 41.2H626.181V58H622.293V41.2ZM624.237 39.712C623.645 39.712 623.157 39.52 622.773 39.136C622.405 38.752 622.221 38.264 622.221 37.672C622.221 37.096 622.405 36.616 622.773 36.232C623.157 35.848 623.645 35.656 624.237 35.656C624.829 35.656 625.309 35.848 625.677 36.232C626.061 36.616 626.253 37.096 626.253 37.672C626.253 38.264 626.061 38.752 625.677 39.136C625.309 39.52 624.829 39.712 624.237 39.712ZM635.688 58.288C634.36 58.288 633.072 58.112 631.824 57.76C630.592 57.392 629.6 56.92 628.848 56.344L630.168 53.416C630.888 53.944 631.744 54.368 632.736 54.688C633.728 55.008 634.72 55.168 635.712 55.168C636.816 55.168 637.632 55.008 638.16 54.688C638.688 54.352 638.952 53.912 638.952 53.368C638.952 52.968 638.792 52.64 638.472 52.384C638.168 52.112 637.768 51.896 637.272 51.736C636.792 51.576 636.136 51.4 635.304 51.208C634.024 50.904 632.976 50.6 632.16 50.296C631.344 49.992 630.64 49.504 630.048 48.832C629.472 48.16 629.184 47.264 629.184 46.144C629.184 45.168 629.448 44.288 629.976 43.504C630.504 42.704 631.296 42.072 632.352 41.608C633.424 41.144 634.728 40.912 636.264 40.912C637.336 40.912 638.384 41.04 639.408 41.296C640.432 41.552 641.328 41.92 642.096 42.4L640.896 45.352C639.344 44.472 637.792 44.032 636.24 44.032C635.152 44.032 634.344 44.208 633.816 44.56C633.304 44.912 633.048 45.376 633.048 45.952C633.048 46.528 633.344 46.96 633.936 47.248C634.544 47.52 635.464 47.792 636.696 48.064C637.976 48.368 639.024 48.672 639.84 48.976C640.656 49.28 641.352 49.76 641.928 50.416C642.52 51.072 642.816 51.96 642.816 53.08C642.816 54.04 642.544 54.92 642 55.72C641.472 56.504 640.672 57.128 639.6 57.592C638.528 58.056 637.224 58.288 635.688 58.288ZM648.718 44.368H643.342V41.2H657.982V44.368H652.606V58H648.718V44.368ZM667.976 58.288C666.232 58.288 664.656 57.912 663.248 57.16C661.856 56.408 660.76 55.376 659.96 54.064C659.176 52.736 658.784 51.248 658.784 49.6C658.784 47.952 659.176 46.472 659.96 45.16C660.76 43.832 661.856 42.792 663.248 42.04C664.656 41.288 666.232 40.912 667.976 40.912C669.72 40.912 671.288 41.288 672.68 42.04C674.072 42.792 675.168 43.832 675.968 45.16C676.768 46.472 677.168 47.952 677.168 49.6C677.168 51.248 676.768 52.736 675.968 54.064C675.168 55.376 674.072 56.408 672.68 57.16C671.288 57.912 669.72 58.288 667.976 58.288ZM667.976 54.976C668.968 54.976 669.864 54.752 670.664 54.304C671.464 53.84 672.088 53.2 672.536 52.384C673 51.568 673.232 50.64 673.232 49.6C673.232 48.56 673 47.632 672.536 46.816C672.088 46 671.464 45.368 670.664 44.92C669.864 44.456 668.968 44.224 667.976 44.224C666.984 44.224 666.088 44.456 665.288 44.92C664.488 45.368 663.856 46 663.392 46.816C662.944 47.632 662.72 48.56 662.72 49.6C662.72 50.64 662.944 51.568 663.392 52.384C663.856 53.2 664.488 53.84 665.288 54.304C666.088 54.752 666.984 54.976 667.976 54.976ZM688.13 58.288C686.418 58.288 684.866 57.92 683.474 57.184C682.098 56.432 681.01 55.4 680.21 54.088C679.426 52.76 679.034 51.264 679.034 49.6C679.034 47.936 679.426 46.448 680.21 45.136C681.01 43.808 682.098 42.776 683.474 42.04C684.866 41.288 686.426 40.912 688.154 40.912C689.61 40.912 690.922 41.168 692.09 41.68C693.274 42.192 694.266 42.928 695.066 43.888L692.57 46.192C691.434 44.88 690.026 44.224 688.346 44.224C687.306 44.224 686.378 44.456 685.562 44.92C684.746 45.368 684.106 46 683.642 46.816C683.194 47.632 682.97 48.56 682.97 49.6C682.97 50.64 683.194 51.568 683.642 52.384C684.106 53.2 684.746 53.84 685.562 54.304C686.378 54.752 687.306 54.976 688.346 54.976C690.026 54.976 691.434 54.312 692.57 52.984L695.066 55.288C694.266 56.264 693.274 57.008 692.09 57.52C690.906 58.032 689.586 58.288 688.13 58.288ZM686.834 63.568C686.418 63.568 686.01 63.52 685.61 63.424C685.21 63.344 684.874 63.224 684.602 63.064L685.178 61.456C685.69 61.696 686.21 61.816 686.738 61.816C687.57 61.816 687.986 61.56 687.986 61.048C687.986 60.584 687.594 60.352 686.81 60.352H685.994L686.618 57.808H688.61L688.274 59.2C688.978 59.28 689.498 59.496 689.834 59.848C690.186 60.216 690.362 60.664 690.362 61.192C690.362 61.928 690.042 62.504 689.402 62.92C688.762 63.352 687.906 63.568 686.834 63.568Z" fill="black"/>
<path d="M761.332 41.2H765.22V58H761.332V41.2ZM763.276 39.712C762.684 39.712 762.196 39.52 761.812 39.136C761.444 38.752 761.26 38.264 761.26 37.672C761.26 37.096 761.444 36.616 761.812 36.232C762.196 35.848 762.684 35.656 763.276 35.656C763.868 35.656 764.348 35.848 764.716 36.232C765.1 36.616 765.292 37.096 765.292 37.672C765.292 38.264 765.1 38.752 764.716 39.136C764.348 39.52 763.868 39.712 763.276 39.712ZM774.487 52.936L772.687 54.712V58H768.943V40.192H772.687V50.272L778.159 45.088H782.623L777.247 50.56L783.103 58H778.567L774.487 52.936ZM784.693 45.088H788.437V58H784.693V45.088ZM786.565 43.288C785.877 43.288 785.317 43.088 784.885 42.688C784.453 42.288 784.237 41.792 784.237 41.2C784.237 40.608 784.453 40.112 784.885 39.712C785.317 39.312 785.877 39.112 786.565 39.112C787.253 39.112 787.813 39.304 788.245 39.688C788.677 40.072 788.893 40.552 788.893 41.128C788.893 41.752 788.677 42.272 788.245 42.688C787.813 43.088 787.253 43.288 786.565 43.288ZM800.24 57.376C799.872 57.648 799.416 57.856 798.872 58C798.344 58.128 797.784 58.192 797.192 58.192C795.656 58.192 794.464 57.8 793.616 57.016C792.784 56.232 792.368 55.08 792.368 53.56V48.256H790.376V45.376H792.368V42.232H796.112V45.376H799.328V48.256H796.112V53.512C796.112 54.056 796.248 54.48 796.52 54.784C796.808 55.072 797.208 55.216 797.72 55.216C798.312 55.216 798.816 55.056 799.232 54.736L800.24 57.376ZM814.591 51.592C814.591 51.64 814.567 51.976 814.519 52.6H804.751C804.927 53.4 805.343 54.032 805.999 54.496C806.655 54.96 807.471 55.192 808.447 55.192C809.119 55.192 809.711 55.096 810.223 54.904C810.751 54.696 811.239 54.376 811.687 53.944L813.679 56.104C812.463 57.496 810.687 58.192 808.351 58.192C806.895 58.192 805.607 57.912 804.487 57.352C803.367 56.776 802.503 55.984 801.895 54.976C801.287 53.968 800.983 52.824 800.983 51.544C800.983 50.28 801.279 49.144 801.871 48.136C802.479 47.112 803.303 46.32 804.343 45.76C805.399 45.184 806.575 44.896 807.871 44.896C809.135 44.896 810.279 45.168 811.303 45.712C812.327 46.256 813.127 47.04 813.703 48.064C814.295 49.072 814.591 50.248 814.591 51.592ZM807.895 47.728C807.047 47.728 806.335 47.968 805.759 48.448C805.183 48.928 804.831 49.584 804.703 50.416H811.063C810.935 49.6 810.583 48.952 810.007 48.472C809.431 47.976 808.727 47.728 807.895 47.728ZM817.083 40.192H820.827V58H817.083V40.192ZM824.302 40.192H828.046V58H824.302V40.192ZM831.521 45.088H835.265V58H831.521V45.088ZM833.393 43.288C832.705 43.288 832.145 43.088 831.713 42.688C831.281 42.288 831.065 41.792 831.065 41.2C831.065 40.608 831.281 40.112 831.713 39.712C832.145 39.312 832.705 39.112 833.393 39.112C834.081 39.112 834.641 39.304 835.073 39.688C835.505 40.072 835.721 40.552 835.721 41.128C835.721 41.752 835.505 42.272 835.073 42.688C834.641 43.088 834.081 43.288 833.393 43.288ZM851.321 58.288C849.993 58.288 848.705 58.112 847.457 57.76C846.225 57.392 845.233 56.92 844.481 56.344L845.801 53.416C846.521 53.944 847.377 54.368 848.369 54.688C849.361 55.008 850.353 55.168 851.345 55.168C852.449 55.168 853.265 55.008 853.793 54.688C854.321 54.352 854.585 53.912 854.585 53.368C854.585 52.968 854.425 52.64 854.105 52.384C853.801 52.112 853.401 51.896 852.905 51.736C852.425 51.576 851.769 51.4 850.937 51.208C849.657 50.904 848.609 50.6 847.793 50.296C846.977 49.992 846.273 49.504 845.681 48.832C845.105 48.16 844.817 47.264 844.817 46.144C844.817 45.168 845.081 44.288 845.609 43.504C846.137 42.704 846.929 42.072 847.985 41.608C849.057 41.144 850.361 40.912 851.897 40.912C852.969 40.912 854.017 41.04 855.041 41.296C856.065 41.552 856.961 41.92 857.729 42.4L856.529 45.352C854.977 44.472 853.425 44.032 851.873 44.032C850.785 44.032 849.977 44.208 849.449 44.56C848.937 44.912 848.681 45.376 848.681 45.952C848.681 46.528 848.977 46.96 849.569 47.248C850.177 47.52 851.097 47.792 852.329 48.064C853.609 48.368 854.657 48.672 855.473 48.976C856.289 49.28 856.985 49.76 857.561 50.416C858.153 51.072 858.449 51.96 858.449 53.08C858.449 54.04 858.177 54.92 857.633 55.72C857.105 56.504 856.305 57.128 855.233 57.592C854.161 58.056 852.857 58.288 851.321 58.288ZM866.049 44.896C868.049 44.896 869.585 45.376 870.657 46.336C871.729 47.28 872.265 48.712 872.265 50.632V58H868.761V56.392C868.057 57.592 866.745 58.192 864.825 58.192C863.833 58.192 862.969 58.024 862.233 57.688C861.513 57.352 860.961 56.888 860.577 56.296C860.193 55.704 860.001 55.032 860.001 54.28C860.001 53.08 860.449 52.136 861.345 51.448C862.257 50.76 863.657 50.416 865.545 50.416H868.521C868.521 49.6 868.273 48.976 867.777 48.544C867.281 48.096 866.537 47.872 865.545 47.872C864.857 47.872 864.177 47.984 863.505 48.208C862.849 48.416 862.289 48.704 861.825 49.072L860.481 46.456C861.185 45.96 862.025 45.576 863.001 45.304C863.993 45.032 865.009 44.896 866.049 44.896ZM865.761 55.672C866.401 55.672 866.969 55.528 867.465 55.24C867.961 54.936 868.313 54.496 868.521 53.92V52.6H865.953C864.417 52.6 863.649 53.104 863.649 54.112C863.649 54.592 863.833 54.976 864.201 55.264C864.585 55.536 865.105 55.672 865.761 55.672ZM883.502 44.896C885.102 44.896 886.39 45.376 887.366 46.336C888.358 47.296 888.854 48.72 888.854 50.608V58H885.11V51.184C885.11 50.16 884.886 49.4 884.438 48.904C883.99 48.392 883.342 48.136 882.494 48.136C881.55 48.136 880.798 48.432 880.238 49.024C879.678 49.6 879.398 50.464 879.398 51.616V58H875.654V45.088H879.23V46.6C879.726 46.056 880.342 45.64 881.078 45.352C881.814 45.048 882.622 44.896 883.502 44.896ZM897.456 44.896C899.456 44.896 900.992 45.376 902.064 46.336C903.136 47.28 903.672 48.712 903.672 50.632V58H900.168V56.392C899.464 57.592 898.152 58.192 896.232 58.192C895.24 58.192 894.376 58.024 893.64 57.688C892.92 57.352 892.368 56.888 891.984 56.296C891.6 55.704 891.408 55.032 891.408 54.28C891.408 53.08 891.856 52.136 892.752 51.448C893.664 50.76 895.064 50.416 896.952 50.416H899.928C899.928 49.6 899.68 48.976 899.184 48.544C898.688 48.096 897.944 47.872 896.952 47.872C896.264 47.872 895.584 47.984 894.912 48.208C894.256 48.416 893.696 48.704 893.232 49.072L891.888 46.456C892.592 45.96 893.432 45.576 894.408 45.304C895.4 45.032 896.416 44.896 897.456 44.896ZM897.168 55.672C897.808 55.672 898.376 55.528 898.872 55.24C899.368 54.936 899.72 54.496 899.928 53.92V52.6H897.36C895.824 52.6 895.056 53.104 895.056 54.112C895.056 54.592 895.24 54.976 895.608 55.264C895.992 55.536 896.512 55.672 897.168 55.672ZM919.642 45.088L913.81 58.792C913.218 60.28 912.482 61.328 911.602 61.936C910.738 62.544 909.69 62.848 908.458 62.848C907.786 62.848 907.122 62.744 906.466 62.536C905.81 62.328 905.274 62.04 904.858 61.672L906.226 59.008C906.514 59.264 906.842 59.464 907.21 59.608C907.594 59.752 907.97 59.824 908.338 59.824C908.85 59.824 909.266 59.696 909.586 59.44C909.906 59.2 910.194 58.792 910.45 58.216L910.498 58.096L904.906 45.088H908.77L912.394 53.848L916.042 45.088H919.642ZM921.169 45.088H924.913V58H921.169V45.088ZM923.041 43.288C922.353 43.288 921.793 43.088 921.361 42.688C920.929 42.288 920.713 41.792 920.713 41.2C920.713 40.608 920.929 40.112 921.361 39.712C921.793 39.312 922.353 39.112 923.041 39.112C923.729 39.112 924.289 39.304 924.721 39.688C925.153 40.072 925.369 40.552 925.369 41.128C925.369 41.752 925.153 42.272 924.721 42.688C924.289 43.088 923.729 43.288 923.041 43.288Z" fill="black"/>
<path d="M957.484 44.368H952.108V41.2H966.748V44.368H961.372V58H957.484V44.368ZM981.302 45.088V58H977.75V56.464C977.254 57.024 976.662 57.456 975.974 57.76C975.286 58.048 974.542 58.192 973.742 58.192C972.046 58.192 970.702 57.704 969.71 56.728C968.718 55.752 968.222 54.304 968.222 52.384V45.088H971.966V51.832C971.966 53.912 972.838 54.952 974.582 54.952C975.478 54.952 976.198 54.664 976.742 54.088C977.286 53.496 977.558 52.624 977.558 51.472V45.088H981.302ZM988.347 46.792C988.795 46.168 989.395 45.696 990.147 45.376C990.915 45.056 991.795 44.896 992.787 44.896V48.352C992.371 48.32 992.091 48.304 991.947 48.304C990.875 48.304 990.035 48.608 989.427 49.216C988.819 49.808 988.515 50.704 988.515 51.904V58H984.771V45.088H988.347V46.792ZM1008.22 45.088V55.84C1008.22 58.208 1007.6 59.968 1006.37 61.12C1005.14 62.272 1003.34 62.848 1000.97 62.848C999.72 62.848 998.536 62.696 997.416 62.392C996.296 62.088 995.368 61.648 994.632 61.072L996.12 58.384C996.664 58.832 997.352 59.184 998.184 59.44C999.016 59.712 999.848 59.848 1000.68 59.848C1001.98 59.848 1002.93 59.552 1003.54 58.96C1004.16 58.384 1004.47 57.504 1004.47 56.32V55.768C1003.5 56.84 1002.14 57.376 1000.39 57.376C999.208 57.376 998.12 57.12 997.128 56.608C996.152 56.08 995.376 55.344 994.8 54.4C994.224 53.456 993.936 52.368 993.936 51.136C993.936 49.904 994.224 48.816 994.8 47.872C995.376 46.928 996.152 46.2 997.128 45.688C998.12 45.16 999.208 44.896 1000.39 44.896C1002.26 44.896 1003.69 45.512 1004.66 46.744V45.088H1008.22ZM1001.14 54.304C1002.13 54.304 1002.94 54.016 1003.56 53.44C1004.2 52.848 1004.52 52.08 1004.52 51.136C1004.52 50.192 1004.2 49.432 1003.56 48.856C1002.94 48.264 1002.13 47.968 1001.14 47.968C1000.14 47.968 999.328 48.264 998.688 48.856C998.048 49.432 997.728 50.192 997.728 51.136C997.728 52.08 998.048 52.848 998.688 53.44C999.328 54.016 1000.14 54.304 1001.14 54.304ZM1024.71 45.088V58H1021.16V56.464C1020.66 57.024 1020.07 57.456 1019.38 57.76C1018.69 58.048 1017.95 58.192 1017.15 58.192C1015.45 58.192 1014.11 57.704 1013.12 56.728C1012.12 55.752 1011.63 54.304 1011.63 52.384V45.088H1015.37V51.832C1015.37 53.912 1016.24 54.952 1017.99 54.952C1018.88 54.952 1019.6 54.664 1020.15 54.088C1020.69 53.496 1020.96 52.624 1020.96 51.472V45.088H1024.71ZM1036.51 57.376C1036.14 57.648 1035.68 57.856 1035.14 58C1034.61 58.128 1034.05 58.192 1033.46 58.192C1031.92 58.192 1030.73 57.8 1029.88 57.016C1029.05 56.232 1028.63 55.08 1028.63 53.56V48.256H1026.64V45.376H1028.63V42.232H1032.38V45.376H1035.59V48.256H1032.38V53.512C1032.38 54.056 1032.51 54.48 1032.79 54.784C1033.07 55.072 1033.47 55.216 1033.99 55.216C1034.58 55.216 1035.08 55.056 1035.5 54.736L1036.51 57.376ZM1053.8 58.288C1052.06 58.288 1050.48 57.912 1049.08 57.16C1047.68 56.408 1046.59 55.376 1045.79 54.064C1045 52.736 1044.61 51.248 1044.61 49.6C1044.61 47.952 1045 46.472 1045.79 45.16C1046.59 43.832 1047.68 42.792 1049.08 42.04C1050.48 41.288 1052.06 40.912 1053.8 40.912C1055.55 40.912 1057.12 41.288 1058.51 42.04C1059.9 42.792 1061 43.832 1061.8 45.16C1062.6 46.472 1063 47.952 1063 49.6C1063 51.248 1062.6 52.736 1061.8 54.064C1061 55.376 1059.9 56.408 1058.51 57.16C1057.12 57.912 1055.55 58.288 1053.8 58.288ZM1053.8 54.976C1054.8 54.976 1055.69 54.752 1056.49 54.304C1057.29 53.84 1057.92 53.2 1058.36 52.384C1058.83 51.568 1059.06 50.64 1059.06 49.6C1059.06 48.56 1058.83 47.632 1058.36 46.816C1057.92 46 1057.29 45.368 1056.49 44.92C1055.69 44.456 1054.8 44.224 1053.8 44.224C1052.81 44.224 1051.92 44.456 1051.12 44.92C1050.32 45.368 1049.68 46 1049.22 46.816C1048.77 47.632 1048.55 48.56 1048.55 49.6C1048.55 50.64 1048.77 51.568 1049.22 52.384C1049.68 53.2 1050.32 53.84 1051.12 54.304C1051.92 54.752 1052.81 54.976 1053.8 54.976ZM1051.38 39.712C1050.9 39.712 1050.5 39.56 1050.18 39.256C1049.86 38.936 1049.7 38.536 1049.7 38.056C1049.7 37.576 1049.86 37.184 1050.18 36.88C1050.5 36.56 1050.9 36.4 1051.38 36.4C1051.86 36.4 1052.25 36.56 1052.56 36.88C1052.88 37.184 1053.04 37.576 1053.04 38.056C1053.04 38.536 1052.88 38.936 1052.56 39.256C1052.25 39.56 1051.86 39.712 1051.38 39.712ZM1056.23 39.712C1055.75 39.712 1055.35 39.56 1055.03 39.256C1054.72 38.936 1054.57 38.536 1054.57 38.056C1054.57 37.576 1054.72 37.184 1055.03 36.88C1055.35 36.56 1055.75 36.4 1056.23 36.4C1056.71 36.4 1057.11 36.56 1057.43 36.88C1057.75 37.184 1057.91 37.576 1057.91 38.056C1057.91 38.536 1057.75 38.936 1057.43 39.256C1057.11 39.56 1056.71 39.712 1056.23 39.712ZM1076.29 55.12V58H1064.77V55.744L1071.34 47.968H1064.93V45.088H1076.07V47.344L1069.49 55.12H1076.29ZM1083.89 44.896C1085.89 44.896 1087.43 45.376 1088.5 46.336C1089.57 47.28 1090.11 48.712 1090.11 50.632V58H1086.61V56.392C1085.9 57.592 1084.59 58.192 1082.67 58.192C1081.68 58.192 1080.81 58.024 1080.08 57.688C1079.36 57.352 1078.81 56.888 1078.42 56.296C1078.04 55.704 1077.85 55.032 1077.85 54.28C1077.85 53.08 1078.29 52.136 1079.19 51.448C1080.1 50.76 1081.5 50.416 1083.39 50.416H1086.37C1086.37 49.6 1086.12 48.976 1085.62 48.544C1085.13 48.096 1084.38 47.872 1083.39 47.872C1082.7 47.872 1082.02 47.984 1081.35 48.208C1080.69 48.416 1080.13 48.704 1079.67 49.072L1078.33 46.456C1079.03 45.96 1079.87 45.576 1080.85 45.304C1081.84 45.032 1082.85 44.896 1083.89 44.896ZM1083.61 55.672C1084.25 55.672 1084.81 55.528 1085.31 55.24C1085.81 54.936 1086.16 54.496 1086.37 53.92V52.6H1083.8C1082.26 52.6 1081.49 53.104 1081.49 54.112C1081.49 54.592 1081.68 54.976 1082.05 55.264C1082.43 55.536 1082.95 55.672 1083.61 55.672ZM1093.5 40.192H1097.24V58H1093.5V40.192Z" fill="black"/>
<path d="M1174.82 58.288C1173.49 58.288 1172.2 58.112 1170.95 57.76C1169.72 57.392 1168.73 56.92 1167.98 56.344L1169.3 53.416C1170.02 53.944 1170.87 54.368 1171.86 54.688C1172.86 55.008 1173.85 55.168 1174.84 55.168C1175.94 55.168 1176.76 55.008 1177.29 54.688C1177.82 54.352 1178.08 53.912 1178.08 53.368C1178.08 52.968 1177.92 52.64 1177.6 52.384C1177.3 52.112 1176.9 51.896 1176.4 51.736C1175.92 51.576 1175.26 51.4 1174.43 51.208C1173.15 50.904 1172.1 50.6 1171.29 50.296C1170.47 49.992 1169.77 49.504 1169.18 48.832C1168.6 48.16 1168.31 47.264 1168.31 46.144C1168.31 45.168 1168.58 44.288 1169.1 43.504C1169.63 42.704 1170.42 42.072 1171.48 41.608C1172.55 41.144 1173.86 40.912 1175.39 40.912C1176.46 40.912 1177.51 41.04 1178.54 41.296C1179.56 41.552 1180.46 41.92 1181.22 42.4L1180.02 45.352C1178.47 44.472 1176.92 44.032 1175.37 44.032C1174.28 44.032 1173.47 44.208 1172.94 44.56C1172.43 44.912 1172.18 45.376 1172.18 45.952C1172.18 46.528 1172.47 46.96 1173.06 47.248C1173.67 47.52 1174.59 47.792 1175.82 48.064C1177.1 48.368 1178.15 48.672 1178.97 48.976C1179.78 49.28 1180.48 49.76 1181.06 50.416C1181.65 51.072 1181.94 51.96 1181.94 53.08C1181.94 54.04 1181.67 54.92 1181.13 55.72C1180.6 56.504 1179.8 57.128 1178.73 57.592C1177.66 58.056 1176.35 58.288 1174.82 58.288ZM1184.34 45.088H1188.08V58H1184.34V45.088ZM1186.21 43.288C1185.52 43.288 1184.96 43.088 1184.53 42.688C1184.1 42.288 1183.88 41.792 1183.88 41.2C1183.88 40.608 1184.1 40.112 1184.53 39.712C1184.96 39.312 1185.52 39.112 1186.21 39.112C1186.9 39.112 1187.46 39.304 1187.89 39.688C1188.32 40.072 1188.54 40.552 1188.54 41.128C1188.54 41.752 1188.32 42.272 1187.89 42.688C1187.46 43.088 1186.9 43.288 1186.21 43.288ZM1199.88 57.376C1199.52 57.648 1199.06 57.856 1198.52 58C1197.99 58.128 1197.43 58.192 1196.84 58.192C1195.3 58.192 1194.11 57.8 1193.26 57.016C1192.43 56.232 1192.01 55.08 1192.01 53.56V48.256H1190.02V45.376H1192.01V42.232H1195.76V45.376H1198.97V48.256H1195.76V53.512C1195.76 54.056 1195.89 54.48 1196.16 54.784C1196.45 55.072 1196.85 55.216 1197.36 55.216C1197.96 55.216 1198.46 55.056 1198.88 54.736L1199.88 57.376ZM1214.24 51.592C1214.24 51.64 1214.21 51.976 1214.16 52.6H1204.4C1204.57 53.4 1204.99 54.032 1205.64 54.496C1206.3 54.96 1207.12 55.192 1208.09 55.192C1208.76 55.192 1209.36 55.096 1209.87 54.904C1210.4 54.696 1210.88 54.376 1211.33 53.944L1213.32 56.104C1212.11 57.496 1210.33 58.192 1208 58.192C1206.54 58.192 1205.25 57.912 1204.13 57.352C1203.01 56.776 1202.15 55.984 1201.54 54.976C1200.93 53.968 1200.63 52.824 1200.63 51.544C1200.63 50.28 1200.92 49.144 1201.52 48.136C1202.12 47.112 1202.95 46.32 1203.99 45.76C1205.04 45.184 1206.22 44.896 1207.52 44.896C1208.78 44.896 1209.92 45.168 1210.95 45.712C1211.97 46.256 1212.77 47.04 1213.35 48.064C1213.94 49.072 1214.24 50.248 1214.24 51.592ZM1207.54 47.728C1206.69 47.728 1205.98 47.968 1205.4 48.448C1204.83 48.928 1204.48 49.584 1204.35 50.416H1210.71C1210.58 49.6 1210.23 48.952 1209.65 48.472C1209.08 47.976 1208.37 47.728 1207.54 47.728ZM1216.73 40.192H1220.47V58H1216.73V40.192ZM1236.59 51.592C1236.59 51.64 1236.57 51.976 1236.52 52.6H1226.75C1226.93 53.4 1227.35 54.032 1228 54.496C1228.66 54.96 1229.47 55.192 1230.45 55.192C1231.12 55.192 1231.71 55.096 1232.23 54.904C1232.75 54.696 1233.24 54.376 1233.69 53.944L1235.68 56.104C1234.47 57.496 1232.69 58.192 1230.35 58.192C1228.9 58.192 1227.61 57.912 1226.49 57.352C1225.37 56.776 1224.51 55.984 1223.9 54.976C1223.29 53.968 1222.99 52.824 1222.99 51.544C1222.99 50.28 1223.28 49.144 1223.87 48.136C1224.48 47.112 1225.31 46.32 1226.35 45.76C1227.4 45.184 1228.58 44.896 1229.87 44.896C1231.14 44.896 1232.28 45.168 1233.31 45.712C1234.33 46.256 1235.13 47.04 1235.71 48.064C1236.3 49.072 1236.59 50.248 1236.59 51.592ZM1229.9 47.728C1229.05 47.728 1228.34 47.968 1227.76 48.448C1227.19 48.928 1226.83 49.584 1226.71 50.416H1233.07C1232.94 49.6 1232.59 48.952 1232.01 48.472C1231.43 47.976 1230.73 47.728 1229.9 47.728ZM1242.66 46.792C1243.11 46.168 1243.71 45.696 1244.46 45.376C1245.23 45.056 1246.11 44.896 1247.1 44.896V48.352C1246.69 48.32 1246.41 48.304 1246.26 48.304C1245.19 48.304 1244.35 48.608 1243.74 49.216C1243.14 49.808 1242.83 50.704 1242.83 51.904V58H1239.09V45.088H1242.66V46.792Z" fill="black"/>
<path d="M1306.67 49.264C1307.63 49.568 1308.38 50.08 1308.93 50.8C1309.47 51.504 1309.74 52.376 1309.74 53.416C1309.74 54.888 1309.17 56.024 1308.02 56.824C1306.88 57.608 1305.22 58 1303.02 58H1294.34V41.2H1302.54C1304.59 41.2 1306.16 41.592 1307.25 42.376C1308.35 43.16 1308.9 44.224 1308.9 45.568C1308.9 46.384 1308.7 47.112 1308.3 47.752C1307.92 48.392 1307.38 48.896 1306.67 49.264ZM1298.2 44.128V48.088H1302.06C1303.02 48.088 1303.75 47.92 1304.25 47.584C1304.74 47.248 1304.99 46.752 1304.99 46.096C1304.99 45.44 1304.74 44.952 1304.25 44.632C1303.75 44.296 1303.02 44.128 1302.06 44.128H1298.2ZM1302.74 55.072C1303.76 55.072 1304.53 54.904 1305.04 54.568C1305.57 54.232 1305.83 53.712 1305.83 53.008C1305.83 51.616 1304.8 50.92 1302.74 50.92H1298.2V55.072H1302.74ZM1317.63 44.896C1319.63 44.896 1321.17 45.376 1322.24 46.336C1323.31 47.28 1323.85 48.712 1323.85 50.632V58H1320.34V56.392C1319.64 57.592 1318.33 58.192 1316.41 58.192C1315.42 58.192 1314.55 58.024 1313.82 57.688C1313.1 57.352 1312.54 56.888 1312.16 56.296C1311.78 55.704 1311.58 55.032 1311.58 54.28C1311.58 53.08 1312.03 52.136 1312.93 51.448C1313.84 50.76 1315.24 50.416 1317.13 50.416H1320.1C1320.1 49.6 1319.86 48.976 1319.36 48.544C1318.86 48.096 1318.12 47.872 1317.13 47.872C1316.44 47.872 1315.76 47.984 1315.09 48.208C1314.43 48.416 1313.87 48.704 1313.41 49.072L1312.06 46.456C1312.77 45.96 1313.61 45.576 1314.58 45.304C1315.58 45.032 1316.59 44.896 1317.63 44.896ZM1317.34 55.672C1317.98 55.672 1318.55 55.528 1319.05 55.24C1319.54 54.936 1319.9 54.496 1320.1 53.92V52.6H1317.54C1316 52.6 1315.23 53.104 1315.23 54.112C1315.23 54.592 1315.42 54.976 1315.78 55.264C1316.17 55.536 1316.69 55.672 1317.34 55.672ZM1331.58 58.192C1330.51 58.192 1329.46 58.064 1328.44 57.808C1327.41 57.536 1326.6 57.2 1325.99 56.8L1327.24 54.112C1327.81 54.48 1328.51 54.784 1329.32 55.024C1330.14 55.248 1330.94 55.36 1331.72 55.36C1333.31 55.36 1334.1 54.968 1334.1 54.184C1334.1 53.816 1333.88 53.552 1333.45 53.392C1333.02 53.232 1332.36 53.096 1331.46 52.984C1330.4 52.824 1329.53 52.64 1328.84 52.432C1328.16 52.224 1327.56 51.856 1327.04 51.328C1326.55 50.8 1326.3 50.048 1326.3 49.072C1326.3 48.256 1326.53 47.536 1327 46.912C1327.48 46.272 1328.16 45.776 1329.06 45.424C1329.97 45.072 1331.04 44.896 1332.28 44.896C1333.19 44.896 1334.09 45 1334.99 45.208C1335.9 45.4 1336.65 45.672 1337.24 46.024L1336 48.688C1334.86 48.048 1333.62 47.728 1332.28 47.728C1331.48 47.728 1330.88 47.84 1330.48 48.064C1330.08 48.288 1329.88 48.576 1329.88 48.928C1329.88 49.328 1330.09 49.608 1330.52 49.768C1330.96 49.928 1331.64 50.08 1332.59 50.224C1333.64 50.4 1334.51 50.592 1335.18 50.8C1335.85 50.992 1336.44 51.352 1336.93 51.88C1337.43 52.408 1337.68 53.144 1337.68 54.088C1337.68 54.888 1337.44 55.6 1336.96 56.224C1336.48 56.848 1335.77 57.336 1334.84 57.688C1333.93 58.024 1332.84 58.192 1331.58 58.192ZM1330.98 63.568C1330.56 63.568 1330.16 63.52 1329.76 63.424C1329.36 63.344 1329.02 63.224 1328.75 63.064L1329.32 61.456C1329.84 61.696 1330.36 61.816 1330.88 61.816C1331.72 61.816 1332.13 61.56 1332.13 61.048C1332.13 60.584 1331.74 60.352 1330.96 60.352H1330.14L1330.76 57.808H1332.76L1332.42 59.2C1333.12 59.28 1333.64 59.496 1333.98 59.848C1334.33 60.216 1334.51 60.664 1334.51 61.192C1334.51 61.928 1334.19 62.504 1333.55 62.92C1332.91 63.352 1332.05 63.568 1330.98 63.568ZM1345.19 44.896C1347.19 44.896 1348.73 45.376 1349.8 46.336C1350.87 47.28 1351.41 48.712 1351.41 50.632V58H1347.91V56.392C1347.2 57.592 1345.89 58.192 1343.97 58.192C1342.98 58.192 1342.11 58.024 1341.38 57.688C1340.66 57.352 1340.11 56.888 1339.72 56.296C1339.34 55.704 1339.15 55.032 1339.15 54.28C1339.15 53.08 1339.59 52.136 1340.49 51.448C1341.4 50.76 1342.8 50.416 1344.69 50.416H1347.67C1347.67 49.6 1347.42 48.976 1346.92 48.544C1346.43 48.096 1345.68 47.872 1344.69 47.872C1344 47.872 1343.32 47.984 1342.65 48.208C1341.99 48.416 1341.43 48.704 1340.97 49.072L1339.63 46.456C1340.33 45.96 1341.17 45.576 1342.15 45.304C1343.14 45.032 1344.15 44.896 1345.19 44.896ZM1344.91 55.672C1345.55 55.672 1346.11 55.528 1346.61 55.24C1347.11 54.936 1347.46 54.496 1347.67 53.92V52.6H1345.1C1343.56 52.6 1342.79 53.104 1342.79 54.112C1342.79 54.592 1342.98 54.976 1343.35 55.264C1343.73 55.536 1344.25 55.672 1344.91 55.672ZM1360.34 52.936L1358.54 54.712V58H1354.8V40.192H1358.54V50.272L1364.01 45.088H1368.48L1363.1 50.56L1368.96 58H1364.42L1360.34 52.936ZM1383.82 51.4L1381.57 53.752V58H1377.7V41.2H1381.57V49.048L1389.01 41.2H1393.33L1386.37 48.688L1393.73 58H1389.2L1383.82 51.4ZM1400.81 58.192C1399.45 58.192 1398.23 57.912 1397.14 57.352C1396.07 56.776 1395.23 55.984 1394.62 54.976C1394.01 53.968 1393.71 52.824 1393.71 51.544C1393.71 50.264 1394.01 49.12 1394.62 48.112C1395.23 47.104 1396.07 46.32 1397.14 45.76C1398.23 45.184 1399.45 44.896 1400.81 44.896C1402.17 44.896 1403.39 45.184 1404.46 45.76C1405.53 46.32 1406.37 47.104 1406.98 48.112C1407.59 49.12 1407.89 50.264 1407.89 51.544C1407.89 52.824 1407.59 53.968 1406.98 54.976C1406.37 55.984 1405.53 56.776 1404.46 57.352C1403.39 57.912 1402.17 58.192 1400.81 58.192ZM1400.81 55.12C1401.77 55.12 1402.55 54.8 1403.16 54.16C1403.79 53.504 1404.1 52.632 1404.1 51.544C1404.1 50.456 1403.79 49.592 1403.16 48.952C1402.55 48.296 1401.77 47.968 1400.81 47.968C1399.85 47.968 1399.06 48.296 1398.43 48.952C1397.81 49.592 1397.5 50.456 1397.5 51.544C1397.5 52.632 1397.81 53.504 1398.43 54.16C1399.06 54.8 1399.85 55.12 1400.81 55.12ZM1418.24 44.896C1419.84 44.896 1421.13 45.376 1422.1 46.336C1423.1 47.296 1423.59 48.72 1423.59 50.608V58H1419.85V51.184C1419.85 50.16 1419.62 49.4 1419.18 48.904C1418.73 48.392 1418.08 48.136 1417.23 48.136C1416.29 48.136 1415.54 48.432 1414.98 49.024C1414.42 49.6 1414.14 50.464 1414.14 51.616V58H1410.39V45.088H1413.97V46.6C1414.46 46.056 1415.08 45.64 1415.82 45.352C1416.55 45.048 1417.36 44.896 1418.24 44.896ZM1439.99 45.088V58H1436.44V56.464C1435.95 57.024 1435.35 57.456 1434.67 57.76C1433.98 58.048 1433.23 58.192 1432.43 58.192C1430.74 58.192 1429.39 57.704 1428.4 56.728C1427.41 55.752 1426.91 54.304 1426.91 52.384V45.088H1430.66V51.832C1430.66 53.912 1431.53 54.952 1433.27 54.952C1434.17 54.952 1434.89 54.664 1435.43 54.088C1435.98 53.496 1436.25 52.624 1436.25 51.472V45.088H1439.99ZM1451.79 57.376C1451.42 57.648 1450.97 57.856 1450.42 58C1449.89 58.128 1449.33 58.192 1448.74 58.192C1447.21 58.192 1446.01 57.8 1445.17 57.016C1444.33 56.232 1443.92 55.08 1443.92 53.56V48.256H1441.93V45.376H1443.92V42.232H1447.66V45.376H1450.88V48.256H1447.66V53.512C1447.66 54.056 1447.8 54.48 1448.07 54.784C1448.36 55.072 1448.76 55.216 1449.27 55.216C1449.86 55.216 1450.37 55.056 1450.78 54.736L1451.79 57.376ZM1453.89 40.192H1457.64V58H1453.89V40.192ZM1466.32 44.896C1468.32 44.896 1469.85 45.376 1470.93 46.336C1472 47.28 1472.53 48.712 1472.53 50.632V58H1469.03V56.392C1468.33 57.592 1467.01 58.192 1465.09 58.192C1464.1 58.192 1463.24 58.024 1462.5 57.688C1461.78 57.352 1461.23 56.888 1460.85 56.296C1460.46 55.704 1460.27 55.032 1460.27 54.28C1460.27 53.08 1460.72 52.136 1461.61 51.448C1462.53 50.76 1463.93 50.416 1465.81 50.416H1468.79C1468.79 49.6 1468.54 48.976 1468.05 48.544C1467.55 48.096 1466.81 47.872 1465.81 47.872C1465.13 47.872 1464.45 47.984 1463.77 48.208C1463.12 48.416 1462.56 48.704 1462.09 49.072L1460.75 46.456C1461.45 45.96 1462.29 45.576 1463.27 45.304C1464.26 45.032 1465.28 44.896 1466.32 44.896ZM1466.03 55.672C1466.67 55.672 1467.24 55.528 1467.73 55.24C1468.23 54.936 1468.58 54.496 1468.79 53.92V52.6H1466.22C1464.69 52.6 1463.92 53.104 1463.92 54.112C1463.92 54.592 1464.1 54.976 1464.47 55.264C1464.85 55.536 1465.37 55.672 1466.03 55.672ZM1479.5 46.792C1479.95 46.168 1480.55 45.696 1481.3 45.376C1482.07 45.056 1482.95 44.896 1483.94 44.896V48.352C1483.52 48.32 1483.24 48.304 1483.1 48.304C1482.03 48.304 1481.19 48.608 1480.58 49.216C1479.97 49.808 1479.67 50.704 1479.67 51.904V58H1475.92V45.088H1479.5V46.792ZM1486.17 45.088H1489.91V58H1486.17V45.088Z" fill="black"/>
<path d="M1522.73 20.264C1523.69 20.568 1524.45 21.08 1524.99 21.8C1525.53 22.504 1525.81 23.376 1525.81 24.416C1525.81 25.888 1525.23 27.024 1524.08 27.824C1522.94 28.608 1521.28 29 1519.09 29H1510.4V12.2H1518.61C1520.65 12.2 1522.22 12.592 1523.31 13.376C1524.41 14.16 1524.97 15.224 1524.97 16.568C1524.97 17.384 1524.77 18.112 1524.37 18.752C1523.98 19.392 1523.44 19.896 1522.73 20.264ZM1514.26 15.128V19.088H1518.13C1519.09 19.088 1519.81 18.92 1520.31 18.584C1520.81 18.248 1521.05 17.752 1521.05 17.096C1521.05 16.44 1520.81 15.952 1520.31 15.632C1519.81 15.296 1519.09 15.128 1518.13 15.128H1514.26ZM1518.8 26.072C1519.82 26.072 1520.59 25.904 1521.1 25.568C1521.63 25.232 1521.89 24.712 1521.89 24.008C1521.89 22.616 1520.86 21.92 1518.8 21.92H1514.26V26.072H1518.8ZM1533.69 15.896C1535.69 15.896 1537.23 16.376 1538.3 17.336C1539.37 18.28 1539.91 19.712 1539.91 21.632V29H1536.41V27.392C1535.7 28.592 1534.39 29.192 1532.47 29.192C1531.48 29.192 1530.61 29.024 1529.88 28.688C1529.16 28.352 1528.61 27.888 1528.22 27.296C1527.84 26.704 1527.65 26.032 1527.65 25.28C1527.65 24.08 1528.09 23.136 1528.99 22.448C1529.9 21.76 1531.3 21.416 1533.19 21.416H1536.17C1536.17 20.6 1535.92 19.976 1535.42 19.544C1534.93 19.096 1534.18 18.872 1533.19 18.872C1532.5 18.872 1531.82 18.984 1531.15 19.208C1530.49 19.416 1529.93 19.704 1529.47 20.072L1528.13 17.456C1528.83 16.96 1529.67 16.576 1530.65 16.304C1531.64 16.032 1532.65 15.896 1533.69 15.896ZM1533.41 26.672C1534.05 26.672 1534.61 26.528 1535.11 26.24C1535.61 25.936 1535.96 25.496 1536.17 24.92V23.6H1533.6C1532.06 23.6 1531.29 24.104 1531.29 25.112C1531.29 25.592 1531.48 25.976 1531.85 26.264C1532.23 26.536 1532.75 26.672 1533.41 26.672ZM1547.64 29.192C1546.57 29.192 1545.52 29.064 1544.5 28.808C1543.47 28.536 1542.66 28.2 1542.05 27.8L1543.3 25.112C1543.87 25.48 1544.57 25.784 1545.39 26.024C1546.2 26.248 1547 26.36 1547.79 26.36C1549.37 26.36 1550.16 25.968 1550.16 25.184C1550.16 24.816 1549.95 24.552 1549.51 24.392C1549.08 24.232 1548.42 24.096 1547.52 23.984C1546.47 23.824 1545.59 23.64 1544.91 23.432C1544.22 23.224 1543.62 22.856 1543.11 22.328C1542.61 21.8 1542.36 21.048 1542.36 20.072C1542.36 19.256 1542.59 18.536 1543.06 17.912C1543.54 17.272 1544.23 16.776 1545.12 16.424C1546.03 16.072 1547.11 15.896 1548.34 15.896C1549.25 15.896 1550.15 16 1551.05 16.208C1551.96 16.4 1552.71 16.672 1553.31 17.024L1552.06 19.688C1550.92 19.048 1549.68 18.728 1548.34 18.728C1547.54 18.728 1546.94 18.84 1546.54 19.064C1546.14 19.288 1545.94 19.576 1545.94 19.928C1545.94 20.328 1546.15 20.608 1546.59 20.768C1547.02 20.928 1547.71 21.08 1548.65 21.224C1549.71 21.4 1550.57 21.592 1551.24 21.8C1551.91 21.992 1552.5 22.352 1552.99 22.88C1553.49 23.408 1553.74 24.144 1553.74 25.088C1553.74 25.888 1553.5 26.6 1553.02 27.224C1552.54 27.848 1551.83 28.336 1550.91 28.688C1549.99 29.024 1548.91 29.192 1547.64 29.192ZM1547.04 34.568C1546.63 34.568 1546.22 34.52 1545.82 34.424C1545.42 34.344 1545.08 34.224 1544.81 34.064L1545.39 32.456C1545.9 32.696 1546.42 32.816 1546.95 32.816C1547.78 32.816 1548.19 32.56 1548.19 32.048C1548.19 31.584 1547.8 31.352 1547.02 31.352H1546.2L1546.83 28.808H1548.82L1548.48 30.2C1549.19 30.28 1549.71 30.496 1550.04 30.848C1550.39 31.216 1550.57 31.664 1550.57 32.192C1550.57 32.928 1550.25 33.504 1549.61 33.92C1548.97 34.352 1548.11 34.568 1547.04 34.568ZM1561.26 15.896C1563.26 15.896 1564.79 16.376 1565.86 17.336C1566.94 18.28 1567.47 19.712 1567.47 21.632V29H1563.97V27.392C1563.26 28.592 1561.95 29.192 1560.03 29.192C1559.04 29.192 1558.18 29.024 1557.44 28.688C1556.72 28.352 1556.17 27.888 1555.78 27.296C1555.4 26.704 1555.21 26.032 1555.21 25.28C1555.21 24.08 1555.66 23.136 1556.55 22.448C1557.46 21.76 1558.86 21.416 1560.75 21.416H1563.73C1563.73 20.6 1563.48 19.976 1562.98 19.544C1562.49 19.096 1561.74 18.872 1560.75 18.872C1560.06 18.872 1559.38 18.984 1558.71 19.208C1558.06 19.416 1557.5 19.704 1557.03 20.072L1555.69 17.456C1556.39 16.96 1557.23 16.576 1558.21 16.304C1559.2 16.032 1560.22 15.896 1561.26 15.896ZM1560.97 26.672C1561.61 26.672 1562.18 26.528 1562.67 26.24C1563.17 25.936 1563.52 25.496 1563.73 24.92V23.6H1561.16C1559.62 23.6 1558.86 24.104 1558.86 25.112C1558.86 25.592 1559.04 25.976 1559.41 26.264C1559.79 26.536 1560.31 26.672 1560.97 26.672ZM1576.4 23.936L1574.6 25.712V29H1570.86V11.192H1574.6V21.272L1580.08 16.088H1584.54L1579.16 21.56L1585.02 29H1580.48L1576.4 23.936ZM1590.63 29.192C1589.55 29.192 1588.51 29.064 1587.48 28.808C1586.46 28.536 1585.64 28.2 1585.03 27.8L1586.28 25.112C1586.86 25.48 1587.55 25.784 1588.37 26.024C1589.19 26.248 1589.99 26.36 1590.77 26.36C1592.35 26.36 1593.15 25.968 1593.15 25.184C1593.15 24.816 1592.93 24.552 1592.5 24.392C1592.07 24.232 1591.4 24.096 1590.51 23.984C1589.45 23.824 1588.58 23.64 1587.89 23.432C1587.2 23.224 1586.6 22.856 1586.09 22.328C1585.59 21.8 1585.35 21.048 1585.35 20.072C1585.35 19.256 1585.58 18.536 1586.04 17.912C1586.52 17.272 1587.21 16.776 1588.11 16.424C1589.02 16.072 1590.09 15.896 1591.32 15.896C1592.23 15.896 1593.14 16 1594.03 16.208C1594.95 16.4 1595.7 16.672 1596.29 17.024L1595.04 19.688C1593.91 19.048 1592.67 18.728 1591.32 18.728C1590.52 18.728 1589.92 18.84 1589.52 19.064C1589.12 19.288 1588.92 19.576 1588.92 19.928C1588.92 20.328 1589.14 20.608 1589.57 20.768C1590 20.928 1590.69 21.08 1591.63 21.224C1592.69 21.4 1593.55 21.592 1594.23 21.8C1594.9 21.992 1595.48 22.352 1595.98 22.88C1596.47 23.408 1596.72 24.144 1596.72 25.088C1596.72 25.888 1596.48 26.6 1596 27.224C1595.52 27.848 1594.82 28.336 1593.89 28.688C1592.98 29.024 1591.89 29.192 1590.63 29.192ZM1590.03 34.568C1589.61 34.568 1589.2 34.52 1588.8 34.424C1588.4 34.344 1588.07 34.224 1587.79 34.064L1588.37 32.456C1588.88 32.696 1589.4 32.816 1589.93 32.816C1590.76 32.816 1591.18 32.56 1591.18 32.048C1591.18 31.584 1590.79 31.352 1590 31.352H1589.19L1589.81 28.808H1591.8L1591.47 30.2C1592.17 30.28 1592.69 30.496 1593.03 30.848C1593.38 31.216 1593.55 31.664 1593.55 32.192C1593.55 32.928 1593.23 33.504 1592.59 33.92C1591.95 34.352 1591.1 34.568 1590.03 34.568ZM1611.68 22.592C1611.68 22.64 1611.66 22.976 1611.61 23.6H1601.84C1602.02 24.4 1602.43 25.032 1603.09 25.496C1603.74 25.96 1604.56 26.192 1605.54 26.192C1606.21 26.192 1606.8 26.096 1607.31 25.904C1607.84 25.696 1608.33 25.376 1608.78 24.944L1610.77 27.104C1609.55 28.496 1607.78 29.192 1605.44 29.192C1603.98 29.192 1602.7 28.912 1601.58 28.352C1600.46 27.776 1599.59 26.984 1598.98 25.976C1598.38 24.968 1598.07 23.824 1598.07 22.544C1598.07 21.28 1598.37 20.144 1598.96 19.136C1599.57 18.112 1600.39 17.32 1601.43 16.76C1602.49 16.184 1603.66 15.896 1604.96 15.896C1606.22 15.896 1607.37 16.168 1608.39 16.712C1609.42 17.256 1610.22 18.04 1610.79 19.064C1611.38 20.072 1611.68 21.248 1611.68 22.592ZM1604.98 18.728C1604.14 18.728 1603.42 18.968 1602.85 19.448C1602.27 19.928 1601.92 20.584 1601.79 21.416H1608.15C1608.02 20.6 1607.67 19.952 1607.1 19.472C1606.52 18.976 1605.82 18.728 1604.98 18.728ZM1622.02 15.896C1623.62 15.896 1624.91 16.376 1625.89 17.336C1626.88 18.296 1627.37 19.72 1627.37 21.608V29H1623.63V22.184C1623.63 21.16 1623.41 20.4 1622.96 19.904C1622.51 19.392 1621.86 19.136 1621.01 19.136C1620.07 19.136 1619.32 19.432 1618.76 20.024C1618.2 20.6 1617.92 21.464 1617.92 22.616V29H1614.17V11.192H1617.92V17.432C1618.41 16.936 1619.01 16.56 1619.72 16.304C1620.42 16.032 1621.19 15.896 1622.02 15.896ZM1630.77 16.088H1634.51V29H1630.77V16.088ZM1632.64 14.288C1631.95 14.288 1631.39 14.088 1630.96 13.688C1630.53 13.288 1630.31 12.792 1630.31 12.2C1630.31 11.608 1630.53 11.112 1630.96 10.712C1631.39 10.312 1631.95 10.112 1632.64 10.112C1633.33 10.112 1633.89 10.304 1634.32 10.688C1634.75 11.072 1634.97 11.552 1634.97 12.128C1634.97 12.752 1634.75 13.272 1634.32 13.688C1633.89 14.088 1633.33 14.288 1632.64 14.288ZM1641.56 17.792C1642.01 17.168 1642.61 16.696 1643.36 16.376C1644.13 16.056 1645.01 15.896 1646 15.896V19.352C1645.59 19.32 1645.31 19.304 1645.16 19.304C1644.09 19.304 1643.25 19.608 1642.64 20.216C1642.03 20.808 1641.73 21.704 1641.73 22.904V29H1637.99V16.088H1641.56V17.792ZM1528.89 58L1528.86 47.92L1523.92 56.224H1522.17L1517.25 48.136V58H1513.6V41.2H1516.81L1523.1 51.64L1529.29 41.2H1532.49L1532.53 58H1528.89ZM1548.9 51.592C1548.9 51.64 1548.88 51.976 1548.83 52.6H1539.06C1539.24 53.4 1539.66 54.032 1540.31 54.496C1540.97 54.96 1541.78 55.192 1542.76 55.192C1543.43 55.192 1544.02 55.096 1544.54 54.904C1545.06 54.696 1545.55 54.376 1546 53.944L1547.99 56.104C1546.78 57.496 1545 58.192 1542.66 58.192C1541.21 58.192 1539.92 57.912 1538.8 57.352C1537.68 56.776 1536.82 55.984 1536.21 54.976C1535.6 53.968 1535.3 52.824 1535.3 51.544C1535.3 50.28 1535.59 49.144 1536.18 48.136C1536.79 47.112 1537.62 46.32 1538.66 45.76C1539.71 45.184 1540.89 44.896 1542.18 44.896C1543.45 44.896 1544.59 45.168 1545.62 45.712C1546.64 46.256 1547.44 47.04 1548.02 48.064C1548.61 49.072 1548.9 50.248 1548.9 51.592ZM1542.21 47.728C1541.36 47.728 1540.65 47.968 1540.07 48.448C1539.5 48.928 1539.14 49.584 1539.02 50.416H1545.38C1545.25 49.6 1544.9 48.952 1544.32 48.472C1543.74 47.976 1543.04 47.728 1542.21 47.728ZM1559.72 57.376C1559.36 57.648 1558.9 57.856 1558.36 58C1557.83 58.128 1557.27 58.192 1556.68 58.192C1555.14 58.192 1553.95 57.8 1553.1 57.016C1552.27 56.232 1551.85 55.08 1551.85 53.56V48.256H1549.86V45.376H1551.85V42.232H1555.6V45.376H1558.81V48.256H1555.6V53.512C1555.6 54.056 1555.73 54.48 1556 54.784C1556.29 55.072 1556.69 55.216 1557.2 55.216C1557.8 55.216 1558.3 55.056 1558.72 54.736L1559.72 57.376ZM1565.4 46.792C1565.85 46.168 1566.45 45.696 1567.2 45.376C1567.97 45.056 1568.85 44.896 1569.84 44.896V48.352C1569.43 48.32 1569.15 48.304 1569 48.304C1567.93 48.304 1567.09 48.608 1566.48 49.216C1565.87 49.808 1565.57 50.704 1565.57 51.904V58H1561.83V45.088H1565.4V46.792ZM1578.09 58.192C1576.73 58.192 1575.51 57.912 1574.42 57.352C1573.35 56.776 1572.51 55.984 1571.9 54.976C1571.29 53.968 1570.99 52.824 1570.99 51.544C1570.99 50.264 1571.29 49.12 1571.9 48.112C1572.51 47.104 1573.35 46.32 1574.42 45.76C1575.51 45.184 1576.73 44.896 1578.09 44.896C1579.45 44.896 1580.67 45.184 1581.74 45.76C1582.81 46.32 1583.65 47.104 1584.26 48.112C1584.87 49.12 1585.17 50.264 1585.17 51.544C1585.17 52.824 1584.87 53.968 1584.26 54.976C1583.65 55.984 1582.81 56.776 1581.74 57.352C1580.67 57.912 1579.45 58.192 1578.09 58.192ZM1578.09 55.12C1579.05 55.12 1579.84 54.8 1580.45 54.16C1581.07 53.504 1581.38 52.632 1581.38 51.544C1581.38 50.456 1581.07 49.592 1580.45 48.952C1579.84 48.296 1579.05 47.968 1578.09 47.968C1577.13 47.968 1576.34 48.296 1575.72 48.952C1575.09 49.592 1574.78 50.456 1574.78 51.544C1574.78 52.632 1575.09 53.504 1575.72 54.16C1576.34 54.8 1577.13 55.12 1578.09 55.12ZM1593.22 52.936L1591.42 54.712V58H1587.68V40.192H1591.42V50.272L1596.89 45.088H1601.36L1595.98 50.56L1601.84 58H1597.3L1593.22 52.936ZM1615.61 51.592C1615.61 51.64 1615.58 51.976 1615.53 52.6H1605.77C1605.94 53.4 1606.36 54.032 1607.01 54.496C1607.67 54.96 1608.49 55.192 1609.46 55.192C1610.13 55.192 1610.73 55.096 1611.24 54.904C1611.77 54.696 1612.25 54.376 1612.7 53.944L1614.69 56.104C1613.48 57.496 1611.7 58.192 1609.37 58.192C1607.91 58.192 1606.62 57.912 1605.5 57.352C1604.38 56.776 1603.52 55.984 1602.91 54.976C1602.3 53.968 1602 52.824 1602 51.544C1602 50.28 1602.29 49.144 1602.89 48.136C1603.49 47.112 1604.32 46.32 1605.36 45.76C1606.41 45.184 1607.59 44.896 1608.89 44.896C1610.15 44.896 1611.29 45.168 1612.32 45.712C1613.34 46.256 1614.14 47.04 1614.72 48.064C1615.31 49.072 1615.61 50.248 1615.61 51.592ZM1608.91 47.728C1608.06 47.728 1607.35 47.968 1606.77 48.448C1606.2 48.928 1605.85 49.584 1605.72 50.416H1612.08C1611.95 49.6 1611.6 48.952 1611.02 48.472C1610.45 47.976 1609.74 47.728 1608.91 47.728ZM1625.95 44.896C1627.55 44.896 1628.84 45.376 1629.81 46.336C1630.8 47.296 1631.3 48.72 1631.3 50.608V58H1627.56V51.184C1627.56 50.16 1627.33 49.4 1626.88 48.904C1626.44 48.392 1625.79 48.136 1624.94 48.136C1624 48.136 1623.24 48.432 1622.68 49.024C1622.12 49.6 1621.84 50.464 1621.84 51.616V58H1618.1V45.088H1621.68V46.6C1622.17 46.056 1622.79 45.64 1623.52 45.352C1624.26 45.048 1625.07 44.896 1625.95 44.896ZM1643.02 57.376C1642.65 57.648 1642.2 57.856 1641.65 58C1641.12 58.128 1640.56 58.192 1639.97 58.192C1638.44 58.192 1637.24 57.8 1636.4 57.016C1635.56 56.232 1635.15 55.08 1635.15 53.56V48.256H1633.16V45.376H1635.15V42.232H1638.89V45.376H1642.11V48.256H1638.89V53.512C1638.89 54.056 1639.03 54.48 1639.3 54.784C1639.59 55.072 1639.99 55.216 1640.5 55.216C1641.09 55.216 1641.6 55.056 1642.01 54.736L1643.02 57.376Z" fill="black"/>
<path d="M1708.62 58.288C1706.88 58.288 1705.3 57.912 1703.9 57.16C1702.5 56.408 1701.41 55.376 1700.61 54.064C1699.82 52.736 1699.43 51.248 1699.43 49.6C1699.43 47.952 1699.82 46.472 1700.61 45.16C1701.41 43.832 1702.5 42.792 1703.9 42.04C1705.3 41.288 1706.88 40.912 1708.62 40.912C1710.37 40.912 1711.94 41.288 1713.33 42.04C1714.72 42.792 1715.82 43.832 1716.62 45.16C1717.42 46.472 1717.82 47.952 1717.82 49.6C1717.82 51.248 1717.42 52.736 1716.62 54.064C1715.82 55.376 1714.72 56.408 1713.33 57.16C1711.94 57.912 1710.37 58.288 1708.62 58.288ZM1708.62 54.976C1709.62 54.976 1710.51 54.752 1711.31 54.304C1712.11 53.84 1712.74 53.2 1713.18 52.384C1713.65 51.568 1713.88 50.64 1713.88 49.6C1713.88 48.56 1713.65 47.632 1713.18 46.816C1712.74 46 1712.11 45.368 1711.31 44.92C1710.51 44.456 1709.62 44.224 1708.62 44.224C1707.63 44.224 1706.74 44.456 1705.94 44.92C1705.14 45.368 1704.5 46 1704.04 46.816C1703.59 47.632 1703.37 48.56 1703.37 49.6C1703.37 50.64 1703.59 51.568 1704.04 52.384C1704.5 53.2 1705.14 53.84 1705.94 54.304C1706.74 54.752 1707.63 54.976 1708.62 54.976ZM1728.32 44.896C1729.92 44.896 1731.21 45.376 1732.19 46.336C1733.18 47.296 1733.67 48.72 1733.67 50.608V58H1729.93V51.184C1729.93 50.16 1729.71 49.4 1729.26 48.904C1728.81 48.392 1728.16 48.136 1727.31 48.136C1726.37 48.136 1725.62 48.432 1725.06 49.024C1724.5 49.6 1724.22 50.464 1724.22 51.616V58H1720.47V45.088H1724.05V46.6C1724.55 46.056 1725.16 45.64 1725.9 45.352C1726.63 45.048 1727.44 44.896 1728.32 44.896ZM1750.08 45.088V58H1746.52V56.464C1746.03 57.024 1745.44 57.456 1744.75 57.76C1744.06 58.048 1743.32 58.192 1742.52 58.192C1740.82 58.192 1739.48 57.704 1738.48 56.728C1737.49 55.752 1737 54.304 1737 52.384V45.088H1740.74V51.832C1740.74 53.912 1741.61 54.952 1743.36 54.952C1744.25 54.952 1744.97 54.664 1745.52 54.088C1746.06 53.496 1746.33 52.624 1746.33 51.472V45.088H1750.08ZM1757.12 46.792C1757.57 46.168 1758.17 45.696 1758.92 45.376C1759.69 45.056 1760.57 44.896 1761.56 44.896V48.352C1761.14 48.32 1760.86 48.304 1760.72 48.304C1759.65 48.304 1758.81 48.608 1758.2 49.216C1757.59 49.808 1757.29 50.704 1757.29 51.904V58H1753.54V45.088H1757.12V46.792ZM1769.33 52.936L1767.53 54.712V58H1763.79V40.192H1767.53V50.272L1773 45.088H1777.47L1772.09 50.56L1777.95 58H1773.41L1769.33 52.936ZM1791.72 51.592C1791.72 51.64 1791.69 51.976 1791.64 52.6H1781.88C1782.05 53.4 1782.47 54.032 1783.12 54.496C1783.78 54.96 1784.6 55.192 1785.57 55.192C1786.24 55.192 1786.84 55.096 1787.35 54.904C1787.88 54.696 1788.36 54.376 1788.81 53.944L1790.8 56.104C1789.59 57.496 1787.81 58.192 1785.48 58.192C1784.02 58.192 1782.73 57.912 1781.61 57.352C1780.49 56.776 1779.63 55.984 1779.02 54.976C1778.41 53.968 1778.11 52.824 1778.11 51.544C1778.11 50.28 1778.4 49.144 1779 48.136C1779.6 47.112 1780.43 46.32 1781.47 45.76C1782.52 45.184 1783.7 44.896 1785 44.896C1786.26 44.896 1787.4 45.168 1788.43 45.712C1789.45 46.256 1790.25 47.04 1790.83 48.064C1791.42 49.072 1791.72 50.248 1791.72 51.592ZM1785.02 47.728C1784.17 47.728 1783.46 47.968 1782.88 48.448C1782.31 48.928 1781.96 49.584 1781.83 50.416H1788.19C1788.06 49.6 1787.71 48.952 1787.13 48.472C1786.56 47.976 1785.85 47.728 1785.02 47.728ZM1802.06 44.896C1803.66 44.896 1804.94 45.376 1805.92 46.336C1806.91 47.296 1807.41 48.72 1807.41 50.608V58H1803.66V51.184C1803.66 50.16 1803.44 49.4 1802.99 48.904C1802.54 48.392 1801.9 48.136 1801.05 48.136C1800.1 48.136 1799.35 48.432 1798.79 49.024C1798.23 49.6 1797.95 50.464 1797.95 51.616V58H1794.21V45.088H1797.78V46.6C1798.28 46.056 1798.9 45.64 1799.63 45.352C1800.37 45.048 1801.18 44.896 1802.06 44.896ZM1819.13 57.376C1818.76 57.648 1818.31 57.856 1817.76 58C1817.23 58.128 1816.67 58.192 1816.08 58.192C1814.55 58.192 1813.35 57.8 1812.51 57.016C1811.67 56.232 1811.26 55.08 1811.26 53.56V48.256H1809.27V45.376H1811.26V42.232H1815V45.376H1818.22V48.256H1815V53.512C1815 54.056 1815.14 54.48 1815.41 54.784C1815.7 55.072 1816.1 55.216 1816.61 55.216C1817.2 55.216 1817.71 55.056 1818.12 54.736L1819.13 57.376Z" fill="black"/>
<path d="M1919.72 29.288C1918.39 29.288 1917.1 29.112 1915.85 28.76C1914.62 28.392 1913.63 27.92 1912.88 27.344L1914.2 24.416C1914.92 24.944 1915.77 25.368 1916.76 25.688C1917.76 26.008 1918.75 26.168 1919.74 26.168C1920.84 26.168 1921.66 26.008 1922.19 25.688C1922.72 25.352 1922.98 24.912 1922.98 24.368C1922.98 23.968 1922.82 23.64 1922.5 23.384C1922.2 23.112 1921.8 22.896 1921.3 22.736C1920.82 22.576 1920.16 22.4 1919.33 22.208C1918.05 21.904 1917 21.6 1916.19 21.296C1915.37 20.992 1914.67 20.504 1914.08 19.832C1913.5 19.16 1913.21 18.264 1913.21 17.144C1913.21 16.168 1913.48 15.288 1914 14.504C1914.53 13.704 1915.32 13.072 1916.38 12.608C1917.45 12.144 1918.76 11.912 1920.29 11.912C1921.36 11.912 1922.41 12.04 1923.44 12.296C1924.46 12.552 1925.36 12.92 1926.12 13.4L1924.92 16.352C1923.37 15.472 1921.82 15.032 1920.27 15.032C1919.18 15.032 1918.37 15.208 1917.84 15.56C1917.33 15.912 1917.08 16.376 1917.08 16.952C1917.08 17.528 1917.37 17.96 1917.96 18.248C1918.57 18.52 1919.49 18.792 1920.72 19.064C1922 19.368 1923.05 19.672 1923.87 19.976C1924.68 20.28 1925.38 20.76 1925.96 21.416C1926.55 22.072 1926.84 22.96 1926.84 24.08C1926.84 25.04 1926.57 25.92 1926.03 26.72C1925.5 27.504 1924.7 28.128 1923.63 28.592C1922.56 29.056 1921.25 29.288 1919.72 29.288ZM1919.21 34.568C1918.8 34.568 1918.39 34.52 1917.99 34.424C1917.59 34.344 1917.25 34.224 1916.98 34.064L1917.56 32.456C1918.07 32.696 1918.59 32.816 1919.12 32.816C1919.95 32.816 1920.36 32.56 1920.36 32.048C1920.36 31.584 1919.97 31.352 1919.19 31.352H1918.37L1919 28.808H1920.99L1920.65 30.2C1921.36 30.28 1921.88 30.496 1922.21 30.848C1922.56 31.216 1922.74 31.664 1922.74 32.192C1922.74 32.928 1922.42 33.504 1921.78 33.92C1921.14 34.352 1920.28 34.568 1919.21 34.568ZM1941.88 22.592C1941.88 22.64 1941.86 22.976 1941.81 23.6H1932.04C1932.22 24.4 1932.64 25.032 1933.29 25.496C1933.95 25.96 1934.76 26.192 1935.74 26.192C1936.41 26.192 1937 26.096 1937.52 25.904C1938.04 25.696 1938.53 25.376 1938.98 24.944L1940.97 27.104C1939.76 28.496 1937.98 29.192 1935.64 29.192C1934.19 29.192 1932.9 28.912 1931.78 28.352C1930.66 27.776 1929.8 26.984 1929.19 25.976C1928.58 24.968 1928.28 23.824 1928.28 22.544C1928.28 21.28 1928.57 20.144 1929.16 19.136C1929.77 18.112 1930.6 17.32 1931.64 16.76C1932.69 16.184 1933.87 15.896 1935.16 15.896C1936.43 15.896 1937.57 16.168 1938.6 16.712C1939.62 17.256 1940.42 18.04 1941 19.064C1941.59 20.072 1941.88 21.248 1941.88 22.592ZM1935.19 18.728C1934.34 18.728 1933.63 18.968 1933.05 19.448C1932.48 19.928 1932.12 20.584 1932 21.416H1938.36C1938.23 20.6 1937.88 19.952 1937.3 19.472C1936.72 18.976 1936.02 18.728 1935.19 18.728ZM1952.22 15.896C1953.82 15.896 1955.11 16.376 1956.09 17.336C1957.08 18.296 1957.58 19.72 1957.58 21.608V29H1953.83V22.184C1953.83 21.16 1953.61 20.4 1953.16 19.904C1952.71 19.392 1952.06 19.136 1951.22 19.136C1950.27 19.136 1949.52 19.432 1948.96 20.024C1948.4 20.6 1948.12 21.464 1948.12 22.616V29H1944.38V11.192H1948.12V17.432C1948.62 16.936 1949.22 16.56 1949.92 16.304C1950.62 16.032 1951.39 15.896 1952.22 15.896ZM1960.97 16.088H1964.71V29H1960.97V16.088ZM1962.84 14.288C1962.15 14.288 1961.59 14.088 1961.16 13.688C1960.73 13.288 1960.51 12.792 1960.51 12.2C1960.51 11.608 1960.73 11.112 1961.16 10.712C1961.59 10.312 1962.15 10.112 1962.84 10.112C1963.53 10.112 1964.09 10.304 1964.52 10.688C1964.95 11.072 1965.17 11.552 1965.17 12.128C1965.17 12.752 1964.95 13.272 1964.52 13.688C1964.09 14.088 1963.53 14.288 1962.84 14.288ZM1971.76 17.792C1972.21 17.168 1972.81 16.696 1973.56 16.376C1974.33 16.056 1975.21 15.896 1976.2 15.896V19.352C1975.79 19.32 1975.51 19.304 1975.36 19.304C1974.29 19.304 1973.45 19.608 1972.84 20.216C1972.24 20.808 1971.93 21.704 1971.93 22.904V29H1968.19V16.088H1971.76V17.792ZM1899.88 41.2V58H1896V51.112H1888.36V58H1884.48V41.2H1888.36V47.824H1896V41.2H1899.88ZM1908.8 44.896C1910.8 44.896 1912.34 45.376 1913.41 46.336C1914.48 47.28 1915.02 48.712 1915.02 50.632V58H1911.52V56.392C1910.81 57.592 1909.5 58.192 1907.58 58.192C1906.59 58.192 1905.72 58.024 1904.99 57.688C1904.27 57.352 1903.72 56.888 1903.33 56.296C1902.95 55.704 1902.76 55.032 1902.76 54.28C1902.76 53.08 1903.2 52.136 1904.1 51.448C1905.01 50.76 1906.41 50.416 1908.3 50.416H1911.28C1911.28 49.6 1911.03 48.976 1910.53 48.544C1910.04 48.096 1909.29 47.872 1908.3 47.872C1907.61 47.872 1906.93 47.984 1906.26 48.208C1905.6 48.416 1905.04 48.704 1904.58 49.072L1903.24 46.456C1903.94 45.96 1904.78 45.576 1905.76 45.304C1906.75 45.032 1907.76 44.896 1908.8 44.896ZM1908.52 55.672C1909.16 55.672 1909.72 55.528 1910.22 55.24C1910.72 54.936 1911.07 54.496 1911.28 53.92V52.6H1908.71C1907.17 52.6 1906.4 53.104 1906.4 54.112C1906.4 54.592 1906.59 54.976 1906.96 55.264C1907.34 55.536 1907.86 55.672 1908.52 55.672ZM1922.75 58.192C1921.68 58.192 1920.63 58.064 1919.61 57.808C1918.58 57.536 1917.77 57.2 1917.16 56.8L1918.41 54.112C1918.98 54.48 1919.68 54.784 1920.5 55.024C1921.31 55.248 1922.11 55.36 1922.9 55.36C1924.48 55.36 1925.27 54.968 1925.27 54.184C1925.27 53.816 1925.06 53.552 1924.62 53.392C1924.19 53.232 1923.53 53.096 1922.63 52.984C1921.58 52.824 1920.7 52.64 1920.02 52.432C1919.33 52.224 1918.73 51.856 1918.22 51.328C1917.72 50.8 1917.47 50.048 1917.47 49.072C1917.47 48.256 1917.7 47.536 1918.17 46.912C1918.65 46.272 1919.34 45.776 1920.23 45.424C1921.14 45.072 1922.22 44.896 1923.45 44.896C1924.36 44.896 1925.26 45 1926.16 45.208C1927.07 45.4 1927.82 45.672 1928.42 46.024L1927.17 48.688C1926.03 48.048 1924.79 47.728 1923.45 47.728C1922.65 47.728 1922.05 47.84 1921.65 48.064C1921.25 48.288 1921.05 48.576 1921.05 48.928C1921.05 49.328 1921.26 49.608 1921.7 49.768C1922.13 49.928 1922.82 50.08 1923.76 50.224C1924.82 50.4 1925.68 50.592 1926.35 50.8C1927.02 50.992 1927.61 51.352 1928.1 51.88C1928.6 52.408 1928.85 53.144 1928.85 54.088C1928.85 54.888 1928.61 55.6 1928.13 56.224C1927.65 56.848 1926.94 57.336 1926.02 57.688C1925.1 58.024 1924.02 58.192 1922.75 58.192ZM1939.49 57.376C1939.12 57.648 1938.66 57.856 1938.12 58C1937.59 58.128 1937.03 58.192 1936.44 58.192C1934.9 58.192 1933.71 57.8 1932.86 57.016C1932.03 56.232 1931.61 55.08 1931.61 53.56V48.256H1929.62V45.376H1931.61V42.232H1935.36V45.376H1938.57V48.256H1935.36V53.512C1935.36 54.056 1935.49 54.48 1935.77 54.784C1936.05 55.072 1936.45 55.216 1936.97 55.216C1937.56 55.216 1938.06 55.056 1938.48 54.736L1939.49 57.376ZM1946.8 44.896C1948.8 44.896 1950.33 45.376 1951.4 46.336C1952.48 47.28 1953.01 48.712 1953.01 50.632V58H1949.51V56.392C1948.8 57.592 1947.49 58.192 1945.57 58.192C1944.58 58.192 1943.72 58.024 1942.98 57.688C1942.26 57.352 1941.71 56.888 1941.32 56.296C1940.94 55.704 1940.75 55.032 1940.75 54.28C1940.75 53.08 1941.2 52.136 1942.09 51.448C1943 50.76 1944.4 50.416 1946.29 50.416H1949.27C1949.27 49.6 1949.02 48.976 1948.52 48.544C1948.03 48.096 1947.28 47.872 1946.29 47.872C1945.6 47.872 1944.92 47.984 1944.25 48.208C1943.6 48.416 1943.04 48.704 1942.57 49.072L1941.23 46.456C1941.93 45.96 1942.77 45.576 1943.75 45.304C1944.74 45.032 1945.76 44.896 1946.8 44.896ZM1946.51 55.672C1947.15 55.672 1947.72 55.528 1948.21 55.24C1948.71 54.936 1949.06 54.496 1949.27 53.92V52.6H1946.7C1945.16 52.6 1944.4 53.104 1944.4 54.112C1944.4 54.592 1944.58 54.976 1944.95 55.264C1945.33 55.536 1945.85 55.672 1946.51 55.672ZM1964.25 44.896C1965.85 44.896 1967.14 45.376 1968.11 46.336C1969.1 47.296 1969.6 48.72 1969.6 50.608V58H1965.86V51.184C1965.86 50.16 1965.63 49.4 1965.18 48.904C1964.74 48.392 1964.09 48.136 1963.24 48.136C1962.3 48.136 1961.54 48.432 1960.98 49.024C1960.42 49.6 1960.14 50.464 1960.14 51.616V58H1956.4V45.088H1959.98V46.6C1960.47 46.056 1961.09 45.64 1961.82 45.352C1962.56 45.048 1963.37 44.896 1964.25 44.896ZM1985.78 51.592C1985.78 51.64 1985.76 51.976 1985.71 52.6H1975.94C1976.12 53.4 1976.53 54.032 1977.19 54.496C1977.85 54.96 1978.66 55.192 1979.64 55.192C1980.31 55.192 1980.9 55.096 1981.41 54.904C1981.94 54.696 1982.43 54.376 1982.88 53.944L1984.87 56.104C1983.65 57.496 1981.88 58.192 1979.54 58.192C1978.09 58.192 1976.8 57.912 1975.68 57.352C1974.56 56.776 1973.69 55.984 1973.09 54.976C1972.48 53.968 1972.17 52.824 1972.17 51.544C1972.17 50.28 1972.47 49.144 1973.06 48.136C1973.67 47.112 1974.49 46.32 1975.53 45.76C1976.59 45.184 1977.77 44.896 1979.06 44.896C1980.33 44.896 1981.47 45.168 1982.49 45.712C1983.52 46.256 1984.32 47.04 1984.89 48.064C1985.49 49.072 1985.78 50.248 1985.78 51.592ZM1979.09 47.728C1978.24 47.728 1977.53 47.968 1976.95 48.448C1976.37 48.928 1976.02 49.584 1975.89 50.416H1982.25C1982.13 49.6 1981.77 48.952 1981.2 48.472C1980.62 47.976 1979.92 47.728 1979.09 47.728ZM1992.62 58.192C1991.55 58.192 1990.5 58.064 1989.47 57.808C1988.45 57.536 1987.63 57.2 1987.03 56.8L1988.27 54.112C1988.85 54.48 1989.55 54.784 1990.36 55.024C1991.18 55.248 1991.98 55.36 1992.76 55.36C1994.35 55.36 1995.14 54.968 1995.14 54.184C1995.14 53.816 1994.92 53.552 1994.49 53.392C1994.06 53.232 1993.39 53.096 1992.5 52.984C1991.44 52.824 1990.57 52.64 1989.88 52.432C1989.19 52.224 1988.59 51.856 1988.08 51.328C1987.59 50.8 1987.34 50.048 1987.34 49.072C1987.34 48.256 1987.57 47.536 1988.03 46.912C1988.51 46.272 1989.2 45.776 1990.1 45.424C1991.01 45.072 1992.08 44.896 1993.31 44.896C1994.23 44.896 1995.13 45 1996.03 45.208C1996.94 45.4 1997.69 45.672 1998.28 46.024L1997.03 48.688C1995.9 48.048 1994.66 47.728 1993.31 47.728C1992.51 47.728 1991.91 47.84 1991.51 48.064C1991.11 48.288 1990.91 48.576 1990.91 48.928C1990.91 49.328 1991.13 49.608 1991.56 49.768C1991.99 49.928 1992.68 50.08 1993.63 50.224C1994.68 50.4 1995.55 50.592 1996.22 50.8C1996.89 50.992 1997.47 51.352 1997.97 51.88C1998.47 52.408 1998.71 53.144 1998.71 54.088C1998.71 54.888 1998.47 55.6 1997.99 56.224C1997.51 56.848 1996.81 57.336 1995.88 57.688C1994.97 58.024 1993.88 58.192 1992.62 58.192ZM2001.02 45.088H2004.77V58H2001.02V45.088ZM2002.9 43.288C2002.21 43.288 2001.65 43.088 2001.22 42.688C2000.78 42.288 2000.57 41.792 2000.57 41.2C2000.57 40.608 2000.78 40.112 2001.22 39.712C2001.65 39.312 2002.21 39.112 2002.9 39.112C2003.58 39.112 2004.14 39.304 2004.58 39.688C2005.01 40.072 2005.22 40.552 2005.22 41.128C2005.22 41.752 2005.01 42.272 2004.58 42.688C2004.14 43.088 2003.58 43.288 2002.9 43.288Z" fill="black"/>
<path d="M2103.21 15.368H2097.84V12.2H2112.48V15.368H2107.1V29H2103.21V15.368ZM2119.14 29.192C2117.78 29.192 2116.55 28.912 2115.47 28.352C2114.39 27.776 2113.55 26.984 2112.95 25.976C2112.34 24.968 2112.03 23.824 2112.03 22.544C2112.03 21.264 2112.34 20.12 2112.95 19.112C2113.55 18.104 2114.39 17.32 2115.47 16.76C2116.55 16.184 2117.78 15.896 2119.14 15.896C2120.5 15.896 2121.71 16.184 2122.79 16.76C2123.86 17.32 2124.7 18.104 2125.31 19.112C2125.91 20.12 2126.22 21.264 2126.22 22.544C2126.22 23.824 2125.91 24.968 2125.31 25.976C2124.7 26.984 2123.86 27.776 2122.79 28.352C2121.71 28.912 2120.5 29.192 2119.14 29.192ZM2119.14 26.12C2120.1 26.12 2120.88 25.8 2121.49 25.16C2122.11 24.504 2122.43 23.632 2122.43 22.544C2122.43 21.456 2122.11 20.592 2121.49 19.952C2120.88 19.296 2120.1 18.968 2119.14 18.968C2118.18 18.968 2117.39 19.296 2116.76 19.952C2116.14 20.592 2115.83 21.456 2115.83 22.544C2115.83 23.632 2116.14 24.504 2116.76 25.16C2117.39 25.8 2118.18 26.12 2119.14 26.12ZM2136.35 15.896C2137.55 15.896 2138.64 16.176 2139.62 16.736C2140.61 17.28 2141.38 18.056 2141.94 19.064C2142.5 20.056 2142.78 21.216 2142.78 22.544C2142.78 23.872 2142.5 25.04 2141.94 26.048C2141.38 27.04 2140.61 27.816 2139.62 28.376C2138.64 28.92 2137.55 29.192 2136.35 29.192C2134.7 29.192 2133.41 28.672 2132.46 27.632V33.656H2128.72V16.088H2132.3V17.576C2133.22 16.456 2134.58 15.896 2136.35 15.896ZM2135.7 26.12C2136.66 26.12 2137.45 25.8 2138.06 25.16C2138.68 24.504 2138.99 23.632 2138.99 22.544C2138.99 21.456 2138.68 20.592 2138.06 19.952C2137.45 19.296 2136.66 18.968 2135.7 18.968C2134.74 18.968 2133.95 19.296 2133.33 19.952C2132.72 20.592 2132.42 21.456 2132.42 22.544C2132.42 23.632 2132.72 24.504 2133.33 25.16C2133.95 25.8 2134.74 26.12 2135.7 26.12ZM2145.29 11.192H2149.03V29H2145.29V11.192ZM2165.52 16.088V29H2161.97V27.464C2161.47 28.024 2160.88 28.456 2160.19 28.76C2159.5 29.048 2158.76 29.192 2157.96 29.192C2156.26 29.192 2154.92 28.704 2153.93 27.728C2152.93 26.752 2152.44 25.304 2152.44 23.384V16.088H2156.18V22.832C2156.18 24.912 2157.05 25.952 2158.8 25.952C2159.69 25.952 2160.41 25.664 2160.96 25.088C2161.5 24.496 2161.77 23.624 2161.77 22.472V16.088H2165.52ZM2086.2 51.4L2083.95 53.752V58H2080.08V41.2H2083.95V49.048L2091.39 41.2H2095.71L2088.75 48.688L2096.11 58H2091.58L2086.2 51.4ZM2103.19 58.192C2101.83 58.192 2100.6 57.912 2099.52 57.352C2098.44 56.776 2097.6 55.984 2097 54.976C2096.39 53.968 2096.08 52.824 2096.08 51.544C2096.08 50.264 2096.39 49.12 2097 48.112C2097.6 47.104 2098.44 46.32 2099.52 45.76C2100.6 45.184 2101.83 44.896 2103.19 44.896C2104.55 44.896 2105.76 45.184 2106.84 45.76C2107.91 46.32 2108.75 47.104 2109.36 48.112C2109.96 49.12 2110.27 50.264 2110.27 51.544C2110.27 52.824 2109.96 53.968 2109.36 54.976C2108.75 55.984 2107.91 56.776 2106.84 57.352C2105.76 57.912 2104.55 58.192 2103.19 58.192ZM2103.19 55.12C2104.15 55.12 2104.93 54.8 2105.54 54.16C2106.16 53.504 2106.48 52.632 2106.48 51.544C2106.48 50.456 2106.16 49.592 2105.54 48.952C2104.93 48.296 2104.15 47.968 2103.19 47.968C2102.23 47.968 2101.44 48.296 2100.81 48.952C2100.19 49.592 2099.88 50.456 2099.88 51.544C2099.88 52.632 2100.19 53.504 2100.81 54.16C2101.44 54.8 2102.23 55.12 2103.19 55.12ZM2120.62 44.896C2122.22 44.896 2123.51 45.376 2124.48 46.336C2125.47 47.296 2125.97 48.72 2125.97 50.608V58H2122.23V51.184C2122.23 50.16 2122 49.4 2121.55 48.904C2121.11 48.392 2120.46 48.136 2119.61 48.136C2118.67 48.136 2117.91 48.432 2117.35 49.024C2116.79 49.6 2116.51 50.464 2116.51 51.616V58H2112.77V45.088H2116.35V46.6C2116.84 46.056 2117.46 45.64 2118.19 45.352C2118.93 45.048 2119.74 44.896 2120.62 44.896ZM2142.37 45.088V58H2138.82V56.464C2138.32 57.024 2137.73 57.456 2137.04 57.76C2136.36 58.048 2135.61 58.192 2134.81 58.192C2133.12 58.192 2131.77 57.704 2130.78 56.728C2129.79 55.752 2129.29 54.304 2129.29 52.384V45.088H2133.04V51.832C2133.04 53.912 2133.91 54.952 2135.65 54.952C2136.55 54.952 2137.27 54.664 2137.81 54.088C2138.36 53.496 2138.63 52.624 2138.63 51.472V45.088H2142.37ZM2154.17 57.376C2153.8 57.648 2153.35 57.856 2152.8 58C2152.27 58.128 2151.71 58.192 2151.12 58.192C2149.59 58.192 2148.39 57.8 2147.55 57.016C2146.71 56.232 2146.3 55.08 2146.3 53.56V48.256H2144.31V45.376H2146.3V42.232H2150.04V45.376H2153.26V48.256H2150.04V53.512C2150.04 54.056 2150.18 54.48 2150.45 54.784C2150.74 55.072 2151.14 55.216 2151.65 55.216C2152.24 55.216 2152.75 55.056 2153.16 54.736L2154.17 57.376ZM2156.27 40.192H2160.01V58H2156.27V40.192ZM2168.7 44.896C2170.7 44.896 2172.23 45.376 2173.31 46.336C2174.38 47.28 2174.91 48.712 2174.91 50.632V58H2171.41V56.392C2170.71 57.592 2169.39 58.192 2167.47 58.192C2166.48 58.192 2165.62 58.024 2164.88 57.688C2164.16 57.352 2163.61 56.888 2163.23 56.296C2162.84 55.704 2162.65 55.032 2162.65 54.28C2162.65 53.08 2163.1 52.136 2163.99 51.448C2164.91 50.76 2166.31 50.416 2168.19 50.416H2171.17C2171.17 49.6 2170.92 48.976 2170.43 48.544C2169.93 48.096 2169.19 47.872 2168.19 47.872C2167.51 47.872 2166.83 47.984 2166.15 48.208C2165.5 48.416 2164.94 48.704 2164.47 49.072L2163.13 46.456C2163.83 45.96 2164.67 45.576 2165.65 45.304C2166.64 45.032 2167.66 44.896 2168.7 44.896ZM2168.41 55.672C2169.05 55.672 2169.62 55.528 2170.11 55.24C2170.61 54.936 2170.96 54.496 2171.17 53.92V52.6H2168.6C2167.07 52.6 2166.3 53.104 2166.3 54.112C2166.3 54.592 2166.48 54.976 2166.85 55.264C2167.23 55.536 2167.75 55.672 2168.41 55.672ZM2181.88 46.792C2182.33 46.168 2182.93 45.696 2183.68 45.376C2184.45 45.056 2185.33 44.896 2186.32 44.896V48.352C2185.9 48.32 2185.62 48.304 2185.48 48.304C2184.41 48.304 2183.57 48.608 2182.96 49.216C2182.35 49.808 2182.05 50.704 2182.05 51.904V58H2178.3V45.088H2181.88V46.792Z" fill="black"/>
<path d="M2267.19 22.4L2264.94 24.752V29H2261.07V12.2H2264.94V20.048L2272.38 12.2H2276.7L2269.74 19.688L2277.11 29H2272.57L2267.19 22.4ZM2283.5 15.896C2285.5 15.896 2287.04 16.376 2288.11 17.336C2289.18 18.28 2289.72 19.712 2289.72 21.632V29H2286.21V27.392C2285.51 28.592 2284.2 29.192 2282.28 29.192C2281.29 29.192 2280.42 29.024 2279.69 28.688C2278.97 28.352 2278.41 27.888 2278.03 27.296C2277.65 26.704 2277.45 26.032 2277.45 25.28C2277.45 24.08 2277.9 23.136 2278.8 22.448C2279.71 21.76 2281.11 21.416 2283 21.416H2285.97C2285.97 20.6 2285.73 19.976 2285.23 19.544C2284.73 19.096 2283.99 18.872 2283 18.872C2282.31 18.872 2281.63 18.984 2280.96 19.208C2280.3 19.416 2279.74 19.704 2279.28 20.072L2277.93 17.456C2278.64 16.96 2279.48 16.576 2280.45 16.304C2281.45 16.032 2282.46 15.896 2283.5 15.896ZM2283.21 26.672C2283.85 26.672 2284.42 26.528 2284.92 26.24C2285.41 25.936 2285.77 25.496 2285.97 24.92V23.6H2283.41C2281.87 23.6 2281.1 24.104 2281.1 25.112C2281.1 25.592 2281.29 25.976 2281.65 26.264C2282.04 26.536 2282.56 26.672 2283.21 26.672ZM2305.69 16.088L2299.86 29.792C2299.26 31.28 2298.53 32.328 2297.65 32.936C2296.78 33.544 2295.74 33.848 2294.5 33.848C2293.83 33.848 2293.17 33.744 2292.51 33.536C2291.86 33.328 2291.32 33.04 2290.9 32.672L2292.27 30.008C2292.56 30.264 2292.89 30.464 2293.26 30.608C2293.64 30.752 2294.02 30.824 2294.38 30.824C2294.9 30.824 2295.31 30.696 2295.63 30.44C2295.95 30.2 2296.24 29.792 2296.5 29.216L2296.54 29.096L2290.95 16.088H2294.82L2298.44 24.848L2302.09 16.088H2305.69ZM2312 15.896C2314 15.896 2315.54 16.376 2316.61 17.336C2317.68 18.28 2318.22 19.712 2318.22 21.632V29H2314.71V27.392C2314.01 28.592 2312.7 29.192 2310.78 29.192C2309.79 29.192 2308.92 29.024 2308.19 28.688C2307.47 28.352 2306.91 27.888 2306.53 27.296C2306.15 26.704 2305.95 26.032 2305.95 25.28C2305.95 24.08 2306.4 23.136 2307.3 22.448C2308.21 21.76 2309.61 21.416 2311.5 21.416H2314.47C2314.47 20.6 2314.23 19.976 2313.73 19.544C2313.23 19.096 2312.49 18.872 2311.5 18.872C2310.81 18.872 2310.13 18.984 2309.46 19.208C2308.8 19.416 2308.24 19.704 2307.78 20.072L2306.43 17.456C2307.14 16.96 2307.98 16.576 2308.95 16.304C2309.95 16.032 2310.96 15.896 2312 15.896ZM2311.71 26.672C2312.35 26.672 2312.92 26.528 2313.42 26.24C2313.91 25.936 2314.27 25.496 2314.47 24.92V23.6H2311.91C2310.37 23.6 2309.6 24.104 2309.6 25.112C2309.6 25.592 2309.79 25.976 2310.15 26.264C2310.54 26.536 2311.06 26.672 2311.71 26.672ZM2325.95 29.192C2324.88 29.192 2323.83 29.064 2322.81 28.808C2321.78 28.536 2320.97 28.2 2320.36 27.8L2321.61 25.112C2322.18 25.48 2322.88 25.784 2323.69 26.024C2324.51 26.248 2325.31 26.36 2326.09 26.36C2327.68 26.36 2328.47 25.968 2328.47 25.184C2328.47 24.816 2328.25 24.552 2327.82 24.392C2327.39 24.232 2326.73 24.096 2325.83 23.984C2324.77 23.824 2323.9 23.64 2323.21 23.432C2322.53 23.224 2321.93 22.856 2321.41 22.328C2320.92 21.8 2320.67 21.048 2320.67 20.072C2320.67 19.256 2320.9 18.536 2321.37 17.912C2321.85 17.272 2322.53 16.776 2323.43 16.424C2324.34 16.072 2325.41 15.896 2326.65 15.896C2327.56 15.896 2328.46 16 2329.36 16.208C2330.27 16.4 2331.02 16.672 2331.61 17.024L2330.37 19.688C2329.23 19.048 2327.99 18.728 2326.65 18.728C2325.85 18.728 2325.25 18.84 2324.85 19.064C2324.45 19.288 2324.25 19.576 2324.25 19.928C2324.25 20.328 2324.46 20.608 2324.89 20.768C2325.33 20.928 2326.01 21.08 2326.96 21.224C2328.01 21.4 2328.88 21.592 2329.55 21.8C2330.22 21.992 2330.81 22.352 2331.3 22.88C2331.8 23.408 2332.05 24.144 2332.05 25.088C2332.05 25.888 2331.81 26.6 2331.33 27.224C2330.85 27.848 2330.14 28.336 2329.21 28.688C2328.3 29.024 2327.21 29.192 2325.95 29.192ZM2325.35 34.568C2324.93 34.568 2324.53 34.52 2324.13 34.424C2323.73 34.344 2323.39 34.224 2323.12 34.064L2323.69 32.456C2324.21 32.696 2324.73 32.816 2325.25 32.816C2326.09 32.816 2326.5 32.56 2326.5 32.048C2326.5 31.584 2326.11 31.352 2325.33 31.352H2324.51L2325.13 28.808H2327.13L2326.79 30.2C2327.49 30.28 2328.01 30.496 2328.35 30.848C2328.7 31.216 2328.88 31.664 2328.88 32.192C2328.88 32.928 2328.56 33.504 2327.92 33.92C2327.28 34.352 2326.42 34.568 2325.35 34.568ZM2347 22.592C2347 22.64 2346.98 22.976 2346.93 23.6H2337.16C2337.34 24.4 2337.76 25.032 2338.41 25.496C2339.07 25.96 2339.88 26.192 2340.86 26.192C2341.53 26.192 2342.12 26.096 2342.64 25.904C2343.16 25.696 2343.65 25.376 2344.1 24.944L2346.09 27.104C2344.88 28.496 2343.1 29.192 2340.76 29.192C2339.31 29.192 2338.02 28.912 2336.9 28.352C2335.78 27.776 2334.92 26.984 2334.31 25.976C2333.7 24.968 2333.4 23.824 2333.4 22.544C2333.4 21.28 2333.69 20.144 2334.28 19.136C2334.89 18.112 2335.72 17.32 2336.76 16.76C2337.81 16.184 2338.99 15.896 2340.28 15.896C2341.55 15.896 2342.69 16.168 2343.72 16.712C2344.74 17.256 2345.54 18.04 2346.12 19.064C2346.71 20.072 2347 21.248 2347 22.592ZM2340.31 18.728C2339.46 18.728 2338.75 18.968 2338.17 19.448C2337.6 19.928 2337.24 20.584 2337.12 21.416H2343.48C2343.35 20.6 2343 19.952 2342.42 19.472C2341.84 18.976 2341.14 18.728 2340.31 18.728ZM2357.35 15.896C2358.95 15.896 2360.23 16.376 2361.21 17.336C2362.2 18.296 2362.7 19.72 2362.7 21.608V29H2358.95V22.184C2358.95 21.16 2358.73 20.4 2358.28 19.904C2357.83 19.392 2357.19 19.136 2356.34 19.136C2355.39 19.136 2354.64 19.432 2354.08 20.024C2353.52 20.6 2353.24 21.464 2353.24 22.616V29H2349.5V11.192H2353.24V17.432C2353.74 16.936 2354.34 16.56 2355.04 16.304C2355.75 16.032 2356.51 15.896 2357.35 15.896ZM2366.09 16.088H2369.84V29H2366.09V16.088ZM2367.96 14.288C2367.28 14.288 2366.72 14.088 2366.28 13.688C2365.85 13.288 2365.64 12.792 2365.64 12.2C2365.64 11.608 2365.85 11.112 2366.28 10.712C2366.72 10.312 2367.28 10.112 2367.96 10.112C2368.65 10.112 2369.21 10.304 2369.64 10.688C2370.08 11.072 2370.29 11.552 2370.29 12.128C2370.29 12.752 2370.08 13.272 2369.64 13.688C2369.21 14.088 2368.65 14.288 2367.96 14.288ZM2376.89 17.792C2377.33 17.168 2377.93 16.696 2378.69 16.376C2379.45 16.056 2380.33 15.896 2381.33 15.896V19.352C2380.91 19.32 2380.63 19.304 2380.49 19.304C2379.41 19.304 2378.57 19.608 2377.97 20.216C2377.36 20.808 2377.05 21.704 2377.05 22.904V29H2373.31V16.088H2376.89V17.792ZM2291.96 58L2291.94 47.92L2286.99 56.224H2285.24L2280.32 48.136V58H2276.67V41.2H2279.89L2286.18 51.64L2292.37 41.2H2295.56L2295.61 58H2291.96ZM2311.98 51.592C2311.98 51.64 2311.95 51.976 2311.91 52.6H2302.14C2302.31 53.4 2302.73 54.032 2303.39 54.496C2304.04 54.96 2304.86 55.192 2305.83 55.192C2306.51 55.192 2307.1 55.096 2307.61 54.904C2308.14 54.696 2308.63 54.376 2309.07 53.944L2311.07 56.104C2309.85 57.496 2308.07 58.192 2305.74 58.192C2304.28 58.192 2302.99 57.912 2301.87 57.352C2300.75 56.776 2299.89 55.984 2299.28 54.976C2298.67 53.968 2298.37 52.824 2298.37 51.544C2298.37 50.28 2298.67 49.144 2299.26 48.136C2299.87 47.112 2300.69 46.32 2301.73 45.76C2302.79 45.184 2303.96 44.896 2305.26 44.896C2306.52 44.896 2307.67 45.168 2308.69 45.712C2309.71 46.256 2310.51 47.04 2311.09 48.064C2311.68 49.072 2311.98 50.248 2311.98 51.592ZM2305.28 47.728C2304.43 47.728 2303.72 47.968 2303.15 48.448C2302.57 48.928 2302.22 49.584 2302.09 50.416H2308.45C2308.32 49.6 2307.97 48.952 2307.39 48.472C2306.82 47.976 2306.11 47.728 2305.28 47.728ZM2318.05 46.792C2318.49 46.168 2319.09 45.696 2319.85 45.376C2320.61 45.056 2321.49 44.896 2322.49 44.896V48.352C2322.07 48.32 2321.79 48.304 2321.65 48.304C2320.57 48.304 2319.73 48.608 2319.13 49.216C2318.52 49.808 2318.21 50.704 2318.21 51.904V58H2314.47V45.088H2318.05V46.792ZM2330.26 52.936L2328.46 54.712V58H2324.71V40.192H2328.46V50.272L2333.93 45.088H2338.39L2333.02 50.56L2338.87 58H2334.34L2330.26 52.936ZM2352.64 51.592C2352.64 51.64 2352.62 51.976 2352.57 52.6H2342.8C2342.98 53.4 2343.39 54.032 2344.05 54.496C2344.71 54.96 2345.52 55.192 2346.5 55.192C2347.17 55.192 2347.76 55.096 2348.27 54.904C2348.8 54.696 2349.29 54.376 2349.74 53.944L2351.73 56.104C2350.51 57.496 2348.74 58.192 2346.4 58.192C2344.95 58.192 2343.66 57.912 2342.54 57.352C2341.42 56.776 2340.55 55.984 2339.95 54.976C2339.34 53.968 2339.03 52.824 2339.03 51.544C2339.03 50.28 2339.33 49.144 2339.92 48.136C2340.53 47.112 2341.35 46.32 2342.39 45.76C2343.45 45.184 2344.63 44.896 2345.92 44.896C2347.19 44.896 2348.33 45.168 2349.35 45.712C2350.38 46.256 2351.18 47.04 2351.75 48.064C2352.35 49.072 2352.64 50.248 2352.64 51.592ZM2345.95 47.728C2345.1 47.728 2344.39 47.968 2343.81 48.448C2343.23 48.928 2342.88 49.584 2342.75 50.416H2349.11C2348.99 49.6 2348.63 48.952 2348.06 48.472C2347.48 47.976 2346.78 47.728 2345.95 47.728ZM2365.65 55.12V58H2354.13V55.744L2360.71 47.968H2354.3V45.088H2365.43V47.344L2358.86 55.12H2365.65Z" fill="black"/>
<rect x="470" y="123" width="6" height="22" fill="black"/>
<rect x="97" y="123" width="6" height="20" fill="black"/>
<g clip-path="url(#clip0_483_672)">
<path d="M79 179C69.0899 179 61 170.91 61 161C61 151.09 69.0899 143 79 143C88.9101 143 97 151.09 97 161C97 170.91 88.9101 179 79 179Z" fill="#EE2229"/>
<path d="M67.6738 154.73H71.7188L74.7525 164.236L77.5839 154.73H81.8311V167.27H79.2019V156.955L75.7637 167.27H73.539L70.1008 156.955V167.27H67.6738V154.73Z" fill="white"/>
<path d="M88.1014 154.73H90.3261V167.27H87.8991V157.764L85.8767 159.382L84.4609 157.764L88.1014 154.73Z" fill="white"/>
</g>
<rect x="840" y="123" width="6" height="23" fill="black"/>
<rect x="2317" y="123" width="6" height="23" fill="black"/>
<g clip-path="url(#clip1_483_672)">
<path d="M103 161C103 157.44 104.056 153.96 106.034 151C108.011 148.04 110.823 145.733 114.112 144.37C117.401 143.008 121.02 142.651 124.512 143.346C128.003 144.04 131.211 145.755 133.728 148.272C136.245 150.789 137.96 153.997 138.654 157.488C139.349 160.98 138.992 164.599 137.63 167.888C136.267 171.177 133.96 173.989 131 175.966C128.04 177.944 124.56 179 121 179C116.228 178.995 111.652 177.097 108.278 173.722C104.903 170.348 103.005 165.772 103 161Z" fill="#9D9D9C"/>
<path d="M105.406 155.6H109.148L111.959 164.458H112L114.75 155.58H118.512L118.532 167.29H116.287L116.267 157.622H116.247L113.112 167.29H110.867L107.692 157.643L107.651 157.683L107.671 167.31H105.426L105.406 155.6Z" fill="white"/>
<path d="M119.949 165.105C120.773 165.435 121.65 165.613 122.538 165.631C123.509 165.631 125.005 165.146 125.005 163.973C125.005 162.8 123.913 162.132 122.416 162.132H121.203V160.292H122.275C123.852 160.292 124.864 159.766 124.864 158.755C124.864 157.744 123.994 157.157 122.922 157.157C122.01 157.166 121.111 157.38 120.293 157.784L120.151 155.903C121.197 155.503 122.308 155.297 123.428 155.296C124.864 155.296 127.291 155.802 127.291 158.29C127.32 158.95 127.121 159.6 126.727 160.131C126.333 160.661 125.767 161.04 125.127 161.202C125.768 161.307 126.346 161.651 126.744 162.165C127.142 162.679 127.33 163.325 127.27 163.973C127.27 166.764 124.742 167.472 122.801 167.472C121.763 167.482 120.729 167.353 119.727 167.087L119.949 165.105Z" fill="white"/>
<path d="M127.795 162.942L132.163 155.54H135.076V163.063H136.572V164.802H135.076V167.27H132.851V164.843H127.815L127.795 162.942ZM132.851 163.083V157.987L129.919 163.083H132.851Z" fill="white"/>
</g>
<g clip-path="url(#clip2_483_672)">
<path d="M455 161C455 157.44 456.056 153.96 458.034 151C460.011 148.04 462.823 145.733 466.112 144.37C469.401 143.008 473.02 142.651 476.512 143.346C480.003 144.04 483.211 145.755 485.728 148.272C488.245 150.789 489.96 153.997 490.654 157.488C491.349 160.98 490.992 164.599 489.63 167.888C488.267 171.177 485.96 173.989 483 175.966C480.04 177.944 476.56 179 473 179C468.229 178.989 463.657 177.089 460.284 173.716C456.911 170.343 455.011 165.771 455 161Z" fill="#F29EBF"/>
<path d="M461.27 155.337H465.112L467.944 164.438L470.775 155.337H474.82V167.472H472.393V157.359L469.157 167.472H466.73L463.494 157.359V167.472H461.27V155.337Z" fill="white"/>
<path d="M477.045 155.337H484.73V157.359L480.483 167.472H477.854L482.303 157.157H477.045V155.337Z" fill="white"/>
</g>
<g clip-path="url(#clip3_483_672)">
<path d="M2302 161C2302 157.44 2303.06 153.96 2305.03 151C2307.01 148.04 2309.82 145.733 2313.11 144.37C2316.4 143.008 2320.02 142.651 2323.51 143.346C2327 144.04 2330.21 145.755 2332.73 148.272C2335.25 150.789 2336.96 153.997 2337.65 157.488C2338.35 160.98 2337.99 164.599 2336.63 167.888C2335.27 171.177 2332.96 173.989 2330 175.966C2327.04 177.944 2323.56 179 2320 179C2315.23 178.989 2310.66 177.089 2307.28 173.716C2303.91 170.343 2302.01 165.771 2302 161Z" fill="#AB548F"/>
<path d="M2304.43 154.933H2308.47L2311.3 164.034L2314.14 154.933H2317.98V167.067H2315.75V157.157L2312.52 167.067H2310.09L2306.85 157.157V167.067H2304.43V154.933Z" fill="white"/>
<path d="M2323.44 154.933H2325.66V167.067H2323.24V157.764L2321.21 159.382L2320 157.764L2323.44 154.933Z" fill="white"/>
<path d="M2332.14 154.933H2334.36V167.067H2331.93V157.764L2329.91 159.382L2328.7 157.764L2332.14 154.933Z" fill="white"/>
</g>
<g clip-path="url(#clip4_483_672)">
<path d="M825 160.997C825 157.438 826.056 153.958 828.034 150.999C830.011 148.039 832.823 145.732 836.112 144.37C839.401 143.008 843.02 142.651 846.512 143.346C850.003 144.04 853.211 145.754 855.728 148.271C858.245 150.788 859.96 153.995 860.654 157.486C861.349 160.977 860.992 164.596 859.63 167.884C858.267 171.173 855.96 173.984 853 175.961C850.04 177.939 846.56 178.994 843 178.994C838.226 178.994 833.648 177.098 830.272 173.723C826.896 170.348 825 165.77 825 160.997Z" fill="#FFD300"/>
<path d="M831.486 155.465H835.236L838.016 164.32H838.049L840.83 155.465H844.579V167.15H842.333V157.509H842.303L839.152 167.15H836.911L833.765 157.509L833.729 157.542V167.15H831.486V155.465Z" fill="#1D1D1B"/>
<path d="M847.55 165.04C848.19 165.34 848.886 165.499 849.593 165.507C851.618 165.507 852.304 163.633 852.362 161.894L852.329 161.858C852.093 162.239 851.758 162.549 851.361 162.755C850.963 162.962 850.517 163.058 850.07 163.032C847.854 163.032 846.652 161.626 846.652 159.466C846.652 156.938 847.893 155.266 850.529 155.266C853.775 155.266 854.498 157.96 854.498 160.704C854.498 163.868 853.476 167.349 849.693 167.349C848.854 167.353 848.021 167.211 847.231 166.931L847.55 165.04ZM852.169 159.081C852.169 157.974 851.703 157.007 850.546 157.007C849.458 157.007 849.006 158.062 849.006 159.098C849.006 160.236 849.474 161.291 850.596 161.291C851.717 161.291 852.169 160.252 852.169 159.076" fill="#1D1D1B"/>
</g>
<defs>
<clipPath id="clip0_483_672">
<rect width="36" height="36" fill="white" transform="translate(61 143)"/>
</clipPath>
<clipPath id="clip1_483_672">
<rect width="36" height="36" fill="white" transform="translate(103 143)"/>
</clipPath>
<clipPath id="clip2_483_672">
<rect width="36" height="36" fill="white" transform="translate(455 143)"/>
</clipPath>
<clipPath id="clip3_483_672">
<rect width="36" height="36" fill="white" transform="translate(2302 143)"/>
</clipPath>
<clipPath id="clip4_483_672">
<rect width="36" height="36" fill="white" transform="translate(825 143)"/>
</clipPath>
</defs>
</svg>
