<svg width="1492" height="200" viewBox="0 0 1492 200" fill="none" xmlns="http://www.w3.org/2000/svg">
<g clip-path="url(#clip0_495_5065)">
<path d="M100 100H1382" stroke="#00A7E1" stroke-width="20"/>
<circle cx="473" cy="100" r="21" fill="#00A7E1"/>
<circle cx="473" cy="100" r="13" fill="white"/>
<circle cx="658" cy="100" r="21" fill="#00A7E1"/>
<circle cx="658" cy="100" r="13" fill="white"/>
<circle cx="288" cy="100" r="21" fill="#00A7E1"/>
<circle cx="288" cy="100" r="13" fill="white"/>
<circle cx="843" cy="100" r="21" fill="#00A7E1"/>
<circle cx="843" cy="100" r="13" fill="white"/>
<circle cx="1025" cy="100" r="21" fill="#00A7E1"/>
<circle cx="1025" cy="100" r="13" fill="white"/>
<circle cx="1207" cy="100" r="21" fill="#00A7E1"/>
<circle cx="1207" cy="100" r="13" fill="white"/>
<circle cx="1392" cy="100" r="21" fill="#00A7E1"/>
<circle cx="1392" cy="100" r="13" fill="white"/>
<circle cx="1025" cy="100" r="24" fill="black"/>
<ellipse cx="1025" cy="99.9939" rx="19.2" ry="19.2" fill="white"/>
<path d="M69.5104 51.4L67.2544 53.752V58H63.3904V41.2H67.2544V49.048L74.6944 41.2H79.0144L72.0544 48.688L79.4224 58H74.8864L69.5104 51.4ZM80.6577 45.088H84.4017V58H80.6577V45.088ZM82.5297 43.288C81.8417 43.288 81.2817 43.088 80.8497 42.688C80.4177 42.288 80.2017 41.792 80.2017 41.2C80.2017 40.608 80.4177 40.112 80.8497 39.712C81.2817 39.312 81.8417 39.112 82.5297 39.112C83.2177 39.112 83.7777 39.304 84.2097 39.688C84.6417 40.072 84.8577 40.552 84.8577 41.128C84.8577 41.752 84.6417 42.272 84.2097 42.688C83.7777 43.088 83.2177 43.288 82.5297 43.288ZM91.4524 46.792C91.9004 46.168 92.5004 45.696 93.2524 45.376C94.0204 45.056 94.9004 44.896 95.8924 44.896V48.352C95.4764 48.32 95.1964 48.304 95.0524 48.304C93.9804 48.304 93.1404 48.608 92.5324 49.216C91.9244 49.808 91.6204 50.704 91.6204 51.904V58H87.8764V45.088H91.4524V46.792ZM103.256 44.896C105.256 44.896 106.792 45.376 107.864 46.336C108.936 47.28 109.472 48.712 109.472 50.632V58H105.968V56.392C105.264 57.592 103.952 58.192 102.032 58.192C101.04 58.192 100.176 58.024 99.4403 57.688C98.7203 57.352 98.1683 56.888 97.7843 56.296C97.4003 55.704 97.2083 55.032 97.2083 54.28C97.2083 53.08 97.6563 52.136 98.5523 51.448C99.4643 50.76 100.864 50.416 102.752 50.416H105.728C105.728 49.6 105.48 48.976 104.984 48.544C104.488 48.096 103.744 47.872 102.752 47.872C102.064 47.872 101.384 47.984 100.712 48.208C100.056 48.416 99.4963 48.704 99.0323 49.072L97.6883 46.456C98.3923 45.96 99.2323 45.576 100.208 45.304C101.2 45.032 102.216 44.896 103.256 44.896ZM102.968 55.672C103.608 55.672 104.176 55.528 104.672 55.24C105.168 54.936 105.52 54.496 105.728 53.92V52.6H103.16C101.624 52.6 100.856 53.104 100.856 54.112C100.856 54.592 101.04 54.976 101.408 55.264C101.792 55.536 102.312 55.672 102.968 55.672ZM123.493 55.12V58H111.973V55.744L118.549 47.968H112.141V45.088H123.277V47.344L116.701 55.12H123.493ZM125.892 40.192H129.636V58H125.892V40.192ZM133.111 45.088H136.855V58H133.111V45.088Z" fill="black"/>
<path d="M226.538 58L226.514 47.92L221.57 56.224H219.818L214.898 48.136V58H211.25V41.2H214.466L220.754 51.64L226.946 41.2H230.138L230.186 58H226.538ZM240.052 58.192C238.692 58.192 237.468 57.912 236.38 57.352C235.308 56.776 234.468 55.984 233.86 54.976C233.252 53.968 232.948 52.824 232.948 51.544C232.948 50.264 233.252 49.12 233.86 48.112C234.468 47.104 235.308 46.32 236.38 45.76C237.468 45.184 238.692 44.896 240.052 44.896C241.412 44.896 242.628 45.184 243.7 45.76C244.772 46.32 245.612 47.104 246.22 48.112C246.828 49.12 247.132 50.264 247.132 51.544C247.132 52.824 246.828 53.968 246.22 54.976C245.612 55.984 244.772 56.776 243.7 57.352C242.628 57.912 241.412 58.192 240.052 58.192ZM240.052 55.12C241.012 55.12 241.796 54.8 242.404 54.16C243.028 53.504 243.34 52.632 243.34 51.544C243.34 50.456 243.028 49.592 242.404 48.952C241.796 48.296 241.012 47.968 240.052 47.968C239.092 47.968 238.3 48.296 237.676 48.952C237.052 49.592 236.74 50.456 236.74 51.544C236.74 52.632 237.052 53.504 237.676 54.16C238.3 54.8 239.092 55.12 240.052 55.12ZM249.634 40.192H253.378V58H249.634V40.192ZM256.853 40.192H260.597V58H256.853V40.192ZM269.28 44.896C271.28 44.896 272.816 45.376 273.888 46.336C274.96 47.28 275.496 48.712 275.496 50.632V58H271.992V56.392C271.288 57.592 269.976 58.192 268.056 58.192C267.064 58.192 266.2 58.024 265.464 57.688C264.744 57.352 264.192 56.888 263.808 56.296C263.424 55.704 263.232 55.032 263.232 54.28C263.232 53.08 263.68 52.136 264.576 51.448C265.488 50.76 266.888 50.416 268.776 50.416H271.752C271.752 49.6 271.504 48.976 271.008 48.544C270.512 48.096 269.768 47.872 268.776 47.872C268.088 47.872 267.408 47.984 266.736 48.208C266.08 48.416 265.52 48.704 265.056 49.072L263.712 46.456C264.416 45.96 265.256 45.576 266.232 45.304C267.224 45.032 268.24 44.896 269.28 44.896ZM268.992 55.672C269.632 55.672 270.2 55.528 270.696 55.24C271.192 54.936 271.544 54.496 271.752 53.92V52.6H269.184C267.648 52.6 266.88 53.104 266.88 54.112C266.88 54.592 267.064 54.976 267.432 55.264C267.816 55.536 268.336 55.672 268.992 55.672ZM297.297 49.336H300.849V56.152C299.937 56.84 298.881 57.368 297.681 57.736C296.481 58.104 295.273 58.288 294.057 58.288C292.313 58.288 290.745 57.92 289.353 57.184C287.961 56.432 286.865 55.4 286.065 54.088C285.281 52.76 284.889 51.264 284.889 49.6C284.889 47.936 285.281 46.448 286.065 45.136C286.865 43.808 287.969 42.776 289.377 42.04C290.785 41.288 292.369 40.912 294.129 40.912C295.601 40.912 296.937 41.16 298.137 41.656C299.337 42.152 300.345 42.872 301.161 43.816L298.665 46.12C297.465 44.856 296.017 44.224 294.321 44.224C293.249 44.224 292.297 44.448 291.465 44.896C290.633 45.344 289.985 45.976 289.521 46.792C289.057 47.608 288.825 48.544 288.825 49.6C288.825 50.64 289.057 51.568 289.521 52.384C289.985 53.2 290.625 53.84 291.441 54.304C292.273 54.752 293.217 54.976 294.273 54.976C295.393 54.976 296.401 54.736 297.297 54.256V49.336ZM317.205 45.088V58H313.653V56.464C313.157 57.024 312.565 57.456 311.877 57.76C311.189 58.048 310.445 58.192 309.645 58.192C307.949 58.192 306.605 57.704 305.613 56.728C304.621 55.752 304.125 54.304 304.125 52.384V45.088H307.869V51.832C307.869 53.912 308.741 54.952 310.485 54.952C311.381 54.952 312.101 54.664 312.645 54.088C313.189 53.496 313.461 52.624 313.461 51.472V45.088H317.205ZM308.229 43.312C307.749 43.312 307.349 43.16 307.029 42.856C306.709 42.536 306.549 42.136 306.549 41.656C306.549 41.176 306.709 40.784 307.029 40.48C307.349 40.16 307.749 40 308.229 40C308.709 40 309.101 40.16 309.405 40.48C309.725 40.784 309.885 41.176 309.885 41.656C309.885 42.136 309.725 42.536 309.405 42.856C309.101 43.16 308.709 43.312 308.229 43.312ZM313.077 43.312C312.597 43.312 312.197 43.16 311.877 42.856C311.573 42.536 311.421 42.136 311.421 41.656C311.421 41.176 311.573 40.784 311.877 40.48C312.197 40.16 312.597 40 313.077 40C313.557 40 313.957 40.16 314.277 40.48C314.597 40.784 314.757 41.176 314.757 41.656C314.757 42.136 314.597 42.536 314.277 42.856C313.957 43.16 313.557 43.312 313.077 43.312ZM324.249 46.792C324.697 46.168 325.297 45.696 326.049 45.376C326.817 45.056 327.697 44.896 328.689 44.896V48.352C328.273 48.32 327.993 48.304 327.849 48.304C326.777 48.304 325.937 48.608 325.329 49.216C324.721 49.808 324.417 50.704 324.417 51.904V58H320.673V45.088H324.249V46.792ZM336.053 44.896C338.053 44.896 339.589 45.376 340.661 46.336C341.733 47.28 342.269 48.712 342.269 50.632V58H338.765V56.392C338.061 57.592 336.749 58.192 334.829 58.192C333.837 58.192 332.973 58.024 332.237 57.688C331.517 57.352 330.965 56.888 330.581 56.296C330.197 55.704 330.005 55.032 330.005 54.28C330.005 53.08 330.453 52.136 331.349 51.448C332.261 50.76 333.661 50.416 335.549 50.416H338.525C338.525 49.6 338.277 48.976 337.781 48.544C337.285 48.096 336.541 47.872 335.549 47.872C334.861 47.872 334.181 47.984 333.509 48.208C332.853 48.416 332.293 48.704 331.829 49.072L330.485 46.456C331.189 45.96 332.029 45.576 333.005 45.304C333.997 45.032 335.013 44.896 336.053 44.896ZM335.765 55.672C336.405 55.672 336.973 55.528 337.469 55.24C337.965 54.936 338.317 54.496 338.525 53.92V52.6H335.957C334.421 52.6 333.653 53.104 333.653 54.112C333.653 54.592 333.837 54.976 334.205 55.264C334.589 55.536 335.109 55.672 335.765 55.672ZM353.506 44.896C355.106 44.896 356.394 45.376 357.37 46.336C358.362 47.296 358.858 48.72 358.858 50.608V58H355.114V51.184C355.114 50.16 354.89 49.4 354.442 48.904C353.994 48.392 353.346 48.136 352.498 48.136C351.554 48.136 350.802 48.432 350.242 49.024C349.682 49.6 349.402 50.464 349.402 51.616V58H345.658V45.088H349.234V46.6C349.73 46.056 350.346 45.64 351.082 45.352C351.818 45.048 352.626 44.896 353.506 44.896ZM362.251 45.088H365.995V58H362.251V45.088ZM364.123 43.288C363.435 43.288 362.875 43.088 362.443 42.688C362.011 42.288 361.795 41.792 361.795 41.2C361.795 40.608 362.011 40.112 362.443 39.712C362.875 39.312 363.435 39.112 364.123 39.112C364.811 39.112 365.371 39.304 365.803 39.688C366.235 40.072 366.451 40.552 366.451 41.128C366.451 41.752 366.235 42.272 365.803 42.688C365.371 43.088 364.811 43.288 364.123 43.288Z" fill="black"/>
<path d="M421.263 52.048V58H417.375V52L410.871 41.2H414.999L419.487 48.664L423.975 41.2H427.791L421.263 52.048ZM428.263 45.088H432.007V58H428.263V45.088ZM435.482 40.192H439.226V58H435.482V40.192ZM455.853 40.192V58H452.277V56.512C451.349 57.632 450.005 58.192 448.245 58.192C447.029 58.192 445.925 57.92 444.933 57.376C443.957 56.832 443.189 56.056 442.629 55.048C442.069 54.04 441.789 52.872 441.789 51.544C441.789 50.216 442.069 49.048 442.629 48.04C443.189 47.032 443.957 46.256 444.933 45.712C445.925 45.168 447.029 44.896 448.245 44.896C449.893 44.896 451.181 45.416 452.109 46.456V40.192H455.853ZM448.893 55.12C449.837 55.12 450.621 54.8 451.245 54.16C451.869 53.504 452.181 52.632 452.181 51.544C452.181 50.456 451.869 49.592 451.245 48.952C450.621 48.296 449.837 47.968 448.893 47.968C447.933 47.968 447.141 48.296 446.517 48.952C445.893 49.592 445.581 50.456 445.581 51.544C445.581 52.632 445.893 53.504 446.517 54.16C447.141 54.8 447.933 55.12 448.893 55.12ZM459.318 45.088H463.062V58H459.318V45.088ZM477.169 55.12V58H465.649V55.744L472.225 47.968H465.817V45.088H476.953V47.344L470.377 55.12H477.169ZM487.966 57.376C487.598 57.648 487.142 57.856 486.598 58C486.07 58.128 485.51 58.192 484.918 58.192C483.382 58.192 482.19 57.8 481.342 57.016C480.51 56.232 480.094 55.08 480.094 53.56V48.256H478.102V45.376H480.094V42.232H483.838V45.376H487.054V48.256H483.838V53.512C483.838 54.056 483.974 54.48 484.246 54.784C484.534 55.072 484.934 55.216 485.446 55.216C486.038 55.216 486.542 55.056 486.958 54.736L487.966 57.376ZM502.317 51.592C502.317 51.64 502.293 51.976 502.245 52.6H492.477C492.653 53.4 493.069 54.032 493.725 54.496C494.381 54.96 495.197 55.192 496.173 55.192C496.845 55.192 497.437 55.096 497.949 54.904C498.477 54.696 498.965 54.376 499.413 53.944L501.405 56.104C500.189 57.496 498.413 58.192 496.077 58.192C494.621 58.192 493.333 57.912 492.213 57.352C491.093 56.776 490.229 55.984 489.621 54.976C489.013 53.968 488.709 52.824 488.709 51.544C488.709 50.28 489.005 49.144 489.597 48.136C490.205 47.112 491.029 46.32 492.069 45.76C493.125 45.184 494.301 44.896 495.597 44.896C496.861 44.896 498.005 45.168 499.029 45.712C500.053 46.256 500.853 47.04 501.429 48.064C502.021 49.072 502.317 50.248 502.317 51.592ZM495.621 47.728C494.773 47.728 494.061 47.968 493.485 48.448C492.909 48.928 492.557 49.584 492.429 50.416H498.789C498.661 49.6 498.309 48.952 497.733 48.472C497.157 47.976 496.453 47.728 495.621 47.728ZM512.442 44.896C513.642 44.896 514.73 45.176 515.706 45.736C516.698 46.28 517.474 47.056 518.034 48.064C518.594 49.056 518.874 50.216 518.874 51.544C518.874 52.872 518.594 54.04 518.034 55.048C517.474 56.04 516.698 56.816 515.706 57.376C514.73 57.92 513.642 58.192 512.442 58.192C510.794 58.192 509.498 57.672 508.554 56.632V62.656H504.81V45.088H508.386V46.576C509.314 45.456 510.666 44.896 512.442 44.896ZM511.794 55.12C512.754 55.12 513.538 54.8 514.146 54.16C514.77 53.504 515.082 52.632 515.082 51.544C515.082 50.456 514.77 49.592 514.146 48.952C513.538 48.296 512.754 47.968 511.794 47.968C510.834 47.968 510.042 48.296 509.418 48.952C508.81 49.592 508.506 50.456 508.506 51.544C508.506 52.632 508.81 53.504 509.418 54.16C510.042 54.8 510.834 55.12 511.794 55.12ZM534.028 51.592C534.028 51.64 534.004 51.976 533.956 52.6H524.188C524.364 53.4 524.78 54.032 525.436 54.496C526.092 54.96 526.908 55.192 527.884 55.192C528.556 55.192 529.148 55.096 529.66 54.904C530.188 54.696 530.676 54.376 531.124 53.944L533.116 56.104C531.9 57.496 530.124 58.192 527.788 58.192C526.332 58.192 525.044 57.912 523.924 57.352C522.804 56.776 521.94 55.984 521.332 54.976C520.724 53.968 520.42 52.824 520.42 51.544C520.42 50.28 520.716 49.144 521.308 48.136C521.916 47.112 522.74 46.32 523.78 45.76C524.836 45.184 526.012 44.896 527.308 44.896C528.572 44.896 529.716 45.168 530.74 45.712C531.764 46.256 532.564 47.04 533.14 48.064C533.732 49.072 534.028 50.248 534.028 51.592ZM527.332 47.728C526.484 47.728 525.772 47.968 525.196 48.448C524.62 48.928 524.268 49.584 524.14 50.416H530.5C530.372 49.6 530.02 48.952 529.444 48.472C528.868 47.976 528.164 47.728 527.332 47.728Z" fill="black"/>
<path d="M615.121 41.2H619.009V58H615.121V41.2ZM617.065 39.712C616.473 39.712 615.985 39.52 615.601 39.136C615.233 38.752 615.049 38.264 615.049 37.672C615.049 37.096 615.233 36.616 615.601 36.232C615.985 35.848 616.473 35.656 617.065 35.656C617.657 35.656 618.137 35.848 618.505 36.232C618.889 36.616 619.081 37.096 619.081 37.672C619.081 38.264 618.889 38.752 618.505 39.136C618.137 39.52 617.657 39.712 617.065 39.712ZM622.732 40.192H626.476V58H622.732V40.192ZM635.495 52.936L633.695 54.712V58H629.951V40.192H633.695V50.272L639.167 45.088H643.631L638.255 50.56L644.111 58H639.575L635.495 52.936ZM657.86 45.088L652.028 58.792C651.436 60.28 650.7 61.328 649.82 61.936C648.956 62.544 647.908 62.848 646.676 62.848C646.004 62.848 645.34 62.744 644.684 62.536C644.028 62.328 643.492 62.04 643.076 61.672L644.444 59.008C644.732 59.264 645.06 59.464 645.428 59.608C645.812 59.752 646.188 59.824 646.556 59.824C647.068 59.824 647.484 59.696 647.804 59.44C648.124 59.2 648.412 58.792 648.668 58.216L648.716 58.096L643.124 45.088H646.988L650.612 53.848L654.26 45.088H657.86ZM672.396 45.088V58H668.844V56.464C668.348 57.024 667.756 57.456 667.068 57.76C666.38 58.048 665.636 58.192 664.836 58.192C663.14 58.192 661.796 57.704 660.804 56.728C659.812 55.752 659.316 54.304 659.316 52.384V45.088H663.06V51.832C663.06 53.912 663.932 54.952 665.676 54.952C666.572 54.952 667.292 54.664 667.836 54.088C668.38 53.496 668.652 52.624 668.652 51.472V45.088H672.396ZM688.681 45.088L683.233 58H679.369L673.945 45.088H677.809L681.385 53.872L685.081 45.088H688.681ZM694.995 44.896C696.995 44.896 698.531 45.376 699.603 46.336C700.675 47.28 701.211 48.712 701.211 50.632V58H697.707V56.392C697.003 57.592 695.691 58.192 693.771 58.192C692.779 58.192 691.915 58.024 691.179 57.688C690.459 57.352 689.907 56.888 689.523 56.296C689.139 55.704 688.947 55.032 688.947 54.28C688.947 53.08 689.395 52.136 690.291 51.448C691.203 50.76 692.603 50.416 694.491 50.416H697.467C697.467 49.6 697.219 48.976 696.723 48.544C696.227 48.096 695.483 47.872 694.491 47.872C693.803 47.872 693.123 47.984 692.451 48.208C691.795 48.416 691.235 48.704 690.771 49.072L689.427 46.456C690.131 45.96 690.971 45.576 691.947 45.304C692.939 45.032 693.955 44.896 694.995 44.896ZM694.707 55.672C695.347 55.672 695.915 55.528 696.411 55.24C696.907 54.936 697.259 54.496 697.467 53.92V52.6H694.899C693.363 52.6 692.595 53.104 692.595 54.112C692.595 54.592 692.779 54.976 693.147 55.264C693.531 55.536 694.051 55.672 694.707 55.672Z" fill="black"/>
<path d="M800.466 41.2V58H796.578V51.112H788.946V58H785.058V41.2H788.946V47.824H796.578V41.2H800.466ZM809.385 44.896C811.385 44.896 812.921 45.376 813.993 46.336C815.065 47.28 815.601 48.712 815.601 50.632V58H812.097V56.392C811.393 57.592 810.081 58.192 808.161 58.192C807.169 58.192 806.305 58.024 805.569 57.688C804.849 57.352 804.297 56.888 803.913 56.296C803.529 55.704 803.337 55.032 803.337 54.28C803.337 53.08 803.785 52.136 804.681 51.448C805.593 50.76 806.993 50.416 808.881 50.416H811.857C811.857 49.6 811.609 48.976 811.113 48.544C810.617 48.096 809.873 47.872 808.881 47.872C808.193 47.872 807.513 47.984 806.841 48.208C806.185 48.416 805.625 48.704 805.161 49.072L803.817 46.456C804.521 45.96 805.361 45.576 806.337 45.304C807.329 45.032 808.345 44.896 809.385 44.896ZM809.097 55.672C809.737 55.672 810.305 55.528 810.801 55.24C811.297 54.936 811.649 54.496 811.857 53.92V52.6H809.289C807.753 52.6 806.985 53.104 806.985 54.112C806.985 54.592 807.169 54.976 807.537 55.264C807.921 55.536 808.441 55.672 809.097 55.672ZM829.622 55.12V58H818.102V55.744L824.678 47.968H818.27V45.088H829.406V47.344L822.83 55.12H829.622ZM839.869 44.896C841.469 44.896 842.757 45.376 843.733 46.336C844.725 47.296 845.221 48.72 845.221 50.608V58H841.477V51.184C841.477 50.16 841.253 49.4 840.805 48.904C840.357 48.392 839.709 48.136 838.861 48.136C837.917 48.136 837.165 48.432 836.605 49.024C836.045 49.6 835.765 50.464 835.765 51.616V58H832.021V45.088H835.597V46.6C836.093 46.056 836.709 45.64 837.445 45.352C838.181 45.048 838.989 44.896 839.869 44.896ZM861.403 51.592C861.403 51.64 861.379 51.976 861.331 52.6H851.563C851.739 53.4 852.155 54.032 852.811 54.496C853.467 54.96 854.283 55.192 855.259 55.192C855.931 55.192 856.523 55.096 857.035 54.904C857.563 54.696 858.051 54.376 858.499 53.944L860.491 56.104C859.275 57.496 857.499 58.192 855.163 58.192C853.707 58.192 852.419 57.912 851.299 57.352C850.179 56.776 849.315 55.984 848.707 54.976C848.099 53.968 847.795 52.824 847.795 51.544C847.795 50.28 848.091 49.144 848.683 48.136C849.291 47.112 850.115 46.32 851.155 45.76C852.211 45.184 853.387 44.896 854.683 44.896C855.947 44.896 857.091 45.168 858.115 45.712C859.139 46.256 859.939 47.04 860.515 48.064C861.107 49.072 861.403 50.248 861.403 51.592ZM854.707 47.728C853.859 47.728 853.147 47.968 852.571 48.448C851.995 48.928 851.643 49.584 851.515 50.416H857.875C857.747 49.6 857.395 48.952 856.819 48.472C856.243 47.976 855.539 47.728 854.707 47.728ZM877.048 40.192V58H873.472V56.512C872.544 57.632 871.2 58.192 869.44 58.192C868.224 58.192 867.12 57.92 866.128 57.376C865.152 56.832 864.384 56.056 863.824 55.048C863.264 54.04 862.984 52.872 862.984 51.544C862.984 50.216 863.264 49.048 863.824 48.04C864.384 47.032 865.152 46.256 866.128 45.712C867.12 45.168 868.224 44.896 869.44 44.896C871.088 44.896 872.376 45.416 873.304 46.456V40.192H877.048ZM870.088 55.12C871.032 55.12 871.816 54.8 872.44 54.16C873.064 53.504 873.376 52.632 873.376 51.544C873.376 50.456 873.064 49.592 872.44 48.952C871.816 48.296 871.032 47.968 870.088 47.968C869.128 47.968 868.336 48.296 867.712 48.952C867.088 49.592 866.776 50.456 866.776 51.544C866.776 52.632 867.088 53.504 867.712 54.16C868.336 54.8 869.128 55.12 870.088 55.12ZM885.721 44.896C887.721 44.896 889.257 45.376 890.329 46.336C891.401 47.28 891.937 48.712 891.937 50.632V58H888.433V56.392C887.729 57.592 886.417 58.192 884.497 58.192C883.505 58.192 882.641 58.024 881.905 57.688C881.185 57.352 880.633 56.888 880.249 56.296C879.865 55.704 879.673 55.032 879.673 54.28C879.673 53.08 880.121 52.136 881.017 51.448C881.929 50.76 883.329 50.416 885.217 50.416H888.193C888.193 49.6 887.945 48.976 887.449 48.544C886.953 48.096 886.209 47.872 885.217 47.872C884.529 47.872 883.849 47.984 883.177 48.208C882.521 48.416 881.961 48.704 881.497 49.072L880.153 46.456C880.857 45.96 881.697 45.576 882.673 45.304C883.665 45.032 884.681 44.896 885.721 44.896ZM885.433 55.672C886.073 55.672 886.641 55.528 887.137 55.24C887.633 54.936 887.985 54.496 888.193 53.92V52.6H885.625C884.089 52.6 883.321 53.104 883.321 54.112C883.321 54.592 883.505 54.976 883.873 55.264C884.257 55.536 884.777 55.672 885.433 55.672ZM898.902 46.792C899.35 46.168 899.95 45.696 900.702 45.376C901.47 45.056 902.35 44.896 903.342 44.896V48.352C902.926 48.32 902.646 48.304 902.502 48.304C901.43 48.304 900.59 48.608 899.982 49.216C899.374 49.808 899.07 50.704 899.07 51.904V58H895.326V45.088H898.902V46.792Z" fill="black"/>
<path d="M983.641 20.264C984.601 20.568 985.353 21.08 985.897 21.8C986.441 22.504 986.713 23.376 986.713 24.416C986.713 25.888 986.137 27.024 984.985 27.824C983.849 28.608 982.185 29 979.993 29H971.305V12.2H979.513C981.561 12.2 983.129 12.592 984.217 13.376C985.321 14.16 985.873 15.224 985.873 16.568C985.873 17.384 985.673 18.112 985.273 18.752C984.889 19.392 984.345 19.896 983.641 20.264ZM975.169 15.128V19.088H979.033C979.993 19.088 980.721 18.92 981.217 18.584C981.713 18.248 981.961 17.752 981.961 17.096C981.961 16.44 981.713 15.952 981.217 15.632C980.721 15.296 979.993 15.128 979.033 15.128H975.169ZM979.705 26.072C980.729 26.072 981.497 25.904 982.009 25.568C982.537 25.232 982.801 24.712 982.801 24.008C982.801 22.616 981.769 21.92 979.705 21.92H975.169V26.072H979.705ZM994.6 15.896C996.6 15.896 998.136 16.376 999.208 17.336C1000.28 18.28 1000.82 19.712 1000.82 21.632V29H997.312V27.392C996.608 28.592 995.296 29.192 993.376 29.192C992.384 29.192 991.52 29.024 990.784 28.688C990.064 28.352 989.512 27.888 989.128 27.296C988.744 26.704 988.552 26.032 988.552 25.28C988.552 24.08 989 23.136 989.896 22.448C990.808 21.76 992.208 21.416 994.096 21.416H997.072C997.072 20.6 996.824 19.976 996.328 19.544C995.832 19.096 995.088 18.872 994.096 18.872C993.408 18.872 992.728 18.984 992.056 19.208C991.4 19.416 990.84 19.704 990.376 20.072L989.032 17.456C989.736 16.96 990.576 16.576 991.552 16.304C992.544 16.032 993.56 15.896 994.6 15.896ZM994.312 26.672C994.952 26.672 995.52 26.528 996.016 26.24C996.512 25.936 996.864 25.496 997.072 24.92V23.6H994.504C992.968 23.6 992.2 24.104 992.2 25.112C992.2 25.592 992.384 25.976 992.752 26.264C993.136 26.536 993.656 26.672 994.312 26.672ZM1009.75 23.936L1007.95 25.712V29H1004.2V11.192H1007.95V21.272L1013.42 16.088H1017.88L1012.51 21.56L1018.36 29H1013.83L1009.75 23.936ZM1019.95 16.088H1023.7V29H1019.95V16.088ZM1030.75 17.792C1031.2 17.168 1031.8 16.696 1032.55 16.376C1033.32 16.056 1034.2 15.896 1035.19 15.896V19.352C1034.77 19.32 1034.49 19.304 1034.35 19.304C1033.28 19.304 1032.44 19.608 1031.83 20.216C1031.22 20.808 1030.92 21.704 1030.92 22.904V29H1027.17V16.088H1030.75V17.792ZM1042.96 23.936L1041.16 25.712V29H1037.42V11.192H1041.16V21.272L1046.63 16.088H1051.1L1045.72 21.56L1051.58 29H1047.04L1042.96 23.936ZM1058.84 29.192C1057.48 29.192 1056.26 28.912 1055.17 28.352C1054.1 27.776 1053.26 26.984 1052.65 25.976C1052.04 24.968 1051.74 23.824 1051.74 22.544C1051.74 21.264 1052.04 20.12 1052.65 19.112C1053.26 18.104 1054.1 17.32 1055.17 16.76C1056.26 16.184 1057.48 15.896 1058.84 15.896C1060.2 15.896 1061.42 16.184 1062.49 16.76C1063.56 17.32 1064.4 18.104 1065.01 19.112C1065.62 20.12 1065.92 21.264 1065.92 22.544C1065.92 23.824 1065.62 24.968 1065.01 25.976C1064.4 26.984 1063.56 27.776 1062.49 28.352C1061.42 28.912 1060.2 29.192 1058.84 29.192ZM1058.84 26.12C1059.8 26.12 1060.58 25.8 1061.19 25.16C1061.82 24.504 1062.13 23.632 1062.13 22.544C1062.13 21.456 1061.82 20.592 1061.19 19.952C1060.58 19.296 1059.8 18.968 1058.84 18.968C1057.88 18.968 1057.09 19.296 1056.46 19.952C1055.84 20.592 1055.53 21.456 1055.53 22.544C1055.53 23.632 1055.84 24.504 1056.46 25.16C1057.09 25.8 1057.88 26.12 1058.84 26.12ZM1056.37 14.312C1055.89 14.312 1055.49 14.16 1055.17 13.856C1054.85 13.536 1054.69 13.136 1054.69 12.656C1054.69 12.176 1054.85 11.784 1055.17 11.48C1055.49 11.16 1055.89 11 1056.37 11C1056.85 11 1057.24 11.16 1057.54 11.48C1057.86 11.784 1058.02 12.176 1058.02 12.656C1058.02 13.136 1057.86 13.536 1057.54 13.856C1057.24 14.16 1056.85 14.312 1056.37 14.312ZM1061.22 14.312C1060.74 14.312 1060.34 14.16 1060.02 13.856C1059.71 13.536 1059.56 13.136 1059.56 12.656C1059.56 12.176 1059.71 11.784 1060.02 11.48C1060.34 11.16 1060.74 11 1061.22 11C1061.7 11 1062.1 11.16 1062.42 11.48C1062.74 11.784 1062.9 12.176 1062.9 12.656C1062.9 13.136 1062.74 13.536 1062.42 13.856C1062.1 14.16 1061.7 14.312 1061.22 14.312ZM1080.89 16.088L1075.06 29.792C1074.46 31.28 1073.73 32.328 1072.85 32.936C1071.98 33.544 1070.94 33.848 1069.7 33.848C1069.03 33.848 1068.37 33.744 1067.71 33.536C1067.06 33.328 1066.52 33.04 1066.1 32.672L1067.47 30.008C1067.76 30.264 1068.09 30.464 1068.46 30.608C1068.84 30.752 1069.22 30.824 1069.58 30.824C1070.1 30.824 1070.51 30.696 1070.83 30.44C1071.15 30.2 1071.44 29.792 1071.7 29.216L1071.74 29.096L1066.15 16.088H1070.02L1073.64 24.848L1077.29 16.088H1080.89ZM991.648 41.2H995.536V58H991.648V41.2ZM993.592 39.712C993 39.712 992.512 39.52 992.128 39.136C991.76 38.752 991.576 38.264 991.576 37.672C991.576 37.096 991.76 36.616 992.128 36.232C992.512 35.848 993 35.656 993.592 35.656C994.184 35.656 994.664 35.848 995.032 36.232C995.416 36.616 995.608 37.096 995.608 37.672C995.608 38.264 995.416 38.752 995.032 39.136C994.664 39.52 994.184 39.712 993.592 39.712ZM1007.11 44.896C1008.71 44.896 1010 45.376 1010.97 46.336C1011.96 47.296 1012.46 48.72 1012.46 50.608V58H1008.72V51.184C1008.72 50.16 1008.49 49.4 1008.04 48.904C1007.6 48.392 1006.95 48.136 1006.1 48.136C1005.16 48.136 1004.4 48.432 1003.84 49.024C1003.28 49.6 1003 50.464 1003 51.616V58H999.259V45.088H1002.84V46.6C1003.33 46.056 1003.95 45.64 1004.68 45.352C1005.42 45.048 1006.23 44.896 1007.11 44.896ZM1022.23 58.192C1020.86 58.192 1019.62 57.912 1018.51 57.352C1017.43 56.776 1016.57 55.984 1015.95 54.976C1015.34 53.968 1015.03 52.824 1015.03 51.544C1015.03 50.264 1015.34 49.12 1015.95 48.112C1016.57 47.104 1017.43 46.32 1018.51 45.76C1019.62 45.184 1020.86 44.896 1022.23 44.896C1023.59 44.896 1024.78 45.184 1025.79 45.76C1026.81 46.32 1027.55 47.128 1028.02 48.184L1025.11 49.744C1024.44 48.56 1023.47 47.968 1022.21 47.968C1021.23 47.968 1020.43 48.288 1019.79 48.928C1019.15 49.568 1018.83 50.44 1018.83 51.544C1018.83 52.648 1019.15 53.52 1019.79 54.16C1020.43 54.8 1021.23 55.12 1022.21 55.12C1023.49 55.12 1024.46 54.528 1025.11 53.344L1028.02 54.928C1027.55 55.952 1026.81 56.752 1025.79 57.328C1024.78 57.904 1023.59 58.192 1022.23 58.192ZM1030.17 45.088H1033.92V58H1030.17V45.088ZM1032.05 43.288C1031.36 43.288 1030.8 43.088 1030.37 42.688C1029.93 42.288 1029.72 41.792 1029.72 41.2C1029.72 40.608 1029.93 40.112 1030.37 39.712C1030.8 39.312 1031.36 39.112 1032.05 39.112C1032.73 39.112 1033.29 39.304 1033.73 39.688C1034.16 40.072 1034.37 40.552 1034.37 41.128C1034.37 41.752 1034.16 42.272 1033.73 42.688C1033.29 43.088 1032.73 43.288 1032.05 43.288ZM1040.97 46.792C1041.42 46.168 1042.02 45.696 1042.77 45.376C1043.54 45.056 1044.42 44.896 1045.41 44.896V48.352C1044.99 48.32 1044.71 48.304 1044.57 48.304C1043.5 48.304 1042.66 48.608 1042.05 49.216C1041.44 49.808 1041.14 50.704 1041.14 51.904V58H1037.39V45.088H1040.97V46.792ZM1047.63 40.192H1051.38V58H1047.63V40.192ZM1054.85 45.088H1058.6V58H1054.85V45.088ZM1056.73 43.288C1056.04 43.288 1055.48 43.088 1055.05 42.688C1054.61 42.288 1054.4 41.792 1054.4 41.2C1054.4 40.608 1054.61 40.112 1055.05 39.712C1055.48 39.312 1056.04 39.112 1056.73 39.112C1057.41 39.112 1057.97 39.304 1058.41 39.688C1058.84 40.072 1059.05 40.552 1059.05 41.128C1059.05 41.752 1058.84 42.272 1058.41 42.688C1057.97 43.088 1057.41 43.288 1056.73 43.288Z" fill="black"/>
<path d="M1159.54 29.288C1157.79 29.288 1156.22 28.912 1154.81 28.16C1153.42 27.408 1152.32 26.376 1151.52 25.064C1150.74 23.736 1150.35 22.248 1150.35 20.6C1150.35 18.952 1150.74 17.472 1151.52 16.16C1152.32 14.832 1153.42 13.792 1154.81 13.04C1156.22 12.288 1157.79 11.912 1159.54 11.912C1161.28 11.912 1162.85 12.288 1164.24 13.04C1165.63 13.792 1166.73 14.832 1167.53 16.16C1168.33 17.472 1168.73 18.952 1168.73 20.6C1168.73 22.248 1168.33 23.736 1167.53 25.064C1166.73 26.376 1165.63 27.408 1164.24 28.16C1162.85 28.912 1161.28 29.288 1159.54 29.288ZM1159.54 25.976C1160.53 25.976 1161.43 25.752 1162.23 25.304C1163.03 24.84 1163.65 24.2 1164.1 23.384C1164.56 22.568 1164.79 21.64 1164.79 20.6C1164.79 19.56 1164.56 18.632 1164.1 17.816C1163.65 17 1163.03 16.368 1162.23 15.92C1161.43 15.456 1160.53 15.224 1159.54 15.224C1158.55 15.224 1157.65 15.456 1156.85 15.92C1156.05 16.368 1155.42 17 1154.95 17.816C1154.51 18.632 1154.28 19.56 1154.28 20.6C1154.28 21.64 1154.51 22.568 1154.95 23.384C1155.42 24.2 1156.05 24.84 1156.85 25.304C1157.65 25.752 1158.55 25.976 1159.54 25.976ZM1157.11 10.712C1156.63 10.712 1156.23 10.56 1155.91 10.256C1155.59 9.936 1155.43 9.536 1155.43 9.056C1155.43 8.576 1155.59 8.184 1155.91 7.88C1156.23 7.56 1156.63 7.4 1157.11 7.4C1157.59 7.4 1157.99 7.56 1158.29 7.88C1158.61 8.184 1158.77 8.576 1158.77 9.056C1158.77 9.536 1158.61 9.936 1158.29 10.256C1157.99 10.56 1157.59 10.712 1157.11 10.712ZM1161.96 10.712C1161.48 10.712 1161.08 10.56 1160.76 10.256C1160.46 9.936 1160.31 9.536 1160.31 9.056C1160.31 8.576 1160.46 8.184 1160.76 7.88C1161.08 7.56 1161.48 7.4 1161.96 7.4C1162.44 7.4 1162.84 7.56 1163.16 7.88C1163.48 8.184 1163.64 8.576 1163.64 9.056C1163.64 9.536 1163.48 9.936 1163.16 10.256C1162.84 10.56 1162.44 10.712 1161.96 10.712ZM1182.02 26.12V29H1170.5V26.744L1177.08 18.968H1170.67V16.088H1181.8V18.344L1175.23 26.12H1182.02ZM1197.58 16.088V26.84C1197.58 29.208 1196.96 30.968 1195.73 32.12C1194.5 33.272 1192.7 33.848 1190.33 33.848C1189.08 33.848 1187.9 33.696 1186.78 33.392C1185.66 33.088 1184.73 32.648 1183.99 32.072L1185.48 29.384C1186.02 29.832 1186.71 30.184 1187.54 30.44C1188.38 30.712 1189.21 30.848 1190.04 30.848C1191.34 30.848 1192.29 30.552 1192.9 29.96C1193.52 29.384 1193.83 28.504 1193.83 27.32V26.768C1192.86 27.84 1191.5 28.376 1189.75 28.376C1188.57 28.376 1187.48 28.12 1186.49 27.608C1185.51 27.08 1184.74 26.344 1184.16 25.4C1183.58 24.456 1183.3 23.368 1183.3 22.136C1183.3 20.904 1183.58 19.816 1184.16 18.872C1184.74 17.928 1185.51 17.2 1186.49 16.688C1187.48 16.16 1188.57 15.896 1189.75 15.896C1191.62 15.896 1193.05 16.512 1194.02 17.744V16.088H1197.58ZM1190.5 25.304C1191.49 25.304 1192.3 25.016 1192.92 24.44C1193.56 23.848 1193.88 23.08 1193.88 22.136C1193.88 21.192 1193.56 20.432 1192.92 19.856C1192.3 19.264 1191.49 18.968 1190.5 18.968C1189.5 18.968 1188.69 19.264 1188.05 19.856C1187.41 20.432 1187.09 21.192 1187.09 22.136C1187.09 23.08 1187.41 23.848 1188.05 24.44C1188.69 25.016 1189.5 25.304 1190.5 25.304ZM1214.07 16.088V29H1210.52V27.464C1210.02 28.024 1209.43 28.456 1208.74 28.76C1208.05 29.048 1207.31 29.192 1206.51 29.192C1204.81 29.192 1203.47 28.704 1202.48 27.728C1201.48 26.752 1200.99 25.304 1200.99 23.384V16.088H1204.73V22.832C1204.73 24.912 1205.6 25.952 1207.35 25.952C1208.24 25.952 1208.96 25.664 1209.51 25.088C1210.05 24.496 1210.32 23.624 1210.32 22.472V16.088H1214.07ZM1205.09 14.312C1204.61 14.312 1204.21 14.16 1203.89 13.856C1203.57 13.536 1203.41 13.136 1203.41 12.656C1203.41 12.176 1203.57 11.784 1203.89 11.48C1204.21 11.16 1204.61 11 1205.09 11C1205.57 11 1205.96 11.16 1206.27 11.48C1206.59 11.784 1206.75 12.176 1206.75 12.656C1206.75 13.136 1206.59 13.536 1206.27 13.856C1205.96 14.16 1205.57 14.312 1205.09 14.312ZM1209.94 14.312C1209.46 14.312 1209.06 14.16 1208.74 13.856C1208.44 13.536 1208.28 13.136 1208.28 12.656C1208.28 12.176 1208.44 11.784 1208.74 11.48C1209.06 11.16 1209.46 11 1209.94 11C1210.42 11 1210.82 11.16 1211.14 11.48C1211.46 11.784 1211.62 12.176 1211.62 12.656C1211.62 13.136 1211.46 13.536 1211.14 13.856C1210.82 14.16 1210.42 14.312 1209.94 14.312ZM1221.11 17.792C1221.56 17.168 1222.16 16.696 1222.91 16.376C1223.68 16.056 1224.56 15.896 1225.55 15.896V19.352C1225.14 19.32 1224.86 19.304 1224.71 19.304C1223.64 19.304 1222.8 19.608 1222.19 20.216C1221.58 20.808 1221.28 21.704 1221.28 22.904V29H1217.54V16.088H1221.11V17.792ZM1227.78 11.192H1231.52V29H1227.78V11.192ZM1248.01 16.088V29H1244.45V27.464C1243.96 28.024 1243.37 28.456 1242.68 28.76C1241.99 29.048 1241.25 29.192 1240.45 29.192C1238.75 29.192 1237.41 28.704 1236.41 27.728C1235.42 26.752 1234.93 25.304 1234.93 23.384V16.088H1238.67V22.832C1238.67 24.912 1239.54 25.952 1241.29 25.952C1242.18 25.952 1242.9 25.664 1243.45 25.088C1243.99 24.496 1244.26 23.624 1244.26 22.472V16.088H1248.01ZM1239.03 14.312C1238.55 14.312 1238.15 14.16 1237.83 13.856C1237.51 13.536 1237.35 13.136 1237.35 12.656C1237.35 12.176 1237.51 11.784 1237.83 11.48C1238.15 11.16 1238.55 11 1239.03 11C1239.51 11 1239.9 11.16 1240.21 11.48C1240.53 11.784 1240.69 12.176 1240.69 12.656C1240.69 13.136 1240.53 13.536 1240.21 13.856C1239.9 14.16 1239.51 14.312 1239.03 14.312ZM1243.88 14.312C1243.4 14.312 1243 14.16 1242.68 13.856C1242.37 13.536 1242.22 13.136 1242.22 12.656C1242.22 12.176 1242.37 11.784 1242.68 11.48C1243 11.16 1243.4 11 1243.88 11C1244.36 11 1244.76 11.16 1245.08 11.48C1245.4 11.784 1245.56 12.176 1245.56 12.656C1245.56 13.136 1245.4 13.536 1245.08 13.856C1244.76 14.16 1244.36 14.312 1243.88 14.312ZM1257.02 23.936L1255.22 25.712V29H1251.47V11.192H1255.22V21.272L1260.69 16.088H1265.15L1259.78 21.56L1265.63 29H1261.1L1257.02 23.936ZM1171.25 58L1171.22 47.92L1166.28 56.224H1164.53L1159.61 48.136V58H1155.96V41.2H1159.18L1165.46 51.64L1171.66 41.2H1174.85L1174.9 58H1171.25ZM1191.27 51.592C1191.27 51.64 1191.24 51.976 1191.19 52.6H1181.43C1181.6 53.4 1182.02 54.032 1182.67 54.496C1183.33 54.96 1184.15 55.192 1185.12 55.192C1185.79 55.192 1186.39 55.096 1186.9 54.904C1187.43 54.696 1187.91 54.376 1188.36 53.944L1190.35 56.104C1189.14 57.496 1187.36 58.192 1185.03 58.192C1183.57 58.192 1182.28 57.912 1181.16 57.352C1180.04 56.776 1179.18 55.984 1178.57 54.976C1177.96 53.968 1177.66 52.824 1177.66 51.544C1177.66 50.28 1177.95 49.144 1178.55 48.136C1179.15 47.112 1179.98 46.32 1181.02 45.76C1182.07 45.184 1183.25 44.896 1184.55 44.896C1185.81 44.896 1186.95 45.168 1187.98 45.712C1189 46.256 1189.8 47.04 1190.38 48.064C1190.97 49.072 1191.27 50.248 1191.27 51.592ZM1184.57 47.728C1183.72 47.728 1183.01 47.968 1182.43 48.448C1181.86 48.928 1181.51 49.584 1181.38 50.416H1187.74C1187.61 49.6 1187.26 48.952 1186.68 48.472C1186.11 47.976 1185.4 47.728 1184.57 47.728ZM1206.34 45.088L1200.51 58.792C1199.92 60.28 1199.18 61.328 1198.3 61.936C1197.44 62.544 1196.39 62.848 1195.16 62.848C1194.48 62.848 1193.82 62.744 1193.16 62.536C1192.51 62.328 1191.97 62.04 1191.56 61.672L1192.92 59.008C1193.21 59.264 1193.54 59.464 1193.91 59.608C1194.29 59.752 1194.67 59.824 1195.04 59.824C1195.55 59.824 1195.96 59.696 1196.28 59.44C1196.6 59.2 1196.89 58.792 1197.15 58.216L1197.2 58.096L1191.6 45.088H1195.47L1199.09 53.848L1202.74 45.088H1206.34ZM1220.67 40.192V58H1217.09V56.512C1216.17 57.632 1214.82 58.192 1213.06 58.192C1211.85 58.192 1210.74 57.92 1209.75 57.376C1208.77 56.832 1208.01 56.056 1207.45 55.048C1206.89 54.04 1206.61 52.872 1206.61 51.544C1206.61 50.216 1206.89 49.048 1207.45 48.04C1208.01 47.032 1208.77 46.256 1209.75 45.712C1210.74 45.168 1211.85 44.896 1213.06 44.896C1214.71 44.896 1216 45.416 1216.93 46.456V40.192H1220.67ZM1213.71 55.12C1214.65 55.12 1215.44 54.8 1216.06 54.16C1216.69 53.504 1217 52.632 1217 51.544C1217 50.456 1216.69 49.592 1216.06 48.952C1215.44 48.296 1214.65 47.968 1213.71 47.968C1212.75 47.968 1211.96 48.296 1211.33 48.952C1210.71 49.592 1210.4 50.456 1210.4 51.544C1210.4 52.632 1210.71 53.504 1211.33 54.16C1211.96 54.8 1212.75 55.12 1213.71 55.12ZM1229.34 44.896C1231.34 44.896 1232.88 45.376 1233.95 46.336C1235.02 47.28 1235.56 48.712 1235.56 50.632V58H1232.05V56.392C1231.35 57.592 1230.04 58.192 1228.12 58.192C1227.13 58.192 1226.26 58.024 1225.53 57.688C1224.81 57.352 1224.25 56.888 1223.87 56.296C1223.49 55.704 1223.29 55.032 1223.29 54.28C1223.29 53.08 1223.74 52.136 1224.64 51.448C1225.55 50.76 1226.95 50.416 1228.84 50.416H1231.81C1231.81 49.6 1231.57 48.976 1231.07 48.544C1230.57 48.096 1229.83 47.872 1228.84 47.872C1228.15 47.872 1227.47 47.984 1226.8 48.208C1226.14 48.416 1225.58 48.704 1225.12 49.072L1223.77 46.456C1224.48 45.96 1225.32 45.576 1226.29 45.304C1227.29 45.032 1228.3 44.896 1229.34 44.896ZM1229.05 55.672C1229.69 55.672 1230.26 55.528 1230.76 55.24C1231.25 54.936 1231.61 54.496 1231.81 53.92V52.6H1229.25C1227.71 52.6 1226.94 53.104 1226.94 54.112C1226.94 54.592 1227.13 54.976 1227.49 55.264C1227.88 55.536 1228.4 55.672 1229.05 55.672ZM1246.79 44.896C1248.39 44.896 1249.68 45.376 1250.66 46.336C1251.65 47.296 1252.15 48.72 1252.15 50.608V58H1248.4V51.184C1248.4 50.16 1248.18 49.4 1247.73 48.904C1247.28 48.392 1246.63 48.136 1245.79 48.136C1244.84 48.136 1244.09 48.432 1243.53 49.024C1242.97 49.6 1242.69 50.464 1242.69 51.616V58H1238.95V45.088H1242.52V46.6C1243.02 46.056 1243.63 45.64 1244.37 45.352C1245.11 45.048 1245.91 44.896 1246.79 44.896ZM1255.54 45.088H1259.28V58H1255.54V45.088Z" fill="black"/>
<path d="M1350.64 20.264C1351.6 20.568 1352.35 21.08 1352.9 21.8C1353.44 22.504 1353.71 23.376 1353.71 24.416C1353.71 25.888 1353.14 27.024 1351.98 27.824C1350.85 28.608 1349.18 29 1346.99 29H1338.3V12.2H1346.51C1348.56 12.2 1350.13 12.592 1351.22 13.376C1352.32 14.16 1352.87 15.224 1352.87 16.568C1352.87 17.384 1352.67 18.112 1352.27 18.752C1351.89 19.392 1351.34 19.896 1350.64 20.264ZM1342.17 15.128V19.088H1346.03C1346.99 19.088 1347.72 18.92 1348.22 18.584C1348.71 18.248 1348.96 17.752 1348.96 17.096C1348.96 16.44 1348.71 15.952 1348.22 15.632C1347.72 15.296 1346.99 15.128 1346.03 15.128H1342.17ZM1346.7 26.072C1347.73 26.072 1348.5 25.904 1349.01 25.568C1349.54 25.232 1349.8 24.712 1349.8 24.008C1349.8 22.616 1348.77 21.92 1346.7 21.92H1342.17V26.072H1346.7ZM1361.6 15.896C1363.6 15.896 1365.14 16.376 1366.21 17.336C1367.28 18.28 1367.82 19.712 1367.82 21.632V29H1364.31V27.392C1363.61 28.592 1362.3 29.192 1360.38 29.192C1359.38 29.192 1358.52 29.024 1357.78 28.688C1357.06 28.352 1356.51 27.888 1356.13 27.296C1355.74 26.704 1355.55 26.032 1355.55 25.28C1355.55 24.08 1356 23.136 1356.9 22.448C1357.81 21.76 1359.21 21.416 1361.1 21.416H1364.07C1364.07 20.6 1363.82 19.976 1363.33 19.544C1362.83 19.096 1362.09 18.872 1361.1 18.872C1360.41 18.872 1359.73 18.984 1359.06 19.208C1358.4 19.416 1357.84 19.704 1357.38 20.072L1356.03 17.456C1356.74 16.96 1357.58 16.576 1358.55 16.304C1359.54 16.032 1360.56 15.896 1361.6 15.896ZM1361.31 26.672C1361.95 26.672 1362.52 26.528 1363.02 26.24C1363.51 25.936 1363.86 25.496 1364.07 24.92V23.6H1361.5C1359.97 23.6 1359.2 24.104 1359.2 25.112C1359.2 25.592 1359.38 25.976 1359.75 26.264C1360.14 26.536 1360.66 26.672 1361.31 26.672ZM1376.75 23.936L1374.95 25.712V29H1371.2V11.192H1374.95V21.272L1380.42 16.088H1384.88L1379.51 21.56L1385.36 29H1380.83L1376.75 23.936ZM1386.95 16.088H1390.7V29H1386.95V16.088ZM1397.75 17.792C1398.2 17.168 1398.8 16.696 1399.55 16.376C1400.32 16.056 1401.2 15.896 1402.19 15.896V19.352C1401.77 19.32 1401.49 19.304 1401.35 19.304C1400.28 19.304 1399.44 19.608 1398.83 20.216C1398.22 20.808 1397.92 21.704 1397.92 22.904V29H1394.17V16.088H1397.75V17.792ZM1409.96 23.936L1408.16 25.712V29H1404.42V11.192H1408.16V21.272L1413.63 16.088H1418.1L1412.72 21.56L1418.58 29H1414.04L1409.96 23.936ZM1425.84 29.192C1424.48 29.192 1423.26 28.912 1422.17 28.352C1421.1 27.776 1420.26 26.984 1419.65 25.976C1419.04 24.968 1418.74 23.824 1418.74 22.544C1418.74 21.264 1419.04 20.12 1419.65 19.112C1420.26 18.104 1421.1 17.32 1422.17 16.76C1423.26 16.184 1424.48 15.896 1425.84 15.896C1427.2 15.896 1428.42 16.184 1429.49 16.76C1430.56 17.32 1431.4 18.104 1432.01 19.112C1432.62 20.12 1432.92 21.264 1432.92 22.544C1432.92 23.824 1432.62 24.968 1432.01 25.976C1431.4 26.984 1430.56 27.776 1429.49 28.352C1428.42 28.912 1427.2 29.192 1425.84 29.192ZM1425.84 26.12C1426.8 26.12 1427.58 25.8 1428.19 25.16C1428.82 24.504 1429.13 23.632 1429.13 22.544C1429.13 21.456 1428.82 20.592 1428.19 19.952C1427.58 19.296 1426.8 18.968 1425.84 18.968C1424.88 18.968 1424.09 19.296 1423.46 19.952C1422.84 20.592 1422.53 21.456 1422.53 22.544C1422.53 23.632 1422.84 24.504 1423.46 25.16C1424.09 25.8 1424.88 26.12 1425.84 26.12ZM1423.37 14.312C1422.89 14.312 1422.49 14.16 1422.17 13.856C1421.85 13.536 1421.69 13.136 1421.69 12.656C1421.69 12.176 1421.85 11.784 1422.17 11.48C1422.49 11.16 1422.89 11 1423.37 11C1423.85 11 1424.24 11.16 1424.54 11.48C1424.86 11.784 1425.02 12.176 1425.02 12.656C1425.02 13.136 1424.86 13.536 1424.54 13.856C1424.24 14.16 1423.85 14.312 1423.37 14.312ZM1428.22 14.312C1427.74 14.312 1427.34 14.16 1427.02 13.856C1426.71 13.536 1426.56 13.136 1426.56 12.656C1426.56 12.176 1426.71 11.784 1427.02 11.48C1427.34 11.16 1427.74 11 1428.22 11C1428.7 11 1429.1 11.16 1429.42 11.48C1429.74 11.784 1429.9 12.176 1429.9 12.656C1429.9 13.136 1429.74 13.536 1429.42 13.856C1429.1 14.16 1428.7 14.312 1428.22 14.312ZM1447.89 16.088L1442.06 29.792C1441.46 31.28 1440.73 32.328 1439.85 32.936C1438.98 33.544 1437.94 33.848 1436.7 33.848C1436.03 33.848 1435.37 33.744 1434.71 33.536C1434.06 33.328 1433.52 33.04 1433.1 32.672L1434.47 30.008C1434.76 30.264 1435.09 30.464 1435.46 30.608C1435.84 30.752 1436.22 30.824 1436.58 30.824C1437.1 30.824 1437.51 30.696 1437.83 30.44C1438.15 30.2 1438.44 29.792 1438.7 29.216L1438.74 29.096L1433.15 16.088H1437.02L1440.64 24.848L1444.29 16.088H1447.89ZM1368.94 58.288C1367.61 58.288 1366.32 58.112 1365.07 57.76C1363.84 57.392 1362.85 56.92 1362.1 56.344L1363.42 53.416C1364.14 53.944 1364.99 54.368 1365.99 54.688C1366.98 55.008 1367.97 55.168 1368.96 55.168C1370.07 55.168 1370.88 55.008 1371.41 54.688C1371.94 54.352 1372.2 53.912 1372.2 53.368C1372.2 52.968 1372.04 52.64 1371.72 52.384C1371.42 52.112 1371.02 51.896 1370.52 51.736C1370.04 51.576 1369.39 51.4 1368.55 51.208C1367.27 50.904 1366.23 50.6 1365.41 50.296C1364.59 49.992 1363.89 49.504 1363.3 48.832C1362.72 48.16 1362.43 47.264 1362.43 46.144C1362.43 45.168 1362.7 44.288 1363.23 43.504C1363.75 42.704 1364.55 42.072 1365.6 41.608C1366.67 41.144 1367.98 40.912 1369.51 40.912C1370.59 40.912 1371.63 41.04 1372.66 41.296C1373.68 41.552 1374.58 41.92 1375.35 42.4L1374.15 45.352C1372.59 44.472 1371.04 44.032 1369.49 44.032C1368.4 44.032 1367.59 44.208 1367.07 44.56C1366.55 44.912 1366.3 45.376 1366.3 45.952C1366.3 46.528 1366.59 46.96 1367.19 47.248C1367.79 47.52 1368.71 47.792 1369.95 48.064C1371.23 48.368 1372.27 48.672 1373.09 48.976C1373.91 49.28 1374.6 49.76 1375.18 50.416C1375.77 51.072 1376.07 51.96 1376.07 53.08C1376.07 54.04 1375.79 54.92 1375.25 55.72C1374.72 56.504 1373.92 57.128 1372.85 57.592C1371.78 58.056 1370.47 58.288 1368.94 58.288ZM1383.67 44.896C1385.67 44.896 1387.2 45.376 1388.27 46.336C1389.35 47.28 1389.88 48.712 1389.88 50.632V58H1386.38V56.392C1385.67 57.592 1384.36 58.192 1382.44 58.192C1381.45 58.192 1380.59 58.024 1379.85 57.688C1379.13 57.352 1378.58 56.888 1378.19 56.296C1377.81 55.704 1377.62 55.032 1377.62 54.28C1377.62 53.08 1378.07 52.136 1378.96 51.448C1379.87 50.76 1381.27 50.416 1383.16 50.416H1386.14C1386.14 49.6 1385.89 48.976 1385.39 48.544C1384.9 48.096 1384.15 47.872 1383.16 47.872C1382.47 47.872 1381.79 47.984 1381.12 48.208C1380.47 48.416 1379.91 48.704 1379.44 49.072L1378.1 46.456C1378.8 45.96 1379.64 45.576 1380.62 45.304C1381.61 45.032 1382.63 44.896 1383.67 44.896ZM1383.38 55.672C1384.02 55.672 1384.59 55.528 1385.08 55.24C1385.58 54.936 1385.93 54.496 1386.14 53.92V52.6H1383.57C1382.03 52.6 1381.27 53.104 1381.27 54.112C1381.27 54.592 1381.45 54.976 1381.82 55.264C1382.2 55.536 1382.72 55.672 1383.38 55.672ZM1401.12 44.896C1402.72 44.896 1404.01 45.376 1404.98 46.336C1405.97 47.296 1406.47 48.72 1406.47 50.608V58H1402.73V51.184C1402.73 50.16 1402.5 49.4 1402.05 48.904C1401.61 48.392 1400.96 48.136 1400.11 48.136C1399.17 48.136 1398.41 48.432 1397.85 49.024C1397.29 49.6 1397.01 50.464 1397.01 51.616V58H1393.27V40.192H1397.01V46.432C1397.51 45.936 1398.11 45.56 1398.81 45.304C1399.52 45.032 1400.29 44.896 1401.12 44.896ZM1409.86 45.088H1413.61V58H1409.86V45.088ZM1411.74 43.288C1411.05 43.288 1410.49 43.088 1410.06 42.688C1409.62 42.288 1409.41 41.792 1409.41 41.2C1409.41 40.608 1409.62 40.112 1410.06 39.712C1410.49 39.312 1411.05 39.112 1411.74 39.112C1412.42 39.112 1412.98 39.304 1413.42 39.688C1413.85 40.072 1414.06 40.552 1414.06 41.128C1414.06 41.752 1413.85 42.272 1413.42 42.688C1412.98 43.088 1412.42 43.288 1411.74 43.288ZM1417.08 40.192H1420.83V58H1417.08V40.192Z" fill="black"/>
<rect x="1022" y="123" width="6" height="20" fill="black"/>
<circle cx="1207" cy="100" r="24" fill="black"/>
<ellipse cx="1207" cy="99.9939" rx="19.2" ry="19.2" fill="white"/>
<rect x="1204" y="123" width="6" height="21" fill="black"/>
<circle cx="1392" cy="100" r="24" fill="#00A7E1"/>
<g clip-path="url(#clip1_495_5065)">
<path d="M1189 161C1189 157.44 1190.06 153.96 1192.03 151C1194.01 148.04 1196.82 145.733 1200.11 144.37C1203.4 143.008 1207.02 142.651 1210.51 143.346C1214 144.04 1217.21 145.755 1219.73 148.272C1222.25 150.789 1223.96 153.997 1224.65 157.488C1225.35 160.98 1224.99 164.599 1223.63 167.888C1222.27 171.177 1219.96 173.989 1217 175.966C1214.04 177.944 1210.56 179 1207 179C1204.67 179.029 1202.35 178.599 1200.18 177.732C1198.01 176.866 1196.04 175.581 1194.36 173.951C1192.69 172.321 1191.36 170.377 1190.44 168.231C1189.52 166.086 1189.03 163.78 1189 161.445V161Z" fill="#65656A"/>
<path d="M1197.37 167.674V154.305H1202.04C1204.77 154.305 1206.35 155.478 1206.35 157.723C1206.36 158.466 1206.09 159.184 1205.6 159.738C1205.1 160.292 1204.42 160.641 1203.68 160.717C1204.49 160.727 1205.26 161.051 1205.84 161.621C1206.41 162.191 1206.74 162.962 1206.76 163.771C1206.76 166.4 1204.87 167.634 1201.98 167.634L1197.37 167.674ZM1201.13 159.705C1202.89 159.705 1203.7 159.139 1203.7 158.087C1203.7 157.036 1203.16 156.409 1201.27 156.409H1200.04V159.705H1201.13ZM1201.36 165.571C1203.09 165.571 1204.09 164.964 1204.09 163.71C1204.09 162.456 1203.2 161.687 1201.42 161.687H1200.04V165.55L1201.36 165.571Z" fill="white"/>
<path d="M1212.64 167.674V157.36L1210.37 159.18L1209.04 157.42L1212.94 154.285H1215.29V167.674H1212.64Z" fill="white"/>
</g>
<g clip-path="url(#clip2_495_5065)">
<path d="M99.9998 124.033C95.2418 124.043 90.588 122.642 86.6274 120.009C82.6668 117.375 79.5774 113.627 77.7502 109.24C75.9229 104.852 75.4401 100.022 76.3626 95.3599C77.2852 90.6981 79.5717 86.4143 82.9329 83.0509C86.294 79.6874 90.5786 77.3954 95.2445 76.4649C99.9104 75.5344 104.748 76.0073 109.144 77.8237C113.541 79.6401 117.3 82.7183 119.944 86.6689C122.588 90.6194 124 95.2646 124 100.017C124 106.378 121.473 112.48 116.973 116.983C112.474 121.485 106.369 124.021 99.9998 124.033Z" fill="#00A7E1"/>
<path d="M84.3711 92.2246H89.3675L93.068 104.013H93.1081L96.8086 92.2246H101.798V107.775H98.8125V94.9398H98.7724L94.5843 107.775H91.5918L87.4037 94.9398L87.3569 94.9865V107.775H84.3711V92.2246Z" fill="white"/>
<path d="M104.796 104.88C105.894 105.333 107.068 105.576 108.256 105.594C109.545 105.594 111.529 104.967 111.529 103.386C111.529 101.558 110.08 100.957 108.096 100.957H106.579V98.5022H108.009C110.1 98.5022 111.462 97.8351 111.462 96.4541C111.462 94.8931 110.193 94.406 108.79 94.406C107.577 94.4073 106.381 94.6905 105.297 95.2333L105.117 92.7382C106.504 92.207 107.979 91.94 109.465 91.951C111.375 91.951 114.588 92.6181 114.588 95.9538C114.588 98.0753 113.252 99.076 111.689 99.6764V99.7231C113.693 99.9899 114.655 101.531 114.655 103.419C114.655 107.122 111.315 108.089 108.703 108.089C107.329 108.095 105.959 107.922 104.629 107.575L104.796 104.88Z" fill="white"/>
</g>
<g clip-path="url(#clip3_495_5065)">
<path d="M1004 179.025C1000.43 179.032 996.941 177.981 993.971 176.006C991 174.031 988.683 171.221 987.313 167.93C985.942 164.639 985.58 161.016 986.272 157.52C986.964 154.024 988.679 150.811 991.2 148.288C993.72 145.766 996.934 144.047 1000.43 143.349C1003.93 142.651 1007.56 143.005 1010.86 144.368C1014.16 145.73 1016.97 148.039 1018.96 151.002C1020.94 153.965 1022 157.448 1022 161.012C1022 165.784 1020.1 170.36 1016.73 173.737C1013.36 177.114 1008.78 179.016 1004 179.025Z" fill="#E1251B"/>
<path d="M988.516 155.579H991.992L994.572 163.794H994.602L997.177 155.579H1000.66V166.416H998.575V157.475H998.545L995.629 166.416H993.545L990.63 157.475L990.595 157.505V166.416H988.516V155.579Z" fill="white"/>
<path d="M1006.31 155.579H1008.24V166.416H1006.07V158.05L1004.24 159.541L1003.15 158.125L1006.31 155.579Z" fill="white"/>
<path d="M1013.47 159.191H1015.1L1017.94 166.416H1016.33L1015.71 164.76H1012.79L1012.16 166.416H1010.65L1013.47 159.191ZM1014.26 160.642L1013.22 163.644H1015.33L1014.26 160.642Z" fill="white"/>
</g>
<g clip-path="url(#clip4_495_5065)">
<mask id="path-41-inside-1_495_5065" fill="white">
<path d="M1029 146L1031.5 144H1060L1063 146V175.5L1060.5 178H1031.5L1029 175.5V146Z"/>
</mask>
<path d="M1031.5 144V80H1009.05L991.52 94.0244L1031.5 144ZM1029 146L989.02 96.0244L965 115.24V146H1029ZM1029 175.5H965V202.01L983.745 220.755L1029 175.5ZM1031.5 178L986.245 223.255L1004.99 242H1031.5V178ZM1060.5 178V242H1087.01L1105.75 223.255L1060.5 178ZM1063 175.5L1108.25 220.755L1127 202.01V175.5H1063ZM1063 146H1127V111.748L1098.5 92.7488L1063 146ZM1060 144L1095.5 90.7488L1079.38 80H1060V144ZM991.52 94.0244L989.02 96.0244L1068.98 195.976L1071.48 193.976L991.52 94.0244ZM965 146V175.5H1093V146H965ZM983.745 220.755L986.245 223.255L1076.75 132.745L1074.25 130.245L983.745 220.755ZM1031.5 242H1060.5V114H1031.5V242ZM1105.75 223.255L1108.25 220.755L1017.75 130.245L1015.25 132.745L1105.75 223.255ZM1127 175.5V146H999V175.5H1127ZM1098.5 92.7488L1095.5 90.7488L1024.5 197.251L1027.5 199.251L1098.5 92.7488ZM1060 80H1031.5V208H1060V80Z" fill="white" mask="url(#path-41-inside-1_495_5065)"/>
<path d="M1032.41 144.524C1030.81 144.524 1029.52 145.82 1029.52 147.412V174.589C1029.52 176.182 1030.81 177.476 1032.41 177.476H1059.59C1061.19 177.476 1062.48 176.182 1062.48 174.589V147.412C1062.48 145.82 1061.19 144.524 1059.59 144.524H1032.41ZM1059.59 179H1032.41C1029.98 179 1028 177.021 1028 174.589V147.412C1028 144.979 1029.98 143 1032.41 143H1059.59C1062.02 143 1064 144.979 1064 147.412V174.589C1064 177.021 1062.02 179 1059.59 179Z" fill="#0F1F5C"/>
<path d="M1050.7 167.671V169.035C1050.7 170.697 1053.16 170.697 1053.16 169.035V167.671C1054.7 167.671 1054.66 166.411 1054.66 166.411V159.667L1054.59 158.979L1053.76 152.672C1053.53 151.533 1052.79 151.077 1051.69 150.624C1050.59 150.175 1047.92 149.639 1045.99 149.623C1044.07 149.639 1041.4 150.175 1040.31 150.624C1039.2 151.077 1038.47 151.533 1038.24 152.672L1037.41 158.979L1037.34 159.667V166.411C1037.34 166.411 1037.3 167.671 1038.84 167.671V169.035C1038.84 170.697 1041.29 170.697 1041.29 169.035V167.671H1050.7ZM1051.93 164.946C1051.28 164.946 1050.75 164.424 1050.75 163.78C1050.75 163.135 1051.28 162.613 1051.93 162.613C1052.58 162.613 1053.11 163.135 1053.11 163.78C1053.11 164.424 1052.58 164.946 1051.93 164.946ZM1042.4 152.239C1041.71 152.239 1041.71 151.215 1042.4 151.215H1049.59C1050.28 151.215 1050.28 152.239 1049.59 152.239H1042.4ZM1051.49 153.273C1052.23 153.273 1052.42 153.641 1052.51 154.195L1053.11 158.77C1053.17 159.207 1053.04 159.644 1052.42 159.644H1039.57C1038.96 159.644 1038.83 159.207 1038.89 158.77L1039.49 154.195C1039.58 153.641 1039.77 153.273 1040.5 153.273H1051.49ZM1038.89 163.78C1038.89 163.135 1039.41 162.613 1040.07 162.613C1040.72 162.613 1041.24 163.135 1041.24 163.78C1041.24 164.424 1040.72 164.946 1040.07 164.946C1039.41 164.946 1038.89 164.424 1038.89 163.78Z" fill="#0F1F5C"/>
<path d="M1034 149.364V172.635" stroke="#0F1F5C" stroke-width="1.58533" stroke-miterlimit="3.864" stroke-linecap="round"/>
<path d="M1058 149.364V172.635" stroke="#0F1F5C" stroke-width="1.58533" stroke-miterlimit="3.864" stroke-linecap="round"/>
</g>
</g>
<defs>
<clipPath id="clip0_495_5065">
<rect width="1492" height="200" fill="white"/>
</clipPath>
<clipPath id="clip1_495_5065">
<rect width="36" height="36" fill="white" transform="translate(1189 143)"/>
</clipPath>
<clipPath id="clip2_495_5065">
<rect width="48" height="48" fill="white" transform="translate(76 76)"/>
</clipPath>
<clipPath id="clip3_495_5065">
<rect width="36" height="36" fill="white" transform="translate(986 143)"/>
</clipPath>
<clipPath id="clip4_495_5065">
<rect width="36" height="36" fill="white" transform="translate(1028 143)"/>
</clipPath>
</defs>
</svg>
