<svg width="5310" height="230" viewBox="0 0 5310 230" fill="none" xmlns="http://www.w3.org/2000/svg">
<rect x="160" y="170" width="120" height="30" fill="#D9D9D9"/>
<rect x="160" y="30" width="120" height="30" fill="#D9D9D9"/>
<path d="M164.074 122V107.684H166.965V114.041L172.805 107.684H176.691L171.301 113.26L176.984 122H173.244L169.309 115.281L166.965 117.674V122H164.074ZM193.398 122H190.254L189.004 118.748H183.281L182.1 122H179.033L184.609 107.684H187.666L193.398 122ZM188.076 116.336L186.104 111.023L184.17 116.336H188.076ZM198.865 122V115.975L193.621 107.684H197.01L200.379 113.348L203.68 107.684H207.01L201.746 115.994V122H198.865ZM221.52 122H218.375L217.125 118.748H211.402L210.221 122H207.154L212.73 107.684H215.787L221.52 122ZM216.197 116.336L214.225 111.023L212.291 116.336H216.197ZM224.33 117.342L227.143 117.068C227.312 118.012 227.654 118.706 228.168 119.148C228.689 119.591 229.389 119.812 230.268 119.812C231.199 119.812 231.898 119.617 232.367 119.227C232.842 118.829 233.08 118.367 233.08 117.84C233.08 117.501 232.979 117.215 232.777 116.98C232.582 116.74 232.237 116.531 231.742 116.355C231.404 116.238 230.632 116.03 229.428 115.73C227.878 115.346 226.791 114.874 226.166 114.314C225.287 113.527 224.848 112.566 224.848 111.434C224.848 110.704 225.053 110.024 225.463 109.393C225.88 108.755 226.475 108.27 227.25 107.938C228.031 107.605 228.972 107.439 230.072 107.439C231.869 107.439 233.22 107.833 234.125 108.621C235.036 109.409 235.515 110.46 235.561 111.775L232.67 111.902C232.546 111.167 232.279 110.639 231.869 110.32C231.465 109.995 230.857 109.832 230.043 109.832C229.203 109.832 228.546 110.005 228.07 110.35C227.764 110.571 227.611 110.867 227.611 111.238C227.611 111.577 227.755 111.867 228.041 112.107C228.406 112.413 229.291 112.732 230.697 113.064C232.104 113.396 233.142 113.742 233.812 114.1C234.49 114.451 235.017 114.936 235.395 115.555C235.779 116.167 235.971 116.925 235.971 117.83C235.971 118.65 235.743 119.419 235.287 120.135C234.831 120.851 234.187 121.385 233.354 121.736C232.52 122.081 231.482 122.254 230.238 122.254C228.428 122.254 227.038 121.837 226.068 121.004C225.098 120.164 224.519 118.943 224.33 117.342ZM227.621 125.936V124.783C228.292 124.855 228.907 124.891 229.467 124.891C230.046 124.891 230.476 124.786 230.756 124.578C230.971 124.422 231.078 124.22 231.078 123.973C231.078 123.751 230.977 123.559 230.775 123.396C230.574 123.234 230.261 123.152 229.838 123.152C229.421 123.152 228.995 123.217 228.559 123.348L228.812 122.381C229.32 122.205 229.867 122.117 230.453 122.117C231.267 122.117 231.885 122.296 232.309 122.654C232.732 123.012 232.943 123.449 232.943 123.963C232.943 124.536 232.709 125.001 232.24 125.359C231.609 125.848 230.704 126.092 229.525 126.092C228.686 126.092 228.051 126.04 227.621 125.936ZM240.412 122V107.684H243.303V113.318H248.967V107.684H251.857V122H248.967V115.74H243.303V122H240.412ZM256.768 122V107.684H259.658V122H256.768ZM256.875 106.863V104.266H259.57V106.863H256.875ZM264.432 122V107.684H270.516C272.046 107.684 273.156 107.814 273.846 108.074C274.542 108.328 275.099 108.784 275.516 109.441C275.932 110.099 276.141 110.851 276.141 111.697C276.141 112.771 275.825 113.66 275.193 114.363C274.562 115.06 273.618 115.499 272.361 115.682C272.986 116.046 273.501 116.447 273.904 116.883C274.314 117.319 274.865 118.094 275.555 119.207L277.303 122H273.846L271.756 118.885C271.014 117.771 270.506 117.072 270.232 116.785C269.959 116.492 269.669 116.294 269.363 116.189C269.057 116.079 268.572 116.023 267.908 116.023H267.322V122H264.432ZM267.322 113.738H269.461C270.848 113.738 271.714 113.68 272.059 113.562C272.404 113.445 272.674 113.243 272.869 112.957C273.064 112.671 273.162 112.312 273.162 111.883C273.162 111.401 273.032 111.014 272.771 110.721C272.518 110.421 272.156 110.232 271.688 110.154C271.453 110.122 270.75 110.105 269.578 110.105H267.322V113.738Z" fill="#949494"/>
<rect x="500" y="100" width="120" height="30" fill="#D9D9D9"/>
<path d="M508.205 122V110.105H503.957V107.684H515.334V110.105H511.096V122H508.205ZM519.209 122V107.684H523.848C525.605 107.684 526.751 107.755 527.285 107.898C528.105 108.113 528.792 108.582 529.346 109.305C529.899 110.021 530.176 110.949 530.176 112.088C530.176 112.967 530.016 113.706 529.697 114.305C529.378 114.904 528.971 115.376 528.477 115.721C527.988 116.059 527.49 116.284 526.982 116.395C526.292 116.531 525.293 116.6 523.984 116.6H522.1V122H519.209ZM522.1 110.105V114.168H523.682C524.821 114.168 525.583 114.093 525.967 113.943C526.351 113.794 526.65 113.559 526.865 113.24C527.087 112.921 527.197 112.55 527.197 112.127C527.197 111.606 527.044 111.176 526.738 110.838C526.432 110.499 526.045 110.288 525.576 110.203C525.231 110.138 524.538 110.105 523.496 110.105H522.1ZM534.627 122V107.801H537.518V119.588H544.705V122H534.627ZM548.756 107.684H551.646V115.438C551.646 116.668 551.682 117.465 551.754 117.83C551.878 118.416 552.171 118.888 552.633 119.246C553.102 119.598 553.74 119.773 554.547 119.773C555.367 119.773 555.986 119.607 556.402 119.275C556.819 118.937 557.07 118.523 557.154 118.035C557.239 117.547 557.281 116.736 557.281 115.604V107.684H560.172V115.203C560.172 116.922 560.094 118.136 559.938 118.846C559.781 119.555 559.492 120.154 559.068 120.643C558.652 121.131 558.092 121.521 557.389 121.814C556.686 122.101 555.768 122.244 554.635 122.244C553.268 122.244 552.229 122.088 551.52 121.775C550.816 121.456 550.26 121.046 549.85 120.545C549.439 120.037 549.169 119.507 549.039 118.953C548.85 118.133 548.756 116.922 548.756 115.32V107.684ZM572.834 122V107.684H575.725V114.041L581.564 107.684H585.451L580.061 113.26L585.744 122H582.004L578.068 115.281L575.725 117.674V122H572.834ZM589.277 122V107.684H592.09L597.949 117.244V107.684H600.635V122H597.734L591.963 112.664V122H589.277ZM608.924 122V110.105H604.676V107.684H616.053V110.105H611.814V122H608.924Z" fill="#949494"/>
<rect x="700" y="170" width="120" height="30" fill="#D9D9D9"/>
<rect x="700" y="30" width="120" height="30" fill="#D9D9D9"/>
<path d="M707.848 122V107.684H710.738V113.318H716.402V107.684H719.293V122H716.402V115.74H710.738V122H707.848ZM737.201 122H734.057L732.807 118.748H727.084L725.902 122H722.836L728.412 107.684H731.469L737.201 122ZM731.879 116.336L729.906 111.023L727.973 116.336H731.879ZM740.012 117.342L742.824 117.068C742.993 118.012 743.335 118.706 743.85 119.148C744.37 119.591 745.07 119.812 745.949 119.812C746.88 119.812 747.58 119.617 748.049 119.227C748.524 118.829 748.762 118.367 748.762 117.84C748.762 117.501 748.661 117.215 748.459 116.98C748.264 116.74 747.919 116.531 747.424 116.355C747.085 116.238 746.314 116.03 745.109 115.73C743.56 115.346 742.473 114.874 741.848 114.314C740.969 113.527 740.529 112.566 740.529 111.434C740.529 110.704 740.734 110.024 741.145 109.393C741.561 108.755 742.157 108.27 742.932 107.938C743.713 107.605 744.654 107.439 745.754 107.439C747.551 107.439 748.902 107.833 749.807 108.621C750.718 109.409 751.197 110.46 751.242 111.775L748.352 111.902C748.228 111.167 747.961 110.639 747.551 110.32C747.147 109.995 746.538 109.832 745.725 109.832C744.885 109.832 744.227 110.005 743.752 110.35C743.446 110.571 743.293 110.867 743.293 111.238C743.293 111.577 743.436 111.867 743.723 112.107C744.087 112.413 744.973 112.732 746.379 113.064C747.785 113.396 748.824 113.742 749.494 114.1C750.171 114.451 750.699 114.936 751.076 115.555C751.46 116.167 751.652 116.925 751.652 117.83C751.652 118.65 751.424 119.419 750.969 120.135C750.513 120.851 749.868 121.385 749.035 121.736C748.202 122.081 747.163 122.254 745.92 122.254C744.11 122.254 742.72 121.837 741.75 121.004C740.78 120.164 740.201 118.943 740.012 117.342ZM759.307 122V110.105H755.059V107.684H766.436V110.105H762.197V122H759.307ZM781.736 122H778.592L777.342 118.748H771.619L770.438 122H767.371L772.947 107.684H776.004L781.736 122ZM776.414 116.336L774.441 111.023L772.508 116.336H776.414ZM785.309 122V107.684H788.121L793.98 117.244V107.684H796.666V122H793.766L787.994 112.664V122H785.309ZM801.732 122V107.684H812.348V110.105H804.623V113.279H811.811V115.691H804.623V119.588H812.621V122H801.732Z" fill="#949494"/>
<rect x="1000" y="100" width="120" height="30" fill="#D9D9D9"/>
<path d="M1005.4 114.93C1005.4 113.471 1005.61 112.247 1006.05 111.258C1006.38 110.529 1006.82 109.874 1007.38 109.295C1007.95 108.715 1008.56 108.286 1009.23 108.006C1010.13 107.628 1011.15 107.439 1012.32 107.439C1014.43 107.439 1016.12 108.094 1017.38 109.402C1018.65 110.711 1019.28 112.531 1019.28 114.861C1019.28 117.173 1018.65 118.982 1017.4 120.291C1016.14 121.593 1014.46 122.244 1012.36 122.244C1010.23 122.244 1008.54 121.596 1007.28 120.301C1006.02 118.999 1005.4 117.208 1005.4 114.93ZM1008.38 114.832C1008.38 116.453 1008.75 117.684 1009.5 118.523C1010.25 119.357 1011.2 119.773 1012.35 119.773C1013.5 119.773 1014.45 119.36 1015.18 118.533C1015.92 117.7 1016.29 116.453 1016.29 114.793C1016.29 113.152 1015.93 111.928 1015.21 111.121C1014.49 110.314 1013.54 109.91 1012.35 109.91C1011.16 109.91 1010.2 110.32 1009.47 111.141C1008.74 111.954 1008.38 113.185 1008.38 114.832ZM1023.58 122V107.684H1026.39L1032.25 117.244V107.684H1034.94V122H1032.04L1026.26 112.664V122H1023.58ZM1040.01 122V107.684H1046.1C1047.63 107.684 1048.74 107.814 1049.43 108.074C1050.12 108.328 1050.68 108.784 1051.1 109.441C1051.51 110.099 1051.72 110.851 1051.72 111.697C1051.72 112.771 1051.4 113.66 1050.77 114.363C1050.14 115.06 1049.2 115.499 1047.94 115.682C1048.57 116.046 1049.08 116.447 1049.48 116.883C1049.89 117.319 1050.44 118.094 1051.13 119.207L1052.88 122H1049.43L1047.34 118.885C1046.59 117.771 1046.09 117.072 1045.81 116.785C1045.54 116.492 1045.25 116.294 1044.94 116.189C1044.64 116.079 1044.15 116.023 1043.49 116.023H1042.9V122H1040.01ZM1042.9 113.738H1045.04C1046.43 113.738 1047.29 113.68 1047.64 113.562C1047.98 113.445 1048.25 113.243 1048.45 112.957C1048.64 112.671 1048.74 112.312 1048.74 111.883C1048.74 111.401 1048.61 111.014 1048.35 110.721C1048.1 110.421 1047.74 110.232 1047.27 110.154C1047.03 110.122 1046.33 110.105 1045.16 110.105H1042.9V113.738ZM1056.49 122V107.684H1059.38V114.041L1065.22 107.684H1069.11L1063.72 113.26L1069.4 122H1065.66L1061.73 115.281L1059.38 117.674V122H1056.49ZM1072.91 122V107.684H1083.52V110.105H1075.8V113.279H1082.99V115.691H1075.8V119.588H1083.8V122H1072.91ZM1088.28 122V107.684H1091.09L1096.95 117.244V107.684H1099.63V122H1096.73L1090.96 112.664V122H1088.28ZM1107.92 122V110.105H1103.68V107.684H1115.05V110.105H1110.81V122H1107.92Z" fill="#949494"/>
<rect x="1200" y="100" width="120" height="30" fill="#D9D9D9"/>
<path d="M1202.21 107.684H1207.93C1209.06 107.684 1209.91 107.732 1210.46 107.83C1211.02 107.921 1211.52 108.117 1211.96 108.416C1212.4 108.715 1212.77 109.116 1213.06 109.617C1213.35 110.112 1213.5 110.669 1213.5 111.287C1213.5 111.958 1213.32 112.573 1212.95 113.133C1212.59 113.693 1212.1 114.113 1211.49 114.393C1212.36 114.646 1213.03 115.079 1213.5 115.691C1213.97 116.303 1214.2 117.023 1214.2 117.85C1214.2 118.501 1214.05 119.135 1213.74 119.754C1213.44 120.366 1213.03 120.857 1212.5 121.229C1211.98 121.593 1211.34 121.818 1210.57 121.902C1210.09 121.954 1208.92 121.987 1207.08 122H1202.21V107.684ZM1205.1 110.066V113.377H1206.99C1208.12 113.377 1208.82 113.361 1209.09 113.328C1209.59 113.27 1209.98 113.1 1210.26 112.82C1210.54 112.534 1210.69 112.16 1210.69 111.697C1210.69 111.255 1210.56 110.896 1210.31 110.623C1210.07 110.343 1209.71 110.174 1209.23 110.115C1208.94 110.083 1208.12 110.066 1206.76 110.066H1205.1ZM1205.1 115.76V119.588H1207.78C1208.82 119.588 1209.48 119.559 1209.76 119.5C1210.19 119.422 1210.54 119.233 1210.8 118.934C1211.08 118.628 1211.21 118.221 1211.21 117.713C1211.21 117.283 1211.11 116.919 1210.9 116.619C1210.69 116.32 1210.39 116.102 1209.99 115.965C1209.6 115.828 1208.75 115.76 1207.43 115.76H1205.1ZM1231.56 122H1228.42L1227.17 118.748H1221.45L1220.26 122H1217.2L1222.77 107.684H1225.83L1231.56 122ZM1226.24 116.336L1224.27 111.023L1222.33 116.336H1226.24ZM1234.37 117.342L1237.19 117.068C1237.35 118.012 1237.7 118.706 1238.21 119.148C1238.73 119.591 1239.43 119.812 1240.31 119.812C1241.24 119.812 1241.94 119.617 1242.41 119.227C1242.89 118.829 1243.12 118.367 1243.12 117.84C1243.12 117.501 1243.02 117.215 1242.82 116.98C1242.62 116.74 1242.28 116.531 1241.79 116.355C1241.45 116.238 1240.68 116.03 1239.47 115.73C1237.92 115.346 1236.83 114.874 1236.21 114.314C1235.33 113.527 1234.89 112.566 1234.89 111.434C1234.89 110.704 1235.1 110.024 1235.51 109.393C1235.92 108.755 1236.52 108.27 1237.29 107.938C1238.07 107.605 1239.01 107.439 1240.12 107.439C1241.91 107.439 1243.26 107.833 1244.17 108.621C1245.08 109.409 1245.56 110.46 1245.6 111.775L1242.71 111.902C1242.59 111.167 1242.32 110.639 1241.91 110.32C1241.51 109.995 1240.9 109.832 1240.09 109.832C1239.25 109.832 1238.59 110.005 1238.11 110.35C1237.81 110.571 1237.65 110.867 1237.65 111.238C1237.65 111.577 1237.8 111.867 1238.08 112.107C1238.45 112.413 1239.33 112.732 1240.74 113.064C1242.15 113.396 1243.18 113.742 1243.86 114.1C1244.53 114.451 1245.06 114.936 1245.44 115.555C1245.82 116.167 1246.01 116.925 1246.01 117.83C1246.01 118.65 1245.79 119.419 1245.33 120.135C1244.87 120.851 1244.23 121.385 1243.4 121.736C1242.56 122.081 1241.52 122.254 1240.28 122.254C1238.47 122.254 1237.08 121.837 1236.11 121.004C1235.14 120.164 1234.56 118.943 1234.37 117.342ZM1237.66 125.936V124.783C1238.33 124.855 1238.95 124.891 1239.51 124.891C1240.09 124.891 1240.52 124.786 1240.8 124.578C1241.01 124.422 1241.12 124.22 1241.12 123.973C1241.12 123.751 1241.02 123.559 1240.82 123.396C1240.62 123.234 1240.3 123.152 1239.88 123.152C1239.46 123.152 1239.04 123.217 1238.6 123.348L1238.86 122.381C1239.36 122.205 1239.91 122.117 1240.5 122.117C1241.31 122.117 1241.93 122.296 1242.35 122.654C1242.77 123.012 1242.99 123.449 1242.99 123.963C1242.99 124.536 1242.75 125.001 1242.28 125.359C1241.65 125.848 1240.75 126.092 1239.57 126.092C1238.73 126.092 1238.09 126.04 1237.66 125.936ZM1250.48 122V107.684H1253.38V114.041L1259.21 107.684H1263.1L1257.71 113.26L1263.39 122H1259.65L1255.72 115.281L1253.38 117.674V122H1250.48ZM1266.17 117.342L1268.98 117.068C1269.15 118.012 1269.49 118.706 1270 119.148C1270.52 119.591 1271.22 119.812 1272.1 119.812C1273.03 119.812 1273.73 119.617 1274.2 119.227C1274.68 118.829 1274.92 118.367 1274.92 117.84C1274.92 117.501 1274.82 117.215 1274.61 116.98C1274.42 116.74 1274.07 116.531 1273.58 116.355C1273.24 116.238 1272.47 116.03 1271.26 115.73C1269.71 115.346 1268.63 114.874 1268 114.314C1267.12 113.527 1266.68 112.566 1266.68 111.434C1266.68 110.704 1266.89 110.024 1267.3 109.393C1267.72 108.755 1268.31 108.27 1269.09 107.938C1269.87 107.605 1270.81 107.439 1271.91 107.439C1273.71 107.439 1275.06 107.833 1275.96 108.621C1276.87 109.409 1277.35 110.46 1277.4 111.775L1274.51 111.902C1274.38 111.167 1274.12 110.639 1273.71 110.32C1273.3 109.995 1272.69 109.832 1271.88 109.832C1271.04 109.832 1270.38 110.005 1269.91 110.35C1269.6 110.571 1269.45 110.867 1269.45 111.238C1269.45 111.577 1269.59 111.867 1269.88 112.107C1270.24 112.413 1271.13 112.732 1272.53 113.064C1273.94 113.396 1274.98 113.742 1275.65 114.1C1276.33 114.451 1276.85 114.936 1277.23 115.555C1277.61 116.167 1277.81 116.925 1277.81 117.83C1277.81 118.65 1277.58 119.419 1277.12 120.135C1276.67 120.851 1276.02 121.385 1275.19 121.736C1274.36 122.081 1273.32 122.254 1272.07 122.254C1270.26 122.254 1268.87 121.837 1267.9 121.004C1266.93 120.164 1266.35 118.943 1266.17 117.342ZM1269.46 125.936V124.783C1270.13 124.855 1270.74 124.891 1271.3 124.891C1271.88 124.891 1272.31 124.786 1272.59 124.578C1272.81 124.422 1272.91 124.22 1272.91 123.973C1272.91 123.751 1272.81 123.559 1272.61 123.396C1272.41 123.234 1272.1 123.152 1271.67 123.152C1271.26 123.152 1270.83 123.217 1270.39 123.348L1270.65 122.381C1271.16 122.205 1271.7 122.117 1272.29 122.117C1273.1 122.117 1273.72 122.296 1274.14 122.654C1274.57 123.012 1274.78 123.449 1274.78 123.963C1274.78 124.536 1274.54 125.001 1274.08 125.359C1273.44 125.848 1272.54 126.092 1271.36 126.092C1270.52 126.092 1269.89 126.04 1269.46 125.936ZM1282.25 122V107.684H1285.14V113.318H1290.8V107.684H1293.69V122H1290.8V115.74H1285.14V122H1282.25ZM1298.6 122V107.684H1301.49V122H1298.6ZM1298.71 106.863V104.266H1301.41V106.863H1298.71ZM1306.27 122V107.684H1312.35C1313.88 107.684 1314.99 107.814 1315.68 108.074C1316.38 108.328 1316.93 108.784 1317.35 109.441C1317.77 110.099 1317.98 110.851 1317.98 111.697C1317.98 112.771 1317.66 113.66 1317.03 114.363C1316.4 115.06 1315.45 115.499 1314.2 115.682C1314.82 116.046 1315.34 116.447 1315.74 116.883C1316.15 117.319 1316.7 118.094 1317.39 119.207L1319.14 122H1315.68L1313.59 118.885C1312.85 117.771 1312.34 117.072 1312.07 116.785C1311.79 116.492 1311.51 116.294 1311.2 116.189C1310.89 116.079 1310.41 116.023 1309.74 116.023H1309.16V122H1306.27ZM1309.16 113.738H1311.3C1312.68 113.738 1313.55 113.68 1313.89 113.562C1314.24 113.445 1314.51 113.243 1314.71 112.957C1314.9 112.671 1315 112.312 1315 111.883C1315 111.401 1314.87 111.014 1314.61 110.721C1314.35 110.421 1313.99 110.232 1313.52 110.154C1313.29 110.122 1312.59 110.105 1311.41 110.105H1309.16V113.738Z" fill="#949494"/>
<rect x="1500" y="100" width="120" height="30" fill="#D9D9D9"/>
<path d="M1502.77 107.684H1508.49C1509.62 107.684 1510.46 107.732 1511.02 107.83C1511.58 107.921 1512.08 108.117 1512.51 108.416C1512.95 108.715 1513.32 109.116 1513.62 109.617C1513.91 110.112 1514.05 110.669 1514.05 111.287C1514.05 111.958 1513.87 112.573 1513.51 113.133C1513.15 113.693 1512.66 114.113 1512.04 114.393C1512.92 114.646 1513.59 115.079 1514.05 115.691C1514.52 116.303 1514.76 117.023 1514.76 117.85C1514.76 118.501 1514.6 119.135 1514.3 119.754C1514 120.366 1513.59 120.857 1513.06 121.229C1512.54 121.593 1511.89 121.818 1511.12 121.902C1510.64 121.954 1509.48 121.987 1507.64 122H1502.77V107.684ZM1505.66 110.066V113.377H1507.55C1508.68 113.377 1509.38 113.361 1509.65 113.328C1510.15 113.27 1510.53 113.1 1510.81 112.82C1511.1 112.534 1511.24 112.16 1511.24 111.697C1511.24 111.255 1511.12 110.896 1510.87 110.623C1510.63 110.343 1510.27 110.174 1509.79 110.115C1509.5 110.083 1508.68 110.066 1507.32 110.066H1505.66ZM1505.66 115.76V119.588H1508.33C1509.37 119.588 1510.03 119.559 1510.31 119.5C1510.74 119.422 1511.09 119.233 1511.36 118.934C1511.63 118.628 1511.77 118.221 1511.77 117.713C1511.77 117.283 1511.67 116.919 1511.46 116.619C1511.25 116.32 1510.95 116.102 1510.55 115.965C1510.16 115.828 1509.31 115.76 1507.99 115.76H1505.66ZM1532.12 122H1528.97L1527.72 118.748H1522L1520.82 122H1517.75L1523.33 107.684H1526.39L1532.12 122ZM1526.8 116.336L1524.82 111.023L1522.89 116.336H1526.8ZM1534.93 117.342L1537.74 117.068C1537.91 118.012 1538.25 118.706 1538.77 119.148C1539.29 119.591 1539.99 119.812 1540.87 119.812C1541.8 119.812 1542.5 119.617 1542.97 119.227C1543.44 118.829 1543.68 118.367 1543.68 117.84C1543.68 117.501 1543.58 117.215 1543.38 116.98C1543.18 116.74 1542.84 116.531 1542.34 116.355C1542 116.238 1541.23 116.03 1540.03 115.73C1538.48 115.346 1537.39 114.874 1536.77 114.314C1535.89 113.527 1535.45 112.566 1535.45 111.434C1535.45 110.704 1535.65 110.024 1536.06 109.393C1536.48 108.755 1537.07 108.27 1537.85 107.938C1538.63 107.605 1539.57 107.439 1540.67 107.439C1542.47 107.439 1543.82 107.833 1544.72 108.621C1545.64 109.409 1546.11 110.46 1546.16 111.775L1543.27 111.902C1543.15 111.167 1542.88 110.639 1542.47 110.32C1542.07 109.995 1541.46 109.832 1540.64 109.832C1539.8 109.832 1539.15 110.005 1538.67 110.35C1538.36 110.571 1538.21 110.867 1538.21 111.238C1538.21 111.577 1538.35 111.867 1538.64 112.107C1539.01 112.413 1539.89 112.732 1541.3 113.064C1542.7 113.396 1543.74 113.742 1544.41 114.1C1545.09 114.451 1545.62 114.936 1545.99 115.555C1546.38 116.167 1546.57 116.925 1546.57 117.83C1546.57 118.65 1546.34 119.419 1545.89 120.135C1545.43 120.851 1544.79 121.385 1543.95 121.736C1543.12 122.081 1542.08 122.254 1540.84 122.254C1539.03 122.254 1537.64 121.837 1536.67 121.004C1535.7 120.164 1535.12 118.943 1534.93 117.342ZM1538.22 125.936V124.783C1538.89 124.855 1539.51 124.891 1540.07 124.891C1540.65 124.891 1541.08 124.786 1541.36 124.578C1541.57 124.422 1541.68 124.22 1541.68 123.973C1541.68 123.751 1541.58 123.559 1541.38 123.396C1541.17 123.234 1540.86 123.152 1540.44 123.152C1540.02 123.152 1539.59 123.217 1539.16 123.348L1539.41 122.381C1539.92 122.205 1540.47 122.117 1541.05 122.117C1541.87 122.117 1542.49 122.296 1542.91 122.654C1543.33 123.012 1543.54 123.449 1543.54 123.963C1543.54 124.536 1543.31 125.001 1542.84 125.359C1542.21 125.848 1541.3 126.092 1540.12 126.092C1539.29 126.092 1538.65 126.04 1538.22 125.936ZM1551.04 122V107.684H1553.93V114.041L1559.77 107.684H1563.66L1558.27 113.26L1563.95 122H1560.21L1556.28 115.281L1553.93 117.674V122H1551.04ZM1575.06 122V107.684H1577.95V114.041L1583.79 107.684H1587.68L1582.29 113.26L1587.97 122H1584.23L1580.29 115.281L1577.95 117.674V122H1575.06ZM1591.5 122V107.684H1594.32L1600.18 117.244V107.684H1602.86V122H1599.96L1594.19 112.664V122H1591.5ZM1611.15 122V110.105H1606.9V107.684H1618.28V110.105H1614.04V122H1611.15Z" fill="#949494"/>
<rect x="1700" y="100" width="120" height="30" fill="#D9D9D9"/>
<path d="M1712.48 117.342L1715.29 117.068C1715.46 118.012 1715.8 118.706 1716.31 119.148C1716.84 119.591 1717.54 119.812 1718.41 119.812C1719.35 119.812 1720.04 119.617 1720.51 119.227C1720.99 118.829 1721.23 118.367 1721.23 117.84C1721.23 117.501 1721.13 117.215 1720.92 116.98C1720.73 116.74 1720.38 116.531 1719.89 116.355C1719.55 116.238 1718.78 116.03 1717.57 115.73C1716.02 115.346 1714.94 114.874 1714.31 114.314C1713.43 113.527 1712.99 112.566 1712.99 111.434C1712.99 110.704 1713.2 110.024 1713.61 109.393C1714.03 108.755 1714.62 108.27 1715.4 107.938C1716.18 107.605 1717.12 107.439 1718.22 107.439C1720.02 107.439 1721.37 107.833 1722.27 108.621C1723.18 109.409 1723.66 110.46 1723.71 111.775L1720.82 111.902C1720.69 111.167 1720.43 110.639 1720.02 110.32C1719.61 109.995 1719 109.832 1718.19 109.832C1717.35 109.832 1716.69 110.005 1716.22 110.35C1715.91 110.571 1715.76 110.867 1715.76 111.238C1715.76 111.577 1715.9 111.867 1716.19 112.107C1716.55 112.413 1717.44 112.732 1718.84 113.064C1720.25 113.396 1721.29 113.742 1721.96 114.1C1722.64 114.451 1723.16 114.936 1723.54 115.555C1723.93 116.167 1724.12 116.925 1724.12 117.83C1724.12 118.65 1723.89 119.419 1723.43 120.135C1722.98 120.851 1722.33 121.385 1721.5 121.736C1720.67 122.081 1719.63 122.254 1718.38 122.254C1716.57 122.254 1715.18 121.837 1714.21 121.004C1713.24 120.164 1712.67 118.943 1712.48 117.342ZM1728.46 122V107.684H1731.35V122H1728.46ZM1728.57 106.863V104.266H1731.26V106.863H1728.57ZM1739.34 122V110.105H1735.09V107.684H1746.47V110.105H1742.23V122H1739.34ZM1750.34 122V107.684H1760.96V110.105H1753.23V113.279H1760.42V115.691H1753.23V119.588H1761.23V122H1750.34ZM1765.76 122V107.801H1768.65V119.588H1775.84V122H1765.76ZM1779.91 122V107.684H1790.52V110.105H1782.8V113.279H1789.99V115.691H1782.8V119.588H1790.8V122H1779.91ZM1795.26 122V107.684H1801.34C1802.87 107.684 1803.98 107.814 1804.67 108.074C1805.37 108.328 1805.93 108.784 1806.34 109.441C1806.76 110.099 1806.97 110.851 1806.97 111.697C1806.97 112.771 1806.65 113.66 1806.02 114.363C1805.39 115.06 1804.44 115.499 1803.19 115.682C1803.81 116.046 1804.33 116.447 1804.73 116.883C1805.14 117.319 1805.69 118.094 1806.38 119.207L1808.13 122H1804.67L1802.58 118.885C1801.84 117.771 1801.33 117.072 1801.06 116.785C1800.79 116.492 1800.5 116.294 1800.19 116.189C1799.88 116.079 1799.4 116.023 1798.73 116.023H1798.15V122H1795.26ZM1798.15 113.738H1800.29C1801.67 113.738 1802.54 113.68 1802.88 113.562C1803.23 113.445 1803.5 113.243 1803.7 112.957C1803.89 112.671 1803.99 112.312 1803.99 111.883C1803.99 111.401 1803.86 111.014 1803.6 110.721C1803.34 110.421 1802.98 110.232 1802.51 110.154C1802.28 110.122 1801.58 110.105 1800.4 110.105H1798.15V113.738Z" fill="#949494"/>
<rect x="1900" y="100" width="120" height="30" fill="#D9D9D9"/>
<path d="M1907.65 122V110.105H1903.4V107.684H1914.78V110.105H1910.54V122H1907.65ZM1918.66 122V107.684H1924.75C1926.28 107.684 1927.39 107.814 1928.08 108.074C1928.77 108.328 1929.33 108.784 1929.75 109.441C1930.16 110.099 1930.37 110.851 1930.37 111.697C1930.37 112.771 1930.06 113.66 1929.42 114.363C1928.79 115.06 1927.85 115.499 1926.59 115.682C1927.22 116.046 1927.73 116.447 1928.13 116.883C1928.54 117.319 1929.1 118.094 1929.79 119.207L1931.53 122H1928.08L1925.99 118.885C1925.24 117.771 1924.74 117.072 1924.46 116.785C1924.19 116.492 1923.9 116.294 1923.59 116.189C1923.29 116.079 1922.8 116.023 1922.14 116.023H1921.55V122H1918.66ZM1921.55 113.738H1923.69C1925.08 113.738 1925.94 113.68 1926.29 113.562C1926.63 113.445 1926.9 113.243 1927.1 112.957C1927.29 112.671 1927.39 112.312 1927.39 111.883C1927.39 111.401 1927.26 111.014 1927 110.721C1926.75 110.421 1926.39 110.232 1925.92 110.154C1925.68 110.122 1924.98 110.105 1923.81 110.105H1921.55V113.738ZM1941.77 116.736V114.324H1948V120.027C1947.39 120.613 1946.51 121.131 1945.36 121.58C1944.21 122.023 1943.05 122.244 1941.87 122.244C1940.38 122.244 1939.07 121.932 1937.96 121.307C1936.84 120.675 1936.01 119.777 1935.45 118.611C1934.89 117.439 1934.61 116.167 1934.61 114.793C1934.61 113.302 1934.92 111.977 1935.54 110.818C1936.17 109.66 1937.08 108.771 1938.29 108.152C1939.21 107.677 1940.35 107.439 1941.72 107.439C1943.49 107.439 1944.88 107.814 1945.88 108.562C1946.88 109.305 1947.52 110.333 1947.81 111.648L1944.94 112.186C1944.74 111.482 1944.36 110.929 1943.8 110.525C1943.24 110.115 1942.55 109.91 1941.72 109.91C1940.45 109.91 1939.45 110.311 1938.7 111.111C1937.96 111.912 1937.59 113.1 1937.59 114.676C1937.59 116.375 1937.96 117.651 1938.72 118.504C1939.47 119.35 1940.46 119.773 1941.69 119.773C1942.29 119.773 1942.9 119.656 1943.5 119.422C1944.12 119.181 1944.64 118.891 1945.08 118.553V116.736H1941.77ZM1955.89 122V110.105H1951.65V107.684H1963.02V110.105H1958.79V122H1955.89ZM1973.88 114.93C1973.88 113.471 1974.1 112.247 1974.53 111.258C1974.86 110.529 1975.3 109.874 1975.86 109.295C1976.43 108.715 1977.05 108.286 1977.72 108.006C1978.61 107.628 1979.64 107.439 1980.8 107.439C1982.91 107.439 1984.6 108.094 1985.86 109.402C1987.13 110.711 1987.77 112.531 1987.77 114.861C1987.77 117.173 1987.14 118.982 1985.88 120.291C1984.62 121.593 1982.94 122.244 1980.84 122.244C1978.71 122.244 1977.02 121.596 1975.76 120.301C1974.51 118.999 1973.88 117.208 1973.88 114.93ZM1976.86 114.832C1976.86 116.453 1977.23 117.684 1977.98 118.523C1978.73 119.357 1979.68 119.773 1980.83 119.773C1981.98 119.773 1982.93 119.36 1983.66 118.533C1984.41 117.7 1984.78 116.453 1984.78 114.793C1984.78 113.152 1984.42 111.928 1983.69 111.121C1982.98 110.314 1982.02 109.91 1980.83 109.91C1979.64 109.91 1978.68 110.32 1977.95 111.141C1977.22 111.954 1976.86 113.185 1976.86 114.832ZM1977.38 106.863V104.51H1979.73V106.863H1977.38ZM1981.57 106.863V104.51H1983.94V106.863H1981.57ZM1990.79 122V119.393L1998.31 110.105H1991.64V107.684H2002.12V109.93L1994.28 119.588H2002.42V122H1990.79ZM2006.34 122V107.801H2009.23V119.588H2016.41V122H2006.34Z" fill="#949494"/>
<rect x="2400" y="100" width="120" height="30" fill="#D9D9D9"/>
<path d="M2413.78 122V107.684H2416.67V122H2413.78ZM2413.89 106.863V104.266H2416.58V106.863H2413.89ZM2421.47 122V107.684H2424.37V114.041L2430.21 107.684H2434.09L2428.7 113.26L2434.38 122H2430.64L2426.71 115.281L2424.37 117.674V122H2421.47ZM2437.8 122V107.684H2440.69V122H2437.8ZM2437.91 106.863V104.266H2440.6V106.863H2437.91ZM2448.68 122V110.105H2444.43V107.684H2455.81V110.105H2451.57V122H2448.68ZM2459.68 122V107.684H2470.3V110.105H2462.57V113.279H2469.76V115.691H2462.57V119.588H2470.57V122H2459.68ZM2475.1 122V107.801H2477.99V119.588H2485.18V122H2475.1ZM2489.33 122V107.801H2492.22V119.588H2499.4V122H2489.33ZM2503.39 122V107.684H2506.28V122H2503.39ZM2503.49 106.863V104.266H2506.19V106.863H2503.49Z" fill="#949494"/>
<rect x="2600" y="100" width="120" height="30" fill="#D9D9D9"/>
<path d="M2626.98 122V107.684H2629.87V122H2626.98ZM2627.08 106.863V104.266H2629.78V106.863H2627.08ZM2633.9 117.342L2636.71 117.068C2636.88 118.012 2637.22 118.706 2637.74 119.148C2638.26 119.591 2638.96 119.812 2639.84 119.812C2640.77 119.812 2641.47 119.617 2641.94 119.227C2642.41 118.829 2642.65 118.367 2642.65 117.84C2642.65 117.501 2642.55 117.215 2642.35 116.98C2642.15 116.74 2641.81 116.531 2641.31 116.355C2640.97 116.238 2640.2 116.03 2639 115.73C2637.45 115.346 2636.36 114.874 2635.73 114.314C2634.86 113.527 2634.42 112.566 2634.42 111.434C2634.42 110.704 2634.62 110.024 2635.03 109.393C2635.45 108.755 2636.04 108.27 2636.82 107.938C2637.6 107.605 2638.54 107.439 2639.64 107.439C2641.44 107.439 2642.79 107.833 2643.69 108.621C2644.6 109.409 2645.08 110.46 2645.13 111.775L2642.24 111.902C2642.11 111.167 2641.85 110.639 2641.44 110.32C2641.03 109.995 2640.43 109.832 2639.61 109.832C2638.77 109.832 2638.11 110.005 2637.64 110.35C2637.33 110.571 2637.18 110.867 2637.18 111.238C2637.18 111.577 2637.32 111.867 2637.61 112.107C2637.97 112.413 2638.86 112.732 2640.27 113.064C2641.67 113.396 2642.71 113.742 2643.38 114.1C2644.06 114.451 2644.59 114.936 2644.96 115.555C2645.35 116.167 2645.54 116.925 2645.54 117.83C2645.54 118.65 2645.31 119.419 2644.86 120.135C2644.4 120.851 2643.76 121.385 2642.92 121.736C2642.09 122.081 2641.05 122.254 2639.81 122.254C2638 122.254 2636.61 121.837 2635.64 121.004C2634.67 120.164 2634.09 118.943 2633.9 117.342ZM2653.19 122V110.105H2648.95V107.684H2660.32V110.105H2656.08V122H2653.19ZM2663.24 114.93C2663.24 113.471 2663.46 112.247 2663.89 111.258C2664.22 110.529 2664.66 109.874 2665.22 109.295C2665.79 108.715 2666.41 108.286 2667.08 108.006C2667.97 107.628 2669 107.439 2670.16 107.439C2672.27 107.439 2673.96 108.094 2675.22 109.402C2676.49 110.711 2677.13 112.531 2677.13 114.861C2677.13 117.173 2676.5 118.982 2675.24 120.291C2673.99 121.593 2672.31 122.244 2670.2 122.244C2668.07 122.244 2666.38 121.596 2665.12 120.301C2663.87 118.999 2663.24 117.208 2663.24 114.93ZM2666.22 114.832C2666.22 116.453 2666.59 117.684 2667.34 118.523C2668.09 119.357 2669.04 119.773 2670.19 119.773C2671.35 119.773 2672.29 119.36 2673.03 118.533C2673.77 117.7 2674.14 116.453 2674.14 114.793C2674.14 113.152 2673.78 111.928 2673.05 111.121C2672.34 110.314 2671.38 109.91 2670.19 109.91C2669 109.91 2668.04 110.32 2667.31 111.141C2666.58 111.954 2666.22 113.185 2666.22 114.832ZM2690.55 116.736L2693.36 117.625C2692.93 119.188 2692.21 120.35 2691.21 121.111C2690.21 121.867 2688.94 122.244 2687.41 122.244C2685.51 122.244 2683.94 121.596 2682.72 120.301C2681.5 118.999 2680.88 117.221 2680.88 114.969C2680.88 112.586 2681.5 110.737 2682.73 109.422C2683.96 108.1 2685.58 107.439 2687.58 107.439C2689.34 107.439 2690.76 107.957 2691.85 108.992C2692.5 109.604 2692.99 110.483 2693.32 111.629L2690.46 112.312C2690.29 111.57 2689.93 110.984 2689.39 110.555C2688.86 110.125 2688.21 109.91 2687.44 109.91C2686.38 109.91 2685.51 110.291 2684.85 111.053C2684.19 111.814 2683.86 113.048 2683.86 114.754C2683.86 116.564 2684.19 117.853 2684.84 118.621C2685.49 119.389 2686.34 119.773 2687.38 119.773C2688.15 119.773 2688.81 119.529 2689.36 119.041C2689.91 118.553 2690.31 117.785 2690.55 116.736ZM2684.48 125.936V124.783C2685.15 124.855 2685.76 124.891 2686.32 124.891C2686.9 124.891 2687.33 124.786 2687.61 124.578C2687.83 124.422 2687.94 124.22 2687.94 123.973C2687.94 123.751 2687.83 123.559 2687.63 123.396C2687.43 123.234 2687.12 123.152 2686.7 123.152C2686.28 123.152 2685.85 123.217 2685.42 123.348L2685.67 122.381C2686.18 122.205 2686.72 122.117 2687.31 122.117C2688.12 122.117 2688.74 122.296 2689.17 122.654C2689.59 123.012 2689.8 123.449 2689.8 123.963C2689.8 124.536 2689.57 125.001 2689.1 125.359C2688.47 125.848 2687.56 126.092 2686.38 126.092C2685.54 126.092 2684.91 126.04 2684.48 125.936Z" fill="#949494"/>
<rect x="2820" y="170" width="120" height="30" fill="#D9D9D9"/>
<rect x="2820" y="30" width="120" height="30" fill="#D9D9D9"/>
<path d="M2824.85 52V37.6836H2829.18L2831.77 47.4492L2834.34 37.6836H2838.68V52H2835.99V40.7305L2833.15 52H2830.37L2827.54 40.7305V52H2824.85ZM2843.56 52V37.6836H2846.45V43.3184H2852.11V37.6836H2855V52H2852.11V45.7402H2846.45V52H2843.56ZM2859.96 52V37.6836H2864.29L2866.89 47.4492L2869.46 37.6836H2873.79V52H2871.11V40.7305L2868.26 52H2865.48L2862.65 40.7305V52H2859.96ZM2881.88 52V40.1055H2877.64V37.6836H2889.01V40.1055H2884.78V52H2881.88ZM2892.9 37.6836H2898.62C2899.75 37.6836 2900.6 37.7324 2901.15 37.8301C2901.71 37.9212 2902.21 38.1165 2902.64 38.416C2903.09 38.7155 2903.46 39.1159 2903.75 39.6172C2904.04 40.112 2904.19 40.6686 2904.19 41.2871C2904.19 41.9577 2904.01 42.5729 2903.64 43.1328C2903.28 43.6927 2902.79 44.1126 2902.18 44.3926C2903.05 44.6465 2903.72 45.0794 2904.19 45.6914C2904.66 46.3034 2904.89 47.0228 2904.89 47.8496C2904.89 48.5007 2904.74 49.1354 2904.43 49.7539C2904.13 50.3659 2903.72 50.8574 2903.19 51.2285C2902.67 51.5931 2902.03 51.8177 2901.26 51.9023C2900.78 51.9544 2899.61 51.987 2897.77 52H2892.9V37.6836ZM2895.79 40.0664V43.377H2897.68C2898.81 43.377 2899.51 43.3607 2899.78 43.3281C2900.28 43.2695 2900.67 43.1003 2900.95 42.8203C2901.23 42.5339 2901.38 42.1595 2901.38 41.6973C2901.38 41.2546 2901.25 40.8965 2901 40.623C2900.76 40.3431 2900.4 40.1738 2899.92 40.1152C2899.63 40.0827 2898.81 40.0664 2897.45 40.0664H2895.79ZM2895.79 45.7598V49.5879H2898.46C2899.51 49.5879 2900.17 49.5586 2900.45 49.5C2900.88 49.4219 2901.23 49.2331 2901.49 48.9336C2901.77 48.6276 2901.9 48.2207 2901.9 47.7129C2901.9 47.2832 2901.8 46.9186 2901.59 46.6191C2901.38 46.3197 2901.08 46.1016 2900.68 45.9648C2900.29 45.8281 2899.44 45.7598 2898.12 45.7598H2895.79ZM2909.34 52V37.6836H2919.96V40.1055H2912.23V43.2793H2919.42V45.6914H2912.23V49.5879H2920.23V52H2909.34ZM2928.44 52V45.9746L2923.2 37.6836H2926.59L2929.96 43.3477L2933.26 37.6836H2936.59L2931.32 45.9941V52H2928.44Z" fill="#949494"/>
<rect x="3000" y="100" width="120" height="30" fill="#D9D9D9"/>
<path d="M3007.08 122V115.975L3001.84 107.684H3005.23L3008.6 113.348L3011.9 107.684H3015.23L3009.96 115.994V122H3007.08ZM3018.69 122V107.684H3021.5L3027.36 117.244V107.684H3030.05V122H3027.15L3021.38 112.664V122H3018.69ZM3035.03 122V107.684H3037.92V122H3035.03ZM3035.13 106.863V104.266H3037.83V106.863H3035.13ZM3042.64 122V107.684H3046.97L3049.57 117.449L3052.13 107.684H3056.47V122H3053.79V110.73L3050.94 122H3048.16L3045.33 110.73V122H3042.64ZM3061.35 122V107.684H3064.24V113.318H3069.91V107.684H3072.8V122H3069.91V115.74H3064.24V122H3061.35ZM3077.87 122V107.801H3080.76V119.588H3087.95V122H3077.87ZM3092.1 122V107.801H3094.99V119.588H3102.18V122H3092.1ZM3106.25 122V107.684H3116.86V110.105H3109.14V113.279H3116.33V115.691H3109.14V119.588H3117.14V122H3106.25Z" fill="#949494"/>
<rect x="3300" y="100" width="120" height="30" fill="#D9D9D9"/>
<path d="M3316.02 122V107.684H3318.91V114.041L3324.75 107.684H3328.64L3323.25 113.26L3328.93 122H3325.19L3321.26 115.281L3318.91 117.674V122H3316.02ZM3332.35 122V107.684H3335.24V122H3332.35ZM3332.46 106.863V104.266H3335.15V106.863H3332.46ZM3340.01 122V107.684H3346.1C3347.63 107.684 3348.74 107.814 3349.43 108.074C3350.12 108.328 3350.68 108.784 3351.1 109.441C3351.51 110.099 3351.72 110.851 3351.72 111.697C3351.72 112.771 3351.4 113.66 3350.77 114.363C3350.14 115.06 3349.2 115.499 3347.94 115.682C3348.57 116.046 3349.08 116.447 3349.48 116.883C3349.89 117.319 3350.44 118.094 3351.13 119.207L3352.88 122H3349.43L3347.34 118.885C3346.59 117.771 3346.09 117.072 3345.81 116.785C3345.54 116.492 3345.25 116.294 3344.94 116.189C3344.64 116.079 3344.15 116.023 3343.49 116.023H3342.9V122H3340.01ZM3342.9 113.738H3345.04C3346.43 113.738 3347.29 113.68 3347.64 113.562C3347.98 113.445 3348.25 113.243 3348.45 112.957C3348.64 112.671 3348.74 112.312 3348.74 111.883C3348.74 111.401 3348.61 111.014 3348.35 110.721C3348.1 110.421 3347.74 110.232 3347.27 110.154C3347.03 110.122 3346.33 110.105 3345.16 110.105H3342.9V113.738ZM3369.37 122H3366.22L3364.97 118.748H3359.25L3358.07 122H3355L3360.58 107.684H3363.63L3369.37 122ZM3364.04 116.336L3362.07 111.023L3360.14 116.336H3364.04ZM3371.67 122V119.393L3379.19 110.105H3372.52V107.684H3383V109.93L3375.15 119.588H3383.3V122H3371.67ZM3387.21 122V107.801H3390.1V119.588H3397.29V122H3387.21ZM3401.27 122V107.684H3404.16V122H3401.27Z" fill="#949494"/>
<rect x="3500" y="100" width="120" height="30" fill="#D9D9D9"/>
<path d="M3501.98 122V107.684H3506.31L3508.91 117.449L3511.48 107.684H3515.81V122H3513.13V110.73L3510.29 122H3507.5L3504.67 110.73V122H3501.98ZM3520.76 122V107.801H3523.65V119.588H3530.84V122H3520.76ZM3534.99 122V107.801H3537.88V119.588H3545.07V122H3534.99ZM3562.05 122H3558.9L3557.65 118.748H3551.93L3550.75 122H3547.68L3553.26 107.684H3556.31L3562.05 122ZM3556.72 116.336L3554.75 111.023L3552.82 116.336H3556.72ZM3579.07 116.736V114.324H3585.3V120.027C3584.7 120.613 3583.82 121.131 3582.67 121.58C3581.52 122.023 3580.36 122.244 3579.18 122.244C3577.68 122.244 3576.38 121.932 3575.27 121.307C3574.15 120.675 3573.32 119.777 3572.76 118.611C3572.2 117.439 3571.92 116.167 3571.92 114.793C3571.92 113.302 3572.23 111.977 3572.85 110.818C3573.48 109.66 3574.39 108.771 3575.6 108.152C3576.52 107.677 3577.66 107.439 3579.03 107.439C3580.8 107.439 3582.19 107.814 3583.19 108.562C3584.19 109.305 3584.83 110.333 3585.12 111.648L3582.25 112.186C3582.05 111.482 3581.67 110.929 3581.11 110.525C3580.55 110.115 3579.86 109.91 3579.03 109.91C3577.76 109.91 3576.76 110.311 3576.01 111.111C3575.27 111.912 3574.89 113.1 3574.89 114.676C3574.89 116.375 3575.27 117.651 3576.03 118.504C3576.78 119.35 3577.77 119.773 3579 119.773C3579.6 119.773 3580.21 119.656 3580.81 119.422C3581.42 119.181 3581.95 118.891 3582.38 118.553V116.736H3579.07ZM3589.99 122V107.684H3596.07C3597.6 107.684 3598.71 107.814 3599.4 108.074C3600.1 108.328 3600.66 108.784 3601.07 109.441C3601.49 110.099 3601.7 110.851 3601.7 111.697C3601.7 112.771 3601.38 113.66 3600.75 114.363C3600.12 115.06 3599.18 115.499 3597.92 115.682C3598.54 116.046 3599.06 116.447 3599.46 116.883C3599.87 117.319 3600.42 118.094 3601.11 119.207L3602.86 122H3599.4L3597.31 118.885C3596.57 117.771 3596.06 117.072 3595.79 116.785C3595.52 116.492 3595.23 116.294 3594.92 116.189C3594.62 116.079 3594.13 116.023 3593.47 116.023H3592.88V122H3589.99ZM3592.88 113.738H3595.02C3596.41 113.738 3597.27 113.68 3597.62 113.562C3597.96 113.445 3598.23 113.243 3598.43 112.957C3598.62 112.671 3598.72 112.312 3598.72 111.883C3598.72 111.401 3598.59 111.014 3598.33 110.721C3598.08 110.421 3597.71 110.232 3597.25 110.154C3597.01 110.122 3596.31 110.105 3595.14 110.105H3592.88V113.738ZM3606.46 122V107.684H3609.28L3615.13 117.244V107.684H3617.82V122H3614.92L3609.15 112.664V122H3606.46Z" fill="#949494"/>
<rect x="3800" y="100" width="120" height="30" fill="#D9D9D9"/>
<path d="M3805.97 122V115.975L3800.72 107.684H3804.11L3807.48 113.348L3810.78 107.684H3814.11L3808.85 115.994V122H3805.97ZM3817.63 122V107.801H3820.52V119.588H3827.71V122H3817.63ZM3831.77 107.684H3837.05C3838.24 107.684 3839.15 107.775 3839.77 107.957C3840.61 108.204 3841.33 108.644 3841.93 109.275C3842.53 109.907 3842.99 110.682 3843.3 111.6C3843.61 112.511 3843.77 113.637 3843.77 114.979C3843.77 116.157 3843.62 117.173 3843.33 118.025C3842.97 119.067 3842.46 119.91 3841.79 120.555C3841.29 121.043 3840.62 121.424 3839.76 121.697C3839.13 121.899 3838.27 122 3837.21 122H3831.77V107.684ZM3834.66 110.105V119.588H3836.81C3837.62 119.588 3838.2 119.542 3838.56 119.451C3839.03 119.334 3839.42 119.135 3839.72 118.855C3840.04 118.576 3840.29 118.117 3840.49 117.479C3840.68 116.834 3840.78 115.958 3840.78 114.852C3840.78 113.745 3840.68 112.895 3840.49 112.303C3840.29 111.71 3840.02 111.248 3839.67 110.916C3839.31 110.584 3838.87 110.359 3838.33 110.242C3837.92 110.151 3837.13 110.105 3835.96 110.105H3834.66ZM3846.99 122V119.393L3854.51 110.105H3847.84V107.684H3858.32V109.93L3850.47 119.588H3858.62V122H3846.99ZM3865.68 122V110.105H3861.43V107.684H3872.81V110.105H3868.57V122H3865.68ZM3876.68 122V107.684H3887.3V110.105H3879.57V113.279H3886.76V115.691H3879.57V119.588H3887.57V122H3876.68ZM3892.02 122V107.684H3896.66C3898.42 107.684 3899.56 107.755 3900.1 107.898C3900.92 108.113 3901.6 108.582 3902.16 109.305C3902.71 110.021 3902.99 110.949 3902.99 112.088C3902.99 112.967 3902.83 113.706 3902.51 114.305C3902.19 114.904 3901.78 115.376 3901.29 115.721C3900.8 116.059 3900.3 116.284 3899.79 116.395C3899.1 116.531 3898.11 116.6 3896.8 116.6H3894.91V122H3892.02ZM3894.91 110.105V114.168H3896.49C3897.63 114.168 3898.4 114.093 3898.78 113.943C3899.16 113.794 3899.46 113.559 3899.68 113.24C3899.9 112.921 3900.01 112.55 3900.01 112.127C3900.01 111.606 3899.86 111.176 3899.55 110.838C3899.24 110.499 3898.86 110.288 3898.39 110.203C3898.04 110.138 3897.35 110.105 3896.31 110.105H3894.91ZM3907.36 122V107.684H3917.98V110.105H3910.25V113.279H3917.44V115.691H3910.25V119.588H3918.25V122H3907.36Z" fill="#949494"/>
<rect x="4000" y="100" width="120" height="30" fill="#D9D9D9"/>
<path d="M4012.19 122V107.684H4015.08V122H4012.19ZM4012.3 106.863V104.266H4015V106.863H4012.3ZM4019.93 122V107.801H4022.82V119.588H4030V122H4019.93ZM4034.11 122V107.684H4037V114.041L4042.84 107.684H4046.73L4041.34 113.26L4047.02 122H4043.28L4039.35 115.281L4037 117.674V122H4034.11ZM4054.29 122V115.975L4049.04 107.684H4052.43L4055.8 113.348L4059.1 107.684H4062.43L4057.17 115.994V122H4054.29ZM4065.85 107.684H4068.74V115.438C4068.74 116.668 4068.77 117.465 4068.85 117.83C4068.97 118.416 4069.26 118.888 4069.72 119.246C4070.19 119.598 4070.83 119.773 4071.64 119.773C4072.46 119.773 4073.08 119.607 4073.49 119.275C4073.91 118.937 4074.16 118.523 4074.25 118.035C4074.33 117.547 4074.37 116.736 4074.37 115.604V107.684H4077.26V115.203C4077.26 116.922 4077.19 118.136 4077.03 118.846C4076.87 119.555 4076.58 120.154 4076.16 120.643C4075.74 121.131 4075.18 121.521 4074.48 121.814C4073.78 122.101 4072.86 122.244 4071.73 122.244C4070.36 122.244 4069.32 122.088 4068.61 121.775C4067.91 121.456 4067.35 121.046 4066.94 120.545C4066.53 120.037 4066.26 119.507 4066.13 118.953C4065.94 118.133 4065.85 116.922 4065.85 115.32V107.684ZM4085.97 122L4080.86 107.684H4083.99L4087.61 118.279L4091.12 107.684H4094.19L4089.06 122H4085.97ZM4109.09 122H4105.94L4104.69 118.748H4098.97L4097.79 122H4094.72L4100.3 107.684H4103.35L4109.09 122ZM4103.76 116.336L4101.79 111.023L4099.86 116.336H4103.76Z" fill="#949494"/>
<rect x="4200" y="100" width="120" height="30" fill="#D9D9D9"/>
<path d="M4205.99 122V107.684H4208.88V113.318H4214.55V107.684H4217.44V122H4214.55V115.74H4208.88V122H4205.99ZM4235.35 122H4232.2L4230.95 118.748H4225.23L4224.05 122H4220.98L4226.56 107.684H4229.61L4235.35 122ZM4230.02 116.336L4228.05 111.023L4226.12 116.336H4230.02ZM4237.65 122V119.393L4245.17 110.105H4238.5V107.684H4248.98V109.93L4241.13 119.588H4249.28V122H4237.65ZM4253.14 122V107.684H4255.96L4261.82 117.244V107.684H4264.5V122H4261.6L4255.83 112.664V122H4253.14ZM4269.56 107.684H4274.84C4276.03 107.684 4276.94 107.775 4277.57 107.957C4278.41 108.204 4279.13 108.644 4279.72 109.275C4280.32 109.907 4280.78 110.682 4281.09 111.6C4281.4 112.511 4281.56 113.637 4281.56 114.979C4281.56 116.157 4281.41 117.173 4281.12 118.025C4280.76 119.067 4280.25 119.91 4279.59 120.555C4279.09 121.043 4278.41 121.424 4277.56 121.697C4276.92 121.899 4276.07 122 4275 122H4269.56V107.684ZM4272.45 110.105V119.588H4274.61C4275.41 119.588 4276 119.542 4276.36 119.451C4276.82 119.334 4277.21 119.135 4277.52 118.855C4277.83 118.576 4278.08 118.117 4278.28 117.479C4278.47 116.834 4278.57 115.958 4278.57 114.852C4278.57 113.745 4278.47 112.895 4278.28 112.303C4278.08 111.71 4277.81 111.248 4277.46 110.916C4277.11 110.584 4276.66 110.359 4276.12 110.242C4275.72 110.151 4274.93 110.105 4273.75 110.105H4272.45ZM4298.93 122H4295.79L4294.54 118.748H4288.81L4287.63 122H4284.57L4290.14 107.684H4293.2L4298.93 122ZM4293.61 116.336L4291.64 111.023L4289.7 116.336H4293.61ZM4302.48 122V107.684H4308.57C4310.1 107.684 4311.21 107.814 4311.9 108.074C4312.6 108.328 4313.15 108.784 4313.57 109.441C4313.99 110.099 4314.19 110.851 4314.19 111.697C4314.19 112.771 4313.88 113.66 4313.25 114.363C4312.61 115.06 4311.67 115.499 4310.41 115.682C4311.04 116.046 4311.55 116.447 4311.96 116.883C4312.37 117.319 4312.92 118.094 4313.61 119.207L4315.36 122H4311.9L4309.81 118.885C4309.07 117.771 4308.56 117.072 4308.29 116.785C4308.01 116.492 4307.72 116.294 4307.42 116.189C4307.11 116.079 4306.62 116.023 4305.96 116.023H4305.38V122H4302.48ZM4305.38 113.738H4307.51C4308.9 113.738 4309.77 113.68 4310.11 113.562C4310.46 113.445 4310.73 113.243 4310.92 112.957C4311.12 112.671 4311.21 112.312 4311.21 111.883C4311.21 111.401 4311.08 111.014 4310.82 110.721C4310.57 110.421 4310.21 110.232 4309.74 110.154C4309.51 110.122 4308.8 110.105 4307.63 110.105H4305.38V113.738Z" fill="#949494"/>
<rect x="4500" y="100" width="120" height="30" fill="#D9D9D9"/>
<path d="M4519.22 122V107.684H4522.12V122H4519.22ZM4519.33 106.863V104.266H4522.03V106.863H4519.33ZM4526.91 122V107.684H4529.72L4535.58 117.244V107.684H4538.27V122H4535.37L4529.59 112.664V122H4526.91ZM4552.49 116.736L4555.29 117.625C4554.87 119.188 4554.15 120.35 4553.15 121.111C4552.15 121.867 4550.88 122.244 4549.35 122.244C4547.45 122.244 4545.88 121.596 4544.66 120.301C4543.44 118.999 4542.82 117.221 4542.82 114.969C4542.82 112.586 4543.44 110.737 4544.67 109.422C4545.9 108.1 4547.52 107.439 4549.52 107.439C4551.27 107.439 4552.7 107.957 4553.79 108.992C4554.44 109.604 4554.93 110.483 4555.26 111.629L4552.39 112.312C4552.23 111.57 4551.87 110.984 4551.33 110.555C4550.8 110.125 4550.15 109.91 4549.38 109.91C4548.32 109.91 4547.45 110.291 4546.79 111.053C4546.13 111.814 4545.8 113.048 4545.8 114.754C4545.8 116.564 4546.13 117.853 4546.78 118.621C4547.43 119.389 4548.28 119.773 4549.32 119.773C4550.09 119.773 4550.75 119.529 4551.3 119.041C4551.85 118.553 4552.25 117.785 4552.49 116.736ZM4559.7 122V107.684H4562.59V122H4559.7ZM4559.8 106.863V104.266H4562.5V106.863H4559.8ZM4567.36 122V107.684H4573.45C4574.98 107.684 4576.09 107.814 4576.78 108.074C4577.47 108.328 4578.03 108.784 4578.45 109.441C4578.86 110.099 4579.07 110.851 4579.07 111.697C4579.07 112.771 4578.75 113.66 4578.12 114.363C4577.49 115.06 4576.55 115.499 4575.29 115.682C4575.92 116.046 4576.43 116.447 4576.83 116.883C4577.24 117.319 4577.79 118.094 4578.48 119.207L4580.23 122H4576.78L4574.69 118.885C4573.94 117.771 4573.44 117.072 4573.16 116.785C4572.89 116.492 4572.6 116.294 4572.29 116.189C4571.99 116.079 4571.5 116.023 4570.84 116.023H4570.25V122H4567.36ZM4570.25 113.738H4572.39C4573.78 113.738 4574.64 113.68 4574.99 113.562C4575.33 113.445 4575.6 113.243 4575.8 112.957C4575.99 112.671 4576.09 112.312 4576.09 111.883C4576.09 111.401 4575.96 111.014 4575.7 110.721C4575.45 110.421 4575.09 110.232 4574.62 110.154C4574.38 110.122 4573.68 110.105 4572.51 110.105H4570.25V113.738ZM4583.88 122V107.801H4586.77V119.588H4593.96V122H4583.88ZM4597.94 122V107.684H4600.83V122H4597.94ZM4598.05 106.863V104.266H4600.75V106.863H4598.05Z" fill="#949494"/>
<rect x="4700" y="100" width="120" height="30" fill="#D9D9D9"/>
<path d="M4705.4 114.93C4705.4 113.471 4705.61 112.247 4706.05 111.258C4706.38 110.529 4706.82 109.874 4707.38 109.295C4707.95 108.715 4708.56 108.286 4709.23 108.006C4710.13 107.628 4711.15 107.439 4712.32 107.439C4714.43 107.439 4716.12 108.094 4717.38 109.402C4718.65 110.711 4719.28 112.531 4719.28 114.861C4719.28 117.173 4718.65 118.982 4717.4 120.291C4716.14 121.593 4714.46 122.244 4712.36 122.244C4710.23 122.244 4708.54 121.596 4707.28 120.301C4706.02 118.999 4705.4 117.208 4705.4 114.93ZM4708.38 114.832C4708.38 116.453 4708.75 117.684 4709.5 118.523C4710.25 119.357 4711.2 119.773 4712.35 119.773C4713.5 119.773 4714.45 119.36 4715.18 118.533C4715.92 117.7 4716.29 116.453 4716.29 114.793C4716.29 113.152 4715.93 111.928 4715.21 111.121C4714.49 110.314 4713.54 109.91 4712.35 109.91C4711.16 109.91 4710.2 110.32 4709.47 111.141C4708.74 111.954 4708.38 113.185 4708.38 114.832ZM4708.89 106.863V104.51H4711.25V106.863H4708.89ZM4713.09 106.863V104.51H4715.46V106.863H4713.09ZM4722.31 122V119.393L4729.83 110.105H4723.16V107.684H4733.64V109.93L4725.79 119.588H4733.94V122H4722.31ZM4744.44 116.736V114.324H4750.67V120.027C4750.06 120.613 4749.18 121.131 4748.03 121.58C4746.88 122.023 4745.72 122.244 4744.54 122.244C4743.05 122.244 4741.74 121.932 4740.63 121.307C4739.51 120.675 4738.68 119.777 4738.12 118.611C4737.56 117.439 4737.28 116.167 4737.28 114.793C4737.28 113.302 4737.59 111.977 4738.21 110.818C4738.84 109.66 4739.75 108.771 4740.96 108.152C4741.88 107.677 4743.02 107.439 4744.39 107.439C4746.16 107.439 4747.55 107.814 4748.55 108.562C4749.55 109.305 4750.19 110.333 4750.48 111.648L4747.61 112.186C4747.41 111.482 4747.03 110.929 4746.47 110.525C4745.91 110.115 4745.22 109.91 4744.39 109.91C4743.12 109.91 4742.12 110.311 4741.37 111.111C4740.63 111.912 4740.26 113.1 4740.26 114.676C4740.26 116.375 4740.63 117.651 4741.39 118.504C4742.14 119.35 4743.13 119.773 4744.36 119.773C4744.96 119.773 4745.57 119.656 4746.17 119.422C4746.79 119.181 4747.31 118.891 4747.75 118.553V116.736H4744.44ZM4755.35 122V107.684H4761.44C4762.97 107.684 4764.08 107.814 4764.77 108.074C4765.46 108.328 4766.02 108.784 4766.44 109.441C4766.85 110.099 4767.06 110.851 4767.06 111.697C4767.06 112.771 4766.74 113.66 4766.11 114.363C4765.48 115.06 4764.54 115.499 4763.28 115.682C4763.91 116.046 4764.42 116.447 4764.82 116.883C4765.23 117.319 4765.78 118.094 4766.47 119.207L4768.22 122H4764.77L4762.68 118.885C4761.93 117.771 4761.43 117.072 4761.15 116.785C4760.88 116.492 4760.59 116.294 4760.28 116.189C4759.98 116.079 4759.49 116.023 4758.83 116.023H4758.24V122H4755.35ZM4758.24 113.738H4760.38C4761.77 113.738 4762.63 113.68 4762.98 113.562C4763.32 113.445 4763.59 113.243 4763.79 112.957C4763.98 112.671 4764.08 112.312 4764.08 111.883C4764.08 111.401 4763.95 111.014 4763.69 110.721C4763.44 110.421 4763.08 110.232 4762.61 110.154C4762.37 110.122 4761.67 110.105 4760.5 110.105H4758.24V113.738ZM4771.87 122V107.801H4774.76V119.588H4781.95V122H4771.87ZM4786 107.684H4788.89V115.438C4788.89 116.668 4788.93 117.465 4789 117.83C4789.12 118.416 4789.42 118.888 4789.88 119.246C4790.35 119.598 4790.99 119.773 4791.79 119.773C4792.61 119.773 4793.23 119.607 4793.65 119.275C4794.07 118.937 4794.32 118.523 4794.4 118.035C4794.49 117.547 4794.53 116.736 4794.53 115.604V107.684H4797.42V115.203C4797.42 116.922 4797.34 118.136 4797.18 118.846C4797.03 119.555 4796.74 120.154 4796.31 120.643C4795.9 121.131 4795.34 121.521 4794.63 121.814C4793.93 122.101 4793.01 122.244 4791.88 122.244C4790.51 122.244 4789.48 122.088 4788.77 121.775C4788.06 121.456 4787.51 121.046 4787.1 120.545C4786.69 120.037 4786.42 119.507 4786.29 118.953C4786.1 118.133 4786 116.922 4786 115.32V107.684ZM4788.46 106.863V104.51H4790.82V106.863H4788.46ZM4792.66 106.863V104.51H4795.03V106.863H4792.66ZM4802.51 122V107.684H4805.4V114.041L4811.24 107.684H4815.13L4809.74 113.26L4815.42 122H4811.68L4807.75 115.281L4805.4 117.674V122H4802.51Z" fill="#949494"/>
<rect x="5000" y="100" width="120" height="30" fill="#D9D9D9"/>
<path d="M5041.57 122V107.684H5044.46V122H5041.57ZM5041.68 106.863V104.266H5044.38V106.863H5041.68ZM5049.22 107.684H5054.5C5055.69 107.684 5056.6 107.775 5057.23 107.957C5058.07 108.204 5058.79 108.644 5059.38 109.275C5059.98 109.907 5060.44 110.682 5060.75 111.6C5061.06 112.511 5061.22 113.637 5061.22 114.979C5061.22 116.157 5061.07 117.173 5060.78 118.025C5060.42 119.067 5059.91 119.91 5059.25 120.555C5058.75 121.043 5058.07 121.424 5057.22 121.697C5056.58 121.899 5055.73 122 5054.66 122H5049.22V107.684ZM5052.11 110.105V119.588H5054.27C5055.07 119.588 5055.66 119.542 5056.02 119.451C5056.48 119.334 5056.87 119.135 5057.18 118.855C5057.49 118.576 5057.74 118.117 5057.94 117.479C5058.13 116.834 5058.23 115.958 5058.23 114.852C5058.23 113.745 5058.13 112.895 5057.94 112.303C5057.74 111.71 5057.47 111.248 5057.12 110.916C5056.77 110.584 5056.32 110.359 5055.78 110.242C5055.38 110.151 5054.59 110.105 5053.41 110.105H5052.11ZM5065.1 114.93C5065.1 113.471 5065.31 112.247 5065.75 111.258C5066.08 110.529 5066.52 109.874 5067.08 109.295C5067.64 108.715 5068.26 108.286 5068.93 108.006C5069.83 107.628 5070.85 107.439 5072.02 107.439C5074.13 107.439 5075.82 108.094 5077.08 109.402C5078.35 110.711 5078.98 112.531 5078.98 114.861C5078.98 117.173 5078.35 118.982 5077.1 120.291C5075.84 121.593 5074.16 122.244 5072.06 122.244C5069.93 122.244 5068.24 121.596 5066.98 120.301C5065.72 118.999 5065.1 117.208 5065.1 114.93ZM5068.07 114.832C5068.07 116.453 5068.45 117.684 5069.2 118.523C5069.95 119.357 5070.9 119.773 5072.05 119.773C5073.2 119.773 5074.15 119.36 5074.88 118.533C5075.62 117.7 5075.99 116.453 5075.99 114.793C5075.99 113.152 5075.63 111.928 5074.91 111.121C5074.19 110.314 5073.24 109.91 5072.05 109.91C5070.86 109.91 5069.9 110.32 5069.17 111.141C5068.44 111.954 5068.07 113.185 5068.07 114.832Z" fill="#949494"/>
<path d="M338 80.071L345.071 73L422.146 150.075L415.075 157.146L338 80.071Z" fill="#949494"/>
<path d="M415.075 73L422.146 80.0711L345.071 157.146L338 150.075L415.075 73Z" fill="#949494"/>
<path d="M850 80.071L857.071 73L934.146 150.075L927.075 157.146L850 80.071Z" fill="#949494"/>
<path d="M927.075 73L934.146 80.0711L857.071 157.146L850 150.075L927.075 73Z" fill="#949494"/>
<path d="M1350 80.071L1357.07 73L1434.15 150.075L1427.07 157.146L1350 80.071Z" fill="#949494"/>
<path d="M1427.07 73L1434.15 80.0711L1357.07 157.146L1350 150.075L1427.07 73Z" fill="#949494"/>
<path d="M2300 80.071L2307.07 73L2384.15 150.075L2377.07 157.146L2300 80.071Z" fill="#949494"/>
<path d="M2377.07 73L2384.15 80.0711L2307.07 157.146L2300 150.075L2377.07 73Z" fill="#949494"/>
<path d="M3200 80.071L3207.07 73L3284.15 150.075L3277.07 157.146L3200 80.071Z" fill="#949494"/>
<path d="M3277.07 73L3284.15 80.0711L3207.07 157.146L3200 150.075L3277.07 73Z" fill="#949494"/>
<path d="M3630 80.071L3637.07 73L3714.15 150.075L3707.07 157.146L3630 80.071Z" fill="#949494"/>
<path d="M3707.07 73L3714.15 80.0711L3637.07 157.146L3630 150.075L3707.07 73Z" fill="#949494"/>
<path d="M4360 80.071L4367.07 73L4444.15 150.075L4437.07 157.146L4360 80.071Z" fill="#949494"/>
<path d="M4437.07 73L4444.15 80.0711L4367.07 157.146L4360 150.075L4437.07 73Z" fill="#949494"/>
<path d="M4880 80.071L4887.07 73L4964.15 150.075L4957.07 157.146L4880 80.071Z" fill="#949494"/>
<path d="M4957.07 73L4964.15 80.0711L4887.07 157.146L4880 150.075L4957.07 73Z" fill="#949494"/>
<path d="M2076 80.071L2083.07 73L2123.02 112.952L2115.95 120.023L2076 80.071Z" fill="#949494"/>
<line x1="2116" y1="115" x2="2223" y2="115" stroke="#949494" stroke-width="10"/>
<path d="M2257.07 73L2264.15 80.0711L2146.57 197.648L2139.5 190.577L2257.07 73Z" fill="#949494"/>
<path d="M2246.64 150.438L2253.71 157.509L2213.57 197.648L2206.5 190.577L2246.64 150.438Z" fill="#949494"/>
<line x1="2830" y1="115" x2="2930" y2="115" stroke="#949494" stroke-width="10"/>
<rect x="2925" y="110" width="52.5" height="10" transform="rotate(-45 2925 110)" fill="#949494"/>
<rect x="2791" y="150" width="52.5" height="10" transform="rotate(-45 2791 150)" fill="#949494"/>
<rect x="2932.07" y="112.877" width="52.5" height="10" transform="rotate(45 2932.07 112.877)" fill="#949494"/>
<rect x="2798.07" y="72.877" width="52.5" height="10" transform="rotate(45 2798.07 72.877)" fill="#949494"/>
<line x1="80" y1="155" x2="5230" y2="155" stroke="#949494" stroke-width="10"/>
<line x1="80" y1="75" x2="5230" y2="75" stroke="#949494" stroke-width="10"/>
</svg>
