<svg xmlns="http://www.w3.org/2000/svg" viewBox="0 0 17.8 17.8"><defs><style>.cls-1{fill:#7c72b3;}.cls-2{fill:#fff;}</style></defs><g id="Layer_2" data-name="Layer 2"><g id="Layer_1-2" data-name="Layer 1"><path class="cls-1" d="M0,8.9a8.9,8.9,0,1,1,8.9,8.9A8.89,8.89,0,0,1,0,8.9"/><polygon class="cls-2" points="5.78 6.57 3.88 6.57 3.88 5.52 9.02 5.52 9.02 6.57 7.11 6.57 7.11 12.16 5.78 12.16 5.78 6.57"/><path class="cls-2" d="M13.76,6.51H11.2l0,1.42a2.93,2.93,0,0,1,.61-.07A2,2,0,0,1,13.92,10a2.28,2.28,0,0,1-2.59,2.26,7.56,7.56,0,0,1-1.55-.19l0-1.19a3.47,3.47,0,0,0,1.36.33c.69,0,1.42-.32,1.42-1.17s-.77-1.15-1.53-1.15a4,4,0,0,0-1.19.18l.07-3.57h3.82Z"/></g></g></svg>