<svg width="36" height="36" viewBox="0 0 36 36" fill="none" xmlns="http://www.w3.org/2000/svg">
<g clip-path="url(#clip0_494_3706)">
<path d="M17.9998 36.025C14.4313 36.0319 10.941 34.9814 7.97055 33.0064C5.00009 31.0314 2.68303 28.2206 1.31262 24.9299C-0.057791 21.6391 -0.419952 18.0163 0.271969 14.5199C0.963891 11.0235 2.67879 7.81075 5.19964 5.28815C7.72049 2.76555 10.934 1.04654 14.4334 0.348685C17.9328 -0.349176 21.5608 0.00548112 24.8584 1.36777C28.1559 2.73006 30.9746 5.03874 32.9579 8.00164C34.9412 10.9645 35.9998 14.4485 35.9998 18.0125C35.9998 22.7836 34.1045 27.3599 30.7299 30.7369C27.3552 34.1139 22.7769 36.0157 17.9998 36.025Z" fill="#7C72B3"/>
<path d="M25.1309 16.1913H27.6608C28.5926 16.1913 29.9853 16.4615 29.9853 18.0476C29.9881 18.4452 29.844 18.8299 29.5805 19.1281C29.3171 19.4262 28.9529 19.6169 28.5575 19.6637C28.994 19.6688 29.4113 19.8436 29.7209 20.1509C30.0304 20.4583 30.208 20.874 30.2157 21.3098C30.2157 23.1311 28.5776 23.3963 27.6708 23.3963H25.1309V16.1913ZM26.5837 19.1133H27.1698C27.781 19.1133 28.5375 18.9782 28.5375 18.2327C28.5375 17.3921 27.8061 17.3321 27.1398 17.3321H26.5837V19.1133ZM26.5837 22.2805H27.265C27.9363 22.2805 28.7679 22.1154 28.7679 21.2798C28.7679 20.3392 28.0014 20.1941 27.265 20.1941H26.5837V22.2805Z" fill="white"/>
<path d="M9.88209 14.3261H6.84766V12.6119H15.0566V14.3261H12.0062V23.4519H9.88209V14.3261Z" fill="white"/>
<path d="M22.6259 14.193H18.5374V16.4608C18.8573 16.3896 19.1838 16.3521 19.5116 16.349C19.9651 16.3229 20.4189 16.3938 20.8429 16.5569C21.2668 16.7201 21.651 16.9718 21.97 17.2953C22.2889 17.6187 22.5351 18.0065 22.6923 18.4327C22.8495 18.8589 22.9139 19.3137 22.8814 19.7668C22.8817 20.2869 22.7705 20.8011 22.5553 21.2747C22.3402 21.7483 22.0261 22.1703 21.6342 22.5123C21.2422 22.8543 20.7816 23.1083 20.2832 23.2573C19.7848 23.4064 19.2603 23.4469 18.745 23.3761C17.9116 23.3607 17.082 23.259 16.2695 23.0727V21.1722C16.9502 21.4936 17.6893 21.6729 18.4415 21.6992C19.5435 21.6992 20.7094 21.1882 20.7094 19.8306C20.7094 18.4731 19.4796 17.994 18.2659 17.994C17.6215 17.9934 16.9807 18.0904 16.3654 18.2815L16.4772 12.58H22.578L22.6259 14.193Z" fill="white"/>
</g>
<defs>
<clipPath id="clip0_494_3706">
<rect width="36" height="36" fill="white"/>
</clipPath>
</defs>
</svg>
