<svg width="4640" height="225" viewBox="0 0 4640 225" fill="none" xmlns="http://www.w3.org/2000/svg">
<rect x="80" y="170" width="120" height="30" fill="#D9D9D9"/>
<rect x="80" y="30" width="120" height="30" fill="#D9D9D9"/>
<path d="M92.1387 114.93C92.1387 113.471 92.3568 112.247 92.793 111.258C93.1185 110.529 93.5612 109.874 94.1211 109.295C94.6875 108.715 95.306 108.286 95.9766 108.006C96.8685 107.628 97.8971 107.439 99.0625 107.439C101.172 107.439 102.858 108.094 104.121 109.402C105.391 110.711 106.025 112.531 106.025 114.861C106.025 117.173 105.397 118.982 104.141 120.291C102.884 121.593 101.204 122.244 99.1016 122.244C96.9727 122.244 95.2799 121.596 94.0234 120.301C92.7669 118.999 92.1387 117.208 92.1387 114.93ZM95.1172 114.832C95.1172 116.453 95.4915 117.684 96.2402 118.523C96.9889 119.357 97.9395 119.773 99.0918 119.773C100.244 119.773 101.188 119.36 101.924 118.533C102.666 117.7 103.037 116.453 103.037 114.793C103.037 113.152 102.676 111.928 101.953 111.121C101.237 110.314 100.283 109.91 99.0918 109.91C97.9004 109.91 96.9401 110.32 96.2109 111.141C95.4818 111.954 95.1172 113.185 95.1172 114.832ZM113.514 122V110.105H109.266V107.684H120.643V110.105H116.404V122H113.514ZM123.561 114.93C123.561 113.471 123.779 112.247 124.215 111.258C124.54 110.529 124.983 109.874 125.543 109.295C126.109 108.715 126.728 108.286 127.398 108.006C128.29 107.628 129.319 107.439 130.484 107.439C132.594 107.439 134.28 108.094 135.543 109.402C136.812 110.711 137.447 112.531 137.447 114.861C137.447 117.173 136.819 118.982 135.562 120.291C134.306 121.593 132.626 122.244 130.523 122.244C128.395 122.244 126.702 121.596 125.445 120.301C124.189 118.999 123.561 117.208 123.561 114.93ZM126.539 114.832C126.539 116.453 126.913 117.684 127.662 118.523C128.411 119.357 129.361 119.773 130.514 119.773C131.666 119.773 132.61 119.36 133.346 118.533C134.088 117.7 134.459 116.453 134.459 114.793C134.459 113.152 134.098 111.928 133.375 111.121C132.659 110.314 131.705 109.91 130.514 109.91C129.322 109.91 128.362 110.32 127.633 111.141C126.904 111.954 126.539 113.185 126.539 114.832ZM148.373 116.736V114.324H154.604V120.027C153.998 120.613 153.119 121.131 151.967 121.58C150.821 122.023 149.659 122.244 148.48 122.244C146.983 122.244 145.678 121.932 144.564 121.307C143.451 120.675 142.615 119.777 142.055 118.611C141.495 117.439 141.215 116.167 141.215 114.793C141.215 113.302 141.527 111.977 142.152 110.818C142.777 109.66 143.692 108.771 144.896 108.152C145.814 107.677 146.957 107.439 148.324 107.439C150.102 107.439 151.488 107.814 152.484 108.562C153.487 109.305 154.132 110.333 154.418 111.648L151.547 112.186C151.345 111.482 150.964 110.929 150.404 110.525C149.851 110.115 149.158 109.91 148.324 109.91C147.061 109.91 146.055 110.311 145.307 111.111C144.564 111.912 144.193 113.1 144.193 114.676C144.193 116.375 144.571 117.651 145.326 118.504C146.081 119.35 147.071 119.773 148.295 119.773C148.9 119.773 149.506 119.656 150.111 119.422C150.723 119.181 151.247 118.891 151.684 118.553V116.736H148.373ZM172.189 122H169.045L167.795 118.748H162.072L160.891 122H157.824L163.4 107.684H166.457L172.189 122ZM166.867 116.336L164.895 111.023L162.961 116.336H166.867ZM175.742 122V107.684H181.826C183.356 107.684 184.466 107.814 185.156 108.074C185.853 108.328 186.41 108.784 186.826 109.441C187.243 110.099 187.451 110.851 187.451 111.697C187.451 112.771 187.135 113.66 186.504 114.363C185.872 115.06 184.928 115.499 183.672 115.682C184.297 116.046 184.811 116.447 185.215 116.883C185.625 117.319 186.175 118.094 186.865 119.207L188.613 122H185.156L183.066 118.885C182.324 117.771 181.816 117.072 181.543 116.785C181.27 116.492 180.98 116.294 180.674 116.189C180.368 116.079 179.883 116.023 179.219 116.023H178.633V122H175.742ZM178.633 113.738H180.771C182.158 113.738 183.024 113.68 183.369 113.562C183.714 113.445 183.984 113.243 184.18 112.957C184.375 112.671 184.473 112.312 184.473 111.883C184.473 111.401 184.342 111.014 184.082 110.721C183.828 110.421 183.467 110.232 182.998 110.154C182.764 110.122 182.061 110.105 180.889 110.105H178.633V113.738Z" fill="#949494"/>
<rect x="800" y="170" width="120" height="30" fill="#D9D9D9"/>
<rect x="800" y="30" width="120" height="30" fill="#D9D9D9"/>
<path d="M821.293 122V107.684H825.619L828.217 117.449L830.785 107.684H835.121V122H832.436V110.73L829.594 122H826.811L823.979 110.73V122H821.293ZM839.992 122V107.684H850.607V110.105H842.883V113.279H850.07V115.691H842.883V119.588H850.881V122H839.992ZM858.555 122V110.105H854.307V107.684H865.684V110.105H861.445V122H858.555ZM869.568 122V107.684H875.652C877.182 107.684 878.292 107.814 878.982 108.074C879.679 108.328 880.236 108.784 880.652 109.441C881.069 110.099 881.277 110.851 881.277 111.697C881.277 112.771 880.962 113.66 880.33 114.363C879.699 115.06 878.755 115.499 877.498 115.682C878.123 116.046 878.637 116.447 879.041 116.883C879.451 117.319 880.001 118.094 880.691 119.207L882.439 122H878.982L876.893 118.885C876.15 117.771 875.643 117.072 875.369 116.785C875.096 116.492 874.806 116.294 874.5 116.189C874.194 116.079 873.709 116.023 873.045 116.023H872.459V122H869.568ZM872.459 113.738H874.598C875.984 113.738 876.85 113.68 877.195 113.562C877.54 113.445 877.811 113.243 878.006 112.957C878.201 112.671 878.299 112.312 878.299 111.883C878.299 111.401 878.169 111.014 877.908 110.721C877.654 110.421 877.293 110.232 876.824 110.154C876.59 110.122 875.887 110.105 874.715 110.105H872.459V113.738ZM885.426 114.93C885.426 113.471 885.644 112.247 886.08 111.258C886.406 110.529 886.848 109.874 887.408 109.295C887.975 108.715 888.593 108.286 889.264 108.006C890.156 107.628 891.184 107.439 892.35 107.439C894.459 107.439 896.145 108.094 897.408 109.402C898.678 110.711 899.312 112.531 899.312 114.861C899.312 117.173 898.684 118.982 897.428 120.291C896.171 121.593 894.492 122.244 892.389 122.244C890.26 122.244 888.567 121.596 887.311 120.301C886.054 118.999 885.426 117.208 885.426 114.93ZM888.404 114.832C888.404 116.453 888.779 117.684 889.527 118.523C890.276 119.357 891.227 119.773 892.379 119.773C893.531 119.773 894.475 119.36 895.211 118.533C895.953 117.7 896.324 116.453 896.324 114.793C896.324 113.152 895.963 111.928 895.24 111.121C894.524 110.314 893.57 109.91 892.379 109.91C891.188 109.91 890.227 110.32 889.498 111.141C888.769 111.954 888.404 113.185 888.404 114.832Z" fill="#949494"/>
<rect x="1000" y="170" width="120" height="30" fill="#D9D9D9"/>
<rect x="1000" y="30" width="120" height="30" fill="#D9D9D9"/>
<path d="M1014.18 122V107.684H1018.51L1021.1 117.449L1023.67 107.684H1028.01V122H1025.32V110.73L1022.48 122H1019.7L1016.87 110.73V122H1014.18ZM1032.88 122V107.684H1043.49V110.105H1035.77V113.279H1042.96V115.691H1035.77V119.588H1043.77V122H1032.88ZM1048.23 122V107.684H1054.31C1055.84 107.684 1056.95 107.814 1057.64 108.074C1058.34 108.328 1058.9 108.784 1059.31 109.441C1059.73 110.099 1059.94 110.851 1059.94 111.697C1059.94 112.771 1059.62 113.66 1058.99 114.363C1058.36 115.06 1057.41 115.499 1056.16 115.682C1056.78 116.046 1057.3 116.447 1057.7 116.883C1058.11 117.319 1058.66 118.094 1059.35 119.207L1061.1 122H1057.64L1055.55 118.885C1054.81 117.771 1054.3 117.072 1054.03 116.785C1053.76 116.492 1053.47 116.294 1053.16 116.189C1052.85 116.079 1052.37 116.023 1051.71 116.023H1051.12V122H1048.23ZM1051.12 113.738H1053.26C1054.64 113.738 1055.51 113.68 1055.86 113.562C1056.2 113.445 1056.47 113.243 1056.67 112.957C1056.86 112.671 1056.96 112.312 1056.96 111.883C1056.96 111.401 1056.83 111.014 1056.57 110.721C1056.31 110.421 1055.95 110.232 1055.48 110.154C1055.25 110.122 1054.55 110.105 1053.38 110.105H1051.12V113.738ZM1064.71 122V107.684H1067.6V114.041L1073.44 107.684H1077.33L1071.94 113.26L1077.62 122H1073.88L1069.95 115.281L1067.6 117.674V122H1064.71ZM1081.12 122V107.684H1091.74V110.105H1084.02V113.279H1091.2V115.691H1084.02V119.588H1092.01V122H1081.12ZM1095.22 122V119.393L1102.74 110.105H1096.07V107.684H1106.55V109.93L1098.71 119.588H1106.86V122H1095.22Z" fill="#949494"/>
<rect x="1400" y="170" width="120" height="30" fill="#D9D9D9"/>
<rect x="1400" y="30" width="120" height="30" fill="#D9D9D9"/>
<path d="M1403.85 107.684H1406.74V115.438C1406.74 116.668 1406.78 117.465 1406.85 117.83C1406.97 118.416 1407.26 118.888 1407.73 119.246C1408.2 119.598 1408.83 119.773 1409.64 119.773C1410.46 119.773 1411.08 119.607 1411.5 119.275C1411.91 118.937 1412.16 118.523 1412.25 118.035C1412.33 117.547 1412.38 116.736 1412.38 115.604V107.684H1415.27V115.203C1415.27 116.922 1415.19 118.136 1415.03 118.846C1414.88 119.555 1414.59 120.154 1414.16 120.643C1413.75 121.131 1413.19 121.521 1412.48 121.814C1411.78 122.101 1410.86 122.244 1409.73 122.244C1408.36 122.244 1407.32 122.088 1406.61 121.775C1405.91 121.456 1405.35 121.046 1404.94 120.545C1404.53 120.037 1404.26 119.507 1404.13 118.953C1403.94 118.133 1403.85 116.922 1403.85 115.32V107.684ZM1406.31 106.863V104.51H1408.66V106.863H1406.31ZM1410.51 106.863V104.51H1412.87V106.863H1410.51ZM1420.35 122V107.684H1423.16L1429.02 117.244V107.684H1431.71V122H1428.81L1423.04 112.664V122H1420.35ZM1436.69 122V107.684H1439.58V122H1436.69ZM1436.79 106.863V104.266H1439.49V106.863H1436.79ZM1447.99 122L1442.88 107.684H1446.01L1449.63 118.279L1453.14 107.684H1456.21L1451.08 122H1447.99ZM1459.69 122V107.684H1465.78C1467.31 107.684 1468.42 107.814 1469.11 108.074C1469.8 108.328 1470.36 108.784 1470.78 109.441C1471.19 110.099 1471.4 110.851 1471.4 111.697C1471.4 112.771 1471.08 113.66 1470.45 114.363C1469.82 115.06 1468.88 115.499 1467.62 115.682C1468.25 116.046 1468.76 116.447 1469.16 116.883C1469.57 117.319 1470.12 118.094 1470.81 119.207L1472.56 122H1469.11L1467.02 118.885C1466.27 117.771 1465.77 117.072 1465.49 116.785C1465.22 116.492 1464.93 116.294 1464.62 116.189C1464.32 116.079 1463.83 116.023 1463.17 116.023H1462.58V122H1459.69ZM1462.58 113.738H1464.72C1466.11 113.738 1466.97 113.68 1467.32 113.562C1467.66 113.445 1467.93 113.243 1468.13 112.957C1468.32 112.671 1468.42 112.312 1468.42 111.883C1468.42 111.401 1468.29 111.014 1468.03 110.721C1467.78 110.421 1467.42 110.232 1466.95 110.154C1466.71 110.122 1466.01 110.105 1464.84 110.105H1462.58V113.738ZM1475.4 117.342L1478.21 117.068C1478.38 118.012 1478.73 118.706 1479.24 119.148C1479.76 119.591 1480.46 119.812 1481.34 119.812C1482.27 119.812 1482.97 119.617 1483.44 119.227C1483.91 118.829 1484.15 118.367 1484.15 117.84C1484.15 117.501 1484.05 117.215 1483.85 116.98C1483.65 116.74 1483.31 116.531 1482.81 116.355C1482.48 116.238 1481.7 116.03 1480.5 115.73C1478.95 115.346 1477.86 114.874 1477.24 114.314C1476.36 113.527 1475.92 112.566 1475.92 111.434C1475.92 110.704 1476.12 110.024 1476.54 109.393C1476.95 108.755 1477.55 108.27 1478.32 107.938C1479.1 107.605 1480.04 107.439 1481.14 107.439C1482.94 107.439 1484.29 107.833 1485.2 108.621C1486.11 109.409 1486.59 110.46 1486.63 111.775L1483.74 111.902C1483.62 111.167 1483.35 110.639 1482.94 110.32C1482.54 109.995 1481.93 109.832 1481.12 109.832C1480.28 109.832 1479.62 110.005 1479.14 110.35C1478.84 110.571 1478.68 110.867 1478.68 111.238C1478.68 111.577 1478.83 111.867 1479.11 112.107C1479.48 112.413 1480.36 112.732 1481.77 113.064C1483.18 113.396 1484.21 113.742 1484.88 114.1C1485.56 114.451 1486.09 114.936 1486.47 115.555C1486.85 116.167 1487.04 116.925 1487.04 117.83C1487.04 118.65 1486.82 119.419 1486.36 120.135C1485.9 120.851 1485.26 121.385 1484.43 121.736C1483.59 122.081 1482.55 122.254 1481.31 122.254C1479.5 122.254 1478.11 121.837 1477.14 121.004C1476.17 120.164 1475.59 118.943 1475.4 117.342ZM1494.7 122V110.105H1490.45V107.684H1501.83V110.105H1497.59V122H1494.7ZM1505.7 122V107.684H1516.32V110.105H1508.59V113.279H1515.78V115.691H1508.59V119.588H1516.59V122H1505.7Z" fill="#949494"/>
<rect x="1600" y="170" width="120" height="30" fill="#D9D9D9"/>
<rect x="1600" y="30" width="120" height="30" fill="#D9D9D9"/>
<path d="M1602.58 117.342L1605.39 117.068C1605.56 118.012 1605.9 118.706 1606.42 119.148C1606.94 119.591 1607.64 119.812 1608.52 119.812C1609.45 119.812 1610.15 119.617 1610.62 119.227C1611.09 118.829 1611.33 118.367 1611.33 117.84C1611.33 117.501 1611.23 117.215 1611.03 116.98C1610.83 116.74 1610.49 116.531 1609.99 116.355C1609.65 116.238 1608.88 116.03 1607.68 115.73C1606.13 115.346 1605.04 114.874 1604.42 114.314C1603.54 113.527 1603.1 112.566 1603.1 111.434C1603.1 110.704 1603.3 110.024 1603.71 109.393C1604.13 108.755 1604.73 108.27 1605.5 107.938C1606.28 107.605 1607.22 107.439 1608.32 107.439C1610.12 107.439 1611.47 107.833 1612.38 108.621C1613.29 109.409 1613.76 110.46 1613.81 111.775L1610.92 111.902C1610.8 111.167 1610.53 110.639 1610.12 110.32C1609.72 109.995 1609.11 109.832 1608.29 109.832C1607.45 109.832 1606.8 110.005 1606.32 110.35C1606.01 110.571 1605.86 110.867 1605.86 111.238C1605.86 111.577 1606 111.867 1606.29 112.107C1606.66 112.413 1607.54 112.732 1608.95 113.064C1610.35 113.396 1611.39 113.742 1612.06 114.1C1612.74 114.451 1613.27 114.936 1613.64 115.555C1614.03 116.167 1614.22 116.925 1614.22 117.83C1614.22 118.65 1613.99 119.419 1613.54 120.135C1613.08 120.851 1612.44 121.385 1611.6 121.736C1610.77 122.081 1609.73 122.254 1608.49 122.254C1606.68 122.254 1605.29 121.837 1604.32 121.004C1603.35 120.164 1602.77 118.943 1602.58 117.342ZM1618.56 122V107.684H1621.46V122H1618.56ZM1618.67 106.863V104.266H1621.37V106.863H1618.67ZM1626.3 122V107.801H1629.19V119.588H1636.38V122H1626.3ZM1640.46 122V107.684H1643.35V113.318H1649.01V107.684H1651.9V122H1649.01V115.74H1643.35V122H1640.46ZM1660.12 122V110.105H1655.87V107.684H1667.25V110.105H1663.01V122H1660.12ZM1671.13 122V107.684H1677.22C1678.75 107.684 1679.86 107.814 1680.55 108.074C1681.25 108.328 1681.8 108.784 1682.22 109.441C1682.64 110.099 1682.84 110.851 1682.84 111.697C1682.84 112.771 1682.53 113.66 1681.9 114.363C1681.26 115.06 1680.32 115.499 1679.06 115.682C1679.69 116.046 1680.2 116.447 1680.61 116.883C1681.02 117.319 1681.57 118.094 1682.26 119.207L1684.01 122H1680.55L1678.46 118.885C1677.72 117.771 1677.21 117.072 1676.94 116.785C1676.66 116.492 1676.37 116.294 1676.07 116.189C1675.76 116.079 1675.28 116.023 1674.61 116.023H1674.03V122H1671.13ZM1674.03 113.738H1676.16C1677.55 113.738 1678.42 113.68 1678.76 113.562C1679.11 113.445 1679.38 113.243 1679.57 112.957C1679.77 112.671 1679.87 112.312 1679.87 111.883C1679.87 111.401 1679.74 111.014 1679.47 110.721C1679.22 110.421 1678.86 110.232 1678.39 110.154C1678.16 110.122 1677.45 110.105 1676.28 110.105H1674.03V113.738ZM1694.24 116.736V114.324H1700.47V120.027C1699.86 120.613 1698.98 121.131 1697.83 121.58C1696.69 122.023 1695.52 122.244 1694.35 122.244C1692.85 122.244 1691.54 121.932 1690.43 121.307C1689.32 120.675 1688.48 119.777 1687.92 118.611C1687.36 117.439 1687.08 116.167 1687.08 114.793C1687.08 113.302 1687.39 111.977 1688.02 110.818C1688.64 109.66 1689.56 108.771 1690.76 108.152C1691.68 107.677 1692.82 107.439 1694.19 107.439C1695.97 107.439 1697.35 107.814 1698.35 108.562C1699.35 109.305 1700 110.333 1700.28 111.648L1697.41 112.186C1697.21 111.482 1696.83 110.929 1696.27 110.525C1695.72 110.115 1695.02 109.91 1694.19 109.91C1692.93 109.91 1691.92 110.311 1691.17 111.111C1690.43 111.912 1690.06 113.1 1690.06 114.676C1690.06 116.375 1690.44 117.651 1691.19 118.504C1691.95 119.35 1692.94 119.773 1694.16 119.773C1694.77 119.773 1695.37 119.656 1695.98 119.422C1696.59 119.181 1697.11 118.891 1697.55 118.553V116.736H1694.24ZM1696.07 104.07H1697.41C1697.33 104.956 1697.02 105.652 1696.47 106.16C1695.93 106.661 1695.23 106.912 1694.37 106.912C1693.5 106.912 1692.79 106.661 1692.25 106.16C1691.71 105.652 1691.4 104.956 1691.32 104.07H1692.66C1692.7 104.533 1692.86 104.884 1693.14 105.125C1693.42 105.359 1693.83 105.477 1694.37 105.477C1694.9 105.477 1695.31 105.359 1695.59 105.125C1695.87 104.884 1696.03 104.533 1696.07 104.07ZM1718.05 122H1714.91L1713.66 118.748H1707.94L1706.76 122H1703.69L1709.27 107.684H1712.32L1718.05 122ZM1712.73 116.336L1710.76 111.023L1708.83 116.336H1712.73Z" fill="#949494"/>
<rect x="1900" y="170" width="120" height="30" fill="#D9D9D9"/>
<rect x="1900" y="30" width="120" height="30" fill="#D9D9D9"/>
<path d="M1907.85 122V107.684H1910.74V113.318H1916.4V107.684H1919.29V122H1916.4V115.74H1910.74V122H1907.85ZM1937.2 122H1934.06L1932.81 118.748H1927.08L1925.9 122H1922.84L1928.41 107.684H1931.47L1937.2 122ZM1931.88 116.336L1929.91 111.023L1927.97 116.336H1931.88ZM1940.01 117.342L1942.82 117.068C1942.99 118.012 1943.34 118.706 1943.85 119.148C1944.37 119.591 1945.07 119.812 1945.95 119.812C1946.88 119.812 1947.58 119.617 1948.05 119.227C1948.52 118.829 1948.76 118.367 1948.76 117.84C1948.76 117.501 1948.66 117.215 1948.46 116.98C1948.26 116.74 1947.92 116.531 1947.42 116.355C1947.09 116.238 1946.31 116.03 1945.11 115.73C1943.56 115.346 1942.47 114.874 1941.85 114.314C1940.97 113.527 1940.53 112.566 1940.53 111.434C1940.53 110.704 1940.73 110.024 1941.14 109.393C1941.56 108.755 1942.16 108.27 1942.93 107.938C1943.71 107.605 1944.65 107.439 1945.75 107.439C1947.55 107.439 1948.9 107.833 1949.81 108.621C1950.72 109.409 1951.2 110.46 1951.24 111.775L1948.35 111.902C1948.23 111.167 1947.96 110.639 1947.55 110.32C1947.15 109.995 1946.54 109.832 1945.72 109.832C1944.88 109.832 1944.23 110.005 1943.75 110.35C1943.45 110.571 1943.29 110.867 1943.29 111.238C1943.29 111.577 1943.44 111.867 1943.72 112.107C1944.09 112.413 1944.97 112.732 1946.38 113.064C1947.79 113.396 1948.82 113.742 1949.49 114.1C1950.17 114.451 1950.7 114.936 1951.08 115.555C1951.46 116.167 1951.65 116.925 1951.65 117.83C1951.65 118.65 1951.42 119.419 1950.97 120.135C1950.51 120.851 1949.87 121.385 1949.04 121.736C1948.2 122.081 1947.16 122.254 1945.92 122.254C1944.11 122.254 1942.72 121.837 1941.75 121.004C1940.78 120.164 1940.2 118.943 1940.01 117.342ZM1959.31 122V110.105H1955.06V107.684H1966.44V110.105H1962.2V122H1959.31ZM1981.74 122H1978.59L1977.34 118.748H1971.62L1970.44 122H1967.37L1972.95 107.684H1976L1981.74 122ZM1976.41 116.336L1974.44 111.023L1972.51 116.336H1976.41ZM1985.31 122V107.684H1988.12L1993.98 117.244V107.684H1996.67V122H1993.77L1987.99 112.664V122H1985.31ZM2001.73 122V107.684H2012.35V110.105H2004.62V113.279H2011.81V115.691H2004.62V119.588H2012.62V122H2001.73Z" fill="#949494"/>
<rect x="2200" y="170" width="120" height="30" fill="#D9D9D9"/>
<rect x="2200" y="30" width="120" height="30" fill="#D9D9D9"/>
<path d="M2208.76 122V110.105H2204.51V107.684H2215.89V110.105H2211.65V122H2208.76ZM2219.77 122V107.684H2230.38V110.105H2222.66V113.279H2229.84V115.691H2222.66V119.588H2230.65V122H2219.77ZM2235.18 122V107.801H2238.07V119.588H2245.26V122H2235.18ZM2249.33 122V107.684H2259.95V110.105H2252.22V113.279H2259.41V115.691H2252.22V119.588H2260.22V122H2249.33ZM2264.69 122V107.684H2274.51V110.105H2267.58V113.494H2273.56V115.916H2267.58V122H2264.69ZM2278.91 122V107.684H2284.99C2286.52 107.684 2287.63 107.814 2288.32 108.074C2289.02 108.328 2289.58 108.784 2289.99 109.441C2290.41 110.099 2290.62 110.851 2290.62 111.697C2290.62 112.771 2290.3 113.66 2289.67 114.363C2289.04 115.06 2288.09 115.499 2286.84 115.682C2287.46 116.046 2287.98 116.447 2288.38 116.883C2288.79 117.319 2289.34 118.094 2290.03 119.207L2291.78 122H2288.32L2286.23 118.885C2285.49 117.771 2284.98 117.072 2284.71 116.785C2284.44 116.492 2284.15 116.294 2283.84 116.189C2283.53 116.079 2283.05 116.023 2282.38 116.023H2281.8V122H2278.91ZM2281.8 113.738H2283.94C2285.32 113.738 2286.19 113.68 2286.54 113.562C2286.88 113.445 2287.15 113.243 2287.35 112.957C2287.54 112.671 2287.64 112.312 2287.64 111.883C2287.64 111.401 2287.51 111.014 2287.25 110.721C2286.99 110.421 2286.63 110.232 2286.16 110.154C2285.93 110.122 2285.23 110.105 2284.05 110.105H2281.8V113.738ZM2295.26 122V107.684H2298.15V122H2295.26ZM2295.37 106.863V104.266H2298.07V106.863H2295.37ZM2302.96 122V107.684H2305.85V114.041L2311.69 107.684H2315.57L2310.18 113.26L2315.87 122H2312.13L2308.19 115.281L2305.85 117.674V122H2302.96Z" fill="#949494"/>
<rect x="2570" y="100" width="120" height="30" fill="#D9D9D9"/>
<rect x="2570" y="180" width="120" height="30" fill="#D9D9D9"/>
<path d="M2577.67 121V106.684H2587.49V109.105H2580.56V112.494H2586.54V114.916H2580.56V121H2577.67ZM2591.88 121V106.684H2602.49V109.105H2594.77V112.279H2601.96V114.691H2594.77V118.588H2602.77V121H2591.88ZM2606.49 116.342L2609.3 116.068C2609.47 117.012 2609.81 117.706 2610.32 118.148C2610.85 118.591 2611.54 118.812 2612.42 118.812C2613.35 118.812 2614.05 118.617 2614.52 118.227C2615 117.829 2615.24 117.367 2615.24 116.84C2615.24 116.501 2615.14 116.215 2614.93 115.98C2614.74 115.74 2614.39 115.531 2613.9 115.355C2613.56 115.238 2612.79 115.03 2611.58 114.73C2610.03 114.346 2608.95 113.874 2608.32 113.314C2607.44 112.527 2607 111.566 2607 110.434C2607 109.704 2607.21 109.024 2607.62 108.393C2608.04 107.755 2608.63 107.27 2609.41 106.938C2610.19 106.605 2611.13 106.439 2612.23 106.439C2614.03 106.439 2615.38 106.833 2616.28 107.621C2617.19 108.409 2617.67 109.46 2617.72 110.775L2614.83 110.902C2614.7 110.167 2614.44 109.639 2614.03 109.32C2613.62 108.995 2613.01 108.832 2612.2 108.832C2611.36 108.832 2610.7 109.005 2610.23 109.35C2609.92 109.571 2609.77 109.867 2609.77 110.238C2609.77 110.577 2609.91 110.867 2610.2 111.107C2610.56 111.413 2611.45 111.732 2612.85 112.064C2614.26 112.396 2615.3 112.742 2615.97 113.1C2616.65 113.451 2617.17 113.936 2617.55 114.555C2617.93 115.167 2618.13 115.925 2618.13 116.83C2618.13 117.65 2617.9 118.419 2617.44 119.135C2616.99 119.851 2616.34 120.385 2615.51 120.736C2614.68 121.081 2613.64 121.254 2612.39 121.254C2610.58 121.254 2609.19 120.837 2608.22 120.004C2607.25 119.164 2606.68 117.943 2606.49 116.342ZM2622.57 121V106.684H2625.46V112.318H2631.12V106.684H2634.01V121H2631.12V114.74H2625.46V121H2622.57ZM2651.92 121H2648.78L2647.53 117.748H2641.8L2640.62 121H2637.56L2643.13 106.684H2646.19L2651.92 121ZM2646.6 115.336L2644.63 110.023L2642.69 115.336H2646.6ZM2655.49 121V106.684H2658.31L2664.17 116.244V106.684H2666.85V121H2663.95L2658.18 111.664V121H2655.49ZM2671.92 121V106.684H2682.53V109.105H2674.81V112.279H2682V114.691H2674.81V118.588H2682.81V121H2671.92Z" fill="#949494"/>
<rect x="2940" y="170" width="120" height="30" fill="#D9D9D9"/>
<rect x="2940" y="30" width="120" height="30" fill="#D9D9D9"/>
<path d="M2961.29 122H2958.15L2956.9 118.748H2951.18L2950 122H2946.93L2952.51 107.684H2955.56L2961.29 122ZM2955.97 116.336L2954 111.023L2952.07 116.336H2955.97ZM2966.76 122V115.975L2961.52 107.684H2964.91L2968.28 113.348L2971.58 107.684H2974.91L2969.64 115.994V122H2966.76ZM2981.99 122L2976.88 107.684H2980.01L2983.63 118.279L2987.14 107.684H2990.21L2985.08 122H2981.99ZM2993.71 122V107.684H2996.52L3002.38 117.244V107.684H3005.07V122H3002.17L2996.4 112.664V122H2993.71ZM3009.4 117.342L3012.21 117.068C3012.38 118.012 3012.73 118.706 3013.24 119.148C3013.76 119.591 3014.46 119.812 3015.34 119.812C3016.27 119.812 3016.97 119.617 3017.44 119.227C3017.91 118.829 3018.15 118.367 3018.15 117.84C3018.15 117.501 3018.05 117.215 3017.85 116.98C3017.65 116.74 3017.31 116.531 3016.81 116.355C3016.48 116.238 3015.7 116.03 3014.5 115.73C3012.95 115.346 3011.86 114.874 3011.24 114.314C3010.36 113.527 3009.92 112.566 3009.92 111.434C3009.92 110.704 3010.12 110.024 3010.54 109.393C3010.95 108.755 3011.55 108.27 3012.32 107.938C3013.1 107.605 3014.04 107.439 3015.14 107.439C3016.94 107.439 3018.29 107.833 3019.2 108.621C3020.11 109.409 3020.59 110.46 3020.63 111.775L3017.74 111.902C3017.62 111.167 3017.35 110.639 3016.94 110.32C3016.54 109.995 3015.93 109.832 3015.12 109.832C3014.28 109.832 3013.62 110.005 3013.14 110.35C3012.84 110.571 3012.68 110.867 3012.68 111.238C3012.68 111.577 3012.83 111.867 3013.11 112.107C3013.48 112.413 3014.36 112.732 3015.77 113.064C3017.18 113.396 3018.21 113.742 3018.88 114.1C3019.56 114.451 3020.09 114.936 3020.47 115.555C3020.85 116.167 3021.04 116.925 3021.04 117.83C3021.04 118.65 3020.82 119.419 3020.36 120.135C3019.9 120.851 3019.26 121.385 3018.43 121.736C3017.59 122.081 3016.55 122.254 3015.31 122.254C3013.5 122.254 3012.11 121.837 3011.14 121.004C3010.17 120.164 3009.59 118.943 3009.4 117.342ZM3025.48 122V107.684H3031.57C3033.1 107.684 3034.21 107.814 3034.9 108.074C3035.6 108.328 3036.15 108.784 3036.57 109.441C3036.99 110.099 3037.19 110.851 3037.19 111.697C3037.19 112.771 3036.88 113.66 3036.25 114.363C3035.61 115.06 3034.67 115.499 3033.41 115.682C3034.04 116.046 3034.55 116.447 3034.96 116.883C3035.37 117.319 3035.92 118.094 3036.61 119.207L3038.36 122H3034.9L3032.81 118.885C3032.07 117.771 3031.56 117.072 3031.29 116.785C3031.01 116.492 3030.72 116.294 3030.42 116.189C3030.11 116.079 3029.62 116.023 3028.96 116.023H3028.38V122H3025.48ZM3028.38 113.738H3030.51C3031.9 113.738 3032.77 113.68 3033.11 113.562C3033.46 113.445 3033.73 113.243 3033.92 112.957C3034.12 112.671 3034.21 112.312 3034.21 111.883C3034.21 111.401 3034.08 111.014 3033.82 110.721C3033.57 110.421 3033.21 110.232 3032.74 110.154C3032.51 110.122 3031.8 110.105 3030.63 110.105H3028.38V113.738ZM3044.95 122V115.975L3039.7 107.684H3043.09L3046.46 113.348L3049.76 107.684H3053.09L3047.83 115.994V122H3044.95Z" fill="#949494"/>
<rect x="3240" y="170" width="120" height="30" fill="#D9D9D9"/>
<rect x="3240" y="30" width="120" height="30" fill="#D9D9D9"/>
<path d="M3264.3 107.684H3270.02C3271.16 107.684 3272 107.732 3272.55 107.83C3273.11 107.921 3273.61 108.117 3274.05 108.416C3274.49 108.715 3274.86 109.116 3275.15 109.617C3275.44 110.112 3275.59 110.669 3275.59 111.287C3275.59 111.958 3275.41 112.573 3275.04 113.133C3274.68 113.693 3274.2 114.113 3273.58 114.393C3274.45 114.646 3275.12 115.079 3275.59 115.691C3276.06 116.303 3276.29 117.023 3276.29 117.85C3276.29 118.501 3276.14 119.135 3275.83 119.754C3275.53 120.366 3275.12 120.857 3274.59 121.229C3274.07 121.593 3273.43 121.818 3272.66 121.902C3272.18 121.954 3271.02 121.987 3269.17 122H3264.3V107.684ZM3267.19 110.066V113.377H3269.09C3270.21 113.377 3270.91 113.361 3271.19 113.328C3271.68 113.27 3272.07 113.1 3272.35 112.82C3272.63 112.534 3272.78 112.16 3272.78 111.697C3272.78 111.255 3272.65 110.896 3272.41 110.623C3272.17 110.343 3271.8 110.174 3271.32 110.115C3271.04 110.083 3270.21 110.066 3268.85 110.066H3267.19ZM3267.19 115.76V119.588H3269.87C3270.91 119.588 3271.57 119.559 3271.85 119.5C3272.28 119.422 3272.63 119.233 3272.89 118.934C3273.17 118.628 3273.3 118.221 3273.3 117.713C3273.3 117.283 3273.2 116.919 3272.99 116.619C3272.78 116.32 3272.48 116.102 3272.08 115.965C3271.69 115.828 3270.84 115.76 3269.53 115.76H3267.19ZM3293.65 122H3290.51L3289.26 118.748H3283.54L3282.36 122H3279.29L3284.87 107.684H3287.92L3293.65 122ZM3288.33 116.336L3286.36 111.023L3284.43 116.336H3288.33ZM3297.28 122V107.801H3300.17V119.588H3307.35V122H3297.28ZM3324.33 122H3321.19L3319.94 118.748H3314.22L3313.04 122H3309.97L3315.54 107.684H3318.6L3324.33 122ZM3319.01 116.336L3317.04 111.023L3315.11 116.336H3319.01ZM3329.62 122V110.105H3325.37V107.684H3336.74V110.105H3332.51V122H3329.62Z" fill="#949494"/>
<rect x="3540" y="170" width="120" height="30" fill="#D9D9D9"/>
<rect x="3540" y="30" width="120" height="30" fill="#D9D9D9"/>
<path d="M3563.57 122V107.684H3573.38V110.105H3566.46V113.494H3572.44V115.916H3566.46V122H3563.57ZM3577.78 122V107.684H3588.39V110.105H3580.67V113.279H3587.85V115.691H3580.67V119.588H3588.66V122H3577.78ZM3593.14 122V107.684H3595.96L3601.82 117.244V107.684H3604.5V122H3601.6L3595.83 112.664V122H3593.14ZM3609.57 122V107.684H3620.18V110.105H3612.46V113.279H3619.65V115.691H3612.46V119.588H3620.46V122H3609.57ZM3624.92 122V107.684H3631C3632.53 107.684 3633.64 107.814 3634.33 108.074C3635.03 108.328 3635.59 108.784 3636 109.441C3636.42 110.099 3636.63 110.851 3636.63 111.697C3636.63 112.771 3636.31 113.66 3635.68 114.363C3635.05 115.06 3634.1 115.499 3632.85 115.682C3633.47 116.046 3633.99 116.447 3634.39 116.883C3634.8 117.319 3635.35 118.094 3636.04 119.207L3637.79 122H3634.33L3632.24 118.885C3631.5 117.771 3630.99 117.072 3630.72 116.785C3630.45 116.492 3630.16 116.294 3629.85 116.189C3629.54 116.079 3629.06 116.023 3628.39 116.023H3627.81V122H3624.92ZM3627.81 113.738H3629.95C3631.33 113.738 3632.2 113.68 3632.54 113.562C3632.89 113.445 3633.16 113.243 3633.36 112.957C3633.55 112.671 3633.65 112.312 3633.65 111.883C3633.65 111.401 3633.52 111.014 3633.26 110.721C3633 110.421 3632.64 110.232 3632.17 110.154C3631.94 110.122 3631.24 110.105 3630.06 110.105H3627.81V113.738Z" fill="#949494"/>
<rect x="3940" y="170" width="120" height="30" fill="#D9D9D9"/>
<rect x="3940" y="30" width="120" height="30" fill="#D9D9D9"/>
<path d="M3972.26 116.736L3975.06 117.625C3974.63 119.188 3973.91 120.35 3972.91 121.111C3971.91 121.867 3970.65 122.244 3969.11 122.244C3967.21 122.244 3965.65 121.596 3964.42 120.301C3963.2 118.999 3962.59 117.221 3962.59 114.969C3962.59 112.586 3963.2 110.737 3964.43 109.422C3965.66 108.1 3967.28 107.439 3969.29 107.439C3971.04 107.439 3972.46 107.957 3973.55 108.992C3974.21 109.604 3974.69 110.483 3975.02 111.629L3972.16 112.312C3971.99 111.57 3971.63 110.984 3971.09 110.555C3970.56 110.125 3969.91 109.91 3969.14 109.91C3968.08 109.91 3967.22 110.291 3966.55 111.053C3965.9 111.814 3965.57 113.048 3965.57 114.754C3965.57 116.564 3965.89 117.853 3966.54 118.621C3967.19 119.389 3968.04 119.773 3969.08 119.773C3969.85 119.773 3970.51 119.529 3971.06 119.041C3971.62 118.553 3972.01 117.785 3972.26 116.736ZM3979.46 122V107.684H3982.35V122H3979.46ZM3979.57 106.863V104.266H3982.26V106.863H3979.57ZM3987.12 107.684H3992.85C3993.98 107.684 3994.82 107.732 3995.38 107.83C3995.94 107.921 3996.43 108.117 3996.87 108.416C3997.31 108.715 3997.68 109.116 3997.97 109.617C3998.27 110.112 3998.41 110.669 3998.41 111.287C3998.41 111.958 3998.23 112.573 3997.87 113.133C3997.51 113.693 3997.02 114.113 3996.4 114.393C3997.27 114.646 3997.95 115.079 3998.41 115.691C3998.88 116.303 3999.12 117.023 3999.12 117.85C3999.12 118.501 3998.96 119.135 3998.66 119.754C3998.36 120.366 3997.95 120.857 3997.42 121.229C3996.9 121.593 3996.25 121.818 3995.48 121.902C3995 121.954 3993.84 121.987 3992 122H3987.12V107.684ZM3990.02 110.066V113.377H3991.91C3993.04 113.377 3993.74 113.361 3994.01 113.328C3994.5 113.27 3994.89 113.1 3995.17 112.82C3995.46 112.534 3995.6 112.16 3995.6 111.697C3995.6 111.255 3995.48 110.896 3995.23 110.623C3994.99 110.343 3994.63 110.174 3994.15 110.115C3993.86 110.083 3993.04 110.066 3991.68 110.066H3990.02ZM3990.02 115.76V119.588H3992.69C3993.73 119.588 3994.39 119.559 3994.67 119.5C3995.1 119.422 3995.45 119.233 3995.72 118.934C3995.99 118.628 3996.13 118.221 3996.13 117.713C3996.13 117.283 3996.02 116.919 3995.82 116.619C3995.61 116.32 3995.31 116.102 3994.91 115.965C3994.52 115.828 3993.66 115.76 3992.35 115.76H3990.02ZM4016.48 122H4013.33L4012.08 118.748H4006.36L4005.18 122H4002.11L4007.69 107.684H4010.75L4016.48 122ZM4011.16 116.336L4009.18 111.023L4007.25 116.336H4011.16ZM4020.1 122V107.801H4022.99V119.588H4030.18V122H4020.1ZM4034.16 122V107.684H4037.05V122H4034.16ZM4034.27 106.863V104.266H4036.96V106.863H4034.27Z" fill="#949494"/>
<rect x="4140" y="170" width="120" height="30" fill="#D9D9D9"/>
<rect x="4140" y="30" width="120" height="30" fill="#D9D9D9"/>
<path d="M4146.58 122V107.684H4149.47V114.041L4155.31 107.684H4159.2L4153.8 113.26L4159.49 122H4155.75L4151.81 115.281L4149.47 117.674V122H4146.58ZM4162.97 107.684H4165.86V115.438C4165.86 116.668 4165.9 117.465 4165.97 117.83C4166.09 118.416 4166.39 118.888 4166.85 119.246C4167.32 119.598 4167.96 119.773 4168.76 119.773C4169.58 119.773 4170.2 119.607 4170.62 119.275C4171.04 118.937 4171.29 118.523 4171.37 118.035C4171.46 117.547 4171.5 116.736 4171.5 115.604V107.684H4174.39V115.203C4174.39 116.922 4174.31 118.136 4174.15 118.846C4174 119.555 4173.71 120.154 4173.29 120.643C4172.87 121.131 4172.31 121.521 4171.61 121.814C4170.9 122.101 4169.98 122.244 4168.85 122.244C4167.48 122.244 4166.45 122.088 4165.74 121.775C4165.03 121.456 4164.48 121.046 4164.07 120.545C4163.66 120.037 4163.39 119.507 4163.26 118.953C4163.07 118.133 4162.97 116.922 4162.97 115.32V107.684ZM4165.43 106.863V104.51H4167.79V106.863H4165.43ZM4169.63 106.863V104.51H4172V106.863H4169.63ZM4188.61 116.736L4191.41 117.625C4190.98 119.188 4190.26 120.35 4189.26 121.111C4188.26 121.867 4187 122.244 4185.46 122.244C4183.56 122.244 4182 121.596 4180.77 120.301C4179.55 118.999 4178.94 117.221 4178.94 114.969C4178.94 112.586 4179.55 110.737 4180.78 109.422C4182.01 108.1 4183.63 107.439 4185.64 107.439C4187.39 107.439 4188.81 107.957 4189.9 108.992C4190.56 109.604 4191.04 110.483 4191.37 111.629L4188.51 112.312C4188.34 111.57 4187.98 110.984 4187.44 110.555C4186.91 110.125 4186.26 109.91 4185.49 109.91C4184.43 109.91 4183.57 110.291 4182.9 111.053C4182.24 111.814 4181.92 113.048 4181.92 114.754C4181.92 116.564 4182.24 117.853 4182.89 118.621C4183.54 119.389 4184.39 119.773 4185.43 119.773C4186.2 119.773 4186.86 119.529 4187.41 119.041C4187.97 118.553 4188.36 117.785 4188.61 116.736ZM4182.53 125.936V124.783C4183.2 124.855 4183.82 124.891 4184.38 124.891C4184.96 124.891 4185.39 124.786 4185.67 124.578C4185.88 124.422 4185.99 124.22 4185.99 123.973C4185.99 123.751 4185.89 123.559 4185.69 123.396C4185.48 123.234 4185.17 123.152 4184.75 123.152C4184.33 123.152 4183.9 123.217 4183.47 123.348L4183.72 122.381C4184.23 122.205 4184.78 122.117 4185.36 122.117C4186.18 122.117 4186.8 122.296 4187.22 122.654C4187.64 123.012 4187.85 123.449 4187.85 123.963C4187.85 124.536 4187.62 125.001 4187.15 125.359C4186.52 125.848 4185.61 126.092 4184.44 126.092C4183.6 126.092 4182.96 126.04 4182.53 125.936ZM4195.94 122V107.684H4198.83V114.041L4204.67 107.684H4208.55L4203.16 113.26L4208.85 122H4205.11L4201.17 115.281L4198.83 117.674V122H4195.94ZM4212.35 122V107.684H4216.99C4218.75 107.684 4219.89 107.755 4220.43 107.898C4221.25 108.113 4221.93 108.582 4222.49 109.305C4223.04 110.021 4223.32 110.949 4223.32 112.088C4223.32 112.967 4223.16 113.706 4222.84 114.305C4222.52 114.904 4222.11 115.376 4221.62 115.721C4221.13 116.059 4220.63 116.284 4220.12 116.395C4219.43 116.531 4218.44 116.6 4217.13 116.6H4215.24V122H4212.35ZM4215.24 110.105V114.168H4216.82C4217.96 114.168 4218.73 114.093 4219.11 113.943C4219.49 113.794 4219.79 113.559 4220.01 113.24C4220.23 112.921 4220.34 112.55 4220.34 112.127C4220.34 111.606 4220.19 111.176 4219.88 110.838C4219.57 110.499 4219.19 110.288 4218.72 110.203C4218.37 110.138 4217.68 110.105 4216.64 110.105H4215.24ZM4226.45 122V119.393L4233.97 110.105H4227.3V107.684H4237.78V109.93L4229.94 119.588H4238.08V122H4226.45ZM4241.93 122V107.684H4248.01C4249.54 107.684 4250.65 107.814 4251.34 108.074C4252.04 108.328 4252.6 108.784 4253.01 109.441C4253.43 110.099 4253.64 110.851 4253.64 111.697C4253.64 112.771 4253.32 113.66 4252.69 114.363C4252.06 115.06 4251.11 115.499 4249.86 115.682C4250.48 116.046 4251 116.447 4251.4 116.883C4251.81 117.319 4252.36 118.094 4253.05 119.207L4254.8 122H4251.34L4249.25 118.885C4248.51 117.771 4248 117.072 4247.73 116.785C4247.46 116.492 4247.17 116.294 4246.86 116.189C4246.55 116.079 4246.07 116.023 4245.4 116.023H4244.82V122H4241.93ZM4244.82 113.738H4246.96C4248.34 113.738 4249.21 113.68 4249.55 113.562C4249.9 113.445 4250.17 113.243 4250.37 112.957C4250.56 112.671 4250.66 112.312 4250.66 111.883C4250.66 111.401 4250.53 111.014 4250.27 110.721C4250.01 110.421 4249.65 110.232 4249.18 110.154C4248.95 110.122 4248.25 110.105 4247.07 110.105H4244.82V113.738Z" fill="#949494"/>
<rect x="4440" y="170" width="120" height="30" fill="#D9D9D9"/>
<rect x="4440" y="30" width="120" height="30" fill="#D9D9D9"/>
<path d="M4448.21 122V107.684H4458.82V110.105H4451.1V113.279H4458.29V115.691H4451.1V119.588H4459.1V122H4448.21ZM4463.51 122V107.684H4467.84L4470.43 117.449L4473 107.684H4477.34V122H4474.65V110.73L4471.81 122H4469.03L4466.2 110.73V122H4463.51ZM4482.12 122V107.684H4485.01V122H4482.12ZM4482.23 106.863V104.266H4484.92V106.863H4482.23ZM4489.8 122V107.684H4492.62L4498.48 117.244V107.684H4501.16V122H4498.26L4492.49 112.664V122H4489.8ZM4505.64 114.93C4505.64 113.471 4505.86 112.247 4506.3 111.258C4506.62 110.529 4507.07 109.874 4507.62 109.295C4508.19 108.715 4508.81 108.286 4509.48 108.006C4510.37 107.628 4511.4 107.439 4512.57 107.439C4514.68 107.439 4516.36 108.094 4517.62 109.402C4518.89 110.711 4519.53 112.531 4519.53 114.861C4519.53 117.173 4518.9 118.982 4517.64 120.291C4516.39 121.593 4514.71 122.244 4512.61 122.244C4510.48 122.244 4508.78 121.596 4507.53 120.301C4506.27 118.999 4505.64 117.208 4505.64 114.93ZM4508.62 114.832C4508.62 116.453 4509 117.684 4509.74 118.523C4510.49 119.357 4511.44 119.773 4512.6 119.773C4513.75 119.773 4514.69 119.36 4515.43 118.533C4516.17 117.7 4516.54 116.453 4516.54 114.793C4516.54 113.152 4516.18 111.928 4515.46 111.121C4514.74 110.314 4513.79 109.91 4512.6 109.91C4511.4 109.91 4510.44 110.32 4509.71 111.141C4508.99 111.954 4508.62 113.185 4508.62 114.832ZM4509.14 106.863V104.51H4511.49V106.863H4509.14ZM4513.34 106.863V104.51H4515.7V106.863H4513.34ZM4523.82 122V107.684H4526.64L4532.5 117.244V107.684H4535.18V122H4532.28L4526.51 112.664V122H4523.82ZM4540.23 107.684H4543.12V115.438C4543.12 116.668 4543.15 117.465 4543.23 117.83C4543.35 118.416 4543.64 118.888 4544.11 119.246C4544.57 119.598 4545.21 119.773 4546.02 119.773C4546.84 119.773 4547.46 119.607 4547.88 119.275C4548.29 118.937 4548.54 118.523 4548.63 118.035C4548.71 117.547 4548.75 116.736 4548.75 115.604V107.684H4551.64V115.203C4551.64 116.922 4551.57 118.136 4551.41 118.846C4551.25 119.555 4550.96 120.154 4550.54 120.643C4550.12 121.131 4549.56 121.521 4548.86 121.814C4548.16 122.101 4547.24 122.244 4546.11 122.244C4544.74 122.244 4543.7 122.088 4542.99 121.775C4542.29 121.456 4541.73 121.046 4541.32 120.545C4540.91 120.037 4540.64 119.507 4540.51 118.953C4540.32 118.133 4540.23 116.922 4540.23 115.32V107.684ZM4542.69 106.863V104.51H4545.04V106.863H4542.69ZM4546.89 106.863V104.51H4549.25V106.863H4546.89Z" fill="#949494"/>
<path d="M220 80.0713L227.071 73.0002L304.146 150.075L297.075 157.146L220 80.0713Z" fill="#949494"/>
<path d="M350 80.0713L357.071 73.0002L434.146 150.075L427.075 157.146L350 80.0713Z" fill="#949494"/>
<path d="M297.075 73L304.146 80.0711L227.071 157.146L220 150.075L297.075 73Z" fill="#949494"/>
<path d="M600 80.0713L607.071 73.0002L684.146 150.075L677.075 157.146L600 80.0713Z" fill="#949494"/>
<path d="M777 72.9502L784.071 80.0213L706.996 157.096L699.925 150.025L777 72.9502Z" fill="#949494"/>
<path d="M1300.07 80.0713L1307.15 73.0002L1384.22 150.075L1377.15 157.146L1300.07 80.0713Z" fill="#949494"/>
<path d="M1277.07 73L1284.15 80.0711L1207.07 157.146L1200 150.075L1277.07 73Z" fill="#949494"/>
<path d="M1816 80.0713L1823.07 73.0002L1900.15 150.075L1893.07 157.146L1816 80.0713Z" fill="#949494"/>
<path d="M2097 72.9502L2104.07 80.0213L2027 157.096L2019.93 150.025L2097 72.9502Z" fill="#949494"/>
<path d="M2894 72.9502L2901.07 80.0213L2823.99 157.096L2816.92 150.025L2894 72.9502Z" fill="#949494"/>
<path d="M2563.07 72.9502L2570.15 80.0213L2493.07 157.096L2486 150.025L2563.07 72.9502Z" fill="#949494"/>
<path d="M3156 80.0713L3163.07 73.0002L3240.15 150.075L3233.07 157.146L3156 80.0713Z" fill="#949494"/>
<path d="M3437 72.9502L3444.07 80.0213L3367 157.096L3359.93 150.025L3437 72.9502Z" fill="#949494"/>
<path d="M3740 80.0713L3747.07 73.0002L3824.15 150.075L3817.07 157.146L3740 80.0713Z" fill="#949494"/>
<path d="M3917 72.9502L3924.07 80.0213L3847 157.096L3839.93 150.025L3917 72.9502Z" fill="#949494"/>
<path d="M4340 80.0713L4347.07 73.0002L4424.15 150.075L4417.07 157.146L4340 80.0713Z" fill="#949494"/>
<path d="M4417.07 73L4424.15 80.0711L4347.07 157.146L4340 150.075L4417.07 73Z" fill="#949494"/>
<path d="M483 160L490.071 152.929L525.426 188.284L518.355 195.355L483 160Z" fill="#949494"/>
<path d="M518 153L525.071 160.071L489.716 195.426L482.645 188.355L518 153Z" fill="#949494"/>
<path d="M320 160L327.071 152.929L362.426 188.284L355.355 195.355L320 160Z" fill="#949494"/>
<path d="M341.572 159.644L348.643 152.572L383.999 187.928L376.928 194.999L341.572 159.644Z" fill="#949494"/>
<line x1="80" y1="155" x2="4560" y2="155" stroke="#949494" stroke-width="10"/>
<line x1="80" y1="75" x2="4560" y2="75" stroke="#949494" stroke-width="10"/>
</svg>
