<svg width="1677" height="200" viewBox="0 0 1677 200" fill="none" xmlns="http://www.w3.org/2000/svg">
<g clip-path="url(#clip0_495_5201)">
<path d="M100 100H1582" stroke="#673065" stroke-width="20"/>
<circle cx="473" cy="100" r="21" fill="#673065"/>
<circle cx="473" cy="100" r="13" fill="white"/>
<circle cx="658" cy="100" r="21" fill="#673065"/>
<circle cx="658" cy="100" r="13" fill="white"/>
<circle cx="288" cy="100" r="21" fill="#673065"/>
<circle cx="288" cy="100" r="13" fill="white"/>
<circle cx="843" cy="100" r="21" fill="#673065"/>
<circle cx="843" cy="100" r="13" fill="white"/>
<circle cx="1025" cy="100" r="21" fill="#673065"/>
<circle cx="1025" cy="100" r="13" fill="white"/>
<circle cx="1577" cy="100" r="21" fill="#673065"/>
<circle cx="1577" cy="100" r="13" fill="white"/>
<circle cx="1207" cy="100" r="21" fill="#673065"/>
<circle cx="1207" cy="100" r="13" fill="white"/>
<circle cx="1392" cy="100" r="21" fill="#673065"/>
<circle cx="1392" cy="100" r="13" fill="white"/>
<circle cx="473" cy="100" r="24" fill="black"/>
<ellipse cx="473.001" cy="99.9939" rx="19.2" ry="19.2" fill="white"/>
<path d="M43.282 58.288C41.57 58.288 40.018 57.92 38.626 57.184C37.25 56.432 36.162 55.4 35.362 54.088C34.578 52.76 34.186 51.264 34.186 49.6C34.186 47.936 34.578 46.448 35.362 45.136C36.162 43.808 37.25 42.776 38.626 42.04C40.018 41.288 41.578 40.912 43.306 40.912C44.762 40.912 46.074 41.168 47.242 41.68C48.426 42.192 49.418 42.928 50.218 43.888L47.722 46.192C46.586 44.88 45.178 44.224 43.498 44.224C42.458 44.224 41.53 44.456 40.714 44.92C39.898 45.368 39.258 46 38.794 46.816C38.346 47.632 38.122 48.56 38.122 49.6C38.122 50.64 38.346 51.568 38.794 52.384C39.258 53.2 39.898 53.84 40.714 54.304C41.53 54.752 42.458 54.976 43.498 54.976C45.178 54.976 46.586 54.312 47.722 52.984L50.218 55.288C49.418 56.264 48.426 57.008 47.242 57.52C46.058 58.032 44.738 58.288 43.282 58.288ZM41.986 63.568C41.57 63.568 41.162 63.52 40.762 63.424C40.362 63.344 40.026 63.224 39.754 63.064L40.33 61.456C40.842 61.696 41.362 61.816 41.89 61.816C42.722 61.816 43.138 61.56 43.138 61.048C43.138 60.584 42.746 60.352 41.962 60.352H41.146L41.77 57.808H43.762L43.426 59.2C44.13 59.28 44.65 59.496 44.986 59.848C45.338 60.216 45.514 60.664 45.514 61.192C45.514 61.928 45.194 62.504 44.554 62.92C43.914 63.352 43.058 63.568 41.986 63.568ZM64.7823 51.592C64.7823 51.64 64.7583 51.976 64.7103 52.6H54.9423C55.1183 53.4 55.5343 54.032 56.1903 54.496C56.8463 54.96 57.6623 55.192 58.6383 55.192C59.3103 55.192 59.9023 55.096 60.4143 54.904C60.9423 54.696 61.4303 54.376 61.8783 53.944L63.8703 56.104C62.6543 57.496 60.8783 58.192 58.5423 58.192C57.0863 58.192 55.7983 57.912 54.6783 57.352C53.5583 56.776 52.6943 55.984 52.0863 54.976C51.4783 53.968 51.1743 52.824 51.1743 51.544C51.1743 50.28 51.4703 49.144 52.0623 48.136C52.6703 47.112 53.4943 46.32 54.5343 45.76C55.5903 45.184 56.7663 44.896 58.0623 44.896C59.3263 44.896 60.4703 45.168 61.4943 45.712C62.5183 46.256 63.3183 47.04 63.8943 48.064C64.4863 49.072 64.7823 50.248 64.7823 51.592ZM58.0863 47.728C57.2383 47.728 56.5263 47.968 55.9503 48.448C55.3743 48.928 55.0223 49.584 54.8943 50.416H61.2543C61.1263 49.6 60.7743 48.952 60.1983 48.472C59.6223 47.976 58.9183 47.728 58.0863 47.728ZM72.8189 52.936L71.0189 54.712V58H67.2749V40.192H71.0189V50.272L76.4909 45.088H80.9549L75.5789 50.56L81.4349 58H76.8989L72.8189 52.936ZM99.5609 44.896C101.177 44.896 102.457 45.376 103.401 46.336C104.361 47.28 104.841 48.704 104.841 50.608V58H101.097V51.184C101.097 50.16 100.881 49.4 100.449 48.904C100.033 48.392 99.4329 48.136 98.6489 48.136C97.7689 48.136 97.0729 48.424 96.5609 49C96.0489 49.56 95.7929 50.4 95.7929 51.52V58H92.0489V51.184C92.0489 49.152 91.2329 48.136 89.6009 48.136C88.7369 48.136 88.0489 48.424 87.5369 49C87.0249 49.56 86.7689 50.4 86.7689 51.52V58H83.0249V45.088H86.6009V46.576C87.0809 46.032 87.6649 45.616 88.3529 45.328C89.0569 45.04 89.8249 44.896 90.6569 44.896C91.5689 44.896 92.3929 45.08 93.1289 45.448C93.8649 45.8 94.4569 46.32 94.9049 47.008C95.4329 46.336 96.0969 45.816 96.8969 45.448C97.7129 45.08 98.6009 44.896 99.5609 44.896ZM120.985 51.592C120.985 51.64 120.961 51.976 120.913 52.6H111.145C111.321 53.4 111.737 54.032 112.393 54.496C113.049 54.96 113.865 55.192 114.841 55.192C115.513 55.192 116.105 55.096 116.617 54.904C117.145 54.696 117.633 54.376 118.081 53.944L120.073 56.104C118.857 57.496 117.081 58.192 114.745 58.192C113.289 58.192 112.001 57.912 110.881 57.352C109.761 56.776 108.897 55.984 108.289 54.976C107.681 53.968 107.377 52.824 107.377 51.544C107.377 50.28 107.673 49.144 108.265 48.136C108.873 47.112 109.697 46.32 110.737 45.76C111.793 45.184 112.969 44.896 114.265 44.896C115.529 44.896 116.673 45.168 117.697 45.712C118.721 46.256 119.521 47.04 120.097 48.064C120.689 49.072 120.985 50.248 120.985 51.592ZM114.289 47.728C113.441 47.728 112.729 47.968 112.153 48.448C111.577 48.928 111.225 49.584 111.097 50.416H117.457C117.329 49.6 116.977 48.952 116.401 48.472C115.825 47.976 115.121 47.728 114.289 47.728ZM129.022 52.936L127.222 54.712V58H123.478V40.192H127.222V50.272L132.694 45.088H137.158L131.782 50.56L137.638 58H133.102L129.022 52.936ZM144.903 58.192C143.543 58.192 142.319 57.912 141.231 57.352C140.159 56.776 139.319 55.984 138.711 54.976C138.103 53.968 137.799 52.824 137.799 51.544C137.799 50.264 138.103 49.12 138.711 48.112C139.319 47.104 140.159 46.32 141.231 45.76C142.319 45.184 143.543 44.896 144.903 44.896C146.263 44.896 147.479 45.184 148.551 45.76C149.623 46.32 150.463 47.104 151.071 48.112C151.679 49.12 151.983 50.264 151.983 51.544C151.983 52.824 151.679 53.968 151.071 54.976C150.463 55.984 149.623 56.776 148.551 57.352C147.479 57.912 146.263 58.192 144.903 58.192ZM144.903 55.12C145.863 55.12 146.647 54.8 147.255 54.16C147.879 53.504 148.191 52.632 148.191 51.544C148.191 50.456 147.879 49.592 147.255 48.952C146.647 48.296 145.863 47.968 144.903 47.968C143.943 47.968 143.151 48.296 142.527 48.952C141.903 49.592 141.591 50.456 141.591 51.544C141.591 52.632 141.903 53.504 142.527 54.16C143.151 54.8 143.943 55.12 144.903 55.12ZM142.431 43.312C141.951 43.312 141.551 43.16 141.231 42.856C140.911 42.536 140.751 42.136 140.751 41.656C140.751 41.176 140.911 40.784 141.231 40.48C141.551 40.16 141.951 40 142.431 40C142.911 40 143.303 40.16 143.607 40.48C143.927 40.784 144.087 41.176 144.087 41.656C144.087 42.136 143.927 42.536 143.607 42.856C143.303 43.16 142.911 43.312 142.431 43.312ZM147.279 43.312C146.799 43.312 146.399 43.16 146.079 42.856C145.775 42.536 145.623 42.136 145.623 41.656C145.623 41.176 145.775 40.784 146.079 40.48C146.399 40.16 146.799 40 147.279 40C147.759 40 148.159 40.16 148.479 40.48C148.799 40.784 148.959 41.176 148.959 41.656C148.959 42.136 148.799 42.536 148.479 42.856C148.159 43.16 147.759 43.312 147.279 43.312ZM166.95 45.088L161.118 58.792C160.526 60.28 159.79 61.328 158.91 61.936C158.046 62.544 156.998 62.848 155.766 62.848C155.094 62.848 154.43 62.744 153.774 62.536C153.118 62.328 152.582 62.04 152.166 61.672L153.534 59.008C153.822 59.264 154.15 59.464 154.518 59.608C154.902 59.752 155.278 59.824 155.646 59.824C156.158 59.824 156.574 59.696 156.894 59.44C157.214 59.2 157.502 58.792 157.758 58.216L157.806 58.096L152.214 45.088H156.078L159.702 53.848L163.35 45.088H166.95Z" fill="black"/>
<path d="M265.612 58L265.588 47.92L260.644 56.224H258.892L253.972 48.136V58H250.324V41.2H253.54L259.828 51.64L266.02 41.2H269.212L269.26 58H265.612ZM285.63 51.592C285.63 51.64 285.606 51.976 285.558 52.6H275.79C275.966 53.4 276.382 54.032 277.038 54.496C277.694 54.96 278.51 55.192 279.486 55.192C280.158 55.192 280.75 55.096 281.262 54.904C281.79 54.696 282.278 54.376 282.726 53.944L284.718 56.104C283.502 57.496 281.726 58.192 279.39 58.192C277.934 58.192 276.646 57.912 275.526 57.352C274.406 56.776 273.542 55.984 272.934 54.976C272.326 53.968 272.022 52.824 272.022 51.544C272.022 50.28 272.318 49.144 272.91 48.136C273.518 47.112 274.342 46.32 275.382 45.76C276.438 45.184 277.614 44.896 278.91 44.896C280.174 44.896 281.318 45.168 282.342 45.712C283.366 46.256 284.166 47.04 284.742 48.064C285.334 49.072 285.63 50.248 285.63 51.592ZM278.934 47.728C278.086 47.728 277.374 47.968 276.798 48.448C276.222 48.928 275.87 49.584 275.742 50.416H282.102C281.974 49.6 281.622 48.952 281.046 48.472C280.47 47.976 279.766 47.728 278.934 47.728ZM294.363 58.192C292.987 58.192 291.747 57.912 290.643 57.352C289.555 56.776 288.699 55.984 288.075 54.976C287.467 53.968 287.163 52.824 287.163 51.544C287.163 50.264 287.467 49.12 288.075 48.112C288.699 47.104 289.555 46.32 290.643 45.76C291.747 45.184 292.987 44.896 294.363 44.896C295.723 44.896 296.907 45.184 297.915 45.76C298.939 46.32 299.683 47.128 300.147 48.184L297.243 49.744C296.571 48.56 295.603 47.968 294.339 47.968C293.363 47.968 292.555 48.288 291.915 48.928C291.275 49.568 290.955 50.44 290.955 51.544C290.955 52.648 291.275 53.52 291.915 54.16C292.555 54.8 293.363 55.12 294.339 55.12C295.619 55.12 296.587 54.528 297.243 53.344L300.147 54.928C299.683 55.952 298.939 56.752 297.915 57.328C296.907 57.904 295.723 58.192 294.363 58.192ZM302.208 40.192H305.952V58H302.208V40.192ZM309.427 45.088H313.171V58H309.427V45.088ZM311.299 43.288C310.611 43.288 310.051 43.088 309.619 42.688C309.187 42.288 308.971 41.792 308.971 41.2C308.971 40.608 309.187 40.112 309.619 39.712C310.051 39.312 310.611 39.112 311.299 39.112C311.987 39.112 312.547 39.304 312.979 39.688C313.411 40.072 313.627 40.552 313.627 41.128C313.627 41.752 313.411 42.272 312.979 42.688C312.547 43.088 311.987 43.288 311.299 43.288ZM320.99 58.192C319.918 58.192 318.87 58.064 317.846 57.808C316.822 57.536 316.006 57.2 315.398 56.8L316.646 54.112C317.222 54.48 317.918 54.784 318.734 55.024C319.55 55.248 320.35 55.36 321.134 55.36C322.718 55.36 323.51 54.968 323.51 54.184C323.51 53.816 323.294 53.552 322.862 53.392C322.43 53.232 321.766 53.096 320.87 52.984C319.814 52.824 318.942 52.64 318.254 52.432C317.566 52.224 316.966 51.856 316.454 51.328C315.958 50.8 315.71 50.048 315.71 49.072C315.71 48.256 315.942 47.536 316.406 46.912C316.886 46.272 317.574 45.776 318.47 45.424C319.382 45.072 320.454 44.896 321.686 44.896C322.598 44.896 323.502 45 324.398 45.208C325.31 45.4 326.062 45.672 326.654 46.024L325.406 48.688C324.27 48.048 323.03 47.728 321.686 47.728C320.886 47.728 320.286 47.84 319.886 48.064C319.486 48.288 319.286 48.576 319.286 48.928C319.286 49.328 319.502 49.608 319.934 49.768C320.366 49.928 321.054 50.08 321.998 50.224C323.054 50.4 323.918 50.592 324.59 50.8C325.262 50.992 325.846 51.352 326.342 51.88C326.838 52.408 327.086 53.144 327.086 54.088C327.086 54.888 326.846 55.6 326.366 56.224C325.886 56.848 325.182 57.336 324.254 57.688C323.342 58.024 322.254 58.192 320.99 58.192Z" fill="black"/>
<path d="M430.789 58.288C429.461 58.288 428.173 58.112 426.925 57.76C425.693 57.392 424.701 56.92 423.949 56.344L425.269 53.416C425.989 53.944 426.845 54.368 427.837 54.688C428.829 55.008 429.821 55.168 430.813 55.168C431.917 55.168 432.733 55.008 433.261 54.688C433.789 54.352 434.053 53.912 434.053 53.368C434.053 52.968 433.893 52.64 433.573 52.384C433.269 52.112 432.869 51.896 432.373 51.736C431.893 51.576 431.237 51.4 430.405 51.208C429.125 50.904 428.077 50.6 427.261 50.296C426.445 49.992 425.741 49.504 425.149 48.832C424.573 48.16 424.285 47.264 424.285 46.144C424.285 45.168 424.549 44.288 425.077 43.504C425.605 42.704 426.397 42.072 427.453 41.608C428.525 41.144 429.829 40.912 431.365 40.912C432.437 40.912 433.485 41.04 434.509 41.296C435.533 41.552 436.429 41.92 437.197 42.4L435.997 45.352C434.445 44.472 432.893 44.032 431.341 44.032C430.253 44.032 429.445 44.208 428.917 44.56C428.405 44.912 428.149 45.376 428.149 45.952C428.149 46.528 428.445 46.96 429.037 47.248C429.645 47.52 430.565 47.792 431.797 48.064C433.077 48.368 434.125 48.672 434.941 48.976C435.757 49.28 436.453 49.76 437.029 50.416C437.621 51.072 437.917 51.96 437.917 53.08C437.917 54.04 437.645 54.92 437.101 55.72C436.573 56.504 435.773 57.128 434.701 57.592C433.629 58.056 432.325 58.288 430.789 58.288ZM445.518 44.896C447.518 44.896 449.054 45.376 450.126 46.336C451.198 47.28 451.734 48.712 451.734 50.632V58H448.23V56.392C447.526 57.592 446.214 58.192 444.294 58.192C443.302 58.192 442.438 58.024 441.702 57.688C440.982 57.352 440.43 56.888 440.046 56.296C439.662 55.704 439.47 55.032 439.47 54.28C439.47 53.08 439.918 52.136 440.814 51.448C441.726 50.76 443.126 50.416 445.014 50.416H447.99C447.99 49.6 447.742 48.976 447.246 48.544C446.75 48.096 446.006 47.872 445.014 47.872C444.326 47.872 443.646 47.984 442.974 48.208C442.318 48.416 441.758 48.704 441.294 49.072L439.95 46.456C440.654 45.96 441.494 45.576 442.47 45.304C443.462 45.032 444.478 44.896 445.518 44.896ZM445.23 55.672C445.87 55.672 446.438 55.528 446.934 55.24C447.43 54.936 447.782 54.496 447.99 53.92V52.6H445.422C443.886 52.6 443.118 53.104 443.118 54.112C443.118 54.592 443.302 54.976 443.67 55.264C444.054 55.536 444.574 55.672 445.23 55.672ZM458.699 46.792C459.147 46.168 459.747 45.696 460.499 45.376C461.267 45.056 462.147 44.896 463.139 44.896V48.352C462.723 48.32 462.443 48.304 462.299 48.304C461.227 48.304 460.387 48.608 459.779 49.216C459.171 49.808 458.867 50.704 458.867 51.904V58H455.123V45.088H458.699V46.792ZM465.365 45.088H469.109V58H465.365V45.088ZM485.903 45.088V55.84C485.903 58.208 485.287 59.968 484.055 61.12C482.823 62.272 481.023 62.848 478.655 62.848C477.407 62.848 476.223 62.696 475.103 62.392C473.983 62.088 473.055 61.648 472.319 61.072L473.807 58.384C474.351 58.832 475.039 59.184 475.871 59.44C476.703 59.712 477.535 59.848 478.367 59.848C479.663 59.848 480.615 59.552 481.223 58.96C481.847 58.384 482.159 57.504 482.159 56.32V55.768C481.183 56.84 479.823 57.376 478.079 57.376C476.895 57.376 475.807 57.12 474.815 56.608C473.839 56.08 473.063 55.344 472.487 54.4C471.911 53.456 471.623 52.368 471.623 51.136C471.623 49.904 471.911 48.816 472.487 47.872C473.063 46.928 473.839 46.2 474.815 45.688C475.807 45.16 476.895 44.896 478.079 44.896C479.951 44.896 481.375 45.512 482.351 46.744V45.088H485.903ZM478.823 54.304C479.815 54.304 480.623 54.016 481.247 53.44C481.887 52.848 482.207 52.08 482.207 51.136C482.207 50.192 481.887 49.432 481.247 48.856C480.623 48.264 479.815 47.968 478.823 47.968C477.831 47.968 477.015 48.264 476.375 48.856C475.735 49.432 475.415 50.192 475.415 51.136C475.415 52.08 475.735 52.848 476.375 53.44C477.015 54.016 477.831 54.304 478.823 54.304ZM494.596 44.896C496.596 44.896 498.132 45.376 499.204 46.336C500.276 47.28 500.812 48.712 500.812 50.632V58H497.308V56.392C496.604 57.592 495.292 58.192 493.372 58.192C492.38 58.192 491.516 58.024 490.78 57.688C490.06 57.352 489.508 56.888 489.124 56.296C488.74 55.704 488.548 55.032 488.548 54.28C488.548 53.08 488.996 52.136 489.892 51.448C490.804 50.76 492.204 50.416 494.092 50.416H497.068C497.068 49.6 496.82 48.976 496.324 48.544C495.828 48.096 495.084 47.872 494.092 47.872C493.404 47.872 492.724 47.984 492.052 48.208C491.396 48.416 490.836 48.704 490.372 49.072L489.028 46.456C489.732 45.96 490.572 45.576 491.548 45.304C492.54 45.032 493.556 44.896 494.596 44.896ZM494.308 55.672C494.948 55.672 495.516 55.528 496.012 55.24C496.508 54.936 496.86 54.496 497.068 53.92V52.6H494.5C492.964 52.6 492.196 53.104 492.196 54.112C492.196 54.592 492.38 54.976 492.748 55.264C493.132 55.536 493.652 55.672 494.308 55.672ZM514.833 55.12V58H503.313V55.744L509.889 47.968H503.481V45.088H514.617V47.344L508.041 55.12H514.833ZM517.232 45.088H520.976V58H517.232V45.088ZM519.104 43.288C518.416 43.288 517.856 43.088 517.424 42.688C516.992 42.288 516.776 41.792 516.776 41.2C516.776 40.608 516.992 40.112 517.424 39.712C517.856 39.312 518.416 39.112 519.104 39.112C519.792 39.112 520.352 39.304 520.784 39.688C521.216 40.072 521.432 40.552 521.432 41.128C521.432 41.752 521.216 42.272 520.784 42.688C520.352 43.088 519.792 43.288 519.104 43.288Z" fill="black"/>
<path d="M591.727 29.288C590.399 29.288 589.111 29.112 587.863 28.76C586.631 28.392 585.639 27.92 584.887 27.344L586.207 24.416C586.927 24.944 587.783 25.368 588.775 25.688C589.767 26.008 590.759 26.168 591.751 26.168C592.855 26.168 593.671 26.008 594.199 25.688C594.727 25.352 594.991 24.912 594.991 24.368C594.991 23.968 594.831 23.64 594.511 23.384C594.207 23.112 593.807 22.896 593.311 22.736C592.831 22.576 592.175 22.4 591.343 22.208C590.063 21.904 589.015 21.6 588.199 21.296C587.383 20.992 586.679 20.504 586.087 19.832C585.511 19.16 585.223 18.264 585.223 17.144C585.223 16.168 585.487 15.288 586.015 14.504C586.543 13.704 587.335 13.072 588.391 12.608C589.463 12.144 590.767 11.912 592.303 11.912C593.375 11.912 594.423 12.04 595.447 12.296C596.471 12.552 597.367 12.92 598.135 13.4L596.935 16.352C595.383 15.472 593.831 15.032 592.279 15.032C591.191 15.032 590.383 15.208 589.855 15.56C589.343 15.912 589.087 16.376 589.087 16.952C589.087 17.528 589.383 17.96 589.975 18.248C590.583 18.52 591.503 18.792 592.735 19.064C594.015 19.368 595.063 19.672 595.879 19.976C596.695 20.28 597.391 20.76 597.967 21.416C598.559 22.072 598.855 22.96 598.855 24.08C598.855 25.04 598.583 25.92 598.039 26.72C597.511 27.504 596.711 28.128 595.639 28.592C594.567 29.056 593.263 29.288 591.727 29.288ZM606.456 15.896C608.456 15.896 609.992 16.376 611.064 17.336C612.136 18.28 612.672 19.712 612.672 21.632V29H609.168V27.392C608.464 28.592 607.152 29.192 605.232 29.192C604.24 29.192 603.376 29.024 602.64 28.688C601.92 28.352 601.368 27.888 600.984 27.296C600.6 26.704 600.408 26.032 600.408 25.28C600.408 24.08 600.856 23.136 601.752 22.448C602.664 21.76 604.064 21.416 605.952 21.416H608.928C608.928 20.6 608.68 19.976 608.184 19.544C607.688 19.096 606.944 18.872 605.952 18.872C605.264 18.872 604.584 18.984 603.912 19.208C603.256 19.416 602.696 19.704 602.232 20.072L600.888 17.456C601.592 16.96 602.432 16.576 603.408 16.304C604.4 16.032 605.416 15.896 606.456 15.896ZM606.168 26.672C606.808 26.672 607.376 26.528 607.872 26.24C608.368 25.936 608.72 25.496 608.928 24.92V23.6H606.36C604.824 23.6 604.056 24.104 604.056 25.112C604.056 25.592 604.24 25.976 604.608 26.264C604.992 26.536 605.512 26.672 606.168 26.672ZM623.908 15.896C625.508 15.896 626.796 16.376 627.772 17.336C628.764 18.296 629.26 19.72 629.26 21.608V29H625.516V22.184C625.516 21.16 625.292 20.4 624.844 19.904C624.396 19.392 623.748 19.136 622.9 19.136C621.956 19.136 621.204 19.432 620.644 20.024C620.084 20.6 619.804 21.464 619.804 22.616V29H616.06V16.088H619.636V17.6C620.132 17.056 620.748 16.64 621.484 16.352C622.22 16.048 623.028 15.896 623.908 15.896ZM639.034 29.192C637.658 29.192 636.418 28.912 635.314 28.352C634.226 27.776 633.37 26.984 632.746 25.976C632.138 24.968 631.834 23.824 631.834 22.544C631.834 21.264 632.138 20.12 632.746 19.112C633.37 18.104 634.226 17.32 635.314 16.76C636.418 16.184 637.658 15.896 639.034 15.896C640.394 15.896 641.578 16.184 642.586 16.76C643.61 17.32 644.354 18.128 644.818 19.184L641.914 20.744C641.242 19.56 640.274 18.968 639.01 18.968C638.034 18.968 637.226 19.288 636.586 19.928C635.946 20.568 635.626 21.44 635.626 22.544C635.626 23.648 635.946 24.52 636.586 25.16C637.226 25.8 638.034 26.12 639.01 26.12C640.29 26.12 641.258 25.528 641.914 24.344L644.818 25.928C644.354 26.952 643.61 27.752 642.586 28.328C641.578 28.904 640.394 29.192 639.034 29.192ZM652.182 15.896C654.182 15.896 655.718 16.376 656.79 17.336C657.862 18.28 658.398 19.712 658.398 21.632V29H654.894V27.392C654.19 28.592 652.878 29.192 650.958 29.192C649.966 29.192 649.102 29.024 648.366 28.688C647.646 28.352 647.094 27.888 646.71 27.296C646.326 26.704 646.134 26.032 646.134 25.28C646.134 24.08 646.582 23.136 647.478 22.448C648.39 21.76 649.79 21.416 651.678 21.416H654.654C654.654 20.6 654.406 19.976 653.91 19.544C653.414 19.096 652.67 18.872 651.678 18.872C650.99 18.872 650.31 18.984 649.638 19.208C648.982 19.416 648.422 19.704 647.958 20.072L646.614 17.456C647.318 16.96 648.158 16.576 649.134 16.304C650.126 16.032 651.142 15.896 652.182 15.896ZM651.894 26.672C652.534 26.672 653.102 26.528 653.598 26.24C654.094 25.936 654.446 25.496 654.654 24.92V23.6H652.086C650.55 23.6 649.782 24.104 649.782 25.112C649.782 25.592 649.966 25.976 650.334 26.264C650.718 26.536 651.238 26.672 651.894 26.672ZM667.331 23.936L665.531 25.712V29H661.787V11.192H665.531V21.272L671.003 16.088H675.467L670.091 21.56L675.947 29H671.411L667.331 23.936ZM685.958 28.376C685.59 28.648 685.134 28.856 684.59 29C684.062 29.128 683.502 29.192 682.91 29.192C681.374 29.192 680.182 28.8 679.334 28.016C678.502 27.232 678.086 26.08 678.086 24.56V19.256H676.094V16.376H678.086V13.232H681.83V16.376H685.046V19.256H681.83V24.512C681.83 25.056 681.966 25.48 682.238 25.784C682.526 26.072 682.926 26.216 683.438 26.216C684.03 26.216 684.534 26.056 684.95 25.736L685.958 28.376ZM700.31 22.592C700.31 22.64 700.286 22.976 700.238 23.6H690.47C690.646 24.4 691.062 25.032 691.718 25.496C692.374 25.96 693.19 26.192 694.166 26.192C694.838 26.192 695.43 26.096 695.942 25.904C696.47 25.696 696.958 25.376 697.406 24.944L699.398 27.104C698.182 28.496 696.406 29.192 694.07 29.192C692.614 29.192 691.326 28.912 690.206 28.352C689.086 27.776 688.222 26.984 687.614 25.976C687.006 24.968 686.702 23.824 686.702 22.544C686.702 21.28 686.998 20.144 687.59 19.136C688.198 18.112 689.022 17.32 690.062 16.76C691.118 16.184 692.294 15.896 693.59 15.896C694.854 15.896 695.998 16.168 697.022 16.712C698.046 17.256 698.846 18.04 699.422 19.064C700.014 20.072 700.31 21.248 700.31 22.592ZM693.614 18.728C692.766 18.728 692.054 18.968 691.478 19.448C690.902 19.928 690.55 20.584 690.422 21.416H696.782C696.654 20.6 696.302 19.952 695.726 19.472C695.15 18.976 694.446 18.728 693.614 18.728ZM710.434 15.896C711.634 15.896 712.722 16.176 713.698 16.736C714.69 17.28 715.466 18.056 716.026 19.064C716.586 20.056 716.866 21.216 716.866 22.544C716.866 23.872 716.586 25.04 716.026 26.048C715.466 27.04 714.69 27.816 713.698 28.376C712.722 28.92 711.634 29.192 710.434 29.192C708.786 29.192 707.49 28.672 706.546 27.632V33.656H702.802V16.088H706.378V17.576C707.306 16.456 708.658 15.896 710.434 15.896ZM709.786 26.12C710.746 26.12 711.53 25.8 712.138 25.16C712.762 24.504 713.074 23.632 713.074 22.544C713.074 21.456 712.762 20.592 712.138 19.952C711.53 19.296 710.746 18.968 709.786 18.968C708.826 18.968 708.034 19.296 707.41 19.952C706.802 20.592 706.498 21.456 706.498 22.544C706.498 23.632 706.802 24.504 707.41 25.16C708.034 25.8 708.826 26.12 709.786 26.12ZM732.021 22.592C732.021 22.64 731.997 22.976 731.949 23.6H722.181C722.357 24.4 722.773 25.032 723.429 25.496C724.085 25.96 724.901 26.192 725.877 26.192C726.549 26.192 727.141 26.096 727.653 25.904C728.181 25.696 728.669 25.376 729.117 24.944L731.109 27.104C729.893 28.496 728.117 29.192 725.781 29.192C724.325 29.192 723.037 28.912 721.917 28.352C720.797 27.776 719.933 26.984 719.325 25.976C718.717 24.968 718.413 23.824 718.413 22.544C718.413 21.28 718.709 20.144 719.301 19.136C719.909 18.112 720.733 17.32 721.773 16.76C722.829 16.184 724.005 15.896 725.301 15.896C726.565 15.896 727.709 16.168 728.733 16.712C729.757 17.256 730.557 18.04 731.133 19.064C731.725 20.072 732.021 21.248 732.021 22.592ZM725.325 18.728C724.477 18.728 723.765 18.968 723.189 19.448C722.613 19.928 722.261 20.584 722.133 21.416H728.493C728.365 20.6 728.013 19.952 727.437 19.472C726.861 18.976 726.157 18.728 725.325 18.728ZM598.371 58.288C597.043 58.288 595.755 58.112 594.507 57.76C593.275 57.392 592.283 56.92 591.531 56.344L592.851 53.416C593.571 53.944 594.427 54.368 595.419 54.688C596.411 55.008 597.403 55.168 598.395 55.168C599.499 55.168 600.315 55.008 600.843 54.688C601.371 54.352 601.635 53.912 601.635 53.368C601.635 52.968 601.475 52.64 601.155 52.384C600.851 52.112 600.451 51.896 599.955 51.736C599.475 51.576 598.819 51.4 597.987 51.208C596.707 50.904 595.659 50.6 594.843 50.296C594.027 49.992 593.323 49.504 592.731 48.832C592.155 48.16 591.867 47.264 591.867 46.144C591.867 45.168 592.131 44.288 592.659 43.504C593.187 42.704 593.979 42.072 595.035 41.608C596.107 41.144 597.411 40.912 598.947 40.912C600.019 40.912 601.067 41.04 602.091 41.296C603.115 41.552 604.011 41.92 604.779 42.4L603.579 45.352C602.027 44.472 600.475 44.032 598.923 44.032C597.835 44.032 597.027 44.208 596.499 44.56C595.987 44.912 595.731 45.376 595.731 45.952C595.731 46.528 596.027 46.96 596.619 47.248C597.227 47.52 598.147 47.792 599.379 48.064C600.659 48.368 601.707 48.672 602.523 48.976C603.339 49.28 604.035 49.76 604.611 50.416C605.203 51.072 605.499 51.96 605.499 53.08C605.499 54.04 605.227 54.92 604.683 55.72C604.155 56.504 603.355 57.128 602.283 57.592C601.211 58.056 599.907 58.288 598.371 58.288ZM597.867 63.568C597.451 63.568 597.043 63.52 596.643 63.424C596.243 63.344 595.907 63.224 595.635 63.064L596.211 61.456C596.723 61.696 597.243 61.816 597.771 61.816C598.603 61.816 599.019 61.56 599.019 61.048C599.019 60.584 598.627 60.352 597.843 60.352H597.027L597.651 57.808H599.643L599.307 59.2C600.011 59.28 600.531 59.496 600.867 59.848C601.219 60.216 601.395 60.664 601.395 61.192C601.395 61.928 601.075 62.504 600.435 62.92C599.795 63.352 598.939 63.568 597.867 63.568ZM620.54 51.592C620.54 51.64 620.516 51.976 620.468 52.6H610.7C610.876 53.4 611.292 54.032 611.948 54.496C612.604 54.96 613.42 55.192 614.396 55.192C615.068 55.192 615.66 55.096 616.172 54.904C616.7 54.696 617.188 54.376 617.636 53.944L619.628 56.104C618.412 57.496 616.636 58.192 614.3 58.192C612.844 58.192 611.556 57.912 610.436 57.352C609.316 56.776 608.452 55.984 607.844 54.976C607.236 53.968 606.932 52.824 606.932 51.544C606.932 50.28 607.228 49.144 607.82 48.136C608.428 47.112 609.252 46.32 610.292 45.76C611.348 45.184 612.524 44.896 613.82 44.896C615.084 44.896 616.228 45.168 617.252 45.712C618.276 46.256 619.076 47.04 619.652 48.064C620.244 49.072 620.54 50.248 620.54 51.592ZM613.844 47.728C612.996 47.728 612.284 47.968 611.708 48.448C611.132 48.928 610.78 49.584 610.652 50.416H617.012C616.884 49.6 616.532 48.952 615.956 48.472C615.38 47.976 614.676 47.728 613.844 47.728ZM630.881 44.896C632.481 44.896 633.769 45.376 634.745 46.336C635.737 47.296 636.233 48.72 636.233 50.608V58H632.489V51.184C632.489 50.16 632.265 49.4 631.817 48.904C631.369 48.392 630.721 48.136 629.873 48.136C628.929 48.136 628.177 48.432 627.617 49.024C627.057 49.6 626.777 50.464 626.777 51.616V58H623.033V40.192H626.777V46.432C627.273 45.936 627.873 45.56 628.577 45.304C629.281 45.032 630.049 44.896 630.881 44.896ZM639.626 45.088H643.37V58H639.626V45.088ZM641.498 43.288C640.81 43.288 640.25 43.088 639.818 42.688C639.386 42.288 639.17 41.792 639.17 41.2C639.17 40.608 639.386 40.112 639.818 39.712C640.25 39.312 640.81 39.112 641.498 39.112C642.186 39.112 642.746 39.304 643.178 39.688C643.61 40.072 643.826 40.552 643.826 41.128C643.826 41.752 643.61 42.272 643.178 42.688C642.746 43.088 642.186 43.288 641.498 43.288ZM650.421 46.792C650.869 46.168 651.469 45.696 652.221 45.376C652.989 45.056 653.869 44.896 654.861 44.896V48.352C654.445 48.32 654.165 48.304 654.021 48.304C652.949 48.304 652.109 48.608 651.501 49.216C650.893 49.808 650.589 50.704 650.589 51.904V58H646.845V45.088H650.421V46.792ZM679.65 41.2V58H675.762V51.112H668.13V58H664.242V41.2H668.13V47.824H675.762V41.2H679.65ZM688.569 44.896C690.569 44.896 692.105 45.376 693.177 46.336C694.249 47.28 694.785 48.712 694.785 50.632V58H691.281V56.392C690.577 57.592 689.265 58.192 687.345 58.192C686.353 58.192 685.489 58.024 684.753 57.688C684.033 57.352 683.481 56.888 683.097 56.296C682.713 55.704 682.521 55.032 682.521 54.28C682.521 53.08 682.969 52.136 683.865 51.448C684.777 50.76 686.177 50.416 688.065 50.416H691.041C691.041 49.6 690.793 48.976 690.297 48.544C689.801 48.096 689.057 47.872 688.065 47.872C687.377 47.872 686.697 47.984 686.025 48.208C685.369 48.416 684.809 48.704 684.345 49.072L683.001 46.456C683.705 45.96 684.545 45.576 685.521 45.304C686.513 45.032 687.529 44.896 688.569 44.896ZM688.281 55.672C688.921 55.672 689.489 55.528 689.985 55.24C690.481 54.936 690.833 54.496 691.041 53.92V52.6H688.473C686.937 52.6 686.169 53.104 686.169 54.112C686.169 54.592 686.353 54.976 686.721 55.264C687.105 55.536 687.625 55.672 688.281 55.672ZM702.517 58.192C701.445 58.192 700.397 58.064 699.373 57.808C698.349 57.536 697.533 57.2 696.925 56.8L698.173 54.112C698.749 54.48 699.445 54.784 700.261 55.024C701.077 55.248 701.877 55.36 702.661 55.36C704.245 55.36 705.037 54.968 705.037 54.184C705.037 53.816 704.821 53.552 704.389 53.392C703.957 53.232 703.293 53.096 702.397 52.984C701.341 52.824 700.469 52.64 699.781 52.432C699.093 52.224 698.493 51.856 697.981 51.328C697.485 50.8 697.237 50.048 697.237 49.072C697.237 48.256 697.469 47.536 697.933 46.912C698.413 46.272 699.101 45.776 699.997 45.424C700.909 45.072 701.981 44.896 703.213 44.896C704.125 44.896 705.029 45 705.925 45.208C706.837 45.4 707.589 45.672 708.181 46.024L706.933 48.688C705.797 48.048 704.557 47.728 703.213 47.728C702.413 47.728 701.813 47.84 701.413 48.064C701.013 48.288 700.813 48.576 700.813 48.928C700.813 49.328 701.029 49.608 701.461 49.768C701.893 49.928 702.581 50.08 703.525 50.224C704.581 50.4 705.445 50.592 706.117 50.8C706.789 50.992 707.373 51.352 707.869 51.88C708.365 52.408 708.613 53.144 708.613 54.088C708.613 54.888 708.373 55.6 707.893 56.224C707.413 56.848 706.709 57.336 705.781 57.688C704.869 58.024 703.781 58.192 702.517 58.192ZM719.251 57.376C718.883 57.648 718.427 57.856 717.883 58C717.355 58.128 716.795 58.192 716.203 58.192C714.667 58.192 713.475 57.8 712.627 57.016C711.795 56.232 711.379 55.08 711.379 53.56V48.256H709.387V45.376H711.379V42.232H715.123V45.376H718.339V48.256H715.123V53.512C715.123 54.056 715.259 54.48 715.531 54.784C715.819 55.072 716.219 55.216 716.731 55.216C717.323 55.216 717.827 55.056 718.243 54.736L719.251 57.376ZM723.003 58.192C722.347 58.192 721.795 57.968 721.347 57.52C720.899 57.072 720.675 56.512 720.675 55.84C720.675 55.152 720.899 54.6 721.347 54.184C721.795 53.752 722.347 53.536 723.003 53.536C723.659 53.536 724.211 53.752 724.659 54.184C725.107 54.6 725.331 55.152 725.331 55.84C725.331 56.512 725.107 57.072 724.659 57.52C724.211 57.968 723.659 58.192 723.003 58.192Z" fill="black"/>
<path d="M776.727 29.288C775.399 29.288 774.111 29.112 772.863 28.76C771.631 28.392 770.639 27.92 769.887 27.344L771.207 24.416C771.927 24.944 772.783 25.368 773.775 25.688C774.767 26.008 775.759 26.168 776.751 26.168C777.855 26.168 778.671 26.008 779.199 25.688C779.727 25.352 779.991 24.912 779.991 24.368C779.991 23.968 779.831 23.64 779.511 23.384C779.207 23.112 778.807 22.896 778.311 22.736C777.831 22.576 777.175 22.4 776.343 22.208C775.063 21.904 774.015 21.6 773.199 21.296C772.383 20.992 771.679 20.504 771.087 19.832C770.511 19.16 770.223 18.264 770.223 17.144C770.223 16.168 770.487 15.288 771.015 14.504C771.543 13.704 772.335 13.072 773.391 12.608C774.463 12.144 775.767 11.912 777.303 11.912C778.375 11.912 779.423 12.04 780.447 12.296C781.471 12.552 782.367 12.92 783.135 13.4L781.935 16.352C780.383 15.472 778.831 15.032 777.279 15.032C776.191 15.032 775.383 15.208 774.855 15.56C774.343 15.912 774.087 16.376 774.087 16.952C774.087 17.528 774.383 17.96 774.975 18.248C775.583 18.52 776.503 18.792 777.735 19.064C779.015 19.368 780.063 19.672 780.879 19.976C781.695 20.28 782.391 20.76 782.967 21.416C783.559 22.072 783.855 22.96 783.855 24.08C783.855 25.04 783.583 25.92 783.039 26.72C782.511 27.504 781.711 28.128 780.639 28.592C779.567 29.056 778.263 29.288 776.727 29.288ZM791.456 15.896C793.456 15.896 794.992 16.376 796.064 17.336C797.136 18.28 797.672 19.712 797.672 21.632V29H794.168V27.392C793.464 28.592 792.152 29.192 790.232 29.192C789.24 29.192 788.376 29.024 787.64 28.688C786.92 28.352 786.368 27.888 785.984 27.296C785.6 26.704 785.408 26.032 785.408 25.28C785.408 24.08 785.856 23.136 786.752 22.448C787.664 21.76 789.064 21.416 790.952 21.416H793.928C793.928 20.6 793.68 19.976 793.184 19.544C792.688 19.096 791.944 18.872 790.952 18.872C790.264 18.872 789.584 18.984 788.912 19.208C788.256 19.416 787.696 19.704 787.232 20.072L785.888 17.456C786.592 16.96 787.432 16.576 788.408 16.304C789.4 16.032 790.416 15.896 791.456 15.896ZM791.168 26.672C791.808 26.672 792.376 26.528 792.872 26.24C793.368 25.936 793.72 25.496 793.928 24.92V23.6H791.36C789.824 23.6 789.056 24.104 789.056 25.112C789.056 25.592 789.24 25.976 789.608 26.264C789.992 26.536 790.512 26.672 791.168 26.672ZM808.908 15.896C810.508 15.896 811.796 16.376 812.772 17.336C813.764 18.296 814.26 19.72 814.26 21.608V29H810.516V22.184C810.516 21.16 810.292 20.4 809.844 19.904C809.396 19.392 808.748 19.136 807.9 19.136C806.956 19.136 806.204 19.432 805.644 20.024C805.084 20.6 804.804 21.464 804.804 22.616V29H801.06V16.088H804.636V17.6C805.132 17.056 805.748 16.64 806.484 16.352C807.22 16.048 808.028 15.896 808.908 15.896ZM824.034 29.192C822.658 29.192 821.418 28.912 820.314 28.352C819.226 27.776 818.37 26.984 817.746 25.976C817.138 24.968 816.834 23.824 816.834 22.544C816.834 21.264 817.138 20.12 817.746 19.112C818.37 18.104 819.226 17.32 820.314 16.76C821.418 16.184 822.658 15.896 824.034 15.896C825.394 15.896 826.578 16.184 827.586 16.76C828.61 17.32 829.354 18.128 829.818 19.184L826.914 20.744C826.242 19.56 825.274 18.968 824.01 18.968C823.034 18.968 822.226 19.288 821.586 19.928C820.946 20.568 820.626 21.44 820.626 22.544C820.626 23.648 820.946 24.52 821.586 25.16C822.226 25.8 823.034 26.12 824.01 26.12C825.29 26.12 826.258 25.528 826.914 24.344L829.818 25.928C829.354 26.952 828.61 27.752 827.586 28.328C826.578 28.904 825.394 29.192 824.034 29.192ZM837.182 15.896C839.182 15.896 840.718 16.376 841.79 17.336C842.862 18.28 843.398 19.712 843.398 21.632V29H839.894V27.392C839.19 28.592 837.878 29.192 835.958 29.192C834.966 29.192 834.102 29.024 833.366 28.688C832.646 28.352 832.094 27.888 831.71 27.296C831.326 26.704 831.134 26.032 831.134 25.28C831.134 24.08 831.582 23.136 832.478 22.448C833.39 21.76 834.79 21.416 836.678 21.416H839.654C839.654 20.6 839.406 19.976 838.91 19.544C838.414 19.096 837.67 18.872 836.678 18.872C835.99 18.872 835.31 18.984 834.638 19.208C833.982 19.416 833.422 19.704 832.958 20.072L831.614 17.456C832.318 16.96 833.158 16.576 834.134 16.304C835.126 16.032 836.142 15.896 837.182 15.896ZM836.894 26.672C837.534 26.672 838.102 26.528 838.598 26.24C839.094 25.936 839.446 25.496 839.654 24.92V23.6H837.086C835.55 23.6 834.782 24.104 834.782 25.112C834.782 25.592 834.966 25.976 835.334 26.264C835.718 26.536 836.238 26.672 836.894 26.672ZM852.331 23.936L850.531 25.712V29H846.787V11.192H850.531V21.272L856.003 16.088H860.467L855.091 21.56L860.947 29H856.411L852.331 23.936ZM870.958 28.376C870.59 28.648 870.134 28.856 869.59 29C869.062 29.128 868.502 29.192 867.91 29.192C866.374 29.192 865.182 28.8 864.334 28.016C863.502 27.232 863.086 26.08 863.086 24.56V19.256H861.094V16.376H863.086V13.232H866.83V16.376H870.046V19.256H866.83V24.512C866.83 25.056 866.966 25.48 867.238 25.784C867.526 26.072 867.926 26.216 868.438 26.216C869.03 26.216 869.534 26.056 869.95 25.736L870.958 28.376ZM885.31 22.592C885.31 22.64 885.286 22.976 885.238 23.6H875.47C875.646 24.4 876.062 25.032 876.718 25.496C877.374 25.96 878.19 26.192 879.166 26.192C879.838 26.192 880.43 26.096 880.942 25.904C881.47 25.696 881.958 25.376 882.406 24.944L884.398 27.104C883.182 28.496 881.406 29.192 879.07 29.192C877.614 29.192 876.326 28.912 875.206 28.352C874.086 27.776 873.222 26.984 872.614 25.976C872.006 24.968 871.702 23.824 871.702 22.544C871.702 21.28 871.998 20.144 872.59 19.136C873.198 18.112 874.022 17.32 875.062 16.76C876.118 16.184 877.294 15.896 878.59 15.896C879.854 15.896 880.998 16.168 882.022 16.712C883.046 17.256 883.846 18.04 884.422 19.064C885.014 20.072 885.31 21.248 885.31 22.592ZM878.614 18.728C877.766 18.728 877.054 18.968 876.478 19.448C875.902 19.928 875.55 20.584 875.422 21.416H881.782C881.654 20.6 881.302 19.952 880.726 19.472C880.15 18.976 879.446 18.728 878.614 18.728ZM895.434 15.896C896.634 15.896 897.722 16.176 898.698 16.736C899.69 17.28 900.466 18.056 901.026 19.064C901.586 20.056 901.866 21.216 901.866 22.544C901.866 23.872 901.586 25.04 901.026 26.048C900.466 27.04 899.69 27.816 898.698 28.376C897.722 28.92 896.634 29.192 895.434 29.192C893.786 29.192 892.49 28.672 891.546 27.632V33.656H887.802V16.088H891.378V17.576C892.306 16.456 893.658 15.896 895.434 15.896ZM894.786 26.12C895.746 26.12 896.53 25.8 897.138 25.16C897.762 24.504 898.074 23.632 898.074 22.544C898.074 21.456 897.762 20.592 897.138 19.952C896.53 19.296 895.746 18.968 894.786 18.968C893.826 18.968 893.034 19.296 892.41 19.952C891.802 20.592 891.498 21.456 891.498 22.544C891.498 23.632 891.802 24.504 892.41 25.16C893.034 25.8 893.826 26.12 894.786 26.12ZM917.021 22.592C917.021 22.64 916.997 22.976 916.949 23.6H907.181C907.357 24.4 907.773 25.032 908.429 25.496C909.085 25.96 909.901 26.192 910.877 26.192C911.549 26.192 912.141 26.096 912.653 25.904C913.181 25.696 913.669 25.376 914.117 24.944L916.109 27.104C914.893 28.496 913.117 29.192 910.781 29.192C909.325 29.192 908.037 28.912 906.917 28.352C905.797 27.776 904.933 26.984 904.325 25.976C903.717 24.968 903.413 23.824 903.413 22.544C903.413 21.28 903.709 20.144 904.301 19.136C904.909 18.112 905.733 17.32 906.773 16.76C907.829 16.184 909.005 15.896 910.301 15.896C911.565 15.896 912.709 16.168 913.733 16.712C914.757 17.256 915.557 18.04 916.133 19.064C916.725 20.072 917.021 21.248 917.021 22.592ZM910.325 18.728C909.477 18.728 908.765 18.968 908.189 19.448C907.613 19.928 907.261 20.584 907.133 21.416H913.493C913.365 20.6 913.013 19.952 912.437 19.472C911.861 18.976 911.157 18.728 910.325 18.728ZM814.96 58L814.936 47.92L809.992 56.224H808.24L803.32 48.136V58H799.672V41.2H802.888L809.176 51.64L815.368 41.2H818.56L818.608 58H814.96ZM834.978 51.592C834.978 51.64 834.954 51.976 834.906 52.6H825.138C825.314 53.4 825.73 54.032 826.386 54.496C827.042 54.96 827.858 55.192 828.834 55.192C829.506 55.192 830.098 55.096 830.61 54.904C831.138 54.696 831.626 54.376 832.074 53.944L834.066 56.104C832.85 57.496 831.074 58.192 828.738 58.192C827.282 58.192 825.994 57.912 824.874 57.352C823.754 56.776 822.89 55.984 822.282 54.976C821.674 53.968 821.37 52.824 821.37 51.544C821.37 50.28 821.666 49.144 822.258 48.136C822.866 47.112 823.69 46.32 824.73 45.76C825.786 45.184 826.962 44.896 828.258 44.896C829.522 44.896 830.666 45.168 831.69 45.712C832.714 46.256 833.514 47.04 834.09 48.064C834.682 49.072 834.978 50.248 834.978 51.592ZM828.282 47.728C827.434 47.728 826.722 47.968 826.146 48.448C825.57 48.928 825.218 49.584 825.09 50.416H831.45C831.322 49.6 830.97 48.952 830.394 48.472C829.818 47.976 829.114 47.728 828.282 47.728ZM841.046 46.792C841.494 46.168 842.094 45.696 842.846 45.376C843.614 45.056 844.494 44.896 845.486 44.896V48.352C845.07 48.32 844.79 48.304 844.646 48.304C843.574 48.304 842.734 48.608 842.126 49.216C841.518 49.808 841.214 50.704 841.214 51.904V58H837.47V45.088H841.046V46.792ZM853.256 52.936L851.456 54.712V58H847.712V40.192H851.456V50.272L856.928 45.088H861.392L856.016 50.56L861.872 58H857.336L853.256 52.936ZM875.642 51.592C875.642 51.64 875.618 51.976 875.57 52.6H865.802C865.978 53.4 866.394 54.032 867.05 54.496C867.706 54.96 868.522 55.192 869.498 55.192C870.17 55.192 870.762 55.096 871.274 54.904C871.802 54.696 872.29 54.376 872.738 53.944L874.73 56.104C873.514 57.496 871.738 58.192 869.402 58.192C867.946 58.192 866.658 57.912 865.538 57.352C864.418 56.776 863.554 55.984 862.946 54.976C862.338 53.968 862.034 52.824 862.034 51.544C862.034 50.28 862.33 49.144 862.922 48.136C863.53 47.112 864.354 46.32 865.394 45.76C866.45 45.184 867.626 44.896 868.922 44.896C870.186 44.896 871.33 45.168 872.354 45.712C873.378 46.256 874.178 47.04 874.754 48.064C875.346 49.072 875.642 50.248 875.642 51.592ZM868.946 47.728C868.098 47.728 867.386 47.968 866.81 48.448C866.234 48.928 865.882 49.584 865.754 50.416H872.114C871.986 49.6 871.634 48.952 871.058 48.472C870.482 47.976 869.778 47.728 868.946 47.728ZM888.649 55.12V58H877.129V55.744L883.705 47.968H877.297V45.088H888.433V47.344L881.857 55.12H888.649Z" fill="black"/>
<path d="M964.684 29.288C963.356 29.288 962.068 29.112 960.82 28.76C959.588 28.392 958.596 27.92 957.844 27.344L959.164 24.416C959.884 24.944 960.74 25.368 961.732 25.688C962.724 26.008 963.716 26.168 964.708 26.168C965.812 26.168 966.628 26.008 967.156 25.688C967.684 25.352 967.948 24.912 967.948 24.368C967.948 23.968 967.788 23.64 967.468 23.384C967.164 23.112 966.764 22.896 966.268 22.736C965.788 22.576 965.132 22.4 964.3 22.208C963.02 21.904 961.972 21.6 961.156 21.296C960.34 20.992 959.636 20.504 959.044 19.832C958.468 19.16 958.18 18.264 958.18 17.144C958.18 16.168 958.444 15.288 958.972 14.504C959.5 13.704 960.292 13.072 961.348 12.608C962.42 12.144 963.724 11.912 965.26 11.912C966.332 11.912 967.38 12.04 968.404 12.296C969.428 12.552 970.324 12.92 971.092 13.4L969.892 16.352C968.34 15.472 966.788 15.032 965.236 15.032C964.148 15.032 963.34 15.208 962.812 15.56C962.3 15.912 962.044 16.376 962.044 16.952C962.044 17.528 962.34 17.96 962.932 18.248C963.54 18.52 964.46 18.792 965.692 19.064C966.972 19.368 968.02 19.672 968.836 19.976C969.652 20.28 970.348 20.76 970.924 21.416C971.516 22.072 971.812 22.96 971.812 24.08C971.812 25.04 971.54 25.92 970.996 26.72C970.468 27.504 969.668 28.128 968.596 28.592C967.524 29.056 966.22 29.288 964.684 29.288ZM979.413 15.896C981.413 15.896 982.949 16.376 984.021 17.336C985.093 18.28 985.629 19.712 985.629 21.632V29H982.125V27.392C981.421 28.592 980.109 29.192 978.189 29.192C977.197 29.192 976.333 29.024 975.597 28.688C974.877 28.352 974.325 27.888 973.941 27.296C973.557 26.704 973.365 26.032 973.365 25.28C973.365 24.08 973.813 23.136 974.709 22.448C975.621 21.76 977.021 21.416 978.909 21.416H981.885C981.885 20.6 981.637 19.976 981.141 19.544C980.645 19.096 979.901 18.872 978.909 18.872C978.221 18.872 977.541 18.984 976.869 19.208C976.213 19.416 975.653 19.704 975.189 20.072L973.845 17.456C974.549 16.96 975.389 16.576 976.365 16.304C977.357 16.032 978.373 15.896 979.413 15.896ZM979.125 26.672C979.765 26.672 980.333 26.528 980.829 26.24C981.325 25.936 981.677 25.496 981.885 24.92V23.6H979.317C977.781 23.6 977.013 24.104 977.013 25.112C977.013 25.592 977.197 25.976 977.565 26.264C977.949 26.536 978.469 26.672 979.125 26.672ZM1005.55 15.896C1007.17 15.896 1008.45 16.376 1009.39 17.336C1010.35 18.28 1010.83 19.704 1010.83 21.608V29H1007.09V22.184C1007.09 21.16 1006.87 20.4 1006.44 19.904C1006.03 19.392 1005.43 19.136 1004.64 19.136C1003.76 19.136 1003.07 19.424 1002.55 20C1002.04 20.56 1001.79 21.4 1001.79 22.52V29H998.041V22.184C998.041 20.152 997.225 19.136 995.593 19.136C994.729 19.136 994.041 19.424 993.529 20C993.017 20.56 992.761 21.4 992.761 22.52V29H989.017V16.088H992.593V17.576C993.073 17.032 993.657 16.616 994.345 16.328C995.049 16.04 995.817 15.896 996.649 15.896C997.561 15.896 998.385 16.08 999.121 16.448C999.857 16.8 1000.45 17.32 1000.9 18.008C1001.43 17.336 1002.09 16.816 1002.89 16.448C1003.71 16.08 1004.59 15.896 1005.55 15.896ZM1019.4 15.896C1021.4 15.896 1022.93 16.376 1024 17.336C1025.08 18.28 1025.61 19.712 1025.61 21.632V29H1022.11V27.392C1021.4 28.592 1020.09 29.192 1018.17 29.192C1017.18 29.192 1016.32 29.024 1015.58 28.688C1014.86 28.352 1014.31 27.888 1013.92 27.296C1013.54 26.704 1013.35 26.032 1013.35 25.28C1013.35 24.08 1013.8 23.136 1014.69 22.448C1015.6 21.76 1017 21.416 1018.89 21.416H1021.87C1021.87 20.6 1021.62 19.976 1021.12 19.544C1020.63 19.096 1019.88 18.872 1018.89 18.872C1018.2 18.872 1017.52 18.984 1016.85 19.208C1016.2 19.416 1015.64 19.704 1015.17 20.072L1013.83 17.456C1014.53 16.96 1015.37 16.576 1016.35 16.304C1017.34 16.032 1018.36 15.896 1019.4 15.896ZM1019.11 26.672C1019.75 26.672 1020.32 26.528 1020.81 26.24C1021.31 25.936 1021.66 25.496 1021.87 24.92V23.6H1019.3C1017.76 23.6 1017 24.104 1017 25.112C1017 25.592 1017.18 25.976 1017.55 26.264C1017.93 26.536 1018.45 26.672 1019.11 26.672ZM1036.85 15.896C1038.45 15.896 1039.74 16.376 1040.71 17.336C1041.71 18.296 1042.2 19.72 1042.2 21.608V29H1038.46V22.184C1038.46 21.16 1038.23 20.4 1037.79 19.904C1037.34 19.392 1036.69 19.136 1035.84 19.136C1034.9 19.136 1034.15 19.432 1033.59 20.024C1033.03 20.6 1032.75 21.464 1032.75 22.616V29H1029V16.088H1032.58V17.6C1033.07 17.056 1033.69 16.64 1034.43 16.352C1035.16 16.048 1035.97 15.896 1036.85 15.896ZM1058.89 11.192V29H1055.31V27.512C1054.38 28.632 1053.04 29.192 1051.28 29.192C1050.06 29.192 1048.96 28.92 1047.97 28.376C1046.99 27.832 1046.22 27.056 1045.66 26.048C1045.1 25.04 1044.82 23.872 1044.82 22.544C1044.82 21.216 1045.1 20.048 1045.66 19.04C1046.22 18.032 1046.99 17.256 1047.97 16.712C1048.96 16.168 1050.06 15.896 1051.28 15.896C1052.93 15.896 1054.22 16.416 1055.14 17.456V11.192H1058.89ZM1051.93 26.12C1052.87 26.12 1053.66 25.8 1054.28 25.16C1054.9 24.504 1055.22 23.632 1055.22 22.544C1055.22 21.456 1054.9 20.592 1054.28 19.952C1053.66 19.296 1052.87 18.968 1051.93 18.968C1050.97 18.968 1050.18 19.296 1049.55 19.952C1048.93 20.592 1048.62 21.456 1048.62 22.544C1048.62 23.632 1048.93 24.504 1049.55 25.16C1050.18 25.8 1050.97 26.12 1051.93 26.12ZM1062.35 16.088H1066.1V29H1062.35V16.088ZM1073.15 17.792C1073.6 17.168 1074.2 16.696 1074.95 16.376C1075.72 16.056 1076.6 15.896 1077.59 15.896V19.352C1077.17 19.32 1076.89 19.304 1076.75 19.304C1075.68 19.304 1074.84 19.608 1074.23 20.216C1073.62 20.808 1073.32 21.704 1073.32 22.904V29H1069.57V16.088H1073.15V17.792ZM1084.95 15.896C1086.95 15.896 1088.49 16.376 1089.56 17.336C1090.63 18.28 1091.17 19.712 1091.17 21.632V29H1087.66V27.392C1086.96 28.592 1085.65 29.192 1083.73 29.192C1082.74 29.192 1081.87 29.024 1081.14 28.688C1080.42 28.352 1079.86 27.888 1079.48 27.296C1079.1 26.704 1078.9 26.032 1078.9 25.28C1078.9 24.08 1079.35 23.136 1080.25 22.448C1081.16 21.76 1082.56 21.416 1084.45 21.416H1087.42C1087.42 20.6 1087.18 19.976 1086.68 19.544C1086.18 19.096 1085.44 18.872 1084.45 18.872C1083.76 18.872 1083.08 18.984 1082.41 19.208C1081.75 19.416 1081.19 19.704 1080.73 20.072L1079.38 17.456C1080.09 16.96 1080.93 16.576 1081.9 16.304C1082.9 16.032 1083.91 15.896 1084.95 15.896ZM1084.66 26.672C1085.3 26.672 1085.87 26.528 1086.37 26.24C1086.86 25.936 1087.22 25.496 1087.42 24.92V23.6H1084.86C1083.32 23.6 1082.55 24.104 1082.55 25.112C1082.55 25.592 1082.74 25.976 1083.1 26.264C1083.49 26.536 1084.01 26.672 1084.66 26.672ZM996.46 58L996.436 47.92L991.492 56.224H989.74L984.82 48.136V58H981.172V41.2H984.388L990.676 51.64L996.868 41.2H1000.06L1000.11 58H996.46ZM1016.48 51.592C1016.48 51.64 1016.45 51.976 1016.41 52.6H1006.64C1006.81 53.4 1007.23 54.032 1007.89 54.496C1008.54 54.96 1009.36 55.192 1010.33 55.192C1011.01 55.192 1011.6 55.096 1012.11 54.904C1012.64 54.696 1013.13 54.376 1013.57 53.944L1015.57 56.104C1014.35 57.496 1012.57 58.192 1010.24 58.192C1008.78 58.192 1007.49 57.912 1006.37 57.352C1005.25 56.776 1004.39 55.984 1003.78 54.976C1003.17 53.968 1002.87 52.824 1002.87 51.544C1002.87 50.28 1003.17 49.144 1003.76 48.136C1004.37 47.112 1005.19 46.32 1006.23 45.76C1007.29 45.184 1008.46 44.896 1009.76 44.896C1011.02 44.896 1012.17 45.168 1013.19 45.712C1014.21 46.256 1015.01 47.04 1015.59 48.064C1016.18 49.072 1016.48 50.248 1016.48 51.592ZM1009.78 47.728C1008.93 47.728 1008.22 47.968 1007.65 48.448C1007.07 48.928 1006.72 49.584 1006.59 50.416H1012.95C1012.82 49.6 1012.47 48.952 1011.89 48.472C1011.32 47.976 1010.61 47.728 1009.78 47.728ZM1022.55 46.792C1022.99 46.168 1023.59 45.696 1024.35 45.376C1025.11 45.056 1025.99 44.896 1026.99 44.896V48.352C1026.57 48.32 1026.29 48.304 1026.15 48.304C1025.07 48.304 1024.23 48.608 1023.63 49.216C1023.02 49.808 1022.71 50.704 1022.71 51.904V58H1018.97V45.088H1022.55V46.792ZM1034.76 52.936L1032.96 54.712V58H1029.21V40.192H1032.96V50.272L1038.43 45.088H1042.89L1037.52 50.56L1043.37 58H1038.84L1034.76 52.936ZM1057.14 51.592C1057.14 51.64 1057.12 51.976 1057.07 52.6H1047.3C1047.48 53.4 1047.89 54.032 1048.55 54.496C1049.21 54.96 1050.02 55.192 1051 55.192C1051.67 55.192 1052.26 55.096 1052.77 54.904C1053.3 54.696 1053.79 54.376 1054.24 53.944L1056.23 56.104C1055.01 57.496 1053.24 58.192 1050.9 58.192C1049.45 58.192 1048.16 57.912 1047.04 57.352C1045.92 56.776 1045.05 55.984 1044.45 54.976C1043.84 53.968 1043.53 52.824 1043.53 51.544C1043.53 50.28 1043.83 49.144 1044.42 48.136C1045.03 47.112 1045.85 46.32 1046.89 45.76C1047.95 45.184 1049.13 44.896 1050.42 44.896C1051.69 44.896 1052.83 45.168 1053.85 45.712C1054.88 46.256 1055.68 47.04 1056.25 48.064C1056.85 49.072 1057.14 50.248 1057.14 51.592ZM1050.45 47.728C1049.6 47.728 1048.89 47.968 1048.31 48.448C1047.73 48.928 1047.38 49.584 1047.25 50.416H1053.61C1053.49 49.6 1053.13 48.952 1052.56 48.472C1051.98 47.976 1051.28 47.728 1050.45 47.728ZM1070.15 55.12V58H1058.63V55.744L1065.21 47.968H1058.8V45.088H1069.93V47.344L1063.36 55.12H1070.15Z" fill="black"/>
<path d="M1141.32 41.2L1134.04 58H1130.2L1122.96 41.2H1127.16L1132.27 53.2L1137.45 41.2H1141.32ZM1154.14 51.592C1154.14 51.64 1154.12 51.976 1154.07 52.6H1144.3C1144.48 53.4 1144.89 54.032 1145.55 54.496C1146.21 54.96 1147.02 55.192 1148 55.192C1148.67 55.192 1149.26 55.096 1149.77 54.904C1150.3 54.696 1150.79 54.376 1151.24 53.944L1153.23 56.104C1152.01 57.496 1150.24 58.192 1147.9 58.192C1146.45 58.192 1145.16 57.912 1144.04 57.352C1142.92 56.776 1142.05 55.984 1141.45 54.976C1140.84 53.968 1140.53 52.824 1140.53 51.544C1140.53 50.28 1140.83 49.144 1141.42 48.136C1142.03 47.112 1142.85 46.32 1143.89 45.76C1144.95 45.184 1146.13 44.896 1147.42 44.896C1148.69 44.896 1149.83 45.168 1150.85 45.712C1151.88 46.256 1152.68 47.04 1153.25 48.064C1153.85 49.072 1154.14 50.248 1154.14 51.592ZM1147.45 47.728C1146.6 47.728 1145.89 47.968 1145.31 48.448C1144.73 48.928 1144.38 49.584 1144.25 50.416H1150.61C1150.49 49.6 1150.13 48.952 1149.56 48.472C1148.98 47.976 1148.28 47.728 1147.45 47.728ZM1169.22 45.088L1163.38 58.792C1162.79 60.28 1162.06 61.328 1161.18 61.936C1160.31 62.544 1159.26 62.848 1158.03 62.848C1157.36 62.848 1156.7 62.744 1156.04 62.536C1155.38 62.328 1154.85 62.04 1154.43 61.672L1155.8 59.008C1156.09 59.264 1156.42 59.464 1156.78 59.608C1157.17 59.752 1157.54 59.824 1157.91 59.824C1158.42 59.824 1158.84 59.696 1159.16 59.44C1159.48 59.2 1159.77 58.792 1160.02 58.216L1160.07 58.096L1154.48 45.088H1158.34L1161.97 53.848L1165.62 45.088H1169.22ZM1174.9 58.192C1173.83 58.192 1172.78 58.064 1171.76 57.808C1170.73 57.536 1169.92 57.2 1169.31 56.8L1170.56 54.112C1171.13 54.48 1171.83 54.784 1172.64 55.024C1173.46 55.248 1174.26 55.36 1175.04 55.36C1176.63 55.36 1177.42 54.968 1177.42 54.184C1177.42 53.816 1177.2 53.552 1176.77 53.392C1176.34 53.232 1175.68 53.096 1174.78 52.984C1173.72 52.824 1172.85 52.64 1172.16 52.432C1171.48 52.224 1170.88 51.856 1170.36 51.328C1169.87 50.8 1169.62 50.048 1169.62 49.072C1169.62 48.256 1169.85 47.536 1170.32 46.912C1170.8 46.272 1171.48 45.776 1172.38 45.424C1173.29 45.072 1174.36 44.896 1175.6 44.896C1176.51 44.896 1177.41 45 1178.31 45.208C1179.22 45.4 1179.97 45.672 1180.56 46.024L1179.32 48.688C1178.18 48.048 1176.94 47.728 1175.6 47.728C1174.8 47.728 1174.2 47.84 1173.8 48.064C1173.4 48.288 1173.2 48.576 1173.2 48.928C1173.2 49.328 1173.41 49.608 1173.84 49.768C1174.28 49.928 1174.96 50.08 1175.91 50.224C1176.96 50.4 1177.83 50.592 1178.5 50.8C1179.17 50.992 1179.76 51.352 1180.25 51.88C1180.75 52.408 1181 53.144 1181 54.088C1181 54.888 1180.76 55.6 1180.28 56.224C1179.8 56.848 1179.09 57.336 1178.16 57.688C1177.25 58.024 1176.16 58.192 1174.9 58.192ZM1195.95 51.592C1195.95 51.64 1195.93 51.976 1195.88 52.6H1186.11C1186.29 53.4 1186.71 54.032 1187.36 54.496C1188.02 54.96 1188.83 55.192 1189.81 55.192C1190.48 55.192 1191.07 55.096 1191.59 54.904C1192.11 54.696 1192.6 54.376 1193.05 53.944L1195.04 56.104C1193.83 57.496 1192.05 58.192 1189.71 58.192C1188.26 58.192 1186.97 57.912 1185.85 57.352C1184.73 56.776 1183.87 55.984 1183.26 54.976C1182.65 53.968 1182.35 52.824 1182.35 51.544C1182.35 50.28 1182.64 49.144 1183.23 48.136C1183.84 47.112 1184.67 46.32 1185.71 45.76C1186.76 45.184 1187.94 44.896 1189.23 44.896C1190.5 44.896 1191.64 45.168 1192.67 45.712C1193.69 46.256 1194.49 47.04 1195.07 48.064C1195.66 49.072 1195.95 50.248 1195.95 51.592ZM1189.26 47.728C1188.41 47.728 1187.7 47.968 1187.12 48.448C1186.55 48.928 1186.19 49.584 1186.07 50.416H1192.43C1192.3 49.6 1191.95 48.952 1191.37 48.472C1190.79 47.976 1190.09 47.728 1189.26 47.728ZM1198.45 40.192H1202.19V58H1198.45V40.192ZM1218.85 51.4L1216.59 53.752V58H1212.73V41.2H1216.59V49.048L1224.03 41.2H1228.35L1221.39 48.688L1228.76 58H1224.22L1218.85 51.4ZM1235.15 44.896C1237.15 44.896 1238.69 45.376 1239.76 46.336C1240.83 47.28 1241.37 48.712 1241.37 50.632V58H1237.87V56.392C1237.16 57.592 1235.85 58.192 1233.93 58.192C1232.94 58.192 1232.07 58.024 1231.34 57.688C1230.62 57.352 1230.07 56.888 1229.68 56.296C1229.3 55.704 1229.11 55.032 1229.11 54.28C1229.11 53.08 1229.55 52.136 1230.45 51.448C1231.36 50.76 1232.76 50.416 1234.65 50.416H1237.63C1237.63 49.6 1237.38 48.976 1236.88 48.544C1236.39 48.096 1235.64 47.872 1234.65 47.872C1233.96 47.872 1233.28 47.984 1232.61 48.208C1231.95 48.416 1231.39 48.704 1230.93 49.072L1229.59 46.456C1230.29 45.96 1231.13 45.576 1232.11 45.304C1233.1 45.032 1234.11 44.896 1235.15 44.896ZM1234.87 55.672C1235.51 55.672 1236.07 55.528 1236.57 55.24C1237.07 54.936 1237.42 54.496 1237.63 53.92V52.6H1235.06C1233.52 52.6 1232.75 53.104 1232.75 54.112C1232.75 54.592 1232.94 54.976 1233.31 55.264C1233.69 55.536 1234.21 55.672 1234.87 55.672ZM1248.34 46.792C1248.78 46.168 1249.38 45.696 1250.14 45.376C1250.9 45.056 1251.78 44.896 1252.78 44.896V48.352C1252.36 48.32 1252.08 48.304 1251.94 48.304C1250.86 48.304 1250.02 48.608 1249.42 49.216C1248.81 49.808 1248.5 50.704 1248.5 51.904V58H1244.76V45.088H1248.34V46.792ZM1260.14 44.896C1262.14 44.896 1263.68 45.376 1264.75 46.336C1265.82 47.28 1266.36 48.712 1266.36 50.632V58H1262.85V56.392C1262.15 57.592 1260.84 58.192 1258.92 58.192C1257.92 58.192 1257.06 58.024 1256.32 57.688C1255.6 57.352 1255.05 56.888 1254.67 56.296C1254.28 55.704 1254.09 55.032 1254.09 54.28C1254.09 53.08 1254.54 52.136 1255.44 51.448C1256.35 50.76 1257.75 50.416 1259.64 50.416H1262.61C1262.61 49.6 1262.36 48.976 1261.87 48.544C1261.37 48.096 1260.63 47.872 1259.64 47.872C1258.95 47.872 1258.27 47.984 1257.6 48.208C1256.94 48.416 1256.38 48.704 1255.92 49.072L1254.57 46.456C1255.28 45.96 1256.12 45.576 1257.09 45.304C1258.08 45.032 1259.1 44.896 1260.14 44.896ZM1259.85 55.672C1260.49 55.672 1261.06 55.528 1261.56 55.24C1262.05 54.936 1262.4 54.496 1262.61 53.92V52.6H1260.04C1258.51 52.6 1257.74 53.104 1257.74 54.112C1257.74 54.592 1257.92 54.976 1258.29 55.264C1258.68 55.536 1259.2 55.672 1259.85 55.672ZM1277.59 44.896C1279.19 44.896 1280.48 45.376 1281.46 46.336C1282.45 47.296 1282.94 48.72 1282.94 50.608V58H1279.2V51.184C1279.2 50.16 1278.98 49.4 1278.53 48.904C1278.08 48.392 1277.43 48.136 1276.58 48.136C1275.64 48.136 1274.89 48.432 1274.33 49.024C1273.77 49.6 1273.49 50.464 1273.49 51.616V58H1269.74V45.088H1273.32V46.6C1273.82 46.056 1274.43 45.64 1275.17 45.352C1275.9 45.048 1276.71 44.896 1277.59 44.896ZM1286.34 45.088H1290.08V58H1286.34V45.088ZM1288.21 43.288C1287.52 43.288 1286.96 43.088 1286.53 42.688C1286.1 42.288 1285.88 41.792 1285.88 41.2C1285.88 40.608 1286.1 40.112 1286.53 39.712C1286.96 39.312 1287.52 39.112 1288.21 39.112C1288.9 39.112 1289.46 39.304 1289.89 39.688C1290.32 40.072 1290.54 40.552 1290.54 41.128C1290.54 41.752 1290.32 42.272 1289.89 42.688C1289.46 43.088 1288.9 43.288 1288.21 43.288Z" fill="black"/>
<path d="M1340.86 41.2V58H1336.97V51.112H1329.34V58H1325.45V41.2H1329.34V47.824H1336.97V41.2H1340.86ZM1349.78 44.896C1351.78 44.896 1353.31 45.376 1354.38 46.336C1355.46 47.28 1355.99 48.712 1355.99 50.632V58H1352.49V56.392C1351.78 57.592 1350.47 58.192 1348.55 58.192C1347.56 58.192 1346.7 58.024 1345.96 57.688C1345.24 57.352 1344.69 56.888 1344.3 56.296C1343.92 55.704 1343.73 55.032 1343.73 54.28C1343.73 53.08 1344.18 52.136 1345.07 51.448C1345.98 50.76 1347.38 50.416 1349.27 50.416H1352.25C1352.25 49.6 1352 48.976 1351.5 48.544C1351.01 48.096 1350.26 47.872 1349.27 47.872C1348.58 47.872 1347.9 47.984 1347.23 48.208C1346.58 48.416 1346.02 48.704 1345.55 49.072L1344.21 46.456C1344.91 45.96 1345.75 45.576 1346.73 45.304C1347.72 45.032 1348.74 44.896 1349.78 44.896ZM1349.49 55.672C1350.13 55.672 1350.7 55.528 1351.19 55.24C1351.69 54.936 1352.04 54.496 1352.25 53.92V52.6H1349.68C1348.14 52.6 1347.38 53.104 1347.38 54.112C1347.38 54.592 1347.56 54.976 1347.93 55.264C1348.31 55.536 1348.83 55.672 1349.49 55.672ZM1363.72 58.192C1362.65 58.192 1361.6 58.064 1360.58 57.808C1359.56 57.536 1358.74 57.2 1358.13 56.8L1359.38 54.112C1359.96 54.48 1360.65 54.784 1361.47 55.024C1362.28 55.248 1363.08 55.36 1363.87 55.36C1365.45 55.36 1366.24 54.968 1366.24 54.184C1366.24 53.816 1366.03 53.552 1365.6 53.392C1365.16 53.232 1364.5 53.096 1363.6 52.984C1362.55 52.824 1361.68 52.64 1360.99 52.432C1360.3 52.224 1359.7 51.856 1359.19 51.328C1358.69 50.8 1358.44 50.048 1358.44 49.072C1358.44 48.256 1358.68 47.536 1359.14 46.912C1359.62 46.272 1360.31 45.776 1361.2 45.424C1362.12 45.072 1363.19 44.896 1364.42 44.896C1365.33 44.896 1366.24 45 1367.13 45.208C1368.04 45.4 1368.8 45.672 1369.39 46.024L1368.14 48.688C1367 48.048 1365.76 47.728 1364.42 47.728C1363.62 47.728 1363.02 47.84 1362.62 48.064C1362.22 48.288 1362.02 48.576 1362.02 48.928C1362.02 49.328 1362.24 49.608 1362.67 49.768C1363.1 49.928 1363.79 50.08 1364.73 50.224C1365.79 50.4 1366.65 50.592 1367.32 50.8C1368 50.992 1368.58 51.352 1369.08 51.88C1369.57 52.408 1369.82 53.144 1369.82 54.088C1369.82 54.888 1369.58 55.6 1369.1 56.224C1368.62 56.848 1367.92 57.336 1366.99 57.688C1366.08 58.024 1364.99 58.192 1363.72 58.192ZM1377.34 44.896C1379.34 44.896 1380.87 45.376 1381.95 46.336C1383.02 47.28 1383.55 48.712 1383.55 50.632V58H1380.05V56.392C1379.35 57.592 1378.03 58.192 1376.11 58.192C1375.12 58.192 1374.26 58.024 1373.52 57.688C1372.8 57.352 1372.25 56.888 1371.87 56.296C1371.48 55.704 1371.29 55.032 1371.29 54.28C1371.29 53.08 1371.74 52.136 1372.63 51.448C1373.55 50.76 1374.95 50.416 1376.83 50.416H1379.81C1379.81 49.6 1379.56 48.976 1379.07 48.544C1378.57 48.096 1377.83 47.872 1376.83 47.872C1376.15 47.872 1375.47 47.984 1374.79 48.208C1374.14 48.416 1373.58 48.704 1373.11 49.072L1371.77 46.456C1372.47 45.96 1373.31 45.576 1374.29 45.304C1375.28 45.032 1376.3 44.896 1377.34 44.896ZM1377.05 55.672C1377.69 55.672 1378.26 55.528 1378.75 55.24C1379.25 54.936 1379.6 54.496 1379.81 53.92V52.6H1377.24C1375.71 52.6 1374.94 53.104 1374.94 54.112C1374.94 54.592 1375.12 54.976 1375.49 55.264C1375.87 55.536 1376.39 55.672 1377.05 55.672ZM1394.79 44.896C1396.39 44.896 1397.68 45.376 1398.65 46.336C1399.65 47.296 1400.14 48.72 1400.14 50.608V58H1396.4V51.184C1396.4 50.16 1396.17 49.4 1395.73 48.904C1395.28 48.392 1394.63 48.136 1393.78 48.136C1392.84 48.136 1392.09 48.432 1391.53 49.024C1390.97 49.6 1390.69 50.464 1390.69 51.616V58H1386.94V45.088H1390.52V46.6C1391.01 46.056 1391.63 45.64 1392.37 45.352C1393.1 45.048 1393.91 44.896 1394.79 44.896ZM1411.17 44.896C1412.37 44.896 1413.46 45.176 1414.43 45.736C1415.42 46.28 1416.2 47.056 1416.76 48.064C1417.32 49.056 1417.6 50.216 1417.6 51.544C1417.6 52.872 1417.32 54.04 1416.76 55.048C1416.2 56.04 1415.42 56.816 1414.43 57.376C1413.46 57.92 1412.37 58.192 1411.17 58.192C1409.52 58.192 1408.22 57.672 1407.28 56.632V62.656H1403.54V45.088H1407.11V46.576C1408.04 45.456 1409.39 44.896 1411.17 44.896ZM1410.52 55.12C1411.48 55.12 1412.26 54.8 1412.87 54.16C1413.5 53.504 1413.81 52.632 1413.81 51.544C1413.81 50.456 1413.5 49.592 1412.87 48.952C1412.26 48.296 1411.48 47.968 1410.52 47.968C1409.56 47.968 1408.77 48.296 1408.14 48.952C1407.54 49.592 1407.23 50.456 1407.23 51.544C1407.23 52.632 1407.54 53.504 1408.14 54.16C1408.77 54.8 1409.56 55.12 1410.52 55.12ZM1425.1 44.896C1427.1 44.896 1428.64 45.376 1429.71 46.336C1430.78 47.28 1431.32 48.712 1431.32 50.632V58H1427.82V56.392C1427.11 57.592 1425.8 58.192 1423.88 58.192C1422.89 58.192 1422.02 58.024 1421.29 57.688C1420.57 57.352 1420.02 56.888 1419.63 56.296C1419.25 55.704 1419.06 55.032 1419.06 54.28C1419.06 53.08 1419.5 52.136 1420.4 51.448C1421.31 50.76 1422.71 50.416 1424.6 50.416H1427.58C1427.58 49.6 1427.33 48.976 1426.83 48.544C1426.34 48.096 1425.59 47.872 1424.6 47.872C1423.91 47.872 1423.23 47.984 1422.56 48.208C1421.9 48.416 1421.34 48.704 1420.88 49.072L1419.54 46.456C1420.24 45.96 1421.08 45.576 1422.06 45.304C1423.05 45.032 1424.06 44.896 1425.1 44.896ZM1424.82 55.672C1425.46 55.672 1426.02 55.528 1426.52 55.24C1427.02 54.936 1427.37 54.496 1427.58 53.92V52.6H1425.01C1423.47 52.6 1422.7 53.104 1422.7 54.112C1422.7 54.592 1422.89 54.976 1423.26 55.264C1423.64 55.536 1424.16 55.672 1424.82 55.672ZM1439.05 58.192C1437.98 58.192 1436.93 58.064 1435.91 57.808C1434.88 57.536 1434.07 57.2 1433.46 56.8L1434.71 54.112C1435.28 54.48 1435.98 54.784 1436.8 55.024C1437.61 55.248 1438.41 55.36 1439.2 55.36C1440.78 55.36 1441.57 54.968 1441.57 54.184C1441.57 53.816 1441.36 53.552 1440.92 53.392C1440.49 53.232 1439.83 53.096 1438.93 52.984C1437.88 52.824 1437 52.64 1436.32 52.432C1435.63 52.224 1435.03 51.856 1434.52 51.328C1434.02 50.8 1433.77 50.048 1433.77 49.072C1433.77 48.256 1434 47.536 1434.47 46.912C1434.95 46.272 1435.64 45.776 1436.53 45.424C1437.44 45.072 1438.52 44.896 1439.75 44.896C1440.66 44.896 1441.56 45 1442.46 45.208C1443.37 45.4 1444.12 45.672 1444.72 46.024L1443.47 48.688C1442.33 48.048 1441.09 47.728 1439.75 47.728C1438.95 47.728 1438.35 47.84 1437.95 48.064C1437.55 48.288 1437.35 48.576 1437.35 48.928C1437.35 49.328 1437.56 49.608 1438 49.768C1438.43 49.928 1439.12 50.08 1440.06 50.224C1441.12 50.4 1441.98 50.592 1442.65 50.8C1443.32 50.992 1443.91 51.352 1444.4 51.88C1444.9 52.408 1445.15 53.144 1445.15 54.088C1445.15 54.888 1444.91 55.6 1444.43 56.224C1443.95 56.848 1443.24 57.336 1442.32 57.688C1441.4 58.024 1440.32 58.192 1439.05 58.192ZM1438.45 63.568C1438.04 63.568 1437.63 63.52 1437.23 63.424C1436.83 63.344 1436.49 63.224 1436.22 63.064L1436.8 61.456C1437.31 61.696 1437.83 61.816 1438.36 61.816C1439.19 61.816 1439.6 61.56 1439.6 61.048C1439.6 60.584 1439.21 60.352 1438.43 60.352H1437.61L1438.24 57.808H1440.23L1439.89 59.2C1440.6 59.28 1441.12 59.496 1441.45 59.848C1441.8 60.216 1441.98 60.664 1441.98 61.192C1441.98 61.928 1441.66 62.504 1441.02 62.92C1440.38 63.352 1439.52 63.568 1438.45 63.568ZM1452.67 44.896C1454.67 44.896 1456.2 45.376 1457.27 46.336C1458.35 47.28 1458.88 48.712 1458.88 50.632V58H1455.38V56.392C1454.67 57.592 1453.36 58.192 1451.44 58.192C1450.45 58.192 1449.59 58.024 1448.85 57.688C1448.13 57.352 1447.58 56.888 1447.19 56.296C1446.81 55.704 1446.62 55.032 1446.62 54.28C1446.62 53.08 1447.07 52.136 1447.96 51.448C1448.87 50.76 1450.27 50.416 1452.16 50.416H1455.14C1455.14 49.6 1454.89 48.976 1454.39 48.544C1453.9 48.096 1453.15 47.872 1452.16 47.872C1451.47 47.872 1450.79 47.984 1450.12 48.208C1449.47 48.416 1448.91 48.704 1448.44 49.072L1447.1 46.456C1447.8 45.96 1448.64 45.576 1449.62 45.304C1450.61 45.032 1451.63 44.896 1452.67 44.896ZM1452.38 55.672C1453.02 55.672 1453.59 55.528 1454.08 55.24C1454.58 54.936 1454.93 54.496 1455.14 53.92V52.6H1452.57C1451.03 52.6 1450.27 53.104 1450.27 54.112C1450.27 54.592 1450.45 54.976 1450.82 55.264C1451.2 55.536 1451.72 55.672 1452.38 55.672Z" fill="black"/>
<path d="M1514 58.288C1512.67 58.288 1511.38 58.112 1510.13 57.76C1508.9 57.392 1507.91 56.92 1507.16 56.344L1508.48 53.416C1509.2 53.944 1510.05 54.368 1511.04 54.688C1512.04 55.008 1513.03 55.168 1514.02 55.168C1515.12 55.168 1515.94 55.008 1516.47 54.688C1517 54.352 1517.26 53.912 1517.26 53.368C1517.26 52.968 1517.1 52.64 1516.78 52.384C1516.48 52.112 1516.08 51.896 1515.58 51.736C1515.1 51.576 1514.44 51.4 1513.61 51.208C1512.33 50.904 1511.28 50.6 1510.47 50.296C1509.65 49.992 1508.95 49.504 1508.36 48.832C1507.78 48.16 1507.49 47.264 1507.49 46.144C1507.49 45.168 1507.76 44.288 1508.28 43.504C1508.81 42.704 1509.6 42.072 1510.66 41.608C1511.73 41.144 1513.04 40.912 1514.57 40.912C1515.64 40.912 1516.69 41.04 1517.72 41.296C1518.74 41.552 1519.64 41.92 1520.4 42.4L1519.2 45.352C1517.65 44.472 1516.1 44.032 1514.55 44.032C1513.46 44.032 1512.65 44.208 1512.12 44.56C1511.61 44.912 1511.36 45.376 1511.36 45.952C1511.36 46.528 1511.65 46.96 1512.24 47.248C1512.85 47.52 1513.77 47.792 1515 48.064C1516.28 48.368 1517.33 48.672 1518.15 48.976C1518.96 49.28 1519.66 49.76 1520.24 50.416C1520.83 51.072 1521.12 51.96 1521.12 53.08C1521.12 54.04 1520.85 54.92 1520.31 55.72C1519.78 56.504 1518.98 57.128 1517.91 57.592C1516.84 58.056 1515.53 58.288 1514 58.288ZM1536.53 45.088V58H1532.97V56.464C1532.48 57.024 1531.89 57.456 1531.2 57.76C1530.51 58.048 1529.77 58.192 1528.97 58.192C1527.27 58.192 1525.93 57.704 1524.93 56.728C1523.94 55.752 1523.45 54.304 1523.45 52.384V45.088H1527.19V51.832C1527.19 53.912 1528.06 54.952 1529.81 54.952C1530.7 54.952 1531.42 54.664 1531.97 54.088C1532.51 53.496 1532.78 52.624 1532.78 51.472V45.088H1536.53ZM1539.99 40.192H1543.74V58H1539.99V40.192ZM1556.48 57.376C1556.11 57.648 1555.65 57.856 1555.11 58C1554.58 58.128 1554.02 58.192 1553.43 58.192C1551.89 58.192 1550.7 57.8 1549.85 57.016C1549.02 56.232 1548.61 55.08 1548.61 53.56V48.256H1546.61V45.376H1548.61V42.232H1552.35V45.376H1555.57V48.256H1552.35V53.512C1552.35 54.056 1552.49 54.48 1552.76 54.784C1553.05 55.072 1553.45 55.216 1553.96 55.216C1554.55 55.216 1555.05 55.056 1555.47 54.736L1556.48 57.376ZM1563.79 44.896C1565.79 44.896 1567.32 45.376 1568.4 46.336C1569.47 47.28 1570 48.712 1570 50.632V58H1566.5V56.392C1565.8 57.592 1564.48 58.192 1562.56 58.192C1561.57 58.192 1560.71 58.024 1559.97 57.688C1559.25 57.352 1558.7 56.888 1558.32 56.296C1557.93 55.704 1557.74 55.032 1557.74 54.28C1557.74 53.08 1558.19 52.136 1559.08 51.448C1560 50.76 1561.4 50.416 1563.28 50.416H1566.26C1566.26 49.6 1566.01 48.976 1565.52 48.544C1565.02 48.096 1564.28 47.872 1563.28 47.872C1562.6 47.872 1561.92 47.984 1561.24 48.208C1560.59 48.416 1560.03 48.704 1559.56 49.072L1558.22 46.456C1558.92 45.96 1559.76 45.576 1560.74 45.304C1561.73 45.032 1562.75 44.896 1563.79 44.896ZM1563.5 55.672C1564.14 55.672 1564.71 55.528 1565.2 55.24C1565.7 54.936 1566.05 54.496 1566.26 53.92V52.6H1563.69C1562.16 52.6 1561.39 53.104 1561.39 54.112C1561.39 54.592 1561.57 54.976 1561.94 55.264C1562.32 55.536 1562.84 55.672 1563.5 55.672ZM1581.24 44.896C1582.84 44.896 1584.13 45.376 1585.1 46.336C1586.1 47.296 1586.59 48.72 1586.59 50.608V58H1582.85V51.184C1582.85 50.16 1582.62 49.4 1582.18 48.904C1581.73 48.392 1581.08 48.136 1580.23 48.136C1579.29 48.136 1578.54 48.432 1577.98 49.024C1577.42 49.6 1577.14 50.464 1577.14 51.616V58H1573.39V45.088H1576.97V46.6C1577.46 46.056 1578.08 45.64 1578.82 45.352C1579.55 45.048 1580.36 44.896 1581.24 44.896ZM1597.62 44.896C1598.82 44.896 1599.91 45.176 1600.88 45.736C1601.87 46.28 1602.65 47.056 1603.21 48.064C1603.77 49.056 1604.05 50.216 1604.05 51.544C1604.05 52.872 1603.77 54.04 1603.21 55.048C1602.65 56.04 1601.87 56.816 1600.88 57.376C1599.91 57.92 1598.82 58.192 1597.62 58.192C1595.84 58.192 1594.49 57.632 1593.56 56.512V58H1589.99V40.192H1593.73V46.456C1594.67 45.416 1595.97 44.896 1597.62 44.896ZM1596.97 55.12C1597.93 55.12 1598.71 54.8 1599.32 54.16C1599.95 53.504 1600.26 52.632 1600.26 51.544C1600.26 50.456 1599.95 49.592 1599.32 48.952C1598.71 48.296 1597.93 47.968 1596.97 47.968C1596.01 47.968 1595.22 48.296 1594.59 48.952C1593.99 49.592 1593.68 50.456 1593.68 51.544C1593.68 52.632 1593.99 53.504 1594.59 54.16C1595.22 54.8 1596.01 55.12 1596.97 55.12ZM1619.2 51.592C1619.2 51.64 1619.18 51.976 1619.13 52.6H1609.36C1609.54 53.4 1609.96 54.032 1610.61 54.496C1611.27 54.96 1612.08 55.192 1613.06 55.192C1613.73 55.192 1614.32 55.096 1614.84 54.904C1615.36 54.696 1615.85 54.376 1616.3 53.944L1618.29 56.104C1617.08 57.496 1615.3 58.192 1612.96 58.192C1611.51 58.192 1610.22 57.912 1609.1 57.352C1607.98 56.776 1607.12 55.984 1606.51 54.976C1605.9 53.968 1605.6 52.824 1605.6 51.544C1605.6 50.28 1605.89 49.144 1606.48 48.136C1607.09 47.112 1607.92 46.32 1608.96 45.76C1610.01 45.184 1611.19 44.896 1612.48 44.896C1613.75 44.896 1614.89 45.168 1615.92 45.712C1616.94 46.256 1617.74 47.04 1618.32 48.064C1618.91 49.072 1619.2 50.248 1619.2 51.592ZM1612.51 47.728C1611.66 47.728 1610.95 47.968 1610.37 48.448C1609.8 48.928 1609.44 49.584 1609.32 50.416H1615.68C1615.55 49.6 1615.2 48.952 1614.62 48.472C1614.04 47.976 1613.34 47.728 1612.51 47.728ZM1634.28 45.088L1628.45 58.792C1627.85 60.28 1627.12 61.328 1626.24 61.936C1625.37 62.544 1624.33 62.848 1623.09 62.848C1622.42 62.848 1621.76 62.744 1621.1 62.536C1620.45 62.328 1619.91 62.04 1619.49 61.672L1620.86 59.008C1621.15 59.264 1621.48 59.464 1621.85 59.608C1622.23 59.752 1622.61 59.824 1622.97 59.824C1623.49 59.824 1623.9 59.696 1624.22 59.44C1624.54 59.2 1624.83 58.792 1625.09 58.216L1625.13 58.096L1619.54 45.088H1623.41L1627.03 53.848L1630.68 45.088H1634.28ZM1635.81 40.192H1639.55V58H1635.81V40.192ZM1643.02 45.088H1646.77V58H1643.02V45.088ZM1644.9 43.288C1644.21 43.288 1643.65 43.088 1643.22 42.688C1642.78 42.288 1642.57 41.792 1642.57 41.2C1642.57 40.608 1642.78 40.112 1643.22 39.712C1643.65 39.312 1644.21 39.112 1644.9 39.112C1645.58 39.112 1646.14 39.304 1646.58 39.688C1647.01 40.072 1647.22 40.552 1647.22 41.128C1647.22 41.752 1647.01 42.272 1646.58 42.688C1646.14 43.088 1645.58 43.288 1644.9 43.288Z" fill="black"/>
<rect x="470" y="123" width="6" height="21" fill="black"/>
<circle cx="843" cy="100" r="24" fill="black"/>
<ellipse cx="843.001" cy="99.9939" rx="19.2" ry="19.2" fill="white"/>
<rect x="840" y="123" width="6" height="21" fill="black"/>
<circle cx="1577" cy="100" r="24" fill="#673065"/>
<g clip-path="url(#clip1_495_5201)">
<path d="M825 161C825 157.44 826.056 153.96 828.034 151C830.011 148.04 832.823 145.733 836.112 144.37C839.401 143.008 843.02 142.651 846.512 143.346C850.003 144.04 853.211 145.755 855.728 148.272C858.245 150.789 859.96 153.997 860.654 157.488C861.349 160.98 860.992 164.599 859.63 167.888C858.267 171.177 855.96 173.989 853 175.966C850.04 177.944 846.56 179 843 179C838.228 178.995 833.652 177.097 830.278 173.722C826.903 170.348 825.005 165.772 825 161Z" fill="#9D9D9C"/>
<path d="M827.406 155.6H831.148L833.959 164.459H834L836.75 155.58H840.512L840.532 167.29H838.287L838.267 157.623H838.247L835.112 167.29H832.867L829.692 157.643L829.651 157.683L829.671 167.31H827.426L827.406 155.6Z" fill="white"/>
<path d="M841.949 165.106C842.773 165.435 843.65 165.614 844.538 165.632C845.509 165.632 847.005 165.146 847.005 163.973C847.005 162.8 845.913 162.133 844.416 162.133H843.203V160.292H844.275C845.852 160.292 846.864 159.767 846.864 158.755C846.864 157.744 845.994 157.158 844.922 157.158C844.01 157.166 843.111 157.38 842.293 157.785L842.151 155.904C843.197 155.503 844.308 155.298 845.428 155.297C846.864 155.297 849.291 155.802 849.291 158.29C849.32 158.95 849.121 159.601 848.727 160.131C848.333 160.662 847.767 161.04 847.127 161.202C847.768 161.307 848.346 161.651 848.744 162.166C849.142 162.68 849.33 163.326 849.27 163.973C849.27 166.764 846.742 167.472 844.801 167.472C843.763 167.483 842.729 167.354 841.727 167.088L841.949 165.106Z" fill="white"/>
<path d="M849.797 162.941L854.165 155.539H857.078V163.063H858.574V164.802H857.078V167.269H854.853V164.842H849.817L849.797 162.941ZM854.853 163.083V157.986L851.92 163.083H854.853Z" fill="white"/>
</g>
<g clip-path="url(#clip2_495_5201)">
<path d="M100.036 124C95.2768 124.015 90.6205 122.617 86.657 119.984C82.6935 117.351 79.6013 113.601 77.7721 109.21C75.9429 104.819 75.4592 99.984 76.3821 95.3178C77.3051 90.6517 79.5932 86.3643 82.9565 82.9991C86.3199 79.6339 90.607 77.3423 95.2748 76.4147C99.9425 75.487 104.781 75.9651 109.176 77.7884C113.572 79.6117 117.327 82.698 119.966 86.6564C122.605 90.6147 124.008 95.2669 123.999 100.023C123.987 106.374 121.459 112.461 116.969 116.954C112.478 121.447 106.39 123.981 100.036 124Z" fill="#673065"/>
<path d="M84.9688 92.2158H89.8829L93.5218 103.814H93.5686L97.2074 92.2158H102.115V107.524H99.1771V94.8918H99.1371L95.0108 107.524H92.0729L87.9533 94.8918L87.9066 94.9318V107.524H84.9688V92.2158Z" fill="white"/>
<path d="M114.632 94.4913H108.716L108.65 97.7611C109.111 97.6638 109.581 97.6124 110.052 97.6076C112.202 97.6076 114.986 98.6153 114.986 102.586C114.986 105.462 112.983 107.784 109.024 107.784C107.826 107.772 106.633 107.631 105.465 107.364L105.532 104.621C106.512 105.085 107.579 105.337 108.663 105.362C110.266 105.362 111.928 104.614 111.928 102.659C111.928 100.704 110.179 99.99 108.423 99.99C107.494 99.9866 106.571 100.126 105.685 100.404L105.839 92.1824H114.632V94.4913Z" fill="white"/>
</g>
<g clip-path="url(#clip3_495_5201)">
<path d="M455 161C455 151.082 463.082 143 473 143C482.918 143 491 151.082 491 161C491 170.918 482.918 179 473 179C463.082 179 455 170.918 455 161Z" fill="#00A94F"/>
<path d="M457.43 154.934H461.48L464.306 164.24L467.132 154.934H470.984V167.066H468.752V157.166L465.512 167.066H463.082L459.86 157.166V167.066H457.43V154.934Z" fill="white"/>
<path d="M476.438 154.934H478.67V167.066H476.24V157.76L474.206 159.38L473 157.958L476.438 154.934Z" fill="white"/>
<path d="M481.297 164.834C482.107 165.23 483.115 165.446 483.925 165.446C484.933 165.446 486.553 165.05 486.553 163.826C486.553 162.404 485.347 162.008 483.925 162.008H482.719V160.19H483.727C485.347 160.19 486.355 159.578 486.355 158.57C486.355 157.364 485.347 156.95 484.339 156.95C483.331 156.95 482.521 157.148 481.711 157.562L481.513 155.546C482.521 155.15 483.745 154.934 484.951 154.934C486.373 154.934 489.001 155.546 489.001 157.976C489.001 159.596 487.993 160.406 486.769 160.802C488.389 161 489.001 162.224 489.001 163.628C489.001 166.454 486.373 167.264 484.357 167.264C483.349 167.264 482.125 167.066 481.117 166.868L481.297 164.834Z" fill="white"/>
</g>
</g>
<defs>
<clipPath id="clip0_495_5201">
<rect width="1677" height="200" fill="white"/>
</clipPath>
<clipPath id="clip1_495_5201">
<rect width="36" height="36" fill="white" transform="translate(825 143)"/>
</clipPath>
<clipPath id="clip2_495_5201">
<rect width="48" height="48" fill="white" transform="translate(76 76)"/>
</clipPath>
<clipPath id="clip3_495_5201">
<rect width="36" height="36" fill="white" transform="translate(455 143)"/>
</clipPath>
</defs>
</svg>
