<svg id="Layer_1" data-name="Layer 1" xmlns="http://www.w3.org/2000/svg" viewBox="0 0 71.89 71.93"><defs><style>.cls-1{fill:#673065;}.cls-2{fill:#fff;}</style></defs><path class="cls-1" d="M36,71.93A36,36,0,1,1,71.89,36,36,36,0,0,1,36,71.93"/><polygon class="cls-2" points="13.43 24.3 20.79 24.3 26.24 41.68 26.31 41.68 31.76 24.3 39.11 24.3 39.11 47.24 34.71 47.24 34.71 28.31 34.65 28.31 28.47 47.24 24.07 47.24 17.9 28.31 17.83 28.37 17.83 47.24 13.43 47.24 13.43 24.3"/><path class="cls-2" d="M57.86,27.71H49l-.1,4.9a10.69,10.69,0,0,1,2.1-.23c3.22,0,7.39,1.51,7.39,7.46,0,4.31-3,7.79-8.93,7.79A24.94,24.94,0,0,1,44.13,47l.1-4.11A11.58,11.58,0,0,0,48.92,44c2.4,0,4.89-1.12,4.89-4.05s-2.62-4-5.25-4a13.54,13.54,0,0,0-4.1.62l.23-12.32H57.86Z"/></svg>