<svg width="5664" height="178" viewBox="0 0 5664 178" fill="none" xmlns="http://www.w3.org/2000/svg">
<rect x="300" y="88" width="120" height="30" fill="#D9D9D9"/>
<path d="M305.406 95.6836H308.297V103.438C308.297 104.668 308.333 105.465 308.404 105.83C308.528 106.416 308.821 106.888 309.283 107.246C309.752 107.598 310.39 107.773 311.197 107.773C312.018 107.773 312.636 107.607 313.053 107.275C313.469 106.937 313.72 106.523 313.805 106.035C313.889 105.547 313.932 104.736 313.932 103.604V95.6836H316.822V103.203C316.822 104.922 316.744 106.136 316.588 106.846C316.432 107.555 316.142 108.154 315.719 108.643C315.302 109.131 314.742 109.521 314.039 109.814C313.336 110.101 312.418 110.244 311.285 110.244C309.918 110.244 308.88 110.088 308.17 109.775C307.467 109.456 306.91 109.046 306.5 108.545C306.09 108.037 305.82 107.507 305.689 106.953C305.501 106.133 305.406 104.922 305.406 103.32V95.6836ZM307.867 94.8633V92.5098H310.221V94.8633H307.867ZM312.066 94.8633V92.5098H314.43V94.8633H312.066ZM321.146 105.342L323.959 105.068C324.128 106.012 324.47 106.706 324.984 107.148C325.505 107.591 326.205 107.812 327.084 107.812C328.015 107.812 328.715 107.617 329.184 107.227C329.659 106.829 329.896 106.367 329.896 105.84C329.896 105.501 329.796 105.215 329.594 104.98C329.398 104.74 329.053 104.531 328.559 104.355C328.22 104.238 327.449 104.03 326.244 103.73C324.695 103.346 323.607 102.874 322.982 102.314C322.104 101.527 321.664 100.566 321.664 99.4336C321.664 98.7044 321.869 98.0241 322.279 97.3926C322.696 96.7546 323.292 96.2695 324.066 95.9375C324.848 95.6055 325.788 95.4395 326.889 95.4395C328.686 95.4395 330.036 95.8333 330.941 96.6211C331.853 97.4089 332.331 98.4603 332.377 99.7754L329.486 99.9023C329.363 99.1667 329.096 98.6393 328.686 98.3203C328.282 97.9948 327.673 97.832 326.859 97.832C326.02 97.832 325.362 98.0046 324.887 98.3496C324.581 98.571 324.428 98.8672 324.428 99.2383C324.428 99.5768 324.571 99.8665 324.857 100.107C325.222 100.413 326.107 100.732 327.514 101.064C328.92 101.396 329.958 101.742 330.629 102.1C331.306 102.451 331.833 102.936 332.211 103.555C332.595 104.167 332.787 104.925 332.787 105.83C332.787 106.65 332.559 107.419 332.104 108.135C331.648 108.851 331.003 109.385 330.17 109.736C329.337 110.081 328.298 110.254 327.055 110.254C325.245 110.254 323.855 109.837 322.885 109.004C321.915 108.164 321.335 106.943 321.146 105.342ZM337.258 110V95.6836H340.148V102.041L345.988 95.6836H349.875L344.484 101.26L350.168 110H346.428L342.492 103.281L340.148 105.674V110H337.258ZM353.652 95.6836H356.543V103.438C356.543 104.668 356.579 105.465 356.65 105.83C356.774 106.416 357.067 106.888 357.529 107.246C357.998 107.598 358.636 107.773 359.443 107.773C360.264 107.773 360.882 107.607 361.299 107.275C361.715 106.937 361.966 106.523 362.051 106.035C362.135 105.547 362.178 104.736 362.178 103.604V95.6836H365.068V103.203C365.068 104.922 364.99 106.136 364.834 106.846C364.678 107.555 364.388 108.154 363.965 108.643C363.548 109.131 362.988 109.521 362.285 109.814C361.582 110.101 360.664 110.244 359.531 110.244C358.164 110.244 357.126 110.088 356.416 109.775C355.713 109.456 355.156 109.046 354.746 108.545C354.336 108.037 354.066 107.507 353.936 106.953C353.747 106.133 353.652 104.922 353.652 103.32V95.6836ZM356.113 94.8633V92.5098H358.467V94.8633H356.113ZM360.312 94.8633V92.5098H362.676V94.8633H360.312ZM370.115 95.6836H375.398C376.59 95.6836 377.498 95.7747 378.123 95.957C378.963 96.2044 379.682 96.6439 380.281 97.2754C380.88 97.9069 381.336 98.6816 381.648 99.5996C381.961 100.511 382.117 101.637 382.117 102.979C382.117 104.157 381.971 105.173 381.678 106.025C381.32 107.067 380.809 107.91 380.145 108.555C379.643 109.043 378.966 109.424 378.113 109.697C377.475 109.899 376.622 110 375.555 110H370.115V95.6836ZM373.006 98.1055V107.588H375.164C375.971 107.588 376.554 107.542 376.912 107.451C377.381 107.334 377.768 107.135 378.074 106.855C378.387 106.576 378.641 106.117 378.836 105.479C379.031 104.834 379.129 103.958 379.129 102.852C379.129 101.745 379.031 100.895 378.836 100.303C378.641 99.7103 378.367 99.248 378.016 98.916C377.664 98.584 377.218 98.3594 376.678 98.2422C376.274 98.151 375.483 98.1055 374.305 98.1055H373.006ZM399.488 110H396.344L395.094 106.748H389.371L388.189 110H385.123L390.699 95.6836H393.756L399.488 110ZM394.166 104.336L392.193 99.0234L390.26 104.336H394.166ZM403.041 110V95.6836H409.125C410.655 95.6836 411.765 95.8138 412.455 96.0742C413.152 96.3281 413.708 96.7839 414.125 97.4414C414.542 98.099 414.75 98.8509 414.75 99.6973C414.75 100.771 414.434 101.66 413.803 102.363C413.171 103.06 412.227 103.499 410.971 103.682C411.596 104.046 412.11 104.447 412.514 104.883C412.924 105.319 413.474 106.094 414.164 107.207L415.912 110H412.455L410.365 106.885C409.623 105.771 409.115 105.072 408.842 104.785C408.568 104.492 408.279 104.294 407.973 104.189C407.667 104.079 407.182 104.023 406.518 104.023H405.932V110H403.041ZM405.932 101.738H408.07C409.457 101.738 410.323 101.68 410.668 101.562C411.013 101.445 411.283 101.243 411.479 100.957C411.674 100.671 411.771 100.312 411.771 99.8828C411.771 99.401 411.641 99.0137 411.381 98.7207C411.127 98.4212 410.766 98.2324 410.297 98.1543C410.062 98.1217 409.359 98.1055 408.188 98.1055H405.932V101.738Z" fill="#949494"/>
<rect x="500" y="88" width="120" height="30" fill="#D9D9D9"/>
<path d="M503.332 110V95.6836H513.146V98.1055H506.223V101.494H512.199V103.916H506.223V110H503.332ZM516.807 105.342L519.619 105.068C519.788 106.012 520.13 106.706 520.645 107.148C521.165 107.591 521.865 107.812 522.744 107.812C523.675 107.812 524.375 107.617 524.844 107.227C525.319 106.829 525.557 106.367 525.557 105.84C525.557 105.501 525.456 105.215 525.254 104.98C525.059 104.74 524.714 104.531 524.219 104.355C523.88 104.238 523.109 104.03 521.904 103.73C520.355 103.346 519.268 102.874 518.643 102.314C517.764 101.527 517.324 100.566 517.324 99.4336C517.324 98.7044 517.529 98.0241 517.939 97.3926C518.356 96.7546 518.952 96.2695 519.727 95.9375C520.508 95.6055 521.449 95.4395 522.549 95.4395C524.346 95.4395 525.697 95.8333 526.602 96.6211C527.513 97.4089 527.992 98.4603 528.037 99.7754L525.146 99.9023C525.023 99.1667 524.756 98.6393 524.346 98.3203C523.942 97.9948 523.333 97.832 522.52 97.832C521.68 97.832 521.022 98.0046 520.547 98.3496C520.241 98.571 520.088 98.8672 520.088 99.2383C520.088 99.5768 520.231 99.8665 520.518 100.107C520.882 100.413 521.768 100.732 523.174 101.064C524.58 101.396 525.618 101.742 526.289 102.1C526.966 102.451 527.493 102.936 527.871 103.555C528.255 104.167 528.447 104.925 528.447 105.83C528.447 106.65 528.219 107.419 527.764 108.135C527.308 108.851 526.663 109.385 525.83 109.736C524.997 110.081 523.958 110.254 522.715 110.254C520.905 110.254 519.515 109.837 518.545 109.004C517.575 108.164 516.995 106.943 516.807 105.342ZM536.102 110V98.1055H531.854V95.6836H543.23V98.1055H538.992V110H536.102ZM547.145 110V95.6836H550.035V102.041L555.875 95.6836H559.762L554.371 101.26L560.055 110H556.314L552.379 103.281L550.035 105.674V110H547.145ZM576.469 110H573.324L572.074 106.748H566.352L565.17 110H562.104L567.68 95.6836H570.736L576.469 110ZM571.146 104.336L569.174 99.0234L567.24 104.336H571.146ZM586.672 104.736V102.324H592.902V108.027C592.297 108.613 591.418 109.131 590.266 109.58C589.12 110.023 587.958 110.244 586.779 110.244C585.282 110.244 583.977 109.932 582.863 109.307C581.75 108.675 580.913 107.777 580.354 106.611C579.794 105.439 579.514 104.167 579.514 102.793C579.514 101.302 579.826 99.9772 580.451 98.8184C581.076 97.6595 581.991 96.7708 583.195 96.1523C584.113 95.6771 585.256 95.4395 586.623 95.4395C588.4 95.4395 589.787 95.8138 590.783 96.5625C591.786 97.3047 592.43 98.3333 592.717 99.6484L589.846 100.186C589.644 99.4824 589.263 98.929 588.703 98.5254C588.15 98.1152 587.456 97.9102 586.623 97.9102C585.36 97.9102 584.354 98.3105 583.605 99.1113C582.863 99.9121 582.492 101.1 582.492 102.676C582.492 104.375 582.87 105.651 583.625 106.504C584.38 107.35 585.37 107.773 586.594 107.773C587.199 107.773 587.805 107.656 588.41 107.422C589.022 107.181 589.546 106.891 589.982 106.553V104.736H586.672ZM588.508 92.0703H589.846C589.768 92.9557 589.455 93.6523 588.908 94.1602C588.368 94.6615 587.665 94.9121 586.799 94.9121C585.933 94.9121 585.227 94.6615 584.68 94.1602C584.139 93.6523 583.83 92.9557 583.752 92.0703H585.09C585.135 92.5326 585.298 92.8841 585.578 93.125C585.858 93.3594 586.265 93.4766 586.799 93.4766C587.333 93.4766 587.74 93.3594 588.02 93.125C588.299 92.8841 588.462 92.5326 588.508 92.0703ZM606.738 104.736L609.541 105.625C609.111 107.188 608.395 108.35 607.393 109.111C606.396 109.867 605.13 110.244 603.594 110.244C601.693 110.244 600.13 109.596 598.906 108.301C597.682 106.999 597.07 105.221 597.07 102.969C597.07 100.586 597.686 98.737 598.916 97.4219C600.146 96.1003 601.764 95.4395 603.77 95.4395C605.521 95.4395 606.943 95.957 608.037 96.9922C608.688 97.6042 609.176 98.4831 609.502 99.6289L606.641 100.312C606.471 99.5703 606.117 98.9844 605.576 98.5547C605.042 98.125 604.391 97.9102 603.623 97.9102C602.562 97.9102 601.699 98.291 601.035 99.0527C600.378 99.8145 600.049 101.048 600.049 102.754C600.049 104.564 600.374 105.853 601.025 106.621C601.676 107.389 602.523 107.773 603.564 107.773C604.333 107.773 604.993 107.529 605.547 107.041C606.1 106.553 606.497 105.785 606.738 104.736ZM613.943 110V95.6836H616.834V110H613.943Z" fill="#949494"/>
<rect x="700" y="88" width="120" height="30" fill="#D9D9D9"/>
<path d="M702.209 95.6836H707.932C709.064 95.6836 709.908 95.7324 710.461 95.8301C711.021 95.9212 711.519 96.1165 711.955 96.416C712.398 96.7155 712.766 97.1159 713.059 97.6172C713.352 98.112 713.498 98.6686 713.498 99.2871C713.498 99.9577 713.316 100.573 712.951 101.133C712.593 101.693 712.105 102.113 711.486 102.393C712.359 102.646 713.029 103.079 713.498 103.691C713.967 104.303 714.201 105.023 714.201 105.85C714.201 106.501 714.048 107.135 713.742 107.754C713.443 108.366 713.029 108.857 712.502 109.229C711.981 109.593 711.337 109.818 710.568 109.902C710.087 109.954 708.924 109.987 707.082 110H702.209V95.6836ZM705.1 98.0664V101.377H706.994C708.12 101.377 708.82 101.361 709.094 101.328C709.589 101.27 709.976 101.1 710.256 100.82C710.542 100.534 710.686 100.16 710.686 99.6973C710.686 99.2546 710.562 98.8965 710.314 98.623C710.074 98.3431 709.712 98.1738 709.23 98.1152C708.944 98.0827 708.12 98.0664 706.76 98.0664H705.1ZM705.1 103.76V107.588H707.775C708.817 107.588 709.478 107.559 709.758 107.5C710.188 107.422 710.536 107.233 710.803 106.934C711.076 106.628 711.213 106.221 711.213 105.713C711.213 105.283 711.109 104.919 710.9 104.619C710.692 104.32 710.389 104.102 709.992 103.965C709.602 103.828 708.749 103.76 707.434 103.76H705.1ZM731.562 110H728.418L727.168 106.748H721.445L720.264 110H717.197L722.773 95.6836H725.83L731.562 110ZM726.24 104.336L724.268 99.0234L722.334 104.336H726.24ZM741.766 104.736V102.324H747.996V108.027C747.391 108.613 746.512 109.131 745.359 109.58C744.214 110.023 743.051 110.244 741.873 110.244C740.376 110.244 739.07 109.932 737.957 109.307C736.844 108.675 736.007 107.777 735.447 106.611C734.887 105.439 734.607 104.167 734.607 102.793C734.607 101.302 734.92 99.9772 735.545 98.8184C736.17 97.6595 737.085 96.7708 738.289 96.1523C739.207 95.6771 740.35 95.4395 741.717 95.4395C743.494 95.4395 744.881 95.8138 745.877 96.5625C746.88 97.3047 747.524 98.3333 747.811 99.6484L744.939 100.186C744.738 99.4824 744.357 98.929 743.797 98.5254C743.243 98.1152 742.55 97.9102 741.717 97.9102C740.454 97.9102 739.448 98.3105 738.699 99.1113C737.957 99.9121 737.586 101.1 737.586 102.676C737.586 104.375 737.964 105.651 738.719 106.504C739.474 107.35 740.464 107.773 741.688 107.773C742.293 107.773 742.898 107.656 743.504 107.422C744.116 107.181 744.64 106.891 745.076 106.553V104.736H741.766ZM743.602 92.0703H744.939C744.861 92.9557 744.549 93.6523 744.002 94.1602C743.462 94.6615 742.758 94.9121 741.893 94.9121C741.027 94.9121 740.32 94.6615 739.773 94.1602C739.233 93.6523 738.924 92.9557 738.846 92.0703H740.184C740.229 92.5326 740.392 92.8841 740.672 93.125C740.952 93.3594 741.359 93.4766 741.893 93.4766C742.426 93.4766 742.833 93.3594 743.113 93.125C743.393 92.8841 743.556 92.5326 743.602 92.0703ZM752.75 110V95.8008H755.641V107.588H762.828V110H752.75ZM766.908 110V95.6836H772.992C774.522 95.6836 775.632 95.8138 776.322 96.0742C777.019 96.3281 777.576 96.7839 777.992 97.4414C778.409 98.099 778.617 98.8509 778.617 99.6973C778.617 100.771 778.301 101.66 777.67 102.363C777.038 103.06 776.094 103.499 774.838 103.682C775.463 104.046 775.977 104.447 776.381 104.883C776.791 105.319 777.341 106.094 778.031 107.207L779.779 110H776.322L774.232 106.885C773.49 105.771 772.982 105.072 772.709 104.785C772.436 104.492 772.146 104.294 771.84 104.189C771.534 104.079 771.049 104.023 770.385 104.023H769.799V110H766.908ZM769.799 101.738H771.938C773.324 101.738 774.19 101.68 774.535 101.562C774.88 101.445 775.15 101.243 775.346 100.957C775.541 100.671 775.639 100.312 775.639 99.8828C775.639 99.401 775.508 99.0137 775.248 98.7207C774.994 98.4212 774.633 98.2324 774.164 98.1543C773.93 98.1217 773.227 98.1055 772.055 98.1055H769.799V101.738ZM783.361 95.6836H789.084C790.217 95.6836 791.06 95.7324 791.613 95.8301C792.173 95.9212 792.671 96.1165 793.107 96.416C793.55 96.7155 793.918 97.1159 794.211 97.6172C794.504 98.112 794.65 98.6686 794.65 99.2871C794.65 99.9577 794.468 100.573 794.104 101.133C793.745 101.693 793.257 102.113 792.639 102.393C793.511 102.646 794.182 103.079 794.65 103.691C795.119 104.303 795.354 105.023 795.354 105.85C795.354 106.501 795.201 107.135 794.895 107.754C794.595 108.366 794.182 108.857 793.654 109.229C793.133 109.593 792.489 109.818 791.721 109.902C791.239 109.954 790.077 109.987 788.234 110H783.361V95.6836ZM786.252 98.0664V101.377H788.146C789.273 101.377 789.973 101.361 790.246 101.328C790.741 101.27 791.128 101.1 791.408 100.82C791.695 100.534 791.838 100.16 791.838 99.6973C791.838 99.2546 791.714 98.8965 791.467 98.623C791.226 98.3431 790.865 98.1738 790.383 98.1152C790.096 98.0827 789.273 98.0664 787.912 98.0664H786.252ZM786.252 103.76V107.588H788.928C789.969 107.588 790.63 107.559 790.91 107.5C791.34 107.422 791.688 107.233 791.955 106.934C792.229 106.628 792.365 106.221 792.365 105.713C792.365 105.283 792.261 104.919 792.053 104.619C791.844 104.32 791.542 104.102 791.145 103.965C790.754 103.828 789.901 103.76 788.586 103.76H786.252ZM799.072 105.342L801.885 105.068C802.054 106.012 802.396 106.706 802.91 107.148C803.431 107.591 804.131 107.812 805.01 107.812C805.941 107.812 806.641 107.617 807.109 107.227C807.585 106.829 807.822 106.367 807.822 105.84C807.822 105.501 807.721 105.215 807.52 104.98C807.324 104.74 806.979 104.531 806.484 104.355C806.146 104.238 805.374 104.03 804.17 103.73C802.62 103.346 801.533 102.874 800.908 102.314C800.029 101.527 799.59 100.566 799.59 99.4336C799.59 98.7044 799.795 98.0241 800.205 97.3926C800.622 96.7546 801.217 96.2695 801.992 95.9375C802.773 95.6055 803.714 95.4395 804.814 95.4395C806.611 95.4395 807.962 95.8333 808.867 96.6211C809.779 97.4089 810.257 98.4603 810.303 99.7754L807.412 99.9023C807.288 99.1667 807.021 98.6393 806.611 98.3203C806.208 97.9948 805.599 97.832 804.785 97.832C803.945 97.832 803.288 98.0046 802.812 98.3496C802.507 98.571 802.354 98.8672 802.354 99.2383C802.354 99.5768 802.497 99.8665 802.783 100.107C803.148 100.413 804.033 100.732 805.439 101.064C806.846 101.396 807.884 101.742 808.555 102.1C809.232 102.451 809.759 102.936 810.137 103.555C810.521 104.167 810.713 104.925 810.713 105.83C810.713 106.65 810.485 107.419 810.029 108.135C809.574 108.851 808.929 109.385 808.096 109.736C807.262 110.081 806.224 110.254 804.98 110.254C803.171 110.254 801.781 109.837 800.811 109.004C799.84 108.164 799.261 106.943 799.072 105.342ZM802.363 113.936V112.783C803.034 112.855 803.649 112.891 804.209 112.891C804.788 112.891 805.218 112.786 805.498 112.578C805.713 112.422 805.82 112.22 805.82 111.973C805.82 111.751 805.719 111.559 805.518 111.396C805.316 111.234 805.003 111.152 804.58 111.152C804.163 111.152 803.737 111.217 803.301 111.348L803.555 110.381C804.062 110.205 804.609 110.117 805.195 110.117C806.009 110.117 806.628 110.296 807.051 110.654C807.474 111.012 807.686 111.449 807.686 111.963C807.686 112.536 807.451 113.001 806.982 113.359C806.351 113.848 805.446 114.092 804.268 114.092C803.428 114.092 802.793 114.04 802.363 113.936ZM815.057 110V95.6836H817.947V110H815.057Z" fill="#949494"/>
<rect x="900" y="88" width="120" height="30" fill="#D9D9D9"/>
<path d="M918.635 110H915.49L914.24 106.748H908.518L907.336 110H904.27L909.846 95.6836H912.902L918.635 110ZM913.312 104.336L911.34 99.0234L909.406 104.336H913.312ZM922.256 110V95.8008H925.146V107.588H932.334V110H922.256ZM938.143 110V98.1055H933.895V95.6836H945.271V98.1055H941.033V110H938.143ZM949.176 110V95.6836H951.988L957.848 105.244V95.6836H960.533V110H957.633L951.861 100.664V110H949.176ZM965.512 110V95.6836H968.402V110H965.512ZM965.619 94.8633V92.2656H968.314V94.8633H965.619ZM971.926 110V107.393L979.445 98.1055H972.775V95.6836H983.254V97.9297L975.412 107.588H983.557V110H971.926ZM987.383 95.6836H992.666C993.857 95.6836 994.766 95.7747 995.391 95.957C996.23 96.2044 996.95 96.6439 997.549 97.2754C998.148 97.9069 998.604 98.6816 998.916 99.5996C999.229 100.511 999.385 101.637 999.385 102.979C999.385 104.157 999.238 105.173 998.945 106.025C998.587 107.067 998.076 107.91 997.412 108.555C996.911 109.043 996.234 109.424 995.381 109.697C994.743 109.899 993.89 110 992.822 110H987.383V95.6836ZM990.273 98.1055V107.588H992.432C993.239 107.588 993.822 107.542 994.18 107.451C994.648 107.334 995.036 107.135 995.342 106.855C995.654 106.576 995.908 106.117 996.104 105.479C996.299 104.834 996.396 103.958 996.396 102.852C996.396 101.745 996.299 100.895 996.104 100.303C995.908 99.7103 995.635 99.248 995.283 98.916C994.932 98.584 994.486 98.3594 993.945 98.2422C993.542 98.151 992.751 98.1055 991.572 98.1055H990.273ZM1003.85 110V95.6836H1014.46V98.1055H1006.74V101.279H1013.92V103.691H1006.74V107.588H1014.73V110H1003.85Z" fill="#949494"/>
<rect x="1200" y="88" width="120" height="30" fill="#D9D9D9"/>
<path d="M1219.91 110V95.6836H1222.8V102.041L1228.64 95.6836H1232.53L1227.13 101.26L1232.82 110H1229.08L1225.14 103.281L1222.8 105.674V110H1219.91ZM1236.23 110V95.6836H1239.12V110H1236.23ZM1243.16 105.342L1245.97 105.068C1246.14 106.012 1246.48 106.706 1246.99 107.148C1247.51 107.591 1248.21 107.812 1249.09 107.812C1250.02 107.812 1250.72 107.617 1251.19 107.227C1251.67 106.829 1251.91 106.367 1251.91 105.84C1251.91 105.501 1251.81 105.215 1251.6 104.98C1251.41 104.74 1251.06 104.531 1250.57 104.355C1250.23 104.238 1249.46 104.03 1248.25 103.73C1246.7 103.346 1245.62 102.874 1244.99 102.314C1244.11 101.527 1243.67 100.566 1243.67 99.4336C1243.67 98.7044 1243.88 98.0241 1244.29 97.3926C1244.71 96.7546 1245.3 96.2695 1246.08 95.9375C1246.86 95.6055 1247.8 95.4395 1248.9 95.4395C1250.7 95.4395 1252.05 95.8333 1252.95 96.6211C1253.86 97.4089 1254.34 98.4603 1254.39 99.7754L1251.5 99.9023C1251.37 99.1667 1251.11 98.6393 1250.7 98.3203C1250.29 97.9948 1249.68 97.832 1248.87 97.832C1248.03 97.832 1247.37 98.0046 1246.9 98.3496C1246.59 98.571 1246.44 98.8672 1246.44 99.2383C1246.44 99.5768 1246.58 99.8665 1246.87 100.107C1247.23 100.413 1248.12 100.732 1249.52 101.064C1250.93 101.396 1251.97 101.742 1252.64 102.1C1253.32 102.451 1253.84 102.936 1254.22 103.555C1254.6 104.167 1254.8 104.925 1254.8 105.83C1254.8 106.65 1254.57 107.419 1254.11 108.135C1253.66 108.851 1253.01 109.385 1252.18 109.736C1251.35 110.081 1250.31 110.254 1249.06 110.254C1247.25 110.254 1245.86 109.837 1244.89 109.004C1243.92 108.164 1243.35 106.943 1243.16 105.342ZM1259.14 110V95.6836H1262.03V110H1259.14ZM1266.83 110V95.6836H1269.72V102.041L1275.56 95.6836H1279.45L1274.06 101.26L1279.74 110H1276L1272.07 103.281L1269.72 105.674V110H1266.83ZM1283.33 110V95.8008H1286.22V107.588H1293.4V110H1283.33ZM1297.39 110V95.6836H1300.28V110H1297.39Z" fill="#949494"/>
<rect x="1400" y="88" width="120" height="30" fill="#D9D9D9"/>
<path d="M1406.55 95.6836H1412.27C1413.4 95.6836 1414.25 95.7324 1414.8 95.8301C1415.36 95.9212 1415.86 96.1165 1416.29 96.416C1416.74 96.7155 1417.11 97.1159 1417.4 97.6172C1417.69 98.112 1417.84 98.6686 1417.84 99.2871C1417.84 99.9577 1417.66 100.573 1417.29 101.133C1416.93 101.693 1416.44 102.113 1415.83 102.393C1416.7 102.646 1417.37 103.079 1417.84 103.691C1418.31 104.303 1418.54 105.023 1418.54 105.85C1418.54 106.501 1418.39 107.135 1418.08 107.754C1417.78 108.366 1417.37 108.857 1416.84 109.229C1416.32 109.593 1415.68 109.818 1414.91 109.902C1414.43 109.954 1413.26 109.987 1411.42 110H1406.55V95.6836ZM1409.44 98.0664V101.377H1411.33C1412.46 101.377 1413.16 101.361 1413.43 101.328C1413.93 101.27 1414.32 101.1 1414.6 100.82C1414.88 100.534 1415.03 100.16 1415.03 99.6973C1415.03 99.2546 1414.9 98.8965 1414.65 98.623C1414.41 98.3431 1414.05 98.1738 1413.57 98.1152C1413.28 98.0827 1412.46 98.0664 1411.1 98.0664H1409.44ZM1409.44 103.76V107.588H1412.12C1413.16 107.588 1413.82 107.559 1414.1 107.5C1414.53 107.422 1414.88 107.233 1415.14 106.934C1415.42 106.628 1415.55 106.221 1415.55 105.713C1415.55 105.283 1415.45 104.919 1415.24 104.619C1415.03 104.32 1414.73 104.102 1414.33 103.965C1413.94 103.828 1413.09 103.76 1411.77 103.76H1409.44ZM1422.97 95.6836H1425.86V103.438C1425.86 104.668 1425.9 105.465 1425.97 105.83C1426.09 106.416 1426.39 106.888 1426.85 107.246C1427.32 107.598 1427.96 107.773 1428.76 107.773C1429.58 107.773 1430.2 107.607 1430.62 107.275C1431.04 106.937 1431.29 106.523 1431.37 106.035C1431.46 105.547 1431.5 104.736 1431.5 103.604V95.6836H1434.39V103.203C1434.39 104.922 1434.31 106.136 1434.15 106.846C1434 107.555 1433.71 108.154 1433.29 108.643C1432.87 109.131 1432.31 109.521 1431.61 109.814C1430.9 110.101 1429.98 110.244 1428.85 110.244C1427.48 110.244 1426.45 110.088 1425.74 109.775C1425.03 109.456 1424.48 109.046 1424.07 108.545C1423.66 108.037 1423.39 107.507 1423.26 106.953C1423.07 106.133 1422.97 104.922 1422.97 103.32V95.6836ZM1439.52 110V95.8008H1442.41V107.588H1449.6V110H1439.52ZM1460.33 104.736V102.324H1466.56V108.027C1465.96 108.613 1465.08 109.131 1463.93 109.58C1462.78 110.023 1461.62 110.244 1460.44 110.244C1458.94 110.244 1457.64 109.932 1456.52 109.307C1455.41 108.675 1454.57 107.777 1454.01 106.611C1453.45 105.439 1453.17 104.167 1453.17 102.793C1453.17 101.302 1453.49 99.9772 1454.11 98.8184C1454.74 97.6595 1455.65 96.7708 1456.86 96.1523C1457.77 95.6771 1458.92 95.4395 1460.28 95.4395C1462.06 95.4395 1463.45 95.8138 1464.44 96.5625C1465.45 97.3047 1466.09 98.3333 1466.38 99.6484L1463.51 100.186C1463.3 99.4824 1462.92 98.929 1462.36 98.5254C1461.81 98.1152 1461.12 97.9102 1460.28 97.9102C1459.02 97.9102 1458.01 98.3105 1457.27 99.1113C1456.52 99.9121 1456.15 101.1 1456.15 102.676C1456.15 104.375 1456.53 105.651 1457.29 106.504C1458.04 107.35 1459.03 107.773 1460.25 107.773C1460.86 107.773 1461.46 107.656 1462.07 107.422C1462.68 107.181 1463.21 106.891 1463.64 106.553V104.736H1460.33ZM1471.25 110V95.6836H1477.33C1478.86 95.6836 1479.97 95.8138 1480.66 96.0742C1481.36 96.3281 1481.92 96.7839 1482.33 97.4414C1482.75 98.099 1482.96 98.8509 1482.96 99.6973C1482.96 100.771 1482.64 101.66 1482.01 102.363C1481.38 103.06 1480.43 103.499 1479.18 103.682C1479.8 104.046 1480.32 104.447 1480.72 104.883C1481.13 105.319 1481.68 106.094 1482.37 107.207L1484.12 110H1480.66L1478.57 106.885C1477.83 105.771 1477.32 105.072 1477.05 104.785C1476.78 104.492 1476.49 104.294 1476.18 104.189C1475.87 104.079 1475.39 104.023 1474.72 104.023H1474.14V110H1471.25ZM1474.14 101.738H1476.28C1477.66 101.738 1478.53 101.68 1478.88 101.562C1479.22 101.445 1479.49 101.243 1479.69 100.957C1479.88 100.671 1479.98 100.312 1479.98 99.8828C1479.98 99.401 1479.85 99.0137 1479.59 98.7207C1479.33 98.4212 1478.97 98.2324 1478.5 98.1543C1478.27 98.1217 1477.57 98.1055 1476.39 98.1055H1474.14V101.738ZM1487.77 110V95.8008H1490.66V107.588H1497.85V110H1487.77ZM1501.9 95.6836H1504.79V103.438C1504.79 104.668 1504.82 105.465 1504.9 105.83C1505.02 106.416 1505.31 106.888 1505.78 107.246C1506.24 107.598 1506.88 107.773 1507.69 107.773C1508.51 107.773 1509.13 107.607 1509.54 107.275C1509.96 106.937 1510.21 106.523 1510.3 106.035C1510.38 105.547 1510.42 104.736 1510.42 103.604V95.6836H1513.31V103.203C1513.31 104.922 1513.24 106.136 1513.08 106.846C1512.92 107.555 1512.63 108.154 1512.21 108.643C1511.79 109.131 1511.23 109.521 1510.53 109.814C1509.83 110.101 1508.91 110.244 1507.78 110.244C1506.41 110.244 1505.37 110.088 1504.66 109.775C1503.96 109.456 1503.4 109.046 1502.99 108.545C1502.58 108.037 1502.31 107.507 1502.18 106.953C1501.99 106.133 1501.9 104.922 1501.9 103.32V95.6836Z" fill="#949494"/>
<rect x="1600" y="88" width="120" height="30" fill="#D9D9D9"/>
<path d="M1604.86 95.6836H1607.75V103.438C1607.75 104.668 1607.79 105.465 1607.86 105.83C1607.98 106.416 1608.27 106.888 1608.74 107.246C1609.21 107.598 1609.84 107.773 1610.65 107.773C1611.47 107.773 1612.09 107.607 1612.51 107.275C1612.92 106.937 1613.17 106.523 1613.26 106.035C1613.34 105.547 1613.38 104.736 1613.38 103.604V95.6836H1616.28V103.203C1616.28 104.922 1616.2 106.136 1616.04 106.846C1615.88 107.555 1615.6 108.154 1615.17 108.643C1614.76 109.131 1614.2 109.521 1613.49 109.814C1612.79 110.101 1611.87 110.244 1610.74 110.244C1609.37 110.244 1608.33 110.088 1607.62 109.775C1606.92 109.456 1606.36 109.046 1605.95 108.545C1605.54 108.037 1605.27 107.507 1605.14 106.953C1604.95 106.133 1604.86 104.922 1604.86 103.32V95.6836ZM1607.32 94.8633V92.5098H1609.67V94.8633H1607.32ZM1611.52 94.8633V92.5098H1613.88V94.8633H1611.52ZM1621.29 110V95.6836H1625.62L1628.22 105.449L1630.79 95.6836H1635.12V110H1632.44V98.7305L1629.59 110H1626.81L1623.98 98.7305V110H1621.29ZM1640 110V95.6836H1646.09C1647.62 95.6836 1648.73 95.8138 1649.42 96.0742C1650.11 96.3281 1650.67 96.7839 1651.09 97.4414C1651.5 98.099 1651.71 98.8509 1651.71 99.6973C1651.71 100.771 1651.4 101.66 1650.76 102.363C1650.13 103.06 1649.19 103.499 1647.93 103.682C1648.56 104.046 1649.07 104.447 1649.47 104.883C1649.88 105.319 1650.43 106.094 1651.12 107.207L1652.87 110H1649.42L1647.33 106.885C1646.58 105.771 1646.08 105.072 1645.8 104.785C1645.53 104.492 1645.24 104.294 1644.93 104.189C1644.63 104.079 1644.14 104.023 1643.48 104.023H1642.89V110H1640ZM1642.89 101.738H1645.03C1646.42 101.738 1647.28 101.68 1647.63 101.562C1647.97 101.445 1648.24 101.243 1648.44 100.957C1648.63 100.671 1648.73 100.312 1648.73 99.8828C1648.73 99.401 1648.6 99.0137 1648.34 98.7207C1648.09 98.4212 1647.73 98.2324 1647.26 98.1543C1647.02 98.1217 1646.32 98.1055 1645.15 98.1055H1642.89V101.738ZM1669.36 110H1666.21L1664.96 106.748H1659.24L1658.06 110H1654.99L1660.57 95.6836H1663.62L1669.36 110ZM1664.03 104.336L1662.06 99.0234L1660.13 104.336H1664.03ZM1672.93 110V95.6836H1675.74L1681.6 105.244V95.6836H1684.29V110H1681.38L1675.61 100.664V110H1672.93ZM1693.11 110V103.975L1687.87 95.6836H1691.26L1694.62 101.348L1697.93 95.6836H1701.26L1695.99 103.994V110H1693.11ZM1704.69 110V95.6836H1715.31V98.1055H1707.58V101.279H1714.77V103.691H1707.58V107.588H1715.58V110H1704.69Z" fill="#949494"/>
<rect x="1800" y="88" width="120" height="30" fill="#D9D9D9"/>
<path d="M1835.48 104.736L1838.29 105.625C1837.86 107.188 1837.14 108.35 1836.14 109.111C1835.14 109.867 1833.87 110.244 1832.34 110.244C1830.44 110.244 1828.87 109.596 1827.65 108.301C1826.43 106.999 1825.81 105.221 1825.81 102.969C1825.81 100.586 1826.43 98.737 1827.66 97.4219C1828.89 96.1003 1830.51 95.4395 1832.51 95.4395C1834.26 95.4395 1835.69 95.957 1836.78 96.9922C1837.43 97.6042 1837.92 98.4831 1838.25 99.6289L1835.38 100.312C1835.22 99.5703 1834.86 98.9844 1834.32 98.5547C1833.79 98.125 1833.14 97.9102 1832.37 97.9102C1831.31 97.9102 1830.44 98.291 1829.78 99.0527C1829.12 99.8145 1828.79 101.048 1828.79 102.754C1828.79 104.564 1829.12 105.853 1829.77 106.621C1830.42 107.389 1831.27 107.773 1832.31 107.773C1833.08 107.773 1833.74 107.529 1834.29 107.041C1834.84 106.553 1835.24 105.785 1835.48 104.736ZM1829.41 113.936V112.783C1830.08 112.855 1830.69 112.891 1831.25 112.891C1831.83 112.891 1832.26 112.786 1832.54 112.578C1832.76 112.422 1832.87 112.22 1832.87 111.973C1832.87 111.751 1832.76 111.559 1832.56 111.396C1832.36 111.234 1832.05 111.152 1831.62 111.152C1831.21 111.152 1830.78 111.217 1830.35 111.348L1830.6 110.381C1831.11 110.205 1831.65 110.117 1832.24 110.117C1833.05 110.117 1833.67 110.296 1834.1 110.654C1834.52 111.012 1834.73 111.449 1834.73 111.963C1834.73 112.536 1834.5 113.001 1834.03 113.359C1833.4 113.848 1832.49 114.092 1831.31 114.092C1830.47 114.092 1829.84 114.04 1829.41 113.936ZM1855.69 110H1852.54L1851.29 106.748H1845.57L1844.39 110H1841.32L1846.9 95.6836H1849.95L1855.69 110ZM1850.36 104.336L1848.39 99.0234L1846.46 104.336H1850.36ZM1859.24 110V95.6836H1865.32C1866.85 95.6836 1867.96 95.8138 1868.65 96.0742C1869.35 96.3281 1869.91 96.7839 1870.32 97.4414C1870.74 98.099 1870.95 98.8509 1870.95 99.6973C1870.95 100.771 1870.63 101.66 1870 102.363C1869.37 103.06 1868.42 103.499 1867.17 103.682C1867.79 104.046 1868.31 104.447 1868.71 104.883C1869.12 105.319 1869.67 106.094 1870.36 107.207L1872.11 110H1868.65L1866.56 106.885C1865.82 105.771 1865.31 105.072 1865.04 104.785C1864.77 104.492 1864.48 104.294 1864.17 104.189C1863.86 104.079 1863.38 104.023 1862.71 104.023H1862.13V110H1859.24ZM1862.13 101.738H1864.27C1865.65 101.738 1866.52 101.68 1866.87 101.562C1867.21 101.445 1867.48 101.243 1867.68 100.957C1867.87 100.671 1867.97 100.312 1867.97 99.8828C1867.97 99.401 1867.84 99.0137 1867.58 98.7207C1867.32 98.4212 1866.96 98.2324 1866.49 98.1543C1866.26 98.1217 1865.56 98.1055 1864.38 98.1055H1862.13V101.738ZM1874.95 105.342L1877.76 105.068C1877.93 106.012 1878.27 106.706 1878.79 107.148C1879.31 107.591 1880.01 107.812 1880.89 107.812C1881.82 107.812 1882.52 107.617 1882.99 107.227C1883.46 106.829 1883.7 106.367 1883.7 105.84C1883.7 105.501 1883.6 105.215 1883.4 104.98C1883.2 104.74 1882.86 104.531 1882.36 104.355C1882.02 104.238 1881.25 104.03 1880.05 103.73C1878.5 103.346 1877.41 102.874 1876.79 102.314C1875.91 101.527 1875.47 100.566 1875.47 99.4336C1875.47 98.7044 1875.67 98.0241 1876.08 97.3926C1876.5 96.7546 1877.09 96.2695 1877.87 95.9375C1878.65 95.6055 1879.59 95.4395 1880.69 95.4395C1882.49 95.4395 1883.84 95.8333 1884.74 96.6211C1885.66 97.4089 1886.13 98.4603 1886.18 99.7754L1883.29 99.9023C1883.17 99.1667 1882.9 98.6393 1882.49 98.3203C1882.08 97.9948 1881.48 97.832 1880.66 97.832C1879.82 97.832 1879.16 98.0046 1878.69 98.3496C1878.38 98.571 1878.23 98.8672 1878.23 99.2383C1878.23 99.5768 1878.37 99.8665 1878.66 100.107C1879.02 100.413 1879.91 100.732 1881.32 101.064C1882.72 101.396 1883.76 101.742 1884.43 102.1C1885.11 102.451 1885.64 102.936 1886.01 103.555C1886.4 104.167 1886.59 104.925 1886.59 105.83C1886.59 106.65 1886.36 107.419 1885.91 108.135C1885.45 108.851 1884.81 109.385 1883.97 109.736C1883.14 110.081 1882.1 110.254 1880.86 110.254C1879.05 110.254 1877.66 109.837 1876.69 109.004C1875.72 108.164 1875.14 106.943 1874.95 105.342ZM1878.24 113.936V112.783C1878.91 112.855 1879.53 112.891 1880.09 112.891C1880.67 112.891 1881.1 112.786 1881.38 112.578C1881.59 112.422 1881.7 112.22 1881.7 111.973C1881.7 111.751 1881.6 111.559 1881.39 111.396C1881.19 111.234 1880.88 111.152 1880.46 111.152C1880.04 111.152 1879.61 111.217 1879.18 111.348L1879.43 110.381C1879.94 110.205 1880.49 110.117 1881.07 110.117C1881.89 110.117 1882.5 110.296 1882.93 110.654C1883.35 111.012 1883.56 111.449 1883.56 111.963C1883.56 112.536 1883.33 113.001 1882.86 113.359C1882.23 113.848 1881.32 114.092 1880.14 114.092C1879.3 114.092 1878.67 114.04 1878.24 113.936ZM1890.93 110V95.6836H1893.82V110H1890.93Z" fill="#949494"/>
<rect x="2200" y="88" width="120" height="30" fill="#D9D9D9"/>
<path d="M2210.67 110V103.975L2205.43 95.6836H2208.81L2212.18 101.348L2215.48 95.6836H2218.81L2213.55 103.994V110H2210.67ZM2233.32 110H2230.18L2228.93 106.748H2223.21L2222.03 110H2218.96L2224.54 95.6836H2227.59L2233.32 110ZM2228 104.336L2226.03 99.0234L2224.1 104.336H2228ZM2236.83 110V95.6836H2241.15L2243.75 105.449L2246.32 95.6836H2250.66V110H2247.97V98.7305L2245.13 110H2242.35L2239.51 98.7305V110H2236.83ZM2255.56 110V95.6836H2258.37L2264.23 105.244V95.6836H2266.91V110H2264.01L2258.24 100.664V110H2255.56ZM2275.63 110L2270.52 95.6836H2273.65L2277.27 106.279L2280.78 95.6836H2283.85L2278.72 110H2275.63ZM2287.4 110V95.8008H2290.29V107.588H2297.48V110H2287.4ZM2301.56 110V95.6836H2307.64C2309.17 95.6836 2310.28 95.8138 2310.97 96.0742C2311.67 96.3281 2312.22 96.7839 2312.64 97.4414C2313.06 98.099 2313.27 98.8509 2313.27 99.6973C2313.27 100.771 2312.95 101.66 2312.32 102.363C2311.69 103.06 2310.74 103.499 2309.49 103.682C2310.11 104.046 2310.63 104.447 2311.03 104.883C2311.44 105.319 2311.99 106.094 2312.68 107.207L2314.43 110H2310.97L2308.88 106.885C2308.14 105.771 2307.63 105.072 2307.36 104.785C2307.08 104.492 2306.79 104.294 2306.49 104.189C2306.18 104.079 2305.7 104.023 2305.03 104.023H2304.45V110H2301.56ZM2304.45 101.738H2306.59C2307.97 101.738 2308.84 101.68 2309.18 101.562C2309.53 101.445 2309.8 101.243 2309.99 100.957C2310.19 100.671 2310.29 100.312 2310.29 99.8828C2310.29 99.401 2310.16 99.0137 2309.9 98.7207C2309.64 98.4212 2309.28 98.2324 2308.81 98.1543C2308.58 98.1217 2307.88 98.1055 2306.7 98.1055H2304.45V101.738Z" fill="#949494"/>
<rect x="2500" y="88" width="120" height="30" fill="#D9D9D9"/>
<path d="M2521.15 104.736L2523.96 105.625C2523.53 107.188 2522.81 108.35 2521.81 109.111C2520.81 109.867 2519.54 110.244 2518.01 110.244C2516.11 110.244 2514.54 109.596 2513.32 108.301C2512.1 106.999 2511.48 105.221 2511.48 102.969C2511.48 100.586 2512.1 98.737 2513.33 97.4219C2514.56 96.1003 2516.18 95.4395 2518.18 95.4395C2519.93 95.4395 2521.36 95.957 2522.45 96.9922C2523.1 97.6042 2523.59 98.4831 2523.92 99.6289L2521.05 100.312C2520.89 99.5703 2520.53 98.9844 2519.99 98.5547C2519.46 98.125 2518.81 97.9102 2518.04 97.9102C2516.98 97.9102 2516.11 98.291 2515.45 99.0527C2514.79 99.8145 2514.46 101.048 2514.46 102.754C2514.46 104.564 2514.79 105.853 2515.44 106.621C2516.09 107.389 2516.94 107.773 2517.98 107.773C2518.75 107.773 2519.41 107.529 2519.96 107.041C2520.51 106.553 2520.91 105.785 2521.15 104.736ZM2515.08 113.936V112.783C2515.75 112.855 2516.36 112.891 2516.92 112.891C2517.5 112.891 2517.93 112.786 2518.21 112.578C2518.43 112.422 2518.54 112.22 2518.54 111.973C2518.54 111.751 2518.43 111.559 2518.23 111.396C2518.03 111.234 2517.72 111.152 2517.29 111.152C2516.88 111.152 2516.45 111.217 2516.02 111.348L2516.27 110.381C2516.78 110.205 2517.32 110.117 2517.91 110.117C2518.72 110.117 2519.34 110.296 2519.77 110.654C2520.19 111.012 2520.4 111.449 2520.4 111.963C2520.4 112.536 2520.17 113.001 2519.7 113.359C2519.07 113.848 2518.16 114.092 2516.98 114.092C2516.14 114.092 2515.51 114.04 2515.08 113.936ZM2541.36 110H2538.21L2536.96 106.748H2531.24L2530.06 110H2526.99L2532.57 95.6836H2535.62L2541.36 110ZM2536.03 104.336L2534.06 99.0234L2532.13 104.336H2536.03ZM2544.94 110V95.6836H2547.83V102.041L2553.67 95.6836H2557.55L2552.16 101.26L2557.85 110H2554.11L2550.17 103.281L2547.83 105.674V110H2544.94ZM2561.31 110V95.6836H2565.64L2568.24 105.449L2570.8 95.6836H2575.14V110H2572.46V98.7305L2569.61 110H2566.83L2564 98.7305V110H2561.31ZM2592.92 110H2589.78L2588.53 106.748H2582.8L2581.62 110H2578.56L2584.13 95.6836H2587.19L2592.92 110ZM2587.6 104.336L2585.63 99.0234L2583.69 104.336H2587.6ZM2596.5 110V95.6836H2599.39V102.041L2605.23 95.6836H2609.12L2603.73 101.26L2609.41 110H2605.67L2601.74 103.281L2599.39 105.674V110H2596.5Z" fill="#949494"/>
<rect x="2700" y="88" width="120" height="30" fill="#D9D9D9"/>
<path d="M2701.56 110V95.6836H2704.46V110H2701.56ZM2709.23 110V95.6836H2712.12V101.318H2717.78V95.6836H2720.67V110H2717.78V103.74H2712.12V110H2709.23ZM2725.75 110V95.8008H2728.64V107.588H2735.83V110H2725.75ZM2739.86 110V95.6836H2744.19L2746.78 105.449L2749.35 95.6836H2753.69V110H2751V98.7305L2748.16 110H2745.38L2742.54 98.7305V110H2739.86ZM2758.57 110V95.6836H2764.65C2766.18 95.6836 2767.29 95.8138 2767.98 96.0742C2768.68 96.3281 2769.24 96.7839 2769.65 97.4414C2770.07 98.099 2770.28 98.8509 2770.28 99.6973C2770.28 100.771 2769.96 101.66 2769.33 102.363C2768.7 103.06 2767.75 103.499 2766.5 103.682C2767.12 104.046 2767.64 104.447 2768.04 104.883C2768.45 105.319 2769 106.094 2769.69 107.207L2771.44 110H2767.98L2765.89 106.885C2765.15 105.771 2764.64 105.072 2764.37 104.785C2764.1 104.492 2763.81 104.294 2763.5 104.189C2763.19 104.079 2762.71 104.023 2762.04 104.023H2761.46V110H2758.57ZM2761.46 101.738H2763.6C2764.98 101.738 2765.85 101.68 2766.2 101.562C2766.54 101.445 2766.81 101.243 2767.01 100.957C2767.2 100.671 2767.3 100.312 2767.3 99.8828C2767.3 99.401 2767.17 99.0137 2766.91 98.7207C2766.65 98.4212 2766.29 98.2324 2765.82 98.1543C2765.59 98.1217 2764.89 98.1055 2763.71 98.1055H2761.46V101.738ZM2775.05 110V95.6836H2777.94V102.041L2783.78 95.6836H2787.67L2782.28 101.26L2787.96 110H2784.22L2780.29 103.281L2777.94 105.674V110H2775.05ZM2795.22 110V103.975L2789.98 95.6836H2793.37L2796.74 101.348L2800.04 95.6836H2803.37L2798.11 103.994V110H2795.22ZM2806.79 95.6836H2809.68V103.438C2809.68 104.668 2809.71 105.465 2809.78 105.83C2809.91 106.416 2810.2 106.888 2810.66 107.246C2811.13 107.598 2811.77 107.773 2812.58 107.773C2813.4 107.773 2814.01 107.607 2814.43 107.275C2814.85 106.937 2815.1 106.523 2815.18 106.035C2815.27 105.547 2815.31 104.736 2815.31 103.604V95.6836H2818.2V103.203C2818.2 104.922 2818.12 106.136 2817.97 106.846C2817.81 107.555 2817.52 108.154 2817.1 108.643C2816.68 109.131 2816.12 109.521 2815.42 109.814C2814.71 110.101 2813.8 110.244 2812.66 110.244C2811.3 110.244 2810.26 110.088 2809.55 109.775C2808.85 109.456 2808.29 109.046 2807.88 108.545C2807.47 108.037 2807.2 107.507 2807.07 106.953C2806.88 106.133 2806.79 104.922 2806.79 103.32V95.6836Z" fill="#949494"/>
<rect x="2900" y="88" width="120" height="30" fill="#D9D9D9"/>
<path d="M2917.52 110H2914.38L2913.13 106.748H2907.4L2906.22 110H2903.16L2908.73 95.6836H2911.79L2917.52 110ZM2912.2 104.336L2910.23 99.0234L2908.29 104.336H2912.2ZM2921.14 110V95.8008H2924.03V107.588H2931.22V110H2921.14ZM2937.03 110V98.1055H2932.78V95.6836H2944.16V98.1055H2939.92V110H2937.03ZM2948.06 110V95.6836H2950.88L2956.73 105.244V95.6836H2959.42V110H2956.52L2950.75 100.664V110H2948.06ZM2963.75 105.342L2966.57 105.068C2966.74 106.012 2967.08 106.706 2967.59 107.148C2968.11 107.591 2968.81 107.812 2969.69 107.812C2970.62 107.812 2971.32 107.617 2971.79 107.227C2972.27 106.829 2972.5 106.367 2972.5 105.84C2972.5 105.501 2972.4 105.215 2972.2 104.98C2972.01 104.74 2971.66 104.531 2971.17 104.355C2970.83 104.238 2970.06 104.03 2968.85 103.73C2967.3 103.346 2966.21 102.874 2965.59 102.314C2964.71 101.527 2964.27 100.566 2964.27 99.4336C2964.27 98.7044 2964.48 98.0241 2964.89 97.3926C2965.3 96.7546 2965.9 96.2695 2966.67 95.9375C2967.46 95.6055 2968.4 95.4395 2969.5 95.4395C2971.29 95.4395 2972.64 95.8333 2973.55 96.6211C2974.46 97.4089 2974.94 98.4603 2974.98 99.7754L2972.09 99.9023C2971.97 99.1667 2971.7 98.6393 2971.29 98.3203C2970.89 97.9948 2970.28 97.832 2969.47 97.832C2968.63 97.832 2967.97 98.0046 2967.49 98.3496C2967.19 98.571 2967.04 98.8672 2967.04 99.2383C2967.04 99.5768 2967.18 99.8665 2967.46 100.107C2967.83 100.413 2968.71 100.732 2970.12 101.064C2971.53 101.396 2972.57 101.742 2973.24 102.1C2973.91 102.451 2974.44 102.936 2974.82 103.555C2975.2 104.167 2975.39 104.925 2975.39 105.83C2975.39 106.65 2975.17 107.419 2974.71 108.135C2974.26 108.851 2973.61 109.385 2972.78 109.736C2971.94 110.081 2970.91 110.254 2969.66 110.254C2967.85 110.254 2966.46 109.837 2965.49 109.004C2964.52 108.164 2963.94 106.943 2963.75 105.342ZM2967.04 113.936V112.783C2967.72 112.855 2968.33 112.891 2968.89 112.891C2969.47 112.891 2969.9 112.786 2970.18 112.578C2970.39 112.422 2970.5 112.22 2970.5 111.973C2970.5 111.751 2970.4 111.559 2970.2 111.396C2970 111.234 2969.68 111.152 2969.26 111.152C2968.85 111.152 2968.42 111.217 2967.98 111.348L2968.24 110.381C2968.74 110.205 2969.29 110.117 2969.88 110.117C2970.69 110.117 2971.31 110.296 2971.73 110.654C2972.16 111.012 2972.37 111.449 2972.37 111.963C2972.37 112.536 2972.13 113.001 2971.66 113.359C2971.03 113.848 2970.13 114.092 2968.95 114.092C2968.11 114.092 2967.47 114.04 2967.04 113.936ZM2979.84 110V95.6836H2982.73V101.318H2988.39V95.6836H2991.28V110H2988.39V103.74H2982.73V110H2979.84ZM2996.19 110V95.6836H2999.08V110H2996.19ZM2996.3 94.8633V92.2656H2998.99V94.8633H2996.3ZM3003.86 110V95.6836H3009.94C3011.47 95.6836 3012.58 95.8138 3013.27 96.0742C3013.97 96.3281 3014.52 96.7839 3014.94 97.4414C3015.36 98.099 3015.56 98.8509 3015.56 99.6973C3015.56 100.771 3015.25 101.66 3014.62 102.363C3013.99 103.06 3013.04 103.499 3011.79 103.682C3012.41 104.046 3012.92 104.447 3013.33 104.883C3013.74 105.319 3014.29 106.094 3014.98 107.207L3016.73 110H3013.27L3011.18 106.885C3010.44 105.771 3009.93 105.072 3009.66 104.785C3009.38 104.492 3009.09 104.294 3008.79 104.189C3008.48 104.079 3008 104.023 3007.33 104.023H3006.75V110H3003.86ZM3006.75 101.738H3008.88C3010.27 101.738 3011.14 101.68 3011.48 101.562C3011.83 101.445 3012.1 101.243 3012.29 100.957C3012.49 100.671 3012.59 100.312 3012.59 99.8828C3012.59 99.401 3012.46 99.0137 3012.2 98.7207C3011.94 98.4212 3011.58 98.2324 3011.11 98.1543C3010.88 98.1217 3010.17 98.1055 3009 98.1055H3006.75V101.738Z" fill="#949494"/>
<rect x="3200" y="88" width="120" height="30" fill="#D9D9D9"/>
<path d="M3208.88 110V95.6836H3211.78V110H3208.88ZM3208.99 94.8633V92.2656H3211.69V94.8633H3208.99ZM3216.55 110V95.6836H3219.44V101.318H3225.1V95.6836H3227.99V110H3225.1V103.74H3219.44V110H3216.55ZM3240.64 110V95.8008H3243.53V107.588H3250.71V110H3240.64ZM3254.7 110V95.6836H3257.59V110H3254.7ZM3254.8 94.8633V92.2656H3257.5V94.8633H3254.8ZM3261.62 105.342L3264.43 105.068C3264.6 106.012 3264.94 106.706 3265.46 107.148C3265.98 107.591 3266.68 107.812 3267.56 107.812C3268.49 107.812 3269.19 107.617 3269.66 107.227C3270.13 106.829 3270.37 106.367 3270.37 105.84C3270.37 105.501 3270.27 105.215 3270.07 104.98C3269.87 104.74 3269.53 104.531 3269.03 104.355C3268.69 104.238 3267.92 104.03 3266.72 103.73C3265.17 103.346 3264.08 102.874 3263.46 102.314C3262.58 101.527 3262.14 100.566 3262.14 99.4336C3262.14 98.7044 3262.34 98.0241 3262.75 97.3926C3263.17 96.7546 3263.76 96.2695 3264.54 95.9375C3265.32 95.6055 3266.26 95.4395 3267.36 95.4395C3269.16 95.4395 3270.51 95.8333 3271.41 96.6211C3272.33 97.4089 3272.8 98.4603 3272.85 99.7754L3269.96 99.9023C3269.84 99.1667 3269.57 98.6393 3269.16 98.3203C3268.75 97.9948 3268.15 97.832 3267.33 97.832C3266.49 97.832 3265.83 98.0046 3265.36 98.3496C3265.05 98.571 3264.9 98.8672 3264.9 99.2383C3264.9 99.5768 3265.04 99.8665 3265.33 100.107C3265.69 100.413 3266.58 100.732 3267.99 101.064C3269.39 101.396 3270.43 101.742 3271.1 102.1C3271.78 102.451 3272.31 102.936 3272.68 103.555C3273.07 104.167 3273.26 104.925 3273.26 105.83C3273.26 106.65 3273.03 107.419 3272.58 108.135C3272.12 108.851 3271.48 109.385 3270.64 109.736C3269.81 110.081 3268.77 110.254 3267.53 110.254C3265.72 110.254 3264.33 109.837 3263.36 109.004C3262.39 108.164 3261.81 106.943 3261.62 105.342ZM3277.69 110V95.6836H3288.31V98.1055H3280.58V101.279H3287.77V103.691H3280.58V107.588H3288.58V110H3277.69ZM3292.3 105.342L3295.11 105.068C3295.28 106.012 3295.62 106.706 3296.14 107.148C3296.66 107.591 3297.36 107.812 3298.24 107.812C3299.17 107.812 3299.87 107.617 3300.34 107.227C3300.81 106.829 3301.05 106.367 3301.05 105.84C3301.05 105.501 3300.95 105.215 3300.75 104.98C3300.55 104.74 3300.21 104.531 3299.71 104.355C3299.37 104.238 3298.6 104.03 3297.4 103.73C3295.85 103.346 3294.76 102.874 3294.13 102.314C3293.26 101.527 3292.82 100.566 3292.82 99.4336C3292.82 98.7044 3293.02 98.0241 3293.43 97.3926C3293.85 96.7546 3294.44 96.2695 3295.22 95.9375C3296 95.6055 3296.94 95.4395 3298.04 95.4395C3299.84 95.4395 3301.19 95.8333 3302.09 96.6211C3303.01 97.4089 3303.48 98.4603 3303.53 99.7754L3300.64 99.9023C3300.51 99.1667 3300.25 98.6393 3299.84 98.3203C3299.43 97.9948 3298.83 97.832 3298.01 97.832C3297.17 97.832 3296.51 98.0046 3296.04 98.3496C3295.73 98.571 3295.58 98.8672 3295.58 99.2383C3295.58 99.5768 3295.72 99.8665 3296.01 100.107C3296.37 100.413 3297.26 100.732 3298.67 101.064C3300.07 101.396 3301.11 101.742 3301.78 102.1C3302.46 102.451 3302.99 102.936 3303.36 103.555C3303.75 104.167 3303.94 104.925 3303.94 105.83C3303.94 106.65 3303.71 107.419 3303.26 108.135C3302.8 108.851 3302.16 109.385 3301.32 109.736C3300.49 110.081 3299.45 110.254 3298.21 110.254C3296.4 110.254 3295.01 109.837 3294.04 109.004C3293.07 108.164 3292.49 106.943 3292.3 105.342ZM3308.28 110V95.6836H3311.17V110H3308.28ZM3308.39 94.8633V92.2656H3311.09V94.8633H3308.39Z" fill="#949494"/>
<rect x="3500" y="88" width="120" height="30" fill="#D9D9D9"/>
<path d="M3507.09 95.6836H3512.37C3513.56 95.6836 3514.47 95.7747 3515.09 95.957C3515.93 96.2044 3516.65 96.6439 3517.25 97.2754C3517.85 97.9069 3518.31 98.6816 3518.62 99.5996C3518.93 100.511 3519.09 101.637 3519.09 102.979C3519.09 104.157 3518.94 105.173 3518.65 106.025C3518.29 107.067 3517.78 107.91 3517.12 108.555C3516.61 109.043 3515.94 109.424 3515.08 109.697C3514.45 109.899 3513.59 110 3512.53 110H3507.09V95.6836ZM3509.98 98.1055V107.588H3512.13C3512.94 107.588 3513.52 107.542 3513.88 107.451C3514.35 107.334 3514.74 107.135 3515.04 106.855C3515.36 106.576 3515.61 106.117 3515.81 105.479C3516 104.834 3516.1 103.958 3516.1 102.852C3516.1 101.745 3516 100.895 3515.81 100.303C3515.61 99.7103 3515.34 99.248 3514.99 98.916C3514.63 98.584 3514.19 98.3594 3513.65 98.2422C3513.24 98.151 3512.45 98.1055 3511.28 98.1055H3509.98ZM3523.53 95.6836H3526.42V103.438C3526.42 104.668 3526.46 105.465 3526.53 105.83C3526.65 106.416 3526.94 106.888 3527.41 107.246C3527.88 107.598 3528.51 107.773 3529.32 107.773C3530.14 107.773 3530.76 107.607 3531.18 107.275C3531.59 106.937 3531.84 106.523 3531.93 106.035C3532.01 105.547 3532.05 104.736 3532.05 103.604V95.6836H3534.95V103.203C3534.95 104.922 3534.87 106.136 3534.71 106.846C3534.55 107.555 3534.26 108.154 3533.84 108.643C3533.43 109.131 3532.87 109.521 3532.16 109.814C3531.46 110.101 3530.54 110.244 3529.41 110.244C3528.04 110.244 3527 110.088 3526.29 109.775C3525.59 109.456 3525.03 109.046 3524.62 108.545C3524.21 108.037 3523.94 107.507 3523.81 106.953C3523.62 106.133 3523.53 104.922 3523.53 103.32V95.6836ZM3539.99 95.6836H3545.28C3546.47 95.6836 3547.38 95.7747 3548 95.957C3548.84 96.2044 3549.56 96.6439 3550.16 97.2754C3550.76 97.9069 3551.21 98.6816 3551.53 99.5996C3551.84 100.511 3551.99 101.637 3551.99 102.979C3551.99 104.157 3551.85 105.173 3551.55 106.025C3551.2 107.067 3550.69 107.91 3550.02 108.555C3549.52 109.043 3548.84 109.424 3547.99 109.697C3547.35 109.899 3546.5 110 3545.43 110H3539.99V95.6836ZM3542.88 98.1055V107.588H3545.04C3545.85 107.588 3546.43 107.542 3546.79 107.451C3547.26 107.334 3547.65 107.135 3547.95 106.855C3548.26 106.576 3548.52 106.117 3548.71 105.479C3548.91 104.834 3549.01 103.958 3549.01 102.852C3549.01 101.745 3548.91 100.895 3548.71 100.303C3548.52 99.7103 3548.24 99.248 3547.89 98.916C3547.54 98.584 3547.1 98.3594 3546.55 98.2422C3546.15 98.151 3545.36 98.1055 3544.18 98.1055H3542.88ZM3556.44 95.6836H3559.33V103.438C3559.33 104.668 3559.36 105.465 3559.43 105.83C3559.56 106.416 3559.85 106.888 3560.31 107.246C3560.78 107.598 3561.42 107.773 3562.23 107.773C3563.05 107.773 3563.67 107.607 3564.08 107.275C3564.5 106.937 3564.75 106.523 3564.83 106.035C3564.92 105.547 3564.96 104.736 3564.96 103.604V95.6836H3567.85V103.203C3567.85 104.922 3567.77 106.136 3567.62 106.846C3567.46 107.555 3567.17 108.154 3566.75 108.643C3566.33 109.131 3565.77 109.521 3565.07 109.814C3564.37 110.101 3563.45 110.244 3562.31 110.244C3560.95 110.244 3559.91 110.088 3559.2 109.775C3558.5 109.456 3557.94 109.046 3557.53 108.545C3557.12 108.037 3556.85 107.507 3556.72 106.953C3556.53 106.133 3556.44 104.922 3556.44 103.32V95.6836ZM3572.99 110V95.8008H3575.88V107.588H3583.06V110H3572.99ZM3587.21 110V95.8008H3590.1V107.588H3597.29V110H3587.21ZM3601.34 95.6836H3604.23V103.438C3604.23 104.668 3604.27 105.465 3604.34 105.83C3604.46 106.416 3604.76 106.888 3605.22 107.246C3605.69 107.598 3606.33 107.773 3607.13 107.773C3607.95 107.773 3608.57 107.607 3608.99 107.275C3609.4 106.937 3609.66 106.523 3609.74 106.035C3609.82 105.547 3609.87 104.736 3609.87 103.604V95.6836H3612.76V103.203C3612.76 104.922 3612.68 106.136 3612.52 106.846C3612.37 107.555 3612.08 108.154 3611.65 108.643C3611.24 109.131 3610.68 109.521 3609.97 109.814C3609.27 110.101 3608.35 110.244 3607.22 110.244C3605.85 110.244 3604.82 110.088 3604.11 109.775C3603.4 109.456 3602.85 109.046 3602.44 108.545C3602.03 108.037 3601.76 107.507 3601.62 106.953C3601.44 106.133 3601.34 104.922 3601.34 103.32V95.6836Z" fill="#949494"/>
<rect x="3900" y="88" width="120" height="30" fill="#D9D9D9"/>
<path d="M3901.97 110V95.6836H3904.78L3910.64 105.244V95.6836H3913.33V110H3910.43L3904.66 100.664V110H3901.97ZM3918.39 110V95.6836H3929.01V98.1055H3921.29V101.279H3928.47V103.691H3921.29V107.588H3929.28V110H3918.39ZM3942.89 104.736L3945.7 105.625C3945.27 107.188 3944.55 108.35 3943.55 109.111C3942.55 109.867 3941.29 110.244 3939.75 110.244C3937.85 110.244 3936.29 109.596 3935.06 108.301C3933.84 106.999 3933.23 105.221 3933.23 102.969C3933.23 100.586 3933.84 98.737 3935.07 97.4219C3936.3 96.1003 3937.92 95.4395 3939.93 95.4395C3941.68 95.4395 3943.1 95.957 3944.19 96.9922C3944.84 97.6042 3945.33 98.4831 3945.66 99.6289L3942.8 100.312C3942.63 99.5703 3942.27 98.9844 3941.73 98.5547C3941.2 98.125 3940.55 97.9102 3939.78 97.9102C3938.72 97.9102 3937.86 98.291 3937.19 99.0527C3936.53 99.8145 3936.21 101.048 3936.21 102.754C3936.21 104.564 3936.53 105.853 3937.18 106.621C3937.83 107.389 3938.68 107.773 3939.72 107.773C3940.49 107.773 3941.15 107.529 3941.7 107.041C3942.26 106.553 3942.65 105.785 3942.89 104.736ZM3950.1 110V95.6836H3952.99V110H3950.1ZM3950.21 94.8633V92.2656H3952.9V94.8633H3950.21ZM3957.75 110V95.6836H3962.39C3964.15 95.6836 3965.3 95.7552 3965.83 95.8984C3966.65 96.1133 3967.34 96.582 3967.89 97.3047C3968.44 98.0208 3968.72 98.9486 3968.72 100.088C3968.72 100.967 3968.56 101.706 3968.24 102.305C3967.92 102.904 3967.52 103.376 3967.02 103.721C3966.53 104.059 3966.04 104.284 3965.53 104.395C3964.84 104.531 3963.84 104.6 3962.53 104.6H3960.64V110H3957.75ZM3960.64 98.1055V102.168H3962.23C3963.37 102.168 3964.13 102.093 3964.51 101.943C3964.9 101.794 3965.2 101.559 3965.41 101.24C3965.63 100.921 3965.74 100.55 3965.74 100.127C3965.74 99.6061 3965.59 99.1764 3965.28 98.8379C3964.98 98.4993 3964.59 98.2878 3964.12 98.2031C3963.78 98.138 3963.08 98.1055 3962.04 98.1055H3960.64ZM3980.31 110V95.6836H3990.12V98.1055H3983.2V101.494H3989.18V103.916H3983.2V110H3980.31ZM3993.28 110V107.393L4000.79 98.1055H3994.12V95.6836H4004.6V97.9297L3996.76 107.588H4004.91V110H3993.28ZM4008.82 110V95.8008H4011.71V107.588H4018.9V110H4008.82Z" fill="#949494"/>
<rect x="4200" y="88" width="120" height="30" fill="#D9D9D9"/>
<path d="M4213.48 104.736L4216.29 105.625C4215.86 107.188 4215.14 108.35 4214.14 109.111C4213.14 109.867 4211.87 110.244 4210.34 110.244C4208.44 110.244 4206.87 109.596 4205.65 108.301C4204.43 106.999 4203.81 105.221 4203.81 102.969C4203.81 100.586 4204.43 98.737 4205.66 97.4219C4206.89 96.1003 4208.51 95.4395 4210.51 95.4395C4212.26 95.4395 4213.69 95.957 4214.78 96.9922C4215.43 97.6042 4215.92 98.4831 4216.25 99.6289L4213.38 100.312C4213.22 99.5703 4212.86 98.9844 4212.32 98.5547C4211.79 98.125 4211.14 97.9102 4210.37 97.9102C4209.31 97.9102 4208.44 98.291 4207.78 99.0527C4207.12 99.8145 4206.79 101.048 4206.79 102.754C4206.79 104.564 4207.12 105.853 4207.77 106.621C4208.42 107.389 4209.27 107.773 4210.31 107.773C4211.08 107.773 4211.74 107.529 4212.29 107.041C4212.84 106.553 4213.24 105.785 4213.48 104.736ZM4207.41 113.936V112.783C4208.08 112.855 4208.69 112.891 4209.25 112.891C4209.83 112.891 4210.26 112.786 4210.54 112.578C4210.76 112.422 4210.87 112.22 4210.87 111.973C4210.87 111.751 4210.76 111.559 4210.56 111.396C4210.36 111.234 4210.05 111.152 4209.62 111.152C4209.21 111.152 4208.78 111.217 4208.35 111.348L4208.6 110.381C4209.11 110.205 4209.65 110.117 4210.24 110.117C4211.05 110.117 4211.67 110.296 4212.1 110.654C4212.52 111.012 4212.73 111.449 4212.73 111.963C4212.73 112.536 4212.5 113.001 4212.03 113.359C4211.4 113.848 4210.49 114.092 4209.31 114.092C4208.47 114.092 4207.84 114.04 4207.41 113.936ZM4220.78 110V95.6836H4231.39V98.1055H4223.67V101.279H4230.85V103.691H4223.67V107.588H4231.66V110H4220.78ZM4236.15 110V95.6836H4239.04V102.041L4244.88 95.6836H4248.77L4243.38 101.26L4249.06 110H4245.32L4241.39 103.281L4239.04 105.674V110H4236.15ZM4252.53 110V95.6836H4256.86L4259.45 105.449L4262.02 95.6836H4266.36V110H4263.67V98.7305L4260.83 110H4258.05L4255.21 98.7305V110H4252.53ZM4271.27 110V95.6836H4274.16V102.041L4280 95.6836H4283.88L4278.49 101.26L4284.18 110H4280.44L4276.5 103.281L4274.16 105.674V110H4271.27ZM4287.1 102.93C4287.1 101.471 4287.31 100.247 4287.75 99.2578C4288.08 98.5286 4288.52 97.8743 4289.08 97.2949C4289.64 96.7155 4290.26 96.2858 4290.93 96.0059C4291.83 95.6283 4292.85 95.4395 4294.02 95.4395C4296.13 95.4395 4297.82 96.0938 4299.08 97.4023C4300.35 98.7109 4300.98 100.531 4300.98 102.861C4300.98 105.173 4300.35 106.982 4299.1 108.291C4297.84 109.593 4296.16 110.244 4294.06 110.244C4291.93 110.244 4290.24 109.596 4288.98 108.301C4287.72 106.999 4287.1 105.208 4287.1 102.93ZM4290.07 102.832C4290.07 104.453 4290.45 105.684 4291.2 106.523C4291.95 107.357 4292.9 107.773 4294.05 107.773C4295.2 107.773 4296.15 107.36 4296.88 106.533C4297.62 105.7 4297.99 104.453 4297.99 102.793C4297.99 101.152 4297.63 99.9284 4296.91 99.1211C4296.19 98.3138 4295.24 97.9102 4294.05 97.9102C4292.86 97.9102 4291.9 98.3203 4291.17 99.1406C4290.44 99.9544 4290.07 101.185 4290.07 102.832ZM4290.59 94.8633V92.5098H4292.95V94.8633H4290.59ZM4294.79 94.8633V92.5098H4297.15V94.8633H4294.79ZM4309.01 110V103.975L4303.76 95.6836H4307.15L4310.52 101.348L4313.82 95.6836H4317.15L4311.89 103.994V110H4309.01Z" fill="#949494"/>
<rect x="4400" y="88" width="120" height="30" fill="#D9D9D9"/>
<path d="M4418.62 110V95.6836H4422.95L4425.55 105.449L4428.12 95.6836H4432.45V110H4429.77V98.7305L4426.92 110H4424.14L4421.31 98.7305V110H4418.62ZM4437.32 110V95.6836H4447.94V98.1055H4440.21V101.279H4447.4V103.691H4440.21V107.588H4448.21V110H4437.32ZM4461.82 104.736L4464.62 105.625C4464.2 107.188 4463.48 108.35 4462.48 109.111C4461.48 109.867 4460.21 110.244 4458.68 110.244C4456.78 110.244 4455.21 109.596 4453.99 108.301C4452.77 106.999 4452.15 105.221 4452.15 102.969C4452.15 100.586 4452.77 98.737 4454 97.4219C4455.23 96.1003 4456.85 95.4395 4458.85 95.4395C4460.6 95.4395 4462.03 95.957 4463.12 96.9922C4463.77 97.6042 4464.26 98.4831 4464.59 99.6289L4461.72 100.312C4461.56 99.5703 4461.2 98.9844 4460.66 98.5547C4460.13 98.125 4459.48 97.9102 4458.71 97.9102C4457.65 97.9102 4456.78 98.291 4456.12 99.0527C4455.46 99.8145 4455.13 101.048 4455.13 102.754C4455.13 104.564 4455.46 105.853 4456.11 106.621C4456.76 107.389 4457.61 107.773 4458.65 107.773C4459.42 107.773 4460.08 107.529 4460.63 107.041C4461.18 106.553 4461.58 105.785 4461.82 104.736ZM4469.19 110V95.8008H4472.08V107.588H4479.27V110H4469.19ZM4483.25 110V95.6836H4486.14V110H4483.25ZM4483.36 94.8633V92.2656H4486.06V94.8633H4483.36ZM4490.18 105.342L4492.99 105.068C4493.16 106.012 4493.5 106.706 4494.01 107.148C4494.53 107.591 4495.23 107.812 4496.11 107.812C4497.04 107.812 4497.74 107.617 4498.21 107.227C4498.69 106.829 4498.93 106.367 4498.93 105.84C4498.93 105.501 4498.82 105.215 4498.62 104.98C4498.43 104.74 4498.08 104.531 4497.59 104.355C4497.25 104.238 4496.48 104.03 4495.27 103.73C4493.72 103.346 4492.64 102.874 4492.01 102.314C4491.13 101.527 4490.69 100.566 4490.69 99.4336C4490.69 98.7044 4490.9 98.0241 4491.31 97.3926C4491.73 96.7546 4492.32 96.2695 4493.1 95.9375C4493.88 95.6055 4494.82 95.4395 4495.92 95.4395C4497.71 95.4395 4499.07 95.8333 4499.97 96.6211C4500.88 97.4089 4501.36 98.4603 4501.41 99.7754L4498.52 99.9023C4498.39 99.1667 4498.12 98.6393 4497.71 98.3203C4497.31 97.9948 4496.7 97.832 4495.89 97.832C4495.05 97.832 4494.39 98.0046 4493.92 98.3496C4493.61 98.571 4493.46 98.8672 4493.46 99.2383C4493.46 99.5768 4493.6 99.8665 4493.89 100.107C4494.25 100.413 4495.14 100.732 4496.54 101.064C4497.95 101.396 4498.99 101.742 4499.66 102.1C4500.34 102.451 4500.86 102.936 4501.24 103.555C4501.62 104.167 4501.82 104.925 4501.82 105.83C4501.82 106.65 4501.59 107.419 4501.13 108.135C4500.68 108.851 4500.03 109.385 4499.2 109.736C4498.37 110.081 4497.33 110.254 4496.08 110.254C4494.27 110.254 4492.88 109.837 4491.91 109.004C4490.94 108.164 4490.36 106.943 4490.18 105.342Z" fill="#949494"/>
<rect x="4600" y="88" width="120" height="30" fill="#D9D9D9"/>
<path d="M4605.91 105.342L4608.72 105.068C4608.89 106.012 4609.23 106.706 4609.75 107.148C4610.27 107.591 4610.97 107.812 4611.85 107.812C4612.78 107.812 4613.48 107.617 4613.95 107.227C4614.42 106.829 4614.66 106.367 4614.66 105.84C4614.66 105.501 4614.56 105.215 4614.36 104.98C4614.16 104.74 4613.82 104.531 4613.32 104.355C4612.98 104.238 4612.21 104.03 4611.01 103.73C4609.46 103.346 4608.37 102.874 4607.75 102.314C4606.87 101.527 4606.43 100.566 4606.43 99.4336C4606.43 98.7044 4606.63 98.0241 4607.04 97.3926C4607.46 96.7546 4608.06 96.2695 4608.83 95.9375C4609.61 95.6055 4610.55 95.4395 4611.65 95.4395C4613.45 95.4395 4614.8 95.8333 4615.71 96.6211C4616.62 97.4089 4617.1 98.4603 4617.14 99.7754L4614.25 99.9023C4614.13 99.1667 4613.86 98.6393 4613.45 98.3203C4613.05 97.9948 4612.44 97.832 4611.62 97.832C4610.78 97.832 4610.13 98.0046 4609.65 98.3496C4609.34 98.571 4609.19 98.8672 4609.19 99.2383C4609.19 99.5768 4609.33 99.8665 4609.62 100.107C4609.99 100.413 4610.87 100.732 4612.28 101.064C4613.68 101.396 4614.72 101.742 4615.39 102.1C4616.07 102.451 4616.6 102.936 4616.97 103.555C4617.36 104.167 4617.55 104.925 4617.55 105.83C4617.55 106.65 4617.32 107.419 4616.87 108.135C4616.41 108.851 4615.77 109.385 4614.93 109.736C4614.1 110.081 4613.06 110.254 4611.82 110.254C4610.01 110.254 4608.62 109.837 4607.65 109.004C4606.68 108.164 4606.1 106.943 4605.91 105.342ZM4634.89 110H4631.75L4630.5 106.748H4624.78L4623.59 110H4620.53L4626.1 95.6836H4629.16L4634.89 110ZM4629.57 104.336L4627.6 99.0234L4625.66 104.336H4629.57ZM4638.45 110V95.6836H4644.53C4646.06 95.6836 4647.17 95.8138 4647.86 96.0742C4648.56 96.3281 4649.11 96.7839 4649.53 97.4414C4649.95 98.099 4650.15 98.8509 4650.15 99.6973C4650.15 100.771 4649.84 101.66 4649.21 102.363C4648.58 103.06 4647.63 103.499 4646.38 103.682C4647 104.046 4647.51 104.447 4647.92 104.883C4648.33 105.319 4648.88 106.094 4649.57 107.207L4651.32 110H4647.86L4645.77 106.885C4645.03 105.771 4644.52 105.072 4644.25 104.785C4643.97 104.492 4643.68 104.294 4643.38 104.189C4643.07 104.079 4642.59 104.023 4641.92 104.023H4641.34V110H4638.45ZM4641.34 101.738H4643.47C4644.86 101.738 4645.73 101.68 4646.07 101.562C4646.42 101.445 4646.69 101.243 4646.88 100.957C4647.08 100.671 4647.18 100.312 4647.18 99.8828C4647.18 99.401 4647.05 99.0137 4646.79 98.7207C4646.53 98.4212 4646.17 98.2324 4645.7 98.1543C4645.47 98.1217 4644.76 98.1055 4643.59 98.1055H4641.34V101.738ZM4654.8 110V95.6836H4657.69V110H4654.8ZM4669.12 104.736V102.324H4675.35V108.027C4674.74 108.613 4673.86 109.131 4672.71 109.58C4671.56 110.023 4670.4 110.244 4669.22 110.244C4667.73 110.244 4666.42 109.932 4665.31 109.307C4664.19 108.675 4663.36 107.777 4662.8 106.611C4662.24 105.439 4661.96 104.167 4661.96 102.793C4661.96 101.302 4662.27 99.9772 4662.89 98.8184C4663.52 97.6595 4664.43 96.7708 4665.64 96.1523C4666.56 95.6771 4667.7 95.4395 4669.07 95.4395C4670.84 95.4395 4672.23 95.8138 4673.23 96.5625C4674.23 97.3047 4674.87 98.3333 4675.16 99.6484L4672.29 100.186C4672.09 99.4824 4671.71 98.929 4671.15 98.5254C4670.59 98.1152 4669.9 97.9102 4669.07 97.9102C4667.8 97.9102 4666.8 98.3105 4666.05 99.1113C4665.31 99.9121 4664.94 101.1 4664.94 102.676C4664.94 104.375 4665.31 105.651 4666.07 106.504C4666.82 107.35 4667.81 107.773 4669.04 107.773C4669.64 107.773 4670.25 107.656 4670.85 107.422C4671.47 107.181 4671.99 106.891 4672.43 106.553V104.736H4669.12ZM4692.93 110H4689.79L4688.54 106.748H4682.81L4681.63 110H4678.57L4684.14 95.6836H4687.2L4692.93 110ZM4687.61 104.336L4685.64 99.0234L4683.7 104.336H4687.61ZM4695.23 110V107.393L4702.75 98.1055H4696.08V95.6836H4706.56V97.9297L4698.72 107.588H4706.87V110H4695.23ZM4710.61 110V95.6836H4713.5V110H4710.61ZM4710.72 94.8633V92.2656H4713.42V94.8633H4710.72Z" fill="#949494"/>
<rect x="4900" y="88" width="120" height="30" fill="#D9D9D9"/>
<path d="M4907.85 110V95.6836H4910.74V101.318H4916.4V95.6836H4919.29V110H4916.4V103.74H4910.74V110H4907.85ZM4937.2 110H4934.06L4932.81 106.748H4927.08L4925.9 110H4922.84L4928.41 95.6836H4931.47L4937.2 110ZM4931.88 104.336L4929.91 99.0234L4927.97 104.336H4931.88ZM4940.01 105.342L4942.82 105.068C4942.99 106.012 4943.34 106.706 4943.85 107.148C4944.37 107.591 4945.07 107.812 4945.95 107.812C4946.88 107.812 4947.58 107.617 4948.05 107.227C4948.52 106.829 4948.76 106.367 4948.76 105.84C4948.76 105.501 4948.66 105.215 4948.46 104.98C4948.26 104.74 4947.92 104.531 4947.42 104.355C4947.09 104.238 4946.31 104.03 4945.11 103.73C4943.56 103.346 4942.47 102.874 4941.85 102.314C4940.97 101.527 4940.53 100.566 4940.53 99.4336C4940.53 98.7044 4940.73 98.0241 4941.14 97.3926C4941.56 96.7546 4942.16 96.2695 4942.93 95.9375C4943.71 95.6055 4944.65 95.4395 4945.75 95.4395C4947.55 95.4395 4948.9 95.8333 4949.81 96.6211C4950.72 97.4089 4951.2 98.4603 4951.24 99.7754L4948.35 99.9023C4948.23 99.1667 4947.96 98.6393 4947.55 98.3203C4947.15 97.9948 4946.54 97.832 4945.72 97.832C4944.88 97.832 4944.23 98.0046 4943.75 98.3496C4943.45 98.571 4943.29 98.8672 4943.29 99.2383C4943.29 99.5768 4943.44 99.8665 4943.72 100.107C4944.09 100.413 4944.97 100.732 4946.38 101.064C4947.79 101.396 4948.82 101.742 4949.49 102.1C4950.17 102.451 4950.7 102.936 4951.08 103.555C4951.46 104.167 4951.65 104.925 4951.65 105.83C4951.65 106.65 4951.42 107.419 4950.97 108.135C4950.51 108.851 4949.87 109.385 4949.04 109.736C4948.2 110.081 4947.16 110.254 4945.92 110.254C4944.11 110.254 4942.72 109.837 4941.75 109.004C4940.78 108.164 4940.2 106.943 4940.01 105.342ZM4959.31 110V98.1055H4955.06V95.6836H4966.44V98.1055H4962.2V110H4959.31ZM4981.74 110H4978.59L4977.34 106.748H4971.62L4970.44 110H4967.37L4972.95 95.6836H4976L4981.74 110ZM4976.41 104.336L4974.44 99.0234L4972.51 104.336H4976.41ZM4985.31 110V95.6836H4988.12L4993.98 105.244V95.6836H4996.67V110H4993.77L4987.99 100.664V110H4985.31ZM5001.73 110V95.6836H5012.35V98.1055H5004.62V101.279H5011.81V103.691H5004.62V107.588H5012.62V110H5001.73Z" fill="#949494"/>
<rect x="5100" y="88" width="120" height="30" fill="#D9D9D9"/>
<path d="M5106.92 105.342L5109.73 105.068C5109.9 106.012 5110.24 106.706 5110.76 107.148C5111.28 107.591 5111.98 107.812 5112.86 107.812C5113.79 107.812 5114.49 107.617 5114.96 107.227C5115.43 106.829 5115.67 106.367 5115.67 105.84C5115.67 105.501 5115.57 105.215 5115.37 104.98C5115.17 104.74 5114.83 104.531 5114.33 104.355C5113.99 104.238 5113.22 104.03 5112.02 103.73C5110.47 103.346 5109.38 102.874 5108.76 102.314C5107.88 101.527 5107.44 100.566 5107.44 99.4336C5107.44 98.7044 5107.64 98.0241 5108.05 97.3926C5108.47 96.7546 5109.07 96.2695 5109.84 95.9375C5110.62 95.6055 5111.56 95.4395 5112.66 95.4395C5114.46 95.4395 5115.81 95.8333 5116.71 96.6211C5117.63 97.4089 5118.1 98.4603 5118.15 99.7754L5115.26 99.9023C5115.14 99.1667 5114.87 98.6393 5114.46 98.3203C5114.06 97.9948 5113.45 97.832 5112.63 97.832C5111.79 97.832 5111.14 98.0046 5110.66 98.3496C5110.35 98.571 5110.2 98.8672 5110.2 99.2383C5110.2 99.5768 5110.34 99.8665 5110.63 100.107C5111 100.413 5111.88 100.732 5113.29 101.064C5114.69 101.396 5115.73 101.742 5116.4 102.1C5117.08 102.451 5117.61 102.936 5117.98 103.555C5118.37 104.167 5118.56 104.925 5118.56 105.83C5118.56 106.65 5118.33 107.419 5117.88 108.135C5117.42 108.851 5116.78 109.385 5115.94 109.736C5115.11 110.081 5114.07 110.254 5112.83 110.254C5111.02 110.254 5109.63 109.837 5108.66 109.004C5107.69 108.164 5107.11 106.943 5106.92 105.342ZM5123.02 110V95.6836H5125.83L5131.69 105.244V95.6836H5134.38V110H5131.48L5125.71 100.664V110H5123.02ZM5148.61 104.736L5151.41 105.625C5150.98 107.188 5150.26 108.35 5149.26 109.111C5148.26 109.867 5147 110.244 5145.46 110.244C5143.56 110.244 5142 109.596 5140.77 108.301C5139.55 106.999 5138.94 105.221 5138.94 102.969C5138.94 100.586 5139.55 98.737 5140.78 97.4219C5142.01 96.1003 5143.63 95.4395 5145.64 95.4395C5147.39 95.4395 5148.81 95.957 5149.9 96.9922C5150.56 97.6042 5151.04 98.4831 5151.37 99.6289L5148.51 100.312C5148.34 99.5703 5147.98 98.9844 5147.44 98.5547C5146.91 98.125 5146.26 97.9102 5145.49 97.9102C5144.43 97.9102 5143.57 98.291 5142.9 99.0527C5142.24 99.8145 5141.92 101.048 5141.92 102.754C5141.92 104.564 5142.24 105.853 5142.89 106.621C5143.54 107.389 5144.39 107.773 5145.43 107.773C5146.2 107.773 5146.86 107.529 5147.41 107.041C5147.97 106.553 5148.36 105.785 5148.61 104.736ZM5155.94 110V95.6836H5158.83V102.041L5164.67 95.6836H5168.55L5163.16 101.26L5168.85 110H5165.11L5161.17 103.281L5158.83 105.674V110H5155.94ZM5175.57 110V98.1055H5171.33V95.6836H5182.7V98.1055H5178.46V110H5175.57ZM5186.58 110V95.6836H5191.22C5192.97 95.6836 5194.12 95.7552 5194.65 95.8984C5195.47 96.1133 5196.16 96.582 5196.71 97.3047C5197.27 98.0208 5197.54 98.9486 5197.54 100.088C5197.54 100.967 5197.39 101.706 5197.07 102.305C5196.75 102.904 5196.34 103.376 5195.85 103.721C5195.36 104.059 5194.86 104.284 5194.35 104.395C5193.66 104.531 5192.66 104.6 5191.35 104.6H5189.47V110H5186.58ZM5189.47 98.1055V102.168H5191.05C5192.19 102.168 5192.95 102.093 5193.34 101.943C5193.72 101.794 5194.02 101.559 5194.23 101.24C5194.46 100.921 5194.57 100.55 5194.57 100.127C5194.57 99.6061 5194.41 99.1764 5194.11 98.8379C5193.8 98.4993 5193.41 98.2878 5192.95 98.2031C5192.6 98.138 5191.91 98.1055 5190.87 98.1055H5189.47ZM5201.92 110V95.6836H5212.53V98.1055H5204.81V101.279H5212V103.691H5204.81V107.588H5212.81V110H5201.92Z" fill="#949494"/>
<rect x="5300" y="88" width="120" height="30" fill="#D9D9D9"/>
<path d="M5303.59 105.342L5306.4 105.068C5306.57 106.012 5306.91 106.706 5307.43 107.148C5307.95 107.591 5308.65 107.812 5309.53 107.812C5310.46 107.812 5311.16 107.617 5311.63 107.227C5312.1 106.829 5312.34 106.367 5312.34 105.84C5312.34 105.501 5312.24 105.215 5312.04 104.98C5311.84 104.74 5311.5 104.531 5311 104.355C5310.66 104.238 5309.89 104.03 5308.69 103.73C5307.14 103.346 5306.05 102.874 5305.43 102.314C5304.55 101.527 5304.11 100.566 5304.11 99.4336C5304.11 98.7044 5304.31 98.0241 5304.72 97.3926C5305.14 96.7546 5305.74 96.2695 5306.51 95.9375C5307.29 95.6055 5308.23 95.4395 5309.33 95.4395C5311.13 95.4395 5312.48 95.8333 5313.38 96.6211C5314.3 97.4089 5314.77 98.4603 5314.82 99.7754L5311.93 99.9023C5311.81 99.1667 5311.54 98.6393 5311.13 98.3203C5310.73 97.9948 5310.12 97.832 5309.3 97.832C5308.46 97.832 5307.81 98.0046 5307.33 98.3496C5307.02 98.571 5306.87 98.8672 5306.87 99.2383C5306.87 99.5768 5307.01 99.8665 5307.3 100.107C5307.67 100.413 5308.55 100.732 5309.96 101.064C5311.36 101.396 5312.4 101.742 5313.07 102.1C5313.75 102.451 5314.28 102.936 5314.65 103.555C5315.04 104.167 5315.23 104.925 5315.23 105.83C5315.23 106.65 5315 107.419 5314.55 108.135C5314.09 108.851 5313.45 109.385 5312.61 109.736C5311.78 110.081 5310.74 110.254 5309.5 110.254C5307.69 110.254 5306.3 109.837 5305.33 109.004C5304.36 108.164 5303.78 106.943 5303.59 105.342ZM5332.57 110H5329.43L5328.18 106.748H5322.46L5321.27 110H5318.21L5323.78 95.6836H5326.84L5332.57 110ZM5327.25 104.336L5325.28 99.0234L5323.34 104.336H5327.25ZM5336.08 110V95.6836H5340.4L5343 105.449L5345.57 95.6836H5349.9V110H5347.22V98.7305L5344.38 110H5341.59L5338.76 98.7305V110H5336.08ZM5354.8 110V95.6836H5357.62L5363.48 105.244V95.6836H5366.16V110H5363.26L5357.49 100.664V110H5354.8ZM5371.22 95.6836H5376.5C5377.69 95.6836 5378.6 95.7747 5379.23 95.957C5380.07 96.2044 5380.79 96.6439 5381.38 97.2754C5381.98 97.9069 5382.44 98.6816 5382.75 99.5996C5383.06 100.511 5383.22 101.637 5383.22 102.979C5383.22 104.157 5383.07 105.173 5382.78 106.025C5382.42 107.067 5381.91 107.91 5381.25 108.555C5380.75 109.043 5380.07 109.424 5379.22 109.697C5378.58 109.899 5377.73 110 5376.66 110H5371.22V95.6836ZM5374.11 98.1055V107.588H5376.27C5377.07 107.588 5377.66 107.542 5378.02 107.451C5378.48 107.334 5378.87 107.135 5379.18 106.855C5379.49 106.576 5379.74 106.117 5379.94 105.479C5380.13 104.834 5380.23 103.958 5380.23 102.852C5380.23 101.745 5380.13 100.895 5379.94 100.303C5379.74 99.7103 5379.47 99.248 5379.12 98.916C5378.77 98.584 5378.32 98.3594 5377.78 98.2422C5377.38 98.151 5376.59 98.1055 5375.41 98.1055H5374.11ZM5387.69 110V95.6836H5393.78C5395.31 95.6836 5396.42 95.8138 5397.11 96.0742C5397.8 96.3281 5398.36 96.7839 5398.78 97.4414C5399.19 98.099 5399.4 98.8509 5399.4 99.6973C5399.4 100.771 5399.08 101.66 5398.45 102.363C5397.82 103.06 5396.88 103.499 5395.62 103.682C5396.25 104.046 5396.76 104.447 5397.16 104.883C5397.57 105.319 5398.12 106.094 5398.81 107.207L5400.56 110H5397.11L5395.02 106.885C5394.27 105.771 5393.77 105.072 5393.49 104.785C5393.22 104.492 5392.93 104.294 5392.62 104.189C5392.32 104.079 5391.83 104.023 5391.17 104.023H5390.58V110H5387.69ZM5390.58 101.738H5392.72C5394.11 101.738 5394.97 101.68 5395.32 101.562C5395.66 101.445 5395.93 101.243 5396.13 100.957C5396.32 100.671 5396.42 100.312 5396.42 99.8828C5396.42 99.401 5396.29 99.0137 5396.03 98.7207C5395.78 98.4212 5395.42 98.2324 5394.95 98.1543C5394.71 98.1217 5394.01 98.1055 5392.84 98.1055H5390.58V101.738ZM5417.04 110H5413.9L5412.65 106.748H5406.93L5405.75 110H5402.68L5408.26 95.6836H5411.31L5417.04 110ZM5411.72 104.336L5409.75 99.0234L5407.82 104.336H5411.72Z" fill="#949494"/>
<path d="M200 68.071L207.071 61L284.146 138.075L277.075 145.146L200 68.071Z" fill="#949494"/>
<path d="M277.075 61L284.146 68.0711L207.071 145.146L200 138.075L277.075 61Z" fill="#949494"/>
<path d="M1070 68.071L1077.07 61L1154.15 138.075L1147.07 145.146L1070 68.071Z" fill="#949494"/>
<path d="M1147.07 61L1154.15 68.0711L1077.07 145.146L1070 138.075L1147.07 61Z" fill="#949494"/>
<path d="M2350 68.071L2357.07 61L2434.15 138.075L2427.07 145.146L2350 68.071Z" fill="#949494"/>
<path d="M2427.07 61L2434.15 68.0711L2357.07 145.146L2350 138.075L2427.07 61Z" fill="#949494"/>
<path d="M3127.07 61L3134.15 68.0711L3057.07 145.146L3050 138.075L3127.07 61Z" fill="#949494"/>
<path d="M3370 68.071L3377.07 61L3454.15 138.075L3447.07 145.146L3370 68.071Z" fill="#949494"/>
<path d="M3447.07 61L3454.15 68.0711L3377.07 145.146L3370 138.075L3447.07 61Z" fill="#949494"/>
<path d="M3750 68.071L3757.07 61L3834.15 138.075L3827.07 145.146L3750 68.071Z" fill="#949494"/>
<path d="M4100 68.071L4107.07 61L4184.15 138.075L4177.07 145.146L4100 68.071Z" fill="#949494"/>
<path d="M4177.07 61L4184.15 68.0711L4107.07 145.146L4100 138.075L4177.07 61Z" fill="#949494"/>
<path d="M4800 68.071L4807.07 61L4884.15 138.075L4877.07 145.146L4800 68.071Z" fill="#949494"/>
<path d="M4877.07 61L4884.15 68.0711L4807.07 145.146L4800 138.075L4877.07 61Z" fill="#949494"/>
<path d="M5450 68.071L5457.07 61L5534.15 138.075L5527.07 145.146L5450 68.071Z" fill="#949494"/>
<path d="M5527.07 61L5534.15 68.0711L5457.07 145.146L5450 138.075L5527.07 61Z" fill="#949494"/>
<line x1="2039" y1="103" x2="2139" y2="103" stroke="#949494" stroke-width="10"/>
<rect x="2134" y="98" width="52.5" height="10" transform="rotate(-45 2134 98)" fill="#949494"/>
<rect x="2000" y="138" width="52.5" height="10" transform="rotate(-45 2000 138)" fill="#949494"/>
<rect x="2141.07" y="100.877" width="52.5" height="10" transform="rotate(45 2141.07 100.877)" fill="#949494"/>
<rect x="2007.07" y="60.877" width="52.5" height="10" transform="rotate(45 2007.07 60.877)" fill="#949494"/>
<line x1="80" y1="143" x2="5584" y2="143" stroke="#949494" stroke-width="10"/>
<line x1="80" y1="63" x2="5584" y2="63" stroke="#949494" stroke-width="10"/>
<path d="M3700 30.0691L3707.07 22.998L3742.43 58.3534L3735.36 65.4244L3700 30.0691Z" fill="#949494"/>
<path d="M3669.08 23L3676.15 30.0711L3640.79 65.4264L3633.72 58.3553L3669.08 23Z" fill="#949494"/>
<path d="M4727.97 30.071L4735.04 23L4770.4 58.3553L4763.33 65.4264L4727.97 30.071Z" fill="#949494"/>
</svg>
