<svg width="2044" height="200" viewBox="0 0 2044 200" fill="none" xmlns="http://www.w3.org/2000/svg">
<g clip-path="url(#clip0_494_3056)">
<path d="M100 100H1954" stroke="#9B552B" stroke-width="20"/>
<circle cx="1025" cy="100" r="21" fill="#9B552B"/>
<circle cx="1025" cy="100" r="13" fill="white"/>
<circle cx="843" cy="100" r="21" fill="#9B552B"/>
<circle cx="843" cy="100" r="13" fill="white"/>
<circle cx="473" cy="100" r="21" fill="#9B552B"/>
<circle cx="473" cy="100" r="13" fill="white"/>
<circle cx="1207" cy="100" r="21" fill="#9B552B"/>
<circle cx="1207" cy="100" r="13" fill="white"/>
<circle cx="1392" cy="100" r="21" fill="#9B552B"/>
<circle cx="1392" cy="100" r="13" fill="white"/>
<circle cx="1577" cy="100" r="21" fill="#9B552B"/>
<circle cx="1577" cy="100" r="13" fill="white"/>
<circle cx="1392" cy="100" r="21" fill="#9B552B"/>
<circle cx="1392" cy="100" r="13" fill="white"/>
<circle cx="1577" cy="100" r="21" fill="#9B552B"/>
<circle cx="1577" cy="100" r="13" fill="white"/>
<circle cx="1762" cy="100" r="21" fill="#9B552B"/>
<circle cx="1762" cy="100" r="13" fill="white"/>
<circle cx="288" cy="100" r="21" fill="#9B552B"/>
<circle cx="288" cy="100" r="13" fill="white"/>
<circle cx="658" cy="100" r="21" fill="#9B552B"/>
<circle cx="658" cy="100" r="13" fill="white"/>
<circle cx="1944" cy="100" r="21" fill="#9B552B"/>
<circle cx="1944" cy="100" r="13" fill="white"/>
<circle cx="100" cy="100" r="24" fill="black"/>
<ellipse cx="100.001" cy="99.9939" rx="19.2" ry="19.2" fill="white"/>
<circle cx="288" cy="100" r="24" fill="black"/>
<ellipse cx="288.001" cy="99.9939" rx="19.2" ry="19.2" fill="white"/>
<circle cx="658" cy="100" r="24" fill="black"/>
<ellipse cx="658.001" cy="99.9939" rx="19.2" ry="19.2" fill="white"/>
<path d="M57.4753 22.4L55.2193 24.752V29H51.3553V12.2H55.2193V20.048L62.6593 12.2H66.9793L60.0193 19.688L67.3873 29H62.8513L57.4753 22.4ZM73.7837 15.896C75.7837 15.896 77.3197 16.376 78.3917 17.336C79.4637 18.28 79.9997 19.712 79.9997 21.632V29H76.4957V27.392C75.7917 28.592 74.4797 29.192 72.5597 29.192C71.5677 29.192 70.7037 29.024 69.9677 28.688C69.2477 28.352 68.6957 27.888 68.3117 27.296C67.9277 26.704 67.7357 26.032 67.7357 25.28C67.7357 24.08 68.1837 23.136 69.0797 22.448C69.9917 21.76 71.3917 21.416 73.2797 21.416H76.2557C76.2557 20.6 76.0077 19.976 75.5117 19.544C75.0157 19.096 74.2717 18.872 73.2797 18.872C72.5917 18.872 71.9117 18.984 71.2397 19.208C70.5837 19.416 70.0237 19.704 69.5597 20.072L68.2157 17.456C68.9197 16.96 69.7597 16.576 70.7357 16.304C71.7277 16.032 72.7437 15.896 73.7837 15.896ZM73.4957 26.672C74.1357 26.672 74.7037 26.528 75.1997 26.24C75.6957 25.936 76.0477 25.496 76.2557 24.92V23.6H73.6877C72.1517 23.6 71.3837 24.104 71.3837 25.112C71.3837 25.592 71.5677 25.976 71.9357 26.264C72.3197 26.536 72.8397 26.672 73.4957 26.672ZM96.6808 11.192V29H93.1048V27.512C92.1768 28.632 90.8328 29.192 89.0728 29.192C87.8568 29.192 86.7528 28.92 85.7608 28.376C84.7848 27.832 84.0168 27.056 83.4568 26.048C82.8968 25.04 82.6168 23.872 82.6168 22.544C82.6168 21.216 82.8968 20.048 83.4568 19.04C84.0168 18.032 84.7848 17.256 85.7608 16.712C86.7528 16.168 87.8568 15.896 89.0728 15.896C90.7208 15.896 92.0088 16.416 92.9368 17.456V11.192H96.6808ZM89.7208 26.12C90.6648 26.12 91.4488 25.8 92.0728 25.16C92.6968 24.504 93.0088 23.632 93.0088 22.544C93.0088 21.456 92.6968 20.592 92.0728 19.952C91.4488 19.296 90.6648 18.968 89.7208 18.968C88.7608 18.968 87.9688 19.296 87.3448 19.952C86.7208 20.592 86.4088 21.456 86.4088 22.544C86.4088 23.632 86.7208 24.504 87.3448 25.16C87.9688 25.8 88.7608 26.12 89.7208 26.12ZM100.146 16.088H103.89V29H100.146V16.088ZM112.909 23.936L111.109 25.712V29H107.365V11.192H111.109V21.272L116.581 16.088H121.045L115.669 21.56L121.525 29H116.989L112.909 23.936ZM128.79 29.192C127.43 29.192 126.206 28.912 125.118 28.352C124.046 27.776 123.206 26.984 122.598 25.976C121.99 24.968 121.686 23.824 121.686 22.544C121.686 21.264 121.99 20.12 122.598 19.112C123.206 18.104 124.046 17.32 125.118 16.76C126.206 16.184 127.43 15.896 128.79 15.896C130.15 15.896 131.366 16.184 132.438 16.76C133.51 17.32 134.35 18.104 134.958 19.112C135.566 20.12 135.87 21.264 135.87 22.544C135.87 23.824 135.566 24.968 134.958 25.976C134.35 26.984 133.51 27.776 132.438 28.352C131.366 28.912 130.15 29.192 128.79 29.192ZM128.79 26.12C129.75 26.12 130.534 25.8 131.142 25.16C131.766 24.504 132.078 23.632 132.078 22.544C132.078 21.456 131.766 20.592 131.142 19.952C130.534 19.296 129.75 18.968 128.79 18.968C127.83 18.968 127.038 19.296 126.414 19.952C125.79 20.592 125.478 21.456 125.478 22.544C125.478 23.632 125.79 24.504 126.414 25.16C127.038 25.8 127.83 26.12 128.79 26.12ZM126.318 14.312C125.838 14.312 125.438 14.16 125.118 13.856C124.798 13.536 124.638 13.136 124.638 12.656C124.638 12.176 124.798 11.784 125.118 11.48C125.438 11.16 125.838 11 126.318 11C126.798 11 127.19 11.16 127.494 11.48C127.814 11.784 127.974 12.176 127.974 12.656C127.974 13.136 127.814 13.536 127.494 13.856C127.19 14.16 126.798 14.312 126.318 14.312ZM131.166 14.312C130.686 14.312 130.286 14.16 129.966 13.856C129.662 13.536 129.51 13.136 129.51 12.656C129.51 12.176 129.662 11.784 129.966 11.48C130.286 11.16 130.686 11 131.166 11C131.646 11 132.046 11.16 132.366 11.48C132.686 11.784 132.846 12.176 132.846 12.656C132.846 13.136 132.686 13.536 132.366 13.856C132.046 14.16 131.646 14.312 131.166 14.312ZM150.837 16.088L145.005 29.792C144.413 31.28 143.677 32.328 142.797 32.936C141.933 33.544 140.885 33.848 139.653 33.848C138.981 33.848 138.317 33.744 137.661 33.536C137.005 33.328 136.469 33.04 136.053 32.672L137.421 30.008C137.709 30.264 138.037 30.464 138.405 30.608C138.789 30.752 139.165 30.824 139.533 30.824C140.045 30.824 140.461 30.696 140.781 30.44C141.101 30.2 141.389 29.792 141.645 29.216L141.693 29.096L136.101 16.088H139.965L143.589 24.848L147.237 16.088H150.837ZM78.0154 41.2H81.9034V58H78.0154V41.2ZM79.9594 39.712C79.3674 39.712 78.8794 39.52 78.4954 39.136C78.1274 38.752 77.9434 38.264 77.9434 37.672C77.9434 37.096 78.1274 36.616 78.4954 36.232C78.8794 35.848 79.3674 35.656 79.9594 35.656C80.5514 35.656 81.0314 35.848 81.3994 36.232C81.7834 36.616 81.9754 37.096 81.9754 37.672C81.9754 38.264 81.7834 38.752 81.3994 39.136C81.0314 39.52 80.5514 39.712 79.9594 39.712ZM85.8904 41.2H93.5224C95.3464 41.2 96.9544 41.552 98.3464 42.256C99.7544 42.944 100.842 43.92 101.61 45.184C102.394 46.448 102.786 47.92 102.786 49.6C102.786 51.28 102.394 52.752 101.61 54.016C100.842 55.28 99.7544 56.264 98.3464 56.968C96.9544 57.656 95.3464 58 93.5224 58H85.8904V41.2ZM93.3304 54.808C95.0104 54.808 96.3464 54.344 97.3384 53.416C98.3464 52.472 98.8504 51.2 98.8504 49.6C98.8504 48 98.3464 46.736 97.3384 45.808C96.3464 44.864 95.0104 44.392 93.3304 44.392H89.7784V54.808H93.3304ZM113.855 58.288C112.111 58.288 110.535 57.912 109.127 57.16C107.735 56.408 106.639 55.376 105.839 54.064C105.055 52.736 104.663 51.248 104.663 49.6C104.663 47.952 105.055 46.472 105.839 45.16C106.639 43.832 107.735 42.792 109.127 42.04C110.535 41.288 112.111 40.912 113.855 40.912C115.599 40.912 117.167 41.288 118.559 42.04C119.951 42.792 121.047 43.832 121.847 45.16C122.647 46.472 123.047 47.952 123.047 49.6C123.047 51.248 122.647 52.736 121.847 54.064C121.047 55.376 119.951 56.408 118.559 57.16C117.167 57.912 115.599 58.288 113.855 58.288ZM113.855 54.976C114.847 54.976 115.743 54.752 116.543 54.304C117.343 53.84 117.967 53.2 118.415 52.384C118.879 51.568 119.111 50.64 119.111 49.6C119.111 48.56 118.879 47.632 118.415 46.816C117.967 46 117.343 45.368 116.543 44.92C115.743 44.456 114.847 44.224 113.855 44.224C112.863 44.224 111.967 44.456 111.167 44.92C110.367 45.368 109.735 46 109.271 46.816C108.823 47.632 108.599 48.56 108.599 49.6C108.599 50.64 108.823 51.568 109.271 52.384C109.735 53.2 110.367 53.84 111.167 54.304C111.967 54.752 112.863 54.976 113.855 54.976Z" fill="black"/>
<path d="M214.426 41.2H218.314V58H214.426V41.2ZM216.37 39.712C215.778 39.712 215.29 39.52 214.906 39.136C214.538 38.752 214.354 38.264 214.354 37.672C214.354 37.096 214.538 36.616 214.906 36.232C215.29 35.848 215.778 35.656 216.37 35.656C216.962 35.656 217.442 35.848 217.81 36.232C218.194 36.616 218.386 37.096 218.386 37.672C218.386 38.264 218.194 38.752 217.81 39.136C217.442 39.52 216.962 39.712 216.37 39.712ZM226.381 58.192C225.309 58.192 224.261 58.064 223.237 57.808C222.213 57.536 221.397 57.2 220.789 56.8L222.037 54.112C222.613 54.48 223.309 54.784 224.125 55.024C224.941 55.248 225.741 55.36 226.525 55.36C228.109 55.36 228.901 54.968 228.901 54.184C228.901 53.816 228.685 53.552 228.253 53.392C227.821 53.232 227.157 53.096 226.261 52.984C225.205 52.824 224.333 52.64 223.645 52.432C222.957 52.224 222.357 51.856 221.845 51.328C221.349 50.8 221.101 50.048 221.101 49.072C221.101 48.256 221.333 47.536 221.797 46.912C222.277 46.272 222.965 45.776 223.861 45.424C224.773 45.072 225.845 44.896 227.077 44.896C227.989 44.896 228.893 45 229.789 45.208C230.701 45.4 231.453 45.672 232.045 46.024L230.797 48.688C229.661 48.048 228.421 47.728 227.077 47.728C226.277 47.728 225.677 47.84 225.277 48.064C224.877 48.288 224.677 48.576 224.677 48.928C224.677 49.328 224.893 49.608 225.325 49.768C225.757 49.928 226.445 50.08 227.389 50.224C228.445 50.4 229.309 50.592 229.981 50.8C230.653 50.992 231.237 51.352 231.733 51.88C232.229 52.408 232.477 53.144 232.477 54.088C232.477 54.888 232.237 55.6 231.757 56.224C231.277 56.848 230.573 57.336 229.645 57.688C228.733 58.024 227.645 58.192 226.381 58.192ZM240.331 52.936L238.531 54.712V58H234.787V40.192H238.531V50.272L244.003 45.088H248.467L243.091 50.56L248.947 58H244.411L240.331 52.936ZM262.716 51.592C262.716 51.64 262.692 51.976 262.644 52.6H252.876C253.052 53.4 253.468 54.032 254.124 54.496C254.78 54.96 255.596 55.192 256.572 55.192C257.244 55.192 257.836 55.096 258.348 54.904C258.876 54.696 259.364 54.376 259.812 53.944L261.804 56.104C260.588 57.496 258.812 58.192 256.476 58.192C255.02 58.192 253.732 57.912 252.612 57.352C251.492 56.776 250.628 55.984 250.02 54.976C249.412 53.968 249.108 52.824 249.108 51.544C249.108 50.28 249.404 49.144 249.996 48.136C250.604 47.112 251.428 46.32 252.468 45.76C253.524 45.184 254.7 44.896 255.996 44.896C257.26 44.896 258.404 45.168 259.428 45.712C260.452 46.256 261.252 47.04 261.828 48.064C262.42 49.072 262.716 50.248 262.716 51.592ZM256.02 47.728C255.172 47.728 254.46 47.968 253.884 48.448C253.308 48.928 252.956 49.584 252.828 50.416H259.188C259.06 49.6 258.708 48.952 258.132 48.472C257.556 47.976 256.852 47.728 256.02 47.728ZM265.208 40.192H268.952V58H265.208V40.192ZM285.075 51.592C285.075 51.64 285.051 51.976 285.003 52.6H275.235C275.411 53.4 275.827 54.032 276.483 54.496C277.139 54.96 277.955 55.192 278.931 55.192C279.603 55.192 280.195 55.096 280.707 54.904C281.235 54.696 281.723 54.376 282.171 53.944L284.163 56.104C282.947 57.496 281.171 58.192 278.835 58.192C277.379 58.192 276.091 57.912 274.971 57.352C273.851 56.776 272.987 55.984 272.379 54.976C271.771 53.968 271.467 52.824 271.467 51.544C271.467 50.28 271.763 49.144 272.355 48.136C272.963 47.112 273.787 46.32 274.827 45.76C275.883 45.184 277.059 44.896 278.355 44.896C279.619 44.896 280.763 45.168 281.787 45.712C282.811 46.256 283.611 47.04 284.187 48.064C284.779 49.072 285.075 50.248 285.075 51.592ZM278.379 47.728C277.531 47.728 276.819 47.968 276.243 48.448C275.667 48.928 275.315 49.584 275.187 50.416H281.547C281.419 49.6 281.067 48.952 280.491 48.472C279.915 47.976 279.211 47.728 278.379 47.728ZM302.669 58.288C300.957 58.288 299.405 57.92 298.013 57.184C296.637 56.432 295.549 55.4 294.749 54.088C293.965 52.76 293.573 51.264 293.573 49.6C293.573 47.936 293.965 46.448 294.749 45.136C295.549 43.808 296.637 42.776 298.013 42.04C299.405 41.288 300.965 40.912 302.693 40.912C304.149 40.912 305.461 41.168 306.629 41.68C307.813 42.192 308.805 42.928 309.605 43.888L307.109 46.192C305.973 44.88 304.565 44.224 302.885 44.224C301.845 44.224 300.917 44.456 300.101 44.92C299.285 45.368 298.645 46 298.181 46.816C297.733 47.632 297.509 48.56 297.509 49.6C297.509 50.64 297.733 51.568 298.181 52.384C298.645 53.2 299.285 53.84 300.101 54.304C300.917 54.752 301.845 54.976 302.885 54.976C304.565 54.976 305.973 54.312 307.109 52.984L309.605 55.288C308.805 56.264 307.813 57.008 306.629 57.52C305.445 58.032 304.125 58.288 302.669 58.288ZM317.081 44.896C319.081 44.896 320.617 45.376 321.689 46.336C322.761 47.28 323.297 48.712 323.297 50.632V58H319.793V56.392C319.089 57.592 317.777 58.192 315.857 58.192C314.865 58.192 314.001 58.024 313.265 57.688C312.545 57.352 311.993 56.888 311.609 56.296C311.225 55.704 311.033 55.032 311.033 54.28C311.033 53.08 311.481 52.136 312.377 51.448C313.289 50.76 314.689 50.416 316.577 50.416H319.553C319.553 49.6 319.305 48.976 318.809 48.544C318.313 48.096 317.569 47.872 316.577 47.872C315.889 47.872 315.209 47.984 314.537 48.208C313.881 48.416 313.321 48.704 312.857 49.072L311.513 46.456C312.217 45.96 313.057 45.576 314.033 45.304C315.025 45.032 316.041 44.896 317.081 44.896ZM316.793 55.672C317.433 55.672 318.001 55.528 318.497 55.24C318.993 54.936 319.345 54.496 319.553 53.92V52.6H316.985C315.449 52.6 314.681 53.104 314.681 54.112C314.681 54.592 314.865 54.976 315.233 55.264C315.617 55.536 316.137 55.672 316.793 55.672ZM343.221 44.896C344.837 44.896 346.117 45.376 347.061 46.336C348.021 47.28 348.501 48.704 348.501 50.608V58H344.757V51.184C344.757 50.16 344.541 49.4 344.109 48.904C343.693 48.392 343.093 48.136 342.309 48.136C341.429 48.136 340.733 48.424 340.221 49C339.709 49.56 339.453 50.4 339.453 51.52V58H335.709V51.184C335.709 49.152 334.893 48.136 333.261 48.136C332.397 48.136 331.709 48.424 331.197 49C330.685 49.56 330.429 50.4 330.429 51.52V58H326.685V45.088H330.261V46.576C330.741 46.032 331.325 45.616 332.013 45.328C332.717 45.04 333.485 44.896 334.317 44.896C335.229 44.896 336.053 45.08 336.789 45.448C337.525 45.8 338.117 46.32 338.565 47.008C339.093 46.336 339.757 45.816 340.557 45.448C341.373 45.08 342.261 44.896 343.221 44.896ZM351.857 45.088H355.601V58H351.857V45.088ZM353.729 43.288C353.041 43.288 352.481 43.088 352.049 42.688C351.617 42.288 351.401 41.792 351.401 41.2C351.401 40.608 351.617 40.112 352.049 39.712C352.481 39.312 353.041 39.112 353.729 39.112C354.417 39.112 354.977 39.304 355.409 39.688C355.841 40.072 356.057 40.552 356.057 41.128C356.057 41.752 355.841 42.272 355.409 42.688C354.977 43.088 354.417 43.288 353.729 43.288ZM359.076 45.088H362.82V58H359.076V45.088ZM360.948 43.288C360.26 43.288 359.7 43.088 359.268 42.688C358.836 42.288 358.62 41.792 358.62 41.2C358.62 40.608 358.836 40.112 359.268 39.712C359.7 39.312 360.26 39.112 360.948 39.112C361.636 39.112 362.196 39.304 362.628 39.688C363.06 40.072 363.276 40.552 363.276 41.128C363.276 41.752 363.06 42.272 362.628 42.688C362.196 43.088 361.636 43.288 360.948 43.288Z" fill="black"/>
<path d="M452.243 58.288C450.531 58.288 448.979 57.92 447.587 57.184C446.211 56.432 445.123 55.4 444.323 54.088C443.539 52.76 443.147 51.264 443.147 49.6C443.147 47.936 443.539 46.448 444.323 45.136C445.123 43.808 446.211 42.776 447.587 42.04C448.979 41.288 450.539 40.912 452.267 40.912C453.723 40.912 455.035 41.168 456.203 41.68C457.387 42.192 458.379 42.928 459.179 43.888L456.683 46.192C455.547 44.88 454.139 44.224 452.459 44.224C451.419 44.224 450.491 44.456 449.675 44.92C448.859 45.368 448.219 46 447.755 46.816C447.307 47.632 447.083 48.56 447.083 49.6C447.083 50.64 447.307 51.568 447.755 52.384C448.219 53.2 448.859 53.84 449.675 54.304C450.491 54.752 451.419 54.976 452.459 54.976C454.139 54.976 455.547 54.312 456.683 52.984L459.179 55.288C458.379 56.264 457.387 57.008 456.203 57.52C455.019 58.032 453.699 58.288 452.243 58.288ZM450.947 63.568C450.531 63.568 450.123 63.52 449.723 63.424C449.323 63.344 448.987 63.224 448.715 63.064L449.291 61.456C449.803 61.696 450.323 61.816 450.851 61.816C451.683 61.816 452.099 61.56 452.099 61.048C452.099 60.584 451.707 60.352 450.923 60.352H450.107L450.731 57.808H452.723L452.387 59.2C453.091 59.28 453.611 59.496 453.947 59.848C454.299 60.216 454.475 60.664 454.475 61.192C454.475 61.928 454.155 62.504 453.515 62.92C452.875 63.352 452.019 63.568 450.947 63.568ZM466.655 44.896C468.655 44.896 470.191 45.376 471.263 46.336C472.335 47.28 472.871 48.712 472.871 50.632V58H469.367V56.392C468.663 57.592 467.351 58.192 465.431 58.192C464.439 58.192 463.575 58.024 462.839 57.688C462.119 57.352 461.567 56.888 461.183 56.296C460.799 55.704 460.607 55.032 460.607 54.28C460.607 53.08 461.055 52.136 461.951 51.448C462.863 50.76 464.263 50.416 466.151 50.416H469.127C469.127 49.6 468.879 48.976 468.383 48.544C467.887 48.096 467.143 47.872 466.151 47.872C465.463 47.872 464.783 47.984 464.111 48.208C463.455 48.416 462.895 48.704 462.431 49.072L461.087 46.456C461.791 45.96 462.631 45.576 463.607 45.304C464.599 45.032 465.615 44.896 466.655 44.896ZM466.367 55.672C467.007 55.672 467.575 55.528 468.071 55.24C468.567 54.936 468.919 54.496 469.127 53.92V52.6H466.559C465.023 52.6 464.255 53.104 464.255 54.112C464.255 54.592 464.439 54.976 464.807 55.264C465.191 55.536 465.711 55.672 466.367 55.672ZM479.835 46.792C480.283 46.168 480.883 45.696 481.635 45.376C482.403 45.056 483.283 44.896 484.275 44.896V48.352C483.859 48.32 483.579 48.304 483.435 48.304C482.363 48.304 481.523 48.608 480.915 49.216C480.307 49.808 480.003 50.704 480.003 51.904V58H476.259V45.088H479.835V46.792ZM490.892 58.192C489.82 58.192 488.772 58.064 487.748 57.808C486.724 57.536 485.908 57.2 485.3 56.8L486.548 54.112C487.124 54.48 487.82 54.784 488.636 55.024C489.452 55.248 490.252 55.36 491.036 55.36C492.62 55.36 493.412 54.968 493.412 54.184C493.412 53.816 493.196 53.552 492.764 53.392C492.332 53.232 491.668 53.096 490.772 52.984C489.716 52.824 488.844 52.64 488.156 52.432C487.468 52.224 486.868 51.856 486.356 51.328C485.86 50.8 485.612 50.048 485.612 49.072C485.612 48.256 485.844 47.536 486.308 46.912C486.788 46.272 487.476 45.776 488.372 45.424C489.284 45.072 490.356 44.896 491.588 44.896C492.5 44.896 493.404 45 494.3 45.208C495.212 45.4 495.964 45.672 496.556 46.024L495.308 48.688C494.172 48.048 492.932 47.728 491.588 47.728C490.788 47.728 490.188 47.84 489.788 48.064C489.388 48.288 489.188 48.576 489.188 48.928C489.188 49.328 489.404 49.608 489.836 49.768C490.268 49.928 490.956 50.08 491.9 50.224C492.956 50.4 493.82 50.592 494.492 50.8C495.164 50.992 495.748 51.352 496.244 51.88C496.74 52.408 496.988 53.144 496.988 54.088C496.988 54.888 496.748 55.6 496.268 56.224C495.788 56.848 495.084 57.336 494.156 57.688C493.244 58.024 492.156 58.192 490.892 58.192ZM490.292 63.568C489.876 63.568 489.468 63.52 489.068 63.424C488.668 63.344 488.332 63.224 488.06 63.064L488.636 61.456C489.148 61.696 489.668 61.816 490.196 61.816C491.028 61.816 491.444 61.56 491.444 61.048C491.444 60.584 491.052 60.352 490.268 60.352H489.452L490.076 57.808H492.068L491.732 59.2C492.436 59.28 492.956 59.496 493.292 59.848C493.644 60.216 493.82 60.664 493.82 61.192C493.82 61.928 493.5 62.504 492.86 62.92C492.22 63.352 491.364 63.568 490.292 63.568ZM499.298 45.088H503.042V58H499.298V45.088Z" fill="black"/>
<path d="M630.497 54.4H622.697L621.209 58H617.225L624.713 41.2H628.553L636.065 58H631.985L630.497 54.4ZM629.273 51.448L626.609 45.016L623.945 51.448H629.273ZM637.544 40.192H641.288V58H637.544V40.192ZM654.029 57.376C653.661 57.648 653.205 57.856 652.661 58C652.133 58.128 651.573 58.192 650.981 58.192C649.445 58.192 648.253 57.8 647.405 57.016C646.573 56.232 646.157 55.08 646.157 53.56V48.256H644.165V45.376H646.157V42.232H649.901V45.376H653.117V48.256H649.901V53.512C649.901 54.056 650.037 54.48 650.309 54.784C650.597 55.072 650.997 55.216 651.509 55.216C652.101 55.216 652.605 55.056 653.021 54.736L654.029 57.376ZM656.13 45.088H659.874V58H656.13V45.088ZM676.165 45.088L670.333 58.792C669.741 60.28 669.005 61.328 668.125 61.936C667.261 62.544 666.213 62.848 664.981 62.848C664.309 62.848 663.645 62.744 662.989 62.536C662.333 62.328 661.797 62.04 661.381 61.672L662.749 59.008C663.037 59.264 663.365 59.464 663.733 59.608C664.117 59.752 664.493 59.824 664.861 59.824C665.373 59.824 665.789 59.696 666.109 59.44C666.429 59.2 666.717 58.792 666.973 58.216L667.021 58.096L661.429 45.088H665.293L668.917 53.848L672.565 45.088H676.165ZM683.485 58.192C682.125 58.192 680.901 57.912 679.813 57.352C678.741 56.776 677.901 55.984 677.293 54.976C676.685 53.968 676.381 52.824 676.381 51.544C676.381 50.264 676.685 49.12 677.293 48.112C677.901 47.104 678.741 46.32 679.813 45.76C680.901 45.184 682.125 44.896 683.485 44.896C684.845 44.896 686.061 45.184 687.133 45.76C688.205 46.32 689.045 47.104 689.653 48.112C690.261 49.12 690.565 50.264 690.565 51.544C690.565 52.824 690.261 53.968 689.653 54.976C689.045 55.984 688.205 56.776 687.133 57.352C686.061 57.912 684.845 58.192 683.485 58.192ZM683.485 55.12C684.445 55.12 685.229 54.8 685.837 54.16C686.461 53.504 686.773 52.632 686.773 51.544C686.773 50.456 686.461 49.592 685.837 48.952C685.229 48.296 684.445 47.968 683.485 47.968C682.525 47.968 681.733 48.296 681.109 48.952C680.485 49.592 680.173 50.456 680.173 51.544C680.173 52.632 680.485 53.504 681.109 54.16C681.733 54.8 682.525 55.12 683.485 55.12ZM693.068 40.192H696.812V58H693.068V40.192Z" fill="black"/>
<path d="M801.746 49.264C802.706 49.568 803.458 50.08 804.002 50.8C804.546 51.504 804.818 52.376 804.818 53.416C804.818 54.888 804.242 56.024 803.09 56.824C801.954 57.608 800.29 58 798.098 58H789.41V41.2H797.618C799.666 41.2 801.234 41.592 802.322 42.376C803.426 43.16 803.978 44.224 803.978 45.568C803.978 46.384 803.778 47.112 803.378 47.752C802.994 48.392 802.45 48.896 801.746 49.264ZM793.274 44.128V48.088H797.138C798.098 48.088 798.826 47.92 799.322 47.584C799.818 47.248 800.066 46.752 800.066 46.096C800.066 45.44 799.818 44.952 799.322 44.632C798.826 44.296 798.098 44.128 797.138 44.128H793.274ZM797.81 55.072C798.834 55.072 799.602 54.904 800.114 54.568C800.642 54.232 800.906 53.712 800.906 53.008C800.906 51.616 799.874 50.92 797.81 50.92H793.274V55.072H797.81ZM812.706 44.896C814.706 44.896 816.242 45.376 817.314 46.336C818.386 47.28 818.922 48.712 818.922 50.632V58H815.418V56.392C814.714 57.592 813.402 58.192 811.482 58.192C810.49 58.192 809.626 58.024 808.89 57.688C808.17 57.352 807.618 56.888 807.234 56.296C806.85 55.704 806.658 55.032 806.658 54.28C806.658 53.08 807.106 52.136 808.002 51.448C808.914 50.76 810.314 50.416 812.202 50.416H815.178C815.178 49.6 814.93 48.976 814.434 48.544C813.938 48.096 813.194 47.872 812.202 47.872C811.514 47.872 810.834 47.984 810.162 48.208C809.506 48.416 808.946 48.704 808.482 49.072L807.138 46.456C807.842 45.96 808.682 45.576 809.658 45.304C810.65 45.032 811.666 44.896 812.706 44.896ZM812.418 55.672C813.058 55.672 813.626 55.528 814.122 55.24C814.618 54.936 814.97 54.496 815.178 53.92V52.6H812.61C811.074 52.6 810.306 53.104 810.306 54.112C810.306 54.592 810.49 54.976 810.858 55.264C811.242 55.536 811.762 55.672 812.418 55.672ZM830.158 44.896C831.758 44.896 833.046 45.376 834.022 46.336C835.014 47.296 835.51 48.72 835.51 50.608V58H831.766V51.184C831.766 50.16 831.542 49.4 831.094 48.904C830.646 48.392 829.998 48.136 829.15 48.136C828.206 48.136 827.454 48.432 826.894 49.024C826.334 49.6 826.054 50.464 826.054 51.616V58H822.31V40.192H826.054V46.432C826.55 45.936 827.15 45.56 827.854 45.304C828.558 45.032 829.326 44.896 830.158 44.896ZM844.112 44.896C846.112 44.896 847.648 45.376 848.72 46.336C849.792 47.28 850.328 48.712 850.328 50.632V58H846.824V56.392C846.12 57.592 844.808 58.192 842.888 58.192C841.896 58.192 841.032 58.024 840.296 57.688C839.576 57.352 839.024 56.888 838.64 56.296C838.256 55.704 838.064 55.032 838.064 54.28C838.064 53.08 838.512 52.136 839.408 51.448C840.32 50.76 841.72 50.416 843.608 50.416H846.584C846.584 49.6 846.336 48.976 845.84 48.544C845.344 48.096 844.6 47.872 843.608 47.872C842.92 47.872 842.24 47.984 841.568 48.208C840.912 48.416 840.352 48.704 839.888 49.072L838.544 46.456C839.248 45.96 840.088 45.576 841.064 45.304C842.056 45.032 843.072 44.896 844.112 44.896ZM843.824 55.672C844.464 55.672 845.032 55.528 845.528 55.24C846.024 54.936 846.376 54.496 846.584 53.92V52.6H844.016C842.48 52.6 841.712 53.104 841.712 54.112C841.712 54.592 841.896 54.976 842.264 55.264C842.648 55.536 843.168 55.672 843.824 55.672ZM857.292 46.792C857.74 46.168 858.34 45.696 859.092 45.376C859.86 45.056 860.74 44.896 861.732 44.896V48.352C861.316 48.32 861.036 48.304 860.892 48.304C859.82 48.304 858.98 48.608 858.372 49.216C857.764 49.808 857.46 50.704 857.46 51.904V58H853.716V45.088H857.292V46.792ZM863.958 45.088H867.702V58H863.958V45.088ZM865.83 43.288C865.142 43.288 864.582 43.088 864.15 42.688C863.718 42.288 863.502 41.792 863.502 41.2C863.502 40.608 863.718 40.112 864.15 39.712C864.582 39.312 865.142 39.112 865.83 39.112C866.518 39.112 867.078 39.304 867.51 39.688C867.942 40.072 868.158 40.552 868.158 41.128C868.158 41.752 867.942 42.272 867.51 42.688C867.078 43.088 866.518 43.288 865.83 43.288ZM883.993 45.088L878.161 58.792C877.569 60.28 876.833 61.328 875.953 61.936C875.089 62.544 874.041 62.848 872.809 62.848C872.137 62.848 871.473 62.744 870.817 62.536C870.161 62.328 869.625 62.04 869.209 61.672L870.577 59.008C870.865 59.264 871.193 59.464 871.561 59.608C871.945 59.752 872.321 59.824 872.689 59.824C873.201 59.824 873.617 59.696 873.937 59.44C874.257 59.2 874.545 58.792 874.801 58.216L874.849 58.096L869.257 45.088H873.121L876.745 53.848L880.393 45.088H883.993ZM897.817 51.592C897.817 51.64 897.793 51.976 897.745 52.6H887.977C888.153 53.4 888.569 54.032 889.225 54.496C889.881 54.96 890.697 55.192 891.673 55.192C892.345 55.192 892.937 55.096 893.449 54.904C893.977 54.696 894.465 54.376 894.913 53.944L896.905 56.104C895.689 57.496 893.913 58.192 891.577 58.192C890.121 58.192 888.833 57.912 887.713 57.352C886.593 56.776 885.729 55.984 885.121 54.976C884.513 53.968 884.209 52.824 884.209 51.544C884.209 50.28 884.505 49.144 885.097 48.136C885.705 47.112 886.529 46.32 887.569 45.76C888.625 45.184 889.801 44.896 891.097 44.896C892.361 44.896 893.505 45.168 894.529 45.712C895.553 46.256 896.353 47.04 896.929 48.064C897.521 49.072 897.817 50.248 897.817 51.592ZM891.121 47.728C890.273 47.728 889.561 47.968 888.985 48.448C888.409 48.928 888.057 49.584 887.929 50.416H894.289C894.161 49.6 893.809 48.952 893.233 48.472C892.657 47.976 891.953 47.728 891.121 47.728Z" fill="black"/>
<path d="M999.573 51.4L997.317 53.752V58H993.453V41.2H997.317V49.048L1004.76 41.2H1009.08L1002.12 48.688L1009.48 58H1004.95L999.573 51.4ZM1010.72 45.088H1014.46V58H1010.72V45.088ZM1012.59 43.288C1011.9 43.288 1011.34 43.088 1010.91 42.688C1010.48 42.288 1010.26 41.792 1010.26 41.2C1010.26 40.608 1010.48 40.112 1010.91 39.712C1011.34 39.312 1011.9 39.112 1012.59 39.112C1013.28 39.112 1013.84 39.304 1014.27 39.688C1014.7 40.072 1014.92 40.552 1014.92 41.128C1014.92 41.752 1014.7 42.272 1014.27 42.688C1013.84 43.088 1013.28 43.288 1012.59 43.288ZM1017.94 40.192H1021.68V58H1017.94V40.192ZM1025.16 45.088H1028.9V58H1025.16V45.088ZM1027.03 43.288C1026.34 43.288 1025.78 43.088 1025.35 42.688C1024.92 42.288 1024.7 41.792 1024.7 41.2C1024.7 40.608 1024.92 40.112 1025.35 39.712C1025.78 39.312 1026.34 39.112 1027.03 39.112C1027.72 39.112 1028.28 39.304 1028.71 39.688C1029.14 40.072 1029.36 40.552 1029.36 41.128C1029.36 41.752 1029.14 42.272 1028.71 42.688C1028.28 43.088 1027.72 43.288 1027.03 43.288ZM1036.72 58.192C1035.65 58.192 1034.6 58.064 1033.58 57.808C1032.55 57.536 1031.74 57.2 1031.13 56.8L1032.38 54.112C1032.95 54.48 1033.65 54.784 1034.46 55.024C1035.28 55.248 1036.08 55.36 1036.86 55.36C1038.45 55.36 1039.24 54.968 1039.24 54.184C1039.24 53.816 1039.02 53.552 1038.59 53.392C1038.16 53.232 1037.5 53.096 1036.6 52.984C1035.54 52.824 1034.67 52.64 1033.98 52.432C1033.3 52.224 1032.7 51.856 1032.18 51.328C1031.69 50.8 1031.44 50.048 1031.44 49.072C1031.44 48.256 1031.67 47.536 1032.14 46.912C1032.62 46.272 1033.3 45.776 1034.2 45.424C1035.11 45.072 1036.18 44.896 1037.42 44.896C1038.33 44.896 1039.23 45 1040.13 45.208C1041.04 45.4 1041.79 45.672 1042.38 46.024L1041.14 48.688C1040 48.048 1038.76 47.728 1037.42 47.728C1036.62 47.728 1036.02 47.84 1035.62 48.064C1035.22 48.288 1035.02 48.576 1035.02 48.928C1035.02 49.328 1035.23 49.608 1035.66 49.768C1036.1 49.928 1036.78 50.08 1037.73 50.224C1038.78 50.4 1039.65 50.592 1040.32 50.8C1040.99 50.992 1041.58 51.352 1042.07 51.88C1042.57 52.408 1042.82 53.144 1042.82 54.088C1042.82 54.888 1042.58 55.6 1042.1 56.224C1041.62 56.848 1040.91 57.336 1039.98 57.688C1039.07 58.024 1037.98 58.192 1036.72 58.192ZM1057.77 51.592C1057.77 51.64 1057.75 51.976 1057.7 52.6H1047.93C1048.11 53.4 1048.53 54.032 1049.18 54.496C1049.84 54.96 1050.65 55.192 1051.63 55.192C1052.3 55.192 1052.89 55.096 1053.41 54.904C1053.93 54.696 1054.42 54.376 1054.87 53.944L1056.86 56.104C1055.65 57.496 1053.87 58.192 1051.53 58.192C1050.08 58.192 1048.79 57.912 1047.67 57.352C1046.55 56.776 1045.69 55.984 1045.08 54.976C1044.47 53.968 1044.17 52.824 1044.17 51.544C1044.17 50.28 1044.46 49.144 1045.05 48.136C1045.66 47.112 1046.49 46.32 1047.53 45.76C1048.58 45.184 1049.76 44.896 1051.05 44.896C1052.32 44.896 1053.46 45.168 1054.49 45.712C1055.51 46.256 1056.31 47.04 1056.89 48.064C1057.48 49.072 1057.77 50.248 1057.77 51.592ZM1051.08 47.728C1050.23 47.728 1049.52 47.968 1048.94 48.448C1048.37 48.928 1048.01 49.584 1047.89 50.416H1054.25C1054.12 49.6 1053.77 48.952 1053.19 48.472C1052.61 47.976 1051.91 47.728 1051.08 47.728Z" fill="black"/>
<path d="M1135.4 58L1135.38 47.92L1130.43 56.224H1128.68L1123.76 48.136V58H1120.11V41.2H1123.33L1129.62 51.64L1135.81 41.2H1139L1139.05 58H1135.4ZM1148.91 58.192C1147.55 58.192 1146.33 57.912 1145.24 57.352C1144.17 56.776 1143.33 55.984 1142.72 54.976C1142.11 53.968 1141.81 52.824 1141.81 51.544C1141.81 50.264 1142.11 49.12 1142.72 48.112C1143.33 47.104 1144.17 46.32 1145.24 45.76C1146.33 45.184 1147.55 44.896 1148.91 44.896C1150.27 44.896 1151.49 45.184 1152.56 45.76C1153.63 46.32 1154.47 47.104 1155.08 48.112C1155.69 49.12 1155.99 50.264 1155.99 51.544C1155.99 52.824 1155.69 53.968 1155.08 54.976C1154.47 55.984 1153.63 56.776 1152.56 57.352C1151.49 57.912 1150.27 58.192 1148.91 58.192ZM1148.91 55.12C1149.87 55.12 1150.66 54.8 1151.27 54.16C1151.89 53.504 1152.2 52.632 1152.2 51.544C1152.2 50.456 1151.89 49.592 1151.27 48.952C1150.66 48.296 1149.87 47.968 1148.91 47.968C1147.95 47.968 1147.16 48.296 1146.54 48.952C1145.91 49.592 1145.6 50.456 1145.6 51.544C1145.6 52.632 1145.91 53.504 1146.54 54.16C1147.16 54.8 1147.95 55.12 1148.91 55.12ZM1171.65 40.192V58H1168.07V56.512C1167.15 57.632 1165.8 58.192 1164.04 58.192C1162.83 58.192 1161.72 57.92 1160.73 57.376C1159.75 56.832 1158.99 56.056 1158.43 55.048C1157.87 54.04 1157.59 52.872 1157.59 51.544C1157.59 50.216 1157.87 49.048 1158.43 48.04C1158.99 47.032 1159.75 46.256 1160.73 45.712C1161.72 45.168 1162.83 44.896 1164.04 44.896C1165.69 44.896 1166.98 45.416 1167.91 46.456V40.192H1171.65ZM1164.69 55.12C1165.63 55.12 1166.42 54.8 1167.04 54.16C1167.67 53.504 1167.98 52.632 1167.98 51.544C1167.98 50.456 1167.67 49.592 1167.04 48.952C1166.42 48.296 1165.63 47.968 1164.69 47.968C1163.73 47.968 1162.94 48.296 1162.31 48.952C1161.69 49.592 1161.38 50.456 1161.38 51.544C1161.38 52.632 1161.69 53.504 1162.31 54.16C1162.94 54.8 1163.73 55.12 1164.69 55.12ZM1180.32 44.896C1182.32 44.896 1183.86 45.376 1184.93 46.336C1186 47.28 1186.54 48.712 1186.54 50.632V58H1183.03V56.392C1182.33 57.592 1181.02 58.192 1179.1 58.192C1178.11 58.192 1177.24 58.024 1176.51 57.688C1175.79 57.352 1175.23 56.888 1174.85 56.296C1174.47 55.704 1174.27 55.032 1174.27 54.28C1174.27 53.08 1174.72 52.136 1175.62 51.448C1176.53 50.76 1177.93 50.416 1179.82 50.416H1182.79C1182.79 49.6 1182.55 48.976 1182.05 48.544C1181.55 48.096 1180.81 47.872 1179.82 47.872C1179.13 47.872 1178.45 47.984 1177.78 48.208C1177.12 48.416 1176.56 48.704 1176.1 49.072L1174.75 46.456C1175.46 45.96 1176.3 45.576 1177.27 45.304C1178.27 45.032 1179.28 44.896 1180.32 44.896ZM1180.03 55.672C1180.67 55.672 1181.24 55.528 1181.74 55.24C1182.23 54.936 1182.59 54.496 1182.79 53.92V52.6H1180.23C1178.69 52.6 1177.92 53.104 1177.92 54.112C1177.92 54.592 1178.11 54.976 1178.47 55.264C1178.86 55.536 1179.38 55.672 1180.03 55.672ZM1196.99 41.2H1200.88V58H1196.99V41.2ZM1198.93 39.712C1198.34 39.712 1197.85 39.52 1197.47 39.136C1197.1 38.752 1196.92 38.264 1196.92 37.672C1196.92 37.096 1197.1 36.616 1197.47 36.232C1197.85 35.848 1198.34 35.656 1198.93 35.656C1199.52 35.656 1200 35.848 1200.37 36.232C1200.76 36.616 1200.95 37.096 1200.95 37.672C1200.95 38.264 1200.76 38.752 1200.37 39.136C1200 39.52 1199.52 39.712 1198.93 39.712ZM1204.6 40.192H1208.34V58H1204.6V40.192ZM1217.36 52.936L1215.56 54.712V58H1211.82V40.192H1215.56V50.272L1221.03 45.088H1225.5L1220.12 50.56L1225.98 58H1221.44L1217.36 52.936ZM1233.24 58.192C1231.88 58.192 1230.66 57.912 1229.57 57.352C1228.5 56.776 1227.66 55.984 1227.05 54.976C1226.44 53.968 1226.14 52.824 1226.14 51.544C1226.14 50.264 1226.44 49.12 1227.05 48.112C1227.66 47.104 1228.5 46.32 1229.57 45.76C1230.66 45.184 1231.88 44.896 1233.24 44.896C1234.6 44.896 1235.82 45.184 1236.89 45.76C1237.96 46.32 1238.8 47.104 1239.41 48.112C1240.02 49.12 1240.32 50.264 1240.32 51.544C1240.32 52.824 1240.02 53.968 1239.41 54.976C1238.8 55.984 1237.96 56.776 1236.89 57.352C1235.82 57.912 1234.6 58.192 1233.24 58.192ZM1233.24 55.12C1234.2 55.12 1234.99 54.8 1235.6 54.16C1236.22 53.504 1236.53 52.632 1236.53 51.544C1236.53 50.456 1236.22 49.592 1235.6 48.952C1234.99 48.296 1234.2 47.968 1233.24 47.968C1232.28 47.968 1231.49 48.296 1230.87 48.952C1230.24 49.592 1229.93 50.456 1229.93 51.544C1229.93 52.632 1230.24 53.504 1230.87 54.16C1231.49 54.8 1232.28 55.12 1233.24 55.12ZM1248.37 52.936L1246.57 54.712V58H1242.83V40.192H1246.57V50.272L1252.04 45.088H1256.51L1251.13 50.56L1256.99 58H1252.45L1248.37 52.936ZM1271.44 45.088V58H1267.89V56.464C1267.4 57.024 1266.8 57.456 1266.12 57.76C1265.43 58.048 1264.68 58.192 1263.88 58.192C1262.19 58.192 1260.84 57.704 1259.85 56.728C1258.86 55.752 1258.36 54.304 1258.36 52.384V45.088H1262.11V51.832C1262.11 53.912 1262.98 54.952 1264.72 54.952C1265.62 54.952 1266.34 54.664 1266.88 54.088C1267.43 53.496 1267.7 52.624 1267.7 51.472V45.088H1271.44ZM1274.91 40.192H1278.66V58H1274.91V40.192ZM1295.14 45.088V58H1291.59V56.464C1291.09 57.024 1290.5 57.456 1289.81 57.76C1289.12 58.048 1288.38 58.192 1287.58 58.192C1285.88 58.192 1284.54 57.704 1283.55 56.728C1282.55 55.752 1282.06 54.304 1282.06 52.384V45.088H1285.8V51.832C1285.8 53.912 1286.67 54.952 1288.42 54.952C1289.31 54.952 1290.03 54.664 1290.58 54.088C1291.12 53.496 1291.39 52.624 1291.39 51.472V45.088H1295.14Z" fill="black"/>
<path d="M1374.74 58L1374.72 47.92L1369.77 56.224H1368.02L1363.1 48.136V58H1359.45V41.2H1362.67L1368.96 51.64L1375.15 41.2H1378.34L1378.39 58H1374.74ZM1388.25 58.192C1386.89 58.192 1385.67 57.912 1384.58 57.352C1383.51 56.776 1382.67 55.984 1382.06 54.976C1381.45 53.968 1381.15 52.824 1381.15 51.544C1381.15 50.264 1381.45 49.12 1382.06 48.112C1382.67 47.104 1383.51 46.32 1384.58 45.76C1385.67 45.184 1386.89 44.896 1388.25 44.896C1389.61 44.896 1390.83 45.184 1391.9 45.76C1392.97 46.32 1393.81 47.104 1394.42 48.112C1395.03 49.12 1395.33 50.264 1395.33 51.544C1395.33 52.824 1395.03 53.968 1394.42 54.976C1393.81 55.984 1392.97 56.776 1391.9 57.352C1390.83 57.912 1389.61 58.192 1388.25 58.192ZM1388.25 55.12C1389.21 55.12 1390 54.8 1390.61 54.16C1391.23 53.504 1391.54 52.632 1391.54 51.544C1391.54 50.456 1391.23 49.592 1390.61 48.952C1390 48.296 1389.21 47.968 1388.25 47.968C1387.29 47.968 1386.5 48.296 1385.88 48.952C1385.25 49.592 1384.94 50.456 1384.94 51.544C1384.94 52.632 1385.25 53.504 1385.88 54.16C1386.5 54.8 1387.29 55.12 1388.25 55.12ZM1410.99 40.192V58H1407.41V56.512C1406.49 57.632 1405.14 58.192 1403.38 58.192C1402.17 58.192 1401.06 57.92 1400.07 57.376C1399.09 56.832 1398.33 56.056 1397.77 55.048C1397.21 54.04 1396.93 52.872 1396.93 51.544C1396.93 50.216 1397.21 49.048 1397.77 48.04C1398.33 47.032 1399.09 46.256 1400.07 45.712C1401.06 45.168 1402.17 44.896 1403.38 44.896C1405.03 44.896 1406.32 45.416 1407.25 46.456V40.192H1410.99ZM1404.03 55.12C1404.97 55.12 1405.76 54.8 1406.38 54.16C1407.01 53.504 1407.32 52.632 1407.32 51.544C1407.32 50.456 1407.01 49.592 1406.38 48.952C1405.76 48.296 1404.97 47.968 1404.03 47.968C1403.07 47.968 1402.28 48.296 1401.65 48.952C1401.03 49.592 1400.72 50.456 1400.72 51.544C1400.72 52.632 1401.03 53.504 1401.65 54.16C1402.28 54.8 1403.07 55.12 1404.03 55.12ZM1419.66 44.896C1421.66 44.896 1423.2 45.376 1424.27 46.336C1425.34 47.28 1425.88 48.712 1425.88 50.632V58H1422.37V56.392C1421.67 57.592 1420.36 58.192 1418.44 58.192C1417.45 58.192 1416.58 58.024 1415.85 57.688C1415.13 57.352 1414.57 56.888 1414.19 56.296C1413.81 55.704 1413.61 55.032 1413.61 54.28C1413.61 53.08 1414.06 52.136 1414.96 51.448C1415.87 50.76 1417.27 50.416 1419.16 50.416H1422.13C1422.13 49.6 1421.89 48.976 1421.39 48.544C1420.89 48.096 1420.15 47.872 1419.16 47.872C1418.47 47.872 1417.79 47.984 1417.12 48.208C1416.46 48.416 1415.9 48.704 1415.44 49.072L1414.09 46.456C1414.8 45.96 1415.64 45.576 1416.61 45.304C1417.61 45.032 1418.62 44.896 1419.66 44.896ZM1419.37 55.672C1420.01 55.672 1420.58 55.528 1421.08 55.24C1421.57 54.936 1421.93 54.496 1422.13 53.92V52.6H1419.57C1418.03 52.6 1417.26 53.104 1417.26 54.112C1417.26 54.592 1417.45 54.976 1417.81 55.264C1418.2 55.536 1418.72 55.672 1419.37 55.672Z" fill="black"/>
<path d="M1532.6 58L1532.58 47.92L1527.63 56.224H1525.88L1520.96 48.136V58H1517.31V41.2H1520.53L1526.82 51.64L1533.01 41.2H1536.2L1536.25 58H1532.6ZM1552.98 45.088V58H1549.43V56.464C1548.93 57.024 1548.34 57.456 1547.65 57.76C1546.96 58.048 1546.22 58.192 1545.42 58.192C1543.72 58.192 1542.38 57.704 1541.39 56.728C1540.39 55.752 1539.9 54.304 1539.9 52.384V45.088H1543.64V51.832C1543.64 53.912 1544.51 54.952 1546.26 54.952C1547.15 54.952 1547.87 54.664 1548.42 54.088C1548.96 53.496 1549.23 52.624 1549.23 51.472V45.088H1552.98ZM1544 43.312C1543.52 43.312 1543.12 43.16 1542.8 42.856C1542.48 42.536 1542.32 42.136 1542.32 41.656C1542.32 41.176 1542.48 40.784 1542.8 40.48C1543.12 40.16 1543.52 40 1544 40C1544.48 40 1544.87 40.16 1545.18 40.48C1545.5 40.784 1545.66 41.176 1545.66 41.656C1545.66 42.136 1545.5 42.536 1545.18 42.856C1544.87 43.16 1544.48 43.312 1544 43.312ZM1548.85 43.312C1548.37 43.312 1547.97 43.16 1547.65 42.856C1547.35 42.536 1547.19 42.136 1547.19 41.656C1547.19 41.176 1547.35 40.784 1547.65 40.48C1547.97 40.16 1548.37 40 1548.85 40C1549.33 40 1549.73 40.16 1550.05 40.48C1550.37 40.784 1550.53 41.176 1550.53 41.656C1550.53 42.136 1550.37 42.536 1550.05 42.856C1549.73 43.16 1549.33 43.312 1548.85 43.312ZM1564.29 44.896C1565.89 44.896 1567.18 45.376 1568.16 46.336C1569.15 47.296 1569.65 48.72 1569.65 50.608V58H1565.9V51.184C1565.9 50.16 1565.68 49.4 1565.23 48.904C1564.78 48.392 1564.13 48.136 1563.29 48.136C1562.34 48.136 1561.59 48.432 1561.03 49.024C1560.47 49.6 1560.19 50.464 1560.19 51.616V58H1556.45V40.192H1560.19V46.432C1560.69 45.936 1561.29 45.56 1561.99 45.304C1562.69 45.032 1563.46 44.896 1564.29 44.896ZM1586.05 45.088V58H1582.5V56.464C1582 57.024 1581.41 57.456 1580.72 57.76C1580.03 58.048 1579.29 58.192 1578.49 58.192C1576.79 58.192 1575.45 57.704 1574.46 56.728C1573.46 55.752 1572.97 54.304 1572.97 52.384V45.088H1576.71V51.832C1576.71 53.912 1577.58 54.952 1579.33 54.952C1580.22 54.952 1580.94 54.664 1581.49 54.088C1582.03 53.496 1582.3 52.624 1582.3 51.472V45.088H1586.05ZM1577.07 43.312C1576.59 43.312 1576.19 43.16 1575.87 42.856C1575.55 42.536 1575.39 42.136 1575.39 41.656C1575.39 41.176 1575.55 40.784 1575.87 40.48C1576.19 40.16 1576.59 40 1577.07 40C1577.55 40 1577.94 40.16 1578.25 40.48C1578.57 40.784 1578.73 41.176 1578.73 41.656C1578.73 42.136 1578.57 42.536 1578.25 42.856C1577.94 43.16 1577.55 43.312 1577.07 43.312ZM1581.92 43.312C1581.44 43.312 1581.04 43.16 1580.72 42.856C1580.42 42.536 1580.26 42.136 1580.26 41.656C1580.26 41.176 1580.42 40.784 1580.72 40.48C1581.04 40.16 1581.44 40 1581.92 40C1582.4 40 1582.8 40.16 1583.12 40.48C1583.44 40.784 1583.6 41.176 1583.6 41.656C1583.6 42.136 1583.44 42.536 1583.12 42.856C1582.8 43.16 1582.4 43.312 1581.92 43.312ZM1593.09 46.792C1593.54 46.168 1594.14 45.696 1594.89 45.376C1595.66 45.056 1596.54 44.896 1597.53 44.896V48.352C1597.12 48.32 1596.84 48.304 1596.69 48.304C1595.62 48.304 1594.78 48.608 1594.17 49.216C1593.57 49.808 1593.26 50.704 1593.26 51.904V58H1589.52V45.088H1593.09V46.792ZM1612.79 40.192V58H1609.22V56.512C1608.29 57.632 1606.95 58.192 1605.19 58.192C1603.97 58.192 1602.87 57.92 1601.87 57.376C1600.9 56.832 1600.13 56.056 1599.57 55.048C1599.01 54.04 1598.73 52.872 1598.73 51.544C1598.73 50.216 1599.01 49.048 1599.57 48.04C1600.13 47.032 1600.9 46.256 1601.87 45.712C1602.87 45.168 1603.97 44.896 1605.19 44.896C1606.83 44.896 1608.12 45.416 1609.05 46.456V40.192H1612.79ZM1605.83 55.12C1606.78 55.12 1607.56 54.8 1608.19 54.16C1608.81 53.504 1609.12 52.632 1609.12 51.544C1609.12 50.456 1608.81 49.592 1608.19 48.952C1607.56 48.296 1606.78 47.968 1605.83 47.968C1604.87 47.968 1604.08 48.296 1603.46 48.952C1602.83 49.592 1602.52 50.456 1602.52 51.544C1602.52 52.632 1602.83 53.504 1603.46 54.16C1604.08 54.8 1604.87 55.12 1605.83 55.12ZM1621.47 44.896C1623.47 44.896 1625 45.376 1626.08 46.336C1627.15 47.28 1627.68 48.712 1627.68 50.632V58H1624.18V56.392C1623.48 57.592 1622.16 58.192 1620.24 58.192C1619.25 58.192 1618.39 58.024 1617.65 57.688C1616.93 57.352 1616.38 56.888 1616 56.296C1615.61 55.704 1615.42 55.032 1615.42 54.28C1615.42 53.08 1615.87 52.136 1616.76 51.448C1617.68 50.76 1619.08 50.416 1620.96 50.416H1623.94C1623.94 49.6 1623.69 48.976 1623.2 48.544C1622.7 48.096 1621.96 47.872 1620.96 47.872C1620.28 47.872 1619.6 47.984 1618.92 48.208C1618.27 48.416 1617.71 48.704 1617.24 49.072L1615.9 46.456C1616.6 45.96 1617.44 45.576 1618.42 45.304C1619.41 45.032 1620.43 44.896 1621.47 44.896ZM1621.18 55.672C1621.82 55.672 1622.39 55.528 1622.88 55.24C1623.38 54.936 1623.73 54.496 1623.94 53.92V52.6H1621.37C1619.84 52.6 1619.07 53.104 1619.07 54.112C1619.07 54.592 1619.25 54.976 1619.62 55.264C1620 55.536 1620.52 55.672 1621.18 55.672ZM1634.65 46.792C1635.1 46.168 1635.7 45.696 1636.45 45.376C1637.22 45.056 1638.1 44.896 1639.09 44.896V48.352C1638.67 48.32 1638.39 48.304 1638.25 48.304C1637.18 48.304 1636.34 48.608 1635.73 49.216C1635.12 49.808 1634.82 50.704 1634.82 51.904V58H1631.07V45.088H1634.65V46.792Z" fill="black"/>
<path d="M1673.16 41.2H1680.79C1682.62 41.2 1684.22 41.552 1685.62 42.256C1687.02 42.944 1688.11 43.92 1688.88 45.184C1689.66 46.448 1690.06 47.92 1690.06 49.6C1690.06 51.28 1689.66 52.752 1688.88 54.016C1688.11 55.28 1687.02 56.264 1685.62 56.968C1684.22 57.656 1682.62 58 1680.79 58H1673.16V41.2ZM1680.6 54.808C1682.28 54.808 1683.62 54.344 1684.61 53.416C1685.62 52.472 1686.12 51.2 1686.12 49.6C1686.12 48 1685.62 46.736 1684.61 45.808C1683.62 44.864 1682.28 44.392 1680.6 44.392H1677.05V54.808H1680.6ZM1697.93 44.896C1699.93 44.896 1701.47 45.376 1702.54 46.336C1703.61 47.28 1704.15 48.712 1704.15 50.632V58H1700.64V56.392C1699.94 57.592 1698.63 58.192 1696.71 58.192C1695.72 58.192 1694.85 58.024 1694.12 57.688C1693.4 57.352 1692.84 56.888 1692.46 56.296C1692.08 55.704 1691.88 55.032 1691.88 54.28C1691.88 53.08 1692.33 52.136 1693.23 51.448C1694.14 50.76 1695.54 50.416 1697.43 50.416H1700.4C1700.4 49.6 1700.16 48.976 1699.66 48.544C1699.16 48.096 1698.42 47.872 1697.43 47.872C1696.74 47.872 1696.06 47.984 1695.39 48.208C1694.73 48.416 1694.17 48.704 1693.71 49.072L1692.36 46.456C1693.07 45.96 1693.91 45.576 1694.88 45.304C1695.88 45.032 1696.89 44.896 1697.93 44.896ZM1697.64 55.672C1698.28 55.672 1698.85 55.528 1699.35 55.24C1699.84 54.936 1700.2 54.496 1700.4 53.92V52.6H1697.84C1696.3 52.6 1695.53 53.104 1695.53 54.112C1695.53 54.592 1695.72 54.976 1696.08 55.264C1696.47 55.536 1696.99 55.672 1697.64 55.672ZM1724.07 44.896C1725.69 44.896 1726.97 45.376 1727.91 46.336C1728.87 47.28 1729.35 48.704 1729.35 50.608V58H1725.61V51.184C1725.61 50.16 1725.39 49.4 1724.96 48.904C1724.54 48.392 1723.94 48.136 1723.16 48.136C1722.28 48.136 1721.58 48.424 1721.07 49C1720.56 49.56 1720.3 50.4 1720.3 51.52V58H1716.56V51.184C1716.56 49.152 1715.74 48.136 1714.11 48.136C1713.25 48.136 1712.56 48.424 1712.05 49C1711.54 49.56 1711.28 50.4 1711.28 51.52V58H1707.54V45.088H1711.11V46.576C1711.59 46.032 1712.18 45.616 1712.86 45.328C1713.57 45.04 1714.34 44.896 1715.17 44.896C1716.08 44.896 1716.9 45.08 1717.64 45.448C1718.38 45.8 1718.97 46.32 1719.42 47.008C1719.94 46.336 1720.61 45.816 1721.41 45.448C1722.22 45.08 1723.11 44.896 1724.07 44.896ZM1746.17 45.088V55.84C1746.17 58.208 1745.55 59.968 1744.32 61.12C1743.09 62.272 1741.29 62.848 1738.92 62.848C1737.67 62.848 1736.49 62.696 1735.37 62.392C1734.25 62.088 1733.32 61.648 1732.59 61.072L1734.07 58.384C1734.62 58.832 1735.31 59.184 1736.14 59.44C1736.97 59.712 1737.8 59.848 1738.63 59.848C1739.93 59.848 1740.88 59.552 1741.49 58.96C1742.11 58.384 1742.43 57.504 1742.43 56.32V55.768C1741.45 56.84 1740.09 57.376 1738.35 57.376C1737.16 57.376 1736.07 57.12 1735.08 56.608C1734.11 56.08 1733.33 55.344 1732.75 54.4C1732.18 53.456 1731.89 52.368 1731.89 51.136C1731.89 49.904 1732.18 48.816 1732.75 47.872C1733.33 46.928 1734.11 46.2 1735.08 45.688C1736.07 45.16 1737.16 44.896 1738.35 44.896C1740.22 44.896 1741.64 45.512 1742.62 46.744V45.088H1746.17ZM1739.09 54.304C1740.08 54.304 1740.89 54.016 1741.51 53.44C1742.15 52.848 1742.47 52.08 1742.47 51.136C1742.47 50.192 1742.15 49.432 1741.51 48.856C1740.89 48.264 1740.08 47.968 1739.09 47.968C1738.1 47.968 1737.28 48.264 1736.64 48.856C1736 49.432 1735.68 50.192 1735.68 51.136C1735.68 52.08 1736 52.848 1736.64 53.44C1737.28 54.016 1738.1 54.304 1739.09 54.304ZM1754.86 44.896C1756.86 44.896 1758.4 45.376 1759.47 46.336C1760.54 47.28 1761.08 48.712 1761.08 50.632V58H1757.57V56.392C1756.87 57.592 1755.56 58.192 1753.64 58.192C1752.65 58.192 1751.78 58.024 1751.05 57.688C1750.33 57.352 1749.77 56.888 1749.39 56.296C1749.01 55.704 1748.81 55.032 1748.81 54.28C1748.81 53.08 1749.26 52.136 1750.16 51.448C1751.07 50.76 1752.47 50.416 1754.36 50.416H1757.33C1757.33 49.6 1757.09 48.976 1756.59 48.544C1756.09 48.096 1755.35 47.872 1754.36 47.872C1753.67 47.872 1752.99 47.984 1752.32 48.208C1751.66 48.416 1751.1 48.704 1750.64 49.072L1749.29 46.456C1750 45.96 1750.84 45.576 1751.81 45.304C1752.81 45.032 1753.82 44.896 1754.86 44.896ZM1754.57 55.672C1755.21 55.672 1755.78 55.528 1756.28 55.24C1756.77 54.936 1757.13 54.496 1757.33 53.92V52.6H1754.77C1753.23 52.6 1752.46 53.104 1752.46 54.112C1752.46 54.592 1752.65 54.976 1753.01 55.264C1753.4 55.536 1753.92 55.672 1754.57 55.672ZM1777.05 58.288C1775.72 58.288 1774.43 58.112 1773.18 57.76C1771.95 57.392 1770.96 56.92 1770.21 56.344L1771.53 53.416C1772.25 53.944 1773.1 54.368 1774.1 54.688C1775.09 55.008 1776.08 55.168 1777.07 55.168C1778.18 55.168 1778.99 55.008 1779.52 54.688C1780.05 54.352 1780.31 53.912 1780.31 53.368C1780.31 52.968 1780.15 52.64 1779.83 52.384C1779.53 52.112 1779.13 51.896 1778.63 51.736C1778.15 51.576 1777.5 51.4 1776.66 51.208C1775.38 50.904 1774.34 50.6 1773.52 50.296C1772.7 49.992 1772 49.504 1771.41 48.832C1770.83 48.16 1770.54 47.264 1770.54 46.144C1770.54 45.168 1770.81 44.288 1771.34 43.504C1771.86 42.704 1772.66 42.072 1773.71 41.608C1774.78 41.144 1776.09 40.912 1777.62 40.912C1778.7 40.912 1779.74 41.04 1780.77 41.296C1781.79 41.552 1782.69 41.92 1783.46 42.4L1782.26 45.352C1780.7 44.472 1779.15 44.032 1777.6 44.032C1776.51 44.032 1775.7 44.208 1775.18 44.56C1774.66 44.912 1774.41 45.376 1774.41 45.952C1774.41 46.528 1774.7 46.96 1775.3 47.248C1775.9 47.52 1776.82 47.792 1778.06 48.064C1779.34 48.368 1780.38 48.672 1781.2 48.976C1782.02 49.28 1782.71 49.76 1783.29 50.416C1783.88 51.072 1784.18 51.96 1784.18 53.08C1784.18 54.04 1783.9 54.92 1783.36 55.72C1782.83 56.504 1782.03 57.128 1780.96 57.592C1779.89 58.056 1778.58 58.288 1777.05 58.288ZM1792.71 58.192C1791.35 58.192 1790.13 57.912 1789.04 57.352C1787.97 56.776 1787.13 55.984 1786.52 54.976C1785.91 53.968 1785.61 52.824 1785.61 51.544C1785.61 50.264 1785.91 49.12 1786.52 48.112C1787.13 47.104 1787.97 46.32 1789.04 45.76C1790.13 45.184 1791.35 44.896 1792.71 44.896C1794.07 44.896 1795.29 45.184 1796.36 45.76C1797.43 46.32 1798.27 47.104 1798.88 48.112C1799.49 49.12 1799.79 50.264 1799.79 51.544C1799.79 52.824 1799.49 53.968 1798.88 54.976C1798.27 55.984 1797.43 56.776 1796.36 57.352C1795.29 57.912 1794.07 58.192 1792.71 58.192ZM1792.71 55.12C1793.67 55.12 1794.46 54.8 1795.06 54.16C1795.69 53.504 1796 52.632 1796 51.544C1796 50.456 1795.69 49.592 1795.06 48.952C1794.46 48.296 1793.67 47.968 1792.71 47.968C1791.75 47.968 1790.96 48.296 1790.34 48.952C1789.71 49.592 1789.4 50.456 1789.4 51.544C1789.4 52.632 1789.71 53.504 1790.34 54.16C1790.96 54.8 1791.75 55.12 1792.71 55.12ZM1807.84 52.936L1806.04 54.712V58H1802.29V40.192H1806.04V50.272L1811.51 45.088H1815.97L1810.6 50.56L1816.45 58H1811.92L1807.84 52.936ZM1823.11 44.896C1825.11 44.896 1826.65 45.376 1827.72 46.336C1828.79 47.28 1829.33 48.712 1829.33 50.632V58H1825.82V56.392C1825.12 57.592 1823.81 58.192 1821.89 58.192C1820.9 58.192 1820.03 58.024 1819.3 57.688C1818.58 57.352 1818.02 56.888 1817.64 56.296C1817.26 55.704 1817.06 55.032 1817.06 54.28C1817.06 53.08 1817.51 52.136 1818.41 51.448C1819.32 50.76 1820.72 50.416 1822.61 50.416H1825.58C1825.58 49.6 1825.34 48.976 1824.84 48.544C1824.34 48.096 1823.6 47.872 1822.61 47.872C1821.92 47.872 1821.24 47.984 1820.57 48.208C1819.91 48.416 1819.35 48.704 1818.89 49.072L1817.54 46.456C1818.25 45.96 1819.09 45.576 1820.06 45.304C1821.06 45.032 1822.07 44.896 1823.11 44.896ZM1822.82 55.672C1823.46 55.672 1824.03 55.528 1824.53 55.24C1825.02 54.936 1825.38 54.496 1825.58 53.92V52.6H1823.02C1821.48 52.6 1820.71 53.104 1820.71 54.112C1820.71 54.592 1820.9 54.976 1821.26 55.264C1821.65 55.536 1822.17 55.672 1822.82 55.672ZM1838.26 52.936L1836.46 54.712V58H1832.72V40.192H1836.46V50.272L1841.93 45.088H1846.4L1841.02 50.56L1846.88 58H1842.34L1838.26 52.936Z" fill="black"/>
<path d="M1901.48 22.4L1899.22 24.752V29H1895.36V12.2H1899.22V20.048L1906.66 12.2H1910.98L1904.02 19.688L1911.39 29H1906.85L1901.48 22.4ZM1917.78 15.896C1919.78 15.896 1921.32 16.376 1922.39 17.336C1923.46 18.28 1924 19.712 1924 21.632V29H1920.5V27.392C1919.79 28.592 1918.48 29.192 1916.56 29.192C1915.57 29.192 1914.7 29.024 1913.97 28.688C1913.25 28.352 1912.7 27.888 1912.31 27.296C1911.93 26.704 1911.74 26.032 1911.74 25.28C1911.74 24.08 1912.18 23.136 1913.08 22.448C1913.99 21.76 1915.39 21.416 1917.28 21.416H1920.26C1920.26 20.6 1920.01 19.976 1919.51 19.544C1919.02 19.096 1918.27 18.872 1917.28 18.872C1916.59 18.872 1915.91 18.984 1915.24 19.208C1914.58 19.416 1914.02 19.704 1913.56 20.072L1912.22 17.456C1912.92 16.96 1913.76 16.576 1914.74 16.304C1915.73 16.032 1916.74 15.896 1917.78 15.896ZM1917.5 26.672C1918.14 26.672 1918.7 26.528 1919.2 26.24C1919.7 25.936 1920.05 25.496 1920.26 24.92V23.6H1917.69C1916.15 23.6 1915.38 24.104 1915.38 25.112C1915.38 25.592 1915.57 25.976 1915.94 26.264C1916.32 26.536 1916.84 26.672 1917.5 26.672ZM1940.68 11.192V29H1937.1V27.512C1936.18 28.632 1934.83 29.192 1933.07 29.192C1931.86 29.192 1930.75 28.92 1929.76 28.376C1928.78 27.832 1928.02 27.056 1927.46 26.048C1926.9 25.04 1926.62 23.872 1926.62 22.544C1926.62 21.216 1926.9 20.048 1927.46 19.04C1928.02 18.032 1928.78 17.256 1929.76 16.712C1930.75 16.168 1931.86 15.896 1933.07 15.896C1934.72 15.896 1936.01 16.416 1936.94 17.456V11.192H1940.68ZM1933.72 26.12C1934.66 26.12 1935.45 25.8 1936.07 25.16C1936.7 24.504 1937.01 23.632 1937.01 22.544C1937.01 21.456 1936.7 20.592 1936.07 19.952C1935.45 19.296 1934.66 18.968 1933.72 18.968C1932.76 18.968 1931.97 19.296 1931.34 19.952C1930.72 20.592 1930.41 21.456 1930.41 22.544C1930.41 23.632 1930.72 24.504 1931.34 25.16C1931.97 25.8 1932.76 26.12 1933.72 26.12ZM1944.15 16.088H1947.89V29H1944.15V16.088ZM1956.91 23.936L1955.11 25.712V29H1951.36V11.192H1955.11V21.272L1960.58 16.088H1965.04L1959.67 21.56L1965.52 29H1960.99L1956.91 23.936ZM1972.79 29.192C1971.43 29.192 1970.21 28.912 1969.12 28.352C1968.05 27.776 1967.21 26.984 1966.6 25.976C1965.99 24.968 1965.69 23.824 1965.69 22.544C1965.69 21.264 1965.99 20.12 1966.6 19.112C1967.21 18.104 1968.05 17.32 1969.12 16.76C1970.21 16.184 1971.43 15.896 1972.79 15.896C1974.15 15.896 1975.37 16.184 1976.44 16.76C1977.51 17.32 1978.35 18.104 1978.96 19.112C1979.57 20.12 1979.87 21.264 1979.87 22.544C1979.87 23.824 1979.57 24.968 1978.96 25.976C1978.35 26.984 1977.51 27.776 1976.44 28.352C1975.37 28.912 1974.15 29.192 1972.79 29.192ZM1972.79 26.12C1973.75 26.12 1974.53 25.8 1975.14 25.16C1975.77 24.504 1976.08 23.632 1976.08 22.544C1976.08 21.456 1975.77 20.592 1975.14 19.952C1974.53 19.296 1973.75 18.968 1972.79 18.968C1971.83 18.968 1971.04 19.296 1970.41 19.952C1969.79 20.592 1969.48 21.456 1969.48 22.544C1969.48 23.632 1969.79 24.504 1970.41 25.16C1971.04 25.8 1971.83 26.12 1972.79 26.12ZM1970.32 14.312C1969.84 14.312 1969.44 14.16 1969.12 13.856C1968.8 13.536 1968.64 13.136 1968.64 12.656C1968.64 12.176 1968.8 11.784 1969.12 11.48C1969.44 11.16 1969.84 11 1970.32 11C1970.8 11 1971.19 11.16 1971.49 11.48C1971.81 11.784 1971.97 12.176 1971.97 12.656C1971.97 13.136 1971.81 13.536 1971.49 13.856C1971.19 14.16 1970.8 14.312 1970.32 14.312ZM1975.17 14.312C1974.69 14.312 1974.29 14.16 1973.97 13.856C1973.66 13.536 1973.51 13.136 1973.51 12.656C1973.51 12.176 1973.66 11.784 1973.97 11.48C1974.29 11.16 1974.69 11 1975.17 11C1975.65 11 1976.05 11.16 1976.37 11.48C1976.69 11.784 1976.85 12.176 1976.85 12.656C1976.85 13.136 1976.69 13.536 1976.37 13.856C1976.05 14.16 1975.65 14.312 1975.17 14.312ZM1994.84 16.088L1989 29.792C1988.41 31.28 1987.68 32.328 1986.8 32.936C1985.93 33.544 1984.88 33.848 1983.65 33.848C1982.98 33.848 1982.32 33.744 1981.66 33.536C1981 33.328 1980.47 33.04 1980.05 32.672L1981.42 30.008C1981.71 30.264 1982.04 30.464 1982.4 30.608C1982.79 30.752 1983.16 30.824 1983.53 30.824C1984.04 30.824 1984.46 30.696 1984.78 30.44C1985.1 30.2 1985.39 29.792 1985.64 29.216L1985.69 29.096L1980.1 16.088H1983.96L1987.59 24.848L1991.24 16.088H1994.84ZM1922.02 41.2H1925.9V58H1922.02V41.2ZM1923.96 39.712C1923.37 39.712 1922.88 39.52 1922.5 39.136C1922.13 38.752 1921.94 38.264 1921.94 37.672C1921.94 37.096 1922.13 36.616 1922.5 36.232C1922.88 35.848 1923.37 35.656 1923.96 35.656C1924.55 35.656 1925.03 35.848 1925.4 36.232C1925.78 36.616 1925.98 37.096 1925.98 37.672C1925.98 38.264 1925.78 38.752 1925.4 39.136C1925.03 39.52 1924.55 39.712 1923.96 39.712ZM1929.89 41.2H1937.52C1939.35 41.2 1940.95 41.552 1942.35 42.256C1943.75 42.944 1944.84 43.92 1945.61 45.184C1946.39 46.448 1946.79 47.92 1946.79 49.6C1946.79 51.28 1946.39 52.752 1945.61 54.016C1944.84 55.28 1943.75 56.264 1942.35 56.968C1940.95 57.656 1939.35 58 1937.52 58H1929.89V41.2ZM1937.33 54.808C1939.01 54.808 1940.35 54.344 1941.34 53.416C1942.35 52.472 1942.85 51.2 1942.85 49.6C1942.85 48 1942.35 46.736 1941.34 45.808C1940.35 44.864 1939.01 44.392 1937.33 44.392H1933.78V54.808H1937.33ZM1957.85 58.288C1956.11 58.288 1954.53 57.912 1953.13 57.16C1951.73 56.408 1950.64 55.376 1949.84 54.064C1949.05 52.736 1948.66 51.248 1948.66 49.6C1948.66 47.952 1949.05 46.472 1949.84 45.16C1950.64 43.832 1951.73 42.792 1953.13 42.04C1954.53 41.288 1956.11 40.912 1957.85 40.912C1959.6 40.912 1961.17 41.288 1962.56 42.04C1963.95 42.792 1965.05 43.832 1965.85 45.16C1966.65 46.472 1967.05 47.952 1967.05 49.6C1967.05 51.248 1966.65 52.736 1965.85 54.064C1965.05 55.376 1963.95 56.408 1962.56 57.16C1961.17 57.912 1959.6 58.288 1957.85 58.288ZM1957.85 54.976C1958.85 54.976 1959.74 54.752 1960.54 54.304C1961.34 53.84 1961.97 53.2 1962.41 52.384C1962.88 51.568 1963.11 50.64 1963.11 49.6C1963.11 48.56 1962.88 47.632 1962.41 46.816C1961.97 46 1961.34 45.368 1960.54 44.92C1959.74 44.456 1958.85 44.224 1957.85 44.224C1956.86 44.224 1955.97 44.456 1955.17 44.92C1954.37 45.368 1953.73 46 1953.27 46.816C1952.82 47.632 1952.6 48.56 1952.6 49.6C1952.6 50.64 1952.82 51.568 1953.27 52.384C1953.73 53.2 1954.37 53.84 1955.17 54.304C1955.97 54.752 1956.86 54.976 1957.85 54.976Z" fill="black"/>
<rect x="285" y="123" width="6" height="22" fill="black"/>
<rect x="655" y="123" width="6" height="22" fill="black"/>
<rect x="97" y="123" width="6" height="21" fill="black"/>
<g clip-path="url(#clip1_494_3056)">
<path d="M640 161C640.004 157.445 641.063 153.971 643.043 151.017C645.024 148.062 647.836 145.761 651.126 144.403C654.415 143.046 658.034 142.692 661.524 143.388C665.014 144.085 668.22 145.799 670.735 148.314C673.25 150.829 674.963 154.033 675.656 157.52C676.349 161.007 675.991 164.621 674.628 167.906C673.265 171.19 670.958 173.997 667.998 175.971C665.039 177.946 661.559 179 658 179C655.635 179 653.292 178.534 651.107 177.63C648.922 176.725 646.937 175.399 645.265 173.727C643.593 172.055 642.268 170.071 641.364 167.887C640.461 165.703 639.997 163.363 640 161Z" fill="#9D9D9C"/>
<path d="M656.605 156.253H652.621V154.051H663.381V156.253H659.396V167.95H656.605V156.253Z" fill="white"/>
</g>
<circle cx="1944" cy="100" r="24" fill="black"/>
<ellipse cx="1944" cy="99.9939" rx="19.2" ry="19.2" fill="white"/>
<rect x="1941" y="123" width="6" height="22" fill="black"/>
<g clip-path="url(#clip2_494_3056)">
<path d="M1944 179.025C1940.43 179.032 1936.94 177.981 1933.97 176.006C1931 174.031 1928.68 171.221 1927.31 167.93C1925.94 164.639 1925.58 161.016 1926.27 157.52C1926.96 154.024 1928.68 150.811 1931.2 148.288C1933.72 145.766 1936.93 144.047 1940.43 143.349C1943.93 142.651 1947.56 143.005 1950.86 144.368C1954.16 145.73 1956.97 148.039 1958.96 151.002C1960.94 153.965 1962 157.448 1962 161.012C1962 165.784 1960.1 170.36 1956.73 173.737C1953.36 177.114 1948.78 179.016 1944 179.025Z" fill="#E81F76"/>
<path d="M1932.28 155.168H1936.02L1938.8 164.01H1938.83L1941.61 155.168H1945.35V166.832H1943.11V157.205H1943.08L1939.94 166.832H1937.69L1934.55 157.205L1934.52 157.24V166.832H1932.28V155.168Z" fill="white"/>
<path d="M1946.98 162.514L1951.34 155.164H1954.25V162.669H1955.75V164.41H1954.25V166.832H1952.01V164.41H1947L1946.98 162.514ZM1951.99 162.664V157.605H1951.96L1949.08 162.669L1951.99 162.664Z" fill="white"/>
</g>
<g clip-path="url(#clip3_494_3056)">
<path d="M99.9998 179.025C96.4313 179.032 92.941 177.981 89.9705 176.006C87.0001 174.031 84.683 171.221 83.3126 167.93C81.9422 164.639 81.58 161.016 82.272 157.52C82.9639 154.024 84.6788 150.811 87.1996 148.288C89.7205 145.766 92.934 144.047 96.4334 143.349C99.9328 142.651 103.561 143.005 106.858 144.368C110.156 145.73 112.975 148.039 114.958 151.002C116.941 153.965 118 157.448 118 161.012C118 165.784 116.105 170.36 112.73 173.737C109.355 177.114 104.777 179.016 99.9998 179.025Z" fill="#E81F76"/>
<path d="M88.2773 155.168H92.0246L94.8 164.01H94.8301L97.6055 155.168H101.348V166.832H99.1084V157.205H99.0783L95.9372 166.832H93.6929L90.5518 157.205L90.5167 157.24V166.832H88.2773V155.168Z" fill="white"/>
<path d="M102.98 162.514L107.344 155.164H110.25V162.669H111.753V164.41H110.25V166.832H108.01V164.41H103.001L102.98 162.514ZM107.99 162.664V157.605H107.96L105.085 162.669L107.99 162.664Z" fill="white"/>
</g>
<g clip-path="url(#clip4_494_3056)">
<path d="M288 179.025C284.431 179.032 280.941 177.981 277.971 176.006C275 174.031 272.683 171.221 271.313 167.93C269.942 164.639 269.58 161.016 270.272 157.52C270.964 154.024 272.679 150.811 275.2 148.288C277.72 145.766 280.934 144.047 284.433 143.349C287.933 142.651 291.561 143.005 294.858 144.368C298.156 145.73 300.975 148.039 302.958 151.002C304.941 153.965 306 157.448 306 161.012C306 165.784 304.105 170.36 300.73 173.737C297.355 177.114 292.777 179.016 288 179.025Z" fill="#E81F76"/>
<path d="M276.277 155.168H280.025L282.8 164.01H282.83L285.605 155.168H289.348V166.832H287.108V157.205H287.078L283.937 166.832H281.693L278.552 157.205L278.517 157.24V166.832H276.277V155.168Z" fill="white"/>
<path d="M290.98 162.514L295.344 155.164H298.25V162.669H299.753V164.41H298.25V166.832H296.01V164.41H291.001L290.98 162.514ZM295.99 162.664V157.605H295.96L293.085 162.669L295.99 162.664Z" fill="white"/>
</g>
</g>
<defs>
<clipPath id="clip0_494_3056">
<rect width="2044" height="200" fill="white"/>
</clipPath>
<clipPath id="clip1_494_3056">
<rect width="36" height="36" fill="white" transform="translate(640 143)"/>
</clipPath>
<clipPath id="clip2_494_3056">
<rect width="36" height="36" fill="white" transform="translate(1926 143)"/>
</clipPath>
<clipPath id="clip3_494_3056">
<rect width="36" height="36" fill="white" transform="translate(82 143)"/>
</clipPath>
<clipPath id="clip4_494_3056">
<rect width="36" height="36" fill="white" transform="translate(270 143)"/>
</clipPath>
</defs>
</svg>
