<svg id="Layer_1" data-name="Layer 1" xmlns="http://www.w3.org/2000/svg" viewBox="0 0 71.45 71.54"><defs><style>.cls-1{fill:#9b552b;}.cls-2{fill:#fff;}</style></defs><path class="cls-1" d="M35.73,71.54A35.77,35.77,0,1,1,71.45,35.77,35.79,35.79,0,0,1,35.73,71.54"/><polygon class="cls-2" points="23.44 27.39 16.44 27.39 16.44 23.54 35.34 23.54 35.34 27.39 28.34 27.39 28.34 48 23.44 48 23.44 27.39"/><path class="cls-2" d="M37.49,43.45a14.83,14.83,0,0,0,5.43,1.12c2,0,5.14-1,5.14-3.47,0-2.88-2.27-3.82-5.39-3.82H40.29V33.42h2.24c3.3,0,5.43-1.09,5.43-3.22,0-2.46-2-3.23-4.2-3.23a12.32,12.32,0,0,0-5.5,1.3L38,24.34a18.86,18.86,0,0,1,6.83-1.22c3,0,8,1.05,8,6.27,0,3.33-2.06,4.91-4.55,5.85v.07c3.12.43,4.65,2.84,4.65,5.82,0,5.82-5.28,7.29-9.34,7.29a25.12,25.12,0,0,1-6.41-.8Z"/></svg>