<svg width="1296" height="180" viewBox="0 0 1296 180" fill="none" xmlns="http://www.w3.org/2000/svg">
<rect x="226" y="105" width="120" height="30" fill="#D9D9D9"/>
<path d="M248.07 125V113.105H243.822V110.684H255.199V113.105H250.961V125H248.07ZM270.5 125H267.355L266.105 121.748H260.383L259.201 125H256.135L261.711 110.684H264.768L270.5 125ZM265.178 119.336L263.205 114.023L261.271 119.336H265.178ZM274.082 125V110.684H276.973V117.041L282.812 110.684H286.699L281.309 116.26L286.992 125H283.252L279.316 118.281L276.973 120.674V125H274.082ZM289.764 120.342L292.576 120.068C292.745 121.012 293.087 121.706 293.602 122.148C294.122 122.591 294.822 122.812 295.701 122.812C296.632 122.812 297.332 122.617 297.801 122.227C298.276 121.829 298.514 121.367 298.514 120.84C298.514 120.501 298.413 120.215 298.211 119.98C298.016 119.74 297.671 119.531 297.176 119.355C296.837 119.238 296.066 119.03 294.861 118.73C293.312 118.346 292.225 117.874 291.6 117.314C290.721 116.527 290.281 115.566 290.281 114.434C290.281 113.704 290.486 113.024 290.896 112.393C291.313 111.755 291.909 111.27 292.684 110.938C293.465 110.605 294.406 110.439 295.506 110.439C297.303 110.439 298.654 110.833 299.559 111.621C300.47 112.409 300.949 113.46 300.994 114.775L298.104 114.902C297.98 114.167 297.713 113.639 297.303 113.32C296.899 112.995 296.29 112.832 295.477 112.832C294.637 112.832 293.979 113.005 293.504 113.35C293.198 113.571 293.045 113.867 293.045 114.238C293.045 114.577 293.188 114.867 293.475 115.107C293.839 115.413 294.725 115.732 296.131 116.064C297.537 116.396 298.576 116.742 299.246 117.1C299.923 117.451 300.451 117.936 300.828 118.555C301.212 119.167 301.404 119.925 301.404 120.83C301.404 121.65 301.176 122.419 300.721 123.135C300.265 123.851 299.62 124.385 298.787 124.736C297.954 125.081 296.915 125.254 295.672 125.254C293.862 125.254 292.472 124.837 291.502 124.004C290.532 123.164 289.952 121.943 289.764 120.342ZM305.748 125V110.684H308.639V125H305.748ZM305.855 109.863V107.266H308.551V109.863H305.855ZM313.363 125V110.684H317.689L320.287 120.449L322.855 110.684H327.191V125H324.506V113.73L321.664 125H318.881L316.049 113.73V125H313.363Z" fill="#949494"/>
<rect x="458" y="105" width="120" height="30" fill="#D9D9D9"/>
<path d="M475.15 126H472.006L470.756 122.748H465.033L463.852 126H460.785L466.361 111.684H469.418L475.15 126ZM469.828 120.336L467.855 115.023L465.922 120.336H469.828ZM485.354 120.736V118.324H491.584V124.027C490.979 124.613 490.1 125.131 488.947 125.58C487.801 126.023 486.639 126.244 485.461 126.244C483.964 126.244 482.658 125.932 481.545 125.307C480.432 124.675 479.595 123.777 479.035 122.611C478.475 121.439 478.195 120.167 478.195 118.793C478.195 117.302 478.508 115.977 479.133 114.818C479.758 113.66 480.673 112.771 481.877 112.152C482.795 111.677 483.938 111.439 485.305 111.439C487.082 111.439 488.469 111.814 489.465 112.562C490.467 113.305 491.112 114.333 491.398 115.648L488.527 116.186C488.326 115.482 487.945 114.929 487.385 114.525C486.831 114.115 486.138 113.91 485.305 113.91C484.042 113.91 483.036 114.311 482.287 115.111C481.545 115.912 481.174 117.1 481.174 118.676C481.174 120.375 481.551 121.651 482.307 122.504C483.062 123.35 484.051 123.773 485.275 123.773C485.881 123.773 486.486 123.656 487.092 123.422C487.704 123.181 488.228 122.891 488.664 122.553V120.736H485.354ZM487.189 108.07H488.527C488.449 108.956 488.137 109.652 487.59 110.16C487.049 110.661 486.346 110.912 485.48 110.912C484.615 110.912 483.908 110.661 483.361 110.16C482.821 109.652 482.512 108.956 482.434 108.07H483.771C483.817 108.533 483.98 108.884 484.26 109.125C484.54 109.359 484.947 109.477 485.48 109.477C486.014 109.477 486.421 109.359 486.701 109.125C486.981 108.884 487.144 108.533 487.189 108.07ZM509.17 126H506.025L504.775 122.748H499.053L497.871 126H494.805L500.381 111.684H503.438L509.17 126ZM503.848 120.336L501.875 115.023L499.941 120.336H503.848ZM528.697 120.736L531.5 121.625C531.07 123.188 530.354 124.35 529.352 125.111C528.355 125.867 527.089 126.244 525.553 126.244C523.652 126.244 522.089 125.596 520.865 124.301C519.641 122.999 519.029 121.221 519.029 118.969C519.029 116.586 519.645 114.737 520.875 113.422C522.105 112.1 523.723 111.439 525.729 111.439C527.48 111.439 528.902 111.957 529.996 112.992C530.647 113.604 531.135 114.483 531.461 115.629L528.6 116.312C528.43 115.57 528.076 114.984 527.535 114.555C527.001 114.125 526.35 113.91 525.582 113.91C524.521 113.91 523.658 114.291 522.994 115.053C522.337 115.814 522.008 117.048 522.008 118.754C522.008 120.564 522.333 121.853 522.984 122.621C523.635 123.389 524.482 123.773 525.523 123.773C526.292 123.773 526.952 123.529 527.506 123.041C528.059 122.553 528.456 121.785 528.697 120.736ZM548.9 126H545.756L544.506 122.748H538.783L537.602 126H534.535L540.111 111.684H543.168L548.9 126ZM543.578 120.336L541.605 115.023L539.672 120.336H543.578ZM552.404 126V111.684H556.73L559.328 121.449L561.896 111.684H566.232V126H563.547V114.73L560.705 126H557.922L555.09 114.73V126H552.404ZM571.016 126V111.684H573.906V126H571.016ZM571.123 110.863V108.266H573.818V110.863H571.123Z" fill="#949494"/>
<rect x="708" y="105" width="120" height="30" fill="#D9D9D9"/>
<path d="M723.426 120.736V118.324H729.656V124.027C729.051 124.613 728.172 125.131 727.02 125.58C725.874 126.023 724.712 126.244 723.533 126.244C722.036 126.244 720.73 125.932 719.617 125.307C718.504 124.675 717.667 123.777 717.107 122.611C716.548 121.439 716.268 120.167 716.268 118.793C716.268 117.302 716.58 115.977 717.205 114.818C717.83 113.66 718.745 112.771 719.949 112.152C720.867 111.677 722.01 111.439 723.377 111.439C725.154 111.439 726.541 111.814 727.537 112.562C728.54 113.305 729.184 114.333 729.471 115.648L726.6 116.186C726.398 115.482 726.017 114.929 725.457 114.525C724.904 114.115 724.21 113.91 723.377 113.91C722.114 113.91 721.108 114.311 720.359 115.111C719.617 115.912 719.246 117.1 719.246 118.676C719.246 120.375 719.624 121.651 720.379 122.504C721.134 123.35 722.124 123.773 723.348 123.773C723.953 123.773 724.559 123.656 725.164 123.422C725.776 123.181 726.3 122.891 726.736 122.553V120.736H723.426ZM747.242 126H744.098L742.848 122.748H737.125L735.943 126H732.877L738.453 111.684H741.51L747.242 126ZM741.92 120.336L739.947 115.023L738.014 120.336H741.92ZM750.863 126V111.801H753.754V123.588H760.941V126H750.863ZM766.75 126V114.105H762.502V111.684H773.879V114.105H769.641V126H766.75ZM777.021 121.342L779.834 121.068C780.003 122.012 780.345 122.706 780.859 123.148C781.38 123.591 782.08 123.812 782.959 123.812C783.89 123.812 784.59 123.617 785.059 123.227C785.534 122.829 785.771 122.367 785.771 121.84C785.771 121.501 785.671 121.215 785.469 120.98C785.273 120.74 784.928 120.531 784.434 120.355C784.095 120.238 783.324 120.03 782.119 119.73C780.57 119.346 779.482 118.874 778.857 118.314C777.979 117.527 777.539 116.566 777.539 115.434C777.539 114.704 777.744 114.024 778.154 113.393C778.571 112.755 779.167 112.27 779.941 111.938C780.723 111.605 781.663 111.439 782.764 111.439C784.561 111.439 785.911 111.833 786.816 112.621C787.728 113.409 788.206 114.46 788.252 115.775L785.361 115.902C785.238 115.167 784.971 114.639 784.561 114.32C784.157 113.995 783.548 113.832 782.734 113.832C781.895 113.832 781.237 114.005 780.762 114.35C780.456 114.571 780.303 114.867 780.303 115.238C780.303 115.577 780.446 115.867 780.732 116.107C781.097 116.413 781.982 116.732 783.389 117.064C784.795 117.396 785.833 117.742 786.504 118.1C787.181 118.451 787.708 118.936 788.086 119.555C788.47 120.167 788.662 120.925 788.662 121.83C788.662 122.65 788.434 123.419 787.979 124.135C787.523 124.851 786.878 125.385 786.045 125.736C785.212 126.081 784.173 126.254 782.93 126.254C781.12 126.254 779.73 125.837 778.76 125.004C777.79 124.164 777.21 122.943 777.021 121.342ZM793.104 126V111.684H799.188C800.717 111.684 801.827 111.814 802.518 112.074C803.214 112.328 803.771 112.784 804.188 113.441C804.604 114.099 804.812 114.851 804.812 115.697C804.812 116.771 804.497 117.66 803.865 118.363C803.234 119.06 802.29 119.499 801.033 119.682C801.658 120.046 802.173 120.447 802.576 120.883C802.986 121.319 803.536 122.094 804.227 123.207L805.975 126H802.518L800.428 122.885C799.686 121.771 799.178 121.072 798.904 120.785C798.631 120.492 798.341 120.294 798.035 120.189C797.729 120.079 797.244 120.023 796.58 120.023H795.994V126H793.104ZM795.994 117.738H798.133C799.52 117.738 800.385 117.68 800.73 117.562C801.076 117.445 801.346 117.243 801.541 116.957C801.736 116.671 801.834 116.312 801.834 115.883C801.834 115.401 801.704 115.014 801.443 114.721C801.189 114.421 800.828 114.232 800.359 114.154C800.125 114.122 799.422 114.105 798.25 114.105H795.994V117.738ZM812.564 126V119.975L807.32 111.684H810.709L814.078 117.348L817.379 111.684H820.709L815.445 119.994V126H812.564Z" fill="#949494"/>
<rect x="958" y="105" width="120" height="30" fill="#D9D9D9"/>
<path d="M985.328 126V114.105H981.08V111.684H992.457V114.105H988.219V126H985.328ZM996.312 111.684H999.203V119.438C999.203 120.668 999.239 121.465 999.311 121.83C999.434 122.416 999.727 122.888 1000.19 123.246C1000.66 123.598 1001.3 123.773 1002.1 123.773C1002.92 123.773 1003.54 123.607 1003.96 123.275C1004.38 122.937 1004.63 122.523 1004.71 122.035C1004.8 121.547 1004.84 120.736 1004.84 119.604V111.684H1007.73V119.203C1007.73 120.922 1007.65 122.136 1007.49 122.846C1007.34 123.555 1007.05 124.154 1006.62 124.643C1006.21 125.131 1005.65 125.521 1004.95 125.814C1004.24 126.101 1003.32 126.244 1002.19 126.244C1000.82 126.244 999.786 126.088 999.076 125.775C998.373 125.456 997.816 125.046 997.406 124.545C996.996 124.037 996.726 123.507 996.596 122.953C996.407 122.133 996.312 120.922 996.312 119.32V111.684ZM998.773 110.863V108.51H1001.13V110.863H998.773ZM1002.97 110.863V108.51H1005.34V110.863H1002.97ZM1012.81 126V111.684H1015.63L1021.49 121.244V111.684H1024.17V126H1021.27L1015.5 116.664V126H1012.81ZM1029.24 126V111.684H1039.85V114.105H1032.13V117.279H1039.32V119.691H1032.13V123.588H1040.13V126H1029.24ZM1044.66 126V111.801H1047.55V123.588H1054.73V126H1044.66Z" fill="#949494"/>
<line x1="372.536" y1="91.4645" x2="400.466" y2="119.395" stroke="#949494" stroke-width="10"/>
<line x1="399" y1="150.139" x2="399" y2="115.869" stroke="#949494" stroke-width="10"/>
<line x1="381" y1="150.139" x2="381" y2="101.889" stroke="#949494" stroke-width="10"/>
<line x1="115.35" y1="34.6396" x2="165.35" y2="34.6396" stroke="#949494" stroke-width="10"/>
<line x1="691" y1="50" x2="845" y2="50" stroke="#949494" stroke-width="10"/>
<line x1="216" y1="89" x2="1216" y2="89" stroke="#949494" stroke-width="10"/>
<line x1="115.35" y1="145.36" x2="165.35" y2="145.36" stroke="#949494" stroke-width="10"/>
<line x1="1127" y1="109" x2="1158" y2="109" stroke="#949494" stroke-width="10"/>
<line x1="83.5345" y1="68.5348" x2="118.89" y2="33.1794" stroke="#949494" stroke-width="10"/>
<line x1="161.814" y1="146.814" x2="218.383" y2="90.2455" stroke="#949494" stroke-width="10"/>
<line x1="653.464" y1="89.4645" x2="694.477" y2="48.4523" stroke="#949494" stroke-width="10"/>
<line x1="1154.46" y1="110.464" x2="1174.97" y2="89.9584" stroke="#949494" stroke-width="10"/>
<line x1="841.436" y1="48.5641" x2="882.448" y2="89.5763" stroke="#949494" stroke-width="10"/>
<line x1="83.5355" y1="111.464" x2="118.891" y2="146.82" stroke="#949494" stroke-width="10"/>
<line x1="161.816" y1="33.1842" x2="218.384" y2="89.7527" stroke="#949494" stroke-width="10"/>
<line x1="1110.54" y1="90.4645" x2="1130.55" y2="110.476" stroke="#949494" stroke-width="10"/>
<line x1="85" y1="115" x2="85" y2="65" stroke="#949494" stroke-width="10"/>
</svg>
