<svg width="1213" height="221" viewBox="0 0 1213 221" fill="none" xmlns="http://www.w3.org/2000/svg">
<rect x="147" y="51" width="120" height="30" fill="#D9D9D9"/>
<path d="M156.352 71V56.6836H159.242V63.041L165.082 56.6836H168.969L163.578 62.2598L169.262 71H165.521L161.586 64.2812L159.242 66.6738V71H156.352ZM185.676 71H182.531L181.281 67.748H175.559L174.377 71H171.311L176.887 56.6836H179.943L185.676 71ZM180.354 65.3359L178.381 60.0234L176.447 65.3359H180.354ZM189.209 56.6836H194.492C195.684 56.6836 196.592 56.7747 197.217 56.957C198.057 57.2044 198.776 57.6439 199.375 58.2754C199.974 58.9069 200.43 59.6816 200.742 60.5996C201.055 61.5111 201.211 62.6374 201.211 63.9785C201.211 65.1569 201.064 66.1725 200.771 67.0254C200.413 68.0671 199.902 68.9102 199.238 69.5547C198.737 70.043 198.06 70.4238 197.207 70.6973C196.569 70.8991 195.716 71 194.648 71H189.209V56.6836ZM192.1 59.1055V68.5879H194.258C195.065 68.5879 195.648 68.5423 196.006 68.4512C196.475 68.334 196.862 68.1354 197.168 67.8555C197.48 67.5755 197.734 67.1165 197.93 66.4785C198.125 65.834 198.223 64.9583 198.223 63.8516C198.223 62.7448 198.125 61.8952 197.93 61.3027C197.734 60.7103 197.461 60.248 197.109 59.916C196.758 59.584 196.312 59.3594 195.771 59.2422C195.368 59.151 194.577 59.1055 193.398 59.1055H192.1ZM205.584 71V56.6836H208.475V71H205.584ZM213.277 71V56.6836H216.168V63.041L222.008 56.6836H225.895L220.504 62.2598L226.188 71H222.447L218.512 64.2812L216.168 66.6738V71H213.277ZM229.105 63.9297C229.105 62.4714 229.324 61.2474 229.76 60.2578C230.085 59.5286 230.528 58.8743 231.088 58.2949C231.654 57.7155 232.273 57.2858 232.943 57.0059C233.835 56.6283 234.864 56.4395 236.029 56.4395C238.139 56.4395 239.825 57.0938 241.088 58.4023C242.357 59.7109 242.992 61.5306 242.992 63.8613C242.992 66.1725 242.364 67.9824 241.107 69.291C239.851 70.5931 238.171 71.2441 236.068 71.2441C233.939 71.2441 232.247 70.5964 230.99 69.3008C229.734 67.9987 229.105 66.2083 229.105 63.9297ZM232.084 63.832C232.084 65.4531 232.458 66.6836 233.207 67.5234C233.956 68.3568 234.906 68.7734 236.059 68.7734C237.211 68.7734 238.155 68.36 238.891 67.5332C239.633 66.6999 240.004 65.4531 240.004 63.793C240.004 62.1523 239.643 60.9284 238.92 60.1211C238.204 59.3138 237.25 58.9102 236.059 58.9102C234.867 58.9102 233.907 59.3203 233.178 60.1406C232.449 60.9544 232.084 62.1849 232.084 63.832ZM232.602 55.8633V53.5098H234.955V55.8633H232.602ZM236.801 55.8633V53.5098H239.164V55.8633H236.801ZM251.018 71V64.9746L245.773 56.6836H249.162L252.531 62.3477L255.832 56.6836H259.162L253.898 64.9941V71H251.018Z" fill="#949494"/>
<rect x="347" y="51" width="120" height="30" fill="#D9D9D9"/>
<path d="M367.234 72V57.6836H370.125V72H367.234ZM367.342 56.8633V54.2656H370.037V56.8633H367.342ZM374.156 67.3418L376.969 67.0684C377.138 68.0124 377.48 68.7057 377.994 69.1484C378.515 69.5911 379.215 69.8125 380.094 69.8125C381.025 69.8125 381.725 69.6172 382.193 69.2266C382.669 68.8294 382.906 68.3672 382.906 67.8398C382.906 67.5013 382.805 67.2148 382.604 66.9805C382.408 66.7396 382.063 66.5312 381.568 66.3555C381.23 66.2383 380.458 66.0299 379.254 65.7305C377.704 65.3464 376.617 64.8743 375.992 64.3145C375.113 63.5267 374.674 62.5664 374.674 61.4336C374.674 60.7044 374.879 60.0241 375.289 59.3926C375.706 58.7546 376.301 58.2695 377.076 57.9375C377.857 57.6055 378.798 57.4395 379.898 57.4395C381.695 57.4395 383.046 57.8333 383.951 58.6211C384.863 59.4089 385.341 60.4603 385.387 61.7754L382.496 61.9023C382.372 61.1667 382.105 60.6393 381.695 60.3203C381.292 59.9948 380.683 59.832 379.869 59.832C379.029 59.832 378.372 60.0046 377.896 60.3496C377.59 60.571 377.438 60.8672 377.438 61.2383C377.438 61.5768 377.581 61.8665 377.867 62.1074C378.232 62.4134 379.117 62.7324 380.523 63.0645C381.93 63.3965 382.968 63.7415 383.639 64.0996C384.316 64.4512 384.843 64.9362 385.221 65.5547C385.605 66.1667 385.797 66.9251 385.797 67.8301C385.797 68.6504 385.569 69.4186 385.113 70.1348C384.658 70.8509 384.013 71.3848 383.18 71.7363C382.346 72.0814 381.308 72.2539 380.064 72.2539C378.255 72.2539 376.865 71.8372 375.895 71.0039C374.924 70.1641 374.345 68.9434 374.156 67.3418ZM390.268 72V57.6836H393.158V64.041L398.998 57.6836H402.885L397.494 63.2598L403.178 72H399.438L395.502 65.2812L393.158 67.6738V72H390.268ZM406.682 72V57.6836H417.297V60.1055H409.572V63.2793H416.76V65.6914H409.572V69.5879H417.57V72H406.682ZM422.1 72V57.8008H424.99V69.5879H432.178V72H422.1ZM436.248 72V57.6836H446.863V60.1055H439.139V63.2793H446.326V65.6914H439.139V69.5879H447.137V72H436.248Z" fill="#949494"/>
<rect x="547" y="51" width="120" height="30" fill="#D9D9D9"/>
<path d="M582.482 66.7363L585.285 67.625C584.855 69.1875 584.139 70.3496 583.137 71.1113C582.141 71.8665 580.874 72.2441 579.338 72.2441C577.437 72.2441 575.874 71.5964 574.65 70.3008C573.426 68.9987 572.814 67.2214 572.814 64.9688C572.814 62.5859 573.43 60.737 574.66 59.4219C575.891 58.1003 577.508 57.4395 579.514 57.4395C581.265 57.4395 582.688 57.957 583.781 58.9922C584.432 59.6042 584.921 60.4831 585.246 61.6289L582.385 62.3125C582.215 61.5703 581.861 60.9844 581.32 60.5547C580.786 60.125 580.135 59.9102 579.367 59.9102C578.306 59.9102 577.443 60.291 576.779 61.0527C576.122 61.8145 575.793 63.0482 575.793 64.7539C575.793 66.5638 576.118 67.8529 576.77 68.6211C577.421 69.3893 578.267 69.7734 579.309 69.7734C580.077 69.7734 580.738 69.5293 581.291 69.041C581.844 68.5527 582.242 67.7845 582.482 66.7363ZM576.408 75.9355V74.7832C577.079 74.8548 577.694 74.8906 578.254 74.8906C578.833 74.8906 579.263 74.7865 579.543 74.5781C579.758 74.4219 579.865 74.2201 579.865 73.9727C579.865 73.7513 579.764 73.5592 579.562 73.3965C579.361 73.2337 579.048 73.1523 578.625 73.1523C578.208 73.1523 577.782 73.2174 577.346 73.3477L577.6 72.3809C578.107 72.2051 578.654 72.1172 579.24 72.1172C580.054 72.1172 580.673 72.2962 581.096 72.6543C581.519 73.0124 581.73 73.4486 581.73 73.9629C581.73 74.5358 581.496 75.0013 581.027 75.3594C580.396 75.8477 579.491 76.0918 578.312 76.0918C577.473 76.0918 576.838 76.0397 576.408 75.9355ZM602.686 72H599.541L598.291 68.748H592.568L591.387 72H588.32L593.896 57.6836H596.953L602.686 72ZM597.363 66.3359L595.391 61.0234L593.457 66.3359H597.363ZM606.238 72V57.6836H612.322C613.852 57.6836 614.962 57.8138 615.652 58.0742C616.349 58.3281 616.906 58.7839 617.322 59.4414C617.739 60.099 617.947 60.8509 617.947 61.6973C617.947 62.7715 617.632 63.6602 617 64.3633C616.368 65.0599 615.424 65.4993 614.168 65.6816C614.793 66.0462 615.307 66.4466 615.711 66.8828C616.121 67.319 616.671 68.0938 617.361 69.207L619.109 72H615.652L613.562 68.8848C612.82 67.7715 612.312 67.0716 612.039 66.7852C611.766 66.4922 611.476 66.2936 611.17 66.1895C610.864 66.0788 610.379 66.0234 609.715 66.0234H609.129V72H606.238ZM609.129 63.7383H611.268C612.654 63.7383 613.52 63.6797 613.865 63.5625C614.21 63.4453 614.48 63.2435 614.676 62.957C614.871 62.6706 614.969 62.3125 614.969 61.8828C614.969 61.401 614.839 61.0137 614.578 60.7207C614.324 60.4212 613.963 60.2324 613.494 60.1543C613.26 60.1217 612.557 60.1055 611.385 60.1055H609.129V63.7383ZM621.949 67.3418L624.762 67.0684C624.931 68.0124 625.273 68.7057 625.787 69.1484C626.308 69.5911 627.008 69.8125 627.887 69.8125C628.818 69.8125 629.518 69.6172 629.986 69.2266C630.462 68.8294 630.699 68.3672 630.699 67.8398C630.699 67.5013 630.598 67.2148 630.396 66.9805C630.201 66.7396 629.856 66.5312 629.361 66.3555C629.023 66.2383 628.251 66.0299 627.047 65.7305C625.497 65.3464 624.41 64.8743 623.785 64.3145C622.906 63.5267 622.467 62.5664 622.467 61.4336C622.467 60.7044 622.672 60.0241 623.082 59.3926C623.499 58.7546 624.094 58.2695 624.869 57.9375C625.65 57.6055 626.591 57.4395 627.691 57.4395C629.488 57.4395 630.839 57.8333 631.744 58.6211C632.656 59.4089 633.134 60.4603 633.18 61.7754L630.289 61.9023C630.165 61.1667 629.898 60.6393 629.488 60.3203C629.085 59.9948 628.476 59.832 627.662 59.832C626.822 59.832 626.165 60.0046 625.689 60.3496C625.383 60.571 625.23 60.8672 625.23 61.2383C625.23 61.5768 625.374 61.8665 625.66 62.1074C626.025 62.4134 626.91 62.7324 628.316 63.0645C629.723 63.3965 630.761 63.7415 631.432 64.0996C632.109 64.4512 632.636 64.9362 633.014 65.5547C633.398 66.1667 633.59 66.9251 633.59 67.8301C633.59 68.6504 633.362 69.4186 632.906 70.1348C632.451 70.8509 631.806 71.3848 630.973 71.7363C630.139 72.0814 629.101 72.2539 627.857 72.2539C626.048 72.2539 624.658 71.8372 623.688 71.0039C622.717 70.1641 622.138 68.9434 621.949 67.3418ZM625.24 75.9355V74.7832C625.911 74.8548 626.526 74.8906 627.086 74.8906C627.665 74.8906 628.095 74.7865 628.375 74.5781C628.59 74.4219 628.697 74.2201 628.697 73.9727C628.697 73.7513 628.596 73.5592 628.395 73.3965C628.193 73.2337 627.88 73.1523 627.457 73.1523C627.04 73.1523 626.614 73.2174 626.178 73.3477L626.432 72.3809C626.939 72.2051 627.486 72.1172 628.072 72.1172C628.886 72.1172 629.505 72.2962 629.928 72.6543C630.351 73.0124 630.562 73.4486 630.562 73.9629C630.562 74.5358 630.328 75.0013 629.859 75.3594C629.228 75.8477 628.323 76.0918 627.145 76.0918C626.305 76.0918 625.67 76.0397 625.24 75.9355ZM637.934 72V57.6836H640.824V72H637.934Z" fill="#949494"/>
<rect x="747" y="51" width="120" height="30" fill="#D9D9D9"/>
<path d="M773.305 72H770.16L768.91 68.748H763.188L762.006 72H758.939L764.516 57.6836H767.572L773.305 72ZM767.982 66.3359L766.01 61.0234L764.076 66.3359H767.982ZM776.926 72V57.8008H779.816V69.5879H787.004V72H776.926ZM792.812 72V60.1055H788.564V57.6836H799.941V60.1055H795.703V72H792.812ZM803.729 72V57.6836H806.619V72H803.729ZM815.143 72V65.9746L809.898 57.6836H813.287L816.656 63.3477L819.957 57.6836H823.287L818.023 65.9941V72H815.143ZM826.137 64.9297C826.137 63.4714 826.355 62.2474 826.791 61.2578C827.117 60.5286 827.559 59.8743 828.119 59.2949C828.686 58.7155 829.304 58.2858 829.975 58.0059C830.867 57.6283 831.895 57.4395 833.061 57.4395C835.17 57.4395 836.856 58.0938 838.119 59.4023C839.389 60.7109 840.023 62.5306 840.023 64.8613C840.023 67.1725 839.395 68.9824 838.139 70.291C836.882 71.5931 835.202 72.2441 833.1 72.2441C830.971 72.2441 829.278 71.5964 828.021 70.3008C826.765 68.9987 826.137 67.2083 826.137 64.9297ZM829.115 64.832C829.115 66.4531 829.49 67.6836 830.238 68.5234C830.987 69.3568 831.938 69.7734 833.09 69.7734C834.242 69.7734 835.186 69.36 835.922 68.5332C836.664 67.6999 837.035 66.4531 837.035 64.793C837.035 63.1523 836.674 61.9284 835.951 61.1211C835.235 60.3138 834.281 59.9102 833.09 59.9102C831.898 59.9102 830.938 60.3203 830.209 61.1406C829.48 61.9544 829.115 63.1849 829.115 64.832ZM844.367 72V57.8008H847.258V69.5879H854.445V72H844.367Z" fill="#949494"/>
<rect x="947" y="51" width="120" height="30" fill="#D9D9D9"/>
<path d="M949.209 57.6836H954.932C956.064 57.6836 956.908 57.7324 957.461 57.8301C958.021 57.9212 958.519 58.1165 958.955 58.416C959.398 58.7155 959.766 59.1159 960.059 59.6172C960.352 60.112 960.498 60.6686 960.498 61.2871C960.498 61.9577 960.316 62.5729 959.951 63.1328C959.593 63.6927 959.105 64.1126 958.486 64.3926C959.359 64.6465 960.029 65.0794 960.498 65.6914C960.967 66.3034 961.201 67.0228 961.201 67.8496C961.201 68.5007 961.048 69.1354 960.742 69.7539C960.443 70.3659 960.029 70.8574 959.502 71.2285C958.981 71.5931 958.337 71.8177 957.568 71.9023C957.087 71.9544 955.924 71.987 954.082 72H949.209V57.6836ZM952.1 60.0664V63.377H953.994C955.12 63.377 955.82 63.3607 956.094 63.3281C956.589 63.2695 956.976 63.1003 957.256 62.8203C957.542 62.5339 957.686 62.1595 957.686 61.6973C957.686 61.2546 957.562 60.8965 957.314 60.623C957.074 60.3431 956.712 60.1738 956.23 60.1152C955.944 60.0827 955.12 60.0664 953.76 60.0664H952.1ZM952.1 65.7598V69.5879H954.775C955.817 69.5879 956.478 69.5586 956.758 69.5C957.188 69.4219 957.536 69.2331 957.803 68.9336C958.076 68.6276 958.213 68.2207 958.213 67.7129C958.213 67.2832 958.109 66.9186 957.9 66.6191C957.692 66.3197 957.389 66.1016 956.992 65.9648C956.602 65.8281 955.749 65.7598 954.434 65.7598H952.1ZM978.562 72H975.418L974.168 68.748H968.445L967.264 72H964.197L969.773 57.6836H972.83L978.562 72ZM973.24 66.3359L971.268 61.0234L969.334 66.3359H973.24ZM982.115 72V57.6836H985.006V63.3184H990.67V57.6836H993.561V72H990.67V65.7402H985.006V72H982.115ZM1011.47 72H1008.32L1007.07 68.748H1001.35L1000.17 72H997.104L1002.68 57.6836H1005.74L1011.47 72ZM1006.15 66.3359L1004.17 61.0234L1002.24 66.3359H1006.15ZM1015.02 72V57.6836H1021.11C1022.64 57.6836 1023.75 57.8138 1024.44 58.0742C1025.13 58.3281 1025.69 58.7839 1026.11 59.4414C1026.52 60.099 1026.73 60.8509 1026.73 61.6973C1026.73 62.7715 1026.41 63.6602 1025.78 64.3633C1025.15 65.0599 1024.21 65.4993 1022.95 65.6816C1023.58 66.0462 1024.09 66.4466 1024.49 66.8828C1024.9 67.319 1025.45 68.0938 1026.14 69.207L1027.89 72H1024.44L1022.35 68.8848C1021.6 67.7715 1021.1 67.0716 1020.82 66.7852C1020.55 66.4922 1020.26 66.2936 1019.95 66.1895C1019.65 66.0788 1019.16 66.0234 1018.5 66.0234H1017.91V72H1015.02ZM1017.91 63.7383H1020.05C1021.44 63.7383 1022.3 63.6797 1022.65 63.5625C1022.99 63.4453 1023.26 63.2435 1023.46 62.957C1023.65 62.6706 1023.75 62.3125 1023.75 61.8828C1023.75 61.401 1023.62 61.0137 1023.36 60.7207C1023.11 60.4212 1022.75 60.2324 1022.28 60.1543C1022.04 60.1217 1021.34 60.1055 1020.17 60.1055H1017.91V63.7383ZM1031.38 72V57.6836H1034.27V72H1031.38ZM1031.48 56.8633V54.2656H1034.18V56.8633H1031.48ZM1042.79 72V65.9746L1037.55 57.6836H1040.94L1044.3 63.3477L1047.61 57.6836H1050.94L1045.67 65.9941V72H1042.79ZM1054.37 72V57.6836H1064.99V60.1055H1057.26V63.2793H1064.45V65.6914H1057.26V69.5879H1065.26V72H1054.37Z" fill="#949494"/>
<rect x="947" y="123" width="120" height="30" fill="#D9D9D9"/>
<path d="M971.248 144V129.684H974.139V136.041L979.979 129.684H983.865L978.475 135.26L984.158 144H980.418L976.482 137.281L974.139 139.674V144H971.248ZM987.574 144V129.684H990.465V144H987.574ZM987.682 128.863V126.266H990.377V128.863H987.682ZM995.307 144V129.801H998.197V141.588H1005.38V144H995.307ZM1009.37 144V129.684H1012.26V144H1009.37ZM1009.47 128.863V126.266H1012.17V128.863H1009.47ZM1016.29 139.342L1019.1 139.068C1019.27 140.012 1019.61 140.706 1020.13 141.148C1020.65 141.591 1021.35 141.812 1022.23 141.812C1023.16 141.812 1023.86 141.617 1024.33 141.227C1024.8 140.829 1025.04 140.367 1025.04 139.84C1025.04 139.501 1024.94 139.215 1024.74 138.98C1024.54 138.74 1024.2 138.531 1023.7 138.355C1023.36 138.238 1022.59 138.03 1021.39 137.73C1019.84 137.346 1018.75 136.874 1018.12 136.314C1017.25 135.527 1016.81 134.566 1016.81 133.434C1016.81 132.704 1017.01 132.024 1017.42 131.393C1017.84 130.755 1018.43 130.27 1019.21 129.938C1019.99 129.605 1020.93 129.439 1022.03 129.439C1023.83 129.439 1025.18 129.833 1026.08 130.621C1027 131.409 1027.47 132.46 1027.52 133.775L1024.63 133.902C1024.51 133.167 1024.24 132.639 1023.83 132.32C1023.42 131.995 1022.82 131.832 1022 131.832C1021.16 131.832 1020.5 132.005 1020.03 132.35C1019.72 132.571 1019.57 132.867 1019.57 133.238C1019.57 133.577 1019.71 133.867 1020 134.107C1020.36 134.413 1021.25 134.732 1022.66 135.064C1024.06 135.396 1025.1 135.742 1025.77 136.1C1026.45 136.451 1026.98 136.936 1027.35 137.555C1027.74 138.167 1027.93 138.925 1027.93 139.83C1027.93 140.65 1027.7 141.419 1027.25 142.135C1026.79 142.851 1026.15 143.385 1025.31 143.736C1024.48 144.081 1023.44 144.254 1022.2 144.254C1020.39 144.254 1019 143.837 1018.03 143.004C1017.06 142.164 1016.48 140.943 1016.29 139.342ZM1032.36 144V129.684H1042.98V132.105H1035.25V135.279H1042.44V137.691H1035.25V141.588H1043.25V144H1032.36Z" fill="#949494"/>
<rect x="747" y="123" width="120" height="30" fill="#D9D9D9"/>
<path d="M752.314 144V129.684H756.641L759.238 139.449L761.807 129.684H766.143V144H763.457V132.73L760.615 144H757.832L755 132.73V144H752.314ZM770.428 136.93C770.428 135.471 770.646 134.247 771.082 133.258C771.408 132.529 771.85 131.874 772.41 131.295C772.977 130.715 773.595 130.286 774.266 130.006C775.158 129.628 776.186 129.439 777.352 129.439C779.461 129.439 781.147 130.094 782.41 131.402C783.68 132.711 784.314 134.531 784.314 136.861C784.314 139.173 783.686 140.982 782.43 142.291C781.173 143.593 779.493 144.244 777.391 144.244C775.262 144.244 773.569 143.596 772.312 142.301C771.056 140.999 770.428 139.208 770.428 136.93ZM773.406 136.832C773.406 138.453 773.781 139.684 774.529 140.523C775.278 141.357 776.229 141.773 777.381 141.773C778.533 141.773 779.477 141.36 780.213 140.533C780.955 139.7 781.326 138.453 781.326 136.793C781.326 135.152 780.965 133.928 780.242 133.121C779.526 132.314 778.572 131.91 777.381 131.91C776.189 131.91 775.229 132.32 774.5 133.141C773.771 133.954 773.406 135.185 773.406 136.832ZM788.57 129.684H793.854C795.045 129.684 795.953 129.775 796.578 129.957C797.418 130.204 798.137 130.644 798.736 131.275C799.335 131.907 799.791 132.682 800.104 133.6C800.416 134.511 800.572 135.637 800.572 136.979C800.572 138.157 800.426 139.173 800.133 140.025C799.775 141.067 799.264 141.91 798.6 142.555C798.098 143.043 797.421 143.424 796.568 143.697C795.93 143.899 795.077 144 794.01 144H788.57V129.684ZM791.461 132.105V141.588H793.619C794.426 141.588 795.009 141.542 795.367 141.451C795.836 141.334 796.223 141.135 796.529 140.855C796.842 140.576 797.096 140.117 797.291 139.479C797.486 138.834 797.584 137.958 797.584 136.852C797.584 135.745 797.486 134.895 797.291 134.303C797.096 133.71 796.822 133.248 796.471 132.916C796.119 132.584 795.673 132.359 795.133 132.242C794.729 132.151 793.938 132.105 792.76 132.105H791.461ZM817.943 144H814.799L813.549 140.748H807.826L806.645 144H803.578L809.154 129.684H812.211L817.943 144ZM812.621 138.336L810.648 133.023L808.715 138.336H812.621ZM828.223 144V129.684H831.113V144H828.223ZM828.33 128.863V126.266H831.025V128.863H828.33ZM835.955 144V129.801H838.846V141.588H846.033V144H835.955ZM850.143 144V129.684H853.033V136.041L858.873 129.684H862.76L857.369 135.26L863.053 144H859.312L855.377 137.281L853.033 139.674V144H850.143Z" fill="#949494"/>
<rect x="547" y="123" width="120" height="30" fill="#D9D9D9"/>
<path d="M554.984 144V129.684H559.311L561.908 139.449L564.477 129.684H568.812V144H566.127V132.73L563.285 144H560.502L557.67 132.73V144H554.984ZM573.098 136.93C573.098 135.471 573.316 134.247 573.752 133.258C574.077 132.529 574.52 131.874 575.08 131.295C575.646 130.715 576.265 130.286 576.936 130.006C577.827 129.628 578.856 129.439 580.021 129.439C582.131 129.439 583.817 130.094 585.08 131.402C586.35 132.711 586.984 134.531 586.984 136.861C586.984 139.173 586.356 140.982 585.1 142.291C583.843 143.593 582.163 144.244 580.061 144.244C577.932 144.244 576.239 143.596 574.982 142.301C573.726 140.999 573.098 139.208 573.098 136.93ZM576.076 136.832C576.076 138.453 576.451 139.684 577.199 140.523C577.948 141.357 578.898 141.773 580.051 141.773C581.203 141.773 582.147 141.36 582.883 140.533C583.625 139.7 583.996 138.453 583.996 136.793C583.996 135.152 583.635 133.928 582.912 133.121C582.196 132.314 581.242 131.91 580.051 131.91C578.859 131.91 577.899 132.32 577.17 133.141C576.441 133.954 576.076 135.185 576.076 136.832ZM591.24 129.684H596.523C597.715 129.684 598.623 129.775 599.248 129.957C600.088 130.204 600.807 130.644 601.406 131.275C602.005 131.907 602.461 132.682 602.773 133.6C603.086 134.511 603.242 135.637 603.242 136.979C603.242 138.157 603.096 139.173 602.803 140.025C602.445 141.067 601.934 141.91 601.27 142.555C600.768 143.043 600.091 143.424 599.238 143.697C598.6 143.899 597.747 144 596.68 144H591.24V129.684ZM594.131 132.105V141.588H596.289C597.096 141.588 597.679 141.542 598.037 141.451C598.506 141.334 598.893 141.135 599.199 140.855C599.512 140.576 599.766 140.117 599.961 139.479C600.156 138.834 600.254 137.958 600.254 136.852C600.254 135.745 600.156 134.895 599.961 134.303C599.766 133.71 599.492 133.248 599.141 132.916C598.789 132.584 598.343 132.359 597.803 132.242C597.399 132.151 596.608 132.105 595.43 132.105H594.131ZM620.613 144H617.469L616.219 140.748H610.496L609.314 144H606.248L611.824 129.684H614.881L620.613 144ZM615.291 138.336L613.318 133.023L611.385 138.336H615.291ZM640.141 138.736L642.943 139.625C642.514 141.188 641.798 142.35 640.795 143.111C639.799 143.867 638.533 144.244 636.996 144.244C635.095 144.244 633.533 143.596 632.309 142.301C631.085 140.999 630.473 139.221 630.473 136.969C630.473 134.586 631.088 132.737 632.318 131.422C633.549 130.1 635.167 129.439 637.172 129.439C638.923 129.439 640.346 129.957 641.439 130.992C642.09 131.604 642.579 132.483 642.904 133.629L640.043 134.312C639.874 133.57 639.519 132.984 638.979 132.555C638.445 132.125 637.794 131.91 637.025 131.91C635.964 131.91 635.102 132.291 634.438 133.053C633.78 133.814 633.451 135.048 633.451 136.754C633.451 138.564 633.777 139.853 634.428 140.621C635.079 141.389 635.925 141.773 636.967 141.773C637.735 141.773 638.396 141.529 638.949 141.041C639.503 140.553 639.9 139.785 640.141 138.736ZM647.424 129.684H652.707C653.898 129.684 654.807 129.775 655.432 129.957C656.271 130.204 656.991 130.644 657.59 131.275C658.189 131.907 658.645 132.682 658.957 133.6C659.27 134.511 659.426 135.637 659.426 136.979C659.426 138.157 659.279 139.173 658.986 140.025C658.628 141.067 658.117 141.91 657.453 142.555C656.952 143.043 656.275 143.424 655.422 143.697C654.784 143.899 653.931 144 652.863 144H647.424V129.684ZM650.314 132.105V141.588H652.473C653.28 141.588 653.863 141.542 654.221 141.451C654.689 141.334 655.077 141.135 655.383 140.855C655.695 140.576 655.949 140.117 656.145 139.479C656.34 138.834 656.438 137.958 656.438 136.852C656.438 135.745 656.34 134.895 656.145 134.303C655.949 133.71 655.676 133.248 655.324 132.916C654.973 132.584 654.527 132.359 653.986 132.242C653.583 132.151 652.792 132.105 651.613 132.105H650.314Z" fill="#949494"/>
<rect x="347" y="123" width="120" height="30" fill="#D9D9D9"/>
<path d="M350.727 144V129.684H355.053L357.65 139.449L360.219 129.684H364.555V144H361.869V132.73L359.027 144H356.244L353.412 132.73V144H350.727ZM369.406 129.684H372.297V137.438C372.297 138.668 372.333 139.465 372.404 139.83C372.528 140.416 372.821 140.888 373.283 141.246C373.752 141.598 374.39 141.773 375.197 141.773C376.018 141.773 376.636 141.607 377.053 141.275C377.469 140.937 377.72 140.523 377.805 140.035C377.889 139.547 377.932 138.736 377.932 137.604V129.684H380.822V137.203C380.822 138.922 380.744 140.136 380.588 140.846C380.432 141.555 380.142 142.154 379.719 142.643C379.302 143.131 378.742 143.521 378.039 143.814C377.336 144.101 376.418 144.244 375.285 144.244C373.918 144.244 372.88 144.088 372.17 143.775C371.467 143.456 370.91 143.046 370.5 142.545C370.09 142.037 369.82 141.507 369.689 140.953C369.501 140.133 369.406 138.922 369.406 137.32V129.684ZM371.867 128.863V126.51H374.221V128.863H371.867ZM376.066 128.863V126.51H378.43V128.863H376.066ZM385.889 144V129.684H388.779V135.318H394.443V129.684H397.334V144H394.443V137.74H388.779V144H385.889ZM402.342 144V129.684H408.426C409.956 129.684 411.066 129.814 411.756 130.074C412.452 130.328 413.009 130.784 413.426 131.441C413.842 132.099 414.051 132.851 414.051 133.697C414.051 134.771 413.735 135.66 413.104 136.363C412.472 137.06 411.528 137.499 410.271 137.682C410.896 138.046 411.411 138.447 411.814 138.883C412.225 139.319 412.775 140.094 413.465 141.207L415.213 144H411.756L409.666 140.885C408.924 139.771 408.416 139.072 408.143 138.785C407.869 138.492 407.579 138.294 407.273 138.189C406.967 138.079 406.482 138.023 405.818 138.023H405.232V144H402.342ZM405.232 135.738H407.371C408.758 135.738 409.624 135.68 409.969 135.562C410.314 135.445 410.584 135.243 410.779 134.957C410.975 134.671 411.072 134.312 411.072 133.883C411.072 133.401 410.942 133.014 410.682 132.721C410.428 132.421 410.066 132.232 409.598 132.154C409.363 132.122 408.66 132.105 407.488 132.105H405.232V135.738ZM418.775 129.684H424.059C425.25 129.684 426.158 129.775 426.783 129.957C427.623 130.204 428.342 130.644 428.941 131.275C429.54 131.907 429.996 132.682 430.309 133.6C430.621 134.511 430.777 135.637 430.777 136.979C430.777 138.157 430.631 139.173 430.338 140.025C429.98 141.067 429.469 141.91 428.805 142.555C428.303 143.043 427.626 143.424 426.773 143.697C426.135 143.899 425.283 144 424.215 144H418.775V129.684ZM421.666 132.105V141.588H423.824C424.632 141.588 425.214 141.542 425.572 141.451C426.041 141.334 426.428 141.135 426.734 140.855C427.047 140.576 427.301 140.117 427.496 139.479C427.691 138.834 427.789 137.958 427.789 136.852C427.789 135.745 427.691 134.895 427.496 134.303C427.301 133.71 427.027 133.248 426.676 132.916C426.324 132.584 425.878 132.359 425.338 132.242C424.934 132.151 424.143 132.105 422.965 132.105H421.666ZM448.148 144H445.004L443.754 140.748H438.031L436.85 144H433.783L439.359 129.684H442.416L448.148 144ZM442.826 138.336L440.854 133.023L438.92 138.336H442.826ZM451.701 144V129.684H457.785C459.315 129.684 460.425 129.814 461.115 130.074C461.812 130.328 462.368 130.784 462.785 131.441C463.202 132.099 463.41 132.851 463.41 133.697C463.41 134.771 463.094 135.66 462.463 136.363C461.831 137.06 460.887 137.499 459.631 137.682C460.256 138.046 460.77 138.447 461.174 138.883C461.584 139.319 462.134 140.094 462.824 141.207L464.572 144H461.115L459.025 140.885C458.283 139.771 457.775 139.072 457.502 138.785C457.229 138.492 456.939 138.294 456.633 138.189C456.327 138.079 455.842 138.023 455.178 138.023H454.592V144H451.701ZM454.592 135.738H456.73C458.117 135.738 458.983 135.68 459.328 135.562C459.673 135.445 459.943 135.243 460.139 134.957C460.334 134.671 460.432 134.312 460.432 133.883C460.432 133.401 460.301 133.014 460.041 132.721C459.787 132.421 459.426 132.232 458.957 132.154C458.723 132.122 458.02 132.105 456.848 132.105H454.592V135.738Z" fill="#949494"/>
<rect x="147" y="123" width="120" height="30" fill="#D9D9D9"/>
<path d="M155.57 129.684H160.854C162.045 129.684 162.953 129.775 163.578 129.957C164.418 130.204 165.137 130.644 165.736 131.275C166.335 131.907 166.791 132.682 167.104 133.6C167.416 134.511 167.572 135.637 167.572 136.979C167.572 138.157 167.426 139.173 167.133 140.025C166.775 141.067 166.264 141.91 165.6 142.555C165.098 143.043 164.421 143.424 163.568 143.697C162.93 143.899 162.077 144 161.01 144H155.57V129.684ZM158.461 132.105V141.588H160.619C161.426 141.588 162.009 141.542 162.367 141.451C162.836 141.334 163.223 141.135 163.529 140.855C163.842 140.576 164.096 140.117 164.291 139.479C164.486 138.834 164.584 137.958 164.584 136.852C164.584 135.745 164.486 134.895 164.291 134.303C164.096 133.71 163.822 133.248 163.471 132.916C163.119 132.584 162.673 132.359 162.133 132.242C161.729 132.151 160.938 132.105 159.76 132.105H158.461ZM171.994 144V129.684H176.32L178.918 139.449L181.486 129.684H185.822V144H183.137V132.73L180.295 144H177.512L174.68 132.73V144H171.994ZM197.354 138.736V136.324H203.584V142.027C202.979 142.613 202.1 143.131 200.947 143.58C199.801 144.023 198.639 144.244 197.461 144.244C195.964 144.244 194.658 143.932 193.545 143.307C192.432 142.675 191.595 141.777 191.035 140.611C190.475 139.439 190.195 138.167 190.195 136.793C190.195 135.302 190.508 133.977 191.133 132.818C191.758 131.66 192.673 130.771 193.877 130.152C194.795 129.677 195.938 129.439 197.305 129.439C199.082 129.439 200.469 129.814 201.465 130.562C202.467 131.305 203.112 132.333 203.398 133.648L200.527 134.186C200.326 133.482 199.945 132.929 199.385 132.525C198.831 132.115 198.138 131.91 197.305 131.91C196.042 131.91 195.036 132.311 194.287 133.111C193.545 133.912 193.174 135.1 193.174 136.676C193.174 138.375 193.551 139.651 194.307 140.504C195.062 141.35 196.051 141.773 197.275 141.773C197.881 141.773 198.486 141.656 199.092 141.422C199.704 141.181 200.228 140.891 200.664 140.553V138.736H197.354ZM221.17 144H218.025L216.775 140.748H211.053L209.871 144H206.805L212.381 129.684H215.438L221.17 144ZM215.848 138.336L213.875 133.023L211.941 138.336H215.848ZM230.805 139.342L233.617 139.068C233.786 140.012 234.128 140.706 234.643 141.148C235.163 141.591 235.863 141.812 236.742 141.812C237.673 141.812 238.373 141.617 238.842 141.227C239.317 140.829 239.555 140.367 239.555 139.84C239.555 139.501 239.454 139.215 239.252 138.98C239.057 138.74 238.712 138.531 238.217 138.355C237.878 138.238 237.107 138.03 235.902 137.73C234.353 137.346 233.266 136.874 232.641 136.314C231.762 135.527 231.322 134.566 231.322 133.434C231.322 132.704 231.527 132.024 231.938 131.393C232.354 130.755 232.95 130.27 233.725 129.938C234.506 129.605 235.447 129.439 236.547 129.439C238.344 129.439 239.695 129.833 240.6 130.621C241.511 131.409 241.99 132.46 242.035 133.775L239.145 133.902C239.021 133.167 238.754 132.639 238.344 132.32C237.94 131.995 237.331 131.832 236.518 131.832C235.678 131.832 235.02 132.005 234.545 132.35C234.239 132.571 234.086 132.867 234.086 133.238C234.086 133.577 234.229 133.867 234.516 134.107C234.88 134.413 235.766 134.732 237.172 135.064C238.578 135.396 239.617 135.742 240.287 136.1C240.964 136.451 241.492 136.936 241.869 137.555C242.253 138.167 242.445 138.925 242.445 139.83C242.445 140.65 242.217 141.419 241.762 142.135C241.306 142.851 240.661 143.385 239.828 143.736C238.995 144.081 237.956 144.254 236.713 144.254C234.903 144.254 233.513 143.837 232.543 143.004C231.573 142.164 230.993 140.943 230.805 139.342ZM246.916 144V129.684H249.807V136.041L255.646 129.684H259.533L254.143 135.26L259.826 144H256.086L252.15 137.281L249.807 139.674V144H246.916Z" fill="#949494"/>
<line x1="136.58" y1="35" x2="1076.58" y2="35" stroke="#949494" stroke-width="10"/>
<line x1="80" y1="168" x2="1076.7" y2="168" stroke="#949494" stroke-width="10"/>
<line x1="80" y1="186" x2="112" y2="186" stroke="#949494" stroke-width="10"/>
<line x1="83.5445" y1="90.107" x2="140.113" y2="33.5385" stroke="#949494" stroke-width="10"/>
<line x1="108.464" y1="187.464" x2="128.263" y2="167.665" stroke="#949494" stroke-width="10"/>
<line x1="1073.04" y1="169.615" x2="1129.61" y2="113.046" stroke="#949494" stroke-width="10"/>
<line x1="1073.05" y1="33.5348" x2="1129.61" y2="90.1033" stroke="#949494" stroke-width="10"/>
<line x1="83.5355" y1="113.045" x2="138.69" y2="168.199" stroke="#949494" stroke-width="10"/>
<line x1="85" y1="116.58" x2="85" y2="86.5801" stroke="#949494" stroke-width="10"/>
<line x1="1128.15" y1="116.57" x2="1128.15" y2="86.5703" stroke="#949494" stroke-width="10"/>
</svg>
