<svg width="943" height="200" viewBox="0 0 943 200" fill="none" xmlns="http://www.w3.org/2000/svg">
<path d="M100 100H837" stroke="#00A94F" stroke-width="20"/>
<circle cx="473" cy="100" r="21" fill="#00A94F"/>
<circle cx="473" cy="100" r="13" fill="white"/>
<circle cx="288" cy="100" r="21" fill="#00A94F"/>
<circle cx="288" cy="100" r="13" fill="white"/>
<circle cx="843" cy="100" r="21" fill="#00A94F"/>
<circle cx="843" cy="100" r="13" fill="white"/>
<circle cx="658" cy="100" r="21" fill="#00A94F"/>
<circle cx="658" cy="100" r="13" fill="white"/>
<circle cx="658" cy="100" r="24" fill="black"/>
<ellipse cx="658.001" cy="99.9939" rx="19.2" ry="19.2" fill="white"/>
<circle cx="843" cy="100" r="24" fill="#00A94F"/>
<path d="M43.4076 52.048V58H39.5196V52L33.0156 41.2H37.1436L41.6316 48.664L46.1196 41.2H49.9356L43.4076 52.048ZM62.5166 51.592C62.5166 51.64 62.4926 51.976 62.4446 52.6H52.6766C52.8526 53.4 53.2686 54.032 53.9246 54.496C54.5806 54.96 55.3966 55.192 56.3726 55.192C57.0446 55.192 57.6366 55.096 58.1486 54.904C58.6766 54.696 59.1646 54.376 59.6126 53.944L61.6046 56.104C60.3886 57.496 58.6126 58.192 56.2766 58.192C54.8206 58.192 53.5326 57.912 52.4126 57.352C51.2926 56.776 50.4286 55.984 49.8206 54.976C49.2126 53.968 48.9086 52.824 48.9086 51.544C48.9086 50.28 49.2046 49.144 49.7966 48.136C50.4046 47.112 51.2286 46.32 52.2686 45.76C53.3246 45.184 54.5006 44.896 55.7966 44.896C57.0606 44.896 58.2046 45.168 59.2286 45.712C60.2526 46.256 61.0526 47.04 61.6286 48.064C62.2206 49.072 62.5166 50.248 62.5166 51.592ZM55.8206 47.728C54.9726 47.728 54.2606 47.968 53.6846 48.448C53.1086 48.928 52.7566 49.584 52.6286 50.416H58.9886C58.8606 49.6 58.5086 48.952 57.9326 48.472C57.3566 47.976 56.6526 47.728 55.8206 47.728ZM72.8573 44.896C74.4573 44.896 75.7453 45.376 76.7213 46.336C77.7133 47.296 78.2093 48.72 78.2093 50.608V58H74.4653V51.184C74.4653 50.16 74.2413 49.4 73.7933 48.904C73.3453 48.392 72.6973 48.136 71.8493 48.136C70.9053 48.136 70.1533 48.432 69.5933 49.024C69.0333 49.6 68.7533 50.464 68.7533 51.616V58H65.0093V45.088H68.5853V46.6C69.0813 46.056 69.6973 45.64 70.4333 45.352C71.1693 45.048 71.9773 44.896 72.8573 44.896ZM81.603 45.088H85.347V58H81.603V45.088ZM83.475 43.288C82.787 43.288 82.227 43.088 81.795 42.688C81.363 42.288 81.147 41.792 81.147 41.2C81.147 40.608 81.363 40.112 81.795 39.712C82.227 39.312 82.787 39.112 83.475 39.112C84.163 39.112 84.723 39.304 85.155 39.688C85.587 40.072 85.803 40.552 85.803 41.128C85.803 41.752 85.587 42.272 85.155 42.688C84.723 43.088 84.163 43.288 83.475 43.288ZM101.974 40.192V58H98.3978V56.512C97.4698 57.632 96.1258 58.192 94.3658 58.192C93.1498 58.192 92.0458 57.92 91.0538 57.376C90.0778 56.832 89.3098 56.056 88.7498 55.048C88.1898 54.04 87.9098 52.872 87.9098 51.544C87.9098 50.216 88.1898 49.048 88.7498 48.04C89.3098 47.032 90.0778 46.256 91.0538 45.712C92.0458 45.168 93.1498 44.896 94.3658 44.896C96.0138 44.896 97.3018 45.416 98.2298 46.456V40.192H101.974ZM95.0138 55.12C95.9578 55.12 96.7418 54.8 97.3658 54.16C97.9898 53.504 98.3018 52.632 98.3018 51.544C98.3018 50.456 97.9898 49.592 97.3658 48.952C96.7418 48.296 95.9578 47.968 95.0138 47.968C94.0538 47.968 93.2618 48.296 92.6378 48.952C92.0138 49.592 91.7018 50.456 91.7018 51.544C91.7018 52.632 92.0138 53.504 92.6378 54.16C93.2618 54.8 94.0538 55.12 95.0138 55.12ZM111.583 58.192C110.223 58.192 108.999 57.912 107.911 57.352C106.839 56.776 105.999 55.984 105.391 54.976C104.783 53.968 104.479 52.824 104.479 51.544C104.479 50.264 104.783 49.12 105.391 48.112C105.999 47.104 106.839 46.32 107.911 45.76C108.999 45.184 110.223 44.896 111.583 44.896C112.943 44.896 114.159 45.184 115.231 45.76C116.303 46.32 117.143 47.104 117.751 48.112C118.359 49.12 118.663 50.264 118.663 51.544C118.663 52.824 118.359 53.968 117.751 54.976C117.143 55.984 116.303 56.776 115.231 57.352C114.159 57.912 112.943 58.192 111.583 58.192ZM111.583 55.12C112.543 55.12 113.327 54.8 113.935 54.16C114.559 53.504 114.871 52.632 114.871 51.544C114.871 50.456 114.559 49.592 113.935 48.952C113.327 48.296 112.543 47.968 111.583 47.968C110.623 47.968 109.831 48.296 109.207 48.952C108.583 49.592 108.271 50.456 108.271 51.544C108.271 52.632 108.583 53.504 109.207 54.16C109.831 54.8 110.623 55.12 111.583 55.12ZM134.486 45.088V55.84C134.486 58.208 133.87 59.968 132.638 61.12C131.406 62.272 129.606 62.848 127.238 62.848C125.99 62.848 124.806 62.696 123.686 62.392C122.566 62.088 121.638 61.648 120.902 61.072L122.39 58.384C122.934 58.832 123.622 59.184 124.454 59.44C125.286 59.712 126.118 59.848 126.95 59.848C128.246 59.848 129.198 59.552 129.806 58.96C130.43 58.384 130.742 57.504 130.742 56.32V55.768C129.766 56.84 128.406 57.376 126.662 57.376C125.478 57.376 124.39 57.12 123.398 56.608C122.422 56.08 121.646 55.344 121.07 54.4C120.494 53.456 120.206 52.368 120.206 51.136C120.206 49.904 120.494 48.816 121.07 47.872C121.646 46.928 122.422 46.2 123.398 45.688C124.39 45.16 125.478 44.896 126.662 44.896C128.534 44.896 129.958 45.512 130.934 46.744V45.088H134.486ZM127.406 54.304C128.398 54.304 129.206 54.016 129.83 53.44C130.47 52.848 130.79 52.08 130.79 51.136C130.79 50.192 130.47 49.432 129.83 48.856C129.206 48.264 128.398 47.968 127.406 47.968C126.414 47.968 125.598 48.264 124.958 48.856C124.318 49.432 123.998 50.192 123.998 51.136C123.998 52.08 124.318 52.848 124.958 53.44C125.598 54.016 126.414 54.304 127.406 54.304ZM127.622 43.624C126.358 43.624 125.318 43.296 124.502 42.64C123.686 41.984 123.254 41.096 123.206 39.976H125.558C125.574 40.488 125.774 40.904 126.158 41.224C126.558 41.528 127.046 41.68 127.622 41.68C128.198 41.68 128.678 41.528 129.062 41.224C129.462 40.904 129.67 40.488 129.686 39.976H132.038C131.99 41.096 131.558 41.984 130.742 42.64C129.926 43.296 128.886 43.624 127.622 43.624ZM143.178 44.896C145.178 44.896 146.714 45.376 147.786 46.336C148.858 47.28 149.394 48.712 149.394 50.632V58H145.89V56.392C145.186 57.592 143.874 58.192 141.954 58.192C140.962 58.192 140.098 58.024 139.362 57.688C138.642 57.352 138.09 56.888 137.706 56.296C137.322 55.704 137.13 55.032 137.13 54.28C137.13 53.08 137.578 52.136 138.474 51.448C139.386 50.76 140.786 50.416 142.674 50.416H145.65C145.65 49.6 145.402 48.976 144.906 48.544C144.41 48.096 143.666 47.872 142.674 47.872C141.986 47.872 141.306 47.984 140.634 48.208C139.978 48.416 139.418 48.704 138.954 49.072L137.61 46.456C138.314 45.96 139.154 45.576 140.13 45.304C141.122 45.032 142.138 44.896 143.178 44.896ZM142.89 55.672C143.53 55.672 144.098 55.528 144.594 55.24C145.09 54.936 145.442 54.496 145.65 53.92V52.6H143.082C141.546 52.6 140.778 53.104 140.778 54.112C140.778 54.592 140.962 54.976 141.33 55.264C141.714 55.536 142.234 55.672 142.89 55.672ZM160.631 44.896C162.231 44.896 163.519 45.376 164.495 46.336C165.487 47.296 165.983 48.72 165.983 50.608V58H162.239V51.184C162.239 50.16 162.015 49.4 161.567 48.904C161.119 48.392 160.471 48.136 159.623 48.136C158.679 48.136 157.927 48.432 157.367 49.024C156.807 49.6 156.527 50.464 156.527 51.616V58H152.783V45.088H156.359V46.6C156.855 46.056 157.471 45.64 158.207 45.352C158.943 45.048 159.751 44.896 160.631 44.896Z" fill="black"/>
<path d="M223.524 58.288C221.812 58.288 220.26 57.92 218.868 57.184C217.492 56.432 216.404 55.4 215.604 54.088C214.82 52.76 214.428 51.264 214.428 49.6C214.428 47.936 214.82 46.448 215.604 45.136C216.404 43.808 217.492 42.776 218.868 42.04C220.26 41.288 221.82 40.912 223.548 40.912C225.004 40.912 226.316 41.168 227.484 41.68C228.668 42.192 229.66 42.928 230.46 43.888L227.964 46.192C226.828 44.88 225.42 44.224 223.74 44.224C222.7 44.224 221.772 44.456 220.956 44.92C220.14 45.368 219.5 46 219.036 46.816C218.588 47.632 218.364 48.56 218.364 49.6C218.364 50.64 218.588 51.568 219.036 52.384C219.5 53.2 220.14 53.84 220.956 54.304C221.772 54.752 222.7 54.976 223.74 54.976C225.42 54.976 226.828 54.312 227.964 52.984L230.46 55.288C229.66 56.264 228.668 57.008 227.484 57.52C226.3 58.032 224.98 58.288 223.524 58.288ZM245.502 45.088V58H241.95V56.464C241.454 57.024 240.862 57.456 240.174 57.76C239.486 58.048 238.742 58.192 237.942 58.192C236.246 58.192 234.902 57.704 233.91 56.728C232.918 55.752 232.422 54.304 232.422 52.384V45.088H236.166V51.832C236.166 53.912 237.038 54.952 238.782 54.952C239.678 54.952 240.398 54.664 240.942 54.088C241.486 53.496 241.758 52.624 241.758 51.472V45.088H245.502ZM265.506 44.896C267.122 44.896 268.402 45.376 269.346 46.336C270.306 47.28 270.786 48.704 270.786 50.608V58H267.042V51.184C267.042 50.16 266.826 49.4 266.394 48.904C265.978 48.392 265.378 48.136 264.594 48.136C263.714 48.136 263.018 48.424 262.506 49C261.994 49.56 261.738 50.4 261.738 51.52V58H257.994V51.184C257.994 49.152 257.178 48.136 255.546 48.136C254.682 48.136 253.994 48.424 253.482 49C252.97 49.56 252.714 50.4 252.714 51.52V58H248.97V45.088H252.546V46.576C253.026 46.032 253.61 45.616 254.298 45.328C255.002 45.04 255.77 44.896 256.602 44.896C257.514 44.896 258.338 45.08 259.074 45.448C259.81 45.8 260.402 46.32 260.85 47.008C261.378 46.336 262.042 45.816 262.842 45.448C263.658 45.08 264.546 44.896 265.506 44.896ZM281.99 44.896C283.59 44.896 284.878 45.376 285.854 46.336C286.846 47.296 287.342 48.72 287.342 50.608V58H283.598V51.184C283.598 50.16 283.374 49.4 282.926 48.904C282.478 48.392 281.83 48.136 280.982 48.136C280.038 48.136 279.286 48.432 278.726 49.024C278.166 49.6 277.886 50.464 277.886 51.616V58H274.142V40.192H277.886V46.432C278.382 45.936 278.982 45.56 279.686 45.304C280.39 45.032 281.158 44.896 281.99 44.896ZM303.744 45.088V58H300.192V56.464C299.696 57.024 299.104 57.456 298.416 57.76C297.728 58.048 296.984 58.192 296.184 58.192C294.488 58.192 293.144 57.704 292.152 56.728C291.16 55.752 290.664 54.304 290.664 52.384V45.088H294.408V51.832C294.408 53.912 295.28 54.952 297.024 54.952C297.92 54.952 298.64 54.664 299.184 54.088C299.728 53.496 300 52.624 300 51.472V45.088H303.744ZM310.788 46.792C311.236 46.168 311.836 45.696 312.588 45.376C313.356 45.056 314.236 44.896 315.228 44.896V48.352C314.812 48.32 314.532 48.304 314.388 48.304C313.316 48.304 312.476 48.608 311.868 49.216C311.26 49.808 310.956 50.704 310.956 51.904V58H307.212V45.088H310.788V46.792ZM317.455 45.088H321.199V58H317.455V45.088ZM319.327 43.288C318.639 43.288 318.079 43.088 317.647 42.688C317.215 42.288 316.999 41.792 316.999 41.2C316.999 40.608 317.215 40.112 317.647 39.712C318.079 39.312 318.639 39.112 319.327 39.112C320.015 39.112 320.575 39.304 321.007 39.688C321.439 40.072 321.655 40.552 321.655 41.128C321.655 41.752 321.439 42.272 321.007 42.688C320.575 43.088 320.015 43.288 319.327 43.288ZM337.489 45.088L331.657 58.792C331.065 60.28 330.329 61.328 329.449 61.936C328.585 62.544 327.537 62.848 326.305 62.848C325.633 62.848 324.969 62.744 324.313 62.536C323.657 62.328 323.121 62.04 322.705 61.672L324.073 59.008C324.361 59.264 324.689 59.464 325.057 59.608C325.441 59.752 325.817 59.824 326.185 59.824C326.697 59.824 327.113 59.696 327.433 59.44C327.753 59.2 328.041 58.792 328.297 58.216L328.345 58.096L322.753 45.088H326.617L330.241 53.848L333.889 45.088H337.489ZM351.314 51.592C351.314 51.64 351.29 51.976 351.242 52.6H341.474C341.65 53.4 342.066 54.032 342.722 54.496C343.378 54.96 344.194 55.192 345.17 55.192C345.842 55.192 346.434 55.096 346.946 54.904C347.474 54.696 347.962 54.376 348.41 53.944L350.402 56.104C349.186 57.496 347.41 58.192 345.074 58.192C343.618 58.192 342.33 57.912 341.21 57.352C340.09 56.776 339.226 55.984 338.618 54.976C338.01 53.968 337.706 52.824 337.706 51.544C337.706 50.28 338.002 49.144 338.594 48.136C339.202 47.112 340.026 46.32 341.066 45.76C342.122 45.184 343.298 44.896 344.594 44.896C345.858 44.896 347.002 45.168 348.026 45.712C349.05 46.256 349.85 47.04 350.426 48.064C351.018 49.072 351.314 50.248 351.314 51.592ZM344.618 47.728C343.77 47.728 343.058 47.968 342.482 48.448C341.906 48.928 341.554 49.584 341.426 50.416H347.786C347.658 49.6 347.306 48.952 346.73 48.472C346.154 47.976 345.45 47.728 344.618 47.728ZM362.134 57.376C361.766 57.648 361.31 57.856 360.766 58C360.238 58.128 359.678 58.192 359.086 58.192C357.55 58.192 356.358 57.8 355.51 57.016C354.678 56.232 354.262 55.08 354.262 53.56V48.256H352.27V45.376H354.262V42.232H358.006V45.376H361.222V48.256H358.006V53.512C358.006 54.056 358.142 54.48 358.414 54.784C358.702 55.072 359.102 55.216 359.614 55.216C360.206 55.216 360.71 55.056 361.126 54.736L362.134 57.376Z" fill="black"/>
<path d="M434.314 54.4H426.514L425.026 58H421.042L428.53 41.2H432.37L439.882 58H435.802L434.314 54.4ZM433.09 51.448L430.426 45.016L427.762 51.448H433.09ZM453.497 45.088L447.665 58.792C447.073 60.28 446.337 61.328 445.457 61.936C444.593 62.544 443.545 62.848 442.313 62.848C441.641 62.848 440.977 62.744 440.321 62.536C439.665 62.328 439.129 62.04 438.713 61.672L440.081 59.008C440.369 59.264 440.697 59.464 441.065 59.608C441.449 59.752 441.825 59.824 442.193 59.824C442.705 59.824 443.121 59.696 443.441 59.44C443.761 59.2 444.049 58.792 444.305 58.216L444.353 58.096L438.761 45.088H442.625L446.249 53.848L449.897 45.088H453.497ZM467.825 40.192V58H464.249V56.512C463.321 57.632 461.977 58.192 460.217 58.192C459.001 58.192 457.897 57.92 456.905 57.376C455.929 56.832 455.161 56.056 454.601 55.048C454.041 54.04 453.761 52.872 453.761 51.544C453.761 50.216 454.041 49.048 454.601 48.04C455.161 47.032 455.929 46.256 456.905 45.712C457.897 45.168 459.001 44.896 460.217 44.896C461.865 44.896 463.153 45.416 464.081 46.456V40.192H467.825ZM460.865 55.12C461.809 55.12 462.593 54.8 463.217 54.16C463.841 53.504 464.153 52.632 464.153 51.544C464.153 50.456 463.841 49.592 463.217 48.952C462.593 48.296 461.809 47.968 460.865 47.968C459.905 47.968 459.113 48.296 458.489 48.952C457.865 49.592 457.553 50.456 457.553 51.544C457.553 52.632 457.865 53.504 458.489 54.16C459.113 54.8 459.905 55.12 460.865 55.12ZM471.291 45.088H475.035V58H471.291V45.088ZM486.357 44.896C487.957 44.896 489.245 45.376 490.221 46.336C491.213 47.296 491.709 48.72 491.709 50.608V58H487.965V51.184C487.965 50.16 487.741 49.4 487.293 48.904C486.845 48.392 486.197 48.136 485.349 48.136C484.405 48.136 483.653 48.432 483.093 49.024C482.533 49.6 482.253 50.464 482.253 51.616V58H478.509V45.088H482.085V46.6C482.581 46.056 483.197 45.64 483.933 45.352C484.669 45.048 485.477 44.896 486.357 44.896ZM495.103 40.192H498.847V58H495.103V40.192ZM507.53 44.896C509.53 44.896 511.066 45.376 512.138 46.336C513.21 47.28 513.746 48.712 513.746 50.632V58H510.242V56.392C509.538 57.592 508.226 58.192 506.306 58.192C505.314 58.192 504.45 58.024 503.714 57.688C502.994 57.352 502.442 56.888 502.058 56.296C501.674 55.704 501.482 55.032 501.482 54.28C501.482 53.08 501.93 52.136 502.826 51.448C503.738 50.76 505.138 50.416 507.026 50.416H510.002C510.002 49.6 509.754 48.976 509.258 48.544C508.762 48.096 508.018 47.872 507.026 47.872C506.338 47.872 505.658 47.984 504.986 48.208C504.33 48.416 503.77 48.704 503.306 49.072L501.962 46.456C502.666 45.96 503.506 45.576 504.482 45.304C505.474 45.032 506.49 44.896 507.53 44.896ZM507.242 55.672C507.882 55.672 508.45 55.528 508.946 55.24C509.442 54.936 509.794 54.496 510.002 53.92V52.6H507.434C505.898 52.6 505.13 53.104 505.13 54.112C505.13 54.592 505.314 54.976 505.682 55.264C506.066 55.536 506.586 55.672 507.242 55.672ZM520.71 46.792C521.158 46.168 521.758 45.696 522.51 45.376C523.278 45.056 524.158 44.896 525.15 44.896V48.352C524.734 48.32 524.454 48.304 524.31 48.304C523.238 48.304 522.398 48.608 521.79 49.216C521.182 49.808 520.878 50.704 520.878 51.904V58H517.134V45.088H520.71V46.792Z" fill="black"/>
<path d="M615.789 58.288C614.461 58.288 613.173 58.112 611.925 57.76C610.693 57.392 609.701 56.92 608.949 56.344L610.269 53.416C610.989 53.944 611.845 54.368 612.837 54.688C613.829 55.008 614.821 55.168 615.813 55.168C616.917 55.168 617.733 55.008 618.261 54.688C618.789 54.352 619.053 53.912 619.053 53.368C619.053 52.968 618.893 52.64 618.573 52.384C618.269 52.112 617.869 51.896 617.373 51.736C616.893 51.576 616.237 51.4 615.405 51.208C614.125 50.904 613.077 50.6 612.261 50.296C611.445 49.992 610.741 49.504 610.149 48.832C609.573 48.16 609.285 47.264 609.285 46.144C609.285 45.168 609.549 44.288 610.077 43.504C610.605 42.704 611.397 42.072 612.453 41.608C613.525 41.144 614.829 40.912 616.365 40.912C617.437 40.912 618.485 41.04 619.509 41.296C620.533 41.552 621.429 41.92 622.197 42.4L620.997 45.352C619.445 44.472 617.893 44.032 616.341 44.032C615.253 44.032 614.445 44.208 613.917 44.56C613.405 44.912 613.149 45.376 613.149 45.952C613.149 46.528 613.445 46.96 614.037 47.248C614.645 47.52 615.565 47.792 616.797 48.064C618.077 48.368 619.125 48.672 619.941 48.976C620.757 49.28 621.453 49.76 622.029 50.416C622.621 51.072 622.917 51.96 622.917 53.08C622.917 54.04 622.645 54.92 622.101 55.72C621.573 56.504 620.773 57.128 619.701 57.592C618.629 58.056 617.325 58.288 615.789 58.288ZM630.518 44.896C632.518 44.896 634.054 45.376 635.126 46.336C636.198 47.28 636.734 48.712 636.734 50.632V58H633.23V56.392C632.526 57.592 631.214 58.192 629.294 58.192C628.302 58.192 627.438 58.024 626.702 57.688C625.982 57.352 625.43 56.888 625.046 56.296C624.662 55.704 624.47 55.032 624.47 54.28C624.47 53.08 624.918 52.136 625.814 51.448C626.726 50.76 628.126 50.416 630.014 50.416H632.99C632.99 49.6 632.742 48.976 632.246 48.544C631.75 48.096 631.006 47.872 630.014 47.872C629.326 47.872 628.646 47.984 627.974 48.208C627.318 48.416 626.758 48.704 626.294 49.072L624.95 46.456C625.654 45.96 626.494 45.576 627.47 45.304C628.462 45.032 629.478 44.896 630.518 44.896ZM630.23 55.672C630.87 55.672 631.438 55.528 631.934 55.24C632.43 54.936 632.782 54.496 632.99 53.92V52.6H630.422C628.886 52.6 628.118 53.104 628.118 54.112C628.118 54.592 628.302 54.976 628.67 55.264C629.054 55.536 629.574 55.672 630.23 55.672ZM643.699 46.792C644.147 46.168 644.747 45.696 645.499 45.376C646.267 45.056 647.147 44.896 648.139 44.896V48.352C647.723 48.32 647.443 48.304 647.299 48.304C646.227 48.304 645.387 48.608 644.779 49.216C644.171 49.808 643.867 50.704 643.867 51.904V58H640.123V45.088H643.699V46.792ZM650.365 45.088H654.109V58H650.365V45.088ZM670.903 45.088V55.84C670.903 58.208 670.287 59.968 669.055 61.12C667.823 62.272 666.023 62.848 663.655 62.848C662.407 62.848 661.223 62.696 660.103 62.392C658.983 62.088 658.055 61.648 657.319 61.072L658.807 58.384C659.351 58.832 660.039 59.184 660.871 59.44C661.703 59.712 662.535 59.848 663.367 59.848C664.663 59.848 665.615 59.552 666.223 58.96C666.847 58.384 667.159 57.504 667.159 56.32V55.768C666.183 56.84 664.823 57.376 663.079 57.376C661.895 57.376 660.807 57.12 659.815 56.608C658.839 56.08 658.063 55.344 657.487 54.4C656.911 53.456 656.623 52.368 656.623 51.136C656.623 49.904 656.911 48.816 657.487 47.872C658.063 46.928 658.839 46.2 659.815 45.688C660.807 45.16 661.895 44.896 663.079 44.896C664.951 44.896 666.375 45.512 667.351 46.744V45.088H670.903ZM663.823 54.304C664.815 54.304 665.623 54.016 666.247 53.44C666.887 52.848 667.207 52.08 667.207 51.136C667.207 50.192 666.887 49.432 666.247 48.856C665.623 48.264 664.815 47.968 663.823 47.968C662.831 47.968 662.015 48.264 661.375 48.856C660.735 49.432 660.415 50.192 660.415 51.136C660.415 52.08 660.735 52.848 661.375 53.44C662.015 54.016 662.831 54.304 663.823 54.304ZM679.596 44.896C681.596 44.896 683.132 45.376 684.204 46.336C685.276 47.28 685.812 48.712 685.812 50.632V58H682.308V56.392C681.604 57.592 680.292 58.192 678.372 58.192C677.38 58.192 676.516 58.024 675.78 57.688C675.06 57.352 674.508 56.888 674.124 56.296C673.74 55.704 673.548 55.032 673.548 54.28C673.548 53.08 673.996 52.136 674.892 51.448C675.804 50.76 677.204 50.416 679.092 50.416H682.068C682.068 49.6 681.82 48.976 681.324 48.544C680.828 48.096 680.084 47.872 679.092 47.872C678.404 47.872 677.724 47.984 677.052 48.208C676.396 48.416 675.836 48.704 675.372 49.072L674.028 46.456C674.732 45.96 675.572 45.576 676.548 45.304C677.54 45.032 678.556 44.896 679.596 44.896ZM679.308 55.672C679.948 55.672 680.516 55.528 681.012 55.24C681.508 54.936 681.86 54.496 682.068 53.92V52.6H679.5C677.964 52.6 677.196 53.104 677.196 54.112C677.196 54.592 677.38 54.976 677.748 55.264C678.132 55.536 678.652 55.672 679.308 55.672ZM699.833 55.12V58H688.313V55.744L694.889 47.968H688.481V45.088H699.617V47.344L693.041 55.12H699.833ZM702.232 45.088H705.976V58H702.232V45.088ZM704.104 43.288C703.416 43.288 702.856 43.088 702.424 42.688C701.992 42.288 701.776 41.792 701.776 41.2C701.776 40.608 701.992 40.112 702.424 39.712C702.856 39.312 703.416 39.112 704.104 39.112C704.792 39.112 705.352 39.304 705.784 39.688C706.216 40.072 706.432 40.552 706.432 41.128C706.432 41.752 706.216 42.272 705.784 42.688C705.352 43.088 704.792 43.288 704.104 43.288Z" fill="black"/>
<path d="M822.301 54.88V58H809.293V41.2H821.989V44.32H813.157V47.968H820.957V50.992H813.157V54.88H822.301ZM841.666 44.896C843.282 44.896 844.562 45.376 845.506 46.336C846.466 47.28 846.946 48.704 846.946 50.608V58H843.202V51.184C843.202 50.16 842.986 49.4 842.554 48.904C842.138 48.392 841.538 48.136 840.754 48.136C839.874 48.136 839.178 48.424 838.666 49C838.154 49.56 837.898 50.4 837.898 51.52V58H834.154V51.184C834.154 49.152 833.338 48.136 831.706 48.136C830.842 48.136 830.154 48.424 829.642 49C829.13 49.56 828.874 50.4 828.874 51.52V58H825.13V45.088H828.706V46.576C829.186 46.032 829.77 45.616 830.458 45.328C831.162 45.04 831.93 44.896 832.762 44.896C833.674 44.896 834.498 45.08 835.234 45.448C835.97 45.8 836.562 46.32 837.01 47.008C837.538 46.336 838.202 45.816 839.002 45.448C839.818 45.08 840.706 44.896 841.666 44.896ZM863.091 51.592C863.091 51.64 863.067 51.976 863.019 52.6H853.251C853.427 53.4 853.843 54.032 854.499 54.496C855.155 54.96 855.971 55.192 856.947 55.192C857.619 55.192 858.211 55.096 858.723 54.904C859.251 54.696 859.739 54.376 860.187 53.944L862.179 56.104C860.963 57.496 859.187 58.192 856.851 58.192C855.395 58.192 854.107 57.912 852.987 57.352C851.867 56.776 851.003 55.984 850.395 54.976C849.787 53.968 849.483 52.824 849.483 51.544C849.483 50.28 849.779 49.144 850.371 48.136C850.979 47.112 851.803 46.32 852.843 45.76C853.899 45.184 855.075 44.896 856.371 44.896C857.635 44.896 858.779 45.168 859.803 45.712C860.827 46.256 861.627 47.04 862.203 48.064C862.795 49.072 863.091 50.248 863.091 51.592ZM856.395 47.728C855.547 47.728 854.835 47.968 854.259 48.448C853.683 48.928 853.331 49.584 853.203 50.416H859.563C859.435 49.6 859.083 48.952 858.507 48.472C857.931 47.976 857.227 47.728 856.395 47.728ZM871.127 52.936L869.327 54.712V58H865.583V40.192H869.327V50.272L874.799 45.088H879.263L873.887 50.56L879.743 58H875.207L871.127 52.936Z" fill="black"/>
<rect x="655" y="123" width="6" height="22" fill="black"/>
<g clip-path="url(#clip0_499_2)">
<path d="M658.028 179C654.459 179.011 650.966 177.962 647.994 175.988C645.021 174.013 642.702 171.201 641.33 167.907C639.958 164.614 639.595 160.988 640.288 157.488C640.98 153.989 642.696 150.773 645.218 148.249C647.741 145.725 650.956 144.007 654.457 143.311C657.958 142.615 661.587 142.974 664.883 144.341C668.18 145.709 670.996 148.023 672.975 150.992C674.954 153.961 676.007 157.45 676 161.017C675.991 165.78 674.095 170.346 670.727 173.716C667.359 177.085 662.793 178.985 658.028 179Z" fill="#673065"/>
<path d="M646.727 155.162H650.412L653.141 163.86H653.176L655.906 155.162H659.586V166.643H657.383V157.169H657.353L654.258 166.643H652.055L648.965 157.169L648.93 157.199V166.643H646.727V155.162Z" fill="white"/>
<path d="M668.973 156.868H664.536L664.486 159.321C664.832 159.248 665.184 159.209 665.538 159.206C667.15 159.206 669.239 159.961 669.239 162.939C669.239 165.096 667.736 166.838 664.767 166.838C663.868 166.829 662.973 166.724 662.098 166.523L662.148 164.466C662.883 164.814 663.683 165.003 664.496 165.021C665.698 165.021 666.945 164.461 666.945 162.994C666.945 161.528 665.633 160.992 664.316 160.992C663.62 160.99 662.927 161.095 662.263 161.303L662.378 155.137H668.973V156.868Z" fill="white"/>
</g>
<g clip-path="url(#clip1_499_2)">
<path d="M76 100C76 95.2533 77.4076 90.6131 80.0447 86.6663C82.6819 82.7195 86.4302 79.6434 90.8156 77.8269C95.201 76.0104 100.027 75.5351 104.682 76.4612C109.338 77.3872 113.614 79.673 116.971 83.0294C120.327 86.3859 122.613 90.6623 123.539 95.3178C124.465 99.9734 123.99 104.799 122.173 109.184C120.357 113.57 117.28 117.318 113.334 119.955C109.387 122.592 104.747 124 100 124C93.6392 123.986 87.543 121.453 83.0452 116.955C78.5474 112.457 76.0142 106.361 76 100Z" fill="#00A94F"/>
</g>
<defs>
<clipPath id="clip0_499_2">
<rect width="36" height="36" fill="white" transform="translate(640 143)"/>
</clipPath>
<clipPath id="clip1_499_2">
<rect width="48" height="48" fill="white" transform="translate(76 76)"/>
</clipPath>
</defs>
</svg>
