<?xml version="1.0" encoding="utf-8"?>
<!-- Generator: Adobe Illustrator 23.1.0, SVG Export Plug-In . SVG Version: 6.00 Build 0)  -->
<svg version="1.1" id="Layer_1" xmlns="http://www.w3.org/2000/svg" xmlns:xlink="http://www.w3.org/1999/xlink" x="0px" y="0px"
	 viewBox="0 0 200 200" style="enable-background:new 0 0 200 200;" xml:space="preserve">
<style type="text/css">
	.st0{fill:#00A94F;}
	.st1{fill:#FFFFFF;}
</style>
<g>
	<path class="st0" d="M0,100C0,44.9,44.9,0,100,0s100,44.9,100,100s-44.9,100-100,100S0,155.1,0,100"/>
	<polygon class="st1" points="13.5,66.3 36,66.3 51.7,118 51.7,118 67.4,66.3 88.8,66.3 88.8,133.7 76.4,133.7 76.4,78.7 76.4,78.7 
		58.4,133.7 44.9,133.7 27,78.7 27,78.7 27,133.7 13.5,133.7 	"/>
	<polygon class="st1" points="119.1,66.3 131.5,66.3 131.5,133.7 118,133.7 118,82 106.7,91 100,83.1 	"/>
	<path class="st1" d="M146.1,121.3c4.5,2.2,10.1,3.4,14.6,3.4c5.6,0,14.6-2.2,14.6-9c0-7.9-6.7-10.1-14.6-10.1h-6.7V95.5h5.6
		c9,0,14.6-3.4,14.6-9c0-6.7-5.6-9-11.2-9s-10.1,1.1-14.6,3.4l-1.1-11.2c5.6-2.2,12.4-3.4,19.1-3.4c7.9,0,22.5,3.4,22.5,16.9
		c0,9-5.6,13.5-12.4,15.7l0,0c9,1.1,12.4,7.9,12.4,15.7c0,15.7-14.6,20.2-25.8,20.2c-5.6,0-12.4-1.1-18-2.2L146.1,121.3z"/>
</g>
</svg>
