<svg width="1859" height="200" viewBox="0 0 1859 200" fill="none" xmlns="http://www.w3.org/2000/svg">
<path d="M100 100H1750" stroke="#FFD300" stroke-width="20"/>
<circle cx="473" cy="100" r="21" fill="#FFD300"/>
<circle cx="473" cy="100" r="13" fill="white"/>
<circle cx="658" cy="100" r="21" fill="#FFD300"/>
<circle cx="658" cy="100" r="13" fill="white"/>
<circle cx="288" cy="100" r="21" fill="#FFD300"/>
<circle cx="288" cy="100" r="13" fill="white"/>
<circle cx="843" cy="100" r="21" fill="#FFD300"/>
<circle cx="843" cy="100" r="13" fill="white"/>
<circle cx="1025" cy="100" r="21" fill="#FFD300"/>
<circle cx="1025" cy="100" r="13" fill="white"/>
<circle cx="1577" cy="100" r="21" fill="#FFD300"/>
<circle cx="1577" cy="100" r="13" fill="white"/>
<circle cx="1759" cy="100" r="21" fill="#FFD300"/>
<circle cx="1759" cy="100" r="13" fill="white"/>
<circle cx="1207" cy="100" r="21" fill="#FFD300"/>
<circle cx="1207" cy="100" r="13" fill="white"/>
<circle cx="1392" cy="100" r="21" fill="#FFD300"/>
<circle cx="1392" cy="100" r="13" fill="white"/>
<circle cx="288" cy="100" r="24" fill="black"/>
<ellipse cx="288.001" cy="99.9939" rx="19.2" ry="19.2" fill="white"/>
<path d="M58.746 49.264C59.706 49.568 60.458 50.08 61.002 50.8C61.546 51.504 61.818 52.376 61.818 53.416C61.818 54.888 61.242 56.024 60.09 56.824C58.954 57.608 57.29 58 55.098 58H46.41V41.2H54.618C56.666 41.2 58.234 41.592 59.322 42.376C60.426 43.16 60.978 44.224 60.978 45.568C60.978 46.384 60.778 47.112 60.378 47.752C59.994 48.392 59.45 48.896 58.746 49.264ZM50.274 44.128V48.088H54.138C55.098 48.088 55.826 47.92 56.322 47.584C56.818 47.248 57.066 46.752 57.066 46.096C57.066 45.44 56.818 44.952 56.322 44.632C55.826 44.296 55.098 44.128 54.138 44.128H50.274ZM54.81 55.072C55.834 55.072 56.602 54.904 57.114 54.568C57.642 54.232 57.906 53.712 57.906 53.008C57.906 51.616 56.874 50.92 54.81 50.92H50.274V55.072H54.81ZM69.7055 44.896C71.7055 44.896 73.2415 45.376 74.3135 46.336C75.3855 47.28 75.9215 48.712 75.9215 50.632V58H72.4175V56.392C71.7135 57.592 70.4015 58.192 68.4815 58.192C67.4895 58.192 66.6255 58.024 65.8895 57.688C65.1695 57.352 64.6175 56.888 64.2335 56.296C63.8495 55.704 63.6575 55.032 63.6575 54.28C63.6575 53.08 64.1055 52.136 65.0015 51.448C65.9135 50.76 67.3135 50.416 69.2015 50.416H72.1775C72.1775 49.6 71.9295 48.976 71.4335 48.544C70.9375 48.096 70.1935 47.872 69.2015 47.872C68.5135 47.872 67.8335 47.984 67.1615 48.208C66.5055 48.416 65.9455 48.704 65.4815 49.072L64.1375 46.456C64.8415 45.96 65.6815 45.576 66.6575 45.304C67.6495 45.032 68.6655 44.896 69.7055 44.896ZM69.4175 55.672C70.0575 55.672 70.6255 55.528 71.1215 55.24C71.6175 54.936 71.9695 54.496 72.1775 53.92V52.6H69.6095C68.0735 52.6 67.3055 53.104 67.3055 54.112C67.3055 54.592 67.4895 54.976 67.8575 55.264C68.2415 55.536 68.7615 55.672 69.4175 55.672ZM87.158 44.896C88.758 44.896 90.046 45.376 91.022 46.336C92.014 47.296 92.51 48.72 92.51 50.608V58H88.766V51.184C88.766 50.16 88.542 49.4 88.094 48.904C87.646 48.392 86.998 48.136 86.15 48.136C85.206 48.136 84.454 48.432 83.894 49.024C83.334 49.6 83.054 50.464 83.054 51.616V58H79.31V40.192H83.054V46.432C83.55 45.936 84.15 45.56 84.854 45.304C85.558 45.032 86.326 44.896 87.158 44.896ZM101.112 44.896C103.112 44.896 104.648 45.376 105.72 46.336C106.792 47.28 107.328 48.712 107.328 50.632V58H103.824V56.392C103.12 57.592 101.808 58.192 99.8878 58.192C98.8958 58.192 98.0318 58.024 97.2958 57.688C96.5758 57.352 96.0238 56.888 95.6398 56.296C95.2558 55.704 95.0638 55.032 95.0638 54.28C95.0638 53.08 95.5118 52.136 96.4078 51.448C97.3198 50.76 98.7198 50.416 100.608 50.416H103.584C103.584 49.6 103.336 48.976 102.84 48.544C102.344 48.096 101.6 47.872 100.608 47.872C99.9198 47.872 99.2398 47.984 98.5678 48.208C97.9118 48.416 97.3518 48.704 96.8878 49.072L95.5438 46.456C96.2478 45.96 97.0878 45.576 98.0638 45.304C99.0558 45.032 100.072 44.896 101.112 44.896ZM100.824 55.672C101.464 55.672 102.032 55.528 102.528 55.24C103.024 54.936 103.376 54.496 103.584 53.92V52.6H101.016C99.4798 52.6 98.7118 53.104 98.7118 54.112C98.7118 54.592 98.8958 54.976 99.2638 55.264C99.6478 55.536 100.168 55.672 100.824 55.672ZM114.292 46.792C114.74 46.168 115.34 45.696 116.092 45.376C116.86 45.056 117.74 44.896 118.732 44.896V48.352C118.316 48.32 118.036 48.304 117.892 48.304C116.82 48.304 115.98 48.608 115.372 49.216C114.764 49.808 114.46 50.704 114.46 51.904V58H110.716V45.088H114.292V46.792ZM120.958 45.088H124.702V58H120.958V45.088ZM122.83 43.288C122.142 43.288 121.582 43.088 121.15 42.688C120.718 42.288 120.502 41.792 120.502 41.2C120.502 40.608 120.718 40.112 121.15 39.712C121.582 39.312 122.142 39.112 122.83 39.112C123.518 39.112 124.078 39.304 124.51 39.688C124.942 40.072 125.158 40.552 125.158 41.128C125.158 41.752 124.942 42.272 124.51 42.688C124.078 43.088 123.518 43.288 122.83 43.288ZM140.993 45.088L135.161 58.792C134.569 60.28 133.833 61.328 132.953 61.936C132.089 62.544 131.041 62.848 129.809 62.848C129.137 62.848 128.473 62.744 127.817 62.536C127.161 62.328 126.625 62.04 126.209 61.672L127.577 59.008C127.865 59.264 128.193 59.464 128.561 59.608C128.945 59.752 129.321 59.824 129.689 59.824C130.201 59.824 130.617 59.696 130.937 59.44C131.257 59.2 131.545 58.792 131.801 58.216L131.849 58.096L126.257 45.088H130.121L133.745 53.848L137.393 45.088H140.993ZM154.817 51.592C154.817 51.64 154.793 51.976 154.745 52.6H144.977C145.153 53.4 145.569 54.032 146.225 54.496C146.881 54.96 147.697 55.192 148.673 55.192C149.345 55.192 149.937 55.096 150.449 54.904C150.977 54.696 151.465 54.376 151.913 53.944L153.905 56.104C152.689 57.496 150.913 58.192 148.577 58.192C147.121 58.192 145.833 57.912 144.713 57.352C143.593 56.776 142.729 55.984 142.121 54.976C141.513 53.968 141.209 52.824 141.209 51.544C141.209 50.28 141.505 49.144 142.097 48.136C142.705 47.112 143.529 46.32 144.569 45.76C145.625 45.184 146.801 44.896 148.097 44.896C149.361 44.896 150.505 45.168 151.529 45.712C152.553 46.256 153.353 47.04 153.929 48.064C154.521 49.072 154.817 50.248 154.817 51.592ZM148.121 47.728C147.273 47.728 146.561 47.968 145.985 48.448C145.409 48.928 145.057 49.584 144.929 50.416H151.289C151.161 49.6 150.809 48.952 150.233 48.472C149.657 47.976 148.953 47.728 148.121 47.728Z" fill="black"/>
<path d="M253.31 25.4H245.51L244.022 29H240.038L247.526 12.2H251.366L258.878 29H254.798L253.31 25.4ZM252.086 22.448L249.422 16.016L246.758 22.448H252.086ZM268.568 28.376C268.2 28.648 267.744 28.856 267.2 29C266.672 29.128 266.112 29.192 265.52 29.192C263.984 29.192 262.792 28.8 261.944 28.016C261.112 27.232 260.696 26.08 260.696 24.56V19.256H258.704V16.376H260.696V13.232H264.44V16.376H267.656V19.256H264.44V24.512C264.44 25.056 264.576 25.48 264.848 25.784C265.136 26.072 265.536 26.216 266.048 26.216C266.64 26.216 267.144 26.056 267.56 25.736L268.568 28.376ZM275.877 15.896C277.877 15.896 279.413 16.376 280.485 17.336C281.557 18.28 282.093 19.712 282.093 21.632V29H278.589V27.392C277.885 28.592 276.573 29.192 274.653 29.192C273.661 29.192 272.797 29.024 272.061 28.688C271.341 28.352 270.789 27.888 270.405 27.296C270.021 26.704 269.829 26.032 269.829 25.28C269.829 24.08 270.277 23.136 271.173 22.448C272.085 21.76 273.485 21.416 275.373 21.416H278.349C278.349 20.6 278.101 19.976 277.605 19.544C277.109 19.096 276.365 18.872 275.373 18.872C274.685 18.872 274.005 18.984 273.333 19.208C272.677 19.416 272.117 19.704 271.653 20.072L270.309 17.456C271.013 16.96 271.853 16.576 272.829 16.304C273.821 16.032 274.837 15.896 275.877 15.896ZM275.589 26.672C276.229 26.672 276.797 26.528 277.293 26.24C277.789 25.936 278.141 25.496 278.349 24.92V23.6H275.781C274.245 23.6 273.477 24.104 273.477 25.112C273.477 25.592 273.661 25.976 274.029 26.264C274.413 26.536 274.933 26.672 275.589 26.672ZM293.81 28.376C293.442 28.648 292.986 28.856 292.442 29C291.914 29.128 291.354 29.192 290.762 29.192C289.226 29.192 288.034 28.8 287.186 28.016C286.354 27.232 285.938 26.08 285.938 24.56V19.256H283.946V16.376H285.938V13.232H289.682V16.376H292.898V19.256H289.682V24.512C289.682 25.056 289.818 25.48 290.09 25.784C290.378 26.072 290.778 26.216 291.29 26.216C291.882 26.216 292.386 26.056 292.802 25.736L293.81 28.376ZM308.92 16.088V29H305.368V27.464C304.872 28.024 304.28 28.456 303.592 28.76C302.904 29.048 302.16 29.192 301.36 29.192C299.664 29.192 298.32 28.704 297.328 27.728C296.336 26.752 295.84 25.304 295.84 23.384V16.088H299.584V22.832C299.584 24.912 300.456 25.952 302.2 25.952C303.096 25.952 303.816 25.664 304.36 25.088C304.904 24.496 305.176 23.624 305.176 22.472V16.088H308.92ZM299.944 14.312C299.464 14.312 299.064 14.16 298.744 13.856C298.424 13.536 298.264 13.136 298.264 12.656C298.264 12.176 298.424 11.784 298.744 11.48C299.064 11.16 299.464 11 299.944 11C300.424 11 300.816 11.16 301.12 11.48C301.44 11.784 301.6 12.176 301.6 12.656C301.6 13.136 301.44 13.536 301.12 13.856C300.816 14.16 300.424 14.312 299.944 14.312ZM304.792 14.312C304.312 14.312 303.912 14.16 303.592 13.856C303.288 13.536 303.136 13.136 303.136 12.656C303.136 12.176 303.288 11.784 303.592 11.48C303.912 11.16 304.312 11 304.792 11C305.272 11 305.672 11.16 305.992 11.48C306.312 11.784 306.472 12.176 306.472 12.656C306.472 13.136 306.312 13.536 305.992 13.856C305.672 14.16 305.272 14.312 304.792 14.312ZM315.964 17.792C316.412 17.168 317.012 16.696 317.764 16.376C318.532 16.056 319.412 15.896 320.404 15.896V19.352C319.988 19.32 319.708 19.304 319.564 19.304C318.492 19.304 317.652 19.608 317.044 20.216C316.436 20.808 316.132 21.704 316.132 22.904V29H312.388V16.088H315.964V17.792ZM328.174 23.936L326.374 25.712V29H322.63V11.192H326.374V21.272L331.846 16.088H336.31L330.934 21.56L336.79 29H332.254L328.174 23.936ZM246.436 58L246.412 47.92L241.468 56.224H239.716L234.796 48.136V58H231.148V41.2H234.364L240.652 51.64L246.844 41.2H250.036L250.084 58H246.436ZM259.014 44.896C261.014 44.896 262.55 45.376 263.622 46.336C264.694 47.28 265.23 48.712 265.23 50.632V58H261.726V56.392C261.022 57.592 259.71 58.192 257.79 58.192C256.798 58.192 255.934 58.024 255.198 57.688C254.478 57.352 253.926 56.888 253.542 56.296C253.158 55.704 252.966 55.032 252.966 54.28C252.966 53.08 253.414 52.136 254.31 51.448C255.222 50.76 256.622 50.416 258.51 50.416H261.486C261.486 49.6 261.238 48.976 260.742 48.544C260.246 48.096 259.502 47.872 258.51 47.872C257.822 47.872 257.142 47.984 256.47 48.208C255.814 48.416 255.254 48.704 254.79 49.072L253.446 46.456C254.15 45.96 254.99 45.576 255.966 45.304C256.958 45.032 257.974 44.896 259.014 44.896ZM258.726 55.672C259.366 55.672 259.934 55.528 260.43 55.24C260.926 54.936 261.278 54.496 261.486 53.92V52.6H258.918C257.382 52.6 256.614 53.104 256.614 54.112C256.614 54.592 256.798 54.976 257.166 55.264C257.55 55.536 258.07 55.672 258.726 55.672ZM276.467 44.896C278.067 44.896 279.355 45.376 280.331 46.336C281.323 47.296 281.819 48.72 281.819 50.608V58H278.075V51.184C278.075 50.16 277.851 49.4 277.403 48.904C276.955 48.392 276.307 48.136 275.459 48.136C274.515 48.136 273.763 48.432 273.203 49.024C272.643 49.6 272.363 50.464 272.363 51.616V58H268.619V40.192H272.363V46.432C272.859 45.936 273.459 45.56 274.163 45.304C274.867 45.032 275.635 44.896 276.467 44.896ZM290.42 44.896C292.42 44.896 293.956 45.376 295.028 46.336C296.1 47.28 296.636 48.712 296.636 50.632V58H293.132V56.392C292.428 57.592 291.116 58.192 289.196 58.192C288.204 58.192 287.34 58.024 286.604 57.688C285.884 57.352 285.332 56.888 284.948 56.296C284.564 55.704 284.372 55.032 284.372 54.28C284.372 53.08 284.82 52.136 285.716 51.448C286.628 50.76 288.028 50.416 289.916 50.416H292.892C292.892 49.6 292.644 48.976 292.148 48.544C291.652 48.096 290.908 47.872 289.916 47.872C289.228 47.872 288.548 47.984 287.876 48.208C287.22 48.416 286.66 48.704 286.196 49.072L284.852 46.456C285.556 45.96 286.396 45.576 287.372 45.304C288.364 45.032 289.38 44.896 290.42 44.896ZM290.132 55.672C290.772 55.672 291.34 55.528 291.836 55.24C292.332 54.936 292.684 54.496 292.892 53.92V52.6H290.324C288.788 52.6 288.02 53.104 288.02 54.112C288.02 54.592 288.204 54.976 288.572 55.264C288.956 55.536 289.476 55.672 290.132 55.672ZM300.025 40.192H303.769V58H300.025V40.192ZM307.244 40.192H310.988V58H307.244V40.192ZM327.11 51.592C327.11 51.64 327.086 51.976 327.038 52.6H317.27C317.446 53.4 317.862 54.032 318.518 54.496C319.174 54.96 319.99 55.192 320.966 55.192C321.638 55.192 322.23 55.096 322.742 54.904C323.27 54.696 323.758 54.376 324.206 53.944L326.198 56.104C324.982 57.496 323.206 58.192 320.87 58.192C319.414 58.192 318.126 57.912 317.006 57.352C315.886 56.776 315.022 55.984 314.414 54.976C313.806 53.968 313.502 52.824 313.502 51.544C313.502 50.28 313.798 49.144 314.39 48.136C314.998 47.112 315.822 46.32 316.862 45.76C317.918 45.184 319.094 44.896 320.39 44.896C321.654 44.896 322.798 45.168 323.822 45.712C324.846 46.256 325.646 47.04 326.222 48.064C326.814 49.072 327.11 50.248 327.11 51.592ZM320.414 47.728C319.566 47.728 318.854 47.968 318.278 48.448C317.702 48.928 317.35 49.584 317.222 50.416H323.582C323.454 49.6 323.102 48.952 322.526 48.472C321.95 47.976 321.246 47.728 320.414 47.728ZM333.947 58.192C332.875 58.192 331.827 58.064 330.803 57.808C329.779 57.536 328.963 57.2 328.355 56.8L329.603 54.112C330.179 54.48 330.875 54.784 331.691 55.024C332.507 55.248 333.307 55.36 334.091 55.36C335.675 55.36 336.467 54.968 336.467 54.184C336.467 53.816 336.251 53.552 335.819 53.392C335.387 53.232 334.723 53.096 333.827 52.984C332.771 52.824 331.899 52.64 331.211 52.432C330.523 52.224 329.923 51.856 329.411 51.328C328.915 50.8 328.667 50.048 328.667 49.072C328.667 48.256 328.899 47.536 329.363 46.912C329.843 46.272 330.531 45.776 331.427 45.424C332.339 45.072 333.411 44.896 334.643 44.896C335.555 44.896 336.459 45 337.355 45.208C338.267 45.4 339.019 45.672 339.611 46.024L338.363 48.688C337.227 48.048 335.987 47.728 334.643 47.728C333.843 47.728 333.243 47.84 332.843 48.064C332.443 48.288 332.243 48.576 332.243 48.928C332.243 49.328 332.459 49.608 332.891 49.768C333.323 49.928 334.011 50.08 334.955 50.224C336.011 50.4 336.875 50.592 337.547 50.8C338.219 50.992 338.803 51.352 339.299 51.88C339.795 52.408 340.043 53.144 340.043 54.088C340.043 54.888 339.803 55.6 339.323 56.224C338.843 56.848 338.139 57.336 337.211 57.688C336.299 58.024 335.211 58.192 333.947 58.192ZM342.353 45.088H346.097V58H342.353V45.088ZM344.225 43.288C343.537 43.288 342.977 43.088 342.545 42.688C342.113 42.288 341.897 41.792 341.897 41.2C341.897 40.608 342.113 40.112 342.545 39.712C342.977 39.312 343.537 39.112 344.225 39.112C344.913 39.112 345.473 39.304 345.905 39.688C346.337 40.072 346.553 40.552 346.553 41.128C346.553 41.752 346.337 42.272 345.905 42.688C345.473 43.088 344.913 43.288 344.225 43.288Z" fill="black"/>
<path d="M447.763 12.2V29H443.875V22.112H436.243V29H432.355V12.2H436.243V18.824H443.875V12.2H447.763ZM456.682 15.896C458.682 15.896 460.218 16.376 461.29 17.336C462.362 18.28 462.898 19.712 462.898 21.632V29H459.394V27.392C458.69 28.592 457.378 29.192 455.458 29.192C454.466 29.192 453.602 29.024 452.866 28.688C452.146 28.352 451.594 27.888 451.21 27.296C450.826 26.704 450.634 26.032 450.634 25.28C450.634 24.08 451.082 23.136 451.978 22.448C452.89 21.76 454.29 21.416 456.178 21.416H459.154C459.154 20.6 458.906 19.976 458.41 19.544C457.914 19.096 457.17 18.872 456.178 18.872C455.49 18.872 454.81 18.984 454.138 19.208C453.482 19.416 452.922 19.704 452.458 20.072L451.114 17.456C451.818 16.96 452.658 16.576 453.634 16.304C454.626 16.032 455.642 15.896 456.682 15.896ZM456.394 26.672C457.034 26.672 457.602 26.528 458.098 26.24C458.594 25.936 458.946 25.496 459.154 24.92V23.6H456.586C455.05 23.6 454.282 24.104 454.282 25.112C454.282 25.592 454.466 25.976 454.834 26.264C455.218 26.536 455.738 26.672 456.394 26.672ZM466.287 11.192H470.031V29H466.287V11.192ZM479.049 23.936L477.249 25.712V29H473.505V11.192H477.249V21.272L482.721 16.088H487.185L481.809 21.56L487.665 29H483.129L479.049 23.936ZM494.323 15.896C496.323 15.896 497.859 16.376 498.931 17.336C500.003 18.28 500.539 19.712 500.539 21.632V29H497.035V27.392C496.331 28.592 495.019 29.192 493.099 29.192C492.107 29.192 491.243 29.024 490.507 28.688C489.787 28.352 489.235 27.888 488.851 27.296C488.467 26.704 488.275 26.032 488.275 25.28C488.275 24.08 488.723 23.136 489.619 22.448C490.531 21.76 491.931 21.416 493.819 21.416H496.795C496.795 20.6 496.547 19.976 496.051 19.544C495.555 19.096 494.811 18.872 493.819 18.872C493.131 18.872 492.451 18.984 491.779 19.208C491.123 19.416 490.563 19.704 490.099 20.072L488.755 17.456C489.459 16.96 490.299 16.576 491.275 16.304C492.267 16.032 493.283 15.896 494.323 15.896ZM494.035 26.672C494.675 26.672 495.243 26.528 495.739 26.24C496.235 25.936 496.587 25.496 496.795 24.92V23.6H494.227C492.691 23.6 491.923 24.104 491.923 25.112C491.923 25.592 492.107 25.976 492.475 26.264C492.859 26.536 493.379 26.672 494.035 26.672ZM503.927 11.192H507.671V29H503.927V11.192ZM511.146 16.088H514.89V29H511.146V16.088ZM433.13 58.288C431.418 58.288 429.866 57.92 428.474 57.184C427.098 56.432 426.01 55.4 425.21 54.088C424.426 52.76 424.034 51.264 424.034 49.6C424.034 47.936 424.426 46.448 425.21 45.136C426.01 43.808 427.098 42.776 428.474 42.04C429.866 41.288 431.426 40.912 433.154 40.912C434.61 40.912 435.922 41.168 437.09 41.68C438.274 42.192 439.266 42.928 440.066 43.888L437.57 46.192C436.434 44.88 435.026 44.224 433.346 44.224C432.306 44.224 431.378 44.456 430.562 44.92C429.746 45.368 429.106 46 428.642 46.816C428.194 47.632 427.97 48.56 427.97 49.6C427.97 50.64 428.194 51.568 428.642 52.384C429.106 53.2 429.746 53.84 430.562 54.304C431.378 54.752 432.306 54.976 433.346 54.976C435.026 54.976 436.434 54.312 437.57 52.984L440.066 55.288C439.266 56.264 438.274 57.008 437.09 57.52C435.906 58.032 434.586 58.288 433.13 58.288ZM447.541 44.896C449.541 44.896 451.077 45.376 452.149 46.336C453.221 47.28 453.757 48.712 453.757 50.632V58H450.253V56.392C449.549 57.592 448.237 58.192 446.317 58.192C445.325 58.192 444.461 58.024 443.725 57.688C443.005 57.352 442.453 56.888 442.069 56.296C441.685 55.704 441.493 55.032 441.493 54.28C441.493 53.08 441.941 52.136 442.837 51.448C443.749 50.76 445.149 50.416 447.037 50.416H450.013C450.013 49.6 449.765 48.976 449.269 48.544C448.773 48.096 448.029 47.872 447.037 47.872C446.349 47.872 445.669 47.984 444.997 48.208C444.341 48.416 443.781 48.704 443.317 49.072L441.973 46.456C442.677 45.96 443.517 45.576 444.493 45.304C445.485 45.032 446.501 44.896 447.541 44.896ZM447.253 55.672C447.893 55.672 448.461 55.528 448.957 55.24C449.453 54.936 449.805 54.496 450.013 53.92V52.6H447.445C445.909 52.6 445.141 53.104 445.141 54.112C445.141 54.592 445.325 54.976 445.693 55.264C446.077 55.536 446.597 55.672 447.253 55.672ZM470.439 40.192V58H466.863V56.512C465.935 57.632 464.591 58.192 462.831 58.192C461.615 58.192 460.511 57.92 459.519 57.376C458.543 56.832 457.775 56.056 457.215 55.048C456.655 54.04 456.375 52.872 456.375 51.544C456.375 50.216 456.655 49.048 457.215 48.04C457.775 47.032 458.543 46.256 459.519 45.712C460.511 45.168 461.615 44.896 462.831 44.896C464.479 44.896 465.767 45.416 466.695 46.456V40.192H470.439ZM463.479 55.12C464.423 55.12 465.207 54.8 465.831 54.16C466.455 53.504 466.767 52.632 466.767 51.544C466.767 50.456 466.455 49.592 465.831 48.952C465.207 48.296 464.423 47.968 463.479 47.968C462.519 47.968 461.727 48.296 461.103 48.952C460.479 49.592 460.167 50.456 460.167 51.544C460.167 52.632 460.479 53.504 461.103 54.16C461.727 54.8 462.519 55.12 463.479 55.12ZM487.056 40.192V58H483.48V56.512C482.552 57.632 481.208 58.192 479.448 58.192C478.232 58.192 477.128 57.92 476.136 57.376C475.16 56.832 474.392 56.056 473.832 55.048C473.272 54.04 472.992 52.872 472.992 51.544C472.992 50.216 473.272 49.048 473.832 48.04C474.392 47.032 475.16 46.256 476.136 45.712C477.128 45.168 478.232 44.896 479.448 44.896C481.096 44.896 482.384 45.416 483.312 46.456V40.192H487.056ZM480.096 55.12C481.04 55.12 481.824 54.8 482.448 54.16C483.072 53.504 483.384 52.632 483.384 51.544C483.384 50.456 483.072 49.592 482.448 48.952C481.824 48.296 481.04 47.968 480.096 47.968C479.136 47.968 478.344 48.296 477.72 48.952C477.096 49.592 476.784 50.456 476.784 51.544C476.784 52.632 477.096 53.504 477.72 54.16C478.344 54.8 479.136 55.12 480.096 55.12ZM503.169 51.592C503.169 51.64 503.145 51.976 503.097 52.6H493.329C493.505 53.4 493.921 54.032 494.577 54.496C495.233 54.96 496.049 55.192 497.025 55.192C497.697 55.192 498.289 55.096 498.801 54.904C499.329 54.696 499.817 54.376 500.265 53.944L502.257 56.104C501.041 57.496 499.265 58.192 496.929 58.192C495.473 58.192 494.185 57.912 493.065 57.352C491.945 56.776 491.081 55.984 490.473 54.976C489.865 53.968 489.561 52.824 489.561 51.544C489.561 50.28 489.857 49.144 490.449 48.136C491.057 47.112 491.881 46.32 492.921 45.76C493.977 45.184 495.153 44.896 496.449 44.896C497.713 44.896 498.857 45.168 499.881 45.712C500.905 46.256 501.705 47.04 502.281 48.064C502.873 49.072 503.169 50.248 503.169 51.592ZM496.473 47.728C495.625 47.728 494.913 47.968 494.337 48.448C493.761 48.928 493.409 49.584 493.281 50.416H499.641C499.513 49.6 499.161 48.952 498.585 48.472C498.009 47.976 497.305 47.728 496.473 47.728ZM510.006 58.192C508.934 58.192 507.886 58.064 506.862 57.808C505.838 57.536 505.022 57.2 504.414 56.8L505.662 54.112C506.238 54.48 506.934 54.784 507.75 55.024C508.566 55.248 509.366 55.36 510.15 55.36C511.734 55.36 512.526 54.968 512.526 54.184C512.526 53.816 512.31 53.552 511.878 53.392C511.446 53.232 510.782 53.096 509.886 52.984C508.83 52.824 507.958 52.64 507.27 52.432C506.582 52.224 505.982 51.856 505.47 51.328C504.974 50.8 504.726 50.048 504.726 49.072C504.726 48.256 504.958 47.536 505.422 46.912C505.902 46.272 506.59 45.776 507.486 45.424C508.398 45.072 509.47 44.896 510.702 44.896C511.614 44.896 512.518 45 513.414 45.208C514.326 45.4 515.078 45.672 515.67 46.024L514.422 48.688C513.286 48.048 512.046 47.728 510.702 47.728C509.902 47.728 509.302 47.84 508.902 48.064C508.502 48.288 508.302 48.576 508.302 48.928C508.302 49.328 508.518 49.608 508.95 49.768C509.382 49.928 510.07 50.08 511.014 50.224C512.07 50.4 512.934 50.592 513.606 50.8C514.278 50.992 514.862 51.352 515.358 51.88C515.854 52.408 516.102 53.144 516.102 54.088C516.102 54.888 515.862 55.6 515.382 56.224C514.902 56.848 514.198 57.336 513.27 57.688C512.358 58.024 511.27 58.192 510.006 58.192ZM518.412 45.088H522.156V58H518.412V45.088ZM520.284 43.288C519.596 43.288 519.036 43.088 518.604 42.688C518.172 42.288 517.956 41.792 517.956 41.2C517.956 40.608 518.172 40.112 518.604 39.712C519.036 39.312 519.596 39.112 520.284 39.112C520.972 39.112 521.532 39.304 521.964 39.688C522.396 40.072 522.612 40.552 522.612 41.128C522.612 41.752 522.396 42.272 521.964 42.688C521.532 43.088 520.972 43.288 520.284 43.288Z" fill="black"/>
<path d="M596.424 41.2V58H592.536V44.32H589.176V41.2H596.424ZM605.102 47.512C607.47 47.512 609.214 47.984 610.334 48.928C611.47 49.872 612.038 51.136 612.038 52.72C612.038 53.744 611.782 54.68 611.27 55.528C610.758 56.36 609.974 57.032 608.918 57.544C607.878 58.04 606.59 58.288 605.054 58.288C603.87 58.288 602.702 58.136 601.55 57.832C600.414 57.512 599.446 57.064 598.646 56.488L600.182 53.512C600.822 53.992 601.558 54.368 602.39 54.64C603.222 54.896 604.078 55.024 604.958 55.024C605.934 55.024 606.702 54.832 607.262 54.448C607.822 54.064 608.102 53.528 608.102 52.84C608.102 52.12 607.806 51.576 607.214 51.208C606.638 50.84 605.63 50.656 604.19 50.656H599.894L600.758 41.2H611.006V44.32H603.998L603.734 47.512H605.102ZM624.949 44.368H619.573V41.2H634.213V44.368H628.837V58H624.949V44.368ZM647.376 51.592C647.376 51.64 647.352 51.976 647.304 52.6H637.536C637.712 53.4 638.128 54.032 638.784 54.496C639.44 54.96 640.256 55.192 641.232 55.192C641.904 55.192 642.496 55.096 643.008 54.904C643.536 54.696 644.024 54.376 644.472 53.944L646.464 56.104C645.248 57.496 643.472 58.192 641.136 58.192C639.68 58.192 638.392 57.912 637.272 57.352C636.152 56.776 635.288 55.984 634.68 54.976C634.072 53.968 633.768 52.824 633.768 51.544C633.768 50.28 634.064 49.144 634.656 48.136C635.264 47.112 636.088 46.32 637.128 45.76C638.184 45.184 639.36 44.896 640.656 44.896C641.92 44.896 643.064 45.168 644.088 45.712C645.112 46.256 645.912 47.04 646.488 48.064C647.08 49.072 647.376 50.248 647.376 51.592ZM640.68 47.728C639.832 47.728 639.12 47.968 638.544 48.448C637.968 48.928 637.616 49.584 637.488 50.416H643.848C643.72 49.6 643.368 48.952 642.792 48.472C642.216 47.976 641.512 47.728 640.68 47.728ZM666.405 44.896C668.021 44.896 669.301 45.376 670.245 46.336C671.205 47.28 671.685 48.704 671.685 50.608V58H667.941V51.184C667.941 50.16 667.725 49.4 667.293 48.904C666.877 48.392 666.277 48.136 665.493 48.136C664.613 48.136 663.917 48.424 663.405 49C662.893 49.56 662.637 50.4 662.637 51.52V58H658.893V51.184C658.893 49.152 658.077 48.136 656.445 48.136C655.581 48.136 654.893 48.424 654.381 49C653.869 49.56 653.613 50.4 653.613 51.52V58H649.869V45.088H653.445V46.576C653.925 46.032 654.509 45.616 655.197 45.328C655.901 45.04 656.669 44.896 657.501 44.896C658.413 44.896 659.237 45.08 659.973 45.448C660.709 45.8 661.301 46.32 661.749 47.008C662.277 46.336 662.941 45.816 663.741 45.448C664.557 45.08 665.445 44.896 666.405 44.896ZM691.577 44.896C693.193 44.896 694.473 45.376 695.417 46.336C696.377 47.28 696.857 48.704 696.857 50.608V58H693.113V51.184C693.113 50.16 692.897 49.4 692.465 48.904C692.049 48.392 691.449 48.136 690.665 48.136C689.785 48.136 689.089 48.424 688.577 49C688.065 49.56 687.809 50.4 687.809 51.52V58H684.065V51.184C684.065 49.152 683.249 48.136 681.617 48.136C680.753 48.136 680.065 48.424 679.553 49C679.041 49.56 678.785 50.4 678.785 51.52V58H675.041V45.088H678.617V46.576C679.097 46.032 679.681 45.616 680.368 45.328C681.073 45.04 681.841 44.896 682.673 44.896C683.585 44.896 684.409 45.08 685.145 45.448C685.881 45.8 686.473 46.32 686.921 47.008C687.449 46.336 688.113 45.816 688.913 45.448C689.729 45.08 690.617 44.896 691.577 44.896ZM713.22 45.088V58H709.668V56.464C709.172 57.024 708.58 57.456 707.892 57.76C707.204 58.048 706.46 58.192 705.66 58.192C703.964 58.192 702.62 57.704 701.628 56.728C700.636 55.752 700.14 54.304 700.14 52.384V45.088H703.884V51.832C703.884 53.912 704.756 54.952 706.5 54.952C707.396 54.952 708.116 54.664 708.66 54.088C709.204 53.496 709.476 52.624 709.476 51.472V45.088H713.22ZM727.321 55.12V58H715.801V55.744L722.377 47.968H715.969V45.088H727.105V47.344L720.529 55.12H727.321Z" fill="black"/>
<path d="M781.389 58L781.365 47.92L776.421 56.224H774.669L769.749 48.136V58H766.101V41.2H769.317L775.605 51.64L781.797 41.2H784.989L785.037 58H781.389ZM788.759 45.088H792.503V58H788.759V45.088ZM790.631 43.288C789.943 43.288 789.383 43.088 788.951 42.688C788.519 42.288 788.303 41.792 788.303 41.2C788.303 40.608 788.519 40.112 788.951 39.712C789.383 39.312 789.943 39.112 790.631 39.112C791.319 39.112 791.879 39.304 792.311 39.688C792.743 40.072 792.959 40.552 792.959 41.128C792.959 41.752 792.743 42.272 792.311 42.688C791.879 43.088 791.319 43.288 790.631 43.288ZM812.514 44.896C814.13 44.896 815.41 45.376 816.354 46.336C817.314 47.28 817.794 48.704 817.794 50.608V58H814.05V51.184C814.05 50.16 813.834 49.4 813.402 48.904C812.986 48.392 812.386 48.136 811.602 48.136C810.722 48.136 810.026 48.424 809.514 49C809.002 49.56 808.746 50.4 808.746 51.52V58H805.002V51.184C805.002 49.152 804.186 48.136 802.554 48.136C801.69 48.136 801.002 48.424 800.49 49C799.978 49.56 799.722 50.4 799.722 51.52V58H795.978V45.088H799.554V46.576C800.034 46.032 800.618 45.616 801.306 45.328C802.01 45.04 802.778 44.896 803.61 44.896C804.522 44.896 805.346 45.08 806.082 45.448C806.818 45.8 807.41 46.32 807.858 47.008C808.386 46.336 809.05 45.816 809.85 45.448C810.666 45.08 811.554 44.896 812.514 44.896ZM826.358 44.896C828.358 44.896 829.894 45.376 830.966 46.336C832.038 47.28 832.574 48.712 832.574 50.632V58H829.07V56.392C828.366 57.592 827.054 58.192 825.134 58.192C824.142 58.192 823.278 58.024 822.542 57.688C821.822 57.352 821.27 56.888 820.886 56.296C820.502 55.704 820.31 55.032 820.31 54.28C820.31 53.08 820.758 52.136 821.654 51.448C822.566 50.76 823.966 50.416 825.854 50.416H828.83C828.83 49.6 828.582 48.976 828.086 48.544C827.59 48.096 826.846 47.872 825.854 47.872C825.166 47.872 824.486 47.984 823.814 48.208C823.158 48.416 822.598 48.704 822.134 49.072L820.79 46.456C821.494 45.96 822.334 45.576 823.31 45.304C824.302 45.032 825.318 44.896 826.358 44.896ZM826.07 55.672C826.71 55.672 827.278 55.528 827.774 55.24C828.27 54.936 828.622 54.496 828.83 53.92V52.6H826.262C824.726 52.6 823.958 53.104 823.958 54.112C823.958 54.592 824.142 54.976 824.51 55.264C824.894 55.536 825.414 55.672 826.07 55.672ZM839.538 46.792C839.986 46.168 840.586 45.696 841.338 45.376C842.106 45.056 842.986 44.896 843.978 44.896V48.352C843.562 48.32 843.282 48.304 843.138 48.304C842.066 48.304 841.226 48.608 840.618 49.216C840.01 49.808 839.706 50.704 839.706 51.904V58H835.962V45.088H839.538V46.792ZM858.879 58.288C857.551 58.288 856.263 58.112 855.015 57.76C853.783 57.392 852.791 56.92 852.039 56.344L853.359 53.416C854.079 53.944 854.935 54.368 855.927 54.688C856.919 55.008 857.911 55.168 858.903 55.168C860.007 55.168 860.823 55.008 861.351 54.688C861.879 54.352 862.143 53.912 862.143 53.368C862.143 52.968 861.983 52.64 861.663 52.384C861.359 52.112 860.959 51.896 860.463 51.736C859.983 51.576 859.327 51.4 858.495 51.208C857.215 50.904 856.167 50.6 855.351 50.296C854.535 49.992 853.831 49.504 853.239 48.832C852.663 48.16 852.375 47.264 852.375 46.144C852.375 45.168 852.639 44.288 853.167 43.504C853.695 42.704 854.487 42.072 855.543 41.608C856.615 41.144 857.919 40.912 859.455 40.912C860.527 40.912 861.575 41.04 862.599 41.296C863.623 41.552 864.519 41.92 865.287 42.4L864.087 45.352C862.535 44.472 860.983 44.032 859.431 44.032C858.343 44.032 857.535 44.208 857.007 44.56C856.495 44.912 856.239 45.376 856.239 45.952C856.239 46.528 856.535 46.96 857.127 47.248C857.735 47.52 858.655 47.792 859.887 48.064C861.167 48.368 862.215 48.672 863.031 48.976C863.847 49.28 864.543 49.76 865.119 50.416C865.711 51.072 866.007 51.96 866.007 53.08C866.007 54.04 865.735 54.92 865.191 55.72C864.663 56.504 863.863 57.128 862.791 57.592C861.719 58.056 860.415 58.288 858.879 58.288ZM868.4 45.088H872.144V58H868.4V45.088ZM870.272 43.288C869.584 43.288 869.024 43.088 868.592 42.688C868.16 42.288 867.944 41.792 867.944 41.2C867.944 40.608 868.16 40.112 868.592 39.712C869.024 39.312 869.584 39.112 870.272 39.112C870.96 39.112 871.52 39.304 871.952 39.688C872.384 40.072 872.6 40.552 872.6 41.128C872.6 41.752 872.384 42.272 871.952 42.688C871.52 43.088 870.96 43.288 870.272 43.288ZM883.467 44.896C885.067 44.896 886.355 45.376 887.331 46.336C888.323 47.296 888.819 48.72 888.819 50.608V58H885.075V51.184C885.075 50.16 884.851 49.4 884.403 48.904C883.955 48.392 883.307 48.136 882.459 48.136C881.515 48.136 880.763 48.432 880.203 49.024C879.643 49.6 879.363 50.464 879.363 51.616V58H875.619V45.088H879.195V46.6C879.691 46.056 880.307 45.64 881.043 45.352C881.779 45.048 882.587 44.896 883.467 44.896ZM897.42 44.896C899.42 44.896 900.956 45.376 902.028 46.336C903.1 47.28 903.636 48.712 903.636 50.632V58H900.132V56.392C899.428 57.592 898.116 58.192 896.196 58.192C895.204 58.192 894.34 58.024 893.604 57.688C892.884 57.352 892.332 56.888 891.948 56.296C891.564 55.704 891.372 55.032 891.372 54.28C891.372 53.08 891.82 52.136 892.716 51.448C893.628 50.76 895.028 50.416 896.916 50.416H899.892C899.892 49.6 899.644 48.976 899.148 48.544C898.652 48.096 897.908 47.872 896.916 47.872C896.228 47.872 895.548 47.984 894.876 48.208C894.22 48.416 893.66 48.704 893.196 49.072L891.852 46.456C892.556 45.96 893.396 45.576 894.372 45.304C895.364 45.032 896.38 44.896 897.42 44.896ZM897.132 55.672C897.772 55.672 898.34 55.528 898.836 55.24C899.332 54.936 899.684 54.496 899.892 53.92V52.6H897.324C895.788 52.6 895.02 53.104 895.02 54.112C895.02 54.592 895.204 54.976 895.572 55.264C895.956 55.536 896.476 55.672 897.132 55.672ZM914.873 44.896C916.473 44.896 917.761 45.376 918.737 46.336C919.729 47.296 920.225 48.72 920.225 50.608V58H916.481V51.184C916.481 50.16 916.257 49.4 915.809 48.904C915.361 48.392 914.713 48.136 913.865 48.136C912.921 48.136 912.169 48.432 911.609 49.024C911.049 49.6 910.769 50.464 910.769 51.616V58H907.025V45.088H910.601V46.6C911.097 46.056 911.713 45.64 912.449 45.352C913.185 45.048 913.993 44.896 914.873 44.896Z" fill="black"/>
<path d="M948.25 41.2H955.882C957.706 41.2 959.314 41.552 960.706 42.256C962.114 42.944 963.202 43.92 963.97 45.184C964.754 46.448 965.146 47.92 965.146 49.6C965.146 51.28 964.754 52.752 963.97 54.016C963.202 55.28 962.114 56.264 960.706 56.968C959.314 57.656 957.706 58 955.882 58H948.25V41.2ZM955.69 54.808C957.37 54.808 958.706 54.344 959.698 53.416C960.706 52.472 961.21 51.2 961.21 49.6C961.21 48 960.706 46.736 959.698 45.808C958.706 44.864 957.37 44.392 955.69 44.392H952.138V54.808H955.69ZM973.958 58.192C972.598 58.192 971.374 57.912 970.286 57.352C969.214 56.776 968.374 55.984 967.766 54.976C967.158 53.968 966.854 52.824 966.854 51.544C966.854 50.264 967.158 49.12 967.766 48.112C968.374 47.104 969.214 46.32 970.286 45.76C971.374 45.184 972.598 44.896 973.958 44.896C975.318 44.896 976.534 45.184 977.606 45.76C978.678 46.32 979.518 47.104 980.126 48.112C980.734 49.12 981.038 50.264 981.038 51.544C981.038 52.824 980.734 53.968 980.126 54.976C979.518 55.984 978.678 56.776 977.606 57.352C976.534 57.912 975.318 58.192 973.958 58.192ZM973.958 55.12C974.918 55.12 975.702 54.8 976.31 54.16C976.934 53.504 977.246 52.632 977.246 51.544C977.246 50.456 976.934 49.592 976.31 48.952C975.702 48.296 974.918 47.968 973.958 47.968C972.998 47.968 972.206 48.296 971.582 48.952C970.958 49.592 970.646 50.456 970.646 51.544C970.646 52.632 970.958 53.504 971.582 54.16C972.206 54.8 972.998 55.12 973.958 55.12ZM996.861 45.088V55.84C996.861 58.208 996.245 59.968 995.013 61.12C993.781 62.272 991.981 62.848 989.613 62.848C988.365 62.848 987.181 62.696 986.061 62.392C984.941 62.088 984.013 61.648 983.277 61.072L984.765 58.384C985.309 58.832 985.997 59.184 986.829 59.44C987.661 59.712 988.493 59.848 989.325 59.848C990.621 59.848 991.573 59.552 992.181 58.96C992.805 58.384 993.117 57.504 993.117 56.32V55.768C992.141 56.84 990.781 57.376 989.037 57.376C987.853 57.376 986.765 57.12 985.773 56.608C984.797 56.08 984.021 55.344 983.445 54.4C982.869 53.456 982.581 52.368 982.581 51.136C982.581 49.904 982.869 48.816 983.445 47.872C984.021 46.928 984.797 46.2 985.773 45.688C986.765 45.16 987.853 44.896 989.037 44.896C990.909 44.896 992.333 45.512 993.309 46.744V45.088H996.861ZM989.781 54.304C990.773 54.304 991.581 54.016 992.205 53.44C992.845 52.848 993.165 52.08 993.165 51.136C993.165 50.192 992.845 49.432 992.205 48.856C991.581 48.264 990.773 47.968 989.781 47.968C988.789 47.968 987.973 48.264 987.333 48.856C986.693 49.432 986.373 50.192 986.373 51.136C986.373 52.08 986.693 52.848 987.333 53.44C987.973 54.016 988.789 54.304 989.781 54.304ZM989.997 43.624C988.733 43.624 987.693 43.296 986.877 42.64C986.061 41.984 985.629 41.096 985.581 39.976H987.933C987.949 40.488 988.149 40.904 988.533 41.224C988.933 41.528 989.421 41.68 989.997 41.68C990.573 41.68 991.053 41.528 991.437 41.224C991.837 40.904 992.045 40.488 992.061 39.976H994.413C994.365 41.096 993.933 41.984 993.117 42.64C992.301 43.296 991.261 43.624 989.997 43.624ZM1013.35 45.088V58H1009.8V56.464C1009.31 57.024 1008.71 57.456 1008.03 57.76C1007.34 58.048 1006.59 58.192 1005.79 58.192C1004.1 58.192 1002.75 57.704 1001.76 56.728C1000.77 55.752 1000.27 54.304 1000.27 52.384V45.088H1004.02V51.832C1004.02 53.912 1004.89 54.952 1006.63 54.952C1007.53 54.952 1008.25 54.664 1008.79 54.088C1009.34 53.496 1009.61 52.624 1009.61 51.472V45.088H1013.35ZM1029.4 58.288C1028.07 58.288 1026.79 58.112 1025.54 57.76C1024.31 57.392 1023.31 56.92 1022.56 56.344L1023.88 53.416C1024.6 53.944 1025.46 54.368 1026.45 54.688C1027.44 55.008 1028.43 55.168 1029.43 55.168C1030.53 55.168 1031.35 55.008 1031.87 54.688C1032.4 54.352 1032.67 53.912 1032.67 53.368C1032.67 52.968 1032.51 52.64 1032.19 52.384C1031.88 52.112 1031.48 51.896 1030.99 51.736C1030.51 51.576 1029.85 51.4 1029.02 51.208C1027.74 50.904 1026.69 50.6 1025.87 50.296C1025.06 49.992 1024.35 49.504 1023.76 48.832C1023.19 48.16 1022.9 47.264 1022.9 46.144C1022.9 45.168 1023.16 44.288 1023.69 43.504C1024.22 42.704 1025.01 42.072 1026.07 41.608C1027.14 41.144 1028.44 40.912 1029.98 40.912C1031.05 40.912 1032.1 41.04 1033.12 41.296C1034.15 41.552 1035.04 41.92 1035.81 42.4L1034.61 45.352C1033.06 44.472 1031.51 44.032 1029.95 44.032C1028.87 44.032 1028.06 44.208 1027.53 44.56C1027.02 44.912 1026.76 45.376 1026.76 45.952C1026.76 46.528 1027.06 46.96 1027.65 47.248C1028.26 47.52 1029.18 47.792 1030.41 48.064C1031.69 48.368 1032.74 48.672 1033.55 48.976C1034.37 49.28 1035.07 49.76 1035.64 50.416C1036.23 51.072 1036.53 51.96 1036.53 53.08C1036.53 54.04 1036.26 54.92 1035.71 55.72C1035.19 56.504 1034.39 57.128 1033.31 57.592C1032.24 58.056 1030.94 58.288 1029.4 58.288ZM1044.13 44.896C1046.13 44.896 1047.67 45.376 1048.74 46.336C1049.81 47.28 1050.35 48.712 1050.35 50.632V58H1046.84V56.392C1046.14 57.592 1044.83 58.192 1042.91 58.192C1041.92 58.192 1041.05 58.024 1040.32 57.688C1039.6 57.352 1039.04 56.888 1038.66 56.296C1038.28 55.704 1038.08 55.032 1038.08 54.28C1038.08 53.08 1038.53 52.136 1039.43 51.448C1040.34 50.76 1041.74 50.416 1043.63 50.416H1046.6C1046.6 49.6 1046.36 48.976 1045.86 48.544C1045.36 48.096 1044.62 47.872 1043.63 47.872C1042.94 47.872 1042.26 47.984 1041.59 48.208C1040.93 48.416 1040.37 48.704 1039.91 49.072L1038.56 46.456C1039.27 45.96 1040.11 45.576 1041.08 45.304C1042.08 45.032 1043.09 44.896 1044.13 44.896ZM1043.84 55.672C1044.48 55.672 1045.05 55.528 1045.55 55.24C1046.04 54.936 1046.4 54.496 1046.6 53.92V52.6H1044.04C1042.5 52.6 1041.73 53.104 1041.73 54.112C1041.73 54.592 1041.92 54.976 1042.28 55.264C1042.67 55.536 1043.19 55.672 1043.84 55.672ZM1061.58 44.896C1063.18 44.896 1064.47 45.376 1065.45 46.336C1066.44 47.296 1066.94 48.72 1066.94 50.608V58H1063.19V51.184C1063.19 50.16 1062.97 49.4 1062.52 48.904C1062.07 48.392 1061.42 48.136 1060.58 48.136C1059.63 48.136 1058.88 48.432 1058.32 49.024C1057.76 49.6 1057.48 50.464 1057.48 51.616V58H1053.74V45.088H1057.31V46.6C1057.81 46.056 1058.42 45.64 1059.16 45.352C1059.9 45.048 1060.7 44.896 1061.58 44.896ZM1075.54 44.896C1077.54 44.896 1079.07 45.376 1080.15 46.336C1081.22 47.28 1081.75 48.712 1081.75 50.632V58H1078.25V56.392C1077.55 57.592 1076.23 58.192 1074.31 58.192C1073.32 58.192 1072.46 58.024 1071.72 57.688C1071 57.352 1070.45 56.888 1070.07 56.296C1069.68 55.704 1069.49 55.032 1069.49 54.28C1069.49 53.08 1069.94 52.136 1070.83 51.448C1071.75 50.76 1073.15 50.416 1075.03 50.416H1078.01C1078.01 49.6 1077.76 48.976 1077.27 48.544C1076.77 48.096 1076.03 47.872 1075.03 47.872C1074.35 47.872 1073.67 47.984 1072.99 48.208C1072.34 48.416 1071.78 48.704 1071.31 49.072L1069.97 46.456C1070.67 45.96 1071.51 45.576 1072.49 45.304C1073.48 45.032 1074.5 44.896 1075.54 44.896ZM1075.25 55.672C1075.89 55.672 1076.46 55.528 1076.95 55.24C1077.45 54.936 1077.8 54.496 1078.01 53.92V52.6H1075.44C1073.91 52.6 1073.14 53.104 1073.14 54.112C1073.14 54.592 1073.32 54.976 1073.69 55.264C1074.07 55.536 1074.59 55.672 1075.25 55.672ZM1097.72 45.088L1091.89 58.792C1091.3 60.28 1090.56 61.328 1089.68 61.936C1088.82 62.544 1087.77 62.848 1086.54 62.848C1085.87 62.848 1085.2 62.744 1084.55 62.536C1083.89 62.328 1083.36 62.04 1082.94 61.672L1084.31 59.008C1084.6 59.264 1084.92 59.464 1085.29 59.608C1085.68 59.752 1086.05 59.824 1086.42 59.824C1086.93 59.824 1087.35 59.696 1087.67 59.44C1087.99 59.2 1088.28 58.792 1088.53 58.216L1088.58 58.096L1082.99 45.088H1086.85L1090.48 53.848L1094.12 45.088H1097.72ZM1099.25 45.088H1103V58H1099.25V45.088ZM1101.12 43.288C1100.44 43.288 1099.88 43.088 1099.44 42.688C1099.01 42.288 1098.8 41.792 1098.8 41.2C1098.8 40.608 1099.01 40.112 1099.44 39.712C1099.88 39.312 1100.44 39.112 1101.12 39.112C1101.81 39.112 1102.37 39.304 1102.8 39.688C1103.24 40.072 1103.45 40.552 1103.45 41.128C1103.45 41.752 1103.24 42.272 1102.8 42.688C1102.37 43.088 1101.81 43.288 1101.12 43.288Z" fill="black"/>
<path d="M1170.25 25.832V29H1157.55V26.48L1164.03 20.36C1164.72 19.704 1165.19 19.144 1165.43 18.68C1165.67 18.2 1165.79 17.728 1165.79 17.264C1165.79 16.592 1165.55 16.08 1165.09 15.728C1164.64 15.36 1163.98 15.176 1163.1 15.176C1162.36 15.176 1161.7 15.32 1161.11 15.608C1160.51 15.88 1160.02 16.296 1159.62 16.856L1156.79 15.032C1157.44 14.056 1158.35 13.296 1159.5 12.752C1160.65 12.192 1161.97 11.912 1163.46 11.912C1164.71 11.912 1165.79 12.12 1166.72 12.536C1167.67 12.936 1168.39 13.512 1168.91 14.264C1169.43 15 1169.7 15.872 1169.7 16.88C1169.7 17.792 1169.51 18.648 1169.12 19.448C1168.74 20.248 1167.99 21.16 1166.89 22.184L1163.03 25.832H1170.25ZM1177.76 11.912C1180.11 11.912 1181.95 12.632 1183.28 14.072C1184.61 15.496 1185.27 17.552 1185.27 20.24C1185.27 22.144 1184.91 23.776 1184.19 25.136C1183.49 26.496 1182.49 27.528 1181.19 28.232C1179.89 28.936 1178.4 29.288 1176.7 29.288C1175.81 29.288 1174.95 29.192 1174.13 29C1173.32 28.792 1172.62 28.504 1172.05 28.136L1173.49 25.28C1174.3 25.84 1175.35 26.12 1176.63 26.12C1178.05 26.12 1179.18 25.704 1180.01 24.872C1180.85 24.024 1181.29 22.808 1181.36 21.224C1180.35 22.232 1178.96 22.736 1177.18 22.736C1176.11 22.736 1175.13 22.52 1174.25 22.088C1173.37 21.656 1172.68 21.048 1172.17 20.264C1171.65 19.464 1171.4 18.544 1171.4 17.504C1171.4 16.384 1171.68 15.4 1172.24 14.552C1172.8 13.704 1173.56 13.056 1174.52 12.608C1175.49 12.144 1176.57 11.912 1177.76 11.912ZM1178.05 19.832C1178.89 19.832 1179.58 19.6 1180.11 19.136C1180.65 18.656 1180.93 18.048 1180.93 17.312C1180.93 16.576 1180.66 15.976 1180.13 15.512C1179.62 15.048 1178.91 14.816 1178 14.816C1177.17 14.816 1176.49 15.04 1175.96 15.488C1175.45 15.936 1175.19 16.544 1175.19 17.312C1175.19 18.08 1175.45 18.696 1175.96 19.16C1176.49 19.608 1177.18 19.832 1178.05 19.832ZM1208 25.88V29H1194.99V12.2H1207.68V15.32H1198.85V18.968H1206.65V21.992H1198.85V25.88H1208ZM1216.37 23.936L1214.57 25.712V29H1210.83V11.192H1214.57V21.272L1220.04 16.088H1224.51L1219.13 21.56L1224.99 29H1220.45L1216.37 23.936ZM1226.58 16.088H1230.32V29H1226.58V16.088ZM1228.45 14.288C1227.76 14.288 1227.2 14.088 1226.77 13.688C1226.34 13.288 1226.12 12.792 1226.12 12.2C1226.12 11.608 1226.34 11.112 1226.77 10.712C1227.2 10.312 1227.76 10.112 1228.45 10.112C1229.14 10.112 1229.7 10.304 1230.13 10.688C1230.56 11.072 1230.78 11.552 1230.78 12.128C1230.78 12.752 1230.56 13.272 1230.13 13.688C1229.7 14.088 1229.14 14.288 1228.45 14.288ZM1250.33 15.896C1251.95 15.896 1253.23 16.376 1254.17 17.336C1255.13 18.28 1255.61 19.704 1255.61 21.608V29H1251.87V22.184C1251.87 21.16 1251.65 20.4 1251.22 19.904C1250.8 19.392 1250.2 19.136 1249.42 19.136C1248.54 19.136 1247.84 19.424 1247.33 20C1246.82 20.56 1246.56 21.4 1246.56 22.52V29H1242.82V22.184C1242.82 20.152 1242 19.136 1240.37 19.136C1239.51 19.136 1238.82 19.424 1238.31 20C1237.79 20.56 1237.54 21.4 1237.54 22.52V29H1233.79V16.088H1237.37V17.576C1237.85 17.032 1238.43 16.616 1239.12 16.328C1239.83 16.04 1240.59 15.896 1241.43 15.896C1242.34 15.896 1243.16 16.08 1243.9 16.448C1244.63 16.8 1245.23 17.32 1245.67 18.008C1246.2 17.336 1246.87 16.816 1247.67 16.448C1248.48 16.08 1249.37 15.896 1250.33 15.896ZM1142.52 58.288C1140.81 58.288 1139.26 57.92 1137.87 57.184C1136.49 56.432 1135.4 55.4 1134.6 54.088C1133.82 52.76 1133.43 51.264 1133.43 49.6C1133.43 47.936 1133.82 46.448 1134.6 45.136C1135.4 43.808 1136.49 42.776 1137.87 42.04C1139.26 41.288 1140.82 40.912 1142.55 40.912C1144 40.912 1145.32 41.168 1146.48 41.68C1147.67 42.192 1148.66 42.928 1149.46 43.888L1146.96 46.192C1145.83 44.88 1144.42 44.224 1142.74 44.224C1141.7 44.224 1140.77 44.456 1139.96 44.92C1139.14 45.368 1138.5 46 1138.04 46.816C1137.59 47.632 1137.36 48.56 1137.36 49.6C1137.36 50.64 1137.59 51.568 1138.04 52.384C1138.5 53.2 1139.14 53.84 1139.96 54.304C1140.77 54.752 1141.7 54.976 1142.74 54.976C1144.42 54.976 1145.83 54.312 1146.96 52.984L1149.46 55.288C1148.66 56.264 1147.67 57.008 1146.48 57.52C1145.3 58.032 1143.98 58.288 1142.52 58.288ZM1164.5 45.088V58H1160.95V56.464C1160.45 57.024 1159.86 57.456 1159.17 57.76C1158.49 58.048 1157.74 58.192 1156.94 58.192C1155.25 58.192 1153.9 57.704 1152.91 56.728C1151.92 55.752 1151.42 54.304 1151.42 52.384V45.088H1155.17V51.832C1155.17 53.912 1156.04 54.952 1157.78 54.952C1158.68 54.952 1159.4 54.664 1159.94 54.088C1160.49 53.496 1160.76 52.624 1160.76 51.472V45.088H1164.5ZM1184.51 44.896C1186.12 44.896 1187.4 45.376 1188.35 46.336C1189.31 47.28 1189.79 48.704 1189.79 50.608V58H1186.04V51.184C1186.04 50.16 1185.83 49.4 1185.39 48.904C1184.98 48.392 1184.38 48.136 1183.59 48.136C1182.71 48.136 1182.02 48.424 1181.51 49C1180.99 49.56 1180.74 50.4 1180.74 51.52V58H1176.99V51.184C1176.99 49.152 1176.18 48.136 1174.55 48.136C1173.68 48.136 1172.99 48.424 1172.48 49C1171.97 49.56 1171.71 50.4 1171.71 51.52V58H1167.97V45.088H1171.55V46.576C1172.03 46.032 1172.61 45.616 1173.3 45.328C1174 45.04 1174.77 44.896 1175.6 44.896C1176.51 44.896 1177.34 45.08 1178.07 45.448C1178.81 45.8 1179.4 46.32 1179.85 47.008C1180.38 46.336 1181.04 45.816 1181.84 45.448C1182.66 45.08 1183.55 44.896 1184.51 44.896ZM1200.99 44.896C1202.59 44.896 1203.88 45.376 1204.85 46.336C1205.85 47.296 1206.34 48.72 1206.34 50.608V58H1202.6V51.184C1202.6 50.16 1202.37 49.4 1201.93 48.904C1201.48 48.392 1200.83 48.136 1199.98 48.136C1199.04 48.136 1198.29 48.432 1197.73 49.024C1197.17 49.6 1196.89 50.464 1196.89 51.616V58H1193.14V40.192H1196.89V46.432C1197.38 45.936 1197.98 45.56 1198.69 45.304C1199.39 45.032 1200.16 44.896 1200.99 44.896ZM1222.74 45.088V58H1219.19V56.464C1218.7 57.024 1218.1 57.456 1217.42 57.76C1216.73 58.048 1215.98 58.192 1215.18 58.192C1213.49 58.192 1212.14 57.704 1211.15 56.728C1210.16 55.752 1209.66 54.304 1209.66 52.384V45.088H1213.41V51.832C1213.41 53.912 1214.28 54.952 1216.02 54.952C1216.92 54.952 1217.64 54.664 1218.18 54.088C1218.73 53.496 1219 52.624 1219 51.472V45.088H1222.74ZM1229.79 46.792C1230.24 46.168 1230.84 45.696 1231.59 45.376C1232.36 45.056 1233.24 44.896 1234.23 44.896V48.352C1233.81 48.32 1233.53 48.304 1233.39 48.304C1232.32 48.304 1231.48 48.608 1230.87 49.216C1230.26 49.808 1229.96 50.704 1229.96 51.904V58H1226.21V45.088H1229.79V46.792ZM1236.45 45.088H1240.2V58H1236.45V45.088ZM1238.33 43.288C1237.64 43.288 1237.08 43.088 1236.65 42.688C1236.21 42.288 1236 41.792 1236 41.2C1236 40.608 1236.21 40.112 1236.65 39.712C1237.08 39.312 1237.64 39.112 1238.33 39.112C1239.01 39.112 1239.57 39.304 1240.01 39.688C1240.44 40.072 1240.65 40.552 1240.65 41.128C1240.65 41.752 1240.44 42.272 1240.01 42.688C1239.57 43.088 1239.01 43.288 1238.33 43.288ZM1256.49 45.088L1250.66 58.792C1250.07 60.28 1249.33 61.328 1248.45 61.936C1247.59 62.544 1246.54 62.848 1245.31 62.848C1244.63 62.848 1243.97 62.744 1243.31 62.536C1242.66 62.328 1242.12 62.04 1241.71 61.672L1243.07 59.008C1243.36 59.264 1243.69 59.464 1244.06 59.608C1244.44 59.752 1244.82 59.824 1245.19 59.824C1245.7 59.824 1246.11 59.696 1246.43 59.44C1246.75 59.2 1247.04 58.792 1247.3 58.216L1247.35 58.096L1241.75 45.088H1245.62L1249.24 53.848L1252.89 45.088H1256.49ZM1270.31 51.592C1270.31 51.64 1270.29 51.976 1270.24 52.6H1260.47C1260.65 53.4 1261.07 54.032 1261.72 54.496C1262.38 54.96 1263.19 55.192 1264.17 55.192C1264.84 55.192 1265.43 55.096 1265.95 54.904C1266.47 54.696 1266.96 54.376 1267.41 53.944L1269.4 56.104C1268.19 57.496 1266.41 58.192 1264.07 58.192C1262.62 58.192 1261.33 57.912 1260.21 57.352C1259.09 56.776 1258.23 55.984 1257.62 54.976C1257.01 53.968 1256.71 52.824 1256.71 51.544C1256.71 50.28 1257 49.144 1257.59 48.136C1258.2 47.112 1259.03 46.32 1260.07 45.76C1261.12 45.184 1262.3 44.896 1263.59 44.896C1264.86 44.896 1266 45.168 1267.03 45.712C1268.05 46.256 1268.85 47.04 1269.43 48.064C1270.02 49.072 1270.31 50.248 1270.31 51.592ZM1263.62 47.728C1262.77 47.728 1262.06 47.968 1261.48 48.448C1260.91 48.928 1260.55 49.584 1260.43 50.416H1266.79C1266.66 49.6 1266.31 48.952 1265.73 48.472C1265.15 47.976 1264.45 47.728 1263.62 47.728ZM1281.13 57.376C1280.77 57.648 1280.31 57.856 1279.77 58C1279.24 58.128 1278.68 58.192 1278.09 58.192C1276.55 58.192 1275.36 57.8 1274.51 57.016C1273.68 56.232 1273.26 55.08 1273.26 53.56V48.256H1271.27V45.376H1273.26V42.232H1277.01V45.376H1280.22V48.256H1277.01V53.512C1277.01 54.056 1277.14 54.48 1277.41 54.784C1277.7 55.072 1278.1 55.216 1278.61 55.216C1279.21 55.216 1279.71 55.056 1280.13 54.736L1281.13 57.376Z" fill="black"/>
<path d="M1320.46 58.288C1318.75 58.288 1317.19 57.92 1315.8 57.184C1314.43 56.432 1313.34 55.4 1312.54 54.088C1311.75 52.76 1311.36 51.264 1311.36 49.6C1311.36 47.936 1311.75 46.448 1312.54 45.136C1313.34 43.808 1314.43 42.776 1315.8 42.04C1317.19 41.288 1318.75 40.912 1320.48 40.912C1321.94 40.912 1323.25 41.168 1324.42 41.68C1325.6 42.192 1326.59 42.928 1327.39 43.888L1324.9 46.192C1323.76 44.88 1322.35 44.224 1320.67 44.224C1319.63 44.224 1318.71 44.456 1317.89 44.92C1317.07 45.368 1316.43 46 1315.97 46.816C1315.52 47.632 1315.3 48.56 1315.3 49.6C1315.3 50.64 1315.52 51.568 1315.97 52.384C1316.43 53.2 1317.07 53.84 1317.89 54.304C1318.71 54.752 1319.63 54.976 1320.67 54.976C1322.35 54.976 1323.76 54.312 1324.9 52.984L1327.39 55.288C1326.59 56.264 1325.6 57.008 1324.42 57.52C1323.23 58.032 1321.91 58.288 1320.46 58.288ZM1319.16 63.568C1318.75 63.568 1318.34 63.52 1317.94 63.424C1317.54 63.344 1317.2 63.224 1316.93 63.064L1317.51 61.456C1318.02 61.696 1318.54 61.816 1319.07 61.816C1319.9 61.816 1320.31 61.56 1320.31 61.048C1320.31 60.584 1319.92 60.352 1319.14 60.352H1318.32L1318.95 57.808H1320.94L1320.6 59.2C1321.31 59.28 1321.83 59.496 1322.16 59.848C1322.51 60.216 1322.69 60.664 1322.69 61.192C1322.69 61.928 1322.37 62.504 1321.73 62.92C1321.09 63.352 1320.23 63.568 1319.16 63.568ZM1335.45 58.192C1334.09 58.192 1332.87 57.912 1331.78 57.352C1330.71 56.776 1329.87 55.984 1329.26 54.976C1328.65 53.968 1328.35 52.824 1328.35 51.544C1328.35 50.264 1328.65 49.12 1329.26 48.112C1329.87 47.104 1330.71 46.32 1331.78 45.76C1332.87 45.184 1334.09 44.896 1335.45 44.896C1336.81 44.896 1338.03 45.184 1339.1 45.76C1340.17 46.32 1341.01 47.104 1341.62 48.112C1342.23 49.12 1342.53 50.264 1342.53 51.544C1342.53 52.824 1342.23 53.968 1341.62 54.976C1341.01 55.984 1340.17 56.776 1339.1 57.352C1338.03 57.912 1336.81 58.192 1335.45 58.192ZM1335.45 55.12C1336.41 55.12 1337.2 54.8 1337.81 54.16C1338.43 53.504 1338.74 52.632 1338.74 51.544C1338.74 50.456 1338.43 49.592 1337.81 48.952C1337.2 48.296 1336.41 47.968 1335.45 47.968C1334.49 47.968 1333.7 48.296 1333.08 48.952C1332.45 49.592 1332.14 50.456 1332.14 51.544C1332.14 52.632 1332.45 53.504 1333.08 54.16C1333.7 54.8 1334.49 55.12 1335.45 55.12ZM1352.67 44.896C1353.87 44.896 1354.96 45.176 1355.93 45.736C1356.92 46.28 1357.7 47.056 1358.26 48.064C1358.82 49.056 1359.1 50.216 1359.1 51.544C1359.1 52.872 1358.82 54.04 1358.26 55.048C1357.7 56.04 1356.92 56.816 1355.93 57.376C1354.96 57.92 1353.87 58.192 1352.67 58.192C1350.89 58.192 1349.54 57.632 1348.61 56.512V58H1345.04V40.192H1348.78V46.456C1349.72 45.416 1351.02 44.896 1352.67 44.896ZM1352.02 55.12C1352.98 55.12 1353.76 54.8 1354.37 54.16C1355 53.504 1355.31 52.632 1355.31 51.544C1355.31 50.456 1355 49.592 1354.37 48.952C1353.76 48.296 1352.98 47.968 1352.02 47.968C1351.06 47.968 1350.27 48.296 1349.64 48.952C1349.04 49.592 1348.73 50.456 1348.73 51.544C1348.73 52.632 1349.04 53.504 1349.64 54.16C1350.27 54.8 1351.06 55.12 1352.02 55.12ZM1366.6 44.896C1368.6 44.896 1370.14 45.376 1371.21 46.336C1372.28 47.28 1372.82 48.712 1372.82 50.632V58H1369.32V56.392C1368.61 57.592 1367.3 58.192 1365.38 58.192C1364.39 58.192 1363.52 58.024 1362.79 57.688C1362.07 57.352 1361.52 56.888 1361.13 56.296C1360.75 55.704 1360.56 55.032 1360.56 54.28C1360.56 53.08 1361 52.136 1361.9 51.448C1362.81 50.76 1364.21 50.416 1366.1 50.416H1369.08C1369.08 49.6 1368.83 48.976 1368.33 48.544C1367.84 48.096 1367.09 47.872 1366.1 47.872C1365.41 47.872 1364.73 47.984 1364.06 48.208C1363.4 48.416 1362.84 48.704 1362.38 49.072L1361.04 46.456C1361.74 45.96 1362.58 45.576 1363.56 45.304C1364.55 45.032 1365.56 44.896 1366.6 44.896ZM1366.32 55.672C1366.96 55.672 1367.52 55.528 1368.02 55.24C1368.52 54.936 1368.87 54.496 1369.08 53.92V52.6H1366.51C1364.97 52.6 1364.2 53.104 1364.2 54.112C1364.2 54.592 1364.39 54.976 1364.76 55.264C1365.14 55.536 1365.66 55.672 1366.32 55.672ZM1384.06 44.896C1385.66 44.896 1386.94 45.376 1387.92 46.336C1388.91 47.296 1389.41 48.72 1389.41 50.608V58H1385.66V51.184C1385.66 50.16 1385.44 49.4 1384.99 48.904C1384.54 48.392 1383.9 48.136 1383.05 48.136C1382.1 48.136 1381.35 48.432 1380.79 49.024C1380.23 49.6 1379.95 50.464 1379.95 51.616V58H1376.21V45.088H1379.78V46.6C1380.28 46.056 1380.9 45.64 1381.63 45.352C1382.37 45.048 1383.18 44.896 1384.06 44.896ZM1399.18 58.192C1397.81 58.192 1396.57 57.912 1395.46 57.352C1394.37 56.776 1393.52 55.984 1392.89 54.976C1392.29 53.968 1391.98 52.824 1391.98 51.544C1391.98 50.264 1392.29 49.12 1392.89 48.112C1393.52 47.104 1394.37 46.32 1395.46 45.76C1396.57 45.184 1397.81 44.896 1399.18 44.896C1400.54 44.896 1401.73 45.184 1402.73 45.76C1403.76 46.32 1404.5 47.128 1404.97 48.184L1402.06 49.744C1401.39 48.56 1400.42 47.968 1399.16 47.968C1398.18 47.968 1397.37 48.288 1396.73 48.928C1396.09 49.568 1395.77 50.44 1395.77 51.544C1395.77 52.648 1396.09 53.52 1396.73 54.16C1397.37 54.8 1398.18 55.12 1399.16 55.12C1400.44 55.12 1401.41 54.528 1402.06 53.344L1404.97 54.928C1404.5 55.952 1403.76 56.752 1402.73 57.328C1401.73 57.904 1400.54 58.192 1399.18 58.192ZM1397.81 63.568C1397.4 63.568 1396.99 63.52 1396.59 63.424C1396.19 63.344 1395.85 63.224 1395.58 63.064L1396.16 61.456C1396.67 61.696 1397.19 61.816 1397.72 61.816C1398.55 61.816 1398.97 61.56 1398.97 61.048C1398.97 60.584 1398.57 60.352 1397.79 60.352H1396.97L1397.6 57.808H1399.59L1399.25 59.2C1399.96 59.28 1400.48 59.496 1400.81 59.848C1401.17 60.216 1401.34 60.664 1401.34 61.192C1401.34 61.928 1401.02 62.504 1400.38 62.92C1399.74 63.352 1398.89 63.568 1397.81 63.568ZM1419.61 51.592C1419.61 51.64 1419.58 51.976 1419.53 52.6H1409.77C1409.94 53.4 1410.36 54.032 1411.01 54.496C1411.67 54.96 1412.49 55.192 1413.46 55.192C1414.13 55.192 1414.73 55.096 1415.24 54.904C1415.77 54.696 1416.25 54.376 1416.7 53.944L1418.69 56.104C1417.48 57.496 1415.7 58.192 1413.37 58.192C1411.91 58.192 1410.62 57.912 1409.5 57.352C1408.38 56.776 1407.52 55.984 1406.91 54.976C1406.3 53.968 1406 52.824 1406 51.544C1406 50.28 1406.29 49.144 1406.89 48.136C1407.49 47.112 1408.32 46.32 1409.36 45.76C1410.41 45.184 1411.59 44.896 1412.89 44.896C1414.15 44.896 1415.29 45.168 1416.32 45.712C1417.34 46.256 1418.14 47.04 1418.72 48.064C1419.31 49.072 1419.61 50.248 1419.61 51.592ZM1412.91 47.728C1412.06 47.728 1411.35 47.968 1410.77 48.448C1410.2 48.928 1409.85 49.584 1409.72 50.416H1416.08C1415.95 49.6 1415.6 48.952 1415.02 48.472C1414.45 47.976 1413.74 47.728 1412.91 47.728ZM1426.44 58.192C1425.37 58.192 1424.32 58.064 1423.3 57.808C1422.28 57.536 1421.46 57.2 1420.85 56.8L1422.1 54.112C1422.68 54.48 1423.37 54.784 1424.19 55.024C1425 55.248 1425.8 55.36 1426.59 55.36C1428.17 55.36 1428.96 54.968 1428.96 54.184C1428.96 53.816 1428.75 53.552 1428.32 53.392C1427.88 53.232 1427.22 53.096 1426.32 52.984C1425.27 52.824 1424.4 52.64 1423.71 52.432C1423.02 52.224 1422.42 51.856 1421.91 51.328C1421.41 50.8 1421.16 50.048 1421.16 49.072C1421.16 48.256 1421.4 47.536 1421.86 46.912C1422.34 46.272 1423.03 45.776 1423.92 45.424C1424.84 45.072 1425.91 44.896 1427.14 44.896C1428.05 44.896 1428.96 45 1429.85 45.208C1430.76 45.4 1431.52 45.672 1432.11 46.024L1430.86 48.688C1429.72 48.048 1428.48 47.728 1427.14 47.728C1426.34 47.728 1425.74 47.84 1425.34 48.064C1424.94 48.288 1424.74 48.576 1424.74 48.928C1424.74 49.328 1424.96 49.608 1425.39 49.768C1425.82 49.928 1426.51 50.08 1427.45 50.224C1428.51 50.4 1429.37 50.592 1430.04 50.8C1430.72 50.992 1431.3 51.352 1431.8 51.88C1432.29 52.408 1432.54 53.144 1432.54 54.088C1432.54 54.888 1432.3 55.6 1431.82 56.224C1431.34 56.848 1430.64 57.336 1429.71 57.688C1428.8 58.024 1427.71 58.192 1426.44 58.192ZM1425.84 63.568C1425.43 63.568 1425.02 63.52 1424.62 63.424C1424.22 63.344 1423.88 63.224 1423.61 63.064L1424.19 61.456C1424.7 61.696 1425.22 61.816 1425.75 61.816C1426.58 61.816 1427 61.56 1427 61.048C1427 60.584 1426.6 60.352 1425.82 60.352H1425L1425.63 57.808H1427.62L1427.28 59.2C1427.99 59.28 1428.51 59.496 1428.84 59.848C1429.2 60.216 1429.37 60.664 1429.37 61.192C1429.37 61.928 1429.05 62.504 1428.41 62.92C1427.77 63.352 1426.92 63.568 1425.84 63.568ZM1451.39 44.896C1453 44.896 1454.28 45.376 1455.23 46.336C1456.19 47.28 1456.67 48.704 1456.67 50.608V58H1452.92V51.184C1452.92 50.16 1452.71 49.4 1452.27 48.904C1451.86 48.392 1451.26 48.136 1450.47 48.136C1449.59 48.136 1448.9 48.424 1448.39 49C1447.87 49.56 1447.62 50.4 1447.62 51.52V58H1443.87V51.184C1443.87 49.152 1443.06 48.136 1441.43 48.136C1440.56 48.136 1439.87 48.424 1439.36 49C1438.85 49.56 1438.59 50.4 1438.59 51.52V58H1434.85V45.088H1438.43V46.576C1438.91 46.032 1439.49 45.616 1440.18 45.328C1440.88 45.04 1441.65 44.896 1442.48 44.896C1443.39 44.896 1444.22 45.08 1444.95 45.448C1445.69 45.8 1446.28 46.32 1446.73 47.008C1447.26 46.336 1447.92 45.816 1448.72 45.448C1449.54 45.08 1450.43 44.896 1451.39 44.896ZM1472.81 51.592C1472.81 51.64 1472.79 51.976 1472.74 52.6H1462.97C1463.15 53.4 1463.56 54.032 1464.22 54.496C1464.87 54.96 1465.69 55.192 1466.67 55.192C1467.34 55.192 1467.93 55.096 1468.44 54.904C1468.97 54.696 1469.46 54.376 1469.91 53.944L1471.9 56.104C1470.68 57.496 1468.91 58.192 1466.57 58.192C1465.11 58.192 1463.83 57.912 1462.71 57.352C1461.59 56.776 1460.72 55.984 1460.11 54.976C1459.51 53.968 1459.2 52.824 1459.2 51.544C1459.2 50.28 1459.5 49.144 1460.09 48.136C1460.7 47.112 1461.52 46.32 1462.56 45.76C1463.62 45.184 1464.79 44.896 1466.09 44.896C1467.35 44.896 1468.5 45.168 1469.52 45.712C1470.55 46.256 1471.35 47.04 1471.92 48.064C1472.51 49.072 1472.81 50.248 1472.81 51.592ZM1466.11 47.728C1465.27 47.728 1464.55 47.968 1463.98 48.448C1463.4 48.928 1463.05 49.584 1462.92 50.416H1469.28C1469.15 49.6 1468.8 48.952 1468.23 48.472C1467.65 47.976 1466.95 47.728 1466.11 47.728Z" fill="black"/>
<path d="M1522.46 52.048V58H1518.57V52L1512.07 41.2H1516.19L1520.68 48.664L1525.17 41.2H1528.99L1522.46 52.048ZM1541.57 51.592C1541.57 51.64 1541.54 51.976 1541.5 52.6H1531.73C1531.9 53.4 1532.32 54.032 1532.98 54.496C1533.63 54.96 1534.45 55.192 1535.42 55.192C1536.1 55.192 1536.69 55.096 1537.2 54.904C1537.73 54.696 1538.22 54.376 1538.66 53.944L1540.66 56.104C1539.44 57.496 1537.66 58.192 1535.33 58.192C1533.87 58.192 1532.58 57.912 1531.46 57.352C1530.34 56.776 1529.48 55.984 1528.87 54.976C1528.26 53.968 1527.96 52.824 1527.96 51.544C1527.96 50.28 1528.26 49.144 1528.85 48.136C1529.46 47.112 1530.28 46.32 1531.32 45.76C1532.38 45.184 1533.55 44.896 1534.85 44.896C1536.11 44.896 1537.26 45.168 1538.28 45.712C1539.3 46.256 1540.1 47.04 1540.68 48.064C1541.27 49.072 1541.57 50.248 1541.57 51.592ZM1534.87 47.728C1534.02 47.728 1533.31 47.968 1532.74 48.448C1532.16 48.928 1531.81 49.584 1531.68 50.416H1538.04C1537.91 49.6 1537.56 48.952 1536.98 48.472C1536.41 47.976 1535.7 47.728 1534.87 47.728ZM1551.91 44.896C1553.51 44.896 1554.8 45.376 1555.77 46.336C1556.76 47.296 1557.26 48.72 1557.26 50.608V58H1553.52V51.184C1553.52 50.16 1553.29 49.4 1552.84 48.904C1552.4 48.392 1551.75 48.136 1550.9 48.136C1549.96 48.136 1549.2 48.432 1548.64 49.024C1548.08 49.6 1547.8 50.464 1547.8 51.616V58H1544.06V45.088H1547.64V46.6C1548.13 46.056 1548.75 45.64 1549.48 45.352C1550.22 45.048 1551.03 44.896 1551.91 44.896ZM1560.65 45.088H1564.4V58H1560.65V45.088ZM1562.53 43.288C1561.84 43.288 1561.28 43.088 1560.85 42.688C1560.41 42.288 1560.2 41.792 1560.2 41.2C1560.2 40.608 1560.41 40.112 1560.85 39.712C1561.28 39.312 1561.84 39.112 1562.53 39.112C1563.21 39.112 1563.77 39.304 1564.21 39.688C1564.64 40.072 1564.85 40.552 1564.85 41.128C1564.85 41.752 1564.64 42.272 1564.21 42.688C1563.77 43.088 1563.21 43.288 1562.53 43.288ZM1575.5 44.896C1576.7 44.896 1577.79 45.176 1578.77 45.736C1579.76 46.28 1580.54 47.056 1581.1 48.064C1581.66 49.056 1581.94 50.216 1581.94 51.544C1581.94 52.872 1581.66 54.04 1581.1 55.048C1580.54 56.04 1579.76 56.816 1578.77 57.376C1577.79 57.92 1576.7 58.192 1575.5 58.192C1573.73 58.192 1572.38 57.632 1571.45 56.512V58H1567.87V40.192H1571.62V46.456C1572.56 45.416 1573.86 44.896 1575.5 44.896ZM1574.86 55.12C1575.82 55.12 1576.6 54.8 1577.21 54.16C1577.83 53.504 1578.14 52.632 1578.14 51.544C1578.14 50.456 1577.83 49.592 1577.21 48.952C1576.6 48.296 1575.82 47.968 1574.86 47.968C1573.9 47.968 1573.1 48.296 1572.48 48.952C1571.87 49.592 1571.57 50.456 1571.57 51.544C1571.57 52.632 1571.87 53.504 1572.48 54.16C1573.1 54.8 1573.9 55.12 1574.86 55.12ZM1590.59 58.192C1589.23 58.192 1588 57.912 1586.91 57.352C1585.84 56.776 1585 55.984 1584.39 54.976C1583.79 53.968 1583.48 52.824 1583.48 51.544C1583.48 50.264 1583.79 49.12 1584.39 48.112C1585 47.104 1585.84 46.32 1586.91 45.76C1588 45.184 1589.23 44.896 1590.59 44.896C1591.95 44.896 1593.16 45.184 1594.23 45.76C1595.31 46.32 1596.15 47.104 1596.75 48.112C1597.36 49.12 1597.67 50.264 1597.67 51.544C1597.67 52.824 1597.36 53.968 1596.75 54.976C1596.15 55.984 1595.31 56.776 1594.23 57.352C1593.16 57.912 1591.95 58.192 1590.59 58.192ZM1590.59 55.12C1591.55 55.12 1592.33 54.8 1592.94 54.16C1593.56 53.504 1593.87 52.632 1593.87 51.544C1593.87 50.456 1593.56 49.592 1592.94 48.952C1592.33 48.296 1591.55 47.968 1590.59 47.968C1589.63 47.968 1588.83 48.296 1588.21 48.952C1587.59 49.592 1587.27 50.456 1587.27 51.544C1587.27 52.632 1587.59 53.504 1588.21 54.16C1588.83 54.8 1589.63 55.12 1590.59 55.12ZM1604.51 58.192C1603.44 58.192 1602.39 58.064 1601.37 57.808C1600.35 57.536 1599.53 57.2 1598.92 56.8L1600.17 54.112C1600.75 54.48 1601.44 54.784 1602.26 55.024C1603.07 55.248 1603.87 55.36 1604.66 55.36C1606.24 55.36 1607.03 54.968 1607.03 54.184C1607.03 53.816 1606.82 53.552 1606.39 53.392C1605.95 53.232 1605.29 53.096 1604.39 52.984C1603.34 52.824 1602.47 52.64 1601.78 52.432C1601.09 52.224 1600.49 51.856 1599.98 51.328C1599.48 50.8 1599.23 50.048 1599.23 49.072C1599.23 48.256 1599.47 47.536 1599.93 46.912C1600.41 46.272 1601.1 45.776 1601.99 45.424C1602.91 45.072 1603.98 44.896 1605.21 44.896C1606.12 44.896 1607.03 45 1607.92 45.208C1608.83 45.4 1609.59 45.672 1610.18 46.024L1608.93 48.688C1607.79 48.048 1606.55 47.728 1605.21 47.728C1604.41 47.728 1603.81 47.84 1603.41 48.064C1603.01 48.288 1602.81 48.576 1602.81 48.928C1602.81 49.328 1603.03 49.608 1603.46 49.768C1603.89 49.928 1604.58 50.08 1605.52 50.224C1606.58 50.4 1607.44 50.592 1608.11 50.8C1608.79 50.992 1609.37 51.352 1609.87 51.88C1610.36 52.408 1610.61 53.144 1610.61 54.088C1610.61 54.888 1610.37 55.6 1609.89 56.224C1609.41 56.848 1608.71 57.336 1607.78 57.688C1606.87 58.024 1605.78 58.192 1604.51 58.192ZM1620.77 44.896C1622.37 44.896 1623.66 45.376 1624.63 46.336C1625.62 47.296 1626.12 48.72 1626.12 50.608V58H1622.38V51.184C1622.38 50.16 1622.15 49.4 1621.7 48.904C1621.26 48.392 1620.61 48.136 1619.76 48.136C1618.82 48.136 1618.06 48.432 1617.5 49.024C1616.94 49.6 1616.66 50.464 1616.66 51.616V58H1612.92V45.088H1616.5V46.6C1616.99 46.056 1617.61 45.64 1618.34 45.352C1619.08 45.048 1619.89 44.896 1620.77 44.896ZM1634.72 44.896C1636.72 44.896 1638.26 45.376 1639.33 46.336C1640.4 47.28 1640.94 48.712 1640.94 50.632V58H1637.43V56.392C1636.73 57.592 1635.42 58.192 1633.5 58.192C1632.51 58.192 1631.64 58.024 1630.91 57.688C1630.19 57.352 1629.63 56.888 1629.25 56.296C1628.87 55.704 1628.67 55.032 1628.67 54.28C1628.67 53.08 1629.12 52.136 1630.02 51.448C1630.93 50.76 1632.33 50.416 1634.22 50.416H1637.19C1637.19 49.6 1636.95 48.976 1636.45 48.544C1635.95 48.096 1635.21 47.872 1634.22 47.872C1633.53 47.872 1632.85 47.984 1632.18 48.208C1631.52 48.416 1630.96 48.704 1630.5 49.072L1629.15 46.456C1629.86 45.96 1630.7 45.576 1631.67 45.304C1632.67 45.032 1633.68 44.896 1634.72 44.896ZM1634.43 55.672C1635.07 55.672 1635.64 55.528 1636.14 55.24C1636.63 54.936 1636.99 54.496 1637.19 53.92V52.6H1634.63C1633.09 52.6 1632.32 53.104 1632.32 54.112C1632.32 54.592 1632.51 54.976 1632.87 55.264C1633.26 55.536 1633.78 55.672 1634.43 55.672Z" fill="black"/>
<path d="M1728.31 54.4H1720.51L1719.02 58H1715.03L1722.52 41.2H1726.36L1733.87 58H1729.79L1728.31 54.4ZM1727.08 51.448L1724.42 45.016L1721.75 51.448H1727.08ZM1743.56 57.376C1743.2 57.648 1742.74 57.856 1742.2 58C1741.67 58.128 1741.11 58.192 1740.52 58.192C1738.98 58.192 1737.79 57.8 1736.94 57.016C1736.11 56.232 1735.69 55.08 1735.69 53.56V48.256H1733.7V45.376H1735.69V42.232H1739.44V45.376H1742.65V48.256H1739.44V53.512C1739.44 54.056 1739.57 54.48 1739.84 54.784C1740.13 55.072 1740.53 55.216 1741.04 55.216C1741.64 55.216 1742.14 55.056 1742.56 54.736L1743.56 57.376ZM1750.87 44.896C1752.87 44.896 1754.41 45.376 1755.48 46.336C1756.55 47.28 1757.09 48.712 1757.09 50.632V58H1753.59V56.392C1752.88 57.592 1751.57 58.192 1749.65 58.192C1748.66 58.192 1747.79 58.024 1747.06 57.688C1746.34 57.352 1745.79 56.888 1745.4 56.296C1745.02 55.704 1744.83 55.032 1744.83 54.28C1744.83 53.08 1745.27 52.136 1746.17 51.448C1747.08 50.76 1748.48 50.416 1750.37 50.416H1753.35C1753.35 49.6 1753.1 48.976 1752.6 48.544C1752.11 48.096 1751.36 47.872 1750.37 47.872C1749.68 47.872 1749 47.984 1748.33 48.208C1747.67 48.416 1747.11 48.704 1746.65 49.072L1745.31 46.456C1746.01 45.96 1746.85 45.576 1747.83 45.304C1748.82 45.032 1749.83 44.896 1750.87 44.896ZM1750.59 55.672C1751.23 55.672 1751.79 55.528 1752.29 55.24C1752.79 54.936 1753.14 54.496 1753.35 53.92V52.6H1750.78C1749.24 52.6 1748.47 53.104 1748.47 54.112C1748.47 54.592 1748.66 54.976 1749.03 55.264C1749.41 55.536 1749.93 55.672 1750.59 55.672ZM1766.02 52.936L1764.22 54.712V58H1760.48V40.192H1764.22V50.272L1769.69 45.088H1774.16L1768.78 50.56L1774.64 58H1770.1L1766.02 52.936ZM1781.9 58.192C1780.54 58.192 1779.32 57.912 1778.23 57.352C1777.16 56.776 1776.32 55.984 1775.71 54.976C1775.1 53.968 1774.8 52.824 1774.8 51.544C1774.8 50.264 1775.1 49.12 1775.71 48.112C1776.32 47.104 1777.16 46.32 1778.23 45.76C1779.32 45.184 1780.54 44.896 1781.9 44.896C1783.26 44.896 1784.48 45.184 1785.55 45.76C1786.62 46.32 1787.46 47.104 1788.07 48.112C1788.68 49.12 1788.98 50.264 1788.98 51.544C1788.98 52.824 1788.68 53.968 1788.07 54.976C1787.46 55.984 1786.62 56.776 1785.55 57.352C1784.48 57.912 1783.26 58.192 1781.9 58.192ZM1781.9 55.12C1782.86 55.12 1783.65 54.8 1784.26 54.16C1784.88 53.504 1785.19 52.632 1785.19 51.544C1785.19 50.456 1784.88 49.592 1784.26 48.952C1783.65 48.296 1782.86 47.968 1781.9 47.968C1780.94 47.968 1780.15 48.296 1779.53 48.952C1778.9 49.592 1778.59 50.456 1778.59 51.544C1778.59 52.632 1778.9 53.504 1779.53 54.16C1780.15 54.8 1780.94 55.12 1781.9 55.12ZM1779.43 43.312C1778.95 43.312 1778.55 43.16 1778.23 42.856C1777.91 42.536 1777.75 42.136 1777.75 41.656C1777.75 41.176 1777.91 40.784 1778.23 40.48C1778.55 40.16 1778.95 40 1779.43 40C1779.91 40 1780.3 40.16 1780.61 40.48C1780.93 40.784 1781.09 41.176 1781.09 41.656C1781.09 42.136 1780.93 42.536 1780.61 42.856C1780.3 43.16 1779.91 43.312 1779.43 43.312ZM1784.28 43.312C1783.8 43.312 1783.4 43.16 1783.08 42.856C1782.78 42.536 1782.62 42.136 1782.62 41.656C1782.62 41.176 1782.78 40.784 1783.08 40.48C1783.4 40.16 1783.8 40 1784.28 40C1784.76 40 1785.16 40.16 1785.48 40.48C1785.8 40.784 1785.96 41.176 1785.96 41.656C1785.96 42.136 1785.8 42.536 1785.48 42.856C1785.16 43.16 1784.76 43.312 1784.28 43.312ZM1803.95 45.088L1798.12 58.792C1797.53 60.28 1796.79 61.328 1795.91 61.936C1795.05 62.544 1794 62.848 1792.77 62.848C1792.09 62.848 1791.43 62.744 1790.77 62.536C1790.12 62.328 1789.58 62.04 1789.17 61.672L1790.53 59.008C1790.82 59.264 1791.15 59.464 1791.52 59.608C1791.9 59.752 1792.28 59.824 1792.65 59.824C1793.16 59.824 1793.57 59.696 1793.89 59.44C1794.21 59.2 1794.5 58.792 1794.76 58.216L1794.81 58.096L1789.21 45.088H1793.08L1796.7 53.848L1800.35 45.088H1803.95Z" fill="black"/>
<rect x="285" y="123" width="6" height="21" fill="black"/>
<circle cx="1759" cy="100" r="24" fill="black"/>
<ellipse cx="1759" cy="99.9939" rx="19.2" ry="19.2" fill="white"/>
<rect x="1756" y="123" width="6" height="21" fill="black"/>
<g clip-path="url(#clip0_495_5568)">
<path d="M1741 161C1741 157.44 1742.06 153.96 1744.03 151C1746.01 148.04 1748.82 145.733 1752.11 144.37C1755.4 143.008 1759.02 142.651 1762.51 143.346C1766 144.04 1769.21 145.755 1771.73 148.272C1774.25 150.789 1775.96 153.997 1776.65 157.488C1777.35 160.98 1776.99 164.599 1775.63 167.888C1774.27 171.177 1771.96 173.989 1769 175.966C1766.04 177.944 1762.56 179 1759 179C1756.67 179.029 1754.35 178.599 1752.18 177.732C1750.01 176.866 1748.04 175.581 1746.36 173.951C1744.69 172.321 1743.36 170.377 1742.44 168.231C1741.52 166.086 1741.03 163.78 1741 161.445V161Z" fill="#65656A"/>
<path d="M1749.37 167.674V154.305H1754.04C1756.77 154.305 1758.35 155.478 1758.35 157.723C1758.36 158.465 1758.09 159.184 1757.6 159.738C1757.1 160.292 1756.42 160.641 1755.68 160.716C1756.49 160.727 1757.26 161.051 1757.84 161.621C1758.41 162.191 1758.74 162.962 1758.76 163.77C1758.76 166.4 1756.87 167.633 1753.98 167.633L1749.37 167.674ZM1753.13 159.705C1754.89 159.705 1755.7 159.139 1755.7 158.087C1755.7 157.036 1755.16 156.409 1753.27 156.409H1752.04V159.705H1753.13ZM1753.36 165.57C1755.09 165.57 1756.09 164.964 1756.09 163.71C1756.09 162.456 1755.2 161.687 1753.42 161.687H1752.04V165.55L1753.36 165.57Z" fill="white"/>
<path d="M1764.64 167.674V157.359L1762.37 159.18L1761.04 157.42L1764.94 154.285H1767.29V167.674H1764.64Z" fill="white"/>
</g>
<g clip-path="url(#clip1_495_5568)">
<path d="M76 99.9963C76 95.2503 77.4076 90.6109 80.0447 86.6647C82.6819 82.7185 86.4302 79.6428 90.8156 77.8266C95.201 76.0104 100.027 75.5352 104.682 76.4611C109.338 77.387 113.614 79.6724 116.971 83.0284C120.327 86.3843 122.613 90.66 123.539 95.3149C124.465 99.9697 123.99 104.795 122.173 109.179C120.357 113.564 117.28 117.312 113.334 119.949C109.387 122.585 104.747 123.993 100 123.993C93.6348 123.993 87.5303 121.464 83.0294 116.964C78.5286 112.464 76 106.361 76 99.9963Z" fill="#FFD300"/>
<path d="M84.6445 92.6201H89.6439L93.351 104.426H93.3953L97.1024 92.6201H102.102V108.199H99.1073V95.3446H99.0667L94.8648 108.199H91.8778L87.6833 95.3446L87.6353 95.3889V108.199H84.6445V92.6201Z" fill="#1D1D1B"/>
<path d="M106.067 105.386C106.921 105.786 107.85 105.999 108.792 106.01C111.491 106.01 112.407 103.511 112.485 101.193L112.44 101.145C112.125 101.652 111.679 102.065 111.149 102.341C110.619 102.616 110.024 102.744 109.427 102.71C106.474 102.71 104.871 100.834 104.871 97.9549C104.871 94.5843 106.525 92.3545 110.04 92.3545C114.368 92.3545 115.331 95.9466 115.331 99.6051C115.331 103.825 113.969 108.465 108.925 108.465C107.807 108.471 106.696 108.282 105.643 107.908L106.067 105.386ZM112.226 97.4417C112.226 95.965 111.606 94.6766 110.062 94.6766C108.611 94.6766 108.01 96.0831 108.01 97.4639C108.01 98.9812 108.634 100.388 110.129 100.388C111.624 100.388 112.226 99.0033 112.226 97.4343" fill="#1D1D1B"/>
</g>
<circle cx="843" cy="100" r="24" fill="black"/>
<ellipse cx="843.001" cy="99.9939" rx="19.2" ry="19.2" fill="white"/>
<rect x="840" y="123" width="6" height="21" fill="black"/>
<circle cx="1577" cy="100" r="24" fill="black"/>
<ellipse cx="1577" cy="99.9939" rx="19.2" ry="19.2" fill="white"/>
<rect x="1574" y="123" width="6" height="21" fill="black"/>
<g clip-path="url(#clip2_495_5568)">
<path d="M270 161C270 157.44 271.056 153.96 273.034 151C275.011 148.04 277.823 145.733 281.112 144.37C284.401 143.008 288.02 142.651 291.512 143.346C295.003 144.04 298.211 145.755 300.728 148.272C303.245 150.789 304.96 153.997 305.654 157.488C306.349 160.98 305.992 164.599 304.63 167.888C303.267 171.177 300.96 173.989 298 175.966C295.04 177.944 291.56 179 288 179C283.229 178.989 278.657 177.089 275.284 173.716C271.911 170.343 270.011 165.771 270 161Z" fill="#F29EBF"/>
<path d="M276.27 155.337H280.112L282.944 164.438L285.775 155.337H289.82V167.472H287.393V157.359L284.157 167.472H281.73L278.494 157.359V167.472H276.27V155.337Z" fill="white"/>
<path d="M292.047 155.337H299.732V157.359L295.485 167.472H292.856L297.305 157.157H292.047V155.337Z" fill="white"/>
</g>
<g clip-path="url(#clip3_495_5568)">
<path d="M843 179.025C839.431 179.032 835.941 177.981 832.971 176.006C830 174.031 827.683 171.221 826.313 167.93C824.942 164.639 824.58 161.016 825.272 157.52C825.964 154.024 827.679 150.811 830.2 148.288C832.72 145.766 835.934 144.047 839.433 143.349C842.933 142.651 846.561 143.005 849.858 144.368C853.156 145.73 855.975 148.039 857.958 151.002C859.941 153.965 861 157.448 861 161.012C861 165.784 859.105 170.36 855.73 173.737C852.355 177.114 847.777 179.016 843 179.025Z" fill="#E1251B"/>
<path d="M828.25 155.583H831.727L834.302 163.794H834.337L836.912 155.583H840.389V166.416H838.31V157.475H838.28L835.359 166.416H833.28L830.359 157.475L830.329 157.505V166.416H828.25V155.583Z" fill="white"/>
<path d="M846.053 155.583H847.977V166.416H845.807V158.05L843.974 159.541L842.887 158.125L846.053 155.583Z" fill="white"/>
<path d="M851.129 159.191H853.659C854.591 159.191 855.983 159.462 855.983 161.048C855.986 161.445 855.842 161.83 855.579 162.128C855.315 162.426 854.951 162.617 854.556 162.664C854.992 162.669 855.409 162.844 855.719 163.151C856.028 163.458 856.206 163.874 856.214 164.31C856.214 166.131 854.576 166.396 853.669 166.396H851.129V159.191ZM852.582 162.113H853.168C853.779 162.113 854.536 161.978 854.536 161.233C854.536 160.392 853.804 160.332 853.138 160.332H852.582V162.113ZM852.582 165.281H853.263C853.934 165.281 854.766 165.116 854.766 164.28C854.766 163.339 853.999 163.194 853.263 163.194H852.582V165.281Z" fill="white"/>
</g>
<g clip-path="url(#clip4_495_5568)">
<path d="M1577 179.025C1573.43 179.032 1569.94 177.981 1566.97 176.006C1564 174.031 1561.68 171.221 1560.31 167.93C1558.94 164.639 1558.58 161.016 1559.27 157.52C1559.96 154.024 1561.68 150.811 1564.2 148.288C1566.72 145.766 1569.93 144.047 1573.43 143.349C1576.93 142.651 1580.56 143.005 1583.86 144.368C1587.16 145.73 1589.97 148.039 1591.96 151.002C1593.94 153.965 1595 157.448 1595 161.012C1595 165.784 1593.1 170.36 1589.73 173.737C1586.36 177.114 1581.78 179.016 1577 179.025Z" fill="#E1251B"/>
<path d="M1561.52 155.579H1564.99L1567.57 163.794H1567.6L1570.18 155.579H1573.66V166.416H1571.58V157.475H1571.55L1568.63 166.416H1566.55L1563.63 157.475L1563.59 157.505V166.416H1561.52V155.579Z" fill="white"/>
<path d="M1579.31 155.579H1581.24V166.416H1579.07V158.05L1577.24 159.541L1576.15 158.125L1579.31 155.579Z" fill="white"/>
<path d="M1586.47 159.191H1588.1L1590.94 166.416H1589.33L1588.71 164.76H1585.79L1585.16 166.416H1583.65L1586.47 159.191ZM1587.26 160.642L1586.22 163.644H1588.33L1587.26 160.642Z" fill="white"/>
</g>
<defs>
<clipPath id="clip0_495_5568">
<rect width="36" height="36" fill="white" transform="translate(1741 143)"/>
</clipPath>
<clipPath id="clip1_495_5568">
<rect width="48" height="48" fill="white" transform="translate(76 76)"/>
</clipPath>
<clipPath id="clip2_495_5568">
<rect width="36" height="36" fill="white" transform="translate(270 143)"/>
</clipPath>
<clipPath id="clip3_495_5568">
<rect width="36" height="36" fill="white" transform="translate(825 143)"/>
</clipPath>
<clipPath id="clip4_495_5568">
<rect width="36" height="36" fill="white" transform="translate(1559 143)"/>
</clipPath>
</defs>
</svg>
