<svg id="Layer_1" data-name="Layer 1" xmlns="http://www.w3.org/2000/svg" viewBox="0 0 130 130.02"><defs><style>.cls-1{fill:#ffd300;}.cls-2{fill:#1d1d1b;}</style></defs><path class="cls-1" d="M0,65a65,65,0,1,1,65,65A65,65,0,0,1,0,65"/><polygon class="cls-2" points="23.42 45.02 36.96 45.02 47 77 47.12 77 57.16 45.02 70.7 45.02 70.7 87.22 62.59 87.22 62.59 52.4 62.48 52.4 51.1 87.22 43.01 87.22 31.65 52.4 31.52 52.52 31.52 87.22 23.42 87.22 23.42 45.02"/><path class="cls-2" d="M81.43,79.6a17.88,17.88,0,0,0,7.38,1.69c7.31,0,9.79-6.77,10-13.05l-.12-.13a9,9,0,0,1-8.16,4.24c-8,0-12.34-5.08-12.34-12.88,0-9.13,4.48-15.17,14-15.17,11.72,0,14.33,9.73,14.33,19.64,0,11.43-3.69,24-17.35,24a26.16,26.16,0,0,1-8.89-1.51ZM98.11,58.08c0-4-1.68-7.49-5.86-7.49-3.93,0-5.56,3.81-5.56,7.55,0,4.11,1.69,7.92,5.74,7.92s5.68-3.75,5.68-8"/></svg>