<svg width="4941" height="367" viewBox="0 0 4941 367" fill="none" xmlns="http://www.w3.org/2000/svg">
<line x1="454.953" y1="205" x2="933.953" y2="205" stroke="#949494" stroke-width="10"/>
<line x1="448.953" y1="187" x2="812.953" y2="187" stroke="#949494" stroke-width="10"/>
<line x1="462.953" y1="169" x2="769.953" y2="169" stroke="#949494" stroke-width="10"/>
<line x1="326.953" y1="151" x2="828.953" y2="151" stroke="#949494" stroke-width="10"/>
<line x1="312.953" y1="133" x2="794.953" y2="133" stroke="#949494" stroke-width="10"/>
<line x1="294.953" y1="115" x2="818.953" y2="115" stroke="#949494" stroke-width="10"/>
<line x1="264.953" y1="61" x2="686.953" y2="61" stroke="#949494" stroke-width="10"/>
<line x1="329" y1="97" x2="782" y2="97" stroke="#949494" stroke-width="10"/>
<line x1="250.953" y1="43" x2="550.953" y2="43" stroke="#949494" stroke-width="10"/>
<line x1="157.953" y1="35" x2="242.953" y2="35" stroke="#949494" stroke-width="10"/>
<line x1="141.953" y1="79" x2="686.953" y2="79" stroke="#949494" stroke-width="10"/>
<line x1="440.953" y1="223" x2="933.953" y2="223" stroke="#949494" stroke-width="10"/>
<line x1="422.953" y1="241" x2="837.953" y2="241" stroke="#949494" stroke-width="10"/>
<line x1="428.953" y1="259" x2="805.953" y2="259" stroke="#949494" stroke-width="10"/>
<line x1="438.953" y1="277" x2="828.953" y2="277" stroke="#949494" stroke-width="10"/>
<line x1="189" y1="332" x2="360" y2="332" stroke="#949494" stroke-width="10"/>
<line x1="397" y1="295" x2="791" y2="295" stroke="#949494" stroke-width="10"/>
<line x1="197" y1="312" x2="352" y2="312" stroke="#949494" stroke-width="10"/>
<line x1="205" y1="292" x2="344" y2="292" stroke="#949494" stroke-width="10"/>
<path d="M878.974 218.05L886.045 225.121L829.128 282.037L822.057 274.966L878.974 218.05Z" fill="#949494"/>
<path d="M817.027 239L824.098 246.071L806.083 264.086L799.012 257.015L817.027 239Z" fill="#949494"/>
<path d="M849.027 221L856.098 228.071L838.107 246.063L831.036 238.992L849.027 221Z" fill="#949494"/>
<path d="M454.994 200.039L462.065 207.11L352.119 317.056L345.048 309.985L454.994 200.039Z" fill="#949494"/>
<path d="M462.98 163.959L470.052 171.031L344.091 296.992L337.019 289.92L462.98 163.959Z" fill="#949494"/>
<path d="M429.027 254L436.098 261.071L360.162 337.008L353.091 329.937L429.027 254Z" fill="#949494"/>
<path d="M157.984 30L165.055 37.0711L87.0764 115.05L80.0054 107.979L157.984 30Z" fill="#949494"/>
<path d="M141.982 74.0024L149.053 81.0735L107.076 123.05L100.005 115.979L141.982 74.0024Z" fill="#949494"/>
<path d="M439.031 272L446.102 279.071L428.033 297.14L420.962 290.069L439.031 272Z" fill="#949494"/>
<path d="M329.031 92L336.102 99.0711L318.033 117.14L310.962 110.069L329.031 92Z" fill="#949494"/>
<path d="M802.027 275L809.098 282.071L791.167 300.003L784.096 292.932L802.027 275Z" fill="#949494"/>
<path d="M812.021 117.068L819.093 109.997L909.099 200.004L902.028 207.075L812.021 117.068Z" fill="#949494"/>
<path d="M822.01 153.057L829.081 145.986L883.099 200.004L876.028 207.075L822.01 153.057Z" fill="#949494"/>
<path d="M762.966 171.013L770.037 163.942L789.031 182.936L781.96 190.007L762.966 171.013Z" fill="#949494"/>
<path d="M254.08 83.127L261.151 76.0559L334.027 148.932L326.956 156.003L254.08 83.127Z" fill="#949494"/>
<path d="M79.9785 228.049L87.0495 220.978L195.98 329.909L188.909 336.98L79.9785 228.049Z" fill="#949494"/>
<path d="M99.9209 219.992L106.992 212.921L204.1 310.03L197.029 317.101L99.9209 219.992Z" fill="#949494"/>
<path d="M119.932 212.003L127.003 204.932L212.06 289.989L204.989 297.06L119.932 212.003Z" fill="#949494"/>
<path d="M235.953 37.0713L243.024 30.0002L271.933 58.9095L264.862 65.9806L235.953 37.0713Z" fill="#949494"/>
<path d="M171.953 37.0713L179.024 30.0002L224.496 75.4723L217.425 82.5434L171.953 37.0713Z" fill="#949494"/>
<path d="M788.044 135.091L795.115 128.02L813.099 146.004L806.028 153.075L788.044 135.091Z" fill="#949494"/>
<path d="M775.044 99.0908L782.115 92.0198L800.099 110.004L793.028 117.075L775.044 99.0908Z" fill="#949494"/>
<path d="M806.044 189.091L813.115 182.02L831.099 200.004L824.028 207.075L806.044 189.091Z" fill="#949494"/>
<line x1="85" y1="228.002" x2="84.9531" y2="108.002" stroke="#949494" stroke-width="10"/>
<line x1="105" y1="220.002" x2="104.953" y2="116.002" stroke="#949494" stroke-width="10"/>
<line x1="125" y1="212.002" x2="124.953" y2="100.002" stroke="#949494" stroke-width="10"/>
<rect x="1281" y="279" width="120" height="30" fill="#D9D9D9"/>
<rect x="1281" y="199" width="120" height="30" fill="#D9D9D9"/>
<path d="M1284.84 213.93C1284.84 212.471 1285.06 211.247 1285.49 210.258C1285.82 209.529 1286.26 208.874 1286.82 208.295C1287.39 207.715 1288.01 207.286 1288.68 207.006C1289.57 206.628 1290.6 206.439 1291.76 206.439C1293.87 206.439 1295.56 207.094 1296.82 208.402C1298.09 209.711 1298.73 211.531 1298.73 213.861C1298.73 216.173 1298.1 217.982 1296.84 219.291C1295.59 220.593 1293.91 221.244 1291.8 221.244C1289.67 221.244 1287.98 220.596 1286.72 219.301C1285.47 217.999 1284.84 216.208 1284.84 213.93ZM1287.82 213.832C1287.82 215.453 1288.19 216.684 1288.94 217.523C1289.69 218.357 1290.64 218.773 1291.79 218.773C1292.95 218.773 1293.89 218.36 1294.62 217.533C1295.37 216.7 1295.74 215.453 1295.74 213.793C1295.74 212.152 1295.38 210.928 1294.65 210.121C1293.94 209.314 1292.98 208.91 1291.79 208.91C1290.6 208.91 1289.64 209.32 1288.91 210.141C1288.18 210.954 1287.82 212.185 1287.82 213.832ZM1303.07 221V206.801H1305.96V218.588H1313.15V221H1303.07ZM1317.18 221V206.684H1321.51L1324.1 216.449L1326.67 206.684H1331.01V221H1328.32V209.73L1325.48 221H1322.7L1319.87 209.73V221H1317.18ZM1335.88 221V206.684H1340.52C1342.28 206.684 1343.42 206.755 1343.96 206.898C1344.78 207.113 1345.46 207.582 1346.02 208.305C1346.57 209.021 1346.85 209.949 1346.85 211.088C1346.85 211.967 1346.69 212.706 1346.37 213.305C1346.05 213.904 1345.64 214.376 1345.15 214.721C1344.66 215.059 1344.16 215.284 1343.65 215.395C1342.96 215.531 1341.96 215.6 1340.65 215.6H1338.77V221H1335.88ZM1338.77 209.105V213.168H1340.35C1341.49 213.168 1342.25 213.093 1342.64 212.943C1343.02 212.794 1343.32 212.559 1343.54 212.24C1343.76 211.921 1343.87 211.55 1343.87 211.127C1343.87 210.606 1343.71 210.176 1343.41 209.838C1343.1 209.499 1342.71 209.288 1342.25 209.203C1341.9 209.138 1341.21 209.105 1340.17 209.105H1338.77ZM1351.13 221V206.684H1354.02V221H1351.13ZM1351.24 205.863V203.266H1353.93V205.863H1351.24ZM1362.54 221V214.975L1357.3 206.684H1360.69L1364.06 212.348L1367.36 206.684H1370.69L1365.43 214.994V221H1362.54ZM1385.2 221H1382.05L1380.8 217.748H1375.08L1373.9 221H1370.83L1376.41 206.684H1379.47L1385.2 221ZM1379.88 215.336L1377.9 210.023L1375.97 215.336H1379.88ZM1390.48 221V209.105H1386.23V206.684H1397.61V209.105H1393.37V221H1390.48Z" fill="#949494"/>
<rect x="1581" y="199" width="120" height="30" fill="#D9D9D9"/>
<path d="M1584.92 221V218.393L1592.44 209.105H1585.77V206.684H1596.25V208.93L1588.4 218.588H1596.55V221H1584.92ZM1604.14 221V214.975L1598.9 206.684H1602.29L1605.66 212.348L1608.96 206.684H1612.29L1607.03 214.994V221H1604.14ZM1626.8 221H1623.65L1622.4 217.748H1616.68L1615.5 221H1612.43L1618.01 206.684H1621.07L1626.8 221ZM1621.48 215.336L1619.5 210.023L1617.57 215.336H1621.48ZM1643.83 215.736V213.324H1650.06V219.027C1649.45 219.613 1648.57 220.131 1647.42 220.58C1646.27 221.023 1645.11 221.244 1643.93 221.244C1642.44 221.244 1641.13 220.932 1640.02 220.307C1638.9 219.675 1638.07 218.777 1637.51 217.611C1636.95 216.439 1636.67 215.167 1636.67 213.793C1636.67 212.302 1636.98 210.977 1637.61 209.818C1638.23 208.66 1639.15 207.771 1640.35 207.152C1641.27 206.677 1642.41 206.439 1643.78 206.439C1645.55 206.439 1646.94 206.814 1647.94 207.562C1648.94 208.305 1649.58 209.333 1649.87 210.648L1647 211.186C1646.8 210.482 1646.42 209.929 1645.86 209.525C1645.3 209.115 1644.61 208.91 1643.78 208.91C1642.51 208.91 1641.51 209.311 1640.76 210.111C1640.02 210.912 1639.65 212.1 1639.65 213.676C1639.65 215.375 1640.02 216.651 1640.78 217.504C1641.53 218.35 1642.52 218.773 1643.75 218.773C1644.35 218.773 1644.96 218.656 1645.56 218.422C1646.18 218.181 1646.7 217.891 1647.14 217.553V215.736H1643.83ZM1654.77 221V206.684H1657.66V213.041L1663.5 206.684H1667.39L1662 212.26L1667.68 221H1663.94L1660.01 214.281L1657.66 216.674V221H1654.77ZM1671.26 221V206.801H1674.15V218.588H1681.34V221H1671.26ZM1685.41 221V206.684H1690.05C1691.81 206.684 1692.95 206.755 1693.49 206.898C1694.31 207.113 1695 207.582 1695.55 208.305C1696.1 209.021 1696.38 209.949 1696.38 211.088C1696.38 211.967 1696.22 212.706 1695.9 213.305C1695.58 213.904 1695.17 214.376 1694.68 214.721C1694.19 215.059 1693.69 215.284 1693.19 215.395C1692.5 215.531 1691.5 215.6 1690.19 215.6H1688.3V221H1685.41ZM1688.3 209.105V213.168H1689.88C1691.02 213.168 1691.79 213.093 1692.17 212.943C1692.55 212.794 1692.85 212.559 1693.07 212.24C1693.29 211.921 1693.4 211.55 1693.4 211.127C1693.4 210.606 1693.25 210.176 1692.94 209.838C1692.64 209.499 1692.25 209.288 1691.78 209.203C1691.43 209.138 1690.74 209.105 1689.7 209.105H1688.3Z" fill="#949494"/>
<rect x="1981" y="199" width="120" height="30" fill="#D9D9D9"/>
<path d="M1994.78 221V206.684H1997.67V221H1994.78ZM1994.89 205.863V203.266H1997.58V205.863H1994.89ZM2002.47 221V206.684H2005.37V213.041L2011.21 206.684H2015.09L2009.7 212.26L2015.38 221H2011.64L2007.71 214.281L2005.37 216.674V221H2002.47ZM2018.8 221V206.684H2021.69V221H2018.8ZM2018.91 205.863V203.266H2021.6V205.863H2018.91ZM2029.68 221V209.105H2025.43V206.684H2036.81V209.105H2032.57V221H2029.68ZM2040.68 221V206.684H2051.3V209.105H2043.57V212.279H2050.76V214.691H2043.57V218.588H2051.57V221H2040.68ZM2056.1 221V206.801H2058.99V218.588H2066.18V221H2056.1ZM2070.33 221V206.801H2073.22V218.588H2080.4V221H2070.33ZM2084.39 221V206.684H2087.28V221H2084.39ZM2084.49 205.863V203.266H2087.19V205.863H2084.49Z" fill="#949494"/>
<rect x="2181" y="199" width="120" height="30" fill="#D9D9D9"/>
<path d="M2201.18 221V206.684H2205.51L2208.1 216.449L2210.67 206.684H2215.01V221H2212.32V209.73L2209.48 221H2206.7L2203.87 209.73V221H2201.18ZM2232.79 221H2229.64L2228.39 217.748H2222.67L2221.49 221H2218.42L2224 206.684H2227.06L2232.79 221ZM2227.47 215.336L2225.49 210.023L2223.56 215.336H2227.47ZM2235.6 216.342L2238.41 216.068C2238.58 217.012 2238.92 217.706 2239.44 218.148C2239.96 218.591 2240.66 218.812 2241.54 218.812C2242.47 218.812 2243.17 218.617 2243.64 218.227C2244.11 217.829 2244.35 217.367 2244.35 216.84C2244.35 216.501 2244.25 216.215 2244.05 215.98C2243.85 215.74 2243.51 215.531 2243.01 215.355C2242.67 215.238 2241.9 215.03 2240.7 214.73C2239.15 214.346 2238.06 213.874 2237.44 213.314C2236.56 212.527 2236.12 211.566 2236.12 210.434C2236.12 209.704 2236.32 209.024 2236.73 208.393C2237.15 207.755 2237.74 207.27 2238.52 206.938C2239.3 206.605 2240.24 206.439 2241.34 206.439C2243.14 206.439 2244.49 206.833 2245.39 207.621C2246.31 208.409 2246.78 209.46 2246.83 210.775L2243.94 210.902C2243.82 210.167 2243.55 209.639 2243.14 209.32C2242.74 208.995 2242.13 208.832 2241.31 208.832C2240.47 208.832 2239.82 209.005 2239.34 209.35C2239.03 209.571 2238.88 209.867 2238.88 210.238C2238.88 210.577 2239.02 210.867 2239.31 211.107C2239.68 211.413 2240.56 211.732 2241.97 212.064C2243.37 212.396 2244.41 212.742 2245.08 213.1C2245.76 213.451 2246.29 213.936 2246.66 214.555C2247.05 215.167 2247.24 215.925 2247.24 216.83C2247.24 217.65 2247.01 218.419 2246.56 219.135C2246.1 219.851 2245.46 220.385 2244.62 220.736C2243.79 221.081 2242.75 221.254 2241.51 221.254C2239.7 221.254 2238.31 220.837 2237.34 220.004C2236.37 219.164 2235.79 217.943 2235.6 216.342ZM2251.71 221V206.684H2254.6V213.041L2260.44 206.684H2264.33L2258.94 212.26L2264.62 221H2260.88L2256.95 214.281L2254.6 216.674V221H2251.71ZM2267.54 213.93C2267.54 212.471 2267.76 211.247 2268.19 210.258C2268.52 209.529 2268.96 208.874 2269.52 208.295C2270.09 207.715 2270.71 207.286 2271.38 207.006C2272.27 206.628 2273.3 206.439 2274.46 206.439C2276.57 206.439 2278.26 207.094 2279.52 208.402C2280.79 209.711 2281.43 211.531 2281.43 213.861C2281.43 216.173 2280.8 217.982 2279.54 219.291C2278.28 220.593 2276.6 221.244 2274.5 221.244C2272.37 221.244 2270.68 220.596 2269.42 219.301C2268.17 217.999 2267.54 216.208 2267.54 213.93ZM2270.52 213.832C2270.52 215.453 2270.89 216.684 2271.64 217.523C2272.39 218.357 2273.34 218.773 2274.49 218.773C2275.64 218.773 2276.59 218.36 2277.32 217.533C2278.07 216.7 2278.44 215.453 2278.44 213.793C2278.44 212.152 2278.08 210.928 2277.35 210.121C2276.64 209.314 2275.68 208.91 2274.49 208.91C2273.3 208.91 2272.34 209.32 2271.61 210.141C2270.88 210.954 2270.52 212.185 2270.52 213.832Z" fill="#949494"/>
<rect x="2381" y="199" width="120" height="30" fill="#D9D9D9"/>
<path d="M2383.21 206.684H2388.93C2390.06 206.684 2390.91 206.732 2391.46 206.83C2392.02 206.921 2392.52 207.117 2392.96 207.416C2393.4 207.715 2393.77 208.116 2394.06 208.617C2394.35 209.112 2394.5 209.669 2394.5 210.287C2394.5 210.958 2394.32 211.573 2393.95 212.133C2393.59 212.693 2393.1 213.113 2392.49 213.393C2393.36 213.646 2394.03 214.079 2394.5 214.691C2394.97 215.303 2395.2 216.023 2395.2 216.85C2395.2 217.501 2395.05 218.135 2394.74 218.754C2394.44 219.366 2394.03 219.857 2393.5 220.229C2392.98 220.593 2392.34 220.818 2391.57 220.902C2391.09 220.954 2389.92 220.987 2388.08 221H2383.21V206.684ZM2386.1 209.066V212.377H2387.99C2389.12 212.377 2389.82 212.361 2390.09 212.328C2390.59 212.27 2390.98 212.1 2391.26 211.82C2391.54 211.534 2391.69 211.16 2391.69 210.697C2391.69 210.255 2391.56 209.896 2391.31 209.623C2391.07 209.343 2390.71 209.174 2390.23 209.115C2389.94 209.083 2389.12 209.066 2387.76 209.066H2386.1ZM2386.1 214.76V218.588H2388.78C2389.82 218.588 2390.48 218.559 2390.76 218.5C2391.19 218.422 2391.54 218.233 2391.8 217.934C2392.08 217.628 2392.21 217.221 2392.21 216.713C2392.21 216.283 2392.11 215.919 2391.9 215.619C2391.69 215.32 2391.39 215.102 2390.99 214.965C2390.6 214.828 2389.75 214.76 2388.43 214.76H2386.1ZM2412.56 221H2409.42L2408.17 217.748H2402.45L2401.26 221H2398.2L2403.77 206.684H2406.83L2412.56 221ZM2407.24 215.336L2405.27 210.023L2403.33 215.336H2407.24ZM2416.12 221V206.684H2419.01V212.318H2424.67V206.684H2427.56V221H2424.67V214.74H2419.01V221H2416.12ZM2445.47 221H2442.32L2441.07 217.748H2435.35L2434.17 221H2431.1L2436.68 206.684H2439.74L2445.47 221ZM2440.15 215.336L2438.17 210.023L2436.24 215.336H2440.15ZM2449.02 221V206.684H2455.11C2456.64 206.684 2457.75 206.814 2458.44 207.074C2459.13 207.328 2459.69 207.784 2460.11 208.441C2460.52 209.099 2460.73 209.851 2460.73 210.697C2460.73 211.771 2460.41 212.66 2459.78 213.363C2459.15 214.06 2458.21 214.499 2456.95 214.682C2457.58 215.046 2458.09 215.447 2458.49 215.883C2458.9 216.319 2459.45 217.094 2460.14 218.207L2461.89 221H2458.44L2456.35 217.885C2455.6 216.771 2455.1 216.072 2454.82 215.785C2454.55 215.492 2454.26 215.294 2453.95 215.189C2453.65 215.079 2453.16 215.023 2452.5 215.023H2451.91V221H2449.02ZM2451.91 212.738H2454.05C2455.44 212.738 2456.3 212.68 2456.65 212.562C2456.99 212.445 2457.26 212.243 2457.46 211.957C2457.65 211.671 2457.75 211.312 2457.75 210.883C2457.75 210.401 2457.62 210.014 2457.36 209.721C2457.11 209.421 2456.75 209.232 2456.28 209.154C2456.04 209.122 2455.34 209.105 2454.17 209.105H2451.91V212.738ZM2465.38 221V206.684H2468.27V221H2465.38ZM2465.48 205.863V203.266H2468.18V205.863H2465.48ZM2476.79 221V214.975L2471.55 206.684H2474.94L2478.3 212.348L2481.61 206.684H2484.94L2479.67 214.994V221H2476.79ZM2488.37 221V206.684H2498.99V209.105H2491.26V212.279H2498.45V214.691H2491.26V218.588H2499.26V221H2488.37Z" fill="#949494"/>
<rect x="2681" y="199" width="120" height="30" fill="#D9D9D9"/>
<path d="M2703.23 221H2700.09L2698.84 217.748H2693.12L2691.93 221H2688.87L2694.44 206.684H2697.5L2703.23 221ZM2697.91 215.336L2695.94 210.023L2694 215.336H2697.91ZM2708.51 221V209.105H2704.27V206.684H2715.64V209.105H2711.4V221H2708.51ZM2730.94 221H2727.8L2726.55 217.748H2720.83L2719.64 221H2716.58L2722.15 206.684H2725.21L2730.94 221ZM2725.62 215.336L2723.65 210.023L2721.71 215.336H2725.62ZM2736.22 221V209.105H2731.98V206.684H2743.35V209.105H2739.12V221H2736.22ZM2747.21 206.684H2750.1V214.438C2750.1 215.668 2750.14 216.465 2750.21 216.83C2750.33 217.416 2750.62 217.888 2751.09 218.246C2751.55 218.598 2752.19 218.773 2753 218.773C2753.82 218.773 2754.44 218.607 2754.86 218.275C2755.27 217.937 2755.52 217.523 2755.61 217.035C2755.69 216.547 2755.73 215.736 2755.73 214.604V206.684H2758.62V214.203C2758.62 215.922 2758.55 217.136 2758.39 217.846C2758.23 218.555 2757.94 219.154 2757.52 219.643C2757.1 220.131 2756.54 220.521 2755.84 220.814C2755.14 221.101 2754.22 221.244 2753.09 221.244C2751.72 221.244 2750.68 221.088 2749.97 220.775C2749.27 220.456 2748.71 220.046 2748.3 219.545C2747.89 219.037 2747.62 218.507 2747.49 217.953C2747.3 217.133 2747.21 215.922 2747.21 214.32V206.684ZM2749.67 205.863V203.51H2752.02V205.863H2749.67ZM2753.87 205.863V203.51H2756.23V205.863H2753.87ZM2763.69 221V206.684H2769.78C2771.31 206.684 2772.42 206.814 2773.11 207.074C2773.8 207.328 2774.36 207.784 2774.78 208.441C2775.19 209.099 2775.4 209.851 2775.4 210.697C2775.4 211.771 2775.08 212.66 2774.45 213.363C2773.82 214.06 2772.88 214.499 2771.62 214.682C2772.25 215.046 2772.76 215.447 2773.16 215.883C2773.57 216.319 2774.12 217.094 2774.81 218.207L2776.56 221H2773.11L2771.02 217.885C2770.27 216.771 2769.77 216.072 2769.49 215.785C2769.22 215.492 2768.93 215.294 2768.62 215.189C2768.32 215.079 2767.83 215.023 2767.17 215.023H2766.58V221H2763.69ZM2766.58 212.738H2768.72C2770.11 212.738 2770.97 212.68 2771.32 212.562C2771.66 212.445 2771.93 212.243 2772.13 211.957C2772.32 211.671 2772.42 211.312 2772.42 210.883C2772.42 210.401 2772.29 210.014 2772.03 209.721C2771.78 209.421 2771.42 209.232 2770.95 209.154C2770.71 209.122 2770.01 209.105 2768.84 209.105H2766.58V212.738ZM2780.17 221V206.684H2783.06V213.041L2788.9 206.684H2792.79L2787.4 212.26L2793.08 221H2789.34L2785.41 214.281L2783.06 216.674V221H2780.17Z" fill="#949494"/>
<rect x="2981" y="199" width="120" height="30" fill="#D9D9D9"/>
<path d="M2992.55 221V206.684H2995.44V212.318H3001.1V206.684H3003.99V221H3001.1V214.74H2995.44V221H2992.55ZM3021.9 221H3018.76L3017.51 217.748H3011.79L3010.6 221H3007.54L3013.11 206.684H3016.17L3021.9 221ZM3016.58 215.336L3014.61 210.023L3012.67 215.336H3016.58ZM3025.52 221V206.801H3028.41V218.588H3035.6V221H3025.52ZM3039.71 221V206.684H3042.6V213.041L3048.44 206.684H3052.33L3046.94 212.26L3052.62 221H3048.88L3044.95 214.281L3042.6 216.674V221H3039.71ZM3069.04 221H3065.89L3064.64 217.748H3058.92L3057.74 221H3054.67L3060.25 206.684H3063.3L3069.04 221ZM3063.71 215.336L3061.74 210.023L3059.81 215.336H3063.71ZM3072.66 221V206.801H3075.55V218.588H3082.73V221H3072.66ZM3086.72 221V206.684H3089.61V221H3086.72Z" fill="#949494"/>
<rect x="3181" y="199" width="120" height="30" fill="#D9D9D9"/>
<path d="M3200.07 221H3197.32V210.658C3196.32 211.596 3195.14 212.289 3193.78 212.738V210.248C3194.5 210.014 3195.27 209.571 3196.11 208.92C3196.95 208.262 3197.53 207.497 3197.84 206.625H3200.07V221ZM3206.22 217.318L3208.95 217.035C3209.03 217.654 3209.26 218.145 3209.65 218.51C3210.03 218.868 3210.47 219.047 3210.97 219.047C3211.55 219.047 3212.03 218.816 3212.43 218.354C3212.83 217.885 3213.03 217.182 3213.03 216.244C3213.03 215.365 3212.83 214.708 3212.43 214.271C3212.04 213.829 3211.53 213.607 3210.9 213.607C3210.11 213.607 3209.4 213.956 3208.78 214.652L3206.55 214.33L3207.96 206.879H3215.21V209.447H3210.04L3209.61 211.879C3210.22 211.573 3210.84 211.42 3211.48 211.42C3212.7 211.42 3213.73 211.863 3214.58 212.748C3215.42 213.633 3215.85 214.783 3215.85 216.195C3215.85 217.374 3215.51 218.425 3214.82 219.35C3213.89 220.613 3212.6 221.244 3210.95 221.244C3209.62 221.244 3208.55 220.889 3207.71 220.18C3206.88 219.47 3206.38 218.516 3206.22 217.318ZM3230.71 221V209.105H3226.46V206.684H3237.84V209.105H3233.6V221H3230.71ZM3241.67 221V206.684H3246L3248.6 216.449L3251.16 206.684H3255.5V221H3252.81V209.73L3249.97 221H3247.19L3244.36 209.73V221H3241.67ZM3260.33 221V206.684H3264.66L3267.26 216.449L3269.82 206.684H3274.16V221H3271.47V209.73L3268.63 221H3265.85L3263.02 209.73V221H3260.33ZM3277.79 221V218.393L3285.31 209.105H3278.64V206.684H3289.12V208.93L3281.28 218.588H3289.42V221H3277.79Z" fill="#949494"/>
<rect x="3481" y="199" width="120" height="30" fill="#D9D9D9"/>
<path d="M3488.62 221V206.684H3492.95L3495.55 216.449L3498.12 206.684H3502.45V221H3499.77V209.73L3496.92 221H3494.14L3491.31 209.73V221H3488.62ZM3507.28 221V206.684H3511.61L3514.21 216.449L3516.78 206.684H3521.11V221H3518.43V209.73L3515.58 221H3512.8L3509.97 209.73V221H3507.28ZM3525.99 221V206.684H3532.08C3533.61 206.684 3534.72 206.814 3535.41 207.074C3536.1 207.328 3536.66 207.784 3537.08 208.441C3537.49 209.099 3537.7 209.851 3537.7 210.697C3537.7 211.771 3537.39 212.66 3536.75 213.363C3536.12 214.06 3535.18 214.499 3533.92 214.682C3534.55 215.046 3535.06 215.447 3535.46 215.883C3535.88 216.319 3536.43 217.094 3537.12 218.207L3538.86 221H3535.41L3533.32 217.885C3532.57 216.771 3532.07 216.072 3531.79 215.785C3531.52 215.492 3531.23 215.294 3530.92 215.189C3530.62 215.079 3530.13 215.023 3529.47 215.023H3528.88V221H3525.99ZM3528.88 212.738H3531.02C3532.41 212.738 3533.27 212.68 3533.62 212.562C3533.96 212.445 3534.23 212.243 3534.43 211.957C3534.62 211.671 3534.72 211.312 3534.72 210.883C3534.72 210.401 3534.59 210.014 3534.33 209.721C3534.08 209.421 3533.72 209.232 3533.25 209.154C3533.01 209.122 3532.31 209.105 3531.14 209.105H3528.88V212.738ZM3549.27 216.342L3552.08 216.068C3552.25 217.012 3552.59 217.706 3553.11 218.148C3553.63 218.591 3554.33 218.812 3555.21 218.812C3556.14 218.812 3556.84 218.617 3557.31 218.227C3557.78 217.829 3558.02 217.367 3558.02 216.84C3558.02 216.501 3557.92 216.215 3557.72 215.98C3557.52 215.74 3557.18 215.531 3556.68 215.355C3556.34 215.238 3555.57 215.03 3554.37 214.73C3552.82 214.346 3551.73 213.874 3551.11 213.314C3550.23 212.527 3549.79 211.566 3549.79 210.434C3549.79 209.704 3549.99 209.024 3550.4 208.393C3550.82 207.755 3551.41 207.27 3552.19 206.938C3552.97 206.605 3553.91 206.439 3555.01 206.439C3556.81 206.439 3558.16 206.833 3559.06 207.621C3559.98 208.409 3560.45 209.46 3560.5 210.775L3557.61 210.902C3557.49 210.167 3557.22 209.639 3556.81 209.32C3556.4 208.995 3555.8 208.832 3554.98 208.832C3554.14 208.832 3553.49 209.005 3553.01 209.35C3552.7 209.571 3552.55 209.867 3552.55 210.238C3552.55 210.577 3552.69 210.867 3552.98 211.107C3553.35 211.413 3554.23 211.732 3555.64 212.064C3557.04 212.396 3558.08 212.742 3558.75 213.1C3559.43 213.451 3559.96 213.936 3560.33 214.555C3560.72 215.167 3560.91 215.925 3560.91 216.83C3560.91 217.65 3560.68 218.419 3560.23 219.135C3559.77 219.851 3559.13 220.385 3558.29 220.736C3557.46 221.081 3556.42 221.254 3555.18 221.254C3553.37 221.254 3551.98 220.837 3551.01 220.004C3550.04 219.164 3549.46 217.943 3549.27 216.342ZM3565.37 221V206.684H3568.18L3574.04 216.244V206.684H3576.73V221H3573.83L3568.06 211.664V221H3565.37ZM3581.82 221V206.684H3584.64L3590.5 216.244V206.684H3593.18V221H3590.28L3584.51 211.664V221H3581.82Z" fill="#949494"/>
<rect x="3681" y="199" width="120" height="30" fill="#D9D9D9"/>
<path d="M3687.08 206.684H3692.36C3693.55 206.684 3694.46 206.775 3695.08 206.957C3695.92 207.204 3696.64 207.644 3697.24 208.275C3697.84 208.907 3698.3 209.682 3698.61 210.6C3698.92 211.511 3699.08 212.637 3699.08 213.979C3699.08 215.157 3698.93 216.173 3698.64 217.025C3698.28 218.067 3697.77 218.91 3697.11 219.555C3696.6 220.043 3695.93 220.424 3695.07 220.697C3694.44 220.899 3693.58 221 3692.52 221H3687.08V206.684ZM3689.97 209.105V218.588H3692.12C3692.93 218.588 3693.51 218.542 3693.87 218.451C3694.34 218.334 3694.73 218.135 3695.04 217.855C3695.35 217.576 3695.6 217.117 3695.8 216.479C3695.99 215.834 3696.09 214.958 3696.09 213.852C3696.09 212.745 3695.99 211.895 3695.8 211.303C3695.6 210.71 3695.33 210.248 3694.98 209.916C3694.62 209.584 3694.18 209.359 3693.64 209.242C3693.24 209.151 3692.44 209.105 3691.27 209.105H3689.97ZM3710.2 215.736V213.324H3716.43V219.027C3715.82 219.613 3714.95 220.131 3713.79 220.58C3712.65 221.023 3711.49 221.244 3710.31 221.244C3708.81 221.244 3707.5 220.932 3706.39 220.307C3705.28 219.675 3704.44 218.777 3703.88 217.611C3703.32 216.439 3703.04 215.167 3703.04 213.793C3703.04 212.302 3703.35 210.977 3703.98 209.818C3704.6 208.66 3705.52 207.771 3706.72 207.152C3707.64 206.677 3708.78 206.439 3710.15 206.439C3711.93 206.439 3713.31 206.814 3714.31 207.562C3715.31 208.305 3715.96 209.333 3716.24 210.648L3713.37 211.186C3713.17 210.482 3712.79 209.929 3712.23 209.525C3711.68 209.115 3710.98 208.91 3710.15 208.91C3708.89 208.91 3707.88 209.311 3707.13 210.111C3706.39 210.912 3706.02 212.1 3706.02 213.676C3706.02 215.375 3706.4 216.651 3707.15 217.504C3707.91 218.35 3708.9 218.773 3710.12 218.773C3710.73 218.773 3711.33 218.656 3711.94 218.422C3712.55 218.181 3713.07 217.891 3713.51 217.553V215.736H3710.2ZM3712.04 203.07H3713.37C3713.29 203.956 3712.98 204.652 3712.44 205.16C3711.9 205.661 3711.19 205.912 3710.33 205.912C3709.46 205.912 3708.75 205.661 3708.21 205.16C3707.67 204.652 3707.36 203.956 3707.28 203.07H3708.62C3708.66 203.533 3708.83 203.884 3709.11 204.125C3709.39 204.359 3709.79 204.477 3710.33 204.477C3710.86 204.477 3711.27 204.359 3711.55 204.125C3711.83 203.884 3711.99 203.533 3712.04 203.07ZM3721.09 206.684H3723.98V214.438C3723.98 215.668 3724.01 216.465 3724.08 216.83C3724.21 217.416 3724.5 217.888 3724.96 218.246C3725.43 218.598 3726.07 218.773 3726.88 218.773C3727.7 218.773 3728.32 218.607 3728.73 218.275C3729.15 217.937 3729.4 217.523 3729.48 217.035C3729.57 216.547 3729.61 215.736 3729.61 214.604V206.684H3732.5V214.203C3732.5 215.922 3732.42 217.136 3732.27 217.846C3732.11 218.555 3731.82 219.154 3731.4 219.643C3730.98 220.131 3730.42 220.521 3729.72 220.814C3729.02 221.101 3728.1 221.244 3726.96 221.244C3725.6 221.244 3724.56 221.088 3723.85 220.775C3723.15 220.456 3722.59 220.046 3722.18 219.545C3721.77 219.037 3721.5 218.507 3721.37 217.953C3721.18 217.133 3721.09 215.922 3721.09 214.32V206.684ZM3744.39 216.342L3747.21 216.068C3747.37 217.012 3747.72 217.706 3748.23 218.148C3748.75 218.591 3749.45 218.812 3750.33 218.812C3751.26 218.812 3751.96 218.617 3752.43 218.227C3752.9 217.829 3753.14 217.367 3753.14 216.84C3753.14 216.501 3753.04 216.215 3752.84 215.98C3752.64 215.74 3752.3 215.531 3751.8 215.355C3751.47 215.238 3750.69 215.03 3749.49 214.73C3747.94 214.346 3746.85 213.874 3746.23 213.314C3745.35 212.527 3744.91 211.566 3744.91 210.434C3744.91 209.704 3745.12 209.024 3745.53 208.393C3745.94 207.755 3746.54 207.27 3747.31 206.938C3748.09 206.605 3749.03 206.439 3750.13 206.439C3751.93 206.439 3753.28 206.833 3754.19 207.621C3755.1 208.409 3755.58 209.46 3755.62 210.775L3752.73 210.902C3752.61 210.167 3752.34 209.639 3751.93 209.32C3751.53 208.995 3750.92 208.832 3750.11 208.832C3749.27 208.832 3748.61 209.005 3748.13 209.35C3747.83 209.571 3747.67 209.867 3747.67 210.238C3747.67 210.577 3747.82 210.867 3748.1 211.107C3748.47 211.413 3749.35 211.732 3750.76 212.064C3752.17 212.396 3753.2 212.742 3753.88 213.1C3754.55 213.451 3755.08 213.936 3755.46 214.555C3755.84 215.167 3756.03 215.925 3756.03 216.83C3756.03 217.65 3755.81 218.419 3755.35 219.135C3754.89 219.851 3754.25 220.385 3753.42 220.736C3752.58 221.081 3751.54 221.254 3750.3 221.254C3748.49 221.254 3747.1 220.837 3746.13 220.004C3745.16 219.164 3744.58 217.943 3744.39 216.342ZM3760.49 221V206.684H3763.31L3769.17 216.244V206.684H3771.85V221H3768.95L3763.18 211.664V221H3760.49ZM3780.68 221V214.975L3775.43 206.684H3778.82L3782.19 212.348L3785.49 206.684H3788.82L3783.56 214.994V221H3780.68ZM3792.17 221V206.684H3795.06V221H3792.17ZM3792.28 205.863V203.266H3794.97V205.863H3792.28Z" fill="#949494"/>
<rect x="3881" y="199" width="120" height="30" fill="#D9D9D9"/>
<path d="M3890.15 221V206.684H3893.04V221H3890.15ZM3890.26 205.863V203.266H3892.96V205.863H3890.26ZM3897.82 221V206.684H3900.71V212.318H3906.37V206.684H3909.26V221H3906.37V214.74H3900.71V221H3897.82ZM3914.34 221V206.801H3917.23V218.588H3924.42V221H3914.34ZM3927.75 216.342L3930.57 216.068C3930.74 217.012 3931.08 217.706 3931.59 218.148C3932.11 218.591 3932.81 218.812 3933.69 218.812C3934.62 218.812 3935.32 218.617 3935.79 218.227C3936.27 217.829 3936.5 217.367 3936.5 216.84C3936.5 216.501 3936.4 216.215 3936.2 215.98C3936.01 215.74 3935.66 215.531 3935.17 215.355C3934.83 215.238 3934.06 215.03 3932.85 214.73C3931.3 214.346 3930.21 213.874 3929.59 213.314C3928.71 212.527 3928.27 211.566 3928.27 210.434C3928.27 209.704 3928.48 209.024 3928.89 208.393C3929.3 207.755 3929.9 207.27 3930.67 206.938C3931.46 206.605 3932.4 206.439 3933.5 206.439C3935.29 206.439 3936.64 206.833 3937.55 207.621C3938.46 208.409 3938.94 209.46 3938.98 210.775L3936.09 210.902C3935.97 210.167 3935.7 209.639 3935.29 209.32C3934.89 208.995 3934.28 208.832 3933.47 208.832C3932.63 208.832 3931.97 209.005 3931.49 209.35C3931.19 209.571 3931.04 209.867 3931.04 210.238C3931.04 210.577 3931.18 210.867 3931.46 211.107C3931.83 211.413 3932.71 211.732 3934.12 212.064C3935.53 212.396 3936.57 212.742 3937.24 213.1C3937.91 213.451 3938.44 213.936 3938.82 214.555C3939.2 215.167 3939.39 215.925 3939.39 216.83C3939.39 217.65 3939.17 218.419 3938.71 219.135C3938.26 219.851 3937.61 220.385 3936.78 220.736C3935.94 221.081 3934.91 221.254 3933.66 221.254C3931.85 221.254 3930.46 220.837 3929.49 220.004C3928.52 219.164 3927.94 217.943 3927.75 216.342ZM3954.78 221V214.975L3949.54 206.684H3952.93L3956.29 212.348L3959.6 206.684H3962.93L3957.66 214.994V221H3954.78ZM3970.01 221L3964.9 206.684H3968.03L3971.65 217.279L3975.16 206.684H3978.23L3973.1 221H3970.01ZM3993.13 221H3989.98L3988.73 217.748H3983.01L3981.83 221H3978.76L3984.34 206.684H3987.39L3993.13 221ZM3987.8 215.336L3985.83 210.023L3983.9 215.336H3987.8Z" fill="#949494"/>
<rect x="4081" y="199" width="120" height="30" fill="#D9D9D9"/>
<path d="M4095.04 215.736L4097.84 216.625C4097.41 218.188 4096.7 219.35 4095.69 220.111C4094.7 220.867 4093.43 221.244 4091.89 221.244C4089.99 221.244 4088.43 220.596 4087.21 219.301C4085.98 217.999 4085.37 216.221 4085.37 213.969C4085.37 211.586 4085.99 209.737 4087.22 208.422C4088.45 207.1 4090.07 206.439 4092.07 206.439C4093.82 206.439 4095.24 206.957 4096.34 207.992C4096.99 208.604 4097.48 209.483 4097.8 210.629L4094.94 211.312C4094.77 210.57 4094.42 209.984 4093.88 209.555C4093.34 209.125 4092.69 208.91 4091.92 208.91C4090.86 208.91 4090 209.291 4089.34 210.053C4088.68 210.814 4088.35 212.048 4088.35 213.754C4088.35 215.564 4088.68 216.853 4089.33 217.621C4089.98 218.389 4090.82 218.773 4091.87 218.773C4092.63 218.773 4093.29 218.529 4093.85 218.041C4094.4 217.553 4094.8 216.785 4095.04 215.736ZM4088.96 224.936V223.783C4089.64 223.855 4090.25 223.891 4090.81 223.891C4091.39 223.891 4091.82 223.786 4092.1 223.578C4092.31 223.422 4092.42 223.22 4092.42 222.973C4092.42 222.751 4092.32 222.559 4092.12 222.396C4091.92 222.234 4091.6 222.152 4091.18 222.152C4090.76 222.152 4090.34 222.217 4089.9 222.348L4090.16 221.381C4090.66 221.205 4091.21 221.117 4091.8 221.117C4092.61 221.117 4093.23 221.296 4093.65 221.654C4094.08 222.012 4094.29 222.449 4094.29 222.963C4094.29 223.536 4094.05 224.001 4093.58 224.359C4092.95 224.848 4092.05 225.092 4090.87 225.092C4090.03 225.092 4089.39 225.04 4088.96 224.936ZM4102.34 206.684H4108.06C4109.2 206.684 4110.04 206.732 4110.59 206.83C4111.15 206.921 4111.65 207.117 4112.09 207.416C4112.53 207.715 4112.9 208.116 4113.19 208.617C4113.48 209.112 4113.63 209.669 4113.63 210.287C4113.63 210.958 4113.45 211.573 4113.08 212.133C4112.73 212.693 4112.24 213.113 4111.62 213.393C4112.49 213.646 4113.16 214.079 4113.63 214.691C4114.1 215.303 4114.33 216.023 4114.33 216.85C4114.33 217.501 4114.18 218.135 4113.88 218.754C4113.58 219.366 4113.16 219.857 4112.63 220.229C4112.11 220.593 4111.47 220.818 4110.7 220.902C4110.22 220.954 4109.06 220.987 4107.21 221H4102.34V206.684ZM4105.23 209.066V212.377H4107.13C4108.25 212.377 4108.95 212.361 4109.23 212.328C4109.72 212.27 4110.11 212.1 4110.39 211.82C4110.68 211.534 4110.82 211.16 4110.82 210.697C4110.82 210.255 4110.69 209.896 4110.45 209.623C4110.21 209.343 4109.85 209.174 4109.36 209.115C4109.08 209.083 4108.25 209.066 4106.89 209.066H4105.23ZM4105.23 214.76V218.588H4107.91C4108.95 218.588 4109.61 218.559 4109.89 218.5C4110.32 218.422 4110.67 218.233 4110.94 217.934C4111.21 217.628 4111.35 217.221 4111.35 216.713C4111.35 216.283 4111.24 215.919 4111.03 215.619C4110.82 215.32 4110.52 215.102 4110.12 214.965C4109.73 214.828 4108.88 214.76 4107.57 214.76H4105.23ZM4118.81 221V206.684H4121.63L4127.49 216.244V206.684H4130.17V221H4127.27L4121.5 211.664V221H4118.81ZM4144.4 215.736L4147.2 216.625C4146.77 218.188 4146.06 219.35 4145.05 220.111C4144.06 220.867 4142.79 221.244 4141.25 221.244C4139.35 221.244 4137.79 220.596 4136.57 219.301C4135.34 217.999 4134.73 216.221 4134.73 213.969C4134.73 211.586 4135.35 209.737 4136.58 208.422C4137.81 207.1 4139.42 206.439 4141.43 206.439C4143.18 206.439 4144.6 206.957 4145.7 207.992C4146.35 208.604 4146.84 209.483 4147.16 210.629L4144.3 211.312C4144.13 210.57 4143.78 209.984 4143.24 209.555C4142.7 209.125 4142.05 208.91 4141.28 208.91C4140.22 208.91 4139.36 209.291 4138.7 210.053C4138.04 210.814 4137.71 212.048 4137.71 213.754C4137.71 215.564 4138.03 216.853 4138.69 217.621C4139.34 218.389 4140.18 218.773 4141.22 218.773C4141.99 218.773 4142.65 218.529 4143.21 218.041C4143.76 217.553 4144.16 216.785 4144.4 215.736ZM4138.32 224.936V223.783C4138.99 223.855 4139.61 223.891 4140.17 223.891C4140.75 223.891 4141.18 223.786 4141.46 223.578C4141.67 223.422 4141.78 223.22 4141.78 222.973C4141.78 222.751 4141.68 222.559 4141.48 222.396C4141.28 222.234 4140.96 222.152 4140.54 222.152C4140.12 222.152 4139.7 222.217 4139.26 222.348L4139.52 221.381C4140.02 221.205 4140.57 221.117 4141.16 221.117C4141.97 221.117 4142.59 221.296 4143.01 221.654C4143.43 222.012 4143.65 222.449 4143.65 222.963C4143.65 223.536 4143.41 224.001 4142.94 224.359C4142.31 224.848 4141.41 225.092 4140.23 225.092C4139.39 225.092 4138.75 225.04 4138.32 224.936ZM4150.96 216.342L4153.77 216.068C4153.94 217.012 4154.28 217.706 4154.8 218.148C4155.32 218.591 4156.02 218.812 4156.9 218.812C4157.83 218.812 4158.53 218.617 4159 218.227C4159.47 217.829 4159.71 217.367 4159.71 216.84C4159.71 216.501 4159.61 216.215 4159.41 215.98C4159.21 215.74 4158.87 215.531 4158.37 215.355C4158.03 215.238 4157.26 215.03 4156.06 214.73C4154.51 214.346 4153.42 213.874 4152.79 213.314C4151.92 212.527 4151.48 211.566 4151.48 210.434C4151.48 209.704 4151.68 209.024 4152.09 208.393C4152.51 207.755 4153.1 207.27 4153.88 206.938C4154.66 206.605 4155.6 206.439 4156.7 206.439C4158.5 206.439 4159.85 206.833 4160.75 207.621C4161.67 208.409 4162.14 209.46 4162.19 210.775L4159.3 210.902C4159.18 210.167 4158.91 209.639 4158.5 209.32C4158.09 208.995 4157.49 208.832 4156.67 208.832C4155.83 208.832 4155.17 209.005 4154.7 209.35C4154.39 209.571 4154.24 209.867 4154.24 210.238C4154.24 210.577 4154.38 210.867 4154.67 211.107C4155.03 211.413 4155.92 211.732 4157.33 212.064C4158.73 212.396 4159.77 212.742 4160.44 213.1C4161.12 213.451 4161.65 213.936 4162.02 214.555C4162.41 215.167 4162.6 215.925 4162.6 216.83C4162.6 217.65 4162.37 218.419 4161.92 219.135C4161.46 219.851 4160.82 220.385 4159.98 220.736C4159.15 221.081 4158.11 221.254 4156.87 221.254C4155.06 221.254 4153.67 220.837 4152.7 220.004C4151.73 219.164 4151.15 217.943 4150.96 216.342ZM4154.25 224.936V223.783C4154.92 223.855 4155.54 223.891 4156.1 223.891C4156.68 223.891 4157.1 223.786 4157.38 223.578C4157.6 223.422 4157.71 223.22 4157.71 222.973C4157.71 222.751 4157.61 222.559 4157.4 222.396C4157.2 222.234 4156.89 222.152 4156.47 222.152C4156.05 222.152 4155.62 222.217 4155.19 222.348L4155.44 221.381C4155.95 221.205 4156.5 221.117 4157.08 221.117C4157.9 221.117 4158.51 221.296 4158.94 221.654C4159.36 222.012 4159.57 222.449 4159.57 222.963C4159.57 223.536 4159.34 224.001 4158.87 224.359C4158.24 224.848 4157.33 225.092 4156.15 225.092C4155.31 225.092 4154.68 225.04 4154.25 224.936ZM4166.99 221V206.684H4171.32L4173.92 216.449L4176.48 206.684H4180.82V221H4178.13V209.73L4175.29 221H4172.51L4169.68 209.73V221H4166.99ZM4185.69 221V206.684H4196.31V209.105H4188.58V212.279H4195.77V214.691H4188.58V218.588H4196.58V221H4185.69Z" fill="#949494"/>
<rect x="4381" y="199" width="120" height="30" fill="#D9D9D9"/>
<path d="M4387.52 221V214.975L4382.27 206.684H4385.66L4389.03 212.348L4392.33 206.684H4395.66L4390.4 214.994V221H4387.52ZM4399.1 221V206.684H4409.71V209.105H4401.99V212.279H4409.17V214.691H4401.99V218.588H4409.98V221H4399.1ZM4414.46 221V206.684H4417.28L4423.14 216.244V206.684H4425.82V221H4422.92L4417.15 211.664V221H4414.46ZM4430.8 221V206.684H4433.69V221H4430.8ZM4430.91 205.863V203.266H4433.6V205.863H4430.91ZM4438.46 206.684H4444.19C4445.32 206.684 4446.16 206.732 4446.72 206.83C4447.28 206.921 4447.77 207.117 4448.21 207.416C4448.65 207.715 4449.02 208.116 4449.31 208.617C4449.61 209.112 4449.75 209.669 4449.75 210.287C4449.75 210.958 4449.57 211.573 4449.21 212.133C4448.85 212.693 4448.36 213.113 4447.74 213.393C4448.61 213.646 4449.29 214.079 4449.75 214.691C4450.22 215.303 4450.46 216.023 4450.46 216.85C4450.46 217.501 4450.3 218.135 4450 218.754C4449.7 219.366 4449.29 219.857 4448.76 220.229C4448.24 220.593 4447.59 220.818 4446.82 220.902C4446.34 220.954 4445.18 220.987 4443.34 221H4438.46V206.684ZM4441.36 209.066V212.377H4443.25C4444.38 212.377 4445.08 212.361 4445.35 212.328C4445.84 212.27 4446.23 212.1 4446.51 211.82C4446.8 211.534 4446.94 211.16 4446.94 210.697C4446.94 210.255 4446.82 209.896 4446.57 209.623C4446.33 209.343 4445.97 209.174 4445.49 209.115C4445.2 209.083 4444.38 209.066 4443.02 209.066H4441.36ZM4441.36 214.76V218.588H4444.03C4445.07 218.588 4445.73 218.559 4446.01 218.5C4446.44 218.422 4446.79 218.233 4447.06 217.934C4447.33 217.628 4447.47 217.221 4447.47 216.713C4447.47 216.283 4447.36 215.919 4447.16 215.619C4446.95 215.32 4446.65 215.102 4446.25 214.965C4445.86 214.828 4445 214.76 4443.69 214.76H4441.36ZM4454.18 216.342L4456.99 216.068C4457.16 217.012 4457.5 217.706 4458.01 218.148C4458.53 218.591 4459.23 218.812 4460.11 218.812C4461.04 218.812 4461.74 218.617 4462.21 218.227C4462.69 217.829 4462.93 217.367 4462.93 216.84C4462.93 216.501 4462.82 216.215 4462.62 215.98C4462.43 215.74 4462.08 215.531 4461.59 215.355C4461.25 215.238 4460.48 215.03 4459.27 214.73C4457.72 214.346 4456.64 213.874 4456.01 213.314C4455.13 212.527 4454.69 211.566 4454.69 210.434C4454.69 209.704 4454.9 209.024 4455.31 208.393C4455.73 207.755 4456.32 207.27 4457.1 206.938C4457.88 206.605 4458.82 206.439 4459.92 206.439C4461.71 206.439 4463.07 206.833 4463.97 207.621C4464.88 208.409 4465.36 209.46 4465.41 210.775L4462.52 210.902C4462.39 210.167 4462.12 209.639 4461.71 209.32C4461.31 208.995 4460.7 208.832 4459.89 208.832C4459.05 208.832 4458.39 209.005 4457.92 209.35C4457.61 209.571 4457.46 209.867 4457.46 210.238C4457.46 210.577 4457.6 210.867 4457.89 211.107C4458.25 211.413 4459.14 211.732 4460.54 212.064C4461.95 212.396 4462.99 212.742 4463.66 213.1C4464.34 213.451 4464.86 213.936 4465.24 214.555C4465.62 215.167 4465.82 215.925 4465.82 216.83C4465.82 217.65 4465.59 218.419 4465.13 219.135C4464.68 219.851 4464.03 220.385 4463.2 220.736C4462.37 221.081 4461.33 221.254 4460.08 221.254C4458.27 221.254 4456.88 220.837 4455.91 220.004C4454.94 219.164 4454.36 217.943 4454.18 216.342ZM4470.28 221V206.684H4473.09L4478.95 216.244V206.684H4481.63V221H4478.73L4472.96 211.664V221H4470.28ZM4499.61 221H4496.47L4495.22 217.748H4489.49L4488.31 221H4485.25L4490.82 206.684H4493.88L4499.61 221ZM4494.29 215.336L4492.32 210.023L4490.38 215.336H4494.29Z" fill="#949494"/>
<rect x="4681" y="199" width="120" height="30" fill="#D9D9D9"/>
<path d="M4709.6 221H4706.46L4705.21 217.748H4699.49L4698.3 221H4695.24L4700.81 206.684H4703.87L4709.6 221ZM4704.28 215.336L4702.31 210.023L4700.38 215.336H4704.28ZM4714.88 221V209.105H4710.64V206.684H4722.01V209.105H4717.78V221H4714.88ZM4737.31 221H4734.17L4732.92 217.748H4727.2L4726.02 221H4722.95L4728.53 206.684H4731.58L4737.31 221ZM4731.99 215.336L4730.02 210.023L4728.09 215.336H4731.99ZM4740.9 221V206.684H4743.79V213.041L4749.63 206.684H4753.51L4748.12 212.26L4753.81 221H4750.07L4746.13 214.281L4743.79 216.674V221H4740.9ZM4756.72 213.93C4756.72 212.471 4756.94 211.247 4757.38 210.258C4757.7 209.529 4758.15 208.874 4758.71 208.295C4759.27 207.715 4759.89 207.286 4760.56 207.006C4761.45 206.628 4762.48 206.439 4763.65 206.439C4765.76 206.439 4767.44 207.094 4768.71 208.402C4769.98 209.711 4770.61 211.531 4770.61 213.861C4770.61 216.173 4769.98 217.982 4768.73 219.291C4767.47 220.593 4765.79 221.244 4763.69 221.244C4761.56 221.244 4759.87 220.596 4758.61 219.301C4757.35 217.999 4756.72 216.208 4756.72 213.93ZM4759.7 213.832C4759.7 215.453 4760.08 216.684 4760.83 217.523C4761.57 218.357 4762.53 218.773 4763.68 218.773C4764.83 218.773 4765.77 218.36 4766.51 217.533C4767.25 216.7 4767.62 215.453 4767.62 213.793C4767.62 212.152 4767.26 210.928 4766.54 210.121C4765.82 209.314 4764.87 208.91 4763.68 208.91C4762.49 208.91 4761.53 209.32 4760.8 210.141C4760.07 210.954 4759.7 212.185 4759.7 213.832ZM4760.22 205.863V203.51H4762.57V205.863H4760.22ZM4764.42 205.863V203.51H4766.78V205.863H4764.42ZM4778.64 221V214.975L4773.39 206.684H4776.78L4780.15 212.348L4783.45 206.684H4786.78L4781.52 214.994V221H4778.64Z" fill="#949494"/>
<path d="M1081 179.071L1088.07 172L1165.15 249.075L1158.07 256.146L1081 179.071Z" fill="#949494"/>
<path d="M1158.07 172L1165.15 179.071L1088.07 256.146L1081 249.075L1158.07 172Z" fill="#949494"/>
<path d="M1411 179.071L1418.07 172L1495.15 249.075L1488.07 256.146L1411 179.071Z" fill="#949494"/>
<path d="M1488.07 172L1495.15 179.071L1418.07 256.146L1411 249.075L1488.07 172Z" fill="#949494"/>
<path d="M2531 179.071L2538.07 172L2615.15 249.075L2608.07 256.146L2531 179.071Z" fill="#949494"/>
<path d="M2958.07 172L2965.15 179.071L2888.07 256.146L2881 249.075L2958.07 172Z" fill="#949494"/>
<path d="M3317 179.071L3324.07 172L3401.15 249.075L3394.07 256.146L3317 179.071Z" fill="#949494"/>
<path d="M3394.07 172L3401.15 179.071L3324.07 256.146L3317 249.075L3394.07 172Z" fill="#949494"/>
<path d="M4217 179.071L4224.07 172L4301.15 249.075L4294.07 256.146L4217 179.071Z" fill="#949494"/>
<path d="M4294.07 172L4301.15 179.071L4224.07 256.146L4217 249.075L4294.07 172Z" fill="#949494"/>
<path d="M4581 179.071L4588.07 172L4665.15 249.075L4658.07 256.146L4581 179.071Z" fill="#949494"/>
<path d="M4658.07 172L4665.15 179.071L4588.07 256.146L4581 249.075L4658.07 172Z" fill="#949494"/>
<line x1="1825.5" y1="214" x2="1932.5" y2="214" stroke="#949494" stroke-width="10"/>
<path d="M1897.58 134L1904.65 141.071L1787.07 258.648L1780 251.577L1897.58 134Z" fill="#949494"/>
<rect x="1927.5" y="209" width="52.5" height="10" transform="rotate(-45 1927.5 209)" fill="#949494"/>
<rect x="1934.57" y="211.877" width="52.5" height="10" transform="rotate(45 1934.57 211.877)" fill="#949494"/>
<path d="M1817.07 134L1824.15 141.071L1788.79 176.426L1781.72 169.355L1817.07 134Z" fill="#949494"/>
<rect x="927.1" y="203.023" width="48.1095" height="10" transform="rotate(-45 927.1 203.023)" fill="#949494"/>
<rect x="934.045" y="217.974" width="48.0284" height="10" transform="rotate(45 934.045 217.974)" fill="#949494"/>
<line x1="961" y1="254" x2="4861" y2="254" stroke="#949494" stroke-width="10"/>
<line x1="961" y1="174" x2="4861" y2="174" stroke="#949494" stroke-width="10"/>
<path d="M1178.92 258.92L1185.99 251.849L1263.07 328.923L1255.99 335.995L1178.92 258.92Z" fill="#949494"/>
<path d="M1521 251.85L1528.07 258.921L1451 335.995L1443.93 328.924L1521 251.85Z" fill="#949494"/>
<line x1="1256" y1="331" x2="1451" y2="331" stroke="#949494" stroke-width="10"/>
<path d="M2866.36 252L2873.43 259.071L2838.07 294.426L2831 287.355L2866.36 252Z" fill="#949494"/>
</svg>
