<svg width="943" height="200" viewBox="0 0 943 200" fill="none" xmlns="http://www.w3.org/2000/svg">
<path d="M106 100H844" stroke="#76777A" stroke-width="20"/>
<circle cx="843" cy="100" r="21" fill="#76777A"/>
<circle cx="843" cy="100" r="13" fill="white"/>
<circle cx="288" cy="100" r="21" fill="#76777A"/>
<circle cx="288" cy="100" r="13" fill="white"/>
<circle cx="658" cy="100" r="21" fill="#76777A"/>
<circle cx="658" cy="100" r="13" fill="white"/>
<circle cx="473" cy="100" r="21" fill="#76777A"/>
<circle cx="473" cy="100" r="13" fill="white"/>
<circle cx="100" cy="100" r="24" fill="black"/>
<ellipse cx="100.001" cy="99.9939" rx="19.2" ry="19.2" fill="white"/>
<path d="M74.7633 41.2V58H70.8753V51.112H63.2433V58H59.3553V41.2H63.2433V47.824H70.8753V41.2H74.7633ZM83.6821 44.896C85.6821 44.896 87.2181 45.376 88.2901 46.336C89.3621 47.28 89.8981 48.712 89.8981 50.632V58H86.3941V56.392C85.6901 57.592 84.3781 58.192 82.4581 58.192C81.4661 58.192 80.6021 58.024 79.8661 57.688C79.1461 57.352 78.5941 56.888 78.2101 56.296C77.8261 55.704 77.6341 55.032 77.6341 54.28C77.6341 53.08 78.0821 52.136 78.9781 51.448C79.8901 50.76 81.2901 50.416 83.1781 50.416H86.1541C86.1541 49.6 85.9061 48.976 85.4101 48.544C84.9141 48.096 84.1701 47.872 83.1781 47.872C82.4901 47.872 81.8101 47.984 81.1381 48.208C80.4821 48.416 79.9221 48.704 79.4581 49.072L78.1141 46.456C78.8181 45.96 79.6581 45.576 80.6341 45.304C81.6261 45.032 82.6421 44.896 83.6821 44.896ZM83.3941 55.672C84.0341 55.672 84.6021 55.528 85.0981 55.24C85.5941 54.936 85.9461 54.496 86.1541 53.92V52.6H83.5861C82.0501 52.6 81.2821 53.104 81.2821 54.112C81.2821 54.592 81.4661 54.976 81.8341 55.264C82.2181 55.536 82.7381 55.672 83.3941 55.672ZM93.2866 40.192H97.0306V58H93.2866V40.192ZM106.049 52.936L104.249 54.712V58H100.505V40.192H104.249V50.272L109.721 45.088H114.185L108.809 50.56L114.665 58H110.129L106.049 52.936ZM121.323 44.896C123.323 44.896 124.859 45.376 125.931 46.336C127.003 47.28 127.539 48.712 127.539 50.632V58H124.035V56.392C123.331 57.592 122.019 58.192 120.099 58.192C119.107 58.192 118.243 58.024 117.507 57.688C116.787 57.352 116.235 56.888 115.851 56.296C115.467 55.704 115.275 55.032 115.275 54.28C115.275 53.08 115.723 52.136 116.619 51.448C117.531 50.76 118.931 50.416 120.819 50.416H123.795C123.795 49.6 123.547 48.976 123.051 48.544C122.555 48.096 121.811 47.872 120.819 47.872C120.131 47.872 119.451 47.984 118.779 48.208C118.123 48.416 117.563 48.704 117.099 49.072L115.755 46.456C116.459 45.96 117.299 45.576 118.275 45.304C119.267 45.032 120.283 44.896 121.323 44.896ZM121.035 55.672C121.675 55.672 122.243 55.528 122.739 55.24C123.235 54.936 123.587 54.496 123.795 53.92V52.6H121.227C119.691 52.6 118.923 53.104 118.923 54.112C118.923 54.592 119.107 54.976 119.475 55.264C119.859 55.536 120.379 55.672 121.035 55.672ZM130.927 40.192H134.671V58H130.927V40.192ZM138.146 45.088H141.89V58H138.146V45.088Z" fill="black"/>
<path d="M221.44 51.4L219.184 53.752V58H215.32V41.2H219.184V49.048L226.624 41.2H230.944L223.984 48.688L231.352 58H226.816L221.44 51.4ZM238.427 58.192C237.067 58.192 235.843 57.912 234.755 57.352C233.683 56.776 232.843 55.984 232.235 54.976C231.627 53.968 231.323 52.824 231.323 51.544C231.323 50.264 231.627 49.12 232.235 48.112C232.843 47.104 233.683 46.32 234.755 45.76C235.843 45.184 237.067 44.896 238.427 44.896C239.787 44.896 241.003 45.184 242.075 45.76C243.147 46.32 243.987 47.104 244.595 48.112C245.203 49.12 245.507 50.264 245.507 51.544C245.507 52.824 245.203 53.968 244.595 54.976C243.987 55.984 243.147 56.776 242.075 57.352C241.003 57.912 239.787 58.192 238.427 58.192ZM238.427 55.12C239.387 55.12 240.171 54.8 240.779 54.16C241.403 53.504 241.715 52.632 241.715 51.544C241.715 50.456 241.403 49.592 240.779 48.952C240.171 48.296 239.387 47.968 238.427 47.968C237.467 47.968 236.675 48.296 236.051 48.952C235.427 49.592 235.115 50.456 235.115 51.544C235.115 52.632 235.427 53.504 236.051 54.16C236.675 54.8 237.467 55.12 238.427 55.12ZM255.857 44.896C257.457 44.896 258.745 45.376 259.721 46.336C260.713 47.296 261.209 48.72 261.209 50.608V58H257.465V51.184C257.465 50.16 257.241 49.4 256.793 48.904C256.345 48.392 255.697 48.136 254.849 48.136C253.905 48.136 253.153 48.432 252.593 49.024C252.033 49.6 251.753 50.464 251.753 51.616V58H248.009V45.088H251.585V46.6C252.081 46.056 252.697 45.64 253.433 45.352C254.169 45.048 254.977 44.896 255.857 44.896ZM277.611 45.088V58H274.059V56.464C273.563 57.024 272.971 57.456 272.283 57.76C271.595 58.048 270.851 58.192 270.051 58.192C268.355 58.192 267.011 57.704 266.019 56.728C265.027 55.752 264.531 54.304 264.531 52.384V45.088H268.275V51.832C268.275 53.912 269.147 54.952 270.891 54.952C271.787 54.952 272.507 54.664 273.051 54.088C273.595 53.496 273.867 52.624 273.867 51.472V45.088H277.611ZM289.408 57.376C289.04 57.648 288.584 57.856 288.04 58C287.512 58.128 286.952 58.192 286.36 58.192C284.824 58.192 283.632 57.8 282.784 57.016C281.952 56.232 281.536 55.08 281.536 53.56V48.256H279.544V45.376H281.536V42.232H285.28V45.376H288.496V48.256H285.28V53.512C285.28 54.056 285.416 54.48 285.688 54.784C285.976 55.072 286.376 55.216 286.888 55.216C287.48 55.216 287.984 55.056 288.4 54.736L289.408 57.376ZM310.906 49.264C311.866 49.568 312.618 50.08 313.162 50.8C313.706 51.504 313.978 52.376 313.978 53.416C313.978 54.888 313.402 56.024 312.25 56.824C311.114 57.608 309.45 58 307.258 58H298.57V41.2H306.778C308.826 41.2 310.394 41.592 311.482 42.376C312.586 43.16 313.138 44.224 313.138 45.568C313.138 46.384 312.938 47.112 312.538 47.752C312.154 48.392 311.61 48.896 310.906 49.264ZM302.434 44.128V48.088H306.298C307.258 48.088 307.986 47.92 308.482 47.584C308.978 47.248 309.226 46.752 309.226 46.096C309.226 45.44 308.978 44.952 308.482 44.632C307.986 44.296 307.258 44.128 306.298 44.128H302.434ZM306.97 55.072C307.994 55.072 308.762 54.904 309.274 54.568C309.802 54.232 310.066 53.712 310.066 53.008C310.066 51.616 309.034 50.92 306.97 50.92H302.434V55.072H306.97ZM316.658 45.088H320.402V58H316.658V45.088ZM318.53 43.288C317.842 43.288 317.282 43.088 316.85 42.688C316.418 42.288 316.202 41.792 316.202 41.2C316.202 40.608 316.418 40.112 316.85 39.712C317.282 39.312 317.842 39.112 318.53 39.112C319.218 39.112 319.778 39.304 320.21 39.688C320.642 40.072 320.858 40.552 320.858 41.128C320.858 41.752 320.642 42.272 320.21 42.688C319.778 43.088 319.218 43.288 318.53 43.288ZM327.452 46.792C327.9 46.168 328.5 45.696 329.252 45.376C330.02 45.056 330.9 44.896 331.892 44.896V48.352C331.476 48.32 331.196 48.304 331.052 48.304C329.98 48.304 329.14 48.608 328.532 49.216C327.924 49.808 327.62 50.704 327.62 51.904V58H323.876V45.088H327.452V46.792ZM334.119 40.192H337.863V58H334.119V40.192ZM341.337 45.088H345.081V58H341.337V45.088ZM343.209 43.288C342.521 43.288 341.961 43.088 341.529 42.688C341.097 42.288 340.881 41.792 340.881 41.2C340.881 40.608 341.097 40.112 341.529 39.712C341.961 39.312 342.521 39.112 343.209 39.112C343.897 39.112 344.457 39.304 344.889 39.688C345.321 40.072 345.537 40.552 345.537 41.128C345.537 41.752 345.321 42.272 344.889 42.688C344.457 43.088 343.897 43.288 343.209 43.288ZM354.1 52.936L352.3 54.712V58H348.556V40.192H352.3V50.272L357.772 45.088H362.236L356.86 50.56L362.716 58H358.18L354.1 52.936Z" fill="black"/>
<path d="M425.15 54.4H417.35L415.862 58H411.878L419.366 41.2H423.206L430.718 58H426.638L425.15 54.4ZM423.926 51.448L421.262 45.016L418.598 51.448H423.926ZM432.197 40.192H435.941V58H432.197V40.192ZM448.681 57.376C448.313 57.648 447.857 57.856 447.313 58C446.785 58.128 446.225 58.192 445.633 58.192C444.097 58.192 442.905 57.8 442.057 57.016C441.225 56.232 440.809 55.08 440.809 53.56V48.256H438.817V45.376H440.809V42.232H444.553V45.376H447.769V48.256H444.553V53.512C444.553 54.056 444.689 54.48 444.961 54.784C445.249 55.072 445.649 55.216 446.161 55.216C446.753 55.216 447.257 55.056 447.673 54.736L448.681 57.376ZM450.783 45.088H454.527V58H450.783V45.088ZM465.849 44.896C467.449 44.896 468.737 45.376 469.713 46.336C470.705 47.296 471.201 48.72 471.201 50.608V58H467.457V51.184C467.457 50.16 467.233 49.4 466.785 48.904C466.337 48.392 465.689 48.136 464.841 48.136C463.897 48.136 463.145 48.432 462.585 49.024C462.025 49.6 461.745 50.464 461.745 51.616V58H458.001V45.088H461.577V46.6C462.073 46.056 462.689 45.64 463.425 45.352C464.161 45.048 464.969 44.896 465.849 44.896ZM478.939 58.192C477.867 58.192 476.819 58.064 475.795 57.808C474.771 57.536 473.955 57.2 473.347 56.8L474.595 54.112C475.171 54.48 475.867 54.784 476.683 55.024C477.499 55.248 478.299 55.36 479.083 55.36C480.667 55.36 481.459 54.968 481.459 54.184C481.459 53.816 481.243 53.552 480.811 53.392C480.379 53.232 479.715 53.096 478.819 52.984C477.763 52.824 476.891 52.64 476.203 52.432C475.515 52.224 474.915 51.856 474.403 51.328C473.907 50.8 473.659 50.048 473.659 49.072C473.659 48.256 473.891 47.536 474.355 46.912C474.835 46.272 475.523 45.776 476.419 45.424C477.331 45.072 478.403 44.896 479.635 44.896C480.547 44.896 481.451 45 482.347 45.208C483.259 45.4 484.011 45.672 484.603 46.024L483.355 48.688C482.219 48.048 480.979 47.728 479.635 47.728C478.835 47.728 478.235 47.84 477.835 48.064C477.435 48.288 477.235 48.576 477.235 48.928C477.235 49.328 477.451 49.608 477.883 49.768C478.315 49.928 479.003 50.08 479.947 50.224C481.003 50.4 481.867 50.592 482.539 50.8C483.211 50.992 483.795 51.352 484.291 51.88C484.787 52.408 485.035 53.144 485.035 54.088C485.035 54.888 484.795 55.6 484.315 56.224C483.835 56.848 483.131 57.336 482.203 57.688C481.291 58.024 480.203 58.192 478.939 58.192ZM478.339 63.568C477.923 63.568 477.515 63.52 477.115 63.424C476.715 63.344 476.379 63.224 476.107 63.064L476.683 61.456C477.195 61.696 477.715 61.816 478.243 61.816C479.075 61.816 479.491 61.56 479.491 61.048C479.491 60.584 479.099 60.352 478.315 60.352H477.499L478.123 57.808H480.115L479.779 59.2C480.483 59.28 481.003 59.496 481.339 59.848C481.691 60.216 481.867 60.664 481.867 61.192C481.867 61.928 481.547 62.504 480.907 62.92C480.267 63.352 479.411 63.568 478.339 63.568ZM499.993 51.592C499.993 51.64 499.969 51.976 499.921 52.6H490.153C490.329 53.4 490.745 54.032 491.401 54.496C492.057 54.96 492.873 55.192 493.849 55.192C494.521 55.192 495.113 55.096 495.625 54.904C496.153 54.696 496.641 54.376 497.089 53.944L499.081 56.104C497.865 57.496 496.089 58.192 493.753 58.192C492.297 58.192 491.009 57.912 489.889 57.352C488.769 56.776 487.905 55.984 487.297 54.976C486.689 53.968 486.385 52.824 486.385 51.544C486.385 50.28 486.681 49.144 487.273 48.136C487.881 47.112 488.705 46.32 489.745 45.76C490.801 45.184 491.977 44.896 493.273 44.896C494.537 44.896 495.681 45.168 496.705 45.712C497.729 46.256 498.529 47.04 499.105 48.064C499.697 49.072 499.993 50.248 499.993 51.592ZM493.297 47.728C492.449 47.728 491.737 47.968 491.161 48.448C490.585 48.928 490.233 49.584 490.105 50.416H496.465C496.337 49.6 495.985 48.952 495.409 48.472C494.833 47.976 494.129 47.728 493.297 47.728ZM510.334 44.896C511.934 44.896 513.222 45.376 514.198 46.336C515.19 47.296 515.686 48.72 515.686 50.608V58H511.942V51.184C511.942 50.16 511.718 49.4 511.27 48.904C510.822 48.392 510.174 48.136 509.326 48.136C508.382 48.136 507.63 48.432 507.07 49.024C506.51 49.6 506.23 50.464 506.23 51.616V58H502.486V40.192H506.23V46.432C506.726 45.936 507.326 45.56 508.03 45.304C508.734 45.032 509.502 44.896 510.334 44.896ZM519.08 45.088H522.824V58H519.08V45.088ZM520.952 43.288C520.264 43.288 519.704 43.088 519.272 42.688C518.84 42.288 518.624 41.792 518.624 41.2C518.624 40.608 518.84 40.112 519.272 39.712C519.704 39.312 520.264 39.112 520.952 39.112C521.64 39.112 522.2 39.304 522.632 39.688C523.064 40.072 523.28 40.552 523.28 41.128C523.28 41.752 523.064 42.272 522.632 42.688C522.2 43.088 521.64 43.288 520.952 43.288ZM529.874 46.792C530.322 46.168 530.922 45.696 531.674 45.376C532.442 45.056 533.322 44.896 534.314 44.896V48.352C533.898 48.32 533.618 48.304 533.474 48.304C532.402 48.304 531.562 48.608 530.954 49.216C530.346 49.808 530.042 50.704 530.042 51.904V58H526.298V45.088H529.874V46.792Z" fill="black"/>
<path d="M589.406 41.2H593.294V58H589.406V41.2ZM601.361 58.192C600.289 58.192 599.241 58.064 598.217 57.808C597.193 57.536 596.377 57.2 595.769 56.8L597.017 54.112C597.593 54.48 598.289 54.784 599.105 55.024C599.921 55.248 600.721 55.36 601.505 55.36C603.089 55.36 603.881 54.968 603.881 54.184C603.881 53.816 603.665 53.552 603.233 53.392C602.801 53.232 602.137 53.096 601.241 52.984C600.185 52.824 599.313 52.64 598.625 52.432C597.937 52.224 597.337 51.856 596.825 51.328C596.329 50.8 596.081 50.048 596.081 49.072C596.081 48.256 596.313 47.536 596.777 46.912C597.257 46.272 597.945 45.776 598.841 45.424C599.753 45.072 600.825 44.896 602.057 44.896C602.969 44.896 603.873 45 604.769 45.208C605.681 45.4 606.433 45.672 607.025 46.024L605.777 48.688C604.641 48.048 603.401 47.728 602.057 47.728C601.257 47.728 600.657 47.84 600.257 48.064C599.857 48.288 599.657 48.576 599.657 48.928C599.657 49.328 599.873 49.608 600.305 49.768C600.737 49.928 601.425 50.08 602.369 50.224C603.425 50.4 604.289 50.592 604.961 50.8C605.633 50.992 606.217 51.352 606.713 51.88C607.209 52.408 607.457 53.144 607.457 54.088C607.457 54.888 607.217 55.6 606.737 56.224C606.257 56.848 605.553 57.336 604.625 57.688C603.713 58.024 602.625 58.192 601.361 58.192ZM617.399 44.896C618.599 44.896 619.687 45.176 620.663 45.736C621.655 46.28 622.431 47.056 622.991 48.064C623.551 49.056 623.831 50.216 623.831 51.544C623.831 52.872 623.551 54.04 622.991 55.048C622.431 56.04 621.655 56.816 620.663 57.376C619.687 57.92 618.599 58.192 617.399 58.192C615.751 58.192 614.455 57.672 613.511 56.632V62.656H609.767V45.088H613.343V46.576C614.271 45.456 615.623 44.896 617.399 44.896ZM616.751 55.12C617.711 55.12 618.495 54.8 619.103 54.16C619.727 53.504 620.039 52.632 620.039 51.544C620.039 50.456 619.727 49.592 619.103 48.952C618.495 48.296 617.711 47.968 616.751 47.968C615.791 47.968 614.999 48.296 614.375 48.952C613.767 49.592 613.463 50.456 613.463 51.544C613.463 52.632 613.767 53.504 614.375 54.16C614.999 54.8 615.791 55.12 616.751 55.12ZM631.334 44.896C633.334 44.896 634.87 45.376 635.942 46.336C637.014 47.28 637.55 48.712 637.55 50.632V58H634.046V56.392C633.342 57.592 632.03 58.192 630.11 58.192C629.118 58.192 628.254 58.024 627.518 57.688C626.798 57.352 626.246 56.888 625.862 56.296C625.478 55.704 625.286 55.032 625.286 54.28C625.286 53.08 625.734 52.136 626.63 51.448C627.542 50.76 628.942 50.416 630.83 50.416H633.806C633.806 49.6 633.558 48.976 633.062 48.544C632.566 48.096 631.822 47.872 630.83 47.872C630.142 47.872 629.462 47.984 628.79 48.208C628.134 48.416 627.574 48.704 627.11 49.072L625.766 46.456C626.47 45.96 627.31 45.576 628.286 45.304C629.278 45.032 630.294 44.896 631.334 44.896ZM631.046 55.672C631.686 55.672 632.254 55.528 632.75 55.24C633.246 54.936 633.598 54.496 633.806 53.92V52.6H631.238C629.702 52.6 628.934 53.104 628.934 54.112C628.934 54.592 629.118 54.976 629.486 55.264C629.87 55.536 630.39 55.672 631.046 55.672ZM644.515 46.792C644.963 46.168 645.563 45.696 646.315 45.376C647.083 45.056 647.963 44.896 648.955 44.896V48.352C648.539 48.32 648.259 48.304 648.115 48.304C647.043 48.304 646.203 48.608 645.595 49.216C644.987 49.808 644.683 50.704 644.683 51.904V58H640.939V45.088H644.515V46.792ZM659.954 57.376C659.586 57.648 659.13 57.856 658.586 58C658.058 58.128 657.498 58.192 656.906 58.192C655.37 58.192 654.178 57.8 653.33 57.016C652.498 56.232 652.082 55.08 652.082 53.56V48.256H650.09V45.376H652.082V42.232H655.826V45.376H659.042V48.256H655.826V53.512C655.826 54.056 655.962 54.48 656.234 54.784C656.522 55.072 656.922 55.216 657.434 55.216C658.026 55.216 658.53 55.056 658.946 54.736L659.954 57.376ZM667.264 44.896C669.264 44.896 670.8 45.376 671.872 46.336C672.944 47.28 673.48 48.712 673.48 50.632V58H669.976V56.392C669.272 57.592 667.96 58.192 666.04 58.192C665.048 58.192 664.184 58.024 663.448 57.688C662.728 57.352 662.176 56.888 661.792 56.296C661.408 55.704 661.216 55.032 661.216 54.28C661.216 53.08 661.664 52.136 662.56 51.448C663.472 50.76 664.872 50.416 666.76 50.416H669.736C669.736 49.6 669.488 48.976 668.992 48.544C668.496 48.096 667.752 47.872 666.76 47.872C666.072 47.872 665.392 47.984 664.72 48.208C664.064 48.416 663.504 48.704 663.04 49.072L661.696 46.456C662.4 45.96 663.24 45.576 664.216 45.304C665.208 45.032 666.224 44.896 667.264 44.896ZM666.976 55.672C667.616 55.672 668.184 55.528 668.68 55.24C669.176 54.936 669.528 54.496 669.736 53.92V52.6H667.168C665.632 52.6 664.864 53.104 664.864 54.112C664.864 54.592 665.048 54.976 665.416 55.264C665.8 55.536 666.32 55.672 666.976 55.672ZM682.413 52.936L680.613 54.712V58H676.869V40.192H680.613V50.272L686.085 45.088H690.549L685.173 50.56L691.029 58H686.493L682.413 52.936ZM705.486 45.088V58H701.934V56.464C701.438 57.024 700.846 57.456 700.158 57.76C699.47 58.048 698.726 58.192 697.926 58.192C696.23 58.192 694.886 57.704 693.894 56.728C692.902 55.752 692.406 54.304 692.406 52.384V45.088H696.15V51.832C696.15 53.912 697.022 54.952 698.766 54.952C699.662 54.952 700.382 54.664 700.926 54.088C701.47 53.496 701.742 52.624 701.742 51.472V45.088H705.486ZM708.955 40.192H712.699V58H708.955V40.192ZM728.821 51.592C728.821 51.64 728.797 51.976 728.749 52.6H718.981C719.157 53.4 719.573 54.032 720.229 54.496C720.885 54.96 721.701 55.192 722.677 55.192C723.349 55.192 723.941 55.096 724.453 54.904C724.981 54.696 725.469 54.376 725.917 53.944L727.909 56.104C726.693 57.496 724.917 58.192 722.581 58.192C721.125 58.192 719.837 57.912 718.717 57.352C717.597 56.776 716.733 55.984 716.125 54.976C715.517 53.968 715.213 52.824 715.213 51.544C715.213 50.28 715.509 49.144 716.101 48.136C716.709 47.112 717.533 46.32 718.573 45.76C719.629 45.184 720.805 44.896 722.101 44.896C723.365 44.896 724.509 45.168 725.533 45.712C726.557 46.256 727.357 47.04 727.933 48.064C728.525 49.072 728.821 50.248 728.821 51.592ZM722.125 47.728C721.277 47.728 720.565 47.968 719.989 48.448C719.413 48.928 719.061 49.584 718.933 50.416H725.293C725.165 49.6 724.813 48.952 724.237 48.472C723.661 47.976 722.957 47.728 722.125 47.728Z" fill="black"/>
<path d="M786.781 49.264C787.741 49.568 788.493 50.08 789.037 50.8C789.581 51.504 789.853 52.376 789.853 53.416C789.853 54.888 789.277 56.024 788.125 56.824C786.989 57.608 785.325 58 783.133 58H774.445V41.2H782.653C784.701 41.2 786.269 41.592 787.357 42.376C788.461 43.16 789.013 44.224 789.013 45.568C789.013 46.384 788.813 47.112 788.413 47.752C788.029 48.392 787.485 48.896 786.781 49.264ZM778.309 44.128V48.088H782.173C783.133 48.088 783.861 47.92 784.357 47.584C784.853 47.248 785.101 46.752 785.101 46.096C785.101 45.44 784.853 44.952 784.357 44.632C783.861 44.296 783.133 44.128 782.173 44.128H778.309ZM782.845 55.072C783.869 55.072 784.637 54.904 785.149 54.568C785.677 54.232 785.941 53.712 785.941 53.008C785.941 51.616 784.909 50.92 782.845 50.92H778.309V55.072H782.845ZM797.741 44.896C799.741 44.896 801.277 45.376 802.349 46.336C803.421 47.28 803.957 48.712 803.957 50.632V58H800.453V56.392C799.749 57.592 798.437 58.192 796.517 58.192C795.525 58.192 794.661 58.024 793.925 57.688C793.205 57.352 792.653 56.888 792.269 56.296C791.885 55.704 791.693 55.032 791.693 54.28C791.693 53.08 792.141 52.136 793.037 51.448C793.949 50.76 795.349 50.416 797.237 50.416H800.213C800.213 49.6 799.965 48.976 799.469 48.544C798.973 48.096 798.229 47.872 797.237 47.872C796.549 47.872 795.869 47.984 795.197 48.208C794.541 48.416 793.981 48.704 793.517 49.072L792.173 46.456C792.877 45.96 793.717 45.576 794.693 45.304C795.685 45.032 796.701 44.896 797.741 44.896ZM797.453 55.672C798.093 55.672 798.661 55.528 799.157 55.24C799.653 54.936 800.005 54.496 800.213 53.92V52.6H797.645C796.109 52.6 795.341 53.104 795.341 54.112C795.341 54.592 795.525 54.976 795.893 55.264C796.277 55.536 796.797 55.672 797.453 55.672ZM815.193 44.896C816.793 44.896 818.081 45.376 819.057 46.336C820.049 47.296 820.545 48.72 820.545 50.608V58H816.801V51.184C816.801 50.16 816.577 49.4 816.129 48.904C815.681 48.392 815.033 48.136 814.185 48.136C813.241 48.136 812.489 48.432 811.929 49.024C811.369 49.6 811.089 50.464 811.089 51.616V58H807.345V40.192H811.089V46.432C811.585 45.936 812.185 45.56 812.889 45.304C813.593 45.032 814.361 44.896 815.193 44.896ZM830.32 58.192C828.944 58.192 827.704 57.912 826.6 57.352C825.512 56.776 824.656 55.984 824.032 54.976C823.424 53.968 823.12 52.824 823.12 51.544C823.12 50.264 823.424 49.12 824.032 48.112C824.656 47.104 825.512 46.32 826.6 45.76C827.704 45.184 828.944 44.896 830.32 44.896C831.68 44.896 832.864 45.184 833.872 45.76C834.896 46.32 835.64 47.128 836.104 48.184L833.2 49.744C832.528 48.56 831.56 47.968 830.296 47.968C829.32 47.968 828.512 48.288 827.872 48.928C827.232 49.568 826.912 50.44 826.912 51.544C826.912 52.648 827.232 53.52 827.872 54.16C828.512 54.8 829.32 55.12 830.296 55.12C831.576 55.12 832.544 54.528 833.2 53.344L836.104 54.928C835.64 55.952 834.896 56.752 833.872 57.328C832.864 57.904 831.68 58.192 830.32 58.192ZM828.952 63.568C828.536 63.568 828.128 63.52 827.728 63.424C827.328 63.344 826.992 63.224 826.72 63.064L827.296 61.456C827.808 61.696 828.328 61.816 828.856 61.816C829.688 61.816 830.104 61.56 830.104 61.048C830.104 60.584 829.712 60.352 828.928 60.352H828.112L828.736 57.808H830.728L830.392 59.2C831.096 59.28 831.616 59.496 831.952 59.848C832.304 60.216 832.48 60.664 832.48 61.192C832.48 61.928 832.16 62.504 831.52 62.92C830.88 63.352 830.024 63.568 828.952 63.568ZM850.743 51.592C850.743 51.64 850.719 51.976 850.671 52.6H840.903C841.079 53.4 841.495 54.032 842.151 54.496C842.807 54.96 843.623 55.192 844.599 55.192C845.271 55.192 845.863 55.096 846.375 54.904C846.903 54.696 847.391 54.376 847.839 53.944L849.831 56.104C848.615 57.496 846.839 58.192 844.503 58.192C843.047 58.192 841.759 57.912 840.639 57.352C839.519 56.776 838.655 55.984 838.047 54.976C837.439 53.968 837.135 52.824 837.135 51.544C837.135 50.28 837.431 49.144 838.023 48.136C838.631 47.112 839.455 46.32 840.495 45.76C841.551 45.184 842.727 44.896 844.023 44.896C845.287 44.896 846.431 45.168 847.455 45.712C848.479 46.256 849.279 47.04 849.855 48.064C850.447 49.072 850.743 50.248 850.743 51.592ZM844.047 47.728C843.199 47.728 842.487 47.968 841.911 48.448C841.335 48.928 840.983 49.584 840.855 50.416H847.215C847.087 49.6 846.735 48.952 846.159 48.472C845.583 47.976 844.879 47.728 844.047 47.728ZM857.58 58.192C856.508 58.192 855.46 58.064 854.436 57.808C853.412 57.536 852.596 57.2 851.988 56.8L853.236 54.112C853.812 54.48 854.508 54.784 855.324 55.024C856.14 55.248 856.94 55.36 857.724 55.36C859.308 55.36 860.1 54.968 860.1 54.184C860.1 53.816 859.884 53.552 859.452 53.392C859.02 53.232 858.356 53.096 857.46 52.984C856.404 52.824 855.532 52.64 854.844 52.432C854.156 52.224 853.556 51.856 853.044 51.328C852.548 50.8 852.3 50.048 852.3 49.072C852.3 48.256 852.532 47.536 852.996 46.912C853.476 46.272 854.164 45.776 855.06 45.424C855.972 45.072 857.044 44.896 858.276 44.896C859.188 44.896 860.092 45 860.988 45.208C861.9 45.4 862.652 45.672 863.244 46.024L861.996 48.688C860.86 48.048 859.62 47.728 858.276 47.728C857.476 47.728 856.876 47.84 856.476 48.064C856.076 48.288 855.876 48.576 855.876 48.928C855.876 49.328 856.092 49.608 856.524 49.768C856.956 49.928 857.644 50.08 858.588 50.224C859.644 50.4 860.508 50.592 861.18 50.8C861.852 50.992 862.436 51.352 862.932 51.88C863.428 52.408 863.676 53.144 863.676 54.088C863.676 54.888 863.436 55.6 862.956 56.224C862.476 56.848 861.772 57.336 860.844 57.688C859.932 58.024 858.844 58.192 857.58 58.192ZM856.98 63.568C856.564 63.568 856.156 63.52 855.756 63.424C855.356 63.344 855.02 63.224 854.748 63.064L855.324 61.456C855.836 61.696 856.356 61.816 856.884 61.816C857.716 61.816 858.132 61.56 858.132 61.048C858.132 60.584 857.74 60.352 856.956 60.352H856.14L856.764 57.808H858.756L858.42 59.2C859.124 59.28 859.644 59.496 859.98 59.848C860.332 60.216 860.508 60.664 860.508 61.192C860.508 61.928 860.188 62.504 859.548 62.92C858.908 63.352 858.052 63.568 856.98 63.568ZM878.634 51.592C878.634 51.64 878.61 51.976 878.562 52.6H868.794C868.97 53.4 869.386 54.032 870.042 54.496C870.698 54.96 871.514 55.192 872.49 55.192C873.162 55.192 873.754 55.096 874.266 54.904C874.794 54.696 875.282 54.376 875.73 53.944L877.722 56.104C876.506 57.496 874.73 58.192 872.394 58.192C870.938 58.192 869.65 57.912 868.53 57.352C867.41 56.776 866.546 55.984 865.938 54.976C865.33 53.968 865.026 52.824 865.026 51.544C865.026 50.28 865.322 49.144 865.914 48.136C866.522 47.112 867.346 46.32 868.386 45.76C869.442 45.184 870.618 44.896 871.914 44.896C873.178 44.896 874.322 45.168 875.346 45.712C876.37 46.256 877.17 47.04 877.746 48.064C878.338 49.072 878.634 50.248 878.634 51.592ZM871.938 47.728C871.09 47.728 870.378 47.968 869.802 48.448C869.226 48.928 868.874 49.584 868.746 50.416H875.106C874.978 49.6 874.626 48.952 874.05 48.472C873.474 47.976 872.77 47.728 871.938 47.728ZM888.974 44.896C890.574 44.896 891.862 45.376 892.838 46.336C893.83 47.296 894.326 48.72 894.326 50.608V58H890.582V51.184C890.582 50.16 890.358 49.4 889.91 48.904C889.462 48.392 888.814 48.136 887.966 48.136C887.022 48.136 886.27 48.432 885.71 49.024C885.15 49.6 884.87 50.464 884.87 51.616V58H881.126V40.192H884.87V46.432C885.366 45.936 885.966 45.56 886.67 45.304C887.374 45.032 888.142 44.896 888.974 44.896ZM897.72 45.088H901.464V58H897.72V45.088ZM899.592 43.288C898.904 43.288 898.344 43.088 897.912 42.688C897.48 42.288 897.264 41.792 897.264 41.2C897.264 40.608 897.48 40.112 897.912 39.712C898.344 39.312 898.904 39.112 899.592 39.112C900.28 39.112 900.84 39.304 901.272 39.688C901.704 40.072 901.92 40.552 901.92 41.128C901.92 41.752 901.704 42.272 901.272 42.688C900.84 43.088 900.28 43.288 899.592 43.288ZM908.515 46.792C908.963 46.168 909.563 45.696 910.315 45.376C911.083 45.056 911.963 44.896 912.955 44.896V48.352C912.539 48.32 912.259 48.304 912.115 48.304C911.043 48.304 910.203 48.608 909.595 49.216C908.987 49.808 908.683 50.704 908.683 51.904V58H904.939V45.088H908.515V46.792Z" fill="black"/>
<rect x="97" y="123" width="6" height="20" fill="black"/>
<g clip-path="url(#clip0_494_4549)">
<path d="M103 161C103 157.44 104.056 153.96 106.034 151C108.011 148.04 110.823 145.733 114.112 144.37C117.401 143.008 121.02 142.651 124.512 143.346C128.003 144.04 131.211 145.755 133.728 148.272C136.245 150.789 137.96 153.997 138.654 157.488C139.349 160.98 138.992 164.599 137.63 167.888C136.267 171.177 133.96 173.989 131 175.966C128.04 177.944 124.56 179 121 179C116.228 178.995 111.652 177.097 108.278 173.722C104.903 170.348 103.005 165.772 103 161Z" fill="#9D9D9C"/>
<path d="M105.406 155.6H109.148L111.959 164.459H112L114.75 155.58H118.512L118.532 167.29H116.287L116.267 157.623H116.247L113.112 167.29H110.867L107.692 157.643L107.651 157.683L107.671 167.31H105.426L105.406 155.6Z" fill="white"/>
<path d="M119.949 165.106C120.773 165.435 121.65 165.614 122.538 165.632C123.509 165.632 125.005 165.146 125.005 163.973C125.005 162.8 123.913 162.133 122.416 162.133H121.203V160.292H122.275C123.852 160.292 124.864 159.767 124.864 158.755C124.864 157.744 123.994 157.158 122.922 157.158C122.01 157.166 121.111 157.38 120.293 157.785L120.151 155.904C121.197 155.503 122.308 155.298 123.428 155.297C124.864 155.297 127.291 155.802 127.291 158.29C127.32 158.95 127.121 159.601 126.727 160.131C126.333 160.662 125.767 161.04 125.127 161.202C125.768 161.307 126.346 161.651 126.744 162.166C127.142 162.68 127.33 163.326 127.27 163.973C127.27 166.764 124.742 167.472 122.801 167.472C121.763 167.483 120.729 167.354 119.727 167.088L119.949 165.106Z" fill="white"/>
<path d="M127.795 162.941L132.163 155.539H135.076V163.063H136.572V164.802H135.076V167.269H132.851V164.842H127.815L127.795 162.941ZM132.851 163.083V157.986L129.919 163.083H132.851Z" fill="white"/>
</g>
<circle cx="843" cy="100" r="24" fill="#76777A"/>
<circle cx="473" cy="100" r="21" fill="#76777A"/>
<path d="M472.134 82.5C472.519 81.8333 473.481 81.8333 473.866 82.5L489.454 109.5C489.839 110.167 489.358 111 488.588 111H457.412C456.642 111 456.161 110.167 456.546 109.5L472.134 82.5Z" fill="black"/>
<path d="M472.827 84.3C472.904 84.1667 473.096 84.1667 473.173 84.3L487.549 109.2C487.626 109.333 487.53 109.5 487.376 109.5H458.624C458.47 109.5 458.374 109.333 458.451 109.2L472.827 84.3Z" fill="#FFD400"/>
<path d="M470.779 91.2H475.243L474.499 102.168H471.523L470.779 91.2ZM473.011 108.192C472.355 108.192 471.803 107.984 471.355 107.568C470.923 107.136 470.707 106.616 470.707 106.008C470.707 105.4 470.923 104.896 471.355 104.496C471.787 104.08 472.339 103.872 473.011 103.872C473.683 103.872 474.235 104.08 474.667 104.496C475.099 104.896 475.315 105.4 475.315 106.008C475.315 106.616 475.091 107.136 474.643 107.568C474.211 107.984 473.667 108.192 473.011 108.192Z" fill="black"/>
<circle cx="288" cy="100" r="21" fill="#76777A"/>
<path d="M287.134 82.5C287.519 81.8333 288.481 81.8333 288.866 82.5L304.454 109.5C304.839 110.167 304.358 111 303.588 111H272.412C271.642 111 271.161 110.167 271.546 109.5L287.134 82.5Z" fill="black"/>
<path d="M287.827 84.3C287.904 84.1667 288.096 84.1667 288.173 84.3L302.549 109.2C302.626 109.333 302.53 109.5 302.376 109.5H273.624C273.47 109.5 273.374 109.333 273.451 109.2L287.827 84.3Z" fill="#FFD400"/>
<path d="M285.779 91.2H290.243L289.499 102.168H286.523L285.779 91.2ZM288.011 108.192C287.355 108.192 286.803 107.984 286.355 107.568C285.923 107.136 285.707 106.616 285.707 106.008C285.707 105.4 285.923 104.896 286.355 104.496C286.787 104.08 287.339 103.872 288.011 103.872C288.683 103.872 289.235 104.08 289.667 104.496C290.099 104.896 290.315 105.4 290.315 106.008C290.315 106.616 290.091 107.136 289.643 107.568C289.211 107.984 288.667 108.192 288.011 108.192Z" fill="black"/>
<g clip-path="url(#clip1_494_4549)">
<path d="M36.9998 179.025C33.4313 179.032 29.941 177.981 26.9705 176.006C24.0001 174.031 21.683 171.221 20.3126 167.93C18.9422 164.639 18.58 161.016 19.272 157.52C19.9639 154.024 21.6788 150.811 24.1996 148.288C26.7205 145.766 29.934 144.047 33.4334 143.349C36.9328 142.651 40.5608 143.005 43.8584 144.368C47.1559 145.73 49.9746 148.039 51.9579 151.002C53.9412 153.965 54.9998 157.448 54.9998 161.012C54.9998 165.784 53.1045 170.36 49.7299 173.737C46.3552 177.114 41.7769 179.016 36.9998 179.025Z" fill="#E1251B"/>
<path d="M22.252 155.584H25.7287L28.3037 163.795H28.3388L30.9138 155.584H34.3906V166.417H32.3115V157.475H32.2815L29.3608 166.417H27.2817L24.3611 157.475L24.331 157.505V166.417H22.252V155.584Z" fill="white"/>
<path d="M40.0509 155.584H41.9747V166.417H39.8054V158.051L37.9719 159.542L36.8848 158.126L40.0509 155.584Z" fill="white"/>
<path d="M45.1309 159.191H47.6608C48.5926 159.191 49.9853 159.462 49.9853 161.048C49.9881 161.445 49.844 161.83 49.5805 162.128C49.3171 162.426 48.9529 162.617 48.5575 162.664C48.994 162.669 49.4113 162.844 49.7209 163.151C50.0304 163.458 50.208 163.874 50.2157 164.31C50.2157 166.131 48.5776 166.396 47.6708 166.396H45.1309V159.191ZM46.5837 162.113H47.1698C47.781 162.113 48.5375 161.978 48.5375 161.233C48.5375 160.392 47.8061 160.332 47.1398 160.332H46.5837V162.113ZM46.5837 165.281H47.265C47.9363 165.281 48.7679 165.116 48.7679 164.28C48.7679 163.339 48.0014 163.194 47.265 163.194H46.5837V165.281Z" fill="white"/>
</g>
<g clip-path="url(#clip2_494_4549)">
<path d="M61 161C61 157.44 62.0557 153.96 64.0335 151C66.0114 148.04 68.8226 145.733 72.1117 144.37C75.4008 143.008 79.02 142.651 82.5116 143.346C86.0033 144.04 89.2106 145.755 91.7279 148.272C94.2453 150.789 95.9596 153.997 96.6541 157.488C97.3487 160.98 96.9922 164.599 95.6298 167.888C94.2675 171.177 91.9603 173.989 89.0003 175.966C86.0402 177.944 82.5601 179 79 179C74.2294 178.989 69.6572 177.089 66.2839 173.716C62.9105 170.343 61.0107 165.771 61 161Z" fill="#AB548F"/>
<path d="M63.4277 154.933H67.4727L70.3041 164.034L73.1356 154.933H76.9783V167.067H74.7536V157.157L71.5176 167.067H69.0907L65.8547 157.157V167.067H63.4277V154.933Z" fill="white"/>
<path d="M82.4382 154.933H84.6629V167.067H82.236V157.764L80.2135 159.382L79 157.764L82.4382 154.933Z" fill="white"/>
<path d="M91.1355 154.933H93.3602V167.067H90.9332V157.764L88.9107 159.382L87.6973 157.764L91.1355 154.933Z" fill="white"/>
</g>
<g clip-path="url(#clip3_494_4549)">
<path d="M145 161C145 157.44 146.056 153.96 148.034 151C150.011 148.04 152.823 145.733 156.112 144.37C159.401 143.008 163.02 142.651 166.512 143.346C170.003 144.04 173.211 145.755 175.728 148.272C178.245 150.789 179.96 153.997 180.654 157.488C181.349 160.98 180.992 164.599 179.63 167.888C178.267 171.177 175.96 173.989 173 175.966C170.04 177.944 166.56 179 163 179C160.665 179.029 158.348 178.599 156.18 177.732C154.012 176.866 152.035 175.581 150.364 173.951C148.692 172.321 147.358 170.377 146.438 168.231C145.518 166.086 145.029 163.78 145 161.445V161Z" fill="#65656A"/>
<path d="M153.373 167.673V154.305H158.045C160.775 154.305 162.353 155.478 162.353 157.723C162.362 158.465 162.093 159.183 161.599 159.737C161.105 160.291 160.421 160.64 159.683 160.716C160.492 160.726 161.265 161.051 161.838 161.621C162.412 162.191 162.742 162.961 162.757 163.77C162.757 166.399 160.876 167.633 157.984 167.633L153.373 167.673ZM157.135 159.705C158.894 159.705 159.703 159.138 159.703 158.087C159.703 157.035 159.157 156.408 157.276 156.408H156.043V159.705H157.135ZM157.357 165.57C159.097 165.57 160.088 164.963 160.088 163.709C160.088 162.455 159.198 161.687 157.418 161.687H156.043V165.55L157.357 165.57Z" fill="white"/>
<path d="M168.643 167.674V157.359L166.378 159.18L165.043 157.42L168.946 154.285H171.292V167.674H168.643Z" fill="white"/>
</g>
<defs>
<clipPath id="clip0_494_4549">
<rect width="36" height="36" fill="white" transform="translate(103 143)"/>
</clipPath>
<clipPath id="clip1_494_4549">
<rect width="36" height="36" fill="white" transform="translate(19 143)"/>
</clipPath>
<clipPath id="clip2_494_4549">
<rect width="36" height="36" fill="white" transform="translate(61 143)"/>
</clipPath>
<clipPath id="clip3_494_4549">
<rect width="36" height="36" fill="white" transform="translate(145 143)"/>
</clipPath>
</defs>
</svg>
