<svg xmlns="http://www.w3.org/2000/svg" viewBox="0 0 17.8 17.8">
  <defs>
    <style>
      .cls-1 {
        fill: #65656a;
      }

      .cls-2 {
        fill: #fff;
      }
    </style>
  </defs>
  <g id="Layer_2" data-name="Layer 2">
    <g id="Layer_1-2" data-name="Layer 1">
      <g id="Layer_2-2" data-name="Layer 2">
        <g id="Layer_1-2-2" data-name="Layer 1-2">
          <path class="cls-1" d="M0,8.9a8.9,8.9,0,1,1,8.9,8.9A8.79,8.79,0,0,1,0,9.12V8.9"/>
        </g>
        <g>
          <path class="cls-2" d="M4.14,12.2V5.59H6.45c1.35,0,2.13.58,2.13,1.69A1.47,1.47,0,0,1,7.26,8.76v0a1.54,1.54,0,0,1,1.52,1.51c0,1.3-.93,1.91-2.36,1.91ZM6,8.26c.87,0,1.27-.28,1.27-.8S7,6.63,6.07,6.63H5.46V8.26Zm.11,2.9c.86,0,1.35-.3,1.35-.92s-.44-1-1.32-1H5.46v1.91Z"/>
          <path class="cls-2" d="M11.69,12.2V7.1L10.57,8l-.66-.87,1.93-1.55H13V12.2Z"/>
        </g>
      </g>
    </g>
  </g>
</svg>
