<svg width="3077" height="312" viewBox="0 0 3077 312" fill="none" xmlns="http://www.w3.org/2000/svg">
<rect x="200" y="92" width="120" height="30" fill="#D9D9D9"/>
<path d="M207.145 114V99.6836H210.035V106.041L215.875 99.6836H219.762L214.371 105.26L220.055 114H216.314L212.379 107.281L210.035 109.674V114H207.145ZM222.318 114V111.393L229.838 102.105H223.168V99.6836H233.646V101.93L225.805 111.588H233.949V114H222.318ZM237.863 114V99.8008H240.754V111.588H247.941V114H237.863ZM261.172 108.736L263.975 109.625C263.545 111.188 262.829 112.35 261.826 113.111C260.83 113.867 259.564 114.244 258.027 114.244C256.126 114.244 254.564 113.596 253.34 112.301C252.116 110.999 251.504 109.221 251.504 106.969C251.504 104.586 252.119 102.737 253.35 101.422C254.58 100.1 256.198 99.4395 258.203 99.4395C259.954 99.4395 261.377 99.957 262.471 100.992C263.122 101.604 263.61 102.483 263.936 103.629L261.074 104.312C260.905 103.57 260.55 102.984 260.01 102.555C259.476 102.125 258.825 101.91 258.057 101.91C256.995 101.91 256.133 102.291 255.469 103.053C254.811 103.814 254.482 105.048 254.482 106.754C254.482 108.564 254.808 109.853 255.459 110.621C256.11 111.389 256.956 111.773 257.998 111.773C258.766 111.773 259.427 111.529 259.98 111.041C260.534 110.553 260.931 109.785 261.172 108.736ZM255.098 117.936V116.783C255.768 116.855 256.383 116.891 256.943 116.891C257.523 116.891 257.952 116.786 258.232 116.578C258.447 116.422 258.555 116.22 258.555 115.973C258.555 115.751 258.454 115.559 258.252 115.396C258.05 115.234 257.738 115.152 257.314 115.152C256.898 115.152 256.471 115.217 256.035 115.348L256.289 114.381C256.797 114.205 257.344 114.117 257.93 114.117C258.743 114.117 259.362 114.296 259.785 114.654C260.208 115.012 260.42 115.449 260.42 115.963C260.42 116.536 260.186 117.001 259.717 117.359C259.085 117.848 258.18 118.092 257.002 118.092C256.162 118.092 255.527 118.04 255.098 117.936ZM267.732 109.342L270.545 109.068C270.714 110.012 271.056 110.706 271.57 111.148C272.091 111.591 272.791 111.812 273.67 111.812C274.601 111.812 275.301 111.617 275.77 111.227C276.245 110.829 276.482 110.367 276.482 109.84C276.482 109.501 276.382 109.215 276.18 108.98C275.984 108.74 275.639 108.531 275.145 108.355C274.806 108.238 274.035 108.03 272.83 107.73C271.281 107.346 270.193 106.874 269.568 106.314C268.689 105.527 268.25 104.566 268.25 103.434C268.25 102.704 268.455 102.024 268.865 101.393C269.282 100.755 269.878 100.27 270.652 99.9375C271.434 99.6055 272.374 99.4395 273.475 99.4395C275.271 99.4395 276.622 99.8333 277.527 100.621C278.439 101.409 278.917 102.46 278.963 103.775L276.072 103.902C275.949 103.167 275.682 102.639 275.271 102.32C274.868 101.995 274.259 101.832 273.445 101.832C272.605 101.832 271.948 102.005 271.473 102.35C271.167 102.571 271.014 102.867 271.014 103.238C271.014 103.577 271.157 103.867 271.443 104.107C271.808 104.413 272.693 104.732 274.1 105.064C275.506 105.396 276.544 105.742 277.215 106.1C277.892 106.451 278.419 106.936 278.797 107.555C279.181 108.167 279.373 108.925 279.373 109.83C279.373 110.65 279.145 111.419 278.689 112.135C278.234 112.851 277.589 113.385 276.756 113.736C275.923 114.081 274.884 114.254 273.641 114.254C271.831 114.254 270.441 113.837 269.471 113.004C268.501 112.164 267.921 110.943 267.732 109.342ZM271.023 117.936V116.783C271.694 116.855 272.309 116.891 272.869 116.891C273.449 116.891 273.878 116.786 274.158 116.578C274.373 116.422 274.48 116.22 274.48 115.973C274.48 115.751 274.38 115.559 274.178 115.396C273.976 115.234 273.663 115.152 273.24 115.152C272.824 115.152 272.397 115.217 271.961 115.348L272.215 114.381C272.723 114.205 273.27 114.117 273.855 114.117C274.669 114.117 275.288 114.296 275.711 114.654C276.134 115.012 276.346 115.449 276.346 115.963C276.346 116.536 276.111 117.001 275.643 117.359C275.011 117.848 274.106 118.092 272.928 118.092C272.088 118.092 271.453 118.04 271.023 117.936ZM283.766 114V99.6836H288.092L290.689 109.449L293.258 99.6836H297.594V114H294.908V102.73L292.066 114H289.283L286.451 102.73V114H283.766ZM302.465 114V99.6836H313.08V102.105H305.355V105.279H312.543V107.691H305.355V111.588H313.354V114H302.465Z" fill="#949494"/>
<rect x="556" y="61" width="120" height="30" fill="#D9D9D9"/>
<path d="M563.629 83V76.9746L558.385 68.6836H561.773L565.143 74.3477L568.443 68.6836H571.773L566.51 76.9941V83H563.629ZM575.209 83V68.6836H585.824V71.1055H578.1V74.2793H585.287V76.6914H578.1V80.5879H586.098V83H575.209ZM590.539 68.6836H595.822C597.014 68.6836 597.922 68.7747 598.547 68.957C599.387 69.2044 600.106 69.6439 600.705 70.2754C601.304 70.9069 601.76 71.6816 602.072 72.5996C602.385 73.5111 602.541 74.6374 602.541 75.9785C602.541 77.1569 602.395 78.1725 602.102 79.0254C601.743 80.0671 601.232 80.9102 600.568 81.5547C600.067 82.043 599.39 82.4238 598.537 82.6973C597.899 82.8991 597.046 83 595.979 83H590.539V68.6836ZM593.43 71.1055V80.5879H595.588C596.395 80.5879 596.978 80.5423 597.336 80.4512C597.805 80.334 598.192 80.1354 598.498 79.8555C598.811 79.5755 599.064 79.1165 599.26 78.4785C599.455 77.834 599.553 76.9583 599.553 75.8516C599.553 74.7448 599.455 73.8952 599.26 73.3027C599.064 72.7103 598.791 72.248 598.439 71.916C598.088 71.584 597.642 71.3594 597.102 71.2422C596.698 71.151 595.907 71.1055 594.729 71.1055H593.43ZM606.914 83V68.6836H609.805V83H606.914ZM607.021 67.8633V65.2656H609.717V67.8633H607.021ZM614.607 83V68.6836H617.498V75.041L623.338 68.6836H627.225L621.834 74.2598L627.518 83H623.777L619.842 76.2812L617.498 78.6738V83H614.607ZM631.002 68.6836H633.893V76.4375C633.893 77.668 633.928 78.4655 634 78.8301C634.124 79.416 634.417 79.888 634.879 80.2461C635.348 80.5977 635.986 80.7734 636.793 80.7734C637.613 80.7734 638.232 80.6074 638.648 80.2754C639.065 79.9368 639.316 79.5234 639.4 79.0352C639.485 78.5469 639.527 77.7363 639.527 76.6035V68.6836H642.418V76.2031C642.418 77.9219 642.34 79.1361 642.184 79.8457C642.027 80.5553 641.738 81.1543 641.314 81.6426C640.898 82.1309 640.338 82.5215 639.635 82.8145C638.932 83.1009 638.014 83.2441 636.881 83.2441C635.514 83.2441 634.475 83.0879 633.766 82.7754C633.062 82.4564 632.506 82.0462 632.096 81.5449C631.686 81.0371 631.415 80.5065 631.285 79.9531C631.096 79.1328 631.002 77.9219 631.002 76.3203V68.6836ZM647.553 83V68.8008H650.443V80.5879H657.631V83H647.553ZM661.701 83V68.6836H672.316V71.1055H664.592V74.2793H671.779V76.6914H664.592V80.5879H672.59V83H661.701Z" fill="#949494"/>
<rect x="1000" y="92" width="120" height="30" fill="#D9D9D9"/>
<path d="M1007.7 114V99.6836H1010.59V106.041L1016.43 99.6836H1020.32L1014.93 105.26L1020.61 114H1016.87L1012.94 107.281L1010.59 109.674V114H1007.7ZM1024.08 114V99.6836H1028.4L1031 109.449L1033.57 99.6836H1037.9V114H1035.22V102.73L1032.38 114H1029.59L1026.76 102.73V114H1024.08ZM1042.04 109.342L1044.86 109.068C1045.02 110.012 1045.37 110.706 1045.88 111.148C1046.4 111.591 1047.1 111.812 1047.98 111.812C1048.91 111.812 1049.61 111.617 1050.08 111.227C1050.56 110.829 1050.79 110.367 1050.79 109.84C1050.79 109.501 1050.69 109.215 1050.49 108.98C1050.29 108.74 1049.95 108.531 1049.46 108.355C1049.12 108.238 1048.35 108.03 1047.14 107.73C1045.59 107.346 1044.5 106.874 1043.88 106.314C1043 105.527 1042.56 104.566 1042.56 103.434C1042.56 102.704 1042.77 102.024 1043.18 101.393C1043.59 100.755 1044.19 100.27 1044.96 99.9375C1045.74 99.6055 1046.68 99.4395 1047.79 99.4395C1049.58 99.4395 1050.93 99.8333 1051.84 100.621C1052.75 101.409 1053.23 102.46 1053.27 103.775L1050.38 103.902C1050.26 103.167 1049.99 102.639 1049.58 102.32C1049.18 101.995 1048.57 101.832 1047.76 101.832C1046.92 101.832 1046.26 102.005 1045.78 102.35C1045.48 102.571 1045.32 102.867 1045.32 103.238C1045.32 103.577 1045.47 103.867 1045.75 104.107C1046.12 104.413 1047 104.732 1048.41 105.064C1049.82 105.396 1050.85 105.742 1051.53 106.1C1052.2 106.451 1052.73 106.936 1053.11 107.555C1053.49 108.167 1053.68 108.925 1053.68 109.83C1053.68 110.65 1053.46 111.419 1053 112.135C1052.54 112.851 1051.9 113.385 1051.07 113.736C1050.23 114.081 1049.19 114.254 1047.95 114.254C1046.14 114.254 1044.75 113.837 1043.78 113.004C1042.81 112.164 1042.23 110.943 1042.04 109.342ZM1061.34 114V102.105H1057.09V99.6836H1068.47V102.105H1064.23V114H1061.34ZM1072.36 114V99.6836H1082.18V102.105H1075.25V105.494H1081.23V107.916H1075.25V114H1072.36ZM1086.57 114V99.6836H1091.21C1092.96 99.6836 1094.11 99.7552 1094.64 99.8984C1095.46 100.113 1096.15 100.582 1096.71 101.305C1097.26 102.021 1097.54 102.949 1097.54 104.088C1097.54 104.967 1097.38 105.706 1097.06 106.305C1096.74 106.904 1096.33 107.376 1095.84 107.721C1095.35 108.059 1094.85 108.284 1094.34 108.395C1093.65 108.531 1092.65 108.6 1091.34 108.6H1089.46V114H1086.57ZM1089.46 102.105V106.168H1091.04C1092.18 106.168 1092.94 106.093 1093.33 105.943C1093.71 105.794 1094.01 105.559 1094.22 105.24C1094.45 104.921 1094.56 104.55 1094.56 104.127C1094.56 103.606 1094.4 103.176 1094.1 102.838C1093.79 102.499 1093.4 102.288 1092.94 102.203C1092.59 102.138 1091.9 102.105 1090.86 102.105H1089.46ZM1101.18 109.342L1103.99 109.068C1104.16 110.012 1104.5 110.706 1105.01 111.148C1105.53 111.591 1106.23 111.812 1107.11 111.812C1108.04 111.812 1108.74 111.617 1109.21 111.227C1109.69 110.829 1109.93 110.367 1109.93 109.84C1109.93 109.501 1109.82 109.215 1109.62 108.98C1109.43 108.74 1109.08 108.531 1108.59 108.355C1108.25 108.238 1107.48 108.03 1106.27 107.73C1104.72 107.346 1103.64 106.874 1103.01 106.314C1102.13 105.527 1101.69 104.566 1101.69 103.434C1101.69 102.704 1101.9 102.024 1102.31 101.393C1102.73 100.755 1103.32 100.27 1104.1 99.9375C1104.88 99.6055 1105.82 99.4395 1106.92 99.4395C1108.71 99.4395 1110.07 99.8333 1110.97 100.621C1111.88 101.409 1112.36 102.46 1112.41 103.775L1109.52 103.902C1109.39 103.167 1109.12 102.639 1108.71 102.32C1108.31 101.995 1107.7 101.832 1106.89 101.832C1106.05 101.832 1105.39 102.005 1104.92 102.35C1104.61 102.571 1104.46 102.867 1104.46 103.238C1104.46 103.577 1104.6 103.867 1104.89 104.107C1105.25 104.413 1106.14 104.732 1107.54 105.064C1108.95 105.396 1109.99 105.742 1110.66 106.1C1111.34 106.451 1111.86 106.936 1112.24 107.555C1112.62 108.167 1112.82 108.925 1112.82 109.83C1112.82 110.65 1112.59 111.419 1112.13 112.135C1111.68 112.851 1111.03 113.385 1110.2 113.736C1109.37 114.081 1108.33 114.254 1107.08 114.254C1105.27 114.254 1103.88 113.837 1102.91 113.004C1101.94 112.164 1101.36 110.943 1101.18 109.342ZM1104.47 117.936V116.783C1105.14 116.855 1105.75 116.891 1106.31 116.891C1106.89 116.891 1107.32 116.786 1107.6 116.578C1107.82 116.422 1107.92 116.22 1107.92 115.973C1107.92 115.751 1107.82 115.559 1107.62 115.396C1107.42 115.234 1107.11 115.152 1106.68 115.152C1106.27 115.152 1105.84 115.217 1105.4 115.348L1105.66 114.381C1106.17 114.205 1106.71 114.117 1107.3 114.117C1108.11 114.117 1108.73 114.296 1109.15 114.654C1109.58 115.012 1109.79 115.449 1109.79 115.963C1109.79 116.536 1109.55 117.001 1109.09 117.359C1108.45 117.848 1107.55 118.092 1106.37 118.092C1105.53 118.092 1104.9 118.04 1104.47 117.936Z" fill="#949494"/>
<rect x="1200" y="30" width="120" height="30" fill="#D9D9D9"/>
<path d="M1215.14 46.7363L1217.95 47.625C1217.52 49.1875 1216.8 50.3496 1215.8 51.1113C1214.8 51.8665 1213.53 52.2441 1212 52.2441C1210.1 52.2441 1208.53 51.5964 1207.31 50.3008C1206.09 48.9987 1205.47 47.2214 1205.47 44.9688C1205.47 42.5859 1206.09 40.737 1207.32 39.4219C1208.55 38.1003 1210.17 37.4395 1212.17 37.4395C1213.93 37.4395 1215.35 37.957 1216.44 38.9922C1217.09 39.6042 1217.58 40.4831 1217.91 41.6289L1215.04 42.3125C1214.88 41.5703 1214.52 40.9844 1213.98 40.5547C1213.45 40.125 1212.8 39.9102 1212.03 39.9102C1210.97 39.9102 1210.1 40.291 1209.44 41.0527C1208.78 41.8145 1208.45 43.0482 1208.45 44.7539C1208.45 46.5638 1208.78 47.8529 1209.43 48.6211C1210.08 49.3893 1210.93 49.7734 1211.97 49.7734C1212.74 49.7734 1213.4 49.5293 1213.95 49.041C1214.5 48.5527 1214.9 47.7845 1215.14 46.7363ZM1222.45 52V37.6836H1228.53C1230.06 37.6836 1231.17 37.8138 1231.86 38.0742C1232.56 38.3281 1233.11 38.7839 1233.53 39.4414C1233.95 40.099 1234.15 40.8509 1234.15 41.6973C1234.15 42.7715 1233.84 43.6602 1233.21 44.3633C1232.58 45.0599 1231.63 45.4993 1230.38 45.6816C1231 46.0462 1231.51 46.4466 1231.92 46.8828C1232.33 47.319 1232.88 48.0938 1233.57 49.207L1235.32 52H1231.86L1229.77 48.8848C1229.03 47.7715 1228.52 47.0716 1228.25 46.7852C1227.97 46.4922 1227.68 46.2936 1227.38 46.1895C1227.07 46.0788 1226.59 46.0234 1225.92 46.0234H1225.34V52H1222.45ZM1225.34 43.7383H1227.47C1228.86 43.7383 1229.73 43.6797 1230.07 43.5625C1230.42 43.4453 1230.69 43.2435 1230.88 42.957C1231.08 42.6706 1231.18 42.3125 1231.18 41.8828C1231.18 41.401 1231.05 41.0137 1230.79 40.7207C1230.53 40.4212 1230.17 40.2324 1229.7 40.1543C1229.47 40.1217 1228.76 40.1055 1227.59 40.1055H1225.34V43.7383ZM1238.9 52V37.6836H1244.98C1246.51 37.6836 1247.62 37.8138 1248.31 38.0742C1249.01 38.3281 1249.57 38.7839 1249.98 39.4414C1250.4 40.099 1250.61 40.8509 1250.61 41.6973C1250.61 42.7715 1250.29 43.6602 1249.66 44.3633C1249.03 45.0599 1248.08 45.4993 1246.83 45.6816C1247.45 46.0462 1247.97 46.4466 1248.37 46.8828C1248.78 47.319 1249.33 48.0938 1250.02 49.207L1251.77 52H1248.31L1246.22 48.8848C1245.48 47.7715 1244.97 47.0716 1244.7 46.7852C1244.43 46.4922 1244.14 46.2936 1243.83 46.1895C1243.52 46.0788 1243.04 46.0234 1242.38 46.0234H1241.79V52H1238.9ZM1241.79 43.7383H1243.93C1245.31 43.7383 1246.18 43.6797 1246.53 43.5625C1246.87 43.4453 1247.14 43.2435 1247.34 42.957C1247.53 42.6706 1247.63 42.3125 1247.63 41.8828C1247.63 41.401 1247.5 41.0137 1247.24 40.7207C1246.98 40.4212 1246.62 40.2324 1246.15 40.1543C1245.92 40.1217 1245.22 40.1055 1244.04 40.1055H1241.79V43.7383ZM1255.35 52V37.6836H1258.24V43.3184H1263.91V37.6836H1266.8V52H1263.91V45.7402H1258.24V52H1255.35ZM1271.79 52V37.6836H1276.43C1278.19 37.6836 1279.34 37.7552 1279.87 37.8984C1280.69 38.1133 1281.38 38.582 1281.93 39.3047C1282.49 40.0208 1282.76 40.9486 1282.76 42.0879C1282.76 42.9668 1282.6 43.7057 1282.28 44.3047C1281.96 44.9036 1281.56 45.3757 1281.06 45.7207C1280.57 46.0592 1280.08 46.2839 1279.57 46.3945C1278.88 46.5312 1277.88 46.5996 1276.57 46.5996H1274.69V52H1271.79ZM1274.69 40.1055V44.168H1276.27C1277.41 44.168 1278.17 44.0931 1278.55 43.9434C1278.94 43.7936 1279.24 43.5592 1279.45 43.2402C1279.67 42.9212 1279.78 42.5501 1279.78 42.127C1279.78 41.6061 1279.63 41.1764 1279.32 40.8379C1279.02 40.4993 1278.63 40.2878 1278.16 40.2031C1277.82 40.138 1277.12 40.1055 1276.08 40.1055H1274.69ZM1286.4 47.3418L1289.21 47.0684C1289.38 48.0124 1289.73 48.7057 1290.24 49.1484C1290.76 49.5911 1291.46 49.8125 1292.34 49.8125C1293.27 49.8125 1293.97 49.6172 1294.44 49.2266C1294.91 48.8294 1295.15 48.3672 1295.15 47.8398C1295.15 47.5013 1295.05 47.2148 1294.85 46.9805C1294.65 46.7396 1294.31 46.5312 1293.81 46.3555C1293.48 46.2383 1292.7 46.0299 1291.5 45.7305C1289.95 45.3464 1288.86 44.8743 1288.24 44.3145C1287.36 43.5267 1286.92 42.5664 1286.92 41.4336C1286.92 40.7044 1287.12 40.0241 1287.54 39.3926C1287.95 38.7546 1288.55 38.2695 1289.32 37.9375C1290.1 37.6055 1291.04 37.4395 1292.14 37.4395C1293.94 37.4395 1295.29 37.8333 1296.2 38.6211C1297.11 39.4089 1297.59 40.4603 1297.63 41.7754L1294.74 41.9023C1294.62 41.1667 1294.35 40.6393 1293.94 40.3203C1293.54 39.9948 1292.93 39.832 1292.12 39.832C1291.28 39.832 1290.62 40.0046 1290.14 40.3496C1289.84 40.571 1289.68 40.8672 1289.68 41.2383C1289.68 41.5768 1289.83 41.8665 1290.11 42.1074C1290.48 42.4134 1291.36 42.7324 1292.77 43.0645C1294.18 43.3965 1295.21 43.7415 1295.88 44.0996C1296.56 44.4512 1297.09 44.9362 1297.47 45.5547C1297.85 46.1667 1298.04 46.9251 1298.04 47.8301C1298.04 48.6504 1297.82 49.4186 1297.36 50.1348C1296.9 50.8509 1296.26 51.3848 1295.43 51.7363C1294.59 52.0814 1293.55 52.2539 1292.31 52.2539C1290.5 52.2539 1289.11 51.8372 1288.14 51.0039C1287.17 50.1641 1286.59 48.9434 1286.4 47.3418ZM1289.69 55.9355V54.7832C1290.36 54.8548 1290.98 54.8906 1291.54 54.8906C1292.12 54.8906 1292.55 54.7865 1292.83 54.5781C1293.04 54.4219 1293.15 54.2201 1293.15 53.9727C1293.15 53.7513 1293.05 53.5592 1292.85 53.3965C1292.65 53.2337 1292.33 53.1523 1291.91 53.1523C1291.49 53.1523 1291.07 53.2174 1290.63 53.3477L1290.88 52.3809C1291.39 52.2051 1291.94 52.1172 1292.53 52.1172C1293.34 52.1172 1293.96 52.2962 1294.38 52.6543C1294.8 53.0124 1295.02 53.4486 1295.02 53.9629C1295.02 54.5358 1294.78 55.0013 1294.31 55.3594C1293.68 55.8477 1292.78 56.0918 1291.6 56.0918C1290.76 56.0918 1290.12 56.0397 1289.69 55.9355ZM1315.38 52H1312.24L1310.99 48.748H1305.27L1304.09 52H1301.02L1306.6 37.6836H1309.65L1315.38 52ZM1310.06 46.3359L1308.09 41.0234L1306.16 46.3359H1310.06Z" fill="#949494"/>
<rect x="1600" y="92" width="120" height="30" fill="#D9D9D9"/>
<path d="M1610.96 114V107.975L1605.71 99.6836H1609.1L1612.47 105.348L1615.77 99.6836H1619.1L1613.84 107.994V114H1610.96ZM1622.54 114V99.6836H1633.15V102.105H1625.43V105.279H1632.62V107.691H1625.43V111.588H1633.43V114H1622.54ZM1637.91 114V99.6836H1640.72L1646.58 109.244V99.6836H1649.27V114H1646.37L1640.59 104.664V114H1637.91ZM1654.24 114V99.6836H1657.13V114H1654.24ZM1654.35 98.8633V96.2656H1657.05V98.8633H1654.35ZM1661.94 114V99.6836H1664.83V106.041L1670.67 99.6836H1674.55L1669.16 105.26L1674.85 114H1671.11L1667.17 107.281L1664.83 109.674V114H1661.94ZM1691.26 114H1688.12L1686.87 110.748H1681.14L1679.96 114H1676.9L1682.47 99.6836H1685.53L1691.26 114ZM1685.94 108.336L1683.97 103.023L1682.03 108.336H1685.94ZM1694.8 114V99.6836H1699.44C1701.2 99.6836 1702.35 99.7552 1702.88 99.8984C1703.7 100.113 1704.39 100.582 1704.94 101.305C1705.49 102.021 1705.77 102.949 1705.77 104.088C1705.77 104.967 1705.61 105.706 1705.29 106.305C1704.97 106.904 1704.57 107.376 1704.07 107.721C1703.58 108.059 1703.09 108.284 1702.58 108.395C1701.89 108.531 1700.89 108.6 1699.58 108.6H1697.7V114H1694.8ZM1697.7 102.105V106.168H1699.28C1700.42 106.168 1701.18 106.093 1701.56 105.943C1701.95 105.794 1702.25 105.559 1702.46 105.24C1702.68 104.921 1702.79 104.55 1702.79 104.127C1702.79 103.606 1702.64 103.176 1702.33 102.838C1702.03 102.499 1701.64 102.288 1701.17 102.203C1700.83 102.138 1700.13 102.105 1699.09 102.105H1697.7ZM1710.06 114V99.6836H1712.95V114H1710.06Z" fill="#949494"/>
<rect x="1900" y="92" width="120" height="30" fill="#D9D9D9"/>
<path d="M1908.8 113V98.6836H1911.7V105.041L1917.54 98.6836H1921.42L1916.03 104.26L1921.71 113H1917.97L1914.04 106.281L1911.7 108.674V113H1908.8ZM1925.2 98.6836H1928.09V106.438C1928.09 107.668 1928.13 108.465 1928.2 108.83C1928.32 109.416 1928.61 109.888 1929.08 110.246C1929.54 110.598 1930.18 110.773 1930.99 110.773C1931.81 110.773 1932.43 110.607 1932.85 110.275C1933.26 109.937 1933.51 109.523 1933.6 109.035C1933.68 108.547 1933.72 107.736 1933.72 106.604V98.6836H1936.62V106.203C1936.62 107.922 1936.54 109.136 1936.38 109.846C1936.22 110.555 1935.93 111.154 1935.51 111.643C1935.1 112.131 1934.54 112.521 1933.83 112.814C1933.13 113.101 1932.21 113.244 1931.08 113.244C1929.71 113.244 1928.67 113.088 1927.96 112.775C1927.26 112.456 1926.7 112.046 1926.29 111.545C1925.88 111.037 1925.61 110.507 1925.48 109.953C1925.29 109.133 1925.2 107.922 1925.2 106.32V98.6836ZM1941.63 113V98.6836H1945.96L1948.56 108.449L1951.12 98.6836H1955.46V113H1952.78V101.73L1949.93 113H1947.15L1944.32 101.73V113H1941.63ZM1960.37 113V98.6836H1963.26V105.041L1969.1 98.6836H1972.99L1967.6 104.26L1973.28 113H1969.54L1965.61 106.281L1963.26 108.674V113H1960.37ZM1989.7 113H1986.55L1985.3 109.748H1979.58L1978.4 113H1975.33L1980.91 98.6836H1983.96L1989.7 113ZM1984.37 107.336L1982.4 102.023L1980.47 107.336H1984.37ZM1993.24 113V98.6836H1997.88C1999.63 98.6836 2000.78 98.7552 2001.31 98.8984C2002.13 99.1133 2002.82 99.582 2003.38 100.305C2003.93 101.021 2004.21 101.949 2004.21 103.088C2004.21 103.967 2004.05 104.706 2003.73 105.305C2003.41 105.904 2003 106.376 2002.51 106.721C2002.02 107.059 2001.52 107.284 2001.01 107.395C2000.32 107.531 1999.32 107.6 1998.01 107.6H1996.13V113H1993.24ZM1996.13 101.105V105.168H1997.71C1998.85 105.168 1999.61 105.093 2000 104.943C2000.38 104.794 2000.68 104.559 2000.89 104.24C2001.12 103.921 2001.23 103.55 2001.23 103.127C2001.23 102.606 2001.07 102.176 2000.77 101.838C2000.46 101.499 2000.07 101.288 1999.61 101.203C1999.26 101.138 1998.57 101.105 1997.53 101.105H1996.13ZM2008.49 113V98.6836H2011.38V113H2008.49Z" fill="#949494"/>
<rect x="2400" y="92" width="120" height="30" fill="#D9D9D9"/>
<path d="M2415.14 107.736L2417.95 108.625C2417.52 110.188 2416.8 111.35 2415.8 112.111C2414.8 112.867 2413.53 113.244 2412 113.244C2410.1 113.244 2408.53 112.596 2407.31 111.301C2406.09 109.999 2405.47 108.221 2405.47 105.969C2405.47 103.586 2406.09 101.737 2407.32 100.422C2408.55 99.1003 2410.17 98.4395 2412.17 98.4395C2413.93 98.4395 2415.35 98.957 2416.44 99.9922C2417.09 100.604 2417.58 101.483 2417.91 102.629L2415.04 103.312C2414.88 102.57 2414.52 101.984 2413.98 101.555C2413.45 101.125 2412.8 100.91 2412.03 100.91C2410.97 100.91 2410.1 101.291 2409.44 102.053C2408.78 102.814 2408.45 104.048 2408.45 105.754C2408.45 107.564 2408.78 108.853 2409.43 109.621C2410.08 110.389 2410.93 110.773 2411.97 110.773C2412.74 110.773 2413.4 110.529 2413.95 110.041C2414.5 109.553 2414.9 108.785 2415.14 107.736ZM2422.46 113V98.6836H2425.28L2431.14 108.244V98.6836H2433.82V113H2430.92L2425.15 103.664V113H2422.46ZM2438.93 113V98.6836H2441.82V105.041L2447.66 98.6836H2451.54L2446.15 104.26L2451.84 113H2448.1L2444.16 106.281L2441.82 108.674V113H2438.93ZM2455.35 113V98.6836H2461.44C2462.97 98.6836 2464.08 98.8138 2464.77 99.0742C2465.46 99.3281 2466.02 99.7839 2466.44 100.441C2466.85 101.099 2467.06 101.851 2467.06 102.697C2467.06 103.771 2466.74 104.66 2466.11 105.363C2465.48 106.06 2464.54 106.499 2463.28 106.682C2463.91 107.046 2464.42 107.447 2464.82 107.883C2465.23 108.319 2465.78 109.094 2466.47 110.207L2468.22 113H2464.77L2462.68 109.885C2461.93 108.771 2461.43 108.072 2461.15 107.785C2460.88 107.492 2460.59 107.294 2460.28 107.189C2459.98 107.079 2459.49 107.023 2458.83 107.023H2458.24V113H2455.35ZM2458.24 104.738H2460.38C2461.77 104.738 2462.63 104.68 2462.98 104.562C2463.32 104.445 2463.59 104.243 2463.79 103.957C2463.98 103.671 2464.08 103.312 2464.08 102.883C2464.08 102.401 2463.95 102.014 2463.69 101.721C2463.44 101.421 2463.08 101.232 2462.61 101.154C2462.37 101.122 2461.67 101.105 2460.5 101.105H2458.24V104.738ZM2475.02 113V101.105H2470.77V98.6836H2482.15V101.105H2477.91V113H2475.02ZM2486.03 113V98.6836H2492.12C2493.65 98.6836 2494.76 98.8138 2495.45 99.0742C2496.14 99.3281 2496.7 99.7839 2497.12 100.441C2497.53 101.099 2497.74 101.851 2497.74 102.697C2497.74 103.771 2497.42 104.66 2496.79 105.363C2496.16 106.06 2495.22 106.499 2493.96 106.682C2494.59 107.046 2495.1 107.447 2495.5 107.883C2495.91 108.319 2496.46 109.094 2497.15 110.207L2498.9 113H2495.45L2493.36 109.885C2492.61 108.771 2492.11 108.072 2491.83 107.785C2491.56 107.492 2491.27 107.294 2490.96 107.189C2490.66 107.079 2490.17 107.023 2489.51 107.023H2488.92V113H2486.03ZM2488.92 104.738H2491.06C2492.45 104.738 2493.31 104.68 2493.66 104.562C2494 104.445 2494.27 104.243 2494.47 103.957C2494.66 103.671 2494.76 103.312 2494.76 102.883C2494.76 102.401 2494.63 102.014 2494.37 101.721C2494.12 101.421 2493.76 101.232 2493.29 101.154C2493.05 101.122 2492.35 101.105 2491.18 101.105H2488.92V104.738ZM2502.5 113V98.6836H2505.32L2511.18 108.244V98.6836H2513.86V113H2510.96L2505.19 103.664V113H2502.5Z" fill="#949494"/>
<rect x="2877" y="172" width="120" height="30" fill="#D9D9D9"/>
<rect x="2877" y="252" width="120" height="30" fill="#D9D9D9"/>
<rect x="2877" y="110" width="120" height="30" fill="#D9D9D9"/>
<path d="M2891.14 126.342L2893.95 126.068C2894.12 127.012 2894.46 127.706 2894.97 128.148C2895.5 128.591 2896.2 128.812 2897.07 128.812C2898.01 128.812 2898.71 128.617 2899.17 128.227C2899.65 127.829 2899.89 127.367 2899.89 126.84C2899.89 126.501 2899.79 126.215 2899.58 125.98C2899.39 125.74 2899.04 125.531 2898.55 125.355C2898.21 125.238 2897.44 125.03 2896.23 124.73C2894.68 124.346 2893.6 123.874 2892.97 123.314C2892.09 122.527 2891.65 121.566 2891.65 120.434C2891.65 119.704 2891.86 119.024 2892.27 118.393C2892.69 117.755 2893.28 117.27 2894.06 116.938C2894.84 116.605 2895.78 116.439 2896.88 116.439C2898.68 116.439 2900.03 116.833 2900.93 117.621C2901.84 118.409 2902.32 119.46 2902.37 120.775L2899.48 120.902C2899.35 120.167 2899.09 119.639 2898.68 119.32C2898.27 118.995 2897.66 118.832 2896.85 118.832C2896.01 118.832 2895.35 119.005 2894.88 119.35C2894.57 119.571 2894.42 119.867 2894.42 120.238C2894.42 120.577 2894.56 120.867 2894.85 121.107C2895.21 121.413 2896.1 121.732 2897.5 122.064C2898.91 122.396 2899.95 122.742 2900.62 123.1C2901.3 123.451 2901.82 123.936 2902.2 124.555C2902.59 125.167 2902.78 125.925 2902.78 126.83C2902.78 127.65 2902.55 128.419 2902.09 129.135C2901.64 129.851 2900.99 130.385 2900.16 130.736C2899.33 131.081 2898.29 131.254 2897.04 131.254C2895.24 131.254 2893.85 130.837 2892.88 130.004C2891.9 129.164 2891.33 127.943 2891.14 126.342ZM2907.12 131V116.684H2910.01V131H2907.12ZM2907.23 115.863V113.266H2909.92V115.863H2907.23ZM2914.79 131V116.684H2920.87C2922.4 116.684 2923.51 116.814 2924.2 117.074C2924.9 117.328 2925.45 117.784 2925.87 118.441C2926.29 119.099 2926.49 119.851 2926.49 120.697C2926.49 121.771 2926.18 122.66 2925.55 123.363C2924.92 124.06 2923.97 124.499 2922.71 124.682C2923.34 125.046 2923.85 125.447 2924.26 125.883C2924.67 126.319 2925.22 127.094 2925.91 128.207L2927.66 131H2924.2L2922.11 127.885C2921.37 126.771 2920.86 126.072 2920.59 125.785C2920.31 125.492 2920.02 125.294 2919.72 125.189C2919.41 125.079 2918.93 125.023 2918.26 125.023H2917.68V131H2914.79ZM2917.68 122.738H2919.81C2921.2 122.738 2922.07 122.68 2922.41 122.562C2922.76 122.445 2923.03 122.243 2923.22 121.957C2923.42 121.671 2923.52 121.312 2923.52 120.883C2923.52 120.401 2923.39 120.014 2923.12 119.721C2922.87 119.421 2922.51 119.232 2922.04 119.154C2921.81 119.122 2921.1 119.105 2919.93 119.105H2917.68V122.738ZM2931.27 131V116.684H2934.16V123.041L2940 116.684H2943.88L2938.49 122.26L2944.18 131H2940.44L2936.5 124.281L2934.16 126.674V131H2931.27ZM2947.68 131V116.684H2958.3V119.105H2950.57V122.279H2957.76V124.691H2950.57V128.588H2958.57V131H2947.68ZM2972.18 125.736L2974.98 126.625C2974.55 128.188 2973.84 129.35 2972.84 130.111C2971.84 130.867 2970.57 131.244 2969.04 131.244C2967.14 131.244 2965.57 130.596 2964.35 129.301C2963.13 127.999 2962.51 126.221 2962.51 123.969C2962.51 121.586 2963.13 119.737 2964.36 118.422C2965.59 117.1 2967.21 116.439 2969.21 116.439C2970.96 116.439 2972.39 116.957 2973.48 117.992C2974.13 118.604 2974.62 119.483 2974.95 120.629L2972.08 121.312C2971.91 120.57 2971.56 119.984 2971.02 119.555C2970.49 119.125 2969.83 118.91 2969.07 118.91C2968.01 118.91 2967.14 119.291 2966.48 120.053C2965.82 120.814 2965.49 122.048 2965.49 123.754C2965.49 125.564 2965.82 126.853 2966.47 127.621C2967.12 128.389 2967.97 128.773 2969.01 128.773C2969.78 128.773 2970.44 128.529 2970.99 128.041C2971.54 127.553 2971.94 126.785 2972.18 125.736ZM2979.39 131V116.684H2982.28V131H2979.39ZM2979.49 115.863V113.266H2982.19V115.863H2979.49Z" fill="#949494"/>
<path d="M497.6 78.5713L504.671 71.5002L538.104 104.933L531.033 112.004L497.6 78.5713Z" fill="#949494"/>
<path d="M531 40.0098L538.071 47.0808L504.505 80.6466L497.434 73.5756L531 40.0098Z" fill="#949494"/>
<path d="M929.127 72.1318L922.056 79.2029L911.931 69.0778L919.002 62.0067L929.127 72.1318Z" fill="#949494"/>
<path d="M919.035 90.0049L911.964 82.9338L921.92 72.9782L928.991 80.0493L919.035 90.0049Z" fill="#949494"/>
<path d="M1556.55 71.1533L1549.48 78.2244L1531.33 60.0699L1538.4 52.9988L1556.55 71.1533Z" fill="#949494"/>
<path d="M1407.07 78.4639L1400 71.3928L1418.4 52.9976L1425.47 60.0687L1407.07 78.4639Z" fill="#949494"/>
<line x1="1418.39" y1="57.999" x2="1538.39" y2="57.999" stroke="#949494" stroke-width="10"/>
<path d="M2191 80.9951L2198.07 73.924L2216.23 92.0785L2209.15 99.1496L2191 80.9951Z" fill="#949494"/>
<path d="M2340.48 73.6846L2347.55 80.7556L2329.16 99.1508L2322.08 92.0798L2340.48 73.6846Z" fill="#949494"/>
<line x1="2329.16" y1="94.1494" x2="2209.16" y2="94.1494" stroke="#949494" stroke-width="10"/>
<path d="M2086.55 71.1533L2079.48 78.2244L2061.33 60.0699L2068.4 52.9988L2086.55 71.1533Z" fill="#949494"/>
<path d="M1817.07 78.4639L1810 71.3928L1828.4 52.9976L1835.47 60.0687L1817.07 78.4639Z" fill="#949494"/>
<line x1="1828.39" y1="57.999" x2="2068.39" y2="57.999" stroke="#949494" stroke-width="10"/>
<path d="M2791.84 80.8447L2798.91 73.7737L2878.94 153.803L2871.87 160.874L2791.84 80.8447Z" fill="#949494"/>
<path d="M2700.84 80.8457L2707.91 73.7746L2868.1 233.959L2861.03 241.03L2700.84 80.8457Z" fill="#949494"/>
<line x1="2814" y1="94" x2="2997" y2="94" stroke="#949494" stroke-width="10"/>
<line x1="2872" y1="156" x2="2997" y2="156" stroke="#949494" stroke-width="10"/>
<line x1="2847" y1="218" x2="2997" y2="218.001" stroke="#949494" stroke-width="10"/>
<line x1="2861" y1="236.001" x2="2997" y2="236.001" stroke="#949494" stroke-width="10"/>
<path d="M2619.84 80.8447L2626.91 73.7737L2662.28 109.145L2655.21 116.216L2619.84 80.8447Z" fill="#949494"/>
<path d="M701.034 112.004L693.963 104.933L718.899 79.9972L725.97 87.0683L701.034 112.004Z" fill="#949494"/>
<line x1="80" y1="75.999" x2="500" y2="75.999" stroke="#949494" stroke-width="10"/>
<line x1="925" y1="75.999" x2="2905" y2="75.999" stroke="#949494" stroke-width="10"/>
<line x1="719" y1="84.999" x2="919" y2="84.999" stroke="#949494" stroke-width="10"/>
<line x1="719" y1="66.999" x2="919" y2="66.999" stroke="#949494" stroke-width="10"/>
<line x1="531" y1="106.999" x2="701" y2="106.999" stroke="#949494" stroke-width="10"/>
<line x1="531" y1="44.999" x2="701" y2="44.999" stroke="#949494" stroke-width="10"/>
<path d="M725.914 64.9209L718.843 71.992L693.93 47.0795L701.001 40.0084L725.914 64.9209Z" fill="#949494"/>
</svg>
